<?xml version="1.0" encoding="UTF-8" standalone="no"?>
<!-- Created with Inkscape (http://www.inkscape.org/) -->

<svg
   width="62"
   height="62"
   viewBox="0 0 62 62"
   version="1.1"
   id="svg1"
   inkscape:version="1.4.2 (unknown)"
   sodipodi:docname="folder-lutris.svg"
   xmlns:inkscape="http://www.inkscape.org/namespaces/inkscape"
   xmlns:sodipodi="http://sodipodi.sourceforge.net/DTD/sodipodi-0.dtd"
   xmlns:xlink="http://www.w3.org/1999/xlink"
   xmlns="http://www.w3.org/2000/svg"
   xmlns:svg="http://www.w3.org/2000/svg">
  <sodipodi:namedview
     id="namedview1"
     pagecolor="#ffffff"
     bordercolor="#000000"
     borderopacity="0.25"
     inkscape:showpageshadow="2"
     inkscape:pageopacity="0.0"
     inkscape:pagecheckerboard="0"
     inkscape:deskcolor="#d1d1d1"
     inkscape:document-units="px"
     inkscape:zoom="10.74725"
     inkscape:cx="30.0542"
     inkscape:cy="38.242341"
     inkscape:window-width="1920"
     inkscape:window-height="994"
     inkscape:window-x="0"
     inkscape:window-y="0"
     inkscape:window-maximized="1"
     inkscape:current-layer="layer1"
     showgrid="true">
    <inkscape:grid
       id="grid1"
       units="px"
       originx="0"
       originy="0"
       spacingx="1"
       spacingy="1"
       empcolor="#0099e5"
       empopacity="0.30196078"
       color="#0099e5"
       opacity="0.14901961"
       empspacing="5"
       enabled="true"
       visible="true" />
  </sodipodi:namedview>
  <defs
     id="defs1">
    <linearGradient
       id="linearGradient5"
       inkscape:collect="always">
      <stop
         style="stop-color:#566c80;stop-opacity:1;"
         offset="0"
         id="stop5" />
      <stop
         style="stop-color:#323f4b;stop-opacity:1;"
         offset="0.7836225"
         id="stop7" />
      <stop
         style="stop-color:#29333d;stop-opacity:1;"
         offset="1"
         id="stop6" />
    </linearGradient>
    <linearGradient
       id="linearGradient3"
       inkscape:collect="always">
      <stop
         style="stop-color:#ffe680;stop-opacity:1"
         offset="0"
         id="stop3" />
      <stop
         style="stop-color:#422277;stop-opacity:1;"
         offset="1"
         id="stop4" />
    </linearGradient>
    <linearGradient
       id="linearGradient1"
       inkscape:collect="always">
      <stop
         style="stop-color:#cd87de;stop-opacity:1"
         offset="0"
         id="stop1" />
      <stop
         style="stop-color:#007a99;stop-opacity:1;"
         offset="1"
         id="stop2" />
    </linearGradient>
    <radialGradient
       id="paint664_radial_890_11"
       cx="0"
       cy="0"
       r="1"
       gradientUnits="userSpaceOnUse"
       gradientTransform="matrix(-16.000099,-9.999913,9.999913,-16.000099,583,171)">
      <stop
         offset="0.42141"
         stop-color="#B7C6CD"
         id="stop2071" />
      <stop
         offset="1"
         stop-color="#EFF2F6"
         id="stop2072" />
    </radialGradient>
    <linearGradient
       id="paint665_linear_890_11"
       x1="605"
       y1="180"
       x2="601.466"
       y2="162.72301"
       gradientUnits="userSpaceOnUse">
      <stop
         stop-color="#5200FF"
         id="stop2073" />
      <stop
         offset="1"
         stop-color="#0085FF"
         id="stop2074" />
    </linearGradient>
    <linearGradient
       id="paint666_linear_890_11"
       x1="567"
       y1="181"
       x2="562.11798"
       y2="174.183"
       gradientUnits="userSpaceOnUse">
      <stop
         stop-color="#5200FF"
         id="stop2075" />
      <stop
         offset="0.670391"
         stop-color="#0085FF"
         id="stop2076" />
    </linearGradient>
    <linearGradient
       id="paint667_linear_890_11"
       x1="605"
       y1="180"
       x2="597.32001"
       y2="174.24001"
       gradientUnits="userSpaceOnUse">
      <stop
         stop-color="#5200FF"
         id="stop2077" />
      <stop
         offset="1"
         stop-color="#0085FF"
         id="stop2078" />
    </linearGradient>
    <linearGradient
       id="paint668_linear_890_11"
       x1="567"
       y1="180"
       x2="561.23999"
       y2="172.32001"
       gradientUnits="userSpaceOnUse">
      <stop
         stop-color="#5200FF"
         id="stop2079" />
      <stop
         offset="1"
         stop-color="#0085FF"
         id="stop2080" />
    </linearGradient>
    <linearGradient
       id="paint669_linear_890_11"
       x1="607"
       y1="179"
       x2="602.50598"
       y2="171.80901"
       gradientUnits="userSpaceOnUse">
      <stop
         stop-color="#5200FF"
         id="stop2081" />
      <stop
         offset="1"
         stop-color="#0085FF"
         id="stop2082" />
    </linearGradient>
    <linearGradient
       id="paint670_linear_890_11"
       x1="607"
       y1="217"
       x2="568.82599"
       y2="170.01601"
       gradientUnits="userSpaceOnUse">
      <stop
         stop-color="#5200FF"
         id="stop2083" />
      <stop
         offset="1"
         stop-color="#0085FF"
         id="stop2084" />
    </linearGradient>
    <radialGradient
       id="paint671_radial_890_11"
       cx="0"
       cy="0"
       r="1"
       gradientUnits="userSpaceOnUse"
       gradientTransform="matrix(0,20,-16,0,583,187)">
      <stop
         offset="0.869716"
         stop-color="#EFF2F6"
         id="stop2085" />
      <stop
         offset="1"
         stop-color="#B7C6CD"
         id="stop2086" />
    </radialGradient>
    <linearGradient
       id="paint497_linear_890_11"
       x1="497"
       y1="413"
       x2="447.457"
       y2="376.79599"
       gradientUnits="userSpaceOnUse"
       gradientTransform="translate(-452,-358)">
      <stop
         offset="0.636456"
         stop-color="#71706E"
         id="stop1737" />
      <stop
         offset="1"
         stop-color="#B9AA99"
         id="stop1738" />
    </linearGradient>
    <linearGradient
       id="paint498_linear_890_11"
       x1="507"
       y1="413"
       x2="457.457"
       y2="376.79599"
       gradientUnits="userSpaceOnUse"
       gradientTransform="translate(-452,-358)">
      <stop
         offset="0.544933"
         stop-color="#FF7E07"
         id="stop1739" />
      <stop
         offset="1"
         stop-color="#FFE607"
         id="stop1740" />
    </linearGradient>
    <linearGradient
       id="paint499_linear_890_11"
       x1="473"
       y1="365"
       x2="486.28699"
       y2="389.91299"
       gradientUnits="userSpaceOnUse"
       gradientTransform="translate(-452,-358)">
      <stop
         stop-color="white"
         id="stop1741" />
      <stop
         offset="0.705"
         stop-color="#EAEFEF"
         id="stop1742" />
    </linearGradient>
    <linearGradient
       id="paint500_linear_890_11"
       x1="480"
       y1="371.5"
       x2="480"
       y2="368.5"
       gradientUnits="userSpaceOnUse"
       gradientTransform="translate(-452,-358)">
      <stop
         offset="0.155999"
         stop-color="#71706E"
         id="stop1743" />
      <stop
         offset="0.796276"
         stop-color="#B9AA99"
         id="stop1744" />
    </linearGradient>
    <linearGradient
       id="paint501_linear_890_11"
       x1="479"
       y1="375.5"
       x2="479"
       y2="372.5"
       gradientUnits="userSpaceOnUse"
       gradientTransform="translate(-452,-358)">
      <stop
         offset="0.155999"
         stop-color="#71706E"
         id="stop1745" />
      <stop
         offset="0.796276"
         stop-color="#B9AA99"
         id="stop1746" />
    </linearGradient>
    <linearGradient
       id="paint502_linear_890_11"
       x1="511"
       y1="417"
       x2="459"
       y2="383.64755"
       gradientUnits="userSpaceOnUse"
       gradientTransform="translate(-452,-361.55289)">
      <stop
         offset="0.207424"
         stop-color="#2E2E41"
         id="stop1747"
         style="stop-color:#3e3e57;stop-opacity:1;" />
      <stop
         offset="1"
         stop-color="#566C80"
         id="stop1748" />
    </linearGradient>
    <linearGradient
       inkscape:collect="always"
       xlink:href="#linearGradient1"
       id="linearGradient2"
       x1="31"
       y1="2.9650395"
       x2="31"
       y2="30.283407"
       gradientUnits="userSpaceOnUse"
       gradientTransform="matrix(1,0,0,0.76871358,2.0970049e-7,9.1678469)" />
    <linearGradient
       inkscape:collect="always"
       xlink:href="#linearGradient3"
       id="linearGradient4"
       x1="12"
       y1="3"
       x2="16"
       y2="27.916666"
       gradientUnits="userSpaceOnUse"
       gradientTransform="matrix(1,0,0,0.92307692,0,0.67788209)" />
    <linearGradient
       inkscape:collect="always"
       xlink:href="#linearGradient5"
       id="linearGradient6"
       x1="7"
       y1="21.447113"
       x2="55"
       y2="52.447113"
       gradientUnits="userSpaceOnUse" />
    <radialGradient
       inkscape:collect="always"
       xlink:href="#linearGradient1063"
       id="radialGradient1065"
       cx="13.25329"
       cy="28.90449"
       fx="13.25329"
       fy="28.90449"
       r="8.2185392"
       gradientTransform="matrix(3.869049,0,0,2.4702873,3.760469,79.925123)"
       gradientUnits="userSpaceOnUse" />
    <linearGradient
       inkscape:collect="always"
       id="linearGradient1063">
      <stop
         style="stop-color:#87366f;stop-opacity:1;"
         offset="0"
         id="stop1059" />
      <stop
         style="stop-color:#87366f;stop-opacity:0;"
         offset="1"
         id="stop1061" />
    </linearGradient>
    <linearGradient
       inkscape:collect="always"
       xlink:href="#linearGradient1038"
       id="linearGradient1040"
       x1="321.65744"
       y1="-172.25456"
       x2="342.44727"
       y2="-172.25456"
       gradientUnits="userSpaceOnUse"
       gradientTransform="matrix(3.5790069,0,0,3.5790069,-519.01665,604.77006)" />
    <linearGradient
       inkscape:collect="always"
       id="linearGradient1038">
      <stop
         style="stop-color:#ff5f73;stop-opacity:1"
         offset="0"
         id="stop1034" />
      <stop
         id="stop1042"
         offset="0.14546083"
         style="stop-color:#ff95a9;stop-opacity:1" />
      <stop
         style="stop-color:#ff8da4;stop-opacity:1"
         offset="0.25454578"
         id="stop1044" />
      <stop
         id="stop1046"
         offset="0.63634312"
         style="stop-color:#ff465c;stop-opacity:1" />
      <stop
         style="stop-color:#f2465b;stop-opacity:1"
         offset="1"
         id="stop1036" />
    </linearGradient>
  </defs>
  <g
     inkscape:label="Layer 1"
     inkscape:groupmode="layer"
     id="layer1">
    <g
       id="g1"
       transform="translate(0,1.552887)">
      <path
         d="m 7,8.0624979 c 0,-2.5486158 2.239,-4.615385 5,-4.615385 h 28 c 2.761,0 5,2.0667692 5,4.615385 V 46.831728 c 0,2.548616 -2.239,4.615385 -5,4.615385 H 12 c -2.761,0 -5,-2.066769 -5,-4.615385 z"
         id="path487"
         style="fill:url(#linearGradient4);stroke-width:0.960769" />
      <path
         d="m 17,16.443751 c 0,-2.997983 1.998655,-4.996638 5,-4.996638 h 27.999999 c 2.975797,0 4.971994,1.998655 4.974452,4.996638 l 0.02555,31.159775 c 0.0017,2.122418 -2.239,3.843568 -5,3.843568 H 22 c -2.761,0 -5,-1.72115 -5,-3.843568 z"
         id="path488"
         style="fill:url(#linearGradient2);fill-opacity:1;stroke-width:0.876763"
         sodipodi:nodetypes="sssssssss" />
      <path
         d="m 3,51.447113 v -30 c 0,-2.209 1.791,-4 4,-4 h 9 c 0.657,0 1.303,0.162 1.882,0.47 l 39,21.795 c 1.304,0.696 2.118,2.053 2.118,3.53 v 8.205 c 0,2.209 -1.791,4 -4,4 H 7 c -2.209,0 -4,-1.791 -4,-4 z"
         id="path492"
         style="fill:url(#linearGradient6)" />
    </g>
    <g
       id="g2"
       transform="translate(-19.663813,-39.661097)">
      <ellipse
         style="opacity:0.528;fill:url(#radialGradient1065);fill-opacity:1;stroke:#000000;stroke-width:0;stroke-linecap:round;stroke-linejoin:round;stroke-miterlimit:4;stroke-dasharray:none;stroke-opacity:0.0941176"
         id="path1057"
         cx="14.278038"
         cy="96.02359"
         rx="8.8845673"
         ry="5.672565"
         transform="rotate(-19.102915)" />
      <path
         style="fill:#000000;fill-opacity:0.0954546;stroke:#000000;stroke-width:0;stroke-linecap:round;stroke-linejoin:round;stroke-miterlimit:4;stroke-dasharray:none;stroke-opacity:0.0941176"
         d="m 39.919914,80.894613 v 1.2e-4 c -0.807056,0.004 -1.614078,0.133587 -2.240519,0.373543 l -8.904105,2.526312 0.0037,2.108753 c 0.0016,0.525093 0.355616,0.771305 0.837161,0.972211 l 8.063246,3.364107 c 0.621063,0.259115 1.433016,0.386481 2.24434,0.386481 0.811324,0 1.623277,-0.127366 2.24434,-0.386481 l 8.063247,-3.364107 c 0.481541,-0.200906 0.835512,-0.447117 0.837099,-0.972211 l 0.0038,-1.815839 -8.904107,-2.819226 c -0.639534,-0.20249 -1.433459,-0.369567 -2.240517,-0.373543 v -1.2e-4 c -0.0013,6e-6 -0.0025,5.6e-5 -0.0038,6.3e-5 -0.0013,-7e-6 -0.0025,-5.7e-5 -0.0038,-6.3e-5 z"
         id="path1025"
         inkscape:connector-curvature="0"
         sodipodi:nodetypes="ccsccccsccccsccccc" />
      <path
         sodipodi:nodetypes="ccsccccsccccsccccc"
         inkscape:connector-curvature="0"
         id="path940"
         d="m 39.820126,80.520407 v 1.19e-4 c -0.807057,0.004 -1.614078,0.133588 -2.240519,0.373543 l -8.904105,2.526313 0.0037,2.108752 c 0.0016,0.525094 0.355616,0.771305 0.837161,0.972211 l 8.063246,3.364107 c 0.621063,0.259116 1.433016,0.386482 2.24434,0.386482 0.811324,0 1.623278,-0.127366 2.244341,-0.386482 l 8.063246,-3.364107 c 0.481541,-0.200906 0.835512,-0.447116 0.837098,-0.972211 l 0.0038,-1.815838 -8.904106,-2.819227 c -0.639535,-0.20249 -1.43346,-0.369567 -2.240518,-0.373543 v -1.19e-4 c -0.0013,5e-6 -0.0025,5.6e-5 -0.0038,6.2e-5 -0.0013,-6e-6 -0.0025,-5.7e-5 -0.0038,-6.2e-5 z"
         style="fill:#f9f9f9;fill-opacity:0.60000002;stroke:#000000;stroke-width:0;stroke-linecap:round;stroke-linejoin:round;stroke-miterlimit:4;stroke-dasharray:none;stroke-opacity:0.0941176" />
      <path
         style="fill:#fff0f3;fill-opacity:0.436364;stroke:#000000;stroke-width:0;stroke-linecap:round;stroke-linejoin:round;stroke-miterlimit:4;stroke-dasharray:none;stroke-opacity:0.0941176"
         d="m 39.820126,78.545931 v 1.2e-4 c -0.807057,0.004 -1.614078,0.133587 -2.240519,0.373543 l -8.904105,2.526312 0.0037,2.108754 c 0.0016,0.525093 0.355616,0.771304 0.837161,0.97221 l 8.063246,3.364106 c 0.621063,0.259117 1.433016,0.386482 2.24434,0.386482 0.811324,0 1.623278,-0.127365 2.244341,-0.386482 l 8.063246,-3.364106 c 0.481541,-0.200906 0.835512,-0.447116 0.837098,-0.97221 l 0.0038,-1.81584 -8.904106,-2.819225 c -0.639535,-0.202491 -1.43346,-0.369568 -2.240518,-0.373544 v -1.19e-4 c -0.0013,5e-6 -0.0025,5.6e-5 -0.0038,6.2e-5 -0.0013,-6e-6 -0.0025,-5.7e-5 -0.0038,-6.2e-5 z"
         id="path962"
         inkscape:connector-curvature="0"
         sodipodi:nodetypes="ccsccccsccccsccccc" />
      <path
         style="fill:#29333d;fill-opacity:1;stroke:#000000;stroke-width:0;stroke-linecap:round;stroke-linejoin:round;stroke-miterlimit:4;stroke-dasharray:none;stroke-opacity:0.0941176"
         d="m 39.820126,78.402422 v 1.19e-4 c -0.807057,0.004 -1.614078,0.133586 -2.240519,0.373543 l -8.904105,2.526312 0.0037,2.108753 c 0.0016,0.525093 0.355616,0.771305 0.837161,0.97221 l 8.063246,3.364107 c 0.621063,0.259116 1.433016,0.386482 2.24434,0.386482 0.811324,0 1.623278,-0.127366 2.244341,-0.386482 l 8.063246,-3.364107 c 0.481541,-0.200905 0.835512,-0.447116 0.837098,-0.97221 l 0.0038,-1.815839 -8.904106,-2.819226 c -0.639535,-0.20249 -1.43346,-0.369568 -2.240518,-0.373543 v -1.19e-4 c -0.0013,5e-6 -0.0025,5.5e-5 -0.0038,6.1e-5 -0.0013,-6e-6 -0.0025,-5.6e-5 -0.0038,-6.1e-5 z"
         id="path890"
         inkscape:connector-curvature="0"
         sodipodi:nodetypes="ccsccccsccccsccccc" />
      <path
         sodipodi:nodetypes="ccccsccccc"
         inkscape:connector-curvature="0"
         id="path936"
         d="m 28.675502,81.302396 0.0037,0.522585 c 0.0016,0.525093 0.355616,0.771305 0.837161,0.972211 l 8.063246,3.364105 c 0.621063,0.259117 1.433016,0.386483 2.24434,0.386483 0.811324,0 1.623278,-0.127366 2.244341,-0.386483 l 8.063246,-3.364105 c 0.481541,-0.200906 0.835512,-0.447117 0.837098,-0.972211 l 0.0038,-0.229671 z"
         style="fill:#000000;fill-opacity:0.113636;stroke:#000000;stroke-width:0;stroke-linecap:round;stroke-linejoin:round;stroke-miterlimit:4;stroke-dasharray:none;stroke-opacity:0.0941176" />
      <g
         id="g934"
         transform="matrix(0.1192232,0,0,0.1192232,51.701348,84.678185)"
         style="stroke-width:3.57901">
        <path
           sodipodi:nodetypes="sssssssss"
           inkscape:connector-curvature="0"
           id="rect858"
           d="m -187.17084,-35.32636 68.76545,-28.216783 c 10.44382,-4.285468 27.159211,-4.171352 37.649144,0 l 67.631532,26.893867 c 8.4771368,3.370958 10.4288125,15.816339 0,20.138238 l -67.631527,28.027794 c -10.428812,4.321899 -27.220329,4.321898 -37.649139,-1e-6 l -67.63153,-28.027794 c -10.42881,-4.321897 -8.36336,-15.848843 -1.13393,-18.815321 z"
           style="opacity:1;fill:#f9f9f9;fill-opacity:0.83814102;stroke:#000000;stroke-width:0;stroke-linecap:round;stroke-linejoin:round;stroke-miterlimit:4;stroke-dasharray:none;stroke-opacity:0.0941176" />
        <rect
           style="opacity:1;fill:#ffffff;fill-opacity:0.5;stroke:#000000;stroke-width:0;stroke-linecap:round;stroke-linejoin:round;stroke-miterlimit:4;stroke-dasharray:none;stroke-opacity:0.0941176"
           id="rect854"
           width="113.10251"
           height="113.10251"
           x="-74.541161"
           y="-146.40219"
           rx="72.378784"
           ry="72.378784"
           transform="matrix(0.9238124,-0.38284547,0.9238124,0.38284547,0,0)" />
      </g>
      <g
         id="g1072"
         transform="matrix(0.1192232,0,0,0.1192232,3.6093815,100.69867)"
         style="stroke-width:3.57901">
        <g
           transform="translate(-0.95688414)"
           id="g1064"
           style="stroke-width:3.57901">
          <path
             style="opacity:1;fill:url(#linearGradient1040);fill-opacity:1;stroke:#000000;stroke-width:0;stroke-linecap:round;stroke-linejoin:round;stroke-miterlimit:4;stroke-dasharray:none;stroke-opacity:0.0941176"
             d="m 294.31664,-212.11429 h 20.78868 v 53.20014 c 0,0.94478 0.045,1.59061 -0.52979,2.07668 -5.0271,4.14913 -14.66461,3.89177 -19.31372,0.36481 -0.99095,-0.62867 -0.94517,-1.11752 -0.94517,-2.2525 z"
             id="rect1012"
             inkscape:connector-curvature="0"
             sodipodi:nodetypes="ccccccc" />
          <path
             sodipodi:nodetypes="ccccccc"
             inkscape:connector-curvature="0"
             id="path1048"
             d="m 294.31664,-212.11429 h 20.78868 v 53.20014 c 0,0.94478 0.045,1.59061 -0.52979,2.07668 -5.0271,4.14913 -14.66461,3.89177 -19.31372,0.36481 -0.99095,-0.62867 -0.94517,-1.11752 -0.94517,-2.2525 z"
             style="opacity:1;fill:#455566;fill-opacity:1;stroke:#000000;stroke-width:0;stroke-linecap:round;stroke-linejoin:round;stroke-miterlimit:4;stroke-dasharray:none;stroke-opacity:0.0941176" />
        </g>
        <g
           transform="translate(-38.283833,31.787988)"
           id="g1010"
           style="stroke-width:3.57901">
          <circle
             style="opacity:1;fill:#f9f9f9;fill-opacity:0.64999998;stroke:#000000;stroke-width:0;stroke-linecap:round;stroke-linejoin:round;stroke-miterlimit:4;stroke-dasharray:none;stroke-opacity:0.0941176"
             id="path974"
             cx="342.03818"
             cy="-261.53296"
             r="26.392866" />
        </g>
      </g>
      <g
         id="g1112"
         transform="matrix(0.1192232,0,0,0.1192232,2.8901425,98.850605)"
         style="stroke-width:3.57901">
        <ellipse
           ry="5.9467463"
           rx="14.098467"
           cy="-149.14613"
           cx="251.56744"
           id="path1084"
           style="opacity:1;fill:#29333d;fill-opacity:1;stroke:#000000;stroke-width:0;stroke-linecap:round;stroke-linejoin:round;stroke-miterlimit:4;stroke-dasharray:none;stroke-opacity:0.0941176" />
        <ellipse
           style="opacity:1;fill:#29333d;fill-opacity:1;stroke:#000000;stroke-width:0;stroke-linecap:round;stroke-linejoin:round;stroke-miterlimit:4;stroke-dasharray:none;stroke-opacity:0.0941176"
           id="ellipse1096"
           cx="251.56744"
           cy="-149.48022"
           rx="12.632989"
           ry="5.2640057" />
      </g>
    </g>
  </g>
</svg>
