<?xml version="1.0" encoding="UTF-8" standalone="no"?>
<svg
   viewBox="0 0 22 22"
   version="1.1"
   id="svg2"
   sodipodi:docname="temperature-normal.svg"
   inkscape:version="1.4.2 (unknown)"
   xmlns:inkscape="http://www.inkscape.org/namespaces/inkscape"
   xmlns:sodipodi="http://sodipodi.sourceforge.net/DTD/sodipodi-0.dtd"
   xmlns="http://www.w3.org/2000/svg"
   xmlns:svg="http://www.w3.org/2000/svg">
  <defs
     id="defs2" />
  <sodipodi:namedview
     id="namedview2"
     pagecolor="#ffffff"
     bordercolor="#000000"
     borderopacity="0.25"
     inkscape:showpageshadow="2"
     inkscape:pageopacity="0.0"
     inkscape:pagecheckerboard="0"
     inkscape:deskcolor="#d1d1d1"
     inkscape:zoom="35.227273"
     inkscape:cx="11"
     inkscape:cy="11"
     inkscape:window-width="1920"
     inkscape:window-height="998"
     inkscape:window-x="0"
     inkscape:window-y="0"
     inkscape:window-maximized="1"
     inkscape:current-layer="svg2" />
  <style
     id="current-color-scheme"
     type="text/css">.ColorScheme-Text { color: #fcfcfc; } </style>
  <path
     class="ColorScheme-Text"
     fill="currentColor"
     d="m10 9v10l2 1 2-1v-10z"
     opacity=".35"
     id="path1" />
  <path
     class="ColorScheme-Text"
     fill="currentColor"
     d="m12 2c-1.108 0-2 .892-2 2v10.765625c-.6358612.568731-.9995185 1.381278-1 2.234375 0 1.656854 1.343146 3 3 3s3-1.343146 3-3c-.001-.852416-.364645-1.664145-1-2.232422v-10.767578c0-1.108-.892-2-2-2zm0 1c.554 0 1 .446 1 1v10.173828.826172.263672c.61861.349704.999778.995903 1 1.695312-.000704 1.081041-.895928 1.957032-2 1.957032s-1.999296-.875991-2-1.957032c-.0004909-.700106.380773-1.347212 1-1.697265v-.261719-.828125-10.171875c0-.554.446-1 1-1zm-5 2v1h2v-1zm0 3v1h2v-1zm0 3v1h2v-1zm5 5c-.552285 0-1 .447715-1 1s.447715 1 1 1 1-.447715 1-1-.447715-1-1-1z"
     id="path2" />
</svg>
