<?xml version="1.0" encoding="UTF-8" standalone="no"?>
<svg
   viewBox="0 0 16 16"
   version="1.1"
   id="svg4"
   sodipodi:docname="audio-volume-high-warning.svg"
   width="16"
   height="16"
   inkscape:version="1.4.2 (unknown)"
   xmlns:inkscape="http://www.inkscape.org/namespaces/inkscape"
   xmlns:sodipodi="http://sodipodi.sourceforge.net/DTD/sodipodi-0.dtd"
   xmlns="http://www.w3.org/2000/svg"
   xmlns:svg="http://www.w3.org/2000/svg">
  <defs
     id="defs4" />
  <sodipodi:namedview
     id="namedview4"
     pagecolor="#ffffff"
     bordercolor="#999999"
     borderopacity="1"
     inkscape:showpageshadow="2"
     inkscape:pageopacity="0"
     inkscape:pagecheckerboard="0"
     inkscape:deskcolor="#d1d1d1"
     inkscape:zoom="16.83798"
     inkscape:cx="7.0079665"
     inkscape:cy="13.986238"
     inkscape:window-width="1920"
     inkscape:window-height="998"
     inkscape:window-x="0"
     inkscape:window-y="0"
     inkscape:window-maximized="1"
     inkscape:current-layer="svg4" />
  <style
     id="current-color-scheme"
     type="text/css">.ColorScheme-Text { color: #fcfcfc; }
</style>
  <g
     id="g1"
     transform="translate(0.5,-20.073667)">
    <path
       d="m 9.642854,22.848487 c 0,-0.716335 -0.840324,-1.021474 -1.371748,-0.545503 l -2.96148,2.652037 c -0.09052,0.08105 -0.207427,0.125224 -0.328563,0.125224 H 2.554944 c -0.819326,0 -1.483519,0.669649 -1.483519,1.494923 v 2.987182 c 0,0.825246 0.664193,1.495167 1.483519,1.495167 h 2.426083 c 0.121145,0 0.238075,0.04381 0.328596,0.124948 l 2.961405,2.65233 c 0.531501,0.476074 1.371829,0.211445 1.371829,-0.535718 z M 8.92857,27.303812 v -4.465036 10.460301 -5.995265 0 L 4.642859,28.05098 v 0 z"
       id="path2057-3-3"
       style="fill:currentColor;fill-opacity:1;stroke-width:0.661766"
       sodipodi:nodetypes="sccssssssccsscccccccccccc"
       class="ColorScheme-Text" />
    <path
       d="m 12.759646,22.803337 c 0.29909,-0.216943 0.721221,-0.155367 0.942838,0.137545 1.106325,1.462616 1.760855,3.273816 1.760855,5.232778 0,1.958952 -0.65453,3.77016 -1.760855,5.232799 -0.221618,0.292949 -0.643748,0.354452 -0.942838,0.137534 -0.299194,-0.216921 -0.362014,-0.63024 -0.140473,-0.923199 0.940228,-1.242985 1.496098,-2.780518 1.496098,-4.44713 0,-1.666544 -0.555866,-3.204101 -1.496098,-4.447133 -0.221541,-0.292912 -0.158721,-0.70624 0.140473,-0.923191 z"
       id="path2059-6-6"
       style="fill:#ff9955;fill-opacity:1;stroke-width:0.88934" />
    <path
       d="m 11.146741,24.980528 c 0.321173,-0.173533 0.72262,-0.0543 0.896516,0.266206 0.472873,0.871722 0.741138,1.869952 0.741138,2.928753 0,1.058821 -0.268264,2.057082 -0.741138,2.92881 -0.173896,0.320489 -0.575343,0.439731 -0.896516,0.2662 -0.321277,-0.173551 -0.440764,-0.574107 -0.266851,-0.894621 0.370826,-0.683566 0.581691,-1.466413 0.581691,-2.300389 0,-0.833962 -0.210864,-1.616805 -0.581691,-2.300367 -0.173913,-0.320545 -0.05446,-0.721072 0.266851,-0.894592 z"
       id="path2061-7-7"
       style="fill:#ff9955;fill-opacity:1;stroke-width:0.880977" />
    <path
       d="m 2.142855,28.050972 c 0,0.619275 -0.47941,1.120754 -1.071428,1.120754 C 0.479909,29.171726 0,28.670247 0,28.050972 0,27.432229 0.479909,26.93024 1.071427,26.93024 c 0.592018,0 1.071428,0.501989 1.071428,1.120732 z"
       id="path72-3-7-3-5"
       style="fill:currentColor;fill-opacity:1;stroke-width:0.0130452"
       class="ColorScheme-Text" />
    <path
       d="m 10.35714,28.050972 c 0,0.619275 -0.479407,1.120754 -1.07143,1.120754 -0.35714,0 -0.35714,-1.120754 -0.35714,-1.120754 0,0 0,-1.120732 0.35714,-1.120732 0.592023,0 1.07143,0.501989 1.07143,1.120732 z"
       id="path72-3-7-3-6-35"
       style="fill:currentColor;fill-opacity:1;stroke-width:0.0130452"
       sodipodi:nodetypes="sscss"
       class="ColorScheme-Text" />
  </g>
</svg>
