<?xml version="1.0" encoding="UTF-8" standalone="no"?>
<svg
   viewBox="0 0 16 16"
   version="1.1"
   id="svg7"
   sodipodi:docname="audio-volume-muted.svg"
   width="16"
   height="16"
   inkscape:version="1.4.2 (unknown)"
   xmlns:inkscape="http://www.inkscape.org/namespaces/inkscape"
   xmlns:sodipodi="http://sodipodi.sourceforge.net/DTD/sodipodi-0.dtd"
   xmlns="http://www.w3.org/2000/svg"
   xmlns:svg="http://www.w3.org/2000/svg">
  <defs
     id="defs7" />
  <sodipodi:namedview
     id="namedview7"
     pagecolor="#ffffff"
     bordercolor="#999999"
     borderopacity="1"
     inkscape:showpageshadow="2"
     inkscape:pageopacity="0"
     inkscape:pagecheckerboard="0"
     inkscape:deskcolor="#d1d1d1"
     inkscape:zoom="11.90625"
     inkscape:cx="7.6850394"
     inkscape:cy="21.375328"
     inkscape:window-width="1920"
     inkscape:window-height="998"
     inkscape:window-x="0"
     inkscape:window-y="0"
     inkscape:window-maximized="1"
     inkscape:current-layer="svg7" />
  <style
     id="current-color-scheme"
     type="text/css">
.ColorScheme-Text { 
    color:#f1f1f1;
}
.ColorScheme-NegativeText { color: #da4453; }
</style>
  <g
     id="g1"
     transform="translate(1.007874,-24.356956)">
    <path
       d="m 1.5130308,25.70743 c -0.1973342,-0.200626 -0.51730042,-0.200635 -0.71464152,-1.2e-5 -0.1973506,0.200615 -0.1973526,0.525888 -1.24e-5,0.726521 L 3.7090797,29.362523 H 2.1663659 c -0.7780573,0 -1.52669542,0.686249 -1.52669542,1.434886 v 2.994545 c 0,0.748639 0.74863812,1.510008 1.52670142,1.510008 h 2.2164813 v 0 l 2.9945442,2.585041 c 0.7486285,0.685003 1.5451835,0.380898 1.5451835,-0.3075 v -2.818521 l 4.3404101,4.345542 c 0.197355,0.200642 0.517315,0.200642 0.714678,0 0.197335,-0.200623 0.197335,-0.525918 0,-0.726543 z m 3.385832,6.699531 3.2271631,4.947265 -3.2271631,-4.947265 v 0 L 4.3828532,30.123638 v 0 0 0 0 z"
       id="path1707-3-6-9"
       style="fill:currentColor;fill-opacity:1;stroke-width:0.67934"
       sodipodi:nodetypes="ccccsssscccscccccccccccccscc"
       class="ColorScheme-Text" />
    <path
       d="m 8.1900383,27.355268 v 3.794591 l 0.8139957,1.032159 v -5.086076 c 0,-0.908089 -0.8139957,-0.908089 -1.2515887,-0.384808 l -1.9583193,1.698473 0.56903,0.568307 z"
       id="path1709-5-7-7"
       style="fill:currentColor;fill-opacity:1;stroke-width:0.688503"
       sodipodi:nodetypes="cccscccc"
       class="ColorScheme-Text" />
    <path
       d="m 10.733052,34.064627 0.991832,0.985395 c 0.402472,-0.809114 0.628377,-1.72004 0.628377,-2.68169 0,-1.041747 -0.265128,-2.023906 -0.732441,-2.881585 -0.171874,-0.315393 -0.568599,-0.432652 -0.886023,-0.261918 -0.317481,0.170738 -0.435601,0.564807 -0.263742,0.880189 0.366491,0.672548 0.57488,1.442778 0.57488,2.263314 0,0.598277 -0.110727,1.169888 -0.312883,1.696295 z"
       id="path1711-6-5-3"
       style="fill:currentColor;fill-opacity:0.501961;stroke-width:0.868671"
       class="ColorScheme-Text" />
    <path
       d="m 12.602354,36.010272 0.952947,0.946683 c 0.838593,-1.330488 1.323441,-2.90401 1.323441,-4.588623 0,-1.927411 -0.634737,-3.709417 -1.70763,-5.148474 -0.214931,-0.288181 -0.624286,-0.348773 -0.914334,-0.135318 -0.290148,0.213452 -0.351049,0.620112 -0.136239,0.908305 0.911817,1.223003 1.450886,2.73581 1.450886,4.375487 0,1.325642 -0.35229,2.568256 -0.969071,3.64194 z"
       id="path1713-2-3-6"
       style="fill:currentColor;fill-opacity:0.501961;stroke-width:0.868671"
       class="ColorScheme-Text" />
    <path
       d="m 1.7872158,32.242211 c 0,0.634083 -0.5134733,1.14755 -1.14754582,1.14755 -0.6335411,10e-7 -1.147544,-0.513466 -1.147544,-1.14755 0,-0.633539 0.5140029,-1.147537 1.147544,-1.147537 0.63407252,0 1.14754582,0.513998 1.14754582,1.147537 z"
       id="path72-3-7-3-9-3-5-1"
       style="fill:currentColor;fill-opacity:1;stroke-width:0.0136602"
       class="ColorScheme-Text" />
  </g>
</svg>
