<?xml version="1.0" encoding="UTF-8" standalone="no"?>
<svg
   width="32"
   height="32"
   version="1.1"
   id="svg12"
   sodipodi:docname="choqok_offline.svg"
   inkscape:version="1.4 (unknown)"
   xmlns:inkscape="http://www.inkscape.org/namespaces/inkscape"
   xmlns:sodipodi="http://sodipodi.sourceforge.net/DTD/sodipodi-0.dtd"
   xmlns:xlink="http://www.w3.org/1999/xlink"
   xmlns="http://www.w3.org/2000/svg"
   xmlns:svg="http://www.w3.org/2000/svg"
   xmlns:rdf="http://www.w3.org/1999/02/22-rdf-syntax-ns#"
   xmlns:cc="http://creativecommons.org/ns#"
   xmlns:dc="http://purl.org/dc/elements/1.1/">
  <g
     id="choqok_offline">
    <rect
       style="opacity:0.00100002;fill:#d1d5e9;fill-opacity:1"
       width="32"
       height="32"
       x="1.9836044e-09"
       y="-1.033535e-09"
       id="rect7-3" />
    <path
       style="color:#d1d5e9;fill:#da4453;fill-opacity:1;stroke-width:1.5"
       d="M 16,4 C 9.364,4 4,9.364 4,15.999999 4,22.636 9.364,28 16,28 22.636,28 28,22.636 28,15.999999 28,9.364 22.636,4 16,4 Z m 0,1.5 c 5.80498,0 10.5,4.695 10.5,10.499999 C 26.5,21.80498 21.80498,26.5 16,26.5 10.19498,26.5 5.5,21.80498 5.5,15.999999 5.5,10.195 10.19498,5.5 16,5.5 Z m 1.12498,8.578498 v 0 0 0 0 0 c 0,0 -0.05091,0.012 0,0 z m -1.171491,6.750005 z"
       id="path58-3-3"
       sodipodi:nodetypes="ssssssssssccccccccccccccccc"
       class="ColorScheme-Text" />
    <path
       inkscape:connector-curvature="0"
       style="opacity:0.1;fill:url(#linearGradient4795);fill-rule:evenodd;stroke-width:0.393474"
       id="path4779"
       d="m 19.958319,15.866904 3.958334,3.911269 v -3.911269 z" />
    <path
       inkscape:connector-curvature="0"
       style="opacity:0.1;fill:url(#linearGradient4777);fill-rule:evenodd;stroke-width:0.393474"
       id="path4769"
       d="m 12.140611,13.862377 3.958334,3.91127 -4.453128,3.764596 L 8.08332,18.0181 Z" />
    <path
       inkscape:connector-curvature="0"
       style="fill:#d3dae3;fill-opacity:1;fill-rule:evenodd;stroke-width:0.393474"
       id="path4411-1"
       d="m 12.833317,20.169299 c 3.1203,2.939314 6.009792,2.831207 7.416531,1.154082 1.406737,-1.677117 0.354154,-3.109717 0.354154,-3.109717 z" />
    <path
       inkscape:connector-curvature="0"
       style="color:#000000;fill:#d3dae3;fill-opacity:1;stroke-width:1.1804;stroke-linecap:round;stroke-linejoin:round"
       id="path4170"
       d="m 9.86457,12.737888 c -0.669145,0 -1.284764,0.02205 -1.78125,0.391126 v 4.885651 c 0.496486,0.369077 1.112105,0.590127 1.78125,0.590127 1.639592,0 3.376953,-0.72666 3.376953,-2.346762 0,-1.620101 -1.737361,-3.520142 -3.376953,-3.520142 z" />
    <path
       inkscape:connector-curvature="0"
       style="color:#000000;fill:#d3dae3;fill-opacity:1;stroke-width:1.1804;stroke-linecap:round;stroke-linejoin:round"
       id="path4170-8"
       d="m 20.354152,11.564507 c -0.844109,1.019507 -1.382227,2.254925 -0.982422,3.458195 0.559269,1.68322 2.488625,1.893447 4.07255,1.3796 0.166744,-0.0541 0.323071,-0.124911 0.472373,-0.205493 v -4.632302 z" />
    <ellipse
       cx="10.656254"
       cy="15.671333"
       style="color:#000000;fill:#000000;fill-opacity:1;stroke-width:1.1804;stroke-linecap:round;stroke-linejoin:round"
       id="path4267"
       rx="1.3854166"
       ry="1.3689443" />
    <ellipse
       cx="20.947918"
       cy="14.106827"
       style="color:#000000;fill:#000000;fill-opacity:1;stroke-width:1.1804;stroke-linecap:round;stroke-linejoin:round"
       id="path4267-9"
       rx="1.3854166"
       ry="1.3689443" />
    <path
       inkscape:connector-curvature="0"
       style="fill:#192629;fill-rule:evenodd;stroke-width:0.393474"
       id="path4411"
       d="m 13.229153,20.171904 c 2.371104,2.414061 5.495242,2.292182 6.564218,0.91476 1.068976,-1.37742 0.269118,-2.554016 0.269118,-2.554016 z" />
    <path
       inkscape:connector-curvature="0"
       style="fill:#da4453;fill-opacity:1;fill-rule:evenodd;stroke-width:0.393474"
       id="path4411-4"
       d="m 18.949146,20.89259 c -0.815503,0.02863 -1.796549,0.279636 -2.70307,0.736548 1.284241,0.368383 2.165146,0.167839 2.866925,-0.264715 0.254401,-0.156808 0.441398,-0.27089 0.502221,-0.438536 -0.204143,-0.02988 -0.427456,-0.04168 -0.666076,-0.03328 z" />
    <path
       inkscape:connector-curvature="0"
       style="fill:#d3dae3;fill-opacity:1;fill-rule:evenodd;stroke-width:0.393474"
       id="path4284"
       d="m 12.833317,20.169299 c 0,0 0.566711,-1.689241 3.535129,-2.451071 2.968426,-0.761817 4.380661,0.495436 4.380661,0.495436 0.39529,1.137452 -3.429441,2.904759 -3.429441,2.904759 0,0 -4.234898,0.225243 -4.486349,-0.949124 z" />
    <path
       inkscape:connector-curvature="0"
       style="fill:#d3dae3;fill-opacity:1;fill-rule:evenodd;stroke-width:0.393474"
       id="path4413"
       d="m 23.916653,11.564507 c 0,-1.173381 -1.880209,-1.564508 -1.880209,-1.564508 0,0 -0.233263,0.49594 0,0.782254 -0.890626,-0.782254 -1.682292,-0.391127 -1.682292,-0.391127 0,0 0.199561,0.513312 0.494792,0.782254 -0.474791,-0.224843 -0.989584,0 -0.989584,0 0,0 0.268755,0.391127 0.494792,0.391127 z" />
    <path
       inkscape:transform-center-x="-1.8441222"
       inkscape:transform-center-y="-0.86942074"
       inkscape:connector-curvature="0"
       style="fill:#d3dae3;fill-opacity:1;fill-rule:evenodd;stroke-width:0.399595"
       id="path4415-0"
       d="m 23.916697,16.258022 c 0,0 1.684428,-0.192181 1.508671,-0.598709 -0.175754,-0.406522 -1.508671,0.598709 -1.508671,0.598709 z" />
    <path
       inkscape:transform-center-x="-1.0865895"
       inkscape:transform-center-y="-1.7200032"
       inkscape:connector-curvature="0"
       style="fill:#d3dae3;fill-opacity:1;fill-rule:evenodd;stroke-width:0.399595"
       id="path4415-4-9"
       d="m 23.916689,16.258022 c 0,0 1.21423,-1.134894 0.816489,-1.354911 -0.397743,-0.220005 -0.816489,1.354911 -0.816489,1.354911 z" />
    <path
       inkscape:transform-center-x="-1.9189885"
       inkscape:transform-center-y="0.65739618"
       inkscape:connector-curvature="0"
       style="fill:#d3dae3;fill-opacity:1;fill-rule:evenodd;stroke-width:0.399595"
       id="path4415-4-3-1"
       d="m 23.916693,16.258034 c 0,0 1.458463,0.829947 1.577338,0.404925 0.118877,-0.425021 -1.577338,-0.404925 -1.577338,-0.404925 z" />
    <path
       inkscape:transform-center-x="1.9189971"
       inkscape:transform-center-y="0.65739374"
       inkscape:connector-curvature="0"
       style="fill:#d3dae3;fill-opacity:1;fill-rule:evenodd;stroke-width:0.3996"
       id="path4415"
       d="m 8.083333,17.822542 c 0,0 -1.458489,0.829946 -1.577364,0.404921 -0.118876,-0.425021 1.577364,-0.404921 1.577364,-0.404921 z" />
    <path
       inkscape:transform-center-x="1.8441244"
       inkscape:transform-center-y="-0.86941514"
       inkscape:connector-curvature="0"
       style="fill:#d3dae3;fill-opacity:1;fill-rule:evenodd;stroke-width:0.3996"
       id="path4415-4"
       d="m 8.083337,17.822534 c 0,0 -1.684461,-0.192185 -1.508708,-0.598713 0.175757,-0.406522 1.508708,0.598713 1.508708,0.598713 z" />
    <path
       inkscape:transform-center-x="1.2801083"
       inkscape:transform-center-y="1.591366"
       inkscape:connector-curvature="0"
       style="fill:#d3dae3;fill-opacity:1;fill-rule:evenodd;stroke-width:0.3996"
       id="path4415-4-3"
       d="m 8.083341,17.82255 c 0,0 -0.629739,1.509069 -0.994117,1.241205 C 6.72485,18.795896 8.083341,17.82255 8.083341,17.82255 Z" />
  </g>
  <metadata
     id="metadata18">
    <rdf:RDF>
      <cc:Work
         rdf:about="">
        <dc:format>image/svg+xml</dc:format>
        <dc:type
           rdf:resource="http://purl.org/dc/dcmitype/StillImage" />
      </cc:Work>
    </rdf:RDF>
  </metadata>
  <defs
     id="defs16">
    <linearGradient
       id="oomox"
       x1="0"
       x2="0"
       y1="4.426218"
       y2="16.600946"
       gradientTransform="matrix(1.7114077,0,0,0.99090516,5.5319556,2.8240382)"
       gradientUnits="userSpaceOnUse">
      <stop
         offset="0%"
         style="stop-color:#303b3d; stop-opacity:1"
         id="stop18" />
      <stop
         offset="100%"
         style="stop-color:#bc985d; stop-opacity:1"
         id="stop20" />
    </linearGradient>
    <linearGradient
       id="oomox-3"
       x1="0"
       x2="0"
       y1="4.426218"
       y2="16.600946"
       gradientTransform="matrix(1.1155928,0,0,0.64592825,4.2500004,2.3909811)"
       gradientUnits="userSpaceOnUse">
      <stop
         offset="0%"
         style="stop-color:#303b3d; stop-opacity:1"
         id="stop18-6" />
      <stop
         offset="100%"
         style="stop-color:#bc985d; stop-opacity:1"
         id="stop20-7" />
    </linearGradient>
    <linearGradient
       inkscape:collect="always"
       xlink:href="#linearGradient4510"
       id="linearGradient4795"
       y1="518.79797"
       x1="418.57144"
       y2="525.79797"
       x2="425.57147"
       gradientUnits="userSpaceOnUse"
       gradientTransform="matrix(0.39583333,0,0,0.39112693,-145.72617,-187.04896)" />
    <linearGradient
       inkscape:collect="always"
       id="linearGradient4510">
      <stop
         id="stop4512" />
      <stop
         offset="1"
         style="stop-opacity:0"
         id="stop4514" />
    </linearGradient>
    <linearGradient
       inkscape:collect="always"
       xlink:href="#linearGradient4510"
       id="linearGradient4777"
       y1="518.99121"
       x1="393.76468"
       y2="525.91406"
       x2="400.68756"
       gradientUnits="userSpaceOnUse"
       gradientTransform="matrix(0.39583333,0,0,0.39112693,-145.72617,-187.04896)" />
  </defs>
  <sodipodi:namedview
     pagecolor="#280b17"
     bordercolor="#000000"
     borderopacity="1"
     objecttolerance="10"
     gridtolerance="10"
     guidetolerance="10"
     inkscape:pageopacity="0"
     inkscape:pageshadow="2"
     inkscape:window-width="1920"
     inkscape:window-height="998"
     id="namedview14"
     showgrid="true"
     inkscape:zoom="9.8125"
     inkscape:cx="21.656051"
     inkscape:cy="22.471338"
     inkscape:window-x="0"
     inkscape:window-y="0"
     inkscape:window-maximized="1"
     inkscape:current-layer="svg12"
     inkscape:document-rotation="0"
     inkscape:lockguides="false"
     inkscape:showpageshadow="true"
     inkscape:pagecheckerboard="true"
     inkscape:deskcolor="#280b17">
    <inkscape:grid
       id="grid1"
       units="px"
       originx="0"
       originy="0"
       spacingx="1"
       spacingy="1"
       empcolor="#0099e5"
       empopacity="0.30196078"
       color="#0099e5"
       opacity="0.14901961"
       empspacing="5"
       dotted="false"
       gridanglex="30"
       gridanglez="30"
       visible="true" />
  </sodipodi:namedview>
</svg>
