<?xml version="1.0" encoding="UTF-8" standalone="no"?>
<svg
   width="32"
   height="32"
   version="1"
   id="svg18"
   sodipodi:docname="krusader_root.svg"
   inkscape:version="1.4 (unknown)"
   xmlns:inkscape="http://www.inkscape.org/namespaces/inkscape"
   xmlns:sodipodi="http://sodipodi.sourceforge.net/DTD/sodipodi-0.dtd"
   xmlns="http://www.w3.org/2000/svg"
   xmlns:svg="http://www.w3.org/2000/svg">
  <defs
     id="defs22" />
  <sodipodi:namedview
     id="namedview20"
     pagecolor="#280b17"
     bordercolor="#000000"
     borderopacity="1"
     inkscape:showpageshadow="true"
     inkscape:pageopacity="0"
     inkscape:pagecheckerboard="true"
     inkscape:deskcolor="#280b17"
     showgrid="true"
     inkscape:lockguides="false"
     inkscape:zoom="7.375"
     inkscape:cx="22.169492"
     inkscape:cy="19.322034"
     inkscape:window-width="1920"
     inkscape:window-height="998"
     inkscape:window-x="0"
     inkscape:window-y="0"
     inkscape:window-maximized="1"
     inkscape:current-layer="svg18">
    <inkscape:grid
       type="xygrid"
       id="grid1958"
       originx="0"
       originy="0"
       spacingy="1"
       spacingx="1"
       units="px"
       visible="true" />
  </sodipodi:namedview>
  <g
     id="krusader_root"
     style="fill:#da4453;fill-opacity:1">
    <g
       id="g281"
       style="fill:#da4453;fill-opacity:1">
      <rect
         style="opacity:0.00100002;fill:#da4453;fill-opacity:1"
         width="32"
         height="32"
         x="0"
         y="0"
         id="rect352" />
      <path
         d="m 7,16 v 0 1 0 h 6 v 0 -1 0 z"
         id="path3004-6-2"
         style="fill:#da4453;fill-opacity:1;stroke-width:0.12"
         sodipodi:nodetypes="ccccccccc" />
      <path
         d="m 7,13 v 0 1 0 h 6 v 0 -1 0 z"
         id="path3004-6-9"
         style="fill:#da4453;fill-opacity:1;stroke-width:0.12"
         sodipodi:nodetypes="ccccccccc" />
      <path
         d="m 7,19 v 0 1 0 h 6 v 0 -1 0 z"
         id="path3004-6"
         style="fill:#da4453;fill-opacity:1;stroke-width:0.12"
         sodipodi:nodetypes="ccccccccc" />
      <path
         d="M 28,26 V 6 C 28,4.6530604 26.999997,4 25.9,4 H 6.1 C 4.999997,4 4,4.6530604 4,6 v 20 c 0,1.346935 0.899999,2 2.000002,2 h 5 H 16 h 5.000002 5 C 27.1,28 28,27.346935 28,26 Z M 6.1,27 C 5.550006,27 5,26.9 5,25.9 V 6.1 C 5,5.4265014 5,5 6,5 h 20 c 1,0 1,0.4265014 1,1.1 v 19.8 c 0,1 -0.550002,1.1 -1.1,1.1 z"
         id="path2-3-3-3"
         style="fill:#da4453;fill-opacity:1;stroke-width:0.553283"
         sodipodi:nodetypes="ssssssscccsssssssssss" />
      <path
         style="fill:#da4453;fill-opacity:1;stroke-width:0.638286"
         d="M 5,8 V 8 9 H 27 V 8 8 Z"
         id="path349-3"
         sodipodi:nodetypes="ccccccc" />
      <path
         style="fill:#da4453;fill-opacity:1;stroke-width:0.638286"
         d="m 5,21 v 0 1 h 22 v -1 0 z"
         id="path349-3-6"
         sodipodi:nodetypes="ccccccc" />
      <path
         style="fill:#da4453;fill-opacity:1;stroke-width:0.471406"
         d="m 17,9 v 0 h -2 v 12 h 2 v 0 z"
         id="path349-3-7"
         sodipodi:nodetypes="ccccccc" />
      <path
         d="m 7,10 v 0 1 0 h 6 v 0 -1 0 z"
         id="path3004-6-9-1"
         style="fill:#da4453;fill-opacity:1;stroke-width:0.12"
         sodipodi:nodetypes="ccccccccc" />
      <path
         d="m 23.328314,5.500335 c -0.128313,0.00629 -0.238731,0.093493 -0.275504,0.217583 -0.03679,0.1240904 0.0081,0.2580683 0.111963,0.3342845 l 0.582244,0.4381351 -0.563316,0.4686669 c -0.128996,0.1074978 -0.147134,0.3000699 -0.04051,0.4301202 0.106623,0.1300518 0.297637,0.1483342 0.426649,0.040835 l 0.860107,-0.7167399 c 0.07171,-0.059628 0.11229,-0.1491548 0.11008,-0.2428419 -0.0023,-0.093686 -0.04698,-0.1811588 -0.121437,-0.2372755 L 23.526684,5.5629255 c -0.05674,-0.043798 -0.127,-0.065969 -0.198376,-0.062589 z"
         id="path2996-2"
         style="fill:#da4453;fill-opacity:1;stroke-width:0.0887335" />
      <path
         d="m 19,10 v 0 1 0 h 6 v 0 -1 0 z"
         id="path3004-6-9-1-9"
         style="fill:#da4453;fill-opacity:1;stroke-width:0.12"
         sodipodi:nodetypes="ccccccccc" />
      <path
         d="M 22.857115,16.857149 26.000001,15.428608 18,12 l 3.428608,8 z"
         fill-rule="evenodd"
         id="path3094"
         style="fill:#da4453;fill-opacity:1;stroke-width:0.0144304" />
    </g>
  </g>
</svg>
