<?xml version="1.0" encoding="UTF-8" standalone="no"?>
<svg
   width="32"
   height="32"
   version="1.1"
   id="svg12"
   sodipodi:docname="nulloy-symbolic.svg"
   inkscape:version="1.4 (unknown)"
   xmlns:inkscape="http://www.inkscape.org/namespaces/inkscape"
   xmlns:sodipodi="http://sodipodi.sourceforge.net/DTD/sodipodi-0.dtd"
   xmlns="http://www.w3.org/2000/svg"
   xmlns:svg="http://www.w3.org/2000/svg">
  <style
     id="current-color-scheme"
     type="text/css">
.ColorScheme-Text { 
    color:#d6dbf1;
}
</style>
  <defs
     id="defs16" />
  <sodipodi:namedview
     id="namedview14"
     pagecolor="#000000"
     bordercolor="#1100dd"
     borderopacity="1"
     inkscape:showpageshadow="false"
     inkscape:pageopacity="0"
     inkscape:pagecheckerboard="true"
     inkscape:deskcolor="#000000"
     showgrid="true"
     inkscape:zoom="10.429825"
     inkscape:cx="19.415474"
     inkscape:cy="17.785533"
     inkscape:window-width="1920"
     inkscape:window-height="998"
     inkscape:window-x="0"
     inkscape:window-y="0"
     inkscape:window-maximized="1"
     inkscape:current-layer="svg12"
     showguides="false">
    <inkscape:grid
       type="xygrid"
       id="grid559"
       originx="0"
       originy="0"
       spacingy="1"
       spacingx="1"
       units="px"
       visible="true" />
  </sodipodi:namedview>
  <g
     id="nulloy"
     style="fill:#d3dae3;fill-opacity:1">
    <rect
       style="opacity:0.00100002;fill:#d3dae3;fill-opacity:1"
       width="32"
       height="32"
       x="0"
       y="0"
       id="rect7" />
    <path
       style="fill:#d3dae3;fill-opacity:1;stroke-width:0.492941"
       d="m 10.022786,15 0.01138,0.08203 c 0.282545,1.926561 0.444791,3.516363 0.65496,4.482438 0.210175,0.966033 0.471594,1.541553 0.962508,1.860341 0.49091,0.318771 1.19012,0.373251 2.26532,0.338361 1.0752,-0.0349 2.529771,-0.3114 4.537716,-0.375 l 0.0655,-0.003 -0.0087,-0.06445 c -0.189032,-1.479099 -0.252016,-2.580774 -0.380033,-3.31931 -0.128009,-0.738553 -0.328391,-1.199441 -0.787382,-1.511713 -0.459,-0.312274 -1.161869,-0.476554 -2.303758,-0.667966 -1.141805,-0.191367 -2.72428,-0.407458 -4.9392,-0.807083 z m 9.622209,0 c -0.802701,0 -1.457996,0.669856 -1.457996,1.5 0,0.830233 0.655296,1.5 1.457996,1.5 0.802695,0 1.457994,-0.669767 1.457994,-1.5 0,-0.830144 -0.655288,-1.5 -1.457994,-1.5 z m 2.355009,2.646979 -0.11817,0.07171 c -0.945854,0.581858 -1.64481,0.68619 -2.185571,0.991705 -0.2704,0.152757 -0.499429,0.358535 -0.686282,0.694327 -0.186874,0.335796 -0.333479,0.799445 -0.451367,1.475093 l -0.01711,0.104007 0.09396,-0.0366 c 1.468226,-0.565359 2.120701,-0.615213 2.515894,-0.909674 0.19758,-0.147228 0.31935,-0.35535 0.431423,-0.700191 0.11206,-0.344835 0.217022,-0.830534 0.384422,-1.552732 z m -0.12102,2.528321 -0.15662,0.05267 c -1.56898,0.538621 -2.21203,0.693554 -2.541546,0.940431 -0.16475,0.12346 -0.243184,0.273944 -0.303274,0.48634 -0.06011,0.212398 -0.10677,0.491999 -0.214992,0.899404 l -0.02572,0.09521 0.09396,-0.02201 c 0.950194,-0.215732 1.387813,-0.267321 1.758429,-0.536134 0.370606,-0.268809 0.651507,-0.73792 1.299953,-1.773914 z m -3.31467,1.52928 -0.07977,0.006 c -2.386337,0.12795 -3.628948,0.144252 -4.45657,0.68847 -0.413794,0.2721 -0.713377,0.71229 -0.986704,1.420912 -0.273339,0.708608 -0.524474,1.440631 -0.844333,2.809568 l -0.02277,0.0996 0.09539,-0.02934 c 1.424219,-0.430478 2.434535,-0.616584 3.172264,-0.738286 0.737746,-0.121693 1.205276,-0.176085 1.551973,-0.357424 0.346707,-0.18133 0.556131,-0.490434 0.7646,-1.08252 0.208466,-0.592088 0.42204,-1.376289 0.784535,-2.736325 z m 2.864741,0.05712 c -0.700807,0.756447 -1.299047,0.893202 -1.762712,1.06055 -0.231817,0.08368 -0.433389,0.176603 -0.585172,0.36181 -0.151787,0.185231 -0.24943,0.456395 -0.287627,0.886227 l -0.0061,0.07472 0.07119,-0.009 c 0.852279,-0.113472 1.330654,-0.201151 1.692935,-0.514153 0.362279,-0.313021 0.593082,-0.83517 0.972471,-1.797362 z m -8.592791,1.415037 -0.103935,0.02792 c -1.082143,0.278905 -1.581237,0.620732 -1.890842,1.186494 -0.309606,0.565731 -0.434096,1.33827 -0.805887,2.497554 L 10,27 10.109635,26.9619 c 0.49125,-0.167124 0.839654,-0.287854 1.106307,-0.42481 0.266663,-0.13692 0.452118,-0.292225 0.602278,-0.522938 0.300325,-0.46139 0.468794,-1.205745 0.982436,-2.734847 z m 8.36355,0.676766 -0.10536,0.04111 c -0.868518,0.340206 -1.345364,0.492129 -1.60608,0.725082 -0.13035,0.116484 -0.20244,0.256887 -0.227805,0.436524 -0.02546,0.179639 -0.0089,0.192887 0.02568,0.484875 l 0.0068,0.06746 0.06414,-0.01614 c 0.296437,-0.07712 0.511904,-0.07651 0.68486,-0.06887 0.172963,0.0077 0.308896,0.02731 0.435694,-0.03378 0.126796,-0.06102 0.223643,-0.197196 0.326055,-0.45996 0.102419,-0.262781 0.213199,-0.455042 0.367347,-1.064942 z"
       id="path9"
       class="ColorScheme-Text " />
    <path
       d="m 28.188408,17.073466 v -0.37047 c 0,-1.518508 -1.185894,-2.814699 -2.734126,-3.185123 C 24.92738,8.184862 20.87545,3.999567 16.000136,3.999567 c -4.875307,0 -8.927094,4.185161 -9.454163,9.518306 -1.58112,0.370458 -2.734123,1.666615 -2.734123,3.185123 v 0.37047 c -1.021125,0.222186 -1.811829,1.333328 -1.811829,2.629697 0,1.33335 0.790652,2.407241 1.811829,2.629698 v 0.370468 c 0,1.814879 1.647063,3.296238 3.689364,3.296238 H 8.461559 V 14.518352 C 8.527519,9.814656 11.78362,6 16,6 c 4.249329,0 7.4521,3.889681 7.538481,8.703495 v 11.296072 h 0.960332 c 2.009412,0 3.689355,-1.481312 3.689355,-3.296238 v -0.370468 c 1.021129,-0.222146 1.811853,-1.333287 1.811853,-2.629698 0,-1.333556 -0.790651,-2.40776 -1.811853,-2.629957 z"
       id="path67"
       style="fill:#d3dae3;fill-opacity:1;stroke-width:0.0623742"
       sodipodi:nodetypes="cscscscscssccsscsscscc" />
  </g>
</svg>
