<?xml version="1.0" encoding="UTF-8" standalone="no"?>
<svg
   width="22"
   height="22"
   version="1.1"
   id="svg1"
   sodipodi:docname="auth-fingerprint-symbolic.svg"
   inkscape:version="1.4 (unknown)"
   xmlns:inkscape="http://www.inkscape.org/namespaces/inkscape"
   xmlns:sodipodi="http://sodipodi.sourceforge.net/DTD/sodipodi-0.dtd"
   xmlns="http://www.w3.org/2000/svg"
   xmlns:svg="http://www.w3.org/2000/svg">
  <defs
     id="defs1" />
  <sodipodi:namedview
     id="namedview1"
     pagecolor="#ffffff"
     bordercolor="#000000"
     borderopacity="0.25"
     inkscape:showpageshadow="2"
     inkscape:pageopacity="0.0"
     inkscape:pagecheckerboard="0"
     inkscape:deskcolor="#d1d1d1"
     inkscape:zoom="10"
     inkscape:cx="7.85"
     inkscape:cy="10.65"
     inkscape:window-width="1920"
     inkscape:window-height="998"
     inkscape:window-x="0"
     inkscape:window-y="0"
     inkscape:window-maximized="1"
     inkscape:current-layer="svg1" />
  <path
     d="M 11.071485,3.0003624 C 9.8531641,2.9880151 8.65412,3.2912852 7.5904448,3.8784364 7.4090805,3.9857694 7.3522082,4.0900126 7.3275252,4.205112 c -0.025033,0.1167079 -0.00193,0.2606139 0.06941,0.3870164 0.071367,0.1264026 0.1827214,0.2239665 0.2965733,0.2642574 0.1138522,0.040292 0.2325935,0.048604 0.4248777,-0.052016 1.830982,-1.0079494 4.0665628,-0.9842139 5.8747148,0.064502 1.813749,1.049306 2.930193,2.9742145 2.92998,5.0520522 v 1.063262 c 0,0.221623 0.06467,0.321722 0.155645,0.40158 0.09086,0.07986 0.233166,0.13109 0.382814,0.13109 0.149649,0 0.291933,-0.05123 0.382814,-0.13109 C 17.935204,11.305909 18,11.205798 18,10.984186 V 9.9438166 c -9.7e-4,-0.02283 -0.0027,-0.04585 -0.0039,-0.068664 l -0.002,-0.010423 v -0.033292 l -0.002,-0.03121 C 17.949396,7.3891652 16.642004,5.1748572 14.539854,3.9513151 13.487874,3.3412272 12.291026,3.0127725 11.071413,3.0004145 Z M 5.5438637,6.0007839 C 5.3461622,5.9925239 5.1621918,6.0894759 5.0600889,6.2567105 l -0.00206,0.00421 -0.00206,0.00205 C 4.3652807,7.3605725 4.0000213,8.6283263 4,9.9209025 v 5.3891255 c 0,0.221622 0.064774,0.319644 0.1556472,0.399503 0.090877,0.07986 0.2331643,0.133166 0.3828134,0.133166 0.149649,0 0.2919319,-0.05328 0.3828132,-0.133166 0.090877,-0.07987 0.1556476,-0.177881 0.1556476,-0.399503 V 9.9209017 c 0,-1.0943163 0.3122533,-2.1678589 0.8960307,-3.0960891 l 0.00206,-0.00205 0.00206,-0.0042 C 6.2157009,6.4508998 5.9879913,6.018745 5.5459637,6.0008365 h -0.00207 z m 5.4561143,0.1935084 c -2.0728585,0 -3.7692249,1.6790811 -3.7692249,3.7265569 v 1.0632618 c 0,0.221623 0.064774,0.321722 0.1556473,0.40158 0.090878,0.07986 0.2331643,0.13109 0.3828135,0.13109 0.149649,0 0.2919316,-0.05123 0.3828131,-0.13109 0.090878,-0.07986 0.1556474,-0.179968 0.1556474,-0.40158 V 9.9208492 c 0,-1.4693161 1.2055057,-2.6633484 2.6923036,-2.6633484 1.486043,1e-7 2.692305,1.1937127 2.692305,2.6633484 v 5.3100758 c 0,0 0.01202,0.394048 0.159856,0.840616 l 0.002,0.002 c 0.221306,0.631151 0.585932,1.203092 1.068508,1.670879 l 0.0039,0.0039 0.0059,0.0059 c 0.159513,0.16238 0.275509,0.187414 0.397536,0.181022 0.122023,-0.006 0.260894,-0.07087 0.368092,-0.176868 0.107195,-0.105968 0.172327,-0.243791 0.178788,-0.364133 0.006,-0.120339 -0.01877,-0.235566 -0.182988,-0.393259 l -0.0039,-0.002 -0.002,-0.002 c -0.474434,-0.467774 -0.702386,-0.931759 -0.811865,-1.254601 -0.05145,-0.150681 -0.0773,-0.257046 -0.09253,-0.343327 -0.0073,-0.04314 -0.01309,-0.08189 -0.01472,-0.120682 -0.0015,-0.03874 0.0059,-0.12277 0.0059,-0.12277 l -0.0059,0.08743 V 9.9209131 c 0,-2.0473691 -1.697662,-3.7265569 -3.769226,-3.7265569 z m -0.0084,3.1793984 c -0.303533,0.00465 -0.534242,0.2394245 -0.530064,0.5389127 v 0.0042 5.3266976 c 0,0 1.53e-4,0.583849 0.145137,1.300461 0.148443,0.734721 0.410307,1.598647 1.089521,2.270131 l 0.0021,0.002 0.0043,0.002 c 0.159514,0.162371 0.275509,0.187414 0.397535,0.181022 0.122026,-0.006 0.260895,-0.06881 0.368092,-0.174778 0.107193,-0.105968 0.172318,-0.243794 0.178791,-0.364134 0.0064,-0.120341 -0.01873,-0.235567 -0.182991,-0.393261 l -0.0021,-0.002 -0.0043,-0.002 c -0.45142,-0.444611 -0.666933,-1.092753 -0.795076,-1.724925 -0.123469,-0.61028 -0.124094,-1.094424 -0.124094,-1.094424 v -5.3267003 -0.00416 c 0.0043,-0.306626 -0.236115,-0.5437385 -0.546871,-0.5389126 z M 7.7608031,13.632918 c -0.3035195,0.0045 -0.5342284,0.239423 -0.53005,0.538912 v 0.002 3.198151 c 0,0.221624 0.064774,0.321719 0.1556473,0.401578 0.090878,0.07986 0.2331643,0.131093 0.3828135,0.131093 0.149649,0 0.2919316,-0.05127 0.3828131,-0.131093 0.090877,-0.07986 0.1556474,-0.179964 0.1556474,-0.401578 v -3.198151 -0.002 c 0.0043,-0.306625 -0.2361151,-0.543706 -0.5468713,-0.538912 z m 9.7006919,0.01455 c -0.303951,0 -0.538462,0.230678 -0.538462,0.530591 0,0.299905 0.234511,0.532671 0.538462,0.532671 0.303952,0 0.538462,-0.232766 0.538462,-0.532671 0,-0.299913 -0.23451,-0.530591 -0.538462,-0.530591 z"
     fill="#dedede"
     id="path1"
     style="stroke-width:1.07113" />
</svg>
