<?xml version="1.0" encoding="UTF-8" standalone="no"?>
<svg
   width="22"
   height="22"
   version="1.1"
   id="svg2"
   sodipodi:docname="auth-smartcard-symbolic.svg"
   inkscape:version="1.4 (unknown)"
   xmlns:inkscape="http://www.inkscape.org/namespaces/inkscape"
   xmlns:sodipodi="http://sodipodi.sourceforge.net/DTD/sodipodi-0.dtd"
   xmlns="http://www.w3.org/2000/svg"
   xmlns:svg="http://www.w3.org/2000/svg">
  <defs
     id="defs2" />
  <sodipodi:namedview
     id="namedview2"
     pagecolor="#ffffff"
     bordercolor="#000000"
     borderopacity="0.25"
     inkscape:showpageshadow="2"
     inkscape:pageopacity="0.0"
     inkscape:pagecheckerboard="0"
     inkscape:deskcolor="#d1d1d1"
     inkscape:zoom="11.313709"
     inkscape:cx="19.047689"
     inkscape:cy="14.981825"
     inkscape:window-width="1920"
     inkscape:window-height="998"
     inkscape:window-x="0"
     inkscape:window-y="0"
     inkscape:window-maximized="1"
     inkscape:current-layer="svg2" />
  <g
     id="g2"
     transform="translate(3,3)">
    <path
       d="M 4,0 C 2.892,0 2,0.892 2,2 v 12 c 0,1.108 0.892,2 2,2 h 8 c 1.108,0 2,-0.892 2,-2 V 2 C 14,0.892 13.108,0 12,0 Z m 0,1 h 8 c 0.554,0 1,0.446 1,1 v 12 c 0,0.554 -0.446,1 -1,1 H 4 C 3.446,15 3,14.554 3,14 V 2 C 3,1.446 3.446,1 4,1 Z"
       fill="#dedede"
       fill-opacity="0.99696"
       id="path1" />
    <path
       d="M 5.508,2.977 C 5.79003,2.97246 6.01999,3.20196 6.016,3.484 v 3.532 h 1 V 2.984 h 3 v 4.032 h 0.511 c 0.677,-0.01 0.677,1.01 0,1 H 9.016 V 3.984 h -1 v 4.032 h -3 V 3.484 C 5.012104,3.20823 5.23224,2.98139 5.508,2.977 Z"
       fill="#dedede"
       id="path2" />
  </g>
</svg>
