<?xml version="1.0" encoding="UTF-8" standalone="no"?>
<svg
   style="clip-rule:evenodd;fill-rule:evenodd;stroke-linejoin:round;stroke-miterlimit:2"
   viewBox="0 0 22 22"
   version="1.1"
   id="svg2"
   sodipodi:docname="colorimeter-colorhug-symbolic.svg"
   width="22"
   height="22"
   inkscape:version="1.4 (unknown)"
   xmlns:inkscape="http://www.inkscape.org/namespaces/inkscape"
   xmlns:sodipodi="http://sodipodi.sourceforge.net/DTD/sodipodi-0.dtd"
   xmlns="http://www.w3.org/2000/svg"
   xmlns:svg="http://www.w3.org/2000/svg">
  <defs
     id="defs2" />
  <sodipodi:namedview
     id="namedview2"
     pagecolor="#ffffff"
     bordercolor="#000000"
     borderopacity="0.25"
     inkscape:showpageshadow="2"
     inkscape:pageopacity="0.0"
     inkscape:pagecheckerboard="0"
     inkscape:deskcolor="#d1d1d1"
     inkscape:zoom="17.125242"
     inkscape:cx="16.02897"
     inkscape:cy="19.240604"
     inkscape:window-width="1920"
     inkscape:window-height="998"
     inkscape:window-x="0"
     inkscape:window-y="0"
     inkscape:window-maximized="1"
     inkscape:current-layer="g2" />
  <g
     id="g2"
     transform="matrix(1.1074492,0,0,1.0962367,-0.21482677,-4.3594658e-5)">
    <g
       id="g3"
       transform="translate(1.8065508,2.7362222)">
      <path
         d="M 5.782,7.001 V 1.804 c 0,-0.45 0.388,-0.71 0.658,-0.91 0.26,-0.2 0.66,-0.299 1.06,-0.28 0.4,0.02 1.018,0.309 1.298,0.569 0.28,0.25 0.47,0.58 0.47,1.12 0,2.17 1.252,3.411 2.782,3.371 0.86,-0.02 1.501,-0.311 2.061,-1.141 L 13.72,3.701 C 13.34,4.612 12.65,4.992 12,5.012 11.04,5.042 10.03,4.282 10.03,2.542 10.03,1.752 9.69,1.102 9.22,0.672 8.74,0.242 8.14,0.042 7.53,0.012 7.38,0.002 7.21,-0.008 7.06,0.012 6.61,0.062 6.18,0.232 5.81,0.512 5.32,0.882 5,1.462 5,2.201 v 4.8 m 9,-4.99 v 0.121 l 0.611,1.211 c 0.01,-0.04 0.02,-0.08 0.03,-0.13 z m 0,0.341 c -0.01,0.11 -0.02,0.22 -0.03,0.32 l 0.551,1.041 0.06,-0.18 z m -0.06,0.5 c -0.02,0.09 -0.05,0.17 -0.06,0.25 l 0.481,0.961 c 0.03,-0.06 0.07,-0.12 0.1,-0.19 z m -0.1,0.44 c -0.02,0.09 -0.06,0.17 -0.09,0.25 l 0.421,0.861 c 0.04,-0.06 0.09,-0.12 0.13,-0.19 z"
         fill="#dfdfdf"
         id="path1" />
      <path
         d="M 2,6.8 C 1.921,4.939 8.92,4.916 9,6.8 9,6.8 8.379,13.451 7.429,14 6.118,14.756 4.829,14.832 3.571,14 2.63,13.378 2,6.8 2,6.8 Z m 3.5,1.712 c 0.819,0 1.483,0.665 1.483,1.484 0,0.819 -0.664,1.483 -1.483,1.483 -0.819,0 -1.484,-0.664 -1.484,-1.483 0,-0.819 0.665,-1.484 1.484,-1.484 z"
         fill="#dfdfdf"
         id="path2" />
    </g>
  </g>
</svg>
