<?xml version="1.0" encoding="UTF-8" standalone="no"?>
<svg
   width="22"
   height="22"
   version="1.1"
   id="svg1"
   sodipodi:docname="folder-videos.svg"
   inkscape:version="1.4.1 (unknown)"
   xmlns:inkscape="http://www.inkscape.org/namespaces/inkscape"
   xmlns:sodipodi="http://sodipodi.sourceforge.net/DTD/sodipodi-0.dtd"
   xmlns="http://www.w3.org/2000/svg"
   xmlns:svg="http://www.w3.org/2000/svg">
  <sodipodi:namedview
     id="namedview1"
     pagecolor="#ffffff"
     bordercolor="#000000"
     borderopacity="0.25"
     inkscape:showpageshadow="2"
     inkscape:pageopacity="0.0"
     inkscape:pagecheckerboard="0"
     inkscape:deskcolor="#d1d1d1"
     showgrid="true"
     inkscape:zoom="24.684455"
     inkscape:cx="11.484961"
     inkscape:cy="14.05743"
     inkscape:window-width="1920"
     inkscape:window-height="996"
     inkscape:window-x="0"
     inkscape:window-y="0"
     inkscape:window-maximized="1"
     inkscape:current-layer="svg1">
    <inkscape:grid
       id="grid1"
       units="px"
       originx="0"
       originy="0"
       spacingx="1"
       spacingy="1"
       empcolor="#0099e5"
       empopacity="0.30196078"
       color="#0099e5"
       opacity="0.14902"
       empspacing="5"
       enabled="true"
       visible="true" />
  </sodipodi:namedview>
  <defs
     id="defs1">
     <style
        type="text/css"
        id="current-color-scheme">.ColorScheme-Text { color:#d1d5e9; }
        </style>
  </defs>
  <path
     class="ColorScheme-Text"
     d="M 5,4 C 3.892,4 3,4.960615 3,6.153846 V 15.84615 C 3,17.03938 3.892,18 5,18 h 12 c 1.108,0 2,-0.96062 2,-2.15385 V 6.153846 C 19,4.960615 18.108,4 17,4 Z M 5,5.076923 H 6 V 6.153846 H 4 C 4,5.557231 4.446,5.076923 5,5.076923 Z m 2,0 h 8 V 10 H 7 Z m 9,0 h 1 c 0.554,0 1,0.480308 1,1.076923 H 16 Z M 4,7.230769 H 6 V 8.307692 H 4 Z m 12,0 h 2 V 8.307692 H 16 Z M 4,9.38462 h 2 v 1.07692 H 4 Z m 12,0 h 2 v 1.07692 H 16 Z M 4,11.53846 h 2 v 1.07692 H 4 Z M 7,12 h 8 v 4.92308 H 7 Z m 9,-0.46154 h 2 v 1.07692 H 16 Z M 4,13.69231 h 2 v 1.07692 H 4 Z m 12,0 h 2 v 1.07692 H 16 Z M 4,15.84615 h 2 v 1.07693 H 5 c -0.554,0 -1,-0.48031 -1,-1.07693 z m 12,0 h 2 c 0,0.59662 -0.446,1.07693 -1,1.07693 h -1 z"
     fill="currentColor"
     id="path1"
     style="stroke-width:1.03775"
     sodipodi:nodetypes="sssssssssscccsccccccscccccccccccccccccccccccccccccccccccccccccccccccccccscccscc" />
</svg>
