<?xml version="1.0" encoding="UTF-8" standalone="no"?>
<svg
   width="22"
   height="22"
   version="1.1"
   id="svg1"
   sodipodi:docname="applications-development-symbolic.svg"
   inkscape:version="1.4.2 (unknown)"
   xmlns:inkscape="http://www.inkscape.org/namespaces/inkscape"
   xmlns:sodipodi="http://sodipodi.sourceforge.net/DTD/sodipodi-0.dtd"
   xmlns="http://www.w3.org/2000/svg"
   xmlns:svg="http://www.w3.org/2000/svg">
  <defs
     id="defs1" />
  <sodipodi:namedview
     id="namedview1"
     pagecolor="#ffffff"
     bordercolor="#000000"
     borderopacity="0.25"
     inkscape:showpageshadow="2"
     inkscape:pageopacity="0.0"
     inkscape:pagecheckerboard="0"
     inkscape:deskcolor="#d1d1d1"
     inkscape:zoom="35.318182"
     inkscape:cx="11"
     inkscape:cy="11"
     inkscape:window-width="1920"
     inkscape:window-height="1000"
     inkscape:window-x="0"
     inkscape:window-y="0"
     inkscape:window-maximized="1"
     inkscape:current-layer="svg1" />
  <style
     id="current-color-scheme"
     type="text/css">.ColorScheme-Text { color:#dedede; }
</style>
  <path
     d="m 10.211978,2.0054179 c -1.9340179,0.08705 -4.0821097,1.458887 -6.0926204,4.098242 a 0.63642163,0.598553 0 0 0 0.8078828,0.881376 c 0,0 1.3919694,-0.64916 2.6672327,-0.771491 0.637631,-0.06117 1.1952695,0.01727 1.5511859,0.257158 0.3558509,0.239901 0.638839,0.660954 0.638839,1.652919 V 11.621097 H 9.0909688 c -0.7050828,0 -1.2727153,0.533856 -1.2727153,1.196985 v 5.98493 C 7.8182535,19.466142 8.385886,20 9.0909688,20 h 5.0908662 c 0.705083,0 1.272717,-0.533858 1.272717,-1.196988 v -5.98493 c 0,-0.663129 -0.567634,-1.196985 -1.272717,-1.196985 H 13.371474 V 7.8945189 c 0.003,-0.146007 0.07961,-0.552659 0.25604,-0.832275 0.145255,-0.230109 0.369423,-0.325424 0.678591,-0.374058 l 0.897375,0.755129 a 0.63642163,0.598553 0 0 0 0.425064,0.151958 h 1.735098 A 0.63642163,0.598553 0 0 0 18,6.9967809 v -4.353081 a 0.63642163,0.598553 0 0 0 -0.636358,-0.598494 h -1.735098 a 0.63642163,0.598553 0 0 0 -0.357943,0.102867 l -0.924719,0.586799 c -0.204779,-0.06528 -0.535975,-0.177346 -1.232939,-0.346001 -0.878402,-0.212573 -1.955528,-0.42596 -2.900902,-0.383407 z m 0.05966,1.194654 c 0.67444,-0.03036 1.703149,0.149312 2.525576,0.348345 0.822403,0.199023 1.444292,0.406784 1.444292,0.406784 a 0.63642163,0.598553 0 0 0 0.56924,-0.07014 l 1.011701,-0.642911 h 0.904833 v 3.156099 h -0.857598 l -0.99182,-0.834622 a 0.63642163,0.598553 0 0 0 -0.425066,-0.151957 c -0.913745,0 -1.585046,0.50885 -1.919011,1.038013 -0.333959,0.529164 -0.426765,1.056917 -0.435011,1.419028 a 0.63642163,0.598553 0 0 0 0,0.01403 V 11.62093 h -1.04154 V 8.1234559 c 0,-1.235531 -0.439456,-2.134109 -1.1683162,-2.625472 -0.7288592,-0.49135 -1.6149493,-0.552157 -2.4236316,-0.47458 -0.3571246,0.03426 -0.3577224,0.121554 -0.6885662,0.198723 1.3110253,-1.191923 2.5711415,-1.980654 3.495007,-2.022309 z M 9.0909009,12.818102 h 5.0908781 v 5.984921 H 9.0909009 Z"
     id="path1-5"
     style="stroke-width:1.23428"
     class="ColorScheme-Text"
     fill="currentColor" />
</svg>
