<?xml version="1.0" encoding="UTF-8" standalone="no"?>
<svg
   width="62"
   viewBox="0 0 62 62"
   height="62"
   version="1.1"
   id="svg28"
   sodipodi:docname="application-x-gzpdf.svg"
   inkscape:version="1.4.1 (unknown)"
   xmlns:inkscape="http://www.inkscape.org/namespaces/inkscape"
   xmlns:sodipodi="http://sodipodi.sourceforge.net/DTD/sodipodi-0.dtd"
   xmlns:xlink="http://www.w3.org/1999/xlink"
   xmlns="http://www.w3.org/2000/svg"
   xmlns:svg="http://www.w3.org/2000/svg"
   xmlns:rdf="http://www.w3.org/1999/02/22-rdf-syntax-ns#"
   xmlns:cc="http://creativecommons.org/ns#"
   xmlns:dc="http://purl.org/dc/elements/1.1/">
  <metadata
     id="metadata32">
    <rdf:RDF>
      <cc:Work
         rdf:about="">
        <dc:format>image/svg+xml</dc:format>
        <dc:type
           rdf:resource="http://purl.org/dc/dcmitype/StillImage" />
      </cc:Work>
    </rdf:RDF>
  </metadata>
  <sodipodi:namedview
     pagecolor="#ffffff"
     bordercolor="#666666"
     borderopacity="1"
     objecttolerance="10"
     gridtolerance="10"
     guidetolerance="10"
     inkscape:pageopacity="0"
     inkscape:pageshadow="2"
     inkscape:window-width="1920"
     inkscape:window-height="998"
     id="namedview30"
     showgrid="false"
     inkscape:zoom="7.890625"
     inkscape:cx="32"
     inkscape:cy="31.936634"
     inkscape:window-x="0"
     inkscape:window-y="0"
     inkscape:window-maximized="1"
     inkscape:current-layer="svg28"
     inkscape:showpageshadow="2"
     inkscape:pagecheckerboard="0"
     inkscape:deskcolor="#d1d1d1" />
  <defs
     id="defs8">
    <linearGradient
       id="a"
       y1="392.35999"
       y2="336.35999"
       x2="0"
       gradientUnits="userSpaceOnUse"
       gradientTransform="translate(-14,-332.36)">
      <stop
         stop-color="#ffffff"
         stop-opacity="0"
         id="stop2" />
      <stop
         offset="1"
         stop-color="#ffffff"
         stop-opacity=".15"
         id="stop4" />
    </linearGradient>
    <path
       color-rendering="auto"
       color-interpolation-filters="linearRGB"
       shape-rendering="auto"
       image-rendering="auto"
       text-rendering="auto"
       id="b"
       color-interpolation="sRGB"
       color="#000000"
       d="M 10,3 V 61 H 54 V 3 H 40 Z" />
    <linearGradient
       inkscape:collect="always"
       xlink:href="#a"
       id="linearGradient865"
       x1="-50"
       y1="61"
       x2="-50"
       y2="3"
       gradientUnits="userSpaceOnUse"
       gradientTransform="matrix(0.96590902,0,0,0.96551724,58.295448,0.10344828)" />
  </defs>
  <g
     id="g1">
    <path
       style="opacity:1;fill:#da2c2c;fill-opacity:1;fill-rule:nonzero;stroke:none;stroke-width:1.93139;stroke-linejoin:miter;stroke-miterlimit:4;stroke-dasharray:none;stroke-opacity:1"
       d="M 10,3 V 9.5492991 52.450697 59 H 16.551957 27.52785 45.948043 C 49.577875,59 52.5,56.079059 52.5,52.450697 V 9.5492991 C 52.5,5.9209405 49.577875,3 45.948043,3 H 27.52785 16.551957 Z"
       id="rect839"
       inkscape:connector-curvature="0" />
    <path
       d="m 25.745287,17.46442 c -0.350622,0.0126 -0.726375,0.1062 -1.138802,0.2829 -3.683014,1.57282 -0.965912,5.18578 3.724531,8.48978 0.02801,-0.63338 0.04542,-1.25324 0.03861,-1.84704 -4.005624,-2.74012 -5.566518,-5.46096 -3.639536,-6.10302 2.066078,-0.85448 3.591257,1.6771 3.639536,6.10302 0.251143,0.1709 0.503244,0.3389 0.766931,0.51174 -0.09752,-4.02814 -0.981357,-7.18732 -3.043574,-7.42 -0.110105,-0.0126 -0.230854,-0.0194 -0.347721,-0.0154 m 3.391295,7.43546 -0.480054,-0.76084 -0.609488,0.52524 -0.127491,0.79946 0.803626,1.514895 0.403764,-0.194075 c 2.701636,1.79972 5.928745,3.45752 8.956873,4.59586 l 0.899265,0.52332 1.243124,0.03 c 1.145565,-0.67876 0.462667,-0.92882 4.625736,-1.44344 l -4.690463,0.356275 c -3.618287,-1.4 -7.66931,-3.752975 -11.027773,-5.946623 m 9.024482,6.461246 c 0.54284,0.0434 4.36591,-0.624698 6.050454,-0.786898 0.644261,-0.084 3.197157,-0.26746 3.326589,1.612407 0.440459,-1.024407 -0.22215,-1.994755 -1.65171,-2.298887 -2.209036,-0.494358 -6.464822,1.06496 -7.725333,1.473378 m 2.439891,-0.475052 c -0.656826,0.23558 -1.765684,0.21144 -2.474664,0.499172 1.005508,0.514622 6.153817,1.879868 8.237282,1.488828 0.333235,-0.0522 1.245044,-0.3051 1.279818,-1.0389 -1.669096,1.15958 -6.276465,0.34566 -7.042436,-0.94814 m 1.372557,0.0212 c -0.539939,-0.17282 -3.32659,0.68456 -3.882956,0.473105 -3.42609,1.141247 -7.178631,2.783595 -10.229949,4.536 l -0.883799,0.174755 -0.682896,1.218492 -0.916652,1.192408 1.033518,1.02828 0.808468,-1.32662 c 3.57289,-2.14152 10.634655,-5.62896 14.756187,-7.299315 M 27.21634,38.206706 c -0.436596,0.26166 -0.853866,0.52042 -1.248925,0.77144 -0.457826,1.29862 -1.777262,4.15366 -2.683289,4.0658 0,0 -0.166136,0.138068 -0.430795,0.3582 1.391865,0.79946 3.221306,-1.6993 4.363971,-5.19544 m -3.933176,4.83724 c -2.403175,-1.41738 1.544487,-3.49614 2.683289,-4.0658 0.256944,-0.73282 0.499381,-1.52744 0.728294,-2.37516 -3.588355,2.232276 -5.834086,4.54662 -4.632499,6.076 0.289778,0.36978 0.520631,0.636276 0.78818,0.7222 m 3.843359,-6.79724 c 0.371871,-0.23076 0.76307,-0.45766 1.162952,-0.68744 0.707047,-2.85022 1.175517,-6.12814 1.273077,-9.131868 -0.272391,-0.181512 -0.538019,-0.364972 -0.797844,-0.548412 -0.151642,3.38124 -0.780457,7.19986 -1.636244,10.36772"
       id="path16"
       inkscape:connector-curvature="0"
       style="color:#000000;opacity:0.8;color-interpolation:sRGB;color-interpolation-filters:linearRGB;fill:#ffffff;stroke-width:0.965715;color-rendering:auto;image-rendering:auto;shape-rendering:auto;text-rendering:auto" />
    <rect
       width="0.96590936"
       x="15.795461"
       y="3.9655151"
       fill="#ffffff"
       height="54.069"
       fill-opacity="0.252"
       id="rect22"
       style="stroke-width:0.965715" />
    <rect
       color-interpolation-filters="linearRGB"
       x="16.761349"
       y="3.9655151"
       fill-opacity="0.083"
       color="#000000"
       image-rendering="auto"
       color-rendering="auto"
       width="0.96590936"
       color-interpolation="sRGB"
       text-rendering="auto"
       height="54.069"
       shape-rendering="auto"
       id="rect24"
       style="stroke-width:0.965715" />
    <path
       style="opacity:1;fill:url(#linearGradient865);fill-opacity:1;fill-rule:nonzero;stroke:none;stroke-width:1.93139;stroke-linejoin:miter;stroke-miterlimit:4;stroke-dasharray:none;stroke-opacity:1"
       d="M 10,3 V 9.549299 52.450697 59 H 16.551957 27.52785 45.948043 C 49.577875,59 52.5,56.079059 52.5,52.450697 V 9.549299 C 52.5,5.92094 49.577875,3 45.948043,3 H 27.52785 16.551957 Z"
       id="rect839-3"
       inkscape:connector-curvature="0" />
    <path
       style="opacity:0.25;fill:#000000;fill-opacity:1;fill-rule:nonzero;stroke:none;stroke-width:1.93139;stroke-linejoin:miter;stroke-miterlimit:4;stroke-dasharray:none;stroke-opacity:1"
       d="m 52.5,51.471801 c 0,3.628362 -2.922125,6.549303 -6.551957,6.549303 H 27.527854 16.55196 10 v 0.978712 h 6.55196 10.975894 18.420189 c 3.629832,0 6.551957,-2.920941 6.551957,-6.549296 z"
       id="rect839-6"
       inkscape:connector-curvature="0" />
    <path
       style="opacity:0.5;fill:#ffffff;fill-opacity:1;fill-rule:nonzero;stroke:none;stroke-width:1.93139;stroke-linejoin:miter;stroke-miterlimit:4;stroke-dasharray:none;stroke-opacity:1"
       d="m 10,3 v 0.9787179 h 6.55196 10.975894 18.420189 c 3.629832,0 6.551957,2.9209392 6.551957,6.5492971 V 9.549299 C 52.5,5.9209405 49.577875,3 45.948043,3 H 27.527854 16.55196 Z"
       id="path891"
       inkscape:connector-curvature="0" />
  </g>
</svg>
