<?xml version="1.0" encoding="UTF-8" standalone="no"?>
<svg
   width="62"
   height="62"
   version="1"
   id="svg7"
   sodipodi:docname="application-x-musescore.svg"
   inkscape:version="1.4.1 (unknown)"
   xmlns:inkscape="http://www.inkscape.org/namespaces/inkscape"
   xmlns:sodipodi="http://sodipodi.sourceforge.net/DTD/sodipodi-0.dtd"
   xmlns:xlink="http://www.w3.org/1999/xlink"
   xmlns="http://www.w3.org/2000/svg"
   xmlns:svg="http://www.w3.org/2000/svg">
  <defs
     id="defs7">
    <linearGradient
       id="linearGradient2"
       inkscape:collect="always">
      <stop
         style="stop-color:#8d98a8;stop-opacity:1;"
         offset="0"
         id="stop9" />
      <stop
         style="stop-color:#eaecef;stop-opacity:1;"
         offset="1"
         id="stop10" />
    </linearGradient>
    <linearGradient
       id="linearGradient7"
       inkscape:collect="always">
      <stop
         style="stop-color:#218fdd;stop-opacity:1;"
         offset="0"
         id="stop7" />
      <stop
         style="stop-color:#1b83d4;stop-opacity:1;"
         offset="1"
         id="stop8" />
    </linearGradient>
    <linearGradient
       id="linearGradient1"
       inkscape:collect="always">
      <stop
         style="stop-color:#135b93;stop-opacity:1;"
         offset="0"
         id="stop5" />
      <stop
         style="stop-color:#98cbf1;stop-opacity:1;"
         offset="1"
         id="stop6" />
    </linearGradient>
    <linearGradient
       id="c-3"
       gradientUnits="userSpaceOnUse"
       x1="24.072048"
       x2="23.959682"
       y1="0.75082099"
       y2="46.056854">
      <stop
         offset="0"
         stop-color="#fff"
         id="stop3" />
      <stop
         offset="1"
         stop-color="#d9d9d9"
         id="stop4" />
    </linearGradient>
    <linearGradient
       id="b-6"
       gradientUnits="userSpaceOnUse"
       x1="29.203026"
       x2="34.121048"
       xlink:href="#a-7"
       y1="24.827356"
       y2="29.224836" />
    <linearGradient
       id="a-7">
      <stop
         offset="0"
         id="stop1" />
      <stop
         offset="1"
         stop-opacity="0"
         id="stop2" />
    </linearGradient>
    <linearGradient
       id="d"
       gradientUnits="userSpaceOnUse"
       x1="15.948756"
       x2="25.031786"
       xlink:href="#a-7"
       y1="23.618279"
       y2="33.69899" />
    <linearGradient
       id="e"
       gradientUnits="userSpaceOnUse"
       x1="21.990562"
       x2="29.320522"
       xlink:href="#a-7"
       y1="33.780373"
       y2="41.931858" />
    <linearGradient
       id="paint154_linear_890_11"
       x1="778"
       y1="812.29199"
       x2="788"
       y2="812.29199"
       gradientUnits="userSpaceOnUse"
       gradientTransform="translate(-751,-696)">
      <stop
         stop-color="#EFF2F6"
         id="stop1050" />
      <stop
         offset="0.600785"
         stop-color="#B7C6CD"
         id="stop1051" />
    </linearGradient>
    <linearGradient
       id="paint155_linear_890_11"
       x1="783"
       y1="813"
       x2="783"
       y2="817"
       gradientUnits="userSpaceOnUse"
       gradientTransform="translate(-751,-696)">
      <stop
         stop-color="#EFF2F6"
         id="stop1052" />
      <stop
         offset="0.734138"
         stop-color="#B7C6CD"
         id="stop1053" />
    </linearGradient>
    <radialGradient
       id="paint156_radial_890_11"
       cx="0"
       cy="0"
       r="1"
       gradientUnits="userSpaceOnUse"
       gradientTransform="matrix(27.999986,27.999976,-27.999986,27.999976,32.302392,33.999998)">
      <stop
         offset="0.60067803"
         stop-color="#B7C6CD"
         id="stop1054"
         style="stop-color:#384850;stop-opacity:1;" />
      <stop
         offset="0.876735"
         stop-color="#EFF2F6"
         id="stop1055" />
    </radialGradient>
    <linearGradient
       id="paint157_linear_890_11"
       x1="796.84485"
       y1="799.43359"
       x2="768.90088"
       y2="770.81476"
       gradientUnits="userSpaceOnUse"
       gradientTransform="matrix(1.1666666,0,0,1.1666668,-881.19764,-881.8333)">
      <stop
         offset="0.00000057"
         stop-color="#2E2E41"
         id="stop1056"
         style="stop-color:#424b58;stop-opacity:1;" />
      <stop
         offset="0.71113902"
         stop-color="#566C80"
         id="stop1057"
         style="stop-color:#303c47;stop-opacity:1;" />
    </linearGradient>
    <linearGradient
       id="paint158_linear_890_11"
       x1="792"
       y1="794"
       x2="774"
       y2="776"
       gradientUnits="userSpaceOnUse"
       gradientTransform="translate(-751,-696)">
      <stop
         offset="0.304478"
         stop-color="#2E2E41"
         id="stop1058" />
      <stop
         offset="1"
         stop-color="#566C80"
         id="stop1059" />
    </linearGradient>
    <linearGradient
       id="paint159_linear_890_11"
       x1="788"
       y1="790"
       x2="778"
       y2="780"
       gradientUnits="userSpaceOnUse"
       gradientTransform="translate(-751,-696)">
      <stop
         offset="0.391394"
         stop-color="#5200FF"
         id="stop1060" />
      <stop
         offset="1"
         stop-color="#0085FF"
         id="stop1061" />
    </linearGradient>
    <linearGradient
       id="paint160_linear_890_11"
       x1="784"
       y1="798"
       x2="782"
       y2="796"
       gradientUnits="userSpaceOnUse"
       gradientTransform="translate(-751,-696)">
      <stop
         stop-color="#FF7E07"
         id="stop1062" />
      <stop
         offset="1"
         stop-color="#FFE607"
         id="stop1063" />
    </linearGradient>
    <linearGradient
       id="c-3-6"
       gradientUnits="userSpaceOnUse"
       x1="24.072048"
       x2="23.959682"
       y1="0.75082099"
       y2="46.056854"
       gradientTransform="matrix(0.91471346,0,0,0.90068147,9.0468769,9.3836444)">
      <stop
         offset="0"
         stop-color="#fff"
         id="stop3-2" />
      <stop
         offset="1"
         stop-color="#d9d9d9"
         id="stop4-9" />
    </linearGradient>
    <linearGradient
       id="b-6-1"
       gradientUnits="userSpaceOnUse"
       x1="29.203026"
       x2="34.121048"
       xlink:href="#a-7"
       y1="24.827356"
       y2="29.224836"
       gradientTransform="matrix(1.1104534,0,0,1.0934187,4.3491158,4.7861435)" />
    <linearGradient
       id="d-0"
       gradientUnits="userSpaceOnUse"
       x1="15.948756"
       x2="25.031786"
       xlink:href="#a-7"
       y1="23.618279"
       y2="33.69899"
       gradientTransform="matrix(1.1104534,0,0,1.0934187,4.3491158,4.7861435)" />
    <linearGradient
       id="e-9"
       gradientUnits="userSpaceOnUse"
       x1="21.990562"
       x2="29.320522"
       xlink:href="#a-7"
       y1="33.780373"
       y2="41.931858"
       gradientTransform="matrix(1.1104534,0,0,1.0934187,4.3491158,4.7861435)" />
    <linearGradient
       id="paint539_linear_890_11"
       x1="1007"
       y1="317"
       x2="951.659"
       y2="269.565"
       gradientUnits="userSpaceOnUse">
      <stop
         offset="0.223912"
         stop-color="#5200FF"
         id="stop1821"
         style="stop-color:#1b83d4;stop-opacity:1;" />
      <stop
         offset="0.90299499"
         stop-color="#0085FF"
         id="stop1822"
         style="stop-color:#5cacea;stop-opacity:1;" />
    </linearGradient>
    <linearGradient
       id="paint540_linear_890_11"
       x1="974.5"
       y1="274"
       x2="974.5"
       y2="280"
       gradientUnits="userSpaceOnUse"
       gradientTransform="translate(-952,-258)">
      <stop
         offset="0.189495"
         stop-color="#EFF2F6"
         id="stop1823" />
      <stop
         offset="0.850463"
         stop-color="#B7C6CD"
         id="stop1824" />
    </linearGradient>
    <linearGradient
       id="paint541_linear_890_11"
       x1="983"
       y1="282"
       x2="983"
       y2="288"
       gradientUnits="userSpaceOnUse"
       gradientTransform="translate(-952,-258)">
      <stop
         offset="0.189495"
         stop-color="#EFF2F6"
         id="stop1825" />
      <stop
         offset="0.850463"
         stop-color="#B7C6CD"
         id="stop1826" />
    </linearGradient>
    <linearGradient
       id="paint542_linear_890_11"
       x1="983"
       y1="290"
       x2="983"
       y2="296"
       gradientUnits="userSpaceOnUse"
       gradientTransform="translate(-952,-258)">
      <stop
         offset="0.189495"
         stop-color="#EFF2F6"
         id="stop1827" />
      <stop
         offset="0.850463"
         stop-color="#B7C6CD"
         id="stop1828" />
    </linearGradient>
    <linearGradient
       id="paint543_linear_890_11"
       x1="978.5"
       y1="298"
       x2="978.5"
       y2="304"
       gradientUnits="userSpaceOnUse"
       gradientTransform="translate(-952,-258)">
      <stop
         offset="0.189495"
         stop-color="#EFF2F6"
         id="stop1829" />
      <stop
         offset="0.850463"
         stop-color="#B7C6CD"
         id="stop1830" />
    </linearGradient>
    <linearGradient
       id="paint544_linear_890_11"
       x1="993"
       y1="261"
       x2="1007"
       y2="275"
       gradientUnits="userSpaceOnUse">
      <stop
         stop-color="#EFF2F6"
         id="stop1831" />
      <stop
         offset="1"
         stop-color="#B7C6CD"
         id="stop1832" />
    </linearGradient>
    <linearGradient
       id="paint545_linear_890_11"
       x1="1000.58"
       y1="267.41699"
       x2="994.75"
       y2="273.25"
       gradientUnits="userSpaceOnUse">
      <stop
         stop-color="#5200FF"
         id="stop1833"
         offset="0"
         style="stop-color:#1b83d4;stop-opacity:1;" />
      <stop
         offset="1"
         stop-color="#0085FF"
         id="stop1834"
         style="stop-color:#8bc8ff;stop-opacity:1;" />
    </linearGradient>
    <linearGradient
       inkscape:collect="always"
       xlink:href="#linearGradient1"
       id="linearGradient6"
       x1="1000"
       y1="268"
       x2="994.65778"
       y2="273.1409"
       gradientUnits="userSpaceOnUse"
       gradientTransform="translate(-952,-258)" />
    <linearGradient
       inkscape:collect="always"
       xlink:href="#linearGradient7"
       id="linearGradient8"
       x1="964.64185"
       y1="271.35422"
       x2="1007"
       y2="317"
       gradientUnits="userSpaceOnUse"
       gradientTransform="translate(-952,-258)" />
    <linearGradient
       inkscape:collect="always"
       xlink:href="#linearGradient2"
       id="linearGradient10"
       x1="996.36108"
       y1="271.24106"
       x2="1005.1265"
       y2="263.85464"
       gradientUnits="userSpaceOnUse"
       gradientTransform="translate(-952,-258)" />
  </defs>
  <sodipodi:namedview
     id="namedview7"
     pagecolor="#ffffff"
     bordercolor="#000000"
     borderopacity="0.25"
     inkscape:showpageshadow="2"
     inkscape:pageopacity="0.0"
     inkscape:pagecheckerboard="0"
     inkscape:deskcolor="#d1d1d1"
     inkscape:zoom="8.3306018"
     inkscape:cx="35.111509"
     inkscape:cy="62.120362"
     inkscape:window-width="1920"
     inkscape:window-height="998"
     inkscape:window-x="0"
     inkscape:window-y="0"
     inkscape:window-maximized="1"
     inkscape:current-layer="svg7" />
  <path
     d="M 7,9 C 7,5.686 9.686,3 13,3 h 34 c 4.42,0 8,3.582 8,8 v 42 c 0,3.314 -2.69,6 -6,6 H 13 C 9.686,59 7,56.314 7,53 Z"
     id="path526"
     style="fill:url(#linearGradient8)" />
  <path
     d="m 41,3 h 8 c 3.31,0 6,2.686 6,6 v 8 h -6 c -4.418,0 -8,-3.582 -8,-8 z"
     id="path531"
     style="fill:url(#linearGradient10)" />
  <path
     d="M 41,11 V 3 l 14,14 h -8 c -3.314,0 -6,-2.686 -6,-6 z"
     id="path532"
     style="fill:url(#linearGradient6)" />
  <g
     id="g1"
     transform="translate(-6.017998,-23.047555)">
    <path
       style="opacity:0.2;stroke-width:1.15529"
       d="m 46.259806,52.155223 c -3.243766,0 -5.776152,2.534813 -5.776152,5.861887 3.03e-4,1.425903 2.310458,1.425903 2.310458,0 0,-1.901171 1.021596,-3.551429 3.465694,-3.551429 2.444084,0 3.465681,1.650258 3.465681,3.551429 0,1.425903 2.310458,1.425903 2.310458,0 0,-3.327074 -2.532346,-5.861887 -5.776139,-5.861887 z m 0,4.620916 c -0.638296,0 -1.155236,0.516901 -1.155236,1.155236 0,0.638283 0.51694,1.155223 1.155236,1.155223 0.638283,0 1.155223,-0.51694 1.155223,-1.155223 0,-0.638335 -0.51694,-1.155236 -1.155223,-1.155236 z m -9.241833,3.465694 c -1.733603,0 -3.77636,1.068167 -4.7202,2.400709 C 31.353993,61.31 29.50974,60.411045 27.776139,60.411045 24.911646,60.411045 22,62.20673 22,67.137094 v 8.122712 c 0,0 0,1.155223 1.155223,1.155223 1.155235,0 1.155235,-1.155223 1.155235,-1.155223 v -8.122712 c -9.96e-4,-3.747003 1.695317,-4.584802 3.465681,-4.584802 1.770363,0 3.465694,1.387951 3.465694,3.923707 v 8.783807 c 0,0 0,1.155223 1.155223,1.155223 1.155236,0 1.155236,-1.155223 1.155236,-1.155223 v -8.783807 c 0,-2.535756 1.695319,-3.923707 3.465681,-3.923707 1.123928,0 3.474712,0.395089 3.474712,3.923707 l 0.06773,2.998636 c 5e-6,5.540956 3.381335,6.940394 5.699442,6.940394 2.318105,0 5.705304,-1.634021 5.776139,-6.536517 v -7.499963 c 0,-1.349478 -2.310458,-1.349478 -2.310458,0 v 7.382631 c 0,3.719132 -2.306636,4.34339 -3.465681,4.34339 -1.159062,0 -3.481487,-0.387415 -3.481487,-4.74501 l -0.06773,-2.72111 c -4e-6,-4.202845 -2.747349,-6.396617 -5.692667,-6.396617 z"
       id="path6" />
    <path
       style="fill:#ffffff;stroke-width:1.15529"
       d="m 46.259806,51 c -3.243766,0 -5.776152,2.534813 -5.776152,5.861888 3.03e-4,1.425889 2.310458,1.425889 2.310458,0 0,-1.901185 1.021596,-3.55143 3.465694,-3.55143 2.444084,0 3.465681,1.650245 3.465681,3.55143 0,1.425889 2.310458,1.425889 2.310458,0 C 52.035945,53.534813 49.503599,51 46.259806,51 Z m 0,4.620917 c -0.638296,0 -1.155236,0.5169 -1.155236,1.155222 0,0.638296 0.51694,1.155236 1.155236,1.155236 0.638283,0 1.155223,-0.51694 1.155223,-1.155236 0,-0.638322 -0.51694,-1.155222 -1.155223,-1.155222 z m -9.241833,3.465681 c -1.733603,0 -3.77636,1.068166 -4.7202,2.400708 C 31.353993,60.154764 29.50974,59.255822 27.776139,59.255822 24.911646,59.255822 22,61.051494 22,65.981873 v 8.122697 c 0,0 0,1.155236 1.155223,1.155236 1.155235,0 1.155235,-1.155236 1.155235,-1.155236 v -8.122697 c -9.96e-4,-3.747003 1.695317,-4.584817 3.465681,-4.584817 1.770363,0 3.465694,1.387952 3.465694,3.923721 v 8.783793 c 0,0 0,1.155236 1.155223,1.155236 1.155236,0 1.155236,-1.155236 1.155236,-1.155236 v -8.783793 c 0,-2.535769 1.695319,-3.923721 3.465681,-3.923721 1.123928,0 3.474712,0.395104 3.474712,3.923721 l 0.06773,2.998622 c 4e-6,5.540957 3.381334,6.940407 5.699441,6.940407 2.318105,0 5.705304,-1.634034 5.776139,-6.536529 v -7.499963 c 0,-1.349465 -2.310458,-1.349465 -2.310458,0 v 7.382643 c 0,3.71912 -2.306636,4.343391 -3.465681,4.343391 -1.159062,0 -3.481487,-0.387428 -3.481487,-4.74501 l -0.06773,-2.721109 c -4e-6,-4.202847 -2.747349,-6.396631 -5.692666,-6.396631 z"
       id="path7" />
  </g>
</svg>
