<?xml version="1.0" encoding="UTF-8" standalone="no"?>
<svg
   width="62"
   height="62"
   version="1"
   id="svg7"
   sodipodi:docname="phatch.svg"
   inkscape:version="1.4 (unknown)"
   xmlns:inkscape="http://www.inkscape.org/namespaces/inkscape"
   xmlns:sodipodi="http://sodipodi.sourceforge.net/DTD/sodipodi-0.dtd"
   xmlns:xlink="http://www.w3.org/1999/xlink"
   xmlns="http://www.w3.org/2000/svg"
   xmlns:svg="http://www.w3.org/2000/svg">
  <defs
     id="defs7">
    <linearGradient
       id="linearGradient2"
       inkscape:collect="always">
      <stop
         style="stop-color:#2d3d53;stop-opacity:1;"
         offset="0"
         id="stop12" />
      <stop
         style="stop-color:#3e5574;stop-opacity:1;"
         offset="1"
         id="stop13" />
    </linearGradient>
    <linearGradient
       id="linearGradient7"
       inkscape:collect="always">
      <stop
         style="stop-color:#384850;stop-opacity:1;"
         offset="0"
         id="stop8" />
      <stop
         style="stop-color:#384850;stop-opacity:1;"
         offset="0.59162253"
         id="stop10" />
      <stop
         style="stop-color:#eff2f6;stop-opacity:1;"
         offset="0.92173076"
         id="stop11" />
      <stop
         style="stop-color:#eff2f6;stop-opacity:1;"
         offset="1"
         id="stop9" />
    </linearGradient>
    <linearGradient
       id="linearGradient1"
       inkscape:collect="always">
      <stop
         style="stop-color:#566c80;stop-opacity:1;"
         offset="0"
         id="stop5" />
      <stop
         style="stop-color:#566c80;stop-opacity:1;"
         offset="0.28848785"
         id="stop7" />
      <stop
         style="stop-color:#495361;stop-opacity:1;"
         offset="1"
         id="stop6" />
    </linearGradient>
    <linearGradient
       id="c-3"
       gradientUnits="userSpaceOnUse"
       x1="24.072048"
       x2="23.959682"
       y1="0.75082099"
       y2="46.056854">
      <stop
         offset="0"
         stop-color="#fff"
         id="stop3" />
      <stop
         offset="1"
         stop-color="#d9d9d9"
         id="stop4" />
    </linearGradient>
    <linearGradient
       id="b-6"
       gradientUnits="userSpaceOnUse"
       x1="29.203026"
       x2="34.121048"
       xlink:href="#a-7"
       y1="24.827356"
       y2="29.224836" />
    <linearGradient
       id="a-7">
      <stop
         offset="0"
         id="stop1" />
      <stop
         offset="1"
         stop-opacity="0"
         id="stop2" />
    </linearGradient>
    <linearGradient
       id="d"
       gradientUnits="userSpaceOnUse"
       x1="15.948756"
       x2="25.031786"
       xlink:href="#a-7"
       y1="23.618279"
       y2="33.69899" />
    <linearGradient
       id="e"
       gradientUnits="userSpaceOnUse"
       x1="21.990562"
       x2="29.320522"
       xlink:href="#a-7"
       y1="33.780373"
       y2="41.931858" />
    <linearGradient
       id="paint154_linear_890_11"
       x1="778"
       y1="812.29199"
       x2="788"
       y2="812.29199"
       gradientUnits="userSpaceOnUse"
       gradientTransform="translate(-751,-696)">
      <stop
         stop-color="#EFF2F6"
         id="stop1050" />
      <stop
         offset="0.600785"
         stop-color="#B7C6CD"
         id="stop1051" />
    </linearGradient>
    <linearGradient
       id="paint155_linear_890_11"
       x1="783"
       y1="813"
       x2="783"
       y2="817"
       gradientUnits="userSpaceOnUse"
       gradientTransform="translate(-751,-696)">
      <stop
         stop-color="#EFF2F6"
         id="stop1052" />
      <stop
         offset="0.734138"
         stop-color="#B7C6CD"
         id="stop1053" />
    </linearGradient>
    <radialGradient
       id="paint156_radial_890_11"
       cx="0"
       cy="0"
       r="1"
       gradientUnits="userSpaceOnUse"
       gradientTransform="matrix(27.999986,27.999976,-27.999986,27.999976,32.302392,33.999998)">
      <stop
         offset="0.60067803"
         stop-color="#B7C6CD"
         id="stop1054"
         style="stop-color:#384850;stop-opacity:1;" />
      <stop
         offset="0.876735"
         stop-color="#EFF2F6"
         id="stop1055" />
    </radialGradient>
    <linearGradient
       id="paint157_linear_890_11"
       x1="796.84485"
       y1="799.43359"
       x2="768.90088"
       y2="770.81476"
       gradientUnits="userSpaceOnUse"
       gradientTransform="matrix(1.1666666,0,0,1.1666668,-881.19764,-881.8333)">
      <stop
         offset="0.00000057"
         stop-color="#2E2E41"
         id="stop1056"
         style="stop-color:#495361;stop-opacity:1;" />
      <stop
         offset="0.711139"
         stop-color="#566C80"
         id="stop1057" />
    </linearGradient>
    <linearGradient
       id="paint158_linear_890_11"
       x1="792"
       y1="794"
       x2="774"
       y2="776"
       gradientUnits="userSpaceOnUse"
       gradientTransform="translate(-751,-696)">
      <stop
         offset="0.304478"
         stop-color="#2E2E41"
         id="stop1058" />
      <stop
         offset="1"
         stop-color="#566C80"
         id="stop1059" />
    </linearGradient>
    <linearGradient
       id="paint159_linear_890_11"
       x1="788"
       y1="790"
       x2="778"
       y2="780"
       gradientUnits="userSpaceOnUse"
       gradientTransform="translate(-751,-696)">
      <stop
         offset="0.391394"
         stop-color="#5200FF"
         id="stop1060" />
      <stop
         offset="1"
         stop-color="#0085FF"
         id="stop1061" />
    </linearGradient>
    <linearGradient
       id="paint160_linear_890_11"
       x1="784"
       y1="798"
       x2="782"
       y2="796"
       gradientUnits="userSpaceOnUse"
       gradientTransform="translate(-751,-696)">
      <stop
         stop-color="#FF7E07"
         id="stop1062" />
      <stop
         offset="1"
         stop-color="#FFE607"
         id="stop1063" />
    </linearGradient>
    <linearGradient
       inkscape:collect="always"
       xlink:href="#linearGradient1"
       id="linearGradient6"
       x1="17.408081"
       y1="16.037786"
       x2="49.155514"
       y2="50.137749"
       gradientUnits="userSpaceOnUse"
       gradientTransform="translate(-1.3023872,-3)" />
    <radialGradient
       inkscape:collect="always"
       xlink:href="#linearGradient7"
       id="radialGradient9"
       cx="32.302387"
       cy="34"
       fx="32.302387"
       fy="34"
       r="28"
       gradientUnits="userSpaceOnUse"
       gradientTransform="matrix(0.99999999,1,-1,0.99999999,32.697613,-35.302387)" />
    <linearGradient
       id="1">
      <stop
         stop-color="#f9f9f9"
         id="stop2-8" />
      <stop
         offset="1"
         stop-color="#afafaf"
         id="stop4-4" />
    </linearGradient>
    <linearGradient
       inkscape:collect="always"
       xlink:href="#linearGradient2"
       id="linearGradient13"
       x1="28.716883"
       y1="54.333549"
       x2="29.208254"
       y2="7.7354412"
       gradientUnits="userSpaceOnUse" />
  </defs>
  <sodipodi:namedview
     id="namedview7"
     pagecolor="#ffffff"
     bordercolor="#000000"
     borderopacity="0.25"
     inkscape:showpageshadow="2"
     inkscape:pageopacity="0.0"
     inkscape:pagecheckerboard="0"
     inkscape:deskcolor="#d1d1d1"
     inkscape:zoom="5.890625"
     inkscape:cx="67.819629"
     inkscape:cy="56.785146"
     inkscape:window-width="1920"
     inkscape:window-height="998"
     inkscape:window-x="0"
     inkscape:window-y="0"
     inkscape:window-maximized="1"
     inkscape:current-layer="svg7" />
  <path
     d="M 59,31 C 59,46.46415 46.464172,59 30.999998,59 15.535835,59 3.0000001,46.46415 3.0000001,31 3.0000001,15.535835 15.535835,3 30.999998,3 46.464172,3 59,15.535835 59,31 Z"
     id="path154"
     style="fill:url(#radialGradient9)" />
  <path
     d="m 54.333333,31 c 0,12.88701 -10.446332,23.33332 -23.333335,23.33332 C 18.112999,54.33332 7.6666671,43.88701 7.6666671,31 7.6666671,18.113006 18.112999,7.666668 30.999998,7.666668 43.887001,7.666668 54.333333,18.113006 54.333333,31 Z"
     id="path155"
     style="fill:url(#linearGradient6)" />
  <circle
     cx="30.999985"
     cy="31.000048"
     r="23.3335"
     fill="#ae1b29"
     style="stroke-width:0.864187;paint-order:stroke fill markers;fill:url(#linearGradient13)"
     id="circle2-7-4" />
  <g
     id="g1"
     transform="translate(-96.811695,-7.50012)">
    <path
       style="opacity:0.2"
       d="m 125.58165,19.0008 c -0.982,0 -1.77,1.0958 -1.77,2.457 v 2.0624 a 16,16 0 0 0 -4.114,1.7106 l -1.464,-1.4644 c -0.962,-0.9626 -2.294,-1.1778 -2.9884,-0.4844 l -3.1524,3.1528 c -0.69354,0.69354 -0.47822,2.0256 0.48438,2.9882 l 1.46484,1.46484 a 16,16 0 0 0 -1.6992,4.114 h -2.0742 c -1.36132,0 -2.457,0.78872 -2.457,1.76954 v 4.461 c 0,0.98 1.0958,1.768 2.457,1.768 h 2.0624 a 16,16 0 0 0 1.71094,4.1132 l -1.46484,1.46484 c -0.9626,0.9626 -1.17792,2.2948 -0.48438,2.9882 l 3.1524,3.1524 c 0.69354,0.69354 2.0256,0.47822 2.9882,-0.48438 l 1.46484,-1.46484 a 16,16 0 0 0 4.114,1.698 v 2.0742 c 0,1.362 0.788,2.458 1.77,2.458 h 4.461 c 0.98,0 1.768,-1.096 1.768,-2.458 v -2.0624 a 16,16 0 0 0 4.1132,-1.71094 l 1.46484,1.46484 c 0.9626,0.9626 2.2948,1.17792 2.9882,0.48438 l 3.1524,-3.1524 c 0.69354,-0.69354 0.47822,-2.0256 -0.48438,-2.9882 l -1.464,-1.464 a 16,16 0 0 0 1.698,-4.114 h 2.0742 c 1.362,0 2.458,-0.788 2.458,-1.77 v -4.461 c 0,-0.98 -1.096,-1.768 -2.458,-1.768 h -2.0624 a 16,16 0 0 0 -1.71094,-4.1132 l 1.46484,-1.46484 c 0.9626,-0.9626 1.17792,-2.2948 0.48438,-2.9882 l -3.152,-3.1528 c -0.694,-0.6934 -2.026,-0.4782 -2.988,0.4844 l -1.464,1.4644 a 16,16 0 0 0 -4.114,-1.6988 v -2.0742 c 0,-1.3612 -0.788,-2.457 -1.77,-2.457 h -4.461 z m 2.23,12 a 8,8 0 0 1 8,8 8,8 0 0 1 -8,8 8,8 0 0 1 -8,-8 8,8 0 0 1 8,-8 z"
       id="path3" />
    <path
       style="fill:#00cc52;fill-opacity:1"
       d="m 125.58165,18.0012 c -0.982,0 -1.77,1.0958 -1.77,2.457 v 2.0624 a 16,16 0 0 0 -4.114,1.711 l -1.464,-1.4648 c -0.962,-0.9626 -2.294,-1.1778 -2.9884,-0.4844 l -3.1524,3.1524 c -0.69354,0.69354 -0.47822,2.0256 0.48438,2.9882 l 1.46484,1.46484 a 16,16 0 0 0 -1.6992,4.114 h -2.0742 c -1.36132,0 -2.457,0.78872 -2.457,1.76954 v 4.461 c 0,0.98 1.0958,1.768 2.457,1.768 h 2.0624 a 16,16 0 0 0 1.71094,4.1132 l -1.46484,1.46484 c -0.9626,0.9626 -1.17792,2.2948 -0.48438,2.9882 l 3.1524,3.1524 c 0.69354,0.69354 2.0256,0.47822 2.9882,-0.48438 l 1.46484,-1.46484 a 16,16 0 0 0 4.114,1.698 v 2.0742 c 0,1.362 0.788,2.458 1.77,2.458 h 4.461 c 0.98,0 1.768,-1.096 1.768,-2.458 v -2.0624 a 16,16 0 0 0 4.1132,-1.71094 l 1.46484,1.46484 c 0.9626,0.9626 2.2948,1.17792 2.9882,0.48438 l 3.1524,-3.1524 c 0.69354,-0.69354 0.47822,-2.0256 -0.48438,-2.9882 l -1.464,-1.464 a 16,16 0 0 0 1.698,-4.114 h 2.0742 c 1.362,0 2.458,-0.788 2.458,-1.77 v -4.461 c 0,-0.98 -1.096,-1.768 -2.458,-1.768 h -2.0624 a 16,16 0 0 0 -1.71094,-4.1132 l 1.46484,-1.46484 c 0.9626,-0.9626 1.17792,-2.2948 0.48438,-2.9882 l -3.152,-3.1526 c -0.694,-0.6934 -2.026,-0.4782 -2.988,0.4844 l -1.464,1.4648 a 16,16 0 0 0 -4.114,-1.6992 v -2.0742 c 0,-1.3612 -0.788,-2.457 -1.77,-2.457 h -4.461 z m 2.23,12 a 8,8 0 0 1 8,8 8,8 0 0 1 -8,8 8,8 0 0 1 -8,-8 8,8 0 0 1 8,-8 z"
       id="path4" />
  </g>
</svg>
