<?xml version="1.0" encoding="UTF-8" standalone="no"?>
<svg
   width="62"
   viewBox="0 0 62 61"
   height="61"
   version="1.1"
   id="svg25"
   sodipodi:docname="audio-x-flac.svg"
   inkscape:version="1.4.1 (unknown)"
   xmlns:inkscape="http://www.inkscape.org/namespaces/inkscape"
   xmlns:sodipodi="http://sodipodi.sourceforge.net/DTD/sodipodi-0.dtd"
   xmlns:xlink="http://www.w3.org/1999/xlink"
   xmlns="http://www.w3.org/2000/svg"
   xmlns:svg="http://www.w3.org/2000/svg"
   xmlns:rdf="http://www.w3.org/1999/02/22-rdf-syntax-ns#"
   xmlns:cc="http://creativecommons.org/ns#"
   xmlns:dc="http://purl.org/dc/elements/1.1/">
  <metadata
     id="metadata29">
    <rdf:RDF>
      <cc:Work
         rdf:about="">
        <dc:format>image/svg+xml</dc:format>
        <dc:type
           rdf:resource="http://purl.org/dc/dcmitype/StillImage" />
      </cc:Work>
    </rdf:RDF>
  </metadata>
  <sodipodi:namedview
     pagecolor="#ffffff"
     bordercolor="#666666"
     borderopacity="1"
     objecttolerance="10"
     gridtolerance="10"
     guidetolerance="10"
     inkscape:pageopacity="0"
     inkscape:pageshadow="2"
     inkscape:window-width="1920"
     inkscape:window-height="998"
     id="namedview27"
     showgrid="false"
     inkscape:zoom="7.890625"
     inkscape:cx="32"
     inkscape:cy="32"
     inkscape:window-x="0"
     inkscape:window-y="0"
     inkscape:window-maximized="1"
     inkscape:current-layer="svg25"
     inkscape:showpageshadow="2"
     inkscape:pagecheckerboard="0"
     inkscape:deskcolor="#d1d1d1" />
  <defs
     id="defs7">
    <linearGradient
       id="a"
       y1="392.35999"
       y2="336.35999"
       gradientUnits="userSpaceOnUse"
       x2="0"
       gradientTransform="translate(-6,-332.36)">
      <stop
         stop-color="#ffffff"
         stop-opacity="0"
         id="stop2" />
      <stop
         offset="1"
         stop-color="#ffffff"
         stop-opacity=".2"
         id="stop4" />
    </linearGradient>
    <linearGradient
       inkscape:collect="always"
       xlink:href="#a-3"
       id="linearGradient985"
       gradientUnits="userSpaceOnUse"
       gradientTransform="rotate(-90,-133.90762,203.40762)"
       y1="392.35999"
       x2="0"
       y2="336.35999" />
    <linearGradient
       id="a-3"
       y1="392.35999"
       y2="336.35999"
       gradientUnits="userSpaceOnUse"
       x2="0"
       gradientTransform="translate(-66,-332.36)">
      <stop
         stop-color="#ffffff"
         stop-opacity="0"
         id="stop2-6" />
      <stop
         offset="1"
         stop-color="#ffffff"
         stop-opacity=".2"
         id="stop4-7" />
    </linearGradient>
  </defs>
  <circle
     style="color:#000000;color-interpolation:sRGB;color-interpolation-filters:linearRGB;fill:#ebedab;fill-opacity:1;color-rendering:auto;image-rendering:auto;shape-rendering:auto;text-rendering:auto"
     id="circle9-5"
     r="24"
     cy="31.044756"
     cx="-26.5"
     transform="rotate(-90)" />
  <path
     style="fill:#b1b527;fill-opacity:1;fill-rule:nonzero;stroke:none;stroke-width:2;stroke-linejoin:miter;stroke-miterlimit:4;stroke-dasharray:none;stroke-opacity:1"
     d="m 6.044757,51.7168 c 0,3.75794 3.025261,6.7832 6.783202,6.7832 h 36.433595 c 3.757941,0 6.783203,-3.02526 6.783203,-6.7832 V 37.95898 27.32812 8.5 h -20 v 4.0957 c 0,2.717 -2.187298,4.9043 -4.904297,4.9043 h -0.191407 c -2.717,0 -4.902344,-2.1873 -4.902344,-4.9043 V 8.5 H 6.04671 l -0.002,17.4375 v 10.78906 z"
     id="path957"
     inkscape:connector-curvature="0" />
  <path
     d="m 26.040257,26.504499 v 16.05 c -0.635,-0.647999 -1.517,-1.052999 -2.5,-1.052999 -1.939,0 -3.5,1.560999 -3.5,3.5 0,1.939 1.561,3.5 3.5,3.5 1.905,0 3.437,-1.509001 3.49,-3.4 h 0.01 v -13.6 h 14 v 8.049999 c -0.635,-0.647999 -1.517,-1.052999 -2.5,-1.052999 -1.939,0 -3.5,1.561 -3.5,3.5 0,1.939 1.561,3.5 3.5,3.5 1.939,0 3.5,-1.561 3.5,-3.5 v -15.5 h -15 z m 1,2 h 14 v 2 h -14 z"
     id="path17-3"
     inkscape:connector-curvature="0"
     style="color:#000000;opacity:0.75;color-interpolation:sRGB;color-interpolation-filters:linearRGB;fill:#ffffff;color-rendering:auto;image-rendering:auto;shape-rendering:auto;text-rendering:auto" />
  <path
     style="color:#000000;color-interpolation:sRGB;color-interpolation-filters:linearRGB;fill:url(#linearGradient985);color-rendering:auto;image-rendering:auto;shape-rendering:auto;text-rendering:auto"
     d="m 6.044757,51.72656 c 0.0014,0.93568 0.188225,1.82569 0.529296,2.63477 0.342337,0.81208 0.838144,1.54322 1.451172,2.15625 0.61303,0.61303 1.344171,1.10883 2.15625,1.45117 C 10.993554,58.31109 11.886521,58.5 12.826006,58.5 H 49.2596 c 0.939485,0 1.832453,-0.18891 2.644532,-0.53125 0.812078,-0.34234 1.543221,-0.83814 2.15625,-1.45117 0.613028,-0.61303 1.108835,-1.34417 1.451172,-2.15625 0.342336,-0.81208 0.53125,-1.70505 0.53125,-2.64453 V 37.95898 27.32812 8.5 h -9.15625 a 24,24 0 0 0 -15.841797,-6 24,24 0 0 0 -15.830079,6 H 6.044757 Z"
     id="path979"
     inkscape:connector-curvature="0" />
  <path
     style="opacity:0.25;fill:#000000;fill-opacity:1;fill-rule:nonzero;stroke:none;stroke-width:2;stroke-linejoin:miter;stroke-miterlimit:4;stroke-dasharray:none;stroke-opacity:1"
     d="m 54.902179,8.5 v 18.82812 10.63086 13.757817 c 0,0.939485 -0.188914,1.832452 -0.53125,2.644531 -0.342337,0.812079 -0.838144,1.543221 -1.451172,2.15625 -0.61303,0.613029 -1.344172,1.108836 -2.15625,1.451172 C 49.951427,58.311086 49.05846,58.5 48.118975,58.5 h 1.142579 c 3.757941,0 6.783203,-3.025263 6.783203,-6.783203 V 37.95898 27.32812 8.5 Z"
     id="path1034"
     inkscape:connector-curvature="0" />
  <path
     style="opacity:0.5;fill:#ffffff;fill-opacity:1;fill-rule:nonzero;stroke:none;stroke-width:2;stroke-linejoin:miter;stroke-miterlimit:4;stroke-dasharray:none;stroke-opacity:1"
     d="m 5.955243,51.716797 c 0,3.75794 3.025262,6.783203 6.783202,6.783203 h 1.142578 c -0.939485,0 -1.832452,-0.188914 -2.644531,-0.53125 C 10.424413,57.626414 9.693271,57.130607 9.080242,56.517578 8.467213,55.904549 7.971407,55.173407 7.629071,54.361328 7.286735,53.54925 7.097821,52.656282 7.097821,51.716797 V 36.72656 25.9375 L 7.099821,8.5 H 5.957243 l -0.002,17.4375 v 10.78906 z"
     id="path957-3"
     inkscape:connector-curvature="0" />
</svg>
