<?xml version="1.0" encoding="UTF-8" standalone="no"?>
<svg
   width="62"
   height="62"
   version="1"
   id="svg7"
   sodipodi:docname="xopt.svg"
   inkscape:version="1.4.1 (unknown)"
   xmlns:inkscape="http://www.inkscape.org/namespaces/inkscape"
   xmlns:sodipodi="http://sodipodi.sourceforge.net/DTD/sodipodi-0.dtd"
   xmlns:xlink="http://www.w3.org/1999/xlink"
   xmlns="http://www.w3.org/2000/svg"
   xmlns:svg="http://www.w3.org/2000/svg">
  <defs
     id="defs7">
    <linearGradient
       id="linearGradient8"
       inkscape:collect="always">
      <stop
         style="stop-color:#dbe2e3;stop-opacity:1"
         offset="0"
         id="stop8" />
      <stop
         style="stop-color:#374548;stop-opacity:1"
         offset="1"
         id="stop9" />
    </linearGradient>
    <linearGradient
       id="linearGradient6"
       inkscape:collect="always">
      <stop
         style="stop-color:#e6e6e6;stop-opacity:1"
         offset="0"
         id="stop6" />
      <stop
         style="stop-color:#b3b3b3;stop-opacity:1"
         offset="1"
         id="stop7" />
    </linearGradient>
    <linearGradient
       id="c-3"
       gradientUnits="userSpaceOnUse"
       x1="24.072048"
       x2="23.959682"
       y1="0.75082099"
       y2="46.056854">
      <stop
         offset="0"
         stop-color="#fff"
         id="stop3" />
      <stop
         offset="1"
         stop-color="#d9d9d9"
         id="stop4" />
    </linearGradient>
    <linearGradient
       id="b-6"
       gradientUnits="userSpaceOnUse"
       x1="29.203026"
       x2="34.121048"
       xlink:href="#a-7"
       y1="24.827356"
       y2="29.224836" />
    <linearGradient
       id="a-7">
      <stop
         offset="0"
         id="stop1" />
      <stop
         offset="1"
         stop-opacity="0"
         id="stop2" />
    </linearGradient>
    <linearGradient
       id="d"
       gradientUnits="userSpaceOnUse"
       x1="15.948756"
       x2="25.031786"
       xlink:href="#a-7"
       y1="23.618279"
       y2="33.69899" />
    <linearGradient
       id="e"
       gradientUnits="userSpaceOnUse"
       x1="21.990562"
       x2="29.320522"
       xlink:href="#a-7"
       y1="33.780373"
       y2="41.931858" />
    <linearGradient
       id="paint154_linear_890_11"
       x1="778"
       y1="812.29199"
       x2="788"
       y2="812.29199"
       gradientUnits="userSpaceOnUse"
       gradientTransform="translate(-751,-696)">
      <stop
         stop-color="#EFF2F6"
         id="stop1050" />
      <stop
         offset="0.600785"
         stop-color="#B7C6CD"
         id="stop1051" />
    </linearGradient>
    <linearGradient
       id="paint155_linear_890_11"
       x1="783"
       y1="813"
       x2="783"
       y2="817"
       gradientUnits="userSpaceOnUse"
       gradientTransform="translate(-751,-696)">
      <stop
         stop-color="#EFF2F6"
         id="stop1052" />
      <stop
         offset="0.734138"
         stop-color="#B7C6CD"
         id="stop1053" />
    </linearGradient>
    <radialGradient
       id="paint156_radial_890_11"
       cx="0"
       cy="0"
       r="1"
       gradientUnits="userSpaceOnUse"
       gradientTransform="matrix(27.999986,27.999976,-27.999986,27.999976,32.302392,33.999998)">
      <stop
         offset="0.60067803"
         stop-color="#B7C6CD"
         id="stop1054"
         style="stop-color:#384850;stop-opacity:1;" />
      <stop
         offset="0.876735"
         stop-color="#EFF2F6"
         id="stop1055" />
    </radialGradient>
    <linearGradient
       id="paint157_linear_890_11"
       x1="796.84485"
       y1="799.43359"
       x2="768.90088"
       y2="770.81476"
       gradientUnits="userSpaceOnUse"
       gradientTransform="matrix(1.1666666,0,0,1.1666668,-881.19764,-881.8333)">
      <stop
         offset="0.00000057"
         stop-color="#2E2E41"
         id="stop1056"
         style="stop-color:#424b58;stop-opacity:1;" />
      <stop
         offset="0.71113902"
         stop-color="#566C80"
         id="stop1057"
         style="stop-color:#303c47;stop-opacity:1;" />
    </linearGradient>
    <linearGradient
       id="paint158_linear_890_11"
       x1="792"
       y1="794"
       x2="774"
       y2="776"
       gradientUnits="userSpaceOnUse"
       gradientTransform="translate(-751,-696)">
      <stop
         offset="0.304478"
         stop-color="#2E2E41"
         id="stop1058" />
      <stop
         offset="1"
         stop-color="#566C80"
         id="stop1059" />
    </linearGradient>
    <linearGradient
       id="paint159_linear_890_11"
       x1="788"
       y1="790"
       x2="778"
       y2="780"
       gradientUnits="userSpaceOnUse"
       gradientTransform="translate(-751,-696)">
      <stop
         offset="0.391394"
         stop-color="#5200FF"
         id="stop1060" />
      <stop
         offset="1"
         stop-color="#0085FF"
         id="stop1061" />
    </linearGradient>
    <linearGradient
       id="paint160_linear_890_11"
       x1="784"
       y1="798"
       x2="782"
       y2="796"
       gradientUnits="userSpaceOnUse"
       gradientTransform="translate(-751,-696)">
      <stop
         stop-color="#FF7E07"
         id="stop1062" />
      <stop
         offset="1"
         stop-color="#FFE607"
         id="stop1063" />
    </linearGradient>
    <linearGradient
       id="c-3-6"
       gradientUnits="userSpaceOnUse"
       x1="24.072048"
       x2="23.959682"
       y1="0.75082099"
       y2="46.056854"
       gradientTransform="matrix(0.91471346,0,0,0.90068147,9.0468769,9.3836444)">
      <stop
         offset="0"
         stop-color="#fff"
         id="stop3-2" />
      <stop
         offset="1"
         stop-color="#d9d9d9"
         id="stop4-9" />
    </linearGradient>
    <linearGradient
       id="b-6-1"
       gradientUnits="userSpaceOnUse"
       x1="29.203026"
       x2="34.121048"
       xlink:href="#a-7"
       y1="24.827356"
       y2="29.224836"
       gradientTransform="matrix(1.1104534,0,0,1.0934187,4.3491158,4.7861435)" />
    <linearGradient
       id="d-0"
       gradientUnits="userSpaceOnUse"
       x1="15.948756"
       x2="25.031786"
       xlink:href="#a-7"
       y1="23.618279"
       y2="33.69899"
       gradientTransform="matrix(1.1104534,0,0,1.0934187,4.3491158,4.7861435)" />
    <linearGradient
       id="e-9"
       gradientUnits="userSpaceOnUse"
       x1="21.990562"
       x2="29.320522"
       xlink:href="#a-7"
       y1="33.780373"
       y2="41.931858"
       gradientTransform="matrix(1.1104534,0,0,1.0934187,4.3491158,4.7861435)" />
    <linearGradient
       id="paint539_linear_890_11"
       x1="1007"
       y1="317"
       x2="951.659"
       y2="269.565"
       gradientUnits="userSpaceOnUse"
       gradientTransform="translate(-952,-258)">
      <stop
         offset="0.223912"
         stop-color="#5200FF"
         id="stop1821"
         style="stop-color:#2a7fff;stop-opacity:1" />
      <stop
         offset="0.902995"
         stop-color="#0085FF"
         id="stop1822"
         style="stop-color:#8d5fd3;stop-opacity:1" />
    </linearGradient>
    <linearGradient
       id="paint540_linear_890_11"
       x1="974.5"
       y1="274"
       x2="974.5"
       y2="280"
       gradientUnits="userSpaceOnUse"
       gradientTransform="translate(-952,-258)">
      <stop
         offset="0.189495"
         stop-color="#EFF2F6"
         id="stop1823" />
      <stop
         offset="0.850463"
         stop-color="#B7C6CD"
         id="stop1824" />
    </linearGradient>
    <linearGradient
       id="paint541_linear_890_11"
       x1="983"
       y1="282"
       x2="983"
       y2="288"
       gradientUnits="userSpaceOnUse"
       gradientTransform="translate(-952,-258)">
      <stop
         offset="0.189495"
         stop-color="#EFF2F6"
         id="stop1825" />
      <stop
         offset="0.850463"
         stop-color="#B7C6CD"
         id="stop1826" />
    </linearGradient>
    <linearGradient
       id="paint542_linear_890_11"
       x1="983"
       y1="290"
       x2="983"
       y2="296"
       gradientUnits="userSpaceOnUse"
       gradientTransform="translate(-952,-258)">
      <stop
         offset="0.189495"
         stop-color="#EFF2F6"
         id="stop1827" />
      <stop
         offset="0.850463"
         stop-color="#B7C6CD"
         id="stop1828" />
    </linearGradient>
    <linearGradient
       id="paint543_linear_890_11"
       x1="978.5"
       y1="298"
       x2="978.5"
       y2="304"
       gradientUnits="userSpaceOnUse"
       gradientTransform="translate(-952,-258)">
      <stop
         offset="0.189495"
         stop-color="#EFF2F6"
         id="stop1829" />
      <stop
         offset="0.850463"
         stop-color="#B7C6CD"
         id="stop1830" />
    </linearGradient>
    <linearGradient
       id="paint544_linear_890_11"
       x1="993"
       y1="261"
       x2="1007"
       y2="275"
       gradientUnits="userSpaceOnUse"
       gradientTransform="translate(-952,-258)">
      <stop
         stop-color="#EFF2F6"
         id="stop1831" />
      <stop
         offset="1"
         stop-color="#B7C6CD"
         id="stop1832" />
    </linearGradient>
    <linearGradient
       id="paint545_linear_890_11"
       x1="1000.58"
       y1="267.41699"
       x2="994.75"
       y2="273.25"
       gradientUnits="userSpaceOnUse"
       gradientTransform="translate(-952,-258)">
      <stop
         stop-color="#5200FF"
         id="stop1833" />
      <stop
         offset="1"
         stop-color="#0085FF"
         id="stop1834"
         style="stop-color:#b380ff;stop-opacity:1" />
    </linearGradient>
    <linearGradient
       id="paint704_linear_890_11"
       x1="883"
       y1="67"
       x2="883"
       y2="69"
       gradientUnits="userSpaceOnUse">
      <stop
         stop-color="white"
         id="stop2151" />
      <stop
         offset="0.653031"
         stop-color="#EAEFEF"
         id="stop2152" />
    </linearGradient>
    <linearGradient
       id="paint705_linear_890_11"
       x1="883"
       y1="81"
       x2="883"
       y2="83"
       gradientUnits="userSpaceOnUse">
      <stop
         stop-color="white"
         id="stop2153" />
      <stop
         offset="0.653031"
         stop-color="#EAEFEF"
         id="stop2154" />
    </linearGradient>
    <linearGradient
       id="paint706_linear_890_11"
       x1="883"
       y1="95"
       x2="883"
       y2="97"
       gradientUnits="userSpaceOnUse">
      <stop
         stop-color="white"
         id="stop2155" />
      <stop
         offset="0.653031"
         stop-color="#EAEFEF"
         id="stop2156" />
    </linearGradient>
    <linearGradient
       id="paint707_linear_890_11"
       x1="883"
       y1="109"
       x2="883"
       y2="111"
       gradientUnits="userSpaceOnUse">
      <stop
         stop-color="white"
         id="stop2157" />
      <stop
         offset="0.653031"
         stop-color="#EAEFEF"
         id="stop2158" />
    </linearGradient>
    <linearGradient
       id="paint708_linear_890_11"
       x1="888"
       y1="92"
       x2="878"
       y2="92"
       gradientUnits="userSpaceOnUse">
      <stop
         offset="0.248095"
         stop-color="#FF7E07"
         id="stop2159" />
      <stop
         offset="0.926583"
         stop-color="#FFE607"
         id="stop2160" />
    </linearGradient>
    <linearGradient
       id="paint709_linear_890_11"
       x1="864"
       y1="101"
       x2="874"
       y2="101"
       gradientUnits="userSpaceOnUse">
      <stop
         offset="0.280671"
         stop-color="#F15700"
         id="stop2161" />
      <stop
         offset="0.850616"
         stop-color="#FF0000"
         id="stop2162" />
    </linearGradient>
    <linearGradient
       id="paint710_linear_890_11"
       x1="902"
       y1="88"
       x2="892"
       y2="88"
       gradientUnits="userSpaceOnUse">
      <stop
         offset="0.178038"
         stop-color="#089953"
         id="stop2163" />
      <stop
         offset="0.89422"
         stop-color="#16D96F"
         id="stop2164" />
    </linearGradient>
    <linearGradient
       inkscape:collect="always"
       xlink:href="#linearGradient6"
       id="linearGradient7"
       x1="13.204329"
       y1="7.1121702"
       x2="55"
       y2="59"
       gradientUnits="userSpaceOnUse" />
    <linearGradient
       inkscape:collect="always"
       xlink:href="#linearGradient8"
       id="linearGradient9"
       x1="41"
       y1="17"
       x2="48"
       y2="10"
       gradientUnits="userSpaceOnUse" />
  </defs>
  <sodipodi:namedview
     id="namedview7"
     pagecolor="#ffffff"
     bordercolor="#000000"
     borderopacity="0.25"
     inkscape:showpageshadow="2"
     inkscape:pageopacity="0.0"
     inkscape:pagecheckerboard="0"
     inkscape:deskcolor="#d1d1d1"
     inkscape:zoom="8.3306018"
     inkscape:cx="35.231548"
     inkscape:cy="42.734008"
     inkscape:window-width="1920"
     inkscape:window-height="998"
     inkscape:window-x="0"
     inkscape:window-y="0"
     inkscape:window-maximized="1"
     inkscape:current-layer="svg7" />
  <path
     d="M 7,9 C 7,5.686 9.686,3 13,3 h 34 c 4.42,0 8,3.582 8,8 v 42 c 0,3.314 -2.69,6 -6,6 H 13 C 9.686,59 7,56.314 7,53 Z"
     id="path526"
     style="fill:url(#linearGradient7)" />
  <path
     d="m 41,3 h 8 c 3.31,0 6,2.686 6,6 v 8 h -6 c -4.418,0 -8,-3.582 -8,-8 z"
     id="path531"
     style="fill:url(#paint544_linear_890_11)" />
  <path
     d="M 41,11 V 3 l 14,14 h -8 c -3.314,0 -6,-2.686 -6,-6 z"
     id="path532"
     style="fill:url(#linearGradient9)" />
  <g
     id="g1"
     transform="translate(-5.1541217)">
    <path
       style="opacity:0.1;stroke-width:1.0323"
       d="m 38.949872,34.962346 c 0.10062,0.11578 0.367717,0.372782 0.801305,0.77103 6.086296,6.17365 9.012318,8.926916 8.776892,9.666718 -0.169209,0.544187 -0.656926,1.005632 -1.46316,1.384342 -0.804911,0.35668 -1.530067,0.518414 -2.175459,0.485206 -0.51099,-0.02626 -2.937777,-1.92454 -7.279193,-7.101698 -0.876005,-1.084467 -1.390512,-1.696994 -1.543515,-1.837572 -0.636091,0.674984 -1.586903,2.063572 -2.852447,4.165758 -1.629039,3.35414 -3.772514,6.449246 -5.000165,9.993245 -0.374972,1.24128 -1.328896,1.822497 -2.86177,1.743648 -0.806784,-0.04152 -1.302476,-0.310271 -1.487066,-0.806301 C 23.68069,52.930687 23.75618,52.160537 24.09176,51.116259 24.736002,49.026336 27.834312,43.955441 33.386699,35.903571 33.355099,35.548127 32.559555,34.257686 31,32.032258 c -1.559582,-2.225391 -2.797742,-3.911111 -3.714502,-4.776557 -0.993286,-0.93568 -1.406726,-1.653586 -1.24032,-2.153706 0.374954,-1.241249 1.55746,-1.81071 3.547532,-1.708368 0.968133,0.04988 2.693651,2.136581 5.176575,5.979644 1.060565,1.580534 1.755249,2.545119 2.08405,2.893734 0.572542,-0.523409 1.388712,-1.48767 2.448502,-2.892788 1.061144,-1.427118 1.794993,-2.583596 2.201544,-3.469436 0.402343,-0.819654 1.037026,-1.472584 1.904044,-1.958778 0.866977,-0.486136 1.690418,-0.709162 2.470332,-0.669076 1.210142,0.06225 1.648135,0.60452 1.313982,1.626725 -0.374989,1.241311 -2.556904,3.970888 -6.545758,8.188733 -1.040361,1.096503 -1.605724,1.719823 -1.696111,1.869961"
       id="path5" />
    <path
       style="fill:#ff6600;stroke-width:1.0323;fill-opacity:1"
       d="m 38.949872,33.930087 c 0.10062,0.115779 0.367717,0.372782 0.801305,0.771031 6.086296,6.173648 9.012318,8.926914 8.776892,9.666716 -0.169209,0.54419 -0.656926,1.005634 -1.46316,1.384342 -0.804911,0.356682 -1.530067,0.518414 -2.175459,0.485213 -0.51099,-0.02626 -2.937777,-1.924547 -7.279193,-7.101703 -0.876005,-1.084468 -1.390512,-1.696989 -1.543515,-1.837573 -0.636091,0.67499 -1.586903,2.063571 -2.852447,4.165757 -1.629039,3.35414 -3.772514,6.449246 -5.000165,9.993246 -0.374972,1.24128 -1.328896,1.822503 -2.86177,1.743647 -0.806784,-0.04152 -1.302476,-0.310264 -1.487066,-0.8063 C 23.68069,51.898428 23.75618,51.128283 24.09176,50.084 24.736002,47.994076 27.834312,42.923189 33.386699,34.871319 33.355099,34.515868 32.559555,33.225427 31,31 c -1.559582,-2.225393 -2.797742,-3.911105 -3.714502,-4.776559 -0.993286,-0.93568 -1.406726,-1.653577 -1.24032,-2.153696 0.374954,-1.241258 1.55746,-1.81072 3.547532,-1.708378 0.968133,0.04988 2.693651,2.136582 5.176575,5.979644 1.060565,1.580542 1.755249,2.545119 2.08405,2.893734 0.572542,-0.523401 1.388712,-1.48767 2.448502,-2.892788 1.061144,-1.427109 1.794993,-2.583587 2.201544,-3.469436 0.402343,-0.819654 1.037026,-1.472575 1.904044,-1.958778 0.866977,-0.486136 1.690418,-0.709162 2.470332,-0.669076 1.210142,0.06231 1.648135,0.60452 1.313982,1.626726 -0.374989,1.24131 -2.556904,3.970888 -6.545758,8.188741 -1.040361,1.096495 -1.605724,1.719814 -1.696111,1.869953"
       id="path6" />
  </g>
</svg>
