<?xml version="1.0" encoding="UTF-8" standalone="no"?>
<svg
   width="62"
   height="62"
   version="1.1"
   id="svg8"
   sodipodi:docname="alienblaster.svg"
   inkscape:version="1.4.2 (unknown)"
   xmlns:inkscape="http://www.inkscape.org/namespaces/inkscape"
   xmlns:sodipodi="http://sodipodi.sourceforge.net/DTD/sodipodi-0.dtd"
   xmlns="http://www.w3.org/2000/svg"
   xmlns:svg="http://www.w3.org/2000/svg">
  <defs
     id="defs8" />
  <sodipodi:namedview
     id="namedview8"
     pagecolor="#ffffff"
     bordercolor="#000000"
     borderopacity="0.25"
     inkscape:showpageshadow="2"
     inkscape:pageopacity="0.0"
     inkscape:pagecheckerboard="0"
     inkscape:deskcolor="#d1d1d1"
     inkscape:zoom="12.109375"
     inkscape:cx="32"
     inkscape:cy="32"
     inkscape:window-width="1920"
     inkscape:window-height="998"
     inkscape:window-x="0"
     inkscape:window-y="0"
     inkscape:window-maximized="1"
     inkscape:current-layer="svg8" />
  <g
     id="g8"
     transform="matrix(1.0178571,0,0,1.0181598,-1.5714272,-2.0895906)">
    <path
       d="m 32.032246,6.0051038 c -1.870794,-0.080544 -3.634392,0.797426 -4.570744,2.275444 L 4.175733,45.032192 c -0.9055116,3.555952 1.78671,6.200932 5.813346,8.140482 7.553009,3.638138 19.801131,4.794254 21.806833,4.824982 3.307078,0.07036 13.328492,-1.445434 20.483644,-4.288422 5.442446,-2.162474 9.226574,-5.092808 7.13621,-8.677042 L 36.129994,8.2805478 C 35.27817,6.9359344 33.734166,6.078563 32.032246,6.0051038 Z"
       style="opacity:0.2"
       id="path1" />
    <path
       d="m 32.032246,5.0051034 c -1.870794,-0.080544 -3.634392,0.797426 -4.570744,2.275444 L 4.175733,44.032192 c -0.9055116,3.555952 1.78671,6.200932 5.813346,8.140482 7.553009,3.638138 19.801131,4.794254 21.806833,4.824982 3.307078,0.07036 13.328492,-1.445434 20.483644,-4.288422 5.442446,-2.162474 9.226574,-5.092808 7.13621,-8.677042 L 36.129994,7.2805474 C 35.27817,5.935934 33.734166,5.0785626 32.032246,5.0051034 Z"
       style="fill:#7137c8"
       id="path2" />
    <path
       d="M 32.09375,6.0078124 C 30.233562,5.9440826 28.482758,6.8157942 27.550782,8.28125 L 24.074218,13.75 C 24.050272,14.008062 24,14.258194 24,14.523438 V 54.316406 C 24,58.579948 28.585002,60 32,60 c 3.415002,0 8,-1.420052 8,-5.683594 V 14.523438 c 0,-0.132492 -0.0168,-0.260101 -0.02344,-0.390626 L 36.253906,8.28125 C 35.490896,7.081462 34.164232,6.3029986 32.675782,6.0898438 32.480642,6.0642238 32.29353,6.0170318 32.09375,6.0078124 Z"
       style="opacity:0.2"
       id="path3" />
    <path
       d="M 32.03125,5.0039062 C 30.160456,4.9233622 28.39729,5.803232 27.460938,7.28125 L 24,12.742188 V 53.316406 C 24,57.579948 28.585002,59 32,59 c 3.415002,0 8,-1.420052 8,-5.683594 V 13.390625 L 36.128906,7.28125 C 35.277082,5.9366366 33.73317,5.0773654 32.03125,5.0039062 Z"
       style="fill:#f2f2f2;fill-opacity:1"
       id="path4" />
    <rect
       x="12"
       y="24"
       width="6"
       height="34"
       rx="4.5"
       ry="4.25"
       style="opacity:0.2"
       id="rect4" />
    <path
       d="M 32.033203,5.0058594 C 30.162409,4.9253154 28.397289,5.803232 27.460938,7.28125 l -23.285157,36.75 C 4.0079843,44.690189 3.9644148,45.318331 4.0292967,45.916016 4.0556849,45.627004 4.0988701,45.33328 4.175781,45.03125 l 23.285157,-36.75 c 0.936351,-1.478018 2.701471,-2.3559346 4.572265,-2.2753906 1.70192,0.073459 3.245832,0.9307772 4.097656,2.2753906 l 23.285157,36.75 c 0.30083,0.515817 0.467044,1.017467 0.537109,1.505859 0.128362,-0.795209 -0.02694,-1.631094 -0.537109,-2.505859 L 36.130859,7.28125 C 35.279035,5.9366366 33.735123,5.0793186 32.033203,5.0058594 Z"
       style="opacity:0.2;fill:#ffffff"
       id="path5" />
    <rect
       x="12"
       y="23"
       width="6"
       height="34"
       rx="4.5"
       ry="4.25"
       style="fill:#aa87de"
       id="rect5" />
    <ellipse
       cx="32"
       cy="41.833"
       rx="7"
       ry="8.1669998"
       style="opacity:0.1"
       id="ellipse5" />
    <ellipse
       cx="32"
       cy="40.833"
       rx="7"
       ry="8.1669998"
       style="fill:#2d3d53;fill-opacity:1"
       id="ellipse6" />
    <rect
       x="46"
       y="24"
       width="6"
       height="34"
       rx="4.5"
       ry="4.25"
       style="opacity:0.2"
       id="rect6" />
    <rect
       x="46"
       y="23"
       width="6"
       height="34"
       rx="4.5"
       ry="4.25"
       style="fill:#aa87de"
       id="rect7" />
    <path
       d="m 15,23 c -1.662,0 -3,1.8955 -3,4.25 v 1 C 12,25.8955 13.338,24 15,24 c 1.662,0 3,1.8955 3,4.25 v -1 C 18,24.8955 16.662,23 15,23 Z"
       style="opacity:0.2;fill:#ffffff"
       id="path7" />
    <path
       d="m 49,23 c -1.662,0 -3,1.8955 -3,4.25 v 1 C 46,25.8955 47.338,24 49,24 c 1.662,0 3,1.8955 3,4.25 v -1 C 52,24.8955 50.662,23 49,23 Z"
       style="opacity:0.2;fill:#ffffff"
       id="path8" />
  </g>
</svg>
