<?xml version="1.0" encoding="UTF-8" standalone="no"?>
<svg
   width="62"
   height="62"
   version="1.1"
   id="svg5"
   sodipodi:docname="american-truck-simulator.svg"
   inkscape:version="1.4 (unknown)"
   xmlns:inkscape="http://www.inkscape.org/namespaces/inkscape"
   xmlns:sodipodi="http://sodipodi.sourceforge.net/DTD/sodipodi-0.dtd"
   xmlns="http://www.w3.org/2000/svg"
   xmlns:svg="http://www.w3.org/2000/svg">
  <defs
     id="defs5" />
  <sodipodi:namedview
     id="namedview5"
     pagecolor="#ffffff"
     bordercolor="#000000"
     borderopacity="0.25"
     inkscape:showpageshadow="2"
     inkscape:pageopacity="0.0"
     inkscape:pagecheckerboard="0"
     inkscape:deskcolor="#d1d1d1"
     inkscape:zoom="12.109375"
     inkscape:cx="32"
     inkscape:cy="32"
     inkscape:window-width="1920"
     inkscape:window-height="998"
     inkscape:window-x="0"
     inkscape:window-y="0"
     inkscape:window-maximized="1"
     inkscape:current-layer="svg5" />
  <g
     id="g5"
     transform="matrix(0.98214286,0,0,0.98245614,-0.42857152,-0.92982455)">
    <circle
       cx="32"
       cy="33"
       r="28"
       style="opacity:0.2"
       id="circle1" />
    <circle
       cx="32"
       cy="32"
       r="28"
       style="fill:#c83771"
       id="circle2" />
    <circle
       cx="32"
       cy="32"
       r="20"
       style="fill:#454fa1;fill-opacity:1"
       id="circle3" />
    <path
       d="M 32,13 A 20.000001,20.000001 0 0 0 12,33 20.000001,20.000001 0 0 0 32,53 20.000001,20.000001 0 0 0 52,33 20.000001,20.000001 0 0 0 32,13 Z m 0,3 a 17.000277,17.000277 0 0 1 5.246094,0.837891 L 34.833984,21.667969 32,27.332031 29.166016,21.667969 26.759766,16.847656 A 17.000277,17.000277 0 0 1 32,16 Z m -7.720703,1.853516 1.710937,5.130859 2.001954,6.007813 -6.007813,-2.001954 -5.113281,-1.705078 a 17.000277,17.000277 0 0 1 3.283203,-4.480468 17.000277,17.000277 0 0 1 4.125,-2.951172 z m 15.435547,0.01758 a 17.000277,17.000277 0 0 1 4.480468,3.283203 17.000277,17.000277 0 0 1 2.951172,4.125 l -5.130859,1.710937 -6.007813,2.001954 2.001954,-6.007813 z m -23.876953,9.882812 4.830078,2.41211 L 26.332031,33 l -5.664062,2.833984 -4.820313,2.40625 A 17.000277,17.000277 0 0 1 15,33 17.000277,17.000277 0 0 1 15.837891,27.753906 Z m 32.314453,0.0059 A 17.000277,17.000277 0 0 1 49,33 17.000277,17.000277 0 0 1 48.162109,38.246094 L 43.332031,35.833984 37.667969,33 l 5.664062,-2.833984 4.820313,-2.40625 z M 32,29 A 0.99990203,0.99990203 0 0 1 32.998047,30 0.99990203,0.99990203 0 0 1 32,31 0.99990203,0.99990203 0 0 1 31,30 0.99990203,0.99990203 0 0 1 32,29 Z m -3,3 a 0.99990203,0.99990203 0 0 1 1,1 0.99990203,0.99990203 0 0 1 -1,0.998047 A 0.99990203,0.99990203 0 0 1 28,33 0.99990203,0.99990203 0 0 1 29,32 Z m 6,0 a 0.99990203,0.99990203 0 0 1 1,1 0.99990203,0.99990203 0 0 1 -1,0.998047 A 0.99990203,0.99990203 0 0 1 34,33 0.99990203,0.99990203 0 0 1 35,32 Z m -3,3 A 0.99990203,0.99990203 0 0 1 32.998047,36 0.99990203,0.99990203 0 0 1 32,37 0.99990203,0.99990203 0 0 1 31,36 0.99990203,0.99990203 0 0 1 32,35 Z m -4.007812,2.007812 -2.001954,6.007813 -1.705078,5.113281 a 17.000277,17.000277 0 0 1 -4.480468,-3.283203 17.000277,17.000277 0 0 1 -2.951172,-4.125 l 5.130859,-1.710937 z m 8.015624,0 6.007813,2.001954 5.113281,1.705078 a 17.000277,17.000277 0 0 1 -3.283203,4.480468 17.000277,17.000277 0 0 1 -4.125,2.951172 L 38.009766,43.015625 Z M 32,38.667969 l 2.833984,5.664062 2.40625,4.820313 A 17.000277,17.000277 0 0 1 32,50 17.000277,17.000277 0 0 1 26.753906,49.162109 l 2.41211,-4.830078 z"
       style="opacity:0.2"
       id="path3" />
    <path
       d="M 32,12 A 20.000001,20.000001 0 0 0 12,32 20.000001,20.000001 0 0 0 32,52 20.000001,20.000001 0 0 0 52,32 20.000001,20.000001 0 0 0 32,12 Z m 0,3 a 17.000277,17.000277 0 0 1 5.246094,0.837891 L 34.833984,20.667969 32,26.332031 29.166016,20.667969 26.759766,15.847656 A 17.000277,17.000277 0 0 1 32,15 Z m -7.720703,1.853516 1.710937,5.130859 2.001954,6.007813 -6.007813,-2.001954 -5.113281,-1.705078 a 17.000277,17.000277 0 0 1 3.283203,-4.480468 17.000277,17.000277 0 0 1 4.125,-2.951172 z m 15.435547,0.01758 a 17.000277,17.000277 0 0 1 4.480468,3.283203 17.000277,17.000277 0 0 1 2.951172,4.125 l -5.130859,1.710937 -6.007813,2.001954 2.001954,-6.007813 z m -23.876953,9.882812 4.830078,2.41211 L 26.332031,32 l -5.664062,2.833984 -4.820313,2.40625 A 17.000277,17.000277 0 0 1 15,32 17.000277,17.000277 0 0 1 15.837891,26.753906 Z m 32.314453,0.0059 A 17.000277,17.000277 0 0 1 49,32 17.000277,17.000277 0 0 1 48.162109,37.246094 L 43.332031,34.833984 37.667969,32 43.332031,29.166016 Z M 32,28 A 0.99990203,0.99990203 0 0 1 32.998047,29 0.99990203,0.99990203 0 0 1 32,30 0.99990203,0.99990203 0 0 1 31,29 0.99990203,0.99990203 0 0 1 32,28 Z m -3,3 a 0.99990203,0.99990203 0 0 1 1,1 0.99990203,0.99990203 0 0 1 -1,0.998047 A 0.99990203,0.99990203 0 0 1 28,32 0.99990203,0.99990203 0 0 1 29,31 Z m 6,0 a 0.99990203,0.99990203 0 0 1 1,1 0.99990203,0.99990203 0 0 1 -1,0.998047 A 0.99990203,0.99990203 0 0 1 34,32 0.99990203,0.99990203 0 0 1 35,31 Z m -3,3 A 0.99990203,0.99990203 0 0 1 32.998047,35 0.99990203,0.99990203 0 0 1 32,36 0.99990203,0.99990203 0 0 1 31,35 0.99990203,0.99990203 0 0 1 32,34 Z m -4.007812,2.007812 -2.001954,6.007813 -1.705078,5.113281 a 17.000277,17.000277 0 0 1 -4.480468,-3.283203 17.000277,17.000277 0 0 1 -2.951172,-4.125 l 5.130859,-1.710937 z m 8.015624,0 6.007813,2.001954 5.113281,1.705078 a 17.000277,17.000277 0 0 1 -3.283203,4.480468 17.000277,17.000277 0 0 1 -4.125,2.951172 L 38.009766,42.015625 Z M 32,37.667969 l 2.833984,5.664062 2.40625,4.820313 A 17.000277,17.000277 0 0 1 32,49 17.000277,17.000277 0 0 1 26.753906,48.162109 l 2.41211,-4.830078 z"
       style="fill:#f2f2f2;fill-opacity:1"
       id="path4" />
    <path
       d="M 32,4 A 28,28 0 0 0 4,32 28,28 0 0 0 4.0214844,32.585938 28,28 0 0 1 32,5 28,28 0 0 1 59.978516,32.414062 28,28 0 0 0 60,32 28,28 0 0 0 32,4 Z"
       style="opacity:0.2;fill:#ffffff"
       id="path5" />
  </g>
</svg>
