<?xml version="1.0" encoding="UTF-8" standalone="no"?>
<svg
   width="62"
   height="62"
   version="1"
   id="svg7"
   sodipodi:docname="aqemu.svg"
   inkscape:version="1.4.2 (unknown)"
   xmlns:inkscape="http://www.inkscape.org/namespaces/inkscape"
   xmlns:sodipodi="http://sodipodi.sourceforge.net/DTD/sodipodi-0.dtd"
   xmlns:xlink="http://www.w3.org/1999/xlink"
   xmlns="http://www.w3.org/2000/svg"
   xmlns:svg="http://www.w3.org/2000/svg">
  <defs
     id="defs7">
    <linearGradient
       id="linearGradient2"
       inkscape:collect="always">
      <stop
         style="stop-color:#ab89df;stop-opacity:1;"
         offset="0"
         id="stop12" />
      <stop
         style="stop-color:#55ffdd;stop-opacity:1"
         offset="1"
         id="stop13" />
    </linearGradient>
    <linearGradient
       id="linearGradient7"
       inkscape:collect="always">
      <stop
         style="stop-color:#384850;stop-opacity:1;"
         offset="0"
         id="stop8" />
      <stop
         style="stop-color:#384850;stop-opacity:1;"
         offset="0.59162253"
         id="stop10" />
      <stop
         style="stop-color:#eff2f6;stop-opacity:1;"
         offset="0.92173076"
         id="stop11" />
      <stop
         style="stop-color:#eff2f6;stop-opacity:1;"
         offset="1"
         id="stop9" />
    </linearGradient>
    <linearGradient
       id="linearGradient1"
       inkscape:collect="always">
      <stop
         style="stop-color:#3f505e;stop-opacity:1;"
         offset="0"
         id="stop5" />
      <stop
         style="stop-color:#4a5d6f;stop-opacity:1;"
         offset="0.28848785"
         id="stop7" />
      <stop
         style="stop-color:#323942;stop-opacity:1;"
         offset="1"
         id="stop6" />
    </linearGradient>
    <linearGradient
       id="c-3"
       gradientUnits="userSpaceOnUse"
       x1="24.072048"
       x2="23.959682"
       y1="0.75082099"
       y2="46.056854">
      <stop
         offset="0"
         stop-color="#fff"
         id="stop3" />
      <stop
         offset="1"
         stop-color="#d9d9d9"
         id="stop4" />
    </linearGradient>
    <linearGradient
       id="b-6"
       gradientUnits="userSpaceOnUse"
       x1="29.203026"
       x2="34.121048"
       xlink:href="#a-7"
       y1="24.827356"
       y2="29.224836" />
    <linearGradient
       id="a-7">
      <stop
         offset="0"
         id="stop1" />
      <stop
         offset="1"
         stop-opacity="0"
         id="stop2" />
    </linearGradient>
    <linearGradient
       id="d"
       gradientUnits="userSpaceOnUse"
       x1="15.948756"
       x2="25.031786"
       xlink:href="#a-7"
       y1="23.618279"
       y2="33.69899" />
    <linearGradient
       id="e"
       gradientUnits="userSpaceOnUse"
       x1="21.990562"
       x2="29.320522"
       xlink:href="#a-7"
       y1="33.780373"
       y2="41.931858" />
    <linearGradient
       id="paint154_linear_890_11"
       x1="778"
       y1="812.29199"
       x2="788"
       y2="812.29199"
       gradientUnits="userSpaceOnUse"
       gradientTransform="translate(-751,-696)">
      <stop
         stop-color="#EFF2F6"
         id="stop1050" />
      <stop
         offset="0.600785"
         stop-color="#B7C6CD"
         id="stop1051" />
    </linearGradient>
    <linearGradient
       id="paint155_linear_890_11"
       x1="783"
       y1="813"
       x2="783"
       y2="817"
       gradientUnits="userSpaceOnUse"
       gradientTransform="translate(-751,-696)">
      <stop
         stop-color="#EFF2F6"
         id="stop1052" />
      <stop
         offset="0.734138"
         stop-color="#B7C6CD"
         id="stop1053" />
    </linearGradient>
    <radialGradient
       id="paint156_radial_890_11"
       cx="0"
       cy="0"
       r="1"
       gradientUnits="userSpaceOnUse"
       gradientTransform="matrix(27.999986,27.999976,-27.999986,27.999976,32.302392,33.999998)">
      <stop
         offset="0.60067803"
         stop-color="#B7C6CD"
         id="stop1054"
         style="stop-color:#384850;stop-opacity:1;" />
      <stop
         offset="0.876735"
         stop-color="#EFF2F6"
         id="stop1055" />
    </radialGradient>
    <linearGradient
       id="paint157_linear_890_11"
       x1="796.84485"
       y1="799.43359"
       x2="768.90088"
       y2="770.81476"
       gradientUnits="userSpaceOnUse"
       gradientTransform="matrix(1.1666666,0,0,1.1666668,-881.19764,-881.8333)">
      <stop
         offset="0.00000057"
         stop-color="#2E2E41"
         id="stop1056"
         style="stop-color:#495361;stop-opacity:1;" />
      <stop
         offset="0.711139"
         stop-color="#566C80"
         id="stop1057" />
    </linearGradient>
    <linearGradient
       id="paint158_linear_890_11"
       x1="792"
       y1="794"
       x2="774"
       y2="776"
       gradientUnits="userSpaceOnUse"
       gradientTransform="translate(-751,-696)">
      <stop
         offset="0.304478"
         stop-color="#2E2E41"
         id="stop1058" />
      <stop
         offset="1"
         stop-color="#566C80"
         id="stop1059" />
    </linearGradient>
    <linearGradient
       id="paint159_linear_890_11"
       x1="788"
       y1="790"
       x2="778"
       y2="780"
       gradientUnits="userSpaceOnUse"
       gradientTransform="translate(-751,-696)">
      <stop
         offset="0.391394"
         stop-color="#5200FF"
         id="stop1060" />
      <stop
         offset="1"
         stop-color="#0085FF"
         id="stop1061" />
    </linearGradient>
    <linearGradient
       id="paint160_linear_890_11"
       x1="784"
       y1="798"
       x2="782"
       y2="796"
       gradientUnits="userSpaceOnUse"
       gradientTransform="translate(-751,-696)">
      <stop
         stop-color="#FF7E07"
         id="stop1062" />
      <stop
         offset="1"
         stop-color="#FFE607"
         id="stop1063" />
    </linearGradient>
    <linearGradient
       inkscape:collect="always"
       xlink:href="#linearGradient1"
       id="linearGradient6"
       x1="17.408081"
       y1="16.037786"
       x2="49.155514"
       y2="50.137749"
       gradientUnits="userSpaceOnUse" />
    <radialGradient
       inkscape:collect="always"
       xlink:href="#linearGradient7"
       id="radialGradient9"
       cx="32.302387"
       cy="34"
       fx="32.302387"
       fy="34"
       r="28"
       gradientUnits="userSpaceOnUse"
       gradientTransform="matrix(0.99999999,1,-1,0.99999999,34,-32.302387)" />
    <linearGradient
       id="_lgradient_1"
       x1="0"
       y1="0.5"
       x2="1"
       y2="0.5"
       gradientTransform="matrix(26.777111,0,0,26.777111,10.611445,10.611445)"
       gradientUnits="userSpaceOnUse">
      <stop
         offset="0%"
         stop-opacity="1"
         style="stop-color:rgb(132,250,176)"
         id="stop2-3" />
      <stop
         offset="98.26086956521739%"
         stop-opacity="1"
         style="stop-color:rgb(143,211,244)"
         id="stop4-6" />
    </linearGradient>
    <linearGradient
       inkscape:collect="always"
       xlink:href="#linearGradient2"
       id="linearGradient13"
       x1="7.667"
       y1="31.00072"
       x2="54.333324"
       y2="31.00072"
       gradientUnits="userSpaceOnUse" />
  </defs>
  <sodipodi:namedview
     id="namedview7"
     pagecolor="#ffffff"
     bordercolor="#000000"
     borderopacity="0.25"
     inkscape:showpageshadow="2"
     inkscape:pageopacity="0.0"
     inkscape:pagecheckerboard="0"
     inkscape:deskcolor="#d1d1d1"
     inkscape:zoom="8.3306018"
     inkscape:cx="36.311902"
     inkscape:cy="25.74844"
     inkscape:window-width="1920"
     inkscape:window-height="994"
     inkscape:window-x="0"
     inkscape:window-y="0"
     inkscape:window-maximized="1"
     inkscape:current-layer="svg7" />
  <g
     id="g1"
     transform="translate(-1.3023872,-3)">
    <path
       d="m 60.302387,34 c 0,15.46415 -12.535828,28 -28.000002,28 C 16.838222,62 4.3023873,49.46415 4.3023873,34 4.3023873,18.535835 16.838222,6 32.302385,6 47.766559,6 60.302387,18.535835 60.302387,34 Z"
       id="path154"
       style="fill:url(#radialGradient9)" />
    <path
       d="m 55.63572,34 c 0,12.88701 -10.446332,23.33332 -23.333335,23.33332 C 19.415386,57.33332 8.9690543,46.88701 8.9690543,34 c 0,-12.886994 10.4463317,-23.333332 23.3333307,-23.333332 12.887003,0 23.333335,10.446338 23.333335,23.333332 z"
       id="path155"
       style="fill:url(#linearGradient6)" />
  </g>
  <path
     d="m 31.000085,7.667 c -6.179847,0 -12.117727,2.460123 -16.50146,6.8283 v 0.004 h -0.0034 C 10.127123,18.88296 7.667,24.82084 7.667,31.00068 c 0,6.17984 2.460126,12.11773 6.828304,16.50146 h 0.0034 v 0.004 c 4.383733,4.36818 10.321614,6.8283 16.50146,6.8283 2.063985,0 4.084144,-0.27152 5.742207,-0.62344 1.658062,-0.35192 2.894311,-0.73743 3.638917,-1.17141 h 0.0034 c 0.797137,-0.46494 1.393091,-1.12977 1.71282,-1.88672 0.319727,-0.75696 0.351316,-1.65256 -0.08531,-2.40188 -0.437295,-0.74852 -1.231473,-1.16201 -2.047507,-1.25673 -0.816033,-0.0948 -1.690006,0.0966 -2.487195,0.56109 0.0688,-0.0399 -0.139877,0.0602 -0.403596,0.1411 -0.263723,0.0809 -0.625305,0.17869 -1.053284,0.27562 -0.692642,0.15686 -1.637189,0.29042 -2.588914,0.40031 l -3.7997,-9.20065 9.587843,-9.58457 9.171124,3.7308 c -0.09591,0.87715 -0.209039,1.75269 -0.337969,2.38219 -0.08073,0.3941 -0.16029,0.72125 -0.223126,0.95486 -0.06284,0.2336 -0.176098,0.47308 -0.08204,0.29859 -0.436719,0.81253 -0.601409,1.69119 -0.479064,2.50359 0.122334,0.81242 0.56495,1.59405 1.32891,2.00486 0.763861,0.41075 1.656218,0.3485 2.401883,0.004 0.745665,-0.34523 1.389735,-0.96639 1.827661,-1.77845 0.361345,-0.66955 0.667574,-1.77392 0.967972,-3.31407 0.3004,-1.54016 0.538128,-3.43456 0.538128,-5.37142 0,-6.17986 -2.460123,-12.11773 -6.828303,-16.50147 h -0.0034 v -0.004 C 43.117812,10.127123 37.179931,7.667 31.000085,7.667 Z m 0,1.680006 c 5.733854,0 11.247104,2.284015 15.316924,6.339394 4.053337,4.06951 6.336116,9.58133 6.336116,15.31365 0,1.79787 -0.226057,3.60128 -0.508597,5.04985 -0.282538,1.44859 -0.677437,2.6222 -0.794065,2.8383 h -0.0034 c -0.27622,0.51221 -0.678993,0.87671 -1.053284,1.05 -0.37429,0.17329 -0.672775,0.16611 -0.902345,0.0427 -0.229474,-0.12335 -0.398031,-0.36701 -0.459378,-0.77437 -0.06135,-0.40737 0.01976,-0.94421 0.295314,-1.45688 h -0.0034 c 0.15545,-0.28836 0.152477,-0.38465 0.226407,-0.65953 0.07394,-0.27489 0.159281,-0.62944 0.246094,-1.05329 0.173619,-0.8477 0.354339,-1.96316 0.452813,-3.1861 l 0.05907,-0.70548 -0.643128,-0.16406 -10.746127,-4.37064 -11.166132,11.16613 4.410015,10.68707 c 0.0069,0.0189 0.0121,0.0362 0.01,0.0262 l 0.164068,0.71203 0.725159,-0.0624 c 1.30726,-0.11163 2.502318,-0.32171 3.428918,-0.53156 0.463299,-0.10495 0.859693,-0.20856 1.174691,-0.30516 0.314998,-0.0966 0.507825,-0.14987 0.757971,-0.2953 0.502709,-0.29287 1.037679,-0.39205 1.447037,-0.34454 0.409356,0.0475 0.659196,0.20789 0.790783,0.43313 0.131309,0.22535 0.147236,0.52271 -0.0131,0.90234 -0.160357,0.37964 -0.507866,0.79613 -1.010629,1.08938 -0.335988,0.19582 -1.586912,0.65073 -3.143448,0.98109 -1.556536,0.33038 -3.478088,0.58407 -5.394392,0.58407 -5.732312,0 -11.244143,-2.28278 -15.313643,-6.33611 l -0.0034,-0.004 C 11.6298,42.2435 9.3470188,36.73167 9.3470188,30.99936 c 0,-5.73385 2.2840142,-11.2471 6.3393962,-15.31693 4.069501,-4.053335 9.581333,-6.336112 15.313644,-6.336112 z m 0,2.411726 c -4.244682,0 -8.350473,1.399978 -11.68785,3.947358 l -1.16813,0.88922 32.107136,13.06271 -0.213282,-1.45361 C 49.441158,24.13656 47.553757,20.34085 44.614036,17.38938 v -0.004 C 41.007013,13.77885 36.102178,11.758512 31.000085,11.758512 Z m 0,1.680008 c 4.656992,0 9.132259,1.84563 12.422853,5.13517 2.290279,2.29943 3.706174,5.21339 4.462514,8.30815 L 21.786305,16.26391 c 2.767652,-1.72376 5.90044,-2.82517 9.21378,-2.82517 z m -14.450671,4.75782 -0.885941,1.16813 c -2.520786,3.32839 -3.904701,7.41409 -3.904701,11.63536 0,5.10209 2.02034,10.00692 5.627361,13.61395 h 0.0034 c 2.982859,2.9711 6.829426,4.86837 10.946285,5.44361 l 1.450318,0.20344 z m 3.310792,1.6997 6.798772,16.46864 9.742063,-9.73878 -1.174692,-0.47906 z m -3.625793,1.93595 10.762533,26.07617 C 23.859177,47.16333 20.90098,45.74076 18.573952,43.42289 15.284405,40.1323 13.438778,35.65703 13.438778,31.00005 c 0,-3.29401 1.090628,-6.41016 2.795635,-9.16784 z m 6.710177,1.13531 10.473784,4.26235 -6.165488,6.16549 z m 19.044438,14.94286 -4.078608,4.0786 9.364719,9.36472 4.078605,-4.0786 -0.593906,-0.59391 z m 0,2.37563 6.989084,6.98909 -1.702973,1.70298 -6.989086,-6.9891 z"
     id="path7"
     style="fill:url(#linearGradient13);fill-opacity:1" />
</svg>
