<?xml version="1.0" encoding="UTF-8" standalone="no"?>
<svg
   width="62"
   height="62"
   version="1.1"
   id="svg5"
   sodipodi:docname="armello.svg"
   inkscape:version="1.4 (unknown)"
   xmlns:inkscape="http://www.inkscape.org/namespaces/inkscape"
   xmlns:sodipodi="http://sodipodi.sourceforge.net/DTD/sodipodi-0.dtd"
   xmlns="http://www.w3.org/2000/svg"
   xmlns:svg="http://www.w3.org/2000/svg">
  <defs
     id="defs5" />
  <sodipodi:namedview
     id="namedview5"
     pagecolor="#ffffff"
     bordercolor="#000000"
     borderopacity="0.25"
     inkscape:showpageshadow="2"
     inkscape:pageopacity="0.0"
     inkscape:pagecheckerboard="0"
     inkscape:deskcolor="#d1d1d1"
     inkscape:zoom="7.0710678"
     inkscape:cx="31.819805"
     inkscape:cy="41.507168"
     inkscape:window-width="1920"
     inkscape:window-height="998"
     inkscape:window-x="0"
     inkscape:window-y="0"
     inkscape:window-maximized="1"
     inkscape:current-layer="svg5" />
  <g
     id="g5"
     transform="translate(-0.50000211,-1.0017219)">
    <path
       style="opacity:0.2;stroke-width:0.982282"
       d="m 27.395594,4.9840823 c -2.951062,0.026372 -5.427591,2.2324091 -5.794714,5.1618037 l -0.519814,4.162055 c -0.692914,0.338978 -1.271688,0.562609 -2.629772,1.483302 -0.998955,0.677221 -2.083685,1.486344 -3.1611,2.703709 -0.801085,0.905143 -1.570608,2.317743 -2.002543,4.066115 -0.698983,0.260314 -0.785561,0.260279 -1.611243,0.60445 -1.141521,0.475815 -2.3056417,0.989526 -3.4871832,1.679026 C 7.5984545,25.189289 7.0056413,25.54965 6.2595729,26.233814 5.5135038,26.917972 4,28.024133 4,31.140399 c 0,2.868451 0.8173229,3.7296 1.3791448,4.543919 0.024965,0.33333 0.078227,0.663932 0.1592059,0.988229 l 1.3503731,5.207852 c 0.071866,0.265689 0.162237,0.526014 0.2704584,0.779066 -0.035679,0.11604 -0.1555921,0.254306 -0.1841419,0.366507 -0.5325322,2.092898 -0.1783871,4.029661 -0.1783872,4.029661 0.1938235,1.051566 0.6698897,2.030599 1.3772264,2.832269 0.4750605,2.302324 2.2720165,4.102241 4.5728525,4.580379 1.075647,0.951753 2.461658,1.477845 3.897669,1.47946 0.50973,0 0.933022,-0.146409 1.392573,-0.234103 0.840373,0.782899 1.891081,1.303122 3.022996,1.496732 l 0.08633,0.08824 c 1.457785,2.261291 4.261116,3.248204 6.813247,2.398607 1.222838,-0.407773 2.226195,-0.953946 3.180277,-1.508245 0.575146,0.406932 1.080159,0.842515 1.774286,1.189712 3.156842,1.576689 6.981766,0.04359 8.177045,-3.277459 0.454054,-0.009 0.898217,-0.02588 1.296663,-0.04412 1.062142,-0.04853 1.927736,-0.147752 1.927736,-0.147752 0.712036,-0.0827 1.403011,-0.29472 2.038984,-0.625557 3.574456,1.842667 7.903199,-0.358117 8.522313,-4.332843 0,0 0.217022,-1.394533 0.324163,-3.106673 0.09587,-1.531862 0.212361,-3.283005 -0.416235,-5.645362 l 0.220586,-0.07487 c 3.379526,-1.152086 4.966807,-5.021962 3.370179,-8.216668 L 57.211232,31.579802 55.993209,27.926248 C 55.89002,27.62342 55.762361,27.329501 55.611494,27.0474 l 1.822239,-3.791714 c 2.070198,-4.312181 -1.584854,-9.165569 -6.299184,-8.364414 l -0.260868,0.04412 0.122756,0.543042 c -0.792179,-3.52203 -4.53407,-5.5110256 -7.895081,-4.19658 l -0.0078,0.0039 -0.159208,-0.441346 C 41.608502,7.165476 37.134885,5.7741075 33.957562,8.0523794 L 33.061788,8.6952058 32.377008,7.6494134 C 31.278139,5.9708089 29.401272,4.9665816 27.395594,4.9840823 Z"
       id="path1" />
    <path
       style="fill:#2d3d53;fill-opacity:1;stroke-width:0.982282"
       d="m 27.395594,4.0019491 c -2.951062,0.026372 -5.427591,2.2324084 -5.794714,5.1617998 l -0.519814,4.1620601 c -0.692914,0.338979 -1.271688,0.562608 -2.629772,1.483303 -0.998955,0.677218 -2.083685,1.486334 -3.1611,2.703707 -0.801085,0.905136 -1.570608,2.317745 -2.002543,4.066115 -0.698983,0.260315 -0.785561,0.26028 -1.611243,0.604448 C 10.534887,22.6592 9.3707663,23.172909 8.1892248,23.862403 7.5984545,24.207158 7.0056413,24.567517 6.2595729,25.25168 5.5135038,25.935841 4,27.042001 4,30.158267 c 0,2.86845 0.8173229,3.729599 1.3791448,4.543918 0.024965,0.33333 0.078227,0.663928 0.1592059,0.988223 l 1.3503731,5.207858 c 0.071866,0.265683 0.162237,0.526012 0.2704584,0.779068 -0.035679,0.116034 -0.1555921,0.254304 -0.1841419,0.366503 -0.5325322,2.0929 -0.1783871,4.029661 -0.1783872,4.029661 0.1938235,1.051568 0.6698897,2.0306 1.3772264,2.832272 0.4750605,2.302324 2.2720165,4.102241 4.5728525,4.580379 1.075647,0.951748 2.461658,1.477844 3.897669,1.479457 0.50973,0 0.933022,-0.146407 1.392573,-0.234103 0.840373,0.782899 1.891081,1.303121 3.022996,1.496732 l 0.08633,0.08824 c 1.457785,2.26129 4.261116,3.248204 6.813247,2.398606 1.222838,-0.407772 2.226195,-0.953949 3.180277,-1.508245 0.575146,0.406928 1.080159,0.842514 1.774286,1.189711 3.156842,1.576689 6.981766,0.04359 8.177045,-3.277457 0.454054,-0.009 0.898217,-0.02588 1.296663,-0.04412 1.062142,-0.04853 1.927736,-0.147753 1.927736,-0.147753 0.712036,-0.0827 1.403011,-0.294719 2.038984,-0.625557 3.574456,1.842664 7.903199,-0.35812 8.522313,-4.332842 0,0 0.217022,-1.394533 0.324163,-3.106678 0.09587,-1.531857 0.212361,-3.282999 -0.416235,-5.645357 l 0.220586,-0.07487 c 3.379522,-1.152081 4.966803,-5.021964 3.370175,-8.216662 L 57.211228,30.597656 55.993205,26.944099 C 55.890017,26.64128 55.762358,26.347361 55.611491,26.06526 l 1.822239,-3.791719 c 2.070198,-4.312176 -1.584854,-9.165564 -6.299185,-8.364409 l -0.260867,0.04412 0.122756,0.543043 C 50.204254,10.974273 46.462363,8.9852842 43.101352,10.29973 l -0.0078,0.0039 -0.159194,-0.4413513 C 41.608502,6.1833421 37.134885,4.7919742 33.957562,7.0702456 L 33.061788,7.7130722 32.377008,6.6672801 C 31.278139,4.9886749 29.401272,3.9844476 27.395594,4.0019491 Z"
       id="path2" />
    <path
       style="opacity:0.2;stroke-width:0.982282"
       d="m 27.447383,10.876978 -0.859326,6.877281 6.936003,4.605326 c 0,0 7.427053,-3.378442 8.777428,-2.667491 2.700743,1.990835 2.700743,6.801967 2.700743,6.801967 l 4.051116,0.593655 3.069032,-6.386051 -5.769773,0.982472 -1.104852,-4.912344 -5.647016,2.210555 -2.2097,-6.140435 -5.892533,4.227543 z m -2.700743,8.10537 c 0,0 -5.977979,2.701789 -5.977979,5.403579 0,0.636816 0.576486,1.350892 0.576486,1.350892 l -1.350375,1.350897 c 0,0 -8.1022358,2.701788 -8.1022358,4.052683 0,1.006897 1.3503758,2.701794 1.3503758,2.701794 l 2.700743,-1.350897 -1.350376,2.701788 h -1.350367 l 1.350367,5.207084 h 2.700752 l 1.473129,2.898287 1.473139,-1.350897 c 0,0 2.185783,2.306165 3.805594,2.407051 l 5.52425,-2.038625 c 0,0 -1.473128,2.333368 -4.173879,3.684258 -0.914401,1.615636 -1.350371,5.207425 -1.350371,5.207425 h 2.700747 l 1.350375,2.897947 c 4.051115,-1.350897 5.40149,-4.052684 5.40149,-4.052684 0,0 1.350369,2.701787 4.051118,4.052684 l 1.350374,-5.403579 c 0,0 1.72116,1.119558 2.700741,1.350895 1.314249,0.310369 4.051118,0 4.051118,0 l -2.700743,-6.754475 c 0,0 2.796022,1.672459 4.051118,2.701787 1.476864,1.21121 4.051116,4.052688 4.051116,4.052688 0,0 0.711712,-4.61852 0,-6.754475 -0.711704,-2.135954 -4.051117,-4.912343 -4.051117,-4.912343 h 2.700748 l 5.401491,-1.842134 -1.350373,-2.701785 -1.350375,-4.052689 c 0,0 -2.700742,-1.252649 -6.751865,-1.252649 -1.423418,0 -4.051118,1.252649 -4.051118,1.252649 v -2.701788 l -2.700741,1.350897 c 0,0 0,-5.403579 5.401491,-5.403579 0,-0.636821 -0.730834,-1.204584 -1.350375,-1.350897 -2.700748,0 -8.102239,2.70179 -8.102239,2.70179 z m 0.859326,8.596604 c 0,0 -0.03787,0.994078 -0.44735,1.661039 -0.482844,0.786523 -0.608884,1.65371 -1.95926,2.233967 -0.418834,0.17997 -1.065531,-0.857504 -1.065531,-0.857504 l -1.438303,0.89237 1.153459,-1.620588 c 0,0 -0.363905,-1.085868 0,-1.350897 1.350375,-0.983455 3.756985,-0.958387 3.756985,-0.958387 z M 14.802984,41.947558 c -2.700751,1.350897 -2.209705,4.052684 -2.209705,4.052684 h 1.350376 c 0,0 -0.353103,0.868336 0,2.701793 1.350376,0 2.700747,-1.350898 2.700747,-1.350898 0,0 -0.37048,1.350898 0,2.701793 1.953066,0 2.700745,-2.701793 2.700745,-2.701793 0,0 -9.63e-4,0.393777 0.693648,0.730857 0.655739,-0.731828 0.656727,-2.081752 0.656727,-2.081752 0,0 -0.811166,-1.665249 -1.350375,-1.645633 h -3.560071 z"
       id="path3" />
    <path
       style="fill:#d3a72c;fill-opacity:1;stroke-width:0.982282"
       d="m 27.447383,9.894844 -0.859326,6.877281 6.936003,4.605328 c 0,0 7.427053,-3.37845 8.777428,-2.66749 2.700743,1.990834 2.700743,6.801966 2.700743,6.801966 l 4.051116,0.593656 3.069032,-6.386052 -5.769773,0.982472 -1.104852,-4.912344 -5.647016,2.21055 -2.2097,-6.14043 -5.892533,4.227543 z m -2.700743,8.105367 c 0,0 -5.977979,2.701794 -5.977979,5.40358 0,0.636819 0.576486,1.350897 0.576486,1.350897 l -1.350375,1.350897 c 0,0 -8.1022358,2.701785 -8.1022358,4.052682 0,1.006897 1.3503758,2.701788 1.3503758,2.701788 l 2.700743,-1.350891 -1.350376,2.701786 h -1.350367 l 1.350367,5.207087 h 2.700752 l 1.473129,2.898286 1.473139,-1.350897 c 0,0 2.185783,2.306164 3.805594,2.407051 l 5.52425,-2.038626 c 0,0 -1.473128,2.333363 -4.173879,3.684258 -0.914401,1.615637 -1.350371,5.207087 -1.350371,5.207087 h 2.700747 l 1.350375,2.898285 c 4.051115,-1.350896 5.40149,-4.052689 5.40149,-4.052689 0,0 1.350369,2.701793 4.051118,4.052689 l 1.350374,-5.403579 c 0,0 1.72116,1.119554 2.700741,1.35089 1.314249,0.310374 4.051118,0 4.051118,0 l -2.700743,-6.754469 c 0,0 2.796022,1.672457 4.051118,2.701786 1.476864,1.211206 4.051116,4.052683 4.051116,4.052683 0,0 0.711712,-4.618517 0,-6.754469 -0.711704,-2.135954 -4.051117,-4.912347 -4.051117,-4.912347 h 2.700748 l 5.401491,-1.842129 -1.350373,-2.701792 -1.350375,-4.052685 c 0,0 -2.700742,-1.252646 -6.751865,-1.252646 -1.423418,0 -4.051118,1.252646 -4.051118,1.252646 v -2.701785 l -2.700741,1.350892 c 0,0 0,-5.403578 5.401491,-5.403578 0,-0.636817 -0.730834,-1.204584 -1.350375,-1.350894 -2.700748,0 -8.102239,2.701786 -8.102239,2.701786 z m 0.859326,8.596608 c 0,0 -0.03787,0.994073 -0.44735,1.661037 -0.482844,0.786525 -0.608884,1.65371 -1.95926,2.233962 -0.418834,0.179977 -1.065531,-0.857497 -1.065531,-0.857497 l -1.438303,0.892371 1.153459,-1.620588 c 0,0 -0.363905,-1.085869 0,-1.350897 1.350375,-0.983461 3.756985,-0.958388 3.756985,-0.958388 z M 14.802984,40.965426 c -2.700751,1.350897 -2.209705,4.052683 -2.209705,4.052683 h 1.350376 c 0,0 -0.353103,0.868337 0,2.701793 1.350376,0 2.700747,-1.350896 2.700747,-1.350896 0,0 -0.37048,1.350896 0,2.701786 1.953066,0 2.700745,-2.701786 2.700745,-2.701786 0,0 -9.63e-4,0.393776 0.693648,0.730856 0.655739,-0.731829 0.656727,-2.081753 0.656727,-2.081753 0,0 -0.811166,-1.665247 -1.350375,-1.645632 h -3.560071 z"
       id="path4" />
    <path
       style="opacity:0.1;fill:#ffffff;stroke-width:0.982282"
       d="m 27.395594,4.0019491 c -2.951062,0.026372 -5.427591,2.2324084 -5.794714,5.1617998 l -0.519814,4.1620601 c -0.692914,0.338978 -1.271688,0.562608 -2.629772,1.483303 -0.998955,0.677218 -2.083685,1.486334 -3.1611,2.703707 -0.801085,0.905136 -1.570608,2.317745 -2.002543,4.066115 -0.698983,0.260315 -0.785561,0.260281 -1.611243,0.604448 -1.141521,0.475819 -2.3056417,0.989527 -3.4871832,1.679021 C 7.5984545,24.207158 7.0056413,24.567517 6.2595729,25.25168 5.5135038,25.935841 4,27.042001 4,30.158267 c 0,0.223925 0.013569,0.415569 0.023018,0.615961 0.1191932,-2.823086 1.5221816,-3.884989 2.2365549,-4.540082 0.7460684,-0.684157 1.3388815,-1.044524 1.9296519,-1.389271 1.1815415,-0.6895 2.3456622,-1.203207 3.4871832,-1.679026 0.825682,-0.344162 0.91226,-0.344128 1.611243,-0.604447 0.431935,-1.748369 1.201458,-3.160976 2.002543,-4.066119 1.077415,-1.217365 2.162145,-2.02648 3.161099,-2.703708 1.358084,-0.920694 1.936858,-1.144316 2.629773,-1.483294 l 0.519814,-4.162063 c 0.367123,-2.9293912 2.843651,-5.1354288 5.794713,-5.1618002 2.005678,-0.017503 3.882545,0.9867265 4.981415,2.6653311 l 0.68478,1.0457924 0.895774,-0.6428264 c 3.177323,-2.2782719 7.650929,-0.886898 8.976911,2.7919801 l 0.159206,0.441344 0.0078,-0.0039 c 3.361011,-1.3144426 7.102901,0.67455 7.895074,4.196605 l -0.12276,-0.543051 0.260869,-0.04412 c 3.593969,-0.610755 6.563875,2.065959 6.859279,5.282691 0.291189,-3.629118 -2.904205,-6.937279 -6.859279,-6.265155 l -0.260869,0.04412 0.12276,0.543043 C 50.204308,10.97425 46.462417,8.9852576 43.101406,10.299703 l -0.0078,0.0039 -0.159208,-0.4413443 C 41.608491,6.183347 37.134885,4.7919742 33.957562,7.0702456 L 33.061788,7.7130722 32.377008,6.6672801 C 31.278139,4.9886748 29.401272,3.9844476 27.395594,4.0019491 Z m 28.440307,22.5795169 -0.224422,0.466286 c 0.150868,0.282108 0.278527,0.576028 0.38171,0.878852 l 1.218024,3.653558 1.164315,2.327608 c 0.351574,0.703463 0.540785,1.439456 0.598459,2.172177 0.09381,-1.046898 -0.08886,-2.134998 -0.598459,-3.154648 l -1.164315,-2.32761 -1.218024,-3.653557 c -0.04257,-0.124935 -0.106471,-0.240963 -0.157288,-0.362666 z m -48.8723694,15.5161 c -0.294611,1.19053 -0.3033993,2.276019 -0.2589498,3.026085 0.018817,-0.634149 0.076809,-1.33628 0.2704585,-2.097342 0.02855,-0.112206 0.1484604,-0.250472 0.1841419,-0.366511 -0.078121,-0.182666 -0.1363794,-0.3727 -0.1956506,-0.562232 z m 48.0322244,0.03072 -0.210994,0.07097 c 0.314298,1.181174 0.442066,2.208972 0.479533,3.133533 0.01861,-0.944849 -0.02318,-1.983876 -0.268539,-3.204534 z"
       id="path5" />
  </g>
</svg>
