<?xml version="1.0" encoding="UTF-8" standalone="no"?>
<svg
   width="62"
   height="62"
   version="1"
   id="svg15"
   sodipodi:docname="aseprite.svg"
   inkscape:version="1.4 (unknown)"
   xmlns:inkscape="http://www.inkscape.org/namespaces/inkscape"
   xmlns:sodipodi="http://sodipodi.sourceforge.net/DTD/sodipodi-0.dtd"
   xmlns="http://www.w3.org/2000/svg"
   xmlns:svg="http://www.w3.org/2000/svg">
  <defs
     id="defs15" />
  <sodipodi:namedview
     id="namedview15"
     pagecolor="#ffffff"
     bordercolor="#000000"
     borderopacity="0.25"
     inkscape:showpageshadow="2"
     inkscape:pageopacity="0.0"
     inkscape:pagecheckerboard="0"
     inkscape:deskcolor="#d1d1d1"
     inkscape:zoom="12.109375"
     inkscape:cx="32"
     inkscape:cy="35.468387"
     inkscape:window-width="1920"
     inkscape:window-height="998"
     inkscape:window-x="0"
     inkscape:window-y="0"
     inkscape:window-maximized="1"
     inkscape:current-layer="svg15" />
  <g
     id="g15"
     transform="translate(-0.5,-1)">
    <path
       style="opacity:0.2;stroke-width:0.982299"
       d="m 4,55.087719 v 0.982456 h 3.9285714 v -0.982456 z m 51.071428,0 v 0.982456 0 H 59 V 55.087719 Z M 7.9285714,59.017544 V 60 h 3.9285716 39.285714 3.928571 V 59.017544 H 51.142857 11.857143 Z"
       id="path1" />
    <rect
       style="fill:#ffffff;stroke-width:0.982299"
       width="47.142857"
       height="47.157894"
       x="7.9285717"
       y="7.9298248"
       id="rect1" />
    <path
       style="fill:#5c3e52;stroke-width:0.982299"
       d="M 11.857143,4 V 7.9298245 H 51.142857 V 4 Z m 39.285714,3.9298245 v 3.9298245 h 3.928571 V 7.9298245 Z m 3.928571,3.9298245 V 51.157895 H 59 V 11.859649 Z m 0,39.298246 h -3.928571 v 3.929824 h 3.928571 z m -3.928571,3.929824 H 11.857143 v 3.929825 h 39.285714 z m -39.285714,0 V 51.157895 H 7.9285714 v 3.929824 z M 7.9285714,51.157895 V 11.859649 H 4 v 39.298246 z m 0,-39.298246 H 11.857143 V 7.9298245 H 7.9285714 Z m 11.7857136,7.859649 v 15.719298 h 3.928572 V 19.719298 Z m 19.642858,0 v 15.719298 h 3.928571 V 19.719298 Z"
       id="path2" />
    <path
       style="fill:#354a64;stroke-width:0.982299;fill-opacity:1"
       d="m 7.9285714,43.298245 v 7.85965 h 3.9285716 v 3.929824 h 39.285714 v -3.929824 h 3.928571 v -7.85965 H 51.142857 V 47.22807 H 11.857143 v -3.929825 z"
       id="path3" />
    <rect
       style="opacity:0.2;stroke-width:0.982299"
       width="3.9285715"
       height="0.98245615"
       x="4"
       y="11.859651"
       id="rect3" />
    <rect
       style="opacity:0.2;stroke-width:0.982299"
       width="3.9285715"
       height="0.98245615"
       x="7.9285717"
       y="7.9298248"
       id="rect4" />
    <rect
       style="opacity:0.2;stroke-width:0.982299"
       width="3.9285715"
       height="0.98245615"
       x="51.142857"
       y="7.9298248"
       id="rect5" />
    <rect
       style="opacity:0.2;stroke-width:0.982299"
       width="3.9285715"
       height="0.98245615"
       x="55.071426"
       y="11.859651"
       id="rect6" />
    <rect
       style="opacity:0.2;stroke-width:0.982299"
       width="3.9285715"
       height="0.98245615"
       x="7.9285717"
       y="43.288422"
       id="rect7" />
    <rect
       style="opacity:0.2;stroke-width:0.982299"
       width="3.9285715"
       height="0.98245615"
       x="7.9285717"
       y="51.157894"
       id="rect8" />
    <rect
       style="opacity:0.2;stroke-width:0.982299"
       width="3.9285715"
       height="0.98245615"
       x="51.142857"
       y="43.288422"
       id="rect9" />
    <rect
       style="opacity:0.2;stroke-width:0.982299"
       width="3.9285715"
       height="0.98245615"
       x="51.142857"
       y="51.157894"
       id="rect10" />
    <rect
       style="opacity:0.2;stroke-width:0.982299"
       width="39.285713"
       height="0.98245615"
       x="11.857144"
       y="47.228073"
       id="rect11" />
    <rect
       style="opacity:0.2;stroke-width:0.982299"
       width="39.285713"
       height="0.98245615"
       x="11.857144"
       y="55.087719"
       id="rect12" />
    <path
       style="opacity:0.1;stroke-width:0.982299"
       d="m 19.714285,35.438596 v 0.982457 h 3.928572 v -0.982457 z m 19.642858,0 v 0.982457 h 3.928571 v -0.982457 z"
       id="path12" />
    <path
       style="fill:#825873;stroke-width:0.982299"
       d="M 7.9285714,4 V 7.9298245 H 11.857143 V 4 Z m 0,3.9298245 H 4 V 11.859649 H 7.9285714 Z M 51.142857,4 v 3.9298245 h 3.928571 V 4 Z m 3.928571,3.9298245 V 11.859649 H 59 V 7.9298245 Z M 4,51.157895 v 3.929824 h 3.9285714 v -3.929824 z m 3.9285714,3.929824 v 3.929825 H 11.857143 V 55.087719 Z M 55.071428,51.157895 v 3.929824 H 59 v -3.929824 z m 0,3.929824 h -3.928571 v 3.929825 h 3.928571 z"
       id="path13" />
    <path
       style="opacity:0.1;fill:#ffffff;stroke-width:0.982299"
       d="m 7.9285714,4 v 0.9824562 h 3.9285716 39.285714 3.928571 V 4 H 51.142857 11.857143 Z M 4,7.9298245 V 8.9122807 H 7.9285714 V 7.9298245 Z m 51.071428,0 v 0.9824562 0 H 59 V 7.9298245 Z"
       id="path14" />
    <path
       style="opacity:0.1;fill:#ffffff;stroke-width:0.982299"
       d="m 4,51.157895 v 0.982456 h 3.9285714 v -0.982456 z m 51.071428,0 v 0.982456 H 59 V 51.157895 Z M 7.9285714,55.087719 v 0.982456 h 3.9285716 v -0.982456 z m 43.2142856,0 v 0.982456 h 3.928571 v -0.982456 z"
       id="path15" />
  </g>
</svg>
