<?xml version="1.0" encoding="UTF-8" standalone="no"?>
<svg
   width="62"
   height="62"
   version="1.1"
   id="svg12"
   sodipodi:docname="aspia_console.svg"
   inkscape:version="1.4 (unknown)"
   xmlns:inkscape="http://www.inkscape.org/namespaces/inkscape"
   xmlns:sodipodi="http://sodipodi.sourceforge.net/DTD/sodipodi-0.dtd"
   xmlns="http://www.w3.org/2000/svg"
   xmlns:svg="http://www.w3.org/2000/svg">
  <defs
     id="defs12" />
  <sodipodi:namedview
     id="namedview12"
     pagecolor="#ffffff"
     bordercolor="#000000"
     borderopacity="0.25"
     inkscape:showpageshadow="2"
     inkscape:pageopacity="0.0"
     inkscape:pagecheckerboard="0"
     inkscape:deskcolor="#d1d1d1"
     inkscape:zoom="7.0710678"
     inkscape:cx="37.759502"
     inkscape:cy="34.011836"
     inkscape:window-width="1920"
     inkscape:window-height="998"
     inkscape:window-x="0"
     inkscape:window-y="0"
     inkscape:window-maximized="1"
     inkscape:current-layer="svg12" />
  <g
     id="g12"
     transform="translate(-1,-1.5)">
    <rect
       style="opacity:0.2"
       width="42"
       height="34"
       x="18"
       y="10"
       rx="4.1999998"
       id="rect1" />
    <rect
       style="fill:#e5e5e5;fill-opacity:1"
       width="42"
       height="34"
       x="18"
       y="9"
       rx="4.1999998"
       id="rect2" />
    <rect
       style="opacity:0.2;fill:#ffffff"
       width="34"
       height="1"
       x="22"
       y="39"
       id="rect3" />
    <rect
       style="fill:#2d3d53;fill-opacity:1"
       width="34"
       height="26"
       x="22"
       y="13"
       id="rect4" />
    <rect
       style="opacity:0.2"
       width="42"
       height="34"
       x="4"
       y="22"
       rx="4.1999998"
       id="rect5" />
    <rect
       style="fill:#f2f2f2;fill-opacity:1"
       width="42"
       height="34"
       x="4"
       y="21"
       rx="4.1999998"
       id="rect6" />
    <rect
       style="fill:#354a64;fill-opacity:1"
       width="34"
       height="26"
       x="8"
       y="25"
       id="rect7" />
    <path
       style="opacity:0.2"
       d="m 11,29 v 2.068359 L 14.699219,33.179688 11,34.931641 V 37 l 6,-3.365234 v -0.814454 z m 6,6 v 2 h 6 v -2 z"
       id="path7" />
    <path
       style="fill:#00d656;fill-opacity:1"
       d="m 11,28 v 2.068359 L 14.699219,32.179688 11,33.931641 V 36 l 6,-3.365234 v -0.814454 z m 6,6 v 2 h 6 v -2 z"
       id="path8" />
    <path
       style="opacity:0.2;fill:#ffffff"
       d="M 22.199219,9 C 19.87242,9 18,10.872419 18,13.199219 v 1 C 18,11.872419 19.87242,10 22.199219,10 H 55.800781 C 58.127581,10 60,11.872419 60,14.199219 v -1 C 60,10.872419 58.127581,9 55.800781,9 Z"
       id="path9" />
    <path
       style="opacity:0.2;fill:#ffffff"
       d="M 8.1992188,21 C 5.8724187,21 4,22.872419 4,25.199219 v 1 C 4,23.872419 5.8724187,22 8.1992188,22 H 41.800781 C 44.127581,22 46,23.872419 46,26.199219 v -1 C 46,22.872419 44.127581,21 41.800781,21 Z"
       id="path10" />
    <rect
       style="opacity:0.2"
       width="34"
       height="1"
       x="8"
       y="25"
       id="rect10" />
    <rect
       style="opacity:0.2;fill:#ffffff"
       width="34"
       height="1"
       x="8"
       y="51"
       id="rect11" />
    <rect
       style="opacity:0.2"
       width="34"
       height="1"
       x="22"
       y="13"
       id="rect12" />
  </g>
</svg>
