<?xml version="1.0" encoding="UTF-8" standalone="no"?>
<svg
   width="62"
   height="62"
   version="1.1"
   id="svg29"
   sodipodi:docname="avocado.svg"
   inkscape:version="1.4 (unknown)"
   xml:space="preserve"
   xmlns:inkscape="http://www.inkscape.org/namespaces/inkscape"
   xmlns:sodipodi="http://sodipodi.sourceforge.net/DTD/sodipodi-0.dtd"
   xmlns:xlink="http://www.w3.org/1999/xlink"
   xmlns="http://www.w3.org/2000/svg"
   xmlns:svg="http://www.w3.org/2000/svg"><defs
     id="defs29"><linearGradient
       id="linearGradient29"
       inkscape:collect="always"><stop
         style="stop-color:#d3dce7;stop-opacity:1;"
         offset="0"
         id="stop29" /><stop
         style="stop-color:#eef1f6;stop-opacity:1;"
         offset="1"
         id="stop30" /></linearGradient><linearGradient
       inkscape:collect="always"
       xlink:href="#linearGradient29"
       id="linearGradient30"
       x1="30.782633"
       y1="60"
       x2="30.193521"
       y2="5"
       gradientUnits="userSpaceOnUse"
       gradientTransform="matrix(0.98214286,0,0,0.98245614,-0.42857152,-0.92982455)" /><linearGradient
       id="linearGradient3564"><stop
         style="stop-color:#b20607;stop-opacity:1;"
         offset="0"
         id="stop3566" /><stop
         style="stop-color:#b20607;stop-opacity:0;"
         offset="1"
         id="stop3568" /></linearGradient><linearGradient
       id="linearGradient3570"><stop
         style="stop-color:#fdea20;stop-opacity:1;"
         offset="0"
         id="stop3572" /><stop
         style="stop-color:#e9680a;stop-opacity:1;"
         offset="1"
         id="stop3574" /></linearGradient><linearGradient
       id="linearGradient3409"><stop
         style="stop-color:#fbd90a;stop-opacity:1;"
         offset="0"
         id="stop3411" /><stop
         id="stop3413"
         offset="0.3980374"
         style="stop-color:#fbd90a;stop-opacity:1;" /><stop
         style="stop-color:#df500a;stop-opacity:1;"
         offset="1"
         id="stop3415" /></linearGradient><linearGradient
       id="linearGradient4029"><stop
         style="stop-color:#fbd90a;stop-opacity:1;"
         offset="0"
         id="stop4031" /><stop
         id="stop4033"
         offset="0.40341854"
         style="stop-color:#fbd90a;stop-opacity:1;" /><stop
         style="stop-color:#df500a;stop-opacity:1;"
         offset="1"
         id="stop4035" /></linearGradient><linearGradient
       id="linearGradient3355"><stop
         id="stop3357"
         offset="0"
         style="stop-color:#fbd90a;stop-opacity:1;" /><stop
         style="stop-color:#fbd90a;stop-opacity:1;"
         offset="0.61271751"
         id="stop3359" /><stop
         id="stop3361"
         offset="1"
         style="stop-color:#df500a;stop-opacity:1;" /></linearGradient><linearGradient
       id="linearGradient3323"><stop
         style="stop-color:#fbd90a;stop-opacity:1;"
         offset="0"
         id="stop3325" /><stop
         id="stop3345"
         offset="0.67312354"
         style="stop-color:#fbd90a;stop-opacity:1;" /><stop
         style="stop-color:#df500a;stop-opacity:1;"
         offset="1"
         id="stop3327" /></linearGradient><linearGradient
       id="linearGradient3681"><stop
         style="stop-color:#b3b3b3;stop-opacity:1;"
         offset="0"
         id="stop3683" /><stop
         style="stop-color:#ffffff;stop-opacity:1;"
         offset="1"
         id="stop3685" /></linearGradient></defs><sodipodi:namedview
     id="namedview29"
     pagecolor="#ffffff"
     bordercolor="#000000"
     borderopacity="0.25"
     inkscape:showpageshadow="2"
     inkscape:pageopacity="0.0"
     inkscape:pagecheckerboard="0"
     inkscape:deskcolor="#d1d1d1"
     inkscape:zoom="7.0710678"
     inkscape:cx="20.576807"
     inkscape:cy="48.578236"
     inkscape:window-width="1920"
     inkscape:window-height="998"
     inkscape:window-x="0"
     inkscape:window-y="0"
     inkscape:window-maximized="1"
     inkscape:current-layer="svg29" /><rect
     style="opacity:0.2;stroke-width:0.9823"
     width="55"
     height="55.017544"
     x="3.5"
     y="3.9824562"
     ry="13.754386"
     id="rect1" /><rect
     style="fill:url(#linearGradient30);stroke-width:0.9823"
     width="55"
     height="55.017544"
     x="3.5"
     y="3"
     ry="13.754386"
     id="rect2" /><path
     style="opacity:0.1;fill:#ffffff;stroke-width:0.9823"
     d="M 17.25,3 C 9.6324999,3 3.4999999,9.1344561 3.4999999,16.754386 v 0.982456 c 0,-7.61993 6.1325,-13.7543858 13.7500001,-13.7543858 h 27.5 c 7.6175,0 13.75,6.1344558 13.75,13.7543858 V 16.754386 C 58.5,9.1344561 52.3675,3 44.75,3 Z"
     id="path28" /><g
     id="g1"
     transform="matrix(1.0937167,0,0,1.0909092,8.0314168,-59.000007)"><path
       style="opacity:0.1"
       d="m 30.589844,67.000426 c -1.15944,-0.0013 -1.852458,0.05241 -2.488282,0.1875 -1.087906,0.231142 -3.165214,0.925877 -3.945312,1.320313 -1.228686,0.621262 -3.582592,1.56765 -5.8125,2.335938 -7.207916,2.4834 -11.036782,5.704814 -12.691406,10.679688 -1.08982,3.276714 -0.803017,7.020038 0.78125,10.14453 1.294794,2.55359 3.414678,4.669062 5.964844,5.953126 1.240412,0.624578 3.357042,1.219186 4.816406,1.355468 0.796184,0.07434 2.813242,-0.0412 3.628906,-0.20703 1.947718,-0.39603 3.892112,-1.250528 5.476562,-2.40625 0.762196,-0.555962 2.23953,-2.04612 2.902344,-2.929688 1.40215,-1.869146 2.795696,-4.605702 3.69922,-7.269532 0.738956,-2.178634 1.451068,-4.001726 2.335936,-5.972656 0.384734,-0.856956 0.823116,-1.933582 0.972656,-2.390624 1.539686,-4.705446 0.735952,-8.572754 -2.089844,-10.054689 -1.201358,-0.630034 -1.74411,-0.744094 -3.55078,-0.746094 z"
       id="path2" /><path
       style="fill:#90d12e;fill-opacity:1"
       d="M 16.443916,97.194537 C 13.617806,96.717013 11.117268,95.389881 9.17242,93.335287 6.875405,90.908649 5.677177,87.896173 5.677177,84.547861 c 0,-4.545748 2.132111,-8.349462 6.202039,-11.064512 2.048368,-1.366466 3.560742,-2.072438 7.045518,-3.28883 1.200712,-0.419119 2.875268,-1.072221 3.721218,-1.451334 3.685778,-1.651769 5.219816,-2.076945 7.49207,-2.076516 2.0802,3.99e-4 3.522354,0.499203 4.621686,1.598533 1.039972,1.039975 1.481076,2.226419 1.55268,4.176279 0.08462,2.305994 -0.33223,4.029422 -1.740376,7.194364 -0.861458,1.93621 -1.639422,3.95214 -2.221094,5.755492 -0.615152,1.907144 -1.917748,4.485228 -3.108558,6.152422 -2.30796,3.231248 -5.183546,5.067556 -8.873668,5.666602 -1.04775,0.17008 -2.867908,0.16274 -3.924776,-0.0158 z M 15.084082,84.438763 c 0.651706,-1.185728 1.369818,-1.831406 2.75329,-2.47558 1.023922,-0.476762 1.908354,-0.747936 2.880234,-0.883114 0.455598,-0.06332 0.85117,-0.17662 0.959612,-0.274782 0.270414,-0.24472 0.19844,-0.797624 -0.1362,-1.04638 -0.243836,-0.18126 -0.320734,-0.18654 -1.141174,-0.07826 -1.822956,0.24052 -4.055258,1.231916 -5.269772,2.340376 -0.717988,0.6553 -1.315824,1.595508 -1.315824,2.069396 0,0.37031 0.326094,0.655932 0.74886,0.655932 0.291024,0 0.381184,-0.05328 0.52097,-0.30756 z"
       id="path3" /><path
       style="opacity:0.1"
       d="m 16.104832,92.871431 c -4.10277,-0.92029 -6.270602,-5.299006 -4.4608,-9.010182 0.44243,-0.907244 1.037912,-1.637012 1.900708,-2.329334 2.14131,-1.718222 5.809904,-2.844718 7.993576,-2.45454 2.040242,0.36455 3.05258,1.414944 3.400638,3.52848 0.39248,2.383274 -1.161672,6.662828 -3.107402,8.556616 -1.496754,1.456798 -3.794284,2.142422 -5.72672,1.70896 z"
       id="path4" /><path
       style="fill:#b97513;fill-opacity:1"
       d="m 16.104832,91.871431 c -4.10277,-0.92029 -6.270602,-5.299006 -4.4608,-9.010182 0.44243,-0.907244 1.037912,-1.637012 1.900708,-2.329334 2.14131,-1.718222 5.809904,-2.844718 7.993576,-2.45454 2.040242,0.36455 3.05258,1.414944 3.400638,3.52848 0.39248,2.383274 -1.161672,6.662828 -3.107402,8.556616 -1.496754,1.456798 -3.794284,2.142422 -5.72672,1.70896 z"
       id="path5" /><path
       style="opacity:0.1"
       d="m 13.124428,85.768185 c 0.14098,-0.06566 0.432092,-0.425246 0.646906,-0.79906 0.235126,-0.40916 0.649254,-0.89534 1.04053,-1.221568 1.181958,-0.985474 3.41342,-1.889536 5.086998,-2.060972 1.125094,-0.11524 1.554912,-0.721094 1.0063,-1.418424 -0.1995,-0.253572 -0.31518,-0.293982 -0.841654,-0.293982 -1.386936,0 -3.654994,0.731076 -5.336826,1.720256 -2.043208,1.201716 -3.322506,3.273186 -2.446798,3.961902 0.333362,0.262176 0.480084,0.28161 0.844544,0.11184 z"
       id="path6" /><path
       style="fill:#ffffff"
       d="m 13.124428,84.768185 c 0.14098,-0.06566 0.432092,-0.425246 0.646906,-0.79906 0.235126,-0.40916 0.649254,-0.89534 1.04053,-1.221568 1.181958,-0.985474 3.41342,-1.889536 5.086998,-2.060972 1.125094,-0.11524 1.554912,-0.721094 1.0063,-1.418424 -0.1995,-0.253572 -0.31518,-0.293982 -0.841654,-0.293982 -1.386936,0 -3.654994,0.731076 -5.336826,1.720256 -2.043208,1.201716 -3.322506,3.273186 -2.446798,3.961902 0.333362,0.262176 0.480084,0.28161 0.844544,0.11184 z"
       id="path7" /><path
       style="fill:#233143;fill-opacity:1"
       d="M 17.214126,97.976871 C 15.754762,97.840589 13.637838,97.243993 12.397426,96.619415 9.84726,95.335351 7.72962,93.221727 6.434825,90.668137 4.850558,87.543645 4.561434,83.800593 5.651254,80.523879 c 1.654624,-4.974874 5.484348,-8.197784 12.692264,-10.681185 2.229908,-0.768288 4.58512,-1.714533 5.813806,-2.335794 0.780098,-0.394436 2.857654,-1.090196 3.94556,-1.321338 0.635824,-0.13509 1.329422,-0.186796 2.488862,-0.18554 1.80667,0.002 2.346298,0.115334 3.547658,0.745368 2.825796,1.481936 3.629864,5.350245 2.090178,10.055691 -0.14954,0.457042 -0.586696,1.532126 -0.97143,2.389082 -0.884868,1.97093 -1.598302,3.794066 -2.337258,5.9727 -0.903524,2.66383 -2.296262,5.40197 -3.698412,7.271116 -0.662814,0.883568 -2.138478,2.37426 -2.900674,2.930222 -1.58445,1.155722 -3.530376,2.010604 -5.478094,2.406634 -0.815664,0.16584 -2.833404,0.280384 -3.629588,0.206036 z m 2.540712,-1.399244 c 3.368178,-0.413438 6.394924,-2.23329 8.53203,-5.129944 1.225986,-1.66171 2.538942,-4.211132 3.183196,-6.180946 0.647454,-1.979588 1.55956,-4.361226 2.37573,-6.203358 1.27491,-2.877532 1.678782,-4.266176 1.790856,-6.157538 0.21854,-3.688105 -1.508382,-5.602157 -5.059372,-5.607612 -1.86331,-0.0028 -3.808696,0.505167 -6.35389,1.659287 -2.07088,0.939042 -3.232548,1.396223 -5.66113,2.227973 -4.555394,1.560152 -7.854696,3.634448 -9.758045,6.134956 -2.819604,3.704238 -3.254599,8.70923 -1.115284,12.832252 0.663783,1.27928 1.309983,2.135234 2.412103,3.195052 2.579738,2.480726 6.116616,3.66406 9.653806,3.229878 z"
       id="path8" /></g></svg>
