<?xml version="1.0" encoding="UTF-8" standalone="no"?>
<svg
   width="62"
   height="62"
   version="1"
   id="svg7"
   sodipodi:docname="awgg.svg"
   inkscape:version="1.4.2 (unknown)"
   xmlns:inkscape="http://www.inkscape.org/namespaces/inkscape"
   xmlns:sodipodi="http://sodipodi.sourceforge.net/DTD/sodipodi-0.dtd"
   xmlns="http://www.w3.org/2000/svg"
   xmlns:svg="http://www.w3.org/2000/svg">
  <defs
     id="defs7" />
  <sodipodi:namedview
     id="namedview7"
     pagecolor="#ffffff"
     bordercolor="#000000"
     borderopacity="0.25"
     inkscape:showpageshadow="2"
     inkscape:pageopacity="0.0"
     inkscape:pagecheckerboard="0"
     inkscape:deskcolor="#d1d1d1"
     showgrid="false"
     inkscape:zoom="11.921875"
     inkscape:cx="32"
     inkscape:cy="32"
     inkscape:current-layer="svg7">
    <inkscape:grid
       id="grid7"
       units="px"
       originx="0"
       originy="0"
       spacingx="1"
       spacingy="1"
       empcolor="#0099e5"
       empopacity="0.30196078"
       color="#0099e5"
       opacity="0.14901961"
       empspacing="5"
       enabled="true"
       visible="false" />
  </sodipodi:namedview>
  <g
     id="g7"
     transform="translate(-0.5,-1)">
    <rect
       style="opacity:0.2;stroke-width:0.982302"
       width="54.999973"
       height="55.017544"
       x="4"
       y="4.9824567"
       rx="27.499987"
       ry="27.508772"
       id="rect1" />
    <rect
       style="fill:#adceff;stroke-width:0.982302;fill-opacity:1"
       width="54.999973"
       height="55.017544"
       x="4"
       y="4"
       rx="27.499987"
       ry="27.508772"
       id="rect2" />
    <path
       style="opacity:0.1;stroke-width:0.982302"
       d="m 31.642358,6.3576624 c -2.120909,0.1504406 -4.195687,0.5399246 -6.219029,1.1960291 -0.721863,0.028182 -2.290668,0.9581818 -1.024904,1.3946883 0.589041,0.629502 1.99527,0.8298064 1.82451,1.8583742 0.227164,0.904123 -2.100793,0.863099 -1.325974,1.681975 0.549413,0.723302 1.098822,1.446601 1.648236,2.169908 1.014519,-0.325949 1.349262,-1.365282 1.912103,-2.165241 1.566679,-0.69123 3.784045,-0.900074 4.819395,-2.230296 C 33.60114,9.3221591 33.925572,8.3812203 34.250015,7.4402809 33.380796,7.0794084 32.511574,6.7185354 31.642358,6.3576624 Z M 24.101355,6.5994379 C 23.129642,6.4945637 22.508007,7.0919698 21.782644,7.4836121 20.889793,7.5929975 19.881011,7.9253962 19.318405,8.6437879 20.319956,9.0984531 20.950683,8.6138819 21.815216,8.2705591 22.617891,7.8592011 25.34796,7.687576 24.101355,6.5994379 Z M 17.830619,9.484631 c -0.499607,0.762836 0.350915,1.866913 -0.791934,2.267253 -0.564129,0.714358 -1.05712,1.886913 0.352897,1.461472 0.344933,-1.058523 1.416468,-2.543411 2.635862,-1.923446 1.228268,0.330111 2.364979,2.394726 3.367809,0.759416 -4.09e-4,-0.42528 -1.559915,-0.674127 -1.525067,-1.714646 -0.693955,-0.297804 -2.17737,0.24339 -2.125521,-0.8388934 C 18.742093,9.0504822 18.453397,11.269341 18.098087,10.029204 18.008934,9.8476773 17.91977,9.6661544 17.830619,9.484631 Z m 27.215269,0.961734 c -1.186612,0.237358 -2.358623,0.508494 -3.295159,1.324394 0.271835,1.087097 -1.130262,1.270053 -1.753824,1.873515 -0.452461,0.255399 0.0084,2.228271 0.404639,1.922078 0.842924,-1.112417 1.278906,-0.152827 2.062533,0.396505 0.705256,0.655261 1.153105,-1.216802 0.778475,-1.744498 -0.219805,-0.850504 0.849498,-1.479701 1.234305,-2.176247 1.17641,-0.754875 0.182365,0.963063 0.144717,1.562885 -0.593844,1.772453 2.634056,0.05342 0.506323,1.378009 -0.570732,0.57014 -0.779707,1.414736 -1.656671,1.836097 -0.473522,0.578157 -2.280785,0.30713 -2.037385,-0.59471 -0.65997,-1.034701 -0.497066,1.245357 -0.721273,1.234414 -1.093726,-0.326035 -1.419248,0.895223 -2.105197,1.479527 -0.524933,0.603286 -2.378084,0.22894 -0.994533,1.163428 1.009068,1.164738 -0.201104,0.94932 -1.035856,1.259575 -1.179644,0.203212 -0.982436,1.230959 -0.951969,2.15886 0.0182,0.511395 1.150367,1.270118 1.723685,0.913402 1.145257,-0.122711 0.856302,-1.528647 1.702451,-1.957415 0.703042,-0.602 1.196447,-1.15723 2.252074,-1.171642 0.487371,0.465263 1.472468,1.164759 1.871919,1.545117 -1.102433,1.201564 0.506369,1.103685 0.660264,0.0092 0.543811,-0.602831 -1.79122,-2.021321 -0.251402,-1.39807 1.019279,0.336349 0.784851,1.37794 1.238329,2.081083 0.806077,1.363076 0.892398,0.345924 0.967459,-0.708472 1.339271,-0.420836 1.702206,2.332832 3.507312,1.687059 1.352823,0.355576 0.711738,1.230613 -0.142428,1.795641 -0.780103,0.569136 -1.943308,0.179027 -2.799495,-0.129924 -0.846999,-0.435006 -1.867795,-0.185599 -2.313681,0.679519 -0.989843,-0.854507 -1.690471,-2.21196 -3.128458,-2.287159 -1.361533,-0.07051 -2.736027,0.291582 -4.049993,0.661889 -1.455861,1.709099 -3.030924,3.373674 -3.709264,5.55819 -0.704129,0.865586 0.80409,1.384114 -0.342342,2.171897 -0.798156,0.745464 0.271823,1.666247 0.437027,2.502115 0.858941,1.018945 2.175819,4.370528 3.502283,3.074074 0.746506,-1.17987 1.241506,0.772844 2.119357,-0.452541 0.738837,-0.674598 1.337251,0.677843 2.373321,0.196788 0.921375,0.459412 1.001482,1.359977 0.514615,2.221687 -0.312645,0.87495 1.354488,1.234678 0.880135,2.256113 -0.223604,0.998853 0.214434,1.846764 0.710454,2.681457 -1.10253,1.151259 -0.969664,2.856562 -0.694414,4.299144 0.539452,1.977689 1.311996,3.961094 1.23484,6.043492 0.966033,0.25348 1.678686,-0.386571 2.47754,-0.722642 1.524805,0.215769 2.354249,-1.411786 3.301097,-2.345227 -0.711285,-0.956442 0.584332,-1.369242 1.119872,-1.987936 -0.801097,-0.693163 -1.3319,-1.366108 -0.09171,-1.906588 0.572108,-0.581249 1.643877,-0.90987 1.831805,-1.720702 -0.492669,-1.468645 -0.212099,-3.028962 -0.284561,-4.54742 0.607419,-1.22462 1.252333,-2.423181 2.261218,-3.368746 0.402352,-1.327983 1.369414,-2.545152 1.275631,-3.970495 -2.351636,0.703787 -1.641553,-0.298955 -0.338359,-1.25219 0.904387,-0.663489 2.190252,-1.282364 2.465309,-2.413611 0.197366,-1.116473 -0.674888,-2.850025 -1.433741,-1.209635 -0.368636,-0.522761 -1.667229,-1.007526 -1.649261,-1.828117 -0.278097,-1.654844 0.447349,-0.660881 1.092294,0.1206 1.500084,-1.11237 3.457887,3.070081 2.824714,0.08572 -0.857696,-6.458729 -4.131606,-12.560771 -9.035645,-16.847489 -0.448443,0.477698 -1.196839,2.258638 -1.739875,1.230687 -0.768781,-0.815808 -1.372138,-1.552355 0.193833,-1.249495 1.53472,-0.416601 0.0062,-0.658865 -0.7986,-0.753881 -0.806785,-0.09421 -1.554975,-0.389805 -2.314774,-0.659161 z m -30.037779,0.04032 c -1.015282,0.391182 0.505605,1.882653 -1.314711,1.405054 -1.99571,0.90459 -3.32512,3.099911 -4.71219,4.809318 -3.2355358,4.574018 -4.9946596,10.163705 -4.9811296,15.76574 0.5308984,1.096148 1.8384835,1.467594 2.8167409,2.072732 0.9942046,0.340241 2.2462697,0.288831 2.741086,1.387553 0.5534147,0.579708 1.2959607,1.357147 2.0866157,1.419993 1.214938,-0.389449 1.386256,0.712479 0.773325,1.527687 -0.06634,0.89288 -1.059866,1.612997 -0.949139,2.398261 0.221347,0.879898 -1.106617,1.849024 -0.212028,2.65405 0.94115,1.683067 1.948372,3.317517 3.221161,4.771247 0.791656,0.693804 0.697776,1.649031 0.607415,2.603222 -0.314165,1.008427 0.638703,1.591846 1.150152,2.323335 -1.246315,2.285752 2.129395,2.742655 3.542231,3.742157 0.710311,-0.649773 0.766771,-1.701461 1.945177,-1.730733 0.714583,-0.500813 0.867143,-1.631296 1.357912,-2.382861 -0.01569,-0.798365 -0.526829,-1.544479 0.302936,-2.413966 0.625214,-0.52787 1.915376,-0.175879 2.148125,-1.277884 0.849288,-0.875096 0.162094,-2.087923 0.162098,-3.149697 0.659716,-0.903971 1.797811,-1.597868 1.671574,-2.846998 0.14291,-1.86303 -3.210138,-1.779269 -4.391681,-2.908819 -1.4523,-0.04178 -1.158572,-2.021256 -2.289103,-2.284276 -1.122401,0.05644 -1.530467,-0.823192 -1.928296,-1.716234 -0.618182,-0.421731 -1.781661,0.43535 -2.428512,-0.09318 -0.732687,-0.386131 -1.389978,-1.826415 -2.214664,-0.926333 -1.085464,0.787254 -2.152886,1.587019 -3.182601,0.26896 -0.667779,-0.601957 0.171244,-2.310644 -0.774243,-2.203026 -2.0184287,0.730264 0.639698,-2.932767 -1.249798,-2.446769 -0.4475069,0.701664 -1.3058769,1.784349 -2.1405222,0.954014 -0.8381607,-0.394484 -0.4246995,-1.677248 -0.3873265,-2.445417 0.03622,-0.89856 1.1730525,-1.346592 1.826355,-1.756452 1.2670887,0.566876 1.0070374,-1.122422 2.0660317,-0.55774 1.027291,-0.218849 1.491131,1.42967 1.908235,1.491082 0.245122,-0.812125 -0.197393,-1.999067 0.556051,-2.534109 0.880349,-0.741245 2.042211,-1.268463 2.25953,-2.5138 0.01802,-1.33045 1.631972,-0.209231 2.032617,-1.115169 0.369389,-1.038128 1.446804,-0.973261 2.356869,-1.169086 0.497791,-0.462017 1.748936,-1.885064 0.203277,-1.467839 -0.562956,-0.0761 -2.829297,0.225667 -1.290361,-0.316833 0.75805,-0.57403 1.676835,-0.49443 2.527823,-0.607213 0.670164,-0.567559 1.841719,-0.757672 1.893161,-1.791018 -0.556214,-0.756722 -1.734469,-0.612678 -1.234276,-1.697999 -0.0483,-1.41972 -1.298378,-0.508274 -1.709021,-0.616279 0.666954,-0.928397 -0.867245,-1.512963 -1.38214,-1.526038 -0.349964,0.874938 -1.333878,1.629779 -0.986565,2.636807 -1.025838,0.166657 -1.506425,0.909396 -1.814766,1.834116 -0.307556,0.107214 -0.207559,-1.813553 -1.384699,-1.636592 -0.831479,-0.01968 -1.859403,-1.26122 -0.983959,-1.749951 1.200179,-0.759609 2.692404,-1.354162 3.451364,-2.567472 0.436425,-1.086665 -0.368426,-1.753698 -1.440207,-1.599342 l -0.149436,-0.01072 z m 20.192862,1.251212 c -0.662399,0.515471 -1.999593,0.159436 -2.281943,0.656459 -0.118767,1.002387 1.437226,0.986715 2.058696,0.43333 1.015632,-0.375635 0.970393,-0.307069 0.223247,-1.089789 z m -14.714356,0.513746 c -1.407707,0.414309 -0.257333,1.336678 0.661624,1.324395 1.096398,-0.08842 0.07628,-1.316462 -0.661624,-1.324395 z m 16.787318,2.766988 c -0.100661,0.897015 0.760697,1.457111 0.404927,2.434361 -0.560189,1.23099 0.233322,1.600655 1.190681,0.843999 1.278549,-0.782532 -0.958109,-2.496796 -1.25609,-3.27836 -0.113178,0 -0.226346,0 -0.339518,0 z m -0.421631,1.442595 c -1.148941,-0.282537 -0.785464,2.122857 0.0041,1.294787 0.850163,-0.148438 0.03383,-0.803765 -0.0041,-1.294787 z M 22.18925,18.62915 c 0.168685,0.912191 0.229325,2.358304 0.896946,0.80497 -9.41e-4,-0.301921 -0.659599,-0.538024 -0.896946,-0.80497 z m 27.74433,9.378219 c 1.350394,1.177871 1.897457,2.883636 2.658681,4.448676 1.13265,0.594833 0.462154,1.504615 0.619926,2.269071 1.577015,1.381102 -1.597022,0.645518 -1.211864,-0.861291 -0.257359,-1.750119 -1.381061,-2.918314 -2.298792,-4.183965 -0.07215,-0.669966 -0.790613,-1.434139 0.232049,-1.672491 z"
       id="path2" />
    <path
       style="fill:#00a489;stroke-width:0.982302;fill-opacity:1"
       d="m 31.642358,5.3754755 c -2.120909,0.1504406 -4.195687,0.5399248 -6.219029,1.1960291 -0.721863,0.028182 -2.290668,0.9581821 -1.024904,1.3946884 0.589041,0.629502 1.99527,0.8298063 1.82451,1.8583746 0.227164,0.9041164 -2.100793,0.8630994 -1.325974,1.6819694 0.549413,0.723308 1.098822,1.446606 1.648236,2.169914 1.014519,-0.325949 1.349262,-1.365282 1.912103,-2.165241 1.566679,-0.691236 3.784045,-0.900074 4.819395,-2.2302984 0.324445,-0.9409393 0.648877,-1.881878 0.97332,-2.8228174 C 33.380796,6.0972216 32.511574,5.7363486 31.642358,5.3754755 Z M 24.101355,5.6172516 C 23.129642,5.512377 22.508007,6.109783 21.782644,6.5014253 c -0.892851,0.1093853 -1.901633,0.441784 -2.464239,1.1601758 1.001551,0.4546651 1.632278,-0.029908 2.496811,-0.3732288 0.802675,-0.411358 3.532744,-0.5829831 2.286139,-1.6711207 z m -6.270736,2.8851925 c -0.499607,0.7628345 0.350915,1.8669139 -0.791934,2.2672529 -0.564129,0.714359 -1.05712,1.886913 0.352897,1.461466 0.344933,-1.058517 1.416468,-2.5434024 2.635862,-1.92344 1.228268,0.330111 2.364979,2.394727 3.367809,0.759417 C 23.394844,10.64186 21.835338,10.393013 21.870186,9.352494 21.176231,9.0546881 19.692816,9.5958861 19.744665,8.5135998 18.742093,8.0682955 18.453397,10.287155 18.098087,9.047014 18.008931,8.8654905 17.91977,8.6839676 17.830619,8.5024441 Z m 27.215269,0.9617306 c -1.186612,0.2373591 -2.358623,0.508496 -3.295159,1.3243983 0.271835,1.087097 -1.130262,1.270053 -1.753824,1.873515 -0.452461,0.255399 0.0084,2.228271 0.404639,1.922078 0.842924,-1.112418 1.278906,-0.152827 2.062533,0.396505 0.705256,0.65526 1.153105,-1.216803 0.778475,-1.744498 -0.219805,-0.850504 0.849498,-1.479701 1.234305,-2.176247 1.17641,-0.754875 0.182365,0.963062 0.144717,1.562885 -0.593844,1.772453 2.634056,0.0534 0.506323,1.378009 -0.570732,0.57014 -0.779707,1.414735 -1.656671,1.836097 -0.473522,0.578157 -2.280785,0.30713 -2.037385,-0.59471 -0.65997,-1.034701 -0.497066,1.245357 -0.721273,1.234414 -1.093726,-0.326036 -1.419248,0.895223 -2.105197,1.479527 -0.524933,0.603284 -2.378084,0.228934 -0.994533,1.163428 1.009068,1.164738 -0.201104,0.94932 -1.035856,1.259575 -1.179644,0.203211 -0.982436,1.230959 -0.951969,2.158854 0.0182,0.511401 1.150367,1.270124 1.723685,0.913408 1.145257,-0.122717 0.856302,-1.528647 1.702451,-1.957415 0.703042,-0.602 1.196447,-1.15723 2.252074,-1.171643 0.487371,0.465264 1.472468,1.164759 1.871919,1.545118 -1.102433,1.201563 0.506369,1.103684 0.660264,0.0092 0.543811,-0.602829 -1.79122,-2.02132 -0.251402,-1.398068 1.019279,0.336346 0.784851,1.377937 1.238329,2.081083 0.806077,1.363076 0.892398,0.345923 0.967459,-0.708472 1.339271,-0.42084 1.702206,2.332832 3.507312,1.687056 1.352823,0.355576 0.711738,1.230616 -0.142428,1.795644 -0.780103,0.569135 -1.943308,0.179027 -2.799495,-0.129924 -0.846999,-0.435006 -1.867795,-0.1856 -2.313681,0.679517 -0.989843,-0.854507 -1.690471,-2.211961 -3.128458,-2.287157 -1.361533,-0.07051 -2.736027,0.291581 -4.049993,0.661889 -1.455861,1.709099 -3.030924,3.373673 -3.709264,5.558186 -0.704129,0.86559 0.80409,1.384118 -0.342342,2.171901 -0.798156,0.745463 0.271823,1.666245 0.437027,2.502115 0.858941,1.018942 2.175819,4.370525 3.502283,3.074072 0.746506,-1.179871 1.241506,0.772844 2.119357,-0.452542 0.738837,-0.674595 1.337251,0.677846 2.373321,0.196791 0.921375,0.459412 1.001482,1.359976 0.514615,2.221687 -0.312645,0.874947 1.354488,1.234679 0.880135,2.256113 -0.223604,0.998849 0.214434,1.846762 0.710454,2.681457 -1.10253,1.151259 -0.969664,2.856562 -0.694414,4.299144 0.539452,1.977689 1.311996,3.961092 1.23484,6.043492 0.966033,0.253479 1.678686,-0.386572 2.47754,-0.722643 1.524805,0.21577 2.354249,-1.411786 3.301097,-2.345227 -0.711285,-0.956442 0.584332,-1.369242 1.119872,-1.987935 -0.801097,-0.693163 -1.3319,-1.366109 -0.09171,-1.906589 0.572108,-0.581248 1.643877,-0.909872 1.831805,-1.720705 -0.492669,-1.468641 -0.212099,-3.028958 -0.284561,-4.547416 0.607419,-1.224621 1.252333,-2.42318 2.261218,-3.368749 0.402352,-1.32798 1.369414,-2.545149 1.275631,-3.970495 -2.351636,0.70379 -1.641553,-0.298955 -0.338359,-1.252188 0.904387,-0.663491 2.190252,-1.282366 2.465309,-2.413609 0.197366,-1.116475 -0.674888,-2.850027 -1.433741,-1.209636 -0.368636,-0.522761 -1.667229,-1.007527 -1.649261,-1.828117 -0.278097,-1.654845 0.447349,-0.660882 1.092294,0.1206 1.500084,-1.11237 3.457887,3.070078 2.824714,0.08572 -0.857696,-6.458728 -4.131606,-12.560771 -9.035645,-16.84749 -0.448443,0.477698 -1.196839,2.258637 -1.739875,1.230688 -0.768781,-0.815808 -1.372138,-1.552355 0.193833,-1.249495 1.53472,-0.416601 0.0062,-0.658865 -0.7986,-0.753885 C 46.55384,10.029256 45.80565,9.7336641 45.045851,9.4643075 Z m -30.037779,0.040296 c -1.015282,0.3911856 0.505605,1.8826573 -1.314711,1.4050583 -1.99571,0.904589 -3.32512,3.099911 -4.71219,4.809312 -3.2355358,4.574023 -4.9946596,10.163711 -4.9811296,15.765746 0.5308984,1.096148 1.8384835,1.467592 2.8167409,2.072732 0.9942046,0.340238 2.2462697,0.288831 2.741086,1.387553 0.5534147,0.579708 1.2959607,1.357147 2.0866157,1.419992 1.214938,-0.389448 1.386256,0.71248 0.773325,1.527689 -0.06634,0.892879 -1.059866,1.612996 -0.949139,2.398261 0.221347,0.879897 -1.106617,1.849023 -0.212028,2.654049 0.94115,1.683067 1.948372,3.317511 3.221161,4.771247 0.791656,0.693804 0.697776,1.649031 0.607415,2.603221 -0.314165,1.008427 0.638703,1.591847 1.150152,2.323335 -1.246315,2.285753 2.129395,2.742652 3.542231,3.742158 0.710311,-0.649773 0.766771,-1.701461 1.945177,-1.730733 0.714583,-0.500813 0.867143,-1.631296 1.357912,-2.382861 -0.01569,-0.798365 -0.526829,-1.544479 0.302936,-2.413966 0.625214,-0.52787 1.915376,-0.175879 2.148125,-1.277884 0.849288,-0.875096 0.162094,-2.087923 0.162098,-3.149697 0.659716,-0.903971 1.797811,-1.597868 1.671574,-2.846997 0.14291,-1.863029 -3.210138,-1.779268 -4.391681,-2.908818 -1.4523,-0.04176 -1.158572,-2.021256 -2.289103,-2.284277 -1.122401,0.05644 -1.530467,-0.823192 -1.928296,-1.716235 -0.618182,-0.421729 -1.781661,0.435352 -2.428512,-0.09318 -0.732687,-0.386129 -1.389978,-1.826413 -2.214664,-0.926331 -1.085464,0.787254 -2.152886,1.587019 -3.182601,0.268959 C 10.262824,34.320843 11.101847,32.612158 10.15636,32.719773 8.1379313,33.450072 10.796058,29.787041 8.906562,30.27304 8.4590551,30.974704 7.6006851,32.057389 6.7660398,31.227054 5.9278791,30.832568 6.3413403,29.549806 6.3787133,28.781637 6.4149317,27.883076 7.5517658,27.435045 8.2050683,27.025184 9.472157,27.59206 9.2121057,25.902763 10.2711,26.467445 c 1.027291,-0.218849 1.491131,1.42967 1.908235,1.491082 0.245122,-0.812125 -0.197393,-1.999067 0.556051,-2.534109 0.880349,-0.741245 2.042211,-1.268463 2.25953,-2.5138 0.01802,-1.33045 1.631972,-0.209231 2.032617,-1.115175 0.369389,-1.038122 1.446804,-0.973257 2.356869,-1.169081 0.497791,-0.462016 1.748936,-1.885063 0.203277,-1.467838 -0.562956,-0.0761 -2.829297,0.225667 -1.290361,-0.316835 0.75805,-0.574029 1.676835,-0.494428 2.527823,-0.607211 0.670164,-0.567559 1.841719,-0.757672 1.893161,-1.791019 -0.556214,-0.756721 -1.734469,-0.612677 -1.234276,-1.697998 -0.0483,-1.419719 -1.298378,-0.508274 -1.709021,-0.61628 0.666954,-0.928396 -0.867245,-1.512962 -1.38214,-1.526038 -0.349964,0.874939 -1.333878,1.62978 -0.986565,2.636808 -1.025838,0.166656 -1.506425,0.909396 -1.814766,1.834111 -0.307556,0.107218 -0.207559,-1.813548 -1.384699,-1.636587 -0.831479,-0.01968 -1.859403,-1.261221 -0.983959,-1.749951 1.200179,-0.759609 2.692404,-1.354162 3.451364,-2.567472 0.436425,-1.086665 -0.368426,-1.7536969 -1.440207,-1.5993454 l -0.149436,-0.010738 z m 20.192862,1.2512153 c -0.662399,0.515472 -1.999593,0.159438 -2.281943,0.65646 -0.118767,1.002387 1.437226,0.986715 2.058696,0.433329 1.015632,-0.375634 0.970393,-0.307069 0.223247,-1.089789 z m -14.714356,0.513751 c -1.407707,0.414309 -0.257333,1.336678 0.661624,1.324395 1.096398,-0.08842 0.07628,-1.316462 -0.661624,-1.324395 z m 16.787318,2.76699 c -0.100661,0.897015 0.760697,1.457111 0.404927,2.434361 -0.560189,1.23099 0.233322,1.600653 1.190681,0.843998 1.278549,-0.782531 -0.958109,-2.496795 -1.25609,-3.278359 -0.113178,0 -0.226346,0 -0.339518,0 z m -0.421631,1.442597 c -1.148941,-0.282537 -0.785464,2.122857 0.0041,1.294787 0.850163,-0.148438 0.03383,-0.803766 -0.0041,-1.294787 z m -14.663052,2.16792 c 0.168685,0.912197 0.229325,2.35831 0.896946,0.804975 -9.41e-4,-0.30192 -0.659599,-0.538023 -0.896946,-0.804975 z m 27.74433,9.378224 c 1.350394,1.177872 1.897457,2.883637 2.658681,4.448677 1.13265,0.594833 0.462154,1.504614 0.619926,2.26907 1.577015,1.381103 -1.597022,0.645519 -1.211864,-0.861291 -0.257359,-1.750118 -1.381061,-2.918313 -2.298792,-4.183964 -0.07215,-0.669966 -0.790613,-1.434138 0.232049,-1.672492 z"
       id="path3" />
    <path
       style="opacity:0.2;stroke-width:0.982302"
       d="m 28.553553,26.596657 c -1.632318,0 -2.946421,1.281556 -2.946421,2.872529 V 42.315954 H 20.71752 a 1.9893642,1.5533795 0 0 0 -1.720671,2.327573 l 10.778632,14.581415 a 1.9893642,1.5533795 0 0 0 3.443251,0 L 44.003114,44.643527 A 1.9893642,1.5533795 0 0 0 42.27861,42.315954 H 37.392838 V 29.469186 c 0,-1.590973 -1.314111,-2.872529 -2.946429,-2.872529 z"
       id="path4" />
    <rect
       style="fill:#7137c8;stroke-width:0.982302"
       width="11.785708"
       height="18.666666"
       x="25.607126"
       y="25.614029"
       rx="2.9464271"
       ry="2.8717186"
       id="rect4" />
    <path
       style="fill:#7137c8;stroke-width:0.982302"
       d="m 20.717095,41.333285 a 1.9893642,1.5533795 0 0 0 -1.719559,2.328546 l 10.778215,14.580253 a 1.9893642,1.5533795 0 0 0 3.44379,0 L 44.00243,43.661831 a 1.9893642,1.5533795 0 0 0 -1.724233,-2.328546 z"
       id="path5" />
    <path
       style="opacity:0.2;fill:#ffffff;stroke-width:0.982302"
       d="m 28.553553,25.614034 c -1.632318,0 -2.946421,1.281557 -2.946421,2.87253 v 0.982458 c 0,-1.590974 1.314103,-2.872535 2.946421,-2.872535 h 5.892856 c 1.632318,0 2.946429,1.281561 2.946429,2.872535 v -0.982458 c 0,-1.590973 -1.314111,-2.87253 -2.946429,-2.87253 z M 20.71752,41.333325 a 1.9893642,1.5533795 0 0 0 -1.881801,2.047423 1.9893642,1.5533795 0 0 1 1.881801,-1.064964 h 4.889612 v -0.982459 z m 16.675318,0 v 0.982459 h 4.885772 a 1.9893642,1.5533795 0 0 1 1.885634,1.064964 1.9893642,1.5533795 0 0 0 -1.885634,-2.047423 z"
       id="path6" />
    <path
       style="opacity:0.1;fill:#ffffff;stroke-width:0.982302"
       d="M 31.499981,4 C 16.265013,4 4,16.268931 4,31.508766 4,31.67353 4.010572,31.835941 4.0134277,31.999996 4.2746856,16.989539 16.429723,4.9824559 31.499981,4.9824559 46.57024,4.9824559 58.72528,16.989539 58.986534,31.999996 58.989433,31.835941 59,31.67353 59,31.508766 58.999962,16.268931 46.73495,4 31.499981,4 Z"
       id="path7" />
  </g>
</svg>
