<?xml version="1.0" encoding="UTF-8" standalone="no"?>
<svg
   width="62"
   height="62"
   version="1.1"
   id="svg4"
   sodipodi:docname="beat-hazard-2.svg"
   inkscape:version="1.4.2 (unknown)"
   xmlns:inkscape="http://www.inkscape.org/namespaces/inkscape"
   xmlns:sodipodi="http://sodipodi.sourceforge.net/DTD/sodipodi-0.dtd"
   xmlns="http://www.w3.org/2000/svg"
   xmlns:svg="http://www.w3.org/2000/svg">
  <defs
     id="defs4" />
  <sodipodi:namedview
     id="namedview4"
     pagecolor="#ffffff"
     bordercolor="#000000"
     borderopacity="0.25"
     inkscape:showpageshadow="2"
     inkscape:pageopacity="0.0"
     inkscape:pagecheckerboard="0"
     inkscape:deskcolor="#d1d1d1"
     inkscape:zoom="11.921875"
     inkscape:cx="32"
     inkscape:cy="52.131062"
     inkscape:current-layer="svg4" />
  <g
     id="g4"
     transform="matrix(0.98214286,0,0,0.98245613,-0.42857144,-0.92982452)">
    <circle
       cx="32"
       cy="33"
       r="28"
       style="opacity:0.2"
       id="circle1" />
    <circle
       cx="32"
       cy="32"
       r="28"
       style="fill:#fec925;fill-opacity:1"
       id="circle2" />
    <path
       d="M 32,4 A 28,28 0 0 0 4,32 28,28 0 0 0 4.0215,32.586 28,28 0 0 1 32,5 28,28 0 0 1 59.979,32.414 28,28 0 0 0 60,32 28,28 0 0 0 32,4 Z"
       style="opacity:0.2;fill:#ffffff"
       id="path2" />
    <path
       d="M 32,8 A 25,25 0 0 0 7,33 25,25 0 0 0 32,58 25,25 0 0 0 57,33 25,25 0 0 0 32,8 Z m 0,2.777344 A 22.222222,22.222222 0 0 1 54.222656,33 22.222222,22.222222 0 0 1 32,55.222656 22.222222,22.222222 0 0 1 9.777344,33 22.222222,22.222222 0 0 1 32,10.777344 Z M 22,25.900391 c -7.142857,0 -10,1.144531 -10,1.144531 v 4.332031 c 0,0 1.427734,8.69e-4 1.427734,1.445313 0,1.444445 1.430246,5.777343 7.144532,5.777343 8.571429,0 7.14174,-1.44401 8.570312,-5.777343 0.638877,-1.937925 1.428851,-2.888672 2.857422,-2.888672 1.428571,0 2.218545,0.950747 2.857422,2.888672 1.428571,4.333333 -0.0011,5.777343 8.570312,5.777343 5.714286,0 7.144532,-4.332898 7.144532,-5.777343 C 50.572266,31.377822 52,31.376953 52,31.376953 v -4.332031 c 0,0 -1.763617,-0.567235 -5.900391,-0.955078 L 45,27 l 1,2 -7,4 3,-4 -2,-2 2,-1.099609 c -4.285714,0 -7.142857,1.144531 -10,1.144531 -2.857142,0 -5.714286,-1.144531 -10,-1.144531 z m 18.234375,16.123047 c 0,0 -0.634215,0.946711 -1.574219,1.886718 C 37.720149,44.85016 36.500781,45 35.800781,45 H 33 v 3 h 2.800781 c 2.1,0 3.677898,-0.949379 4.837891,-2.109375 1.159996,-1.159993 1.925781,-2.314454 1.925781,-2.314453 z"
       style="opacity:0.1"
       id="path3" />
    <path
       d="M 32,7 A 25,25 0 0 0 7,32 25,25 0 0 0 32,57 25,25 0 0 0 57,32 25,25 0 0 0 32,7 Z m 0,2.7773438 A 22.222222,22.222222 0 0 1 54.222656,32 22.222222,22.222222 0 0 1 32,54.222656 22.222222,22.222222 0 0 1 9.777344,32 22.222222,22.222222 0 0 1 32,9.7773438 Z M 22,24.900391 c -7.142857,0 -10,1.144531 -10,1.144531 v 4.332031 c 0,0 1.427734,8.69e-4 1.427734,1.445313 0,1.444445 1.430246,5.777343 7.144532,5.777343 8.571429,0 7.14174,-1.44401 8.570312,-5.777343 0.638877,-1.937925 1.428851,-2.888672 2.857422,-2.888672 1.428571,0 2.218545,0.950747 2.857422,2.888672 1.428571,4.333333 -0.0011,5.777343 8.570312,5.777343 5.714286,0 7.144532,-4.332898 7.144532,-5.777343 C 50.572266,30.377822 52,30.376953 52,30.376953 v -4.332031 c 0,0 -1.763617,-0.567235 -5.900391,-0.955078 L 45,26 l 1,2 -7,4 3,-4 -2,-2 2,-1.099609 c -4.285714,0 -7.142857,1.144531 -10,1.144531 -2.857142,0 -5.714286,-1.144531 -10,-1.144531 z m 18.234375,16.123047 c 0,0 -0.634215,0.946711 -1.574219,1.886718 C 37.720149,43.85016 36.500781,44 35.800781,44 H 33 v 3 h 2.800781 c 2.1,0 3.677898,-0.949379 4.837891,-2.109375 1.159996,-1.159993 1.925781,-2.314454 1.925781,-2.314453 z"
       style="fill:#373e48"
       id="path4" />
  </g>
  <ellipse
     cx="49.5"
     cy="49.41935"
     style="opacity:0.2;stroke-width:0.836015"
     id="circle4"
     rx="12.5"
     ry="12.58065" />
  <ellipse
     cx="49.5"
     cy="48.58065"
     style="fill:#7137c8;stroke-width:0.836015"
     id="circle5"
     rx="12.5"
     ry="12.58065" />
  <path
     d="m 49.500002,42.709674 c 0,0 -0.787498,-0.01617 -1.608077,0.417717 -0.790243,0.417495 -1.650785,1.462397 -1.713865,2.937122 h 2.231447 c 0.107438,-0.993967 1.090495,-1.005795 1.090495,-1.005795 0,0 1.111654,-0.0012 1.111654,1.172885 0,0.61973 -0.156199,0.966631 -0.452477,1.357987 -0.296277,0.391475 -0.769315,0.784988 -1.324869,1.225307 -0.555555,0.440317 -1.193088,0.927021 -1.730141,1.636465 -0.537058,0.709325 -0.937503,1.684186 -0.937503,2.825729 v 1.174523 h 6.666668 V 51.935485 H 48.77897 c 0.03478,-0.05165 0.02187,0.03647 0.06186,-0.01641 0.296272,-0.391474 0.769313,-0.783345 1.324863,-1.223665 0.555556,-0.44032 1.193086,-0.928662 1.730143,-1.638109 0.537052,-0.709322 0.937499,-1.684185 0.937499,-2.825727 0,-1.565544 -0.904695,-2.670701 -1.725259,-3.104211 -0.820584,-0.433631 -1.608074,-0.417722 -1.608074,-0.417722 z"
     style="fill:#ffffff;fill-rule:evenodd;stroke-width:0.836015"
     id="path5" />
</svg>
