<?xml version="1.0" encoding="UTF-8" standalone="no"?>
<svg
   width="62"
   height="62"
   version="1.1"
   id="svg10"
   sodipodi:docname="becalm.svg"
   inkscape:version="1.4.2 (unknown)"
   xmlns:inkscape="http://www.inkscape.org/namespaces/inkscape"
   xmlns:sodipodi="http://sodipodi.sourceforge.net/DTD/sodipodi-0.dtd"
   xmlns:xlink="http://www.w3.org/1999/xlink"
   xmlns="http://www.w3.org/2000/svg"
   xmlns:svg="http://www.w3.org/2000/svg">
  <defs
     id="defs10">
    <linearGradient
       id="linearGradient11"
       inkscape:collect="always">
      <stop
         style="stop-color:#5599ff;stop-opacity:1"
         offset="0"
         id="stop11" />
      <stop
         style="stop-color:#ffd42a;stop-opacity:1"
         offset="1"
         id="stop12" />
    </linearGradient>
    <linearGradient
       inkscape:collect="always"
       xlink:href="#linearGradient11"
       id="linearGradient12"
       x1="30.978724"
       y1="60"
       x2="30.553192"
       y2="5.9255319"
       gradientUnits="userSpaceOnUse"
       gradientTransform="matrix(1,0,0,0.98245614,-1,-0.92982455)" />
  </defs>
  <sodipodi:namedview
     id="namedview10"
     pagecolor="#ffffff"
     bordercolor="#000000"
     borderopacity="0.25"
     inkscape:showpageshadow="2"
     inkscape:pageopacity="0.0"
     inkscape:pagecheckerboard="0"
     inkscape:deskcolor="#d1d1d1"
     inkscape:zoom="5.875"
     inkscape:cx="71.574468"
     inkscape:cy="54.893617"
     inkscape:window-width="1920"
     inkscape:window-height="998"
     inkscape:window-x="0"
     inkscape:window-y="0"
     inkscape:window-maximized="1"
     inkscape:current-layer="svg10" />
  <rect
     style="opacity:0.2;stroke-width:0.991189"
     width="56"
     height="55.017544"
     x="3"
     y="3.9824562"
     rx="16.799999"
     ry="16.505262"
     id="rect1" />
  <rect
     style="fill:url(#linearGradient12);stroke-width:0.991189"
     width="56"
     height="55.017544"
     x="3"
     y="3"
     rx="16.799999"
     ry="16.505262"
     id="rect2" />
  <circle
     style="opacity:0.2"
     cx="18.893618"
     cy="18.744244"
     r="7"
     id="circle8" />
  <circle
     style="fill:#ffffff"
     cx="18.893618"
     cy="17.744244"
     r="7"
     id="circle9" />
  <path
     style="opacity:0.1;fill:#ffffff;stroke-width:0.991189"
     d="M 19.800781,3 C 10.493582,3 3,10.362116 3,19.50603 v 0.982457 C 3,11.344572 10.493582,3.9824562 19.800781,3.9824562 H 42.199219 C 51.506418,3.9824562 59,11.344572 59,20.488487 V 19.50603 C 59,10.362116 51.506418,3 42.199219,3 Z"
     id="path9" />
  <path
     style="fill:#8d5fd3;stroke-width:0.999997"
     d="m 24.33333,43.241135 h 27.999998 c 0,1.166662 -7.040425,9.333332 -10.499996,9.333332 h -10.17657 c -7.323432,0 -7.323432,-5.833334 -7.323432,-9.333332 z"
     id="path6" />
  <rect
     style="fill:#916f6f;stroke-width:0.999997"
     width="1.1666675"
     height="20.000006"
     x="43.166668"
     y="23.241163"
     id="rect6" />
  <rect
     style="fill:#916f6f;stroke-width:0.999997"
     width="1.1666675"
     height="12.166667"
     x="38.741077"
     y="-43.166668"
     transform="rotate(90)"
     id="rect7" />
  <path
     style="opacity:0.2;stroke-width:0.999997"
     d="m 39.425459,17.407797 c 0,0 5.108855,7.990877 4.901741,23.333334 H 33.833328 c 3.287627,-6.994375 5.063262,-15.085152 5.592131,-23.333334 z"
     id="path7" />
  <path
     style="fill:#ffffff;stroke-width:0.999997;fill-opacity:1"
     d="m 39.425459,16.574467 c 0,0 5.108855,7.990874 4.901741,23.333331 H 33.833328 c 3.287627,-6.994373 5.063262,-15.085155 5.592131,-23.333331 z"
     id="path8" />
</svg>
