<?xml version="1.0" encoding="UTF-8" standalone="no"?>
<svg
   width="62"
   height="62"
   version="1.1"
   id="svg5"
   sodipodi:docname="beholder.svg"
   inkscape:version="1.4.2 (unknown)"
   xmlns:inkscape="http://www.inkscape.org/namespaces/inkscape"
   xmlns:sodipodi="http://sodipodi.sourceforge.net/DTD/sodipodi-0.dtd"
   xmlns="http://www.w3.org/2000/svg"
   xmlns:svg="http://www.w3.org/2000/svg">
  <defs
     id="defs5" />
  <sodipodi:namedview
     id="namedview5"
     pagecolor="#ffffff"
     bordercolor="#000000"
     borderopacity="0.25"
     inkscape:showpageshadow="2"
     inkscape:pageopacity="0.0"
     inkscape:pagecheckerboard="0"
     inkscape:deskcolor="#d1d1d1"
     inkscape:zoom="11.890625"
     inkscape:cx="32"
     inkscape:cy="32"
     inkscape:current-layer="svg5" />
  <g
     id="g5"
     transform="translate(-1,-1)">
    <path
       d="M 33.472728,4.982456 C 5.981818,4.982456 5,30.526319 5,30.526319 c 0,0 0,15.719293 6.149282,21.221051 C 20.020051,59.684031 26.599999,60 35.436362,60 47.218178,60 56.054544,50.17544 56.054544,43.298248 V 21.68421 L 59,24.63158 56.054544,16.77193 H 59 l -5.890912,-2.94737 h 2.945456 l -5.890912,-2.94737 h 2.945456 c 0,0 -7.854546,-5.894734 -19.63636,-5.894734 z"
       style="opacity:0.2;stroke-width:0.999975"
       id="path1" />
    <path
       d="M 33.472728,4 C 5.981818,4 5,29.54386 5,29.54386 c 0,0 0,15.7193 6.149282,21.22105 8.870769,7.93667 15.450717,8.252632 24.28708,8.252632 11.781816,0 20.618182,-9.824562 20.618182,-16.701752 V 20.701752 L 59,23.64912 56.054544,15.78947 H 59 l -5.890912,-2.947361 h 2.945456 L 50.163632,9.8947369 h 2.945456 C 53.109088,9.8947369 45.254542,4 33.472728,4 Z"
       style="fill:#535d6c;stroke-width:0.999975"
       id="path2" />
    <path
       d="m 30.527272,29.54386 c -5.890912,0 -7.854546,5.89474 -7.854546,5.89474 h 19.636361 c 0,0 -5.890903,-5.89474 -11.781815,-5.89474 z m 22.581816,2.94737 c -3.927269,0 -7.854546,2.94737 -7.854546,2.94737 h 10.800002 c 0,0 0,-2.94737 -2.945456,-2.94737 z"
       style="opacity:0.2;stroke-width:0.999975"
       id="path3" />
    <path
       d="m 30.527272,28.5614 c -5.890912,0 -7.854546,5.89474 -7.854546,5.89474 h 19.636361 c 0,0 -5.890903,-5.89474 -11.781815,-5.89474 z m 22.581816,2.94737 c -3.927269,0 -7.854546,2.94737 -7.854546,2.94737 h 10.800002 c 0,0 0,-2.94737 -2.945456,-2.94737 z"
       style="fill:#ffffff;stroke-width:0.999975"
       id="path4" />
    <path
       d="M 33.472728,4 C 5.981818,4 5,29.54386 5,29.54386 c 0,0 0.00299,0.304596 0.017257,0.794405 0.052635,-1.04812 1.5535331,-25.355809 28.455471,-25.355809 8.741204,0 15.301889,3.2374878 18.115692,4.9122809 h 1.520668 C 53.109088,9.8947369 45.254542,4 33.472728,4 Z m 16.690904,6.87719 3.927277,1.964919 h 1.963635 L 52.12727,10.87719 Z m 2.945456,2.94737 3.927275,1.96491 H 59 l -3.927276,-1.96491 z m 2.945456,2.94737 2.356749,6.288101 L 59,23.64912 56.422725,16.77193 Z"
       style="opacity:0.1;fill:#ffffff;stroke-width:0.999975"
       id="path5" />
  </g>
</svg>
