<?xml version="1.0" encoding="UTF-8" standalone="no"?>
<svg
   width="62"
   height="62"
   version="1.1"
   id="svg4"
   sodipodi:docname="beyond-a-steel-sky.svg"
   inkscape:version="1.4.2 (unknown)"
   xmlns:inkscape="http://www.inkscape.org/namespaces/inkscape"
   xmlns:sodipodi="http://sodipodi.sourceforge.net/DTD/sodipodi-0.dtd"
   xmlns="http://www.w3.org/2000/svg"
   xmlns:svg="http://www.w3.org/2000/svg">
  <defs
     id="defs4" />
  <sodipodi:namedview
     id="namedview4"
     pagecolor="#ffffff"
     bordercolor="#000000"
     borderopacity="0.25"
     inkscape:showpageshadow="2"
     inkscape:pageopacity="0.0"
     inkscape:pagecheckerboard="0"
     inkscape:deskcolor="#d1d1d1"
     inkscape:zoom="11.890625"
     inkscape:cx="31.87385"
     inkscape:cy="32"
     inkscape:current-layer="svg4" />
  <g
     id="g4"
     transform="matrix(0.98181818,0,0,0.98214284,0.07272733,-0.42857135)"
     style="stroke-width:1.01835">
    <rect
       x="4"
       y="4.9824572"
       width="55"
       height="55.017544"
       ry="7.1272731"
       style="opacity:0.2;stroke-width:1.01832"
       id="rect1"
       rx="7.1296301" />
    <rect
       x="4"
       y="4"
       width="55"
       height="55.017544"
       ry="7.1272731"
       style="fill:#c6afe9;stroke-width:1.01832"
       id="rect2"
       rx="7.1296301" />
    <path
       d="m 12.088234,8.9122808 c -2.3044525,0 -4.1596626,1.8558002 -4.1596626,4.1609932 v 38.835911 c 0,2.305189 1.8552101,4.160992 4.1596626,4.160992 h 7.588138 l -0.314138,-1.554957 0.376423,-0.346748 -0.579535,-3.971362 0.176026,-0.176082 -0.176026,-0.222139 0.400802,-3.090942 -0.338517,0.05149 -0.568703,1.002324 c 0,0 -2.475846,-0.871996 -3.791358,-1.790637 1.613143,-2.301778 2.288682,-4.437645 2.651245,-5.371905 -0.681255,-1.163148 -0.623623,-1.866145 -0.178739,-3.12616 0.05065,-0.143455 -0.341328,-0.0089 -0.444131,-0.121904 -0.995301,-1.09524 -0.862629,-2.883769 -0.925258,-4.353328 -0.08748,-2.053339 0.995671,-4.301855 0.995671,-4.301855 l -1.174422,-2.09946 0.426985,-1.357197 -0.211236,-0.281733 1.779234,-2.457046 1.584246,-1.089008 c 0.381919,-3.750096 3.683027,-2.354803 3.683027,-2.354803 0,1e-6 0.01871,-1.571328 0.23019,-2.318883 0.235585,-0.832624 0.930951,-1.850232 1.733193,-1.972136 0.11461,-0.01742 0.231389,-0.01414 0.349348,0.0084 4.009941,0.757406 3.363477,2.457039 3.363477,2.457039 l -0.427884,0.438858 -0.211233,1.089009 -0.162486,0.192335 c 0,0 -0.01807,0.812694 -0.01625,1.089013 0.0011,0.166425 -0.498292,0.08668 -0.498292,0.08668 0,0 -0.07958,0.243051 -0.143533,0.352165 -0.07188,0.12261 -0.265394,0.333205 -0.265394,0.333205 0,-1e-6 0.07579,0.228833 0.03524,0.333205 -0.05722,0.146987 -0.357471,0.314241 -0.357471,0.314241 0,0 1.119309,0.424215 1.318853,0.774767 0.214133,0.376195 0.712241,2.582358 0.712241,2.582358 0,0 -0.276876,0.840472 -0.482043,1.018575 -0.17419,0.151211 -0.693279,0.05414 -0.693279,0.05414 l -0.05412,0.208593 0.303309,0.0704 -0.05412,0.438855 0.268102,0.650155 -0.373721,0.720588 5.039803,2.54373 0.07583,0.360294 1.397387,-0.111071 c 0,0 1.361246,-0.18833 1.4353,0.15983 0.05805,0.272873 -0.517984,0.194179 -0.807016,0.260063 -0.117845,0.176244 -0.617451,0.224843 -0.617451,0.224843 l 0.479336,0.06232 c 0,0 0.600429,0.343978 1.199696,0.468654 0.599264,0.124677 1.196574,0.03053 1.140115,0.338621 -0.04986,0.272195 -1.798189,0.09755 -1.798189,0.09755 0,0 0.4366,0.283878 0.920759,0.373838 0.484163,0.08995 1.01489,-0.01408 0.953258,0.308824 -0.06481,0.339752 -1.92547,0.06232 -1.92547,0.06232 0,0 0.315356,0.214027 0.64724,0.284442 0.331881,0.07041 0.681337,-0.0024 0.649948,0.224845 -0.05722,0.41422 -1.749444,-0.06232 -1.749444,-0.06232 0,0 0.166264,0.139585 0.384554,0.216718 0.218288,0.07709 0.489446,0.09299 0.446836,0.243806 -0.08125,0.287529 -1.822561,-0.387384 -1.822561,-0.387384 l -1.530081,-0.877709 -0.46309,0.56076 -2.846229,-1.191952 c 0,0 0.09239,1.279404 0.116443,1.920667 0.02828,0.754731 -1.080537,0.595975 -1.080537,0.595975 0,0 0.02314,1.91748 0.200401,2.855264 0.151278,0.800251 0.115452,1.527676 0.239785,2.33243 0.393066,2.544221 0.02441,7.720589 0.02441,7.720589 l -0.943895,0.373838 -0.02441,-0.994194 -0.655362,-0.197755 -0.02441,1.58746 -0.303308,0.249225 0.251853,1.14048 -0.576828,0.422603 0.276228,0.249226 -0.07581,0.620354 -0.779935,2.457043 0.04871,0.893961 -0.251854,0.173376 0.32768,0.05149 c 0,0 0.181576,0.471068 0.176029,0.717881 -0.0076,0.327174 -0.297895,0.761113 -0.297895,0.761113 h 6.014723 c 0,0 0.02554,-1.621538 0.105612,-3.250775 0.02723,-0.5545 0.640146,-1.358417 1.191571,-1.357197 0.725066,0.0017 2.068999,-0.03525 2.068999,-0.03525 0,0 -0.49749,-0.198558 -0.525374,-0.422603 -0.07559,-0.607277 0.912623,-3.351013 0.912623,-3.351013 l -0.246439,0.281733 -1.210525,0.019 0.281644,-1.200078 -0.31685,-0.119199 c -0.251185,0.322142 -0.877428,0.807276 -0.877428,0.807276 l -0.08668,0.422589 -1.7359,0.01899 -0.15978,-0.281734 c 0,0 -0.172133,0.0765 -0.262688,0.0704 -0.16022,0.0205 -0.566468,-0.111736 -0.454962,-0.617646 0.152632,-0.692507 0.614741,-1.094427 0.614741,-1.094427 0,-10e-7 -0.244984,-0.177872 -0.230189,-0.493036 0.02376,-0.505413 0.05927,-1.008464 0.07038,-1.514317 0.0052,-0.236289 0.375762,-0.281399 0.557872,0.0136 0.272526,0.44138 0.565997,1.273219 0.565997,1.273219 0,0 0.899277,-0.852308 1.467797,-0.874999 0.339944,-0.01362 0.918052,0.449691 0.918052,0.449691 l 0.138113,0.214007 0.387261,-0.178792 h 0.227483 l 0.105612,0.178792 0.61474,-0.019 0.08666,0.140865 0.352055,-0.211299 -0.598492,-0.457817 -0.208527,-0.883127 c 0,0 -0.361734,-0.573959 -0.387258,-0.899381 -0.04074,-0.51909 0.227482,-0.614939 0.227482,-0.614939 l -0.560582,-0.688146 c 0,0 -0.823912,-2.238521 1.928177,-3.456659 0.690524,-0.305645 1.229181,-0.438696 1.654659,-0.457817 1.276432,-0.05738 1.557727,0.911044 2.031085,1.32198 0.279362,0.242523 0.964088,0.547213 0.964088,0.547213 0,10e-7 0.510921,0.447877 0.928882,1.286767 0.551258,0.280468 0.490171,1.286764 0.490171,1.286764 l -0.243733,0.281734 -0.01899,1.3572 -1.616745,1.121515 h 1.104911 l 0.17332,0.148994 v 0.325078 l 0.08666,-0.100238 0.557871,0.02442 0.148947,-0.211301 0.557873,0.249225 0.373718,-0.511994 -0.28706,-0.384676 0.720358,-0.685372 0.769103,-0.300697 0.395385,-0.934598 0.100206,0.0379 -0.08238,-1.67144 -0.173319,-0.124606 0.100207,-0.723299 0.222063,-0.100239 -0.259977,-0.03525 0.44684,-1.197367 -0.0623,-0.16254 0.273517,-0.460527 0.308728,-0.0379 0.111033,0.06232 -0.246438,0.411763 0.297895,0.260065 0.02441,2.22136 -0.297894,0.135454 0.117624,1.758128 0.148946,0.100239 -0.111037,0.349459 0.124571,0.07314 -0.135416,0.387349 0.354764,1.457429 c 0,0 -0.720598,1.626414 -1.681741,2.81463 -0.699597,0.05272 -1.37843,-0.019 -1.37843,-0.019 l -0.04065,-0.124611 -0.335806,0.151705 -0.287061,0.0325 -0.311432,-0.281734 c 0,0 1.150792,2.587866 1.123863,3.52709 -0.0053,0.185778 -0.457668,0.316951 -0.457668,0.316951 0,0 0.864712,-0.01025 1.438009,0.019 0.909395,0.04643 1.188337,0.614265 1.502775,0.864164 0.32662,0.259577 0.197684,3.72484 0.197684,3.72484 h 4.633812 c 2.304455,0 4.159664,-1.855803 4.159664,-4.16099 V 13.073286 c 0,-2.305193 -1.855209,-4.1609933 -4.159664,-4.1609933 z"
       style="opacity:0.1;stroke-width:1.01832"
       id="path2" />
    <path
       d="m 12.088234,7.9298245 c -2.3044525,0 -4.1596626,1.8558021 -4.1596626,4.1609895 v 38.835914 c 0,2.30519 1.8552101,4.160991 4.1596626,4.160991 h 7.588138 l -0.314138,-1.554952 0.376423,-0.346751 -0.579535,-3.971361 0.176026,-0.176083 -0.176026,-0.222137 0.400802,-3.090946 -0.338517,0.05149 -0.568703,1.002324 c 0,0 -2.475846,-0.871994 -3.791358,-1.790634 1.613143,-2.301781 2.288682,-4.437649 2.651245,-5.371904 -0.681255,-1.163149 -0.623623,-1.866147 -0.178739,-3.126162 0.05065,-0.143458 -0.341328,-0.0089 -0.444131,-0.121904 -0.995301,-1.095239 -0.862629,-2.883772 -0.925258,-4.353327 -0.08748,-2.053342 0.995671,-4.301856 0.995671,-4.301856 l -1.174422,-2.099461 0.426985,-1.357198 -0.211236,-0.281733 1.779234,-2.45704 1.584246,-1.089014 c 0.381919,-3.750096 3.683027,-2.354803 3.683027,-2.354803 0,1e-6 0.01871,-1.571328 0.23019,-2.318884 0.235585,-0.832625 0.930951,-1.850233 1.733193,-1.972135 0.11461,-0.01742 0.231389,-0.01415 0.349348,0.0084 4.009941,0.757413 3.363477,2.457046 3.363477,2.457046 l -0.427884,0.438854 -0.211233,1.089005 -0.162486,0.192342 c 0,0 -0.01807,0.812693 -0.01625,1.089008 0.0011,0.166427 -0.498292,0.08666 -0.498292,0.08666 0,0 -0.07958,0.24305 -0.143533,0.352168 -0.07188,0.122611 -0.265394,0.333205 -0.265394,0.333205 0,-1e-6 0.07579,0.228835 0.03524,0.333205 -0.05722,0.146985 -0.357471,0.314238 -0.357471,0.314238 0,0 1.119309,0.42422 1.318853,0.774772 0.214133,0.376191 0.712241,2.582356 0.712241,2.582356 0,0 -0.276876,0.840476 -0.482043,1.018578 -0.17419,0.15121 -0.693279,0.05414 -0.693279,0.05414 l -0.05412,0.208589 0.303309,0.07042 -0.05412,0.438853 0.268102,0.650154 -0.373721,0.720588 5.039803,2.543731 0.07583,0.360292 1.397387,-0.111068 c 0,0 1.361246,-0.188333 1.4353,0.159827 0.05805,0.272874 -0.517984,0.194181 -0.807016,0.260064 -0.117845,0.176245 -0.617451,0.224843 -0.617451,0.224843 l 0.479336,0.06232 c 0,0 0.600429,0.343978 1.199696,0.468653 0.599264,0.12468 1.196574,0.03053 1.140115,0.338624 -0.04986,0.272193 -1.798189,0.09754 -1.798189,0.09754 0,0 0.4366,0.283879 0.920759,0.373838 0.484163,0.08995 1.01489,-0.01409 0.953258,0.308825 -0.06481,0.339754 -1.92547,0.06232 -1.92547,0.06232 0,0 0.315356,0.214026 0.64724,0.284442 0.331881,0.07038 0.681337,-0.0024 0.649948,0.224847 -0.05722,0.414216 -1.749444,-0.06232 -1.749444,-0.06232 0,0 0.166264,0.139588 0.384554,0.216718 0.218288,0.07709 0.489446,0.09299 0.446836,0.243808 -0.08125,0.287528 -1.822561,-0.387387 -1.822561,-0.387387 l -1.530095,-0.877715 -0.46309,0.560756 -2.846229,-1.19195 c 0,0 0.09239,1.279404 0.116443,1.920666 0.02828,0.754731 -1.080537,0.595976 -1.080537,0.595976 0,0 0.02314,1.91748 0.200401,2.855264 0.151278,0.800251 0.213667,1.527676 0.337998,2.33243 0.393066,2.544221 0.02441,7.720587 0.02441,7.720587 l -1.042111,0.373841 -0.02441,-0.994195 -0.655362,-0.197757 -0.02441,1.587461 -0.303308,0.249226 0.251854,1.140481 -0.576829,0.4226 0.276228,0.249226 -0.07582,0.620356 -0.779936,2.457045 0.04871,0.893959 -0.251854,0.173377 0.32768,0.05149 c 0,0 0.181576,0.47107 0.176029,0.717879 -0.0076,0.327178 -0.297895,0.761116 -0.297895,0.761116 h 6.014723 c 0,0 0.02555,-1.621539 0.105612,-3.250774 0.02723,-0.554503 0.640146,-1.358419 1.191571,-1.357199 0.725066,0.0017 2.069,-0.03525 2.069,-0.03525 0,0 -0.497491,-0.198555 -0.525375,-0.422601 -0.07559,-0.607269 0.912634,-3.351004 0.912634,-3.351004 l -0.246438,0.281733 -1.210526,0.019 0.281644,-1.200078 -0.31685,-0.119199 c -0.251185,0.322141 -0.877427,0.807275 -0.877427,0.807275 l -0.08667,0.422601 -1.735901,0.019 -0.159779,-0.28175 c 0,0 -0.172133,0.0765 -0.262688,0.07039 -0.160221,0.0205 -0.566468,-0.111735 -0.454962,-0.617646 0.152632,-0.692506 0.614741,-1.094428 0.614741,-1.094428 0,-1e-6 -0.244984,-0.17787 -0.230188,-0.493033 0.02376,-0.505416 0.05927,-1.008465 0.07037,-1.514318 0.0052,-0.236289 0.375762,-0.281401 0.557872,0.01361 0.272527,0.441379 0.565997,1.273218 0.565997,1.273218 0,0 0.899277,-0.852308 1.467797,-0.875 0.339944,-0.01363 0.918052,0.449691 0.918052,0.449691 l 0.138113,0.214007 0.387261,-0.17879 h 0.227483 l 0.105612,0.17879 0.61474,-0.019 0.08666,0.140867 0.352055,-0.211301 -0.598491,-0.457818 -0.208527,-0.883127 c 0,0 -0.361735,-0.573959 -0.387258,-0.899379 -0.04074,-0.519092 0.227481,-0.614937 0.227481,-0.614937 l -0.560579,-0.688083 c 0,0 -0.823912,-2.238516 1.928177,-3.456657 0.690524,-0.305642 1.229181,-0.438698 1.654659,-0.457817 1.276433,-0.05738 1.557727,0.911048 2.031086,1.321982 0.279361,0.242524 0.964087,0.547215 0.964087,0.547215 0,1e-6 0.510921,0.447874 0.928882,1.286764 0.551259,0.280468 0.490171,1.286765 0.490171,1.286765 l -0.243733,0.281733 -0.01899,1.357199 -1.616745,1.121518 h 1.10491 l 0.173321,0.148994 v 0.325076 l 0.08669,-0.100238 0.557871,0.02442 0.148946,-0.211302 0.557873,0.249227 0.373718,-0.511996 -0.287059,-0.384677 0.720357,-0.685371 0.769104,-0.300696 0.395384,-0.934598 0.100206,0.0379 -0.08238,-1.67144 -0.173318,-0.124609 0.100207,-0.723297 0.222063,-0.100239 -0.259977,-0.03525 L 45.6,37.506571 45.5377,37.34403 l 0.273516,-0.460526 0.308729,-0.0379 0.111032,0.06232 -0.246437,0.411765 0.297893,0.26006 0.02441,2.221366 -0.297894,0.135453 0.117624,1.758125 0.148945,0.100239 -0.111037,0.349459 0.124572,0.07314 -0.135416,0.387348 0.354763,1.457429 c 0,0 -0.720597,1.626412 -1.68174,2.814629 -0.699597,0.05271 -1.378431,-0.019 -1.378431,-0.019 l -0.04065,-0.124608 -0.335806,0.151706 -0.287062,0.0325 -0.311432,-0.281734 c 0,0 1.150793,2.587865 1.123864,3.527088 -0.0053,0.18578 -0.457669,0.31695 -0.457669,0.31695 0,0 0.864713,-0.01025 1.43801,0.019 0.909395,0.04643 1.188337,0.614266 1.502775,0.864164 0.326619,0.259578 0.197682,3.72484 0.197682,3.72484 h 4.633813 c 2.304456,0 4.159665,-1.855801 4.159665,-4.160992 V 12.090814 c 0,-2.3051874 -1.855209,-4.1609895 -4.159665,-4.1609895 z"
       style="fill:#535d6c;stroke-width:1.01832"
       id="path3" />
    <path
       d="M 10.874997,4 C 7.0662501,4 4,7.0672281 4,10.87719 v 0.98246 C 4,8.0496842 7.0662501,4.982456 10.874997,4.982456 H 52.125 c 3.808751,0 6.875,3.0672282 6.875,6.877194 V 10.87719 C 59,7.0672281 55.933751,4 52.125,4 Z"
       style="opacity:0.2;fill:#ffffff;stroke-width:1.01832"
       id="path4" />
  </g>
</svg>
