<?xml version="1.0" encoding="UTF-8" standalone="no"?>
<svg
   width="62"
   height="62"
   version="1"
   id="svg7"
   sodipodi:docname="biglybt.svg"
   inkscape:version="1.4.2 (unknown)"
   xmlns:inkscape="http://www.inkscape.org/namespaces/inkscape"
   xmlns:sodipodi="http://sodipodi.sourceforge.net/DTD/sodipodi-0.dtd"
   xmlns:xlink="http://www.w3.org/1999/xlink"
   xmlns="http://www.w3.org/2000/svg"
   xmlns:svg="http://www.w3.org/2000/svg">
  <defs
     id="defs7">
    <linearGradient
       id="linearGradient7"
       inkscape:collect="always">
      <stop
         style="stop-color:#384850;stop-opacity:1;"
         offset="0"
         id="stop8" />
      <stop
         style="stop-color:#384850;stop-opacity:1;"
         offset="0.59162253"
         id="stop10" />
      <stop
         style="stop-color:#eff2f6;stop-opacity:1;"
         offset="0.92173076"
         id="stop11" />
      <stop
         style="stop-color:#eff2f6;stop-opacity:1;"
         offset="1"
         id="stop9" />
    </linearGradient>
    <linearGradient
       id="c-3"
       gradientUnits="userSpaceOnUse"
       x1="24.072048"
       x2="23.959682"
       y1="0.75082099"
       y2="46.056854">
      <stop
         offset="0"
         stop-color="#fff"
         id="stop3" />
      <stop
         offset="1"
         stop-color="#d9d9d9"
         id="stop4" />
    </linearGradient>
    <linearGradient
       id="b-6"
       gradientUnits="userSpaceOnUse"
       x1="29.203026"
       x2="34.121048"
       xlink:href="#a-7"
       y1="24.827356"
       y2="29.224836" />
    <linearGradient
       id="a-7">
      <stop
         offset="0"
         id="stop1" />
      <stop
         offset="1"
         stop-opacity="0"
         id="stop2" />
    </linearGradient>
    <linearGradient
       id="d"
       gradientUnits="userSpaceOnUse"
       x1="15.948756"
       x2="25.031786"
       xlink:href="#a-7"
       y1="23.618279"
       y2="33.69899" />
    <linearGradient
       id="e"
       gradientUnits="userSpaceOnUse"
       x1="21.990562"
       x2="29.320522"
       xlink:href="#a-7"
       y1="33.780373"
       y2="41.931858" />
    <linearGradient
       id="paint154_linear_890_11"
       x1="778"
       y1="812.29199"
       x2="788"
       y2="812.29199"
       gradientUnits="userSpaceOnUse"
       gradientTransform="translate(-751,-696)">
      <stop
         stop-color="#EFF2F6"
         id="stop1050" />
      <stop
         offset="0.600785"
         stop-color="#B7C6CD"
         id="stop1051" />
    </linearGradient>
    <linearGradient
       id="paint155_linear_890_11"
       x1="783"
       y1="813"
       x2="783"
       y2="817"
       gradientUnits="userSpaceOnUse"
       gradientTransform="translate(-751,-696)">
      <stop
         stop-color="#EFF2F6"
         id="stop1052" />
      <stop
         offset="0.734138"
         stop-color="#B7C6CD"
         id="stop1053" />
    </linearGradient>
    <radialGradient
       id="paint156_radial_890_11"
       cx="0"
       cy="0"
       r="1"
       gradientUnits="userSpaceOnUse"
       gradientTransform="matrix(27.999986,27.999976,-27.999986,27.999976,32.302392,33.999998)">
      <stop
         offset="0.60067803"
         stop-color="#B7C6CD"
         id="stop1054"
         style="stop-color:#384850;stop-opacity:1;" />
      <stop
         offset="0.876735"
         stop-color="#EFF2F6"
         id="stop1055" />
    </radialGradient>
    <linearGradient
       id="paint157_linear_890_11"
       x1="796.84485"
       y1="799.43359"
       x2="768.90088"
       y2="770.81476"
       gradientUnits="userSpaceOnUse"
       gradientTransform="matrix(1.1666666,0,0,1.1666668,-881.19764,-881.8333)">
      <stop
         offset="0.00000057"
         stop-color="#2E2E41"
         id="stop1056"
         style="stop-color:#495361;stop-opacity:1;" />
      <stop
         offset="0.711139"
         stop-color="#566C80"
         id="stop1057" />
    </linearGradient>
    <linearGradient
       id="paint158_linear_890_11"
       x1="792"
       y1="794"
       x2="774"
       y2="776"
       gradientUnits="userSpaceOnUse"
       gradientTransform="translate(-751,-696)">
      <stop
         offset="0.304478"
         stop-color="#2E2E41"
         id="stop1058" />
      <stop
         offset="1"
         stop-color="#566C80"
         id="stop1059" />
    </linearGradient>
    <linearGradient
       id="paint159_linear_890_11"
       x1="788"
       y1="790"
       x2="778"
       y2="780"
       gradientUnits="userSpaceOnUse"
       gradientTransform="translate(-751,-696)">
      <stop
         offset="0.391394"
         stop-color="#5200FF"
         id="stop1060" />
      <stop
         offset="1"
         stop-color="#0085FF"
         id="stop1061" />
    </linearGradient>
    <linearGradient
       id="paint160_linear_890_11"
       x1="784"
       y1="798"
       x2="782"
       y2="796"
       gradientUnits="userSpaceOnUse"
       gradientTransform="translate(-751,-696)">
      <stop
         stop-color="#FF7E07"
         id="stop1062" />
      <stop
         offset="1"
         stop-color="#FFE607"
         id="stop1063" />
    </linearGradient>
    <radialGradient
       inkscape:collect="always"
       xlink:href="#linearGradient7"
       id="radialGradient9"
       cx="32.302387"
       cy="34"
       fx="32.302387"
       fy="34"
       r="28"
       gradientUnits="userSpaceOnUse"
       gradientTransform="matrix(0.99999999,1,-1,0.99999999,32.697613,-35.302387)" />
    <linearGradient
       inkscape:collect="always"
       xlink:href="#linearGradient933"
       id="linearGradient935"
       x1="63.855331"
       y1="122.63078"
       x2="63.855331"
       y2="15.286823"
       gradientUnits="userSpaceOnUse"
       gradientTransform="matrix(0.39895775,0,0,0.39895809,5.5244204,5.408958)" />
    <linearGradient
       inkscape:collect="always"
       id="linearGradient933">
      <stop
         style="stop-color:#4e5665;stop-opacity:1;"
         offset="0"
         id="stop929" />
      <stop
         style="stop-color:#596173;stop-opacity:1;"
         offset="1"
         id="stop931" />
    </linearGradient>
    <linearGradient
       id="paint0_linear_54_1196"
       x1="64"
       y1="120"
       x2="64"
       y2="8"
       gradientUnits="userSpaceOnUse"
       gradientTransform="matrix(0.28571429,0,0,0.28571429,12.714302,12.714286)">
      <stop
         stop-color="#5570FF"
         id="stop2-6" />
      <stop
         offset="1"
         stop-color="#4DD3FF"
         id="stop3-8" />
    </linearGradient>
    <linearGradient
       id="linear0"
       gradientUnits="userSpaceOnUse"
       x1="31.999998"
       y1="60"
       x2="31.999998"
       y2="3.999999"
       gradientTransform="matrix(0.75,0,0,0.75,8,47)">
      <stop
         offset="0"
         style="stop-color:rgb(0%,0%,0%);stop-opacity:0.2;"
         id="stop1-3" />
      <stop
         offset="1"
         style="stop-color:rgb(100%,100%,100%);stop-opacity:0;"
         id="stop2-67" />
    </linearGradient>
  </defs>
  <sodipodi:namedview
     id="namedview7"
     pagecolor="#ffffff"
     bordercolor="#000000"
     borderopacity="0.25"
     inkscape:showpageshadow="2"
     inkscape:pageopacity="0.0"
     inkscape:pagecheckerboard="0"
     inkscape:deskcolor="#d1d1d1"
     inkscape:zoom="8.3306018"
     inkscape:cx="35.891765"
     inkscape:cy="34.87143"
     inkscape:window-width="1920"
     inkscape:window-height="998"
     inkscape:window-x="0"
     inkscape:window-y="0"
     inkscape:window-maximized="1"
     inkscape:current-layer="svg7" />
  <path
     d="M 59,31 C 59,46.46415 46.464172,59 30.999998,59 15.535835,59 3.0000001,46.46415 3.0000001,31 3.0000001,15.535835 15.535835,3 30.999998,3 46.464172,3 59,15.535835 59,31 Z"
     id="path154"
     style="fill:url(#radialGradient9)" />
  <circle
     style="fill:url(#linearGradient935);fill-opacity:1;stroke:none;stroke-width:0.604378;stroke-linecap:round;stroke-miterlimit:4;stroke-dasharray:none;stroke-opacity:1"
     id="path1096"
     cx="31"
     cy="31"
     r="23.3335" />
  <path
     style="opacity:0;fill:#ffffff;stroke-width:0.833327"
     d="m 31.014664,7.109864 a 23.3335,23.3335 0 0 0 -23.3335,23.3335 23.3335,23.3335 0 0 0 0.017902,0.338561 A 23.3335,23.3335 0 0 1 31.014664,7.943191 23.3335,23.3335 0 0 1 54.3335,31 a 23.3335,23.3335 0 0 0 0.01466,-0.556636 23.3335,23.3335 0 0 0 -23.3335,-23.3335 z M 52.484527,39.580802 C 39.648453,45.567549 25.875235,47.530573 14.10211,46.503063 a 23.3335,23.3335 0 0 0 0.944016,0.900059 c 11.411738,0.834518 24.591081,-1.116638 36.946888,-6.77088 a 23.3335,23.3335 0 0 0 0.491513,-1.05144 z"
     id="path7" />
  <g
     id="g1"
     transform="matrix(0.64150723,0,0,0.66666664,8.2264348,-29.666665)">
    <path
       style="opacity:0.2"
       d="M 20.041016,64.999428 C 15.839987,68.255955 12.958558,72.230329 12.314453,77.60099 12.113039,78.627315 12.0044,79.522598 12,80.341225 c -0.0031,1.577561 0.368982,3.94812 1.042969,5.658203 h 0.0625 c 0.906026,2.935487 2.436921,5.659059 4.449219,8.003906 l -3.681641,-0.0039 c -4.6987579,-0.0044 -6.2776295,2.159746 -3.505859,4.8125 l 21.144531,20.232416 c 2.769598,2.65274 7.198405,2.59942 9.839843,-0.11523 L 60.75,98.991616 c 2.641437,-2.714652 0.958306,-4.945313 -3.740234,-4.945313 l -3.541016,-0.0039 c 2.067414,-2.356244 3.64807,-5.095414 4.580078,-8.050781 0.04239,-2.36e-4 0.08254,2.49e-4 0.125,0 0.647797,-2.107351 0.826633,-3.204734 0.826172,-5.3711 -1.96e-4,-0.12908 -0.0072,-0.320362 -0.0098,-0.480469 7.04e-4,-0.06794 0.0059,-0.135085 0.0059,-0.203125 h 0.002 c 0,-6.408486 -3.78293,-11.222956 -8.546875,-14.925781 -10.545924,0 -19.562109,-0.0085 -30.410156,-0.01172 z"
       id="path1" />
    <path
       style="fill:#8d5fd3"
       d="m 26.897815,93.015482 17.084619,0.01769 13.026884,0.01336 c 4.69854,0 6.382022,2.230523 3.740585,4.945174 L 41.351858,117.92925 c -2.641438,2.71466 -7.070621,2.76771 -9.840219,0.11497 L 10.36712,97.812544 C 7.5953496,95.15979 9.1743462,92.995587 13.873104,93.000009 Z"
       id="path2-3" />
    <path
       style="fill:#8d5fd3"
       d="m 58.99681,78.936602 c 0,11.974725 -10.925211,22.384038 -23.548791,22.384038 C 22.826629,101.32064 12.176,90.913509 12.176,78.936602 12.176,72.35574 15.253795,67.711554 20.041823,64 c 10.848047,0.0032 19.863636,0.01091 30.40956,0.01091 4.763945,3.702826 8.547617,8.517206 8.547617,14.925692 z"
       id="path3-6" />
    <path
       style="opacity:0.2"
       d="M 30.9375,73.999841 C 29.034499,74.003041 27.101421,76.63697 27,78.927575 v 2.882813 c 5.8e-4,3.30289 1.769146,5.209745 3.9375,5.189453 3.504225,-5e-6 7.259448,3e-6 10.763672,0 0.534017,0.0034 1.2753,-0.434139 1.273437,-1.300781 L 43,75.265466 c -0.0031,-0.812757 -0.807656,-1.233238 -1.298828,-1.257813 -3.756742,0.02699 -7.244959,-0.0053 -10.763672,-0.0078 z m -17.992187,1 C 12.295565,77.289427 12.007722,78.904908 12,80.341638 c -0.0031,1.577561 0.368982,3.94812 1.042969,5.658203 h 12.228515 c 0,0 -0.719105,-0.739585 -1.009765,-2.134766 -0.290658,-1.395183 -0.282474,-4.640245 -0.02539,-6.142578 0.256981,-1.500367 1.035156,-2.708984 1.035156,-2.708984 z m 45.228515,0 c -1.827926,0.0036 -9.785837,0.03834 -10.976562,0.03516 h -0.0039 c -0.443649,0.05702 -1.024408,0.301993 -1.185547,1.058594 -0.01604,2.710669 -0.0032,6.070581 -0.0078,8.78125 0.07683,0.809296 0.693073,1.032605 1.128906,1.105469 3.953762,0.0016 7.362407,0.03332 11.044922,0.01172 C 58.821625,83.884684 59.000461,82.787301 59,80.620935 58.9984,79.569412 58.96097,77.441611 58.173828,74.999841 Z m -26.220703,2 c 1.994284,-0.005 4.074702,0.0133 6.09375,0.01953 C 38.4524,77.020573 39,76.994767 39,78.034997 V 79.0057 c -0.578832,-0.003 -1.179837,-0.007 -1.617188,-0.01172 -0.621124,0.03846 -1.265744,-0.101397 -1.865234,0.08594 -0.376426,0.242281 -0.519979,0.802451 -0.517578,1.4375 -0.0014,0.948564 0.581172,1.496314 0.986328,1.482422 l 2.101563,-0.002 c 0.257747,0.0021 0.580664,0.0035 0.912109,0.0039 v 1.015625 c 0,0.995946 -0.763672,0.982422 -0.763672,0.982422 -0.749333,0 -4.407013,4.63e-4 -6.283203,0 C 31.520363,83.999703 30.99943,83.475634 31,82.429529 c 0.0021,-1.943875 0.0021,-2.201287 0,-4.074219 -9.52e-4,-0.833787 0.535601,-1.354437 0.953125,-1.355469 z m 18.546875,2 a 1.5,1.5 0 0 1 1.5,1.5 1.5,1.5 0 0 1 -1.5,1.5 1.5,1.5 0 0 1 -1.5,-1.5 1.5,1.5 0 0 1 1.5,-1.5 z m 5,0 a 1.5,1.5 0 0 1 1.5,1.5 1.5,1.5 0 0 1 -1.5,1.5 1.5,1.5 0 0 1 -1.5,-1.5 1.5,1.5 0 0 1 1.5,-1.5 z"
       id="path4" />
    <path
       style="fill:#ffffff"
       d="M 30.9375,73.000001 C 29.034499,73.003201 27.101421,75.63713 27,77.927735 v 2.882813 c 5.8e-4,3.30289 1.769146,5.209745 3.9375,5.189453 3.504225,-5e-6 7.259448,3e-6 10.763672,0 0.534017,0.0034 1.2753,-0.434139 1.273437,-1.300781 L 43,74.265626 c -0.0031,-0.812757 -0.807656,-1.233238 -1.298828,-1.257813 -3.756742,0.02699 -7.244959,-0.0053 -10.763672,-0.0078 z m -17.992187,1 C 12.295565,76.289587 12.007722,77.905068 12,79.341798 c -0.0031,1.577561 0.368982,3.94812 1.042969,5.658203 h 12.228515 c 0,0 -0.719105,-0.739585 -1.009765,-2.134766 -0.290658,-1.395183 -0.282474,-4.640245 -0.02539,-6.142578 0.256981,-1.500367 1.035156,-2.708984 1.035156,-2.708984 z m 45.228515,0 c -1.827926,0.0036 -9.785837,0.03834 -10.976562,0.03516 h -0.0039 c -0.443649,0.05702 -1.024408,0.301993 -1.185547,1.058594 -0.01604,2.710669 -0.0032,6.070581 -0.0078,8.78125 0.07683,0.809296 0.693073,1.032605 1.128906,1.105469 3.953762,0.0016 7.362407,0.03332 11.044922,0.01172 C 58.821625,82.884844 59.000461,81.787461 59,79.621095 58.9984,78.569572 58.96097,76.441771 58.173828,74.000001 Z m -26.220703,2 c 1.994284,-0.005 4.074702,0.0133 6.09375,0.01953 C 38.4524,76.020733 39,75.994927 39,77.035157 v 0.970703 c -0.578832,-0.003 -1.179837,-0.007 -1.617188,-0.01172 -0.621124,0.03846 -1.265744,-0.101397 -1.865234,0.08594 -0.376426,0.24228 -0.519979,0.80245 -0.517578,1.437499 -0.0014,0.948564 0.581172,1.496314 0.986328,1.482422 l 2.101563,-0.002 c 0.257747,0.0021 0.580664,0.0035 0.912109,0.0039 v 1.015625 c 0,0.995999 -0.763672,0.982475 -0.763672,0.982475 -0.749333,0 -4.407013,4.63e-4 -6.283203,0 C 31.520363,82.999863 30.99943,82.475794 31,81.429689 c 0.0021,-1.943875 0.0021,-2.201287 0,-4.074219 -9.52e-4,-0.833787 0.535601,-1.354437 0.953125,-1.355469 z m 18.546875,2 a 1.5,1.5 0 0 1 1.5,1.5 1.5,1.5 0 0 1 -1.5,1.5 1.5,1.5 0 0 1 -1.5,-1.5 1.5,1.5 0 0 1 1.5,-1.5 z m 5,0 a 1.5,1.5 0 0 1 1.5,1.5 1.5,1.5 0 0 1 -1.5,1.5 1.5,1.5 0 0 1 -1.5,-1.5 1.5,1.5 0 0 1 1.5,-1.5 z"
       id="path5" />
    <path
       style="opacity:0.2;fill:#ffffff"
       d="m 20.041016,64.000001 c -4.788028,3.711554 -7.865235,8.356638 -7.865235,14.9375 0,0.182854 0.0087,0.364785 0.01367,0.546875 0.139624,-6.33944 3.175336,-10.859487 7.851563,-14.484375 10.848047,0.0032 19.864232,0.01172 30.410156,0.01172 4.651436,3.615377 8.358314,8.294628 8.53125,14.478515 0.0052,-0.184274 0.01367,-0.367675 0.01367,-0.552734 h 0.002 c 0,-6.408486 -3.78293,-11.222955 -8.546875,-14.925781 -10.545969,0 -19.562154,-0.0085 -30.410201,-0.01172 z m -6.167969,29 c -3.504935,-0.0033 -5.2726633,1.201387 -4.794922,2.914062 0.3480701,-1.161578 2.023415,-1.916657 4.794922,-1.914062 l 3.681641,0.0039 c -0.276891,-0.322648 -0.530542,-0.663547 -0.789063,-1 z m 40.419922,0.04297 c -0.266533,0.339296 -0.538871,0.674787 -0.824219,1 l 3.541016,0.0039 c 2.843232,0 4.573218,0.819786 4.917968,2.066406 0.45647,-1.792891 -1.368642,-3.066406 -4.917968,-3.066406 z"
       id="path6" />
  </g>
</svg>
