<?xml version="1.0" encoding="UTF-8" standalone="no"?>
<svg
   width="62"
   height="62"
   version="1"
   id="svg7"
   sodipodi:docname="binaryninja.svg"
   inkscape:version="1.4.2 (unknown)"
   xmlns:inkscape="http://www.inkscape.org/namespaces/inkscape"
   xmlns:sodipodi="http://sodipodi.sourceforge.net/DTD/sodipodi-0.dtd"
   xmlns:xlink="http://www.w3.org/1999/xlink"
   xmlns="http://www.w3.org/2000/svg"
   xmlns:svg="http://www.w3.org/2000/svg">
  <defs
     id="defs7">
    <linearGradient
       id="linearGradient7"
       inkscape:collect="always">
      <stop
         style="stop-color:#384850;stop-opacity:1;"
         offset="0"
         id="stop8" />
      <stop
         style="stop-color:#384850;stop-opacity:1;"
         offset="0.59162253"
         id="stop10" />
      <stop
         style="stop-color:#eff2f6;stop-opacity:1;"
         offset="0.92173076"
         id="stop11" />
      <stop
         style="stop-color:#eff2f6;stop-opacity:1;"
         offset="1"
         id="stop9" />
    </linearGradient>
    <linearGradient
       id="c-3"
       gradientUnits="userSpaceOnUse"
       x1="24.072048"
       x2="23.959682"
       y1="0.75082099"
       y2="46.056854">
      <stop
         offset="0"
         stop-color="#fff"
         id="stop3" />
      <stop
         offset="1"
         stop-color="#d9d9d9"
         id="stop4" />
    </linearGradient>
    <linearGradient
       id="b-6"
       gradientUnits="userSpaceOnUse"
       x1="29.203026"
       x2="34.121048"
       xlink:href="#a-7"
       y1="24.827356"
       y2="29.224836" />
    <linearGradient
       id="a-7">
      <stop
         offset="0"
         id="stop1" />
      <stop
         offset="1"
         stop-opacity="0"
         id="stop2" />
    </linearGradient>
    <linearGradient
       id="d"
       gradientUnits="userSpaceOnUse"
       x1="15.948756"
       x2="25.031786"
       xlink:href="#a-7"
       y1="23.618279"
       y2="33.69899" />
    <linearGradient
       id="e"
       gradientUnits="userSpaceOnUse"
       x1="21.990562"
       x2="29.320522"
       xlink:href="#a-7"
       y1="33.780373"
       y2="41.931858" />
    <linearGradient
       id="paint154_linear_890_11"
       x1="778"
       y1="812.29199"
       x2="788"
       y2="812.29199"
       gradientUnits="userSpaceOnUse"
       gradientTransform="translate(-751,-696)">
      <stop
         stop-color="#EFF2F6"
         id="stop1050" />
      <stop
         offset="0.600785"
         stop-color="#B7C6CD"
         id="stop1051" />
    </linearGradient>
    <linearGradient
       id="paint155_linear_890_11"
       x1="783"
       y1="813"
       x2="783"
       y2="817"
       gradientUnits="userSpaceOnUse"
       gradientTransform="translate(-751,-696)">
      <stop
         stop-color="#EFF2F6"
         id="stop1052" />
      <stop
         offset="0.734138"
         stop-color="#B7C6CD"
         id="stop1053" />
    </linearGradient>
    <radialGradient
       id="paint156_radial_890_11"
       cx="0"
       cy="0"
       r="1"
       gradientUnits="userSpaceOnUse"
       gradientTransform="matrix(27.999986,27.999976,-27.999986,27.999976,32.302392,33.999998)">
      <stop
         offset="0.60067803"
         stop-color="#B7C6CD"
         id="stop1054"
         style="stop-color:#384850;stop-opacity:1;" />
      <stop
         offset="0.876735"
         stop-color="#EFF2F6"
         id="stop1055" />
    </radialGradient>
    <linearGradient
       id="paint157_linear_890_11"
       x1="796.84485"
       y1="799.43359"
       x2="768.90088"
       y2="770.81476"
       gradientUnits="userSpaceOnUse"
       gradientTransform="matrix(1.1666666,0,0,1.1666668,-881.19764,-881.8333)">
      <stop
         offset="0.00000057"
         stop-color="#2E2E41"
         id="stop1056"
         style="stop-color:#495361;stop-opacity:1;" />
      <stop
         offset="0.711139"
         stop-color="#566C80"
         id="stop1057" />
    </linearGradient>
    <linearGradient
       id="paint158_linear_890_11"
       x1="792"
       y1="794"
       x2="774"
       y2="776"
       gradientUnits="userSpaceOnUse"
       gradientTransform="translate(-751,-696)">
      <stop
         offset="0.304478"
         stop-color="#2E2E41"
         id="stop1058" />
      <stop
         offset="1"
         stop-color="#566C80"
         id="stop1059" />
    </linearGradient>
    <linearGradient
       id="paint159_linear_890_11"
       x1="788"
       y1="790"
       x2="778"
       y2="780"
       gradientUnits="userSpaceOnUse"
       gradientTransform="translate(-751,-696)">
      <stop
         offset="0.391394"
         stop-color="#5200FF"
         id="stop1060" />
      <stop
         offset="1"
         stop-color="#0085FF"
         id="stop1061" />
    </linearGradient>
    <linearGradient
       id="paint160_linear_890_11"
       x1="784"
       y1="798"
       x2="782"
       y2="796"
       gradientUnits="userSpaceOnUse"
       gradientTransform="translate(-751,-696)">
      <stop
         stop-color="#FF7E07"
         id="stop1062" />
      <stop
         offset="1"
         stop-color="#FFE607"
         id="stop1063" />
    </linearGradient>
    <radialGradient
       inkscape:collect="always"
       xlink:href="#linearGradient7"
       id="radialGradient9"
       cx="32.302387"
       cy="34"
       fx="32.302387"
       fy="34"
       r="28"
       gradientUnits="userSpaceOnUse"
       gradientTransform="matrix(0.99999999,1,-1,0.99999999,32.697613,-35.302387)" />
    <linearGradient
       inkscape:collect="always"
       xlink:href="#linearGradient933"
       id="linearGradient935"
       x1="63.855331"
       y1="122.63078"
       x2="63.855331"
       y2="15.286823"
       gradientUnits="userSpaceOnUse"
       gradientTransform="matrix(0.39895775,0,0,0.39895809,5.5244204,5.408958)" />
    <linearGradient
       inkscape:collect="always"
       id="linearGradient933">
      <stop
         style="stop-color:#373e48;stop-opacity:1"
         offset="0"
         id="stop929" />
      <stop
         style="stop-color:#373e48;stop-opacity:1"
         offset="1"
         id="stop931" />
    </linearGradient>
    <linearGradient
       id="paint0_linear_54_1196"
       x1="64"
       y1="120"
       x2="64"
       y2="8"
       gradientUnits="userSpaceOnUse"
       gradientTransform="matrix(0.28571429,0,0,0.28571429,12.714302,12.714286)">
      <stop
         stop-color="#5570FF"
         id="stop2-6" />
      <stop
         offset="1"
         stop-color="#4DD3FF"
         id="stop3-8" />
    </linearGradient>
    <linearGradient
       id="linear0"
       gradientUnits="userSpaceOnUse"
       x1="31.999998"
       y1="60"
       x2="31.999998"
       y2="3.999999"
       gradientTransform="matrix(0.75,0,0,0.75,8,47)">
      <stop
         offset="0"
         style="stop-color:rgb(0%,0%,0%);stop-opacity:0.2;"
         id="stop1-3" />
      <stop
         offset="1"
         style="stop-color:rgb(100%,100%,100%);stop-opacity:0;"
         id="stop2-67" />
    </linearGradient>
  </defs>
  <sodipodi:namedview
     id="namedview7"
     pagecolor="#ffffff"
     bordercolor="#000000"
     borderopacity="0.25"
     inkscape:showpageshadow="2"
     inkscape:pageopacity="0.0"
     inkscape:pagecheckerboard="0"
     inkscape:deskcolor="#d1d1d1"
     inkscape:zoom="8.3306018"
     inkscape:cx="35.951784"
     inkscape:cy="44.354539"
     inkscape:window-width="1920"
     inkscape:window-height="998"
     inkscape:window-x="0"
     inkscape:window-y="0"
     inkscape:window-maximized="1"
     inkscape:current-layer="svg7" />
  <path
     d="M 59,31 C 59,46.46415 46.464172,59 30.999998,59 15.535835,59 3.0000001,46.46415 3.0000001,31 3.0000001,15.535835 15.535835,3 30.999998,3 46.464172,3 59,15.535835 59,31 Z"
     id="path154"
     style="fill:url(#radialGradient9)" />
  <circle
     style="fill:url(#linearGradient935);fill-opacity:1;stroke:none;stroke-width:0.604378;stroke-linecap:round;stroke-miterlimit:4;stroke-dasharray:none;stroke-opacity:1"
     id="path1096"
     cx="31"
     cy="31"
     r="23.3335" />
  <path
     style="opacity:0;fill:#ffffff;stroke-width:0.833327"
     d="m 31.014664,7.109864 a 23.3335,23.3335 0 0 0 -23.3335,23.3335 23.3335,23.3335 0 0 0 0.017902,0.338561 A 23.3335,23.3335 0 0 1 31.014664,7.943191 23.3335,23.3335 0 0 1 54.3335,31 a 23.3335,23.3335 0 0 0 0.01466,-0.556636 23.3335,23.3335 0 0 0 -23.3335,-23.3335 z M 52.484527,39.580802 C 39.648453,45.567549 25.875235,47.530573 14.10211,46.503063 a 23.3335,23.3335 0 0 0 0.944016,0.900059 c 11.411738,0.834518 24.591081,-1.116638 36.946888,-6.77088 a 23.3335,23.3335 0 0 0 0.491513,-1.05144 z"
     id="path7" />
  <g
     id="g2"
     transform="translate(-4.333,-60.3333)">
    <path
       style="opacity:1;stroke-width:0.962256;fill:#ff3f3f;fill-opacity:1"
       d="M 35.333499,68.952387 A 23.333499,22.857306 0 0 0 12,91.809694 23.333499,22.857306 0 0 0 35.333499,114.667 23.333499,22.857306 0 0 0 58.667,91.809694 23.333499,22.857306 0 0 0 35.333499,68.952387 Z M 16.086403,84.190591 h 19.288876 19.402806 v 6.372813 c 0,1.212477 -0.01228,2.259326 -0.235466,3.415204 -0.223218,1.155699 -0.798194,2.610518 -1.990027,3.649579 -2.383668,2.078128 -4.698734,1.761413 -7.420846,1.75227 -2.212668,-0.0076 -3.785533,0.01414 -5.609308,-0.651083 -1.823775,-0.664922 -3.289417,-2.401341 -3.934491,-3.694212 -0.09207,-0.184476 -0.135238,-0.242574 -0.178496,-0.308781 -0.02315,-0.0022 -0.003,-8.31e-4 -0.03416,-0.0038 -0.03011,-0.0028 -0.0098,-0.0017 -0.03416,-0.0038 -0.05076,0.07105 -0.08479,0.109011 -0.182289,0.286459 -0.738691,1.344726 -1.657188,2.646916 -3.417997,3.471007 -1.188629,0.556251 -1.707921,0.535917 -2.479944,0.647319 -0.772014,0.111397 -1.604075,0.186879 -2.457157,0.238097 -1.706161,0.102397 -3.132105,0.223977 -4.944701,-0.156302 -1.667859,-0.349723 -3.851999,-1.337976 -4.948492,-3.232721 -1.095037,-1.892228 -1.067613,-3.637862 -1.006404,-5.584103 v -0.0038 c 0,0 0,-0.0038 0,-0.0038 z"
       id="path2-6" />
    <path
       style="fill:#f54636;stroke-width:0.962256"
       d="M 35.333499,68 A 23.333499,22.857306 0 0 0 12,90.857306 23.333499,22.857306 0 0 0 35.333499,113.71461 23.333499,22.857306 0 0 0 58.667,90.857306 23.333499,22.857306 0 0 0 35.333499,68 Z M 16.086403,83.238204 h 19.288876 19.402806 v 6.372813 c 0,1.212476 -0.01228,2.259326 -0.235466,3.415203 -0.223218,1.155699 -0.798194,2.610518 -1.990027,3.64958 -2.383668,2.078118 -4.698734,1.761387 -7.420846,1.752246 -2.212668,-0.0074 -3.785533,0.0139 -5.609308,-0.651047 -1.823775,-0.664937 -3.289417,-2.40135 -3.934491,-3.694224 -0.09208,-0.184478 -0.135238,-0.242574 -0.178496,-0.308781 -0.02315,-0.0022 -0.003,-8.31e-4 -0.03416,-0.0038 -0.03011,-0.0028 -0.0098,-0.0017 -0.03416,-0.0038 -0.05076,0.07105 -0.08479,0.109009 -0.182289,0.286459 -0.738691,1.344727 -1.657188,2.646915 -3.417997,3.471008 -1.188629,0.556296 -1.707921,0.535916 -2.479944,0.647326 -0.772014,0.11141 -1.604075,0.186878 -2.457157,0.238097 -1.706157,0.10242 -3.132102,0.22399 -4.944697,-0.156249 -1.667844,-0.349689 -3.851986,-1.337972 -4.948475,-3.232717 -1.095044,-1.892245 -1.067618,-3.637877 -1.006409,-5.584119 v -0.0038 c 0,0 0,-0.0038 0,-0.0038 z"
       id="path3-7" />
    <path
       style="opacity:0.2;stroke-width:0.962256"
       d="m 30.063243,95.037445 c 0.591669,-0.276912 1.156277,-0.896948 1.67252,-1.836713 0.998015,-1.816803 2.110952,-2.448057 4.005743,-2.272056 1.6311,0.151507 2.529518,0.805817 3.341778,2.433794 0.929328,1.862584 1.841906,2.195306 6.060453,2.209598 5.202475,0.01763 5.745426,-0.455732 5.745426,-5.008961 v -2.562964 l -15.512666,4e-6 H 19.863831 l -0.07404,2.499225 c -0.108335,3.440433 0.493561,4.480499 2.882932,4.98174 1.549016,0.32495 6.366135,0.03579 7.390538,-0.443651 z"
       id="path4" />
    <path
       style="fill:#ffffff;stroke-width:0.962256"
       d="m 30.063243,94.085056 c 0.591669,-0.276911 1.156277,-0.896947 1.67252,-1.836713 0.998015,-1.816802 2.110952,-2.448058 4.005743,-2.272056 1.6311,0.151508 2.529518,0.805817 3.341778,2.433795 0.929328,1.862584 1.841906,2.195304 6.060453,2.209598 5.202475,0.01762 5.745426,-0.455732 5.745426,-5.008961 v -2.562964 l -15.512666,4e-6 H 19.863831 l -0.07404,2.499224 c -0.108335,3.440434 0.493561,4.480499 2.882932,4.98174 1.549016,0.324951 6.366135,0.03579 7.390538,-0.443651 z"
       id="path5" />
    <path
       style="opacity:0.18467852;fill:#ffffff;stroke-width:0.962256"
       d="M 35.333499,68 A 23.333499,22.857306 0 0 0 12,90.857306 23.333499,22.857306 0 0 0 12.01898,91.262814 23.333499,22.857306 0 0 1 35.333487,68.952387 23.333499,22.857306 0 0 1 58.647996,91.430227 23.333499,22.857306 0 0 0 58.666976,90.857306 23.333499,22.857306 0 0 0 35.333499,68 Z m 19.444586,21.611017 c 0,1.212476 -0.01228,2.259326 -0.235466,3.415203 -0.223218,1.155699 -0.798195,2.610517 -1.990027,3.649579 -2.383668,2.078119 -4.698733,1.761389 -7.420845,1.752248 -2.212666,-0.0074 -3.785534,0.0139 -5.609309,-0.651047 -1.823775,-0.664937 -3.289416,-2.401351 -3.93449,-3.694224 -0.09207,-0.184479 -0.135232,-0.242575 -0.17849,-0.308782 -0.02315,-0.0022 -0.003,-7.41e-4 -0.03416,-0.0037 -0.03008,-0.0028 -0.0098,-0.0016 -0.03416,-0.0037 -0.05076,0.07105 -0.08479,0.10901 -0.182288,0.286459 -0.738686,1.344714 -1.657182,2.646904 -3.417988,3.470996 -1.188632,0.556296 -1.707923,0.535916 -2.479947,0.647326 -0.772013,0.111409 -1.604073,0.186875 -2.457155,0.238098 -1.70616,0.10242 -3.132101,0.223982 -4.944698,-0.156253 -1.667845,-0.349689 -3.852,-1.33815 -4.948489,-3.232895 -0.745467,-1.288173 -0.954068,-2.51052 -1.002613,-3.772347 l -0.0036,0.08565 v 0.0037 0.0037 c -0.01733,0.550631 -0.02412,1.084496 -0.01138,1.610876 0.0044,-0.219763 0.0043,-0.433916 0.01138,-0.658489 v -0.0037 -0.0037 l 0.0037,-0.08556 c 0.04851,1.261823 0.257144,2.484168 1.002614,3.772343 1.096494,1.894744 3.280651,2.883221 4.948498,3.232932 1.812596,0.380279 3.238531,0.2587 4.94469,0.156287 0.853088,-0.05131 1.685141,-0.126701 2.457166,-0.2381 0.772013,-0.111399 1.291311,-0.09099 2.479941,-0.647386 1.7608,-0.824087 2.679297,-2.126277 3.417991,-3.471001 0.09747,-0.177451 0.131544,-0.215415 0.182293,-0.286455 0.02406,0.0021 0.004,8.58e-4 0.03416,0.0037 0.03107,0.0029 0.01101,0.0015 0.03416,0.0037 0.04324,0.06621 0.08646,0.124301 0.178491,0.30878 0.645076,1.292873 2.110722,3.029293 3.934491,3.69421 1.823781,0.664968 3.396642,0.643595 5.609307,0.651068 2.722113,0.0096 5.037179,0.325854 7.42085,-1.752256 1.191828,-1.039061 1.766805,-2.493879 1.990022,-3.649578 0.223218,-1.15587 0.235466,-2.202721 0.235466,-3.415195 z"
       id="path7-5" />
  </g>
</svg>
