<?xml version="1.0" encoding="UTF-8" standalone="no"?>
<svg
   width="62"
   height="62"
   version="1.1"
   id="svg29"
   sodipodi:docname="Black_Chocobo.svg"
   inkscape:version="1.4 (unknown)"
   xmlns:inkscape="http://www.inkscape.org/namespaces/inkscape"
   xmlns:sodipodi="http://sodipodi.sourceforge.net/DTD/sodipodi-0.dtd"
   xmlns:xlink="http://www.w3.org/1999/xlink"
   xmlns="http://www.w3.org/2000/svg"
   xmlns:svg="http://www.w3.org/2000/svg">
  <defs
     id="defs29">
    <linearGradient
       id="linearGradient29"
       inkscape:collect="always">
      <stop
         style="stop-color:#476285;stop-opacity:1;"
         offset="0"
         id="stop29" />
      <stop
         style="stop-color:#516e95;stop-opacity:1;"
         offset="1"
         id="stop30" />
    </linearGradient>
    <linearGradient
       inkscape:collect="always"
       xlink:href="#linearGradient29"
       id="linearGradient30"
       x1="30.782633"
       y1="60"
       x2="30.193521"
       y2="5"
       gradientUnits="userSpaceOnUse"
       gradientTransform="matrix(0.98214286,0,0,0.98245614,-0.42857152,-0.92982455)" />
  </defs>
  <sodipodi:namedview
     id="namedview29"
     pagecolor="#ffffff"
     bordercolor="#000000"
     borderopacity="0.25"
     inkscape:showpageshadow="2"
     inkscape:pageopacity="0.0"
     inkscape:pagecheckerboard="0"
     inkscape:deskcolor="#d1d1d1"
     inkscape:zoom="5"
     inkscape:cx="24.6"
     inkscape:cy="46.6"
     inkscape:window-width="1920"
     inkscape:window-height="998"
     inkscape:window-x="0"
     inkscape:window-y="0"
     inkscape:window-maximized="1"
     inkscape:current-layer="svg29" />
  <rect
     style="opacity:0.2;stroke-width:0.9823"
     width="55"
     height="55.017544"
     x="3.5"
     y="3.9824562"
     ry="13.754386"
     id="rect1" />
  <rect
     style="fill:url(#linearGradient30);stroke-width:0.9823"
     width="55"
     height="55.017544"
     x="3.5"
     y="3"
     ry="13.754386"
     id="rect2" />
  <path
     style="opacity:0.1;fill:#ffffff;stroke-width:0.9823"
     d="M 17.25,3 C 9.6324999,3 3.4999999,9.1344561 3.4999999,16.754386 v 0.982456 c 0,-7.61993 6.1325,-13.7543858 13.7500001,-13.7543858 h 27.5 c 7.6175,0 13.75,6.1344558 13.75,13.7543858 V 16.754386 C 58.5,9.1344561 52.3675,3 44.75,3 Z"
     id="path28" />
  <g
     id="g1"
     transform="matrix(0.99608719,0,0,0.99632356,10.480436,-39.838237)">
    <path
       style="fill:#2d3d53;fill-opacity:1"
       d="m 12.320284,98.084333 c 1.255046,-3.301044 2.640248,-6.755838 2.103338,-10.363606 -0.172094,-2.02824 -6.247899,-4.017128 -8.297634,-3.834842 2.781946,-2.720512 1.611447,-12.81127 0.340025,-18.798892 -0.749441,-2.694582 1.420839,-4.549372 2.504402,-7.035318 -0.08196,-2.150131 2.664679,-3.062759 3.097881,-1.467567 1.648154,-1.105671 3.832554,-3.828696 5.699844,-1.593273 1.992462,1.111284 3.717902,1.77912 5.994734,1.273099 2.28165,-1.063286 4.731222,-2.208829 6.690106,-3.861424 2.026284,-1.644425 4.11137,-3.265141 5.73929,-5.334652 1.063534,-0.623732 1.797866,-2.958687 2.544034,-3.067858 -0.375066,2.320076 -1.178962,4.588138 -2.080892,6.749952 -1.300034,2.432379 -4.067386,3.001866 -6.018566,4.745192 -0.218004,2.062878 2.606152,-1.278307 3.825472,-0.871353 2.197558,-0.550117 3.761832,-2.283869 5.798916,-3.37497 1.679666,-1.904499 4.099806,-3.017261 5.415878,-5.265582 1.402604,-1.562824 -0.446228,2.06326 -0.576012,2.729946 -1.064528,2.046934 -1.950316,3.805286 -3.329344,5.661912 -1.048762,2.113945 -3.377448,3.65355 -5.734612,3.783561 -1.26235,0.240069 -3.52469,0.149982 -4.14057,1.075517 2.292034,0.683336 4.622056,-0.09082 6.858406,-0.625358 2.051918,-0.746592 3.86486,1.075874 1.863628,2.74768 -0.739072,3.073364 -4.019628,2.03006 -6.324612,2.394372 -2.659368,0.328646 0.832822,2.704736 2.46444,2.068874 3.525794,-1.029176 0.39859,3.224646 -1.546348,2.161104 -3.037606,-1.95332 -2.014812,2.42307 -2.12481,4.111548 0.332844,1.738326 -1.061412,6.673678 1.99462,6.073316 1.195582,-0.334938 4.527538,0.17918 1.954824,1.408038 -1.389018,0.634844 -1.411734,3.28577 -3.276772,1.776916 -2.46833,-0.503912 1.04649,2.205866 -1.246654,2.718134 -3.27152,1.549758 -2.098212,4.294042 -3.36479,7.577374 -0.45826,2.253212 -1.978514,4.235586 -2.08257,6.545154 -4.914254,-0.03514 -9.836704,0.0914 -14.745652,-0.10698 z"
       id="path2" />
    <path
       style="opacity:0.2"
       d="m 38.736328,44.000036 c -0.746168,0.109172 -1.481388,2.444627 -2.544922,3.06836 -1.62792,2.06951 -3.711997,3.689559 -5.738281,5.333984 -1.958884,1.652595 -4.407803,2.798042 -6.689453,3.861328 -2.276832,0.506021 -4.003632,-0.162153 -5.996094,-1.273437 -1.86729,-2.235423 -4.051065,0.488079 -5.699219,1.59375 -0.433202,-1.595192 -3.179616,-0.683335 -3.097656,1.466796 -1.000641,2.295705 -2.922174,4.055962 -2.621094,6.433594 0.238925,-1.899363 1.765734,-3.471198 2.621094,-5.433594 -0.08196,-2.150131 2.664454,-3.061988 3.097656,-1.466796 1.648154,-1.105671 3.831929,-3.829173 5.699219,-1.59375 1.992462,1.111284 3.719262,1.779458 5.996094,1.273437 2.28165,-1.063286 4.730569,-2.208733 6.689453,-3.861328 2.026284,-1.644425 4.110361,-3.264474 5.738281,-5.333984 0.953747,-0.559346 1.644244,-2.482706 2.314453,-2.955079 0.08125,-0.370665 0.170074,-0.739691 0.230469,-1.113281 z m 7.419922,1.597656 c -0.06714,-0.0181 -0.215527,0.09174 -0.478516,0.384766 -1.316072,2.248321 -3.736349,3.361126 -5.416015,5.265625 -2.037084,1.091101 -3.60127,2.824883 -5.798828,3.375 -0.871666,-0.290923 -2.549041,1.309462 -3.363282,1.50586 -0.155856,0.119692 -0.315377,0.233435 -0.46289,0.365234 -0.218004,2.062878 2.606852,-1.278048 3.826172,-0.871094 2.197558,-0.550117 3.761744,-2.283899 5.798828,-3.375 1.679666,-1.904499 4.099943,-3.017304 5.416015,-5.265625 0.06893,-0.0768 0.09658,-0.08792 0.150391,-0.140625 0.258322,-0.641149 0.463223,-1.207711 0.328125,-1.244141 z m -6.294922,12.843751 c -0.344365,-0.02272 -0.720734,0.02798 -1.105469,0.167968 -1.724672,0.412236 -3.505543,0.960059 -5.28125,0.878906 -0.695098,0.128127 -1.303384,0.333219 -1.578125,0.746094 2.292034,0.683336 4.623025,-0.09046 6.859375,-0.625 1.188902,-0.432583 2.290039,-0.0016 2.623047,0.761719 0.391456,-1.000219 -0.387448,-1.855115 -1.517578,-1.929687 z m -6.18164,6.472656 c -1.338468,0.622481 1.612576,2.477393 3.078124,1.90625 0.709396,-0.207072 1.140441,-0.194868 1.375,-0.06055 0.460132,-0.745485 0.274149,-1.420838 -1.375,-0.939453 -0.925764,0.360782 -2.417909,-0.2519 -3.078124,-0.90625 z m -0.652344,5.228515 c -0.04322,1.005456 0.108048,2.220072 0.06055,2.949219 0.02432,0.12701 0.02296,0.301247 0.03125,0.458984 0.02545,-0.568566 0.03889,-1.092652 -0.03125,-1.458984 0.03225,-0.494998 -0.02893,-1.219405 -0.06055,-1.949219 z m 0.03516,5.720703 c -0.0654,1.842389 0.08385,3.683002 2.019531,3.302735 0.614164,-0.172056 1.78193,-0.117213 2.433594,0.140625 1.586737,-1.033495 -1.329299,-1.449989 -2.433594,-1.140625 -1.578902,0.310178 -1.964529,-0.861956 -2.019531,-2.302735 z M 7.82227,77.294958 c -0.04985,2.93951 -0.512508,5.435112 -1.695313,6.591797 0.184693,-0.01642 0.432977,0.0042 0.675781,0.02148 0.78198,-1.516632 1.054936,-3.920241 1.019532,-6.613281 z m 25.242187,5.017578 c -0.4773,0.119532 -0.08909,0.735978 0.134766,1.365235 0.259538,-0.37084 0.06104,-0.897371 -0.134766,-1.365235 z m -18.548828,7.490235 c -0.106328,2.859617 -1.183871,5.62094 -2.195313,8.28125 0.122986,0.005 0.246139,0.0052 0.369141,0.0098 1.009375,-2.667256 1.963312,-5.427144 1.826172,-8.291015 z"
       id="path3" />
    <ellipse
       id="ellipse865"
       style="opacity:0.2"
       cx="14.030001"
       cy="68.199257"
       rx="2.97"
       ry="4" />
    <ellipse
       style="fill:#7137c8"
       cx="14.030001"
       cy="67.199257"
       rx="2.97"
       ry="4"
       id="ellipse3" />
    <path
       style="opacity:0.598;fill:#8d5fd3"
       d="m 11.677038,64.766963 a 2.9704102,3.9999996 0 0 0 -0.61787,2.432292 2.9704102,3.9999996 0 0 0 1.395282,3.38802 3.7130128,3.333333 0 0 0 1.57513,-2.721354 3.7130128,3.333333 0 0 0 -2.352542,-3.098958 z"
       id="path4" />
    <path
       id="ellipse1023"
       style="fill:#ffffff"
       d="m 14.02958,63.199255 a 2.9704102,3.9999996 0 0 0 -1.644748,0.674478 2.9704102,3.9999996 0 0 1 0.15956,-0.0078 2.9704102,3.9999996 0 0 1 2.97041,4 A 2.9704102,3.9999996 0 0 1 14.18914,71.191455 2.9704102,3.9999996 0 0 0 17,67.199257 a 2.9704102,3.9999996 0 0 0 -2.97041,-4 z" />
    <path
       style="opacity:0.2"
       d="m 6.695488,63.199255 c -8.8405174,4.370138 -13.7958432,16.879706 -10.837831,26.23116 0.2645644,0.657014 0.598344,1.276922 1.2061314,1.76884 1.5570646,-0.942082 2.1775986,-2.602184 3.4815346,-3.72171 0.636114,-0.539972 1.379343,-0.933492 2.282869,-0.886788 2.602549,-0.15922 4.550651,-0.997234 6.440928,-1.645886 1.08338,-0.575088 2.255722,-0.982464 3.346992,-1.618822 2.016342,-0.933998 3.405226,-3.54162 1.42393,-4.16406 -0.456634,-0.1242 -1.035598,-0.03916 -1.503286,-0.225468 C 10.219364,77.485337 8.502119,73.827795 7.905271,71.362073 7.260106,68.707175 6.02409,65.828083 6.533364,63.425143 Z"
       id="path5" />
    <path
       style="fill:#2e2e2e"
       d="m 11.046388,66.502647 c -0.112,0.424832 0.0142,0.789548 0.0128,1.240358 0.0013,0.450808 0.05914,0.898082 0.17114,1.322916 0.748382,-0.07794 1.3132,-0.646564 1.314068,-1.322916 -8.68e-4,-0.676354 -0.749612,-1.16242 -1.497988,-1.240358 z"
       id="path6" />
    <path
       style="fill:#ea9f15;fill-opacity:1"
       d="m 6.695488,62.199255 c -8.8405174,4.370138 -13.7958432,16.879706 -10.837831,26.23116 0.2645644,0.657014 0.598344,1.276922 1.2061314,1.76884 1.5570646,-0.942082 2.1775986,-2.602184 3.4815346,-3.72171 0.636114,-0.539972 1.379343,-0.933492 2.282869,-0.886788 2.602549,-0.15922 4.550651,-0.997234 6.440928,-1.645886 1.08338,-0.575088 2.255722,-0.982464 3.346992,-1.618822 2.016342,-0.933998 3.405226,-3.54162 1.42393,-4.16406 -0.456634,-0.1242 -1.035598,-0.03916 -1.503286,-0.225468 C 10.219364,76.485337 8.502119,72.827795 7.905271,70.362073 7.260106,67.707175 6.02409,64.828083 6.533364,62.425143 Z"
       id="path7" />
    <path
       style="opacity:0.3"
       d="m 5.545251,68.849733 c -0.606335,0.606334 -2.770608,1.787546 -3.376943,1.181214 -0.606333,-0.606336 0.57488,-2.770608 1.181214,-3.376942 0.606334,-0.606334 1.589394,-0.606334 2.195729,0 0.606332,0.606334 0.606332,1.589394 0,2.195728 z"
       id="path9" />
    <path
       style="opacity:0.2"
       d="m 4.447266,66.199255 c -0.397349,0 -0.79449,0.151911 -1.097657,0.455078 -0.578005,0.578006 -1.675646,2.568998 -1.251953,3.279297 0.235038,-0.851652 0.86055,-1.887893 1.251953,-2.279297 0.606334,-0.606334 1.588978,-0.606334 2.195313,0 0.173812,0.173813 0.293026,0.379678 0.367187,0.597656 C 6.096656,67.709563 5.977439,67.086855 5.544922,66.654333 5.241754,66.351166 4.844614,66.199255 4.447266,66.199255 Z"
       id="path10" />
    <path
       style="opacity:0.2;fill:#ffffff"
       d="M 6.695312,62.199255 C -0.588944,65.800086 -5.2230314,74.924912 -4.9785156,83.257849 -4.8438652,75.313509 -0.416214,66.889845 6.419922,63.345739 6.433672,63.03254 6.469682,62.725558 6.533203,62.425817 Z m -0.255859,1.994141 c -0.153485,2.234864 0.886821,4.789363 1.464844,7.167968 0.596848,2.465722 2.31542,6.123035 4.632812,7.574219 0.467688,0.186308 1.047273,0.102363 1.503907,0.226563 0.455097,0.142972 0.724711,0.393061 0.857422,0.701171 0.215942,-0.744564 0.02802,-1.423002 -0.857422,-1.701171 -0.456634,-0.1242 -1.036219,-0.04026 -1.503907,-0.226563 C 10.219717,76.484399 8.501145,72.827086 7.904297,70.361364 7.411043,68.331591 6.579441,66.172284 6.439453,64.193396 Z"
       id="path11" />
    <path
       style="opacity:0.1;fill:#ffffff"
       d="m 38.736328,45.000036 c -0.07703,0.01127 -0.15332,0.05891 -0.230469,0.113281 -0.423341,1.931254 -1.092912,3.82301 -1.849609,5.636719 -1.300034,2.432379 -4.068351,3.000815 -6.019531,4.744141 -0.06216,0.58817 0.13814,0.713096 0.46289,0.634766 1.905681,-1.463501 4.354892,-2.130421 5.556641,-4.378907 0.90193,-2.161814 1.705012,-4.429923 2.080078,-6.75 z m 7.419922,1.597656 c -0.04954,-0.01336 -0.176616,0.09575 -0.328125,0.244141 -0.297952,0.739511 -0.67008,1.580957 -0.726563,1.871094 -1.064528,2.046934 -1.95105,3.805483 -3.330078,5.662109 -1.048762,2.113945 -3.377211,3.653192 -5.734375,3.783203 -1.26235,0.240069 -3.524745,0.150637 -4.140625,1.076172 0.524419,0.156348 1.051307,0.22983 1.578125,0.253906 0.86309,-0.159092 1.863277,-0.197102 2.5625,-0.330078 2.357164,-0.130011 4.685613,-1.669258 5.734375,-3.783203 1.379028,-1.856626 2.265551,-3.615175 3.330078,-5.662109 0.10545,-0.541683 1.345611,-3.036786 1.054688,-3.115235 z M 41.378906,60.37113 c -0.12543,0.320491 -0.365191,0.656705 -0.759765,0.986328 -0.739072,3.073364 -4.019235,2.028266 -6.324219,2.392578 -1.150468,0.142176 -1.11862,0.66515 -0.615234,1.164063 0.151668,-0.07054 0.344559,-0.130613 0.615234,-0.164063 2.304984,-0.364312 5.585147,0.680786 6.324219,-2.392578 0.841698,-0.703145 1.001494,-1.43223 0.759765,-1.986328 z M 6.349609,64.484411 c -0.06374,0.506735 -0.04065,1.036025 0.117188,1.603516 0.670549,3.157877 1.306072,7.449681 1.355469,11.207031 0.0674,-3.974188 -0.62462,-8.765177 -1.355469,-12.207031 -0.05735,-0.206208 -0.09224,-0.406485 -0.117188,-0.603516 z m 31.783203,2.275391 c -0.523606,0.848322 -1.884705,1.786786 -2.919921,1.220703 -2.147095,-1.380681 -2.261788,0.402468 -2.185547,2.162109 0.05686,-1.322866 0.459692,-2.271913 2.185547,-1.162109 1.553613,0.849556 3.851157,-1.687429 2.919921,-2.220703 z m -5.013671,6.791015 c -0.03292,0.735496 -0.08566,1.552276 -0.05664,2.3125 0.03031,-0.85383 0.08994,-1.678781 0.05664,-2.3125 z m 4.396484,5.75586 c -0.131168,0.08543 -0.282079,0.17375 -0.478516,0.267578 -1.389018,0.634844 -1.412305,3.286198 -3.277343,1.777344 -1.224063,-0.249894 -0.976059,0.29011 -0.695313,0.960937 0.144112,-0.03609 0.361316,-0.02912 0.695313,0.03906 1.865038,1.508854 1.888325,-1.1425 3.277343,-1.777344 1.251126,-0.597601 1.095435,-1.023487 0.478516,-1.267578 z m -4.316406,4.371094 c -0.118733,0.16965 -0.322713,0.309571 -0.685547,0.390625 -3.27152,1.549758 -2.098656,4.294793 -3.365234,7.578125 -0.458262,2.253212 -1.977976,4.235353 -2.082032,6.544922 -4.791135,-0.03426 -9.590344,0.08018 -14.376953,-0.09766 -0.01327,0.03505 -0.02588,0.07032 -0.03906,0.105469 h 14.550781 c 0.397108,-1.900989 1.55602,-3.629028 1.947266,-5.552734 1.266576,-3.283332 0.09371,-6.028367 3.365234,-7.578125 0.955163,-0.213375 0.893609,-0.805777 0.685547,-1.390625 z M 6.802734,83.908239 c -0.195677,0.379512 -0.412636,0.721182 -0.675781,0.978516 2.049735,-0.182286 8.124781,1.805744 8.296875,3.833984 0.05396,0.362585 0.07458,0.722538 0.0918,1.082032 0.02561,-0.688737 0.01242,-1.381762 -0.0918,-2.082032 -0.156587,-1.845484 -5.169239,-3.638095 -7.621094,-3.8125 z"
       id="path12" />
  </g>
</svg>
