<?xml version="1.0" encoding="UTF-8" standalone="no"?>
<svg
   width="62"
   height="62"
   version="1"
   id="svg4"
   sodipodi:docname="blobby.svg"
   inkscape:version="1.4.2 (unknown)"
   xmlns:inkscape="http://www.inkscape.org/namespaces/inkscape"
   xmlns:sodipodi="http://sodipodi.sourceforge.net/DTD/sodipodi-0.dtd"
   xmlns="http://www.w3.org/2000/svg"
   xmlns:svg="http://www.w3.org/2000/svg">
  <defs
     id="defs4" />
  <sodipodi:namedview
     id="namedview4"
     pagecolor="#ffffff"
     bordercolor="#000000"
     borderopacity="0.25"
     inkscape:showpageshadow="2"
     inkscape:pageopacity="0.0"
     inkscape:pagecheckerboard="0"
     inkscape:deskcolor="#d1d1d1"
     inkscape:zoom="11.890625"
     inkscape:cx="32"
     inkscape:cy="38.727989"
     inkscape:current-layer="svg4" />
  <g
     id="g4"
     transform="translate(-0.5,-1)">
    <ellipse
       style="opacity:0.2;stroke-width:0.999971"
       cx="31.5"
       cy="32.49123"
       id="circle1"
       rx="27.5"
       ry="27.50877" />
    <ellipse
       style="fill:#cccccc;stroke-width:0.999971;fill-opacity:1"
       cx="31.5"
       cy="31.50877"
       id="circle2"
       rx="27.5"
       ry="27.50877" />
    <path
       style="opacity:0.2;stroke-width:0.999971"
       d="m 28.014543,5.2088817 c -0.832783,0.1045389 -1.649807,0.2530302 -2.457273,0.4298245 -1.176746,8.1256598 0.198323,16.8396278 4.588445,24.4942428 -2.255,3.594657 -4.961022,6.963565 -8.118024,9.435033 -6.527615,-8.454858 -8.844793,-18.999115 -7.379499,-28.811679 -0.924235,0.716913 -1.815166,1.471566 -2.639509,2.298794 -0.813496,9.750545 1.910526,19.647518 7.99142,28.08635 -3.494635,2.457801 -7.370289,4.33699 -11.4442644,5.50329 a 27.499999,27.50877 0 0 0 1.406073,1.966828 C 18.936696,45.752013 27.003105,39.847271 32.177142,31.255481 c 4.284556,4e-6 8.567914,0.898944 12.401471,2.246986 -4.911427,11.489042 -14.68494,19.521378 -26.047886,22.251094 a 27.499999,27.50877 0 0 0 3.473949,1.535089 c 10.769358,-3.581596 19.961165,-11.72919 24.603445,-22.661732 3.909627,1.845219 7.42968,4.262049 10.416085,7.059486 A 27.499999,27.50877 0 0 0 57.92578,39.034537 C 51.043567,32.971026 42.135766,29.226165 32.177142,29.010416 c -2.255001,-3.81939 -3.606887,-7.864321 -4.283447,-11.90844 1.49393,-0.168506 2.976636,-0.251702 4.444581,-0.255213 9.870505,-0.02362 19.034636,3.610451 26.038294,9.820723 C 58.082392,25.292917 57.669622,23.96703 57.179581,22.678178 48.968785,16.422686 38.531096,13.339564 27.66734,14.854988 27.457025,11.711073 27.466264,8.3790933 28.014543,5.2088817 Z"
       id="path2" />
    <path
       style="fill:#373e48;stroke-width:0.999971"
       d="m 28.014162,4.2256576 c -0.832788,0.1045396 -1.649808,0.2530306 -2.457279,0.4298248 -1.176747,8.1256546 0.199479,16.8400106 4.589601,24.4946256 -2.255001,3.594658 -4.961409,6.963184 -8.118405,9.434649 -6.527621,-8.454858 -8.845181,-18.999116 -7.379887,-28.8116762 -0.924235,0.7169132 -1.815555,1.4723362 -2.639891,2.2995642 -0.813495,9.750542 1.911293,19.647516 7.99219,28.086343 -3.64739,2.565232 -7.707572,4.509068 -11.9775419,5.660256 0.4193913,0.688988 0.8662058,1.356957 1.3427737,2.004055 9.2143692,-2.784272 17.5221502,-8.767768 22.8110352,-17.550274 4.28456,4e-6 8.568298,0.897794 12.401855,2.245832 -5.087966,11.902019 -15.388661,20.112458 -27.274414,22.541614 1.050945,0.633355 2.136317,1.215324 3.273682,1.705864 11.382813,-3.314612 21.184364,-11.708047 26.031006,-23.121874 4.032284,1.903108 7.65405,4.410589 10.69922,7.320448 0.323933,-0.889 0.60272,-1.796938 0.835205,-2.726698 -6.91098,-6.175053 -15.904522,-9.993027 -25.966554,-10.211021 -2.255002,-3.819386 -3.60689,-7.864704 -4.283445,-11.908825 1.493928,-0.168504 2.976634,-0.251696 4.444576,-0.255206 9.87051,-0.02362 19.035407,3.611213 26.039063,9.821486 C 58.082776,24.310075 57.669238,22.98419 57.1792,21.695338 48.968402,15.439845 38.53148,12.357113 27.667729,13.872532 27.457408,10.728622 27.465878,7.3958695 28.014162,4.2256576 Z"
       id="path3" />
    <path
       style="opacity:0.2;fill:#ffffff;stroke-width:0.999971"
       d="M 31.499999,4 A 27.499999,27.50877 0 0 0 4,31.50877 27.499999,27.50877 0 0 0 4.0172645,31.992325 27.499999,27.50877 0 0 1 31.499999,4.982456 27.499999,27.50877 0 0 1 58.975063,31.992325 27.499999,27.50877 0 0 0 59,31.50877 27.499999,27.50877 0 0 0 31.499999,4 Z"
       id="path4" />
  </g>
</svg>
