<?xml version="1.0" encoding="UTF-8" standalone="no"?>
<svg
   height="62"
   width="62"
   version="1.1"
   id="svg7"
   sodipodi:docname="blobwars.svg"
   inkscape:version="1.4.2 (unknown)"
   xmlns:inkscape="http://www.inkscape.org/namespaces/inkscape"
   xmlns:sodipodi="http://sodipodi.sourceforge.net/DTD/sodipodi-0.dtd"
   xmlns="http://www.w3.org/2000/svg"
   xmlns:svg="http://www.w3.org/2000/svg">
  <defs
     id="defs7" />
  <sodipodi:namedview
     id="namedview7"
     pagecolor="#ffffff"
     bordercolor="#000000"
     borderopacity="0.25"
     inkscape:showpageshadow="2"
     inkscape:pageopacity="0.0"
     inkscape:pagecheckerboard="0"
     inkscape:deskcolor="#d1d1d1"
     inkscape:zoom="11.890625"
     inkscape:cx="31.95795"
     inkscape:cy="33.345598"
     inkscape:current-layer="svg7" />
  <g
     id="g7"
     transform="translate(-0.5,-1)">
    <ellipse
       cx="31.5"
       cy="32.49123"
       style="opacity:0.2;stroke-width:0.999971"
       id="circle1"
       rx="27.5"
       ry="27.50877" />
    <ellipse
       cx="31.5"
       cy="31.50877"
       style="fill:#ffb380;stroke-width:0.999971"
       id="circle2"
       rx="27.5"
       ry="27.50877" />
    <path
       d="M 31.499999,4.0000001 A 27.499999,27.508769 0 0 0 4.0000001,31.508769 27.499999,27.508769 0 0 0 4.0211164,32.084488 27.499999,27.508769 0 0 1 31.499999,4.982456 27.499999,27.508769 0 0 1 58.979373,31.915508 27.499999,27.508769 0 0 0 59,31.508769 27.499999,27.508769 0 0 0 31.499999,4.0000001 Z"
       style="opacity:0.2;fill:#ffffff;stroke-width:0.999971"
       id="path2" />
    <path
       style="opacity:0.1;stroke-width:0.999971"
       d="m 16.767857,23.649119 v 2.94737 l 11.785712,2.947369 v -2.947369 z m 29.464286,0 -11.785715,2.94737 v 2.947369 l 11.785715,-2.947369 z m -23.571427,5.894739 a 5.8928571,5.8947364 0 0 0 -5.892859,5.894738 5.8928571,5.8947364 0 0 0 5.892859,5.894734 5.8928571,5.8947364 0 0 0 5.892853,-5.894734 5.8928571,5.8947364 0 0 0 -5.892853,-5.894738 z m 17.678571,0 a 5.8928571,5.8947364 0 0 0 -5.892859,5.894738 5.8928571,5.8947364 0 0 0 5.892859,5.894734 5.8928571,5.8947364 0 0 0 5.892856,-5.894734 5.8928571,5.8947364 0 0 0 -5.892856,-5.894738 z"
       id="path3" />
    <path
       style="fill:#535d6c;stroke-width:0.999971"
       d="m 16.767857,22.666667 v 2.947366 l 11.785712,2.947366 v -2.947366 z m 29.464286,0 -11.785715,2.947366 v 2.947366 l 11.785715,-2.947366 z m -23.571427,5.894732 a 5.8928571,5.8947364 0 0 0 -5.892859,5.894739 5.8928571,5.8947364 0 0 0 5.892859,5.894738 5.8928571,5.8947364 0 0 0 5.892853,-5.894738 5.8928571,5.8947364 0 0 0 -5.892853,-5.894739 z m 17.678571,0 a 5.8928571,5.8947364 0 0 0 -5.892859,5.894739 5.8928571,5.8947364 0 0 0 5.892859,5.894738 5.8928571,5.8947364 0 0 0 5.892856,-5.894738 5.8928571,5.8947364 0 0 0 -5.892856,-5.894739 z"
       id="path4" />
    <path
       style="opacity:0.2;stroke-width:0.999971"
       d="M 14.498572,10.87719 A 27.499999,27.508769 0 0 0 6.2174944,21.684209 h 2.69322 V 55.087715 H 13.821428 V 21.684209 H 56.75565 A 27.499999,27.508769 0 0 0 48.463065,10.87719 Z"
       id="path5" />
    <path
       style="fill:#9955ff;stroke-width:0.999971"
       d="M 14.498572,9.8947363 A 27.499999,27.508769 0 0 0 6.2174944,20.701752 h 2.69322 V 54.105259 H 13.821428 V 20.701752 H 56.755651 A 27.499999,27.508769 0 0 0 48.463065,9.8947363 Z"
       id="path6" />
    <path
       style="opacity:0.2;fill:#ffffff;stroke-width:0.999971"
       d="M 14.498572,9.8947363 A 27.499999,27.508769 0 0 0 6.2174944,20.701752 H 6.6970566 A 27.499999,27.508769 0 0 1 14.498572,10.87719 h 33.964493 a 27.499999,27.508769 0 0 1 7.813024,9.824562 h 0.479562 A 27.499999,27.508769 0 0 0 48.463065,9.8947363 Z"
       id="path7" />
  </g>
</svg>
