<?xml version="1.0" encoding="UTF-8" standalone="no"?>
<svg
   width="62"
   height="62"
   version="1.1"
   id="svg5"
   sodipodi:docname="bridge-constructor-portal.svg"
   inkscape:version="1.4.2 (unknown)"
   xmlns:inkscape="http://www.inkscape.org/namespaces/inkscape"
   xmlns:sodipodi="http://sodipodi.sourceforge.net/DTD/sodipodi-0.dtd"
   xmlns:xlink="http://www.w3.org/1999/xlink"
   xmlns="http://www.w3.org/2000/svg"
   xmlns:svg="http://www.w3.org/2000/svg">
  <defs
     id="defs5">
    <linearGradient
       id="linearGradient1"
       inkscape:collect="always">
      <stop
         style="stop-color:#ffb380;stop-opacity:1"
         offset="0"
         id="stop1" />
      <stop
         style="stop-color:#6f7c91;stop-opacity:1"
         offset="0.28514653"
         id="stop10" />
      <stop
         style="stop-color:#6f7c91;stop-opacity:1"
         offset="0.70317554"
         id="stop8" />
      <stop
         style="stop-color:#009999;stop-opacity:1;"
         offset="1"
         id="stop3" />
    </linearGradient>
    <linearGradient
       id="linearGradient4217">
      <stop
         style="stop-color:#000000;stop-opacity:1;"
         offset="0"
         id="stop2" />
      <stop
         style="stop-color:#000000;stop-opacity:0;"
         offset="1"
         id="stop4" />
    </linearGradient>
    <linearGradient
       id="linearGradient4161">
      <stop
         style="stop-color:#334545;stop-opacity:1;"
         offset="0"
         id="stop7" />
      <stop
         style="stop-color:#4d6868;stop-opacity:1"
         offset="1"
         id="stop9" />
    </linearGradient>
    <linearGradient
       id="a-1-2"
       y1="510.79999"
       y2="527.14001"
       gradientUnits="userSpaceOnUse"
       x2="0">
      <stop
         stop-color="#7cbaf8"
         id="stop2-2-7" />
      <stop
         offset="1"
         stop-color="#f4fcff"
         id="stop4-70-0" />
    </linearGradient>
    <linearGradient
       id="c"
       y1="503.79999"
       x1="400.57001"
       y2="519.79999"
       x2="416.57001"
       gradientUnits="userSpaceOnUse">
      <stop
         stop-color="#292c2f"
         id="stop12" />
      <stop
         offset="1"
         stop-opacity="0"
         id="stop14" />
    </linearGradient>
    <linearGradient
       id="b"
       y1="542.79999"
       x1="408.57001"
       y2="521.79999"
       x2="387.57001"
       gradientUnits="userSpaceOnUse"
       gradientTransform="translate(-384.57,-499.8)">
      <stop
         stop-color="#197cf1"
         id="stop7-8" />
      <stop
         offset="1"
         stop-color="#20bcfa"
         id="stop9-7" />
    </linearGradient>
    <linearGradient
       xlink:href="#linearGradient1389"
       id="linearGradient4503-5-6"
       y1="37"
       y2="4"
       x2="0"
       gradientUnits="userSpaceOnUse"
       gradientTransform="matrix(1.0218446,0,0,0.99999999,21.748946,8.2587777)" />
    <linearGradient
       id="linearGradient1389">
      <stop
         style="stop-color:#ffaaaa;stop-opacity:1"
         id="stop1385"
         offset="0" />
      <stop
         offset="1"
         style="stop-color:#ff5555;stop-opacity:1"
         id="stop1387" />
    </linearGradient>
    <linearGradient
       id="paint543_linear_890_11"
       x1="978.5"
       y1="298"
       x2="978.5"
       y2="304"
       gradientUnits="userSpaceOnUse"
       gradientTransform="matrix(0.75000004,0,0,0.75000004,-717.38333,-173.49123)">
      <stop
         offset="0.189495"
         stop-color="#EFF2F6"
         id="stop1829" />
      <stop
         offset="0.850463"
         stop-color="#B7C6CD"
         id="stop1830" />
    </linearGradient>
    <linearGradient
       id="linearGradient4144">
      <stop
         style="stop-color:#c83771;stop-opacity:1"
         offset="0"
         id="stop1141" />
      <stop
         style="stop-color:#de87aa;stop-opacity:1"
         offset="1"
         id="stop1143" />
    </linearGradient>
    <linearGradient
       id="c-0"
       gradientUnits="userSpaceOnUse"
       x1="10"
       x2="24"
       y1="10"
       y2="24"
       gradientTransform="translate(59.728813,26.237288)">
      <stop
         offset="0"
         stop-color="#292c2f"
         id="stop12-2" />
      <stop
         offset="1"
         stop-opacity="0"
         id="stop14-3" />
    </linearGradient>
    <linearGradient
       id="d"
       gradientUnits="userSpaceOnUse"
       x1="24"
       x2="24"
       y1="25"
       y2="7"
       gradientTransform="translate(59.728813,26.237288)">
      <stop
         offset="0"
         stop-color="#bb9d71"
         id="stop2-7" />
      <stop
         offset="1"
         stop-color="#f9f2e7"
         id="stop4-5" />
    </linearGradient>
    <filter
       id="c-3"
       width="1.16992"
       height="1.1341474"
       x="-0.08496"
       y="-0.067073686"
       color-interpolation-filters="sRGB">
      <feGaussianBlur
         stdDeviation="1.062"
         id="feGaussianBlur1" />
    </filter>
    <linearGradient
       id="d-6"
       x1="32.081001"
       x2="32.081001"
       y1="17.695999"
       y2="58.995998"
       gradientUnits="userSpaceOnUse"
       gradientTransform="translate(-1.575434e-7,-0.1000854)">
      <stop
         offset="0"
         stop-color="#eaea56"
         id="stop5" />
      <stop
         offset="1"
         stop-color="#eab756"
         id="stop6" />
    </linearGradient>
    <filter
       id="e"
       width="1.10872"
       height="1.2416"
       x="-0.054360001"
       y="-0.1208"
       color-interpolation-filters="sRGB">
      <feGaussianBlur
         stdDeviation=".453"
         id="feGaussianBlur2" />
    </filter>
    <linearGradient
       inkscape:collect="always"
       xlink:href="#linearGradient1"
       id="linearGradient3"
       x1="31"
       y1="58.017544"
       x2="31"
       y2="3.9824562"
       gradientUnits="userSpaceOnUse" />
    <linearGradient
       id="linear0"
       gradientUnits="userSpaceOnUse"
       x1="0"
       y1="0"
       x2="0"
       y2="1"
       gradientTransform="matrix(78.769231,0,0,56.509616,-6.1538492,5.5805544)">
      <stop
         offset="0"
         style="stop-color:#2478ff;stop-opacity:1;"
         id="stop1-3" />
      <stop
         offset="1"
         style="stop-color:#0049bf;stop-opacity:1;"
         id="stop2-6" />
    </linearGradient>
  </defs>
  <sodipodi:namedview
     id="namedview5"
     pagecolor="#ffffff"
     bordercolor="#000000"
     borderopacity="0.25"
     inkscape:showpageshadow="2"
     inkscape:pageopacity="0.0"
     inkscape:pagecheckerboard="0"
     inkscape:deskcolor="#d1d1d1"
     inkscape:zoom="5.84375"
     inkscape:cx="66.737968"
     inkscape:cy="54.331551"
     inkscape:window-width="1920"
     inkscape:window-height="998"
     inkscape:window-x="0"
     inkscape:window-y="0"
     inkscape:window-maximized="1"
     inkscape:current-layer="svg5" />
  <rect
     style="opacity:0.2;stroke-width:0.9823"
     width="55"
     height="55.017544"
     x="3.5"
     y="3.9824562"
     rx="8.25"
     ry="8.2526312"
     id="rect1" />
  <rect
     style="fill:url(#linearGradient3);stroke-width:0.9823"
     width="55"
     height="55.017544"
     x="3.5"
     y="3"
     rx="8.25"
     ry="8.2526312"
     id="rect2" />
  <path
     style="opacity:0.1;fill:#ffffff;stroke-width:0.9823"
     d="M 11.748466,3 C 7.1779652,3 3.5,6.6791384 3.5,11.251097 v 0.982456 c 0,-4.5719585 3.6779652,-8.2510969 8.248466,-8.2510969 h 38.503068 c 4.5705,0 8.248466,3.6791384 8.248466,8.2510969 V 11.251097 C 58.5,6.6791384 54.822034,3 50.251534,3 Z"
     id="path4" />
  <g
     id="surface1"
     transform="matrix(0.8125,0,0,0.8125,5,4.5087719)"
     style="stroke-width:1.23074;fill:#e5e5e5;fill-opacity:1">
    <path
       style="fill:#e5e5e5;fill-rule:evenodd;stroke:none;stroke-width:1.23074;fill-opacity:1"
       d="M 30.65625,38.367188 V 25.632812 c -0.984375,-0.164062 -1.933594,-0.5 -2.796875,-0.992187 L 14.574219,41.050781 c 1.0625,1.1875 1.757812,2.652344 2.015625,4.21875 h 7.171875 c 0.277343,-1.722656 1.089843,-3.316406 2.335937,-4.566406 1.246094,-1.242187 2.84375,-2.054687 4.558594,-2.335937 z m 2.6875,-12.734376 v 12.734376 c 1.714844,0.28125 3.3125,1.09375 4.558594,2.335937 1.246094,1.25 2.058594,2.84375 2.335937,4.566406 h 7.171875 c 0.257813,-1.566406 0.953125,-3.03125 2.015625,-4.21875 L 36.140625,24.640625 c -0.863281,0.492187 -1.8125,0.828125 -2.796875,0.992187 z m 14.066406,22.320313 h -7.171875 c -0.277343,1.714844 -1.089843,3.316406 -2.335937,4.558594 -1.566406,1.5625 -3.691406,2.445312 -5.902344,2.445312 -2.210938,0 -4.335938,-0.882812 -5.902344,-2.445312 -1.246094,-1.242188 -2.058594,-2.84375 -2.335937,-4.558594 h -7.171875 c -0.28125,1.714844 -1.09375,3.316406 -2.335938,4.558594 -1.570312,1.5625 -3.695312,2.445312 -5.90625,2.445312 -2.214844,0 -4.335937,-0.882812 -5.902344,-2.445312 C 0.878906,50.945312 0,48.824219 0,46.609375 c 0,-2.214844 0.878906,-4.335937 2.445312,-5.90625 1.566407,-1.5625 3.6875,-2.441406 5.902344,-2.441406 1.464844,0 2.886719,0.382812 4.140625,1.097656 L 25.773438,22.949219 c -1.363282,-1.523438 -2.121094,-3.5 -2.121094,-5.558594 0,-2.214844 0.878906,-4.335937 2.445312,-5.902344 C 27.664062,9.925781 29.789062,9.042969 32,9.042969 c 2.210938,0 4.335938,0.882812 5.902344,2.445312 1.566406,1.566407 2.445312,3.6875 2.445312,5.902344 0,2.058594 -0.757812,4.035156 -2.121094,5.558594 l 13.285157,16.410156 c 1.253906,-0.714844 2.675781,-1.097656 4.140625,-1.097656 2.214844,0 4.335937,0.878906 5.902344,2.441406 C 63.121094,42.273438 64,44.394531 64,46.609375 c 0,2.214844 -0.878906,4.335937 -2.445312,5.902344 -1.566407,1.5625 -3.6875,2.445312 -5.902344,2.445312 -2.210938,0 -4.335938,-0.882812 -5.90625,-2.445312 -1.242188,-1.242188 -2.054688,-2.84375 -2.335938,-4.558594 z m 0,0"
       id="path2-7" />
  </g>
</svg>
