<?xml version="1.0" encoding="UTF-8" standalone="no"?>
<svg
   width="62"
   height="62"
   version="1.1"
   id="svg10"
   sodipodi:docname="broforce.svg"
   inkscape:version="1.4.2 (unknown)"
   xmlns:inkscape="http://www.inkscape.org/namespaces/inkscape"
   xmlns:sodipodi="http://sodipodi.sourceforge.net/DTD/sodipodi-0.dtd"
   xmlns:xlink="http://www.w3.org/1999/xlink"
   xmlns="http://www.w3.org/2000/svg"
   xmlns:svg="http://www.w3.org/2000/svg">
  <defs
     id="defs10">
    <linearGradient
       id="linearGradient10"
       inkscape:collect="always">
      <stop
         style="stop-color:#b04f08;stop-opacity:1;"
         offset="0"
         id="stop10" />
      <stop
         style="stop-color:#d4aa00;stop-opacity:1"
         offset="1"
         id="stop11" />
    </linearGradient>
    <linearGradient
       inkscape:collect="always"
       xlink:href="#linearGradient10"
       id="linearGradient11"
       x1="32"
       y1="31"
       x2="31.797634"
       y2="52"
       gradientUnits="userSpaceOnUse"
       gradientTransform="matrix(1,0,0,1.0769231,-1,-3.4615392)" />
    <linearGradient
       inkscape:collect="always"
       xlink:href="#linearGradient10"
       id="linearGradient13"
       x1="4"
       y1="24.5"
       x2="32"
       y2="24.5"
       gradientUnits="userSpaceOnUse"
       gradientTransform="matrix(1,0,0,1.0769231,-1,-3.4615392)" />
    <linearGradient
       inkscape:collect="always"
       xlink:href="#linearGradient10"
       id="linearGradient15"
       x1="32"
       y1="24.5"
       x2="60"
       y2="24.5"
       gradientUnits="userSpaceOnUse"
       gradientTransform="matrix(1,0,0,1.0769231,-1,-3.4615392)" />
  </defs>
  <sodipodi:namedview
     id="namedview10"
     pagecolor="#ffffff"
     bordercolor="#000000"
     borderopacity="0.25"
     inkscape:showpageshadow="2"
     inkscape:pageopacity="0.0"
     inkscape:pagecheckerboard="0"
     inkscape:deskcolor="#d1d1d1"
     inkscape:zoom="5.9453125"
     inkscape:cx="28.425756"
     inkscape:cy="35.742444"
     inkscape:current-layer="svg10" />
  <ellipse
     cx="31"
     cy="32.001408"
     rx="27.5"
     ry="26.960781"
     style="opacity:0.2;stroke-width:0.999981"
     id="ellipse1" />
  <ellipse
     cx="31"
     cy="31"
     rx="27.5"
     ry="27.037811"
     style="fill:#535d6c;stroke-width:0.999981"
     id="ellipse2" />
  <path
     d="M 31,4.076923 A 28,26.923077 0 0 0 3,31 28,26.923077 0 0 0 3.0234375,31.63101 28,26.923077 0 0 1 31,5.153846 28,26.923077 0 0 1 58.976562,31.44591 28,26.923077 0 0 0 59,31 28,26.923077 0 0 0 31,4.076923 Z"
     style="opacity:0.1;fill:#ffffff;stroke-width:1"
     id="path2" />
  <ellipse
     cx="31"
     cy="31.000036"
     rx="17"
     ry="15.076923"
     style="opacity:0.2;stroke-width:1"
     id="ellipse3" />
  <ellipse
     cx="31"
     cy="29.9231"
     rx="17"
     ry="15.076923"
     style="fill:#3786a6;stroke-width:1"
     id="ellipse4" />
  <path
     d="M 31,4.076923 25,17 H 3 L 19,31 9,53.61539 31,41.76923 53,53.61539 43,31 59,17 H 37 Z"
     style="opacity:0.2;stroke-width:1"
     id="path4" />
  <path
     d="M 31,3 25,15.923078 H 3 L 19,29.92308 9,52.53846 31,40.69231 53,52.53846 43,29.92308 59,15.923078 H 37 Z"
     style="fill:#00c8fb;fill-opacity:1;stroke-width:1"
     id="path5" />
  <path
     d="M 9,52.53846 31,22.38462 53,52.53846 31,40.69231 Z"
     style="opacity:0.797;fill:url(#linearGradient11);stroke-width:1"
     id="path6" />
  <path
     d="M 31,22.38462 3,15.923078 19,29.92308 Z"
     style="opacity:0.8;fill:url(#linearGradient13);stroke-width:1"
     id="path7" />
  <path
     d="M 31,22.38462 59,15.923078 43,29.92308 Z"
     style="opacity:0.8;fill:url(#linearGradient15);stroke-width:1"
     id="path8" />
  <path
     d="M 31,22.38462 V 3 l -6,12.923078 z"
     style="fill:#7ce5ff;fill-opacity:1;stroke-width:1"
     id="path9" />
  <path
     d="M 31,3 25,15.923078 H 3 L 4.2304688,17 H 25 L 31,4.076923 37,17 H 57.769531 L 59,15.923078 H 37 Z M 18.65625,30.69922 9,52.53846 9.625,52.20192 19,31 Z m 24.6875,0 L 43,31 52.375,52.20192 53,52.53846 Z"
     style="opacity:0.2;fill:#ffffff;stroke-width:1"
     id="path10" />
</svg>
