<?xml version="1.0" encoding="UTF-8" standalone="no"?>
<svg
   width="62"
   height="62"
   version="1"
   id="svg5"
   sodipodi:docname="browser360-beta.svg"
   inkscape:version="1.4.2 (unknown)"
   xmlns:inkscape="http://www.inkscape.org/namespaces/inkscape"
   xmlns:sodipodi="http://sodipodi.sourceforge.net/DTD/sodipodi-0.dtd"
   xmlns="http://www.w3.org/2000/svg"
   xmlns:svg="http://www.w3.org/2000/svg">
  <defs
     id="defs5" />
  <sodipodi:namedview
     id="namedview5"
     pagecolor="#ffffff"
     bordercolor="#000000"
     borderopacity="0.25"
     inkscape:showpageshadow="2"
     inkscape:pageopacity="0.0"
     inkscape:pagecheckerboard="0"
     inkscape:deskcolor="#d1d1d1"
     inkscape:zoom="8.4079416"
     inkscape:cx="34.01546"
     inkscape:cy="36.572566"
     inkscape:current-layer="svg5" />
  <g
     id="g5"
     transform="translate(-0.03446198,-1.0000021)">
    <rect
       style="opacity:0.2;stroke-width:0.999944"
       width="54.068924"
       height="54.068924"
       x="4"
       y="4.9655147"
       rx="28"
       ry="28"
       id="rect1" />
    <rect
       style="fill:#e4e4e4;stroke-width:0.999944"
       width="54.068924"
       height="54.068924"
       x="4"
       y="4"
       rx="28"
       ry="28"
       id="rect2" />
    <path
       style="opacity:0.2;fill:#ffffff;stroke-width:0.999944"
       d="M 31.03445,4 C 16.057365,4 4,16.057365 4,31.03445 4,31.143995 4.010897,31.25084 4.016977,31.358805 4.3563929,16.681265 16.272413,4.9655163 31.03445,4.9655163 c 14.76204,0 26.678063,11.7157487 27.017484,26.3932887 0.0063,-0.107965 0.01698,-0.21481 0.01698,-0.324355 C 58.068905,16.057365 46.011536,4 31.03445,4 Z"
       id="path2" />
    <path
       style="opacity:0.1;stroke-width:0.999944"
       d="m 48.425057,5.9435793 a 14.825259,32.391719 38.231415 0 0 -1.261586,0.00761 14.825259,32.391719 38.231415 0 0 -12.532851,5.1349617 c -1.186325,-0.209989 -2.389553,-0.321848 -3.59617,-0.328119 -11.731272,0 -21.241353,9.510075 -21.241353,21.241347 0.0025,1.372896 0.1368978,2.741613 0.403559,4.088364 2.933515,-5.083201 7.484084,-9.398634 11.59373,-12.83458 A 14.825259,32.391719 38.231415 0 0 21.026648,24.190394 14.825259,32.391719 38.231415 0 0 13.108287,58.55673 14.825259,32.391719 38.231415 0 0 19.52558,59.910719 13.884157,30.542291 37.097511 0 1 16.163241,58.6133 13.884157,30.542291 37.097511 0 1 13.968204,44.613317 c 3.941477,5.336687 10.229398,8.623565 17.066246,8.627417 9.509818,-0.0082 17.816729,-6.338648 20.400303,-15.448261 h -12.31033 c -1.631516,3.771474 -4.71066,5.787558 -8.089973,5.793103 -4.728096,-0.0084 -8.696091,-3.613812 -9.221431,-9.655162 H 32.965485 40.2672 52.226779 c 0.03033,-0.441908 0.04652,-1.488103 0.04898,-1.931039 -0.008,-8.291123 -4.834049,-15.78763 -12.306559,-19.249975 -3.297132,1.754425 -6.244279,4.383378 -9.074341,7.305493 0.04674,-0.0014 0.09283,-0.0035 0.139544,-0.0039 3.934423,0.006 7.43852,3.316957 8.749992,8.086205 H 22.284453 c 0.09128,-0.328976 0.187467,-0.653518 0.284758,-0.976831 a 13.884157,30.542291 37.097511 0 1 0.937231,-1.282283 13.884157,30.542291 37.097511 0 1 29.497267,-15.9913618 13.884157,30.542291 37.097511 0 1 3.0493,7.5110318 14.825259,32.391719 38.231415 0 0 -3.211467,-9.998363 14.825259,32.391719 38.231415 0 0 -4.416485,-1.4558176 z"
       id="path3" />
    <path
       style="fill:#8d5fd3;stroke-width:0.999944"
       d="m 31.03445,9.793097 c -11.731272,0 -21.241353,9.51008 -21.241353,21.241353 0.0025,1.372897 0.1368978,2.741611 0.403559,4.088361 3.315708,-5.745457 8.698651,-10.514501 13.174011,-14.13576 l -0.716595,3.322732 c -2.239672,2.172535 -4.438188,4.667446 -6.509683,7.429952 -1.819381,2.426216 -2.891212,6.059893 -4.243,8.497293 3.516121,7.321318 10.936457,12.034158 19.133061,12.038777 9.509818,-0.0082 17.816729,-6.338646 20.400303,-15.44826 h -12.31033 c -1.631516,3.771475 -4.71066,5.787559 -8.089973,5.793102 -4.728096,-0.0084 -8.696092,-3.613812 -9.221432,-9.655162 H 32.965485 40.2672 52.226778 c 0.03034,-0.441906 0.04652,-1.488102 0.04898,-1.931035 -0.008,-8.291123 -4.834048,-15.787629 -12.306558,-19.249975 -3.297132,1.754423 -6.24428,4.383375 -9.074342,7.305493 0.04674,-0.0014 0.09281,-0.0035 0.139545,-0.0039 3.934423,0.006 7.43852,3.316951 8.749992,8.0862 H 22.284453 c 0.47769,-1.722593 0.993964,-3.402143 2.014011,-4.676721 -0.0164,-0.03006 -0.07546,-0.11314 -0.07546,-0.11314 0.231138,-0.310586 0.734699,-0.618308 0.973062,-0.927798 3.343017,-4.340527 7.058639,-8.102859 10.790405,-11.05062 -1.621034,-0.39779 -3.282864,-0.6022497 -4.952019,-0.6109317 z M 11.901389,40.237028 c -0.18363,-0.38236 0.161888,0.396278 0,0 z"
       id="path4" />
    <path
       style="fill:#8d5fd3;stroke-width:0.999944"
       d="M 47.163375,4.986852 A 14.825259,32.391719 38.231415 0 0 21.027076,23.225603 14.825259,32.391719 38.231415 0 0 13.108682,57.592636 14.825259,32.391719 38.231415 0 0 19.524899,58.945025 13.884157,30.542291 37.097511 0 1 16.163638,57.648105 13.884157,30.542291 37.097511 0 1 23.506736,24.913449 13.884157,30.542291 37.097511 0 1 53.004286,8.9225123 13.884157,30.542291 37.097511 0 1 56.053924,16.431963 14.825259,32.391719 38.231415 0 0 52.841819,6.4343298 14.825259,32.391719 38.231415 0 0 47.163375,4.986852 Z"
       id="path5" />
  </g>
</svg>
