<?xml version="1.0" encoding="UTF-8" standalone="no"?>
<svg
   clip-rule="evenodd"
   fill-rule="evenodd"
   stroke-linejoin="round"
   stroke-miterlimit="1.41421"
   viewBox="0 0 62 62"
   version="1.1"
   id="svg1"
   sodipodi:docname="bygfoot.svg"
   width="62"
   height="62"
   inkscape:version="1.4.2 (unknown)"
   xmlns:inkscape="http://www.inkscape.org/namespaces/inkscape"
   xmlns:sodipodi="http://sodipodi.sourceforge.net/DTD/sodipodi-0.dtd"
   xmlns="http://www.w3.org/2000/svg"
   xmlns:svg="http://www.w3.org/2000/svg">
  <defs
     id="defs1" />
  <sodipodi:namedview
     id="namedview1"
     pagecolor="#ffffff"
     bordercolor="#000000"
     borderopacity="0.25"
     inkscape:showpageshadow="2"
     inkscape:pageopacity="0.0"
     inkscape:pagecheckerboard="0"
     inkscape:deskcolor="#d1d1d1"
     inkscape:zoom="7.90625"
     inkscape:cx="18.023715"
     inkscape:cy="44.079051"
     inkscape:current-layer="svg1" />
  <g
     id="g1"
     transform="matrix(1.2095032,0,0,1.2095032,1.9719232,1.9719232)"
     style="stroke-width:0.826786">
    <circle
       cx="24"
       cy="24"
       r="22.155001"
       fill="#ffffff"
       id="circle1"
       style="stroke-width:0.826786" />
    <path
       d="m 47.142,23.452 c -0.002,-0.058 -0.004,-0.115 -0.005,-0.172 -0.005,-0.127 -0.009,-0.253 -0.015,-0.379 -0.003,-0.065 -0.007,-0.13 -0.01,-0.195 -0.007,-0.122 -0.014,-0.244 -0.023,-0.365 -0.004,-0.062 -0.009,-0.123 -0.013,-0.184 -0.012,-0.146 -0.025,-0.292 -0.039,-0.438 -0.003,-0.033 -0.006,-0.067 -0.009,-0.1 -0.018,-0.178 -0.039,-0.355 -0.061,-0.531 l -0.021,-0.156 c -0.017,-0.126 -0.034,-0.251 -0.053,-0.376 -0.009,-0.065 -0.019,-0.129 -0.029,-0.193 -0.018,-0.115 -0.037,-0.23 -0.057,-0.344 -0.011,-0.064 -0.022,-0.128 -0.034,-0.192 -0.023,-0.124 -0.047,-0.248 -0.072,-0.372 -0.009,-0.05 -0.019,-0.101 -0.029,-0.151 -0.035,-0.17 -0.072,-0.339 -0.111,-0.508 -0.01,-0.045 -0.022,-0.091 -0.032,-0.136 -0.03,-0.126 -0.06,-0.251 -0.092,-0.375 -0.016,-0.064 -0.033,-0.128 -0.05,-0.192 C 46.359,17.986 46.33,17.879 46.3,17.772 46.282,17.706 46.263,17.64 46.244,17.574 46.213,17.465 46.18,17.357 46.147,17.248 46.129,17.189 46.112,17.129 46.093,17.07 46.043,16.909 45.991,16.748 45.937,16.588 45.925,16.553 45.912,16.519 45.9,16.484 45.856,16.355 45.811,16.227 45.765,16.099 45.742,16.036 45.718,15.973 45.694,15.91 45.657,15.81 45.62,15.711 45.581,15.612 45.555,15.545 45.529,15.478 45.502,15.411 45.463,15.314 45.424,15.218 45.384,15.122 45.357,15.057 45.33,14.993 45.303,14.929 45.254,14.815 45.204,14.701 45.154,14.587 45.134,14.543 45.115,14.499 45.095,14.455 45.028,14.306 44.958,14.158 44.888,14.011 44.858,13.949 44.828,13.889 44.798,13.828 44.753,13.735 44.707,13.642 44.66,13.55 44.626,13.483 44.592,13.417 44.558,13.351 44.513,13.263 44.466,13.176 44.42,13.09 44.385,13.024 44.35,12.959 44.315,12.894 44.263,12.8 44.211,12.707 44.158,12.614 44.127,12.559 44.096,12.503 44.064,12.448 43.983,12.308 43.901,12.168 43.817,12.03 43.783,11.974 43.748,11.918 43.714,11.862 43.659,11.774 43.604,11.685 43.548,11.597 43.507,11.533 43.467,11.471 43.426,11.408 43.373,11.327 43.321,11.247 43.267,11.167 43.225,11.104 43.183,11.041 43.14,10.978 43.084,10.895 43.026,10.812 42.968,10.73 42.928,10.673 42.889,10.616 42.849,10.56 42.756,10.43 42.661,10.3 42.565,10.171 40.037,6.782 36.603,4.11 32.622,2.512 c -10e-4,0 -10e-4,0 -10e-4,-10e-4 C 32.463,2.448 32.303,2.386 32.143,2.326 32.132,2.321 32.12,2.317 32.109,2.313 31.957,2.256 31.804,2.201 31.651,2.148 31.631,2.14 31.61,2.133 31.589,2.126 31.443,2.075 31.296,2.026 31.149,1.978 31.12,1.969 31.092,1.96 31.063,1.951 30.922,1.905 30.78,1.862 30.638,1.819 30.602,1.808 30.566,1.798 30.53,1.787 30.394,1.747 30.257,1.708 30.119,1.671 30.076,1.659 30.033,1.647 29.99,1.636 29.859,1.601 29.726,1.566 29.594,1.534 29.544,1.521 29.494,1.509 29.444,1.497 29.316,1.466 29.189,1.436 29.061,1.408 29.004,1.395 28.948,1.383 28.891,1.371 28.768,1.344 28.645,1.319 28.521,1.294 28.458,1.282 28.395,1.27 28.331,1.258 28.213,1.235 28.095,1.213 27.976,1.193 27.906,1.181 27.835,1.169 27.765,1.158 27.652,1.139 27.538,1.121 27.424,1.104 27.347,1.092 27.269,1.082 27.192,1.071 27.084,1.056 26.975,1.041 26.867,1.028 26.782,1.017 26.697,1.008 26.612,0.999 26.509,0.987 26.407,0.975 26.303,0.965 26.21,0.955 26.117,0.948 26.023,0.94 25.927,0.931 25.831,0.923 25.735,0.915 25.631,0.907 25.526,0.902 25.421,0.896 25.335,0.89 25.248,0.884 25.161,0.88 25.039,0.874 24.916,0.87 24.793,0.866 24.723,0.864 24.653,0.86 24.582,0.858 24.388,0.853 24.194,0.85 23.999,0.85 23.804,0.85 23.61,0.853 23.416,0.858 23.345,0.86 23.275,0.863 23.205,0.866 23.082,0.87 22.959,0.874 22.837,0.88 22.75,0.884 22.663,0.89 22.577,0.896 22.472,0.903 22.367,0.908 22.263,0.915 22.167,0.922 22.071,0.932 21.974,0.94 21.881,0.948 21.788,0.955 21.695,0.965 21.591,0.975 21.488,0.987 21.385,0.999 21.301,1.008 21.216,1.017 21.132,1.028 21.023,1.041 20.914,1.056 20.805,1.071 20.728,1.082 20.651,1.092 20.574,1.104 20.46,1.121 20.346,1.139 20.232,1.158 20.163,1.169 20.093,1.18 20.023,1.192 19.903,1.213 19.785,1.235 19.666,1.258 19.603,1.27 19.54,1.281 19.477,1.294 19.353,1.319 19.23,1.344 19.106,1.371 L 18.938,1.407 C 18.81,1.436 18.681,1.466 18.553,1.497 L 18.406,1.533 C 18.272,1.566 18.139,1.601 18.006,1.636 17.964,1.647 17.922,1.659 17.88,1.67 17.742,1.708 17.604,1.747 17.466,1.787 17.432,1.797 17.397,1.808 17.362,1.818 17.219,1.861 17.076,1.905 16.933,1.951 16.906,1.96 16.879,1.969 16.852,1.977 16.703,2.026 16.555,2.075 16.407,2.126 16.388,2.133 16.369,2.14 16.351,2.146 16.195,2.2 16.041,2.256 15.888,2.314 15.878,2.318 15.869,2.321 15.86,2.324 11.668,3.899 8.054,6.653 5.424,10.184 5.331,10.308 5.24,10.432 5.151,10.558 5.109,10.617 5.067,10.677 5.025,10.737 4.97,10.816 4.914,10.896 4.86,10.976 4.816,11.04 4.772,11.105 4.729,11.17 4.677,11.248 4.626,11.326 4.575,11.404 4.533,11.469 4.491,11.534 4.449,11.599 4.395,11.684 4.342,11.77 4.289,11.855 4.253,11.914 4.216,11.973 4.18,12.032 4.097,12.169 4.015,12.308 3.935,12.447 3.902,12.504 3.87,12.562 3.838,12.619 3.786,12.71 3.735,12.801 3.684,12.893 3.648,12.959 3.613,13.026 3.577,13.092 3.531,13.177 3.486,13.263 3.441,13.35 3.406,13.416 3.372,13.484 3.338,13.551 3.292,13.642 3.246,13.734 3.201,13.825 3.171,13.888 3.14,13.949 3.11,14.012 3.041,14.157 2.972,14.303 2.906,14.449 2.885,14.496 2.864,14.543 2.844,14.59 c -0.051,0.113 -0.1,0.226 -0.149,0.339 -0.027,0.065 -0.054,0.129 -0.08,0.194 -0.04,0.095 -0.08,0.191 -0.118,0.288 -0.027,0.067 -0.054,0.134 -0.08,0.202 -0.038,0.098 -0.076,0.197 -0.113,0.297 -0.023,0.063 -0.047,0.126 -0.07,0.19 -0.047,0.127 -0.091,0.255 -0.136,0.384 -0.012,0.035 -0.024,0.069 -0.036,0.104 -0.054,0.16 -0.106,0.321 -0.157,0.483 L 1.851,17.248 C 1.818,17.357 1.786,17.465 1.754,17.574 1.735,17.64 1.716,17.706 1.698,17.773 1.668,17.879 1.64,17.986 1.611,18.093 1.595,18.157 1.578,18.221 1.562,18.285 1.53,18.41 1.499,18.535 1.47,18.661 l -0.033,0.135 c -0.038,0.169 -0.075,0.339 -0.11,0.509 -0.011,0.049 -0.02,0.1 -0.03,0.149 -0.025,0.125 -0.049,0.249 -0.071,0.374 -0.012,0.063 -0.023,0.127 -0.034,0.191 -0.02,0.115 -0.039,0.229 -0.057,0.344 -0.01,0.065 -0.02,0.128 -0.03,0.193 -0.019,0.125 -0.036,0.251 -0.053,0.377 -0.007,0.052 -0.014,0.103 -0.021,0.155 -0.022,0.176 -0.042,0.353 -0.06,0.531 -0.004,0.034 -0.006,0.067 -0.01,0.101 -0.014,0.145 -0.027,0.291 -0.038,0.438 -0.006,0.061 -0.009,0.122 -0.014,0.183 -0.008,0.122 -0.016,0.244 -0.023,0.366 -0.003,0.065 -0.007,0.13 -0.01,0.195 C 0.87,23.028 0.866,23.154 0.862,23.28 0.86,23.338 0.857,23.395 0.857,23.452 0.852,23.634 0.85,23.817 0.85,24 c 0,0.165 0.002,0.328 0.006,0.491 0.001,0.074 0.003,0.147 0.006,0.221 0.002,0.063 0.004,0.125 0.007,0.188 0.159,4.16 1.415,8.038 3.488,11.353 0,10e-4 0,10e-4 10e-4,10e-4 0.392,0.629 0.814,1.236 1.264,1.822 0.002,0.003 0.005,0.007 0.008,0.01 0.444,0.579 0.916,1.136 1.412,1.671 0.012,0.012 0.023,0.024 0.035,0.037 0.094,0.101 0.189,0.201 0.285,0.3 0.005,0.005 0.008,0.009 0.012,0.013 0.299,0.308 0.606,0.608 0.921,0.899 0.01,0.01 0.02,0.019 0.03,0.028 0.094,0.086 0.188,0.171 0.283,0.255 0.026,0.024 0.052,0.047 0.078,0.07 0.093,0.082 0.186,0.163 0.28,0.243 0.021,0.019 0.043,0.037 0.065,0.056 0.3,0.254 0.606,0.501 0.919,0.74 0.031,0.024 0.062,0.048 0.094,0.072 0.089,0.067 0.179,0.134 0.269,0.2 0.043,0.032 0.085,0.063 0.128,0.094 0.089,0.064 0.177,0.127 0.266,0.19 0.042,0.03 0.085,0.058 0.127,0.088 0.297,0.205 0.599,0.404 0.905,0.596 0.052,0.032 0.103,0.065 0.155,0.097 0.085,0.052 0.171,0.104 0.257,0.155 0.058,0.035 0.116,0.069 0.174,0.103 0.085,0.049 0.169,0.098 0.254,0.147 0.061,0.034 0.121,0.067 0.182,0.101 0.296,0.165 0.597,0.324 0.901,0.476 0.067,0.034 0.134,0.067 0.201,0.1 0.084,0.041 0.168,0.081 0.251,0.12 0.069,0.033 0.138,0.065 0.208,0.097 0.084,0.039 0.167,0.077 0.252,0.115 0.071,0.032 0.142,0.062 0.214,0.093 0.083,0.037 0.167,0.073 0.251,0.109 2.757,1.158 5.784,1.799 8.961,1.799 3.135,0 6.123,-0.624 8.849,-1.753 h 0.001 c 0.14,-0.058 0.279,-0.118 0.418,-0.179 0.014,-0.006 0.029,-0.012 0.043,-0.018 0.135,-0.06 0.271,-0.121 0.405,-0.183 0.012,-0.006 0.023,-0.011 0.035,-0.016 0.708,-0.33 1.396,-0.693 2.063,-1.09 0.014,-0.009 0.028,-0.016 0.042,-0.025 0.119,-0.071 0.238,-0.144 0.356,-0.217 0.024,-0.015 0.049,-0.031 0.073,-0.046 0.115,-0.072 0.229,-0.144 0.342,-0.218 0.023,-0.015 0.046,-0.031 0.07,-0.046 0.116,-0.077 0.232,-0.154 0.347,-0.232 0.005,-0.003 0.009,-0.007 0.014,-0.01 0.373,-0.255 0.737,-0.521 1.094,-0.797 0.018,-0.014 0.037,-0.028 0.056,-0.042 0.096,-0.075 0.191,-0.151 0.286,-0.227 0.038,-0.031 0.077,-0.062 0.115,-0.093 0.088,-0.072 0.175,-0.144 0.262,-0.217 l 0.132,-0.111 c 0.083,-0.072 0.166,-0.143 0.249,-0.215 l 0.135,-0.12 c 0.081,-0.073 0.162,-0.145 0.242,-0.218 0.042,-0.038 0.084,-0.078 0.125,-0.116 0.173,-0.161 0.343,-0.323 0.51,-0.489 0.024,-0.022 0.047,-0.045 0.071,-0.068 0.067,-0.067 0.132,-0.134 0.198,-0.202 l 0.165,-0.168 c 0.062,-0.065 0.123,-0.13 0.184,-0.196 0.058,-0.061 0.115,-0.122 0.172,-0.184 0.058,-0.063 0.116,-0.128 0.174,-0.192 0.059,-0.066 0.118,-0.132 0.176,-0.198 0.055,-0.062 0.109,-0.125 0.163,-0.187 0.062,-0.073 0.124,-0.146 0.185,-0.219 0.049,-0.059 0.098,-0.117 0.146,-0.175 0.077,-0.094 0.153,-0.189 0.229,-0.283 0.031,-0.04 0.063,-0.079 0.094,-0.119 0.104,-0.132 0.207,-0.266 0.308,-0.401 0.037,-0.049 0.073,-0.099 0.11,-0.149 0.066,-0.09 0.133,-0.181 0.198,-0.272 0.041,-0.056 0.08,-0.113 0.12,-0.17 0.061,-0.086 0.121,-0.173 0.181,-0.261 0.039,-0.058 0.079,-0.116 0.118,-0.175 0.059,-0.089 0.118,-0.178 0.177,-0.268 0.036,-0.057 0.073,-0.113 0.109,-0.17 0.063,-0.098 0.124,-0.198 0.186,-0.297 0.03,-0.049 0.06,-0.097 0.09,-0.146 0.088,-0.146 0.176,-0.294 0.261,-0.442 0.002,-0.003 0.003,-0.005 0.004,-0.008 h 0.001 c 1.81,-3.149 2.9,-6.765 3.047,-10.622 0.003,-0.063 0.005,-0.126 0.007,-0.189 0.003,-0.073 0.005,-0.147 0.006,-0.22 0.004,-0.163 0.006,-0.327 0.006,-0.491 0,-0.184 -0.002,-0.367 -0.007,-0.549 z M 24.944,8.089 30.785,3.846 c 0.502,0.169 0.998,0.357 1.489,0.565 2.531,1.07 4.805,2.604 6.758,4.557 1.066,1.065 2.005,2.227 2.814,3.473 l -2.038,6.437 -6.076,1.995 -8.788,-6.384 z M 8.966,8.968 c 1.953,-1.953 4.227,-3.487 6.758,-4.557 0.491,-0.208 0.987,-0.396 1.489,-0.565 l 5.841,4.243 v 6.4 L 14.22,20.907 8.2,18.909 6.152,12.441 C 6.961,11.195 7.9,10.033 8.966,8.968 Z M 12.682,37.573 6.915,36.659 C 5.91,35.306 5.071,33.84 4.409,32.275 3.325,29.713 2.766,26.994 2.742,24.19 l 4.872,-3.485 6.023,2 3.412,10.5 z m 20.518,5.6 c -0.305,0.146 -0.613,0.285 -0.926,0.418 -2.62,1.108 -5.404,1.67 -8.275,1.67 -2.871,0 -5.655,-0.562 -8.275,-1.67 -0.351,-0.149 -0.698,-0.308 -1.04,-0.474 l -0.666,-4.208 4.709,-4.71 h 11.205 l 4.048,4.048 z M 43.589,32.275 c -0.542,1.282 -1.203,2.497 -1.977,3.639 l -6.296,0.997 -4.204,-4.205 3.268,-10.057 5.978,-1.963 4.899,3.504 c -0.024,2.804 -0.584,5.523 -1.668,8.085 z"
       fill="#383838"
       fill-rule="nonzero"
       id="path1"
       style="stroke-width:0.826786;fill:#535d6c" />
  </g>
</svg>
