<?xml version="1.0" encoding="UTF-8" standalone="no"?>
<svg
   width="62"
   height="62"
   version="1.1"
   id="svg4"
   sodipodi:docname="calf_plugin.svg"
   inkscape:version="1.4.2 (unknown)"
   xmlns:inkscape="http://www.inkscape.org/namespaces/inkscape"
   xmlns:sodipodi="http://sodipodi.sourceforge.net/DTD/sodipodi-0.dtd"
   xmlns:xlink="http://www.w3.org/1999/xlink"
   xmlns="http://www.w3.org/2000/svg"
   xmlns:svg="http://www.w3.org/2000/svg">
  <defs
     id="defs4">
    <linearGradient
       id="linearGradient1"
       inkscape:collect="always">
      <stop
         style="stop-color:#708197;stop-opacity:1;"
         offset="0"
         id="stop1" />
      <stop
         style="stop-color:#aa87de;stop-opacity:1"
         offset="1"
         id="stop2" />
    </linearGradient>
    <linearGradient
       inkscape:collect="always"
       xlink:href="#linearGradient1"
       id="linearGradient2"
       x1="30.075558"
       y1="58.017544"
       x2="30.410645"
       y2="3.9824567"
       gradientUnits="userSpaceOnUse" />
  </defs>
  <sodipodi:namedview
     id="namedview4"
     pagecolor="#ffffff"
     bordercolor="#000000"
     borderopacity="0.25"
     inkscape:showpageshadow="2"
     inkscape:pageopacity="0.0"
     inkscape:pagecheckerboard="0"
     inkscape:deskcolor="#d1d1d1"
     inkscape:zoom="11.890625"
     inkscape:cx="31.95795"
     inkscape:cy="33.597898"
     inkscape:current-layer="svg4" />
  <rect
     style="opacity:0.2;stroke-width:0.999971"
     width="55"
     height="55.017544"
     x="3.5"
     y="3.9824567"
     rx="12.6"
     ry="12.6"
     id="rect1" />
  <rect
     style="fill:url(#linearGradient2);stroke-width:0.999971"
     width="55"
     height="55.017544"
     x="3.5"
     y="2.9999995"
     rx="12.6"
     ry="12.6"
     id="rect2" />
  <path
     style="opacity:0.1;fill:#ffffff;stroke-width:0.999971"
     d="m 15.874615,2.9999995 c -6.8557487,0 -12.3746149,5.5206268 -12.3746149,12.3785615 v 0.982457 c 0,-6.8579385 5.5188662,-12.3785625 12.3746149,-12.3785625 h 30.25077 C 52.981135,3.9824555 58.5,9.5030795 58.5,16.361018 V 15.378561 C 58.5,8.5206263 52.981135,2.9999995 46.125385,2.9999995 Z"
     id="path4" />
  <g
     id="g1"
     transform="matrix(1.0707275,0,0,1.0707275,-2.8483731,-48.031468)"
     style="stroke-width:0.933944">
    <path
       fill="#383838"
       d="m 44.221,57 c -2.802,0 -8.406,5.596 -8.406,5.596 l 2.802,2.802 h 5.604 c 2.802,0 7.004,-5.604 7.004,-5.604 0,0 -4.202,-2.794 -7.004,-2.794 M 19.005,57 C 16.203,57 12,59.802 12,59.802 c 0,0 4.203,5.604 7.005,5.604 h 5.603 l 2.802,-2.802 c 0,0 -5.604,-5.604 -8.405,-5.604"
       id="path3-3"
       style="stroke-width:0.933944" />
    <path
       fill="#d7a2a2"
       d="m 44.117,59.794 c -2.802,0 -2.783,0.957 -5.5,2.81 1.378,0.966 3.612,2.31 5.172,2.126 1.783,-0.283 3.234,-2.134 4.635,-4.236 0,0 -1.505,-0.7 -4.307,-0.7 m -25.112,0.008 c -2.802,0 -4.203,0.7 -4.203,0.7 1.4,2.102 2.747,3.953 4.531,4.236 1.56,0.185 3.898,-1.168 5.275,-2.134 -2.717,-1.853 -2.802,-2.802 -5.603,-2.802"
       id="path4-6"
       style="stroke-width:0.933944" />
    <path
       fill="#e5e1d9"
       d="m 31.613,59.802 -12.835,13.62 c -0.864,2.006 -1.174,3.191 -1.174,5.993 0,4.203 3.502,7.004 3.502,7.004 l 16.11,2.802 c 2.114,-1.241 5.604,-1.4 7.426,-4.928 L 42.727,67.24 c -0.854,-1.483 -1.813,-3.107 -2.709,-4.635 -2.802,-1.401 -4.203,-2.802 -8.405,-2.802 z"
       id="path5"
       style="stroke-width:0.933944" />
    <path
       fill="#383838"
       d="m 23.207,62.604 c -1.348,3.552 -3.068,7.664 -4.43,10.819 0,0 10.97,8.035 15.028,4.703 3.468,-2.849 -1.024,-8.917 -1.453,-13.385 -0.169,-1.758 -0.739,-4.939 -0.739,-4.939 -4.202,0 -5.603,1.401 -8.405,2.802 z m 19.52,4.635 c 0,0 -2.546,0.119 -3.324,0.971 -1.771,1.944 -2.082,5.182 -1.502,7.746 0.486,2.15 3.932,5.32 3.932,5.32 l 2.81,3.017 c 0.921,-1.227 2.38,-4.178 2.38,-6.279 0,-5.604 -2.802,-8.405 -4.295,-10.775 z"
       id="path6"
       style="stroke-width:0.933944" />
    <path
       fill="#f9f9f9"
       d="m 28.811,62.604 c -2.802,0 -7.005,2.802 -7.005,8.405 0,2.802 2.102,4.203 4.203,4.203 2.101,0 3.502,-1.4 4.903,-3.502 1.401,3.502 3.885,4.889 6.164,4.903 2.102,0.013 4.343,-1.4 4.343,-5.604 0,-2.801 -2.942,-8.405 -7.145,-8.405 -2.1,0 -2.661,1.4 -2.661,1.4 0,0 -0.7,-1.4 -2.802,-1.4"
       id="path7"
       style="stroke-width:0.933944" />
    <path
       fill="#e09d9d"
       d="m 44.221,80.816 c 0,5.698 -5.186,9.806 -12.608,9.806 -7.422,0 -12.608,-4.108 -12.608,-9.806 0,-2.85 0.739,-5.349 3.408,-6.683 2.669,-1.334 5.997,1.08 9.2,1.08 3.203,0 6.82,-2.415 9.488,-1.08 2.668,1.335 3.12,3.834 3.12,6.683"
       id="path8"
       style="stroke-width:0.933944" />
    <path
       fill="#383838"
       d="m 29.511,65.406 a 2.1,2.1 0 0 0 -2.1,2.101 2.1,2.1 0 0 0 2.1,2.102 2.1,2.1 0 0 0 2.102,-2.102 2.1,2.1 0 0 0 -2.102,-2.101 m 4.904,0 a 2.8,2.8 0 0 0 -2.802,2.802 2.8,2.8 0 0 0 2.802,2.801 2.8,2.8 0 0 0 2.801,-2.801 2.8,2.8 0 0 0 -2.801,-2.802 m -8.406,11.207 a 2.8,2.8 0 0 0 -2.802,2.802 2.8,2.8 0 0 0 2.802,2.802 2.8,2.8 0 0 0 2.802,-2.802 2.8,2.8 0 0 0 -2.802,-2.802 m 11.207,0 a 2.8,2.8 0 0 0 -2.801,2.802 2.8,2.8 0 0 0 2.801,2.802 2.8,2.8 0 0 0 2.802,-2.802 2.8,2.8 0 0 0 -2.802,-2.802"
       id="path9"
       style="stroke-width:0.933944" />
  </g>
  <circle
     cx="49.644997"
     cy="49.57"
     r="12.299998"
     fill="#555555"
     id="circle8"
     style="stroke-width:0.999995;fill:#3f4753;fill-opacity:1" />
  <path
     fill="#ffffff"
     d="m 48.984635,41.112198 c 0,0 -1.647433,0 -1.647433,1.647434 v 1.647432 H 44.04234 c -1.097772,0 -1.097772,1.097772 -1.097772,1.097772 v 3.294862 H 44.592 c 1.647431,0 1.647431,1.647434 1.647431,1.647434 0,0 0,1.647432 -1.647431,1.647432 h -1.647432 v 3.294863 c 0,1.097773 1.097772,1.097773 1.097772,1.097773 h 3.294862 v -1.097773 c 0,-2.197091 1.647433,-2.197091 1.647433,-2.197091 0,0 1.647433,0 1.647433,2.197091 V 56.4872 h 3.294863 c 1.097771,0 1.097771,-1.097773 1.097771,-1.097773 v -3.294863 h 1.647433 c 1.647433,0 1.647433,-1.647432 1.647433,-1.647432 0,0 0,-1.647434 -1.647433,-1.647434 h -1.647433 v -3.294862 c 0,-1.097772 -1.097771,-1.097772 -1.097771,-1.097772 h -3.294863 v -1.647432 c 0,-1.647434 -1.647433,-1.647434 -1.647433,-1.647434"
     class="ColorScheme-Text"
     color="#6e6e6e"
     id="path9-3"
     style="stroke-width:0.999995" />
</svg>
