<?xml version="1.0" encoding="UTF-8" standalone="no"?>
<svg
   width="62"
   height="62"
   version="1"
   id="svg7"
   sodipodi:docname="cardo.svg"
   inkscape:version="1.4.2 (unknown)"
   xmlns:inkscape="http://www.inkscape.org/namespaces/inkscape"
   xmlns:sodipodi="http://sodipodi.sourceforge.net/DTD/sodipodi-0.dtd"
   xmlns:xlink="http://www.w3.org/1999/xlink"
   xmlns="http://www.w3.org/2000/svg"
   xmlns:svg="http://www.w3.org/2000/svg">
  <defs
     id="defs7">
    <linearGradient
       id="linearGradient7"
       inkscape:collect="always">
      <stop
         style="stop-color:#384850;stop-opacity:1;"
         offset="0"
         id="stop8" />
      <stop
         style="stop-color:#217844;stop-opacity:1;"
         offset="0.58519185"
         id="stop10" />
      <stop
         style="stop-color:#eff2f6;stop-opacity:1;"
         offset="0.86599815"
         id="stop11" />
      <stop
         style="stop-color:#eff2f6;stop-opacity:1;"
         offset="1"
         id="stop9" />
    </linearGradient>
    <linearGradient
       id="linearGradient1"
       inkscape:collect="always">
      <stop
         style="stop-color:#303c47;stop-opacity:1;"
         offset="0"
         id="stop5" />
      <stop
         style="stop-color:#363e48;stop-opacity:1;"
         offset="0.25046653"
         id="stop7" />
      <stop
         style="stop-color:#303c47;stop-opacity:1;"
         offset="0.91934216"
         id="stop12" />
      <stop
         style="stop-color:#303c47;stop-opacity:1;"
         offset="1"
         id="stop6" />
    </linearGradient>
    <linearGradient
       id="c-3"
       gradientUnits="userSpaceOnUse"
       x1="24.072048"
       x2="23.959682"
       y1="0.75082099"
       y2="46.056854">
      <stop
         offset="0"
         stop-color="#fff"
         id="stop3" />
      <stop
         offset="1"
         stop-color="#d9d9d9"
         id="stop4" />
    </linearGradient>
    <linearGradient
       id="b-6"
       gradientUnits="userSpaceOnUse"
       x1="29.203026"
       x2="34.121048"
       xlink:href="#a-7"
       y1="24.827356"
       y2="29.224836" />
    <linearGradient
       id="a-7">
      <stop
         offset="0"
         id="stop1" />
      <stop
         offset="1"
         stop-opacity="0"
         id="stop2" />
    </linearGradient>
    <linearGradient
       id="d"
       gradientUnits="userSpaceOnUse"
       x1="15.948756"
       x2="25.031786"
       xlink:href="#a-7"
       y1="23.618279"
       y2="33.69899" />
    <linearGradient
       id="e"
       gradientUnits="userSpaceOnUse"
       x1="21.990562"
       x2="29.320522"
       xlink:href="#a-7"
       y1="33.780373"
       y2="41.931858" />
    <linearGradient
       id="paint154_linear_890_11"
       x1="778"
       y1="812.29199"
       x2="788"
       y2="812.29199"
       gradientUnits="userSpaceOnUse"
       gradientTransform="translate(-751,-696)">
      <stop
         stop-color="#EFF2F6"
         id="stop1050" />
      <stop
         offset="0.600785"
         stop-color="#B7C6CD"
         id="stop1051" />
    </linearGradient>
    <linearGradient
       id="paint155_linear_890_11"
       x1="783"
       y1="813"
       x2="783"
       y2="817"
       gradientUnits="userSpaceOnUse"
       gradientTransform="translate(-751,-696)">
      <stop
         stop-color="#EFF2F6"
         id="stop1052" />
      <stop
         offset="0.734138"
         stop-color="#B7C6CD"
         id="stop1053" />
    </linearGradient>
    <radialGradient
       id="paint156_radial_890_11"
       cx="0"
       cy="0"
       r="1"
       gradientUnits="userSpaceOnUse"
       gradientTransform="matrix(27.999986,27.999976,-27.999986,27.999976,32.302392,33.999998)">
      <stop
         offset="0.60067803"
         stop-color="#B7C6CD"
         id="stop1054"
         style="stop-color:#424b58;stop-opacity:1;" />
      <stop
         offset="0.876735"
         stop-color="#EFF2F6"
         id="stop1055" />
    </radialGradient>
    <linearGradient
       id="paint157_linear_890_11"
       x1="796.84485"
       y1="799.43359"
       x2="768.90088"
       y2="770.81476"
       gradientUnits="userSpaceOnUse"
       gradientTransform="matrix(1.1666666,0,0,1.1666668,-881.19764,-881.8333)">
      <stop
         offset="0.00000057"
         stop-color="#2E2E41"
         id="stop1056"
         style="stop-color:#424b58;stop-opacity:1;" />
      <stop
         offset="0.71113902"
         stop-color="#566C80"
         id="stop1057"
         style="stop-color:#303c47;stop-opacity:1;" />
    </linearGradient>
    <linearGradient
       id="paint158_linear_890_11"
       x1="792"
       y1="794"
       x2="774"
       y2="776"
       gradientUnits="userSpaceOnUse"
       gradientTransform="translate(-751,-696)">
      <stop
         offset="0.304478"
         stop-color="#2E2E41"
         id="stop1058" />
      <stop
         offset="1"
         stop-color="#566C80"
         id="stop1059" />
    </linearGradient>
    <linearGradient
       id="paint159_linear_890_11"
       x1="788"
       y1="790"
       x2="778"
       y2="780"
       gradientUnits="userSpaceOnUse"
       gradientTransform="translate(-751,-696)">
      <stop
         offset="0.391394"
         stop-color="#5200FF"
         id="stop1060" />
      <stop
         offset="1"
         stop-color="#0085FF"
         id="stop1061" />
    </linearGradient>
    <linearGradient
       id="paint160_linear_890_11"
       x1="784"
       y1="798"
       x2="782"
       y2="796"
       gradientUnits="userSpaceOnUse"
       gradientTransform="translate(-751,-696)">
      <stop
         stop-color="#FF7E07"
         id="stop1062" />
      <stop
         offset="1"
         stop-color="#FFE607"
         id="stop1063" />
    </linearGradient>
    <linearGradient
       id="c-3-6"
       gradientUnits="userSpaceOnUse"
       x1="24.072048"
       x2="23.959682"
       y1="0.75082099"
       y2="46.056854"
       gradientTransform="matrix(0.91471346,0,0,0.90068147,9.0468769,9.3836444)">
      <stop
         offset="0"
         stop-color="#fff"
         id="stop3-2" />
      <stop
         offset="1"
         stop-color="#d9d9d9"
         id="stop4-9" />
    </linearGradient>
    <linearGradient
       id="b-6-1"
       gradientUnits="userSpaceOnUse"
       x1="29.203026"
       x2="34.121048"
       xlink:href="#a-7"
       y1="24.827356"
       y2="29.224836"
       gradientTransform="matrix(1.1104534,0,0,1.0934187,4.3491158,4.7861435)" />
    <linearGradient
       id="d-0"
       gradientUnits="userSpaceOnUse"
       x1="15.948756"
       x2="25.031786"
       xlink:href="#a-7"
       y1="23.618279"
       y2="33.69899"
       gradientTransform="matrix(1.1104534,0,0,1.0934187,4.3491158,4.7861435)" />
    <linearGradient
       id="e-9"
       gradientUnits="userSpaceOnUse"
       x1="21.990562"
       x2="29.320522"
       xlink:href="#a-7"
       y1="33.780373"
       y2="41.931858"
       gradientTransform="matrix(1.1104534,0,0,1.0934187,4.3491158,4.7861435)" />
    <linearGradient
       inkscape:collect="always"
       xlink:href="#linearGradient1"
       id="linearGradient6"
       x1="15.60323"
       y1="17.703012"
       x2="48.302387"
       y2="50"
       gradientUnits="userSpaceOnUse" />
    <radialGradient
       inkscape:collect="always"
       xlink:href="#linearGradient7"
       id="radialGradient9"
       cx="32.302387"
       cy="34"
       fx="32.302387"
       fy="34"
       r="28"
       gradientUnits="userSpaceOnUse"
       gradientTransform="matrix(0.99999999,1,-1,0.99999999,34,-32.302387)" />
    <radialGradient
       id="radialGradient867"
       cx="6.6805"
       cy="8.2870998"
       r="3.7376001"
       gradientTransform="matrix(4.8485492,0,0,4.8159411,-9.9298686,-9.7737847)"
       gradientUnits="userSpaceOnUse">
      <stop
         stop-color="#c8d7ea"
         stop-opacity=".99608"
         offset="0"
         id="stop1-5" />
      <stop
         stop-color="#91acd0"
         stop-opacity=".99608"
         offset="1"
         id="stop2-4" />
    </radialGradient>
    <linearGradient
       id="linearGradient8945"
       x1="3.8726001"
       x2="4.7592001"
       y1="-3.2832"
       y2="-2.3964"
       gradientTransform="matrix(1.3622,-0.36501,0.36501,1.3622,2.977,21.076)"
       gradientUnits="userSpaceOnUse">
      <stop
         stop-color="#bdc2cf"
         offset="0"
         id="stop3-7" />
      <stop
         stop-color="#eaf0f5"
         offset="1"
         id="stop4-4" />
    </linearGradient>
    <linearGradient
       id="linearGradient26151"
       x1="4.9973001"
       x2="6.1075001"
       y1="-4.6547999"
       y2="-3.5313001"
       gradientTransform="matrix(1.3622,-0.36501,0.36501,1.3622,2.977,21.076)"
       gradientUnits="userSpaceOnUse">
      <stop
         stop-color="#7dbc53"
         offset="0"
         id="stop5-4" />
      <stop
         stop-color="#93d159"
         offset=".11589"
         id="stop6-3" />
      <stop
         stop-color="#699d51"
         offset="1"
         id="stop7-0" />
    </linearGradient>
  </defs>
  <sodipodi:namedview
     id="namedview7"
     pagecolor="#ffffff"
     bordercolor="#000000"
     borderopacity="0.25"
     inkscape:showpageshadow="2"
     inkscape:pageopacity="0.0"
     inkscape:pagecheckerboard="0"
     inkscape:deskcolor="#d1d1d1"
     inkscape:zoom="8.3306018"
     inkscape:cx="35.111509"
     inkscape:cy="50.116427"
     inkscape:window-width="1920"
     inkscape:window-height="994"
     inkscape:window-x="0"
     inkscape:window-y="0"
     inkscape:window-maximized="1"
     inkscape:current-layer="svg7" />
  <g
     id="g1"
     transform="translate(-1.3023872,-3)">
    <path
       d="m 60.302387,34 c 0,15.46415 -12.535828,28 -28.000002,28 C 16.838222,62 4.3023873,49.46415 4.3023873,34 4.3023873,18.535835 16.838222,6 32.302385,6 47.766559,6 60.302387,18.535835 60.302387,34 Z"
       id="path154"
       style="fill:url(#radialGradient9)" />
    <path
       d="m 55.63572,34 c 0,12.88701 -10.446332,23.33332 -23.333335,23.33332 C 19.415386,57.33332 8.9690543,46.88701 8.9690543,34 c 0,-12.886994 10.4463317,-23.333332 23.3333307,-23.333332 12.887003,0 23.333335,10.446338 23.333335,23.333332 z"
       id="path155"
       style="fill:url(#linearGradient6)" />
  </g>
  <g
     id="g2"
     transform="translate(-2.679567,-50.487043)">
    <path
       d="m 33.602551,66.487043 c -1.324678,3.365628 -2.223092,6.893184 -3.176558,10.380874 -0.15264,0.844838 -0.52067,2.38741 -0.793916,0.708178 -0.902576,-3.005734 -1.778696,-6.045084 -3.040344,-8.921142 -0.636642,3.700852 -1.10482,7.463746 -1.206036,11.23237 -1.55869,-3.08329 -3.147642,-6.166632 -4.70613,-9.250024 -0.09897,3.848512 -0.1343,7.69699 0,11.542398 -1.737339,-2.216934 -3.025267,-4.65421 -4.76716,-6.858922 0.216854,2.369232 0.511666,4.771716 0.768211,7.148168 -0.942847,-0.510866 -2.457151,-2.007106 -3.001051,-1.973084 1.995221,4.291862 3.222384,9.20601 6.959139,12.421854 1.944269,1.792348 4.435747,3.045264 7.111213,3.162306 4.581164,0.534342 9.299954,0.667592 13.790168,-0.378536 4.090496,-0.952998 7.178832,-4.348796 8.96238,-8.068112 1.195342,-2.395236 2.118974,-4.911832 3.1771,-7.368134 -1.013792,0.731296 -2.03018,1.460384 -2.999574,2.24986 0.333994,-2.344338 0.553138,-4.706596 0.732088,-7.06712 -1.70861,2.221984 -2.939536,4.589906 -4.732514,6.748064 0.20654,-3.825976 0.0673,-7.665226 0,-11.496824 -1.60463,3.033598 -3.105474,6.136052 -4.589602,9.229996 -0.18744,-3.71984 -0.748078,-7.403368 -1.245712,-11.089258 -0.0492,0.08908 -1.083202,2.608596 -1.627712,3.865616 -0.709046,2.022694 -1.365196,4.063104 -2.004404,6.108564 -0.833058,-4.172622 -2.24217,-8.2003 -3.487384,-12.261822 l -0.12164,-0.06524 z"
       style="opacity:0.2"
       id="path2" />
    <path
       d="m 33.602551,65.487043 c -1.324678,3.365629 -2.223092,6.893184 -3.176558,10.380874 -0.15264,0.844838 -0.52067,2.38741 -0.793916,0.708178 -0.902576,-3.005734 -1.778696,-6.045084 -3.040344,-8.921142 -0.636642,3.700852 -1.10482,7.463746 -1.206036,11.23237 -1.55869,-3.08329 -3.147642,-6.166632 -4.70613,-9.250024 -0.09897,3.848512 -0.1343,7.69699 0,11.542398 -1.737339,-2.216934 -3.025267,-4.65421 -4.76716,-6.858922 0.216854,2.369232 0.511666,4.771716 0.768211,7.148168 -0.942847,-0.510866 -2.457151,-2.007106 -3.001051,-1.973084 1.995221,4.291862 3.222384,9.20601 6.959139,12.421854 1.944269,1.792348 4.435747,3.045264 7.111213,3.162306 4.581164,0.534342 9.299954,0.667592 13.790168,-0.378536 4.090496,-0.952998 7.178832,-4.348796 8.96238,-8.068112 1.195342,-2.395236 2.118974,-4.911832 3.1771,-7.368134 -1.013792,0.731296 -2.03018,1.460384 -2.999574,2.24986 0.333994,-2.344338 0.553138,-4.706596 0.732088,-7.06712 -1.70861,2.221984 -2.939536,4.589906 -4.732514,6.748064 0.20654,-3.825976 0.0673,-7.665226 0,-11.496824 -1.60463,3.033598 -3.105474,6.136052 -4.589602,9.229996 -0.18744,-3.71984 -0.748078,-7.403368 -1.245712,-11.089259 -0.0492,0.08909 -1.083202,2.608597 -1.627712,3.865617 -0.709046,2.022694 -1.365196,4.063104 -2.004404,6.108564 -0.833058,-4.172622 -2.24217,-8.2003 -3.487384,-12.261822 l -0.12164,-0.06524 z"
       style="fill:#2ca05a"
       id="path3" />
    <path
       d="m 33.603395,65.487043 c -1.324678,3.365629 -2.224268,6.893169 -3.177734,10.380859 -0.15264,0.844838 -0.519723,2.388217 -0.792969,0.708985 -0.902576,-3.005734 -1.779368,-6.045817 -3.041016,-8.921875 -0.636642,3.700852 -1.103862,7.463798 -1.205078,11.232422 -1.55869,-3.08329 -3.148543,-6.166608 -4.707031,-9.25 -0.05743,2.233199 -0.09403,4.466635 -0.08789,6.699218 0.0051,-1.899405 0.03903,-3.799431 0.08789,-5.699218 1.558488,3.083392 3.148341,6.16671 4.707031,9.25 0.101216,-3.768624 0.568436,-7.53157 1.205078,-11.232422 1.261648,2.876058 2.13844,5.916141 3.041016,8.921875 0.273246,1.679232 0.640329,0.135853 0.792969,-0.708985 0.953466,-3.48769 1.853056,-7.01523 3.177734,-10.380859 l 0.121094,0.06445 c 1.245214,4.061522 2.655223,8.089097 3.488281,12.261719 0.639208,-2.04546 1.29486,-4.084728 2.003906,-6.107422 0.54451,-1.25702 1.577754,-3.776144 1.626953,-3.865234 0.497634,3.685891 1.058654,7.36805 1.246094,11.08789 1.484128,-3.093941 2.985214,-6.194914 4.589844,-9.228512 0.03801,2.164062 0.09877,4.328967 0.107422,6.49414 0.01067,-2.497967 -0.06356,-4.996881 -0.107422,-7.49414 -1.60463,3.033598 -3.105716,6.134571 -4.589844,9.228515 -0.18744,-3.71984 -0.74846,-7.401999 -1.246094,-11.08789 -0.0492,0.08909 -1.082443,2.608214 -1.626953,3.865234 -0.709046,2.022694 -1.364698,4.061962 -2.003906,6.107422 -0.833058,-4.172622 -2.243067,-8.200197 -3.488281,-12.261719 z m -17.691406,8.833984 c 0.03471,0.37917 0.07115,0.758043 0.109375,1.138672 1.686797,2.167615 2.95751,4.550532 4.658203,6.720703 -0.01212,-0.347077 -0.02377,-0.695844 -0.0332,-1.042968 -1.721047,-2.205876 -3.003293,-4.625378 -4.734375,-6.816407 z m 35.5,0.126954 c -1.693114,2.201832 -2.916894,4.547126 -4.683594,6.689453 -0.01349,0.353024 -0.02978,0.705778 -0.04883,1.058593 1.762123,-2.121018 2.98118,-4.444233 4.644531,-6.632812 0.03045,-0.371606 0.05972,-0.743638 0.08789,-1.115234 z m 2.267578,4.816406 c -0.961188,0.69335 -1.924065,1.386176 -2.847656,2.128906 -0.04771,0.37454 -0.0991,0.747385 -0.152344,1.121094 0.776854,-0.632672 1.584792,-1.225177 2.396484,-1.8125 0.198244,-0.480045 0.398107,-0.960671 0.603516,-1.4375 z m -40,0.232422 c 0.184388,0.396631 0.3613,0.797695 0.535156,1.203125 0.699876,0.421667 1.749582,1.38092 2.466797,1.769531 -0.03833,-0.355048 -0.07754,-0.710394 -0.117187,-1.066406 -0.946649,-0.562761 -2.362875,-1.938896 -2.884766,-1.90625 z"
       style="opacity:0.1;fill:#ffffff"
       id="path5" />
  </g>
</svg>
