<?xml version="1.0" encoding="UTF-8" standalone="no"?>
<svg
   width="62"
   height="62"
   version="1.1"
   id="svg5"
   sodipodi:docname="cataclysm-dda.svg"
   inkscape:version="1.4.2 (unknown)"
   xmlns:inkscape="http://www.inkscape.org/namespaces/inkscape"
   xmlns:sodipodi="http://sodipodi.sourceforge.net/DTD/sodipodi-0.dtd"
   xmlns:xlink="http://www.w3.org/1999/xlink"
   xmlns="http://www.w3.org/2000/svg"
   xmlns:svg="http://www.w3.org/2000/svg">
  <defs
     id="defs5">
    <linearGradient
       id="linearGradient6"
       inkscape:collect="always">
      <stop
         style="stop-color:#8d5fd3;stop-opacity:1"
         offset="0"
         id="stop6" />
      <stop
         style="stop-color:#c83771;stop-opacity:1"
         offset="0.50947118"
         id="stop8" />
      <stop
         style="stop-color:#2a7fff;stop-opacity:1"
         offset="1"
         id="stop7" />
    </linearGradient>
    <linearGradient
       id="linearGradient1"
       inkscape:collect="always">
      <stop
         style="stop-color:#333333;stop-opacity:1"
         offset="0"
         id="stop4" />
      <stop
         style="stop-color:#333333;stop-opacity:1"
         offset="1"
         id="stop5" />
    </linearGradient>
    <linearGradient
       id="linear0"
       x1="1.1991977"
       x2="1.1991977"
       y1="1.843998"
       y2="63.639563"
       gradientTransform="scale(1.0065321,0.99351031)"
       gradientUnits="userSpaceOnUse">
      <stop
         offset="0%"
         style="stop-color:#00b6c7; stop-opacity:1"
         id="stop1" />
      <stop
         offset="50%"
         style="stop-color:#ff0000; stop-opacity:1"
         id="stop2" />
      <stop
         offset="100%"
         style="stop-color:#6a00ff; stop-opacity:1"
         id="stop3" />
    </linearGradient>
    <linearGradient
       inkscape:collect="always"
       xlink:href="#linearGradient1"
       id="linearGradient5"
       x1="31"
       y1="58.017544"
       x2="31"
       y2="3.9824562"
       gradientUnits="userSpaceOnUse" />
    <linearGradient
       inkscape:collect="always"
       xlink:href="#linearGradient6"
       id="linearGradient7"
       x1="30.097118"
       y1="63.226562"
       x2="30.171787"
       y2="1.832031"
       gradientUnits="userSpaceOnUse" />
  </defs>
  <sodipodi:namedview
     id="namedview5"
     pagecolor="#ffffff"
     bordercolor="#000000"
     borderopacity="0.25"
     inkscape:showpageshadow="2"
     inkscape:pageopacity="0.0"
     inkscape:pagecheckerboard="0"
     inkscape:deskcolor="#d1d1d1"
     inkscape:zoom="11.6875"
     inkscape:cx="31.957219"
     inkscape:cy="32.983957"
     inkscape:window-width="1920"
     inkscape:window-height="998"
     inkscape:window-x="0"
     inkscape:window-y="0"
     inkscape:window-maximized="1"
     inkscape:current-layer="svg5" />
  <rect
     style="opacity:0.2;stroke-width:0.9823"
     width="55"
     height="55.017544"
     x="3.5"
     y="3.9824562"
     rx="8.25"
     ry="8.2526312"
     id="rect1" />
  <rect
     style="fill:url(#linearGradient5);stroke-width:0.9823"
     width="55"
     height="55.017544"
     x="3.5"
     y="3"
     rx="8.25"
     ry="8.2526312"
     id="rect2" />
  <path
     style="opacity:0.1;fill:#ffffff;stroke-width:0.9823"
     d="M 11.748466,3 C 7.1779651,3 3.4999999,6.6791384 3.4999999,11.251097 v 0.982456 c 0,-4.5719585 3.6779652,-8.2510968 8.2484661,-8.2510968 h 38.503068 c 4.5705,0 8.248466,3.6791383 8.248466,8.2510968 V 11.251097 C 58.5,6.6791384 54.822034,3 50.251534,3 Z"
     id="path4" />
  <g
     id="surface1"
     transform="matrix(0.78779124,0,0,0.7818286,5.5491116,5.5676658)">
    <path
       d="m 36.746094,1.875 v 2.59375 c 5.332031,2.015625 8.886718,7.414062 8.886718,13.464844 L 34.53125,32.875 c 1.371094,0.851562 2.214844,2.429688 2.214844,4.121094 l 0.800781,0.5 c 2.53125,-3.335938 6.308594,-5.269532 10.304687,-5.269532 7.351563,0 13.328126,6.40625 13.328126,14.296876 -0.01172,0.898437 -0.113282,1.800781 -0.28125,2.671874 l 1.554687,0.964844 c 0.621094,-1.941406 0.9375,-3.988281 0.953125,-6.03125 -0.0078,-8.984375 -5.84375,-16.726562 -14.019531,-18.632812 0.449219,-1.699219 0.683593,-3.433594 0.683593,-5.195313 0,-8.695312 -5.488281,-16.277343 -13.328124,-18.46875 z m -8.878906,0.074219 c -7.824219,2.164062 -13.308594,9.71875 -13.332032,18.367187 l 0.691406,5.242188 C 7.054688,27.449219 1.234375,35.1875 1.207031,44.152344 1.222656,46.195312 1.542969,48.21875 2.160156,50.175781 L 3.714844,49.210938 C 3.546875,48.328125 3.445312,47.4375 3.433594,46.542969 c 0,-7.890625 5.976562,-14.296875 13.328125,-14.296875 3.996093,0 7.796875,1.933594 10.304687,5.261718 l 0.796875,-0.488281 c 0.01563,-1.671875 0.855469,-3.210937 2.214844,-4.070312 v -0.96875 C 23.679688,30.824219 18.996094,24.902344 18.972656,17.949219 19.011719,11.914062 22.570312,6.582031 27.863281,4.554688 Z m 4.4375,15.984375 -10.503907,3.742187 c 0.480469,1.546875 1.246094,2.957031 2.246094,4.148438 2.347656,-2.007813 5.265625,-3.121094 8.257813,-3.121094 3,0 5.9375,1.089844 8.292968,3.089844 l 2.238282,-4.164063 C 39.796875,19.21875 36.105469,17.914062 32.304688,17.933594 Z M 16.757812,34.613281 14.535156,37 c 0,7.527344 4.132813,14.34375 10.554688,17.417969 0.984375,-1.207031 1.753906,-2.625 2.214844,-4.199219 -5.015626,-2.175781 -8.328126,-7.382812 -8.347657,-13.199219 0.0039,-0.703125 0.05859,-1.40625 0.15625,-2.097656 -0.773437,-0.183594 -1.566406,-0.28125 -2.375,-0.28125 z m 15.546876,0 c -1.222657,0 -2.222657,1.066407 -2.222657,2.386719 0,1.3125 1,2.382812 2.222657,2.382812 1.230468,0 2.226562,-1.070312 2.226562,-2.382812 0,-1.320312 -0.996094,-2.386719 -2.226562,-2.386719 z m 15.554687,0 L 45.632812,37 c -0.01172,5.816406 -3.304687,11.03125 -8.351562,13.203125 0.46875,1.5625 1.242188,2.972656 2.222656,4.1875 C 45.925781,51.34375 50.058594,44.527344 50.058594,37 c -0.0078,-0.726562 -0.04687,-1.445312 -0.125,-2.164062 C 49.25,34.695312 48.550781,34.613281 47.832031,34.613281 Z M 30.082031,46.53125 c 0,7.886719 -13.324219,14.296875 -13.324219,14.296875 L 8.179688,57.441406 7.003906,58.179688 c 3.265625,3.21875 7.527344,5.027343 11.972656,5.046874 5.109376,0 9.949219,-2.351562 13.328126,-6.457031 3.375,4.105469 8.21875,6.457031 13.328124,6.457031 4.445313,-0.01172 8.707032,-1.816406 11.972657,-5.046874 l -1.175781,-0.738282 c -2.402344,2.175782 -5.421876,3.386719 -8.578126,3.386719 -7.355468,0 -13.328124,-6.410156 -13.328124,-14.296875 0.02344,-1.664062 0.324218,-3.3125 0.875,-4.863281 L 34.46875,41.09375 c -0.652344,0.414062 -1.402344,0.648438 -2.171875,0.667969 z m 0,0"
       id="path3-3"
       style="fill:url(#linearGradient7)" />
  </g>
</svg>
