<?xml version="1.0" encoding="UTF-8" standalone="no"?>
<svg
   width="62"
   height="62"
   version="1.1"
   id="svg12"
   sodipodi:docname="cavepacker-icon.svg"
   inkscape:version="1.4.2 (unknown)"
   xmlns:inkscape="http://www.inkscape.org/namespaces/inkscape"
   xmlns:sodipodi="http://sodipodi.sourceforge.net/DTD/sodipodi-0.dtd"
   xmlns="http://www.w3.org/2000/svg"
   xmlns:svg="http://www.w3.org/2000/svg">
  <defs
     id="defs12" />
  <sodipodi:namedview
     id="namedview12"
     pagecolor="#ffffff"
     bordercolor="#000000"
     borderopacity="0.25"
     inkscape:showpageshadow="2"
     inkscape:pageopacity="0.0"
     inkscape:pagecheckerboard="0"
     inkscape:deskcolor="#d1d1d1"
     inkscape:zoom="11.921875"
     inkscape:cx="31.95806"
     inkscape:cy="32"
     inkscape:current-layer="svg12" />
  <g
     id="g12"
     transform="translate(-1,-1)">
    <rect
       x="16"
       y="21"
       width="32"
       height="10"
       style="fill:#7137c8"
       id="rect1" />
    <rect
       x="16"
       y="41"
       width="32"
       height="10"
       style="fill:#7137c8"
       id="rect2" />
    <rect
       x="18"
       y="12"
       width="28"
       height="10"
       style="opacity:0.2"
       id="rect3" />
    <rect
       x="18"
       y="11"
       width="28"
       height="10"
       style="fill:#aa87de"
       id="rect4" />
    <rect
       x="12"
       y="9"
       width="6"
       height="46"
       style="fill:#c5c5c5"
       id="rect5" />
    <rect
       x="46"
       y="9"
       width="6"
       height="46"
       style="fill:#c5c5c5"
       id="rect6" />
    <path
       d="M 8,6 A 4,4 0 0 0 4,10 4,4 0 0 0 5.359375,13 4,4 0 0 0 4,16 a 4,4 0 0 0 4,4 4,4 0 0 0 4,-4 h 40 a 4,4 0 0 0 4,4 4,4 0 0 0 4,-4 A 4,4 0 0 0 58.640624,13 4,4 0 0 0 60,10 4,4 0 0 0 56,6 4,4 0 0 0 52,10 H 12 A 4,4 0 0 0 8,6 Z"
       style="opacity:0.2"
       id="path6" />
    <path
       d="M 8,5 A 4,4 0 0 0 4,9 4,4 0 0 0 5.359375,12 4,4 0 0 0 4,15 a 4,4 0 0 0 4,4 4,4 0 0 0 4,-4 h 40 a 4,4 0 0 0 4,4 4,4 0 0 0 4,-4 A 4,4 0 0 0 58.640624,12 4,4 0 0 0 60,9 4,4 0 0 0 56,5 4,4 0 0 0 52,9 H 12 A 4,4 0 0 0 8,5 Z"
       style="fill:#e4e4e4"
       id="path7" />
    <path
       d="M 8,46 A 4,4 0 0 0 4,50 4,4 0 0 0 5.359375,53 4,4 0 0 0 4,56 a 4,4 0 0 0 4,4 4,4 0 0 0 4,-4 h 40 a 4,4 0 0 0 4,4 4,4 0 0 0 4,-4 A 4,4 0 0 0 58.640624,53 4,4 0 0 0 60,50 4,4 0 0 0 56,46 4,4 0 0 0 52,50 H 12 A 4,4 0 0 0 8,46 Z"
       style="opacity:0.2"
       id="path8" />
    <path
       d="M 8,45 A 4,4 0 0 0 4,49 4,4 0 0 0 5.359375,52 4,4 0 0 0 4,55 a 4,4 0 0 0 4,4 4,4 0 0 0 4,-4 h 40 a 4,4 0 0 0 4,4 4,4 0 0 0 4,-4 A 4,4 0 0 0 58.640624,52 4,4 0 0 0 60,49 4,4 0 0 0 56,45 4,4 0 0 0 52,49 H 12 A 4,4 0 0 0 8,45 Z"
       style="fill:#e4e4e4"
       id="path9" />
    <rect
       x="18"
       y="32"
       width="28"
       height="10"
       style="opacity:0.2"
       id="rect9" />
    <rect
       x="18"
       y="31"
       width="28"
       height="10"
       style="fill:#aa87de"
       id="rect10" />
    <path
       d="M 8,5 A 4,4 0 0 0 4,9 4,4 0 0 0 4.0351562,9.5058594 4,4 0 0 1 8,6 4,4 0 0 1 12,10 H 52 A 4,4 0 0 1 56,6 4,4 0 0 1 59.964844,9.4960938 4,4 0 0 0 60,9 4,4 0 0 0 56,5 4,4 0 0 0 52,9 H 12 A 4,4 0 0 0 8,5 Z M 4.8847656,12.5 A 4,4 0 0 0 4,15 4,4 0 0 0 4.0351562,15.503906 4,4 0 0 1 5.359375,13 4,4 0 0 1 4.8847656,12.5 Z m 54.2304684,0 A 4,4 0 0 1 58.640625,13 4,4 0 0 1 59.964844,15.494141 4,4 0 0 0 60,15 4,4 0 0 0 59.115234,12.5 Z"
       style="opacity:0.2;fill:#ffffff"
       id="path10" />
    <path
       d="M 8,45 A 4,4 0 0 0 4,49 4,4 0 0 0 4.0351562,49.505859 4,4 0 0 1 8,46 a 4,4 0 0 1 4,4 h 40 a 4,4 0 0 1 4,-4 4,4 0 0 1 3.964844,3.496094 A 4,4 0 0 0 60,49 4,4 0 0 0 56,45 4,4 0 0 0 52,49 H 12 A 4,4 0 0 0 8,45 Z M 4.8847656,52.5 A 4,4 0 0 0 4,55 4,4 0 0 0 4.0351562,55.503906 4,4 0 0 1 5.359375,53 4,4 0 0 1 4.8847656,52.5 Z m 54.2304684,0 A 4,4 0 0 1 58.640625,53 4,4 0 0 1 59.964844,55.494141 4,4 0 0 0 60,55 4,4 0 0 0 59.115234,52.5 Z"
       style="opacity:0.2;fill:#ffffff"
       id="path11" />
    <path
       d="m 18,31 v 1 h 28 v -1 z"
       style="opacity:0.2;fill:#ffffff"
       id="path12" />
  </g>
</svg>
