<?xml version="1.0" encoding="UTF-8" standalone="no"?>
<svg
   width="62"
   height="62"
   version="1.1"
   id="svg29"
   sodipodi:docname="cave-story.svg"
   inkscape:version="1.4.2 (unknown)"
   xmlns:inkscape="http://www.inkscape.org/namespaces/inkscape"
   xmlns:sodipodi="http://sodipodi.sourceforge.net/DTD/sodipodi-0.dtd"
   xmlns:xlink="http://www.w3.org/1999/xlink"
   xmlns="http://www.w3.org/2000/svg"
   xmlns:svg="http://www.w3.org/2000/svg">
  <defs
     id="defs29">
    <linearGradient
       id="linearGradient1"
       inkscape:collect="always">
      <stop
         style="stop-color:#2ad4ff;stop-opacity:1"
         offset="0"
         id="stop4" />
      <stop
         style="stop-color:#aa87de;stop-opacity:1"
         offset="0.56334472"
         id="stop6" />
      <stop
         style="stop-color:#ffdd55;stop-opacity:1"
         offset="1"
         id="stop5" />
    </linearGradient>
    <linearGradient
       id="linearGradient29"
       inkscape:collect="always">
      <stop
         style="stop-color:#2d3d53;stop-opacity:1;"
         offset="0"
         id="stop29" />
      <stop
         style="stop-color:#354864;stop-opacity:1;"
         offset="1"
         id="stop30" />
    </linearGradient>
    <linearGradient
       inkscape:collect="always"
       xlink:href="#linearGradient29"
       id="linearGradient30"
       x1="30.782633"
       y1="60"
       x2="30.193521"
       y2="5"
       gradientUnits="userSpaceOnUse"
       gradientTransform="matrix(0.98214286,0,0,0.98245614,-0.42857152,-0.92982455)" />
    <linearGradient
       id="linear0"
       x1="12.425443"
       x2="12.425443"
       y1="1.5618436"
       y2="55.112241"
       gradientTransform="scale(0.87490596,1.14298)"
       gradientUnits="userSpaceOnUse">
      <stop
         offset="0%"
         style="stop-color:#ffd000; stop-opacity:1"
         id="stop1" />
      <stop
         offset="50%"
         style="stop-color:#24dbdb; stop-opacity:1"
         id="stop2" />
      <stop
         offset="100%"
         style="stop-color:#0073ff; stop-opacity:1"
         id="stop3" />
    </linearGradient>
    <linearGradient
       inkscape:collect="always"
       xlink:href="#linearGradient1"
       id="linearGradient5"
       x1="33.307148"
       y1="63.03196"
       x2="33.307148"
       y2="1.785156"
       gradientUnits="userSpaceOnUse" />
  </defs>
  <sodipodi:namedview
     id="namedview29"
     pagecolor="#ffffff"
     bordercolor="#000000"
     borderopacity="0.25"
     inkscape:showpageshadow="2"
     inkscape:pageopacity="0.0"
     inkscape:pagecheckerboard="0"
     inkscape:deskcolor="#d1d1d1"
     inkscape:zoom="7.0710678"
     inkscape:cx="26.799347"
     inkscape:cy="44.618438"
     inkscape:window-width="1920"
     inkscape:window-height="998"
     inkscape:window-x="0"
     inkscape:window-y="0"
     inkscape:window-maximized="1"
     inkscape:current-layer="svg29" />
  <rect
     style="opacity:0.2;stroke-width:0.9823"
     width="55"
     height="55.017544"
     x="3.5"
     y="3.9824562"
     ry="13.754386"
     id="rect1" />
  <rect
     style="fill:url(#linearGradient30);stroke-width:0.9823"
     width="55"
     height="55.017544"
     x="3.5"
     y="3"
     ry="13.754386"
     id="rect2" />
  <path
     style="opacity:0.1;fill:#ffffff;stroke-width:0.9823"
     d="M 17.25,3 C 9.6324999,3 3.4999999,9.1344561 3.4999999,16.754386 v 0.982456 c 0,-7.61993 6.1325,-13.7543858 13.7500001,-13.7543858 h 27.5 c 7.6175,0 13.75,6.1344558 13.75,13.7543858 V 16.754386 C 58.5,9.1344561 52.3675,3 44.75,3 Z"
     id="path28" />
  <g
     id="surface1"
     transform="matrix(0.88275863,0,0,0.88225157,1.5978271,2.4074995)">
    <path
       d="m 19.65625,1.785156 c -4.701961,0.3094994 -6.438667,0.6524762 -8.785156,1.7642857 l -4.3e-4,57.6751593 c 3.204949,1.333037 3.211797,1.632558 8.785586,1.767587 V 34.332031 c 1.832031,-0.925781 2.929688,-2.667969 2.929688,-5.535156 V 25.25 c 0,-0.863281 -1.089844,-2.253906 -2.929688,-3.203125 z m 26.351562,1.207032 v 59.984748 c 4.182038,0.02548 4.863446,-0.03089 8.785157,-0.969112 V 34.351562 c 1.832031,-0.929687 2.929687,-2.671874 2.929687,-5.535156 v -3.546875 c 0,-0.867187 -1.089844,-2.257812 -2.929687,-3.207031 V 2.8047561 C 52.02056,1.920397 50.584234,1.8436977 46.008242,1.7846389 Z M 22.585938,43.714844 c 0,5.671875 5.125,9.929687 10.246093,9.929687 5.125,0 10.25,-4.257812 10.25,-9.929687 z"
       id="path3"
       sodipodi:nodetypes="cccccssccccccsscccccscc"
       style="fill:url(#linearGradient5)" />
    <path
       style="fill:#dcdcdc;fill-opacity:1;fill-rule:nonzero;stroke:none"
       d="m 14.964844,21.15625 c -6.589844,0 -8.246094,3.304688 -8.785156,4.257812 l 1.460937,1.417969 c 1.464844,-2.128906 2.929687,-2.835937 7.324219,-2.835937 4.390625,0 5.855468,1.417968 7.316406,4.960937 v -3.542969 c 0,-1.417968 -2.925781,-4.257812 -7.316406,-4.257812 z m 35.136718,0 c -6.589843,0 -8.246093,3.304688 -8.785156,4.257812 l 1.460938,1.417969 c 1.464844,-2.128906 2.929687,-2.835937 7.324218,-2.835937 4.390626,0 5.851563,1.417968 7.316407,4.960937 v -3.542969 c 0,-1.417968 -2.925781,-4.257812 -7.316407,-4.257812 z m -33.675781,4.257812 c -0.417969,0 -0.800781,0.515626 -1.066406,1.328126 0.144531,-0.07031 0.300781,-0.15625 0.480469,-0.15625 0.515625,0 0.902344,0.335937 0.902344,0.722656 0,0.390625 -0.386719,0.691406 -0.902344,0.691406 -0.3125,0 -0.578125,-0.105469 -0.746094,-0.285156 -0.109375,0.589844 -0.15625,1.21875 -0.15625,1.941406 0,2.359375 0.675781,4.273438 1.492188,4.273438 0.816406,0 1.441406,-1.914063 1.441406,-4.273438 0,-2.351562 -0.625,-4.238281 -1.441406,-4.238281 z m 35.136719,0 c -0.421875,0 -0.800781,0.515626 -1.066406,1.328126 0.144531,-0.07031 0.296875,-0.15625 0.480468,-0.15625 0.511719,0 0.902344,0.335937 0.902344,0.722656 0,0.390625 -0.390625,0.691406 -0.902344,0.691406 -0.316406,0 -0.582031,-0.105469 -0.75,-0.285156 -0.105468,0.589844 -0.152343,1.21875 -0.152343,1.941406 0,2.359375 0.671875,4.273438 1.492187,4.273438 0.816406,0 1.441406,-1.914063 1.441406,-4.273438 0,-2.351562 -0.625,-4.238281 -1.441406,-4.238281 z m -35.425781,3.671876 c 0.277343,0 0.53125,0.160156 0.53125,0.363281 0,0.207031 -0.257813,0.398437 -0.53125,0.398437 -0.28125,0 -0.480469,-0.195312 -0.480469,-0.398437 0,-0.207031 0.203125,-0.363281 0.480469,-0.363281 z m 35.132812,0 c 0.28125,0 0.53125,0.160156 0.53125,0.363281 0,0.207031 -0.253906,0.398437 -0.53125,0.398437 -0.277343,0 -0.480469,-0.195312 -0.480469,-0.398437 0,-0.207031 0.207032,-0.363281 0.480469,-0.363281 z m -34.109375,1.167968 c 0.21875,0 0.367188,0.125 0.367188,0.285156 0,0.164063 -0.148438,0.328126 -0.367188,0.328126 -0.214844,0 -0.429687,-0.164063 -0.429687,-0.328126 0,-0.164062 0.214843,-0.285156 0.429687,-0.285156 z m 35.136719,0 c 0.21875,0 0.367187,0.125 0.367187,0.285156 0,0.164063 -0.148437,0.328126 -0.367187,0.328126 -0.214844,0 -0.429687,-0.164063 -0.429687,-0.328126 0,-0.164062 0.214843,-0.285156 0.429687,-0.285156 z M 22.28125,43.863281 c 0,5.675781 5.125,9.929688 10.25,9.929688 5.121094,0 10.246094,-4.253907 10.246094,-9.929688 z m 0,0"
       id="path4" />
  </g>
</svg>
