<?xml version="1.0" encoding="UTF-8" standalone="no"?>
<svg
   width="62"
   height="62"
   version="1"
   id="svg11"
   sodipodi:docname="cc3d.svg"
   inkscape:version="1.4.2 (unknown)"
   xmlns:inkscape="http://www.inkscape.org/namespaces/inkscape"
   xmlns:sodipodi="http://sodipodi.sourceforge.net/DTD/sodipodi-0.dtd"
   xmlns="http://www.w3.org/2000/svg"
   xmlns:svg="http://www.w3.org/2000/svg">
  <defs
     id="defs11" />
  <sodipodi:namedview
     id="namedview11"
     pagecolor="#ffffff"
     bordercolor="#000000"
     borderopacity="0.25"
     inkscape:showpageshadow="2"
     inkscape:pageopacity="0.0"
     inkscape:pagecheckerboard="0"
     inkscape:deskcolor="#d1d1d1"
     inkscape:zoom="11.890625"
     inkscape:cx="31.95795"
     inkscape:cy="32.420499"
     inkscape:current-layer="svg11" />
  <g
     id="g11"
     transform="translate(-0.5,-1)">
    <ellipse
       style="opacity:0.2;stroke-width:0.999971"
       cx="31.499996"
       cy="32.491234"
       id="circle1"
       rx="27.499996"
       ry="27.508766" />
    <ellipse
       style="fill:#00a2ca;stroke-width:0.999971;fill-opacity:1"
       cx="31.499996"
       cy="31.508766"
       id="circle2"
       rx="27.499996"
       ry="27.508766" />
    <path
       style="fill:#00d455;stroke-width:0.999971"
       d="m 28.902625,4.147722 a 27.499999,27.508769 0 0 0 -9.952252,2.8878708 c 0.138875,0.4402778 -0.02339,0.9369484 -0.529372,1.3754384 -0.342377,0.2968196 -0.622876,0.7591045 -0.622876,1.0289655 0,0.8248533 0.745248,2.0913533 1.340626,2.2753863 0.790623,0.244827 0.525249,1.088797 -0.492252,1.555074 -0.47025,0.215943 -1.049125,0.837642 -1.285623,1.380941 -0.237877,0.544672 -0.587128,1.081092 -0.776878,1.192502 -0.188372,0.112789 -0.343751,0.537799 -0.343751,0.9463 0,0.57081 0.261255,0.84727 1.117877,1.189759 0.61325,0.246201 1.347499,0.42501 1.632125,0.3975 1.637627,-0.154049 1.751751,0.800503 0.320377,2.6656 -0.760376,0.990314 -1.126128,1.23927 -1.644503,1.114103 -0.482624,-0.115534 -0.746623,0.0206 -0.966623,0.499287 -0.230998,0.507534 -0.6105,0.679464 -1.629374,0.749611 -1.002377,0.07015 -1.450624,0.273713 -1.826004,0.822513 -0.274996,0.400255 -0.670996,0.724856 -0.88137,0.724856 -0.210929,0 -0.706204,0.269588 -1.1011,0.59694 -0.803552,0.66709 -1.11733,0.734485 -1.3990648,0.29847 -0.3723499,-0.577682 -1.1757625,-0.28609 -2.3713248,0.85965 -1.0573748,1.012322 -1.1853875,1.283284 -1.0258876,2.16219 0.2838002,1.563873 1.1317626,2.95169 2.1000374,3.435844 0.8449376,0.42226 0.8614375,0.46765 0.3491127,1.009574 -0.2946625,0.312223 -0.80025,0.646454 -1.12255,0.744111 -0.930875,0.283341 -0.4068627,0.638203 1.2541374,0.850021 1.7000467,0.215944 2.2283277,0.83214 1.4341217,1.672532 -0.442881,0.469026 -0.417997,0.557053 0.292739,1.002696 1.388754,0.872027 2.493152,0.338357 1.18965,-0.574934 -0.837785,-0.587312 -0.251901,-0.826639 0.977626,-0.400253 0.980377,0.339734 1.174252,0.320478 1.753125,-0.182932 1.189376,-1.030204 2.481874,0.493782 1.394251,1.643649 -0.691626,0.733108 -0.482626,1.61614 0.413877,1.738554 0.395996,0.0536 1.218248,0.422259 1.828748,0.81976 0.610498,0.396127 1.276001,0.722106 1.476749,0.722106 0.20075,0 0.767252,0.403004 1.259499,0.895411 0.998251,0.997193 1.552375,1.123733 1.834253,0.420883 0.338248,-0.844519 0.202125,-1.280532 -0.709502,-2.274974 -0.724625,-0.792253 -1.903001,-2.896674 -1.903001,-3.401459 0,-0.31085 1.197626,-0.0468 1.868627,0.411255 0.419374,0.287467 1.098624,0.657459 1.509751,0.825264 0.43725,0.178806 0.890998,0.734483 1.098623,1.342427 0.323125,0.954555 0.451002,1.03708 1.595,1.03708 h 1.243002 l 0.188373,2.235088 c 0.2255,2.688981 0.441377,3.233657 1.364002,3.455101 0.679248,0.163678 1.403873,1.215889 1.403873,2.0384 0,0.218696 -0.488124,0.755117 -1.084874,1.19113 -0.739751,0.540548 -1.058751,0.999945 -1.009249,1.449712 0.06188,0.562556 -0.06598,0.650584 -0.862125,0.591438 -0.512876,-0.0385 -1.403877,0.14167 -1.975877,0.400255 -0.677875,0.305345 -1.412123,0.403003 -2.101,0.279213 -0.792,-0.14167 -1.060124,-0.08666 -1.060124,0.222821 0,0.228321 -0.277751,0.654709 -0.616002,0.949051 -0.835997,0.724858 -0.490874,1.108605 0.793376,0.87753 0.7975,-0.143044 1.10825,-0.0798 1.245752,0.264086 0.292875,0.730358 -0.449627,1.775691 -1.138502,1.603761 -0.43725,-0.110037 -0.646249,0.0399 -0.782374,0.555677 -0.04678,0.182933 -0.133377,0.338356 -0.236501,0.4704 a 27.499999,27.508769 0 0 0 4.351876,1.286035 c -0.137501,-0.262709 -0.294251,-0.502035 -0.446876,-0.60932 -0.708124,-0.500659 -0.233749,-1.801824 0.741125,-2.035649 0.994125,-0.239325 0.837375,-0.884406 -0.243374,-1.008195 -0.947376,-0.107285 -1.955251,-1.06734 -1.638999,-1.558374 0.213124,-0.32873 1.119248,-0.280588 2.952123,0.154049 0.827751,0.195314 1.392875,-0.198061 3.311001,-2.296981 1.109625,-1.215889 1.963499,-1.722049 2.899874,-1.722049 0.357499,0 1.632125,-0.32873 2.833876,-0.730359 2.268749,-0.760615 3.155624,-0.733107 3.07175,0.0963 -0.173251,1.724798 0.936374,1.667031 2.744499,-0.140296 0.7535,-0.752364 1.442376,-1.297039 1.53175,-1.21176 0.345124,0.33148 -0.276375,1.94487 -1.002375,2.598202 -0.919875,0.828015 -0.96525,1.35068 -0.155374,1.764688 0.442748,0.228322 0.631124,0.689093 0.701248,1.7248 l 0.09347,1.413951 h 1.149502 c 0.402873,0 0.737,0.055 1.0065,0.158175 a 27.499999,27.508769 0 0 0 13.323769,-22.703 c -0.420748,-0.899537 -0.390498,-1.442835 0,-2.054905 a 27.499999,27.508769 0 0 0 -0.123745,-1.541867 c -0.25025,-0.0124 -0.506001,-0.0234 -0.800251,-0.011 -1.386001,0.0578 -2.572624,-0.488281 -2.572624,-1.184253 0,-0.147172 -0.492251,-0.75374 -1.093126,-1.346552 -0.681999,-0.671216 -1.03125,-1.265406 -0.929499,-1.573502 0.09347,-0.280589 -0.107251,-0.733108 -0.462001,-1.039833 -0.345125,-0.299845 -0.628375,-0.781248 -0.628375,-1.070092 0,-0.460772 -0.292874,-0.51854 -2.41175,-0.467649 l -2.411749,0.05913 0.04129,2.378131 c 0.07148,4.164829 0.691627,5.245923 2.604251,4.548577 0.875876,-0.320478 3.02775,-0.0784 3.639625,0.40713 0.221374,0.176055 0.54175,0.81426 0.710875,1.419452 0.170498,0.603818 0.800248,1.650525 1.4025,2.323115 1.218249,1.364435 1.313125,1.89673 0.614626,3.49774 -0.609126,1.397446 -1.266376,1.236519 -1.135751,-0.279214 l 0.09627,-1.12786 -1.03125,0.192561 c -0.570624,0.10866 -1.285625,0.529546 -1.606002,0.946302 -0.456498,0.592815 -0.669623,0.679467 -1.011999,0.408506 -0.239249,-0.18981 -0.433123,-0.590062 -0.433123,-0.887158 0,-0.297094 -0.294251,-0.6272 -0.651752,-0.73586 -0.358874,-0.10866 -0.849749,-0.649207 -1.090374,-1.203508 -0.386375,-0.885783 -0.37675,-1.156744 0.07288,-2.232336 0.455125,-1.090724 0.459249,-1.270907 0.03989,-1.673909 -0.384998,-0.368619 -0.584373,-0.380998 -1.090373,-0.077 -0.508749,0.303972 -0.749374,0.281967 -1.354375,-0.123789 -0.402875,-0.270961 -1.10825,-0.495156 -1.564749,-0.495156 -0.928126,0 -1.208625,-0.451146 -1.208625,-1.94487 0,-1.379567 -0.822251,-1.880227 -2.78025,-1.700044 -1.3585,0.125166 -1.65825,0.0358 -2.754125,-0.808756 -0.677876,-0.521293 -1.747625,-1.775693 -2.380126,-2.790767 -0.632499,-1.015071 -1.313124,-2.075536 -1.512499,-2.356126 -0.286,-0.405754 -0.215874,-0.795004 0.343749,-1.89948 l 0.70675,-1.389194 -1.493249,0.20219 c -2.6565,0.35899 -3.194126,0.70285 -2.051501,1.316297 0.445501,0.237951 0.464751,0.360363 0.121001,0.757863 -0.2255,0.258584 -0.331375,0.66984 -0.23375,0.913292 0.09763,0.242078 -0.02609,0.81426 -0.273625,1.26953 -0.248875,0.456647 -0.456501,1.096227 -0.464749,1.424957 -0.02609,1.0247 -1.780628,1.840334 -3.735876,1.731675 -2.961748,-0.163675 -3.202374,-0.116913 -4.254251,0.859649 -1.314497,1.221389 -1.483622,1.789446 -0.871747,2.922806 0.592622,1.100352 1.645874,1.539118 3.469123,1.448339 1.63075,-0.08113 1.815001,0.0633 1.442374,1.141612 -0.317623,0.916043 -1.381873,1.268154 -2.10375,0.695972 -0.5555,-0.441514 -2.470874,-0.100405 -3.057997,0.54605 -0.246127,0.269586 -0.611875,0.979312 -0.811252,1.573501 -0.343749,1.026077 -0.444127,1.089347 -1.984126,1.237895 -1.53725,0.149922 -1.685749,0.100406 -2.79125,-0.918794 -1.233376,-1.136111 -1.442372,-2.005387 -0.848375,-3.501865 0.264002,-0.662961 0.459249,-0.77162 1.163253,-0.64233 1.394247,0.254455 1.94425,-0.229699 1.94425,-1.719299 0,-0.722103 -0.140254,-1.397443 -0.312129,-1.499228 -0.170496,-0.101782 -0.310751,-0.484153 -0.310751,-0.851394 0,-0.367244 -0.175995,-0.840395 -0.389123,-1.048086 -0.312123,-0.302595 -0.266747,-0.464898 0.231003,-0.817011 0.341,-0.240701 0.901997,-0.403002 1.245748,-0.361741 0.342375,0.0413 1.289751,-0.107281 2.105124,-0.328729 1.178374,-0.317724 1.524875,-0.558428 1.684375,-1.178751 0.302501,-1.177373 1.040876,-2.1223 1.659627,-2.1223 0.977624,0 0.998247,-2.299731 0.04809,-5.6448 -0.140252,-0.49379 -0.526628,-0.80739 -1.208625,-0.97657 -0.552753,-0.137546 -1.153627,-0.514416 -1.335125,-0.838741 -0.180127,-0.324329 -0.511502,-0.588418 -0.735625,-0.588418 -0.224127,0 -0.66275,-0.268481 -0.972129,-0.596391 -0.312121,-0.3301 -0.956996,-0.59639 -1.447874,-0.59639 -1.161873,0 -1.181124,-0.8002266 -0.02889,-1.222211 1.216876,-0.4461923 3.111627,0.1386441 3.569501,1.101311 0.620124,1.30543 1.309001,0.76076 1.530375,-1.2114838 C 24.96326,6.576206 25.80476,5.875145 28.457135,5.875145 h 1.907121 L 29.528251,5.039692 C 29.268376,4.7789089 29.052501,4.4602199 28.902627,4.14772 Z m 9.886249,0.8650131 c -0.05359,0.048418 -0.105875,0.08803 -0.158125,0.1423579 -0.638,0.6514079 -0.93775,0.7442499 -1.923626,0.5937769 -1.721498,-0.2625711 -1.500124,0.4307874 0.405627,1.2680169 1.029874,0.4526568 1.692624,0.9687212 1.918125,1.4908376 1.086249,2.5192556 1.834249,3.8755756 2.209626,4.0131156 0.758999,0.279217 1.211373,-0.28114 1.380499,-1.71352 0.193873,-1.6433738 0.749374,-1.9917724 1.747625,-1.0933359 0.387749,0.3486759 0.929498,0.6339359 1.203124,0.6339359 0.853874,0 1.485001,0.3429 1.485001,0.80601 0,0.244 0.288749,0.832 0.642125,1.30777 0.521124,0.700098 0.874499,0.8679 1.848,0.8679 1.194873,0 1.927748,0.224198 3.42375,1.050833 0.02339,0.0124 0.04678,0.0165 0.07012,0.0289 A 27.499999,27.508769 0 0 0 38.788874,5.0127351 Z M 4.0055002,31.390894 a 27.499999,27.508769 0 0 0 -0.00536,0.118288 27.499999,27.508769 0 0 0 0.5370753,5.284435 C 5.533541,37.199371 5.8088158,37.038444 5.9122159,36.111399 5.9657028,35.631371 6.2162286,35.088073 6.4708784,34.899638 6.8642627,34.60942 6.7933127,34.460873 5.9874254,33.910698 5.4657498,33.554459 4.9516375,32.93276 4.8460372,32.529758 4.7437376,32.139133 4.3977873,31.712748 4.0055002,31.390894 Z m 8.6557608,9.093024 c -0.257121,-0.0261 -0.566912,0.111411 -0.910663,0.441516 -0.727238,0.695973 -0.617373,2.094793 0.206804,2.647718 0.944488,0.634079 1.308863,0.449769 1.428485,-0.719353 0.147123,-1.441459 -0.160876,-2.310738 -0.724626,-2.369881 z m 4.666749,4.159325 c -0.2805,0.0098 -0.589872,0.210444 -0.899246,0.634078 -0.328625,0.448392 -0.418004,1.027452 -0.292875,1.906358 0.155371,1.081094 0.08797,1.312169 -0.477127,1.602384 -0.727377,0.37137 -0.882749,1.477222 -0.287376,2.046655 0.591249,0.56668 1.154999,0.418133 1.358503,-0.357615 0.288749,-1.105852 1.907123,-1.235143 3.012622,-0.242076 0.471627,0.423634 0.856625,0.638203 0.856625,0.475901 0,-0.162301 -0.490873,-0.752366 -1.090373,-1.308041 -0.917126,-0.852774 -1.087624,-1.215888 -1.087624,-2.313488 0,-1.548746 -0.474377,-2.46341 -1.093129,-2.444156 z M 9.6638998,48.194627 A 27.499999,27.508769 0 0 0 10.30039,48.997882 C 10.112972,48.707663 9.8990248,48.429827 9.6638998,48.194627 Z m 9.2673612,4.222595 c -0.138874,0.0481 -0.198,0.222821 -0.198,0.529544 0,0.310848 -0.197997,0.636827 -0.439999,0.724856 -0.321749,0.118288 -0.396001,0.491031 -0.272251,1.38094 0.02339,0.166429 0.03029,0.299846 0.03849,0.438766 a 27.499999,27.508769 0 0 0 1.143997,0.587312 c -0.01927,-0.475902 0.06738,-1.035707 0.31625,-1.737179 0.422125,-1.191129 0.43725,-1.4896 0.09347,-1.698668 -0.321744,-0.195311 -0.541743,-0.273711 -0.681996,-0.225571 z"
       id="path2" />
    <path
       style="opacity:0.2;fill:none;stroke:#000000;stroke-width:4;stroke-linecap:round;stroke-linejoin:bevel"
       d="m 27.571429,27.185029 c 0,0 0.175116,1.375686 -3.928573,1.375686 -4.103702,0 -3.92733,-3.754635 -3.92733,-7.859648 0,-4.105008 -0.176354,-7.859646 3.92733,-7.859646 4.103705,0 3.928573,1.572097 3.928573,1.572097"
       id="path3" />
    <path
       style="fill:none;stroke:#ffffff;stroke-width:4;stroke-linecap:round;stroke-linejoin:bevel"
       d="m 27.571429,26.203259 c 0,0 0.175116,1.375687 -3.928573,1.375687 -4.103702,0 -3.92733,-3.754636 -3.92733,-7.859647 0,-4.105012 -0.176354,-7.859649 3.92733,-7.859649 4.103705,0 3.928573,1.572099 3.928573,1.572099"
       id="path4" />
    <path
       style="opacity:0.2;fill:none;stroke:#000000;stroke-width:4;stroke-linecap:round;stroke-linejoin:bevel"
       d="m 35.457858,52.146242 c 0,0 7.917688,0.941932 7.827855,-7.986977 -0.08985,-8.92894 -7.827855,-7.732323 -7.827855,-7.732323 m -0.0291,15.706139 V 36.413786"
       id="path5" />
    <path
       style="fill:none;stroke:#ffffff;stroke-width:4;stroke-linecap:round;stroke-linejoin:bevel"
       d="m 35.457858,51.164471 c 0,0 7.917688,0.941931 7.827855,-7.986976 -0.08985,-8.928941 -7.827855,-7.732322 -7.827855,-7.732322 m -0.0291,15.706138 V 35.432015"
       id="path6" />
    <path
       style="opacity:0.2;fill:none;stroke:#000000;stroke-width:4;stroke-linecap:round;stroke-linejoin:round"
       d="m 19.841877,36.51833 h 4.39031 c 0,0 3.466877,-0.288396 3.466877,3.439156 v 4.223041 h -4.517768 4.517768 v 4.422571 c 0,3.638064 -3.466877,3.438039 -3.466877,3.438039 h -4.39031"
       id="path7" />
    <path
       style="fill:none;stroke:#f8f8f8;stroke-width:4;stroke-linecap:round;stroke-linejoin:round"
       d="m 19.841877,35.53656 h 4.39031 c 0,0 3.466877,-0.288396 3.466877,3.439154 v 4.223043 h -4.517768 4.517768 v 4.42257 c 0,3.638066 -3.466877,3.43804 -3.466877,3.43804 h -4.39031"
       id="path8" />
    <path
       style="opacity:0.2;fill:none;stroke:#000000;stroke-width:4;stroke-linecap:round;stroke-linejoin:bevel"
       d="m 43.28545,27.185029 c 0,0 0.175117,1.375686 -3.928572,1.375686 -4.103702,0 -3.927328,-3.754635 -3.927328,-7.859648 0,-4.105008 -0.176354,-7.859646 3.927328,-7.859646 4.103705,0 3.928572,1.572097 3.928572,1.572097"
       id="path9" />
    <path
       style="fill:none;stroke:#ffffff;stroke-width:4;stroke-linecap:round;stroke-linejoin:bevel"
       d="m 43.28545,26.203259 c 0,0 0.175117,1.375687 -3.928572,1.375687 -4.103702,0 -3.927328,-3.754636 -3.927328,-7.859647 0,-4.105012 -0.176354,-7.859649 3.927328,-7.859649 4.103705,0 3.928572,1.572099 3.928572,1.572099"
       id="path10" />
    <path
       style="opacity:0.2;fill:#ffffff;stroke-width:0.999971"
       d="M 31.499999,4 A 27.499999,27.508769 0 0 0 4,31.508769 27.499999,27.508769 0 0 0 4.0172642,31.992322 27.499999,27.508769 0 0 1 31.499999,4.982456 27.499999,27.508769 0 0 1 58.97506,31.992322 27.499999,27.508769 0 0 0 59,31.508769 27.499999,27.508769 0 0 0 31.499999,4 Z"
       id="path11" />
  </g>
</svg>
