<?xml version="1.0" encoding="UTF-8" standalone="no"?>
<svg
   width="62"
   height="62"
   version="1.1"
   id="svg5"
   sodipodi:docname="cdbaby.svg"
   inkscape:version="1.4.2 (unknown)"
   xmlns:inkscape="http://www.inkscape.org/namespaces/inkscape"
   xmlns:sodipodi="http://sodipodi.sourceforge.net/DTD/sodipodi-0.dtd"
   xmlns="http://www.w3.org/2000/svg"
   xmlns:svg="http://www.w3.org/2000/svg">
  <defs
     id="defs5" />
  <sodipodi:namedview
     id="namedview5"
     pagecolor="#ffffff"
     bordercolor="#000000"
     borderopacity="0.25"
     inkscape:showpageshadow="2"
     inkscape:pageopacity="0.0"
     inkscape:pagecheckerboard="0"
     inkscape:deskcolor="#d1d1d1"
     inkscape:zoom="11.6875"
     inkscape:cx="32"
     inkscape:cy="32.983957"
     inkscape:window-width="1920"
     inkscape:window-height="998"
     inkscape:window-x="0"
     inkscape:window-y="0"
     inkscape:window-maximized="1"
     inkscape:current-layer="svg5" />
  <rect
     style="opacity:0.2;stroke-width:0.9823"
     width="55"
     height="55.017544"
     x="3.5"
     y="3.9824562"
     rx="8.25"
     ry="8.2526312"
     id="rect1" />
  <rect
     style="fill:#364763;stroke-width:0.9823;fill-opacity:1"
     width="55"
     height="55.017544"
     x="3.5"
     y="3"
     rx="8.25"
     ry="8.2526312"
     id="rect2" />
  <path
     style="opacity:0.1;fill:#ffffff;stroke-width:0.9823"
     d="M 11.748466,3 C 7.1779651,3 3.4999999,6.6791384 3.4999999,11.251097 v 0.982456 c 0,-4.5719585 3.6779652,-8.2510968 8.2484661,-8.2510968 h 38.503068 c 4.5705,0 8.248466,3.6791383 8.248466,8.2510968 V 11.251097 C 58.5,6.6791384 54.822034,3 50.251534,3 Z"
     id="path4" />
  <g
     id="g1"
     transform="translate(-0.999714,-1.607676)">
    <path
       style="opacity:0.2"
       d="M 12,7.6167765 V 33.616405 L 22.999843,27.116498 33.999686,20.616591 22.999843,14.116684 Z M 35.999657,21.616576 V 41.61629 l 7.999886,-4.999928 7.999885,-4.999929 -7.999885,-4.999928 z M 17.999915,33.616405 v 23.999657 l 9.999857,-5.999915 9.999857,-5.999914 -9.999857,-5.999914 z"
       id="path2" />
    <path
       style="fill:#8d5fd3"
       d="M 12,6.6168337 V 32.616462 L 22.999843,26.116555 33.999686,19.616648 22.999843,13.116741 Z M 35.999657,20.616634 v 19.999714 l 7.999886,-4.999929 7.999885,-4.999928 -7.999885,-4.999929 z M 17.999915,32.616462 v 23.999657 l 9.999857,-5.999914 9.999857,-5.999914 -9.999857,-5.999914 z"
       id="path3" />
  </g>
</svg>
