<?xml version="1.0" encoding="UTF-8" standalone="no"?>
<svg
   width="62"
   height="62"
   version="1"
   id="svg8"
   sodipodi:docname="checkra1n.svg"
   inkscape:version="1.4.2 (unknown)"
   xmlns:inkscape="http://www.inkscape.org/namespaces/inkscape"
   xmlns:sodipodi="http://sodipodi.sourceforge.net/DTD/sodipodi-0.dtd"
   xmlns="http://www.w3.org/2000/svg"
   xmlns:svg="http://www.w3.org/2000/svg">
  <defs
     id="defs8" />
  <sodipodi:namedview
     id="namedview8"
     pagecolor="#ffffff"
     bordercolor="#000000"
     borderopacity="0.25"
     inkscape:showpageshadow="2"
     inkscape:pageopacity="0.0"
     inkscape:pagecheckerboard="0"
     inkscape:deskcolor="#d1d1d1"
     inkscape:zoom="8.4079416"
     inkscape:cx="16.175184"
     inkscape:cy="36.453631"
     inkscape:current-layer="svg8" />
  <path
     style="opacity:0.2;stroke-width:1"
     d="m 41.626112,3.8152704 c 0,0 -4.967523,0.022333 -8.539384,4.7596032 -3.176325,4.2125434 -2.366595,7.8163684 -2.366595,7.8163684 0,0 4.306654,0.748915 8.095524,-3.832334 3.548463,-4.2904976 2.810455,-8.7436376 2.810455,-8.7436376 z m 0.05106,13.5923646 c -4.707697,0 -8.324847,2.554257 -10.273578,2.554257 -2.270078,0 -5.659563,-2.40066 -10.026116,-2.40066 -6.716851,0 -13.8774796,5.733892 -13.8774796,16.6643 0,11.109753 8.4612246,24.930249 15.1579956,24.930081 2.337606,0 5.926234,-2.783705 9.542977,-2.783705 3.549027,1e-6 6.166798,2.702166 9.535121,2.702166 7.333691,0 12.763904,-14.568937 12.763904,-14.568937 0,0 -7.783251,-2.866838 -7.783251,-11.186015 0,-7.374562 6.251347,-10.41424 6.251347,-10.41424 0,0 -3.187434,-5.497247 -11.29092,-5.497247 z"
     id="path1" />
  <path
     style="fill:#dadada;fill-opacity:1;stroke-width:1"
     d="m 33.087541,7.6047406 c 3.571859,-4.7372701 8.537597,-4.7603533 8.537597,-4.7603533 0,0 0.738646,4.4538172 -2.809816,8.7443147 -3.788871,4.581249 -8.095445,3.831588 -8.095445,3.831588 0,0 -0.808662,-3.603006 2.367664,-7.8155494 z"
     id="path2" />
  <path
     style="fill:#d9d9d9;fill-opacity:1;stroke-width:1"
     d="m 31.403109,18.9907 c 1.948732,0 5.565473,-2.553951 10.27317,-2.553951 8.103485,0 11.291386,5.497455 11.291386,5.497455 0,0 -6.250917,3.03927 -6.250917,10.413831 0,8.319178 7.783023,11.186216 7.783023,11.186216 0,0 -5.429471,14.569777 -12.763162,14.569777 -3.368323,0 -5.987024,-2.7025 -9.536051,-2.7025 -3.616743,0 -7.205832,2.783199 -9.543438,2.783199 -6.696771,1.68e-4 -15.157119,-13.820754 -15.157119,-24.930506 0,-10.930408 7.16113,-16.664069 13.877981,-16.664069 4.366554,0 7.75505,2.400548 10.025127,2.400548 z"
     id="path3" />
  <path
     style="opacity:0.1;stroke-width:1"
     d="m 29.622269,23.232934 v 2.91265 h -3.016673 v 2.91265 h 3.016673 v 2.912649 h -1.457274 c -0.821464,0 -1.850172,0.734696 -1.482804,1.456325 l 1.482804,2.91265 c 0.283321,0.556528 0.526071,1.117263 0.997703,1.346342 -0.0041,0.03701 -0.0113,0.07305 -0.01572,0.109982 h -2.541385 v 0.970884 h 2.405875 c -0.461442,2.58339 -1.50248,4.953886 -2.938114,6.966845 -0.16401,0.260234 -0.339464,0.562698 -0.386903,0.673171 -0.08622,0.20096 -0.118548,0.977262 -0.04517,1.065696 0.02116,0.02585 2.496824,0.03852 5.489323,0.02845 2.992498,0.0101 5.468155,-0.0026 5.489323,-0.02845 0.07339,-0.08844 0.04105,-0.864736 -0.04517,-1.065696 -0.04744,-0.110473 -0.222893,-0.412937 -0.386903,-0.673171 -1.435636,-2.012959 -2.476677,-4.383455 -2.938118,-6.966845 h 2.405875 v -0.970884 h -2.54139 c -0.0044,-0.03693 -0.01154,-0.07297 -0.01572,-0.109982 0.471632,-0.229079 0.714383,-0.789814 0.997703,-1.346342 l 1.482804,-2.91265 c 0.367373,-0.721629 -0.661335,-1.456325 -1.482799,-1.456325 h -1.457274 v -2.912649 h 3.016673 v -2.91265 h -3.016673 v -2.91265 z m -5.615018,24.27208 c -0.789196,0 -1.423886,0.577985 -1.423886,1.295143 v 1.293248 c 0,0.717158 0.63469,1.295142 1.423886,1.295142 h 14.246708 c 0.789196,0 1.423886,-0.577984 1.423886,-1.295142 v -1.293248 c 0,-0.717158 -0.63469,-1.295143 -1.423886,-1.295143 z"
     id="path4" />
  <path
     style="fill:#535d6c;stroke-width:1;fill-opacity:1"
     d="m 29.27266,35.189852 c -0.07832,3.596582 -1.293297,6.90019 -3.200083,9.573771 -0.164011,0.260234 -0.338732,0.562365 -0.386171,0.672838 -0.08622,0.20096 -0.119281,0.97622 -0.0459,1.064653 0.02116,0.02584 2.497603,0.03979 5.490102,0.02972 2.992498,0.0101 5.468932,-0.0039 5.4901,-0.02972 0.07339,-0.08844 0.04031,-0.863693 -0.0459,-1.064653 -0.04744,-0.110473 -0.222168,-0.412604 -0.386179,-0.672838 -1.906785,-2.673581 -3.12177,-5.977189 -3.200083,-9.573771 H 31.1306 Z"
     id="path5" />
  <rect
     style="fill:#535d6c;stroke-width:1"
     width="17.094479"
     height="3.8835328"
     x="22.583364"
     y="46.53413"
     rx="1.4169999"
     ry="1.3329999"
     id="rect5" />
  <path
     style="fill:#535d6c;stroke-width:1;fill-opacity:1"
     d="m 28.16503,31 h 5.93115 c 0.821465,0 1.850157,0.734695 1.482789,1.456325 l -1.482789,2.912649 c -0.367368,0.721628 -0.661322,1.456325 -1.482787,1.456325 h -2.965575 c -0.821464,0 -1.115419,-0.734697 -1.482788,-1.456325 L 26.682241,32.456325 C 26.314873,31.734695 27.343565,31 28.16503,31 Z"
     id="path6" />
  <rect
     style="fill:#535d6c;stroke-width:1;fill-opacity:1"
     width="3.0166728"
     height="8.7379484"
     x="29.622269"
     y="22.262051"
     id="rect6" />
  <rect
     style="fill:#535d6c;stroke-width:1;fill-opacity:1"
     width="2.9126496"
     height="9.0500183"
     x="25.174702"
     y="-35.655613"
     transform="rotate(90)"
     id="rect7" />
  <rect
     style="fill:#535d6c;stroke-width:1;fill-opacity:1"
     width="9.0500183"
     height="0.97088319"
     x="26.605597"
     y="36.825298"
     id="rect8" />
  <path
     style="opacity:0.1;fill:#ffffff;stroke-width:1"
     d="m 41.626112,2.8443872 c 0,0 -4.967523,0.022333 -8.539384,4.7596032 -2.432342,3.2258496 -2.528255,6.0596636 -2.439262,7.2266326 0.0726,-1.442653 0.535776,-3.731285 2.439262,-6.2557494 3.571861,-4.7372701 8.539384,-4.7596032 8.539384,-4.7596032 0,0 0.02834,0.2906223 0.04713,0.6181796 0.05098,-0.978336 -0.04713,-1.5890628 -0.04713,-1.5890628 z m 0.05106,13.5923648 c -4.707697,0 -8.324847,2.554257 -10.273578,2.554257 -2.270078,0 -5.659563,-2.40066 -10.026116,-2.40066 -6.716851,0 -13.8774796,5.733892 -13.8774796,16.6643 0,0.15223 0.018453,0.309481 0.021603,0.462686 C 7.7447302,23.12491 14.767888,17.561232 21.377482,17.561232 c 4.366553,0 7.756038,2.40066 10.026116,2.40066 1.948731,0 5.565881,-2.554257 10.273578,-2.554257 6.359253,0 9.658304,3.35341 10.79796,4.810802 0.282724,-0.17031 0.492959,-0.284438 0.492959,-0.284438 0,0 -3.187434,-5.497247 -11.29092,-5.497247 z m 5.067068,16.37038 c -0.007,0.172049 -0.02749,0.334963 -0.02749,0.51199 0,7.276506 5.954812,10.379719 7.447411,11.043796 0.204281,-0.493635 0.33584,-0.828664 0.33584,-0.828664 0,0 -7.468667,-2.77154 -7.755756,-10.727122 z"
     id="path8" />
</svg>
