<?xml version="1.0" encoding="UTF-8" standalone="no"?>
<svg
   version="1.1"
   viewBox="0 0 62 62"
   id="svg5"
   sodipodi:docname="chkrootkit-logo.svg"
   width="62"
   height="62"
   inkscape:version="1.4.1 (unknown)"
   xmlns:inkscape="http://www.inkscape.org/namespaces/inkscape"
   xmlns:sodipodi="http://sodipodi.sourceforge.net/DTD/sodipodi-0.dtd"
   xmlns="http://www.w3.org/2000/svg"
   xmlns:svg="http://www.w3.org/2000/svg">
  <sodipodi:namedview
     id="namedview5"
     pagecolor="#ffffff"
     bordercolor="#000000"
     borderopacity="0.25"
     inkscape:showpageshadow="2"
     inkscape:pageopacity="0.0"
     inkscape:pagecheckerboard="0"
     inkscape:deskcolor="#d1d1d1"
     inkscape:zoom="4.2426407"
     inkscape:cx="42.308556"
     inkscape:cy="32.526912"
     inkscape:window-width="1920"
     inkscape:window-height="996"
     inkscape:window-x="0"
     inkscape:window-y="0"
     inkscape:window-maximized="1"
     inkscape:current-layer="svg5" />
  <defs
     id="defs2">
    <radialGradient
       id="a"
       cx="145.32001"
       cy="153.84"
       r="225"
       gradientTransform="matrix(2.262,0,0,2.262,-192.55,-189.29)"
       gradientUnits="userSpaceOnUse">
      <stop
         stop-color="#678bc8"
         offset="0"
         id="stop1" />
      <stop
         stop-color="#4c4f5c"
         offset="1"
         id="stop2" />
    </radialGradient>
  </defs>
  <g
     id="g5"
     transform="matrix(0.12444444,0,0,0.12444444,-0.85796144,-0.85777664)">
    <circle
       cx="256"
       cy="256"
       r="225"
       style="fill:url(#a);paint-order:stroke fill markers"
       id="circle2" />
    <path
       d="m 272.93,439 h 61.307 v -72.293 h 20.2 c 66.623,0 110.57,-36.501 110.57,-91.784 0,-51.385 -37.564,-81.861 -100.29,-81.861 h -91.784 z m 86.822,-192.07 c 24.806,0 41.462,13.466 41.462,34.02 0,19.845 -13.821,31.894 -35.792,31.894 H 334.237 V 246.93 Z"
       opacity="0.3"
       id="path2" />
    <g
       transform="matrix(0.95598,0,0,0.95598,369.92,-2.0296)"
       fill="#ffffff"
       aria-label="P"
       id="g3">
      <path
         d="m -101.46,471.8 h 64.13 v -75.622 h 21.13 c 69.691,0 115.66,-38.182 115.66,-96.01 0,-53.751 -39.294,-85.631 -104.91,-85.631 h -96.01 z m 90.82,-200.92 c 25.949,0 43.371,14.086 43.371,35.587 0,20.759 -14.457,33.363 -37.44,33.363 H -37.33 v -68.949 z"
         stroke-width="9.2674"
         id="path3"
         style="fill:#f2f2f2;fill-opacity:1" />
    </g>
    <path
       d="m 256,31 a 225,225 0 0 0 -225,225 225,225 0 0 0 0.20703,5.8535 225,225 0 0 1 224.79,-220.85 225,225 0 0 1 224.79,219.15 225,225 0 0 0 0.20703,-4.1465 225,225 0 0 0 -225,-225 z"
       fill="#ffffff"
       opacity="0.2"
       style="paint-order:stroke fill markers"
       id="path4" />
    <path
       d="M 480.79,250.15 A 225,225 0 0 1 256,471 225,225 0 0 1 31.21,251.85 a 225,225 0 0 0 -0.20703,4.1465 225,225 0 0 0 225,225 225,225 0 0 0 225,-225 225,225 0 0 0 -0.20703,-5.8535 z"
       opacity="0.3"
       style="paint-order:stroke fill markers"
       id="path5" />
  </g>
</svg>
