<?xml version="1.0" encoding="UTF-8" standalone="no"?>
<svg
   width="62"
   height="62"
   version="1.1"
   id="svg5"
   sodipodi:docname="cities-skylines.svg"
   inkscape:version="1.4.2 (unknown)"
   xmlns:inkscape="http://www.inkscape.org/namespaces/inkscape"
   xmlns:sodipodi="http://sodipodi.sourceforge.net/DTD/sodipodi-0.dtd"
   xmlns="http://www.w3.org/2000/svg"
   xmlns:svg="http://www.w3.org/2000/svg">
  <defs
     id="defs5" />
  <sodipodi:namedview
     id="namedview5"
     pagecolor="#ffffff"
     bordercolor="#000000"
     borderopacity="0.25"
     inkscape:showpageshadow="2"
     inkscape:pageopacity="0.0"
     inkscape:pagecheckerboard="0"
     inkscape:deskcolor="#d1d1d1"
     inkscape:zoom="5.9453125"
     inkscape:cx="16.231275"
     inkscape:cy="25.48226"
     inkscape:current-layer="svg5" />
  <g
     id="g5"
     transform="translate(0.1114252,-0.862684)">
    <path
       style="opacity:0.2;stroke-width:0.999984"
       d="M 7.3884854,10.974789 A 5.3859757,5.3617085 0 0 0 2.0030483,16.33596 v 32.167034 a 5.3859757,5.3617085 0 0 0 5.3854371,5.361172 H 23.055214 a 5.3859757,5.3617085 0 0 0 5.385434,-5.361172 V 34.368997 H 17.669775 v 8.772827 H 12.773921 V 21.697131 h 4.895854 v 7.798072 H 28.440648 V 16.33596 a 5.3859757,5.3617085 0 0 0 -5.385434,-5.361171 z m 31.3334536,0 a 5.3859757,5.3617085 0 0 0 -5.385437,5.361171 v 16.570896 a 5.3859757,5.3617085 0 0 0 5.385437,5.361173 h 10.28129 v 4.873795 h -4.895854 v -1.94952 H 33.336502 v 7.31069 a 5.3859757,5.3617085 0 0 0 5.385437,5.361172 h 15.666725 a 5.3859757,5.3617085 0 0 0 5.385438,-5.361172 V 32.906856 a 5.3859757,5.3617085 0 0 0 -5.385438,-5.36117 H 44.107375 v -5.848555 h 4.895854 v 2.924277 H 59.774102 V 16.33596 a 5.3859757,5.3617085 0 0 0 -5.385438,-5.361171 z"
       id="path1" />
    <path
       style="fill:none;stroke:#aa87de;stroke-width:11;stroke-linejoin:round;stroke-opacity:1"
       d="M 23.055214,28.520442 V 15.361202 H 7.3884856 V 47.528234 H 23.055214 V 33.394236"
       id="path2" />
    <path
       style="fill:none;stroke:#aa87de;stroke-width:11;stroke-linejoin:round;stroke-opacity:1"
       d="M 54.388664,23.64665 V 15.361202 H 38.721939 V 31.932098 H 54.388664 V 47.528234 H 38.721939 v -7.310688"
       id="path3" />
    <path
       style="fill:#7d47cc;stroke-width:0.999984;fill-opacity:1"
       d="m 18.648944,35.897766 v 13.092605 h -0.979169 v -0.974755 h -2.090302 l -0.84721,0.28367 v 1.97617 h -0.979171 v -5.227905 h -2.93751 v 2.613954 H 9.880397 l -1.0231559,0.721548 v -5.90186 L 7.4286469,40.744906 5.9197301,42.481193 v 10.202602 a 5.3859757,5.3617085 0 0 0 1.4687553,0.205613 H 23.055214 a 5.3859757,5.3617085 0 0 0 3.427093,-1.227967 v -7.921818 l -0.942835,-0.915739 -1.015504,0.915739 V 41.192304 H 21.586457 V 35.897766 Z M 2.0030483,38.268029 v 9.260205 a 5.3859757,5.3617085 0 0 0 2.9451609,4.778604 l 0.049721,-14.038809 z m 56.2812627,0.500706 -1.447721,1.307928 v 5.014676 h -0.97917 v 7.588646 a 5.3859757,5.3617085 0 0 0 3.916682,-5.151751 v -7.466802 z m -24.947809,2.423569 v 6.33593 a 5.3859757,5.3617085 0 0 0 5.385437,5.361174 h 11.260459 v -2.613952 l -0.956222,-1.092797 -1.002119,-0.215131 v -2.90143 h -2.93751 v 5.848552 h -1.958341 v -1.639194 l -0.596684,-1.285085 h -2.340828 v 0.97476 h -1.958342 v -4.873792 h -1.95834 v -3.899035 z m 18.604236,2.924278 v 8.772826 h 1.958342 v -8.772826 z"
       id="path4" />
    <path
       style="opacity:0.2;fill:#ffffff;stroke-width:0.999984"
       d="M 7.3884854,10.00003 A 5.3859757,5.3617085 0 0 0 2.0030483,15.361202 V 16.33596 A 5.3859757,5.3617085 0 0 1 7.3884854,10.974789 H 23.055214 a 5.3859757,5.3617085 0 0 1 5.385434,5.361171 V 15.361202 A 5.3859757,5.3617085 0 0 0 23.055214,10.00003 Z m 31.3334536,0 a 5.3859757,5.3617085 0 0 0 -5.385437,5.361172 v 0.974758 a 5.3859757,5.3617085 0 0 1 5.385437,-5.361171 h 15.666725 a 5.3859757,5.3617085 0 0 1 5.385438,5.361171 V 15.361202 A 5.3859757,5.3617085 0 0 0 54.388664,10.00003 Z m 5.385436,16.570895 v 0.974761 h 10.281289 a 5.3859757,5.3617085 0 0 1 5.385438,5.36117 v -0.974758 a 5.3859757,5.3617085 0 0 0 -5.385438,-5.361173 z m -26.4376,6.823311 v 0.974761 h 10.770873 v -0.974761 z m 15.666727,6.82331 v 0.974758 h 10.770873 v -0.974758 z m -20.562581,1.949517 v 0.974761 h 4.895854 v -0.974761 z m 31.333454,0 v 0.974761 h 4.895854 v -0.974761 z"
       id="path5" />
  </g>
</svg>
