<?xml version="1.0" encoding="UTF-8" standalone="no"?>
<svg
   width="62"
   height="62"
   version="1.1"
   id="svg6"
   sodipodi:docname="civilization-beyond-earth.svg"
   inkscape:version="1.4.2 (unknown)"
   xmlns:inkscape="http://www.inkscape.org/namespaces/inkscape"
   xmlns:sodipodi="http://sodipodi.sourceforge.net/DTD/sodipodi-0.dtd"
   xmlns="http://www.w3.org/2000/svg"
   xmlns:svg="http://www.w3.org/2000/svg">
  <defs
     id="defs6" />
  <sodipodi:namedview
     id="namedview6"
     pagecolor="#ffffff"
     bordercolor="#000000"
     borderopacity="0.25"
     inkscape:showpageshadow="2"
     inkscape:pageopacity="0.0"
     inkscape:pagecheckerboard="0"
     inkscape:deskcolor="#d1d1d1"
     inkscape:zoom="11.921875"
     inkscape:cx="32"
     inkscape:cy="32"
     inkscape:current-layer="svg6" />
  <g
     id="g6"
     transform="translate(1.2614975e-8,-0.99999974)">
    <path
       d="M 31.149236,4.9846638 C 29.986277,4.9572584 28.836725,5.2461411 27.828939,5.8193673 L 9.1709408,16.446013 C 7.2086893,17.56345 5.9998574,19.627882 6,21.862954 v 21.255205 c -7e-7,1.555944 0.5961229,3.021655 1.6141923,4.150498 a 6.3411863,6.255331 0 0 0 0.1072299,0.118965 c 0.1026862,0.108171 0.2090431,0.211646 0.3197749,0.312778 a 6.3411863,6.255331 0 0 0 0.2450969,0.212989 c 0.095565,0.07863 0.190378,0.156928 0.2910527,0.230265 a 6.3411863,6.255331 0 0 0 0.5935941,0.391447 L 27.828939,59.161746 a 6.3411863,6.255331 0 0 0 6.341883,0 L 52.828819,48.535101 a 6.3411863,6.255331 0 0 0 3.170938,-5.416942 V 21.86487 a 6.3411863,6.255331 0 0 0 0,-0.002 c 0,-0.002 2e-6,-0.0039 0,-0.0059 a 6.3411863,6.255331 0 0 0 -0.04783,-0.72341 c -0.01106,-0.09299 -0.02884,-0.184274 -0.04403,-0.276312 a 6.3411863,6.255331 0 0 0 -0.09196,-0.452768 c -0.02321,-0.09535 -0.04706,-0.190099 -0.07471,-0.283993 a 6.3411863,6.255331 0 0 0 -0.158931,-0.462443 c -0.02935,-0.07663 -0.05382,-0.154887 -0.08618,-0.230265 a 6.3411863,6.255331 0 0 0 -0.0059,-0.01533 6.3411863,6.255331 0 0 0 -0.03253,-0.07097 l -0.0039,0.002 C 54.919158,18.146392 54.015476,17.121797 52.82874,16.445993 L 34.170822,5.8193673 C 33.25116,5.2963295 32.212392,5.0091482 31.151148,4.9846638 Z"
       style="opacity:0.2;stroke-width:0.981425"
       id="path1" />
    <path
       d="M 31.150294,4.0018297 C 29.986679,3.9740621 28.837762,4.2627639 27.829425,4.8363051 L 9.1708741,15.462901 c -1.9622516,1.117433 -3.1710163,3.182758 -3.1708737,5.41783 v 21.254558 c -1e-6,2.234824 1.2086237,4.299878 3.1705961,5.417286 L 27.829285,58.179508 c 1.961972,1.117412 4.379216,1.117412 6.341189,0 l 18.65856,-10.626943 c 1.962254,-1.117438 3.171019,-3.182762 3.170876,-5.417834 l -1.52e-4,-21.25455 c 1.43e-4,-2.235072 -1.208622,-4.300397 -3.170872,-5.41783 L 34.170339,4.8357551 C 33.250119,4.3124021 32.211375,4.0254633 31.149462,4.0012797 Z"
       style="fill:#e4e4e4;stroke-width:0.981425"
       id="path2" />
    <path
       d="M 31.149236,4.0019191 C 29.986277,3.974514 28.836725,4.2633962 27.828939,4.8366225 L 9.1709408,15.463269 C 7.2086893,16.5807 5.9998574,18.645138 6,20.880209 V 21.86266 C 5.9998574,19.627596 7.2086893,17.563158 9.1709408,16.44572 L 27.828939,5.8190787 C 28.836725,5.245853 29.986277,4.9569691 31.149236,4.9843751 h 0.002 c 1.061246,0.024482 2.100008,0.3116656 3.019674,0.8347036 L 52.828869,16.44572 c 1.186737,0.675812 2.090446,1.700363 2.625217,2.897477 l 0.0039,-0.002 a 6.3411863,6.255331 0 0 1 0.03253,0.07097 6.3411863,6.255331 0 0 1 0.0059,0.01533 c 0.03228,0.0754 0.05686,0.1536 0.08621,0.230264 a 6.3411863,6.255331 0 0 1 0.158932,0.462444 c 0.02763,0.09387 0.0515,0.188644 0.07471,0.283993 a 6.3411863,6.255331 0 0 1 0.09194,0.452848 c 0.01519,0.09209 0.03297,0.183289 0.04403,0.276318 a 6.3411863,6.255331 0 0 1 0.04777,0.723447 v -0.974785 a 6.3411863,6.255331 0 0 0 0,-0.002 c 0,-0.002 2e-6,-0.0039 0,-0.0059 a 6.3411863,6.255331 0 0 0 -0.04783,-0.723411 c -0.01106,-0.09299 -0.02884,-0.184272 -0.04403,-0.276313 a 6.3411863,6.255331 0 0 0 -0.09194,-0.452767 c -0.02321,-0.09535 -0.04709,-0.190101 -0.07471,-0.283992 A 6.3411863,6.255331 0 0 0 55.58256,18.675201 c -0.02935,-0.07663 -0.05383,-0.154888 -0.08621,-0.230265 a 6.3411863,6.255331 0 0 0 -0.0059,-0.01533 6.3411863,6.255331 0 0 0 -0.03253,-0.07097 l -0.0039,0.002 C 54.919237,17.163647 54.015555,16.139057 52.828819,15.463253 L 34.170822,4.8366225 C 33.25116,4.3135847 32.212392,4.0264038 31.151148,4.0019191 Z"
       style="opacity:0.2;fill:#ffffff;stroke-width:0.981425"
       id="path3" />
    <path
       d="m 28.54891,12.792 -13.788609,8.982178 10.050885,4.908444 3.737724,-2.246981 z m 5.882327,0.101695 v 11.737666 l 2.937334,1.962996 9.955143,-4.860475 z M 31.490073,25.61382 a 6.8627119,6.8771927 0 0 0 -6.862709,6.877191 6.8627119,6.8771927 0 0 0 6.862709,6.877192 6.8627119,6.8771927 0 0 0 6.862709,-6.877192 6.8627119,6.8771927 0 0 0 -6.862709,-6.877191 z m 18.627362,1.314421 -9.803878,4.785633 v 2.536732 l 9.803878,4.785633 z m -37.254726,0.205315 v 12.108006 l 9.803874,-4.785639 V 31.91919 Z m 12.850356,11.70888 -10.820646,5.282621 13.656491,8.210802 V 40.546387 Z m 10.805324,0.113212 -2.087152,1.395012 v 11.893091 l 12.762269,-8.076476 z"
       style="opacity:0.1;stroke-width:0.981425"
       id="path4" />
    <path
       d="M 28.54891,11.809759 14.760301,20.791937 24.811186,25.700381 28.54891,23.4534 Z m 5.882327,0.101695 V 23.64912 l 2.937334,1.962996 9.955143,-4.860475 z m -2.941164,12.720125 a 6.8627119,6.8771927 0 0 0 -6.862709,6.877191 6.8627119,6.8771927 0 0 0 6.862709,6.877192 6.8627119,6.8771927 0 0 0 6.862709,-6.877192 6.8627119,6.8771927 0 0 0 -6.862709,-6.877191 z M 50.117435,25.946 40.313557,30.731633 v 2.536732 l 9.803878,4.785633 z m -37.254726,0.205315 v 12.108006 l 9.803874,-4.785639 v -2.536733 z m 12.850356,11.70888 -10.820646,5.282621 13.656491,8.210802 V 39.564146 Z m 10.805324,0.113212 -2.087152,1.395012 V 51.26151 l 12.762269,-8.076476 z"
       style="fill:#373e48;stroke-width:0.981425"
       id="path5" />
    <path
       d="m 26.011773,27.377469 a 6.8627119,6.8771927 0 0 0 -1.384409,4.131301 6.8627119,6.8771927 0 0 0 6.862709,6.877192 6.8627119,6.8771927 0 0 0 5.292561,-2.507947 18.627364,18.666669 0 0 0 -10.770861,-8.500546 z m -10.617674,0.0098 a 18.627364,18.666669 0 0 0 -2.53139,0.96707 v 9.905123 l 9.803874,-4.785676 V 30.937037 Z M 25.713065,37.860316 14.892419,43.142939 28.54891,51.35374 V 39.564146 Z m 10.805324,0.113214 -2.087152,1.395012 v 11.893073 l 4.626199,-2.92818 a 18.627364,18.666669 0 0 0 0.275738,-3.070171 18.627364,18.666669 0 0 0 -1.175698,-6.489588 z"
       style="fill:#7137c8;stroke-width:0.981425"
       id="path6" />
  </g>
</svg>
