<?xml version="1.0" encoding="UTF-8" standalone="no"?>
<svg
   width="62"
   height="62"
   version="1"
   id="svg9"
   sodipodi:docname="cmyktool.svg"
   inkscape:version="1.4.2 (unknown)"
   xmlns:inkscape="http://www.inkscape.org/namespaces/inkscape"
   xmlns:sodipodi="http://sodipodi.sourceforge.net/DTD/sodipodi-0.dtd"
   xmlns="http://www.w3.org/2000/svg"
   xmlns:svg="http://www.w3.org/2000/svg">
  <defs
     id="defs9" />
  <sodipodi:namedview
     id="namedview9"
     pagecolor="#ffffff"
     bordercolor="#000000"
     borderopacity="0.25"
     inkscape:showpageshadow="2"
     inkscape:pageopacity="0.0"
     inkscape:pagecheckerboard="0"
     inkscape:deskcolor="#d1d1d1"
     inkscape:zoom="11.921875"
     inkscape:cx="31.916121"
     inkscape:cy="32"
     inkscape:current-layer="svg9" />
  <g
     id="g9"
     transform="translate(1.5000082,1)">
    <path
       style="opacity:0.2;stroke-width:0.917355"
       d="m 29.499198,2.9180871 c -1.440542,0 -2.882044,0.5377324 -3.95888,1.6161505 L 3.6137211,26.495961 c -2.1536794,2.156836 -2.1506233,5.766316 0.00308,7.923152 L 25.543445,56.380836 c 2.153684,2.156838 5.761007,2.159897 7.914686,0.0031 l 21.926601,-21.96166 c 2.153678,-2.156836 2.15368,-5.769408 0,-7.926244 L 33.458082,4.5342376 C 32.381244,3.4558197 30.939738,2.9180871 29.499198,2.9180871 Z"
       id="path1" />
    <path
       style="fill:#535d6c;stroke-width:0.917355"
       d="m 29.499198,2.0000261 c -1.440542,0 -2.882044,0.5377316 -3.95888,1.6161502 L 3.6137211,25.577901 c -2.1536794,2.156833 -2.1506233,5.766317 0.00308,7.923151 L 25.543451,55.462775 c 2.153684,2.156836 5.761007,2.159897 7.914686,0.0031 L 55.384732,33.504207 c 2.153678,-2.156827 2.15368,-5.7694 0,-7.926242 L 33.458082,3.6161763 C 32.381244,2.5377579 30.939738,2.0000261 29.499198,2.0000261 Z"
       id="path2" />
    <path
       style="opacity:0.2;stroke-width:0.917355"
       d="m 29.499995,7.5076923 c -0.528196,0 -1.057145,0.1980751 -1.451987,0.5934938 l -8.040521,8.0525109 c -0.789684,0.790833 -0.787966,2.113879 0.002,2.904713 l 8.040524,8.052514 c 0.789681,0.790836 2.1125,0.792558 2.902179,0.002 l 8.038738,-8.054311 c 0.789675,-0.790834 0.789675,-2.113872 0,-2.904713 L 30.951985,8.1011861 C 30.557161,7.7057855 30.028195,7.5076923 29.499995,7.5076923 Z M 17.583332,20.360153 c -0.527791,2.87e-4 -1.055365,0.198024 -1.450196,0.593491 l -8.0405267,8.052513 c -0.7896585,0.790848 -0.7913412,2.115649 -0.00182,2.906507 l 8.0405337,8.050717 c 0.789657,0.790856 2.112522,0.790856 2.902177,0 l 8.040524,-8.050717 c 0.394827,-0.395429 0.592603,-0.925163 0.592603,-1.454151 0,-0.528981 -0.197764,-1.058722 -0.592606,-1.454146 l -8.040518,-8.050723 c -0.39482,-0.395428 -0.922401,-0.59378 -1.450189,-0.593491 z m 23.83333,0 c -0.527791,2.87e-4 -1.055364,0.198024 -1.450196,0.593491 l -8.040525,8.052513 c -0.789662,0.790849 -0.791384,2.115649 -0.002,2.906507 l 8.040535,8.050717 c 0.789658,0.790856 2.11252,0.790856 2.902179,0 l 8.040528,-8.050717 c 0.394853,-0.395408 0.592652,-0.925164 0.592652,-1.454151 0,-0.528982 -0.197771,-1.058721 -0.592609,-1.454146 L 42.866753,20.953644 C 42.471936,20.558217 41.944357,20.359864 41.41657,20.360153 Z M 29.499995,33.212611 c -0.528196,0 -1.057145,0.198071 -1.451987,0.59349 l -8.040521,8.052514 c -0.789684,0.790836 -0.787966,2.113875 0.002,2.904713 l 8.040524,8.052512 c 0.789681,0.790837 2.1125,0.792558 2.902179,0.002 l 8.038741,-8.054301 c 0.789675,-0.79084 0.789675,-2.113874 0,-2.904712 l -8.038799,-8.05257 c -0.394846,-0.39543 -0.923792,-0.593502 -1.451989,-0.593502 z"
       id="path3" />
    <path
       style="fill:#3fa7e2;stroke-width:0.917355"
       d="m 29.499682,6.590228 c -0.528194,0 -1.056743,0.1971686 -1.451585,0.5925873 l -8.039734,8.0526097 c -0.789678,0.79084 -0.788558,2.114319 0.0013,2.905153 l 8.039733,8.052615 c 0.789678,0.790831 2.112358,0.791952 2.90204,0.0013 l 8.039731,-8.052615 c 0.789679,-0.790832 0.789679,-2.115437 0,-2.906278 L 30.951255,7.1827989 C 30.556428,6.7873962 30.027881,6.590228 29.499682,6.590228 Z"
       id="path4" />
    <path
       style="fill:#2c313a;stroke-width:0.917355;fill-opacity:1"
       d="m 29.499682,32.295151 c -0.528194,0 -1.056743,0.197154 -1.451585,0.592581 l -8.039734,8.052616 c -0.789678,0.790831 -0.788558,2.114309 0.0013,2.905148 l 8.039733,8.052612 c 0.789678,0.790835 2.112358,0.791956 2.90204,0.0013 l 8.039729,-8.052611 c 0.789679,-0.790839 0.789679,-2.115444 0,-2.906277 l -8.03977,-8.05266 C 30.556524,32.492408 30.02798,32.295238 29.499779,32.295238 Z"
       id="path5" />
    <path
       style="fill:#ffb380;stroke-width:0.917355;fill-opacity:1"
       d="m 51.499891,29.540669 c 0,-0.528981 -0.196866,-1.058318 -0.591705,-1.453747 l -8.040614,-8.051698 c -0.789655,-0.790861 -2.111157,-0.78974 -2.900816,0.0013 l -8.040613,8.051702 c -0.789655,0.79085 -0.790778,2.115499 -0.0013,2.906358 l 8.040605,8.051695 c 0.789662,0.790856 2.112294,0.790856 2.901957,0 l 8.040711,-8.051797 c 0.394812,-0.39541 0.591685,-0.924743 0.591685,-1.453729 z"
       id="path6" />
    <path
       style="fill:#8d5fd3;stroke-width:0.917355"
       d="m 27.666565,29.540667 c 0,-0.52898 -0.196866,-1.058318 -0.591707,-1.453746 l -8.040613,-8.051698 c -0.789655,-0.790862 -2.111152,-0.789741 -2.900817,0.0013 l -8.0406106,8.051696 c -0.789658,0.79085 -0.7907788,2.115501 -0.00128,2.90636 l 8.0406106,8.051695 c 0.789663,0.790856 2.112301,0.790856 2.901954,0 l 8.040672,-8.051754 c 0.394826,-0.395429 0.5917,-0.924761 0.5917,-1.45375 z"
       id="path7" />
    <path
       style="opacity:0.1;fill:#ffffff;stroke-width:0.917355"
       d="m 29.499995,6.5901642 c -0.528196,0 -1.057145,0.1980753 -1.451987,0.593494 l -8.040521,8.0525128 c -0.50932,0.510063 -0.683521,1.240523 -0.535324,1.907783 0.0817,-0.36465 0.256796,-0.710817 0.535324,-0.989752 L 28.048008,8.1016908 C 28.44285,7.7062721 28.971799,7.508197 29.499995,7.508197 c 0.5282,0 1.057166,0.1980931 1.45199,0.5934938 l 8.038733,8.0525112 c 0.279505,0.279921 0.455467,0.627275 0.53711,0.993345 0.149024,-0.66817 -0.0269,-1.400456 -0.53711,-1.911376 L 30.951985,7.1836582 c -0.394824,-0.395401 -0.92379,-0.593494 -1.45199,-0.593494 z M 17.583332,19.442619 c -0.527791,2.96e-4 -1.055365,0.198039 -1.450196,0.593498 L 8.0926093,28.08863 c -0.510711,0.511485 -0.6864765,1.245683 -0.5371088,1.914959 0.081561,-0.367591 0.2567558,-0.716154 0.5371088,-0.996926 l 8.0405267,-8.052516 c 0.394831,-0.395467 0.922405,-0.593201 1.450196,-0.593491 0.527787,-2.89e-4 1.055367,0.198063 1.450194,0.593491 l 8.040528,8.050724 c 0.279576,0.279991 0.455389,0.628409 0.537108,0.995134 0.03375,-0.151281 0.0555,-0.304501 0.0555,-0.459021 0,-0.528982 -0.197767,-1.058723 -0.592606,-1.454151 l -8.040529,-8.050716 c -0.394826,-0.395424 -0.922406,-0.593779 -1.450195,-0.593498 z m 23.83333,0 c -0.527791,2.96e-4 -1.055364,0.198039 -1.450196,0.593498 l -8.040525,8.052513 c -0.51071,0.511486 -0.686477,1.245684 -0.537111,1.914959 0.08154,-0.367591 0.256759,-0.716153 0.537111,-0.996926 l 8.040525,-8.052516 c 0.394832,-0.395467 0.922405,-0.593201 1.450196,-0.593491 0.527788,-2.89e-4 1.055366,0.198064 1.450195,0.593491 l 8.040524,8.050724 c 0.279576,0.279992 0.455393,0.628409 0.537112,0.995134 0.03375,-0.151283 0.0555,-0.304502 0.0555,-0.459021 0,-0.528983 -0.197774,-1.058722 -0.592611,-1.454151 l -8.04053,-8.050716 C 42.472025,19.640694 41.944447,19.442338 41.416659,19.442619 Z M 29.499995,32.295083 c -0.528196,0 -1.057145,0.19807 -1.451987,0.593494 l -8.040521,8.052511 c -0.50932,0.510068 -0.683521,1.240522 -0.535324,1.907788 0.0817,-0.364649 0.256796,-0.710822 0.535324,-0.989756 l 8.040521,-8.052516 c 0.394842,-0.395418 0.923791,-0.59349 1.451987,-0.59349 0.528202,0 1.057148,0.198076 1.45199,0.59349 l 8.038733,8.052516 c 0.279505,0.279918 0.455467,0.627275 0.53711,0.993342 0.149024,-0.668169 -0.0269,-1.400454 -0.53711,-1.911374 l -8.038733,-8.052511 c -0.394842,-0.395419 -0.923788,-0.593494 -1.45199,-0.593494 z"
       id="path8" />
    <path
       style="opacity:0.1;fill:#ffffff;stroke-width:0.917355"
       d="M 29.499995,2 C 28.059459,2 26.616547,2.5371049 25.539712,3.6155221 L 3.6131177,25.578383 C 2.4217959,26.771449 1.8939808,28.407912 2.0214846,29.998208 2.1231137,28.713557 2.650762,27.460177 3.6131177,26.496412 L 25.539712,4.5335558 c 1.076835,-1.0784188 2.519747,-1.6155231 3.960283,-1.6155231 1.44054,0 2.881658,0.5371044 3.958493,1.6155231 L 55.385082,26.496412 c 0.962357,0.963766 1.491116,2.218256 1.593425,3.503593 0.126655,-1.591148 -0.402101,-3.228555 -1.593425,-4.421622 L 33.458488,3.6155221 C 32.381653,2.5371051 30.940535,2 29.499995,2 Z"
       id="path9" />
  </g>
</svg>
