<?xml version="1.0" encoding="UTF-8" standalone="no"?>
<svg
   width="62"
   height="62"
   version="1"
   id="svg4"
   sodipodi:docname="cockatrice.svg"
   inkscape:version="1.4.1 (unknown)"
   xmlns:inkscape="http://www.inkscape.org/namespaces/inkscape"
   xmlns:sodipodi="http://sodipodi.sourceforge.net/DTD/sodipodi-0.dtd"
   xmlns="http://www.w3.org/2000/svg"
   xmlns:svg="http://www.w3.org/2000/svg">
  <defs
     id="defs4" />
  <sodipodi:namedview
     id="namedview4"
     pagecolor="#ffffff"
     bordercolor="#000000"
     borderopacity="0.25"
     inkscape:showpageshadow="2"
     inkscape:pageopacity="0.0"
     inkscape:pagecheckerboard="0"
     inkscape:deskcolor="#d1d1d1"
     inkscape:zoom="8.4852814"
     inkscape:cx="47.847559"
     inkscape:cy="36.298148"
     inkscape:window-width="1920"
     inkscape:window-height="996"
     inkscape:window-x="0"
     inkscape:window-y="0"
     inkscape:window-maximized="1"
     inkscape:current-layer="svg4" />
  <rect
     style="opacity:0.2;stroke-width:0.948714"
     width="55.050846"
     height="55"
     x="-59"
     y="-58.5"
     rx="16.515253"
     ry="16.5"
     transform="matrix(0,-1,-1,0,0,0)"
     id="rect1" />
  <rect
     style="fill:#2ca05a;fill-opacity:1;stroke-width:0.948714"
     width="55.050846"
     height="55"
     x="-58.050846"
     y="-58.5"
     rx="16.515253"
     ry="16.5"
     transform="matrix(0,-1,-1,0,0,0)"
     id="rect2" />
  <path
     style="opacity:0.2;stroke:#552200;stroke-width:0.180552;stroke-opacity:0"
     d="m 27.77411,4.075798 c 0.317072,0.4826643 0.506578,1.1864299 0.509313,1.775628 0.0061,1.2326682 -0.555777,1.6252891 -1.152688,0.8037608 -0.33445,-0.4603192 -0.977098,-0.8484146 -1.407356,-0.8484146 -0.312665,0 -1.624484,0.7850756 -1.624484,0.9718683 0,0.070024 0.299252,0.09296 0.664806,0.052535 0.699593,-0.077276 0.917691,0.059793 0.922148,0.5804937 0.0047,0.4732383 -0.89355,1.4925926 -2.375061,2.6975868 -1.907544,1.551489 -2.533244,2.232793 -2.533244,2.763256 0,0.303972 -0.138722,0.525537 -0.525424,0.837909 l -0.525411,0.425525 0.235895,0.491187 c 0.324086,0.669319 0.303202,0.822929 -0.190315,1.431533 -0.579469,0.714588 -0.643413,0.988916 -0.340456,1.44204 0.301417,0.450822 0.316331,1.552311 0.04025,2.986525 -0.238321,1.237802 -0.09813,3.067937 0.3485,4.56515 0.19731,0.661516 0.81256,2.379401 1.367133,3.819176 1.180829,3.06571 1.411626,3.813292 1.611099,5.211305 0.285557,2.001492 -0.21653,3.617859 -1.485093,4.793671 -0.879078,0.814784 -1.43553,1.000072 -2.144543,0.709193 C 17.73472,38.99725 16.802525,37.118881 15.132045,31.450944 13.435423,25.694286 11.988301,23.320433 8.7198607,20.939006 7.4416817,20.007694 3.5890434,19.853286 3.5890434,19.44344 v 15.732114 c 2.115755,1.987656 4.7154557,3.667174 7.2056536,4.927621 0.718728,0.363811 1.341567,0.716654 1.383231,0.782749 0.04183,0.06613 -0.262802,0.162333 -0.678203,0.215388 -3.2147989,0.410609 -6.0045458,1.452483 -7.9106793,3.12048 l -0.092335,0.0034 0.092335,-0.0034 c -0.092335,0.0034 19.2441673,13.648184 19.2441673,13.648184 l 27.258097,-3.38008 c -0.0032,-0.01658 -0.0032,-0.0057 -0.0032,-0.0057 -0.55623,-2.02445 -4.110599,-2.797264 -8.141228,-1.770393 -0.723992,0.184471 -2.416207,0.727911 -3.760997,1.205656 -1.785444,0.634245 -2.642503,0.866839 -3.176596,0.8668 -0.855997,-1.12e-4 -1.497932,-0.206346 -1.621804,-0.522721 -0.141813,-0.36212 0.225888,-2.193422 0.600473,-2.997017 0.945186,-2.02773 2.303036,-2.715596 4.11752,-2.088202 0.732296,0.253208 0.721103,0.252868 0.721103,0.06044 0,-0.08391 -0.191441,-0.339867 -0.423553,-0.567354 -0.585015,-0.573339 -1.492724,-0.567169 -3.055964,0.02368 -0.638114,0.241167 -1.18915,0.410807 -1.225066,0.375614 -0.036,-0.03528 -0.106654,-0.571998 -0.15548,-1.192512 -0.1492,-1.896298 0.297243,-2.672993 1.511892,-2.629288 l 0.675547,0.0262 -0.431603,-0.349343 c -0.591146,-0.473597 -0.981624,-0.435572 -1.648603,0.154983 -0.67842,0.600652 -1.02403,1.483445 -1.02403,2.626648 0,1.282221 -0.423912,1.255596 -1.109785,-0.07091 -0.609076,-1.177897 -0.448462,-2.627101 0.270747,-2.442798 0.326059,0.0836 0.325988,0.06097 -0.01121,-0.585751 -0.503172,-0.966611 -0.456437,-1.856209 0.128682,-2.474319 0.237438,-0.250818 0.852712,-1.150612 1.369823,-2.001515 1.244598,-2.047955 2.310364,-3.400069 3.97277,-5.040573 3.072202,-3.031747 6.222689,-5.038492 13.137994,-8.365948 4.183059,-2.012773 6.355978,-2.951758 7.680116,-3.640559 v -2.203798 c -1.48634,0.694111 -3.387464,1.43789 -5.297016,2.261576 -5.036679,2.172573 -9.014909,4.120977 -11.132845,5.455582 -3.479031,2.192276 -6.693377,5.03624 -8.784587,7.772308 -0.624547,0.817173 -1.195684,1.486699 -1.270639,1.486699 -0.07508,0 -0.342281,-0.276509 -0.592431,-0.614639 -0.430309,-0.581728 -0.456988,-0.6957 -0.503939,-2.101338 l -0.0509,-1.484075 -0.573659,-0.564731 c -0.503741,-0.493684 -0.558549,-0.60813 -0.444956,-0.940344 0.219986,-0.643432 -0.02796,-1.281047 -0.801525,-2.0593 -0.635007,-0.638914 -0.713867,-0.780082 -0.648725,-1.18463 0.09102,-0.56499 -0.187689,-1.023554 -0.887294,-1.447305 -0.363498,-0.220143 -0.51469,-0.411489 -0.51469,-0.659296 0,-0.192257 -0.124177,-0.584247 -0.276116,-0.872041 -1.39284,-2.638661 -1.374201,-3.393188 0.06978,-2.855194 0.592241,0.220665 0.836478,0.06451 1.117835,-0.71182 0.146774,-0.405036 0.409717,-0.806625 0.613873,-0.937717 0.51557,-0.331074 1.339081,-0.168067 1.796063,0.354586 0.527771,0.603621 1.084996,0.907701 1.452919,0.793252 0.283636,-0.08822 0.306944,-0.164468 0.227867,-0.824758 -0.256648,-2.142657 -0.278987,-2.781646 -0.09121,-2.781646 0.103372,0 0.715819,0.526808 1.36179,1.168857 0.993805,0.987763 1.30232,1.415908 1.999787,2.784272 0.453356,0.88946 0.822966,1.765722 0.822966,1.946358 0,0.180632 0.05983,0.32835 0.13135,0.32835 0.17302,0 0.273585,-1.2291 0.147444,-1.801899 -0.08031,-0.364163 -0.05017,-0.470086 0.152792,-0.533221 0.226823,-0.07057 0.196379,-0.194781 -0.297548,-1.15835 -0.536258,-1.046129 -1.189579,-2.734971 -1.093718,-2.828933 0.02589,-0.02536 0.582322,-0.119561 1.235788,-0.21012 1.45093,-0.201099 2.51005,-0.04216 3.873584,0.583108 0.515632,0.236483 0.960351,0.430771 0.989169,0.430771 0.02886,0 -0.01446,-0.174737 -0.09659,-0.388735 -0.204271,-0.534012 -1.218799,-1.536807 -3.018242,-2.97605 -1.541344,-1.232849 -2.440311,-2.104273 -2.450109,-2.377137 -0.01895,-0.528129 -0.517723,-1.668385 -1.013301,-2.319351 -0.95924,-1.259991 -0.797061,-1.551212 1.045478,-1.8728123 0.608587,-0.1061993 0.908045,-0.2403185 1.117837,-0.5016939 0.354628,-0.4418256 0.369749,-0.6655174 0.03489,-0.5279615 -0.406423,0.1669035 -1.646081,0.3754711 -1.731729,0.2915605 -0.04312,-0.042324 0.185711,-0.3598767 0.509336,-0.7039462 0.640291,-0.6807569 1.190184,-1.6237048 1.179494,-2.0251614 -0.0035,-0.1395333 -0.162553,0.042115 -0.356526,0.4071341 -0.434486,0.8176976 -0.837453,1.1058255 -1.544078,1.1058255 -0.299977,0 -0.546863,-0.02355 -0.546863,-0.055162 0,-0.031713 0.195661,-0.4848016 0.43428,-1.0060141 0.610454,-1.3334052 0.667987,-1.9963459 0.265379,-2.6082797 l -0.02673,-0.042026 h -0.345807 l -0.0563,0.6330542 C 34.443757,6.3619526 33.8502,7.6480637 33.26135,7.6480637 c -0.116821,0 -0.325576,-0.1306635 -0.463763,-0.2889351 C 32.59494,7.1270023 32.545362,6.7916761 32.542964,5.6255313 32.541679,5.0007956 32.5118,4.4358722 32.438458,4.0757961 H 31.698617 C 31.777367,5.1099463 31.520021,6.074858 30.931935,6.6184107 30.656208,6.8732426 30.388066,7.0813062 30.334157,7.0807029 30.280257,7.0801561 30.228144,6.6700063 30.218882,6.171877 30.203362,5.3340285 30.011755,4.558193 29.655934,4.075795 Z m 2.624378,42.993301 0.495914,0.283684 c 0.769375,0.440353 1.144666,1.094922 1.144666,1.993646 0,1.198134 -0.239707,1.502136 -1.769265,2.227399 -0.733041,0.3476 -1.917702,0.798402 -2.632408,1.000781 -1.35226,0.382914 -3.403214,0.580826 -3.895024,0.375605 -0.249876,-0.104282 -0.17201,-0.20108 0.648721,-0.793259 0.513774,-0.370688 1.358265,-0.91965 1.876478,-1.221403 0.518201,-0.301741 1.327877,-0.85493 1.798734,-1.226642 0.775717,-0.612465 1.098023,-0.966146 2.034632,-2.235294 z m -0.260023,5.852227 c 0.443374,-0.0023 0.69248,0.280508 1.166096,0.908812 0.321387,0.426359 0.650637,0.815024 0.73183,0.864174 0.265401,0.160777 0.15537,0.354611 -0.201067,0.354611 -0.191927,0 -1.032828,0.326808 -1.86842,0.724955 -1.632594,0.777912 -2.578318,0.978372 -3.053288,0.651407 -0.15882,-0.109307 -0.661232,-0.347863 -1.117859,-0.530588 -0.456607,-0.182688 -0.830992,-0.371322 -0.830992,-0.420266 0,-0.185025 0.820182,-0.830051 1.444866,-1.137345 0.357364,-0.175798 1.321585,-0.593867 2.144539,-0.927213 0.776407,-0.314487 1.239437,-0.486939 1.584295,-0.488547 z"
     id="path2-5"
     sodipodi:nodetypes="cccsscccsccccsccccccscccccccscccccccccssccscccccscccsccsccsccsccccccccsccccsccsscsscsccccscccccscccccsssccccscscccccccccscscssccccscssccsssc" />
  <path
     style="fill:#ffffff;fill-opacity:1;stroke:#552200;stroke-width:0.182284;stroke-opacity:0"
     d="m 27.77411,3.0934245 c 0.317072,0.4919657 0.506578,1.2092944 0.509313,1.8098476 0.0061,1.2564248 -0.555777,1.6566136 -1.152688,0.8192516 -0.33445,-0.4691901 -0.977098,-0.8647663 -1.407356,-0.8647663 -0.312665,0 -1.624484,0.8002065 -1.624484,0.990599 0,0.071373 0.299252,0.094752 0.664806,0.053546 0.699593,-0.078765 0.917691,0.060947 0.922148,0.5916818 0.0047,0.4823584 -0.89355,1.5213568 -2.375061,2.7495764 -1.907544,1.5813904 -2.533244,2.2758184 -2.533244,2.8165114 0,0.309829 -0.138722,0.535661 -0.525424,0.854062 l -0.525411,0.433716 0.235895,0.500653 c 0.324086,0.682228 0.303202,0.83879 -0.190315,1.459124 -0.579469,0.728363 -0.643413,1.007975 -0.340456,1.469832 0.301417,0.459527 0.316331,1.582247 0.04025,3.044081 -0.238321,1.261678 -0.09813,3.127059 0.3485,4.653127 0.19731,0.674268 0.81256,2.425265 1.367133,3.892783 1.180829,3.124816 1.411626,3.886782 1.611099,5.311747 0.285557,2.040077 -0.21653,3.687601 -1.485093,4.886047 -0.879078,0.83049 -1.435528,1.019352 -2.144542,0.722869 C 17.734725,38.687914 16.80253,36.773345 15.132046,30.996155 13.435423,25.128567 11.988304,22.708965 8.7198642,20.281642 7.4416817,19.332385 6.2468908,19.527063 3.4887891,20.157359 v 14.63519 c 2.115755,2.025954 4.81571,3.737861 7.3059079,5.022603 0.718727,0.370801 1.341566,0.730442 1.383229,0.797834 0.04181,0.06742 -0.262801,0.165441 -0.678201,0.219541 -3.2148,0.418501 -6.1048001,1.480478 -8.0109359,3.180607 L 4.389,46.697516 c 1.3889833,3.948481 3.586146,6.843503 6.591488,8.685068 3.813584,2.319225 5.910789,2.668262 11.852725,2.587416 h 19.601768 c 2.768762,0.08085 8.365904,-1.498125 11.101019,-4.936 0,0 -7.55853,-1.411843 -11.589159,-0.365177 -0.723991,0.188003 -2.416207,0.74194 -3.760996,1.228868 -1.785445,0.646494 -2.642502,0.883556 -3.176597,0.883506 -0.855996,-1.01e-4 -1.497932,-0.210299 -1.621804,-0.53277 -0.141812,-0.369124 0.225888,-2.235719 0.600475,-3.054794 0.945186,-2.066816 2.303036,-2.767942 4.11752,-2.128451 0.732295,0.258099 0.721103,0.257745 0.721103,0.0616 0,-0.08553 -0.191441,-0.346418 -0.423555,-0.578291 -0.585014,-0.584366 -1.492724,-0.578098 -3.055964,0.02417 -0.638113,0.245811 -1.189149,0.418711 -1.225066,0.382847 -0.03599,-0.03596 -0.106654,-0.583027 -0.15548,-1.21548 -0.149199,-1.932838 0.297244,-2.724515 1.511893,-2.679972 l 0.675546,0.02667 -0.431602,-0.356076 c -0.591147,-0.482725 -0.981624,-0.443967 -1.648603,0.157969 -0.678421,0.612253 -1.02403,1.512059 -1.02403,2.677294 0,1.306935 -0.423913,1.279781 -1.109785,-0.07228 -0.609078,-1.200621 -0.448462,-2.677746 0.270746,-2.489891 0.32606,0.08521 0.325988,0.06214 -0.01121,-0.597019 -0.503172,-0.985263 -0.456437,-1.892002 0.128682,-2.522004 0.237438,-0.255675 0.852712,-1.172809 1.369824,-2.040107 1.244596,-2.087405 2.310364,-3.465604 3.972769,-5.137723 3.072202,-3.090151 6.22269,-5.135571 13.137997,-8.527176 4.183057,-2.051566 6.355977,-3.008645 7.680115,-3.710726 L 58.25563,20.222744 c -1.486341,0.707461 -3.154276,1.465577 -5.063827,2.30514 -5.036681,2.214443 -9.014911,4.200418 -11.132848,5.560724 -3.479027,2.234528 -6.693375,5.133301 -8.784583,7.92212 -0.624549,0.832899 -1.195686,1.515341 -1.270638,1.515341 -0.07508,0 -0.342283,-0.281829 -0.592433,-0.626493 -0.430311,-0.59294 -0.45699,-0.709084 -0.503941,-2.141839 l -0.0509,-1.512654 -0.57366,-0.575617 c -0.503759,-0.503234 -0.558569,-0.619858 -0.444976,-0.958498 0.219985,-0.655811 -0.02796,-1.30574 -0.801524,-2.098989 -0.635007,-0.651226 -0.713868,-0.795092 -0.648724,-1.207463 0.091,-0.575851 -0.187692,-1.043276 -0.887296,-1.475176 -0.363497,-0.224406 -0.514687,-0.419416 -0.514687,-0.672003 0,-0.195961 -0.124179,-0.595525 -0.276117,-0.888864 -1.392841,-2.689516 -1.374201,-3.458563 0.06976,-2.910224 0.592244,0.224943 0.83648,0.06575 1.117836,-0.725539 0.146773,-0.412841 0.409718,-0.822171 0.613872,-0.955788 0.515572,-0.337432 1.339081,-0.171306 1.796064,0.361442 0.527769,0.615256 1.084996,0.92517 1.452916,0.808543 0.283638,-0.08992 0.306942,-0.167662 0.227867,-0.840679 -0.256645,-2.183951 -0.278985,-2.835257 -0.0912,-2.835257 0.103337,0 0.715817,0.536965 1.361788,1.191409 0.993805,1.006799 1.302321,1.443171 1.999786,2.83793 0.453357,0.906586 0.822967,1.79973 0.822967,1.983871 0,0.184111 0.05984,0.334653 0.131352,0.334653 0.173017,0 0.273583,-1.252785 0.147445,-1.83662 -0.0803,-0.371162 -0.05017,-0.479127 0.152791,-0.543487 0.226823,-0.07193 0.196377,-0.198547 -0.29755,-1.180689 -0.536258,-1.06629 -1.189581,-2.78768 -1.093718,-2.883456 0.02589,-0.02585 0.58232,-0.121861 1.235788,-0.214168 1.45093,-0.204975 2.510049,-0.04297 3.873582,0.594364 0.515633,0.241022 0.960352,0.439059 0.989171,0.439059 0.02886,0 -0.01447,-0.178108 -0.09659,-0.396231 C 40.919309,18.053307 39.904775,17.03119 38.105339,15.564209 36.563965,14.307603 35.664997,13.41939 35.6552,13.14126 35.636273,12.602962 35.137473,11.440722 34.641899,10.777212 33.68266,9.4929377 33.844839,9.1961047 35.687379,8.8683054 36.295966,8.7600581 36.59542,8.6233566 36.805213,8.3569428 c 0.354627,-0.4503421 0.369746,-0.6783433 0.0349,-0.5381358 -0.406422,0.1701201 -1.646082,0.3827067 -1.73173,0.2971789 -0.04311,-0.043137 0.18571,-0.3668127 0.509338,-0.7175132 0.640289,-0.6938767 1.190184,-1.6549969 1.179492,-2.0641914 -0.0035,-0.1422227 -0.162551,0.042927 -0.356526,0.4149802 -0.434485,0.8334572 -0.837453,1.1271393 -1.544076,1.1271393 -0.299978,0 -0.54687,-0.024007 -0.54687,-0.056224 0,-0.032329 0.195661,-0.494145 0.434286,-1.0254023 0.610455,-1.3591042 0.667985,-2.0348206 0.265383,-2.65855 l -0.02674,-0.042835 h -0.345815 l -0.05631,0.6452571 c -0.176686,1.6849941 -0.770243,2.9958926 -1.359093,2.9958926 -0.116822,0 -0.325575,-0.1331813 -0.463763,-0.294503 C 32.595033,6.2034297 32.545456,5.8616409 32.543057,4.6730211 32.541772,4.0362458 32.51187,3.4604339 32.438552,3.0934212 H 31.698664 C 31.777391,4.1474999 31.520058,5.1310083 30.931978,5.6850373 30.656251,5.944781 30.388095,6.156855 30.334195,6.156241 30.280406,6.1556831 30.228194,5.7376279 30.21892,5.2298983 30.20342,4.3759038 30.011788,3.5851154 29.655968,3.0934218 Z m 2.624378,43.8219065 0.495914,0.28913 c 0.769375,0.448856 1.144666,1.116016 1.144666,2.032062 0,1.221228 -0.239707,1.531091 -1.769265,2.270349 -0.733041,0.354281 -1.917702,0.813767 -2.632408,1.020047 -1.35226,0.390298 -3.403214,0.592046 -3.895024,0.382843 -0.249876,-0.10628 -0.17201,-0.204955 0.648721,-0.808535 0.513774,-0.377843 1.358265,-0.93738 1.876478,-1.244932 0.518201,-0.307556 1.327877,-0.871396 1.798734,-1.250305 0.775717,-0.624258 1.098023,-0.984755 2.034632,-2.278376 z m -0.260023,5.964991 c 0.443374,-0.0023 0.69248,0.285911 1.166096,0.926347 0.321387,0.434587 0.650637,0.830704 0.73183,0.880838 0.265401,0.163855 0.15537,0.361416 -0.201067,0.361416 -0.191927,0 -1.032828,0.333112 -1.86842,0.738946 -1.632594,0.792897 -2.578318,0.997229 -3.053288,0.663963 -0.15882,-0.111415 -0.661232,-0.354583 -1.117859,-0.540814 -0.456607,-0.186229 -0.830992,-0.378488 -0.830992,-0.428355 0,-0.188616 0.820182,-0.846061 1.444866,-1.15928 0.357364,-0.179186 1.321585,-0.605311 2.144539,-0.945079 0.776407,-0.320573 1.239437,-0.496347 1.584295,-0.497982 z"
     id="path3-3"
     sodipodi:nodetypes="cccsscccscccscccccscscccscccccccssscccssccsccccsscccccssccscssccccsccsscccscscscssscssscsscscccscccccsscccccscscccccccccssssssccccscsccssscc" />
</svg>
