<?xml version="1.0" encoding="UTF-8" standalone="no"?>
<svg
   width="62"
   height="62"
   version="1.1"
   id="svg29"
   sodipodi:docname="com.github.aleksandar-stefanovic.urmsimulator.svg"
   inkscape:version="1.4.2 (unknown)"
   xmlns:inkscape="http://www.inkscape.org/namespaces/inkscape"
   xmlns:sodipodi="http://sodipodi.sourceforge.net/DTD/sodipodi-0.dtd"
   xmlns:xlink="http://www.w3.org/1999/xlink"
   xmlns="http://www.w3.org/2000/svg"
   xmlns:svg="http://www.w3.org/2000/svg">
  <defs
     id="defs29">
    <linearGradient
       id="linearGradient29"
       inkscape:collect="always">
      <stop
         style="stop-color:#364963;stop-opacity:1;"
         offset="0"
         id="stop29" />
      <stop
         style="stop-color:#8d5fd3;stop-opacity:1"
         offset="1"
         id="stop30" />
    </linearGradient>
    <linearGradient
       inkscape:collect="always"
       xlink:href="#linearGradient29"
       id="linearGradient30"
       x1="30.782633"
       y1="60"
       x2="30.193521"
       y2="5"
       gradientUnits="userSpaceOnUse"
       gradientTransform="matrix(0.98214286,0,0,0.98245614,-0.42857152,-0.92982455)" />
  </defs>
  <sodipodi:namedview
     id="namedview29"
     pagecolor="#ffffff"
     bordercolor="#000000"
     borderopacity="0.25"
     inkscape:showpageshadow="2"
     inkscape:pageopacity="0.0"
     inkscape:pagecheckerboard="0"
     inkscape:deskcolor="#d1d1d1"
     inkscape:zoom="7.0710678"
     inkscape:cx="31.041988"
     inkscape:cy="48.295393"
     inkscape:window-width="1920"
     inkscape:window-height="998"
     inkscape:window-x="0"
     inkscape:window-y="0"
     inkscape:window-maximized="1"
     inkscape:current-layer="svg29" />
  <rect
     style="opacity:0.2;stroke-width:0.9823"
     width="55"
     height="55.017544"
     x="3.5"
     y="3.9824562"
     ry="13.754386"
     id="rect1" />
  <rect
     style="fill:url(#linearGradient30);stroke-width:0.9823"
     width="55"
     height="55.017544"
     x="3.5"
     y="3"
     ry="13.754386"
     id="rect2" />
  <path
     style="opacity:0.1;fill:#ffffff;stroke-width:0.9823"
     d="M 17.25,3 C 9.6324999,3 3.4999999,9.1344561 3.4999999,16.754386 v 0.982456 c 0,-7.61993 6.1325,-13.7543858 13.7500001,-13.7543858 h 27.5 c 7.6175,0 13.75,6.1344558 13.75,13.7543858 V 16.754386 C 58.5,9.1344561 52.3675,3 44.75,3 Z"
     id="path28" />
  <g
     id="g1"
     transform="matrix(1.0454279,0,0,1.0487646,-1.4088511,-42.425876)">
    <path
       style="opacity:0.2;fill:none;stroke:#000000;stroke-width:4;stroke-linecap:round;stroke-linejoin:bevel"
       d="m 18.99981,62.976266 -7e-6,11.798086 c -2e-6,3.164406 -2.002659,4.251888 -3.999997,4.200078 C 13.128002,78.98183 10.999999,77.97858 11,74.774352 l 6e-6,-11.798086"
       id="path2-3" />
    <path
       style="fill:none;stroke:#ffffff;stroke-width:4;stroke-linecap:round;stroke-linejoin:bevel"
       d="m 18.99981,62 -7e-6,11.798086 c -2e-6,3.164406 -2.002659,4.251888 -3.999997,4.200078 C 13.128002,78.005564 10.999999,77.002314 11,73.798086 L 11.000006,62"
       id="path3-6" />
    <path
       style="opacity:0.2;fill:none;stroke:#000000;stroke-width:4;stroke-linecap:round"
       d="m 32.999806,78.976266 -4,-6 m -3.8,-2 c 0,0 7.8,1.148726 7.8,-4 0,-5.148728 -7.971694,-3.82772 -7.971694,-3.82772 m 2.06e-4,15.799236 V 63.148754"
       id="path4-7" />
    <path
       style="fill:none;stroke:#ffffff;stroke-width:4;stroke-linecap:round"
       d="m 32.999806,78 -4,-6 m -3.8,-2 c 0,0 7.8,1.148726 7.8,-4 0,-5.148728 -7.971694,-3.82772 -7.971694,-3.82772 m 2.06e-4,15.799236 V 62.172488"
       id="path5-5" />
    <path
       style="opacity:0.2;fill:none;stroke:#000000;stroke-width:4;stroke-linecap:round;stroke-linejoin:round"
       d="M 50.999806,78.947782 V 62.976266 m -12,0 6,8 6,-8 m -12,15.971516 V 62.976266"
       id="path6-3" />
    <path
       style="fill:none;stroke:#ffffff;stroke-width:4;stroke-linecap:round;stroke-linejoin:round"
       d="M 50.999806,77.971516 V 62 m -12,0 6,8 6,-8 m -12,15.971516 V 62"
       id="path7-5" />
  </g>
</svg>
