<?xml version="1.0" encoding="UTF-8" standalone="no"?>
<svg
   width="62"
   height="62"
   version="1.1"
   id="svg29"
   sodipodi:docname="com.github.efdos.mupengui.svg"
   inkscape:version="1.4.2 (unknown)"
   xmlns:inkscape="http://www.inkscape.org/namespaces/inkscape"
   xmlns:sodipodi="http://sodipodi.sourceforge.net/DTD/sodipodi-0.dtd"
   xmlns:xlink="http://www.w3.org/1999/xlink"
   xmlns="http://www.w3.org/2000/svg"
   xmlns:svg="http://www.w3.org/2000/svg">
  <defs
     id="defs29">
    <linearGradient
       id="linearGradient29"
       inkscape:collect="always">
      <stop
         style="stop-color:#373e48;stop-opacity:1"
         offset="0"
         id="stop29" />
      <stop
         style="stop-color:#535d6c;stop-opacity:1"
         offset="1"
         id="stop30" />
    </linearGradient>
    <linearGradient
       inkscape:collect="always"
       xlink:href="#linearGradient29"
       id="linearGradient30"
       x1="30.782633"
       y1="60"
       x2="30.193521"
       y2="5"
       gradientUnits="userSpaceOnUse"
       gradientTransform="matrix(0.98214286,0,0,0.98245614,-0.42857152,-0.92982455)" />
  </defs>
  <sodipodi:namedview
     id="namedview29"
     pagecolor="#ffffff"
     bordercolor="#000000"
     borderopacity="0.25"
     inkscape:showpageshadow="2"
     inkscape:pageopacity="0.0"
     inkscape:pagecheckerboard="0"
     inkscape:deskcolor="#d1d1d1"
     inkscape:zoom="7.0710678"
     inkscape:cx="31.112698"
     inkscape:cy="48.295393"
     inkscape:window-width="1920"
     inkscape:window-height="998"
     inkscape:window-x="0"
     inkscape:window-y="0"
     inkscape:window-maximized="1"
     inkscape:current-layer="svg29" />
  <rect
     style="opacity:0.2;stroke-width:0.9823"
     width="55"
     height="55.017544"
     x="3.5"
     y="3.9824562"
     ry="13.754386"
     id="rect1" />
  <rect
     style="fill:url(#linearGradient30);stroke-width:0.9823"
     width="55"
     height="55.017544"
     x="3.5"
     y="3"
     ry="13.754386"
     id="rect2" />
  <path
     style="opacity:0.1;fill:#ffffff;stroke-width:0.9823"
     d="M 17.25,3 C 9.6324999,3 3.4999999,9.1344561 3.4999999,16.754386 v 0.982456 c 0,-7.61993 6.1325,-13.7543858 13.7500001,-13.7543858 h 27.5 c 7.6175,0 13.75,6.1344558 13.75,13.7543858 V 16.754386 C 58.5,9.1344561 52.3675,3 44.75,3 Z"
     id="path28" />
  <g
     id="g1"
     transform="translate(0.28284269,-73.36539)">
    <path
       style="opacity:0.2"
       d="m 30.629316,82.36539 c -6.337206,0 -8.71875,1.824219 -8.71875,1.824219 l -0.699218,1.570312 c 0,0 -10.284597,0.942796 -9.269532,2.828125 -5.8392559,1.885278 -5.2031238,16.340184 -5.2031239,18.414064 0,2.07388 0.8892497,11.36328 4.3164059,11.36328 3.427158,0 5.839843,-13.37891 5.839843,-13.37891 0,0 5.966075,-0.56342 6.664063,3.14453 0.697982,3.70792 2.360854,20.23438 7.066406,20.23438 h 0.1875 c 4.705558,0 6.372326,-16.52646 7.070312,-20.23438 0.697984,-3.70795 6.660157,-3.14453 6.660157,-3.14453 0,0 2.412689,13.37891 5.839843,13.37891 3.427156,0 4.316407,-9.2894 4.316407,-11.36328 0,-2.07388 0.636123,-16.52929 -5.203125,-18.414064 1.015578,-1.885329 -9.265625,-2.828125 -9.265625,-2.828125 L 39.53166,84.189609 c 0,0 -2.377636,-1.824219 -8.714844,-1.824219 z m -13.90625,6 c 3.314054,0 5.996094,2.682039 5.996094,5.996094 0,3.314048 -2.68204,6.003906 -5.996094,6.003906 -3.314046,0 -6.003906,-2.689858 -6.003906,-6.003906 0,-3.314055 2.68986,-5.996094 6.003906,-5.996094 z m 30.144532,1.164062 c 0.699581,0 1.280903,0.487735 1.433593,1.140626 l 0.03906,0.01953 c 0.669256,0.335715 1.204939,0.897166 1.515625,1.578125 l 0.01563,0.02344 c 0.687874,0.124816 1.207029,0.728508 1.207031,1.453125 -0.0011,0.768734 -0.585819,1.399058 -1.335937,1.46875 l -0.01563,0.02734 c -0.31763,0.56231 -0.788717,1.01384 -1.363281,1.308594 l -0.02344,0.01563 c -0.04228,0.77724 -0.684759,1.398437 -1.472656,1.398437 -0.787892,0 -1.430629,-0.621197 -1.472657,-1.398437 l -0.02344,-0.01563 C 44.796906,96.254004 44.32192,95.8027 44.004316,95.24039 l -0.01172,-0.02734 c -0.750122,-0.0698 -1.339844,-0.700016 -1.339844,-1.46875 0,-0.724055 0.522525,-1.323643 1.210937,-1.449218 l 0.01172,-0.02734 c 0.310632,-0.681467 0.850267,-1.238503 1.519531,-1.574219 l 0.03906,-0.01953 c 0.15214,-0.652736 0.734012,-1.140625 1.433594,-1.140625 z M 15.71916,90.36539 v 3 h -3 v 2 h 3 v 3 h 2 v -3 h 2.996094 v -2 H 17.71916 v -3 z m 29.636719,0.449219 c -0.586268,0.315849 -1.062871,0.811675 -1.355469,1.410156 0.04636,-0.0043 0.08795,-0.0039 0.128906,-0.0039 0.840032,0 1.523438,0.683385 1.523438,1.523437 0,0.838932 -0.685006,1.521806 -1.523438,1.523438 0.294194,0.489054 0.70979,0.887766 1.210938,1.160156 0.02852,-0.815042 0.702031,-1.46875 1.523437,-1.46875 0.821944,0 1.495242,0.653708 1.523438,1.46875 0.501128,-0.272548 0.916739,-0.671816 1.210937,-1.160156 -0.83737,-0.0016 -1.515625,-0.684506 -1.515625,-1.523438 0,-0.840052 0.679499,-1.523437 1.519531,-1.523437 0.04076,0 0.08315,-2.08e-4 0.128907,0.0039 -0.292622,-0.598481 -0.765299,-1.094155 -1.351563,-1.410156 0.0086,0.06419 0.0078,0.12926 0.0078,0.191406 0,0.840053 -0.679504,1.523437 -1.519531,1.523437 -0.840033,0 -1.527344,-0.683384 -1.527344,-1.523437 0,-0.06215 0.0074,-0.12722 0.01563,-0.191406 z M 30.721113,91.36539 c 1.656456,0 2.998047,1.339647 2.998047,2.996094 0,1.65645 -1.341591,3.003906 -2.998047,3.003906 -1.65646,0 -3.001953,-1.347456 -3.001953,-3.003906 0,-1.656447 1.344786,-2.996094 3.001953,-2.996094 z m 0,0.574219 c -1.340553,-8.61e-4 -2.426977,1.085228 -2.427734,2.425781 -8.25e-4,1.341698 1.086037,2.43055 2.427734,2.429688 1.339409,-0.0024 2.424691,-1.090278 2.423828,-2.429688 -7.5e-4,-1.338266 -1.085563,-2.423411 -2.423828,-2.425781 z m 9.998047,2.425781 c 1.105192,0 2,0.894796 2,2 0,1.104612 -0.894808,2 -2,2 -1.105198,0 -2,-0.894798 -2,-2 0,-1.105204 0.894802,-2 2,-2 z m 1.996094,4 c 1.104432,0 2.003906,0.8948 2.003906,2 0,1.10521 -0.900034,2 -2.003906,2 -1.104434,0 -1.996094,-0.89479 -1.996094,-2 0,-1.1052 0.89166,-2 1.996094,-2 z m -11.996094,2 c 3.313774,0 6,2.68292 6,5.99609 0,3.31324 -2.686806,6.00391 -6,6.00391 -3.31378,0 -6,-2.68682 -6,-6 0,-3.31323 2.68622,-6 6,-6 z m 0,3 a 3,3 0 0 0 -3,3 3,3 0 0 0 3,3 3,3 0 0 0 3,-3 3,3 0 0 0 -3,-3 z"
       id="path2-6" />
    <path
       style="fill:#acf753"
       d="m 30.629316,81.36539 c -6.337206,0 -8.71875,1.824219 -8.71875,1.824219 l -0.699218,1.570312 c 0,0 -10.284597,0.942796 -9.269532,2.828125 -5.8392559,1.885278 -5.2031238,16.340184 -5.2031239,18.414064 0,2.07388 0.8892497,11.36328 4.3164059,11.36328 3.427158,0 5.839843,-13.37891 5.839843,-13.37891 0,0 5.966075,-0.56342 6.664063,3.14453 0.697982,3.70792 2.360854,20.23438 7.066406,20.23438 h 0.1875 c 4.705558,0 6.372326,-16.52646 7.070312,-20.23438 0.697984,-3.70795 6.660157,-3.14453 6.660157,-3.14453 0,0 2.412689,13.37891 5.839843,13.37891 3.427156,0 4.316407,-9.2894 4.316407,-11.36328 0,-2.07388 0.636123,-16.52929 -5.203125,-18.414064 1.015578,-1.885329 -9.265625,-2.828125 -9.265625,-2.828125 L 39.53166,83.189609 c 0,0 -2.377636,-1.824219 -8.714844,-1.824219 z m -13.90625,6 c 3.314054,0 5.996094,2.682039 5.996094,5.996094 0,3.314048 -2.68204,6.003906 -5.996094,6.003906 -3.314046,0 -6.003906,-2.689858 -6.003906,-6.003906 0,-3.314055 2.68986,-5.996094 6.003906,-5.996094 z m 30.144532,1.164062 c 0.699581,0 1.280903,0.487735 1.433593,1.140626 l 0.03906,0.01953 c 0.669256,0.335715 1.204939,0.897166 1.515625,1.578125 l 0.01563,0.02344 c 0.687874,0.124816 1.207029,0.728508 1.207031,1.453125 -0.0011,0.768734 -0.585819,1.399058 -1.335937,1.46875 l -0.01563,0.02734 c -0.31763,0.56231 -0.788717,1.01384 -1.363281,1.308594 l -0.02344,0.01563 c -0.04228,0.77724 -0.684759,1.398437 -1.472656,1.398437 -0.787892,0 -1.430629,-0.621197 -1.472657,-1.398437 l -0.02344,-0.01563 C 44.796906,95.254004 44.32192,94.8027 44.004316,94.24039 l -0.01172,-0.02734 c -0.750122,-0.0698 -1.339844,-0.700016 -1.339844,-1.46875 0,-0.724055 0.522525,-1.323643 1.210937,-1.449218 l 0.01172,-0.02734 c 0.310632,-0.681467 0.850267,-1.238503 1.519531,-1.574219 l 0.03906,-0.01953 c 0.15214,-0.652736 0.734012,-1.140625 1.433594,-1.140625 z M 15.71916,89.36539 v 3 h -3 v 2 h 3 v 3 h 2 v -3 h 2.996094 v -2 H 17.71916 v -3 z m 29.636719,0.449219 c -0.586268,0.315849 -1.062871,0.811675 -1.355469,1.410156 0.04636,-0.0043 0.08795,-0.0039 0.128906,-0.0039 0.840032,0 1.523438,0.683385 1.523438,1.523437 0,0.838932 -0.685006,1.521806 -1.523438,1.523438 0.294194,0.489054 0.70979,0.887766 1.210938,1.160156 0.02852,-0.815042 0.702031,-1.46875 1.523437,-1.46875 0.821944,0 1.495242,0.653708 1.523438,1.46875 0.501128,-0.272548 0.916739,-0.671816 1.210937,-1.160156 -0.83737,-0.0016 -1.515625,-0.684506 -1.515625,-1.523438 0,-0.840052 0.679499,-1.523437 1.519531,-1.523437 0.04076,0 0.08315,-2.08e-4 0.128907,0.0039 -0.292622,-0.598481 -0.765299,-1.094155 -1.351563,-1.410156 0.0086,0.06419 0.0078,0.12926 0.0078,0.191406 0,0.840053 -0.679504,1.523437 -1.519531,1.523437 -0.840033,0 -1.527344,-0.683384 -1.527344,-1.523437 0,-0.06215 0.0074,-0.12722 0.01563,-0.191406 z M 30.721113,90.36539 c 1.656456,0 2.998047,1.339647 2.998047,2.996094 0,1.65645 -1.341591,3.003906 -2.998047,3.003906 -1.65646,0 -3.001953,-1.347456 -3.001953,-3.003906 0,-1.656447 1.344786,-2.996094 3.001953,-2.996094 z m 0,0.574219 c -1.340553,-8.61e-4 -2.426977,1.085228 -2.427734,2.425781 -8.25e-4,1.341698 1.086037,2.43055 2.427734,2.429688 1.339409,-0.0024 2.424691,-1.090278 2.423828,-2.429688 -7.5e-4,-1.338266 -1.085563,-2.423411 -2.423828,-2.425781 z m 9.998047,2.425781 c 1.105192,0 2,0.894796 2,2 0,1.104612 -0.894808,2 -2,2 -1.105198,0 -2,-0.894798 -2,-2 0,-1.105204 0.894802,-2 2,-2 z m 1.996094,4 c 1.104432,0 2.003906,0.8948 2.003906,2 0,1.10521 -0.900034,2 -2.003906,2 -1.104434,0 -1.996094,-0.89479 -1.996094,-2 0,-1.1052 0.89166,-2 1.996094,-2 z m -11.996094,2 c 3.313774,0 6,2.68292 6,5.99609 0,3.31324 -2.686806,6.00391 -6,6.00391 -3.31378,0 -6,-2.68682 -6,-6 0,-3.31323 2.68622,-6 6,-6 z m 0,3 a 3,3 0 0 0 -3,3 3,3 0 0 0 3,3 3,3 0 0 0 3,-3 3,3 0 0 0 -3,-3 z"
       id="path3-7" />
    <path
       style="opacity:0.2;fill:#ffffff"
       d="m 30.629316,81.36539 c -6.337206,0 -8.71875,1.824219 -8.71875,1.824219 l -0.699218,1.570312 c 0,0 -10.284597,0.942796 -9.269532,2.828125 -5.2378941,1.691121 -5.2666696,13.425494 -5.2167959,17.335934 -0.00973,-4.61013 0.3653687,-14.769589 5.2167959,-16.335934 -1.015065,-1.885329 9.269532,-2.828125 9.269532,-2.828125 l 0.699218,-1.570312 c 0,0 2.381544,-1.824219 8.71875,-1.824219 h 0.1875 c 6.337208,0 8.714844,1.824219 8.714844,1.824219 l 0.699219,1.570312 c 0,0 10.281203,0.942796 9.265625,2.828125 4.851421,1.565927 5.226522,11.725694 5.216797,16.335934 0.04987,-3.91051 0.02109,-15.645265 -5.216797,-17.335934 1.015578,-1.885329 -9.265625,-2.828125 -9.265625,-2.828125 L 39.53166,83.189609 c 0,0 -2.377636,-1.824219 -8.714844,-1.824219 z m -14.910156,8 v 1 h 2 v -1 z m 32.550781,1.228516 c -0.229548,0.548695 -0.770807,0.935546 -1.402343,0.935546 -0.628474,0 -1.170659,-0.383279 -1.404297,-0.927734 -0.0074,0.02537 -0.02326,0.04636 -0.0293,0.07227 l -0.03906,0.01953 c -0.307998,0.154498 -0.58472,0.360809 -0.828125,0.599609 0.03467,0.0105 0.06994,0.01839 0.103516,0.03125 0.20618,-0.197122 0.432546,-0.373463 0.685547,-0.509765 -0.0082,0.06419 -0.01563,0.129256 -0.01563,0.191406 0,0.840053 0.687311,1.523437 1.527344,1.523437 0.840026,0 1.519531,-0.683384 1.519531,-1.523437 0,-0.06215 7.87e-4,-0.127216 -0.0078,-0.191406 0.252881,0.136305 0.478315,0.31277 0.683594,0.509765 0.03372,-0.01289 0.06869,-0.0227 0.103516,-0.0332 -0.242506,-0.23976 -0.518178,-0.447065 -0.826172,-0.601562 l -0.03906,-0.01953 c -0.0064,-0.02736 -0.02337,-0.04941 -0.03125,-0.07617 z M 30.721113,91.36539 c -0.857079,0 -1.626695,0.362319 -2.173828,0.9375 -0.157791,0.321823 -0.25369,0.67985 -0.253906,1.0625 -1.06e-4,0.172061 0.01882,0.339974 0.05273,0.501953 0.230757,-1.10076 1.205686,-1.928485 2.375,-1.927734 1.16665,0.0021 2.139967,0.827619 2.371094,1.925781 0.03385,-0.16172 0.05284,-0.32825 0.05273,-0.5 -2.17e-4,-0.387005 -0.100274,-0.74766 -0.261719,-1.072266 C 32.337563,91.723768 31.57287,91.36539 30.721113,91.36539 Z m -18.001953,1 v 1 h 3 v -1 z m 5,0 v 1 h 2.996094 v -1 z m 33.269531,0.875 c -0.18896,0.528937 -0.666182,0.918778 -1.246093,0.972656 l -0.01563,0.02734 c -0.194149,0.343708 -0.452596,0.638247 -0.75,0.888672 0.19004,0.0865 0.398973,0.138247 0.621094,0.138672 -0.294198,0.48834 -0.709809,0.887608 -1.210937,1.160156 -0.0063,-0.181452 -0.04854,-0.353645 -0.113281,-0.513672 -0.1847,0.604844 -0.741624,1.048828 -1.40625,1.048828 -0.668321,0 -1.228749,-0.44857 -1.410157,-1.058594 -0.06719,0.162691 -0.11071,0.338338 -0.117187,0.523438 -0.501148,-0.27239 -0.916744,-0.671102 -1.210938,-1.160156 0.223015,-4.34e-4 0.4337,-0.05173 0.625,-0.138672 -0.298038,-0.250221 -0.556117,-0.545407 -0.75,-0.888672 l -0.01172,-0.02734 c -0.579274,-0.0539 -1.059751,-0.442685 -1.25,-0.970703 -0.05718,0.156938 -0.08984,0.32506 -0.08984,0.501953 0,0.768734 0.589722,1.39895 1.339844,1.46875 l 0.01172,0.02734 c 0.317604,0.56231 0.792598,1.013616 1.367188,1.308594 l 0.02344,0.01563 c 0.04203,0.77724 0.684765,1.398437 1.472657,1.398437 0.787897,0 1.430376,-0.621197 1.472656,-1.398437 l 0.02344,-0.01563 c 0.574558,-0.29475 1.045645,-0.74628 1.363275,-1.30859 l 0.01563,-0.02734 c 0.750118,-0.06969 1.334837,-0.700016 1.335937,-1.46875 0,-0.177045 -0.03297,-0.346519 -0.08984,-0.503906 z m -5.427734,0.002 c -0.20808,0.593928 -0.768386,1.0241 -1.431641,1.025391 0.18833,0.31307 0.430559,0.584866 0.708985,0.814453 0.481113,-0.256673 0.814453,-0.756449 0.814453,-1.337891 0,-0.176965 -0.03607,-0.343817 -0.0918,-0.501953 z m 2.613281,0.002 c -0.05506,0.157637 -0.0918,0.323692 -0.0918,0.5 0,0.579883 0.328021,1.07862 0.804688,1.335938 0.278921,-0.229923 0.522345,-0.499455 0.710937,-0.8125 -0.661625,-0.0013 -1.216947,-0.430608 -1.423828,-1.023438 z m -37.429687,0.617094 c -0.01369,0.165314 -0.02539,0.331132 -0.02539,0.5 0,3.314048 2.68986,6.003906 6.003906,6.003906 3.314054,0 5.996094,-2.689858 5.996094,-6.003906 0,-0.168868 -0.01174,-0.334686 -0.02539,-0.5 -0.254349,3.079721 -2.825518,5.503906 -5.970705,5.503906 -3.145179,0 -5.72345,-2.424185 -5.978515,-5.503906 z m 17.02539,0 c -0.0277,0.163629 -0.05078,0.328437 -0.05078,0.5 0,1.65645 1.345493,3.003906 3.001953,3.003906 1.656456,0 2.998047,-1.347456 2.998047,-3.003906 0,-0.171563 -0.02314,-0.336371 -0.05078,-0.5 -0.100512,0.597456 -0.373678,1.131999 -0.771485,1.554687 -0.391799,0.81198 -1.214262,1.377184 -2.175781,1.378907 -0.966759,6.21e-4 -1.794976,-0.568875 -2.185547,-1.386719 -0.394504,-0.421465 -0.665477,-0.953193 -0.765626,-1.546875 z m 11.019531,2.003906 c -0.04163,0.160802 -0.07031,0.326116 -0.07031,0.5 0,1.105202 0.894802,2 2,2 0.09991,0 0.195049,-0.01517 0.291016,-0.0293 0.301404,-0.500844 0.813204,-0.853214 1.416015,-0.941406 0.181932,-0.301377 0.292969,-0.651529 0.292969,-1.029294 0,-0.173884 -0.02868,-0.339198 -0.07031,-0.5 -0.222989,0.861032 -0.998378,1.5 -1.929688,1.5 -0.931315,0 -1.7067,-0.638747 -1.929688,-1.5 z m 2,4 c -0.0415,0.1608 -0.07031,0.32612 -0.07031,0.5 0,1.10521 0.89166,2 1.996094,2 1.103872,0 2.003906,-0.89479 2.003906,-2 0,-0.17403 -0.03037,-0.33907 -0.07227,-0.5 -0.224272,0.86104 -1.001592,1.5 -1.93164,1.5 -0.930672,0 -1.703512,-0.63875 -1.925782,-1.5 z m -10.070312,2.5 a 3,3 0 0 0 -3,3 3,3 0 0 0 0.04297,0.48633 3,3 0 0 1 2.95703,-2.48633 3,3 0 0 1 2.957031,2.51367 3,3 0 0 0 0.04297,-0.51367 3,3 0 0 0 -3.000001,-3 z m 5.974609,3.49609 c -0.254783,3.0791 -2.830239,5.50391 -5.974609,5.50391 -3.144926,0 -5.719879,-2.4213 -5.974609,-5.5 -0.01368,0.1653 -0.02539,0.33117 -0.02539,0.5 0,3.31318 2.68622,6 6,6 3.313194,0 6,-2.69067 6,-6.00391 0,-0.16882 -0.01171,-0.33472 -0.02539,-0.5 z"
       id="path5-5" />
  </g>
</svg>
