<?xml version="1.0" encoding="UTF-8" standalone="no"?>
<svg
   width="62"
   height="62"
   version="1.1"
   id="svg29"
   sodipodi:docname="com.inventwithpython.flippy.svg"
   inkscape:version="1.4 (unknown)"
   xmlns:inkscape="http://www.inkscape.org/namespaces/inkscape"
   xmlns:sodipodi="http://sodipodi.sourceforge.net/DTD/sodipodi-0.dtd"
   xmlns:xlink="http://www.w3.org/1999/xlink"
   xmlns="http://www.w3.org/2000/svg"
   xmlns:svg="http://www.w3.org/2000/svg">
  <defs
     id="defs29">
    <linearGradient
       id="linearGradient29"
       inkscape:collect="always">
      <stop
         style="stop-color:#2d3d53;stop-opacity:1;"
         offset="0"
         id="stop29" />
      <stop
         style="stop-color:#354864;stop-opacity:1;"
         offset="1"
         id="stop30" />
    </linearGradient>
    <linearGradient
       inkscape:collect="always"
       xlink:href="#linearGradient29"
       id="linearGradient30"
       x1="30.782633"
       y1="60"
       x2="30.193521"
       y2="5"
       gradientUnits="userSpaceOnUse"
       gradientTransform="matrix(0.98214286,0,0,0.98245614,-0.42857152,-0.92982455)" />
    <linearGradient
       id="paint1_linear_11_148"
       x1="12.6932"
       y1="20.5312"
       x2="12.6932"
       y2="5.6079102"
       gradientUnits="userSpaceOnUse"
       gradientTransform="matrix(2.6803705,0,0,2.6803705,-3.022395,-3.5399929)">
      <stop
         stop-color="#FD5900"
         id="stop4" />
      <stop
         offset="1"
         stop-color="#FFDE00"
         id="stop5" />
    </linearGradient>
  </defs>
  <sodipodi:namedview
     id="namedview29"
     pagecolor="#ffffff"
     bordercolor="#000000"
     borderopacity="0.25"
     inkscape:showpageshadow="2"
     inkscape:pageopacity="0.0"
     inkscape:pagecheckerboard="0"
     inkscape:deskcolor="#d1d1d1"
     inkscape:zoom="10"
     inkscape:cx="23.35"
     inkscape:cy="30.65"
     inkscape:window-width="1920"
     inkscape:window-height="998"
     inkscape:window-x="0"
     inkscape:window-y="0"
     inkscape:window-maximized="1"
     inkscape:current-layer="svg29"
     showgrid="true">
    <inkscape:grid
       id="grid1"
       units="px"
       originx="0"
       originy="0"
       spacingx="1"
       spacingy="1"
       empcolor="#0099e5"
       empopacity="0.30196078"
       color="#0099e5"
       opacity="0.14901961"
       empspacing="5"
       enabled="true"
       visible="true" />
  </sodipodi:namedview>
  <rect
     style="opacity:0.2;stroke-width:0.9823"
     width="55"
     height="55.017544"
     x="3.5"
     y="3.9824562"
     ry="13.754386"
     id="rect1" />
  <rect
     style="fill:url(#linearGradient30);stroke-width:0.9823"
     width="55"
     height="55.017544"
     x="3.5"
     y="3"
     ry="13.754386"
     id="rect2" />
  <path
     style="opacity:0.1;fill:#ffffff;stroke-width:0.9823"
     d="M 17.25,3 C 9.6324999,3 3.4999999,9.1344561 3.4999999,16.754386 v 0.982456 c 0,-7.61993 6.1325,-13.7543858 13.7500001,-13.7543858 h 27.5 c 7.6175,0 13.75,6.1344558 13.75,13.7543858 V 16.754386 C 58.5,9.1344561 52.3675,3 44.75,3 Z"
     id="path28" />
  <rect
     style="fill:#37c871;stroke-width:1.01851"
     width="54.999992"
     height="54.999992"
     x="-58"
     y="-58.5"
     rx="13.754378"
     ry="13.5"
     transform="matrix(0,-1,-1,0,0,0)"
     id="rect2-3" />
  <rect
     style="opacity:0.1;stroke-width:1.01851"
     width="18.333334"
     height="54.999992"
     x="21.83333"
     y="3"
     id="rect3" />
  <rect
     style="opacity:0.1;stroke-width:1.01851"
     width="18.333332"
     height="54.999992"
     x="21.333328"
     y="-58.5"
     transform="rotate(90)"
     id="rect4" />
  <path
     style="opacity:0.1;stroke-width:1.01851"
     d="m 30.999999,7.593 a 5.0925922,5.0925916 0 0 0 -5.092595,5.092594 5.0925922,5.0925916 0 0 0 5.092595,5.092591 5.0925922,5.0925916 0 0 0 5.092589,-5.092591 A 5.0925922,5.0925916 0 0 0 30.999999,7.593 Z m 18.333333,0 a 5.0925922,5.0925916 0 0 0 -5.092595,5.092594 5.0925922,5.0925916 0 0 0 5.092595,5.092591 5.0925922,5.0925916 0 0 0 5.092591,-5.092591 A 5.0925922,5.0925916 0 0 0 49.333332,7.593 Z M 12.523436,7.8754821 a 4.9511314,4.951131 0 0 0 -4.9493609,4.9533399 4.9511314,4.951131 0 0 0 4.9493609,4.949363 4.9511314,4.951131 0 0 0 4.953342,-4.949363 4.9511314,4.951131 0 0 0 -4.953342,-4.9533399 z m 0.143231,18.0508489 a 5.0925922,5.0925916 0 0 0 -5.0925919,5.092591 5.0925922,5.0925916 0 0 0 5.0925919,5.092591 5.0925922,5.0925916 0 0 0 5.092591,-5.092591 5.0925922,5.0925916 0 0 0 -5.092591,-5.092591 z m 18.333332,0 a 5.0925922,5.0925916 0 0 0 -5.092595,5.092591 5.0925922,5.0925916 0 0 0 5.092595,5.092591 5.0925922,5.0925916 0 0 0 5.092589,-5.092591 5.0925922,5.0925916 0 0 0 -5.092589,-5.092591 z m 18.333333,0 a 5.0925922,5.0925916 0 0 0 -5.092595,5.092591 5.0925922,5.0925916 0 0 0 5.092595,5.092591 5.0925922,5.0925916 0 0 0 5.092591,-5.092591 5.0925922,5.0925916 0 0 0 -5.092591,-5.092591 z M 12.666667,44.259659 a 5.0925922,5.0925916 0 0 0 -5.0925919,5.092599 5.0925922,5.0925916 0 0 0 5.0925919,5.092579 5.0925922,5.0925916 0 0 0 5.092591,-5.092579 5.0925922,5.0925916 0 0 0 -5.092591,-5.092599 z m 18.333332,0 a 5.0925922,5.0925916 0 0 0 -5.092595,5.092599 5.0925922,5.0925916 0 0 0 5.092595,5.092579 5.0925922,5.0925916 0 0 0 5.092589,-5.092579 5.0925922,5.0925916 0 0 0 -5.092589,-5.092599 z m 18.333333,0 a 5.0925922,5.0925916 0 0 0 -5.092595,5.092599 5.0925922,5.0925916 0 0 0 5.092595,5.092579 5.0925922,5.0925916 0 0 0 5.092591,-5.092579 5.0925922,5.0925916 0 0 0 -5.092591,-5.092599 z"
     id="path4" />
  <ellipse
     style="fill:#ffffff;stroke-width:1.01851"
     cx="30.999994"
     cy="30.499992"
     id="circle4"
     rx="5.0925908"
     ry="5.0925913" />
  <ellipse
     style="fill:#ffffff;stroke-width:1.01851"
     cx="12.666665"
     cy="30.499992"
     id="circle5"
     rx="5.0925908"
     ry="5.0925913" />
  <ellipse
     style="fill:#2d3d53;stroke-width:1.01851;fill-opacity:1"
     cx="49.33334"
     cy="30.499992"
     id="circle6"
     rx="5.0925908"
     ry="5.0925913" />
  <ellipse
     style="fill:#ffffff;stroke-width:1.01851"
     cx="30.999994"
     cy="12.166672"
     id="circle7"
     rx="5.0925908"
     ry="5.0925913" />
  <ellipse
     style="fill:#ffffff;stroke-width:1.01851"
     cx="12.525091"
     cy="12.308219"
     id="circle8"
     rx="4.9510188"
     ry="4.9510183" />
  <ellipse
     style="fill:#ffffff;stroke-width:1.01851"
     cx="49.33334"
     cy="12.166672"
     id="circle9"
     rx="5.0925908"
     ry="5.0925913" />
  <ellipse
     style="fill:#2d3d53;stroke-width:1.01851;fill-opacity:1"
     cx="30.999994"
     cy="48.833359"
     id="circle10"
     rx="5.0925908"
     ry="5.0925913" />
  <ellipse
     style="fill:#2d3d53;stroke-width:1.01851;fill-opacity:1"
     cx="12.666665"
     cy="48.833359"
     id="circle11"
     rx="5.0925908"
     ry="5.0925913" />
  <ellipse
     style="fill:#ffffff;stroke-width:1.01851"
     cx="49.33334"
     cy="48.833359"
     id="circle12"
     rx="5.0925908"
     ry="5.0925913" />
  <rect
     style="opacity:0.1;stroke-width:1.01851"
     width="54.999992"
     height="1.0185182"
     x="3.5"
     y="21.333328"
     id="rect12" />
  <rect
     style="opacity:0.1;stroke-width:1.01851"
     width="54.999992"
     height="1.0185182"
     x="3.5"
     y="39.666656"
     id="rect13" />
</svg>
