<?xml version="1.0" encoding="UTF-8" standalone="no"?>
<svg
   width="62"
   height="62"
   version="1.1"
   id="svg29"
   sodipodi:docname="com.endlessm.HatchPreviewer.svg"
   inkscape:version="1.4 (unknown)"
   xmlns:inkscape="http://www.inkscape.org/namespaces/inkscape"
   xmlns:sodipodi="http://sodipodi.sourceforge.net/DTD/sodipodi-0.dtd"
   xmlns:xlink="http://www.w3.org/1999/xlink"
   xmlns="http://www.w3.org/2000/svg"
   xmlns:svg="http://www.w3.org/2000/svg">
  <defs
     id="defs29">
    <linearGradient
       id="linearGradient29"
       inkscape:collect="always">
      <stop
         style="stop-color:#2d3d53;stop-opacity:1;"
         offset="0"
         id="stop29" />
      <stop
         style="stop-color:#354864;stop-opacity:1;"
         offset="1"
         id="stop30" />
    </linearGradient>
    <linearGradient
       inkscape:collect="always"
       xlink:href="#linearGradient29"
       id="linearGradient30"
       x1="30.782633"
       y1="60"
       x2="30.193521"
       y2="5"
       gradientUnits="userSpaceOnUse"
       gradientTransform="matrix(0.98214286,0,0,0.98245614,-0.42857152,-0.92982455)" />
  </defs>
  <sodipodi:namedview
     id="namedview29"
     pagecolor="#ffffff"
     bordercolor="#000000"
     borderopacity="0.25"
     inkscape:showpageshadow="2"
     inkscape:pageopacity="0.0"
     inkscape:pagecheckerboard="0"
     inkscape:deskcolor="#d1d1d1"
     inkscape:zoom="7.0710678"
     inkscape:cx="20.435386"
     inkscape:cy="48.153972"
     inkscape:window-width="1920"
     inkscape:window-height="998"
     inkscape:window-x="0"
     inkscape:window-y="0"
     inkscape:window-maximized="1"
     inkscape:current-layer="svg29" />
  <rect
     style="opacity:0.2;stroke-width:0.9823"
     width="55"
     height="55.017544"
     x="3.5"
     y="3.9824562"
     ry="13.754386"
     id="rect1" />
  <rect
     style="fill:url(#linearGradient30);stroke-width:0.9823"
     width="55"
     height="55.017544"
     x="3.5"
     y="3"
     ry="13.754386"
     id="rect2" />
  <path
     style="opacity:0.1;fill:#ffffff;stroke-width:0.9823"
     d="M 17.25,3 C 9.6324999,3 3.4999999,9.1344561 3.4999999,16.754386 v 0.982456 c 0,-7.61993 6.1325,-13.7543858 13.7500001,-13.7543858 h 27.5 c 7.6175,0 13.75,6.1344558 13.75,13.7543858 V 16.754386 C 58.5,9.1344561 52.3675,3 44.75,3 Z"
     id="path28" />
  <g
     id="g1"
     transform="matrix(1.2419355,0,0,1.2413793,7.7903225,-71.413792)">
    <path
       style="opacity:0.2"
       d="M 19,69 A 14,14 0 0 0 5,83 14,14 0 0 0 19,97 14,14 0 0 0 30.908203,90.328125 L 19.7,83.125782 30.927343,75.691016 A 14,14 0 0 0 19,69 Z"
       id="path2-3" />
    <path
       style="fill:#ffc300;fill-opacity:1"
       d="M 19,68 A 14,14 0 0 0 5,82 14,14 0 0 0 19,96 14,14 0 0 0 30.908203,89.328125 L 19.7,82.125782 30.927343,74.691016 A 14,14 0 0 0 19,68 Z"
       id="path3" />
    <circle
       style="opacity:0.2"
       cx="33"
       cy="83"
       r="3"
       id="circle3" />
    <circle
       style="fill:#f58855;fill-opacity:1"
       cx="33"
       cy="82"
       r="3"
       id="circle4" />
    <path
       style="opacity:0.2;fill:#ffffff"
       d="M 19,68 A 14,14 0 0 0 5,82 14,14 0 0 0 5.021484,82.414062 14,14 0 0 1 19,69 14,14 0 0 1 30.457031,75.001953 l 0.470703,-0.310547 A 14,14 0 0 0 19,68 Z m 1.464844,14.617188 -0.765625,0.507812 10.732422,6.896484 a 14,14 0 0 0 0.476562,-0.693359 z"
       id="path5" />
    <path
       style="opacity:0.2;fill:#ffffff"
       d="m 33,79 a 3,3 0 0 0 -3,3 3,3 0 0 0 0.04297,0.513672 A 3,3 0 0 1 33,80 3,3 0 0 1 35.957031,82.486328 3,3 0 0 0 36,82 3,3 0 0 0 33,79 Z"
       id="path6" />
  </g>
</svg>
