<?xml version="1.0" encoding="UTF-8" standalone="no"?>
<svg
   width="62"
   height="62"
   version="1.1"
   id="svg5"
   sodipodi:docname="com.github.nick92.tranqil.svg"
   inkscape:version="1.4 (unknown)"
   xmlns:inkscape="http://www.inkscape.org/namespaces/inkscape"
   xmlns:sodipodi="http://sodipodi.sourceforge.net/DTD/sodipodi-0.dtd"
   xmlns="http://www.w3.org/2000/svg"
   xmlns:svg="http://www.w3.org/2000/svg">
  <defs
     id="defs5" />
  <sodipodi:namedview
     id="namedview5"
     pagecolor="#ffffff"
     bordercolor="#000000"
     borderopacity="0.25"
     inkscape:showpageshadow="2"
     inkscape:pageopacity="0.0"
     inkscape:pagecheckerboard="0"
     inkscape:deskcolor="#d1d1d1"
     inkscape:zoom="12.109375"
     inkscape:cx="32"
     inkscape:cy="31.091613"
     inkscape:window-width="1920"
     inkscape:window-height="998"
     inkscape:window-x="0"
     inkscape:window-y="0"
     inkscape:window-maximized="1"
     inkscape:current-layer="svg5" />
  <g
     transform="matrix(0.98214286,0,0,0.9824596,-0.42857147,-971.95577)"
     id="g5">
    <circle
       style="opacity:0.32"
       cx="32"
       cy="1021.362"
       r="28"
       id="circle1" />
    <path
       style="fill:#782144"
       d="m 60,1020.3622 c 0,4.0306 -0.851624,7.8622 -2.384748,11.3248 -4.348984,9.8224 -15.363826,12.3412 -26.797242,12.3412 -15.463975,0 -24.454035,-7.5454 -24.454035,-23.0094 0,-2.5188 -2.0313462,-5.6168 -1.4076116,-7.9388 3.205379,-11.9332 14.0986296,-20.7178 27.0436346,-20.7178 15.463974,0 28.000002,12.536 28.000002,28 z"
       id="path1" />
    <path
       style="opacity:0.1;fill:#ffffff"
       transform="translate(0,988.3622)"
       d="M 32,4 C 19.054995,4 8.16241,12.78555 4.957031,24.71875 4.8408586,25.15117 4.8450181,25.617495 4.8867188,26.095703 4.9047212,25.968629 4.9240424,25.841542 4.9570312,25.71875 8.1624103,13.78555 19.054995,5 32,5 47.240026,5 59.626575,17.177543 59.982422,32.332031 59.988839,32.221525 60,32.112098 60,32 60,16.536 47.463974,4 32,4 Z"
       id="path2" />
    <circle
       style="opacity:0.2"
       class="st11"
       cx="29"
       cy="1022.362"
       r="17"
       id="circle2" />
    <circle
       style="fill:#de87aa"
       class="st11"
       cx="29"
       cy="1021.362"
       r="17"
       id="circle3" />
    <path
       style="opacity:0.1;fill:#ffffff"
       transform="translate(0,988.3622)"
       d="M 29,16 A 17,17 0 0 0 12,33 17,17 0 0 0 12.017578,33.494141 17,17 0 0 1 29,17 17,17 0 0 1 45.974609,33.488281 17,17 0 0 0 46,33 17,17 0 0 0 29,16 Z"
       id="path3" />
    <path
       style="fill:#c83771"
       d="m 18.890625,1030.3622 8.753907,11.9102 c 0,0 4.56224,-0.2392 9.80078,1.8046 4.292828,-1.2318 10.403228,-0.2507 13.585938,-3.2109 0.1682,-0.1565 0.36781,-0.3327 0.542968,-0.4922 a 28,28 0 0 0 6.54297,-10.0117 z"
       id="path4" />
    <path
       style="fill:#2d3d53;fill-opacity:1"
       d="m 5.3261719,1011.8802 c -0.8754488,2.7424 -1.3227628,5.6034 -1.326172,8.482 1.2e-6,15.464 12.5360291,28 28.0000021,28 7.195594,0 14.113478,-2.778 19.31836,-7.7464 -3.183222,-0.166 -5.497228,-0.2536 -11.541796,-0.2536 -2.844446,0 -10.35508,1.9118 -13.15508,-3.4214 -2.17778,-4.2224 -6.131728,-7.602 -9.376172,-8.4466 -2.755556,-0.711 -3.512933,-3.3762 -3.735157,-6.5762 -0.266666,-3.3778 -2.977995,-3.466 -4.7113288,-5.6436 -1.3534756,-1.7672 -2.1351106,-3.6812 -3.4726563,-4.3942 z"
       id="path5" />
  </g>
</svg>
