<?xml version="1.0" encoding="UTF-8" standalone="no"?>
<svg
   width="62"
   height="62"
   version="1"
   id="svg8"
   sodipodi:docname="com.szibele.e-juice-calc.svg"
   inkscape:version="1.4 (unknown)"
   xmlns:inkscape="http://www.inkscape.org/namespaces/inkscape"
   xmlns:sodipodi="http://sodipodi.sourceforge.net/DTD/sodipodi-0.dtd"
   xmlns:xlink="http://www.w3.org/1999/xlink"
   xmlns="http://www.w3.org/2000/svg"
   xmlns:svg="http://www.w3.org/2000/svg">
  <defs
     id="defs8">
    <linearGradient
       id="linearGradient8"
       inkscape:collect="always">
      <stop
         style="stop-color:#2d3d53;stop-opacity:1;"
         offset="0"
         id="stop8" />
      <stop
         style="stop-color:#3f5574;stop-opacity:1;"
         offset="1"
         id="stop9" />
    </linearGradient>
    <linearGradient
       inkscape:collect="always"
       xlink:href="#linearGradient8"
       id="linearGradient9"
       x1="32"
       y1="60"
       x2="32"
       y2="19"
       gradientUnits="userSpaceOnUse" />
  </defs>
  <sodipodi:namedview
     id="namedview8"
     pagecolor="#ffffff"
     bordercolor="#000000"
     borderopacity="0.25"
     inkscape:showpageshadow="2"
     inkscape:pageopacity="0.0"
     inkscape:pagecheckerboard="0"
     inkscape:deskcolor="#d1d1d1"
     inkscape:zoom="12.109375"
     inkscape:cx="31.95871"
     inkscape:cy="32"
     inkscape:window-width="1920"
     inkscape:window-height="998"
     inkscape:window-x="0"
     inkscape:window-y="0"
     inkscape:window-maximized="1"
     inkscape:current-layer="svg8" />
  <g
     id="g8"
     transform="translate(-1,-2)">
    <rect
       style="opacity:0.2"
       width="34"
       height="42"
       x="15"
       y="19"
       rx="2.8329999"
       ry="2.8"
       id="rect1" />
    <path
       style="fill:#7a95b8;fill-opacity:1"
       d="M 33.375,13 C 32.61325,13 32,13.5575 32,14.25 v 2.5 1.25 h 1.375 8.25 H 43 v -1.25 -2.5 C 43,13.5575 42.38675,13 41.625,13 Z"
       id="path1" />
    <rect
       style="fill:#9cb0ca;fill-opacity:1"
       width="5"
       height="8"
       x="35"
       y="5"
       id="rect2" />
    <rect
       style="fill:url(#linearGradient9)"
       width="34"
       height="42"
       x="15"
       y="18"
       rx="2.8329999"
       ry="2.8"
       id="rect3" />
    <rect
       style="opacity:0.2;fill:#cdd7e4;fill-opacity:1"
       width="22"
       height="11"
       x="21"
       y="24"
       id="rect4" />
    <rect
       style="fill:#cdd7e4;fill-opacity:1"
       width="12"
       height="11"
       x="26"
       y="24"
       id="rect5" />
    <path
       style="fill:#5599ff"
       d="m 21.000001,28 v 7 H 43 v -7 z"
       id="path5" />
    <path
       style="opacity:0.1;fill:#ffffff"
       d="M 17.833984,18 C 16.264318,18 15,19.249581 15,20.800781 v 1 C 15,20.249581 16.264318,19 17.833984,19 H 46.166016 C 47.735682,19 49,20.249581 49,21.800781 v -1 C 49,19.249581 47.735682,18 46.166016,18 Z"
       id="path6" />
    <rect
       style="opacity:0.2"
       width="22"
       height="1"
       x="21"
       y="24"
       id="rect6" />
    <rect
       style="opacity:0.2;fill:#ffffff"
       width="22"
       height="1"
       x="21"
       y="28"
       id="rect7" />
    <rect
       style="opacity:0.2;fill:#ffffff"
       width="5"
       height="1"
       x="35"
       y="5"
       id="rect8" />
  </g>
</svg>
