<?xml version="1.0" encoding="UTF-8" standalone="no"?>
<svg
   width="62"
   height="62"
   version="1"
   id="svg7"
   sodipodi:docname="com.github.appadeia.Taigo.svg"
   inkscape:version="1.4.2 (unknown)"
   xmlns:inkscape="http://www.inkscape.org/namespaces/inkscape"
   xmlns:sodipodi="http://sodipodi.sourceforge.net/DTD/sodipodi-0.dtd"
   xmlns:xlink="http://www.w3.org/1999/xlink"
   xmlns="http://www.w3.org/2000/svg"
   xmlns:svg="http://www.w3.org/2000/svg">
  <defs
     id="defs7">
    <linearGradient
       id="linearGradient7"
       inkscape:collect="always">
      <stop
         style="stop-color:#384850;stop-opacity:1;"
         offset="0"
         id="stop8" />
      <stop
         style="stop-color:#7e4785;stop-opacity:0.99215686;"
         offset="0.59162253"
         id="stop10" />
      <stop
         style="stop-color:#eff2f6;stop-opacity:1;"
         offset="0.92173076"
         id="stop11" />
      <stop
         style="stop-color:#eff2f6;stop-opacity:1;"
         offset="1"
         id="stop9" />
    </linearGradient>
    <linearGradient
       id="c-3"
       gradientUnits="userSpaceOnUse"
       x1="24.072048"
       x2="23.959682"
       y1="0.75082099"
       y2="46.056854">
      <stop
         offset="0"
         stop-color="#fff"
         id="stop3" />
      <stop
         offset="1"
         stop-color="#d9d9d9"
         id="stop4" />
    </linearGradient>
    <linearGradient
       id="b-6"
       gradientUnits="userSpaceOnUse"
       x1="29.203026"
       x2="34.121048"
       xlink:href="#a-7"
       y1="24.827356"
       y2="29.224836" />
    <linearGradient
       id="a-7">
      <stop
         offset="0"
         id="stop1" />
      <stop
         offset="1"
         stop-opacity="0"
         id="stop2" />
    </linearGradient>
    <linearGradient
       id="d"
       gradientUnits="userSpaceOnUse"
       x1="15.948756"
       x2="25.031786"
       xlink:href="#a-7"
       y1="23.618279"
       y2="33.69899" />
    <linearGradient
       id="e"
       gradientUnits="userSpaceOnUse"
       x1="21.990562"
       x2="29.320522"
       xlink:href="#a-7"
       y1="33.780373"
       y2="41.931858" />
    <linearGradient
       id="paint154_linear_890_11"
       x1="778"
       y1="812.29199"
       x2="788"
       y2="812.29199"
       gradientUnits="userSpaceOnUse"
       gradientTransform="translate(-751,-696)">
      <stop
         stop-color="#EFF2F6"
         id="stop1050" />
      <stop
         offset="0.600785"
         stop-color="#B7C6CD"
         id="stop1051" />
    </linearGradient>
    <linearGradient
       id="paint155_linear_890_11"
       x1="783"
       y1="813"
       x2="783"
       y2="817"
       gradientUnits="userSpaceOnUse"
       gradientTransform="translate(-751,-696)">
      <stop
         stop-color="#EFF2F6"
         id="stop1052" />
      <stop
         offset="0.734138"
         stop-color="#B7C6CD"
         id="stop1053" />
    </linearGradient>
    <radialGradient
       id="paint156_radial_890_11"
       cx="0"
       cy="0"
       r="1"
       gradientUnits="userSpaceOnUse"
       gradientTransform="matrix(27.999986,27.999976,-27.999986,27.999976,32.302392,33.999998)">
      <stop
         offset="0.60067803"
         stop-color="#B7C6CD"
         id="stop1054"
         style="stop-color:#384850;stop-opacity:1;" />
      <stop
         offset="0.876735"
         stop-color="#EFF2F6"
         id="stop1055" />
    </radialGradient>
    <linearGradient
       id="paint157_linear_890_11"
       x1="796.84485"
       y1="799.43359"
       x2="768.90088"
       y2="770.81476"
       gradientUnits="userSpaceOnUse"
       gradientTransform="matrix(1.1666666,0,0,1.1666668,-881.19764,-881.8333)">
      <stop
         offset="0.00000057"
         stop-color="#2E2E41"
         id="stop1056"
         style="stop-color:#495361;stop-opacity:1;" />
      <stop
         offset="0.711139"
         stop-color="#566C80"
         id="stop1057" />
    </linearGradient>
    <linearGradient
       id="paint158_linear_890_11"
       x1="792"
       y1="794"
       x2="774"
       y2="776"
       gradientUnits="userSpaceOnUse"
       gradientTransform="translate(-751,-696)">
      <stop
         offset="0.304478"
         stop-color="#2E2E41"
         id="stop1058" />
      <stop
         offset="1"
         stop-color="#566C80"
         id="stop1059" />
    </linearGradient>
    <linearGradient
       id="paint159_linear_890_11"
       x1="788"
       y1="790"
       x2="778"
       y2="780"
       gradientUnits="userSpaceOnUse"
       gradientTransform="translate(-751,-696)">
      <stop
         offset="0.391394"
         stop-color="#5200FF"
         id="stop1060" />
      <stop
         offset="1"
         stop-color="#0085FF"
         id="stop1061" />
    </linearGradient>
    <linearGradient
       id="paint160_linear_890_11"
       x1="784"
       y1="798"
       x2="782"
       y2="796"
       gradientUnits="userSpaceOnUse"
       gradientTransform="translate(-751,-696)">
      <stop
         stop-color="#FF7E07"
         id="stop1062" />
      <stop
         offset="1"
         stop-color="#FFE607"
         id="stop1063" />
    </linearGradient>
    <radialGradient
       inkscape:collect="always"
       xlink:href="#linearGradient7"
       id="radialGradient9"
       cx="32.302387"
       cy="34"
       fx="32.302387"
       fy="34"
       r="28"
       gradientUnits="userSpaceOnUse"
       gradientTransform="matrix(0.99999999,1,-1,0.99999999,34,-32.302387)" />
    <linearGradient
       inkscape:collect="always"
       xlink:href="#linearGradient933"
       id="linearGradient935"
       x1="63.855331"
       y1="122.63078"
       x2="63.855331"
       y2="15.286823"
       gradientUnits="userSpaceOnUse"
       gradientTransform="matrix(0.39895775,0,0,0.39895809,11.857905,45.742507)" />
    <linearGradient
       inkscape:collect="always"
       id="linearGradient933">
      <stop
         style="stop-color:#393f4a;stop-opacity:1;"
         offset="0"
         id="stop929" />
      <stop
         style="stop-color:#6f7c91;stop-opacity:1"
         offset="1"
         id="stop931" />
    </linearGradient>
    <linearGradient
       id="paint0_linear_54_1196"
       x1="64"
       y1="120"
       x2="64"
       y2="8"
       gradientUnits="userSpaceOnUse"
       gradientTransform="matrix(0.28571429,0,0,0.28571429,12.714302,12.714286)">
      <stop
         stop-color="#5570FF"
         id="stop2-6" />
      <stop
         offset="1"
         stop-color="#4DD3FF"
         id="stop3-8" />
    </linearGradient>
  </defs>
  <sodipodi:namedview
     id="namedview7"
     pagecolor="#ffffff"
     bordercolor="#000000"
     borderopacity="0.25"
     inkscape:showpageshadow="2"
     inkscape:pageopacity="0.0"
     inkscape:pagecheckerboard="0"
     inkscape:deskcolor="#d1d1d1"
     inkscape:zoom="8.3306018"
     inkscape:cx="32.110525"
     inkscape:cy="42.553949"
     inkscape:window-width="1920"
     inkscape:window-height="998"
     inkscape:window-x="0"
     inkscape:window-y="0"
     inkscape:window-maximized="1"
     inkscape:current-layer="svg7" />
  <g
     id="g1"
     transform="translate(-1.3023872,-3)">
    <path
       d="m 60.302387,34 c 0,15.46415 -12.535828,28 -28.000002,28 C 16.838222,62 4.3023873,49.46415 4.3023873,34 4.3023873,18.535835 16.838222,6 32.302385,6 47.766559,6 60.302387,18.535835 60.302387,34 Z"
       id="path154"
       style="fill:url(#radialGradient9)" />
  </g>
  <g
     id="g2"
     transform="translate(-6.3334846,-40.333549)">
    <circle
       style="fill:url(#linearGradient935);fill-opacity:1;stroke:none;stroke-width:0.604378;stroke-linecap:round;stroke-miterlimit:4;stroke-dasharray:none;stroke-opacity:1"
       id="path1096"
       cx="37.333485"
       cy="71.333549"
       r="23.3335" />
    <g
       id="g1009"
       transform="matrix(1.0617363,0,0,1.0617371,26.342866,223.78528)" />
  </g>
  <g
     id="g3"
     transform="matrix(1.2300288,0,0,1.2250691,-8.9219933,-56.778347)">
    <path
       style="fill:#fdfdfd;fill-opacity:1;fill-rule:nonzero;stroke:none;stroke-width:0.242333"
       d="m 45.202661,74.41733 c 0,6.95951 -5.641821,12.601331 -12.60133,12.601331 C 25.641821,87.018661 20,81.37684 20,74.41733 20,64.723999 25.641821,56 32.601331,56 c 6.959509,0 12.60133,8.723999 12.60133,18.41733 z m 0,0"
       id="path29" />
    <path
       style="fill:#e0cbe3;fill-opacity:0.992157;fill-rule:nonzero;stroke:none;stroke-width:0.242333"
       d="m 43.627495,74.053831 c 0,6.08957 -4.936594,11.026163 -11.026164,11.026163 -6.089571,0 -11.026165,-4.936593 -11.026165,-11.026163 0,-8.481666 4.936594,-16.115164 11.026165,-16.115164 6.08957,0 11.026164,7.633498 11.026164,16.115164 z m 0,0"
       id="path31" />
    <path
       style="fill:#b27dba;fill-opacity:0.992157;fill-rule:nonzero;stroke:none;stroke-width:0.242333"
       d="M 26.785332,63.754665 H 38.41733 c 0.535783,0 0.969333,0.43355 0.969333,0.969334 v 11.631998 c 0,0.535784 -0.43355,0.969333 -0.969333,0.969333 H 26.785332 c -0.535784,0 -0.969333,-0.433549 -0.969333,-0.969333 V 64.723999 c 0,-0.535784 0.433549,-0.969334 0.969333,-0.969334 z m 0,0"
       id="path33" />
    <path
       style="fill:#fdfdfd;fill-opacity:1;fill-rule:nonzero;stroke:none;stroke-width:0.242333"
       d="m 24.846665,80.778579 c -3.97578,2.190465 3.828109,4.600547 5.664541,4.967832 2.42144,0.484667 7.112861,0.06626 8.875457,-1.696333 0.245173,-0.245173 2.436585,-2.628749 1.635749,-3.029166 -2.35423,-1.177588 -13.068958,-0.242333 -16.175747,-0.242333 z m 0,0"
       id="path35" />
    <path
       style="fill:#b27dba;fill-opacity:0.992157;fill-rule:nonzero;stroke:none;stroke-width:0.242333"
       d="m 27.269999,81.444995 c -0.709014,9.38e-4 -1.313901,0.513066 -1.432228,1.211667 h -0.02177 v 0.242333 c 0,0.802729 0.651271,1.454 1.453999,1.454 0.802729,0 1.453999,-0.651271 1.453999,-1.454 v -0.242333 h -0.02082 c -0.11833,-0.699549 -0.724163,-1.211667 -1.433176,-1.211667 z m 0,0"
       id="path37" />
    <path
       style="fill:#fdfdfd;fill-opacity:1;fill-rule:nonzero;stroke:none;stroke-width:0.242333"
       d="m 21.938666,81.217808 5.331333,-1.938666 5.331332,1.938666"
       id="path39" />
    <path
       style="fill:#b27dba;fill-opacity:0.992157;fill-rule:nonzero;stroke:none;stroke-width:0.242333"
       d="m 32.601331,82.414328 c -0.709014,9.38e-4 -1.313901,0.513066 -1.432228,1.211667 h -0.02177 v 0.242333 c 0,0.802729 0.651271,1.454 1.454,1.454 0.802729,0 1.454,-0.651271 1.454,-1.454 v -0.242333 h -0.02082 c -0.118335,-0.699548 -0.724168,-1.211667 -1.433182,-1.211667 z m 0,0"
       id="path43" />
    <path
       style="fill:#b27dba;fill-opacity:0.992157;fill-rule:nonzero;stroke:none;stroke-width:0.242333"
       d="m 37.932663,81.444995 c -0.709014,9.38e-4 -1.313901,0.513066 -1.432228,1.211667 h -0.02177 v 0.242333 c 0,0.802729 0.651271,1.454 1.454,1.454 0.802729,0 1.454,-0.651271 1.454,-1.454 v -0.242333 h -0.02082 c -0.118332,-0.699549 -0.724165,-1.211667 -1.43318,-1.211667 z m 0,0"
       id="path47" />
    <path
       style="fill:#fdfdfd;fill-opacity:1;fill-rule:nonzero;stroke:none;stroke-width:0.242333"
       d="m 27.269999,81.202662 5.331332,-1.938666 5.331332,1.938666"
       id="path51" />
    <path
       style="fill:#fdfdfd;fill-opacity:1;fill-rule:nonzero;stroke:none;stroke-width:0.242333"
       d="m 32.601331,81.202662 5.331332,-1.938666 5.331332,1.938666"
       id="path53" />
  </g>
</svg>
