<?xml version="1.0" encoding="UTF-8" standalone="no"?>
<svg
   width="62"
   height="62"
   version="1.1"
   id="svg10"
   sodipodi:docname="com.github.elfenware.obliviate.svg"
   inkscape:version="1.4.2 (unknown)"
   xmlns:inkscape="http://www.inkscape.org/namespaces/inkscape"
   xmlns:sodipodi="http://sodipodi.sourceforge.net/DTD/sodipodi-0.dtd"
   xmlns="http://www.w3.org/2000/svg"
   xmlns:svg="http://www.w3.org/2000/svg">
  <defs
     id="defs10" />
  <sodipodi:namedview
     id="namedview10"
     pagecolor="#ffffff"
     bordercolor="#000000"
     borderopacity="0.25"
     inkscape:showpageshadow="2"
     inkscape:pageopacity="0.0"
     inkscape:pagecheckerboard="0"
     inkscape:deskcolor="#d1d1d1"
     showgrid="true"
     inkscape:zoom="8.4300387"
     inkscape:cx="46.381756"
     inkscape:cy="26.512334"
     inkscape:current-layer="svg10">
    <inkscape:grid
       id="grid10"
       units="px"
       originx="0"
       originy="0"
       spacingx="1"
       spacingy="1"
       empcolor="#0099e5"
       empopacity="0.30196078"
       color="#0099e5"
       opacity="0.14901961"
       empspacing="5"
       enabled="true"
       visible="true" />
  </sodipodi:namedview>
  <g
     id="g10"
     transform="translate(-0.5,-1)">
    <ellipse
       style="opacity:0.2;stroke-width:0.982303"
       cx="31.499998"
       cy="32.491234"
       id="circle1"
       rx="27.499998"
       ry="27.508766" />
    <ellipse
       style="fill:#e5e5e5;stroke-width:0.982303;fill-opacity:1"
       cx="31.499998"
       cy="31.508766"
       id="circle2"
       rx="27.499998"
       ry="27.508766" />
    <path
       style="opacity:0.2;fill:#ffffff;stroke-width:0.982303"
       d="M 31.5,4 A 27.5,27.508768 0 0 0 4,31.508768 27.5,27.508768 0 0 0 4.0211163,32.084488 27.5,27.508768 0 0 1 31.5,4.982456 27.5,27.508768 0 0 1 58.979375,31.915506 27.5,27.508768 0 0 0 59,31.508768 27.5,27.508768 0 0 0 31.5,4 Z"
       id="path2" />
    <path
       style="opacity:0.2;stroke-width:0.982303"
       d="m 14.803573,26.59649 a 5.8928571,5.894736 0 0 0 -5.8928587,5.894734 5.8928571,5.894736 0 0 0 5.8928587,5.894736 5.8928571,5.894736 0 0 0 5.892854,-5.894736 5.8928571,5.894736 0 0 0 -5.892854,-5.894734 z m 16.696427,0 A 5.8928571,5.894736 0 0 0 25.607143,32.491224 5.8928571,5.894736 0 0 0 31.5,38.38596 5.8928571,5.894736 0 0 0 37.392857,32.491224 5.8928571,5.894736 0 0 0 31.5,26.59649 Z m 16.696429,0 a 5.8928571,5.894736 0 0 0 -5.892858,5.894734 5.8928571,5.894736 0 0 0 5.892858,5.894736 5.8928571,5.894736 0 0 0 5.892857,-5.894736 5.8928571,5.894736 0 0 0 -5.892857,-5.894734 z"
       id="path3" />
    <ellipse
       style="fill:#373e48;stroke-width:0.982303"
       cx="14.80357"
       cy="31.508766"
       id="circle3"
       rx="5.8928576"
       ry="5.8947363" />
    <ellipse
       style="fill:#bfbfbf;stroke-width:0.982303;fill-opacity:1"
       cx="48.196419"
       cy="31.508766"
       id="circle4"
       rx="5.8928576"
       ry="5.8947363" />
    <path
       style="fill:#bfbfbf;stroke-width:0.982303;fill-opacity:1"
       d="m 27.333121,35.676976 a 5.8928546,5.8947335 0 0 0 8.333758,0 5.8928546,5.8947335 0 0 0 0,-8.336416 z"
       id="path4" />
    <path
       style="fill:#373e48;stroke-width:0.982303"
       d="m 27.333121,35.676976 8.333758,-8.336416 a 5.8928546,5.8947335 0 0 0 -8.333758,0 5.8928546,5.8947335 0 0 0 0,8.336416 z"
       id="path5" />
    <path
       style="opacity:0.2;fill:#ffffff;stroke-width:0.982303"
       d="m 48.196429,25.614032 c -3.254535,0 -5.892858,2.639164 -5.892858,5.894736 0.0026,0.158923 0.0115,0.317679 0.02683,0.475877 0.262655,-3.045967 2.809706,-5.385535 5.866006,-5.388155 3.067933,0.0019 5.621168,2.358124 5.869836,5.416938 0.01485,-0.167814 0.02256,-0.336188 0.02303,-0.50466 0,-3.255572 -2.638323,-5.894736 -5.892858,-5.894736 z"
       id="path6" />
    <path
       style="opacity:0.1;fill:#ffffff;stroke-width:0.982303"
       d="m 14.803573,25.614032 c -3.254538,0 -5.8928587,2.639164 -5.8928587,5.894736 0.00258,0.158923 0.011492,0.317679 0.026855,0.475877 0.2626496,-3.045967 2.8097007,-5.385535 5.8660037,-5.388155 3.067932,0.0019 5.621167,2.358124 5.869835,5.416938 0.01485,-0.167814 0.02256,-0.336188 0.02303,-0.50466 0,-3.255572 -2.638321,-5.894736 -5.892854,-5.894736 z m 16.696427,0 c -3.254534,0 -5.892857,2.639164 -5.892857,5.894736 0.0026,0.158923 0.0115,0.317679 0.02683,0.475877 0.262658,-3.045967 2.809704,-5.385535 5.866006,-5.388155 3.067936,0.0019 5.621169,2.358124 5.869838,5.416938 0.01485,-0.167814 0.02256,-0.336188 0.02303,-0.50466 0,-3.255572 -2.638323,-5.894736 -5.892856,-5.894736 z"
       id="path7" />
    <path
       style="opacity:0.2;stroke-width:0.982303"
       d="M 6.9464286,59.999992 4,57.052624 59,5.964912 56.053571,11.85965 Z"
       id="path8" />
    <path
       style="fill:#6c5d53;stroke-width:0.982303"
       d="M 6.9464286,59.017536 4,56.070168 59,4.982456 56.053571,10.87719 Z"
       id="path9" />
    <path
       style="opacity:0.1;fill:#ffffff;stroke-width:0.982303"
       d="M 59,4.982456 4,56.070168 4.508336,56.578666 58.083078,6.8168855 Z"
       id="path10" />
  </g>
</svg>
