<?xml version="1.0" encoding="UTF-8" standalone="no"?>
<svg
   width="62"
   height="62"
   viewBox="0 0 62 62"
   version="1.1"
   id="svg27"
   sodipodi:docname="com.github.artemanufrij.findfileconflicts.svg"
   inkscape:version="1.4.2 (unknown)"
   xmlns:inkscape="http://www.inkscape.org/namespaces/inkscape"
   xmlns:sodipodi="http://sodipodi.sourceforge.net/DTD/sodipodi-0.dtd"
   xmlns:xlink="http://www.w3.org/1999/xlink"
   xmlns="http://www.w3.org/2000/svg"
   xmlns:svg="http://www.w3.org/2000/svg">
  <sodipodi:namedview
     id="namedview27"
     pagecolor="#ffffff"
     bordercolor="#000000"
     borderopacity="0.25"
     inkscape:showpageshadow="2"
     inkscape:pageopacity="0.0"
     inkscape:pagecheckerboard="0"
     inkscape:deskcolor="#d1d1d1"
     showgrid="true"
     inkscape:zoom="8.4300387"
     inkscape:cx="26.512334"
     inkscape:cy="36.713948"
     inkscape:current-layer="svg27">
    <inkscape:grid
       id="grid27"
       units="px"
       originx="0"
       originy="0"
       spacingx="1"
       spacingy="1"
       empcolor="#0099e5"
       empopacity="0.30196078"
       color="#0099e5"
       opacity="0.14901961"
       empspacing="5"
       enabled="true"
       visible="true" />
  </sodipodi:namedview>
  <defs
     id="defs8">
    <linearGradient
       id="linearGradient27"
       inkscape:collect="always">
      <stop
         style="stop-color:#ff9c59;stop-opacity:1;"
         offset="0"
         id="stop27" />
      <stop
         style="stop-color:#ff9955;stop-opacity:1"
         offset="1"
         id="stop28" />
    </linearGradient>
    <linearGradient
       id="linear0"
       gradientUnits="userSpaceOnUse"
       x1="8.4666662"
       y1="-199.125"
       x2="8.4666662"
       y2="-213.94167"
       gradientTransform="matrix(3.779528,0,0,3.779528,0,812.59847)">
      <stop
         offset="0"
         style="stop-color:rgb(0%,0%,0%);stop-opacity:0.2;"
         id="stop1" />
      <stop
         offset="1"
         style="stop-color:rgb(100%,100%,100%);stop-opacity:0;"
         id="stop2" />
    </linearGradient>
    <linearGradient
       id="linear1"
       gradientUnits="userSpaceOnUse"
       x1="8.4666662"
       y1="-199.125"
       x2="8.4666662"
       y2="-213.94167"
       gradientTransform="matrix(3.779528,0,0,3.779528,0,812.59847)">
      <stop
         offset="0"
         style="stop-color:rgb(0%,0%,0%);stop-opacity:0.2;"
         id="stop3" />
      <stop
         offset="1"
         style="stop-color:rgb(100%,100%,100%);stop-opacity:0;"
         id="stop4" />
    </linearGradient>
    <linearGradient
       id="linear2"
       gradientUnits="userSpaceOnUse"
       x1="5.5511398"
       y1="-199.12381"
       x2="20.367807"
       y2="-199.12381"
       gradientTransform="matrix(0,-3.779528,-3.779528,0,-720.59399,80.980719)">
      <stop
         offset="0"
         style="stop-color:rgb(0%,0%,0%);stop-opacity:0.2;"
         id="stop5" />
      <stop
         offset="1"
         style="stop-color:rgb(100%,100%,100%);stop-opacity:0;"
         id="stop6" />
    </linearGradient>
    <linearGradient
       id="linear3"
       gradientUnits="userSpaceOnUse"
       x1="21.062702"
       y1="72.81855"
       x2="42.93729"
       y2="-8.8185244"
       gradientTransform="matrix(0.640012,-0.171491,0.171491,0.640012,6.031911,17.007298)">
      <stop
         offset="0"
         style="stop-color:rgb(0%,0%,0%);stop-opacity:0.2;"
         id="stop7" />
      <stop
         offset="1"
         style="stop-color:rgb(100%,100%,100%);stop-opacity:0;"
         id="stop8" />
    </linearGradient>
    <linearGradient
       inkscape:collect="always"
       xlink:href="#linearGradient27"
       id="linearGradient28"
       x1="32.009766"
       y1="61.5"
       x2="32.009766"
       y2="5.0191131"
       gradientUnits="userSpaceOnUse" />
  </defs>
  <g
     id="surface1"
     transform="matrix(0.98152667,0,0,0.97378074,-0.41843899,-0.88751578)">
    <path
       style="fill:#ff6e42;fill-opacity:1;fill-rule:nonzero;stroke:none"
       d="M 32,3.992188 C 47.464844,3.992188 60.003906,16.53125 60.003906,32 60.003906,47.464844 47.464844,60.003906 32,60.003906 16.53125,60.003906 3.992188,47.464844 3.992188,32 3.992188,16.53125 16.53125,3.992188 32,3.992188 Z m 0,0"
       id="path8" />
    <path
       style="fill:#ffffff;fill-opacity:0.4;fill-rule:nonzero;stroke:none"
       d="M 32,4 C 16.539062,4 4,16.535156 4,32 4,32.164062 4.00391,32.332031 4.00781,32.5 4.273438,17.265625 16.703125,5 32,5 47.296875,5 59.726562,17.265625 59.992188,32.5 59.996094,32.332031 60,32.164062 60,32 60,16.535156 47.460938,4 32,4 Z m 0,0"
       id="path9" />
    <path
       style="fill:#000000;fill-opacity:0.4;fill-rule:nonzero;stroke:none"
       d="M 4.015625,31.492188 C 4.011719,31.660156 4,31.824219 4,31.988281 c 0,15.464844 12.539062,28 28,28 15.460938,0 27.996094,-12.535156 27.996094,-28 0,-0.164062 -0.0078,-0.328125 -0.01172,-0.496093 C 59.71875,46.726562 47.296875,58.996094 32,58.996094 16.703125,58.996094 4.28125,46.726562 4.015625,31.492188 Z m 0,0"
       id="path10" />
    <path
       style="fill:#000000;fill-opacity:0.2;fill-rule:nonzero;stroke:none"
       d="M 4.015625,32.75 C 4.007812,33 4,33.25 4,33.5 c 0,15.460938 12.539062,28 28,28 15.460938,0 28,-12.539062 28,-28 C 60,33.25 59.9922,33 59.98437,32.75 59.585938,47.863281 47.210938,59.996094 32,59.996094 16.789062,59.996094 4.414062,47.863281 4.015625,32.75 Z m 0,0"
       id="path11" />
    <path
       d="M 32,4 C 47.460938,4 60,16.535156 60,32 60,47.460938 47.460938,59.996094 32,59.996094 16.539062,59.996094 4,47.460938 4,32 4,16.535156 16.539062,4 32,4 Z m 0,0"
       id="path12"
       style="fill:url(#linearGradient28)" />
    <path
       style="fill:#616161;fill-opacity:1;fill-rule:nonzero;stroke:none"
       d="M 4,35.996094 C 4,37.105469 4.894531,38 6.003906,38 h 15.023438 v 4.371094 c 0,0.582031 0.714844,0.859375 1.105468,0.429687 l 9.410157,-9.601562 c 0.628906,-0.683594 0.648437,-1.753907 0,-2.414063 L 22.132812,21.179688 C 21.742188,20.75 21.027344,21.027344 21.027344,21.609375 v 4.371094 H 6.003906 C 4.894531,25.980469 4,26.875 4,27.984375 Z m 0,0"
       id="path13" />
    <path
       style="fill:#373e48;fill-rule:nonzero;stroke:none"
       d="M 4,35.996094 C 4,37.105469 4.894531,38 6.003906,38 h 15.023438 v 4.371094 c 0,0.582031 0.714844,0.859375 1.105468,0.429687 l 9.410157,-9.601562 c 0.628906,-0.683594 0.648437,-1.753907 0,-2.414063 L 22.132812,21.179688 C 21.742188,20.75 21.027344,21.027344 21.027344,21.609375 v 4.371094 H 6.003906 C 4.894531,25.980469 4,26.875 4,27.984375 Z m 0,0"
       id="path14" />
    <path
       style="fill:#eeeeee;fill-opacity:1;fill-rule:nonzero;stroke:none"
       d="M 60.027344,35.996094 C 60.027344,37.105469 59.132812,38 58.023438,38 H 43 v 4.371094 c 0,0.582031 -0.714844,0.859375 -1.105469,0.429687 l -9.410156,-9.601562 c -0.628906,-0.683594 -0.648437,-1.753907 0,-2.414063 l 9.410156,-9.605468 C 42.285156,20.75 43,21.027344 43,21.609375 v 4.371094 h 15.023438 c 1.109374,0 2.003906,0.894531 2.003906,2.003906 z m 0,0"
       id="path15" />
    <path
       style="fill:#f2f2f2;fill-rule:nonzero;stroke:none;fill-opacity:1"
       d="M 60.027344,35.996094 C 60.027344,37.105469 59.132812,38 58.023438,38 H 43 v 4.371094 c 0,0.582031 -0.714844,0.859375 -1.105469,0.429687 l -9.410156,-9.601562 c -0.628906,-0.683594 -0.648437,-1.753907 0,-2.414063 l 9.410156,-9.605468 C 42.285156,20.75 43,21.027344 43,21.609375 v 4.371094 h 15.023438 c 1.109374,0 2.003906,0.894531 2.003906,2.003906 z m 0,0"
       id="path16" />
    <path
       style="fill:#ffffff;fill-opacity:0.4;fill-rule:nonzero;stroke:none"
       d="m 21.703125,20.96875 c -0.339844,-0.01563 -0.675781,0.242188 -0.675781,0.640625 V 22.625 c 0,-0.578125 0.714844,-0.855469 1.105468,-0.425781 l 9.414063,9.601562 c 0.191406,0.199219 0.324219,0.433594 0.398437,0.683594 0.171876,-0.585937 0.05078,-1.242187 -0.398437,-1.703125 L 22.132812,21.175781 C 22.011719,21.042969 21.855469,20.980469 21.703125,20.96875 Z M 6.003906,25.980469 C 4.894531,25.980469 4,26.875 4,27.984375 v 1.019531 C 4,27.894531 4.894531,27 6.003906,27 h 15.023438 v -1.019531 z m 0,0"
       id="path17" />
    <path
       style="fill:#000000;fill-opacity:0.4;fill-rule:nonzero;stroke:none"
       d="m 31.945312,32.5 c -0.07422,0.25 -0.207031,0.484375 -0.398437,0.683594 l -9.414063,9.601562 C 21.742188,43.214844 21.027344,42.9375 21.027344,42.359375 V 43.375 c 0,0.398438 0.335937,0.65625 0.675781,0.640625 0.152344,-0.01172 0.308594,-0.07422 0.429687,-0.207031 l 9.414063,-9.605469 C 31.996094,33.742188 32.117188,33.085938 31.945312,32.5 Z m -27.4375,4.8125 c 0.082032,0.433594 0.175782,0.859375 0.277344,1.28125 0.335938,0.257812 0.761719,0.410156 1.21875,0.410156 H 21.027344 V 37.984375 H 6.003906 C 5.40625,37.984375 4.875,37.726562 4.507812,37.3125 Z m 0,0"
       id="path18" />
    <path
       style="fill:#ffffff;fill-opacity:0.6;fill-rule:nonzero;stroke:none"
       d="m 42.304688,20.972656 c 0.339843,-0.01953 0.675781,0.238282 0.675781,0.636719 V 22.625 c 0,-0.578125 -0.714844,-0.855469 -1.105469,-0.425781 l -9.414062,9.601562 C 32.269531,32 32.136719,32.234375 32.0625,32.484375 31.890625,31.898438 32.011719,31.242188 32.460938,30.78125 L 41.875,21.179688 c 0.121094,-0.136719 0.277344,-0.199219 0.429688,-0.210938 z m 15.699218,5.007813 c 1.109375,0 2.003906,0.894531 2.003906,2.003906 v 1.019531 C 60.007812,27.894531 59.113281,27 58.003906,27 H 42.980469 v -1.019531 z m 0,0"
       id="path19" />
    <path
       style="fill:#000000;fill-opacity:0.4;fill-rule:nonzero;stroke:none"
       d="m 32.0625,32.5 c 0.07422,0.25 0.207031,0.484375 0.398438,0.683594 L 41.875,42.789062 c 0.390625,0.425782 1.105469,0.148438 1.105469,-0.429687 V 43.375 c 0,0.398438 -0.335938,0.65625 -0.675781,0.636719 -0.152344,-0.0039 -0.308594,-0.07031 -0.429688,-0.207031 L 32.460938,34.199219 C 32.011719,33.742188 31.890625,33.085938 32.0625,32.5 Z M 59.5,37.3125 c -0.08203,0.433594 -0.175781,0.859375 -0.277344,1.28125 -0.335937,0.257812 -0.761718,0.410156 -1.21875,0.410156 H 42.980469 v -1.019531 h 15.023437 c 0.597656,0 1.128906,-0.257813 1.496094,-0.671875 z m 0,0"
       id="path20" />
    <path
       style="fill:#ffa623;fill-opacity:1;fill-rule:nonzero;stroke:none"
       d="m 36.242188,24.652344 c -0.01563,-0.01172 -0.355469,4.386718 -0.367188,4.371094 -0.0078,-0.01172 4.324219,0.796874 4.320312,0.78125 -0.0039,-0.01953 -3.351562,2.851562 -3.351562,2.832031 0.0039,-0.01563 2.496094,3.621093 2.503906,3.605469 0.01172,-0.01563 -4.386718,-0.355469 -4.371094,-0.367188 0.01172,-0.0078 -0.796874,4.324219 -0.78125,4.320312 0.01953,-0.0039 -2.851562,-3.351562 -2.832031,-3.351562 0.01563,0.0039 -3.621093,2.496094 -3.605469,2.503906 0.01563,0.01172 0.355469,-4.386718 0.367188,-4.371094 0.0078,0.01172 -4.324219,-0.796874 -4.320312,-0.78125 0.0039,0.01953 3.351562,-2.851562 3.351562,-2.832031 -0.0039,0.01563 -2.496094,-3.621093 -2.503906,-3.605469 -0.01172,0.01563 4.386718,0.355469 4.371094,0.367188 -0.01172,0.0078 0.796874,-4.324219 0.78125,-4.320312 -0.01953,0.0039 2.851562,3.351562 2.832031,3.351562 -0.01563,-0.0039 3.621093,-2.496094 3.605469,-2.503906 z m 0,0"
       id="path21" />
    <path
       style="fill:#f34235;fill-opacity:1;fill-rule:nonzero;stroke:none"
       d="m 34.476562,27.714844 c -0.01172,-0.0078 -0.207031,2.558594 -0.214843,2.550781 -0.0078,-0.0078 2.523437,0.464844 2.519531,0.453125 -0.0039,-0.01172 -1.957031,1.664062 -1.957031,1.652344 0.0039,-0.0078 1.457031,2.113281 1.460937,2.105468 0.0078,-0.01172 -2.558594,-0.207031 -2.550781,-0.214843 0.0078,-0.0078 -0.464844,2.523437 -0.453125,2.519531 0.01172,-0.0039 -1.664062,-1.957031 -1.652344,-1.957031 0.0078,0.0039 -2.113281,1.457031 -2.105468,1.460937 0.01172,0.0078 0.207031,-2.558594 0.214843,-2.550781 0.0078,0.0078 -2.523437,-0.464844 -2.519531,-0.453125 0.0039,0.01172 1.957031,-1.664062 1.957031,-1.652344 -0.0039,0.0078 -1.457031,-2.113281 -1.460937,-2.105468 -0.0078,0.01172 2.558594,0.207031 2.550781,0.214843 -0.0078,0.0078 0.464844,-2.523437 0.453125,-2.519531 -0.01172,0.0039 1.664062,1.957031 1.652344,1.957031 -0.0078,-0.0039 2.113281,-1.457031 2.105468,-1.460937 z m 0,0"
       id="path22" />
    <path
       style="fill:#070707;fill-opacity:0.4;fill-rule:nonzero;stroke:none"
       d="m 36.242188,25.746094 c 0,0 -0.09375,0.06641 -0.09766,0.06641 -0.105469,1.257812 -0.257812,3.222656 -0.269531,3.214844 0,-0.0039 0.08984,0.01172 0.09375,0.01563 0.09766,-1.226563 0.261719,-3.304688 0.273438,-3.296875 z m -11.589844,3.105468 c 0.0078,-0.01172 1.398437,2.011719 2.023437,2.914063 0.117188,-0.09766 0.480469,-0.40625 0.480469,-0.40625 0,0.01563 -0.953125,-1.367187 -1.695312,-2.4375 -0.242188,-0.02344 -0.808594,-0.06641 -0.808594,-0.07031 z M 39.125,30.707031 c -0.988281,0.84375 -2.28125,1.945313 -2.28125,1.933594 0,-0.0039 0.332031,0.472656 0.480469,0.6875 0.699219,-0.589844 2.867187,-2.445313 2.871093,-2.429687 0,0.0039 -0.671874,-0.121094 -1.070312,-0.191407 z m -14.25,3.679688 c -0.464844,0.394531 -1.070312,0.90625 -1.070312,0.902343 -0.0039,-0.01562 4.066406,0.746094 4.226562,0.761719 0.03516,-0.398437 0.08984,-1.078125 0.09375,-1.078125 0.0078,0.01172 -2.039062,-0.367187 -3.25,-0.585937 z M 34.972656,35.875 c 0.01563,-0.0078 -0.792968,4.324219 -0.777344,4.320312 0.01563,-0.0039 -2.851562,-3.355468 -2.835937,-3.351562 0.01953,0.0039 -3.332031,2.300781 -3.503906,2.4375 -0.03906,0.453125 -0.09375,1.164062 -0.09766,1.160156 -0.01562,-0.0078 3.621094,-2.5 3.601563,-2.503906 -0.01563,-0.0039 2.851563,3.347656 2.835937,3.351562 -0.01562,0.0039 0.792969,-4.328124 0.777344,-4.320312 -0.01172,0.01172 4.382813,0.351562 4.375,0.367188 -0.0039,0.0039 -0.457031,-0.652344 -0.808594,-1.164063 -1.074218,-0.08984 -3.574218,-0.285156 -3.566406,-0.296875 z m 0,0"
       id="path23" />
    <path
       style="fill:#ffffff;fill-opacity:0.4;fill-rule:nonzero;stroke:none"
       d="m 29.804688,23.804688 c 0.01562,-0.0039 -0.792969,4.328124 -0.777344,4.320312 0.01172,-0.01172 -4.382813,-0.351562 -4.375,-0.367188 0.0039,-0.0039 0.433594,0.621094 0.742187,1.070313 1.023438,0.08594 3.644531,0.292969 3.632813,0.300781 -0.01563,0.01172 0.792968,-4.324218 0.777344,-4.320312 -0.01563,0.0039 2.851562,3.355468 2.835937,3.351562 -0.01953,-0.0039 3.355469,-2.316406 3.511719,-2.441406 0.03125,-0.394531 0.08594,-1.070312 0.08984,-1.066406 0.01562,0.0078 -3.621094,2.5 -3.601563,2.503906 0.01563,0.0039 -2.851563,-3.347656 -2.835937,-3.351562 z m 6.152343,5.238281 c -0.02734,0.34375 -0.07813,0.992187 -0.08203,0.988281 -0.0078,-0.01172 2.164062,0.390625 3.339844,0.601562 0.40625,-0.34375 0.980468,-0.832031 0.980468,-0.828124 0.0039,0.01562 -4.085937,-0.746094 -4.238282,-0.761719 z m -9.238281,2.691406 c -0.664062,0.558594 -2.910156,2.476563 -2.914062,2.460937 0,-0.0039 0.636718,0.113282 0.980468,0.175782 0.984375,-0.832032 2.371094,-2.015625 2.371094,-2.003906 0,0.0039 -0.3125,-0.449219 -0.4375,-0.632813 z m 10.5625,1.535156 c -0.09766,0.08594 -0.4375,0.375 -0.4375,0.371094 0,-0.01172 1.027344,1.476563 1.761719,2.539063 0.210937,0.01953 0.742187,0.05859 0.742187,0.0625 -0.0078,0.01172 -1.46875,-2.113282 -2.066406,-2.972657 z m -9.238281,2.695313 c -0.101563,1.183594 -0.273438,3.390625 -0.285157,3.382812 0,0 0.08594,-0.05859 0.08984,-0.0625 C 27.949219,38.0625 28.113281,35.96875 28.125,35.980469 Z m 0,0"
       id="path24" />
    <path
       style="fill:#000000;fill-opacity:0.4;fill-rule:nonzero;stroke:none"
       d="m 30.71875,27.21875 c 0.01172,-0.0039 -0.460938,2.527344 -0.453125,2.519531 0.0078,-0.0078 -2.558594,-0.203125 -2.550781,-0.210937 0,-0.0039 0.300781,0.433594 0.578125,0.832031 0.695312,0.05859 1.980469,0.160156 1.972656,0.167969 -0.0078,0.0039 0.464844,-2.523438 0.453125,-2.523438 -0.01172,0.0039 1.664062,1.957032 1.652344,1.957032 -0.01172,0 1.910156,-1.316407 2.035156,-1.414063 0.02734,-0.367187 0.06641,-0.835937 0.06641,-0.832031 0.01172,0.0039 -2.113281,1.457031 -2.101562,1.457031 0.01172,0.0039 -1.664063,-1.949219 -1.652344,-1.953125 z m 3.609375,3.058594 c -0.02734,0.328125 -0.06641,0.777344 -0.06641,0.773437 -0.0039,-0.0039 1.007812,0.179688 1.753906,0.316407 0.363281,-0.3125 0.765625,-0.652344 0.765625,-0.648438 0.0039,0.01172 -2.339844,-0.425781 -2.453125,-0.441406 z m -5.5,1.644531 c -0.464844,0.390625 -1.605469,1.367187 -1.609375,1.359375 0,-0.0039 0.441406,0.07813 0.765625,0.140625 0.570313,-0.484375 1.191406,-1.015625 1.1875,-1.007813 0,0.0039 -0.21875,-0.316406 -0.34375,-0.492187 z m 6.34375,0.945313 c -0.101563,0.08594 -0.347656,0.292968 -0.34375,0.289062 0,-0.0039 0.457031,0.660156 0.878906,1.269531 0.203125,0.01563 0.582031,0.04687 0.578125,0.04687 -0.0039,0.0078 -0.714844,-1.027344 -1.113281,-1.605468 z m -5.5,1.644531 c -0.05859,0.75 -0.140625,1.777343 -0.144531,1.773437 -0.0039,0 0.0625,-0.04297 0.06641,-0.04687 0.0625,-0.757812 0.140625,-1.722656 0.144531,-1.71875 0,0.0039 -0.0625,-0.0078 -0.06641,-0.0078 z m 0,0"
       id="path25" />
    <path
       style="fill:#ffffff;fill-opacity:0.4;fill-rule:nonzero;stroke:none"
       d="m 34.472656,28.5 c 0.0039,0 -0.0625,0.04687 -0.06641,0.04687 -0.0625,0.757813 -0.140625,1.722656 -0.144531,1.71875 0,0 0.0625,0.01172 0.06641,0.01172 0.05859,-0.753906 0.140625,-1.78125 0.144531,-1.777344 z m -6.757812,1.8125 c 0.0039,-0.0078 0.714844,1.027344 1.113281,1.609375 0.101563,-0.08594 0.347656,-0.292969 0.34375,-0.292969 0,0.0078 -0.457031,-0.65625 -0.878906,-1.269531 -0.203125,-0.01563 -0.582031,-0.04297 -0.578125,-0.04687 z m 8.300781,1.054688 c -0.570313,0.480468 -1.191406,1.011718 -1.1875,1.003906 0,-0.0039 0.21875,0.316406 0.34375,0.496094 0.464844,-0.394532 1.605469,-1.371094 1.609375,-1.363282 0,0.0039 -0.441406,-0.07813 -0.765625,-0.136718 z m -8.03125,2.054687 c -0.363281,0.308594 -0.765625,0.652344 -0.765625,0.644531 -0.0039,-0.0078 2.339844,0.429688 2.453125,0.445313 0.02734,-0.332031 0.0625,-0.78125 0.06641,-0.777344 0.0039,0.0039 -1.007812,-0.179687 -1.753906,-0.3125 z m 5.75,0.839844 c 0.0078,-0.0078 -0.464844,2.523437 -0.453125,2.519531 0.01172,-0.0039 -1.664062,-1.957031 -1.652344,-1.953125 0.01172,0 -1.910156,1.316406 -2.035156,1.410156 -0.02734,0.367188 -0.06641,0.835938 -0.06641,0.835938 -0.01172,-0.0078 2.113281,-1.460938 2.101562,-1.460938 -0.01172,0 1.664063,1.953125 1.652344,1.953125 -0.01172,0.0039 0.460938,-2.523437 0.453125,-2.519531 -0.0078,0.0078 2.558594,0.207031 2.550781,0.214844 0,0.0039 -0.300781,-0.433594 -0.578125,-0.835938 -0.695312,-0.05859 -1.980469,-0.160156 -1.972656,-0.164062 z m 0,0"
       id="path26" />
    <path
       d="m 36.242188,24.652344 c -0.01563,-0.01172 -0.355469,4.386718 -0.367188,4.371094 -0.0078,-0.01172 4.324219,0.796874 4.320312,0.78125 -0.0039,-0.01953 -3.351562,2.851562 -3.351562,2.832031 0.0039,-0.01563 2.496094,3.621093 2.503906,3.605469 0.01172,-0.01563 -4.386718,-0.355469 -4.371094,-0.367188 0.01172,-0.0078 -0.796874,4.324219 -0.78125,4.320312 0.01953,-0.0039 -2.851562,-3.351562 -2.832031,-3.351562 0.01563,0.0039 -3.621093,2.496094 -3.605469,2.503906 0.01563,0.01172 0.355469,-4.386718 0.367188,-4.371094 0.0078,0.01172 -4.324219,-0.796874 -4.320312,-0.78125 0.0039,0.01953 3.351562,-2.851562 3.351562,-2.832031 -0.0039,0.01563 -2.496094,-3.621093 -2.503906,-3.605469 -0.01172,0.01563 4.386718,0.355469 4.371094,0.367188 -0.01172,0.0078 0.796874,-4.324219 0.78125,-4.320312 -0.01953,0.0039 2.851562,3.351562 2.832031,3.351562 -0.01563,-0.0039 3.621093,-2.496094 3.605469,-2.503906 z m 0,0"
       id="path27"
       style="fill:#c83771;fill-rule:nonzero;stroke:none;fill-opacity:1" />
  </g>
</svg>
