<?xml version="1.0" encoding="UTF-8" standalone="no"?>
<svg
   clip-rule="evenodd"
   fill-rule="evenodd"
   stroke-linecap="round"
   stroke-linejoin="round"
   viewBox="0 0 62 62"
   version="1.1"
   id="svg8"
   sodipodi:docname="com.bitstower.Markets.svg"
   width="62"
   height="62"
   inkscape:version="1.4.2 (unknown)"
   xmlns:inkscape="http://www.inkscape.org/namespaces/inkscape"
   xmlns:sodipodi="http://sodipodi.sourceforge.net/DTD/sodipodi-0.dtd"
   xmlns="http://www.w3.org/2000/svg"
   xmlns:svg="http://www.w3.org/2000/svg">
  <defs
     id="defs8" />
  <sodipodi:namedview
     id="namedview8"
     pagecolor="#ffffff"
     bordercolor="#000000"
     borderopacity="0.25"
     inkscape:showpageshadow="2"
     inkscape:pageopacity="0.0"
     inkscape:pagecheckerboard="0"
     inkscape:deskcolor="#d1d1d1"
     inkscape:zoom="6.3300214"
     inkscape:cx="21.326942"
     inkscape:cy="16.66661"
     inkscape:current-layer="svg8" />
  <linearGradient
     id="a"
     x2="1"
     gradientTransform="matrix(0,-33.039101,33.039101,0,905.31002,39.465703)"
     gradientUnits="userSpaceOnUse">
    <stop
       stop-color="#3b3549"
       offset="0"
       id="stop1" />
    <stop
       stop-color="#4c4854"
       offset="1"
       id="stop2" />
  </linearGradient>
  <linearGradient
     id="b"
     x2="1"
     gradientTransform="matrix(0,-43.336001,43.336001,0,23.298001,45.000002)"
     gradientUnits="userSpaceOnUse">
    <stop
       stop-color="#cecece"
       offset="0"
       id="stop3"
       style="stop-color:#6f7c91;stop-opacity:1" />
    <stop
       stop-color="#f0f0f0"
       offset="1"
       id="stop4"
       style="stop-color:#939dac;stop-opacity:1" />
  </linearGradient>
  <g
     id="g8"
     transform="translate(0.66799945,0.66799945)">
    <path
       d="M 49.900212,57.793142 H 10.763789 c -4.3573934,0 -7.8929298,-3.535536 -7.8929298,-7.89293 V 10.763789 c 0,-4.3573934 3.5355364,-7.8929298 7.8929298,-7.8929298 h 39.136423 c 4.357394,0 7.89293,3.5355364 7.89293,7.8929298 v 39.136423 c 0,4.357394 -3.535536,7.89293 -7.89293,7.89293 z"
       fill="url(#a)"
       id="path4"
       style="fill:#373e48;stroke-width:1" />
    <path
       d="M 50.284004,58.332001 H 10.379997 c -4.4426806,0 -8.0479964,-3.605316 -8.0479964,-8.047997 V 10.379997 c 0,-4.4426802 3.605316,-8.0479969 8.0479964,-8.0479969 h 39.904007 c 4.442681,0 8.047997,3.6053167 8.047997,8.0479969 v 39.904007 c 0,4.442681 -3.605316,8.047997 -8.047997,8.047997 z m 0,-3.007015 H 10.379997 c -2.7834596,0 -5.0409825,-2.257522 -5.0409825,-5.040982 V 10.379997 c 0,-2.7834592 2.2575229,-5.0409819 5.0409825,-5.0409819 h 39.904007 c 2.78346,0 5.040982,2.2575227 5.040982,5.0409819 v 39.904007 c 0,2.78346 -2.257522,5.040982 -5.040982,5.040982 z"
       fill="url(#b)"
       id="path5"
       style="fill:url(#b);stroke-width:1" />
    <path
       d="m 34.208685,28.264436 v 18.220417 h 2.584457 v -19.2542 z M 23.87086,36.147028 v 10.337825 h 2.584456 V 37.18081 Z M 8.3641213,34.079462 V 46.484853 H 10.948578 V 34.079462 Z m 10.3378257,0 v 12.405391 h 2.584456 V 34.079462 Z m -5.168913,-0.516891 v 12.922282 h 2.584457 V 32.528789 Z m 15.506739,0.516891 v 12.405391 h 2.584456 V 32.011897 Z m 15.506738,-2.32601 v 14.731401 h 2.584456 V 32.787234 Z m -5.168913,-3.359794 v 18.091195 h 2.584457 V 30.461224 Z m 10.337826,0.646115 v 17.44508 H 52.29988 V 26.972207 Z"
       fill="#33d17a"
       fill-rule="nonzero"
       id="path6"
       style="stroke-width:1;fill:#00c5c5;fill-opacity:1" />
    <path
       d="m 8.0320187,34.388305 7.7223553,-2.347979 10.38047,4.390992 10.180173,-9.581872 10.181466,5.72974 6.047628,-6.904376"
       fill="none"
       stroke="#ed333b"
       stroke-width="1.50001"
       id="path7"
       style="stroke:#f15b61;stroke-opacity:1" />
    <path
       d="m 5.3790007,14.179148 v 1.000745 h 0.6184176 v -1.000745 z m 0.6822916,0 v 0.993207 h 0.6242243 v -0.993207 z m 0.6866468,0 v 0.993207 h 0.622773 v -0.993207 z m 0.6851948,0 v 0.993207 h 0.6242242 v -0.993207 z m 1.8247673,0 v 1.000745 h 0.6184179 v -1.000745 z m 2.7407808,0 v 0.993207 h 0.625675 v -0.993207 z m 1.13812,0 v 0.993207 h 0.618416 v -0.993207 z m 0.68229,0 v 0.993207 h 0.624225 v -0.993207 z m 0.686648,0 v 0.993207 h 0.621321 v -0.993207 z m 0.685196,0 v 0.993207 h 0.624224 v -0.993207 z m 0.686645,0 v 0.993207 h 0.625675 v -0.993207 z m 5.014117,0 v 0.993207 h 0.621321 v -0.993207 z m 2.740781,0 v 0.993207 h 0.627127 v -0.993207 z m 1.821862,0 v 0.993207 h 0.625676 v -0.993207 z m 0.688099,0 v 0.993207 h 0.618418 v -0.993207 z m 0.682291,0 v 0.993207 h 0.624225 v -0.993207 z m 7.072606,0 v 0.993207 h 0.621321 v -0.993207 z m 3.8789,0 v 0.993207 h 0.621322 v -0.993207 z m 4.562644,0 v 0.993207 h 0.625676 v -0.993207 z m 6.385958,0 v 0.993207 h 0.624225 v -0.993207 z m 0.688099,0 v 0.993207 h 0.618416 v -0.993207 z m 0.680839,0 v 0.993207 h 0.624224 v -0.993207 z m 2.507059,0 v 0.993207 h 0.624224 v -0.993207 z m 0.688097,0 v 0.993207 h 0.621322 v -0.993207 z m 0.683745,0 v 0.993207 h 0.624224 v -0.993207 z m -36.273233,1.085555 v 1.000746 h 0.622773 v -1.000746 z m 0.685196,0 v 1.000746 h 0.624224 v -1.000746 z m -13.0056403,0.0076 v 0.993207 h 0.6184175 v -0.993207 z m 2.7422314,0 v 0.993207 h 0.6242242 v -0.993207 z m 1.136669,0 v 0.993207 h 0.618418 v -0.993207 z m 2.7407809,0 v 0.993207 h 0.625675 v -0.993207 z m 2.507058,0 v 0.993207 h 0.621321 v -0.993207 z m 6.385958,0 v 0.993207 h 0.621321 v -0.993207 z m 2.740781,0 v 0.993207 h 0.627127 v -0.993207 z m 1.138119,0 v 0.993207 h 0.618418 v -0.993207 z m 2.740779,0 v 0.993207 h 0.624224 v -0.993207 z m 5.697861,0 v 0.993207 h 0.624225 v -0.993207 z m 0.688099,0 v 0.993207 h 0.621321 v -0.993207 z m 0.683744,0 v 0.993207 h 0.625675 v -0.993207 z m 0.688097,0 v 0.993207 h 0.624224 v -0.993207 z m 1.824768,0 v 0.993207 h 0.618418 v -0.993207 z m 0.682291,0 v 0.993207 h 0.621322 v -0.993207 z m 3.8789,0 v 0.993207 h 0.618418 v -0.993207 z m 0.683744,0 v 0.993207 h 0.625676 v -0.993207 z m 5.700762,0 v 0.993207 h 0.619871 v -0.993207 z m 2.742233,0 V 16.26551 H 51.4061 v -0.993207 z m 1.136668,0 v 0.993207 h 0.618419 v -0.993207 z m 2.742232,0 v 0.993207 h 0.624225 V 15.272303 Z M 8.1212321,16.357857 v 0.993207 h 0.6242243 v -0.993207 z m 3.8774499,0 v 0.993207 h 0.625675 v -0.993207 z m 6.385959,0 v 0.993207 h 0.624224 v -0.993207 z m 5.247838,0 v 0.993207 h 0.627127 v -0.993207 z m 27.149397,0 v 0.993207 H 51.4061 v -0.993207 z m 3.8789,0 v 0.993207 h 0.624225 v -0.993207 z m -49.281775,0.0076 v 0.985668 h 0.6184174 v -0.985668 z m 3.8789004,0 v 0.985668 h 0.6184177 v -0.985668 z m 5.2478386,0 v 0.985668 h 0.621321 v -0.985668 z m 3.193705,0 v 0.985668 h 0.622773 v -0.985668 z m 3.192253,0 v 0.985668 h 0.621321 v -0.985668 z m 3.8789,0 v 0.985668 h 0.618418 v -0.985668 z m 7.7578,0 v 0.985668 h 0.618418 v -0.985668 z m 1.368939,0 v 0.985668 h 0.621321 v -0.985668 z m 3.8789,0 v 0.985668 h 0.621322 v -0.985668 z m 3.190802,0 v 0.985668 h 0.624225 v -0.985668 z m 1.371842,0 v 0.985668 h 0.625676 v -0.985668 z m 5.700762,0 v 0.993207 h 0.619871 v -0.993207 z m 2.054134,0 v 0.985668 h 0.624224 v -0.985668 z m 1.824767,0 v 0.993207 h 0.618419 v -0.993207 z m 2.054134,0 v 0.985668 h 0.624224 v -0.9857 z M 5.3790007,17.456633 v 0.991323 h 0.6184176 v -0.991323 z m 0.6822916,0 v 0.991323 h 0.6242243 v -0.991323 z m 0.6866468,0 v 0.991323 h 0.622773 v -0.991323 z m 0.6851948,0 v 0.991323 h 0.6242242 v -0.991323 z m 1.8247673,0 v 0.991323 h 0.6184179 v -0.991323 z m 0.6822912,0 v 0.991323 h 0.6242236 v -0.991323 z m 0.6866466,0 v 0.991323 h 0.621321 v -0.991323 z m 0.685196,0 v 0.991323 h 0.624224 v -0.991323 z m 0.686647,0 v 0.991323 h 0.625675 v -0.991323 z m 2.507058,0 v 0.991323 h 0.621321 v -0.991323 z m 6.385958,0 v 0.991323 h 0.621321 v -0.991323 z m 2.740781,0 v 0.991323 h 0.627127 v -0.991323 z m 1.821862,0 v 0.991323 h 0.625676 v -0.991323 z m 0.688099,0 v 0.991323 h 0.618418 v -0.991323 z m 0.682291,0 v 0.991323 h 0.624225 v -0.991323 z m 6.384507,0 v 0.991323 h 0.624225 v -0.991323 z m 0.688099,0 v 0.991323 h 0.621321 v -0.991323 z m 0.683744,0 v 0.991323 h 0.625675 v -0.991323 z m 3.195156,0 v 0.991323 h 0.624224 v -0.991323 z m 2.505607,0 v 0.991323 h 0.622773 v -0.991323 z m 2.057037,0 v 0.991323 h 0.625676 v -0.991323 z m 5.700762,0 v 0.991323 h 0.619871 v -0.991323 z m 1.373295,0 v 0.991323 h 0.618416 v -0.991323 z m 1.368938,0 v 0.991323 H 51.4061 v -0.991323 z m 1.136668,0 v 0.991323 h 0.618419 v -0.991323 z m 1.370389,0 v 0.991323 h 0.621322 v -0.991323 z m 1.371843,0 v 0.991323 h 0.624225 V 17.456543 Z M 6.7479391,18.542097 v 0.993208 h 0.622773 v -0.993208 z m 5.2507429,0 v 0.993208 h 0.625675 v -0.993208 z m 2.507058,0 v 0.993208 h 0.624224 v -0.993208 z m 3.193705,0 v 0.993208 h 0.622773 v -0.993208 z m 0.685196,0 v 0.993208 h 0.624224 v -0.993208 z m 5.247838,0 v 0.993208 h 0.627127 v -0.993208 z m 3.878898,0 v 0.993208 h 0.624224 v -0.993208 z m 6.38596,0 v 0.993208 h 0.621321 v -0.993208 z m 1.371841,0 v 0.993208 h 0.624224 v -0.993208 z m 2.507059,0 v 0.993208 h 0.624224 v -0.993208 z m 4.562644,0 v 0.993208 h 0.625676 v -0.993208 z m 0.688098,0 v 0.993208 h 0.624224 v -0.993208 z m 7.754897,0 v 0.993208 H 51.4061 v -0.993208 z m 3.8789,0 v 0.993208 h 0.624225 v -0.993208 z m -49.2817755,0.0076 v 0.993208 h 0.6184177 v -0.993208 z m 3.8789008,0 v 0.993208 h 0.6184178 v -0.993208 z m 11.6337967,0 v 0.993208 h 0.621321 v -0.993208 z m 19.390146,0 v 0.985669 h 0.622773 v -0.985669 z m 0.685195,0 v 0.985669 h 0.624225 v -0.985669 z m 0.688098,0 v 0.985669 h 0.618418 v -0.985669 z m 6.384506,0 v 0.993208 h 0.619871 v -0.993208 z m 0.685196,0 v 0.993208 h 0.624225 v -0.993208 z m 3.193705,0 v 0.993208 h 0.618419 v -0.993208 z m 0.682292,0 v 0.993208 h 0.624224 v -0.993254 z m -47.2218348,1.08551 v 0.993206 h 0.6184174 v -0.993206 z m 2.0541331,0 v 0.993206 h 0.6242242 v -0.993206 z m 1.8247673,0 v 0.993206 h 0.6184175 v -0.993206 z m 2.7407804,0 v 0.993206 h 0.625675 v -0.993206 z m 2.507058,0 v 0.993206 h 0.624224 v -0.993206 z m 3.193705,0 v 0.993206 h 0.622773 v -0.993206 z m 0.685196,0 v 0.993206 h 0.624224 v -0.993206 z m 2.507057,0 v 0.993206 h 0.621321 v -0.993206 z m 2.740781,0 v 0.993206 h 0.627127 v -0.993206 z m 1.138119,0 v 0.993206 h 0.618418 v -0.993206 z m 2.740779,0 v 0.993206 h 0.624224 v -0.993206 z m 5.697861,0 v 0.993206 h 0.624225 v -0.993206 z m 0.688099,0 v 0.993206 h 0.621321 v -0.993206 z m 0.683744,0 v 0.993206 h 0.625675 v -0.993206 z m 3.195156,0 v 0.993206 h 0.624224 v -0.993206 z m 4.562644,0 v 0.993206 h 0.625676 v -0.993206 z m 2.509961,0 v 0.993206 h 0.621321 v -0.993206 z m 0.685195,0 v 0.993206 h 0.624225 v -0.993206 z m 5.247839,0 v 0.993206 H 51.4061 v -0.993206 z m 3.8789,0 v 0.993206 h 0.624225 v -0.993206 z m -22.132378,0.0076 v 0.985668 h 0.618418 v -0.985668 z m 15.511245,0 v 0.985668 h 0.619871 v -0.985668 z m 3.878901,0 v 0.985668 h 0.618419 V 19.642729 Z M 5.3790007,20.728283 v 0.989438 h 0.6184176 v -0.989438 z m 2.7422314,0 v 0.989438 h 0.6242243 v -0.989438 z m 1.1366691,0 v 0.989438 h 0.6184179 v -0.989438 z m 2.7407808,0 v 0.989438 h 0.625675 v -0.989438 z m 2.507058,0 v 0.989438 h 0.624224 v -0.989438 z m 7.069701,0 v 0.989438 h 0.625678 v -0.989438 z m 0.688098,0 v 0.989438 h 0.618419 v -0.989438 z m 0.682293,0 v 0.989438 h 0.624224 v -0.989438 z m 2.508509,0 v 0.989438 h 0.625676 v -0.989438 z m 0.688099,0 v 0.989438 h 0.618418 v -0.989438 z m 0.682291,0 v 0.989438 h 0.624225 v -0.989438 z m 7.072606,0 v 0.989438 h 0.621321 v -0.989438 z m 3.196609,0 v 0.989438 h 0.618418 v -0.989438 z m 0.682291,0 v 0.989438 h 0.624224 v -0.989438 z m 0.686646,0 v 0.989438 h 0.622773 v -0.989438 z m 3.875998,0 v 0.989438 h 0.625676 v -0.989438 z m 2.509961,0 v 0.989438 h 0.621321 v -0.989438 z m 0.685195,0 v 0.989438 h 0.624225 v -0.989438 z m 3.190802,0 v 0.989438 h 0.624225 v -0.989438 z m 0.688099,0 v 0.989438 h 0.618416 v -0.989438 z m 0.680839,0 v 0.989438 h 0.624224 v -0.989438 z m 2.507059,0 v 0.989438 h 0.624224 v -0.989438 z m 0.688097,0 v 0.989438 h 0.621322 v -0.989438 z m 0.683745,0 v 0.989438 h 0.624224 v -0.989438 z"
       fill="#f9f06b"
       fill-rule="nonzero"
       id="path8"
       style="stroke-width:1" />
  </g>
</svg>
