<?xml version="1.0" encoding="UTF-8" standalone="no"?>
<svg
   width="62"
   height="62"
   version="1"
   id="svg7"
   sodipodi:docname="com.github.finefindus.eyedropper.svg"
   inkscape:version="1.4.2 (unknown)"
   xmlns:inkscape="http://www.inkscape.org/namespaces/inkscape"
   xmlns:sodipodi="http://sodipodi.sourceforge.net/DTD/sodipodi-0.dtd"
   xmlns:xlink="http://www.w3.org/1999/xlink"
   xmlns="http://www.w3.org/2000/svg"
   xmlns:svg="http://www.w3.org/2000/svg">
  <defs
     id="defs7">
    <linearGradient
       id="linearGradient7"
       inkscape:collect="always">
      <stop
         style="stop-color:#384850;stop-opacity:1;"
         offset="0"
         id="stop8" />
      <stop
         style="stop-color:#384850;stop-opacity:1;"
         offset="0.59162253"
         id="stop10" />
      <stop
         style="stop-color:#eff2f6;stop-opacity:1;"
         offset="0.92173076"
         id="stop11" />
      <stop
         style="stop-color:#eff2f6;stop-opacity:1;"
         offset="1"
         id="stop9" />
    </linearGradient>
    <linearGradient
       id="c-3"
       gradientUnits="userSpaceOnUse"
       x1="24.072048"
       x2="23.959682"
       y1="0.75082099"
       y2="46.056854">
      <stop
         offset="0"
         stop-color="#fff"
         id="stop3" />
      <stop
         offset="1"
         stop-color="#d9d9d9"
         id="stop4" />
    </linearGradient>
    <linearGradient
       id="b-6"
       gradientUnits="userSpaceOnUse"
       x1="29.203026"
       x2="34.121048"
       xlink:href="#a-7"
       y1="24.827356"
       y2="29.224836" />
    <linearGradient
       id="a-7">
      <stop
         offset="0"
         id="stop1" />
      <stop
         offset="1"
         stop-opacity="0"
         id="stop2" />
    </linearGradient>
    <linearGradient
       id="d"
       gradientUnits="userSpaceOnUse"
       x1="15.948756"
       x2="25.031786"
       xlink:href="#a-7"
       y1="23.618279"
       y2="33.69899" />
    <linearGradient
       id="e"
       gradientUnits="userSpaceOnUse"
       x1="21.990562"
       x2="29.320522"
       xlink:href="#a-7"
       y1="33.780373"
       y2="41.931858" />
    <linearGradient
       id="paint154_linear_890_11"
       x1="778"
       y1="812.29199"
       x2="788"
       y2="812.29199"
       gradientUnits="userSpaceOnUse"
       gradientTransform="translate(-751,-696)">
      <stop
         stop-color="#EFF2F6"
         id="stop1050" />
      <stop
         offset="0.600785"
         stop-color="#B7C6CD"
         id="stop1051" />
    </linearGradient>
    <linearGradient
       id="paint155_linear_890_11"
       x1="783"
       y1="813"
       x2="783"
       y2="817"
       gradientUnits="userSpaceOnUse"
       gradientTransform="translate(-751,-696)">
      <stop
         stop-color="#EFF2F6"
         id="stop1052" />
      <stop
         offset="0.734138"
         stop-color="#B7C6CD"
         id="stop1053" />
    </linearGradient>
    <radialGradient
       id="paint156_radial_890_11"
       cx="0"
       cy="0"
       r="1"
       gradientUnits="userSpaceOnUse"
       gradientTransform="matrix(27.999986,27.999976,-27.999986,27.999976,32.302392,33.999998)">
      <stop
         offset="0.60067803"
         stop-color="#B7C6CD"
         id="stop1054"
         style="stop-color:#384850;stop-opacity:1;" />
      <stop
         offset="0.876735"
         stop-color="#EFF2F6"
         id="stop1055" />
    </radialGradient>
    <linearGradient
       id="paint157_linear_890_11"
       x1="796.84485"
       y1="799.43359"
       x2="768.90088"
       y2="770.81476"
       gradientUnits="userSpaceOnUse"
       gradientTransform="matrix(1.1666666,0,0,1.1666668,-881.19764,-881.8333)">
      <stop
         offset="0.00000057"
         stop-color="#2E2E41"
         id="stop1056"
         style="stop-color:#495361;stop-opacity:1;" />
      <stop
         offset="0.711139"
         stop-color="#566C80"
         id="stop1057" />
    </linearGradient>
    <linearGradient
       id="paint158_linear_890_11"
       x1="792"
       y1="794"
       x2="774"
       y2="776"
       gradientUnits="userSpaceOnUse"
       gradientTransform="translate(-751,-696)">
      <stop
         offset="0.304478"
         stop-color="#2E2E41"
         id="stop1058" />
      <stop
         offset="1"
         stop-color="#566C80"
         id="stop1059" />
    </linearGradient>
    <linearGradient
       id="paint159_linear_890_11"
       x1="788"
       y1="790"
       x2="778"
       y2="780"
       gradientUnits="userSpaceOnUse"
       gradientTransform="translate(-751,-696)">
      <stop
         offset="0.391394"
         stop-color="#5200FF"
         id="stop1060" />
      <stop
         offset="1"
         stop-color="#0085FF"
         id="stop1061" />
    </linearGradient>
    <linearGradient
       id="paint160_linear_890_11"
       x1="784"
       y1="798"
       x2="782"
       y2="796"
       gradientUnits="userSpaceOnUse"
       gradientTransform="translate(-751,-696)">
      <stop
         stop-color="#FF7E07"
         id="stop1062" />
      <stop
         offset="1"
         stop-color="#FFE607"
         id="stop1063" />
    </linearGradient>
    <radialGradient
       inkscape:collect="always"
       xlink:href="#linearGradient7"
       id="radialGradient9"
       cx="32.302387"
       cy="34"
       fx="32.302387"
       fy="34"
       r="28"
       gradientUnits="userSpaceOnUse"
       gradientTransform="matrix(0.99999999,1,-1,0.99999999,34,-32.302387)" />
    <linearGradient
       inkscape:collect="always"
       xlink:href="#linearGradient933"
       id="linearGradient935"
       x1="63.855331"
       y1="122.63078"
       x2="63.855331"
       y2="15.286823"
       gradientUnits="userSpaceOnUse"
       gradientTransform="matrix(0.39895775,0,0,0.39895809,11.857905,45.742507)" />
    <linearGradient
       inkscape:collect="always"
       id="linearGradient933">
      <stop
         style="stop-color:#393f4a;stop-opacity:1;"
         offset="0"
         id="stop929" />
      <stop
         style="stop-color:#6f7c91;stop-opacity:1"
         offset="1"
         id="stop931" />
    </linearGradient>
    <linearGradient
       id="paint0_linear_54_1196"
       x1="64"
       y1="120"
       x2="64"
       y2="8"
       gradientUnits="userSpaceOnUse"
       gradientTransform="matrix(0.28571429,0,0,0.28571429,12.714302,12.714286)">
      <stop
         stop-color="#5570FF"
         id="stop2-6" />
      <stop
         offset="1"
         stop-color="#4DD3FF"
         id="stop3-8" />
    </linearGradient>
    <linearGradient
       id="linear0"
       gradientUnits="userSpaceOnUse"
       x1="31.999998"
       y1="60"
       x2="31.999998"
       y2="3.999999"
       gradientTransform="matrix(0.75,0,0,0.75,8,47)">
      <stop
         offset="0"
         style="stop-color:rgb(0%,0%,0%);stop-opacity:0.2;"
         id="stop1-3" />
      <stop
         offset="1"
         style="stop-color:rgb(100%,100%,100%);stop-opacity:0;"
         id="stop2-67" />
    </linearGradient>
  </defs>
  <sodipodi:namedview
     id="namedview7"
     pagecolor="#ffffff"
     bordercolor="#000000"
     borderopacity="0.25"
     inkscape:showpageshadow="2"
     inkscape:pageopacity="0.0"
     inkscape:pagecheckerboard="0"
     inkscape:deskcolor="#d1d1d1"
     inkscape:zoom="8.3306018"
     inkscape:cx="36.131843"
     inkscape:cy="34.631352"
     inkscape:window-width="1920"
     inkscape:window-height="998"
     inkscape:window-x="0"
     inkscape:window-y="0"
     inkscape:window-maximized="1"
     inkscape:current-layer="svg7" />
  <g
     id="g1"
     transform="translate(-1.3023872,-3)">
    <path
       d="m 60.302387,34 c 0,15.46415 -12.535828,28 -28.000002,28 C 16.838222,62 4.3023873,49.46415 4.3023873,34 4.3023873,18.535835 16.838222,6 32.302385,6 47.766559,6 60.302387,18.535835 60.302387,34 Z"
       id="path154"
       style="fill:url(#radialGradient9)" />
  </g>
  <g
     id="g2"
     transform="translate(-6.3334846,-40.333549)">
    <circle
       style="fill:url(#linearGradient935);fill-opacity:1;stroke:none;stroke-width:0.604378;stroke-linecap:round;stroke-miterlimit:4;stroke-dasharray:none;stroke-opacity:1"
       id="path1096"
       cx="37.333485"
       cy="71.333549"
       r="23.3335" />
    <g
       id="g1009"
       transform="matrix(1.0617363,0,0,1.0617371,26.342866,223.78528)" />
  </g>
  <g
     id="g3"
     transform="matrix(0.62500002,0,0,0.62265387,8.2499996,-20.133461)">
    <path
       style="fill:#5599ff"
       d="m 11.080862,104.05696 c 1.06437,2.0464 1.104995,1.46781 2.169365,3.5142 5.443725,-6.29755 9.065425,-3.5609 13.995247,-8.017091 4.212792,-4.029862 14.669619,-13.780709 17.982571,-18.515035 4.178263,-2.432127 -7.767464,4.612517 -6.887935,-1.97128 0.0325,-4.281602 -5.09029,-2.387467 -6.869658,-0.328886 -6.152627,5.363674 -11.16979,10.836978 -16.849138,16.064632 -2.685299,2.470701 4.82826,2.57018 -3.540452,9.25346 z m 0,0"
       id="path1" />
    <path
       style="opacity:0.2"
       d="m 55.61333,57.003807 c -1.496314,-0.05453 -3.013676,0.37735 -4.218716,1.292959 -2.164437,1.95408 -4.175305,4.072155 -6.253858,6.117139 -0.179079,0.114863 -0.570308,0.558589 -0.570308,0.558589 0,0 -0.08642,-0.06249 -0.230466,-0.218748 -0.705952,-0.653637 -1.350105,-1.559306 -2.355449,-1.691393 -1.440475,-0.07086 -2.503754,1.688891 -1.714831,2.917946 3.661605,3.792725 7.410745,7.500921 11.144442,11.222565 0.816053,0.678917 1.47256,1.899569 2.687478,1.78905 0.925071,-0.0162 1.660217,-0.808139 1.843736,-1.671862 0.05136,-1.289716 -1.157037,-2.024716 -1.929673,-2.88279 1.284066,-1.289071 2.56918,-2.576381 3.851534,-3.867157 1.176044,-1.312147 2.675776,-2.401713 3.464816,-4.015592 1.319697,-2.614268 0.632459,-6.057275 -1.624987,-7.933531 -1.124249,-1.024153 -2.597405,-1.562647 -4.093718,-1.617175 z M 40.203295,69.226366 27.094025,82.331732 c -7.239342,7.23954 -13.154112,13.195249 -13.206926,13.296768 -0.05891,0.115719 -0.09906,0.349355 -0.113281,0.613277 -0.01828,0.361369 0.0055,0.529536 0.167967,1.140615 0.103593,0.393849 0.24906,0.940609 0.324216,1.21874 0.07516,0.278134 0.153747,0.711067 0.167966,0.964837 0.02031,0.304523 0.0056,0.554301 -0.03906,0.718741 -0.065,0.23144 -0.236243,0.42014 -1.964828,2.16405 -1.789523,1.80684 -1.902328,1.93364 -2.105452,2.34373 -0.136093,0.27204 -0.244527,0.57465 -0.285154,0.82031 -0.03656,0.21925 -0.04953,0.54133 -0.03125,0.73827 0.01828,0.19286 0.07797,0.48024 0.132811,0.64062 0.05688,0.15836 0.155622,0.39742 0.222654,0.52734 0.06703,0.12994 0.288904,0.40433 0.49609,0.60937 0.207186,0.20504 0.499996,0.43833 0.652338,0.51953 0.150311,0.0812 0.450778,0.19128 0.664058,0.24609 0.21328,0.0569 0.519213,0.10546 0.679682,0.10546 0.160467,0.002 0.455308,-0.0336 0.652338,-0.0742 0.197031,-0.0426 0.530933,-0.1638 0.742182,-0.27344 0.339217,-0.17661 0.606865,-0.42088 2.296857,-2.09373 1.744836,-1.72563 1.932484,-1.89408 2.164045,-1.95702 0.166563,-0.0448 0.416089,-0.0612 0.718744,-0.043 0.255937,0.0162 0.690461,0.0908 0.968743,0.16796 0.276247,0.0751 0.82468,0.22457 1.21874,0.32813 0.609373,0.1605 0.782962,0.18616 1.144522,0.16796 0.251875,-0.0142 0.497643,-0.0585 0.60937,-0.11328 0.107657,-0.0528 5.653524,-5.565263 13.288957,-13.210836 l 13.105364,-13.12099 z m 0.02734,2.730448 3.414037,3.410129 3.410128,3.410129 -11.800688,11.792874 -11.804593,11.792874 -0.312498,0.0898 c -0.22953,0.0649 -0.415777,0.079 -0.675775,0.0547 -0.197031,-0.0182 -0.877802,-0.16556 -1.515614,-0.33202 -1.0339,-0.26799 -1.221082,-0.30049 -1.718736,-0.30469 -0.477341,-0.004 -0.586712,0.01 -0.769525,0.10938 -0.115781,0.0629 -1.279204,1.18601 -2.601542,2.5117 -1.314212,1.31757 -2.448419,2.42626 -2.519511,2.46482 -0.07313,0.0386 -0.218747,0.0815 -0.32031,0.0977 -0.103593,0.0142 -0.265779,0.007 -0.363278,-0.0156 -0.09953,-0.0244 -0.243123,-0.0877 -0.32031,-0.14454 -0.07719,-0.0568 -0.192969,-0.17819 -0.253904,-0.26952 -0.06297,-0.0914 -0.130157,-0.25004 -0.148437,-0.35156 -0.02032,-0.10354 -0.0052,-0.29022 0.02734,-0.41406 0.05281,-0.20099 0.348115,-0.51693 2.519511,-2.6953 1.35281,-1.35615 2.499826,-2.54878 2.554671,-2.65233 0.07928,-0.15024 0.09779,-0.29149 0.09375,-0.742185 -0.0041,-0.414151 -0.03907,-0.686914 -0.140623,-1.062491 -0.07516,-0.276102 -0.215151,-0.7894 -0.308592,-1.140617 -0.134065,-0.50145 -0.17174,-0.749746 -0.17578,-1.167959 -0.0041,-0.452725 0.01188,-0.561504 0.109374,-0.742182 0.06906,-0.125859 4.942593,-5.036132 11.867093,-11.956937 z"
       id="path2" />
    <path
       style="fill:#2d3339;fill-opacity:1"
       d="M 54.103312,77.992802 C 52.888394,78.103321 52.228903,76.882855 51.41285,76.20394 47.679154,72.482294 43.929863,68.774504 40.268258,64.98178 c -0.788923,-1.229055 0.27711,-2.992095 1.717583,-2.921235 1.005346,0.132087 1.646815,1.040625 2.352767,1.694262 0.144039,0.156263 0.232388,0.21824 0.232388,0.21824 0,0 0.392201,-0.442776 0.571282,-0.55764 2.078553,-2.044984 4.087607,-4.165235 6.252044,-6.119314 2.410081,-1.831218 6.066044,-1.721653 8.31454,0.326654 2.257446,1.876255 2.943158,5.319032 1.623461,7.9333 -0.78904,1.61388 -2.288456,2.703185 -3.4645,4.015333 -1.282354,1.290775 -2.568482,2.577785 -3.852546,3.866856 0.772636,0.858074 1.980172,1.590744 1.928821,2.880459 -0.183519,0.863724 -0.915715,1.657867 -1.840786,1.674107 z"
       id="path3" />
    <path
       style="fill:#e4e4e4"
       d="m 12.856166,107.99952 c -0.160468,0 -0.467185,-0.0467 -0.680465,-0.10354 -0.21328,-0.0548 -0.511873,-0.16648 -0.662184,-0.24768 -0.152343,-0.0812 -0.446874,-0.31467 -0.65406,-0.51972 -0.207186,-0.20504 -0.430623,-0.47911 -0.497654,-0.60904 -0.06703,-0.12992 -0.164531,-0.36746 -0.221406,-0.52581 -0.05484,-0.16038 -0.113749,-0.4507 -0.13203,-0.64356 -0.01828,-0.19694 -0.0041,-0.5177 0.0325,-0.73695 0.04063,-0.24565 0.146248,-0.54814 0.282342,-0.82019 0.203124,-0.41009 0.318905,-0.53799 2.108428,-2.34482 1.728585,-1.74391 1.899209,-1.932715 1.964209,-2.164155 0.04469,-0.164439 0.05891,-0.412121 0.03859,-0.716644 -0.01422,-0.25377 -0.0914,-0.688223 -0.16656,-0.966357 -0.07516,-0.278132 -0.223436,-0.826273 -0.32703,-1.220122 -0.162498,-0.611079 -0.186874,-0.77958 -0.168592,-1.140949 0.01422,-0.263922 0.05687,-0.495358 0.115781,-0.611077 0.05281,-0.101519 5.965751,-6.05596 13.205093,-13.2955 L 40.204787,68.224681 49.763805,77.7786 36.660273,90.899506 c -7.635433,7.645573 -13.180719,13.157454 -13.288376,13.210234 -0.111727,0.0548 -0.359529,0.0995 -0.611403,0.11368 -0.361561,0.0182 -0.532184,-0.008 -1.141558,-0.1685 -0.39406,-0.10356 -0.944526,-0.25173 -1.220773,-0.32686 -0.278282,-0.0771 -0.712967,-0.15226 -0.968903,-0.1685 -0.302655,-0.0182 -0.550466,-0.004 -0.717028,0.0406 -0.231561,0.0629 -0.420466,0.23347 -2.165302,1.95911 -1.689992,1.67284 -1.956084,1.91444 -2.295301,2.09106 -0.211249,0.10964 -0.546404,0.23347 -0.743434,0.2761 -0.19703,0.0406 -0.491561,0.0751 -0.652028,0.0731 z m 0.160467,-1.94489 c 0.101563,-0.0162 0.245781,-0.0589 0.318905,-0.0974 0.07109,-0.0386 1.206557,-1.14703 2.520769,-2.46461 1.322338,-1.32569 2.486238,-2.44837 2.602019,-2.5113 0.182813,-0.0995 0.292499,-0.11572 0.769841,-0.11166 0.497654,0.004 0.682496,0.0365 1.716397,0.30453 0.637811,0.16647 1.320308,0.3167 1.517337,0.33497 0.259998,0.0244 0.444842,0.008 0.674373,-0.0569 l 0.314842,-0.0893 L 35.252624,89.56976 47.05413,77.778608 43.64368,74.367943 40.231195,70.957278 28.478436,82.699707 c -6.924499,6.920805 -11.799476,11.829728 -11.868537,11.955597 -0.0975,0.180678 -0.11375,0.290313 -0.10969,0.743038 0.004,0.418212 0.04265,0.66589 0.176719,1.16734 0.09344,0.351218 0.231563,0.864848 0.306718,1.140949 0.101557,0.375577 0.138131,0.647621 0.142191,1.061772 0.004,0.450696 -0.01416,0.592805 -0.09344,0.743038 -0.05485,0.103559 -1.204526,1.297269 -2.557332,2.653409 -2.171396,2.17837 -2.465926,2.49507 -2.518738,2.69605 -0.0325,0.12384 -0.04469,0.30859 -0.02437,0.41212 0.01828,0.10152 0.08531,0.25987 0.148281,0.35122 0.06094,0.0913 0.174686,0.21317 0.251873,0.27001 0.07719,0.0569 0.219374,0.1218 0.318906,0.14618 0.0975,0.0223 0.262029,0.0284 0.365622,0.0142 z m 0,0"
       id="path4" />
    <path
       style="opacity:0.1;fill:#ffffff"
       d="m 55.611327,56.005419 c -1.496313,-0.05453 -3.011756,0.375407 -4.216797,1.291016 -2.164437,1.95408 -4.1734,4.074157 -6.251953,6.119141 -0.179081,0.114864 -0.572266,0.55664 -0.572266,0.55664 1e-6,0 -0.08838,-0.06053 -0.232421,-0.216797 -0.705952,-0.653637 -1.346217,-1.563225 -2.351563,-1.695312 -1.278337,-0.06288 -2.258302,1.31751 -1.912109,2.488281 0.230005,-0.832443 0.993405,-1.533474 1.912109,-1.488281 1.005346,0.132087 1.645611,1.041675 2.351563,1.695312 0.144039,0.156263 0.232422,0.216797 0.232421,0.216797 0,0 0.393185,-0.441776 0.572266,-0.55664 2.078553,-2.044984 4.087516,-4.165062 6.251953,-6.119141 2.410081,-1.831218 6.065957,-1.722135 8.314453,0.326172 1.356089,1.1271 2.13986,2.820082 2.267578,4.558594 0.153871,-2.069987 -0.651635,-4.215518 -2.267578,-5.558594 -1.124248,-1.024154 -2.601343,-1.56266 -4.097656,-1.617188 z m -1.097656,17.933594 c -0.165804,0.166338 -0.332299,0.331653 -0.498047,0.498047 0.625838,0.695043 1.535672,1.309953 1.832031,2.203125 0.03982,-0.105176 0.07259,-0.213466 0.0957,-0.322266 0.04119,-1.034419 -0.72513,-1.709058 -1.429687,-2.378906 z"
       id="path5" />
  </g>
</svg>
