<?xml version="1.0" encoding="UTF-8" standalone="no"?>
<svg
   width="62"
   height="62"
   version="1.1"
   id="svg5"
   sodipodi:docname="com.chatterino.chatterino.svg"
   inkscape:version="1.4 (unknown)"
   xmlns:inkscape="http://www.inkscape.org/namespaces/inkscape"
   xmlns:sodipodi="http://sodipodi.sourceforge.net/DTD/sodipodi-0.dtd"
   xmlns="http://www.w3.org/2000/svg"
   xmlns:svg="http://www.w3.org/2000/svg">
  <defs
     id="defs5" />
  <sodipodi:namedview
     id="namedview5"
     pagecolor="#ffffff"
     bordercolor="#000000"
     borderopacity="0.25"
     inkscape:showpageshadow="2"
     inkscape:pageopacity="0.0"
     inkscape:pagecheckerboard="0"
     inkscape:deskcolor="#d1d1d1"
     inkscape:zoom="7.0710678"
     inkscape:cx="34.153258"
     inkscape:cy="35.991735"
     inkscape:window-width="1920"
     inkscape:window-height="998"
     inkscape:window-x="0"
     inkscape:window-y="0"
     inkscape:window-maximized="1"
     inkscape:current-layer="svg5" />
  <g
     id="g5"
     transform="matrix(0.99274829,0,0,0.98245614,2.0290069,-0.92982455)">
    <path
       d="M 32,5 A 28,28 0 0 0 4,33 28,28 0 0 0 7.3652344,46.255859 l -0.050781,-0.04102 c 1.4111983,3.315001 1.307937,4.219289 1.0859372,6.988286 C 8.2456908,55.133123 7.7221587,57.102892 7.0683594,58.212891 6.47556,59.21689 6,60.255532 6,60.519531 c 0,0.816999 4.719489,0.530937 8.896484,-0.539062 4.645996,-1.188999 5.300254,-1.312046 8.78125,-0.248047 a 28,28 0 0 0 0.107422,0.0332 c 0.154,0.047 0.280313,0.08377 0.445313,0.134766 l -0.03906,-0.03125 A 28,28 0 0 0 32,61 28,28 0 0 0 54.332031,49.8125 L 42.888672,38.033203 A 12,12 0 0 1 32,45 12,12 0 0 1 20,33 12,12 0 0 1 32,21 12,12 0 0 1 42.890625,27.964844 L 54.365234,16.154297 A 28,28 0 0 0 32,5 Z"
       style="opacity:0.2"
       id="path1" />
    <path
       d="M 32,4 A 28,28 0 0 0 4,32 28,28 0 0 0 7.3652344,45.255859 l -0.050781,-0.04102 c 1.4111983,3.315001 1.307937,4.219289 1.0859372,6.988286 C 8.2456908,54.133123 7.7221587,56.102892 7.0683594,57.212891 6.47556,58.21689 6,59.255532 6,59.519531 c 0,0.816999 4.719489,0.530937 8.896484,-0.539062 4.645996,-1.188999 5.300254,-1.312046 8.78125,-0.248047 a 28,28 0 0 0 0.107422,0.0332 c 0.154,0.047 0.280313,0.08377 0.445313,0.134766 l -0.03906,-0.03125 A 28,28 0 0 0 32,60 28,28 0 0 0 54.332031,48.8125 L 42.888672,37.033203 A 12,12 0 0 1 32,44 12,12 0 0 1 20,32 12,12 0 0 1 32,20 12,12 0 0 1 42.890625,26.964844 L 54.365234,15.154297 A 28,28 0 0 0 32,4 Z"
       style="fill:#516d95;fill-opacity:1"
       id="path2" />
    <path
       d="M 29.314453,19.103516 C 18.911861,18.924993 7.353836,27.83515 7.339844,45.203125 a 28,28 0 0 0 0.015625,0.03125 C 7.8073666,27.851835 20.007581,19.275421 30.503906,20.167969 A 12,12 0 0 1 32,20 12,12 0 0 1 37.347656,21.318359 C 34.9306,19.889557 32.167173,19.152472 29.314453,19.103516 Z M 4.205078,35.226562 a 28,28 0 0 0 0.078125,0.560547 C 4.2570152,35.600328 4.2278897,35.417326 4.205078,35.226562 Z m 0.6113281,3.375 a 28,28 0 0 0 0.1210938,0.472657 c -0.04084,-0.156674 -0.081873,-0.311207 -0.1210938,-0.472657 z m 1.0898438,3.494141 a 28,28 0 0 0 0.021484,0.05664 c -0.0075,-0.01955 -0.01397,-0.03693 -0.021484,-0.05664 z m 1.4082031,3.119141 c 0.015363,0.03609 0.024056,0.06409 0.039063,0.09961 5.257e-4,-0.02199 0.00139,-0.04444 0.00195,-0.06641 l -0.015625,-0.01367 z"
       style="opacity:0.2"
       id="path3" />
    <path
       d="M 32,4 C 16.536027,4 4,16.536027 4,32 c 0,7.676588 3.3398439,13.235349 3.3398439,13.235349 0,-26.4972 26.8553211,-33.331483 35.5507811,-18.270505 L 54.365234,15.154297 C 49.075117,8.1307313 40.792941,4.0001306 32,4 Z"
       style="fill:#00ccff"
       id="path4" />
    <path
       d="M 32,4 A 28,28 0 0 0 4,32 28,28 0 0 0 4.0234375,32.378906 28,28 0 0 1 32,5 28,28 0 0 1 53.878906,15.654297 l 0.484375,-0.498047 a 28,28 0 0 0 -0.04492,-0.05664 28,28 0 0 0 -2.314453,-2.683593 28,28 0 0 0 -0.08984,-0.09375 A 28,28 0 0 0 49.273437,9.9726562 28,28 0 0 0 49.095703,9.8339844 28,28 0 0 0 46.179687,7.8632812 28,28 0 0 0 46.03125,7.7773438 28,28 0 0 0 42.871093,6.1992188 28,28 0 0 0 42.783203,6.1621094 28,28 0 0 0 39.445312,5.0175781 28,28 0 0 0 39.201171,4.9492188 28,28 0 0 0 35.779296,4.2617188 28,28 0 0 0 35.568359,4.2363281 28,28 0 0 0 32,4 Z M 20.044922,32.390625 A 12,12 0 0 0 20,33 12,12 0 0 0 32,45 12,12 0 0 0 43.164062,37.316406 l -0.27539,-0.283203 A 12,12 0 0 1 32,44 12,12 0 0 1 20.044922,32.390625 Z M 8.515625,50.525391 C 8.4945557,51.023792 8.4523237,51.555366 8.4003906,52.203125 8.2456912,54.133119 7.7221573,56.102894 7.0683594,57.212891 6.77196,57.714889 6.5054996,58.226283 6.3125,58.644531 6.1195105,59.062691 6,59.387532 6,59.519531 c 0,0.109 0.096906,0.196578 0.2539062,0.267578 0.1954998,-0.442998 0.4793538,-1.00722 0.8144532,-1.574218 0.6537986,-1.109998 1.1773316,-3.07977 1.3320312,-5.009766 0.087965,-1.09708 0.1514099,-1.900956 0.1152344,-2.677734 z"
       style="opacity:0.2;fill:#ffffff"
       id="path5" />
  </g>
</svg>
