<?xml version="1.0" encoding="UTF-8" standalone="no"?>
<svg
   width="62"
   height="62"
   viewBox="0 0 16.404166 16.404167"
   version="1.1"
   id="svg1443"
   inkscape:version="1.4.1 (unknown)"
   sodipodi:docname="commix.svg"
   xmlns:inkscape="http://www.inkscape.org/namespaces/inkscape"
   xmlns:sodipodi="http://sodipodi.sourceforge.net/DTD/sodipodi-0.dtd"
   xmlns:xlink="http://www.w3.org/1999/xlink"
   xmlns="http://www.w3.org/2000/svg"
   xmlns:svg="http://www.w3.org/2000/svg"
   xmlns:rdf="http://www.w3.org/1999/02/22-rdf-syntax-ns#"
   xmlns:cc="http://creativecommons.org/ns#"
   xmlns:dc="http://purl.org/dc/elements/1.1/">
  <defs
     id="defs1437">
    <linearGradient
       gradientTransform="matrix(0.4711726,0,0,0.47114666,-53.953909,-18.000765)"
       gradientUnits="userSpaceOnUse"
       y2="70.679932"
       x2="132.21078"
       y1="42.151531"
       x1="132.21078"
       id="linearGradient1632"
       xlink:href="#linearGradient1630"
       inkscape:collect="always" />
    <linearGradient
       id="linearGradient1630"
       inkscape:collect="always">
      <stop
         id="stop1626"
         offset="0"
         style="stop-color:#cfcfe3;stop-opacity:1;" />
      <stop
         id="stop1628"
         offset="1"
         style="stop-color:#8c9cab;stop-opacity:1;" />
    </linearGradient>
    <filter
       color-interpolation-filters="sRGB"
       height="1.1311001"
       width="1.1106"
       y="-0.065563001"
       x="-0.055319"
       id="c-9">
      <feGaussianBlur
         id="feGaussianBlur1093"
         stdDeviation="1.1062912" />
    </filter>
    <linearGradient
       gradientUnits="userSpaceOnUse"
       gradientTransform="matrix(0.13235,0,0,0.13075,-32.379,1.0873)"
       y2="269.48999"
       y1="235.14999"
       x2="657.65002"
       x1="319.20999"
       id="a-12">
      <stop
         id="stop1076"
         offset="0"
         stop-color="#e54c18" />
      <stop
         id="stop1078"
         offset="1"
         stop-color="#fec350" />
    </linearGradient>
    <linearGradient
       id="paint1_linear_8_721"
       x1="12.0001"
       y1="14.825"
       x2="12.0001"
       y2="8.7750196"
       gradientUnits="userSpaceOnUse"
       gradientTransform="matrix(0.58965537,0,0,0.59037149,1.1261742,1.2356487)">
      <stop
         stop-color="#02AA93"
         id="stop4" />
      <stop
         offset="1"
         stop-color="#67FF80"
         id="stop5" />
    </linearGradient>
    <linearGradient
       id="linear0"
       gradientUnits="userSpaceOnUse"
       x1="0"
       y1="0"
       x2="0"
       y2="1"
       gradientTransform="matrix(68.686472,0,0,43.89438,-2.487702,8.992595)">
      <stop
         offset="0"
         style="stop-color:#2478ff;stop-opacity:1;"
         id="stop1" />
      <stop
         offset="1"
         style="stop-color:#0049bf;stop-opacity:1;"
         id="stop2" />
    </linearGradient>
  </defs>
  <sodipodi:namedview
     id="base"
     pagecolor="#ffffff"
     bordercolor="#666666"
     borderopacity="1.0"
     inkscape:pageopacity="0.0"
     inkscape:pageshadow="2"
     inkscape:zoom="7.9195959"
     inkscape:cx="26.642774"
     inkscape:cy="44.067905"
     inkscape:document-units="px"
     inkscape:current-layer="layer1"
     inkscape:document-rotation="0"
     showgrid="false"
     units="px"
     inkscape:window-width="1920"
     inkscape:window-height="996"
     inkscape:window-x="0"
     inkscape:window-y="0"
     inkscape:window-maximized="1"
     inkscape:showpageshadow="2"
     inkscape:pagecheckerboard="0"
     inkscape:deskcolor="#d1d1d1" />
  <metadata
     id="metadata1440">
    <rdf:RDF>
      <cc:Work
         rdf:about="">
        <dc:format>image/svg+xml</dc:format>
        <dc:type
           rdf:resource="http://purl.org/dc/dcmitype/StillImage" />
      </cc:Work>
    </rdf:RDF>
  </metadata>
  <g
     inkscape:label="Capa 1"
     inkscape:groupmode="layer"
     id="layer1">
    <g
       style="opacity:0.295"
       transform="matrix(0.47117252,0,0,0.47114656,-31.72741,-18.000762)"
       id="g1702">
      <rect
         ry="6.6098609"
         rx="6.6098609"
         y="40.709618"
         x="69.839508"
         height="29.810888"
         width="29.810888"
         id="rect1634"
         style="fill:none;fill-opacity:1;stroke:#000000;stroke-width:0.1;stroke-linecap:round;stroke-linejoin:round;stroke-miterlimit:4;stroke-dasharray:none;stroke-opacity:0.02" />
      <rect
         style="fill:none;fill-opacity:1;stroke:#000000;stroke-width:0.2;stroke-linecap:round;stroke-linejoin:round;stroke-miterlimit:4;stroke-dasharray:none;stroke-opacity:0.02"
         id="rect1638"
         width="29.810888"
         height="29.810888"
         x="69.839508"
         y="40.709618"
         rx="6.6098609"
         ry="6.6098609" />
      <rect
         ry="6.6098609"
         rx="6.6098609"
         y="40.709618"
         x="69.839508"
         height="29.810888"
         width="29.810888"
         id="rect1640"
         style="fill:none;fill-opacity:1;stroke:#000000;stroke-width:0.3;stroke-linecap:round;stroke-linejoin:round;stroke-miterlimit:4;stroke-dasharray:none;stroke-opacity:0.02" />
      <rect
         style="fill:none;fill-opacity:1;stroke:#000000;stroke-width:0.4;stroke-linecap:round;stroke-linejoin:round;stroke-miterlimit:4;stroke-dasharray:none;stroke-opacity:0.02"
         id="rect1642"
         width="29.810888"
         height="29.810888"
         x="69.839508"
         y="40.709618"
         rx="6.6098609"
         ry="6.6098609" />
      <rect
         ry="6.6098609"
         rx="6.6098609"
         y="40.709618"
         x="69.839508"
         height="29.810888"
         width="29.810888"
         id="rect1644"
         style="fill:none;fill-opacity:1;stroke:#000000;stroke-width:0.5;stroke-linecap:round;stroke-linejoin:round;stroke-miterlimit:4;stroke-dasharray:none;stroke-opacity:0.02" />
      <rect
         style="fill:none;fill-opacity:1;stroke:#000000;stroke-width:0.6;stroke-linecap:round;stroke-linejoin:round;stroke-miterlimit:4;stroke-dasharray:none;stroke-opacity:0.02"
         id="rect1646"
         width="29.810888"
         height="29.810888"
         x="69.839508"
         y="40.709618"
         rx="6.6098609"
         ry="6.6098609" />
      <rect
         ry="6.6098609"
         rx="6.6098609"
         y="40.709618"
         x="69.839508"
         height="29.810888"
         width="29.810888"
         id="rect1648"
         style="fill:none;fill-opacity:1;stroke:#000000;stroke-width:0.7;stroke-linecap:round;stroke-linejoin:round;stroke-miterlimit:4;stroke-dasharray:none;stroke-opacity:0.02" />
      <rect
         style="fill:none;fill-opacity:1;stroke:#000000;stroke-width:0.8;stroke-linecap:round;stroke-linejoin:round;stroke-miterlimit:4;stroke-dasharray:none;stroke-opacity:0.02"
         id="rect1650"
         width="29.810888"
         height="29.810888"
         x="69.839508"
         y="40.709618"
         rx="6.6098609"
         ry="6.6098609" />
      <rect
         ry="6.6098609"
         rx="6.6098609"
         y="40.709618"
         x="69.839508"
         height="29.810888"
         width="29.810888"
         id="rect1652"
         style="fill:none;fill-opacity:1;stroke:#000000;stroke-width:1;stroke-linecap:round;stroke-linejoin:round;stroke-miterlimit:4;stroke-dasharray:none;stroke-opacity:0.02" />
      <rect
         style="fill:none;fill-opacity:1;stroke:#000000;stroke-width:1.2;stroke-linecap:round;stroke-linejoin:round;stroke-miterlimit:4;stroke-dasharray:none;stroke-opacity:0.02"
         id="rect1654"
         width="29.810888"
         height="29.810888"
         x="69.839508"
         y="40.709618"
         rx="6.6098609"
         ry="6.6098609" />
      <rect
         ry="6.6098609"
         rx="6.6098609"
         y="40.709618"
         x="69.839508"
         height="29.810888"
         width="29.810888"
         id="rect1656"
         style="fill:none;fill-opacity:1;stroke:#000000;stroke-width:1.4;stroke-linecap:round;stroke-linejoin:round;stroke-miterlimit:4;stroke-dasharray:none;stroke-opacity:0.02" />
      <rect
         style="fill:none;fill-opacity:1;stroke:#000000;stroke-width:1.6;stroke-linecap:round;stroke-linejoin:round;stroke-miterlimit:4;stroke-dasharray:none;stroke-opacity:0.02"
         id="rect1658"
         width="29.810888"
         height="29.810888"
         x="69.839508"
         y="40.709618"
         rx="6.6098609"
         ry="6.6098609" />
      <rect
         ry="6.6098609"
         rx="6.6098609"
         y="40.709618"
         x="69.839508"
         height="29.810888"
         width="29.810888"
         id="rect1660"
         style="fill:none;fill-opacity:1;stroke:#000000;stroke-width:1.8;stroke-linecap:round;stroke-linejoin:round;stroke-miterlimit:4;stroke-dasharray:none;stroke-opacity:0.02" />
      <rect
         style="fill:none;fill-opacity:1;stroke:#000000;stroke-width:2;stroke-linecap:round;stroke-linejoin:round;stroke-miterlimit:4;stroke-dasharray:none;stroke-opacity:0.02"
         id="rect1662"
         width="29.810888"
         height="29.810888"
         x="69.839508"
         y="40.709618"
         rx="6.6098609"
         ry="6.6098609" />
      <rect
         ry="6.6098609"
         rx="6.6098609"
         y="40.709618"
         x="69.839508"
         height="29.810888"
         width="29.810888"
         id="rect1664"
         style="fill:none;fill-opacity:1;stroke:#000000;stroke-width:2.2;stroke-linecap:round;stroke-linejoin:round;stroke-miterlimit:4;stroke-dasharray:none;stroke-opacity:0.02" />
      <rect
         style="fill:none;fill-opacity:1;stroke:#000000;stroke-width:2.6;stroke-linecap:round;stroke-linejoin:round;stroke-miterlimit:4;stroke-dasharray:none;stroke-opacity:0.02"
         id="rect1666"
         width="29.810888"
         height="29.810888"
         x="69.839508"
         y="40.709618"
         rx="6.6098609"
         ry="6.6098609" />
      <rect
         ry="6.6098609"
         rx="6.6098609"
         y="40.709618"
         x="69.839508"
         height="29.810888"
         width="29.810888"
         id="rect1668"
         style="fill:none;fill-opacity:1;stroke:#000000;stroke-width:3;stroke-linecap:round;stroke-linejoin:round;stroke-miterlimit:4;stroke-dasharray:none;stroke-opacity:0.02" />
      <rect
         style="fill:none;fill-opacity:1;stroke:#000000;stroke-width:3.4;stroke-linecap:round;stroke-linejoin:round;stroke-miterlimit:4;stroke-dasharray:none;stroke-opacity:0.02"
         id="rect1670"
         width="29.810888"
         height="29.810888"
         x="69.839508"
         y="40.709618"
         rx="6.6098609"
         ry="6.6098609" />
      <rect
         ry="6.6098609"
         rx="6.6098609"
         y="40.709618"
         x="69.839508"
         height="29.810888"
         width="29.810888"
         id="rect1672"
         style="fill:none;fill-opacity:1;stroke:#000000;stroke-width:3.8;stroke-linecap:round;stroke-linejoin:round;stroke-miterlimit:4;stroke-dasharray:none;stroke-opacity:0.02" />
      <rect
         style="fill:none;fill-opacity:1;stroke:#000000;stroke-width:4.2;stroke-linecap:round;stroke-linejoin:round;stroke-miterlimit:4;stroke-dasharray:none;stroke-opacity:0.02"
         id="rect1674"
         width="29.810888"
         height="29.810888"
         x="69.839508"
         y="40.709618"
         rx="6.6098609"
         ry="6.6098609" />
      <rect
         ry="6.6098609"
         rx="6.6098609"
         y="40.709618"
         x="69.839508"
         height="29.810888"
         width="29.810888"
         id="rect1676"
         style="fill:none;fill-opacity:1;stroke:#000000;stroke-width:4.6;stroke-linecap:round;stroke-linejoin:round;stroke-miterlimit:4;stroke-dasharray:none;stroke-opacity:0.02" />
      <rect
         style="fill:none;fill-opacity:1;stroke:#000000;stroke-width:5;stroke-linecap:round;stroke-linejoin:round;stroke-miterlimit:4;stroke-dasharray:none;stroke-opacity:0.02"
         id="rect1678"
         width="29.810888"
         height="29.810888"
         x="69.839508"
         y="40.709618"
         rx="6.6098609"
         ry="6.6098609" />
    </g>
    <rect
       ry="3.1142132"
       rx="3.1143851"
       y="1.1794344"
       x="1.1790471"
       height="14.045296"
       width="14.04607"
       id="rect849"
       style="fill:url(#linearGradient1632);fill-opacity:1;stroke-width:1.29783;stroke-linecap:round;stroke-linejoin:round" />
    <g
       id="g7"
       transform="matrix(0.26527921,0,0,0.26458388,-7.7582881,-6.6278083)">
      <path
         d="m 38.90882,76.753913 c 2.495222,-2.940207 5.896598,-7.156953 6.140112,-7.611796 0.189527,-0.354128 0.122415,-1.468783 -0.246695,-4.097873 -0.398365,-2.837519 -0.450026,-3.823107 -0.241039,-4.599224 0.221804,-0.823705 1.779006,-2.536708 9.372386,-10.309793 6.371162,-6.521846 9.13092,-9.511723 9.187845,-9.953731 0.05678,-0.440761 -0.149721,-0.870268 -0.68288,-1.420359 l -0.764286,-0.788545 1.736871,-1.683442 2.691856,2.652604 c 1.949783,1.92132 2.859842,2.652604 3.301292,2.652604 0.446844,0 1.317056,-0.718076 3.261667,-2.691298 1.458681,-1.480261 2.652232,-2.768688 2.652232,-2.863005 0,-0.09444 -0.522168,-0.729945 -1.160363,-1.412229 l -1.160345,-1.240524 1.08651,-1.086509 8.543622,8.543622 -1.083905,1.083905 -1.122878,-1.035035 c -0.617583,-0.569271 -1.271331,-1.035035 -1.452766,-1.035035 -0.497258,0 -5.63411,5.31544 -5.63411,5.83 0,0.245969 1.227799,1.691665 2.728505,3.212741 1.500649,1.520983 2.728504,2.878259 2.728504,3.015921 0,0.137817 -0.334854,0.571392 -0.74412,0.963488 l -0.744121,0.712905 -0.695678,-0.666509 c -0.382627,-0.366573 -0.85507,-0.666509 -1.049862,-0.666509 -0.194792,0 -4.541741,4.17675 -9.659989,9.28179 -10.624742,10.597209 -9.958381,10.124878 -13.522534,9.584461 -1.091383,-0.165482 -2.728318,-0.362555 -3.637634,-0.437934 -1.984942,-0.164553 -1.674941,-0.35275 -6.799031,4.128382 -2.035914,1.780495 -3.798922,3.237669 -3.917795,3.238227 -0.118889,5.58e-4 0.281147,-0.584953 0.888963,-1.301169 z"
         stroke="#ffffff"
         stroke-width="1.8603"
         id="path1" />
      <path
         d="m 38.90882,76.753913 c 2.495222,-2.940207 5.896598,-7.156953 6.140112,-7.611796 0.189527,-0.354128 0.122415,-1.468783 -0.246695,-4.097873 -0.398365,-2.837519 -0.450026,-3.823107 -0.241039,-4.599224 0.221804,-0.823705 1.779006,-2.536708 9.372386,-10.309793 6.371162,-6.521846 9.13092,-9.511723 9.187845,-9.953731 0.05678,-0.440761 -0.149721,-0.870268 -0.68288,-1.420359 l -0.764286,-0.788545 1.736871,-1.683442 2.691856,2.652604 c 1.949783,1.92132 2.859842,2.652604 3.301292,2.652604 0.446844,0 1.317056,-0.718076 3.261667,-2.691298 1.458681,-1.480261 2.652232,-2.768688 2.652232,-2.863005 0,-0.09444 -0.522168,-0.729945 -1.160363,-1.412229 l -1.160363,-1.240524 1.086509,-1.086509 8.543622,8.543622 -1.083905,1.083905 -1.122878,-1.035035 c -0.617583,-0.569271 -1.27133,-1.035035 -1.452765,-1.035035 -0.497259,0 -5.63411,5.31544 -5.63411,5.83 0,0.245969 1.227799,1.691665 2.728504,3.212741 1.50065,1.520983 2.728505,2.878259 2.728505,3.015921 0,0.137817 -0.334854,0.571392 -0.744121,0.963488 l -0.744121,0.712905 -0.695678,-0.666509 c -0.382627,-0.366573 -0.855069,-0.666509 -1.049861,-0.666509 -0.194793,0 -4.541741,4.17675 -9.659989,9.28179 -10.624742,10.597209 -9.958382,10.124878 -13.522534,9.584461 -1.091384,-0.165482 -2.728319,-0.362555 -3.637634,-0.437934 -1.984942,-0.164553 -1.674942,-0.35275 -6.799031,4.128382 -2.035915,1.780495 -3.798923,3.237669 -3.917796,3.238227 -0.118888,5.58e-4 0.281147,-0.584953 0.888964,-1.301169 z"
         stroke-width="0.248034"
         id="path2-3" />
      <g
         id="g4"
         transform="matrix(0.18603018,0,0,0.18603018,94.985757,-15.332886)">
        <rect
           transform="rotate(-45)"
           x="-444.26001"
           y="99.141998"
           width="114.37"
           height="76.166"
           rx="18.409"
           ry="18.409"
           fill="#d41919"
           id="rect2" />
        <path
           transform="matrix(0.57339,0,0,0.57339,-332.58,231.21)"
           d="m 295.46,139.13 c -8.2067,0 -16.413,3.1432 -22.701,9.4316 l -47.273,47.273 c 2.1898,0.88413 3.9608,1.2897 5.0664,1.0801 46.109,-8.741 101.13,-4.6988 132.54,9.7363 5.7553,2.6444 10.797,4.8961 11.203,5.0039 0.34131,0.0905 0.11377,-1.5335 -0.4668,-3.752 -0.73698,-1.844 -1.6563,-3.6308 -2.75,-5.3418 -1.4121,-1.9201 -3.306,-4.1204 -5.5469,-6.373 -1.9724,-1.9828 -3.8327,-3.934 -5.6035,-5.8574 l -41.77,-41.77 c -6.2884,-6.2884 -14.496,-9.4316 -22.703,-9.4316 z"
           fill="#ffffff"
           stroke-width="2.3254"
           id="path3" />
        <path
           d="m -147.81,355.93 -26.215,26.215 6.2363,6.418 26.307,-26.305 z m -68.158,22.057 v 9.7637 l 20.609,0.17969 0.36133,20.43 h 8.1367 v -30.373 z"
           id="path4" />
      </g>
      <path
         d="m 67.488703,51.948385 -4.876785,3.810099 v 1.066687 l 1.160128,1.193942 4.893853,-4.893532 10e-7,-1.066687 z M 54.808997,56.05161 v 1.816354 l 3.833993,0.03343 0.06722,3.800605 h 1.513735 v -5.650347 z"
         opacity="0.3"
         id="path5"
         style="stroke-width:0.106669" />
      <path
         d="m 64.631049,42.521007 c -0.875398,0 -1.750753,0.335281 -2.421486,1.006057 L 52.008304,53.728323 c -0.807471,0.807471 -1.128128,1.911289 -0.963559,2.954829 0.108834,-0.690242 0.429469,-1.354052 0.963559,-1.888142 L 62.209563,44.593751 c 1.341572,-1.341572 3.501613,-1.341572 4.843185,0 l 5.176098,5.176097 c 0.534122,0.534122 0.854747,1.198103 0.963559,1.888356 0.164548,-1.043561 -0.156088,-2.147561 -0.963559,-2.955043 l -5.176098,-5.176097 c -0.670775,-0.670776 -1.546269,-1.006057 -2.421699,-1.006057 z"
         opacity="0.3"
         id="path6"
         style="stroke-width:0.106669" />
      <path
         d="m 73.51335,32.873465 -0.515636,0.515423 1.160448,1.240664 c 0.290363,0.310416 0.971795,1.170155 1.175916,1.41464 0.253743,-0.283803 0.407304,-0.470206 0.407304,-0.503348 0,-0.09444 -0.944957,-1.295705 -1.583177,-1.978064 z m -11.305813,4.5843 -0.532928,0.516682 0.764185,0.788559 c 0.232965,0.240356 0.403571,0.457619 0.517098,0.662924 0.101991,-0.147234 0.158382,-0.251343 0.165838,-0.309168 0.05678,-0.440766 -0.149763,-0.870353 -0.682925,-1.4204 z m 16.760849,1.335599 c -0.497268,0 -5.634239,5.315407 -5.634239,5.82987 0,0.07584 0.117463,0.266522 0.322918,0.537514 1.121728,-1.467228 4.888519,-5.300687 5.311353,-5.300687 0.181433,0 0.835142,0.465737 1.452721,1.035017 l 1.122901,1.035017 1.083968,-1.083967 -0.533344,-0.533344 -0.550634,0.550635 -1.122901,-1.035017 c -0.617591,-0.56928 -1.271278,-1.035017 -1.452721,-1.035017 z m -3.411157,12.402367 c -0.194799,0 -4.541953,4.176826 -9.660129,9.281882 -10.624841,10.59732 -9.958588,10.125204 -13.522389,9.584714 -1.091434,-0.165486 -2.728265,-0.362535 -3.637615,-0.437928 -1.984891,-0.164558 -1.674912,-0.352657 -6.799062,4.128611 -0.656002,0.573707 -1.275757,1.105941 -1.829154,1.574643 -0.410984,0.493215 -0.816837,0.977917 -1.19981,1.429147 -0.60783,0.716227 -1.007869,1.301572 -0.888976,1.301038 0.118892,-5.33e-4 1.882062,-1.457627 3.91794,-3.238141 5.12415,-4.481258 4.814171,-4.293201 6.799062,-4.128611 0.909329,0.07539 2.546181,0.272442 3.637615,0.437928 3.564227,0.540416 2.897975,1.012606 13.522389,-9.584714 5.118283,-5.105057 9.465352,-9.281882 9.660129,-9.281882 0.194798,0 0.66718,0.299888 1.049812,0.666466 l 0.695639,0.666679 0.744185,-0.712931 c 0.409266,-0.392103 0.744185,-0.825743 0.744185,-0.963559 0,-0.04497 -0.141144,-0.229594 -0.369383,-0.497514 -0.110562,0.127907 -0.237786,0.26312 -0.374802,0.394387 l -0.744185,0.71293 -0.695639,-0.666679 C 76.224409,51.495609 75.752027,51.195731 75.557229,51.195731 Z M 44.462242,61.01885 c -0.06854,0.739129 0.03083,1.824354 0.34022,4.028023 0.173134,1.233196 0.27737,2.12292 0.322299,2.767519 0.08046,-0.531819 -0.01822,-1.668405 -0.322299,-3.834206 -0.18954,-1.349999 -0.298374,-2.27279 -0.34022,-2.961336 z"
         fill="#ffffff"
         opacity="0.2"
         stroke-width="0.248047"
         id="path7-6" />
    </g>
  </g>
</svg>
