<?xml version="1.0" encoding="UTF-8" standalone="no"?>
<svg
   width="62"
   height="62"
   version="1.1"
   id="svg10"
   sodipodi:docname="CraftStudio.svg"
   inkscape:version="1.4.2 (unknown)"
   xmlns:inkscape="http://www.inkscape.org/namespaces/inkscape"
   xmlns:sodipodi="http://sodipodi.sourceforge.net/DTD/sodipodi-0.dtd"
   xmlns="http://www.w3.org/2000/svg"
   xmlns:svg="http://www.w3.org/2000/svg">
  <defs
     id="defs10" />
  <sodipodi:namedview
     id="namedview10"
     pagecolor="#ffffff"
     bordercolor="#000000"
     borderopacity="0.25"
     inkscape:showpageshadow="2"
     inkscape:pageopacity="0.0"
     inkscape:pagecheckerboard="0"
     inkscape:deskcolor="#d1d1d1"
     inkscape:zoom="8.4079416"
     inkscape:cx="31.458354"
     inkscape:cy="26.344141"
     inkscape:current-layer="svg10" />
  <g
     id="g10"
     transform="translate(2.2575008e-7,0.50010236)">
    <path
       style="opacity:0.2;stroke-width:0.999942"
       d="m 31.123966,2.9642162 c -0.05188,-0.00109 -0.10265,0.00739 -0.154431,0.00761 -0.03129,0.002 -0.06274,0.00309 -0.09416,0.00371 -1.072344,0.020128 -2.123014,0.2995152 -3.054791,0.837796 L 9.1076377,14.636745 C 8.1748274,15.176262 7.4293553,15.943828 6.885288,16.833131 l -0.011298,-0.0078 c -0.02141,0.03498 -0.035743,0.07409 -0.056507,0.109443 -0.022032,0.03752 -0.050299,0.07139 -0.071566,0.109443 l 0.011298,0.0078 c -0.5241067,0.935391 -0.8287404,1.996181 -0.8286706,3.105882 v 15.308635 l -1.3013927,0.835911 c -0.9208227,0.58081 -0.8051864,1.928828 0.2015186,2.353001 l 1.0998748,0.50192 v 2.64736 c -6e-7,1.110594 0.3085931,2.168898 0.836206,3.102106 0.042122,0.07452 0.075496,0.153612 0.1205342,0.226431 l 0.026373,-0.01504 c 0.189946,0.314167 0.3846381,0.629322 0.6290377,0.905721 a 6.3592429,6.3712587 0 0 0 0.1167678,0.139632 c 0.1040799,0.111066 0.2154116,0.213259 0.3277023,0.317004 a 6.3592429,6.3712587 0 0 0 0.2184687,0.192466 c 0.103329,0.08714 0.2070655,0.17585 0.3164019,0.256624 a 6.3592429,6.3712587 0 0 0 0.5876044,0.392478 l 12.0270509,6.955215 1.386141,2.994553 c 0.5076,1.01738 1.955823,1.01738 2.463417,0 l 0.278738,-0.605702 2.557585,1.479348 a 6.3592429,6.3712587 0 0 0 3.054789,0.845345 v 0.0078 a 6.3592429,6.3712587 0 0 0 3.303392,-0.852887 l 8.710478,-5.038099 0.15255,0.905726 c 0.192897,1.145286 1.669252,1.525508 2.405038,0.618913 l 4.593486,-5.660779 0.615853,-0.356632 5.714074,1.126498 c 1.157137,0.225856 2.038417,-1.005957 1.433228,-2.003918 l -2.190336,-3.598402 a 6.3592429,6.3712587 0 0 0 0.457658,-2.334129 v -3.551279 l 0.807956,-1.400102 c 0.395773,-0.781075 -0.06042,-1.635075 -0.807956,-1.86999 V 20.157914 a 6.3592429,6.3712587 0 0 0 -0.05279,-0.758544 c -0.01,-0.08098 -0.02114,-0.16132 -0.0339,-0.241531 a 6.3592429,6.3712587 0 0 0 -0.0941,-0.479277 c -0.02588,-0.108684 -0.05513,-0.213959 -0.08667,-0.320775 a 6.3592429,6.3712587 0 0 0 -0.120519,-0.354749 c -0.04416,-0.122999 -0.08401,-0.246261 -0.135601,-0.366059 a 6.3592429,6.3712587 0 0 0 -0.0189,-0.04899 l -0.0039,0.0039 C 55.40838,17.327823 55.263951,17.075306 55.113908,16.829482 l -0.01888,0.01132 c -0.540356,-0.890101 -1.27161,-1.665103 -2.203397,-2.204029 L 34.178757,3.8133337 C 33.255918,3.2802817 32.21527,2.9888484 31.150334,2.9642162 c -0.0092,-2.13e-4 -0.01757,-1.66e-5 -0.02629,0 z"
       id="path1" />
    <path
       style="fill:#aa87de;stroke-width:0.999942"
       d="m 31.123966,2.0018831 c -0.07596,-0.0016 -0.150271,0.010166 -0.225999,0.011319 -0.0078,1.148e-4 -0.01497,-1.421e-4 -0.0226,0 -1.072333,0.020131 -2.124905,0.2976322 -3.056672,0.8359084 L 9.1095211,13.674414 C 8.1012208,14.25759 7.2941837,15.094701 6.7440368,16.078365 L 18.332274,30.017092 H 43.535225 L 55.236461,16.089684 C 54.687808,15.105555 53.89791,14.257472 52.889809,13.674414 L 34.180642,2.8491136 C 33.257806,2.3160618 32.213388,2.0265155 31.148449,2.0018831 c -0.0086,-1.994e-4 -0.01621,0.00195 -0.02455,0.00195 z"
       id="path2" />
    <path
       style="fill:#8d5fd3;stroke-width:0.999942"
       d="m 6.8758713,15.863247 c -0.6044015,0.986606 -0.9473989,2.13296 -0.9473235,3.330428 v 10.823417 10.825299 c -6e-7,1.111647 0.3076572,2.168261 0.836206,3.102112 h -0.00195 c 0.00325,0.0061 0.00803,0.01107 0.011298,0.01698 0.038676,0.06784 0.068132,0.14111 0.1092342,0.207565 l 0.015067,-0.0078 c 0.1901572,0.314659 0.3955877,0.619496 0.6403382,0.896289 a 6.3592429,6.3712587 0 0 0 0.1205341,0.139635 c 0.1040797,0.111064 0.213528,0.217033 0.325819,0.320777 a 6.3592429,6.3712587 0 0 0 0.2184683,0.190582 c 0.1033294,0.08714 0.2051826,0.17395 0.314519,0.254732 a 6.3592429,6.3712587 0 0 0 0.5913711,0.394369 L 27.81868,57.18124 a 6.3592429,6.3712587 0 0 0 3.305274,0.843456 l -0.05839,-13.410363 -0.0659,-14.597269 -12.535557,-7.35524 z"
       id="path3" />
    <path
       style="fill:#7137c8;stroke-width:0.999942"
       d="m 55.115926,15.86514 -11.580701,6.796712 -12.535558,7.35524 -0.06585,14.597268 -0.05843,13.417939 a 6.3592429,6.3712587 0 0 0 3.305278,-0.851006 L 52.889811,46.357878 a 6.3592429,6.3712587 0 0 0 2.233653,-2.186946 l 0.0059,0.0039 a 6.3592429,6.3712587 0 0 0 0.07538,-0.137749 6.3592429,6.3712587 0 0 0 0.04713,-0.08118 l -0.002,-0.002 a 6.3592429,6.3712587 0 0 0 0.821125,-3.111497 v -21.64873 a 6.3592429,6.3712587 0 0 0 -0.05083,-0.758546 c -0.01,-0.08099 -0.02309,-0.161316 -0.03584,-0.241523 a 6.3592429,6.3712587 0 0 0 -0.09604,-0.477393 c -0.02583,-0.108684 -0.05336,-0.217733 -0.08473,-0.324551 a 6.3592429,6.3712587 0 0 0 -0.118698,-0.352857 c -0.04416,-0.123 -0.084,-0.246266 -0.135597,-0.366063 a 6.3592429,6.3712587 0 0 0 -0.0226,-0.04899 l -0.002,0.002 C 55.408359,16.361691 55.265965,16.111072 55.115922,15.86525 Z"
       id="path4" />
    <path
       style="opacity:0.2;fill:#ffffff;stroke-width:0.999942"
       d="m 31.123966,1.999996 c -0.05188,-0.00109 -0.10265,0.00739 -0.154431,0.00761 -0.03129,0.002 -0.06274,0.00309 -0.09416,0.00371 -1.07234,0.020127 -2.123009,0.2995151 -3.054787,0.8377958 L 9.1076377,13.672529 C 8.1748274,14.21204 7.4293553,14.979607 6.885288,15.868907 l -0.011298,-0.0078 c -0.02141,0.03498 -0.035743,0.07409 -0.056507,0.109443 -0.022032,0.03753 -0.050299,0.07135 -0.071566,0.109439 l 0.011298,0.0078 c -0.5241077,0.935392 -0.8287416,1.996182 -0.8286717,3.105884 v 0.966108 c -6.99e-5,-1.109702 0.304564,-2.170492 0.8286727,-3.105885 l -0.011298,-0.0078 c 0.021282,-0.03798 0.049532,-0.07176 0.071566,-0.109442 0.020756,-0.03539 0.035078,-0.0745 0.056507,-0.109442 l 0.011298,0.0078 C 7.4293554,15.945713 8.1748275,15.178144 9.1076378,14.638636 L 27.820576,3.8152207 c 0.931779,-0.5382805 1.982447,-0.8176738 3.054788,-0.8377959 0.03142,-5.987e-4 0.06288,-0.00191 0.09413,-0.00371 0.0518,-2.125e-4 0.102576,-0.00856 0.154432,-0.00761 0.0091,-1.66e-5 0.01751,-2.13e-4 0.02629,0 1.064939,0.024636 2.105585,0.3160656 3.028423,0.8491172 l 18.713053,10.823414 c 0.931786,0.538915 1.663038,1.313921 2.203512,2.203928 l 0.01889,-0.01132 c 0.15004,0.245827 0.294479,0.49834 0.41057,0.762321 l 0.0039,-0.0039 a 6.3592429,6.3712587 0 0 1 0.01888,0.04898 c 0.05156,0.119795 0.09142,0.243062 0.135603,0.366061 a 6.3592429,6.3712587 0 0 1 0.120535,0.354748 c 0.03144,0.10681 0.06069,0.212092 0.08667,0.320773 a 6.3592429,6.3712587 0 0 1 0.09415,0.47928 c 0.01276,0.08023 0.0243,0.160574 0.0339,0.241524 a 6.3592429,6.3712587 0 0 1 0.05279,0.758545 v -0.966108 a 6.3592429,6.3712587 0 0 0 -0.05279,-0.758547 c -0.01,-0.08099 -0.02114,-0.161314 -0.0339,-0.241525 a 6.3592429,6.3712587 0 0 0 -0.09415,-0.479279 c -0.02585,-0.108682 -0.05512,-0.213957 -0.08667,-0.320779 a 6.3592429,6.3712587 0 0 0 -0.120573,-0.354695 c -0.04419,-0.122982 -0.08405,-0.246246 -0.135621,-0.366048 a 6.3592429,6.3712587 0 0 0 -0.01888,-0.04899 l -0.0039,0.0039 C 55.408514,16.363516 55.264076,16.111002 55.114035,15.86518 l -0.01889,0.01132 c -0.54042,-0.890042 -1.27167,-1.665045 -2.203457,-2.203964 L 34.178757,2.8491136 C 33.255918,2.3160618 32.21527,2.0246283 31.150334,1.999996 c -0.0092,-2.128e-4 -0.01757,-1.55e-5 -0.02629,0 z"
       id="path5" />
    <path
       style="opacity:0.2;stroke-width:0.999942"
       d="m 43.000352,30.983199 c -0.743473,0.01153 -1.339074,0.608736 -1.339056,1.341602 v 5.949482 l -6.145364,3.634224 c -0.963665,0.571046 -0.847544,1.981458 0.195868,2.394512 l 6.092628,2.403942 0.936023,5.523037 10.149358,-5.87212 a 6.3592429,6.3712587 0 0 0 2.233653,-2.186946 l 0.0059,0.0039 a 6.3592429,6.3712587 0 0 0 0.07538,-0.137749 6.3592429,6.3712587 0 0 0 0.04713,-0.08118 l -0.002,-0.002 a 6.3592429,6.3712587 0 0 0 0.112997,-0.226429 l -1.258086,-2.068028 1.966213,-3.405902 v -3.270045 c -0.207779,-0.06536 -0.434637,-0.09268 -0.676122,-0.04527 l -6.094546,1.103849 -5.314806,-4.666374 c -0.260566,-0.25684 -0.616739,-0.39806 -0.985111,-0.3925 z M 8.3034485,31.149248 c -0.770396,-0.01755 -1.4032261,0.586368 -1.4030938,1.337829 v 2.356775 l -0.9718069,0.622682 v 3.690832 l 0.9661571,0.441542 -0.033892,2.781329 c 0.1865103,1.173518 1.7313985,1.545647 2.4577679,0.592495 l 1.8249562,-2.20393 2.762868,-0.04527 c 1.154027,0.242357 2.062872,-0.955168 1.487848,-1.960521 l -1.71573,-2.007691 0.881404,-1.852964 c 0.476141,-1.001665 -0.426072,-2.10347 -1.533044,-1.87183 L 10.810188,33.487151 9.2771399,31.575694 C 9.0249863,31.311581 8.6733968,31.157542 8.3034485,31.149248 Z M 19.810697,38.71205 c -0.754308,0.0093 -1.361636,0.625307 -1.361658,1.381231 v 4.947522 l -3.438994,3.351184 c -0.327819,0.328306 -0.437202,0.756413 -0.382321,1.158573 l 2.909778,1.683141 2.510498,0.700049 0.476488,1.028376 5.090686,2.943604 1.742095,-3.777626 5.154725,0.192467 c 1.226662,-4.83e-4 1.840767,-1.48541 0.973688,-2.354887 l -3.388137,-3.781401 0.900234,-4.764491 c 0.25237,-1.010998 -0.661615,-1.926591 -1.670523,-1.673706 L 24.21585,41.365071 20.590408,38.94414 c -0.23081,-0.154225 -0.502306,-0.2353 -0.779711,-0.23209 z"
       id="path6" />
    <path
       style="fill:#ffd42a;stroke-width:0.999942"
       d="m 43.001294,30.017248 c -0.743474,0.01153 -1.340046,0.608844 -1.340028,1.341712 v 5.9486 l -6.144463,3.634671 c -0.963663,0.571045 -0.849319,1.982112 0.19409,2.395162 l 6.093947,2.403026 1.236336,7.306032 c 0.192898,1.145286 1.670419,1.525041 2.406205,0.618445 l 4.92674,-6.071762 5.995565,1.181858 c 1.157138,0.225857 2.03828,-1.006746 1.43309,-2.004708 l -3.698378,-6.077003 2.773628,-4.805733 c 0.505781,-0.998131 -0.373378,-2.133286 -1.483605,-1.915606 l -6.093946,1.103588 -5.315429,-4.665202 c -0.260444,-0.256821 -0.615377,-0.398642 -0.983752,-0.39308 z"
       id="path7" />
    <path
       style="fill:#ffd42a;stroke-width:0.999942"
       d="m 19.810276,37.74631 c -0.754309,0.0093 -1.36112,0.624211 -1.361145,1.38013 v 4.949071 l -3.439025,3.349531 c -0.757618,0.758736 -0.399031,2.055639 0.64022,2.315493 l 4.397952,1.226485 2.472113,5.337837 c 0.507599,1.017378 1.956443,1.017378 2.464047,0 l 2.372592,-5.143755 5.154685,0.193699 c 1.226657,-4.82e-4 1.840858,-1.486448 0.973782,-2.355925 l -3.387538,-3.781506 0.899965,-4.763073 c 0.252361,-1.011002 -0.661582,-1.92684 -1.670496,-1.673951 l -5.110919,1.618406 -3.626126,-2.420624 c -0.230812,-0.154227 -0.502714,-0.23503 -0.780107,-0.231818 z"
       id="path8" />
    <path
       style="fill:#ffd42a;stroke-width:0.999942"
       d="m 8.30423,30.182614 c -0.7703962,-0.01755 -1.4045939,0.586745 -1.4044608,1.338211 v 2.357546 L 4.6271647,35.33681 c -0.920823,0.580813 -0.8056847,1.92815 0.2010205,2.352322 l 2.0656003,0.943546 -0.033174,2.781516 C 7.047122,42.587711 8.5920482,42.960653 9.318418,42.0075 l 1.825265,-2.203889 2.762949,-0.04673 c 1.154019,0.242358 2.062572,-0.954915 1.487547,-1.960268 l -1.715793,-2.007661 0.881808,-1.853109 c 0.476143,-1.001658 -0.426143,-2.103034 -1.533117,-1.871391 L 10.810232,32.52186 9.2771662,30.608637 C 9.0250151,30.344534 8.6741782,30.19091 8.30423,30.182614 Z"
       id="path9" />
    <path
       style="opacity:0.2;fill:#ffffff;stroke-width:0.999942"
       d="m 43.000352,30.017092 c -0.743473,0.01153 -1.339074,0.608737 -1.339056,1.341603 v 0.966106 c -1.8e-5,-0.732866 0.595583,-1.330075 1.339056,-1.341602 0.368376,-0.0058 0.724545,0.13566 0.984992,0.392479 l 5.314807,4.666374 6.09451,-1.103858 c 0.693893,-0.136045 1.297479,0.256264 1.529277,0.813267 0.366248,-0.9621 -0.468984,-1.987259 -1.529277,-1.779372 l -6.09451,1.103855 -5.314807,-4.666373 c -0.260447,-0.256819 -0.616616,-0.39804 -0.984992,-0.392479 z M 8.3034485,30.18314 c -0.770396,-0.01755 -1.4032261,0.58637 -1.4030938,1.337832 v 0.966105 c -1.323e-4,-0.751461 0.6326978,-1.355365 1.4030938,-1.337829 0.3699483,0.0086 0.7215378,0.162333 0.9736905,0.426445 l 1.533049,1.911457 2.216695,-0.456637 c 0.707021,-0.147946 1.327109,0.250583 1.561298,0.817042 0.384303,-0.976687 -0.486923,-2.007965 -1.561298,-1.783149 L 10.810188,32.521045 9.277139,30.609586 C 9.0249863,30.345474 8.6733968,30.191436 8.3034485,30.18314 Z M 6.9003547,33.877744 4.6271545,35.33634 C 4.0384538,35.70766 3.8773624,36.391177 4.0979343,36.947776 4.19548,36.697307 4.3652057,36.46767 4.6271545,36.302445 l 2.2732002,-1.458593 z m 7.0738493,2.256764 -0.295682,0.620799 1.715731,2.00769 c 0.03471,0.06058 0.04747,0.123244 0.07149,0.184922 0.147525,-0.35075 0.149673,-0.764226 -0.07149,-1.151029 z m 27.687092,1.17367 -6.145364,3.634224 c -0.614363,0.364057 -0.785102,1.067413 -0.561239,1.637848 0.101086,-0.264015 0.279972,-0.505072 0.561239,-0.671743 l 6.145364,-3.634224 z m -21.850599,0.437765 c -0.754308,0.0093 -1.361636,0.625306 -1.361658,1.38123 v 0.966108 c 2.2e-5,-0.755924 0.60735,-1.372243 1.361658,-1.381231 0.277405,-0.0033 0.548901,0.07779 0.779711,0.23209 l 3.625442,2.420931 5.111406,-1.618985 c 0.735754,-0.184419 1.415488,0.255935 1.634742,0.898179 l 0.03582,-0.190579 C 31.250185,39.442685 30.3362,38.527093 29.327291,38.779978 l -5.111411,1.618987 -3.625444,-2.420931 c -0.230805,-0.154228 -0.502302,-0.235302 -0.779707,-0.232091 z m -12.9272922,1.847303 -0.022597,1.820886 c 0.00215,0.01311 0.0088,0.023 0.011298,0.03591 l 0.022594,-1.851074 z m 47.5074362,1.569922 -0.28627,0.496263 3.698893,6.077794 c 0.04278,0.07071 0.06202,0.144616 0.09038,0.216992 0.149389,-0.362522 0.148236,-0.789591 -0.09038,-1.183099 z m -35.941802,2.91153 -3.438994,3.351182 c -0.412458,0.413067 -0.485936,0.982641 -0.306979,1.460483 0.06605,-0.176392 0.159856,-0.347028 0.306979,-0.494376 l 3.438994,-3.351184 z m 11.799172,1.311416 -0.150666,0.798169 3.388137,3.781401 c 0.150494,0.150908 0.241189,0.323033 0.306989,0.500036 0.18073,-0.47313 0.115738,-1.042246 -0.306989,-1.466141 z"
       id="path10" />
  </g>
</svg>
