<?xml version="1.0" encoding="UTF-8" standalone="no"?>
<svg
   width="62"
   height="62"
   version="1.1"
   id="svg4"
   sodipodi:docname="crashplan.svg"
   inkscape:version="1.4.2 (unknown)"
   xmlns:inkscape="http://www.inkscape.org/namespaces/inkscape"
   xmlns:sodipodi="http://sodipodi.sourceforge.net/DTD/sodipodi-0.dtd"
   xmlns:xlink="http://www.w3.org/1999/xlink"
   xmlns="http://www.w3.org/2000/svg"
   xmlns:svg="http://www.w3.org/2000/svg">
  <defs
     id="defs4">
    <linearGradient
       id="linearGradient4"
       inkscape:collect="always">
      <stop
         style="stop-color:#20b597;stop-opacity:1;"
         offset="0"
         id="stop4" />
      <stop
         style="stop-color:#a8e47b;stop-opacity:1;"
         offset="1"
         id="stop5" />
    </linearGradient>
    <linearGradient
       inkscape:collect="always"
       id="linearGradient3">
      <stop
         style="stop-color:#e5e5e5;stop-opacity:1;"
         offset="0"
         id="stop2" />
      <stop
         style="stop-color:#ffffff;stop-opacity:1"
         offset="1"
         id="stop3" />
    </linearGradient>
    <linearGradient
       inkscape:collect="always"
       xlink:href="#linearGradient1090"
       id="linearGradient1092"
       x1="18.567381"
       y1="57.795498"
       x2="18.567381"
       y2="13.448066"
       gradientUnits="userSpaceOnUse"
       gradientTransform="matrix(1.912103,0,0,1.8745332,1.6543789,2.1391703)" />
    <linearGradient
       inkscape:collect="always"
       id="linearGradient1090">
      <stop
         style="stop-color:#2bb995;stop-opacity:1"
         offset="0"
         id="stop1086" />
      <stop
         style="stop-color:#ffffff;stop-opacity:1"
         offset="1"
         id="stop1088" />
    </linearGradient>
    <linearGradient
       inkscape:collect="always"
       xlink:href="#linearGradient1090"
       id="linearGradient1"
       x1="18.567381"
       y1="57.795498"
       x2="18.567381"
       y2="13.448066"
       gradientUnits="userSpaceOnUse" />
    <linearGradient
       inkscape:collect="always"
       xlink:href="#linearGradient3"
       id="linearGradient2"
       gradientUnits="userSpaceOnUse"
       gradientTransform="matrix(1.912103,0,0,1.8745332,1.6543789,2.1391703)"
       x1="18.567381"
       y1="57.795498"
       x2="18.567381"
       y2="13.448066" />
    <linearGradient
       inkscape:collect="always"
       xlink:href="#linearGradient4"
       id="linearGradient5"
       x1="31"
       y1="58.017544"
       x2="31"
       y2="3.9824567"
       gradientUnits="userSpaceOnUse" />
  </defs>
  <sodipodi:namedview
     id="namedview4"
     pagecolor="#ffffff"
     bordercolor="#000000"
     borderopacity="0.25"
     inkscape:showpageshadow="2"
     inkscape:pageopacity="0.0"
     inkscape:pagecheckerboard="0"
     inkscape:deskcolor="#d1d1d1"
     inkscape:zoom="8.4079416"
     inkscape:cx="25.571063"
     inkscape:cy="33.480252"
     inkscape:current-layer="svg4" />
  <rect
     style="opacity:0.2;stroke-width:0.999971"
     width="55"
     height="55.017544"
     x="3.5"
     y="3.9824567"
     rx="12.6"
     ry="12.6"
     id="rect1" />
  <rect
     style="fill:url(#linearGradient5);stroke-width:0.999971"
     width="55"
     height="55.017544"
     x="3.5"
     y="2.9999995"
     rx="12.6"
     ry="12.6"
     id="rect2" />
  <path
     style="opacity:0.1;fill:#ffffff;stroke-width:0.999971"
     d="m 15.874615,2.9999995 c -6.8557487,0 -12.3746149,5.5206268 -12.3746149,12.3785615 v 0.982457 c 0,-6.8579385 5.5188662,-12.3785625 12.3746149,-12.3785625 h 30.25077 C 52.981135,3.9824555 58.5,9.5030795 58.5,16.361018 V 15.378561 C 58.5,8.5206263 52.981135,2.9999995 46.125385,2.9999995 Z"
     id="path4" />
  <g
     id="g2"
     transform="translate(0.63810868,2.753286)">
    <g
       id="g1096"
       style="fill:#0e6400;fill-opacity:0.29635;stroke-width:1.89322"
       transform="matrix(2.0256436,0,0,2.066242,-3.7019601,-6.5519881)">
      <path
         id="path1094"
         style="color:#000000;font-style:normal;font-variant:normal;font-weight:normal;font-stretch:normal;font-size:medium;line-height:normal;font-family:sans-serif;font-variant-ligatures:normal;font-variant-position:normal;font-variant-caps:normal;font-variant-numeric:normal;font-variant-alternates:normal;font-variant-east-asian:normal;font-feature-settings:normal;font-variation-settings:normal;text-indent:0;text-align:start;text-decoration:none;text-decoration-line:none;text-decoration-style:solid;text-decoration-color:#000000;letter-spacing:normal;word-spacing:normal;text-transform:none;writing-mode:lr-tb;direction:ltr;text-orientation:mixed;dominant-baseline:auto;baseline-shift:baseline;text-anchor:start;white-space:normal;shape-padding:0;shape-margin:0;inline-size:0;clip-rule:nonzero;display:inline;overflow:visible;visibility:visible;isolation:auto;mix-blend-mode:normal;color-interpolation:sRGB;color-interpolation-filters:linearRGB;solid-color:#000000;solid-opacity:1;vector-effect:none;fill:#0e6400;fill-opacity:0.29635;fill-rule:nonzero;stroke:none;stroke-width:2.61558;stroke-linecap:round;stroke-linejoin:round;stroke-miterlimit:4;stroke-dasharray:none;stroke-dashoffset:0;stroke-opacity:1;color-rendering:auto;image-rendering:auto;shape-rendering:auto;text-rendering:auto;enable-background:accumulate;stop-color:#000000;stop-opacity:1"
         d="M 16.916423,7.5996242 A 0.69084262,0.69084262 0 0 0 16.538039,7.7288461 L 6.3030778,15.038819 a 0.69084262,0.69084262 0 0 0 0.4019448,1.252241 h 0.7717632 v 8.820658 c 0,0.349439 0.1193736,0.672267 0.3426885,0.938822 0.2233125,0.266555 0.5860901,0.474766 0.9987937,0.474766 h 16.243431 c 0.825396,0 1.346909,-0.71348 1.341483,-1.4193 V 16.29106 h 0.771762 a 0.69084262,0.69084262 0 0 0 0.401945,-1.252241 L 17.341928,7.7288461 a 0.69084262,0.69084262 0 0 0 -0.383383,-0.1292219 0.69084262,0.69084262 0 0 0 -0.04213,0 z m 0.836732,9.3839518 a 1.096603,1.096603 0 0 1 1.096602,1.096604 1.096603,1.096603 0 0 1 -1.096602,1.096602 1.096603,1.096603 0 0 1 -1.096604,-1.096602 1.096603,1.096603 0 0 1 1.096604,-1.096604 z m 2.924275,0 a 1.096603,1.096603 0 0 1 1.096602,1.096604 1.096603,1.096603 0 0 1 -1.096602,1.096602 1.096603,1.096603 0 0 1 -1.096604,-1.096602 1.096603,1.096603 0 0 1 1.096604,-1.096604 z m 2.924273,0 a 1.096603,1.096603 0 0 1 1.096604,1.096604 1.096603,1.096603 0 0 1 -1.096604,1.096602 1.096603,1.096603 0 0 1 -1.096602,-1.096602 1.096603,1.096603 0 0 1 1.096602,-1.096604 z m -5.848548,2.924275 a 1.096603,1.096603 0 0 1 1.096602,1.096602 1.096603,1.096603 0 0 1 -1.096602,1.096604 1.096603,1.096603 0 0 1 -1.096604,-1.096604 1.096603,1.096603 0 0 1 1.096604,-1.096602 z m 2.924275,0 a 1.096603,1.096603 0 0 1 1.096602,1.096602 1.096603,1.096603 0 0 1 -1.096602,1.096604 1.096603,1.096603 0 0 1 -1.096604,-1.096604 1.096603,1.096603 0 0 1 1.096604,-1.096602 z m 2.924273,0 a 1.096603,1.096603 0 0 1 1.096604,1.096602 1.096603,1.096603 0 0 1 -1.096604,1.096604 1.096603,1.096603 0 0 1 -1.096602,-1.096604 1.096603,1.096603 0 0 1 1.096602,-1.096602 z m -5.848548,2.924275 a 1.096603,1.096603 0 0 1 1.096602,1.096602 1.096603,1.096603 0 0 1 -1.096602,1.096603 1.096603,1.096603 0 0 1 -1.096604,-1.096603 1.096603,1.096603 0 0 1 1.096604,-1.096602 z m 2.924275,0 a 1.096603,1.096603 0 0 1 1.096602,1.096602 1.096603,1.096603 0 0 1 -1.096602,1.096603 1.096603,1.096603 0 0 1 -1.096604,-1.096603 1.096603,1.096603 0 0 1 1.096604,-1.096602 z m 2.924273,0 a 1.096603,1.096603 0 0 1 1.096604,1.096602 1.096603,1.096603 0 0 1 -1.096604,1.096603 1.096603,1.096603 0 0 1 -1.096602,-1.096603 1.096603,1.096603 0 0 1 1.096602,-1.096602 z" />
    </g>
    <g
       id="path4-3"
       style="fill:url(#linearGradient1092);fill-opacity:1;stroke-width:1.89322"
       transform="matrix(1.9766339,0,0,2.0162505,-3.9082094,-7.0663844)">
      <path
         id="path1080"
         style="color:#000000;font-style:normal;font-variant:normal;font-weight:normal;font-stretch:normal;font-size:medium;line-height:normal;font-family:sans-serif;font-variant-ligatures:normal;font-variant-position:normal;font-variant-caps:normal;font-variant-numeric:normal;font-variant-alternates:normal;font-variant-east-asian:normal;font-feature-settings:normal;font-variation-settings:normal;text-indent:0;text-align:start;text-decoration:none;text-decoration-line:none;text-decoration-style:solid;text-decoration-color:#000000;letter-spacing:normal;word-spacing:normal;text-transform:none;writing-mode:lr-tb;direction:ltr;text-orientation:mixed;dominant-baseline:auto;baseline-shift:baseline;text-anchor:start;white-space:normal;shape-padding:0;shape-margin:0;inline-size:0;clip-rule:nonzero;display:inline;overflow:visible;visibility:visible;isolation:auto;mix-blend-mode:normal;color-interpolation:sRGB;color-interpolation-filters:linearRGB;solid-color:#000000;solid-opacity:1;vector-effect:none;fill:url(#linearGradient2);fill-opacity:1;fill-rule:nonzero;stroke:none;stroke-width:2.61558;stroke-linecap:round;stroke-linejoin:round;stroke-miterlimit:4;stroke-dasharray:none;stroke-dashoffset:0;stroke-opacity:1;color-rendering:auto;image-rendering:auto;shape-rendering:auto;text-rendering:auto;enable-background:accumulate;stop-color:#000000;stop-opacity:1"
         d="M 16.916423,7.5996242 A 0.69084262,0.69084262 0 0 0 16.538039,7.7288461 L 6.3030778,15.038819 a 0.69084262,0.69084262 0 0 0 0.4019448,1.252241 h 0.7717632 v 8.820658 c 0,0.349439 0.1193736,0.672267 0.3426885,0.938822 0.2233125,0.266555 0.5860901,0.474766 0.9987937,0.474766 h 16.243431 c 0.825396,0 1.346909,-0.71348 1.341483,-1.4193 V 16.29106 h 0.771762 a 0.69084262,0.69084262 0 0 0 0.401945,-1.252241 L 17.341928,7.7288461 a 0.69084262,0.69084262 0 0 0 -0.383383,-0.1292219 0.69084262,0.69084262 0 0 0 -0.04213,0 z m 0.836732,9.3839518 a 1.096603,1.096603 0 0 1 1.096602,1.096604 1.096603,1.096603 0 0 1 -1.096602,1.096602 1.096603,1.096603 0 0 1 -1.096604,-1.096602 1.096603,1.096603 0 0 1 1.096604,-1.096604 z m 2.924275,0 a 1.096603,1.096603 0 0 1 1.096602,1.096604 1.096603,1.096603 0 0 1 -1.096602,1.096602 1.096603,1.096603 0 0 1 -1.096604,-1.096602 1.096603,1.096603 0 0 1 1.096604,-1.096604 z m 2.924273,0 a 1.096603,1.096603 0 0 1 1.096604,1.096604 1.096603,1.096603 0 0 1 -1.096604,1.096602 1.096603,1.096603 0 0 1 -1.096602,-1.096602 1.096603,1.096603 0 0 1 1.096602,-1.096604 z m -5.848548,2.924275 a 1.096603,1.096603 0 0 1 1.096602,1.096602 1.096603,1.096603 0 0 1 -1.096602,1.096604 1.096603,1.096603 0 0 1 -1.096604,-1.096604 1.096603,1.096603 0 0 1 1.096604,-1.096602 z m 2.924275,0 a 1.096603,1.096603 0 0 1 1.096602,1.096602 1.096603,1.096603 0 0 1 -1.096602,1.096604 1.096603,1.096603 0 0 1 -1.096604,-1.096604 1.096603,1.096603 0 0 1 1.096604,-1.096602 z m 2.924273,0 a 1.096603,1.096603 0 0 1 1.096604,1.096602 1.096603,1.096603 0 0 1 -1.096604,1.096604 1.096603,1.096603 0 0 1 -1.096602,-1.096604 1.096603,1.096603 0 0 1 1.096602,-1.096602 z m -5.848548,2.924275 a 1.096603,1.096603 0 0 1 1.096602,1.096602 1.096603,1.096603 0 0 1 -1.096602,1.096603 1.096603,1.096603 0 0 1 -1.096604,-1.096603 1.096603,1.096603 0 0 1 1.096604,-1.096602 z m 2.924275,0 a 1.096603,1.096603 0 0 1 1.096602,1.096602 1.096603,1.096603 0 0 1 -1.096602,1.096603 1.096603,1.096603 0 0 1 -1.096604,-1.096603 1.096603,1.096603 0 0 1 1.096604,-1.096602 z m 2.924273,0 a 1.096603,1.096603 0 0 1 1.096604,1.096602 1.096603,1.096603 0 0 1 -1.096604,1.096603 1.096603,1.096603 0 0 1 -1.096602,-1.096603 1.096603,1.096603 0 0 1 1.096602,-1.096602 z" />
    </g>
  </g>
</svg>
