<?xml version="1.0" encoding="UTF-8" standalone="no"?>
<svg
   width="62"
   height="62"
   version="1.1"
   id="svg5"
   sodipodi:docname="crush-crush.svg"
   inkscape:version="1.4.2 (unknown)"
   xmlns:inkscape="http://www.inkscape.org/namespaces/inkscape"
   xmlns:sodipodi="http://sodipodi.sourceforge.net/DTD/sodipodi-0.dtd"
   xmlns:xlink="http://www.w3.org/1999/xlink"
   xmlns="http://www.w3.org/2000/svg"
   xmlns:svg="http://www.w3.org/2000/svg">
  <defs
     id="defs5">
    <linearGradient
       id="linearGradient13"
       inkscape:collect="always">
      <stop
         style="stop-color:#ddafe9;stop-opacity:1"
         offset="0"
         id="stop11" />
      <stop
         style="stop-color:#aaeeff;stop-opacity:1"
         offset="1"
         id="stop13" />
    </linearGradient>
    <linearGradient
       id="linearGradient8"
       inkscape:collect="always">
      <stop
         style="stop-color:#ddafe9;stop-opacity:1"
         offset="0"
         id="stop8" />
      <stop
         style="stop-color:#aaeeff;stop-opacity:1"
         offset="1"
         id="stop10" />
    </linearGradient>
    <linearGradient
       id="linearGradient4217">
      <stop
         style="stop-color:#000000;stop-opacity:1;"
         offset="0"
         id="stop2" />
      <stop
         style="stop-color:#000000;stop-opacity:0;"
         offset="1"
         id="stop4" />
    </linearGradient>
    <linearGradient
       id="linearGradient4161">
      <stop
         style="stop-color:#334545;stop-opacity:1;"
         offset="0"
         id="stop7" />
      <stop
         style="stop-color:#4d6868;stop-opacity:1"
         offset="1"
         id="stop9" />
    </linearGradient>
    <linearGradient
       id="a-1-2"
       y1="510.79999"
       y2="527.14001"
       gradientUnits="userSpaceOnUse"
       x2="0">
      <stop
         stop-color="#7cbaf8"
         id="stop2-2-7" />
      <stop
         offset="1"
         stop-color="#f4fcff"
         id="stop4-70-0" />
    </linearGradient>
    <linearGradient
       id="c"
       y1="503.79999"
       x1="400.57001"
       y2="519.79999"
       x2="416.57001"
       gradientUnits="userSpaceOnUse">
      <stop
         stop-color="#292c2f"
         id="stop12" />
      <stop
         offset="1"
         stop-opacity="0"
         id="stop14" />
    </linearGradient>
    <linearGradient
       id="b"
       y1="542.79999"
       x1="408.57001"
       y2="521.79999"
       x2="387.57001"
       gradientUnits="userSpaceOnUse"
       gradientTransform="translate(-384.57,-499.8)">
      <stop
         stop-color="#197cf1"
         id="stop7-8" />
      <stop
         offset="1"
         stop-color="#20bcfa"
         id="stop9-7" />
    </linearGradient>
    <linearGradient
       xlink:href="#linearGradient1389"
       id="linearGradient4503-5-6"
       y1="37"
       y2="4"
       x2="0"
       gradientUnits="userSpaceOnUse"
       gradientTransform="matrix(1.0218446,0,0,0.99999999,21.748946,8.2587777)" />
    <linearGradient
       id="linearGradient1389">
      <stop
         style="stop-color:#ffaaaa;stop-opacity:1"
         id="stop1385"
         offset="0" />
      <stop
         offset="1"
         style="stop-color:#ff5555;stop-opacity:1"
         id="stop1387" />
    </linearGradient>
    <linearGradient
       id="paint543_linear_890_11"
       x1="978.5"
       y1="298"
       x2="978.5"
       y2="304"
       gradientUnits="userSpaceOnUse"
       gradientTransform="matrix(0.75000004,0,0,0.75000004,-717.38333,-173.49123)">
      <stop
         offset="0.189495"
         stop-color="#EFF2F6"
         id="stop1829" />
      <stop
         offset="0.850463"
         stop-color="#B7C6CD"
         id="stop1830" />
    </linearGradient>
    <linearGradient
       inkscape:collect="always"
       xlink:href="#linearGradient8"
       id="linearGradient10"
       x1="31.5"
       y1="59.017544"
       x2="31.5"
       y2="4.9824562"
       gradientUnits="userSpaceOnUse"
       gradientTransform="translate(-0.5,-1)" />
    <linearGradient
       id="linearGradient4144">
      <stop
         style="stop-color:#c83771;stop-opacity:1"
         offset="0"
         id="stop1141" />
      <stop
         style="stop-color:#de87aa;stop-opacity:1"
         offset="1"
         id="stop1143" />
    </linearGradient>
    <linearGradient
       id="c-0"
       gradientUnits="userSpaceOnUse"
       x1="10"
       x2="24"
       y1="10"
       y2="24"
       gradientTransform="translate(59.728813,26.237288)">
      <stop
         offset="0"
         stop-color="#292c2f"
         id="stop12-2" />
      <stop
         offset="1"
         stop-opacity="0"
         id="stop14-3" />
    </linearGradient>
    <linearGradient
       id="d"
       gradientUnits="userSpaceOnUse"
       x1="24"
       x2="24"
       y1="25"
       y2="7"
       gradientTransform="translate(59.728813,26.237288)">
      <stop
         offset="0"
         stop-color="#bb9d71"
         id="stop2-7" />
      <stop
         offset="1"
         stop-color="#f9f2e7"
         id="stop4-5" />
    </linearGradient>
    <filter
       id="c-3"
       width="1.1245312"
       height="1.1156488"
       x="-0.062265594"
       y="-0.057824417"
       color-interpolation-filters="sRGB">
      <feGaussianBlur
         stdDeviation=".665"
         id="feGaussianBlur1" />
    </filter>
    <linearGradient
       inkscape:collect="always"
       xlink:href="#linearGradient8"
       id="linearGradient5"
       x1="35.062641"
       y1="87.135452"
       x2="29.710758"
       y2="105.74466"
       gradientUnits="userSpaceOnUse" />
    <linearGradient
       inkscape:collect="always"
       xlink:href="#linearGradient13"
       id="linearGradient11"
       x1="57.054535"
       y1="100.95785"
       x2="52.731949"
       y2="108.67784"
       gradientUnits="userSpaceOnUse" />
  </defs>
  <sodipodi:namedview
     id="namedview5"
     pagecolor="#ffffff"
     bordercolor="#000000"
     borderopacity="0.25"
     inkscape:showpageshadow="2"
     inkscape:pageopacity="0.0"
     inkscape:pagecheckerboard="0"
     inkscape:deskcolor="#d1d1d1"
     inkscape:zoom="8.2643105"
     inkscape:cx="25.228965"
     inkscape:cy="40.596248"
     inkscape:window-width="1920"
     inkscape:window-height="996"
     inkscape:window-x="0"
     inkscape:window-y="0"
     inkscape:window-maximized="1"
     inkscape:current-layer="svg5" />
  <g
     id="g1">
    <rect
       style="opacity:0.2;stroke-width:0.9823"
       width="55"
       height="55.017544"
       x="3.5"
       y="3.9824562"
       rx="8.25"
       ry="8.2526312"
       id="rect1" />
    <rect
       style="fill:url(#linearGradient10);stroke-width:0.9823"
       width="55"
       height="55.017544"
       x="3.5"
       y="3"
       rx="8.25"
       ry="8.2526312"
       id="rect2" />
    <path
       style="opacity:0.1;fill:#ffffff;stroke-width:0.9823"
       d="M 11.748466,3 C 7.1779652,3 3.5,6.6791384 3.5,11.251097 v 0.982456 c 0,-4.5719585 3.6779652,-8.2510969 8.248466,-8.2510969 h 38.503068 c 4.5705,0 8.248466,3.6791384 8.248466,8.2510969 V 11.251097 C 58.5,6.6791384 54.822034,3 50.251534,3 Z"
       id="path4" />
  </g>
  <g
     id="g2"
     transform="matrix(0.88386283,0,0,0.88386283,-4.8952504,-52.243088)"
     style="stroke-width:1.13138">
    <path
       style="opacity:0.2;stroke-width:1.13138"
       d="m 41.19158,73.85765 c -1.517681,-0.285398 -2.686545,-0.245774 -4.254118,0.328125 -4.201998,1.538378 -6.319855,4.517064 -7.07632,7.198876 -0.239781,-0.118664 -0.179542,-0.145397 -0.434751,-0.259766 -2.665746,-1.194624 -6.40901,-2.270996 -10.231678,-0.798437 -3.281422,1.264061 -5.336013,4.419604 -6.127524,7.29878 -0.791512,2.879176 -0.534123,5.90513 0.596073,8.517578 2.657766,6.143434 9.830091,8.556234 16.047496,10.601854 6.217403,2.04562 11.883184,2.90117 11.883184,2.90117 1.085431,0.16532 2.167326,-0.31898 2.767092,-1.23867 0,0 2.419571,-4.31203 4.833785,-9.687891 2.414216,-5.375859 4.936354,-11.31748 2.622176,-16.904588 C 50.648239,78.992955 48.241348,76.952188 45.530884,75.487337 44.17565,74.754912 42.70926,74.143047 41.19158,73.85765 Z"
       id="path1" />
    <path
       style="fill:#dd55ff;stroke-width:1.13138;fill-opacity:1"
       d="m 41.19158,72.85765 c -1.517681,-0.285398 -2.686545,-0.245774 -4.254118,0.328125 -4.201998,1.538378 -6.319855,4.517064 -7.07632,7.198876 -0.239781,-0.118664 -0.179542,-0.145397 -0.434751,-0.259766 -2.665746,-1.194624 -6.40901,-2.270996 -10.231678,-0.798437 -3.281422,1.264061 -5.336013,4.419604 -6.127524,7.29878 -0.791512,2.879176 -0.534123,5.90513 0.596073,8.517578 2.657766,6.143434 9.830091,8.556234 16.047496,10.601854 6.217403,2.04562 11.883184,2.90117 11.883184,2.90117 1.085431,0.16532 2.167326,-0.31898 2.767092,-1.23867 0,0 2.419571,-4.31203 4.833785,-9.687891 2.414216,-5.375859 4.936354,-11.31748 2.622176,-16.904588 C 50.648239,77.992955 48.241348,75.952188 45.530884,74.487337 44.17565,73.754912 42.70926,73.143047 41.19158,72.85765 Z"
       id="path2" />
    <path
       style="opacity:0.1;stroke-width:1.13138"
       d="m 42.614288,106.67855 c 0,0 -22.380474,-2.03353 -26.280442,-11.048315 -1.722718,-3.982063 -0.843939,-10.577062 3.966909,-12.430285 5.532204,-2.131102 12.014941,3.378639 12.014941,3.378639 0,0 -0.908741,-7.111973 5.783592,-9.562078 3.756198,-1.375169 9.439416,2.375612 10.970148,6.071255 3.247175,7.839642 -6.455148,23.590784 -6.455148,23.590784 z"
       id="path3" />
    <path
       style="fill:url(#linearGradient5);stroke-width:1.13138"
       d="m 42.614288,105.67855 c 0,0 -22.380474,-2.03353 -26.280442,-11.048315 -1.722718,-3.982063 -0.843939,-10.577062 3.966909,-12.430285 5.532204,-2.131102 12.014941,3.378639 12.014941,3.378639 0,0 -0.908741,-7.111973 5.783592,-9.562078 3.756198,-1.375169 9.439416,2.375612 10.970148,6.071255 3.247175,7.839642 -6.455148,23.590784 -6.455148,23.590784 z"
       id="path4-3" />
    <path
       style="opacity:0.2;stroke-width:1.13138"
       d="m 47.388425,88.807657 c -1.168627,0.219348 -2.269022,0.692918 -3.278906,1.236535 -2.019757,1.087234 -3.819049,2.553836 -4.759696,4.815838 -1.827322,4.394194 0.120051,8.93949 1.82594,12.72301 1.705893,3.78352 3.690856,6.8065 3.690856,6.8065 0.610108,0.9315 1.710049,1.42241 2.814067,1.25594 0,0 4.010647,-0.59722 8.425508,-2.03502 4.414858,-1.43779 9.645004,-3.3796 11.721111,-8.15947 0.882046,-2.03077 1.036843,-4.722 0.392465,-6.921362 -0.644378,-2.19936 -2.286592,-4.370417 -4.834852,-5.348157 -2.752436,-1.056077 -5.272154,-0.303108 -7.147904,0.57391 -0.818323,-1.902306 -2.32577,-3.631499 -5.152165,-4.662157 -1.290109,-0.470442 -2.527791,-0.504916 -3.696424,-0.285567 z"
       id="path5" />
    <path
       style="fill:#00ccff;stroke-width:1.13138"
       d="m 47.388425,87.807657 c -1.168627,0.219348 -2.269022,0.692918 -3.278906,1.236535 -2.019757,1.087234 -3.819049,2.553836 -4.759696,4.815838 -1.827322,4.394194 0.120051,8.93949 1.82594,12.72301 1.705893,3.78352 3.690856,6.8065 3.690856,6.8065 0.610108,0.9315 1.710049,1.42241 2.814067,1.25594 0,0 4.010647,-0.59722 8.425508,-2.03502 4.414858,-1.43779 9.645004,-3.3796 11.721111,-8.15947 0.882046,-2.03077 1.036843,-4.722 0.392465,-6.921362 -0.644378,-2.19936 -2.286592,-4.370417 -4.834852,-5.348157 -2.752436,-1.056077 -5.272154,-0.303108 -7.147904,0.57391 -0.818323,-1.902306 -2.32577,-3.631499 -5.152165,-4.662157 -1.290109,-0.470442 -2.527791,-0.504916 -3.696424,-0.285567 z"
       id="path6" />
    <path
       style="opacity:0.1;stroke-width:1.13138"
       d="m 47.614288,112.67855 c 0,0 14.98698,-2.46765 17.639952,-8.6 1.171887,-2.70882 0.472698,-6.719336 -2.799904,-7.98 -3.763309,-1.449693 -7.840048,1.58 -7.840048,1.58 0,0 -0.04665,-4.123304 -4.599138,-5.79 -2.555171,-0.935465 -6.938437,1.616021 -7.979725,4.13 -2.208906,5.33295 5.578863,16.66 5.578863,16.66 z"
       id="path7" />
    <path
       style="fill:url(#linearGradient11);stroke-width:1.13138"
       d="m 47.614288,111.67855 c 0,0 14.98698,-2.46765 17.639952,-8.6 1.171887,-2.70882 0.472698,-6.719336 -2.799904,-7.98 -3.763309,-1.449693 -7.840048,1.58 -7.840048,1.58 0,0 -0.04665,-4.123304 -4.599138,-5.79 -2.555171,-0.935465 -6.938437,1.616021 -7.979725,4.13 -2.208906,5.33295 5.578863,16.66 5.578863,16.66 z"
       id="path8" />
    <path
       style="opacity:0.2;fill:#ffffff;stroke-width:1.13138"
       d="m 39.083038,72.700034 c -0.677873,0.04597 -1.362698,0.199379 -2.146484,0.486328 -4.201998,1.538378 -6.319707,4.517407 -7.076172,7.199219 -0.239781,-0.118664 -0.178385,-0.145396 -0.433594,-0.259765 -2.665746,-1.194624 -6.409754,-2.271388 -10.232422,-0.798828 -3.281422,1.264061 -5.335442,4.419652 -6.126953,7.298828 -0.35287,1.283585 -0.485972,2.594433 -0.4375,3.886718 0.03852,-0.964935 0.175486,-1.933627 0.4375,-2.886718 0.791511,-2.879176 2.845531,-6.034767 6.126953,-7.298828 3.822668,-1.47256 7.566676,-0.395796 10.232422,0.798828 0.255209,0.114369 0.193813,0.141101 0.433594,0.259765 0.756465,-2.681812 2.874174,-5.660841 7.076172,-7.199219 1.567573,-0.573898 2.738178,-0.613523 4.255859,-0.328124 1.51768,0.285397 2.982657,0.896481 4.337891,1.628906 2.710464,1.464851 5.118353,3.506399 6.287109,6.328125 0.572458,1.382083 0.846931,2.785726 0.902344,4.197265 0.05539,-1.748358 -0.194735,-3.488889 -0.902344,-5.197265 -1.168756,-2.821726 -3.576645,-4.863274 -6.287109,-6.328125 -1.355234,-0.732425 -2.820211,-1.343509 -4.337891,-1.628906 -0.75884,-0.1427 -1.431502,-0.204172 -2.109375,-0.158204 z"
       id="path9" />
    <path
       style="opacity:0.2;fill:#ffffff;stroke-width:1.13138"
       d="m 49.19046,87.692222 c -0.616763,-0.04001 -1.218418,0.0056 -1.802734,0.115234 -1.168628,0.219348 -2.26746,0.692711 -3.277344,1.236328 -2.019757,1.087234 -3.819119,2.554405 -4.759766,4.816407 -0.588125,1.414275 -0.782658,2.844621 -0.722656,4.259765 0.05209,-1.087017 0.272573,-2.177441 0.722656,-3.259765 0.940647,-2.262002 2.740009,-3.729173 4.759766,-4.816407 1.009884,-0.543617 2.108716,-1.01698 3.277344,-1.236328 1.168633,-0.219349 2.407156,-0.185285 3.697265,0.285156 2.826395,1.030659 4.334021,2.759804 5.152344,4.66211 1.87575,-0.877018 4.396001,-1.630296 7.148437,-0.574219 2.54826,0.97774 4.189607,3.15025 4.833985,5.349609 0.224309,0.765603 0.345243,1.591538 0.378906,2.427738 0.05674,-1.170704 -0.06526,-2.357217 -0.378906,-3.427738 -0.644378,-2.199359 -2.285725,-4.371869 -4.833985,-5.349609 -2.752436,-1.056077 -5.272687,-0.302799 -7.148437,0.574219 -0.818323,-1.902306 -2.325949,-3.631452 -5.152344,-4.66211 -0.645054,-0.23522 -1.277768,-0.360385 -1.894531,-0.40039 z"
       id="path10" />
  </g>
</svg>
