<?xml version="1.0" encoding="UTF-8" standalone="no"?>
<svg
   width="62"
   height="62"
   version="1.1"
   id="svg4"
   sodipodi:docname="crypt-of-the-necrodancer.svg"
   inkscape:version="1.4.2 (unknown)"
   xmlns:inkscape="http://www.inkscape.org/namespaces/inkscape"
   xmlns:sodipodi="http://sodipodi.sourceforge.net/DTD/sodipodi-0.dtd"
   xmlns="http://www.w3.org/2000/svg"
   xmlns:svg="http://www.w3.org/2000/svg">
  <defs
     id="defs4" />
  <sodipodi:namedview
     id="namedview4"
     pagecolor="#ffffff"
     bordercolor="#000000"
     borderopacity="0.25"
     inkscape:showpageshadow="2"
     inkscape:pageopacity="0.0"
     inkscape:pagecheckerboard="0"
     inkscape:deskcolor="#d1d1d1"
     inkscape:zoom="5.9453125"
     inkscape:cx="26.407359"
     inkscape:cy="40.115637"
     inkscape:current-layer="svg4" />
  <rect
     style="opacity:0.2;stroke-width:0.999971"
     width="55"
     height="55.017544"
     x="3.5"
     y="3.9824567"
     rx="12.6"
     ry="12.6"
     id="rect1" />
  <rect
     style="fill:#505d6e;stroke-width:0.999971"
     width="55"
     height="55.017544"
     x="3.5"
     y="2.9999995"
     rx="12.6"
     ry="12.6"
     id="rect2" />
  <path
     style="opacity:0.1;fill:#ffffff;stroke-width:0.999971"
     d="m 15.874615,2.9999995 c -6.8557487,0 -12.3746149,5.5206268 -12.3746149,12.3785615 v 0.982457 c 0,-6.8579385 5.5188662,-12.3785625 12.3746149,-12.3785625 h 30.25077 C 52.981135,3.9824555 58.5,9.5030795 58.5,16.361018 V 15.378561 C 58.5,8.5206263 52.981135,2.9999995 46.125385,2.9999995 Z"
     id="path4" />
  <g
     id="g1"
     transform="matrix(0.99916461,0,0,1,0.02589709,0.99559783)"
     style="stroke-width:1.00042">
    <path
       style="opacity:0.2;stroke-width:1.00042"
       d="m 22.519237,10.303323 v 2.423083 h -3.230775 v 2.423069 h -4.038461 v 2.423079 h -2.423078 v 1.615386 h -2.423076 v 4.038465 H 7.98077 v 12.923071 h 2.423077 v 1.615383 h 2.423076 v 2.42308 h 2.423078 v 3.298076 3.432691 2.153846 h 1.615384 v 2.423079 h 4.926917 v -4.846157 h 3.15 v 4.846157 h 4.906741 v -4.846157 h 3.977879 v 4.846157 h 4.846155 v -4.846157 h 1.615385 V 43.41871 h 2.423081 v -2.423079 h 4.038454 v -2.423079 h 2.42308 v -2.423077 h 2.423077 v -4.03846 H 54.01923 V 20.803323 h -2.423076 v -3.230769 h -2.423077 v -2.423079 h -2.42308 v -2.423069 h -6.461535 v -2.423083 z"
       id="path1" />
    <path
       style="fill:#e5e5e5;stroke-width:1.00042;fill-opacity:1"
       d="m 22.519237,9.4956305 v 2.4230785 h -3.230775 v 2.423075 h -4.038461 v 2.423073 h -2.423078 v 1.615389 h -2.423076 v 4.038463 H 7.98077 v 12.923075 h 2.423077 v 1.615381 h 2.423076 v 2.42308 h 2.423078 v 3.298077 3.432692 2.153845 h 1.615384 v 2.42308 h 4.926917 v -4.846157 h 3.15 v 4.846157 h 4.906741 v -4.846157 h 3.977879 v 4.846157 h 4.846155 v -4.846157 h 1.615385 v -3.230767 h 2.423081 v -2.423076 h 4.038454 v -2.42308 h 2.42308 v -2.423075 h 2.423077 V 31.303323 H 54.01923 V 19.995632 h -2.423076 v -3.230774 h -2.423077 v -2.423073 h -2.42308 V 11.918709 H 40.288462 V 9.4956305 Z"
       id="path2" />
    <path
       style="fill:#535d6c;stroke-width:1.00042"
       d="m 12.826923,22.418708 v 11.307696 h 2.423078 v 2.423071 h 4.038461 v -2.423071 h -2.423077 v -6.461546 h 2.423077 v -2.423074 h -2.423077 v -2.423076 z"
       id="path3" />
    <rect
       style="fill:#dd55ff;stroke-width:1.00042"
       width="2.4230766"
       height="6.4615369"
       x="16.865385"
       y="27.264853"
       id="rect3" />
    <path
       style="fill:#535d6c;stroke-width:1.00042"
       d="m 32.211543,22.418708 v 2.423076 h -2.423082 v 11.307692 h 8.884616 v -2.423072 h 2.423077 v -8.88462 h -2.423077 v -2.423075 z"
       id="path4-3" />
    <rect
       style="fill:#dd55ff;stroke-width:1.00042"
       width="4.8461533"
       height="6.4615369"
       x="32.211548"
       y="27.264853"
       id="rect4" />
    <path
       style="fill:#535d6c;stroke-width:1.00042"
       d="m 21.711544,36.957165 v 2.42308 h -2.423082 v 2.423077 h 8.884616 v -2.423077 h -2.423081 v -2.42308 z"
       id="path5" />
    <path
       style="opacity:0.2;fill:#ffffff;stroke-width:1.00042"
       d="M 22.519237,9.4956315 V 10.303323 H 40.288462 V 9.4956315 Z m -3.230775,2.4230775 v 0.807697 h 3.230775 v -0.807697 z m 21,0 v 0.807697 h 6.461535 v -0.807697 z m -25.038461,2.423075 v 0.807691 h 4.038461 v -0.807691 z m 31.499996,0 v 0.807691 h 2.42308 v -0.807691 z m -33.923074,2.423074 v 0.807696 h 2.423078 v -0.807696 z m 36.346154,0 v 0.807696 h 2.423077 v -0.807696 z m -38.76923,1.615389 v 0.807693 h 2.423076 v -0.807693 z m 41.192307,1.615385 v 0.807691 H 54.01923 V 19.995632 Z M 7.98077,22.41871 v 0.807694 h 2.423077 V 22.41871 Z"
       id="path6" />
    <path
       style="opacity:0.2;stroke-width:1.00042"
       d="m 12.826923,22.41871 v 0.807694 h 4.038462 V 22.41871 Z m 19.38462,0 v 0.807694 h 6.461534 V 22.41871 Z m -15.346158,2.423074 v 0.807691 h 2.423077 v -0.807691 z m 12.923076,0 v 0.807691 h 2.423082 v -0.807691 z m 8.884616,0 v 0.807691 h 2.423077 v -0.807691 z m -21.807692,8.88462 v 0.80769 h 2.423077 v -0.80769 z m 4.846159,3.230761 v 0.807694 h 4.038453 v -0.807694 z m -2.423082,2.42308 v 0.807694 h 2.423082 v -0.807694 z m 6.461535,0 v 0.807694 h 2.423081 v -0.807694 z"
       id="path7" />
    <rect
       style="opacity:0.2;stroke-width:1.00042"
       width="4.8461533"
       height="0.80769211"
       x="32.211548"
       y="33.726383"
       id="rect7" />
    <rect
       style="opacity:0.2;fill:#ffffff;stroke-width:1.00042"
       width="4.8461533"
       height="0.80769211"
       x="32.211548"
       y="27.264853"
       id="rect8" />
    <rect
       style="opacity:0.2;fill:#ffffff;stroke-width:1.00042"
       width="2.4230766"
       height="0.80769211"
       x="16.865385"
       y="27.264853"
       id="rect9" />
  </g>
</svg>
