<?xml version="1.0" encoding="UTF-8" standalone="no"?>
<svg
   width="62"
   height="62"
   version="1"
   id="svg5"
   sodipodi:docname="css.svg"
   inkscape:version="1.4.2 (unknown)"
   xmlns:inkscape="http://www.inkscape.org/namespaces/inkscape"
   xmlns:sodipodi="http://sodipodi.sourceforge.net/DTD/sodipodi-0.dtd"
   xmlns="http://www.w3.org/2000/svg"
   xmlns:svg="http://www.w3.org/2000/svg">
  <defs
     id="defs5" />
  <sodipodi:namedview
     id="namedview5"
     pagecolor="#ffffff"
     bordercolor="#000000"
     borderopacity="0.25"
     inkscape:showpageshadow="2"
     inkscape:pageopacity="0.0"
     inkscape:pagecheckerboard="0"
     inkscape:deskcolor="#d1d1d1"
     inkscape:zoom="11.921875"
     inkscape:cx="32"
     inkscape:cy="32"
     inkscape:current-layer="svg5" />
  <g
     id="g5"
     transform="translate(-0.4999804,-1.0014094)">
    <path
       style="opacity:0.2;stroke-width:0.982314"
       d="m 58.998564,30.527716 -0.03539,0.68379 C 58.5998,46.129124 46.504046,58.036499 31.499257,58.036499 c -14.906765,0 -26.9375065,-11.756076 -27.4501716,-26.538122 -0.010997,0.332071 -0.049105,0.658251 -0.049105,0.99425 2e-7,15.239866 12.2646746,27.508782 27.4992756,27.508782 15.004789,0 27.100543,-11.907373 27.463926,-26.824992 l 0.03539,-0.68379 z"
       id="path1" />
    <path
       style="fill:#2298e2;stroke-width:0.982314"
       d="m 31.212505,4.0014094 -0.02303,0.015349 C 16.100432,4.1841661 4.0005502,16.375274 4.0005502,31.509821 c 0,15.239866 12.2646768,27.508783 27.4992768,27.508783 15.004001,0 27.100544,-11.907176 27.463927,-26.824993 0,0 0.02379,-0.470069 0.03455,-0.68312 V 9.8964443 c 0,-3.2656858 -2.628143,-5.8947399 -5.892705,-5.8947399 H 31.499007 Z"
       id="path2" />
    <ellipse
       style="opacity:0.2;stroke-width:0.982314"
       cx="31.498968"
       cy="32.492947"
       id="circle2"
       rx="19.642826"
       ry="19.649618" />
    <path
       style="opacity:0.2;fill:#ffffff;stroke-width:0.982314"
       d="m 31.21221,4.0019433 -0.02303,0.015355 C 16.100141,4.1847052 4,16.374934 4,31.509482 4,31.620382 4.010976,31.72835 4.017262,31.837614 4.3611502,17.008484 16.318906,5.1647584 31.189191,4.9997752 l 0.02303,-0.015355 0.002,-0.00195 h 21.892915 c 3.264555,0 5.892842,2.6291966 5.892842,5.8948848 V 9.8949074 c 0,-3.2656859 -2.628287,-5.8929641 -5.892842,-5.8929641 H 31.214141 Z"
       id="path3" />
    <ellipse
       style="fill:#373e48;stroke-width:0.982314"
       cx="31.498968"
       cy="31.510456"
       id="circle3"
       rx="19.642826"
       ry="19.649618" />
    <path
       style="opacity:0.2;fill-rule:evenodd;stroke-width:0.982314"
       d="m 34.200103,23.968834 c -0.09419,1.108681 -0.83429,0.638089 -1.635583,1.24302 -0.216157,-0.0331 -0.462712,-0.0331 -0.801284,-0.0331 -0.06118,-0.739291 0.185776,-0.873632 0.307754,-1.007921 0.49353,-0.403471 0.834291,-0.2015 0.834291,-0.2015 0.369393,-0.06808 0.707536,0.0331 1.294803,-5.32e-4 z m 1.849132,-1.814931 H 34.971028 V 21.851662 H 34.3859 v 0.167449 c -0.06339,0.0331 -0.124574,0.101211 -0.185777,0.134341 h -0.06118 c -1.020108,-0.87364 -1.080798,0.907691 -1.760132,0.504213 -0.06118,-0.369893 -0.03041,-0.706191 -0.03041,-1.142792 1.172407,-0.0341 0.740085,-0.369871 0.401941,-0.80646 -0.121961,-0.168391 -0.18578,-0.437052 -0.216162,-0.604979 -0.277372,-1.108702 -1.419438,-1.780814 -3.082864,-1.075142 -1.080807,0.43659 -0.801293,2.0164 -0.709705,3.0916 -0.06118,0.10029 -0.185775,0.06718 -0.277364,0.06718 -1.172416,0.0672 -1.696394,1.410451 -1.943338,2.486202 0.06118,0.974811 -0.06118,2.049991 -0.216163,2.990202 -0.15498,0.940801 -0.462714,1.68014 -0.493534,2.587201 -0.06118,0.806461 0.216165,1.747261 0.154978,2.4866 -0.648508,2.083593 -1.111697,3.461002 -1.4498,5.678993 -0.24655,0.503749 -1.109027,1.57891 -1.4498,1.814481 -0.0916,0.16745 0.06118,0.537799 -0.0916,0.772429 -0.277369,0.436582 -0.709701,0.672132 -0.956267,1.142792 0.06118,0.100289 -0.371121,0.2015 -0.338142,0.36987 0.03038,0.16745 0.246545,0.60404 0.338142,0.70525 0.0304,0.0672 0.338144,-0.10121 0.338144,0 0.124567,0.402531 0.401961,1.243021 0.709695,1.44457 1.358191,0.16743 1.358191,0.16743 1.912518,0 0.307755,-0.97482 -1.047866,-0.5378 -0.925902,-1.848499 1.851724,-0.402531 2.436434,-0.974361 3.176557,-3.091003 0.338143,-1.545799 0.801293,-3.057402 1.510598,-4.536001 0.121957,-0.100291 0.09162,-0.369401 0.307755,-0.47064 0.831672,1.51171 2.3449,2.587791 3.082864,4.167191 0.185778,2.049402 0.5569,3.158202 1.202857,3.528002 0.154976,0.06718 0,0.705249 0.124595,0.83957 0,0.2015 0.06118,0.43658 -0.03044,0.67212 -0.06339,0.16839 -0.03042,0.36987 -0.03042,0.537791 v 0.2015 c 0.03042,0.30366 0.09162,0.30366 0.368964,0.5378 0.801291,0.57091 1.882168,1.4786 2.960297,0.80646 0.493537,-0.874581 -0.55431,-1.982401 -1.294352,-2.5538 -0.246547,-0.201501 -0.678878,-0.705241 -0.61812,-1.041581 0.401961,-0.437051 0.678877,-2.352192 0.52392,-3.830791 -0.06118,-0.335352 -0.121959,-0.672141 -0.246554,-0.940801 -0.368963,-0.772411 -1.200616,-1.848041 -1.909941,-2.620411 0.09162,-0.10029 0.216165,-0.23555 0.368962,-0.302712 0,-0.738828 -0.277373,-0.97436 -0.645898,-1.511688 -0.310351,-0.537792 -1.017417,-1.578902 -1.543987,-1.915161 0,0 0,-0.0341 -0.523922,-0.0341 -0.03042,-0.369401 0.06339,-0.67212 0.154981,-1.07514 0,-0.302241 0.216162,-0.133871 0.277365,-0.806462 0.154977,-0.5709 0.09162,-0.23508 0.216165,-0.806009 0.121958,-0.26866 0.185777,-0.537791 0.185777,-0.974811 0.460554,0.168391 1.385961,0.134341 1.787884,0 l 0.09162,0.0672 c 0.124568,0.0341 0.154957,-0.16745 0.246547,-0.201031 0.709703,-0.403949 0.956268,-1.109151 1.541397,-1.176351 0,0 0.310352,-0.168399 0.770473,0 0.185776,0 0.340754,0.0331 0.340754,-0.168399 0.03044,-0.30224 0.03044,-0.536851 0.185774,-0.739292 0.12196,0.806452 0.460553,1.714151 1.078209,2.587791 l 0.616025,-0.46948 c -0.585127,-0.772409 -0.953678,-1.646029 -1.017418,-2.6546 0.03041,0.06718 0.06342,0.134321 0.124595,0.201501 0.216159,0 0.338142,-0.504231 0.585122,-0.470652 0.03042,-0.06718 0.09419,-0.369879 0.154961,-0.604959 h 2.311906 l 0.830866,-0.198451 v -0.470638 l -0.61551,-0.06718 v -0.537791 h -0.154919 v -0.604953 h -0.368949 v 0.571372 l -0.95627,-0.06718 V 22.223522 H 38.8553 v 0.335821 l -0.986611,-0.10029 v -0.50422 H 37.49755 v 0.470639 l -1.449791,-0.100289 v -0.16696 h 0.0011 z"
       id="path4" />
    <path
       style="fill:#2298e2;fill-rule:evenodd;stroke-width:0.982314"
       d="m 34.200103,22.986398 c -0.09419,1.108688 -0.83429,0.638089 -1.635583,1.243029 -0.216157,-0.0331 -0.462712,-0.0331 -0.801284,-0.0331 -0.06118,-0.7393 0.185776,-0.873639 0.307754,-1.00792 0.49353,-0.403479 0.834291,-0.201508 0.834291,-0.201508 0.369393,-0.06808 0.707536,0.0331 1.294803,-5.33e-4 z m 1.849132,-1.81493 H 34.971028 V 20.869226 H 34.3859 v 0.16745 c -0.06339,0.0331 -0.124574,0.101211 -0.185777,0.134342 h -0.06118 c -1.020108,-0.873642 -1.080798,0.907689 -1.760132,0.504218 -0.06118,-0.369899 -0.03041,-0.706189 -0.03041,-1.142798 1.172407,-0.0341 0.740085,-0.369872 0.401941,-0.806454 -0.121965,-0.168397 -0.185784,-0.437058 -0.216166,-0.604979 -0.276962,-1.10723 -1.418179,-1.779231 -3.081884,-1.073629 -1.080798,0.43658 -0.801294,2.016391 -0.709697,3.091592 -0.06118,0.100289 -0.185775,0.06718 -0.277372,0.06718 -1.172415,0.0672 -1.696394,1.410459 -1.943331,2.486209 0.06118,0.974811 -0.06118,2.049992 -0.216164,2.990202 -0.154979,0.940801 -0.46272,1.680141 -0.493538,2.587201 -0.06118,0.80646 0.216164,1.74726 0.154981,2.4866 -0.648512,2.083592 -1.111702,3.460993 -1.449805,5.678993 -0.246545,0.503741 -1.109027,1.578902 -1.4498,1.814481 -0.0916,0.167449 0.06118,0.537791 -0.0916,0.772421 -0.277373,0.43659 -0.709699,0.67214 -0.956269,1.142799 0.06118,0.100291 -0.371122,0.201501 -0.338144,0.369871 0.03044,0.16745 0.246555,0.604036 0.338144,0.705251 0.03044,0.0672 0.338142,-0.101215 0.338142,0 0.124568,0.40253 0.401961,1.24302 0.709696,1.444561 1.358191,0.16743 1.358191,0.16743 1.912519,0 0.307756,-0.974811 -1.047859,-0.537792 -0.9259,-1.848491 1.851721,-0.402531 2.436432,-0.974361 3.176555,-3.091003 0.338143,-1.5458 0.801293,-3.057409 1.510597,-4.536002 0.121958,-0.100289 0.09162,-0.369409 0.307755,-0.470639 0.831682,1.51171 2.344901,2.587791 3.082865,4.167191 0.185776,2.049402 0.556898,3.158203 1.202864,3.528002 0.154976,0.06718 0,0.705241 0.124588,0.839566 0,0.201505 0.06118,0.436585 -0.03045,0.672116 -0.06339,0.168398 -0.0304,0.369879 -0.0304,0.537799 v 0.201501 c 0.0304,0.303659 0.09162,0.303659 0.368962,0.5378 0.801285,0.5709 1.882163,1.478591 2.960296,0.806459 0.493533,-0.874589 -0.554305,-1.9824 -1.29435,-2.5538 -0.246554,-0.201501 -0.678885,-0.70525 -0.618126,-1.041581 0.401961,-0.437059 0.678876,-2.352199 0.52392,-3.830792 -0.06118,-0.335358 -0.121959,-0.67214 -0.246555,-0.9408 -0.368962,-0.77241 -1.200616,-1.848041 -1.909941,-2.620412 0.09162,-0.100288 0.216166,-0.23555 0.368962,-0.302717 0,-0.738822 -0.277369,-0.974362 -0.645897,-1.511683 -0.310352,-0.537799 -1.017418,-1.57891 -1.543987,-1.91516 0,0 0,-0.0341 -0.523919,-0.0341 -0.03044,-0.369408 0.06339,-0.67212 0.154977,-1.07514 0,-0.302249 0.216164,-0.133871 0.277365,-0.806461 0.154985,-0.570909 0.09162,-0.235087 0.216164,-0.80601 0.121959,-0.26866 0.185778,-0.537799 0.185778,-0.97481 0.460558,0.16839 1.385969,0.13434 1.78789,0 l 0.09162,0.0672 c 0.124575,0.0341 0.154957,-0.167449 0.246554,-0.20103 0.709697,-0.40395 0.956261,-1.109159 1.54139,-1.176359 0,0 0.310351,-0.168391 0.770472,0 0.185777,0 0.340754,0.0331 0.340754,-0.168391 0.03044,-0.30224 0.03044,-0.53685 0.185776,-0.7393 0.121959,0.806461 0.46056,1.714152 1.078208,2.587792 l 0.616027,-0.469471 c -0.585129,-0.77241 -0.95368,-1.646032 -1.017419,-2.654602 0.0304,0.06718 0.06341,0.134321 0.124596,0.201501 0.216165,0 0.338143,-0.504239 0.585129,-0.470659 0.03036,-0.06718 0.09419,-0.369872 0.154955,-0.604952 h 2.311903 l 0.830886,-0.200419 v -0.470639 l -0.615517,-0.06718 V 21.711262 H 40.55046 v -0.60495 h -0.368963 v 0.571371 l -0.956268,-0.06718 v -0.36987 H 38.85626 v 0.33582 l -0.986585,-0.100289 v -0.50421 h -0.371121 v 0.470631 L 36.04875,21.342294 v -0.166959 h 0.0011 z"
       id="path5" />
  </g>
</svg>
