<?xml version="1.0" encoding="UTF-8" standalone="no"?>
<svg
   width="62"
   height="62"
   version="1.1"
   id="svg145"
   sodipodi:docname="dangerous-golf.svg"
   inkscape:version="1.4.2 (unknown)"
   xmlns:inkscape="http://www.inkscape.org/namespaces/inkscape"
   xmlns:sodipodi="http://sodipodi.sourceforge.net/DTD/sodipodi-0.dtd"
   xmlns:xlink="http://www.w3.org/1999/xlink"
   xmlns="http://www.w3.org/2000/svg"
   xmlns:svg="http://www.w3.org/2000/svg">
  <sodipodi:namedview
     id="namedview145"
     pagecolor="#ffffff"
     bordercolor="#000000"
     borderopacity="0.25"
     inkscape:showpageshadow="2"
     inkscape:pageopacity="0.0"
     inkscape:pagecheckerboard="0"
     inkscape:deskcolor="#d1d1d1"
     inkscape:zoom="8.5405241"
     inkscape:cx="33.019051"
     inkscape:cy="43.732679"
     inkscape:window-width="1920"
     inkscape:window-height="996"
     inkscape:window-x="0"
     inkscape:window-y="0"
     inkscape:window-maximized="1"
     inkscape:current-layer="svg145" />
  <defs
     id="defs97">
    <linearGradient
       id="linearGradient133"
       gradientUnits="userSpaceOnUse">
      <stop
         offset="0"
         stop-color="#f51111"
         id="stop128"
         style="stop-color:#d1960a;stop-opacity:1;" />
      <stop
         offset=".044"
         stop-color="#f5c211"
         id="stop129" />
      <stop
         offset=".182"
         stop-color="#e5a50a"
         id="stop130" />
      <stop
         offset=".455"
         stop-color="#f9f06b"
         id="stop131" />
      <stop
         offset=".667"
         stop-color="#f5c211"
         id="stop132" />
      <stop
         offset="1"
         stop-color="#d1960a"
         id="stop133" />
    </linearGradient>
    <linearGradient
       id="linearGradient127"
       gradientUnits="userSpaceOnUse">
      <stop
         offset="0"
         stop-color="#f51111"
         id="stop122"
         style="stop-color:#d1960a;stop-opacity:1;" />
      <stop
         offset=".044"
         stop-color="#f5c211"
         id="stop123" />
      <stop
         offset=".182"
         stop-color="#e5a50a"
         id="stop124" />
      <stop
         offset=".455"
         stop-color="#f9f06b"
         id="stop125" />
      <stop
         offset=".667"
         stop-color="#f5c211"
         id="stop126" />
      <stop
         offset="1"
         stop-color="#d1960a"
         id="stop127" />
    </linearGradient>
    <linearGradient
       id="linearGradient121"
       gradientUnits="userSpaceOnUse">
      <stop
         offset="0"
         stop-color="#f51111"
         id="stop116"
         style="stop-color:#d1960a;stop-opacity:1;" />
      <stop
         offset=".044"
         stop-color="#f5c211"
         id="stop117" />
      <stop
         offset=".355"
         stop-color="#e5a50a"
         id="stop118" />
      <stop
         offset=".641"
         stop-color="#f9f06b"
         id="stop119" />
      <stop
         offset=".839"
         stop-color="#f5c211"
         id="stop120" />
      <stop
         offset="1"
         stop-color="#d1960a"
         id="stop121" />
    </linearGradient>
    <linearGradient
       id="linearGradient115"
       gradientUnits="userSpaceOnUse">
      <stop
         offset="0"
         stop-color="#f51111"
         id="stop110"
         style="stop-color:#d1960a;stop-opacity:1;" />
      <stop
         offset=".044"
         stop-color="#f5c211"
         id="stop111" />
      <stop
         offset=".182"
         stop-color="#e5a50a"
         id="stop112" />
      <stop
         offset=".455"
         stop-color="#f9f06b"
         id="stop113" />
      <stop
         offset=".667"
         stop-color="#f5c211"
         id="stop114" />
      <stop
         offset="1"
         stop-color="#d1960a"
         id="stop115" />
    </linearGradient>
    <linearGradient
       id="linearGradient109"
       gradientUnits="userSpaceOnUse">
      <stop
         offset="0"
         stop-color="#f51111"
         id="stop104"
         style="stop-color:#d1960a;stop-opacity:1;" />
      <stop
         offset=".044"
         stop-color="#f5c211"
         id="stop105" />
      <stop
         offset=".355"
         stop-color="#e5a50a"
         id="stop106" />
      <stop
         offset=".641"
         stop-color="#f9f06b"
         id="stop107" />
      <stop
         offset=".839"
         stop-color="#f5c211"
         id="stop108" />
      <stop
         offset="1"
         stop-color="#d1960a"
         id="stop109" />
    </linearGradient>
    <linearGradient
       id="linearGradient103"
       gradientUnits="userSpaceOnUse">
      <stop
         offset="0"
         stop-color="#f51111"
         id="stop98"
         style="stop-color:#d1960a;stop-opacity:1;" />
      <stop
         offset=".044"
         stop-color="#f5c211"
         id="stop99" />
      <stop
         offset=".355"
         stop-color="#e5a50a"
         id="stop100" />
      <stop
         offset=".641"
         stop-color="#f9f06b"
         id="stop101" />
      <stop
         offset=".839"
         stop-color="#f5c211"
         id="stop102" />
      <stop
         offset="1"
         stop-color="#d1960a"
         id="stop103" />
    </linearGradient>
    <linearGradient
       id="n"
       x1="6.1360002"
       x2="13.874"
       y1="6.5279999"
       y2="14.036"
       gradientTransform="scale(3.7796)"
       gradientUnits="userSpaceOnUse">
      <stop
         offset="0"
         id="stop1" />
      <stop
         offset="1"
         stop-color="#f5c312"
         id="stop2" />
    </linearGradient>
    <linearGradient
       id="b"
       gradientUnits="userSpaceOnUse">
      <stop
         offset="0"
         stop-color="#f51111"
         id="stop3" />
      <stop
         offset=".044"
         stop-color="#f5c211"
         id="stop4" />
      <stop
         offset=".332"
         stop-color="#e5a50a"
         id="stop5" />
      <stop
         offset=".619"
         stop-color="#f9f06b"
         id="stop6" />
      <stop
         offset=".81"
         stop-color="#f5c211"
         id="stop7" />
      <stop
         offset="1"
         stop-color="#d1960a"
         id="stop8" />
    </linearGradient>
    <linearGradient
       id="q"
       x1="122"
       x2="122"
       y1="178"
       y2="283.73001"
       gradientTransform="matrix(0,-0.4845,0.5001,0,-17.703643,58.691105)"
       gradientUnits="userSpaceOnUse">
      <stop
         offset="0"
         stop-color="#f51111"
         id="stop9" />
      <stop
         offset=".044"
         stop-color="#f5c211"
         id="stop10" />
      <stop
         offset=".332"
         stop-color="#f5c211"
         id="stop11" />
      <stop
         offset=".523"
         stop-color="#f9f06b"
         id="stop12" />
      <stop
         offset=".714"
         stop-color="#f6d32d"
         id="stop13" />
      <stop
         offset="1"
         stop-color="#e5a50a"
         id="stop14" />
    </linearGradient>
    <linearGradient
       id="i"
       gradientUnits="userSpaceOnUse">
      <stop
         offset="0"
         stop-color="#f51111"
         id="stop15" />
      <stop
         offset=".044"
         stop-color="#f5c211"
         id="stop16" />
      <stop
         offset=".182"
         stop-color="#e5a50a"
         id="stop17" />
      <stop
         offset=".455"
         stop-color="#f9f06b"
         id="stop18" />
      <stop
         offset=".667"
         stop-color="#f5c211"
         id="stop19" />
      <stop
         offset="1"
         stop-color="#d1960a"
         id="stop20" />
    </linearGradient>
    <linearGradient
       xlink:href="#a"
       id="t"
       x1="81"
       x2="114"
       y1="262"
       y2="262"
       gradientTransform="matrix(0,0.4845,-0.46061711,0,233.38656,-5.791)" />
    <linearGradient
       id="a"
       gradientUnits="userSpaceOnUse">
      <stop
         offset="0"
         stop-color="#f51111"
         id="stop21" />
      <stop
         offset=".044"
         stop-color="#f5c211"
         id="stop22" />
      <stop
         offset=".355"
         stop-color="#e5a50a"
         id="stop23" />
      <stop
         offset=".641"
         stop-color="#f9f06b"
         id="stop24" />
      <stop
         offset=".839"
         stop-color="#f5c211"
         id="stop25" />
      <stop
         offset="1"
         stop-color="#d1960a"
         id="stop26" />
    </linearGradient>
    <linearGradient
       xlink:href="#a"
       id="x"
       x1="81"
       x2="114"
       y1="262"
       y2="262"
       gradientTransform="matrix(0,-0.4845,0.46061711,0,0.259949,71.729)" />
    <linearGradient
       xlink:href="#b"
       id="y"
       x1="254"
       x2="254"
       y1="-20"
       y2="-62"
       gradientTransform="matrix(0,0.3513594,0.5001,0,121.32416,-54.89992)" />
    <linearGradient
       id="A"
       x1="95.800003"
       x2="110.2"
       y1="262.04999"
       y2="262.04999"
       gradientTransform="matrix(0,-0.40374838,-1.9813462,0,610.87205,69.708635)"
       gradientUnits="userSpaceOnUse">
      <stop
         offset="0"
         stop-color="#f51111"
         id="stop27" />
      <stop
         offset=".065"
         stop-color="#e5a50a"
         id="stop28" />
      <stop
         offset=".583"
         stop-color="#f9f06b"
         id="stop29" />
      <stop
         offset=".75"
         stop-color="#f5c211"
         id="stop30" />
      <stop
         offset="1"
         stop-color="#d1960a"
         id="stop31" />
    </linearGradient>
    <linearGradient
       xlink:href="#a"
       id="B"
       x1="81"
       x2="114"
       y1="262"
       y2="262"
       gradientTransform="matrix(0.5001,0,0,0.44617605,78.815657,-79.00864)" />
    <linearGradient
       xlink:href="#c"
       id="H"
       x1="16.601999"
       x2="16.601999"
       y1="234"
       y2="226"
       gradientTransform="matrix(0.5001,0,0,-0.4845,75.314957,139.559)" />
    <linearGradient
       id="c"
       gradientUnits="userSpaceOnUse">
      <stop
         offset="0"
         stop-color="#c0bfbc"
         id="stop32" />
      <stop
         offset="1"
         stop-color="#f6f5f4"
         id="stop33" />
    </linearGradient>
    <linearGradient
       xlink:href="#c"
       id="I"
       x1="-11.09"
       x2="-11.09"
       y1="236"
       y2="224"
       gradientTransform="matrix(-0.5001,0,0,-0.4845,75.314957,139.56385)" />
    <linearGradient
       xlink:href="#d"
       id="K"
       x1="-7"
       x2="-7"
       y1="240"
       y2="220"
       gradientTransform="matrix(-0.5001,0,0,-0.4845,75.314957,139.56385)" />
    <linearGradient
       id="d"
       gradientUnits="userSpaceOnUse">
      <stop
         offset="0"
         stop-color="#77767b"
         id="stop34" />
      <stop
         offset=".6"
         stop-color="#c0bfbc"
         id="stop35" />
      <stop
         offset="1"
         stop-color="#77767b"
         id="stop36" />
    </linearGradient>
    <linearGradient
       id="L"
       x1="20"
       x2="20"
       y1="240.03999"
       y2="222.19"
       gradientTransform="matrix(0.5001,0,0,-0.4845,75.314957,139.559)"
       gradientUnits="userSpaceOnUse">
      <stop
         offset="0"
         stop-color="#f51111"
         id="stop37" />
      <stop
         offset=".044"
         stop-color="#f5c211"
         id="stop38" />
      <stop
         offset=".103"
         stop-color="#e5a50a"
         id="stop39" />
      <stop
         offset=".338"
         stop-color="#f9f06b"
         id="stop40" />
      <stop
         offset=".839"
         stop-color="#f5c211"
         id="stop41" />
      <stop
         offset="1"
         stop-color="#d1960a"
         id="stop42" />
    </linearGradient>
    <linearGradient
       xlink:href="#a"
       id="P"
       x1="81"
       x2="114"
       y1="262"
       y2="262"
       gradientTransform="matrix(0,-0.4845,0.46061711,0,0.259949,68.822)" />
    <linearGradient
       xlink:href="#e"
       id="Q"
       x1="46"
       x2="54"
       y1="239"
       y2="239"
       gradientTransform="matrix(0.625125,0,0,0.36831206,80.566007,-55.52008)" />
    <linearGradient
       id="e"
       gradientUnits="userSpaceOnUse">
      <stop
         offset="0"
         stop-color="#e5a50a"
         id="stop43" />
      <stop
         offset=".3"
         stop-color="#f9f06b"
         id="stop44" />
      <stop
         offset=".596"
         stop-color="#f5c211"
         id="stop45" />
      <stop
         offset="1"
         stop-color="#d1960a"
         id="stop46" />
    </linearGradient>
    <linearGradient
       id="S"
       x1="70"
       x2="80"
       y1="58.909"
       y2="58.909"
       gradientUnits="userSpaceOnUse"
       gradientTransform="matrix(0.5001,0,0,0.4845,74.314757,-3.324895)">
      <stop
         offset="0"
         stop-color="#5e5c64"
         id="stop47" />
      <stop
         offset=".3"
         stop-color="#c0bfbc"
         id="stop48" />
      <stop
         offset="1"
         stop-color="#77767b"
         id="stop49" />
    </linearGradient>
    <linearGradient
       xlink:href="#c"
       id="T"
       x1="43"
       x2="49"
       y1="201"
       y2="201"
       gradientTransform="matrix(0.27783556,0,0,0.2907,99.041701,-34.90945)" />
    <linearGradient
       xlink:href="#d"
       id="U"
       x1="70"
       x2="80"
       y1="50.909"
       y2="50.909"
       gradientTransform="matrix(0.5001,0,0,0.4845,74.314757,-3.324895)" />
    <linearGradient
       xlink:href="#f"
       id="V"
       x1="70"
       x2="80"
       y1="48.909"
       y2="48.909"
       gradientTransform="matrix(0.5001,0,0,0.4845,74.314757,-3.324895)" />
    <linearGradient
       id="f"
       gradientUnits="userSpaceOnUse">
      <stop
         offset="0"
         stop-color="#f6f5f4"
         id="stop50" />
      <stop
         offset="1"
         stop-color="#deddda"
         id="stop51" />
    </linearGradient>
    <linearGradient
       xlink:href="#e"
       id="W"
       x1="46"
       x2="54"
       y1="239"
       y2="239"
       gradientTransform="matrix(0.625125,0,0,0.36831206,86.567207,-55.52008)" />
    <linearGradient
       xlink:href="#h"
       id="Z"
       x1="82"
       x2="92"
       y1="58.909"
       y2="58.909"
       gradientTransform="matrix(0.5001,0,0,0.4845,74.314757,-3.324895)" />
    <linearGradient
       id="h"
       gradientUnits="userSpaceOnUse">
      <stop
         offset="0"
         stop-color="#77767b"
         id="stop52" />
      <stop
         offset=".3"
         stop-color="#c0bfbc"
         id="stop53" />
      <stop
         offset="1"
         stop-color="#77767b"
         id="stop54" />
    </linearGradient>
    <linearGradient
       xlink:href="#c"
       id="aa"
       x1="43"
       x2="49"
       y1="201"
       y2="201"
       gradientTransform="matrix(0.27783556,0,0,0.2907,105.0429,-34.90945)" />
    <linearGradient
       xlink:href="#d"
       id="ab"
       x1="82"
       x2="92"
       y1="50.909"
       y2="50.909"
       gradientTransform="matrix(0.5001,0,0,0.4845,74.314757,-3.324895)" />
    <linearGradient
       xlink:href="#f"
       id="ac"
       x1="82"
       x2="92"
       y1="48.909"
       y2="48.909"
       gradientTransform="matrix(0.5001,0,0,0.4845,74.314757,-3.324895)" />
    <linearGradient
       xlink:href="#e"
       id="ae"
       x1="46"
       x2="54"
       y1="239"
       y2="239"
       gradientTransform="matrix(0.625125,0,0,0.36831206,92.568407,-55.52008)" />
    <linearGradient
       xlink:href="#h"
       id="af"
       x1="94"
       x2="104"
       y1="58.909"
       y2="58.909"
       gradientTransform="matrix(0.5001,0,0,0.4845,74.314757,-3.324895)" />
    <linearGradient
       xlink:href="#c"
       id="ag"
       x1="43"
       x2="49"
       y1="201"
       y2="201"
       gradientTransform="matrix(0.27783556,0,0,0.2907,111.0441,-34.90945)" />
    <linearGradient
       xlink:href="#d"
       id="ah"
       x1="94"
       x2="104"
       y1="50.909"
       y2="50.909"
       gradientTransform="matrix(0.5001,0,0,0.4845,74.314757,-3.324895)" />
    <linearGradient
       xlink:href="#f"
       id="ai"
       x1="94"
       x2="104"
       y1="48.909"
       y2="48.909"
       gradientTransform="matrix(0.5001,0,0,0.4845,74.314757,-3.324895)" />
    <linearGradient
       id="aj"
       x1="81"
       x2="114"
       y1="262"
       y2="262"
       gradientTransform="matrix(0,0.56526615,0.32243447,0,33.879171,-6.841396)"
       gradientUnits="userSpaceOnUse">
      <stop
         offset="0"
         stop-color="#f51111"
         id="stop55" />
      <stop
         offset=".044"
         stop-color="#f5c211"
         id="stop56" />
      <stop
         offset=".407"
         stop-color="#edab0a"
         id="stop57" />
      <stop
         offset=".667"
         stop-color="#f9f06b"
         id="stop58" />
      <stop
         offset=".839"
         stop-color="#f5c211"
         id="stop59" />
      <stop
         offset="1"
         stop-color="#d1960a"
         id="stop60" />
    </linearGradient>
    <linearGradient
       xlink:href="#i"
       id="ak"
       x1="50"
       x2="76"
       y1="244"
       y2="244"
       gradientTransform="matrix(-0.5001,0,0,0.4845,136.82726,-90.5785)" />
    <linearGradient
       id="k"
       gradientUnits="userSpaceOnUse">
      <stop
         offset="0"
         stop-color="#f51111"
         id="stop61" />
      <stop
         offset="0"
         stop-color="#f5c211"
         id="stop62" />
      <stop
         offset="0"
         stop-color="#e5a50a"
         id="stop63" />
      <stop
         offset=".327"
         stop-color="#f9f06b"
         id="stop64" />
      <stop
         offset=".596"
         stop-color="#f5c211"
         id="stop65" />
      <stop
         offset="1"
         stop-color="#d1960a"
         id="stop66" />
    </linearGradient>
    <linearGradient
       id="am"
       x1="88.599998"
       x2="113.8"
       y1="262.48999"
       y2="262.48999"
       gradientTransform="matrix(0,0.40374838,-0.39420383,0,220.79905,-3.772573)"
       gradientUnits="userSpaceOnUse">
      <stop
         offset="0"
         stop-color="#f51111"
         id="stop67"
         style="stop-color:#d1960a;stop-opacity:1;" />
      <stop
         offset=".044"
         stop-color="#f5c211"
         id="stop68" />
      <stop
         offset=".2"
         stop-color="#e5a50a"
         id="stop69" />
      <stop
         offset=".567"
         stop-color="#f9f06b"
         id="stop70" />
      <stop
         offset=".803"
         stop-color="#f5c211"
         id="stop71" />
      <stop
         offset="1"
         stop-color="#d1960a"
         id="stop72" />
    </linearGradient>
    <radialGradient
       xlink:href="#b"
       id="o"
       cx="-96.222"
       cy="219.32001"
       r="42"
       gradientTransform="matrix(-0.5001,0,0,-0.9034956,63.201535,221.91431)" />
    <radialGradient
       id="p"
       cx="82.779999"
       cy="202.7"
       r="42"
       gradientTransform="matrix(0.28267152,0.16835406,-0.27550509,0.43417498,147.82446,-90.050395)"
       gradientUnits="userSpaceOnUse">
      <stop
         offset="0"
         stop-color="#e5a50a"
         id="stop73" />
      <stop
         offset="1"
         stop-color="#e5a50a"
         stop-opacity="0"
         id="stop74" />
    </radialGradient>
    <radialGradient
       xlink:href="#i"
       id="r"
       cx="83.593002"
       cy="246.44"
       r="11"
       gradientTransform="matrix(-1.5003,0,0,-1.4535,236.73723,394.55619)" />
    <radialGradient
       xlink:href="#i"
       id="s"
       cx="83.593002"
       cy="246.44"
       r="11"
       gradientTransform="matrix(1.3639227,0,0,-1.4535,6.811259,394.55619)" />
    <radialGradient
       xlink:href="#i"
       id="u"
       cx="96"
       cy="67.908997"
       r="33"
       gradientTransform="matrix(0.5001,0,0,0.4845,74.314757,-3.324895)" />
    <radialGradient
       xlink:href="#i"
       id="v"
       cx="83.593002"
       cy="246.44"
       r="11"
       gradientTransform="matrix(-1.3639227,0,0,1.4535,226.83526,-328.6182)" />
    <radialGradient
       id="C"
       cx="68.302002"
       cy="281.16"
       r="29.631001"
       gradientTransform="matrix(-0.2135627,0.44468864,-0.52470492,-0.23650383,272.92947,79.26782)"
       gradientUnits="userSpaceOnUse">
      <stop
         offset="0"
         stop-color="#f51111"
         id="stop75" />
      <stop
         offset="0"
         stop-color="#f5c211"
         id="stop76" />
      <stop
         offset=".138"
         stop-color="#e5a50a"
         id="stop77" />
      <stop
         offset=".541"
         stop-color="#f9f06b"
         id="stop78" />
      <stop
         offset=".817"
         stop-color="#f5c211"
         id="stop79" />
      <stop
         offset="1"
         stop-color="#d1960a"
         id="stop80" />
    </radialGradient>
    <radialGradient
       id="G"
       cx="272"
       cy="81.172997"
       r="14"
       gradientTransform="matrix(1.1787857,0,0,-1.1420149,-201.31036,133.90973)"
       gradientUnits="userSpaceOnUse">
      <stop
         offset="0"
         stop-color="#f51111"
         id="stop81" />
      <stop
         offset=".044"
         stop-color="#f5c211"
         id="stop82" />
      <stop
         offset=".327"
         stop-color="#e5a50a"
         id="stop83" />
      <stop
         offset=".636"
         stop-color="#f9f06b"
         id="stop84" />
      <stop
         offset=".839"
         stop-color="#f5c211"
         id="stop85" />
      <stop
         offset="1"
         stop-color="#d1960a"
         id="stop86" />
    </radialGradient>
    <radialGradient
       xlink:href="#i"
       id="M"
       cx="96"
       cy="61.909"
       r="33"
       gradientTransform="matrix(0.5001,0,0,0.4845,74.314757,-3.324895)" />
    <radialGradient
       xlink:href="#i"
       id="N"
       cx="83.593002"
       cy="246.44"
       r="11"
       gradientTransform="matrix(-1.3639227,0,0,1.4535,226.83526,-331.52519)" />
    <radialGradient
       xlink:href="#k"
       id="al"
       cx="99"
       cy="267.22"
       r="13"
       gradientTransform="matrix(0,0.87815625,-0.90623121,0,365.98308,-53.000137)" />
    <radialGradient
       xlink:href="#k"
       id="an"
       cx="70"
       cy="255"
       r="6.5"
       gradientTransform="matrix(-1.6157231,0,0,-1.7582505,222.41937,482.28945)" />
    <radialGradient
       id="ao"
       cx="79.357002"
       cy="260.5"
       r="23.5"
       gradientTransform="matrix(-0.76610319,0,0,-0.85131495,169.11871,261.03284)"
       gradientUnits="userSpaceOnUse">
      <stop
         offset="0"
         stop-color="#f51111"
         id="stop87" />
      <stop
         offset=".044"
         stop-color="#f5c211"
         id="stop88" />
      <stop
         offset=".216"
         stop-color="#e5a50a"
         id="stop89" />
      <stop
         offset=".556"
         stop-color="#f9f06b"
         id="stop90" />
      <stop
         offset=".778"
         stop-color="#f5c211"
         id="stop91" />
      <stop
         offset="1"
         stop-color="#d1960a"
         id="stop92" />
    </radialGradient>
    <radialGradient
       id="ap"
       cx="68.302002"
       cy="281.16"
       r="29.631001"
       gradientTransform="matrix(-0.24470893,0.43170403,-0.50725143,-0.2698665,270.14892,89.52953)"
       gradientUnits="userSpaceOnUse">
      <stop
         offset="0"
         stop-color="#f51111"
         id="stop93" />
      <stop
         offset="0"
         stop-color="#f5c211"
         id="stop94" />
      <stop
         offset=".184"
         stop-color="#c98c04"
         id="stop95" />
      <stop
         offset=".541"
         stop-color="#f9f06b"
         stop-opacity="0"
         id="stop96" />
      <stop
         offset="1"
         stop-color="#d1960a"
         stop-opacity="0"
         id="stop97" />
    </radialGradient>
    <linearGradient
       inkscape:collect="always"
       xlink:href="#linearGradient8"
       id="linearGradient10"
       x1="31.5"
       y1="59.017544"
       x2="31.5"
       y2="4.9824562"
       gradientUnits="userSpaceOnUse"
       gradientTransform="translate(-0.5,-1)" />
    <linearGradient
       id="linearGradient8"
       inkscape:collect="always">
      <stop
         style="stop-color:#2d3d53;stop-opacity:1;"
         offset="0"
         id="stop8-2" />
      <stop
         style="stop-color:#354864;stop-opacity:1;"
         offset="1"
         id="stop10-7" />
    </linearGradient>
    <radialGradient
       xlink:href="#b"
       id="o-0"
       cx="-96.222"
       cy="219.32001"
       r="42"
       gradientTransform="matrix(-0.5001,0,0,-0.9034956,63.201535,221.91431)" />
    <radialGradient
       id="p-1"
       cx="82.779999"
       cy="202.7"
       r="42"
       gradientTransform="matrix(0.28267152,0.16835406,-0.27550509,0.43417498,147.82446,-90.050395)"
       gradientUnits="userSpaceOnUse">
      <stop
         offset="0"
         stop-color="#e5a50a"
         id="stop73-8" />
      <stop
         offset="1"
         stop-color="#e5a50a"
         stop-opacity="0"
         id="stop74-7" />
    </radialGradient>
    <radialGradient
       xlink:href="#i"
       id="r-5"
       cx="83.593002"
       cy="246.44"
       r="11"
       gradientTransform="matrix(-1.5003,0,0,-1.4535,236.73723,394.55619)" />
    <radialGradient
       xlink:href="#i"
       id="s-3"
       cx="83.593002"
       cy="246.44"
       r="11"
       gradientTransform="matrix(1.3639227,0,0,-1.4535,6.811259,394.55619)" />
    <radialGradient
       xlink:href="#i"
       id="u-0"
       cx="96"
       cy="67.908997"
       r="33"
       gradientTransform="matrix(0.5001,0,0,0.4845,74.314757,-3.324895)" />
    <radialGradient
       xlink:href="#i"
       id="v-2"
       cx="83.593002"
       cy="246.44"
       r="11"
       gradientTransform="matrix(-1.3639227,0,0,1.4535,226.83526,-328.6182)" />
    <radialGradient
       id="C-3"
       cx="68.302002"
       cy="281.16"
       r="29.631001"
       gradientTransform="matrix(-0.2135627,0.44468864,-0.52470492,-0.23650383,272.92947,79.26782)"
       gradientUnits="userSpaceOnUse">
      <stop
         offset="0"
         stop-color="#f51111"
         id="stop75-1" />
      <stop
         offset="0"
         stop-color="#f5c211"
         id="stop76-4" />
      <stop
         offset=".138"
         stop-color="#e5a50a"
         id="stop77-9" />
      <stop
         offset=".541"
         stop-color="#f9f06b"
         id="stop78-2" />
      <stop
         offset=".817"
         stop-color="#f5c211"
         id="stop79-0" />
      <stop
         offset="1"
         stop-color="#d1960a"
         id="stop80-6" />
    </radialGradient>
    <radialGradient
       id="G-8"
       cx="272"
       cy="81.172997"
       r="14"
       gradientTransform="matrix(1.1787857,0,0,-1.1420149,-201.31036,133.90973)"
       gradientUnits="userSpaceOnUse">
      <stop
         offset="0"
         stop-color="#f51111"
         id="stop81-9" />
      <stop
         offset=".044"
         stop-color="#f5c211"
         id="stop82-2" />
      <stop
         offset=".327"
         stop-color="#e5a50a"
         id="stop83-6" />
      <stop
         offset=".636"
         stop-color="#f9f06b"
         id="stop84-6" />
      <stop
         offset=".839"
         stop-color="#f5c211"
         id="stop85-4" />
      <stop
         offset="1"
         stop-color="#d1960a"
         id="stop86-9" />
    </radialGradient>
    <radialGradient
       xlink:href="#linearGradient133"
       id="M-0"
       cx="96"
       cy="61.909"
       r="33"
       gradientTransform="matrix(0.5001,0,0,0.4845,74.314757,-3.324895)" />
    <radialGradient
       xlink:href="#linearGradient127"
       id="N-9"
       cx="83.593002"
       cy="246.44"
       r="11"
       gradientTransform="matrix(-1.3639227,0,0,1.4535,226.83526,-331.52519)" />
    <radialGradient
       xlink:href="#k"
       id="al-0"
       cx="99"
       cy="267.22"
       r="13"
       gradientTransform="matrix(0,0.87815625,-0.90623121,0,365.98308,-53.000137)" />
    <radialGradient
       xlink:href="#k"
       id="an-9"
       cx="70"
       cy="255"
       r="6.5"
       gradientTransform="matrix(-1.6157231,0,0,-1.7582505,222.41937,482.28945)" />
    <radialGradient
       id="ao-1"
       cx="79.357002"
       cy="260.5"
       r="23.5"
       gradientTransform="matrix(-0.76610319,0,0,-0.85131495,169.11871,261.03284)"
       gradientUnits="userSpaceOnUse">
      <stop
         offset="0"
         stop-color="#f51111"
         id="stop183" />
      <stop
         offset=".044"
         stop-color="#f5c211"
         id="stop184" />
      <stop
         offset=".216"
         stop-color="#e5a50a"
         id="stop185" />
      <stop
         offset=".556"
         stop-color="#f9f06b"
         id="stop186" />
      <stop
         offset=".778"
         stop-color="#f5c211"
         id="stop187" />
      <stop
         offset="1"
         stop-color="#d1960a"
         id="stop188" />
    </radialGradient>
    <radialGradient
       id="ap-7"
       cx="68.302002"
       cy="281.16"
       r="29.631001"
       gradientTransform="matrix(-0.24470893,0.43170403,-0.50725143,-0.2698665,210.46298,89.530499)"
       gradientUnits="userSpaceOnUse">
      <stop
         offset="0"
         stop-color="#f51111"
         id="stop189"
         style="stop-color:#d1960a;stop-opacity:1;" />
      <stop
         offset="0"
         stop-color="#f5c211"
         id="stop190" />
      <stop
         offset=".184"
         stop-color="#c98c04"
         id="stop191" />
      <stop
         offset=".541"
         stop-color="#f9f06b"
         stop-opacity="0"
         id="stop192" />
      <stop
         offset="1"
         stop-color="#d1960a"
         stop-opacity="0"
         id="stop193" />
    </radialGradient>
  </defs>
  <g
     id="g1"
     transform="translate(-0.188246)">
    <rect
       style="opacity:0.2;stroke-width:0.9823"
       width="55"
       height="55.017544"
       x="3.5"
       y="3.9824562"
       rx="8.25"
       ry="8.2526312"
       id="rect1" />
    <rect
       style="fill:url(#linearGradient10);stroke-width:0.9823"
       width="55"
       height="55.017544"
       x="3.5"
       y="3"
       rx="8.25"
       ry="8.2526312"
       id="rect2" />
    <path
       style="opacity:0.1;fill:#ffffff;stroke-width:0.9823"
       d="M 11.748466,3 C 7.1779652,3 3.5,6.6791384 3.5,11.251097 v 0.982456 c 0,-4.5719585 3.6779652,-8.2510969 8.248466,-8.2510969 h 38.503068 c 4.5705,0 8.248466,3.6791384 8.248466,8.2510969 V 11.251097 C 58.5,6.6791384 54.822034,3 50.251534,3 Z"
       id="path4" />
  </g>
  <g
     id="g3"
     transform="matrix(0.78260874,0,0,0.78260874,-37.211938,2.127686)"
     style="fill:#ffd5d5;fill-opacity:1;stroke-width:1.27778">
    <g
       id="g2"
       style="fill:#ffd5d5;fill-opacity:1;stroke-width:1.27778">
      <path
         d="m 87.159691,17.825652 a 1.2425239,1.2425239 0 0 0 -1.048219,1.907249 1.2374105,1.2374105 0 0 1 2.101552,0 1.2425239,1.2425239 0 0 0 -1.053333,-1.907249 z"
         id="path1"
         style="fill:#ffd5d5;fill-opacity:1;stroke-width:1.27774" />
      <path
         d="m 87.159691,22.37646 a 1.2425239,1.2425239 0 0 0 -1.048219,1.907249 1.2374105,1.2374105 0 0 1 2.101552,0 1.2425239,1.2425239 0 0 0 -1.053333,-1.907249 z"
         id="path2"
         style="fill:#ffd5d5;fill-opacity:1;stroke-width:1.27774" />
      <path
         d="m 87.159691,26.922154 a 1.2425239,1.2425239 0 0 0 -1.048219,1.907249 1.2374105,1.2374105 0 0 1 2.101552,0 1.2425239,1.2425239 0 0 0 -1.053333,-1.907249 z"
         id="path3"
         style="fill:#ffd5d5;fill-opacity:1;stroke-width:1.27774" />
      <path
         d="m 87.159691,31.472963 a 1.2425239,1.2425239 0 0 0 -1.048219,1.907248 1.2374105,1.2374105 0 0 1 2.101552,0 1.2425239,1.2425239 0 0 0 -1.053333,-1.907248 z"
         id="path4-3"
         style="fill:#ffd5d5;fill-opacity:1;stroke-width:1.27774" />
      <path
         d="m 87.159691,36.02377 a 1.2425239,1.2425239 0 0 0 -1.048219,1.886796 1.2374105,1.2374105 0 0 1 2.101552,0 1.2425239,1.2425239 0 0 0 -1.053333,-1.886796 z"
         id="path5"
         style="fill:#ffd5d5;fill-opacity:1;stroke-width:1.27774" />
      <path
         d="m 87.159691,40.569465 a 1.2425239,1.2425239 0 0 0 -1.048219,1.907248 1.2374105,1.2374105 0 0 1 2.101552,0 1.2425239,1.2425239 0 0 0 -1.053333,-1.907248 z"
         id="path6"
         style="fill:#ffd5d5;fill-opacity:1;stroke-width:1.27774" />
      <path
         d="m 87.159691,45.120272 a 1.2425239,1.2425239 0 0 0 -1.048219,1.90725 1.2374105,1.2374105 0 0 1 2.101552,0 1.2425239,1.2425239 0 0 0 -1.053333,-1.90725 z"
         id="path7"
         style="fill:#ffd5d5;fill-opacity:1;stroke-width:1.27774" />
      <path
         d="m 83.662216,20.126622 a 1.2425239,1.2425239 0 0 0 -1.048219,1.90725 1.2374105,1.2374105 0 0 1 2.101552,0 1.2425239,1.2425239 0 0 0 -1.053333,-1.90725 z"
         id="path8"
         style="fill:#ffd5d5;fill-opacity:1;stroke-width:1.27774" />
      <path
         d="m 83.662216,24.67743 a 1.2425239,1.2425239 0 0 0 -1.048219,1.90725 1.2374105,1.2374105 0 0 1 2.101552,0 1.2425239,1.2425239 0 0 0 -1.053333,-1.90725 z"
         id="path9"
         style="fill:#ffd5d5;fill-opacity:1;stroke-width:1.27774" />
      <path
         d="m 83.662216,29.218012 a 1.2425239,1.2425239 0 0 0 -1.048219,1.907248 1.2374105,1.2374105 0 0 1 2.101552,0 1.2425239,1.2425239 0 0 0 -1.053333,-1.907248 z"
         id="path10"
         style="fill:#ffd5d5;fill-opacity:1;stroke-width:1.27774" />
      <path
         d="m 83.662216,33.773933 a 1.2425239,1.2425239 0 0 0 -1.048219,1.907247 1.2374105,1.2374105 0 0 1 2.101552,0 1.2425239,1.2425239 0 0 0 -1.053333,-1.907247 z"
         id="path11"
         style="fill:#ffd5d5;fill-opacity:1;stroke-width:1.27774" />
      <path
         d="m 83.662216,38.324738 a 1.2425239,1.2425239 0 0 0 -1.048219,1.907251 1.2374105,1.2374105 0 0 1 2.101552,0 1.2425239,1.2425239 0 0 0 -1.053333,-1.907251 z"
         id="path12"
         style="fill:#ffd5d5;fill-opacity:1;stroke-width:1.27774" />
      <path
         d="m 83.662216,42.870434 a 1.2425239,1.2425239 0 0 0 -1.048219,1.90725 1.2374105,1.2374105 0 0 1 2.101552,0 1.2425239,1.2425239 0 0 0 -1.053333,-1.90725 z"
         id="path13"
         style="fill:#ffd5d5;fill-opacity:1;stroke-width:1.27774" />
      <path
         d="m 83.217362,47.508169 q 0.659612,0.173851 1.339677,0.291456 a 1.2271842,1.2271842 0 0 0 -1.339677,-0.291456 z"
         id="path14"
         style="fill:#ffd5d5;fill-opacity:1;stroke-width:1.27774" />
      <path
         d="m 80.272121,19.21646 a 1.2374105,1.2374105 0 0 1 0.945955,0.567573 1.1965046,1.1965046 0 0 0 0.122718,-1.06356 c -0.363043,0.153401 -0.720973,0.317023 -1.068673,0.495987 z"
         id="path15"
         style="fill:#ffd5d5;fill-opacity:1;stroke-width:1.27774" />
      <path
         d="m 80.164743,22.427592 a 1.2425239,1.2425239 0 0 0 -1.048222,1.907251 1.2374105,1.2374105 0 0 1 2.101555,0 1.2425239,1.2425239 0 0 0 -1.053333,-1.907251 z"
         id="path16"
         style="fill:#ffd5d5;fill-opacity:1;stroke-width:1.27774" />
      <path
         d="m 80.164743,26.978401 a 1.2425239,1.2425239 0 0 0 -1.048222,1.90725 1.2374105,1.2374105 0 0 1 2.101555,0 1.2425239,1.2425239 0 0 0 -1.053333,-1.90725 z"
         id="path17"
         style="fill:#ffd5d5;fill-opacity:1;stroke-width:1.27774" />
      <path
         d="m 80.164743,31.524095 a 1.2425239,1.2425239 0 0 0 -1.048222,1.907248 1.2374105,1.2374105 0 0 1 2.101555,0 1.2425239,1.2425239 0 0 0 -1.053333,-1.907248 z"
         id="path18"
         style="fill:#ffd5d5;fill-opacity:1;stroke-width:1.27774" />
      <path
         d="m 80.164743,36.074901 a 1.2425239,1.2425239 0 0 0 -1.048222,1.907251 1.2374105,1.2374105 0 0 1 2.101555,0 1.2425239,1.2425239 0 0 0 -1.053333,-1.907251 z"
         id="path19"
         style="fill:#ffd5d5;fill-opacity:1;stroke-width:1.27774" />
      <path
         d="m 80.164743,40.625709 a 1.2425239,1.2425239 0 0 0 -1.048222,1.886797 1.2374105,1.2374105 0 0 1 2.101555,0 1.2425239,1.2425239 0 0 0 -1.053333,-1.886797 z"
         id="path20"
         style="fill:#ffd5d5;fill-opacity:1;stroke-width:1.27774" />
      <path
         d="m 80.164743,45.171405 a 1.2425239,1.2425239 0 0 0 -1.022653,0.562459 15.171064,15.171064 0 0 0 2.19359,1.130032 1.2118444,1.2118444 0 0 0 0.08693,-0.449967 1.2425239,1.2425239 0 0 0 -1.257862,-1.242524 z"
         id="path21"
         style="fill:#ffd5d5;fill-opacity:1;stroke-width:1.27774" />
      <path
         d="m 76.933158,21.548111 a 1.2425239,1.2425239 0 0 1 0.813008,0.552233 1.2169576,1.2169576 0 0 0 0.03065,-1.262978 c -0.332362,0.19942 -0.598252,0.449968 -0.843688,0.710745 z"
         id="path22"
         style="fill:#ffd5d5;fill-opacity:1;stroke-width:1.27774" />
      <path
         d="m 76.67238,24.728563 a 1.2425239,1.2425239 0 0 0 -1.048219,1.907251 1.2374105,1.2374105 0 0 1 2.101553,0 1.2425239,1.2425239 0 0 0 -1.053334,-1.907251 z"
         id="path23"
         style="fill:#ffd5d5;fill-opacity:1;stroke-width:1.27774" />
      <path
         d="m 76.67238,29.279372 a 1.2425239,1.2425239 0 0 0 -1.048219,1.907247 1.2374105,1.2374105 0 0 1 2.101553,0 1.2425239,1.2425239 0 0 0 -1.053334,-1.907247 z"
         id="path24"
         style="fill:#ffd5d5;fill-opacity:1;stroke-width:1.27774" />
      <path
         d="m 76.67238,33.819951 a 1.2425239,1.2425239 0 0 0 -1.048219,1.90725 1.2374105,1.2374105 0 0 1 2.101553,0 1.2425239,1.2425239 0 0 0 -1.053334,-1.90725 z"
         id="path25"
         style="fill:#ffd5d5;fill-opacity:1;stroke-width:1.27774" />
      <path
         d="m 76.67238,38.375873 a 1.2425239,1.2425239 0 0 0 -1.048219,1.907249 1.2374105,1.2374105 0 0 1 2.101553,0 1.2425239,1.2425239 0 0 0 -1.053334,-1.907249 z"
         id="path26"
         style="fill:#ffd5d5;fill-opacity:1;stroke-width:1.27774" />
      <path
         d="m 76.67238,42.926681 a 1.2374105,1.2374105 0 0 0 -0.690291,0.209642 15.309122,15.309122 0 0 0 1.774304,1.636247 1.2271842,1.2271842 0 0 0 0.158511,-0.603367 1.2425239,1.2425239 0 0 0 -1.242524,-1.242522 z"
         id="path27"
         style="fill:#ffd5d5;fill-opacity:1;stroke-width:1.27774" />
      <path
         d="m 73.174906,27.029534 h -0.117605 a 15.084138,15.084138 0 0 0 -0.511328,1.493073 1.2220708,1.2220708 0 0 1 0.634046,-0.178964 1.2425239,1.2425239 0 0 1 1.048221,0.582913 1.2425239,1.2425239 0 0 0 -1.053334,-1.897022 z"
         id="path28"
         style="fill:#ffd5d5;fill-opacity:1;stroke-width:1.27774" />
      <path
         d="m 73.174906,31.58034 a 1.2425239,1.2425239 0 0 0 -1.242525,1.216959 v 0 0 a 1.2374105,1.2374105 0 0 0 0.194305,0.649386 1.2374105,1.2374105 0 0 1 2.101554,0 1.2425239,1.2425239 0 0 0 -1.053334,-1.866345 z"
         id="path29"
         style="fill:#ffd5d5;fill-opacity:1;stroke-width:1.27774" />
      <path
         d="m 73.174906,36.126036 a 1.2322975,1.2322975 0 0 0 -0.802783,0.30168 q 0.138058,0.572687 0.322135,1.130034 a 1.2118444,1.2118444 0 0 1 0.480648,-0.107379 1.2425239,1.2425239 0 0 1 1.048218,0.582915 1.2425239,1.2425239 0 0 0 -1.048218,-1.90725 z"
         id="path30"
         style="fill:#ffd5d5;fill-opacity:1;stroke-width:1.27774" />
      <path
         d="m 90.657167,20.126622 a 1.2425239,1.2425239 0 0 0 -1.04822,1.90725 1.2374105,1.2374105 0 0 1 2.101553,0 1.2425239,1.2425239 0 0 0 -1.053333,-1.90725 z"
         id="path31"
         style="fill:#ffd5d5;fill-opacity:1;stroke-width:1.27774" />
      <path
         d="m 90.657167,24.67743 a 1.2425239,1.2425239 0 0 0 -1.04822,1.90725 1.2374105,1.2374105 0 0 1 2.101553,0 1.2425239,1.2425239 0 0 0 -1.053333,-1.90725 z"
         id="path32"
         style="fill:#ffd5d5;fill-opacity:1;stroke-width:1.27774" />
      <path
         d="m 90.657167,29.218012 a 1.2425239,1.2425239 0 0 0 -1.04822,1.907248 1.2374105,1.2374105 0 0 1 2.101553,0 1.2425239,1.2425239 0 0 0 -1.053333,-1.907248 z"
         id="path33"
         style="fill:#ffd5d5;fill-opacity:1;stroke-width:1.27774" />
      <path
         d="m 90.657167,33.773933 a 1.2425239,1.2425239 0 0 0 -1.04822,1.907247 1.2374105,1.2374105 0 0 1 2.101553,0 1.2425239,1.2425239 0 0 0 -1.053333,-1.907247 z"
         id="path34"
         style="fill:#ffd5d5;fill-opacity:1;stroke-width:1.27774" />
      <path
         d="m 90.657167,38.324738 a 1.2425239,1.2425239 0 0 0 -1.04822,1.907251 1.2374105,1.2374105 0 0 1 2.101553,0 1.2425239,1.2425239 0 0 0 -1.053333,-1.907251 z"
         id="path35"
         style="fill:#ffd5d5;fill-opacity:1;stroke-width:1.27774" />
      <path
         d="m 90.657167,42.870434 a 1.2425239,1.2425239 0 0 0 -1.04822,1.90725 1.2374105,1.2374105 0 0 1 2.101553,0 1.2425239,1.2425239 0 0 0 -1.053333,-1.90725 z"
         id="path36"
         style="fill:#ffd5d5;fill-opacity:1;stroke-width:1.27774" />
      <path
         d="m 89.762346,47.799625 q 0.680063,-0.117605 1.339674,-0.291456 a 1.2271842,1.2271842 0 0 0 -1.339674,0.291456 z"
         id="path37"
         style="fill:#ffd5d5;fill-opacity:1;stroke-width:1.27774" />
      <path
         d="m 94.047263,19.21646 c -0.347702,-0.178964 -0.705631,-0.342586 -1.068674,-0.511325 a 1.1965046,1.1965046 0 0 0 0.122717,1.063559 1.2374105,1.2374105 0 0 1 0.945957,-0.552234 z"
         id="path38"
         style="fill:#ffd5d5;fill-opacity:1;stroke-width:1.27774" />
      <path
         d="m 94.154639,22.427592 a 1.2425239,1.2425239 0 0 0 -1.048218,1.907251 1.2374105,1.2374105 0 0 1 2.101569,0 1.2425239,1.2425239 0 0 0 -1.053351,-1.907251 z"
         id="path39"
         style="fill:#ffd5d5;fill-opacity:1;stroke-width:1.27774" />
      <path
         d="m 94.154639,26.978401 a 1.2425239,1.2425239 0 0 0 -1.048218,1.90725 1.2374105,1.2374105 0 0 1 2.101569,0 1.2425239,1.2425239 0 0 0 -1.053351,-1.90725 z"
         id="path40"
         style="fill:#ffd5d5;fill-opacity:1;stroke-width:1.27774" />
      <path
         d="m 94.154639,31.524095 a 1.2374105,1.2374105 0 0 0 -1.048218,1.907248 1.2374105,1.2374105 0 0 1 2.101569,0 1.2425239,1.2425239 0 0 0 -1.053351,-1.907248 z"
         id="path41"
         style="fill:#ffd5d5;fill-opacity:1;stroke-width:1.27774" />
      <path
         d="m 94.154639,36.074901 a 1.2374105,1.2374105 0 0 0 -1.048218,1.907251 1.2374105,1.2374105 0 0 1 2.101569,0 1.2425239,1.2425239 0 0 0 -1.053351,-1.907251 z"
         id="path42"
         style="fill:#ffd5d5;fill-opacity:1;stroke-width:1.27774" />
      <path
         d="m 94.154639,40.625709 a 1.2374105,1.2374105 0 0 0 -1.053333,1.886797 1.2374105,1.2374105 0 0 1 2.101582,0 1.2425239,1.2425239 0 0 0 -1.048249,-1.886797 z"
         id="path43"
         style="fill:#ffd5d5;fill-opacity:1;stroke-width:1.27774" />
      <path
         d="m 94.154639,45.171405 a 1.2425239,1.2425239 0 0 0 -1.242523,1.242524 1.2118444,1.2118444 0 0 0 0.08693,0.449967 15.16595,15.16595 0 0 0 2.193592,-1.130032 1.2425239,1.2425239 0 0 0 -1.037995,-0.562459 z"
         id="path44"
         style="fill:#ffd5d5;fill-opacity:1;stroke-width:1.27774" />
      <path
         d="m 97.386215,21.548111 c -0.245439,-0.260777 -0.511336,-0.511325 -0.823232,-0.726083 a 1.2118444,1.2118444 0 0 0 0.03036,1.262976 1.2425239,1.2425239 0 0 1 0.792571,-0.536893 z"
         id="path45"
         style="fill:#ffd5d5;fill-opacity:1;stroke-width:1.27774" />
      <path
         d="m 97.646985,24.728563 a 1.2425239,1.2425239 0 0 0 -1.048223,1.907251 1.2374105,1.2374105 0 0 1 2.101556,0 1.2425239,1.2425239 0 0 0 -1.053333,-1.907251 z"
         id="path46"
         style="fill:#ffd5d5;fill-opacity:1;stroke-width:1.27774" />
      <path
         d="m 97.646985,29.279372 a 1.2425239,1.2425239 0 0 0 -1.048223,1.907247 1.2374105,1.2374105 0 0 1 2.101556,0 1.2425239,1.2425239 0 0 0 -1.053333,-1.907247 z"
         id="path47"
         style="fill:#ffd5d5;fill-opacity:1;stroke-width:1.27774" />
      <path
         d="m 97.646985,33.819951 a 1.2425239,1.2425239 0 0 0 -1.048223,1.90725 1.2374105,1.2374105 0 0 1 2.101556,0 1.2425239,1.2425239 0 0 0 -1.053333,-1.90725 z"
         id="path48"
         style="fill:#ffd5d5;fill-opacity:1;stroke-width:1.27774" />
      <path
         d="m 97.646985,38.375873 a 1.2425239,1.2425239 0 0 0 -1.048223,1.907249 1.2374105,1.2374105 0 0 1 2.101556,0 1.2425239,1.2425239 0 0 0 -1.053333,-1.907249 z"
         id="path49"
         style="fill:#ffd5d5;fill-opacity:1;stroke-width:1.27774" />
      <path
         d="m 96.404475,44.169203 a 1.2271842,1.2271842 0 0 0 0.163635,0.603367 15.339802,15.339802 0 0 0 1.774278,-1.636247 1.2425239,1.2425239 0 0 0 -1.937913,1.03288 z"
         id="path50"
         style="fill:#ffd5d5;fill-opacity:1;stroke-width:1.27774" />
      <path
         d="m 101.14447,28.35387 a 1.2220708,1.2220708 0 0 1 0.63403,0.178966 15.099479,15.099479 0 0 0 -0.51132,-1.493077 h -0.11759 a 1.2425239,1.2425239 0 0 0 -1.0482,1.90725 1.2425239,1.2425239 0 0 1 1.04308,-0.593139 z"
         id="path51"
         style="fill:#ffd5d5;fill-opacity:1;stroke-width:1.27774" />
      <path
         d="m 102.38701,32.797299 a 1.2425239,1.2425239 0 1 0 -2.29587,0.664724 1.2374105,1.2374105 0 0 1 2.10154,0 1.2374105,1.2374105 0 0 0 0.19433,-0.649387 v 0 0 z"
         id="path52"
         style="fill:#ffd5d5;fill-opacity:1;stroke-width:1.27774" />
      <path
         d="m 99.901939,37.373673 a 1.2322975,1.2322975 0 0 0 0.194321,0.659613 1.2425239,1.2425239 0 0 1 1.04821,-0.582915 1.2118444,1.2118444 0 0 1 0.48065,0.107379 q 0.18409,-0.557347 0.32215,-1.130034 a 1.2374105,1.2374105 0 0 0 -2.045331,0.945957 z"
         id="path53"
         style="fill:#ffd5d5;fill-opacity:1;stroke-width:1.27774" />
      <path
         d="m 106.07877,32.797299 a 18.919088,18.919088 0 1 0 -27.642312,16.802196 1.3192229,1.3192229 0 0 0 -0.0409,0.31191 c 0,1.820322 2.229384,3.379867 5.39961,4.034366 a 19.987761,19.987761 0 0 0 1.963494,5.829124 8.411323,8.411323 0 0 0 2.80207,0 19.987761,19.987761 0 0 0 1.963496,-5.829124 c 3.170226,-0.659612 5.399604,-2.214044 5.399604,-4.034366 a 2.4185753,2.4185753 0 0 0 0,-0.322138 18.919088,18.919088 0 0 0 10.154938,-16.791968 z M 87.159691,48.648426 A 15.851128,15.851128 0 1 1 103.01081,32.797299 15.851128,15.851128 0 0 1 87.159691,48.648426 Z"
         id="path54"
         style="fill:#ffd5d5;fill-opacity:1;stroke-width:1.27774" />
    </g>
  </g>
  <g
     id="g4"
     transform="matrix(0.78472564,0,0,0.78472564,-7.5587166,-5.6698874)"
     style="stroke-width:1.27434">
    <path
       d="m 81.053871,40.510371 c 0,0 -8.699765,-0.598817 -11.625,1.7 -1.953904,1.535489 -1.954761,4.80301 -4.125,6 -2.054922,1.133387 -4.25,-0.7 -4.25,-0.7 0,0 2.069475,7.677144 5.625,8.1 2.276191,0.270705 3.305768,-3.0972 5.375,-4.1 1.706332,-0.826931 5.625,-1.2 5.625,-1.2 z"
       style="fill:#e33f32;stroke-width:1.27434"
       id="path6-6" />
    <path
       d="m 80.493324,39.49084 a 1.50015,1.50015 0 0 0 -1.384765,1.117187 l -10,36 a 1.5002691,1.5002691 0 1 0 2.890624,0.804688 l 10,-36 A 1.50015,1.50015 0 0 0 80.493324,39.49084 Z"
       style="fill:#ffffff;stroke-width:1.27434"
       id="path7-7" />
  </g>
</svg>
