<?xml version="1.0" encoding="UTF-8" standalone="no"?>
<svg
   width="62"
   height="62"
   version="1.1"
   id="svg4"
   sodipodi:docname="day-of-the-tentacle-remastered.svg"
   inkscape:version="1.4.2 (unknown)"
   xmlns:inkscape="http://www.inkscape.org/namespaces/inkscape"
   xmlns:sodipodi="http://sodipodi.sourceforge.net/DTD/sodipodi-0.dtd"
   xmlns="http://www.w3.org/2000/svg"
   xmlns:svg="http://www.w3.org/2000/svg">
  <defs
     id="defs4">
    <linearGradient
       id="linear0"
       x1="2.9814523"
       x2="15.260703"
       y1="0.87708934"
       y2="13.15634"
       gradientTransform="scale(0.87708946,1.1401349)"
       gradientUnits="userSpaceOnUse">
      <stop
         offset="0%"
         style="stop-color:#e5ff00; stop-opacity:1"
         id="stop1" />
      <stop
         offset="50%"
         style="stop-color:#0073ff; stop-opacity:1"
         id="stop2" />
      <stop
         offset="100%"
         style="stop-color:#ff0000; stop-opacity:1"
         id="stop3" />
    </linearGradient>
    <linearGradient
       id="linear0-3"
       gradientUnits="userSpaceOnUse"
       x1="0"
       y1="0"
       x2="0"
       y2="1"
       gradientTransform="matrix(85.784167,0,0,85.549578,-8.5817205,-9.7878913)">
      <stop
         offset="0"
         style="stop-color:#2478ff;stop-opacity:1;"
         id="stop1-6" />
      <stop
         offset="1"
         style="stop-color:#0049bf;stop-opacity:1;"
         id="stop2-7" />
    </linearGradient>
  </defs>
  <sodipodi:namedview
     id="namedview4"
     pagecolor="#ffffff"
     bordercolor="#000000"
     borderopacity="0.25"
     inkscape:showpageshadow="2"
     inkscape:pageopacity="0.0"
     inkscape:pagecheckerboard="0"
     inkscape:deskcolor="#d1d1d1"
     inkscape:zoom="5.9453125"
     inkscape:cx="25.39816"
     inkscape:cy="25.31406"
     inkscape:current-layer="svg4" />
  <rect
     style="opacity:0.2;stroke-width:0.999971"
     width="55"
     height="55.017544"
     x="3.5"
     y="3.9824567"
     rx="12.6"
     ry="12.6"
     id="rect1" />
  <rect
     style="fill:#505d6e;stroke-width:0.999971"
     width="55"
     height="55.017544"
     x="3.5"
     y="2.9999995"
     rx="12.6"
     ry="12.6"
     id="rect2" />
  <path
     style="opacity:0.1;fill:#ffffff;stroke-width:0.999971"
     d="m 15.874615,2.9999995 c -6.8557487,0 -12.3746149,5.5206268 -12.3746149,12.3785615 v 0.982457 c 0,-6.8579385 5.5188662,-12.3785625 12.3746149,-12.3785625 h 30.25077 C 52.981135,3.9824555 58.5,9.5030795 58.5,16.361018 V 15.378561 C 58.5,8.5206263 52.981135,2.9999995 46.125385,2.9999995 Z"
     id="path4" />
  <g
     id="g1"
     transform="matrix(1.15,0,0,1.15,2.25,-59.85)"
     style="stroke-width:0.869564">
    <path
       fill="#ab47bc"
       d="M 38,97 H 14 c -0.6,0 -1,-0.4 -1,-1 0,-0.3 0.1,-0.6 0.4,-0.8 0.3,-0.7 0.8,-3.5 1.2,-6 0.3,-1.6 0.6,-3.5 1,-5.3 -0.4,0.1 -0.8,0.3 -1.2,0.4 C 13.2,84.7 12,85 11,85 10.5,85 10,84.9 9.7,84.6 9.4,84.4 9,84 9,83.2 c 0,-1.9 2.7,-3.6 5,-5.1 1.4,-0.9 3.2,-2.3 3.4,-3 0,-0.1 0.1,-0.1 0.1,-0.2 2.7,-11.2 5.2,-15.9 8.4,-15.9 2.9,0 5.3,4 7.7,13 2,-0.6 3,-2.3 3.5,-3.3 0.4,-0.7 1,-1.7 1.9,-1.7 0.4,0 2,0.3 2,3 0,3.1 -2.8,7.8 -5.5,9.6 0.6,2.7 1.1,5.5 1.6,8 0.6,3.1 1.2,6.7 1.6,7.5 0.2,0.2 0.4,0.5 0.4,0.8 C 39,96.6 38.6,97 38,97 Z"
       id="path1"
       style="stroke-width:0.869564" />
    <path
       fill="#558b2f"
       d="m 26,86 c 2.8,0 5,1.3 5,3 0,1.7 -2.2,3 -5,3 -2.8,0 -5,-1.3 -5,-3 0,-1.7 2.2,-3 5,-3 z m 0,-9 c 2.2,0 4,1.1 4,2.5 0,1.4 -1.8,2.5 -4,2.5 -2.2,0 -4,-1.1 -4,-2.5 0,-1.4 1.8,-2.5 4,-2.5 z m 0,-8 c 1.7,0 3,0.9 3,2 0,1.1 -1.3,2 -3,2 -1.7,0 -3,-0.9 -3,-2 0,-1.1 1.3,-2 3,-2 z"
       id="path2-5"
       style="stroke-width:0.869564" />
    <path
       fill="#6a1b9a"
       d="m 41,70 c 0,3.1 -2.8,7.8 -5.5,9.6 L 34,74 c 0,0 4.8,1.6 7,-4 z m -24,8 c 0,0 -6.1,8.2 -8,5 0,0 0,0.1 0,0.1 0,0.8 0.4,1.2 0.7,1.5 0.3,0.3 0.8,0.4 1.3,0.4 1,0 2.2,-0.3 3.3,-0.6 0.4,-0.1 0.8,-0.3 1.2,-0.4 z"
       id="path3"
       style="stroke-width:0.869564" />
    <path
       fill="#8bc34a"
       d="m 26,93 c -3.4,0 -6,-1.8 -6,-4 0,-2.2 2.6,-4 6,-4 3.4,0 6,1.8 6,4 0,2.2 -2.6,4 -6,4 z m 0,-6 c -2.3,0 -4,1.1 -4,2 0,0.9 1.7,2 4,2 2.3,0 4,-1.1 4,-2 0,-0.9 -1.7,-2 -4,-2 z m 0,-4 c -2.8,0 -5,-1.5 -5,-3.5 0,-2 2.2,-3.5 5,-3.5 2.8,0 5,1.5 5,3.5 0,2 -2.2,3.5 -5,3.5 z m 0,-5 c -1.7,0 -3,0.8 -3,1.5 0,0.7 1.3,1.5 3,1.5 1.7,0 3,-0.8 3,-1.5 C 29,78.8 27.7,78 26,78 Z m 0,-4 c -2.2,0 -4,-1.3 -4,-3 0,-1.7 1.8,-3 4,-3 2.2,0 4,1.3 4,3 0,1.7 -1.8,3 -4,3 z m 0,-4 c -1.2,0 -2,0.6 -2,1 0,0.4 0.8,1 2,1 1.2,0 2,-0.6 2,-1 0,-0.4 -0.8,-1 -2,-1 z m 15,27 c 0,-1.1 -0.9,-2 -2,-2 H 13 c -1.1,0 -2,0.9 -2,2 0,1.1 0.9,2 2,2 h 26 c 1.1,0 2,-0.9 2,-2 z"
       id="path4-3"
       style="stroke-width:0.869564" />
    <path
       d="M 21,70 C 20.8,70 20.7,70 20.5,69.9 20,69.6 19.9,69 20.1,68.5 20.6,67.6 21.7,66 23,66 c 1.4,0 2.1,0.5 2.6,0.8 0.2,0.1 0.3,0.2 0.4,0.2 0.1,0 0.2,-0.1 0.4,-0.2 0.5,-0.3 1.2,-0.8 2.6,-0.8 1.3,0 2.3,1.6 2.9,2.5 0.3,0.5 0.1,1.1 -0.4,1.4 C 31,70.2 30.4,70 30.1,69.5 29.7,68.9 29.2,68.2 28.9,68 28.2,68 27.8,68.2 27.4,68.5 27.1,68.7 26.6,69 26,69 25.4,69 24.9,68.7 24.5,68.5 24.1,68.3 23.8,68 23,68 22.7,68.1 22.2,68.8 21.8,69.5 21.7,69.8 21.3,70 21,70 Z m 2.1,-2 z m 5.8,0 z"
       id="path5"
       style="stroke-width:0.869564" />
  </g>
</svg>
