<?xml version="1.0" encoding="UTF-8" standalone="no"?>
<svg
   width="62"
   height="62"
   version="1"
   id="svg10"
   sodipodi:docname="ding.svg"
   inkscape:version="1.4.2 (unknown)"
   xmlns:inkscape="http://www.inkscape.org/namespaces/inkscape"
   xmlns:sodipodi="http://sodipodi.sourceforge.net/DTD/sodipodi-0.dtd"
   xmlns="http://www.w3.org/2000/svg"
   xmlns:svg="http://www.w3.org/2000/svg">
  <defs
     id="defs10" />
  <sodipodi:namedview
     id="namedview10"
     pagecolor="#ffffff"
     bordercolor="#000000"
     borderopacity="0.25"
     inkscape:showpageshadow="2"
     inkscape:pageopacity="0.0"
     inkscape:pagecheckerboard="0"
     inkscape:deskcolor="#d1d1d1"
     inkscape:zoom="11.890625"
     inkscape:cx="32"
     inkscape:cy="32"
     inkscape:current-layer="svg10" />
  <g
     id="g10"
     transform="translate(0,-1.1636007)">
    <path
       style="opacity:0.2"
       d="M 7.1992188,11.663601 C 4.8724188,11.663601 3,13.530468 3,15.847195 v 37.632812 c 0,2.316728 1.8724188,4.183594 4.1992188,4.183594 H 26.800782 c 2.3268,0 4.199218,-1.866866 4.199218,-4.183594 0,2.316728 1.872418,4.183594 4.199218,4.183594 H 54.800782 C 57.127582,57.663601 59,55.796735 59,53.480007 V 15.847195 c 0,-2.316727 -1.872418,-4.183594 -4.199218,-4.183594 H 35.199218 C 32.872418,11.663601 31,13.530468 31,15.847195 31,13.530468 29.127582,11.663601 26.800782,11.663601 Z"
       id="path1" />
    <rect
       style="fill:#8d5fd3"
       width="28"
       height="46"
       x="3"
       y="10.663601"
       rx="4.1999998"
       ry="4.1820002"
       id="rect1" />
    <rect
       style="fill:#8d5fd3"
       width="28"
       height="46"
       x="31"
       y="10.663601"
       rx="4.1999998"
       ry="4.1820002"
       id="rect2" />
    <path
       style="opacity:0.2;fill:#8d5fd3"
       d="M 9.824219,7.6636005 C 8.2599834,7.6636005 7,8.9081785 7,10.452663 v 40.421876 c 0,1.544484 1.2599834,2.789062 2.824219,2.789062 H 28.175782 C 29.740016,53.663601 31,52.419023 31,50.874539 c 0,1.544484 1.259984,2.789062 2.824218,2.789062 H 52.175782 C 53.740016,53.663601 55,52.419023 55,50.874539 V 10.452663 C 55,8.9081785 53.740016,7.6636005 52.175782,7.6636005 H 33.824218 C 32.259984,7.6636005 31,8.9081785 31,10.452663 31,8.9081785 29.740016,7.6636005 28.175782,7.6636005 Z"
       id="path2" />
    <rect
       style="fill:#cccccc"
       width="24"
       height="46"
       x="31"
       y="6.6636004"
       rx="2.8239999"
       ry="2.7880001"
       id="rect3" />
    <rect
       style="fill:#e4e4e4"
       width="24"
       height="46"
       x="7"
       y="6.6636004"
       rx="2.8239999"
       ry="2.7880001"
       id="rect4" />
    <path
       style="fill:#535d6c"
       d="m 15.818181,38.663601 v -1.239004 q 0,-1.743788 0.318182,-2.982794 0.363637,-1.284896 1.181819,-2.43212 0.863636,-1.14723 2.318182,-2.386234 1.772726,-1.514342 2.727272,-2.523904 1,-1.009558 1.409092,-1.973228 0.40909,-0.963674 0.40909,-2.340348 0,-2.202675 -1.409092,-3.395791 -1.409088,-1.193118 -4.090908,-1.193118 -2.227273,0 -3.954545,0.59656 Q 13,19.344289 11.409091,20.124403 L 10,16.912165 q 1.818182,-0.96367 4,-1.606118 2.227272,-0.642446 4.954544,-0.642446 4.318184,0 6.681818,2.156787 Q 28,18.977176 28,22.694193 q 0,2.065012 -0.681818,3.533462 -0.636362,1.42256 -1.863636,2.661568 -1.181818,1.193116 -2.818182,2.56979 -1.500002,1.284894 -2.318184,2.248564 -0.772726,0.963674 -1.045452,1.927342 -0.27273,0.917784 -0.27273,2.248568 v 0.780114 z"
       id="path4" />
    <path
       style="fill:#535d6c"
       d="m 14,43.641379 q 0,-1.644442 0.829269,-2.31111 0.878047,-0.666668 2.19512,-0.666668 1.219513,0 2.097559,0.666668 Q 20,41.996937 20,43.641379 q 0,1.599998 -0.878052,2.311112 -0.878046,0.71111 -2.097559,0.71111 -1.317073,0 -2.19512,-0.71111 Q 14,45.241377 14,43.641379 Z"
       id="path5" />
    <rect
       style="fill:#535d6c"
       width="18"
       height="3"
       x="34"
       y="16.663601"
       id="rect5" />
    <rect
       style="fill:#535d6c"
       width="14"
       height="3"
       x="38"
       y="25.663601"
       id="rect6" />
    <rect
       style="fill:#535d6c"
       width="9"
       height="3"
       x="34"
       y="34.663601"
       id="rect7" />
    <rect
       style="fill:#535d6c"
       width="6"
       height="3"
       x="46"
       y="34.663601"
       id="rect8" />
    <path
       style="opacity:0.1"
       d="M 47.857142,43.663601 C 46.274286,43.663601 45,44.937887 45,46.520745 v 7.142856 l 10,-10 z"
       id="path8" />
    <path
       style="fill:#e4e4e4"
       d="M 47.857142,42.663601 C 46.274286,42.663601 45,43.937887 45,45.520745 v 7.142856 l 10,-10 z"
       id="path9" />
    <path
       style="opacity:0.2;fill:#ffffff"
       d="M 9.824219,6.6636005 C 8.2599832,6.6636005 7,7.9081782 7,9.452663 v 1 C 7,8.9081786 8.2599832,7.6636005 9.824219,7.6636005 H 28.175781 C 29.740015,7.6636005 31,8.9081786 31,10.452663 31,8.9081786 32.259985,7.6636005 33.824219,7.6636005 H 52.175781 C 53.740015,7.6636005 55,8.9081786 55,10.452663 v -1 C 55,7.9081782 53.740015,6.6636005 52.175781,6.6636005 H 33.824219 C 32.259985,6.6636005 31,7.9081782 31,9.452663 31,7.9081782 29.740015,6.6636005 28.175781,6.6636005 Z"
       id="path10" />
  </g>
</svg>
