<?xml version="1.0" encoding="UTF-8" standalone="no"?>
<svg
   width="62"
   height="62"
   version="1.1"
   id="svg4"
   sodipodi:docname="dino.svg"
   inkscape:version="1.4.2 (unknown)"
   xmlns:inkscape="http://www.inkscape.org/namespaces/inkscape"
   xmlns:sodipodi="http://sodipodi.sourceforge.net/DTD/sodipodi-0.dtd"
   xmlns:xlink="http://www.w3.org/1999/xlink"
   xmlns="http://www.w3.org/2000/svg"
   xmlns:svg="http://www.w3.org/2000/svg">
  <defs
     id="defs4">
    <linearGradient
       id="linearGradient3"
       inkscape:collect="always">
      <stop
         style="stop-color:#aeffcf;stop-opacity:1;"
         offset="0"
         id="stop3" />
      <stop
         style="stop-color:#edfff4;stop-opacity:1;"
         offset="1"
         id="stop4" />
    </linearGradient>
    <radialGradient
       inkscape:collect="always"
       xlink:href="#linearGradient3"
       id="radialGradient4"
       cx="31"
       cy="30.508772"
       fx="31"
       fy="30.508772"
       r="27.5"
       gradientTransform="matrix(1,0,0,1.000319,0,-0.00973163)"
       gradientUnits="userSpaceOnUse" />
    <linearGradient
       id="linear0"
       gradientUnits="userSpaceOnUse"
       x1="0"
       y1="0"
       x2="0"
       y2="1"
       gradientTransform="matrix(83.36392,0,0,50.901657,-8.3790159,7.8523823)">
      <stop
         offset="0"
         style="stop-color:#2478ff;stop-opacity:1;"
         id="stop1" />
      <stop
         offset="1"
         style="stop-color:#0049bf;stop-opacity:1;"
         id="stop2" />
    </linearGradient>
  </defs>
  <sodipodi:namedview
     id="namedview4"
     pagecolor="#ffffff"
     bordercolor="#000000"
     borderopacity="0.25"
     inkscape:showpageshadow="2"
     inkscape:pageopacity="0.0"
     inkscape:pagecheckerboard="0"
     inkscape:deskcolor="#d1d1d1"
     inkscape:zoom="5.9453125"
     inkscape:cx="21.445466"
     inkscape:cy="46.507227"
     inkscape:current-layer="svg4" />
  <rect
     style="opacity:0.2;stroke-width:0.999971"
     width="55"
     height="55.017544"
     x="3.5"
     y="3.9824567"
     rx="12.6"
     ry="12.6"
     id="rect1" />
  <rect
     style="fill:url(#radialGradient4);stroke-width:0.999971"
     width="55"
     height="55.017544"
     x="3.5"
     y="2.9999995"
     rx="12.6"
     ry="12.6"
     id="rect2" />
  <path
     style="opacity:0.1;fill:#ffffff;stroke-width:0.999971"
     d="m 15.874615,2.9999995 c -6.8557487,0 -12.3746149,5.5206268 -12.3746149,12.3785615 v 0.982457 c 0,-6.8579385 5.5188662,-12.3785625 12.3746149,-12.3785625 h 30.25077 C 52.981135,3.9824555 58.5,9.5030795 58.5,16.361018 V 15.378561 C 58.5,8.5206263 52.981135,2.9999995 46.125385,2.9999995 Z"
     id="path4" />
  <g
     id="surface1"
     transform="matrix(0.76771825,0,0,0.76771825,6.4327239,6.4325215)"
     style="stroke-width:1.3026">
    <path
       style="fill:#00b5b5;fill-rule:evenodd;stroke:none;stroke-width:1.3026;fill-opacity:1"
       d="M 55.988281,40.0625 55.8125,41.074219 v 1.707031 l 0.519531,4.308594 0.886719,1.183594 0.375,0.964843 -0.523438,-0.07422 v 0.222657 L 56.183594,49.23828 v 0.371094 L 55.515625,49.460938 55.144531,49.3125 v 0.59375 l -0.597656,-0.222656 c 0,0 -1.539063,-0.332032 -1.777344,-0.964844 -0.175781,-0.464844 0.515625,-0.910156 0.519531,-1.410156 0,-0.367188 -0.308593,-0.675782 -0.375,-1.039063 -0.101562,-0.609375 0.07813,-1.242187 0,-1.855469 -0.04687,-0.40625 -0.292968,-1.1875 -0.292968,-1.1875 l -0.816406,-0.519531 c 0,0 -1.046876,-0.09375 -1.5625,0 -0.464844,0.08984 -0.863282,0.433594 -1.335938,0.519531 -0.265625,0.05078 -0.542969,0 -0.8125,0 -0.296875,0 -0.597656,-0.04297 -0.890625,0 -0.335937,0.05078 -0.632813,0.269532 -0.96875,0.296876 -0.347656,0.02734 -1.035156,-0.148438 -1.035156,-0.148438 0,0 -0.648438,0.515625 -0.742188,0.890625 -0.125,0.492187 0.210938,0.988281 0.296875,1.488281 0.148438,0.90625 0.371094,2.742188 0.371094,2.742188 l 1.777344,1.335937 V 50.5 l -0.441406,-0.148438 h -0.371094 v 0.519532 l -0.667969,-0.296875 -0.148437,0.222656 v 0.445313 l -0.667969,-0.296876 h -0.226563 l -0.07031,0.59375 -0.816406,-0.371093 c 0,0 -0.886719,-0.117188 -1.113282,-0.445313 -0.183594,-0.265625 0,-0.964844 0,-0.964844 0,0 -1.277344,0.304688 -1.929687,0.296876 -0.679688,-0.01172 -2.003907,-0.371094 -2.003907,-0.371094 0,0 -0.144531,-0.941406 -0.226562,-1.410156 C 38.152344,47.851562 38.140625,47.414062 38,47.011719 37.828125,46.53125 37.367188,46.171875 37.257812,45.675781 c -0.08984,-0.386719 0.07422,-1.1875 0.07422,-1.1875 l -0.449219,-1.039062 -1.554687,-0.148438 -3.417969,-0.667969 -0.367187,0.519532 -0.07422,1.113281 c 0,0 -0.214844,1.601563 -0.445312,2.375 -0.132813,0.433594 -0.460938,0.8125 -0.519532,1.261719 -0.02734,0.199218 0.07031,0.59375 0.07031,0.59375 l 0.746093,0.519531 0.890626,0.59375 v 0.59375 h -0.07422 l -0.296875,-0.222656 -0.148438,0.667969 -0.59375,-0.371094 -0.222656,-0.07422 0.07422,0.59375 h -0.59375 l -0.371094,-0.222656 -0.296875,0.148437 0.148438,0.445313 -0.597657,-0.222657 -0.441406,-0.07422 -1.039063,-0.296875 -0.964843,-0.667969 v -0.519531 l 0.59375,-1.78125 C 27.460938,47.382812 27.625,47.171875 27.609375,46.9375 27.585938,46.609375 27.222656,46.371094 27.164062,46.046875 27.078125,45.585938 27.3125,44.636719 27.3125,44.636719 l 0.07422,-1.1875 -2.078125,0.296875 -1.707032,1.261718 -1.78125,1.414063 c 0,0 -2.34375,1.578125 -3.5625,2.296875 -0.679687,0.398438 -1.347656,0.824219 -2.078124,1.113281 -1.335938,0.527344 -2.734376,0.929688 -4.15625,1.113281 -0.734376,0.09766 -1.488282,0.07031 -2.226563,0 C 8.492188,50.820312 7.222656,50.457031 5.9375,50.203125 4.453125,49.910156 2.855469,49.953125 1.484375,49.3125 0.910156,49.042969 0,48.125 0,48.125 l 0.148438,-0.296875 c 0,0 0.792968,-0.02344 1.1875,0 0.398437,0.02344 0.792968,0.101563 1.1875,0.148437 0.445312,0.05078 0.886718,0.117188 1.335937,0.148438 1.234375,0.09375 2.484375,0.324219 3.710937,0.148438 0.773438,-0.109376 1.527344,-0.394532 2.226563,-0.742188 0.859375,-0.425781 1.648437,-1.007812 2.375,-1.632812 0.824219,-0.707032 1.566406,-1.511719 2.226563,-2.375 0.632812,-0.832032 1.144531,-1.746094 1.632812,-2.671876 0.734375,-1.390624 1.929688,-4.304687 1.929688,-4.304687 0,0 0.65625,-1.308594 1.039062,-1.929687 0.769531,-1.238282 1.597656,-2.4375 2.523438,-3.5625 0.957031,-1.164063 1.984374,-2.273438 3.117187,-3.265626 1.011719,-0.886718 2.15625,-1.613281 3.261719,-2.375 0.828125,-0.566406 1.585937,-1.289062 2.527344,-1.628906 1.21875,-0.445312 2.539062,-0.609375 3.847656,-0.617187 0.300781,0 0.601562,0.0078 0.902344,0.01953 1.621093,0.07422 3.222656,0.488281 4.75,1.039062 1.207031,0.4375 2.300781,1.136719 3.414062,1.78125 1.425781,0.828126 2.800781,1.738282 4.15625,2.671876 0.960938,0.664062 1.890625,1.367187 2.820312,2.082031 0.5,0.382812 0.882813,0.972656 1.484376,1.183593 0.316406,0.109376 0.917968,0.05469 1.191406,0.01953 l -0.0039,-0.01953 c 0,0 2.242187,-0.128906 3.191406,-0.667968 1.082031,-0.613282 1.875,-1.679688 2.519531,-2.746094 0.453125,-0.742188 0.675781,-1.605469 0.894531,-2.445312 0.117188,-0.464844 0.167969,-0.941407 0.222656,-1.414063 0.07031,-0.617187 0.195313,-1.234375 0.148438,-1.855469 -0.08594,-1.0625 -0.433594,-2.097656 -0.746094,-3.117187 -0.183594,-0.605469 -0.324218,-1.246094 -0.667968,-1.777344 -0.08984,-0.148437 -0.246094,-0.25 -0.367188,-0.375 -0.378906,-0.390625 -1.117188,-1.1875 -1.117188,-1.1875 L 56.40235,15.839843 c 0,0 -0.699219,0.234375 -1.039063,0.148437 -0.355469,-0.09375 -0.886719,-0.667969 -0.886719,-0.667969 0,0 -1.152343,0.109376 -1.5625,-0.21875 -0.222656,-0.1875 -0.292968,-0.816406 -0.292968,-0.816406 l 1.109375,0.07031 -0.816407,-0.371094 c 0,0 0.285157,-0.550781 0.523438,-0.742187 0.148438,-0.117188 0.351562,-0.136719 0.519531,-0.222657 0.328125,-0.160156 0.609375,-0.425781 0.964844,-0.519531 0.308594,-0.07422 0.640625,-0.01953 0.960937,0 0.378907,0.02344 0.757813,0.04687 1.117188,0.148438 0.46875,0.132812 0.90625,0.359374 1.335938,0.59375 0.542968,0.300781 1.554687,1.042968 1.554687,1.042968 l 1.1875,1.40625 c 0,0 0.878906,1.617188 1.265625,2.449219 0.402344,0.875 0.867188,1.738281 1.113281,2.671875 0.316407,1.207031 0.355469,2.46875 0.441407,3.710938 0.07031,0.941406 0.140624,1.882812 0.07812,2.820312 -0.06641,0.925781 -0.214843,1.847656 -0.449218,2.75 -0.234375,0.9375 -0.582032,1.851562 -0.964844,2.742188 -0.363281,0.867187 -0.753906,1.730468 -1.257812,2.523437 -0.492188,0.773437 -1.066407,1.503906 -1.707032,2.152344 -0.695312,0.699219 -1.476562,1.316406 -2.300781,1.855469 -0.433594,0.28125 -1.308594,0.695312 -1.308594,0.695312 z m -14.648437,5.539062 0.59375,3.042969 -1.113282,-2.152343 z m 0,0"
       id="path2-3" />
  </g>
</svg>
