<?xml version="1.0" encoding="UTF-8" standalone="no"?>
<svg
   width="62"
   height="62"
   version="1.1"
   id="svg6"
   sodipodi:docname="distributor-logo-mageia.svg"
   inkscape:version="1.4.1 (unknown)"
   xmlns:inkscape="http://www.inkscape.org/namespaces/inkscape"
   xmlns:sodipodi="http://sodipodi.sourceforge.net/DTD/sodipodi-0.dtd"
   xmlns:xlink="http://www.w3.org/1999/xlink"
   xmlns="http://www.w3.org/2000/svg"
   xmlns:svg="http://www.w3.org/2000/svg">
  <defs
     id="defs6">
    <linearGradient
       id="linearGradient6"
       inkscape:collect="always">
      <stop
         style="stop-color:#2d3d53;stop-opacity:1;"
         offset="0"
         id="stop6" />
      <stop
         style="stop-color:#374762;stop-opacity:1;"
         offset="1"
         id="stop7" />
    </linearGradient>
    <linearGradient
       inkscape:collect="always"
       xlink:href="#linearGradient6"
       id="linearGradient7"
       x1="31.5"
       y1="59.017548"
       x2="31.5"
       y2="4.9824524"
       gradientUnits="userSpaceOnUse"
       gradientTransform="translate(-0.5,-1)" />
  </defs>
  <sodipodi:namedview
     id="namedview6"
     pagecolor="#ffffff"
     bordercolor="#000000"
     borderopacity="0.25"
     inkscape:showpageshadow="2"
     inkscape:pageopacity="0.0"
     inkscape:pagecheckerboard="0"
     inkscape:deskcolor="#d1d1d1"
     inkscape:zoom="10"
     inkscape:cx="22.6"
     inkscape:cy="26.1"
     inkscape:window-width="1920"
     inkscape:window-height="998"
     inkscape:window-x="0"
     inkscape:window-y="0"
     inkscape:window-maximized="1"
     inkscape:current-layer="svg6" />
  <ellipse
     style="opacity:0.2;stroke-width:0.982302"
     cx="31"
     cy="31.491226"
     id="circle1"
     rx="27.5"
     ry="27.508774" />
  <ellipse
     style="fill:url(#linearGradient7);stroke-width:0.982302"
     cx="31"
     cy="30.508774"
     id="circle2"
     rx="27.5"
     ry="27.508774" />
  <path
     style="opacity:0.1;fill:#ffffff;stroke-width:0.982302"
     d="M 30.998078,3 A 27.499991,27.508765 0 0 0 3.5,30.508765 27.499991,27.508765 0 0 0 3.5172646,30.992322 27.499991,27.508765 0 0 1 30.998078,3.9824558 h 0.0019 A 27.499991,27.508765 0 0 1 58.473131,30.999995 27.499991,27.508765 0 0 0 58.498078,30.508765 27.499991,27.508765 0 0 0 30.999991,3 Z"
     id="path4" />
  <g
     id="g1"
     transform="matrix(1.1551181,0,0,1.1515356,-24.644488,-90.977894)">
    <g
       transform="matrix(0.14959,0,0,0.14959,19.270181,13.056307)"
       id="g3">
      <path
         opacity="0.2"
         transform="matrix(6.6847,0,0,6.6847,-56.804,460.89)"
         d="M 36.557,8 A 1.2081,1.2081 0 0 0 35.35,9.209 1.2081,1.2081 0 0 0 36.557,10.416 1.2081,1.2081 0 0 0 37.766,9.209 1.2081,1.2081 0 0 0 36.557,8 Z m 2.9609,2.2949 a 1.3894,1.3894 0 0 0 -1.3906,1.3906 1.3894,1.3894 0 0 0 1.3906,1.3887 1.3894,1.3894 0 0 0 1.3887,-1.3887 1.3894,1.3894 0 0 0 -1.3887,-1.3906 z m -2.416,2.416 a 1.5102,1.5102 0 0 0 -1.5117,1.5117 1.5102,1.5102 0 0 0 1.5117,1.5098 1.5102,1.5102 0 0 0 1.5098,-1.5098 1.5102,1.5102 0 0 0 -1.5098,-1.5117 z m 2.9004,2.957 c -0.93273,7.67e-4 -1.6909,0.76155 -1.6895,1.6953 6.15e-4,0.9313 0.75929,1.6875 1.6914,1.6875 h 0.002 c 0.93258,-9.23e-4 1.6895,-0.75959 1.6895,-1.6934 -9.2e-4,-0.93131 -0.76001,-1.6895 -1.6934,-1.6895 z m -4.8965,1.0879 c -0.99914,0.0011 -1.812,0.81359 -1.8105,1.8145 0.0011,0.99754 0.81427,1.8105 1.8125,1.8105 h 0.002 c 0.99914,-0.0011 1.8105,-0.81359 1.8105,-1.8145 -0.0012,-0.99754 -0.81472,-1.8105 -1.8145,-1.8105 z m -3.9277,4.7871 c -0.40608,0.0074 -0.80946,0.14574 -1.1191,0.4707 -1.5633,2.0263 -2.8301,4.3054 -2.8301,7.0664 0,5.9847 4.5409,10.92 10.172,10.92 5.6308,0 10.172,-4.9352 10.172,-10.92 0,-2.7616 -1.2702,-4.9682 -2.9219,-7.0664 -0.61936,-0.64993 -1.5131,-0.55456 -2.1641,-0.13867 -1.9048,0.98561 -2.9326,1.3807 -5.0859,1.3711 -2.0827,-0.0093 -3.1771,-0.35029 -5.082,-1.3887 -0.32547,-0.1989 -0.73455,-0.32181 -1.1406,-0.31445 z m 0.23828,2.1504 c 1.9744,1.0917 3.7358,1.6465 5.9844,1.6465 2.2504,0 4.009,-0.55482 5.9844,-1.6465 1.0779,1.5199 2.0938,3.4058 2.0938,5.3867 0,4.9069 -3.6165,8.8262 -8.0781,8.8262 -4.4618,0 -8.0781,-3.9192 -8.0781,-8.8262 0,-1.9783 1.0135,-3.8657 2.0938,-5.3867 z"
         id="path3" />
    </g>
    <g
       fill="#2397d4"
       transform="matrix(0.14959,0,0,0.14959,19.270081,12.056307)"
       id="g7">
      <path
         d="m 177.89,597.13 h -0.01 c -6.6729,0 -12.107,-5.4267 -12.114,-12.095 -0.01,-6.6905 5.4251,-12.125 12.104,-12.132 6.683,0 12.116,5.4267 12.124,12.095 0,6.6905 -5.4251,12.126 -12.104,12.133 z"
         id="path4-7" />
      <path
         d="m 210.61,588.24 c -6.2309,0 -11.302,-5.0662 -11.307,-11.292 -0.01,-6.242 5.0612,-11.316 11.296,-11.321 6.2392,0 11.311,5.0651 11.317,11.291 0,6.242 -5.0622,11.316 -11.296,11.323 h -0.01 z"
         id="path5" />
      <circle
         cx="-17"
         cy="-15.701"
         r="7"
         transform="matrix(1.4422,0,0,1.4422,215.72,578.6)"
         id="circle5" />
      <circle
         cx="82.5"
         cy="-16.521999"
         r="11.5"
         transform="matrix(0.80761,0,0,0.80761,140.73,552.34)"
         id="circle6" />
      <circle
         cy="-37.521999"
         r="10.5"
         transform="matrix(0.76915,0,0,0.76915,187.19,551.3)"
         id="circle7"
         cx="0" />
    </g>
    <path
       fill="#ffffff"
       d="M 40.831739,103.013 C 39.268523,105.03994 38,107.3182 38,110.07963 c 0,5.98449 4.541253,10.92007 10.17212,10.92007 5.630568,0 10.17212,-4.93543 10.17212,-10.92007 0,-2.76158 -1.269855,-4.96819 -2.921493,-7.06634 -0.619332,-0.6499 -1.513551,-0.55327 -2.164417,-0.1374 -1.90473,0.98559 -2.932862,1.37935 -5.08621,1.36972 -2.082592,-0.009 -3.176843,-0.34944 -5.081572,-1.38781 -0.650926,-0.39779 -1.640105,-0.49442 -2.259408,0.15549 z m 1.356781,1.68139 c 1.974289,1.09163 3.735113,1.64549 5.9836,1.64549 2.250432,0 4.008264,-0.55386 5.9836,-1.64549 1.077871,1.51983 2.09426,3.40437 2.09426,5.38524 0,4.9067 -3.616338,8.82581 -8.07786,8.82581 -4.461671,0 -8.07786,-3.91911 -8.07786,-8.82581 0,-1.97833 1.014041,-3.86421 2.09426,-5.38524 z"
       id="path7"
       style="stroke-width:0.14959" />
  </g>
</svg>
