<?xml version="1.0" encoding="UTF-8" standalone="no"?>
<svg
   width="62"
   height="62"
   version="1.1"
   id="svg5"
   sodipodi:docname="distributor-logo-tuxedo-os.svg"
   inkscape:version="1.4.1 (unknown)"
   xmlns:inkscape="http://www.inkscape.org/namespaces/inkscape"
   xmlns:sodipodi="http://sodipodi.sourceforge.net/DTD/sodipodi-0.dtd"
   xmlns="http://www.w3.org/2000/svg"
   xmlns:svg="http://www.w3.org/2000/svg">
  <defs
     id="defs5" />
  <sodipodi:namedview
     id="namedview5"
     pagecolor="#ffffff"
     bordercolor="#000000"
     borderopacity="0.25"
     inkscape:showpageshadow="2"
     inkscape:pageopacity="0.0"
     inkscape:pagecheckerboard="0"
     inkscape:deskcolor="#d1d1d1"
     inkscape:zoom="5.6715856"
     inkscape:cx="36.233253"
     inkscape:cy="48.487322"
     inkscape:window-width="1920"
     inkscape:window-height="998"
     inkscape:window-x="0"
     inkscape:window-y="0"
     inkscape:window-maximized="1"
     inkscape:current-layer="svg5" />
  <g
     id="g5"
     transform="matrix(1.365,0,0,1.3658537,-1.76,-2.4634157)">
    <circle
       style="opacity:0.2"
       cx="24"
       cy="25"
       r="20"
       id="circle1" />
    <circle
       style="fill:#4f4f4f"
       cx="24"
       cy="24"
       r="20"
       id="circle2" />
    <path
       style="opacity:0.1"
       d="M 13,40 22,25.6 17.5,17 h 4 l 2.9,6 4.374,-7 H 6.15974 C 6.61273,14.9511 7.72456,13.2459 8.8,12 H 34.2129 L 26,25 31.5,35 h -4 L 23.6737,28 18.4,36 h 22.335 c -1.0013,1.4755 -1.713,2.283 -3.43,4 z"
       id="path2" />
    <path
       style="fill:#c2352a"
       d="M 13,39 22,24.6 17.5,16 h 4 l 2.9,6 4.374,-7 H 6.15974 C 6.61273,13.9511 7.72456,12.2459 8.8,11 H 34.2129 L 26,24 31.5,34 h -4 L 23.6737,27 18.4,35 h 22.335 c -1.0013,1.4755 -1.713,2.283 -3.43,4 z"
       id="path3" />
    <path
       style="opacity:0.1;fill:#ffffff"
       d="M 24,4 C 18.6957,4 13.6086,6.10714 9.85786,9.85787 6.10714,13.6086 4,18.6957 4,24 4.00963,24.1668 4.02135,24.3335 4.03515,24.5 4.30614,13.6637 13.1603,5.01567 24,5 34.7525,5.00189 43.5792,13.5051 43.9824,24.25 43.9888,24.1667 43.9947,24.0834 44,24 44,18.6957 41.8929,13.6086 38.1421,9.85787 34.3914,6.10714 29.3043,4 24,4 Z"
       id="path4" />
    <path
       style="opacity:0.2;fill:#ffffff"
       d="m 8.8007812,11 c -1.0754399,1.2459 -2.187635,2.9511 -2.640625,4 H 6.6777344 C 7.2306571,14.039864 8.0222021,12.901986 8.8007812,12 H 33.582031 l 0.63086,-1 z M 17.5,16 18.023438,17 H 21.5 l 2.900391,6 4.373047,-7 h -0.625 L 24.400391,22 21.5,16 Z M 26.294922,24.535156 26,25 30.949219,34 H 31.5 Z M 21.714844,25.054688 13,39 h 0.625 L 22,25.599609 Z M 19.058594,35 18.400391,36 h 21.621093 c 0.232999,-0.308451 0.463993,-0.633227 0.712891,-1 H 31.5 h -4 z"
       id="path5" />
  </g>
</svg>
