<?xml version="1.0" encoding="UTF-8" standalone="no"?>
<svg
   width="62"
   height="62"
   version="1.1"
   id="svg6"
   sodipodi:docname="distributor-logo-kubuntu.svg"
   inkscape:version="1.4.1 (unknown)"
   xmlns:inkscape="http://www.inkscape.org/namespaces/inkscape"
   xmlns:sodipodi="http://sodipodi.sourceforge.net/DTD/sodipodi-0.dtd"
   xmlns:xlink="http://www.w3.org/1999/xlink"
   xmlns="http://www.w3.org/2000/svg"
   xmlns:svg="http://www.w3.org/2000/svg">
  <defs
     id="defs6">
    <linearGradient
       id="linearGradient6"
       inkscape:collect="always">
      <stop
         style="stop-color:#004066;stop-opacity:1;"
         offset="0"
         id="stop6" />
      <stop
         style="stop-color:#0079c1;stop-opacity:1;"
         offset="1"
         id="stop7" />
    </linearGradient>
    <linearGradient
       inkscape:collect="always"
       xlink:href="#linearGradient6"
       id="linearGradient7"
       x1="31.5"
       y1="59.017548"
       x2="31.5"
       y2="4.9824524"
       gradientUnits="userSpaceOnUse"
       gradientTransform="translate(-0.5,-1)" />
  </defs>
  <sodipodi:namedview
     id="namedview6"
     pagecolor="#ffffff"
     bordercolor="#000000"
     borderopacity="0.25"
     inkscape:showpageshadow="2"
     inkscape:pageopacity="0.0"
     inkscape:pagecheckerboard="0"
     inkscape:deskcolor="#d1d1d1"
     inkscape:zoom="5"
     inkscape:cx="19.8"
     inkscape:cy="42.2"
     inkscape:window-width="1920"
     inkscape:window-height="998"
     inkscape:window-x="0"
     inkscape:window-y="0"
     inkscape:window-maximized="1"
     inkscape:current-layer="svg6" />
  <ellipse
     style="opacity:0.2;stroke-width:0.982302"
     cx="31"
     cy="31.491226"
     id="circle1"
     rx="27.5"
     ry="27.508774" />
  <ellipse
     style="fill:url(#linearGradient7);stroke-width:0.982302"
     cx="31"
     cy="30.508774"
     id="circle2"
     rx="27.5"
     ry="27.508774" />
  <path
     style="opacity:0.1;fill:#ffffff;stroke-width:0.982302"
     d="M 30.998078,3 A 27.499991,27.508765 0 0 0 3.5,30.508765 27.499991,27.508765 0 0 0 3.5172646,30.992322 27.499991,27.508765 0 0 1 30.998078,3.9824558 h 0.0019 A 27.499991,27.508765 0 0 1 58.473131,30.999995 27.499991,27.508765 0 0 0 58.498078,30.508765 27.499991,27.508765 0 0 0 30.999991,3 Z"
     id="path4" />
  <g
     id="g1"
     transform="matrix(1.0002596,0,0,1,3.1984416,-40.508774)">
    <path
       opacity="0.2"
       d="m 25.379336,51.328432 -3.644027,0.976758 3.107514,7.952349 1.122648,0.64855 c 5.58847,-1.178017 11.714529,2.205428 13.576428,7.639865 0.02919,0.07997 0.04815,0.162154 0.0755,0.242173 l 1.396181,0.804873 8.442065,-1.284169 -0.977562,-3.643507 -7.108405,-1.023682 -2.797565,-3.156988 2.177561,-6.441468 -3.464399,-2.000447 -4.487955,5.107814 -4.131202,-0.843925 -3.287403,-4.977113 z m -11.377519,5.329337 -2.667268,2.667274 2.667268,6.668186 -1.333631,4.000912 L 6,71.327773 v 4.00091 l 6.668186,1.333638 1.333631,4.000912 -2.667268,5.334542 2.667268,2.667273 5.334548,-6.668179 v -1.380591 c -1.536203,-1.698513 -2.600984,-3.814989 -2.904266,-6.126314 -0.623328,-3.516125 0.591764,-7.128016 2.904266,-9.765288 v -1.39872 z m 27.144841,19.077687 -1.547295,0.893391 c -1.564218,4.336993 -5.700229,7.733494 -10.395555,7.983564 -1.064851,0.108028 -2.126361,0.04122 -3.156982,-0.158837 l -1.070549,0.617342 -3.10752,7.952326 L 25.512789,94 l 4.441151,-5.644475 4.131208,-0.843923 4.490619,5.107807 3.464375,-2.000442 -2.180229,-6.441466 2.800109,-3.156987 5.951884,-0.356879 0.97678,-3.644034 -8.442039,-1.284145 z"
       id="path2"
       style="stroke-width:1.33361" />
    <path
       fill="#ffffff"
       d="m 25.379336,50 -3.6435,0.976758 3.107366,7.952078 1.121612,0.649479 c 5.589251,-1.178953 11.71466,2.204491 13.57641,7.639052 0.0294,0.07997 0.04803,0.162712 0.07595,0.242736 l 1.396306,0.804187 8.441915,-1.284294 -0.97754,-3.643506 -7.108296,-1.024233 -2.796633,-3.156709 2.176501,-6.441474 -3.463447,-2.000317 -4.487702,5.107714 -4.131604,-0.844203 z m -11.377242,5.329344 -2.667274,2.667268 2.667274,6.668186 -1.333637,4.00091 L 6,69.999346 v 4.000906 l 6.668457,1.333636 1.333637,4.000912 -2.667274,5.334549 2.667274,2.667268 5.334549,-6.66818 v -1.380312 c -1.536358,-1.699063 -2.600605,-3.81554 -2.904674,-6.126716 -0.622796,-3.515475 0.592144,-7.128294 2.904674,-9.764887 V 61.997523 Z M 41.145582,74.407 39.598559,75.300546 c -1.564348,4.336987 -5.699952,7.732427 -10.39568,7.983154 -1.064247,0.108007 -2.125834,0.04122 -3.156733,-0.158705 l -1.070891,0.617466 -3.107389,7.952479 3.644837,0.976226 4.441003,-5.643947 4.130274,-0.844197 4.491701,5.107831 3.46344,-2.000465 -2.180501,-6.44145 2.800659,-3.156733 5.952008,-0.357405 0.976233,-3.6435 z"
       id="path3-3"
       style="stroke-width:1.33361" />
  </g>
</svg>
