<?xml version="1.0" encoding="UTF-8" standalone="no"?>
<svg
   width="62"
   height="62"
   version="1.1"
   id="svg5"
   sodipodi:docname="distributor-logo-fedora.svg"
   inkscape:version="1.4.2 (unknown)"
   xmlns:inkscape="http://www.inkscape.org/namespaces/inkscape"
   xmlns:sodipodi="http://sodipodi.sourceforge.net/DTD/sodipodi-0.dtd"
   xmlns="http://www.w3.org/2000/svg"
   xmlns:svg="http://www.w3.org/2000/svg">
  <defs
     id="defs5" />
  <sodipodi:namedview
     id="namedview5"
     pagecolor="#ffffff"
     bordercolor="#000000"
     borderopacity="0.25"
     inkscape:showpageshadow="2"
     inkscape:pageopacity="0.0"
     inkscape:pagecheckerboard="0"
     inkscape:deskcolor="#d1d1d1"
     inkscape:zoom="11.890625"
     inkscape:cx="31.95795"
     inkscape:cy="40.998686"
     inkscape:current-layer="svg5" />
  <g
     id="g5"
     transform="translate(-0.5,-1)">
    <path
       style="opacity:0.2;stroke-width:0.999971"
       d="M 31.514517,4.9824561 C 16.32779,4.9824561 4.0317249,17.287393 4.00486,32.478906 H 4.00001 V 53.764005 H 4.00486 C 4.0121486,57.209275 6.8068693,60 10.253634,60 H 31.517205 C 46.706624,59.990276 58.999999,47.686852 58.999999,32.503554 59.000021,17.312038 46.690506,5.0071045 31.490339,5.0071045 Z"
       id="path1" />
    <path
       style="fill:#42a5e9;stroke-width:0.999971"
       d="M 31.514517,4.0000001 C 16.32779,4.0000001 4.0317249,16.304935 4.00486,31.496446 H 4.00001 v 21.2851 h 0.00485 c 0.00732,3.445275 2.8020093,6.235996 6.248774,6.235996 H 31.517205 C 46.706624,59.007842 58.999999,46.704392 58.999999,31.521094 59.000021,16.329584 46.690506,4.0246485 31.490339,4.0246485 Z"
       id="path2" />
    <path
       style="opacity:0.2;stroke-width:0.999971"
       d="m 37.383267,15.78947 a 8.839286,8.8421052 0 0 0 -8.829698,8.84211 v 8.406521 8.786459 a 5.4017861,5.403509 0 0 1 -5.401784,5.40351 5.4017861,5.403509 0 0 1 -5.40178,-5.40351 5.4017861,5.403509 0 0 1 5.40178,-5.40351 h 3.4375 v -4.91228 h -3.4375 A 10.312501,10.31579 0 0 0 12.83929,41.82456 10.312501,10.31579 0 0 0 23.151785,52.14035 10.312501,10.31579 0 0 0 33.464285,41.82456 v -5.40351 h 3.437501 a 2.4553569,2.45614 0 0 0 2.455357,-2.45614 2.4553569,2.45614 0 0 0 -2.455357,-2.45614 h -3.437501 v -6.87719 a 3.9285718,3.9298248 0 0 1 3.869107,-3.929828 3.9285718,3.9298248 0 0 1 0.05943,0 3.9285718,3.9298248 0 0 1 3.928568,3.929828 v 0.49123 a 2.4553569,2.45614 0 0 0 2.455358,2.45614 2.4553569,2.45614 0 0 0 2.455358,-2.45614 v -0.49123 a 8.839286,8.8421052 0 0 0 -8.839284,-8.84211 8.839286,8.8421052 0 0 0 -0.0098,0 z"
       id="path3" />
    <path
       style="fill:#ffffff;stroke-width:0.999971"
       d="m 37.383267,14.80702 a 8.839286,8.8421052 0 0 0 -8.829698,8.8421 v 8.40653 8.786456 a 5.4017861,5.403509 0 0 1 -5.401784,5.403506 5.4017861,5.403509 0 0 1 -5.40178,-5.403506 5.4017861,5.403509 0 0 1 5.40178,-5.403506 h 3.4375 v -4.912281 h -3.4375 A 10.312501,10.31579 0 0 0 12.83929,40.842106 10.312501,10.31579 0 0 0 23.151785,51.157894 10.312501,10.31579 0 0 0 33.464285,40.842106 V 35.4386 h 3.437501 a 2.4553569,2.45614 0 0 0 2.455357,-2.456141 2.4553569,2.45614 0 0 0 -2.455357,-2.45614 H 33.464285 V 23.64912 a 3.9285718,3.9298248 0 0 1 3.869107,-3.92982 3.9285718,3.9298248 0 0 1 0.05943,0 3.9285718,3.9298248 0 0 1 3.928568,3.92982 v 0.49123 a 2.4553569,2.45614 0 0 0 2.455358,2.45614 2.4553569,2.45614 0 0 0 2.455358,-2.45614 v -0.49123 a 8.839286,8.8421052 0 0 0 -8.839284,-8.8421 8.839286,8.8421052 0 0 0 -0.0098,0 z"
       id="path4" />
    <path
       style="opacity:0.2;fill:#ffffff;stroke-width:0.999971"
       d="M 31.515349,4 C 16.328622,4 4.0326195,16.305742 4.0057546,31.497261 H 4 v 0.982451 H 4.00576 C 4.0326195,17.2882 16.328622,4.982456 31.515349,4.982456 l -0.02498,0.024946 c 15.035163,0 27.232944,12.040589 27.496168,27.004108 C 58.989434,31.847604 59,31.684884 59,31.520288 59.000021,16.32877 46.690571,4.0249455 31.490405,4.0249455 Z"
       id="path5" />
  </g>
</svg>
