<?xml version="1.0" encoding="UTF-8" standalone="no"?>
<svg
   width="62"
   height="62"
   version="1.1"
   id="svg5"
   sodipodi:docname="distributor-logo-hyperbola.svg"
   inkscape:version="1.4.2 (unknown)"
   xmlns:inkscape="http://www.inkscape.org/namespaces/inkscape"
   xmlns:sodipodi="http://sodipodi.sourceforge.net/DTD/sodipodi-0.dtd"
   xmlns:xlink="http://www.w3.org/1999/xlink"
   xmlns="http://www.w3.org/2000/svg"
   xmlns:svg="http://www.w3.org/2000/svg">
  <defs
     id="defs5">
    <linearGradient
       inkscape:collect="always"
       xlink:href="#linearGradient2"
       id="linearGradient3"
       x1="15.211082"
       y1="147.95329"
       x2="27.90015"
       y2="134.76091"
       gradientUnits="userSpaceOnUse"
       gradientTransform="matrix(3.0769238,0,0,3.0769238,-35.666678,-403.74004)" />
    <linearGradient
       id="linearGradient2"
       inkscape:collect="always">
      <stop
         style="stop-color:#5f8dd3;stop-opacity:1"
         offset="0"
         id="stop2" />
      <stop
         style="stop-color:#2a7fff;stop-opacity:1"
         offset="1"
         id="stop3" />
    </linearGradient>
  </defs>
  <sodipodi:namedview
     id="namedview5"
     pagecolor="#ffffff"
     bordercolor="#000000"
     borderopacity="0.25"
     inkscape:showpageshadow="2"
     inkscape:pageopacity="0.0"
     inkscape:pagecheckerboard="0"
     inkscape:deskcolor="#d1d1d1"
     inkscape:zoom="12.078125"
     inkscape:cx="31.958603"
     inkscape:cy="29.184994"
     inkscape:window-width="1920"
     inkscape:window-height="1000"
     inkscape:window-x="0"
     inkscape:window-y="0"
     inkscape:window-maximized="1"
     inkscape:current-layer="svg5" />
  <rect
     opacity="0.2"
     width="55"
     height="55.114235"
     x="3"
     y="4.2857652"
     ry="7.8734622"
     id="rect1"
     style="stroke-width:0.983165" />
  <rect
     style="fill:#2d3d53;fill-opacity:1;stroke-width:0.983165"
     width="55"
     height="55.114235"
     x="3"
     y="3.4000001"
     ry="7.8734622"
     id="rect2" />
  <path
     fill="#ffffff"
     style="opacity:0.1;stroke-width:0.983165"
     d="M 10.857141,3.4000001 C 6.5042857,3.4000001 3,6.9115642 3,11.27346 v 0.984187 C 3,7.8957469 6.5042857,4.3841828 10.857141,4.3841828 h 39.285716 c 4.352858,0 7.857142,3.5115641 7.857142,7.8734642 V 11.27346 c 0,-4.3618958 -3.504284,-7.8734599 -7.857142,-7.8734599 z"
     id="path3" />
  <path
     style="fill:url(#linearGradient3);stroke-width:0.788472"
     d="m 40.275832,20.272751 0.01486,7.74e-4 -0.0097,0.0016 -0.0076,0.0016 9.44e-4,-0.0034 0.0096,-3.31e-4 z m 0.0078,0.0015 -0.0075,5.3e-5 0.0062,0.0034 -0.0017,-0.006 0.01116,3e-4 z m -6.89e-4,8e-4 0.0059,-0.006 -0.01128,0.006 0.0078,5.93e-4 -0.0033,8.34e-4 -0.0023,0.006 0.0022,-0.0225 0.0035,0.0114 0.0061,-0.0023 z m -7.04e-4,2.27e-4 2.58e-4,-0.0078 1.04e-4,0.01754 0.002,-0.0078 z m 0.0039,-0.0078 0.0072,0.0016 -0.0042,-0.006 -2.41e-4,0.0034 -0.0037,-0.0016 -0.0017,0.006 -0.0059,-7.01e-4 0.0111,-8e-4 -0.0073,-0.0034 0.01471,0.0078 z m -0.0068,0.0078 0.0024,0.0023 -0.0077,-0.0034 z m 0.45126,0.0114 -0.461745,-0.02838 0.459069,0.02838 -9.36e-4,0.0078 0.0038,-8e-4 -0.0014,-0.006 -0.0072,-7.65e-4 -5.42e-4,0.0015 z m -0.0098,-0.0023 -0.0023,-7.73e-4 0.01546,0.0034 -0.0017,8.28e-4 -0.002,0.0114 z M 12.625694,48.84141 c -1.519362,-1.951249 -1.625701,-3.106337 -1.625701,-17.657709 0,-12.993126 0.207752,-15.869587 1.255614,-17.381521 1.946447,-2.808467 4.684161,-3.531824 7.7686,-2.052605 2.117064,1.015321 2.955802,1.072939 4.38251,0.30122 2.631356,-1.423268 10.778967,-1.193746 14.63856,0.412366 4.135597,1.720973 9.778562,7.927281 11.022336,12.122838 0.512805,1.729852 0.932394,7.651621 0.932394,13.159538 0,8.95744 -0.165424,10.181676 -1.56863,11.599656 -2.156793,2.179723 -6.519692,2.103869 -8.596906,-0.14945 -1.372602,-1.488948 -1.599187,-2.783316 -1.599187,-9.135305 v -7.400567 l 2.352967,-0.4756 c 3.013472,-0.609149 3.007576,-1.591436 -0.01346,-2.262109 -1.508627,-0.334865 -2.791082,-1.354926 -3.537534,-2.813779 -2.339366,-4.571969 -8.134066,-5.38669 -12.199855,-1.715233 -4.647522,4.19672 -3.750785,13.647574 1.294946,13.647574 3.115201,0 5.828617,3.304263 5.828617,7.097835 v 3.206644 l -1.568838,-1.585325 c -2.387962,-2.41334 -6.315889,-2.078156 -9.2883,0.79263 -3.263777,3.152257 -7.157593,3.271113 -9.478296,0.289441 z m 28.101087,-28.547206 0.0035,-7.6e-5 -0.0074,-0.0078 0.01828,-3.4e-5 -0.0075,-0.0015 0.0033,0.0034 -0.006,-0.0023 -4.37e-4,-0.0023 0.0036,7.64e-4 0.0077,0.0034 -0.01176,-0.0078 -0.272144,0.0034 z M 28.255119,34.284152 c -1.385787,-1.489169 -1.54061,-3.437271 -0.03577,-5.278371 1.447241,-1.770711 4.040921,-1.453964 5.369124,-0.111659 1.491344,1.5072 1.341414,4.579481 -0.378812,5.65683 -1.83435,1.148897 -3.588329,1.201356 -4.954521,-0.266845 z"
     id="path1"
     sodipodi:nodetypes="ccccccccccccccccccccccccccccccccccccccccccccccccccccccccccssssssssssscsssssscsssscccccccccccccsssss" />
</svg>
