<?xml version="1.0" encoding="UTF-8" standalone="no"?>
<svg
   width="62"
   height="62"
   version="1"
   id="svg6"
   sodipodi:docname="distributor-logo-antergos.svg"
   inkscape:version="1.4.1 (unknown)"
   xmlns:inkscape="http://www.inkscape.org/namespaces/inkscape"
   xmlns:sodipodi="http://sodipodi.sourceforge.net/DTD/sodipodi-0.dtd"
   xmlns="http://www.w3.org/2000/svg"
   xmlns:svg="http://www.w3.org/2000/svg">
  <defs
     id="defs6" />
  <sodipodi:namedview
     id="namedview6"
     pagecolor="#ffffff"
     bordercolor="#000000"
     borderopacity="0.25"
     inkscape:showpageshadow="2"
     inkscape:pageopacity="0.0"
     inkscape:pagecheckerboard="0"
     inkscape:deskcolor="#d1d1d1"
     inkscape:zoom="5.6715856"
     inkscape:cx="49.633386"
     inkscape:cy="46.900464"
     inkscape:window-width="1920"
     inkscape:window-height="998"
     inkscape:window-x="0"
     inkscape:window-y="0"
     inkscape:window-maximized="1"
     inkscape:current-layer="svg6" />
  <g
     id="g7"
     transform="translate(-0.5,-1)">
    <g
       id="g6">
      <path
         fill="#315080"
         d="M 31.5,4 C 42.734436,4 59,28.585366 59,42.243902 59,58.634146 39.75,58.634146 31.5,58.634146 c -8.25,0 -27.5,0 -27.5,-16.390244 C 4,28.585366 20.26625,4 31.5,4 Z"
         id="path1"
         style="stroke-width:1.37043" />
      <path
         opacity="0.2"
         d="m 31.590751,17.658537 a 0.24744499,0.24644098 0 0 0 -0.147704,0.06954 c -4.46861,4.279083 -9.665424,7.208566 -14.749625,8.815629 a 0.24744499,0.24644098 0 0 0 -0.136962,0.109665 c -0.795782,1.356279 -1.295623,3.37598 -1.479777,5.491141 -0.184111,2.115161 -0.04945,4.321152 0.467281,6.039395 a 0.24744499,0.24644098 0 0 0 0.392094,0.120359 C 19.584622,35.36454 27.87711,31.746393 33.329809,17.995388 a 0.24744499,0.24644098 0 0 0 -0.230958,-0.33701 h -1.485138 a 0.24744499,0.24644098 0 0 0 -0.02416,0 z m 4.465999,0.492144 a 0.24744499,0.24644098 0 0 0 -0.228278,0.189908 C 33.15561,29.620082 30.016209,40.440101 22.540336,47.296687 a 0.24744499,0.24644098 0 0 0 -0.0027,0.361077 c 2.934523,2.724468 7.2171,3.156215 12.07965,2.527512 a 0.24744499,0.24644098 0 0 0 0.196046,-0.149779 c 5.389582,-12.647396 4.973231,-23.959805 1.482382,-31.736976 a 0.24744499,0.24644098 0 0 0 -0.239251,-0.146146 z m 4.441936,1.9712 a 0.24744499,0.24644098 0 0 0 -0.19335,0.363754 c 3.99135,7.502498 4.631686,15.506537 4.917274,23.05561 a 0.24744499,0.24644098 0 0 0 0.483394,0.06418 c 1.115182,-3.524995 2.491501,-7.181385 2.2693,-11.073112 -0.222185,-3.891727 -2.066485,-7.992429 -7.293963,-12.351551 a 0.24744499,0.24644098 0 0 0 -0.158441,-0.05884 0.24744499,0.24644098 0 0 0 -0.02416,0 z"
         id="path2"
         style="stroke-width:1.37043" />
      <path
         fill="#ffffff"
         d="m 31.590751,16.292683 a 0.24744499,0.24644098 0 0 0 -0.147704,0.06954 c -4.46861,4.279082 -9.665424,7.208565 -14.749625,8.815629 a 0.24744499,0.24644098 0 0 0 -0.136962,0.109664 c -0.795782,1.356279 -1.295623,3.375981 -1.479777,5.491142 -0.184111,2.115161 -0.04945,4.321151 0.467281,6.039395 a 0.24744499,0.24644098 0 0 0 0.392094,0.120359 C 19.584622,33.998681 27.87711,30.380535 33.329809,16.62953 a 0.24744499,0.24644098 0 0 0 -0.230958,-0.337011 h -1.485138 a 0.24744499,0.24644098 0 0 0 -0.02416,0 z m 4.465999,0.492144 a 0.24744499,0.24644098 0 0 0 -0.228278,0.189909 C 33.15561,28.254228 30.016209,39.074248 22.540336,45.930833 a 0.24744499,0.24644098 0 0 0 -0.0027,0.361077 c 2.934523,2.724469 7.2171,3.156215 12.07965,2.527512 a 0.24744499,0.24644098 0 0 0 0.196046,-0.149779 c 5.389582,-12.647395 4.973231,-23.959805 1.482382,-31.736976 a 0.24744499,0.24644098 0 0 0 -0.239251,-0.146146 z m 4.441936,1.9712 a 0.24744499,0.24644098 0 0 0 -0.19335,0.363754 c 3.99135,7.502498 4.631686,15.506537 4.917274,23.05561 a 0.24744499,0.24644098 0 0 0 0.483394,0.06418 c 1.115182,-3.524995 2.491501,-7.181386 2.2693,-11.073113 -0.222185,-3.891726 -2.066485,-7.992429 -7.293963,-12.351551 a 0.24744499,0.24644098 0 0 0 -0.158441,-0.05884 0.24744499,0.24644098 0 0 0 -0.02416,0 z"
         id="path3"
         style="stroke-width:1.37043" />
      <path
         fill="none"
         d="m 31.615501,15.260098 c -4.497074,4.295063 -9.725924,7.23438 -14.845874,8.848682 -1.527627,2.596898 -1.994714,7.967571 -0.988282,11.305581 3.712774,-2.983571 11.891687,-6.504468 17.319499,-20.154537 h -1.485139 z m 4.455272,0.49086 c -2.67465,11.257639 -5.817623,22.099512 -13.36335,29.002537 2.856154,2.644702 7.04839,3.079726 11.878214,2.456897 5.36704,-12.561619 4.9423,-23.778146 1.485136,-31.459707 z m 4.452664,1.966146 c 4.020227,7.537191 4.660977,15.565269 4.94684,23.102049 2.23575,-7.048624 5.435373,-14.467122 -4.94684,-23.102049 z"
         id="path4"
         style="stroke-width:1.37043" />
      <path
         fill="#ffffff"
         opacity="0.2"
         d="M 31.5,4 C 20.26625,4 4,28.585366 4,42.243902 c 0,0.23083 0.016637,0.448 0.0242,0.672 C 4.5468377,29.137171 20.44995,5.3658537 31.49945,5.3658537 c 11.049501,0 26.95275,23.7713173 27.475251,37.5500483 0.0082,-0.224 0.02475,-0.44117 0.02475,-0.672 C 58.99945,28.585366 42.7332,4 31.49945,4 Z"
         id="path5"
         style="stroke-width:1.37043" />
      <path
         opacity="0.2"
         d="M 4.0241999,42.915902 C 4.0154001,43.148098 4,43.38439 4,43.609756 4,60 23.25,60 31.5,60 c 8.25,0 27.5,10e-7 27.5,-16.390244 0,-0.225543 -0.01541,-0.462259 -0.02416,-0.693594 -0.529374,15.705951 -19.342124,15.718244 -27.47525,15.718244 -8.133125,0 -26.9458753,-0.01229 -27.4752504,-15.718244 z"
         id="path6"
         style="stroke-width:1.37043" />
    </g>
  </g>
</svg>
