<?xml version="1.0" encoding="UTF-8" standalone="no"?>
<svg
   width="62"
   height="62"
   version="1.1"
   id="svg7"
   sodipodi:docname="distributor-logo-chakra.svg"
   inkscape:version="1.4.1 (unknown)"
   xmlns:inkscape="http://www.inkscape.org/namespaces/inkscape"
   xmlns:sodipodi="http://sodipodi.sourceforge.net/DTD/sodipodi-0.dtd"
   xmlns="http://www.w3.org/2000/svg"
   xmlns:svg="http://www.w3.org/2000/svg">
  <defs
     id="defs7" />
  <sodipodi:namedview
     id="namedview7"
     pagecolor="#ffffff"
     bordercolor="#000000"
     borderopacity="0.25"
     inkscape:showpageshadow="2"
     inkscape:pageopacity="0.0"
     inkscape:pagecheckerboard="0"
     inkscape:deskcolor="#d1d1d1"
     inkscape:zoom="8.0208333"
     inkscape:cx="55.355844"
     inkscape:cy="37.651948"
     inkscape:window-width="1920"
     inkscape:window-height="998"
     inkscape:window-x="0"
     inkscape:window-y="0"
     inkscape:window-maximized="1"
     inkscape:current-layer="svg7" />
  <g
     id="g8"
     transform="matrix(1.3621165,0,0,1.3655289,-1.6902417,-2.4488005)">
    <path
       fill="#0079c1"
       d="m 44.003,24 c 0.124,7.866 -4.949,15.451 -12.219,18.428 -7.142,3.093 -16.011,1.5 -21.585,-3.949 C 4.5542,33.234 2.4937,24.592 5.1291,17.354 7.6773,9.8524 15.0441,4.325 22.9701,4.028 c 7.7057,-0.4977 15.403,3.9685 18.844,10.87 1.4403,2.8006 2.1925,5.9493 2.1885,9.102 z"
       id="path1" />
    <path
       opacity="0.2"
       d="M 43.979,24.418 A 20,20 0 0 1 24,44 20,20 0 0 1 4.022,24.582 20,20 0 0 0 4,25 20,20 0 0 0 24,45 20,20 0 0 0 44,25 20,20 0 0 0 43.979,24.418 Z"
       id="path2" />
    <path
       fill="#ffffff"
       opacity="0.2"
       d="M 24,4 A 20,20 0 0 0 4,24 20,20 0 0 0 4.0215,24.582 20,20 0 0 1 23.9995,5 20,20 0 0 1 43.9775,24.418 20,20 0 0 0 43.9995,24 a 20,20 0 0 0 -20,-20 z"
       id="path3" />
    <g
       opacity="0.2"
       transform="matrix(0.33581,0,0,0.33171,2.3721,3.3949)"
       id="g5">
      <g
         transform="translate(19.557,19.715)"
         id="g4">
        <path
           fill-rule="evenodd"
           transform="matrix(2.2334,0,0,2.2609,-8.7524,-8.8454)"
           d="M 24.936,4 C 20.479,4.1445 36.809,26.675 24.232,25.236 34.72,28.142 37.122,14.605 34.98,7.982 32.859,1.4225 31.756,5.5156 25.434,4.0586 25.245,4.0151 25.079,3.9953 24.936,4 Z M 12.439,7.1406 C 5.5453,7.1314 9.0973,9.4462 5.7578,15.01 2.5685,20.323 30.9508,10.807 25.5268,22.695 31.5308,13.619 19.3988,7.15 12.4388,7.141 Z m 4.85,10.171 c -5.516,-0.013 -11.067,6.255 -12.619,11.01 -2.1392,6.554 1.1589,3.892 5.418,8.787 4.067,4.676 3.79,-25.262 13.42,-16.429 -1.906,-2.395 -4.06,-3.362 -6.219,-3.368 z m 23.709,1.0645 c -3.7238,0.35638 -17.308,17.624 -19.582,6.418 0.47772,10.872 14.097,8.9741 19.732,4.8906 5.5829,-4.0451 1.3477,-3.8309 0.7793,-10.295 -0.06784,-0.77168 -0.39772,-1.0646 -0.92969,-1.0137 z m -20.031,3.5996 c -10.192,3.8141 -4.1777,16.181 1.4473,20.279 5.572,4.0599 4.0596,0.09861 10.031,-2.4395 5.7032,-2.4239 -22.854,-11.41 -11.479,-17.84 z"
           id="path4" />
      </g>
    </g>
    <g
       fill="#ffffff"
       transform="matrix(0.33581,0,0,0.33171,2.3721,2.3949)"
       id="g7">
      <g
         transform="translate(19.557,19.715)"
         id="g6">
        <path
           fill-rule="evenodd"
           transform="matrix(2.2334,0,0,2.2609,-8.7524,-8.8454)"
           d="M 24.936,4 C 20.479,4.1445 36.809,26.675 24.232,25.236 34.72,28.142 37.122,14.605 34.98,7.982 32.859,1.4225 31.756,5.5156 25.434,4.0586 25.245,4.0151 25.079,3.9953 24.936,4 Z M 12.439,7.1406 C 5.5453,7.1314 9.0973,9.4462 5.7578,15.01 2.5685,20.323 30.9508,10.807 25.5268,22.695 31.5308,13.619 19.3988,7.15 12.4388,7.141 Z m 4.85,10.171 c -5.516,-0.013 -11.067,6.255 -12.619,11.01 -2.1392,6.554 1.1589,3.892 5.418,8.787 4.067,4.676 3.79,-25.262 13.42,-16.429 -1.906,-2.395 -4.06,-3.362 -6.219,-3.368 z m 23.709,1.0645 c -3.7238,0.35638 -17.308,17.624 -19.582,6.418 0.47772,10.872 14.097,8.9741 19.732,4.8906 5.5829,-4.0451 1.3477,-3.8309 0.7793,-10.295 -0.06784,-0.77168 -0.39772,-1.0646 -0.92969,-1.0137 z m -20.031,3.5996 c -10.192,3.8141 -4.1777,16.181 1.4473,20.279 5.572,4.0599 4.0596,0.09861 10.031,-2.4395 5.7032,-2.4239 -22.854,-11.41 -11.479,-17.84 z"
           id="path5" />
      </g>
    </g>
  </g>
</svg>
