<?xml version="1.0" encoding="UTF-8" standalone="no"?>
<svg
   width="62"
   height="62"
   version="1.1"
   id="svg10"
   sodipodi:docname="distributor-logo-mac.svg"
   inkscape:version="1.4.1 (unknown)"
   xmlns:inkscape="http://www.inkscape.org/namespaces/inkscape"
   xmlns:sodipodi="http://sodipodi.sourceforge.net/DTD/sodipodi-0.dtd"
   xmlns="http://www.w3.org/2000/svg"
   xmlns:svg="http://www.w3.org/2000/svg">
  <defs
     id="defs10" />
  <sodipodi:namedview
     id="namedview10"
     pagecolor="#ffffff"
     bordercolor="#000000"
     borderopacity="0.25"
     inkscape:showpageshadow="2"
     inkscape:pageopacity="0.0"
     inkscape:pagecheckerboard="0"
     inkscape:deskcolor="#d1d1d1"
     inkscape:zoom="8.0208333"
     inkscape:cx="24.187013"
     inkscape:cy="33.412987"
     inkscape:window-width="1920"
     inkscape:window-height="998"
     inkscape:window-x="0"
     inkscape:window-y="0"
     inkscape:window-maximized="1"
     inkscape:current-layer="svg10" />
  <g
     id="g10"
     transform="matrix(1.4,0,0,1.4,-2.6,-3.3)">
    <rect
       style="opacity:0.2"
       width="40"
       height="38"
       x="4"
       y="6"
       rx="2"
       ry="2"
       id="rect1" />
    <path
       style="fill:#1da0f8"
       d="m 6,5 h 19 l 4,4 V 43 H 6 C 4.892,43 4,42.108 4,41 V 7 C 4,5.892 4.892,5 6,5 Z"
       id="path1" />
    <path
       style="opacity:0.2"
       d="M 21.102,24 C 21.068,24.347 21,25 21,25 h 5 c 0,0 0.9,11.673 2.697,18 H 29 C 27,37 26,24 26,24 Z"
       id="path2" />
    <path
       style="fill:#e4e4e4"
       d="m 25,5 c -3,7 -4,19 -4,19 h 5 c 0,0 1,13 3,19 h 13 c 1.108,0 2,-0.892 2,-2 V 7 C 44,5.892 43.108,5 42,5 Z"
       id="path3" />
    <g
       style="opacity:0.2;fill:none;stroke:#000000;stroke-width:2;stroke-linecap:round"
       transform="translate(0,1)"
       id="g6">
      <path
         d="m 33,15 v 3"
         id="path4" />
      <path
         d="m 15,15 v 3"
         id="path5" />
      <path
         d="m 12,29 c 0,0 4,5 12,5 8,0 12,-5 12,-5"
         id="path6" />
    </g>
    <g
       style="fill:none;stroke:#4c4c4c;stroke-width:2;stroke-linecap:round"
       id="g9">
      <path
         d="m 33,15 v 3"
         id="path7" />
      <path
         d="m 15,15 v 3"
         id="path8" />
      <path
         d="m 12,29 c 0,0 4,5 12,5 8,0 12,-5 12,-5"
         id="path9" />
    </g>
    <path
       style="opacity:0.2;fill:#ffffff"
       d="M 6,5 C 4.892,5 4,5.892 4,7 V 8 C 4,6.892 4.892,6 6,6 h 36 c 1.108,0 2,0.892 2,2 V 7 C 44,5.892 43.108,5 42,5 Z"
       id="path10" />
  </g>
</svg>
