<?xml version="1.0" encoding="UTF-8" standalone="no"?>
<svg
   width="62"
   height="62"
   version="1.1"
   id="svg11"
   sodipodi:docname="distributor-logo-centos.svg"
   inkscape:version="1.4.1 (unknown)"
   xmlns:inkscape="http://www.inkscape.org/namespaces/inkscape"
   xmlns:sodipodi="http://sodipodi.sourceforge.net/DTD/sodipodi-0.dtd"
   xmlns="http://www.w3.org/2000/svg"
   xmlns:svg="http://www.w3.org/2000/svg">
  <defs
     id="defs11" />
  <sodipodi:namedview
     id="namedview11"
     pagecolor="#ffffff"
     bordercolor="#000000"
     borderopacity="0.25"
     inkscape:showpageshadow="2"
     inkscape:pageopacity="0.0"
     inkscape:pagecheckerboard="0"
     inkscape:deskcolor="#d1d1d1"
     inkscape:zoom="8.0208333"
     inkscape:cx="30.483117"
     inkscape:cy="30.545455"
     inkscape:window-width="1920"
     inkscape:window-height="998"
     inkscape:window-x="0"
     inkscape:window-y="0"
     inkscape:window-maximized="1"
     inkscape:current-layer="svg11" />
  <g
     id="g12"
     transform="matrix(1.367292,0,0,1.3658916,-1.819167,-2.4635673)">
    <rect
       style="opacity:0.2"
       width="28.284"
       height="28.284"
       x="20.51"
       y="-13.44"
       transform="rotate(45)"
       id="rect1" />
    <path
       style="fill:#f1ac3c"
       d="m 24,4 -6,6 h 4 v 12 h 4 V 10 h 4 z"
       id="path1" />
    <path
       style="fill:#87b224"
       d="m 22,26 v 12 h -4 l 6,6 6,-6 H 26 V 26 Z"
       id="path2" />
    <path
       style="fill:#3275ba"
       d="m 38,18 v 4 H 26 v 4 h 12 v 4 l 6,-6 z"
       id="path3" />
    <path
       style="fill:#a23c8b"
       d="m 10,18 -6,6 6,6 V 26 H 22 V 22 H 10 Z"
       id="path4" />
    <rect
       style="fill:#87b224"
       width="12"
       height="12"
       x="10"
       y="10"
       id="rect4" />
    <rect
       style="fill:#3275ba"
       width="12"
       height="12"
       x="10"
       y="26"
       id="rect5" />
    <rect
       style="fill:#f1ac3c"
       width="12"
       height="12"
       x="26"
       y="26"
       id="rect6" />
    <rect
       style="fill:#a23c8b"
       width="12"
       height="12"
       x="26"
       y="10"
       id="rect7" />
    <path
       style="opacity:0.2;fill:#ffffff"
       d="M 24,4 4,24 4.5,24.5 24,5 43.5,24.5 44,24 Z"
       id="path7" />
    <g
       style="opacity:0.2"
       transform="translate(0,1.000422)"
       id="g9">
      <path
         d="M 9.8574219,9.8574219 V 18.34375 L 12.685547,15.515625 21.171875,24 24,21.171875 15.515625,12.685547 18.34375,9.8574219 Z M 24,21.171875 26.828125,24 35.314453,15.515625 38.142578,18.34375 V 9.8574219 H 29.65625 l 2.828125,2.8281251 z M 26.828125,24 24,26.828125 l 8.484375,8.486328 -2.828125,2.828125 h 8.486328 V 29.65625 l -2.828125,2.828125 z M 24,26.828125 21.171875,24 12.685547,32.484375 9.8574219,29.65625 v 8.486328 H 18.34375 l -2.828125,-2.828125 z"
         id="path8" />
      <path
         style="opacity:0.2"
         d="M 9.8574219,9.8574219 V 10.857422 H 17.34375 l 1,-1.0000001 z m 19.7988281,0 1,1.0000001 h 7.486328 V 9.8574219 Z m -13.640625,3.3281251 -0.5,0.5 7.984375,7.986328 0.5,-0.5 z M 24,21.171875 l 0.5,0.5 7.984375,-7.986328 -0.5,-0.5 z M 20.671875,24.5 12.685547,32.484375 9.8574219,29.65625 v 1 L 12.685547,33.484375 21.171875,25 Z m 0.5,0.5 2.328125,2.328125 0.5,-0.5 L 21.671875,24.5 Z M 24,26.828125 l 0.5,0.5 L 26.828125,25 l -0.5,-0.5 z M 26.828125,25 l 8.486328,8.484375 2.828125,-2.828125 v -1 L 35.314453,32.484375 27.328125,24.5 Z m -10.8125,10.814453 -0.5,0.5 1.828125,1.828125 h 1 z m 15.96875,0 -2.328125,2.328125 h 1 l 1.828125,-1.828125 z"
         id="path9" />
    </g>
    <g
       style="fill:#e4e4e4"
       id="g11">
      <path
         style="fill:#ffffff"
         d="M 9.8574219,9.8574219 V 18.34375 L 12.685547,15.515625 21.171875,24 24,21.171875 15.515625,12.685547 18.34375,9.8574219 Z M 24,21.171875 26.828125,24 35.314453,15.515625 38.142578,18.34375 V 9.8574219 H 29.65625 l 2.828125,2.8281251 z M 26.828125,24 24,26.828125 l 8.484375,8.486328 -2.828125,2.828125 h 8.486328 V 29.65625 l -2.828125,2.828125 z M 24,26.828125 21.171875,24 12.685547,32.484375 9.8574219,29.65625 v 8.486328 H 18.34375 l -2.828125,-2.828125 z"
         id="path10" />
      <path
         style="opacity:0.2;fill:#ffffff"
         d="M 9.8574219,9.8574219 V 10.857422 H 17.34375 l 1,-1.0000001 z m 19.7988281,0 1,1.0000001 h 7.486328 V 9.8574219 Z m -13.640625,3.3281251 -0.5,0.5 7.984375,7.986328 0.5,-0.5 z M 24,21.171875 l 0.5,0.5 7.984375,-7.986328 -0.5,-0.5 z M 20.671875,24.5 12.685547,32.484375 9.8574219,29.65625 v 1 L 12.685547,33.484375 21.171875,25 Z m 0.5,0.5 2.328125,2.328125 0.5,-0.5 L 21.671875,24.5 Z M 24,26.828125 l 0.5,0.5 L 26.828125,25 l -0.5,-0.5 z M 26.828125,25 l 8.486328,8.484375 2.828125,-2.828125 v -1 L 35.314453,32.484375 27.328125,24.5 Z m -10.8125,10.814453 -0.5,0.5 1.828125,1.828125 h 1 z m 15.96875,0 -2.328125,2.328125 h 1 l 1.828125,-1.828125 z"
         id="path11" />
    </g>
  </g>
</svg>
