<?xml version="1.0" encoding="UTF-8" standalone="no"?>
<svg
   width="62"
   height="62"
   version="1"
   id="svg7"
   sodipodi:docname="doki-doki-literature-club-plus.svg"
   inkscape:version="1.4 (unknown)"
   xmlns:inkscape="http://www.inkscape.org/namespaces/inkscape"
   xmlns:sodipodi="http://sodipodi.sourceforge.net/DTD/sodipodi-0.dtd"
   xmlns:xlink="http://www.w3.org/1999/xlink"
   xmlns="http://www.w3.org/2000/svg"
   xmlns:svg="http://www.w3.org/2000/svg">
  <defs
     id="defs7">
    <linearGradient
       id="linearGradient7"
       inkscape:collect="always">
      <stop
         style="stop-color:#ff69bb;stop-opacity:1;"
         offset="0"
         id="stop8" />
      <stop
         style="stop-color:#ff69bb;stop-opacity:1;"
         offset="0.59162253"
         id="stop10" />
      <stop
         style="stop-color:#eff2f6;stop-opacity:1;"
         offset="0.76739442"
         id="stop11" />
      <stop
         style="stop-color:#eff2f6;stop-opacity:1;"
         offset="1"
         id="stop9" />
    </linearGradient>
    <linearGradient
       id="linearGradient1"
       inkscape:collect="always">
      <stop
         style="stop-color:#566c80;stop-opacity:1;"
         offset="0"
         id="stop5" />
      <stop
         style="stop-color:#566c80;stop-opacity:1;"
         offset="0.28848785"
         id="stop7" />
      <stop
         style="stop-color:#495361;stop-opacity:1;"
         offset="1"
         id="stop6" />
    </linearGradient>
    <linearGradient
       id="c-3"
       gradientUnits="userSpaceOnUse"
       x1="24.072048"
       x2="23.959682"
       y1="0.75082099"
       y2="46.056854">
      <stop
         offset="0"
         stop-color="#fff"
         id="stop3" />
      <stop
         offset="1"
         stop-color="#d9d9d9"
         id="stop4" />
    </linearGradient>
    <linearGradient
       id="b-6"
       gradientUnits="userSpaceOnUse"
       x1="29.203026"
       x2="34.121048"
       xlink:href="#a-7"
       y1="24.827356"
       y2="29.224836" />
    <linearGradient
       id="a-7">
      <stop
         offset="0"
         id="stop1" />
      <stop
         offset="1"
         stop-opacity="0"
         id="stop2" />
    </linearGradient>
    <linearGradient
       id="d"
       gradientUnits="userSpaceOnUse"
       x1="15.948756"
       x2="25.031786"
       xlink:href="#a-7"
       y1="23.618279"
       y2="33.69899" />
    <linearGradient
       id="e"
       gradientUnits="userSpaceOnUse"
       x1="21.990562"
       x2="29.320522"
       xlink:href="#a-7"
       y1="33.780373"
       y2="41.931858" />
    <linearGradient
       id="paint154_linear_890_11"
       x1="778"
       y1="812.29199"
       x2="788"
       y2="812.29199"
       gradientUnits="userSpaceOnUse"
       gradientTransform="translate(-751,-696)">
      <stop
         stop-color="#EFF2F6"
         id="stop1050" />
      <stop
         offset="0.600785"
         stop-color="#B7C6CD"
         id="stop1051" />
    </linearGradient>
    <linearGradient
       id="paint155_linear_890_11"
       x1="783"
       y1="813"
       x2="783"
       y2="817"
       gradientUnits="userSpaceOnUse"
       gradientTransform="translate(-751,-696)">
      <stop
         stop-color="#EFF2F6"
         id="stop1052" />
      <stop
         offset="0.734138"
         stop-color="#B7C6CD"
         id="stop1053" />
    </linearGradient>
    <radialGradient
       id="paint156_radial_890_11"
       cx="0"
       cy="0"
       r="1"
       gradientUnits="userSpaceOnUse"
       gradientTransform="matrix(27.999986,27.999976,-27.999986,27.999976,32.302392,33.999998)">
      <stop
         offset="0.60067803"
         stop-color="#B7C6CD"
         id="stop1054"
         style="stop-color:#384850;stop-opacity:1;" />
      <stop
         offset="0.876735"
         stop-color="#EFF2F6"
         id="stop1055" />
    </radialGradient>
    <linearGradient
       id="paint157_linear_890_11"
       x1="796.84485"
       y1="799.43359"
       x2="768.90088"
       y2="770.81476"
       gradientUnits="userSpaceOnUse"
       gradientTransform="matrix(1.1666666,0,0,1.1666668,-881.19764,-881.8333)">
      <stop
         offset="0.00000057"
         stop-color="#2E2E41"
         id="stop1056"
         style="stop-color:#495361;stop-opacity:1;" />
      <stop
         offset="0.711139"
         stop-color="#566C80"
         id="stop1057" />
    </linearGradient>
    <linearGradient
       id="paint158_linear_890_11"
       x1="792"
       y1="794"
       x2="774"
       y2="776"
       gradientUnits="userSpaceOnUse"
       gradientTransform="translate(-751,-696)">
      <stop
         offset="0.304478"
         stop-color="#2E2E41"
         id="stop1058" />
      <stop
         offset="1"
         stop-color="#566C80"
         id="stop1059" />
    </linearGradient>
    <linearGradient
       id="paint159_linear_890_11"
       x1="788"
       y1="790"
       x2="778"
       y2="780"
       gradientUnits="userSpaceOnUse"
       gradientTransform="translate(-751,-696)">
      <stop
         offset="0.391394"
         stop-color="#5200FF"
         id="stop1060" />
      <stop
         offset="1"
         stop-color="#0085FF"
         id="stop1061" />
    </linearGradient>
    <linearGradient
       id="paint160_linear_890_11"
       x1="784"
       y1="798"
       x2="782"
       y2="796"
       gradientUnits="userSpaceOnUse"
       gradientTransform="translate(-751,-696)">
      <stop
         stop-color="#FF7E07"
         id="stop1062" />
      <stop
         offset="1"
         stop-color="#FFE607"
         id="stop1063" />
    </linearGradient>
    <linearGradient
       inkscape:collect="always"
       xlink:href="#linearGradient1"
       id="linearGradient6"
       x1="17.408081"
       y1="16.037786"
       x2="49.155514"
       y2="50.137749"
       gradientUnits="userSpaceOnUse"
       gradientTransform="translate(-1.3023872,-3)" />
    <radialGradient
       inkscape:collect="always"
       xlink:href="#linearGradient7"
       id="radialGradient9"
       cx="32.302387"
       cy="34"
       fx="32.302387"
       fy="34"
       r="28"
       gradientUnits="userSpaceOnUse"
       gradientTransform="matrix(0.99999999,1,-1,0.99999999,32.697613,-35.302387)" />
    <linearGradient
       id="c-3-6"
       gradientUnits="userSpaceOnUse"
       x1="24.072048"
       x2="23.959682"
       y1="0.75082099"
       y2="46.056854"
       gradientTransform="matrix(0.91471346,0,0,0.90068147,9.0468769,9.3836444)">
      <stop
         offset="0"
         stop-color="#fff"
         id="stop3-2" />
      <stop
         offset="1"
         stop-color="#d9d9d9"
         id="stop4-9" />
    </linearGradient>
    <linearGradient
       id="b-6-1"
       gradientUnits="userSpaceOnUse"
       x1="29.203026"
       x2="34.121048"
       xlink:href="#a-7"
       y1="24.827356"
       y2="29.224836"
       gradientTransform="matrix(1.1104534,0,0,1.0934187,4.3491158,4.7861435)" />
    <linearGradient
       id="d-0"
       gradientUnits="userSpaceOnUse"
       x1="15.948756"
       x2="25.031786"
       xlink:href="#a-7"
       y1="23.618279"
       y2="33.69899"
       gradientTransform="matrix(1.1104534,0,0,1.0934187,4.3491158,4.7861435)" />
    <linearGradient
       id="e-9"
       gradientUnits="userSpaceOnUse"
       x1="21.990562"
       x2="29.320522"
       xlink:href="#a-7"
       y1="33.780373"
       y2="41.931858"
       gradientTransform="matrix(1.1104534,0,0,1.0934187,4.3491158,4.7861435)" />
    <linearGradient
       id="linearGradient773"
       gradientTransform="matrix(2.0428665,-6.8308524,5.7819337,2.3633129,-33.356582,5.3194785)"
       gradientUnits="userSpaceOnUse"
       x1="24"
       x2="24"
       y1="35"
       y2="13">
      <stop
         offset="0"
         stop-color="#cd7223"
         id="stop224-5"
         style="stop-color:#ffb380;stop-opacity:1" />
      <stop
         offset=".53"
         stop-color="#f48e00"
         id="stop226-3" />
      <stop
         offset="1"
         stop-color="#ffa92d"
         id="stop228-5" />
    </linearGradient>
    <linearGradient
       id="linearGradient4432">
      <stop
         style="stop-color:#eff1f1;stop-opacity:1"
         offset="0"
         id="stop17" />
      <stop
         style="stop-color:#6f8181;stop-opacity:1"
         offset="1"
         id="stop19" />
    </linearGradient>
    <linearGradient
       id="a-2">
      <stop
         stop-color="#969692"
         offset="0"
         id="stop3-3" />
      <stop
         stop-color="#969692"
         stop-opacity="0"
         offset="1"
         id="stop4-6" />
    </linearGradient>
    <linearGradient
       id="e-1"
       x1="-1.1176227"
       x2="-0.41036412"
       y1="289.6546"
       y2="289.64532"
       gradientTransform="matrix(6.7456967,0.0127412,0.01265839,6.7456978,-29.126969,-1911.263)"
       gradientUnits="userSpaceOnUse"
       xlink:href="#a-2" />
    <linearGradient
       id="d-09"
       x1="-0.86155176"
       x2="-0.1469878"
       y1="289.66055"
       y2="289.70197"
       gradientTransform="matrix(6.7456967,0.0127412,0.01265839,6.7456978,-38.91316,-1913.9109)"
       gradientUnits="userSpaceOnUse"
       xlink:href="#a-2" />
    <linearGradient
       id="c-2"
       x1="-0.59261101"
       x2="0.11464758"
       y1="289.77438"
       y2="289.76511"
       gradientTransform="matrix(6.7456967,0.0127412,0.01265839,6.7456978,-48.766822,-1916.5629)"
       gradientUnits="userSpaceOnUse"
       xlink:href="#a-2" />
    <linearGradient
       id="b-0"
       x1="-0.30974263"
       x2="0.37280104"
       y1="289.83627"
       y2="289.84122"
       gradientTransform="matrix(6.7456967,0.0127412,0.01265839,6.7456978,-58.553025,-1919.2116)"
       gradientUnits="userSpaceOnUse"
       xlink:href="#a-2" />
  </defs>
  <sodipodi:namedview
     id="namedview7"
     pagecolor="#ffffff"
     bordercolor="#000000"
     borderopacity="0.25"
     inkscape:showpageshadow="2"
     inkscape:pageopacity="0.0"
     inkscape:pagecheckerboard="0"
     inkscape:deskcolor="#d1d1d1"
     inkscape:zoom="8.3306018"
     inkscape:cx="23.587732"
     inkscape:cy="52.397175"
     inkscape:window-width="1920"
     inkscape:window-height="998"
     inkscape:window-x="0"
     inkscape:window-y="0"
     inkscape:window-maximized="1"
     inkscape:current-layer="svg7" />
  <path
     d="M 59,31 C 59,46.46415 46.464172,59 30.999998,59 15.535835,59 3.0000001,46.46415 3.0000001,31 3.0000001,15.535835 15.535835,3 30.999998,3 46.464172,3 59,15.535835 59,31 Z"
     id="path154"
     style="fill:url(#radialGradient9)" />
  <path
     d="m 54.333333,31 c 0,12.88701 -10.446332,23.33332 -23.333335,23.33332 C 18.112999,54.33332 7.6666671,43.88701 7.6666671,31 7.6666671,18.113006 18.112999,7.666668 30.999998,7.666668 43.887001,7.666668 54.333333,18.113006 54.333333,31 Z"
     id="path155"
     style="fill:url(#linearGradient6)" />
  <path
     style="fill:#fdcfea;stroke-width:0.833325;fill-opacity:1"
     d="m 54.333489,31.000891 c -1.166673,1.166715 -12.734418,3.125907 -25.621159,3.125907 -12.886736,0 -19.8791619,-1.959192 -21.0458364,-3.125907 0,-12.887138 10.4467634,-23.334223 23.3335044,-23.334223 12.88673,0 23.333491,10.447085 23.333491,23.334223 z"
     id="path1" />
  <path
     style="fill:#ff69bb;fill-opacity:1;stroke-width:0.833325"
     d="m 28.245095,25.987309 c -5.281162,0.0729 -11.855984,1.408057 -19.2433059,3.240734 -0.7026301,0.174306 -1.0358263,0.255177 -1.2623797,0.298517 -0.039859,0.490549 -0.064171,0.982243 -0.072922,1.474331 0.00233,12.848105 10.3902296,23.277007 23.2378076,23.329777 0.05267,-6e-5 0.08166,0.003 0.134441,0.003 12.870726,-0.0219 23.293552,-10.460993 23.294753,-23.332175 -0.0095,-0.843199 -0.06377,-1.68528 -0.164058,-2.522553 -2.262505,1.072567 -4.303955,1.704843 -6.578964,1.688123 -6.029349,-0.04692 -11.851354,-3.850352 -17.162421,-4.154092 -0.700268,-0.02691 -1.428503,-0.03536 -2.18295,-0.02517 z"
     id="path2" />
  <path
     style="opacity:0.1;stroke-width:0.833325"
     d="m 28.244438,25.986819 c -5.281142,0.0729 -11.855978,1.40786 -19.2432997,3.240527 -0.7026303,0.174314 -1.03485,0.256137 -1.2614025,0.299477 -0.039858,0.490553 -0.064497,0.982506 -0.073244,1.474595 3.38e-5,0.184099 0.010379,0.365423 0.014661,0.5485 0.01191,-0.396892 0.026438,-0.793979 0.058586,-1.189771 0.2265528,-0.04342 0.5587729,-0.12516 1.261403,-0.299475 7.3873212,-1.832667 13.9621562,-3.167534 19.2432992,-3.240527 0.754453,-0.01047 1.48399,-0.0011 2.18426,0.02595 5.311056,0.303739 11.132238,4.106685 17.161583,4.153614 2.275013,0.01663 4.316318,-0.615247 6.578828,-1.687813 0.08668,0.724665 0.132865,1.453127 0.151355,2.182597 0.0035,-0.164545 0.01293,-0.327791 0.01295,-0.493162 -0.0095,-0.843198 -0.06411,-1.68549 -0.164382,-2.522759 -2.262515,1.072564 -4.303821,1.704525 -6.578832,1.687811 -6.029342,-0.04693 -11.850527,-3.849872 -17.161583,-4.153608 -0.700269,-0.02692 -1.429809,-0.03642 -2.184259,-0.02599 z"
     id="path5" />
  <g
     id="g1"
     transform="translate(15.999023,-31)">
    <path
       style="opacity:0.1"
       d="M 8.56227,52 C 4.398121,52 1,55.126665 1,59 c 0,2.01544 0.911514,3.854107 2.375085,5.133335 L 14.811493,74.4 26.623916,64.133335 C 28.087967,62.854665 29,61.016002 29,59 29,55.126667 25.601877,52 21.43773,52 18.693631,52 16.317546,53.345865 14.999498,55.3824 13.679453,53.345865 11.303369,52 8.55927,52 Z"
       id="path4" />
    <path
       style="fill:#03adee"
       d="M 8.56227,51 C 4.398121,51 1,54.126665 1,58 c 0,2.01544 0.911514,3.854107 2.375085,5.133335 L 14.811493,73.4 26.623916,63.133335 C 28.087967,61.854665 29,60.016002 29,58 29,54.126667 25.601877,51 21.43773,51 18.693631,51 16.317546,52.345865 14.999498,54.3824 13.679453,52.345865 11.303369,51 8.55927,51 Z"
       id="path5-3" />
    <path
       style="opacity:0.1"
       d="m 4.683594,52 c -0.510499,0.283493 -0.984915,0.616629 -1.408203,1 h 10.552734 c -0.419522,-0.384418 -0.89178,-0.71627 -1.398437,-1 z m 12.882812,0 c -0.506453,0.283707 -0.977281,0.615633 -1.396484,1 H 26.724609 C 26.30132,52.616629 25.826905,52.283494 25.316406,52 Z M 2.361328,54 C 2.12385,54.314666 1.918157,54.650341 1.738281,55 h 26.523438 c -0.180258,-0.350402 -0.386902,-0.684746 -0.625,-1 H 15.285156 C 15.189848,54.127389 15.086408,54.249302 15,54.382812 14.913461,54.249302 14.810266,54.127389 14.714844,54 Z m -1.042969,2 c -0.104227,0.323645 -0.179455,0.658429 -0.232421,1 h 27.828124 c -0.05297,-0.341571 -0.128194,-0.676356 -0.232421,-1 z M 1,58 c 0,0.339968 0.03579,0.671928 0.08594,1 H 28.914062 C 28.964236,58.671865 29,58.340063 29,58 Z m 0.316406,2 c 0.109225,0.345091 0.244446,0.678907 0.40625,1 h 26.554688 c 0.161833,-0.32115 0.297031,-0.654814 0.40625,-1 z m 1.019532,2 c 0.266474,0.360598 0.570253,0.69382 0.902343,1 h 23.523438 c 0.332521,-0.306441 0.637552,-0.638973 0.904297,-1 z m 2.005859,2 1.113281,1 H 24.474609 L 25.625,64 Z m 2.226562,2 1.113282,1 h 14.492187 l 1.150391,-1 z m 2.226563,2 1.115234,1 h 9.962891 l 1.150391,-1 z m 2.228516,2 1.113281,1 h 5.435547 l 1.15039,-1 z m 2.226562,2 1.115234,1 h 0.90625 l 1.150391,-1 z"
       id="path6" />
  </g>
  <g
     id="g2"
     transform="translate(41.559262,-30.966148)">
    <circle
       style="fill:#af1f6e;stroke-width:0.75;fill-opacity:1"
       cx="8.4407377"
       cy="80.966148"
       r="12"
       id="circle8" />
    <rect
       style="fill:#ffffff;stroke-width:0.75"
       width="4.4999967"
       height="16.499996"
       x="6.1907434"
       y="72.716217"
       rx="2.2499983"
       ry="2.2499983"
       id="rect8" />
    <rect
       style="fill:#ffffff;stroke-width:0.75"
       width="4.4999967"
       height="16.499996"
       x="78.716171"
       y="-16.690739"
       rx="2.2499983"
       ry="2.2499983"
       transform="rotate(90)"
       id="rect9" />
  </g>
</svg>
