<?xml version="1.0" encoding="UTF-8" standalone="no"?>
<svg
   width="62"
   height="62"
   version="1.1"
   id="svg4"
   sodipodi:docname="dota2.svg"
   inkscape:version="1.4.2 (unknown)"
   xmlns:inkscape="http://www.inkscape.org/namespaces/inkscape"
   xmlns:sodipodi="http://sodipodi.sourceforge.net/DTD/sodipodi-0.dtd"
   xmlns:xlink="http://www.w3.org/1999/xlink"
   xmlns="http://www.w3.org/2000/svg"
   xmlns:svg="http://www.w3.org/2000/svg">
  <defs
     id="defs4">
    <linearGradient
       id="linearGradient3"
       inkscape:collect="always">
      <stop
         style="stop-color:#f7dad8;stop-opacity:1;"
         offset="0"
         id="stop3" />
      <stop
         style="stop-color:#faeceb;stop-opacity:1;"
         offset="1"
         id="stop4" />
    </linearGradient>
    <radialGradient
       inkscape:collect="always"
       xlink:href="#linearGradient3"
       id="radialGradient4"
       cx="31"
       cy="30.508772"
       fx="31"
       fy="30.508772"
       r="27.5"
       gradientTransform="matrix(1,0,0,1.000319,0,-0.00973163)"
       gradientUnits="userSpaceOnUse" />
    <linearGradient
       id="linear0"
       gradientUnits="userSpaceOnUse"
       x1="0"
       y1="0"
       x2="0"
       y2="1"
       gradientTransform="matrix(83.36392,0,0,50.901657,-8.3790159,7.8523823)">
      <stop
         offset="0"
         style="stop-color:#2478ff;stop-opacity:1;"
         id="stop1" />
      <stop
         offset="1"
         style="stop-color:#0049bf;stop-opacity:1;"
         id="stop2" />
    </linearGradient>
  </defs>
  <sodipodi:namedview
     id="namedview4"
     pagecolor="#ffffff"
     bordercolor="#000000"
     borderopacity="0.25"
     inkscape:showpageshadow="2"
     inkscape:pageopacity="0.0"
     inkscape:pagecheckerboard="0"
     inkscape:deskcolor="#d1d1d1"
     inkscape:zoom="5.9453125"
     inkscape:cx="21.445466"
     inkscape:cy="43.311432"
     inkscape:current-layer="svg4" />
  <rect
     style="opacity:0.2;stroke-width:0.999971"
     width="55"
     height="55.017544"
     x="3.5"
     y="3.9824567"
     rx="12.6"
     ry="12.6"
     id="rect1" />
  <rect
     style="fill:url(#radialGradient4);stroke-width:0.999971"
     width="55"
     height="55.017544"
     x="3.5"
     y="2.9999995"
     rx="12.6"
     ry="12.6"
     id="rect2" />
  <path
     style="opacity:0.1;fill:#ffffff;stroke-width:0.999971"
     d="m 15.874615,2.9999995 c -6.8557487,0 -12.3746149,5.5206268 -12.3746149,12.3785615 v 0.982457 c 0,-6.8579385 5.5188662,-12.3785625 12.3746149,-12.3785625 h 30.25077 C 52.981135,3.9824555 58.5,9.5030795 58.5,16.361018 V 15.378561 C 58.5,8.5206263 52.981135,2.9999995 46.125385,2.9999995 Z"
     id="path4" />
  <g
     id="g1"
     transform="translate(-3.9643395,-69.988969)">
    <path
       style="fill:#c2352a;stroke-width:0.999981"
       d="m 38.369783,79.484948 -7.420099,0.126634 -1.504554,1.133662 0.123624,0.126636 -4.901142,0.126742 0.376831,-0.50356 -11.188424,-0.253331 -0.126828,0.756831 -0.126582,1.133584 0.75675,1.387069 -0.376839,2.900656 -0.630141,2.520581 0.37682,2.396923 0.126745,1.889953 0.753797,2.5209 -0.25039,1.261231 0.123656,1.386294 0.880406,1.009654 0.250237,1.637813 -1.631065,0.62984 0.250238,5.04494 1.007153,0.75641 -0.630149,4.41037 -0.503562,0.25324 -0.376976,8.44901 0.443199,-0.061 1.067509,0.22077 c 0,0 1.292134,0.44752 1.558822,0.53669 0.266687,0.0892 0.663317,-0.40103 0.663317,-0.40103 h 1.067357 l 0.889442,-0.17782 0.491459,0.22311 0.443213,-0.0454 1.112589,-0.0874 0.527646,-0.22609 0.22612,0.53667 0.177677,-0.13431 0.491362,-0.22546 1.0192,-0.088 0.220132,0.31345 c 0,0 1.243965,0.13267 1.688487,0.13267 0.444484,0 0.358801,-0.35879 0.358801,-0.35879 0,0 0.13052,-0.0419 0.35277,0.18086 0.222235,0.22296 0.536687,-0.0905 0.536687,-0.0905 l 0.443215,-0.22311 0.313561,0.3135 0.310553,0.22315 0.844209,-0.17788 h 1.374873 l 0.316589,-0.0905 1.287497,1.82771 0.08445,-0.93163 h 2.089404 c 0.177806,0 0.0935,0.62113 0.0935,0.62113 l 1.374879,-0.44629 0.711564,0.71163 1.468347,-0.93471 0.798979,-0.13563 1.555728,-0.0844 h 2.222165 l 2.532623,0.17481 0.669346,-0.26526 0.485424,-0.44626 1.335658,0.75378 0.976897,-0.40098 c 0,0 1.067434,0.40763 1.245196,0.45224 0.177791,0.0447 1.824037,-0.18389 1.824037,-0.18389 l 1.019114,-0.26835 -0.663321,-0.48844 0.443221,-0.17798 1.866335,0.0874 2.48739,0.62723 -0.04215,-16.26905 v -1.02811 l -0.621109,0.0936 -0.801983,0.13267 v -0.49147 l 0.443216,-0.40405 0.358789,-0.53055 0.08446,-1.91757 -0.132671,-1.383975 -0.578894,-1.694511 -0.527642,-0.711554 -0.09041,-0.669356 0.132673,-0.443203 0.04217,-0.132678 0.578895,-0.226144 0.09042,-0.2261 -0.443223,-0.753774 0.401,-0.229149 0.627138,-0.379899 0.250254,-2.267403 0.126638,-1.51358 v -5.294303 l -0.37823,-1.518136 0.251634,-1.637317 0.126596,-0.633096 -1.131583,-0.503498 -4.274679,-0.756754 -0.631399,0.883264 -0.250091,-1.010006 -8.170369,-0.12659 -0.253178,1.389926 -2.009978,0.250248 -0.251633,-0.880331 -1.759896,-0.253332 0.629865,-0.756753 z"
       id="path1" />
    <path
       style="opacity:0.2;stroke-width:0.999981"
       d="m 44.225278,86.431496 -6.174898,3.087447 9.262571,6.1749 v -6.1749 l -3.087446,-3.087447 z m -21.612686,1.543766 -4.630831,1.543757 26.243205,26.243201 h 4.63129 l 3.086753,-7.71886 -29.330735,-20.068098 z m -3.086758,16.980598 -1.544073,7.71889 3.087831,3.08747 h 3.086759 l 4.631286,-1.54376 z"
       id="path2" />
    <path
       style="fill:#f4d7d7;stroke-width:0.999981;fill-opacity:1"
       d="m 44.225278,85.659616 -6.174898,3.087447 9.262571,6.174902 V 88.747063 L 44.225505,85.659616 Z M 22.613363,87.2033 17.982225,88.746987 44.225427,114.99023 h 4.631141 l 3.087448,-7.71859 -29.330733,-20.068182 z m -3.087451,16.98069 -1.543687,7.71846 3.087446,3.08754 h 3.08745 l 4.631138,-1.5437 -9.262586,-9.26256 z"
       id="path3" />
    <path
       style="opacity:0.2;fill:#ffffff;stroke-width:0.999981"
       d="m 38.367466,79.485332 -7.417012,0.126587 -1.504396,1.133741 0.123496,0.126591 -4.901446,0.126664 0.37668,-0.503576 -11.189197,-0.253255 -0.126442,0.756831 -0.12658,1.133663 0.07089,0.131222 0.05568,-0.493002 0.126662,-0.75683 11.189201,0.253255 -0.37668,0.503575 4.901455,-0.126668 -0.123509,-0.126588 1.504402,-1.13374 6.969322,-0.119097 -0.179077,-0.0256 0.626765,-0.753742 z m 3.64714,0.247233 -0.251631,1.389929 -2.011526,0.250322 -0.251637,-0.880485 -1.186374,-0.170356 -0.57274,0.688981 1.759114,0.253254 0.251637,0.880486 2.011526,-0.250321 0.251631,-1.389927 8.171139,0.126587 0.250092,1.010088 0.6314,-0.88342 4.273903,0.75683 0.994188,0.441672 0.0115,-0.07688 0.126586,-0.633174 -1.132348,-0.503499 -4.273909,-0.756828 -0.6314,0.88342 -0.250091,-1.010086 z m 14.154767,4.078007 -0.07408,0.478179 0.378222,1.515978 v -0.771886 z m -41.891567,0.333066 -0.295468,2.276279 -0.63017,2.520966 0.07381,0.473166 0.556298,-2.22225 0.376827,-2.899961 z m 41.12972,11.149834 -0.338857,0.194511 0.165954,0.282525 0.186797,-0.07386 0.09031,-0.22618 z m -40.88966,0.918517 -0.158317,0.797359 0.04823,0.532616 0.20208,-1.022717 z m 40.221985,0.8182 -0.07263,0.240075 0.09104,0.669231 0.527195,0.711674 0.578911,1.694261 0.11038,1.14168 0.0224,-0.52954 -0.132764,-1.384025 -0.578912,-1.694261 -0.527193,-0.711691 z m -39.237838,4.055491 -1.5196,0.58661 0.03761,0.75721 1.593475,-0.6136 z m 41.031688,2.98944 -0.620593,0.0936 -0.426851,0.07 -0.375135,0.34274 v 0.49098 l 0.801986,-0.13278 0.620593,-0.0936 z m 0,1.02823 v 0.77181 l 0.04099,15.49865 h 0.0018 z m -41.393698,3.06815 -0.53067,3.71352 -0.503583,0.25326 -0.376901,8.44822 0.0347,-0.006 0.342169,-7.67175 0.50358,-0.25319 0.63017,-4.4098 z"
       id="path4-3" />
    <path
       style="opacity:0.2;stroke-width:0.999981"
       d="m 38.367466,80.257215 -0.447753,0.0078 0.393478,0.0573 z m 17.967862,1.69899 -0.240055,1.560355 0.07382,0.29398 0.177893,-1.159365 0.126638,-0.633184 z m -42.6619,0.30755 -0.0709,0.640721 0.675397,1.239255 0.08135,-0.624135 z m -0.247234,7.150325 -0.07381,0.298719 0.376904,2.396689 0.126582,1.889567 0.661896,2.212969 0.09191,-0.464659 -0.753827,-2.520192 -0.126582,-1.889565 z m 43.047841,0.913597 -0.126633,1.512117 -0.250264,2.268945 -0.627151,0.3784 -0.401014,0.229154 0.339203,0.577409 0.06182,-0.03464 0.627152,-0.379915 0.250263,-2.267402 0.126635,-1.513583 z m -1.239257,5.442392 -0.391966,0.152244 -0.04217,0.132681 -0.132674,0.443214 0.07242,0.532186 0.06023,-0.203498 0.04215,-0.13268 0.578908,-0.226145 0.09043,-0.226106 z m -40.82868,1.771453 -0.0466,0.239308 0.123577,1.385531 0.880408,1.010029 0.138703,0.90912 0.111553,-0.0422 -0.250256,-1.638666 -0.880408,-1.00856 z m 41.568915,3.945378 -0.06182,1.38839 -0.358801,0.53067 -0.443228,0.40412 v 0.49143 l 0.375386,-0.0627 0.0679,-0.0626 0.358799,-0.53058 0.08445,-1.91768 z m -41.954856,0.94238 -0.03765,0.0152 0.250252,5.04578 0.907574,0.68155 0.09949,-0.69616 -1.007073,-0.7572 z m 0.152292,18.09676 -0.408562,0.0561 -0.03462,0.77648 0.443216,-0.061 1.067356,0.22154 c 0,0 1.292126,0.44754 1.558815,0.53666 0.266694,0.0893 0.66334,-0.40097 0.66334,-0.40097 h 1.067362 l 0.889432,-0.17797 0.491473,0.22319 0.443235,-0.0454 1.112587,-0.0874 0.527648,-0.22613 0.226137,0.53668 0.17831,-0.13427 0.490915,-0.22619 1.019659,-0.0871 0.219987,0.31337 c 0,0 1.243964,0.13269 1.688483,0.13269 0.444484,0 0.35881,-0.35885 0.35881,-0.35885 0,0 0.13052,-0.042 0.352771,0.18097 0.222234,0.22281 0.536693,-0.0906 0.536693,-0.0906 l 0.443233,-0.22316 0.313575,0.31363 0.310562,0.22304 0.844288,-0.17783 h 1.373402 l 0.316473,-0.0904 1.287503,1.82709 0.08415,-0.9317 h 2.089481 c 0.177807,0 0.0935,0.62114 0.0935,0.62114 l 1.374879,-0.44622 0.711579,0.71153 1.46835,-0.93463 0.799053,-0.13569 1.555806,-0.0844 h 2.22217 l 2.532699,0.17493 0.669364,-0.26543 0.485446,-0.44616 1.335737,0.75368 0.976894,-0.40092 c 0,0 1.067436,0.40766 1.245279,0.45225 0.17779,0.0447 1.824189,-0.1839 1.824189,-0.1839 l 1.019115,-0.26835 -0.663339,-0.48846 0.44323,-0.17787 1.866408,0.0873 2.487547,0.62717 -0.0018,-0.77187 -2.485999,-0.62716 -1.866412,-0.0874 -0.44323,0.17801 0.663339,0.48843 -1.019116,0.26837 c 0,0 -1.646344,0.22842 -1.824184,0.18388 -0.177813,-0.0447 -1.245281,-0.45225 -1.245281,-0.45225 l -0.976428,0.40061 -1.335356,-0.7542 -0.485443,0.44632 -0.66937,0.26531 -2.532699,-0.17491 h -2.222168 l -1.555802,0.0844 -0.799051,0.13564 -1.468351,0.93473 -0.711583,-0.71158 -1.374877,0.44624 c 0,0 0.08435,-0.62117 -0.0935,-0.62117 H 32.03854 l -0.08414,0.93244 -1.287496,-1.82701 -0.317245,0.0904 h -1.373398 l -0.84429,0.17792 -0.310556,-0.22319 -0.313575,-0.31355 -0.443231,0.22317 c 0,0 -0.314461,0.31328 -0.536696,0.0905 -0.222249,-0.22291 -0.352772,-0.18087 -0.352772,-0.18087 0,0 0.08568,0.35883 -0.358807,0.35883 -0.444552,0 -1.688489,-0.1327 -1.688489,-0.1327 l -0.219211,-0.31344 -1.019663,0.0872 -0.490914,0.22617 -0.177893,0.13418 -0.226138,-0.53668 -0.527652,0.22609 -1.112591,0.0874 -0.443229,0.0454 -0.49147,-0.22313 -0.889442,0.17785 h -1.067371 c 0,0 -0.396639,0.49026 -0.663343,0.40102 -0.266684,-0.0895 -1.558807,-0.53725 -1.558807,-0.53725 z"
       id="path5" />
  </g>
</svg>
