<?xml version="1.0" encoding="UTF-8" standalone="no"?>
<svg
   width="62"
   height="62"
   version="1"
   id="svg6"
   sodipodi:docname="doublecmd.svg"
   inkscape:version="1.4.2 (unknown)"
   xmlns:inkscape="http://www.inkscape.org/namespaces/inkscape"
   xmlns:sodipodi="http://sodipodi.sourceforge.net/DTD/sodipodi-0.dtd"
   xmlns="http://www.w3.org/2000/svg"
   xmlns:svg="http://www.w3.org/2000/svg">
  <defs
     id="defs6" />
  <sodipodi:namedview
     id="namedview6"
     pagecolor="#ffffff"
     bordercolor="#000000"
     borderopacity="0.25"
     inkscape:showpageshadow="2"
     inkscape:pageopacity="0.0"
     inkscape:pagecheckerboard="0"
     inkscape:deskcolor="#d1d1d1"
     inkscape:zoom="11.890625"
     inkscape:cx="31.95795"
     inkscape:cy="32"
     inkscape:current-layer="svg6" />
  <g
     id="g7"
     transform="translate(-0.5,-1.0000005)">
    <g
       id="g6">
      <rect
         style="opacity:0.2;stroke-width:0.999972"
         width="55.066658"
         height="55.017544"
         x="3.9666665"
         y="4.9824572"
         rx="16.799999"
         ry="16.799999"
         id="rect1" />
      <rect
         style="fill:#c83771;stroke-width:0.999972"
         width="55.066658"
         height="55.017544"
         x="3.9666665"
         y="4"
         rx="16.799999"
         ry="16.799999"
         id="rect2" />
      <path
         style="opacity:0.2;fill:#ffffff;stroke-width:0.999972"
         d="M 20.487433,4 C 11.335358,4 3.9666664,11.362113 3.9666664,20.506032 v 0.982458 c 0,-9.143919 7.3686916,-16.506034 16.5207666,-16.506034 h 22.025134 c 9.152075,0 16.520767,7.362115 16.520767,16.506034 V 20.506032 C 59.033334,11.362113 51.664642,4 42.512567,4 Z"
         id="path2" />
      <path
         style="opacity:0.2;stroke-width:0.999972"
         d="m 2,14.245612 v 3.101754 c 0,0 0,1.403511 1.4203704,1.403511 h 4.2611109 c 7.8444877,0 13.9851827,5.98899 13.9851827,13.740353 0,7.751364 -7.866667,13.838596 -13.9851827,13.838596 H 6.2611112 3.4203704 C 2,46.329826 2,47.733338 2,47.733338 v 3.003505 c 0,0 0,1.403509 1.4203704,1.403509 h 4.2611109 c 10.9822847,0 19.8851857,-8.797214 19.8851857,-19.649122 0,-10.851912 -8.902901,-19.649121 -19.8851857,-19.649121 H 3.4203704 C 2,12.842109 2,14.245612 2,14.245612 Z"
         id="path3" />
      <path
         style="fill:#e6e6e6;stroke-width:0.999972;fill-opacity:1"
         d="m 2,13.263161 v 3.101753 c 0,0 0,1.403511 1.4203704,1.403511 h 4.2611109 c 7.8444877,0 13.9851827,5.988984 13.9851827,13.740347 0,7.751365 -7.866667,13.838596 -13.9851827,13.838596 H 6.2611112 3.4203704 C 2,45.347368 2,46.750878 2,46.750878 v 3.003512 c 0,0 0,1.403506 1.4203704,1.403506 h 4.2611109 c 10.9822847,0 19.8851857,-8.79721 19.8851857,-19.649124 0,-10.851906 -8.902901,-19.649122 -19.8851857,-19.649122 H 3.4203704 C 2,11.85965 2,13.263161 2,13.263161 Z"
         id="path4" />
      <path
         style="opacity:0.2;stroke-width:0.999972"
         d="m 61,14.245612 v 3.101754 c 0,0 0,1.403511 -1.42037,1.403511 h -4.261115 c -7.844485,0 -13.985182,5.98899 -13.985182,13.740353 0,7.751364 7.866665,13.838596 13.985182,13.838596 h 1.420371 2.840744 C 61,46.329826 61,47.733338 61,47.733338 v 3.003505 c 0,0 0,1.403509 -1.42037,1.403509 h -4.261115 c -10.982281,0 -19.885181,-8.797214 -19.885181,-19.649122 0,-10.851912 8.9029,-19.649121 19.885181,-19.649121 H 59.57963 C 61,12.842109 61,14.245612 61,14.245612 Z"
         id="path5" />
      <path
         style="fill:#e6e6e6;stroke-width:0.999972;fill-opacity:1"
         d="m 61,13.263161 v 3.101753 c 0,0 0,1.403511 -1.42037,1.403511 h -4.261115 c -7.844485,0 -13.985182,5.988984 -13.985182,13.740347 0,7.751365 7.866665,13.838596 13.985182,13.838596 h 1.420371 2.840744 C 61,45.347368 61,46.750878 61,46.750878 v 3.003512 c 0,0 0,1.403506 -1.42037,1.403506 h -4.261115 c -10.982281,0 -19.885181,-8.79721 -19.885181,-19.649124 0,-10.851906 8.9029,-19.649122 19.885181,-19.649122 H 59.57963 C 61,11.85965 61,13.263161 61,13.263161 Z"
         id="path6" />
    </g>
  </g>
</svg>
