<?xml version="1.0" encoding="UTF-8" standalone="no"?>
<svg
   width="62"
   height="62"
   version="1.1"
   id="svg9"
   sodipodi:docname="double-action-boogaloo.svg"
   inkscape:version="1.4.2 (unknown)"
   xmlns:inkscape="http://www.inkscape.org/namespaces/inkscape"
   xmlns:sodipodi="http://sodipodi.sourceforge.net/DTD/sodipodi-0.dtd"
   xmlns="http://www.w3.org/2000/svg"
   xmlns:svg="http://www.w3.org/2000/svg">
  <defs
     id="defs9" />
  <sodipodi:namedview
     id="namedview9"
     pagecolor="#ffffff"
     bordercolor="#000000"
     borderopacity="0.25"
     inkscape:showpageshadow="2"
     inkscape:pageopacity="0.0"
     inkscape:pagecheckerboard="0"
     inkscape:deskcolor="#d1d1d1"
     inkscape:zoom="5.9453125"
     inkscape:cx="25.39816"
     inkscape:cy="48.693824"
     inkscape:current-layer="svg9" />
  <g
     id="g9"
     transform="translate(-0.49999995,-0.99999842)">
    <rect
       style="opacity:0.2;stroke-width:0.999971"
       width="54.999996"
       height="55.01754"
       x="4"
       y="4.9824572"
       rx="3"
       ry="2.9999995"
       id="rect1" />
    <path
       style="fill:#535d6c;stroke-width:0.999971"
       d="M 6.9464285,3.9999997 H 30.607735 l 24.687844,1.9497476 c 1.62726,0.1285142 2.174397,2.5106298 2.296719,4.1388787 L 59,28.826784 v 5.19933 l -1.191132,17.711291 c -0.109563,1.629156 -1.964679,6.468764 -3.596135,6.521903 L 30.932589,59.017543 H 6.9464285 c -1.6323214,0 -2.9464286,-1.314523 -2.9464286,-2.947367 V 6.9473681 c 0,-1.6328421 1.3141072,-2.9473684 2.9464286,-2.9473684 z"
       id="path1" />
    <path
       style="opacity:0.1;fill:#ffffff;stroke-width:0.999971"
       d="m 6.9464285,3.9999997 c -1.6323214,0 -2.9464286,1.3145263 -2.9464286,2.9473684 v 0.9824561 c 0,-1.6328422 1.3141072,-2.9473684 2.9464286,-2.9473684 H 56.053573 C 57.685896,4.9824558 59,6.296982 59,7.9298242 V 6.9473681 C 59,5.314526 57.685896,3.9999997 56.053573,3.9999997 Z"
       id="path2" />
    <path
       style="opacity:0.2;stroke-width:0.999971"
       d="M 30.517858,4.9824558 V 30.526316 h 6.734969 l 3.08646,-21.6140354 h 9.821429 L 52.80598,30.526316 H 59 V 7.9298242 C 59,6.296982 57.685896,4.9824558 56.053573,4.9824558 Z M 45.250002,19.719299 44.112481,30.526316 h 1.989221 z M 30.517858,34.456142 V 57.05263 h 2.946426 L 36.69078,34.456142 Z m 13.180281,0 -0.723181,6.87719 h 3.980366 l -0.542866,-6.87719 z m 9.589322,0 2.766112,22.596488 H 59 V 34.456142 Z M 42.355364,47.228071 41.321428,57.05263 h 6.875002 l -0.774973,-9.824559 z"
       id="path3" />
    <path
       style="fill:#e4e4e4;stroke-width:0.999971"
       d="M 30.517858,3.9999997 V 29.543861 h 6.734969 l 3.08646,-21.6140368 h 9.821429 L 52.80598,29.543861 H 59 V 6.9473681 C 59,5.314526 57.685896,3.9999997 56.053573,3.9999997 Z M 45.250002,18.736842 44.112481,29.543861 h 1.989221 z M 30.517858,33.473682 V 59.017543 H 56.053573 C 57.685896,59.017543 59,57.70302 59,56.070176 V 33.473682 h -5.712539 l 2.766112,22.596494 H 48.19643 l -0.774973,-9.824563 h -5.066093 l -1.033936,9.824563 H 33.464284 L 36.69078,33.473682 Z m 13.180281,0 -0.723181,6.877196 h 3.980366 l -0.542866,-6.877196 z"
       id="path4" />
    <path
       style="opacity:0.2;stroke-width:0.999971"
       d="M 6.9464285,7.9298242 V 30.526316 H 15.785713 V 16.771929 h 3.928574 v 13.754387 h 9.821429 V 15.789472 c 0,0 0,-7.8596478 -7.857145,-7.8596478 z m 0,26.5263178 V 57.05263 H 21.678571 c 7.857145,0 7.857145,-6.877191 7.857145,-6.877191 V 34.456142 H 19.714287 V 49.192981 H 15.785713 V 34.456142 Z"
       id="path5" />
    <path
       style="fill:#c6afe9;stroke-width:0.999971"
       d="M 6.9464285,6.9473681 V 29.543861 H 15.785713 V 15.789472 h 3.928574 v 13.754389 h 9.821429 V 14.807019 c 0,0 0,-7.8596509 -7.857145,-7.8596509 z m 0,26.5263139 V 56.070176 H 21.678571 c 7.857145,0 7.857145,-6.877195 7.857145,-6.877195 V 33.473682 H 19.714287 V 48.210527 H 15.785713 V 33.473682 Z"
       id="path6" />
    <path
       style="opacity:0.2;fill:#ffffff;stroke-width:0.999971"
       d="M 30.517858,3.9999997 V 4.9824558 H 56.053573 C 57.685896,4.9824558 59,6.296982 59,7.9298242 V 6.9473681 C 59,5.314526 57.685896,3.9999997 56.053573,3.9999997 Z M 45.250002,18.736842 44.112481,29.543861 h 0.103586 l 1.033935,-9.824562 0.77497,9.824562 h 0.07671 z m -14.732144,14.73684 v 0.98246 h 6.032889 l 0.140033,-0.98246 z m 13.180281,0 -0.723181,6.877196 h 0.103585 l 0.619596,-5.894736 h 2.714319 l 0.466135,5.894736 h 0.07671 l -0.54286,-6.877196 z m 9.589322,0 0.12085,0.98246 H 59 v -0.98246 z m -10.932097,12.771931 -1.033936,9.824563 h -7.717112 l -0.140032,0.982454 h 7.857144 l 1.033936,-9.824559 h 5.066093 l 0.774973,9.824559 h 7.857143 L 55.932722,56.070176 H 48.19643 l -0.774973,-9.824563 z"
       id="path7" />
    <path
       style="opacity:0.2;fill:#ffffff;stroke-width:0.999971"
       d="M 6.9464285,6.9473681 V 7.9298242 H 21.678571 c 7.857145,0 7.857145,7.8596478 7.857145,7.8596478 v -0.982453 c 0,0 0,-7.8596509 -7.857145,-7.8596509 z m 0,26.5263139 v 0.98246 h 8.8392845 v -0.98246 z m 12.7678585,0 v 0.98246 h 9.821429 v -0.98246 z m -3.928574,14.736845 v 0.982454 h 3.928574 v -0.982454 z"
       id="path8" />
    <path
       style="fill:#e5e5e5;stroke-width:0.999971;fill-opacity:1"
       d="M 30.517858,3.9999997 V 29.543861 h 6.734969 l 3.08646,-21.6140368 h 9.821429 L 52.80598,29.543861 H 59 V 6.9473681 C 59,5.314526 57.685896,3.9999997 56.053573,3.9999997 Z M 45.250002,18.736842 44.112481,29.543861 h 1.989221 z M 30.517858,33.473682 V 59.017543 H 56.053573 C 57.685896,59.017543 59,57.70302 59,56.070176 V 33.473682 h -5.712539 l 2.766112,22.596494 H 48.19643 l -0.774973,-9.824563 h -5.066093 l -1.033936,9.824563 H 33.464284 L 36.69078,33.473682 Z m 13.180281,0 -0.723181,6.877196 h 3.980366 l -0.542866,-6.877196 z"
       id="path9" />
  </g>
</svg>
