<?xml version="1.0" encoding="UTF-8" standalone="no"?>
<svg
   width="62"
   height="62"
   version="1.1"
   id="svg4"
   sodipodi:docname="adriconf.svg"
   inkscape:version="1.4.2 (unknown)"
   xmlns:inkscape="http://www.inkscape.org/namespaces/inkscape"
   xmlns:sodipodi="http://sodipodi.sourceforge.net/DTD/sodipodi-0.dtd"
   xmlns:xlink="http://www.w3.org/1999/xlink"
   xmlns="http://www.w3.org/2000/svg"
   xmlns:svg="http://www.w3.org/2000/svg">
  <defs
     id="defs4">
    <linearGradient
       id="linearGradient3"
       inkscape:collect="always">
      <stop
         style="stop-color:#aeffcf;stop-opacity:1;"
         offset="0"
         id="stop3" />
      <stop
         style="stop-color:#ebfff3;stop-opacity:1;"
         offset="1"
         id="stop4" />
    </linearGradient>
    <radialGradient
       inkscape:collect="always"
       xlink:href="#linearGradient3"
       id="radialGradient4"
       cx="31"
       cy="30.508772"
       fx="31"
       fy="30.508772"
       r="27.5"
       gradientTransform="matrix(1,0,0,1.000319,0,-0.00973163)"
       gradientUnits="userSpaceOnUse" />
    <linearGradient
       id="linear0"
       gradientUnits="userSpaceOnUse"
       x1="0"
       y1="0"
       x2="0"
       y2="1"
       gradientTransform="matrix(83.36392,0,0,50.901657,-8.3790159,7.8523823)">
      <stop
         offset="0"
         style="stop-color:#2478ff;stop-opacity:1;"
         id="stop1" />
      <stop
         offset="1"
         style="stop-color:#0049bf;stop-opacity:1;"
         id="stop2" />
    </linearGradient>
  </defs>
  <sodipodi:namedview
     id="namedview4"
     pagecolor="#ffffff"
     bordercolor="#000000"
     borderopacity="0.25"
     inkscape:showpageshadow="2"
     inkscape:pageopacity="0.0"
     inkscape:pagecheckerboard="0"
     inkscape:deskcolor="#d1d1d1"
     inkscape:zoom="5.9453125"
     inkscape:cx="21.361367"
     inkscape:cy="46.507227"
     inkscape:current-layer="svg4" />
  <rect
     style="opacity:0.2;stroke-width:0.999971"
     width="55"
     height="55.017544"
     x="3.5"
     y="3.9824567"
     rx="12.6"
     ry="12.6"
     id="rect1" />
  <rect
     style="fill:url(#radialGradient4);stroke-width:0.999971"
     width="55"
     height="55.017544"
     x="3.5"
     y="2.9999995"
     rx="12.6"
     ry="12.6"
     id="rect2" />
  <path
     style="opacity:0.1;fill:#ffffff;stroke-width:0.999971"
     d="m 15.874615,2.9999995 c -6.8557487,0 -12.3746149,5.5206268 -12.3746149,12.3785615 v 0.982457 c 0,-6.8579385 5.5188662,-12.3785625 12.3746149,-12.3785625 h 30.25077 C 52.981135,3.9824555 58.5,9.5030795 58.5,16.361018 V 15.378561 C 58.5,8.5206263 52.981135,2.9999995 46.125385,2.9999995 Z"
     id="path4" />
  <g
     fill="none"
     stroke-linecap="round"
     stroke-linejoin="round"
     stroke-width="3.04802"
     id="g3"
     transform="matrix(4.9173321,0,0,5.003176,-10.634658,-9.6659304)">
    <path
       transform="matrix(0.26458,0,0,0.26458,2.117,1.984)"
       d="M 9,33 V 15 c 0,0 8,-1 8,9 0,10 -8,9 -8,9"
       stroke="#c2352a"
       id="path1"
       style="stroke-width:3.04802" />
    <path
       transform="matrix(0.26458,0,0,0.26458,2.117,1.984)"
       d="M 24,33 V 15 c 0,0 8,-1 8,4.5 0,5.5 -8,5.5 -8,5.5 l 8,8"
       stroke="#169d41"
       id="path2"
       style="stroke-width:3.04802" />
    <path
       transform="matrix(0.26458,0,0,0.26458,2.117,1.984)"
       d="M 39,15 V 33"
       stroke="#2a72c2"
       id="path3"
       style="stroke-width:3.04802" />
  </g>
</svg>
