<?xml version="1.0" encoding="UTF-8" standalone="no"?>
<svg
   width="62"
   height="62"
   version="1.1"
   id="svg4"
   sodipodi:docname="droidcam.svg"
   inkscape:version="1.4.2 (unknown)"
   xmlns:inkscape="http://www.inkscape.org/namespaces/inkscape"
   xmlns:sodipodi="http://sodipodi.sourceforge.net/DTD/sodipodi-0.dtd"
   xmlns:xlink="http://www.w3.org/1999/xlink"
   xmlns="http://www.w3.org/2000/svg"
   xmlns:svg="http://www.w3.org/2000/svg">
  <defs
     id="defs4">
    <linearGradient
       id="linearGradient1"
       inkscape:collect="always">
      <stop
         style="stop-color:#79af03;stop-opacity:1;"
         offset="0"
         id="stop4" />
      <stop
         style="stop-color:#8cc804;stop-opacity:1;"
         offset="1"
         id="stop5" />
    </linearGradient>
    <linearGradient
       id="linear0"
       x1="2.9814523"
       x2="15.260703"
       y1="0.87708934"
       y2="13.15634"
       gradientTransform="scale(0.87708946,1.1401349)"
       gradientUnits="userSpaceOnUse">
      <stop
         offset="0%"
         style="stop-color:#e5ff00; stop-opacity:1"
         id="stop1" />
      <stop
         offset="50%"
         style="stop-color:#0073ff; stop-opacity:1"
         id="stop2" />
      <stop
         offset="100%"
         style="stop-color:#ff0000; stop-opacity:1"
         id="stop3" />
    </linearGradient>
    <linearGradient
       id="linear0-3"
       gradientUnits="userSpaceOnUse"
       x1="0"
       y1="0"
       x2="0"
       y2="1"
       gradientTransform="matrix(85.784167,0,0,85.549578,-8.5817205,-9.7878913)">
      <stop
         offset="0"
         style="stop-color:#2478ff;stop-opacity:1;"
         id="stop1-6" />
      <stop
         offset="1"
         style="stop-color:#0049bf;stop-opacity:1;"
         id="stop2-7" />
    </linearGradient>
    <linearGradient
       inkscape:collect="always"
       xlink:href="#linearGradient1"
       id="linearGradient5"
       x1="31"
       y1="58.017544"
       x2="31"
       y2="3.9824567"
       gradientUnits="userSpaceOnUse" />
  </defs>
  <sodipodi:namedview
     id="namedview4"
     pagecolor="#ffffff"
     bordercolor="#000000"
     borderopacity="0.25"
     inkscape:showpageshadow="2"
     inkscape:pageopacity="0.0"
     inkscape:pagecheckerboard="0"
     inkscape:deskcolor="#d1d1d1"
     inkscape:zoom="5.9453125"
     inkscape:cx="25.31406"
     inkscape:cy="38.770039"
     inkscape:current-layer="svg4" />
  <rect
     style="opacity:0.2;stroke-width:0.999971"
     width="55"
     height="55.017544"
     x="3.5"
     y="3.9824567"
     rx="12.6"
     ry="12.6"
     id="rect1" />
  <rect
     style="fill:url(#linearGradient5);stroke-width:0.999971"
     width="55"
     height="55.017544"
     x="3.5"
     y="2.9999995"
     rx="12.6"
     ry="12.6"
     id="rect2" />
  <path
     style="opacity:0.1;fill:#ffffff;stroke-width:0.999971"
     d="m 15.874615,2.9999995 c -6.8557487,0 -12.3746149,5.5206268 -12.3746149,12.3785615 v 0.982457 c 0,-6.8579385 5.5188662,-12.3785625 12.3746149,-12.3785625 h 30.25077 C 52.981135,3.9824555 58.5,9.5030795 58.5,16.361018 V 15.378561 C 58.5,8.5206263 52.981135,2.9999995 46.125385,2.9999995 Z"
     id="path4" />
  <g
     id="g4"
     transform="translate(-1.0000002,-1.6660155)"
     style="fill:#f2f2f2;fill-opacity:1">
    <path
       style="opacity:0.2;fill:#f2f2f2;fill-opacity:1"
       d="m 24.007812,15.332031 -0.816406,0.539063 2.070312,3.105468 C 22.458604,20.753578 20.469036,23.765196 19.726562,27 h 24.54297 c -0.74115,-3.23536 -2.728588,-6.245254 -5.53125,-8.023438 l 2.070312,-3.105468 -0.816406,-0.539063 -2.10547,3.152344 C 36.074708,17.516988 34.054058,17.00766 32,17 c -2.056146,0.0038 -4.07934,0.51073 -5.894532,1.476562 z M 26.5,21 C 27.328427,21 28,21.671573 28,22.5 28,23.328427 27.328427,24 26.5,24 25.671573,24 25,23.328427 25,22.5 25,21.671573 25.671573,21 26.5,21 Z m 11,0 C 38.328427,21 39,21.671573 39,22.5 39,23.328427 38.328427,24 37.5,24 36.671573,24 36,23.328427 36,22.5 36,21.671573 36.671573,21 37.5,21 Z M 15.96875,29 C 14.865718,29.018615 13.984849,30.004349 14,31.203124 v 11.593752 c 0,2.898055 4,2.898055 4,0 V 31.203124 C 18.015491,29.977745 17.096257,28.980732 15.96875,29 Z M 20,29 v 1.574218 2.75 11 V 48.25 C 20,49.7735 21.190636,51 22.667968,51 H 27 v -2 h 4 v -1.925782 -0.1211 C 30.47668,46.86191 29.69832,46.707574 29.300782,46.519532 26.12517,45.381334 24.004788,42.373422 24,39 c 0,-4.418278 3.581722,-8 8,-8 4.418278,0 8,3.581722 8,8 -0.0016,3.32279 -2.057056,6.298658 -5.164062,7.476562 -0.453126,0.208216 -1.275624,0.3828 -1.835938,0.48047 V 47.074218 49 h 4 v 2 h 4.332032 C 42.809364,51 44,49.7735 44,48.25 v -3.925782 -11 -2.75 V 29 Z m 27.96875,0 C 46.865718,29.018615 45.98485,30.004349 46,31.203124 v 11.593752 c 0,2.898057 4,2.898057 4,0 V 31.203124 C 50.01549,29.977745 49.096257,28.980732 47.96875,29 Z M 32,35 c -2.209139,0 -4,1.790861 -4,4 0,2.209139 1.790861,4 4,4 2.209139,0 4,-1.790861 4,-4 0,-2.209139 -1.790861,-4 -4,-4 z m 0,1.332032 C 33.473776,36.331313 34.668687,37.526224 34.667968,39 34.668687,40.473776 33.473776,41.668687 32,41.667968 30.526224,41.668687 29.331313,40.473776 29.332032,39 c 9.34e-4,-0.266297 0.04175,-0.530952 0.121092,-0.785156 C 29.668582,38.692564 30.143908,38.999768 30.667968,39 31.403332,38.999283 31.999283,38.403332 32,37.667968 31.999768,37.143908 31.692564,36.668582 31.214844,36.453124 31.469048,36.373783 31.733703,36.332966 32,36.332032 Z"
       id="path2" />
    <path
       style="fill:#f2f2f2;fill-opacity:1"
       d="m 24.007812,14.332031 -0.816406,0.539063 2.070312,3.105468 C 22.458604,19.753578 20.469036,22.765196 19.726562,26 h 24.54297 c -0.74115,-3.23536 -2.728588,-6.245254 -5.53125,-8.023438 l 2.070312,-3.105468 -0.816406,-0.539063 -2.10547,3.152344 C 36.074708,16.516988 34.054058,16.00766 32,16 c -2.056146,0.0038 -4.07934,0.51073 -5.894532,1.476562 z M 26.5,20 C 27.328427,20 28,20.671573 28,21.5 28,22.328427 27.328427,23 26.5,23 25.671573,23 25,22.328427 25,21.5 25,20.671573 25.671573,20 26.5,20 Z m 11,0 C 38.328427,20 39,20.671573 39,21.5 39,22.328427 38.328427,23 37.5,23 36.671573,23 36,22.328427 36,21.5 36,20.671573 36.671573,20 37.5,20 Z M 15.96875,28 C 14.865718,28.018615 13.984849,29.004349 14,30.203124 v 11.593752 c 0,2.898055 4,2.898055 4,0 V 30.203124 C 18.015491,28.977745 17.096257,27.980732 15.96875,28 Z M 20,28 v 1.574218 2.75 11 V 47.25 C 20,48.7735 21.190636,50 22.667968,50 H 27 v -2 h 4 v -1.925782 -0.1211 C 30.47668,45.86191 29.69832,45.707574 29.300782,45.519532 26.12517,44.381334 24.004788,41.373422 24,38 c 0,-4.418278 3.581722,-8 8,-8 4.418278,0 8,3.581722 8,8 -0.0016,3.32279 -2.057056,6.298658 -5.164062,7.476562 -0.453126,0.208216 -1.275624,0.3828 -1.835938,0.48047 V 46.074218 48 h 4 v 2 h 4.332032 C 42.809364,50 44,48.7735 44,47.25 v -3.925782 -11 -2.75 V 28 Z m 27.96875,0 C 46.865718,28.018615 45.98485,29.004349 46,30.203124 v 11.593752 c 0,2.898057 4,2.898057 4,0 V 30.203124 C 50.01549,28.977745 49.096257,27.980732 47.96875,28 Z M 32,34 c -2.209139,0 -4,1.790861 -4,4 0,2.209139 1.790861,4 4,4 2.209139,0 4,-1.790861 4,-4 0,-2.209139 -1.790861,-4 -4,-4 z m 0,1.332032 C 33.473776,35.331313 34.668687,36.526224 34.667968,38 34.668687,39.473776 33.473776,40.668687 32,40.667968 30.526224,40.668687 29.331313,39.473776 29.332032,38 c 9.34e-4,-0.266297 0.04175,-0.530952 0.121092,-0.785156 C 29.668582,37.692564 30.143908,37.999768 30.667968,38 31.403332,37.999283 31.999283,37.403332 32,36.667968 31.999768,36.143908 31.692564,35.668582 31.214844,35.453124 31.469048,35.373783 31.733703,35.332966 32,35.332032 Z"
       id="path3-6" />
  </g>
</svg>
