<?xml version="1.0" encoding="UTF-8" standalone="no"?>
<svg
   width="62"
   height="62"
   version="1.1"
   id="svg4"
   sodipodi:docname="drweb-gui.svg"
   inkscape:version="1.4.2 (unknown)"
   xmlns:inkscape="http://www.inkscape.org/namespaces/inkscape"
   xmlns:sodipodi="http://sodipodi.sourceforge.net/DTD/sodipodi-0.dtd"
   xmlns:xlink="http://www.w3.org/1999/xlink"
   xmlns="http://www.w3.org/2000/svg"
   xmlns:svg="http://www.w3.org/2000/svg">
  <defs
     id="defs4">
    <linearGradient
       id="linearGradient1"
       inkscape:collect="always">
      <stop
         style="stop-color:#58ab3b;stop-opacity:1;"
         offset="0"
         id="stop4" />
      <stop
         style="stop-color:#82cc66;stop-opacity:1;"
         offset="1"
         id="stop5" />
    </linearGradient>
    <linearGradient
       id="linear0"
       x1="2.9814523"
       x2="15.260703"
       y1="0.87708934"
       y2="13.15634"
       gradientTransform="scale(0.87708946,1.1401349)"
       gradientUnits="userSpaceOnUse">
      <stop
         offset="0%"
         style="stop-color:#e5ff00; stop-opacity:1"
         id="stop1" />
      <stop
         offset="50%"
         style="stop-color:#0073ff; stop-opacity:1"
         id="stop2" />
      <stop
         offset="100%"
         style="stop-color:#ff0000; stop-opacity:1"
         id="stop3" />
    </linearGradient>
    <linearGradient
       id="linear0-3"
       gradientUnits="userSpaceOnUse"
       x1="0"
       y1="0"
       x2="0"
       y2="1"
       gradientTransform="matrix(85.784167,0,0,85.549578,-8.5817205,-9.7878913)">
      <stop
         offset="0"
         style="stop-color:#2478ff;stop-opacity:1;"
         id="stop1-6" />
      <stop
         offset="1"
         style="stop-color:#0049bf;stop-opacity:1;"
         id="stop2-7" />
    </linearGradient>
    <linearGradient
       inkscape:collect="always"
       xlink:href="#linearGradient1"
       id="linearGradient5"
       x1="31"
       y1="58.017544"
       x2="31"
       y2="3.9824567"
       gradientUnits="userSpaceOnUse" />
  </defs>
  <sodipodi:namedview
     id="namedview4"
     pagecolor="#ffffff"
     bordercolor="#000000"
     borderopacity="0.25"
     inkscape:showpageshadow="2"
     inkscape:pageopacity="0.0"
     inkscape:pagecheckerboard="0"
     inkscape:deskcolor="#d1d1d1"
     inkscape:zoom="8.4079416"
     inkscape:cx="26.819882"
     inkscape:cy="34.431733"
     inkscape:current-layer="svg4" />
  <rect
     style="opacity:0.2;stroke-width:0.999971"
     width="55"
     height="55.017544"
     x="3.5"
     y="3.9824567"
     rx="12.6"
     ry="12.6"
     id="rect1" />
  <rect
     style="fill:url(#linearGradient5);stroke-width:0.999971"
     width="55"
     height="55.017544"
     x="3.5"
     y="2.9999995"
     rx="12.6"
     ry="12.6"
     id="rect2" />
  <path
     style="opacity:0.1;fill:#ffffff;stroke-width:0.999971"
     d="m 15.874615,2.9999995 c -6.8557487,0 -12.3746149,5.5206268 -12.3746149,12.3785615 v 0.982457 c 0,-6.8579385 5.5188662,-12.3785625 12.3746149,-12.3785625 h 30.25077 C 52.981135,3.9824555 58.5,9.5030795 58.5,16.361018 V 15.378561 C 58.5,8.5206263 52.981135,2.9999995 46.125385,2.9999995 Z"
     id="path4" />
  <g
     id="g1"
     transform="matrix(0.99982968,0,0,1,2.8975975,-51.000003)"
     style="stroke-width:1.00009">
    <path
       style="opacity:0.2;stroke-width:1.00008"
       d="m 15.206951,66.17219 4.68969,5.862109 2.344842,-1.172422 -3.517265,-3.517264 3.517265,-1.172423 z m 18.758754,0 3.517265,1.172423 -3.517265,3.517264 2.344844,1.172422 4.689686,-5.862109 z m -5.862111,2.344842 c -3.05322,0.0094 -7.049536,1.676423 -7.034531,7.501627 l 7.034531,-3.98436 7.034532,3.98436 C 35.152185,70.194064 31.15658,68.526883 28.103594,68.5175 Z m -17.586329,2.344845 2.344847,7.034531 v -2.344842 h 4.689684 l 1.172422,-2.344847 z m 35.172656,0 -8.206951,2.344842 1.172424,2.344847 h 4.689688 v 2.344842 z m -17.586327,3.517263 -3.517264,2.111276 0.467138,3.283718 1.172422,-3.050171 h 3.755504 l 1.172418,3.050171 0.466627,-3.282779 -3.517265,-2.11036 z m -11.724217,3.517268 -9.3793767,3.517266 4.6896867,2.344845 v -1.172424 l 3.517264,-1.172421 z m 5.862106,0 -4.689687,1.877703 c 0.02938,3.831007 2.176978,7.448632 4.337023,9.209844 1.512424,1.202906 3.40706,2.581671 4.335617,2.980299 1.066905,0.398622 0.476003,-1.97436 0.7058,-2.344847 h 2.344842 c 0.230639,0.371402 -0.362065,2.744404 0.705282,2.344847 0.930155,-0.398132 2.824601,-1.776713 4.337025,-2.98147 2.161942,-1.76098 4.307479,-5.376728 4.337958,-9.208203 l -4.689689,-1.87822 -1.172419,4.689689 h -3.05064 l -1.639047,-4.689689 -1.639046,4.689689 h -3.050641 l -1.172424,-4.689689 z m 17.586331,0 1.172421,3.517266 3.517269,1.172421 v 1.172424 l 4.689685,-2.344845 z m -23.448437,7.034533 -5.862112,2.344842 9.379376,11.72422 z m 23.448437,0 -3.517265,14.069062 9.379372,-11.72422 z"
       id="path2-5" />
    <path
       style="fill:#ffffff;stroke-width:1.00008"
       d="m 15.206951,65.000003 4.68969,5.862106 2.344842,-1.172419 -3.517265,-3.517268 3.517265,-1.172419 z m 18.758754,0 3.517265,1.172419 -3.517265,3.517268 2.344844,1.172419 4.689686,-5.862106 z m -5.862111,2.344842 c -3.05322,0.0094 -7.049536,1.676424 -7.034531,7.501624 l 7.034531,-3.98436 7.034532,3.98436 c 0.01406,-5.824591 -3.981546,-7.491774 -7.034532,-7.501153 z m -17.586329,2.344845 2.344847,7.034534 v -2.344848 h 4.689684 l 1.172422,-2.344842 z m 35.172656,0 -8.206951,2.344844 1.172424,2.344842 h 4.689688 v 2.344848 z m -17.586327,3.517266 -3.517264,2.111272 0.467138,3.283719 1.172422,-3.050173 h 3.755504 l 1.172418,3.050173 0.466627,-3.282781 -3.517265,-2.110358 z m -11.724217,3.517268 -9.3793767,3.517262 4.6896867,2.344846 v -1.172423 l 3.517264,-1.172423 z m 5.862106,0 -4.689687,1.8777 c 0.02938,3.831007 2.176978,7.448633 4.337023,9.209845 1.512424,1.202905 3.40706,2.581674 4.335617,2.980296 1.066905,0.398625 0.476003,-1.97436 0.7058,-2.344842 h 2.344842 c 0.230639,0.371398 -0.362065,2.744402 0.705282,2.344842 0.930155,-0.398131 2.824601,-1.776711 4.337025,-2.981469 2.161942,-1.760977 4.307479,-5.376726 4.337958,-9.208201 l -4.689689,-1.87822 -1.172419,4.689687 h -3.05064 l -1.639047,-4.689687 -1.639046,4.689687 h -3.050641 l -1.172424,-4.689687 z m 17.586331,0 1.172421,3.517262 3.517269,1.172423 v 1.172423 l 4.689685,-2.344846 z m -23.448437,7.034527 -5.862112,2.344847 9.379376,11.724218 z m 23.448437,0 -3.517265,14.069065 9.379372,-11.724218 z"
       id="path3" />
  </g>
</svg>
