<?xml version="1.0" encoding="UTF-8" standalone="no"?>
<svg
   width="62"
   height="62"
   version="1.1"
   id="svg5"
   sodipodi:docname="ds9.svg"
   inkscape:version="1.4.2 (unknown)"
   xmlns:inkscape="http://www.inkscape.org/namespaces/inkscape"
   xmlns:sodipodi="http://sodipodi.sourceforge.net/DTD/sodipodi-0.dtd"
   xmlns="http://www.w3.org/2000/svg"
   xmlns:svg="http://www.w3.org/2000/svg">
  <defs
     id="defs5" />
  <sodipodi:namedview
     id="namedview5"
     pagecolor="#ffffff"
     bordercolor="#000000"
     borderopacity="0.25"
     inkscape:showpageshadow="2"
     inkscape:pageopacity="0.0"
     inkscape:pagecheckerboard="0"
     inkscape:deskcolor="#d1d1d1"
     inkscape:zoom="11.890625"
     inkscape:cx="31.95795"
     inkscape:cy="32"
     inkscape:current-layer="svg5" />
  <g
     id="g5"
     transform="matrix(0.98214203,0,0,0.98245614,-0.42856804,-0.92982455)"
     style="stroke-width:1.01802">
    <circle
       style="opacity:0.2;stroke-width:1.01802"
       cx="32"
       cy="33"
       r="28"
       id="circle1" />
    <circle
       style="fill:#00ccff;stroke-width:1.01802"
       cx="32"
       cy="32"
       r="28"
       id="circle2" />
    <path
       style="opacity:0.2;fill:#ffffff;stroke-width:1.01802"
       d="M 32,4 A 28,28 0 0 0 4,32 28,28 0 0 0 4.0332031,32.482422 28,28 0 0 1 32,5 28,28 0 0 1 59.982422,32.242188 28,28 0 0 0 60,32 28,28 0 0 0 32,4 Z"
       id="path2" />
    <path
       style="opacity:0.2;stroke-width:1.01802"
       d="m 32,5 -2.945312,14.130859 h -0.0059 c -0.11494,-0.1302 -2.557891,-2.883771 -2.61914,-7.017578 -0.0455,-3.1074939 -3.852256,-5.798356 -6.775391,-4.082031 0,0 4.594582,0.5114435 3.0625,6.310547 -1.078358,4.090896 1.276964,6.490889 1.566406,6.763672 -0.0013,0.0013 -0.005,0.0039 -0.0078,0.0039 l -12.076172,-7.910156 6.449219,9.839843 1.46289,2.234376 c -7.56e-4,0 3.44e-4,0.0045 0,0.0059 -0.120679,-0.0084 -3.82741,-0.208564 -6.820312,-3.111328 -2.231198,-2.164355 -6.8242834,-1.377491 -7.6757816,1.904297 0,0 3.6095458,-2.887841 6.6289066,2.296875 2.127597,3.657792 5.490154,3.685231 5.888671,3.675781 -0.0011,0.0014 -0.002,0.007 -0.002,0.0098 L 4.0703125,32.982422 a 28,28 0 0 0 0.00195,0.03125 l 14.0585935,2.929687 v 0.0039 c -0.09296,0.0819 -2.855207,2.558527 -7.017578,2.621093 -2.4974044,0.03555 -4.7228967,2.50257 -4.611328,4.986329 a 28,28 0 0 0 0.6601563,1.230468 c 0.347756,-1.163587 1.630854,-3.706608 6.1796877,-2.505859 4.096403,1.080768 6.495854,-1.281451 6.765625,-1.564453 0.0014,0.0042 0.0031,0.0042 0.0059,0.0098 L 12.636757,52.13284 a 28,28 0 0 0 0.230469,0.230469 L 24.275429,44.8887 c -0.0042,0.12348 -0.207346,3.827432 -3.107422,6.816406 -1.46679,1.509994 -1.576378,4.102227 -0.476563,5.884766 a 28,28 0 0 0 1.810547,0.675781 c -0.456882,-1.300614 -0.548486,-3.522951 2.865235,-5.509766 3.653629,-2.128808 3.685854,-5.491189 3.677734,-5.890625 0.0042,0.0028 0.007,0.0039 0.0098,0.0039 l 2.734374,13.115234 A 28,28 0 0 0 32,60 28,28 0 0 0 32.210938,59.98437 l 2.732421,-13.115234 h 0.002 c 0.1053,0.11536 2.557699,2.871158 2.619141,7.013671 0.03139,2.065431 1.721671,3.938878 3.708985,4.466797 a 28,28 0 0 0 1.958984,-0.732421 c -1.250687,-0.567264 -2.985354,-2.051734 -1.955078,-5.960938 1.08138,-4.08807 -1.273691,-6.4854 -1.564453,-6.763672 0.0026,-0.0014 0.0077,-0.0031 0.01367,-0.0059 l 11.408204,7.474609 a 28,28 0 0 0 0.228515,-0.228516 l -7.476608,-11.41011 c 0.1675,0.007 3.844435,0.22395 6.814453,3.107422 1.796914,1.742214 5.120574,1.571283 6.794922,-0.271484 a 28,28 0 0 0 0.523437,-1.404297 c -0.955501,0.561268 -3.793009,1.723158 -6.265625,-2.525391 h -0.002 c -2.123628,-3.64438 -5.47238,-3.685231 -5.888672,-3.675781 0.003,-0.0042 0.0047,-0.0056 0.0059,-0.0098 l 14.058593,-2.929687 a 28,28 0 0 0 0.002,-0.03125 l -14.060547,-2.927734 -0.002,-0.0059 c 0.14652,-0.13258 2.895725,-2.556315 7.013671,-2.617187 3.110864,-0.04732 5.799825,-3.852972 4.083985,-6.775391 0,0 -0.511796,4.59242 -6.3125,3.0625 -4.079758,-1.075464 -6.476756,1.266961 -6.759766,1.560547 -0.0017,0 -0.0035,-5.53e-4 -0.0059,-0.002 L 51.800732,13.199098 39.72456,21.111207 c -0.0013,0 -0.0047,-0.001 -0.0059,-0.0039 0.0104,-0.174674 0.230042,-3.847717 3.107422,-6.8125 2.166356,-2.232406 1.379234,-6.8255217 -1.902344,-7.6777345 0,0 2.888841,3.6084965 -2.296875,6.6269535 -3.645126,2.122579 -3.685237,5.472708 -3.675781,5.886718 h -0.0078 z"
       id="path3" />
    <path
       style="fill:#ffd633;stroke-width:1.01802;fill-opacity:1"
       d="m 51.752724,38.629756 c -2.123628,-3.64438 -5.47232,-3.686156 -5.888612,-3.676706 0.003,-0.0042 0.003,-0.0056 0.0042,-0.0098 L 60,31.997956 45.868312,29.053978 l -0.0013,-0.0042 c 0.14652,-0.13258 2.896096,-2.556624 7.014042,-2.617496 3.110864,-0.04732 5.800514,-3.853842 4.084674,-6.776261 0,0 -0.511954,4.593371 -6.312658,3.063451 -4.079758,-1.075464 -6.477892,1.266966 -6.760902,1.560552 -0.0017,0 -0.003,-0.0014 -0.0054,-0.0028 l 7.91318,-12.07723 -12.075554,7.910708 c -0.0013,0 -0.0048,-0.0013 -0.006,-0.0042 0.0104,-0.174674 0.230646,-3.846269 3.108026,-6.811052 2.166356,-2.232406 1.378952,-6.8255958 -1.902626,-7.6778086 0,0 2.889294,3.6082748 -2.296422,6.6267316 -3.645126,2.122579 -3.685962,5.473374 -3.676506,5.887384 -0.0026,0 -0.0036,0 -0.0074,0 L 31.999406,4 29.054528,18.131757 c -0.0011,0 -0.0042,0 -0.0056,0 -0.11494,-0.1302 -2.558458,-2.883864 -2.619708,-7.017671 -0.0455,-3.1074942 -3.851764,-5.7992842 -6.774899,-4.0829592 0,0 4.593611,0.5111678 3.061529,6.3102712 -1.078358,4.090896 1.277612,6.491187 1.567054,6.76397 -0.0013,0.0013 -0.0042,0.0042 -0.007,0.0042 l -12.075747,-7.911085 6.447641,9.839713 1.463842,2.236004 c -7.56e-4,0 -7.56e-4,0.0028 -0.0011,0.0042 -0.120679,-0.0084 -3.825859,-0.206816 -6.818761,-3.10958 -2.231198,-2.164355 -6.825172,-1.378878 -7.6766702,1.90291 0,0 3.6097808,-2.887826 6.6291412,2.29689 2.127597,3.657792 5.490091,3.686716 5.888609,3.677266 -0.0011,0.0014 -0.0011,0.0056 -0.0011,0.0084 L 4.0000004,31.99825 18.131691,34.943558 v 0.0042 c -0.09296,0.0819 -2.856216,2.558332 -7.018587,2.620898 -3.1076464,0.04424 -5.8014578,3.852146 -4.084475,6.77419 0,0 0.5117668,-4.594324 6.31265,-3.063074 4.096403,1.080768 6.495858,-1.282842 6.765629,-1.565844 0.0014,0.0042 0.0042,0.0056 0.007,0.0112 L 12.203571,51.797066 24.274964,43.88843 c -0.0042,0.12348 -0.20701,3.82737 -3.107086,6.816344 -2.165595,2.229382 -1.37819,6.824462 1.902626,7.676856 0,0 -2.886834,-3.609212 2.297182,-6.626354 3.65363,-2.128808 3.684446,-5.489822 3.676326,-5.889258 0.0042,0.0028 0.0084,0.0028 0.0112,0.0028 L 32.000092,60 34.944026,45.868818 c 0,0 0,0 0.002,0 0.1053,0.11536 2.556938,2.872314 2.61838,7.014828 0.04726,3.109958 3.852706,5.801174 6.775838,4.085984 0,0 -4.592656,-0.51079 -3.063598,-6.312538 1.08138,-4.08807 -1.272136,-6.4857 -1.562898,-6.763972 0.0026,-0.0014 0.0068,-0.0042 0.0128,-0.007 l 12.072526,7.909572 -7.911666,-12.07345 c 0.1675,0.007 3.844198,0.224022 6.814216,3.107494 2.232902,2.16493 6.825938,1.379452 7.678376,-1.902714 -1.88e-4,-1.96e-4 -3.609962,2.886496 -6.626864,-2.297268"
       id="path4" />
    <path
       style="opacity:0.2;fill:#ffffff;stroke-width:1.01802"
       d="m 32,4 -2.945312,14.130859 h -0.0059 c -0.11494,-0.1302 -2.557891,-2.883771 -2.61914,-7.017578 -0.0455,-3.1074939 -3.852256,-5.798356 -6.775391,-4.082031 0,0 0.688841,0.079974 1.443359,0.5097656 2.595805,-0.3494192 5.293766,1.9588615 5.332032,4.5722654 0.06125,4.133807 2.5042,6.887378 2.61914,7.017578 h 0.0059 L 32,5 34.943359,19.130859 h 0.0078 c -0.0095,-0.41401 0.03066,-3.764139 3.675781,-5.886718 2.805717,-1.633128 3.242006,-3.4345041 3.056641,-4.7480472 -0.157934,1.1531505 -0.911976,2.4996982 -3.056641,3.7480472 -3.645126,2.122579 -3.685237,5.472708 -3.675781,5.886718 h -0.0078 z m 8.923828,1.6171875 c 0,0 0.370012,0.4774278 0.607422,1.2148437 1.483481,0.6592145 2.329278,2.1596964 2.482422,3.7324218 C 44.206176,8.4610635 43.133581,6.1910516 40.923828,5.6171875 Z M 23.001953,11.619141 c -0.03429,0.517553 -0.116096,1.082745 -0.285156,1.722656 -0.250636,0.950822 -0.311113,1.805679 -0.259766,2.568359 0.03354,-0.492132 0.113312,-1.012766 0.259766,-1.568359 0.285632,-1.081148 0.355891,-1.978146 0.285156,-2.722656 z m -10.802734,0.580078 1.148437,1.751953 10.927735,7.158203 c 0.0028,0 0.0065,-0.0026 0.0078,-0.0039 -0.136913,-0.129033 -0.733409,-0.750297 -1.212891,-1.785157 z m 39.601562,0 -11.923828,7.8125 c -0.120395,0.614215 -0.154938,1.040858 -0.158203,1.095703 0.0012,0.0029 0.0046,0.0039 0.0059,0.0039 l 10.927735,-7.160156 z m 5.164063,7.457031 c 0,0 -0.511796,4.59242 -6.3125,3.0625 -2.495542,-0.657849 -4.352312,-0.03539 -5.490235,0.613281 l -1.27539,1.945313 c 0.0024,0.0014 0.0042,0.002 0.0059,0.002 0.28301,-0.293586 2.680008,-2.636011 6.759766,-1.560547 5.800704,1.52992 6.3125,-3.0625 6.3125,-3.0625 0.279311,0.475723 0.431122,0.975967 0.49414,1.478516 0.103086,-0.829799 -0.02892,-1.686154 -0.49414,-2.478516 z m -46.857422,0.298828 c -1.9654557,-0.0098 -3.9600012,1.06607 -4.4921876,3.117188 0,0 0.2692298,-0.205293 0.703125,-0.408204 1.6018487,-2.046193 5.1082596,-2.304636 6.9726566,-0.496093 2.992902,2.902764 6.699633,3.102928 6.820312,3.111328 3.44e-4,-0.0014 -7.56e-4,-0.0059 0,-0.0059 L 19.40625,24.195312 c -1.23683,-0.197043 -3.875592,-0.855153 -6.115234,-3.027343 -0.8367,-0.811633 -2.004321,-1.206982 -3.183594,-1.212891 z m 36.816406,9.31836 c -0.624913,0.402758 -1.005851,0.729433 -1.05664,0.77539 l 0.002,0.0059 11.730468,2.443359 2.400391,-0.5 z M 15.765625,29.546875 4,31.998047 l 2.4003906,0.5 11.7304684,-2.443359 c 0,-0.0028 8.53e-4,-0.0084 0.002,-0.0098 -0.203254,0.0048 -1.178984,-0.0065 -2.367187,-0.498047 z m 32.462891,5.904297 -2.359375,0.492187 c -0.0012,0.0042 -0.0029,0.0056 -0.0059,0.0098 0.416292,-0.0095 3.765044,0.0314 5.888672,3.675781 h 0.002 c 2.212724,3.801993 4.731313,3.260759 5.923828,2.703125 0.314324,-0.402097 0.563259,-0.865765 0.703125,-1.404297 -1.88e-4,-1.96e-4 -3.610051,2.884936 -6.626953,-2.298828 h -0.002 c -1.043977,-1.79158 -2.381265,-2.705522 -3.523437,-3.177734 z m -31.152344,0.271484 c -1.177108,0.759181 -3.268674,1.805206 -5.962891,1.845703 -2.6017713,0.03704 -4.9020303,2.712183 -4.5781248,5.296875 0.2777035,-2.230784 2.3130616,-4.26463 4.5781248,-4.296875 4.162371,-0.06257 6.924618,-2.539193 7.017578,-2.621093 v -0.0039 z m 3.03125,4.992188 C 20.002568,40.82484 19.56666,41.24789 18.84375,41.662109 l -6.640625,10.134766 1.148437,-0.751953 6.761719,-10.320313 c -0.0028,-0.0056 -0.0045,-0.0056 -0.0059,-0.0098 z m 23.779297,0.0078 6.763672,10.320313 1.148437,0.751953 -7.203125,-10.992188 c -0.404798,-0.06409 -0.667684,-0.07835 -0.708984,-0.08008 z m -4.160157,4.164063 c -0.006,0.0028 -0.01107,0.0045 -0.01367,0.0059 0.222672,0.213107 1.65123,1.673289 1.824218,4.179688 0.09431,-1.415244 -0.220158,-2.55097 -0.617187,-3.404297 z m -15.451171,0.002 -0.158203,0.103516 c -0.263334,1.343127 -0.977335,3.68056 -2.949219,5.71289 -0.93759,0.965207 -1.319657,2.374108 -1.1875,3.730469 0.09297,-1.020761 0.479728,-2.00185 1.1875,-2.730469 2.900076,-2.988974 3.103222,-6.692926 3.107422,-6.816406 z m 16.716797,8.476562 c -0.160615,2.368804 0.921972,3.534085 1.904296,4.09375 0.490735,-0.06595 0.978583,-0.21752 1.44336,-0.490234 0,0 -3.045323,-0.339654 -3.347656,-3.603516 z M 22.3125,56.507812 c -0.08573,0.632538 0.0023,1.19703 0.152344,1.66211 0.191486,0.08497 0.392928,0.155717 0.605468,0.210937 0,0 -0.599669,-0.761915 -0.757812,-1.873047 z"
       id="path5" />
  </g>
</svg>
