<?xml version="1.0" encoding="UTF-8" standalone="no"?>
<svg
   width="64"
   height="64"
   version="1.1"
   id="svg13"
   sodipodi:docname="dsda-doom.svg"
   inkscape:version="1.4.2 (unknown)"
   xmlns:inkscape="http://www.inkscape.org/namespaces/inkscape"
   xmlns:sodipodi="http://sodipodi.sourceforge.net/DTD/sodipodi-0.dtd"
   xmlns="http://www.w3.org/2000/svg"
   xmlns:svg="http://www.w3.org/2000/svg">
  <defs
     id="defs13" />
  <sodipodi:namedview
     id="namedview13"
     pagecolor="#ffffff"
     bordercolor="#000000"
     borderopacity="0.25"
     inkscape:showpageshadow="2"
     inkscape:pageopacity="0.0"
     inkscape:pagecheckerboard="0"
     inkscape:deskcolor="#d1d1d1"
     inkscape:zoom="4.2039708"
     inkscape:cx="32.707173"
     inkscape:cy="20.813656"
     inkscape:current-layer="svg13" />
  <g
     id="g13"
     transform="translate(0.49994465,1.2142022e-4)">
    <path
       style="opacity:0.2;stroke-width:0.999973"
       d="m 13.940693,7.1135229 c -0.03783,0.017 -0.224286,0.1301576 -0.414061,0.2532882 C 12.334949,8.1399882 10.412765,8.5855257 9.2595091,8.9786459 8.5903069,9.206764 7.7093221,9.4484685 6.5106089,9.7308363 5.7663854,9.9061448 5.2759281,9.9525272 5.1610793,10.179844 c -0.08426,0.166786 -0.085449,0.25996 -0.011501,0.410637 0.062819,0.127988 0.1395541,0.174868 0.5942526,0.341554 1.9424976,0.712106 5.5421711,1.098908 7.6677781,0.982456 0.953521,-0.05227 1.106273,-0.09204 1.154009,-0.280155 0.05119,-0.20175 -0.06811,-0.469322 -0.529083,-1.205037 -0.350498,-0.5593933 -0.523975,-0.892735 -0.590412,-1.143636 -0.04081,-0.1541508 -0.04233,-0.2071287 -0.01534,-0.3876084 0.06147,-0.4111318 0.525877,-0.820097 0.83962,-1.289468 L 14.44293,7.3476228 14.335582,7.2478428 C 14.203232,7.123669 14.040463,7.0686826 13.940693,7.1135229 Z m 0.494571,4.8086401 c -0.140654,0.04243 -0.320617,0.138601 -0.578924,0.295501 -1.784679,1.084116 -2.714437,1.274834 -5.0914032,1.811401 -1.2774042,0.288355 -1.5987325,0.385666 -1.5987325,0.491226 0,0.151439 0.8745521,0.315217 1.5220549,0.283983 0.09703,-0.0048 0.3111975,-0.01488 0.4754026,-0.02304 0.5837504,-0.02887 1.7084032,-0.217087 2.5725402,-0.429825 0.510605,-0.1257 2.572683,0.0024 2.691389,-0.05759 0.231378,-0.116937 0.17227,-1.190767 0.37956,-1.60416 0.198021,-0.394928 0.189239,-0.651057 -0.02681,-0.752187 -0.102489,-0.048 -0.204401,-0.05785 -0.345049,-0.01533 z m 22.968839,33.906099 c -0.06088,-0.03104 -0.120309,-0.0209 -0.172527,0.05372 -0.471038,0.619859 -0.939955,1.309809 -1.633233,1.700103 -0.3581,0.235465 -1.527981,-0.129785 -1.311192,0.510411 0.655904,0.759932 1.262617,1.586288 2.031959,2.241221 0.723101,0.140647 1.279192,0.705878 1.909281,1.059207 1.113828,0.746825 2.226863,1.494532 3.323983,2.264239 -0.03914,0.428173 0.366713,0.851102 0.302879,1.216556 -0.800858,1.385609 -2.033651,2.500498 -3.465837,3.231346 -0.808585,0.503078 -1.776328,0.839642 -2.392349,1.588804 0.476097,0.03057 1.156983,-0.333526 1.721417,-0.376092 0.973031,-0.173109 2.029817,-0.320964 2.948261,0.145838 0.645897,0.218765 1.197204,0.776112 1.893944,0.37993 1.311851,-0.33969 2.675228,-0.800012 4.04092,-0.475874 0.444783,-0.02074 1.132057,0.55837 1.368698,0.353066 -0.689026,-1.892656 -1.677538,-3.668197 -2.794904,-5.345917 -0.159805,-0.632883 -0.461345,-1.320817 -1.146337,-1.542757 -0.592751,-0.310038 -0.979387,-0.899432 -1.476049,-1.33552 -1.064704,-1.063506 -2.075701,-2.193134 -3.270306,-3.120053 -0.229132,-0.758656 -0.858708,-1.314007 -1.32653,-1.934202 -0.162687,-0.0713 -0.369415,-0.520817 -0.552078,-0.614034 z m -21.684486,3.269726 c -0.165639,0.0155 -0.326374,0.06224 -0.479238,0.15735 -1.379214,0.638409 -2.518274,0.784961 -3.987244,1.120608 -0.514804,0.09508 -1.023352,0.251394 -1.5527285,0.207236 -0.6069907,-0.0881 -1.2273801,0.147346 -1.5028854,0.717652 -0.469059,0.563466 -0.028758,1.186276 0.2913757,1.688589 0.430961,0.713903 0.35487,2.270166 0.4715685,3.066322 0.07739,0.6689 0.08289,1.349892 0.2108641,2.010956 0.4546161,0.594869 1.1646746,0.937172 1.7904276,1.331682 0.541154,0.327716 0.734255,0.614666 1.387871,0.575655 0.898788,0.0386 1.804755,0.03432 2.702889,-0.0153 0.459764,-0.100739 1.199961,-0.04224 1.414708,-0.510411 -0.683067,0.06473 -1.367841,-0.622532 -0.651763,-1.1398 0.329698,-0.363575 0.683217,-0.775828 0.751441,-1.270276 -0.843967,0.10414 -1.804814,0.421907 -2.57637,-0.10363 -0.42527,-0.219333 0.570277,-1.199171 -0.237705,-1.028523 -0.755227,0.164589 -1.136449,0.263423 -1.909279,0.176533 -0.433556,-0.330925 -0.454419,-1.709452 -0.448564,-2.225864 0.302533,-0.425339 0.519994,-0.662327 0.962308,-0.932563 1.534075,-0.09728 3.077644,-0.02578 4.60834,0.09596 0.735732,0.04318 1.433671,0.665166 2.177647,0.36458 0.617898,-0.33452 1.092535,-0.895147 1.445376,-1.489028 0.232022,-0.51658 -0.153951,-1.068521 -0.490736,-1.446817 -0.771847,-0.701811 -1.855513,-0.898185 -2.844746,-1.128287 -0.497005,-0.03487 -1.03664,-0.268864 -1.533557,-0.222585 z"
       id="path1" />
    <path
       style="fill:#e38900;stroke-width:0.999973"
       d="m 35.903074,14.177037 c 0.258472,0.01296 0.516063,-0.26047 0.903645,-0.621298 0,0 0.722346,-0.654256 0.927558,-0.820744 0.205212,-0.166494 0.386215,-0.326861 0.402224,-0.356362 0.0599,-0.110448 -0.214452,-0.928298 -0.516151,-1.03219 -0.604951,-0.164337 -0.948659,0.05801 -1.534382,0.244488 -0.526928,0.156931 -1.740779,0.683382 -2.346109,1.147664 l -0.554927,0.425624 0.07612,0.148824 c 0.237856,0.464786 1.40721,0.803435 1.860433,0.905573 0.213826,0.04814 0.535737,-0.05384 0.781537,-0.0416 z"
       id="path2" />
    <path
       style="fill:#ff9a00;stroke-width:0.999973;fill-opacity:1"
       d="m 42.559416,58.861323 c 1.311851,-0.33969 2.675914,-0.800957 4.041606,-0.476814 0.444783,-0.02074 1.133684,0.558958 1.370325,0.353662 -0.689023,-1.892655 -1.678043,-3.670834 -2.795411,-5.348552 -0.159804,-0.632886 -0.462266,-1.317919 -1.147253,-1.539859 -0.592757,-0.310038 -0.980317,-0.90102 -1.476974,-1.337109 -1.064706,-1.063502 -2.075335,-2.191305 -3.269935,-3.11822 -0.229137,-0.758661 -0.85634,-1.316628 -1.324157,-1.93683 -0.216927,-0.09508 -0.516879,-0.858554 -0.725781,-0.559961 -0.471037,0.619861 -0.940858,1.311478 -1.63414,1.70177 -0.358099,0.235472 -1.526748,-0.129291 -1.30996,0.510911 0.655904,0.759932 1.260952,1.586424 2.030294,2.241358 0.723102,0.140645 1.279639,0.705091 1.909729,1.058418 1.113828,0.746826 2.227469,1.495729 3.324589,2.265436 -0.03914,0.428173 0.366849,0.850798 0.303014,1.216245 -0.800853,1.385612 -2.033084,2.499638 -3.46527,3.230485 -0.808583,0.503078 -1.776131,0.839366 -2.39215,1.58853 0.476097,0.03055 1.157802,-0.335495 1.722235,-0.378062 0.973032,-0.173108 2.028306,-0.317892 2.946753,0.1489 0.645892,0.218763 1.195745,0.775868 1.892486,0.379686 z"
       id="path3" />
    <path
       style="opacity:0.2;stroke-width:0.999973"
       d="m 18.220314,4.9823224 c -1.294244,-0.0068 -2.175889,0.2758842 -3.112987,0.9836098 -1.17195,0.8850912 -2.052517,2.3330361 -1.918398,3.15448 0.06061,0.3713213 0.418119,1.0934278 1.130293,2.2829718 0.214826,0.358835 0.242109,0.441967 0.241459,0.736197 -0.0011,0.506661 -0.23099,1.009446 -0.703816,1.539305 -0.1882,0.210896 -0.284616,0.363992 -0.284616,0.451964 0,0.07986 0.127289,0.212194 0.275176,0.286109 0.17652,0.0882 0.584849,0.181439 1.163319,0.265617 1.245288,0.181202 1.564552,0.289466 1.50809,0.51136 -0.02281,0.08963 -0.338887,0.413637 -0.598853,0.613836 -0.457574,0.352379 -0.940453,0.602526 -2.212872,1.146376 -1.835454,0.784507 -2.908406,1.357664 -3.9889802,2.130822 -2.4379192,1.744357 -3.8583842,4.065166 -4.097282,6.694212 -0.042732,0.470215 -0.027595,1.339192 0.023323,1.338165 0.00895,-1.88e-4 0.1130854,-0.199331 0.2312844,-0.442604 0.2981503,-0.613638 0.5375598,-1.004371 0.748931,-1.222137 0.1462439,-0.150668 0.1917414,-0.182068 0.2635681,-0.182068 0.1528218,0 0.1973449,0.0738 0.7752246,1.284985 1.3670302,2.865238 2.1693871,4.348356 3.0341051,5.608434 0.707048,1.030315 1.293174,1.629318 1.856482,1.897311 0.275685,0.131159 0.827962,0.346223 2.348415,0.914486 3.072049,1.148172 5.18961,2.041257 7.273877,3.067743 3.270225,1.610554 5.366703,2.985346 7.626715,5.00144 1.537788,1.371815 2.87235,2.796819 4.576814,4.886884 0.360207,0.441695 0.856119,1.206298 0.856119,1.206298 l 0.103055,0.103901 0.193115,-0.0143 c 0.1134,-0.0086 0.262969,-0.04236 0.362325,-0.08216 0.631713,-0.253183 1.316696,-1.386583 2.045936,-2.582836 l 0.165556,-0.271629 c 0,0 0.927082,-0.09084 0.56265,-0.09918 l 0.36445,0.0086 c 0.742216,0.0171 1.807739,-0.08114 2.587597,-0.238374 1.160458,-0.233994 1.948891,-0.566426 3.069413,-1.294294 0.413902,-0.268865 0.785368,-0.552586 0.829137,-0.633237 0.01888,-0.03494 0.01888,-0.06756 -6.25e-4,-0.103257 -0.0385,-0.07094 -0.505769,-0.446075 -0.947087,-0.760292 -0.199546,-0.142084 -0.351132,-0.258295 -0.336881,-0.258295 0.01431,0 0.146965,0.0179 0.294951,0.03996 0.828245,0.123043 1.837773,0.0573 2.505114,-0.163184 0.31386,-0.103689 1.2191,-0.495871 1.504276,-0.651697 0.142038,-0.0776 0.3082,-0.189868 0.369217,-0.249458 0.266093,-0.259859 0.11091,-0.405033 -1.042024,-0.974825 l -0.623723,-0.308229 0.270882,0.0189 c 0.516917,0.03591 1.375897,-0.06423 1.843865,-0.214897 0.543981,-0.175152 1.040815,-0.48736 1.50952,-0.94863 0.342091,-0.336661 0.513121,-0.58067 0.533765,-0.761342 0.01548,-0.135832 -0.002,-0.152692 -0.237116,-0.228541 -0.293916,-0.0948 -1.603162,-0.342124 -2.220609,-0.419494 -0.174699,-0.02188 -0.155346,-0.04672 0.06915,-0.08866 0.272829,-0.05104 0.760696,-0.998528 1.038475,-1.12946 0.229592,-0.108206 0.289016,-0.152553 0.543673,-0.405689 0.432171,-0.42957 0.801829,-1.553494 0.781428,-1.763041 l -0.0088,-0.0885 -0.257844,-0.02522 C 50.75071,34.515779 41.88274,34.32474 38.319299,34.361912 l -2.04195,0.03016 -0.266909,0.107087 c -1.515575,0.735348 -4.105368,2.476715 -5.414852,2.049756 -0.939953,-0.462786 -1.893826,-1.367391 -2.842156,-2.14961 -1.891491,-1.560173 -2.980232,-3.185122 -3.226133,-4.452752 -0.178862,-0.922101 0.246729,-2.048078 1.011176,-2.675121 0.115618,-0.09484 0.442297,-0.322979 0.725921,-0.506967 0.592316,-0.384237 0.740257,-0.503765 1.03609,-0.837524 0.675791,-0.762419 2.846516,-3.533642 6.734099,-8.245332 l 1.391527,-2.080047 0.574153,-0.03245 c 1.077541,-0.0609 1.964964,-0.158495 2.881117,-0.31675 1.339629,-0.231403 2.278509,-0.546237 2.961107,-0.992968 0.303526,-0.198641 0.723156,-0.593866 0.903088,-0.850591 0.138353,-0.197398 0.329145,-0.421512 0.329145,-0.486428 0,-0.04728 -0.190172,-0.04432 -1.262072,0.01961 -1.24184,0.0741 -2.450531,0.03231 -3.039833,0.103537 -0.394006,0.04761 -0.680422,0.213864 -1.783108,1.035166 -0.977046,0.727717 -1.135627,0.8036 -1.583586,0.757783 -0.710271,-0.07265 -1.251334,-0.419095 -1.582356,-1.01331 l -0.07209,-0.129458 -5.42901,4.88949 c -3.233151,2.911849 -5.472613,4.515506 -5.545425,4.547024 -0.282469,0.122276 -1.782145,0.66503 -2.367552,0.856867 -1.021829,0.334851 -1.497001,0.438511 -1.774678,0.38713 -0.143185,-0.02648 -0.319569,-0.207794 -0.381945,-0.392567 -0.181061,-0.536419 0.129656,-1.324671 0.789379,-2.002617 0.310716,-0.319443 0.502193,-0.455547 1.342178,-0.954064 1.487069,-0.882547 2.90203,-1.346239 3.647928,-2.103685 0.772617,-0.784575 1.31358,-1.59318 1.745685,-2.609395 0.53982,-1.269515 0.860958,-3.03048 0.809945,-4.441613 C 26.561523,11.13298 26.362094,10.4279 25.910009,9.4741301 25.287683,8.1610456 23.969376,6.3840421 23.298963,5.9545111 22.510786,5.4494769 20.01279,5.0382595 18.484815,4.9876365 c -0.0901,-0.00294 -0.178238,-0.0047 -0.264521,-0.00516 z m 31.087858,7.7735016 c -2.787193,-7.6e-5 -6.125717,0.07533 -6.188227,0.139713 -0.01848,0.01898 -0.01668,0.02212 0.0056,0.01002 0.02208,-0.01226 0.05093,0.04045 0.08943,0.163393 0.253273,0.808763 0.009,1.396451 -0.774376,2.161624 -0.917072,0.883015 -2.329169,1.855653 -3.14818,2.970169 2.277512,-0.284102 3.960197,-0.84077 6.134682,-1.478284 2.057566,-0.666184 3.75173,-1.440144 4.728426,-2.160151 0.490282,-0.361434 0.87729,-0.774786 1.063334,-1.13566 0.08839,-0.171477 0.148263,-0.327479 0.125433,-0.477741 -0.01059,-0.06979 -0.01708,-0.131485 -0.01431,-0.1372 0.0224,-0.04661 -0.309024,-0.05573 -2.021663,-0.05573 z m 2.818354,0.0259 -0.407121,0.0011 0.218453,0.08829 c 0.237986,0.09622 0.479923,0.102249 0.574105,0.203453 0.0954,0.102519 0.150715,0.259495 0.130024,0.368983 -0.03387,0.179309 -0.263011,0.737112 -0.457376,1.113386 -0.393295,0.761387 -0.909862,1.430774 -1.663041,2.155033 -1.767238,1.699359 -4.226596,3.340998 -7.305102,4.100858 -0.872586,0.215374 -2.041751,0.42538 -2.760734,0.495877 -0.164197,0.0161 -0.33687,0.03494 -0.383686,0.0419 l -0.08516,0.0126 0.285411,0.487936 c 1.656912,2.832189 2.2977,4.030424 2.521227,4.714705 0.05045,0.154442 0.09792,0.25108 0.135288,0.275234 0.08891,0.05752 0.356701,0.145149 0.566738,0.185508 0.258064,0.04958 1.016998,0.03004 1.561629,-0.04028 0.401675,-0.05186 1.117895,-0.182738 1.335708,-0.244123 0.09627,-0.02712 0.101779,-0.03464 0.101779,-0.137977 0,-0.14672 -0.109929,-0.62126 -0.270089,-1.166094 -0.07229,-0.245944 -0.11407,-0.423446 -0.09274,-0.394441 0.408619,0.556373 0.832966,0.920836 1.278086,1.097796 0.480364,0.190969 1.294096,0.131949 2.186465,-0.158641 0.56565,-0.18419 1.249859,-0.500695 1.28662,-0.595175 0.04254,-0.109405 -0.291777,-0.765337 -0.786467,-1.542915 -0.128748,-0.202369 -0.22872,-0.367938 -0.222163,-0.367938 0.0066,0 0.07626,0.04058 0.154956,0.09014 0.07866,0.04958 0.265159,0.150451 0.414436,0.22415 1.408473,0.695312 2.652305,0.527878 3.653742,-0.491856 0.290135,-0.295439 0.675304,-0.775913 0.675304,-0.84244 0,-0.142869 -0.657312,-0.671865 -1.791329,-1.441634 -0.201528,-0.136796 -0.335875,-0.242671 -0.298558,-0.235286 0.03728,0.0076 0.220523,0.04386 0.407122,0.08108 0.54005,0.107715 0.824157,0.137248 1.302785,0.13532 0.362464,-0.0015 0.485283,-0.0122 0.644447,-0.05594 0.710877,-0.195664 1.471309,-0.985721 2.029131,-2.108231 0.200997,-0.404474 0.386992,-0.86399 0.412529,-1.019217 0.01199,-0.07302 0.0018,-0.09118 -0.07812,-0.139919 -0.230404,-0.140449 -1.050377,-0.749448 -2.315867,-1.002112 -0.704732,-0.140705 -0.823749,-0.170865 -0.732814,-0.185718 0.741057,-0.121069 1.250787,-0.245792 1.519913,-0.371913 0.46268,-0.216823 1.330358,-0.96767 1.627046,-1.407967 0.349118,-0.518103 0.523175,-1.069518 0.498354,-1.578785 -0.01001,-0.206969 0.01239,-0.05893 -0.551203,-0.117489 -0.948989,-0.09851 -4.042681,-0.230744 -5.319701,-0.227334 z"
       id="path4" />
    <path
       style="fill:#ff9a00;stroke-width:0.999973;fill-opacity:1"
       d="m 15.05143,58.975287 c 0.459764,-0.100744 1.199597,-0.04078 1.414338,-0.508908 -0.683066,0.06476 -1.367121,-0.625277 -0.651042,-1.142541 0.329698,-0.363578 0.684137,-0.773878 0.752361,-1.268332 -0.843967,0.104143 -1.804812,0.421861 -2.576374,-0.103666 -0.425271,-0.219317 0.569737,-1.199538 -0.238247,-1.028889 -0.755224,0.16459 -1.137507,0.264029 -1.910327,0.177145 -0.433556,-0.330926 -0.453173,-1.71132 -0.447319,-2.227732 0.302541,-0.425338 0.520177,-0.663093 0.962492,-0.933332 1.534075,-0.09728 3.077205,-0.02298 4.607899,0.09877 0.735737,0.04318 1.432976,0.663677 2.176952,0.363091 0.617898,-0.334519 1.094928,-0.896352 1.447766,-1.490234 0.232022,-0.516578 -0.153346,-1.068382 -0.490138,-1.446675 -0.771838,-0.701815 -1.857737,-0.898185 -2.846979,-1.128289 -0.662667,-0.0465 -1.401836,-0.444915 -2.0133,-0.06446 -1.379219,0.638409 -2.518942,0.785861 -3.987921,1.121504 -0.514797,0.09508 -1.023234,0.251069 -1.5526065,0.206912 -0.606991,-0.0881 -1.2269673,0.149017 -1.5024726,0.719314 -0.4690592,0.563467 -0.028715,1.184901 0.2914201,1.687215 0.4309607,0.713906 0.3558607,2.270183 0.4725593,3.066344 0.077391,0.668892 0.081591,1.349346 0.209569,2.010415 0.4546157,0.594863 1.1654767,0.937259 1.7912267,1.331775 0.541158,0.327711 0.736523,0.616544 1.390134,0.577526 0.898795,0.0386 1.801875,0.03254 2.700009,-0.0171 z"
       id="path5" />
    <path
       style="opacity:0.2;stroke-width:0.999973"
       d="m 21.264717,51.551065 c 0.57425,-0.281833 1.334843,-0.85826 2.376946,-1.801429 1.471927,-1.703326 3.806533,-2.112066 5.744467,-2.021752 0.907767,0.114519 1.36369,0.376114 2.791485,0.895181 0.896339,0.325863 2.201163,0.571796 3.011391,0.63421 0.299165,0.02306 0.311564,0.0042 0.173191,-0.264292 -0.287742,-0.558175 -0.909904,-2.563274 -2.257993,-3.887178 -1.467738,-1.441409 -2.524626,-2.829635 -4.210331,-4.06897 -2.16233,-1.589761 -4.453258,-2.591138 -6.963131,-3.817053 -1.700878,-0.830777 -2.89835,-1.253344 -6.01108,-2.508457 C 14.008255,33.940609 13.40222,33.501212 13.003259,33.20538 12.315041,32.695058 11.643043,31.869566 10.821275,30.455178 10.225157,29.429182 8.6488622,27.820512 7.7403629,25.866127 7.199979,24.70364 7.0991242,24.512591 7.0258155,24.512591 c -0.1457807,0 -0.5124475,0.58986 -1.0873851,1.749283 -0.3978543,0.802323 -0.6309406,2.367214 -0.7504549,2.95751 -0.1233718,0.609352 -0.1685586,1.055441 -0.1847865,1.824316 -0.03551,1.682433 0.2298109,3.280651 0.8500722,5.120539 0.5390652,1.599028 1.2553141,3.072973 1.9898294,4.094786 0.8005553,1.113681 2.0253924,2.362241 3.3407034,3.405407 0,0 0.773609,0.789811 1.012884,1.890331 0.160228,0.72823 1.104984,2.021404 2.38424,3.263504 0.259401,0.251861 0.509826,0.477413 0.556509,0.501222 0.04999,0.0255 0.278362,0.06588 0.555838,0.09826 1.428873,0.166879 2.468732,0.409258 3.215319,0.749465 0.505775,0.230483 0.843547,0.519674 1.238142,1.060085 0.227141,0.311081 0.345524,0.442609 0.427965,0.475506 0.02238,0.0092 0.119135,0.0118 0.214953,0.0062 0.145163,-0.0086 0.224436,-0.03484 0.475073,-0.157838 z"
       id="path6" />
    <path
       style="fill:#e6e6e6;stroke-width:0.999973"
       d="m 21.264717,50.568778 c 0.57425,-0.28183 1.334843,-0.85826 2.376946,-1.801429 1.471927,-1.703324 3.806533,-2.112066 5.744467,-2.021749 0.907767,0.114517 1.36369,0.376111 2.791485,0.895179 0.896339,0.325864 2.201163,0.571798 3.011391,0.63421 0.299165,0.02306 0.311564,0.0042 0.173191,-0.264293 -0.287742,-0.558175 -0.909904,-2.56327 -2.257993,-3.887177 -1.467738,-1.441404 -2.524626,-2.82963 -4.210331,-4.068971 -2.16233,-1.589757 -4.453258,-2.591136 -6.963131,-3.817051 -1.700878,-0.830778 -2.89835,-1.253345 -6.01108,-2.508458 C 14.008255,32.958324 13.40222,32.518927 13.003259,32.223094 12.315041,31.712773 11.643043,30.88728 10.821275,29.472893 10.225157,28.446896 8.6488622,26.838226 7.7403629,24.88384 7.199979,23.721354 7.0991242,23.530304 7.0258155,23.530304 c -0.1457807,0 -0.5124475,0.589862 -1.0873851,1.749286 -0.3978543,0.802321 -0.6309406,2.367212 -0.7504549,2.957507 -0.1233718,0.609352 -0.1685586,1.055447 -0.1847865,1.824322 -0.03551,1.682427 0.2298109,3.280646 0.8500722,5.120535 0.5390652,1.599027 1.2553141,3.07297 1.9898294,4.094786 0.8005553,1.113681 2.0253924,2.362242 3.3407034,3.405408 0,0 0.773609,0.789809 1.012884,1.89033 0.160228,0.72823 1.104984,2.021402 2.38424,3.263503 0.259401,0.251861 0.509826,0.477413 0.556509,0.501221 0.04999,0.02551 0.278362,0.06588 0.555838,0.09829 1.428873,0.16688 2.468732,0.409259 3.215319,0.749466 0.505775,0.230484 0.843547,0.519674 1.238142,1.060086 0.227141,0.311079 0.345524,0.442608 0.427965,0.475505 0.02238,0.0092 0.119135,0.0118 0.214953,0.0062 0.145163,-0.0086 0.224436,-0.03484 0.475073,-0.157839 z"
       id="path7" />
    <path
       style="fill:#e6e6e6;stroke-width:0.999973"
       d="m 32.000732,36.305253 c 1.654671,-0.204648 3.856947,-2.555198 6.392846,-5.043084 1.423035,-1.396081 3.077996,-3.110284 3.899542,-4.329962 0.627816,-0.932056 0.737048,-1.235417 0.594944,-1.652258 -0.268921,-0.788847 -0.790015,-1.990359 -2.186385,-4.085572 -0.214068,-0.321195 -0.389209,-0.593423 -0.389209,-0.604951 0,-0.0116 0.13741,-0.02878 0.305342,-0.03828 1.029617,-0.05847 2.335572,-0.06286 3.586524,-0.375677 1.386275,-0.346674 2.24479,-1.07088 3.361822,-1.615953 0.669278,-0.326592 0.988826,-0.43484 1.564477,-0.813295 0.640835,-0.421317 1.224038,-1.386004 1.750166,-1.904171 0.669059,-0.658928 1.30416,-1.495409 1.713601,-2.24141 0.215005,-0.391748 0.688101,-1.442818 0.761117,-1.505593 0,0 -0.270104,0.02557 -0.830668,-0.254593 l -0.143907,-0.07191 -3.809807,0.01108 c -0.651867,0.0019 -1.268725,0.0078 -1.844105,0.0161 -0.476978,0.0071 -0.925449,0.01584 -1.341724,0.02583 -0.979598,0.02359 -1.780893,0.05358 -2.355805,0.08132 l -0.377195,0.01822 -0.09801,0.240937 c -0.276106,0.678786 -0.995765,0.793625 -1.762855,1.226597 -1.166679,0.658518 -2.750715,0.711186 -5.086581,0.826426 -0.436884,0.02153 -0.491079,0.02948 -0.529256,0.07722 -0.0234,0.0293 -0.630506,1.062834 -1.176638,1.715761 -2.617216,3.129011 -5.304412,6.086191 -7.310467,8.655177 -0.44259,0.566784 -0.770987,0.869873 -1.654106,1.52663 -0.920285,0.684395 -0.929481,2.536691 -0.889824,3.401484 0.04352,0.949286 0.870299,1.909879 2.238504,3.296361 1.396014,1.414645 4.051264,3.050408 4.996669,3.382378 0.198441,0.0697 0.296661,0.07526 0.620997,0.03516 z"
       id="path8" />
    <path
       style="fill:#e38900;stroke-width:0.999973"
       d="m 13.412098,10.929154 c 0.953514,-0.05227 1.104177,-0.08839 1.151911,-0.276567 0.05119,-0.201749 -0.06727,-0.472714 -0.528253,-1.2084279 C 13.685251,8.8847664 13.514283,8.5525036 13.447842,8.3016016 13.407026,8.1474513 13.404802,8.0939074 13.431786,7.9134283 13.493254,7.5022968 13.956789,7.0940964 14.270534,6.6247255 L 14.444283,6.3647992 14.336208,6.2633876 c -0.13235,-0.1241733 -0.294387,-0.1795561 -0.394167,-0.1347157 -0.03782,0.017 -0.224044,0.1316502 -0.413822,0.254781 C 12.336537,7.1566298 10.414193,7.6033881 9.2609405,7.9965086 8.5917382,8.2246256 7.70857,8.4659865 6.5098564,8.7483544 5.7656328,8.9236639 5.2762786,8.9691741 5.16143,9.1964935 5.0771677,9.3632766 5.0740928,9.4579831 5.1480433,9.6086587 5.2108618,9.7366468 5.288551,9.7808847 5.7432499,9.9475733 7.6857475,10.659675 11.286487,11.045606 13.4121,10.929154 Z"
       id="path9" />
    <path
       style="fill:#e38900;stroke-width:0.999973"
       d="m 9.1617607,13.797465 c 0.5837504,-0.02887 1.7092563,-0.216656 2.5733933,-0.429395 0.510603,-0.1257 2.574694,0.002 2.693403,-0.05806 0.231371,-0.11694 0.170053,-1.191077 0.377334,-1.604474 0.198022,-0.394933 0.188713,-0.650807 -0.02735,-0.751938 -0.204978,-0.09595 -0.406793,-0.03503 -0.92339,0.278809 -1.784683,1.084115 -2.714318,1.277073 -5.0912822,1.81364 -1.2774041,0.288355 -1.5969827,0.386903 -1.5969827,0.492464 0,0.151438 0.8724122,0.313412 1.5199151,0.282186 0.097032,-0.0048 0.3107683,-0.01512 0.4749734,-0.02328 z"
       id="path10" />
    <path
       style="fill:#6f7c91;stroke-width:0.999973"
       d="m 18.220314,4.0002382 c -1.294244,-0.0068 -2.175889,0.2758838 -3.112987,0.9836093 -1.17195,0.8850913 -2.052517,2.3330365 -1.918398,3.1544804 0.06061,0.3713212 0.418119,1.0934254 1.130293,2.2829751 0.214826,0.358825 0.242109,0.441967 0.241459,0.736194 -0.0011,0.506663 -0.23099,1.009447 -0.703816,1.539308 -0.1882,0.210896 -0.284616,0.36399 -0.284616,0.451963 0,0.07986 0.127289,0.212194 0.275176,0.28611 0.17652,0.0882 0.584849,0.181438 1.163319,0.265609 1.245288,0.181209 1.564552,0.289472 1.50809,0.511359 -0.02281,0.08963 -0.338887,0.413644 -0.598853,0.613843 -0.457574,0.35238 -0.940453,0.602523 -2.212872,1.146376 -1.835454,0.784507 -2.908406,1.357665 -3.9889802,2.130824 -2.4379192,1.744358 -3.8583842,4.065164 -4.097282,6.694211 -0.042732,0.470207 -0.027595,1.33919 0.023323,1.338162 0.00895,-1.87e-4 0.1130854,-0.199335 0.2312844,-0.442603 0.2981503,-0.613638 0.5375598,-1.004376 0.748931,-1.222141 0.1462439,-0.15067 0.1917414,-0.18207 0.2635681,-0.18207 0.1528218,0 0.1973449,0.0738 0.7752246,1.284993 1.3670302,2.865234 2.1693871,4.348356 3.0341051,5.608433 0.707048,1.030314 1.293174,1.629317 1.856482,1.897311 0.275685,0.131153 0.827962,0.346218 2.348415,0.914486 3.072049,1.148168 5.18961,2.041256 7.273877,3.067741 3.270225,1.610555 5.366703,2.985346 7.626715,5.001439 1.537788,1.371819 2.87235,2.796821 4.576814,4.886888 0.360207,0.441695 0.856119,1.206296 0.856119,1.206296 l 0.103055,0.103902 0.193115,-0.01432 c 0.1134,-0.0086 0.262969,-0.04237 0.362325,-0.08216 0.631713,-0.253183 1.316696,-1.386583 2.045936,-2.582835 l 0.165556,-0.271629 c 0,0 0.927082,-0.09084 0.56265,-0.09918 l 0.36445,0.0086 c 0.742216,0.0171 1.807739,-0.08112 2.587597,-0.238375 1.160458,-0.233993 1.948891,-0.566425 3.069413,-1.294294 0.413902,-0.268862 0.785368,-0.552586 0.829137,-0.633238 0.01888,-0.03494 0.01888,-0.06756 -6.25e-4,-0.103254 -0.0385,-0.07094 -0.505769,-0.446075 -0.947087,-0.760295 -0.199546,-0.142082 -0.351132,-0.258294 -0.336881,-0.258294 0.01431,0 0.146965,0.0179 0.294951,0.03996 0.828245,0.123042 1.837773,0.0573 2.505114,-0.163184 0.31386,-0.103689 1.2191,-0.495874 1.504276,-0.651699 0.142038,-0.0776 0.3082,-0.18987 0.369217,-0.249457 0.266093,-0.259857 0.11091,-0.405034 -1.042024,-0.974823 l -0.623723,-0.308231 0.270882,0.0189 c 0.516917,0.03591 1.375897,-0.06424 1.843865,-0.214898 0.543981,-0.175152 1.040815,-0.48736 1.50952,-0.94863 0.342091,-0.336658 0.513121,-0.58067 0.533765,-0.761341 0.01548,-0.135834 -0.002,-0.152692 -0.237116,-0.228541 -0.293916,-0.0948 -1.603162,-0.342122 -2.220609,-0.419494 -0.174699,-0.02188 -0.155346,-0.04672 0.06915,-0.08866 0.272829,-0.05104 0.760696,-0.998526 1.038475,-1.129458 0.229592,-0.108208 0.289016,-0.152555 0.543673,-0.40569 0.432171,-0.42957 0.801829,-1.553495 0.781428,-1.763041 l -0.0088,-0.0885 -0.257844,-0.02522 c -0.35782,-0.03504 -9.22579,-0.226076 -12.78923,-0.188903 l -2.041951,0.03016 -0.266908,0.107088 c -1.515576,0.735349 -4.105369,2.280034 -5.414853,1.853075 -0.939953,-0.462786 -1.893826,-1.17071 -2.842156,-1.952929 -1.891492,-1.560173 -2.890607,-3.185121 -3.1365,-4.452751 -0.178865,-0.922102 0.246728,-2.048078 1.011169,-2.675122 0.115622,-0.09484 0.442303,-0.322979 0.725927,-0.506966 0.592318,-0.384238 0.740255,-0.503766 1.03609,-0.837524 0.67579,-0.762419 2.756884,-3.533644 6.644467,-8.245336 l 1.391527,-2.080043 0.574153,-0.03245 c 1.077541,-0.0609 1.964964,-0.158494 2.881117,-0.31675 1.339629,-0.231403 2.278509,-0.546235 2.961107,-0.992969 0.303526,-0.198641 0.723155,-0.593863 0.903088,-0.850592 0.138353,-0.197394 0.329145,-0.421511 0.329145,-0.486426 0,-0.04729 -0.190173,-0.04432 -1.262073,0.0196 -1.241839,0.0741 -2.45053,0.03231 -3.039833,0.103536 -0.394006,0.04761 -0.680421,0.213863 -1.783108,1.035165 -0.977045,0.727718 -1.135626,0.803601 -1.583585,0.757784 -0.710271,-0.07265 -1.251334,-0.419092 -1.582356,-1.013307 l -0.07209,-0.12946 -5.429011,4.889492 c -3.23315,2.911846 -5.472612,4.515502 -5.545424,4.547021 -0.282468,0.122278 -1.782145,0.665033 -2.367552,0.856868 -1.021829,0.334851 -1.497001,0.438512 -1.774679,0.387128 -0.143186,-0.02648 -0.319569,-0.207791 -0.381943,-0.392566 -0.181062,-0.536417 0.129655,-1.324671 0.789378,-2.002613 0.310716,-0.319446 0.502193,-0.455551 1.342178,-0.954067 1.487069,-0.882545 2.90203,-1.346239 3.647926,-2.103685 0.772619,-0.784575 1.31358,-1.593181 1.745687,-2.609393 0.53982,-1.269517 0.860958,-3.030482 0.809945,-4.441617 C 26.561566,10.150698 26.362146,9.4456208 25.910063,8.4918524 25.287716,7.1788107 23.969408,5.4018074 23.298996,4.9722763 22.510809,4.4672895 20.012813,4.0560722 18.484838,4.0054491 c -0.0901,-0.00294 -0.178238,-0.0047 -0.264521,-0.00516 z m 31.087858,7.7735038 c -2.787193,-8.1e-5 -6.125717,0.07533 -6.188227,0.139712 -0.01848,0.01898 -0.01668,0.02212 0.0056,0.01002 0.02208,-0.01226 0.05093,0.04045 0.08943,0.163394 0.253273,0.808762 0.009,1.396444 -0.774376,2.161624 -0.917072,0.883009 -2.329169,1.855648 -3.14818,2.970166 2.277512,-0.284104 3.960197,-0.840771 6.134682,-1.478281 2.057566,-0.666188 3.75173,-1.440146 4.728426,-2.160157 0.490282,-0.361429 0.87729,-0.77478 1.063334,-1.13566 0.08839,-0.171474 0.148263,-0.327476 0.125433,-0.477742 -0.01059,-0.06974 -0.01708,-0.131484 -0.01431,-0.137198 0.0224,-0.04661 -0.309024,-0.05573 -2.021663,-0.05573 z m 2.818354,0.0259 -0.407121,0.0011 0.218453,0.08829 c 0.237986,0.09622 0.479923,0.102248 0.574105,0.203454 0.0954,0.10252 0.150715,0.259492 0.130024,0.368984 -0.03387,0.179308 -0.263011,0.737111 -0.457376,1.113385 -0.393295,0.761389 -0.909862,1.430774 -1.663041,2.155029 -1.767238,1.699364 -4.226596,3.340994 -7.305102,4.10086 -0.872586,0.215376 -2.041751,0.425383 -2.760734,0.495881 -0.164197,0.0161 -0.33687,0.03494 -0.383686,0.04187 l -0.08516,0.0126 0.285411,0.487931 c 1.656912,2.832196 2.2977,4.030423 2.521227,4.714704 0.05045,0.154447 0.09792,0.251088 0.135288,0.275241 0.08891,0.05752 0.356701,0.145149 0.566738,0.185507 0.258064,0.04958 1.016998,0.03004 1.561629,-0.04028 0.401675,-0.05186 1.117895,-0.182735 1.335708,-0.244126 0.09627,-0.02712 0.101779,-0.03464 0.101779,-0.137973 0,-0.146718 -0.109929,-0.621257 -0.270089,-1.166091 -0.07229,-0.245951 -0.11407,-0.423453 -0.09274,-0.394446 0.408619,0.556378 0.832966,0.920842 1.278086,1.097801 0.480364,0.190969 1.294096,0.131945 2.186465,-0.158649 0.56565,-0.18419 1.249859,-0.50069 1.28662,-0.595172 0.04254,-0.109402 -0.291777,-0.765332 -0.786467,-1.542917 -0.128748,-0.202364 -0.22872,-0.367936 -0.222163,-0.367936 0.0066,0 0.07626,0.04058 0.154956,0.09014 0.07866,0.04958 0.265159,0.150454 0.414436,0.22415 1.408473,0.695315 2.652305,0.527881 3.653742,-0.491853 0.290135,-0.295438 0.675304,-0.775912 0.675304,-0.84244 0,-0.142869 -0.657312,-0.671866 -1.791329,-1.441639 -0.201528,-0.136792 -0.335875,-0.242666 -0.298558,-0.235288 0.03728,0.0076 0.220523,0.04386 0.407122,0.08113 0.54005,0.107711 0.824157,0.137246 1.302785,0.135321 0.362464,-0.0015 0.485283,-0.0122 0.644447,-0.05594 0.710877,-0.195669 1.471309,-0.985718 2.029131,-2.108234 0.200997,-0.40447 0.386992,-0.863995 0.412529,-1.019216 0.01199,-0.07302 0.0018,-0.09118 -0.07812,-0.139923 -0.230402,-0.140451 -1.050375,-0.749444 -2.315865,-1.002109 -0.704732,-0.140706 -0.823749,-0.170865 -0.732814,-0.185719 0.741057,-0.121068 1.250787,-0.245797 1.519913,-0.371912 0.46268,-0.216823 1.330358,-0.96767 1.627046,-1.407966 0.349118,-0.518104 0.523175,-1.069518 0.498354,-1.578786 -0.01001,-0.206968 0.01239,-0.05897 -0.551203,-0.117488 -0.948989,-0.09851 -4.042681,-0.230744 -5.319701,-0.227334 z"
       id="path11" />
    <ellipse
       style="fill:#2c2c2c;stroke-width:0.999973"
       cx="18.249964"
       cy="6.9473605"
       rx="1.4722178"
       ry="0.98245382"
       id="ellipse11" />
    <path
       style="opacity:0.2;stroke-width:0.999973"
       d="m 50.991464,12.755738 -1.270938,0.002 c 0.604283,0.0012 1.007856,0.0036 1.261353,0.01152 0.0035,-0.0046 0.0063,-0.0091 0.0098,-0.01346 z m -2.421108,0.0059 c -0.651866,0.0019 -1.268731,0.009 -1.844106,0.01728 -0.282104,0.0042 -0.532224,0.01003 -0.79362,0.01533 0.922457,-0.0168 1.917383,-0.02984 2.925268,-0.0326 z m -4.215377,0.07868 c -0.375396,0.01273 -0.763158,0.02572 -1.084988,0.03836 -5.76e-4,0.0039 -0.0013,0.0078 -0.002,0.01152 0.151886,-0.01659 0.647736,-0.03329 1.086913,-0.04988 z m 8.074198,0.197642 c -0.07769,0.182502 -0.16272,0.377273 -0.245372,0.537277 -0.393293,0.761395 -0.908812,1.430621 -1.661997,2.154874 -1.767239,1.699367 -4.226988,3.340736 -7.305493,4.100598 -0.872584,0.215374 -2.041425,0.42648 -2.760409,0.49698 -0.1642,0.0161 -0.336573,0.03332 -0.383392,0.04032 l -0.08628,0.01347 0.285626,0.487393 c 0.113097,0.193314 0.141558,0.253297 0.245367,0.431742 0.7223,-0.07521 1.846745,-0.277014 2.69907,-0.487393 3.078504,-0.759859 5.538253,-2.40123 7.305492,-4.100589 0.753185,-0.724259 1.268704,-1.393486 1.661999,-2.154875 0.194361,-0.376275 0.424288,-0.933631 0.45815,-1.11294 0.02066,-0.109489 -0.03497,-0.267819 -0.130352,-0.370338 -0.0167,-0.01797 -0.05734,-0.02348 -0.0824,-0.03642 z m -9.203276,0.09596 c -0.120533,0.360914 -0.375727,0.714072 -0.785952,1.114857 -0.917074,0.883013 -2.32862,1.85587 -3.147631,2.970387 0.384118,-0.04787 0.733354,-0.113972 1.088828,-0.176533 0.703131,-0.64691 1.476088,-1.250332 2.058803,-1.8114 0.760838,-0.743323 1.004327,-1.323552 0.785952,-2.097311 z m -0.540582,13.16522 c -0.09634,0.175105 -0.219985,0.376398 -0.392977,0.633221 -0.821542,1.219677 -2.476045,2.934775 -3.899073,4.330856 -0.795077,0.780023 -1.542944,1.515568 -2.265836,2.206686 l -0.116933,0.04607 c -1.515576,0.735349 -4.105901,2.280569 -5.415384,1.853614 -0.939952,-0.462788 -1.892588,-1.171177 -2.840921,-1.953396 -1.854656,-1.529788 -2.848891,-3.118595 -3.118877,-4.374994 -0.0548,0.307706 -0.07531,0.616402 -0.01921,0.905703 0.245902,1.267628 1.246557,2.891571 3.138048,4.451743 0.948333,0.782223 1.900968,1.490611 2.840921,1.953395 1.309483,0.426962 3.899807,-1.118264 5.415384,-1.853615 l 0.116933,-0.04607 c 0.722892,-0.691117 1.470758,-1.426665 2.265836,-2.206684 1.423028,-1.396081 3.077531,-3.111178 3.899073,-4.330855 0.366757,-0.544488 0.541585,-0.866864 0.607674,-1.130208 -0.03264,-0.04252 -0.06744,-0.0966 -0.107348,-0.218749 -0.02375,-0.07262 -0.07354,-0.181188 -0.10735,-0.266721 z"
       id="path12" />
    <path
       style="opacity:0.2;fill:#ffffff;stroke-width:0.999973"
       d="m 18.221202,3.9999981 c -1.294235,-0.0068 -2.176027,0.2766474 -3.113124,0.9843728 -0.430263,0.324946 -0.820833,0.725816 -1.13675,1.1436379 -0.0087,0.00234 -0.02094,-0.00346 -0.02877,0 -0.0378,0.017002 -0.224283,0.1320768 -0.41406,0.2552076 C 12.336833,7.1563936 10.414631,7.6038535 9.2613803,7.9969739 8.5921782,8.2250913 7.7092708,8.4667977 6.5105574,8.7491653 5.7663338,8.9244752 5.2758734,8.9689393 5.1610248,9.1962585 5.0767606,9.3630416 5.0736557,9.4581369 5.1476062,9.6088125 5.2054286,9.726625 5.3072474,9.7828557 5.6728506,9.9196673 5.895962,9.8638499 6.1681347,9.8122809 6.5105574,9.7316193 7.7092708,9.4492518 8.5921782,9.2075453 9.2613803,8.9794279 10.414631,8.5863074 12.336835,8.1388476 13.528507,7.3656706 c 0.189778,-0.123131 0.37624,-0.2382085 0.414062,-0.2552079 0.0079,-0.00346 0.02018,0.00234 0.02877,0 0.315917,-0.4178217 0.706487,-0.8186918 1.13675,-1.1436378 0.937094,-0.7077254 1.818886,-0.9911519 3.113121,-0.9843729 0.08632,4.514e-4 0.174448,0.00282 0.264538,0.00576 1.527974,0.050626 4.025274,0.4621165 4.813461,0.9671034 0.670419,0.4295309 1.988532,2.2061702 2.610889,3.519181 0.409721,0.8643856 0.605221,1.5247996 0.659432,2.1913316 0.01302,-0.262907 0.02807,-0.529068 0.01919,-0.77522 C 26.561973,10.151417 26.362174,9.445807 25.910091,8.4920388 25.287733,7.1790277 23.96962,5.4023887 23.299201,4.9728577 22.511014,4.467871 20.013714,4.0563775 18.48574,4.0057545 c -0.0901,-0.00294 -0.178253,-0.0053 -0.264538,-0.00576 z m 18.987391,7.2897289 c -0.379645,0.0017 -0.68404,0.16138 -1.123334,0.301258 -0.522203,0.155537 -1.71656,0.672861 -2.327178,1.134046 l -0.0059,-0.01152 -0.111186,0.09978 -0.456234,0.351151 0.02106,0.04032 -4.882467,4.398013 c -3.233149,2.911845 -5.472928,4.51617 -5.545737,4.547686 -0.282471,0.12228 -1.78203,0.663977 -2.367437,0.855812 -1.02183,0.334852 -1.497413,0.43899 -1.775097,0.387609 -0.115152,-0.0213 -0.2368,-0.15054 -0.31821,-0.293586 -0.115548,0.323772 -0.147954,0.631755 -0.06329,0.882676 0.06239,0.184774 0.238288,0.366858 0.381473,0.393361 0.277682,0.0514 0.753265,-0.05278 1.775097,-0.387604 0.585405,-0.191838 2.084964,-0.733537 2.367435,-0.855811 0.07281,-0.03148 2.312588,-1.63584 5.545738,-4.547687 l 4.882466,-4.39802 -0.02106,-0.04032 0.456234,-0.351152 0.111185,-0.09977 0.0059,0.01152 c 0.610618,-0.461188 1.804975,-0.978518 2.327179,-1.134044 0.585726,-0.186506 0.930523,-0.408032 1.535479,-0.243696 0.272269,0.09373 0.507745,0.743573 0.509904,0.955594 0.265162,-0.15529 0.442283,-0.2157 0.642181,-0.23986 0.5893,-0.07118 1.798447,-0.02957 3.040282,-0.103619 0.59459,-0.0355 0.888145,-0.04816 1.058157,-0.04793 l 0.159106,-0.0078 c 0.323505,-0.01559 0.86632,-0.03059 1.324611,-0.04607 0.489014,-0.0185 0.819649,-0.03222 1.57765,-0.04607 0.261396,-0.0054 0.511515,-0.01122 0.793621,-0.01533 0.575374,-0.0086 1.192239,-0.01538 1.844105,-0.01728 h 0.287542 c 0.155213,-4.89e-4 0.297945,-0.0059 0.450481,-0.0059 0.212351,0 0.240308,0.0016 0.412147,0.002 l 2.660727,-0.0059 0.08055,0.04032 c 1.39231,0.01159 4.092272,0.124224 4.98407,0.216828 0.239293,0.02487 0.334692,0.0088 0.410224,0.002 0.102916,-0.293425 0.155519,-0.586975 0.141857,-0.867321 -0.01001,-0.206976 0.01149,-0.05857 -0.552081,-0.11705 -0.891798,-0.09261 -3.59176,-0.205258 -4.98407,-0.216832 l -0.08055,-0.04032 -2.660727,0.0059 c -0.171839,-3.36e-4 -0.199796,-0.002 -0.412147,-0.002 -0.152536,-4e-6 -0.295268,0.0054 -0.450481,0.0059 h -0.287539 c -0.651866,0.0019 -1.268731,0.009 -1.844105,0.01728 -0.282106,0.0042 -0.532225,0.01003 -0.793621,0.01533 -0.758001,0.01385 -1.088636,0.02757 -1.57765,0.04607 -0.458291,0.01548 -1.001106,0.03048 -1.324611,0.04607 l -0.159106,0.0078 c -0.170012,-2.29e-4 -0.463568,0.01253 -1.058157,0.04793 -1.241835,0.0741 -2.450982,0.03239 -3.040282,0.103618 -0.199898,0.02419 -0.377019,0.08458 -0.642181,0.23986 -0.0022,-0.212012 -0.237635,-0.861836 -0.509904,-0.955591 -0.151242,-0.04112 -0.285599,-0.05818 -0.412146,-0.05759 z M 14.49849,11.750255 c -0.107212,0.09204 -0.371776,0.122002 -1.086917,0.161182 -0.233258,0.01281 -0.534744,-0.0029 -0.799367,-0.002 -1.113493,0.526493 -2.081885,0.737011 -3.8492325,1.135958 -1.2774041,0.288355 -1.5968191,0.38759 -1.5968193,0.49315 0,0.151439 0.8726385,0.313297 1.5201414,0.282071 0.097032,-0.0048 0.3111986,-0.01488 0.4754035,-0.02304 0.3183736,-0.01572 0.7972106,-0.08207 1.3073579,-0.170778 1.250541,-0.316288 2.104878,-0.634454 3.385336,-1.412277 0.32675,-0.198492 0.523265,-0.286569 0.678601,-0.307019 -0.0082,-0.04558 -0.01685,-0.111097 -0.03453,-0.157345 z m 1.405123,3.087442 c -0.453221,0.346318 -0.93837,0.596153 -2.196823,1.134043 -1.835454,0.784507 -2.908602,1.358682 -3.9891754,2.131849 -2.4379191,1.744358 -3.8576239,4.063918 -4.096522,6.692965 -0.03078,0.338717 -0.023294,0.781 -0.00195,1.053452 0.00163,-0.02124 1.001e-4,-0.05102 0.00195,-0.07097 0.2388981,-2.629054 1.6586029,-4.948614 4.096522,-6.692973 1.0805734,-0.773158 2.1537214,-1.347341 3.9891754,-2.131847 1.272411,-0.543854 1.756502,-0.793175 2.214074,-1.145554 0.259965,-0.200207 0.575291,-0.524409 0.598088,-0.614039 0.03862,-0.151808 -0.125841,-0.251435 -0.615339,-0.356901 z m 40.171601,1.151312 c -0.06835,0.04197 -0.145558,0.09773 -0.203196,0.124723 -0.269126,0.126121 -0.779086,0.251193 -1.520144,0.372256 -0.09096,0.01482 0.02754,0.04544 0.732276,0.186133 1.099821,0.219586 1.783722,0.664449 2.116312,0.880752 0.139046,-0.308561 0.258725,-0.604563 0.277956,-0.721486 0.01199,-0.07302 0.0033,-0.09134 -0.07665,-0.140076 -0.162119,-0.09881 -0.630298,-0.427026 -1.326528,-0.702302 z m -3.393002,4.791382 c -0.03728,-0.0075 0.09753,0.09921 0.299044,0.236015 0.612311,0.415637 1.070178,0.753274 1.376372,1.005484 0.216216,-0.249586 0.415974,-0.499756 0.415974,-0.546879 0,-0.07099 -0.164804,-0.237771 -0.467735,-0.481632 -0.422604,-0.0026 -0.712453,-0.03207 -1.215343,-0.132396 -0.1866,-0.03718 -0.370995,-0.07313 -0.408312,-0.08063 z m -2.808333,2.695992 c -0.0067,0 0.09359,0.166052 0.222369,0.368421 0.184599,0.290158 0.314213,0.529524 0.442813,0.763703 0.163047,-0.08217 0.328943,-0.166924 0.343135,-0.2034 0.02085,-0.05361 -0.05127,-0.240301 -0.185944,-0.506575 -0.08453,-0.03598 -0.167284,-0.06509 -0.253037,-0.107458 -0.149277,-0.07372 -0.335406,-0.17491 -0.41406,-0.224508 -0.07866,-0.04956 -0.148794,-0.0902 -0.155276,-0.0902 z m -3.741884,1.567704 c -0.02128,-0.02902 0.01969,0.149332 0.09202,0.395283 0.03675,0.125155 0.05927,0.221298 0.09011,0.335801 0.01613,-0.0041 0.06572,-0.01174 0.0786,-0.01532 0.09626,-0.02712 0.101596,-0.03483 0.101596,-0.138158 0,-0.02921 -0.02048,-0.119687 -0.02877,-0.172698 -0.112428,-0.122018 -0.223566,-0.255116 -0.333554,-0.40488 z M 5.6076741,26.262558 c -0.1984374,0.748458 -0.3396107,1.578384 -0.4198122,1.974501 -0.1233717,0.609353 -0.1677992,1.055962 -0.1840272,1.824837 -0.00476,0.225788 0.011076,0.448084 0.017251,0.671595 0.022294,-0.569893 0.063114,-1.001987 0.1667746,-1.513974 0.085545,-0.422525 0.2336206,-1.340059 0.4543171,-2.124174 -0.033827,-0.02668 -0.041736,-0.430122 -0.034503,-0.832785 z m 32.7108329,7.117036 -1.106079,0.01728 c -0.359826,0.3511 -0.739045,0.724628 -1.084995,1.055375 l 0.149525,-0.05945 2.041549,-0.03073 c 3.563442,-0.03714 12.432042,0.153087 12.789891,0.188046 l 0.01346,0.002 c 0.160815,-0.387244 0.263914,-0.757604 0.253036,-0.869283 l -0.0078,-0.08824 -0.258784,-0.02684 c -0.357821,-0.035 -9.226422,-0.225254 -12.789863,-0.188081 z M 49.70519,37.1962 c -0.244486,0.321296 -0.51468,0.732096 -0.693938,0.765622 -0.224457,0.042 -0.243711,0.06832 -0.06904,0.0902 0.541409,0.06785 1.52378,0.253026 1.978293,0.364583 0.296098,-0.301403 0.460028,-0.532293 0.479238,-0.700386 0.01548,-0.135831 -6.33e-4,-0.15249 -0.235788,-0.228341 -0.202937,-0.06543 -0.849362,-0.187286 -1.458796,-0.291665 z m -0.831958,3.308105 c -0.457675,0.08612 -0.982379,0.147173 -1.361032,0.120889 l -0.270293,-0.01922 0.624927,0.307018 c 0.234226,0.115757 0.401207,0.204517 0.557835,0.289743 0.02782,-0.01411 0.09176,-0.03627 0.113098,-0.04792 0.142041,-0.0776 0.308954,-0.189863 0.369969,-0.249454 0.141373,-0.138056 0.148103,-0.246858 -0.03453,-0.401039 z m -4.63902,2.408162 c -0.01422,0 0.13784,0.116965 0.337383,0.259049 0.184956,0.131683 0.236239,0.192411 0.396812,0.318529 0.279776,-0.196365 0.517425,-0.377173 0.550165,-0.4375 0.0089,-0.01615 -7.28e-4,-0.03214 0,-0.04794 -0.336886,0.0057 -0.675864,-0.0054 -0.989146,-0.05183 -0.147985,-0.02206 -0.280882,-0.04032 -0.295214,-0.04032 z m -5.641582,3.321542 c -0.190343,0.02755 -0.486903,0.05759 -0.486903,0.05759 l -0.115018,0.188045 c 0.464152,0.604112 1.06598,1.155674 1.290105,1.897749 1.194605,0.926917 2.205614,2.054635 3.270321,3.11814 0.496656,0.436091 0.885211,1.027412 1.477966,1.337445 0.68499,0.221945 0.986533,0.906036 1.146338,1.538923 0.914232,1.372714 1.732138,2.816127 2.380848,4.330855 0.173481,0.06702 0.329444,0.109614 0.415979,0.03456 -0.68903,-1.892668 -1.679462,-3.670144 -2.796827,-5.347863 -0.159805,-0.632889 -0.461348,-1.31698 -1.146338,-1.538926 -0.592755,-0.310036 -0.98131,-0.901357 -1.477966,-1.337444 -1.064707,-1.063505 -2.075716,-2.191222 -3.270321,-3.118139 -0.132203,-0.43774 -0.39891,-0.805866 -0.688184,-1.160909 z m -24.21491,2.371705 c -1.020572,0.360121 -1.976458,0.523945 -3.126546,0.786731 -0.514806,0.09508 -1.023357,0.251396 -1.5527288,0.207237 -0.6069908,-0.0881 -1.2273834,0.149267 -1.5028887,0.71957 -0.2905804,0.349062 -0.2187843,0.717505 -0.055595,1.0688 0.019258,-0.0289 0.031767,-0.05776 0.055595,-0.08637 0.2755053,-0.570296 0.8958979,-0.807693 1.5028887,-0.719571 0.5293718,0.04415 1.0379228,-0.112151 1.5527288,-0.207236 1.423964,-0.325362 2.543239,-0.482334 3.86649,-1.072636 -0.05846,-0.03625 -0.286294,-0.240379 -0.536749,-0.483555 -0.07306,-0.0709 -0.132405,-0.141839 -0.203195,-0.212991 z m -2.944431,5.202015 c -0.01341,0.01852 -0.0247,0.02875 -0.03832,0.04794 -0.006,0.516413 0.01313,1.896861 0.446653,2.227791 0.77282,0.08687 1.15597,-0.01386 1.911198,-0.178457 0.08462,-0.01789 0.139105,-0.01668 0.187863,-0.01152 -0.242484,-0.288265 0.569133,-1.130825 -0.187863,-0.970941 -0.755228,0.16459 -1.138378,0.265343 -1.911198,0.178454 -0.257517,-0.196556 -0.361657,-0.757207 -0.408308,-1.293312 z m 30.232214,0.358829 c -0.800004,1.253237 -1.943662,2.275108 -3.276067,2.955038 -0.808585,0.503078 -1.776334,0.839645 -2.392355,1.588812 0.476097,0.03056 1.158905,-0.335449 1.723339,-0.378015 0.11693,-0.02077 0.237638,-0.03668 0.356548,-0.05564 0.103389,-0.05799 0.212952,-0.11078 0.312468,-0.172702 1.432186,-0.730846 2.664987,-1.843822 3.465844,-3.229433 0.03817,-0.218645 -0.08757,-0.459443 -0.189777,-0.708054 z m -27.594492,1.826751 c 0.03849,0.232328 -0.387317,0.782018 -0.08055,0.940239 0.594568,0.404972 1.300928,0.310562 1.980206,0.197642 0.27523,-0.317627 0.539129,-0.663093 0.596169,-1.076479 -0.815521,0.100626 -1.738314,0.392641 -2.495863,-0.0614 z m 1.75017,2.304542 c -0.0021,0.0024 -0.0037,0.0055 -0.0059,0.0078 -0.265955,0.192112 -0.337786,0.408157 -0.289463,0.600603 0.390193,-0.04633 0.788413,-0.110455 0.939306,-0.439417 -0.235276,0.02231 -0.466025,-0.04979 -0.644094,-0.168861 z"
       id="path13" />
  </g>
</svg>
