<?xml version="1.0" encoding="UTF-8" standalone="no"?>
<svg
   width="62"
   height="62"
   version="1"
   id="svg4"
   sodipodi:docname="dse.svg"
   inkscape:version="1.4.2 (unknown)"
   xmlns:inkscape="http://www.inkscape.org/namespaces/inkscape"
   xmlns:sodipodi="http://sodipodi.sourceforge.net/DTD/sodipodi-0.dtd"
   xmlns:xlink="http://www.w3.org/1999/xlink"
   xmlns="http://www.w3.org/2000/svg"
   xmlns:svg="http://www.w3.org/2000/svg">
  <defs
     id="defs4">
    <linearGradient
       id="linearGradient4"
       inkscape:collect="always">
      <stop
         style="stop-color:#2ca05a;stop-opacity:1"
         offset="0"
         id="stop4" />
      <stop
         style="stop-color:#5fd38d;stop-opacity:1"
         offset="1"
         id="stop5" />
    </linearGradient>
    <linearGradient
       inkscape:collect="always"
       xlink:href="#linearGradient4"
       id="linearGradient5"
       x1="-58.01754"
       y1="-31.499992"
       x2="-3"
       y2="-31.499992"
       gradientUnits="userSpaceOnUse" />
  </defs>
  <sodipodi:namedview
     id="namedview4"
     pagecolor="#ffffff"
     bordercolor="#000000"
     borderopacity="0.25"
     inkscape:showpageshadow="2"
     inkscape:pageopacity="0.0"
     inkscape:pagecheckerboard="0"
     inkscape:deskcolor="#d1d1d1"
     inkscape:zoom="11.890625"
     inkscape:cx="31.95795"
     inkscape:cy="32"
     inkscape:current-layer="svg4" />
  <g
     id="g4"
     transform="translate(-0.499996)">
    <path
       style="opacity:0.2;stroke-width:0.99997"
       d="M 4.0498911,30.509588 C 4.0383038,30.837718 3.999998,31.15995 3.999998,31.492011 3.9999981,46.731437 16.264649,59 31.499212,59 46.733769,59 58.998418,46.731437 58.998418,31.492011 c 0,-0.331742 -0.03833,-0.653586 -0.04986,-0.982423 -0.518557,14.777681 -12.547496,26.525558 -27.450105,26.525558 -14.903001,0 -26.9315488,-11.747877 -27.4501054,-26.525558 z"
       id="path1" />
    <rect
       style="fill:url(#linearGradient5);stroke-width:0.99997"
       width="55.01754"
       height="54.999985"
       x="-58.01754"
       y="-58.999985"
       rx="27.999001"
       ry="27.999001"
       transform="matrix(0,-1,-1,0,0,0)"
       id="rect1" />
    <path
       style="opacity:0.1;fill:#ffffff;stroke-width:0.99997"
       d="M 31.499993,3 C 16.26543,3 4,15.269344 4,30.50877 4,30.620332 4.011082,30.728876 4.017263,30.838818 4.3625193,15.904184 16.48418,3.982456 31.499993,3.982456 c 15.015823,0 27.137478,11.921728 27.482731,26.856362 0.0063,-0.109862 0.01727,-0.218593 0.01727,-0.330048 C 58.999988,15.269344 46.734558,3 31.499993,3 Z"
       id="path2" />
    <path
       style="opacity:0.2;stroke-width:0.99997"
       d="m 28.694291,11.842242 c -0.775871,0 -1.122864,0.67473 -1.122864,1.511956 v 24.030924 h -5.894153 l 9.82115,13.755228 9.821149,-13.754439 H 35.428569 V 13.354988 c 0,-0.836226 -0.350142,-1.510937 -1.126011,-1.510937 z"
       id="path3" />
    <path
       style="fill:#f2f2f2;stroke-width:0.99997;fill-opacity:1"
       d="m 28.694291,10.86024 c -0.775871,0 -1.122864,0.67473 -1.122864,1.511956 V 36.403119 H 21.677274 L 31.498424,50.158347 41.319573,36.4039 H 35.428569 V 12.372985 c 0,-0.836225 -0.350142,-1.510936 -1.126011,-1.510936 z"
       id="path4" />
  </g>
</svg>
