<?xml version="1.0" encoding="UTF-8" standalone="no"?>
<svg
   width="62"
   height="62"
   version="1"
   id="svg6"
   sodipodi:docname="dvanalyzer.svg"
   inkscape:version="1.4 (unknown)"
   xmlns:inkscape="http://www.inkscape.org/namespaces/inkscape"
   xmlns:sodipodi="http://sodipodi.sourceforge.net/DTD/sodipodi-0.dtd"
   xmlns:xlink="http://www.w3.org/1999/xlink"
   xmlns="http://www.w3.org/2000/svg"
   xmlns:svg="http://www.w3.org/2000/svg">
  <defs
     id="defs6">
    <linearGradient
       id="linearGradient6"
       inkscape:collect="always">
      <stop
         style="stop-color:#2d3c52;stop-opacity:1;"
         offset="0"
         id="stop6" />
      <stop
         style="stop-color:#3f5473;stop-opacity:1;"
         offset="1"
         id="stop7" />
    </linearGradient>
    <linearGradient
       inkscape:collect="always"
       xlink:href="#linearGradient6"
       id="linearGradient7"
       x1="32"
       y1="61"
       x2="32"
       y2="4"
       gradientUnits="userSpaceOnUse" />
  </defs>
  <sodipodi:namedview
     id="namedview6"
     pagecolor="#ffffff"
     bordercolor="#000000"
     borderopacity="0.25"
     inkscape:showpageshadow="2"
     inkscape:pageopacity="0.0"
     inkscape:pagecheckerboard="0"
     inkscape:deskcolor="#d1d1d1"
     inkscape:zoom="12.109375"
     inkscape:cx="32"
     inkscape:cy="33.073548"
     inkscape:window-width="1920"
     inkscape:window-height="998"
     inkscape:window-x="0"
     inkscape:window-y="0"
     inkscape:window-maximized="1"
     inkscape:current-layer="svg6" />
  <g
     id="g7"
     transform="matrix(0.94827586,0,0,0.94915254,0.65517248,0.15254245)">
    <path
       style="opacity:0.2"
       d="M 61,33 A 29,29 0 0 1 32,62 29,29 0 0 1 3,33 29,29 0 0 1 32,4 29,29 0 0 1 61,33 Z"
       id="path1" />
    <path
       style="fill:url(#linearGradient7)"
       d="M 61,32 A 29,29 0 0 1 32,61 29,29 0 0 1 3,32 29,29 0 0 1 32,3 29,29 0 0 1 61,32 Z"
       id="path2" />
    <path
       style="opacity:0.2"
       d="m 32,16.000844 a 7,7 0 0 0 -7,7 7,7 0 0 0 7,7 7,7 0 0 0 7,-7 7,7 0 0 0 -7,-7 z m 0,18 a 9,9 0 0 0 -9,9 V 60.54772 A 29,29 0 0 0 27,61.536 V 50.481312 a 9,9 0 0 0 5,1.519532 9,9 0 0 0 9,-9 9,9 0 0 0 -9,-9 z"
       id="path3" />
    <path
       style="fill:#f99c32"
       d="m 23,42 v 17.546876 a 29,29 0 0 0 4,0.98828 V 42 Z"
       id="path4" />
    <circle
       style="fill:#e77d32;fill-opacity:1"
       cx="32"
       cy="22"
       r="7"
       id="circle4" />
    <circle
       style="fill:#f9ac52;fill-opacity:1"
       cx="32"
       cy="42"
       r="9"
       id="circle5" />
    <path
       style="opacity:0.1;fill:#ffffff"
       d="M 32,3 A 29,29 0 0 0 3,32 29,29 0 0 0 3.0175781,32.488281 29,29 0 0 1 32,4 29,29 0 0 1 60.974609,32.494141 29,29 0 0 0 61,32 29,29 0 0 0 32,3 Z"
       id="path5" />
    <path
       style="opacity:0.2;fill:#ffffff"
       d="m 32,15 a 7,7 0 0 0 -7,7 7,7 0 0 0 0.02539,0.4375 A 7,7 0 0 1 32,16 7,7 0 0 1 38.974609,22.492188 7,7 0 0 0 39,22 7,7 0 0 0 32,15 Z m 0,18 a 9,9 0 0 0 -9,9 v 1 a 9,9 0 0 1 9,-9 9,9 0 0 1 8.972656,8.441406 A 9,9 0 0 0 41,42 9,9 0 0 0 32,33 Z"
       id="path6" />
  </g>
</svg>
