<?xml version="1.0" encoding="UTF-8" standalone="no"?>
<svg
   width="62"
   height="62"
   version="1.1"
   id="svg4"
   sodipodi:docname="dying-light.svg"
   inkscape:version="1.4.2 (unknown)"
   xmlns:inkscape="http://www.inkscape.org/namespaces/inkscape"
   xmlns:sodipodi="http://sodipodi.sourceforge.net/DTD/sodipodi-0.dtd"
   xmlns:xlink="http://www.w3.org/1999/xlink"
   xmlns="http://www.w3.org/2000/svg"
   xmlns:svg="http://www.w3.org/2000/svg">
  <defs
     id="defs4">
    <linearGradient
       id="linearGradient1"
       inkscape:collect="always">
      <stop
         style="stop-color:#ff8533;stop-opacity:1;"
         offset="0"
         id="stop5" />
      <stop
         style="stop-color:#ffb280;stop-opacity:1;"
         offset="1"
         id="stop6" />
    </linearGradient>
    <linearGradient
       id="linearGradient3"
       inkscape:collect="always">
      <stop
         style="stop-color:#ffc399;stop-opacity:1;"
         offset="0"
         id="stop3" />
      <stop
         style="stop-color:#f9f2eb;stop-opacity:1;"
         offset="1"
         id="stop4" />
    </linearGradient>
    <radialGradient
       inkscape:collect="always"
       xlink:href="#linearGradient3"
       id="radialGradient4"
       cx="31"
       cy="30.508772"
       fx="31"
       fy="30.508772"
       r="27.5"
       gradientTransform="matrix(1,0,0,1.000319,0,-0.00973163)"
       gradientUnits="userSpaceOnUse" />
    <linearGradient
       id="linear0"
       gradientUnits="userSpaceOnUse"
       x1="0"
       y1="0"
       x2="0"
       y2="1"
       gradientTransform="matrix(83.36392,0,0,50.901657,-8.3790159,7.8523823)">
      <stop
         offset="0"
         style="stop-color:#2478ff;stop-opacity:1;"
         id="stop1" />
      <stop
         offset="1"
         style="stop-color:#0049bf;stop-opacity:1;"
         id="stop2" />
    </linearGradient>
    <linearGradient
       inkscape:collect="always"
       xlink:href="#linearGradient1"
       id="linearGradient6"
       x1="20.34297"
       y1="107.98336"
       x2="21.271891"
       y2="66"
       gradientUnits="userSpaceOnUse" />
  </defs>
  <sodipodi:namedview
     id="namedview4"
     pagecolor="#ffffff"
     bordercolor="#000000"
     borderopacity="0.25"
     inkscape:showpageshadow="2"
     inkscape:pageopacity="0.0"
     inkscape:pagecheckerboard="0"
     inkscape:deskcolor="#d1d1d1"
     inkscape:zoom="5.9453125"
     inkscape:cx="21.361367"
     inkscape:cy="59.963206"
     inkscape:current-layer="svg4" />
  <rect
     style="opacity:0.2;stroke-width:0.999971"
     width="55"
     height="55.017544"
     x="3.5"
     y="3.9824567"
     rx="12.6"
     ry="12.6"
     id="rect1" />
  <rect
     style="fill:url(#radialGradient4);stroke-width:0.999971"
     width="55"
     height="55.017544"
     x="3.5"
     y="2.9999995"
     rx="12.6"
     ry="12.6"
     id="rect2" />
  <path
     style="opacity:0.1;fill:#ffffff;stroke-width:0.999971"
     d="m 15.874615,2.9999995 c -6.8557487,0 -12.3746149,5.5206268 -12.3746149,12.3785615 v 0.982457 c 0,-6.8579385 5.5188662,-12.3785625 12.3746149,-12.3785625 h 30.25077 C 52.981135,3.9824555 58.5,9.5030795 58.5,16.361018 V 15.378561 C 58.5,8.5206263 52.981135,2.9999995 46.125385,2.9999995 Z"
     id="path4" />
  <g
     id="g1"
     transform="translate(9.6038691,-54.496715)">
    <path
       style="opacity:0.2"
       d="m 25.655286,66.011852 c -0.08504,0.0968 -0.05874,0.826994 0.0118,1.550781 0.0162,-0.514992 0.0184,-1.031916 0.04296,-1.546875 -0.0194,-0.02067 -0.04054,-0.01998 -0.05468,-0.0039 z m 0.0118,1.550781 c -0.15684,4.983213 0.03956,9.566363 0.285156,14.542969 0.214606,9.00733 -0.11216,13.802732 0.11328,22.808598 1.452184,0.0702 3.353546,-0.13908 4.28125,0.28515 0.430514,-0.14084 0.626036,3.35339 1.238282,1.4336 -0.09822,-0.9379 -0.34863,-1.46475 -0.789064,-1.26172 2.2009,-1.86045 0.502728,4.3476 1.210938,3.53906 0.232796,-2.3952 -0.27661,-4.84036 0.230468,-7.20703 0.77961,1.71868 0.838016,3.69014 0.82422,5.58984 0.1358,-0.65881 0.281618,-1.35867 0.273438,-1.58594 0.28262,-1.07088 2.61336,-0.93806 2.593748,0.25782 0.20654,-1.52148 -0.775902,-0.44864 0.652344,-0.9336 0.84611,-0.3622 2.51136,-0.45557 2.617188,0.31641 0.27479,-0.6686 0.276298,1.45502 0.570312,-0.1211 1.188136,-0.24953 2.445802,-0.91452 1.88672,-2.59375 -0.251232,-1.96344 0.347346,-4.30018 -2.191406,-3.625 -2.276248,0.04964 -3.979266,-0.20232 -6.234376,0.07812 -1.254812,1.29291 -0.924346,-0.08834 -1.382812,-0.5625 -2.001242,0.91548 -0.772782,-2.538676 -0.34375,-3.359374 -0.18218,-9.306302 -0.02454,-13.601418 -0.07422,-22.914063 0.238042,-1.094615 -0.759108,-1.208372 -1.031328,-2.06249 -0.330156,1.626463 -3.70592,1.149649 -2.98047,-0.804687 -0.81696,0.03858 -0.90804,-2.976012 -1.128906,-0.527344 -0.287502,0.874389 -0.51608,-0.212199 -0.621094,-1.292969 z m 4.73047,2.625 c 0.045,-0.221666 0.03954,-0.479673 -0.04688,-0.78125 -0.05196,0.328333 -0.02014,0.571029 0.04688,0.78125 z m 2.66398,37.105467 c -0.204074,0.99001 -0.387554,1.87977 -0.004,0.85156 0.0032,-0.27877 0.0018,-0.56816 0.004,-0.85156 z M 3.377942,68.980602 c -2.721254,0.08202 -1.860208,3.200474 -1.832032,5.027344 0.04593,3.614926 0.07538,7.235914 -0.08594,10.84375 -0.221278,2.89393 0.24274,5.822832 -0.04687,8.730468 0.0598,2.132758 -0.09423,3.69371 0.07422,5.671876 0.02838,1.32616 0.164278,3.06882 -0.08594,4.16797 0.07946,-0.90483 -0.557314,-4.081354 -0.324218,-1.88281 -0.251556,1.34664 0.10835,3.27546 1.132812,3.78906 0.130232,0.92124 0.322604,1.74194 0.648438,0.91015 1.145387,0.69349 1.025202,-2.31989 1.699218,-0.375 0.470235,-0.58808 2.111768,-1.16561 2.04297,0.26563 1.269589,-1.74487 4.110146,-0.93656 6.105468,-1.05469 0.700838,0.2397 3.75167,-1.71035 4.902344,-3.01562 2.818426,-3.493246 2.127716,-8.005756 2.101562,-12.074222 C 19.687994,84.933212 20.12956,79.828634 19.229504,74.820446 18.064922,70.613973 12.82653,68.611621 8.459973,69.136852 6.956706,69.174502 5.466126,69.084222 3.967786,69.00404 3.753184,68.98125 3.559359,68.97514 3.377942,68.9806 Z m 5.515625,4.738282 c 0.141816,0.006 0.297492,0.02154 0.460937,0.05468 3.094724,-0.13898 5.680586,2.844588 4.757812,5.582032 -0.14538,0.945682 0.1706,2.80004 -0.359374,1.835938 -0.209194,-0.660472 0.58375,-2.212574 -0.265626,-2.54297 -0.1842,2.531224 -0.10918,5.094206 0.38672,7.597656 0.11544,1.724608 -0.586746,2.991254 -0.578126,4.816408 -0.327426,2.032744 0.601172,3.79389 0.02734,5.58203 -0.377382,1.492752 -0.17962,-1.88599 -0.308594,-2.476562 -0.449112,-2.137228 -0.790724,1.384078 -0.07422,2.097656 0.25124,0.914622 -0.609324,0.06038 -0.4375,1.234376 0.04342,0.752582 -0.223966,2.682002 -0.363282,1.007812 -0.400248,0.35566 -0.803086,0.879006 -0.839844,1.066406 C 9.82806,100.15124 7.946356,100.58755 7.233404,99.097784 6.680872,97.0243 7.185024,94.961344 7.002936,92.886846 7.67478,92.803926 7.155214,90.41422 7.010736,91.738408 6.84366,90.09258 7.629733,88.950612 7.741205,87.875128 7.413143,87.463404 7.082001,85.071328 7.456048,84.277472 c -0.02087,-1.17411 0.544387,-3.063586 -0.121094,-3.3125 0.386741,-1.265558 -0.407972,-2.913414 0.03906,-3.82422 0.139508,1.292624 0.284207,1.365012 0.355469,-0.0586 -0.71583,-0.652196 -0.96314,-3.452574 1.164063,-3.36328 z"
       id="path2-5" />
    <path
       style="fill:url(#linearGradient6)"
       d="m 25.655286,65.011852 c -0.08504,0.0968 -0.05874,0.826994 0.0118,1.550781 0.0162,-0.514992 0.0184,-1.031916 0.04296,-1.546875 -0.0194,-0.02067 -0.04054,-0.01998 -0.05468,-0.0039 z m 0.0118,1.550781 c -0.15684,4.983213 0.03956,9.566363 0.285156,14.542969 0.214606,9.00733 -0.11216,13.802732 0.11328,22.808598 1.452184,0.0702 3.353546,-0.13908 4.28125,0.28515 0.430514,-0.14084 0.626036,3.35339 1.238282,1.4336 -0.09822,-0.9379 -0.34863,-1.46475 -0.789064,-1.26172 2.2009,-1.86045 0.502728,4.3476 1.210938,3.53906 0.232796,-2.3952 -0.27661,-4.84036 0.230468,-7.20703 0.77961,1.71868 0.838016,3.69014 0.82422,5.58984 0.1358,-0.65881 0.281618,-1.35867 0.273438,-1.58594 0.28262,-1.07088 2.61336,-0.93806 2.593748,0.25782 0.20654,-1.52148 -0.775902,-0.44864 0.652344,-0.9336 0.84611,-0.3622 2.51136,-0.45557 2.617188,0.31641 0.27479,-0.6686 0.276298,1.45502 0.570312,-0.1211 1.188136,-0.24953 2.445802,-0.91452 1.88672,-2.59375 -0.251232,-1.963438 0.347346,-4.30018 -2.191406,-3.625 -2.276248,0.04964 -3.979266,-0.20232 -6.234376,0.07812 -1.254812,1.29291 -0.924346,-0.08834 -1.382812,-0.5625 -2.001242,0.91548 -0.772782,-2.538676 -0.34375,-3.359374 -0.18218,-9.306302 -0.02454,-13.601418 -0.07422,-22.914063 0.238042,-1.094615 -0.759108,-1.208372 -1.031328,-2.06249 -0.330156,1.626463 -3.70592,1.149649 -2.98047,-0.804687 -0.81696,0.03858 -0.90804,-2.976012 -1.128906,-0.527344 -0.287502,0.874389 -0.51608,-0.212199 -0.621094,-1.292969 z m 4.73047,2.625 c 0.045,-0.221666 0.03954,-0.479673 -0.04688,-0.78125 -0.05196,0.328333 -0.02014,0.571029 0.04688,0.78125 z m 2.66398,37.105467 c -0.204074,0.99001 -0.387554,1.87977 -0.004,0.85156 0.0032,-0.27877 0.0018,-0.56816 0.004,-0.85156 z M 3.377942,67.980602 c -2.721254,0.08202 -1.860208,3.200474 -1.832032,5.027344 0.04593,3.614926 0.07538,7.235914 -0.08594,10.84375 -0.221278,2.89393 0.24274,5.822832 -0.04687,8.730468 0.0598,2.132758 -0.09423,3.69371 0.07422,5.671876 0.02838,1.326158 0.164278,3.06882 -0.08594,4.16797 0.07946,-0.90483 -0.557314,-4.081354 -0.324218,-1.88281 -0.251556,1.34664 0.10835,3.27546 1.132812,3.78906 0.130232,0.92124 0.322604,1.74194 0.648438,0.91015 1.145387,0.69349 1.025202,-2.31989 1.699218,-0.375 0.470235,-0.58808 2.111768,-1.16561 2.04297,0.26563 1.269589,-1.74487 4.110146,-0.93656 6.105468,-1.05469 0.700838,0.2397 3.75167,-1.71035 4.902344,-3.01562 2.818426,-3.493246 2.127716,-8.005756 2.101562,-12.074222 C 19.687994,83.933212 20.12956,78.828634 19.229504,73.820446 18.064922,69.613973 12.82653,67.611621 8.459973,68.136852 6.956706,68.174502 5.466126,68.084222 3.967786,68.00404 3.753184,67.98125 3.559359,67.97514 3.377942,67.9806 Z m 5.515625,4.738281 c 0.141816,0.0059 0.297492,0.02154 0.460937,0.05469 3.094724,-0.138974 5.680586,2.844587 4.757812,5.582031 -0.14538,0.945682 0.1706,2.80004 -0.359374,1.835938 -0.209194,-0.660472 0.58375,-2.212574 -0.265626,-2.54297 -0.1842,2.531224 -0.10918,5.094206 0.38672,7.597656 0.11544,1.724608 -0.586746,2.991254 -0.578126,4.816408 -0.327426,2.032744 0.601172,3.79389 0.02734,5.58203 -0.377382,1.492752 -0.17962,-1.88599 -0.308594,-2.476562 -0.449112,-2.137228 -0.790724,1.384078 -0.07422,2.097656 0.25124,0.914622 -0.609324,0.06038 -0.4375,1.234376 0.04342,0.752582 -0.223966,2.681998 -0.363282,1.007812 -0.400248,0.35566 -0.803086,0.879006 -0.839844,1.066406 -1.47175,0.576892 -3.353454,1.013204 -4.066406,-0.476562 -0.552532,-2.073484 -0.04838,-4.13644 -0.230468,-6.210938 0.671844,-0.08292 0.152278,-2.472626 0.0078,-1.148438 -0.167076,-1.645828 0.618997,-2.787796 0.730469,-3.86328 -0.328062,-0.411724 -0.659204,-2.8038 -0.285157,-3.597656 -0.02087,-1.17411 0.544387,-3.063586 -0.121094,-3.3125 0.386741,-1.265558 -0.407972,-2.913414 0.03906,-3.82422 0.139508,1.292624 0.284207,1.365012 0.355469,-0.0586 -0.715831,-0.65219 -0.96314,-3.452568 1.164062,-3.363275 z"
       id="path3" />
    <path
       style="fill:#ffffff"
       d="m 12.801852,104.0138 c -0.03262,0.34599 0.14204,0.0284 0,0 z"
       id="path4-3" />
  </g>
</svg>
