<?xml version="1.0" encoding="UTF-8" standalone="no"?>
<svg
   width="62"
   height="62"
   version="1.1"
   id="svg7"
   sodipodi:docname="dynamic-wallpaper.svg"
   inkscape:version="1.4.2 (unknown)"
   xmlns:inkscape="http://www.inkscape.org/namespaces/inkscape"
   xmlns:sodipodi="http://sodipodi.sourceforge.net/DTD/sodipodi-0.dtd"
   xmlns:xlink="http://www.w3.org/1999/xlink"
   xmlns="http://www.w3.org/2000/svg"
   xmlns:svg="http://www.w3.org/2000/svg">
  <defs
     id="defs7">
    <linearGradient
       id="linearGradient1"
       inkscape:collect="always">
      <stop
         style="stop-color:#ffd556;stop-opacity:1"
         offset="0"
         id="stop1" />
      <stop
         style="stop-color:#975cf6;stop-opacity:1"
         offset="1"
         id="stop2" />
    </linearGradient>
    <linearGradient
       inkscape:collect="always"
       xlink:href="#linearGradient8"
       id="linearGradient10"
       x1="5.5"
       y1="26"
       x2="59"
       y2="12.742325"
       gradientUnits="userSpaceOnUse"
       gradientTransform="translate(-0.5,-0.5087719)" />
    <linearGradient
       id="linearGradient8"
       inkscape:collect="always">
      <stop
         style="stop-color:#ffcc00;stop-opacity:1"
         offset="0"
         id="stop8" />
      <stop
         style="stop-color:#ffd42a;stop-opacity:1"
         offset="0.45454547"
         id="stop3" />
      <stop
         style="stop-color:#5a2ca0;stop-opacity:1"
         offset="0.45454547"
         id="stop4" />
      <stop
         style="stop-color:#442178;stop-opacity:1"
         offset="1"
         id="stop10" />
    </linearGradient>
    <linearGradient
       id="paint3_linear_332_93"
       x1="37.304401"
       y1="24.2272"
       x2="23.255199"
       y2="12.9039"
       gradientUnits="userSpaceOnUse"
       gradientTransform="matrix(1,0,0,1.0089403,-0.9999998,-0.28624446)">
      <stop
         stop-color="#731FFF"
         id="stop9" />
      <stop
         offset="0.905415"
         stop-color="#EB1AFF"
         id="stop10-5" />
    </linearGradient>
    <linearGradient
       id="paint1_linear_332_93"
       x1="2"
       y1="61.696899"
       x2="14.6751"
       y2="28.2421"
       gradientUnits="userSpaceOnUse"
       gradientTransform="matrix(0.91578336,0,0,1,1.7216248,-7.2011443)">
      <stop
         stop-color="#731FFF"
         id="stop5" />
      <stop
         offset="0.905415"
         stop-color="#EB1AFF"
         id="stop6" />
    </linearGradient>
    <linearGradient
       id="paint2_linear_332_93"
       x1="54.645401"
       y1="46.748501"
       x2="26.243099"
       y2="10.4978"
       gradientUnits="userSpaceOnUse"
       gradientTransform="matrix(0.91578336,0,0,1,1.7216248,-7.2011443)">
      <stop
         offset="0.118093"
         stop-color="#731FFF"
         id="stop7" />
      <stop
         offset="0.905415"
         stop-color="#EB1AFF"
         id="stop8-3" />
    </linearGradient>
    <linearGradient
       inkscape:collect="always"
       xlink:href="#linearGradient1"
       id="linearGradient2"
       x1="30"
       y1="-5.4219704"
       x2="55"
       y2="43.784729"
       gradientUnits="userSpaceOnUse" />
    <linearGradient
       inkscape:collect="always"
       xlink:href="#linearGradient1"
       id="linearGradient4"
       x1="25.0993"
       y1="23.952276"
       x2="15"
       y2="43.784729"
       gradientUnits="userSpaceOnUse" />
    <clipPath
       id="h">
      <rect
         id="rect6"
         x="1.0599999"
         y="1.052"
         width="14.814"
         height="14.814"
         rx="3.4389999"
         ry="3.4389999"
         fill="url(#b)" />
    </clipPath>
    <linearGradient
       id="b"
       x1="7.9369998"
       x2="7.9369998"
       y1="15.081"
       y2="1.852"
       gradientTransform="matrix(0.99977,0,0,0.99977,0.002,0.002)"
       gradientUnits="userSpaceOnUse">
      <stop
         id="stop5-3"
         stop-color="#767574"
         offset="0" />
      <stop
         id="stop6-6"
         stop-color="#d1e7ee"
         offset="1" />
    </linearGradient>
  </defs>
  <sodipodi:namedview
     id="namedview7"
     pagecolor="#ffffff"
     bordercolor="#000000"
     borderopacity="0.25"
     inkscape:showpageshadow="2"
     inkscape:pageopacity="0.0"
     inkscape:pagecheckerboard="0"
     inkscape:deskcolor="#d1d1d1"
     inkscape:zoom="4.1542523"
     inkscape:cx="37.91296"
     inkscape:cy="26.599251"
     inkscape:window-width="1920"
     inkscape:window-height="998"
     inkscape:window-x="0"
     inkscape:window-y="0"
     inkscape:window-maximized="1"
     inkscape:current-layer="svg7"
     showgrid="true">
    <inkscape:grid
       id="grid1"
       units="px"
       originx="0"
       originy="0"
       spacingx="1"
       spacingy="1"
       empcolor="#0099e5"
       empopacity="0.30196078"
       color="#0099e5"
       opacity="0.14901961"
       empspacing="5"
       enabled="true"
       visible="true" />
  </sodipodi:namedview>
  <g
     id="g7"
     transform="translate(0,-0.4912281)">
    <rect
       style="opacity:0.2;stroke-width:0.9823"
       width="55"
       height="55.017544"
       x="3.5"
       y="4.4736843"
       rx="8.25"
       ry="8.2526312"
       id="rect1" />
    <rect
       style="fill:url(#linearGradient10);stroke-width:0.9823"
       width="55"
       height="55.017544"
       x="3.5"
       y="3.4912281"
       rx="8.25"
       ry="8.2526312"
       id="rect2" />
    <path
       style="opacity:0.1;fill:#ffffff;stroke-width:0.9823"
       d="M 11.748466,3.4912281 C 7.1779652,3.4912281 3.5,7.1703661 3.5,11.742325 v 0.982456 c 0,-4.5719589 3.6779652,-8.2510969 8.248466,-8.2510969 h 38.503068 c 4.5705,0 8.248466,3.679138 8.248466,8.2510969 v -0.982456 c 0,-4.5719589 -3.677966,-8.2510969 -8.248466,-8.2510969 z"
       id="path4-3" />
  </g>
  <g
     id="g1"
     transform="matrix(1,0,0,0.80803928,0,11.133722)">
    <path
       opacity="0.4"
       d="m 32.21373,36.130355 c 11.404983,4.9425 15.220777,3.6347 26.286461,0.3994 v 13.966 c 0,2.2092 -1.640076,4 -3.663133,4 H 7.2163249 c -2.0230937,0 -3.6631334,-1.7908 -3.6631334,-4 v -16.3064 c 10.8749265,-3.9236 18.2095265,-3.7552 28.6605385,1.941 z"
       id="path1"
       style="opacity:0.549716;fill:url(#linearGradient4)" />
    <path
       d="m 29.839653,35.723855 c -11.404983,5.052 -15.220777,3.7152 -26.2864615,0.4083 v 14.3639 C 3.5531915,54.84096 8.0195196,58 10.1,58 H 51 c 3.330562,0 7.500191,-3.405176 7.500191,-7.503945 v -16.7561 c -10.874926,-4.0106 -18.209527,-3.8384 -28.660538,1.9839 z"
       id="path2"
       sodipodi:nodetypes="ccsssscc"
       style="fill:url(#linearGradient2)" />
  </g>
  <path
     id="path10"
     transform="matrix(3.8728858,0,0,3.8758126,-2.2916002,-15.014067)"
     d="M 14.793,9.925 14.76,9.908 c -0.24,0.035 -0.48,0 -0.72,-0.052 A 1.92,1.92 0 0 1 12.7,7.507 1.9,1.9 0 0 1 13.027,6.856 V 6.82 L 12.992,6.803 a 1.98,1.98 0 0 0 -1.698,1.44 2.02,2.02 0 0 0 0.189,1.51 1.92,1.92 0 0 0 1.2,0.925 c 0.173,0.053 0.361,0.069 0.533,0.069 A 1.98,1.98 0 0 0 14.792,9.959 Z M 4.06,10.131 a 0.24,0.24 0 0 0 -0.291,0.068 l -0.257,0.463 a 0.24,0.24 0 0 0 0.068,0.29 0.25,0.25 0 0 0 0.104,0.036 0.24,0.24 0 0 0 0.188,-0.103 l 0.257,-0.462 c 0.07,-0.104 0.035,-0.242 -0.07,-0.292 z M 2.74,7.816 3.203,8.073 C 3.238,8.09 3.273,8.108 3.306,8.108 A 0.24,0.24 0 0 0 3.495,8.004 0.24,0.24 0 0 0 3.426,7.712 L 2.963,7.456 A 0.24,0.24 0 0 0 2.673,7.525 C 2.621,7.627 2.655,7.765 2.741,7.815 Z M 5.621,7.422 C 5.655,7.438 5.689,7.457 5.724,7.457 A 0.24,0.24 0 0 0 5.913,7.352 L 6.169,6.891 A 0.24,0.24 0 0 0 6.102,6.599 0.24,0.24 0 0 0 5.81,6.667 L 5.552,7.13 C 5.484,7.25 5.518,7.37 5.622,7.42 Z M 6.924,9.736 6.46,9.48 a 0.24,0.24 0 0 0 -0.29,0.068 0.24,0.24 0 0 0 0.068,0.29 l 0.464,0.257 A 0.2,0.2 0 0 0 6.804,10.13 0.24,0.24 0 0 0 6.993,10.028 C 7.061,9.925 7.027,9.805 6.923,9.736 Z M 3.494,9.565 C 3.444,9.462 3.306,9.428 3.204,9.495 L 2.758,9.736 c -0.103,0.052 -0.137,0.19 -0.07,0.292 0.035,0.068 0.104,0.103 0.19,0.103 A 0.2,0.2 0 0 0 2.98,10.096 L 3.443,9.84 C 3.513,9.788 3.546,9.651 3.495,9.565 Z M 3.769,7.353 c 0.035,0.069 0.103,0.103 0.19,0.103 a 0.2,0.2 0 0 0 0.1,-0.035 C 4.164,7.371 4.197,7.233 4.129,7.13 L 3.872,6.667 C 3.822,6.564 3.684,6.529 3.581,6.599 3.477,6.651 3.443,6.787 3.511,6.891 Z m 2.418,0.652 c 0.035,0.07 0.102,0.102 0.188,0.102 0.035,0 0.07,-0.017 0.103,-0.034 L 6.941,7.817 C 7.044,7.765 7.078,7.627 7.011,7.525 A 0.203,0.203 0 0 0 6.719,7.455 L 6.255,7.712 C 6.169,7.765 6.135,7.902 6.187,8.004 Z M 5.913,10.199 A 0.2,0.2 0 0 0 5.621,10.131 c -0.103,0.05 -0.137,0.188 -0.07,0.292 l 0.258,0.462 c 0.035,0.068 0.104,0.103 0.189,0.103 0.035,0 0.069,-0.018 0.104,-0.035 0.102,-0.05 0.136,-0.188 0.067,-0.291 z M 3.289,8.776 A 0.2,0.2 0 0 0 3.083,8.571 H 2.346 A 0.2,0.2 0 0 0 2.141,8.776 0.2,0.2 0 0 0 2.346,8.981 H 3.083 A 0.21,0.21 0 0 0 3.289,8.776 M 4.833,7.216 A 0.2,0.2 0 0 0 5.038,7.01 V 6.273 A 0.2,0.2 0 0 0 4.833,6.067 0.2,0.2 0 0 0 4.626,6.273 V 7.01 A 0.21,0.21 0 0 0 4.833,7.216 M 7.336,8.57 H 6.598 A 0.2,0.2 0 0 0 6.393,8.775 0.2,0.2 0 0 0 6.598,8.98 H 7.336 A 0.2,0.2 0 0 0 7.541,8.775 C 7.558,8.655 7.456,8.57 7.336,8.57 M 4.85,10.336 a 0.2,0.2 0 0 0 -0.206,0.207 v 0.736 A 0.2,0.2 0 0 0 4.85,11.485 0.2,0.2 0 0 0 5.055,11.279 V 10.543 A 0.21,0.21 0 0 0 4.85,10.336 m 0,-2.691 A 1.14,1.14 0 0 0 3.717,8.776 c 0,0.618 0.515,1.132 1.133,1.132 A 1.14,1.14 0 0 0 5.98,8.776 1.14,1.14 0 0 0 4.85,7.646 Z"
     clip-path="url(#h)"
     fill="#ffffff" />
</svg>
