<?xml version="1.0" encoding="UTF-8" standalone="no"?>
<svg
   width="62"
   height="62"
   version="1"
   id="svg4"
   sodipodi:docname="easystroke.svg"
   inkscape:version="1.4.2 (unknown)"
   xmlns:inkscape="http://www.inkscape.org/namespaces/inkscape"
   xmlns:sodipodi="http://sodipodi.sourceforge.net/DTD/sodipodi-0.dtd"
   xmlns:xlink="http://www.w3.org/1999/xlink"
   xmlns="http://www.w3.org/2000/svg"
   xmlns:svg="http://www.w3.org/2000/svg">
  <defs
     id="defs4">
    <linearGradient
       id="linearGradient4"
       inkscape:collect="always">
      <stop
         style="stop-color:#424d57;stop-opacity:1;"
         offset="0"
         id="stop4" />
      <stop
         style="stop-color:#6f7c91;stop-opacity:1"
         offset="1"
         id="stop5" />
    </linearGradient>
    <linearGradient
       inkscape:collect="always"
       xlink:href="#linearGradient4"
       id="linearGradient5"
       x1="-58.01754"
       y1="-31.499992"
       x2="-3"
       y2="-31.499992"
       gradientUnits="userSpaceOnUse"
       gradientTransform="translate(0,0.499996)" />
  </defs>
  <sodipodi:namedview
     id="namedview4"
     pagecolor="#ffffff"
     bordercolor="#000000"
     borderopacity="0.25"
     inkscape:showpageshadow="2"
     inkscape:pageopacity="0.0"
     inkscape:pagecheckerboard="0"
     inkscape:deskcolor="#d1d1d1"
     inkscape:zoom="8.4079416"
     inkscape:cx="27.59296"
     inkscape:cy="35.383214"
     inkscape:current-layer="svg4" />
  <path
     style="opacity:0.2;stroke-width:0.99997"
     d="M 3.5498951,30.509588 C 3.5383078,30.837718 3.500002,31.15995 3.500002,31.492011 3.5000021,46.731437 15.764653,59 30.999216,59 46.233773,59 58.498422,46.731437 58.498422,31.492011 c 0,-0.331742 -0.03833,-0.653586 -0.04986,-0.982423 -0.518557,14.777681 -12.547496,26.525558 -27.450105,26.525558 -14.903001,0 -26.9315488,-11.747877 -27.4501054,-26.525558 z"
     id="path1" />
  <rect
     style="fill:url(#linearGradient5);stroke-width:0.99997"
     width="55.01754"
     height="54.999985"
     x="-58.01754"
     y="-58.499989"
     rx="27.999001"
     ry="27.999001"
     transform="matrix(0,-1,-1,0,0,0)"
     id="rect1" />
  <path
     style="opacity:0.1;fill:#ffffff;stroke-width:0.99997"
     d="M 30.999997,3 C 15.765434,3 3.500004,15.269344 3.500004,30.50877 c 0,0.111562 0.011082,0.220106 0.017263,0.330048 0.3452563,-14.934634 12.466917,-26.856362 27.48273,-26.856362 15.015823,0 27.137478,11.921728 27.482731,26.856362 0.0063,-0.109862 0.01727,-0.218593 0.01727,-0.330048 C 58.499992,15.269344 46.234562,3 30.999997,3 Z"
     id="path2" />
  <g
     id="surface1"
     transform="matrix(2.0914072,0,0,2.0914072,14.267574,13.953091)"
     style="stroke-width:0.478146">
    <path
       d="M 2.28125,15.075875 C 1.546875,15.017281 0.835938,14.87275 0.195312,14.650094 L 0,14.579781 0.0078125,14.525094 C 0.03125,14.384469 0.0898438,14.103219 0.148438,13.876657 0.410156,12.837594 0.914062,11.81025 1.589844,10.943063 1.992188,10.423531 2.535156,9.8844682 3.0625,9.4782182 3.652344,9.0250932 4.375,8.6188432 5.042969,8.3610302 5.152344,8.3180622 5.152344,8.3180622 5.144531,8.2750932 5.140625,8.2516562 5.125,8.1383742 5.109375,8.0211872 4.980469,6.9977492 5.039062,6.0094682 5.296875,4.9977492 5.371094,4.6891562 5.542969,4.1774372 5.664062,3.8883742 6.085938,2.8727492 6.710938,1.9508742 7.492188,1.1969682 7.6875,1.0055622 7.984375,0.74384318 8.003906,0.74384318 c 0.023438,0 0.320313,0.26171902 0.519532,0.45703102 0.425781,0.417969 0.773437,0.835938 1.105468,1.335938 0.210938,0.320312 0.324219,0.523437 0.503906,0.886718 0.714844,1.453126 0.980469,3.105469 0.753907,4.707032 -0.01563,0.101562 -0.02344,0.183594 -0.02344,0.1875 0.0039,0 0.08594,0.035156 0.191407,0.078125 1.511718,0.609375 2.808593,1.6718758 3.722656,3.0507818 0.585937,0.875 0.992187,1.878906 1.195312,2.9375 0.03125,0.144531 0.03516,0.191406 0.01953,0.199219 -0.0078,0.0078 -0.121094,0.04687 -0.246094,0.08594 -0.578125,0.195313 -1.152344,0.316406 -1.792969,0.386719 -0.28125,0.03125 -0.976563,0.04297 -1.296875,0.01953 -1.65234,-0.10547 -3.261715,-0.714846 -4.511715,-1.710939 L 8.003906,13.255563 7.90625,13.333688 C 7.039062,14.029 5.972656,14.556344 4.871094,14.837594 4.441406,14.946969 4.101562,15.005563 3.625,15.056344 c -0.234375,0.02734 -1.105469,0.03906 -1.34375,0.01953 z M 3.269531,13.583688 C 4.5625,13.493844 5.757812,13.056344 6.796875,12.290719 l 0.132813,-0.09766 -0.039063,-0.05078 C 6.792969,12.029 6.515625,11.650094 6.394531,11.470407 6.105469,11.032907 5.816406,10.489938 5.636719,10.032907 5.585938,9.9000932 5.539062,9.7907182 5.535156,9.7868122 5.523438,9.7672802 4.925781,10.052438 4.667969,10.204781 c -1.082031,0.640626 -1.953125,1.554688 -2.53125,2.65625 -0.125,0.242188 -0.300781,0.640626 -0.285157,0.652344 0.011719,0.01563 0.347657,0.05469 0.550782,0.07031 0.242187,0.01563 0.632812,0.01563 0.867187,0 z m 10.308594,0 c 0.117187,-0.01172 0.296875,-0.02734 0.398437,-0.03906 0.214844,-0.02734 0.203126,-0.0078 0.121094,-0.207031 -0.609375,-1.441406 -1.761718,-2.664063 -3.164062,-3.3515634 -0.203125,-0.097656 -0.429688,-0.1992184 -0.449219,-0.1992184 -0.0078,0 -0.05859,0.109375 -0.113281,0.2421878 -0.175782,0.445313 -0.460938,0.988281 -0.753906,1.4375 -0.113282,0.175781 -0.398438,0.558594 -0.5,0.675781 l -0.039063,0.05078 0.144531,0.105468 c 1.242188,0.921876 2.832032,1.390626 4.355469,1.285156 z M 8.144531,10.950875 C 8.464844,10.521188 8.738281,10.040719 8.945312,9.5563432 L 9.019531,9.3844682 8.976562,9.3727492 c -0.027343,-0.00391 -0.136718,-0.019531 -0.25,-0.03125 -0.167968,-0.023437 -0.308593,-0.027343 -0.722656,-0.027343 -0.496094,0 -0.65625,0.00781 -0.960937,0.058593 l -0.050781,0.00781 0.054687,0.136718 c 0.089844,0.222657 0.339844,0.7109388 0.46875,0.9218768 0.183594,0.292968 0.460937,0.675781 0.492187,0.675781 0.00391,0 0.066407,-0.07422 0.136719,-0.164063 z M 6.773438,7.8961872 c 0.484374,-0.074219 1.082031,-0.105469 1.5625,-0.082031 0.332031,0.011718 0.699218,0.050781 0.9375,0.089843 0.066406,0.00781 0.125,0.015625 0.125,0.015625 0.00391,0 0.015624,-0.097656 0.027343,-0.207031 0.039063,-0.296875 0.039063,-1.132813 0,-1.425781 C 9.277344,5.0602492 8.859375,4.0016562 8.144531,3.0407182 8.074219,2.9469682 8.011719,2.8688432 8.003906,2.8688432 8,2.8688432 7.933594,2.9469682 7.863281,3.0407182 7.105469,4.0563432 6.664062,5.2360302 6.5625,6.5172802 c -0.019531,0.257813 -0.00781,0.960938 0.019531,1.203126 0.011719,0.09375 0.023438,0.175781 0.023438,0.1875 0,0.011718 0.011719,0.015624 0.035156,0.011718 0.023437,-0.00781 0.082031,-0.015625 0.132813,-0.023437 z m 0,0"
       id="path1-3"
       style="fill:#f2f2f2;fill-opacity:1;stroke-width:0.478146" />
  </g>
</svg>
