<?xml version="1.0" encoding="UTF-8" standalone="no"?>
<svg
   width="62"
   height="62"
   version="1"
   id="svg6"
   sodipodi:docname="easyeda.svg"
   inkscape:version="1.4.2 (unknown)"
   xmlns:inkscape="http://www.inkscape.org/namespaces/inkscape"
   xmlns:sodipodi="http://sodipodi.sourceforge.net/DTD/sodipodi-0.dtd"
   xmlns:xlink="http://www.w3.org/1999/xlink"
   xmlns="http://www.w3.org/2000/svg"
   xmlns:svg="http://www.w3.org/2000/svg">
  <defs
     id="defs6">
    <linearGradient
       id="linearGradient6"
       inkscape:collect="always">
      <stop
         style="stop-color:#5a8bff;stop-opacity:1;"
         offset="0"
         id="stop6" />
      <stop
         style="stop-color:#aa87de;stop-opacity:1"
         offset="1"
         id="stop7" />
    </linearGradient>
    <linearGradient
       inkscape:collect="always"
       xlink:href="#linearGradient6"
       id="linearGradient7"
       x1="31.593956"
       y1="53.90519"
       x2="31.760841"
       y2="7.3138614"
       gradientUnits="userSpaceOnUse" />
  </defs>
  <sodipodi:namedview
     id="namedview6"
     pagecolor="#ffffff"
     bordercolor="#000000"
     borderopacity="0.25"
     inkscape:showpageshadow="2"
     inkscape:pageopacity="0.0"
     inkscape:pagecheckerboard="0"
     inkscape:deskcolor="#d1d1d1"
     inkscape:zoom="5.9453125"
     inkscape:cx="42.890933"
     inkscape:cy="39.274639"
     inkscape:current-layer="svg6" />
  <rect
     style="opacity:0.2;stroke-width:0.999948"
     width="55"
     height="55.05085"
     x="3.0000002"
     y="3.9491525"
     rx="17.4"
     ry="17.4"
     id="rect1" />
  <rect
     style="fill:url(#linearGradient7);stroke-width:0.999948"
     width="55"
     height="55.05085"
     x="3.0000002"
     y="3.0000002"
     rx="17.4"
     ry="17.4"
     id="rect2" />
  <path
     style="opacity:0.2;stroke-width:0.999948"
     d="m 31.892775,13.485164 c -4.744719,0.007 -9.167905,2.117446 -12.316474,5.602229 -0.07018,-0.0019 -0.1372,-0.018 -0.20743,-0.0186 h -0.01474 -0.01119 c -6.898382,9e-6 -12.5497773,5.656518 -12.5497773,12.561442 0,5.219353 3.2547823,9.415172 7.8121603,11.211858 0.866249,3.792919 4.273459,6.666312 8.308531,6.666312 4.67985,0 8.534474,-3.858179 8.534474,-8.542368 0,-0.56645 -0.05924,-1.120379 -0.16669,-1.657306 l 9.179014,-5.876584 -3.067077,-4.797673 -9.064182,5.802439 c -1.481699,-1.236097 -3.355945,-2.01324 -5.415539,-2.01324 -3.264387,0 -6.09377,1.898034 -7.526944,4.623409 -1.824166,-1.136471 -3.015226,-3.012293 -3.015226,-5.416845 0,-3.884708 3.083926,-6.973301 6.9639,-6.977749 0.314288,0.0033 0.629908,0.02839 0.940878,0.07419 l 1.659484,0.244704 0.992715,-1.353276 c 2.099518,-2.85657 5.421392,-4.542521 8.964174,-4.549252 h 0.0039 c 4.491399,0.0074 8.526612,2.692553 10.268046,6.836857 l 0.566744,1.356997 1.440937,0.296604 c 2.610324,0.536579 4.455981,2.80149 4.456153,5.468746 0,2.835162 -2.047504,4.796142 -4.759896,5.131353 a 2.8451113,2.8477417 0 0 0 -0.522383,-0.04083 h -3.322684 a 2.8451113,2.8477417 0 1 0 0,5.694921 h 3.022634 0.0039 0.296334 a 2.8451113,2.8477417 0 0 0 0.463027,-0.03336 c 5.777827,-0.366736 10.397363,-4.87401 10.397363,-10.752078 -3.22e-4,-4.794913 -3.155814,-8.87944 -7.589926,-10.41472 -2.853244,-5.509278 -8.449296,-9.121371 -14.720502,-9.128175 z m -8.978981,24.633472 c 1.604933,0 2.844823,1.241038 2.844823,2.847457 0,1.606431 -1.23989,2.847464 -2.844823,2.847464 -1.604951,0 -2.844829,-1.241033 -2.844829,-2.847464 0,-1.606419 1.239878,-2.847457 2.844829,-2.847457 z"
     id="path2" />
  <path
     style="fill:#ffffff;stroke-width:0.999948"
     d="m 31.891908,12.536946 c -4.744727,0.007 -9.16522,2.114839 -12.313786,5.599613 -0.07017,-0.0019 -0.139498,-0.01574 -0.209722,-0.01635 h -0.01373 -0.01099 c -6.898441,0 -12.5506403,5.657407 -12.5506403,12.562339 0,6.278357 4.6783523,11.128616 10.7122643,12.029164 v -5.700478 c -2.969949,-0.800905 -5.134151,-3.083923 -5.134151,-6.328678 0,-3.884708 3.084494,-6.974633 6.964467,-6.979085 0.314281,0.0033 0.628711,0.02782 0.939683,0.07362 l 1.65872,0.245365 0.994142,-1.352197 c 2.099504,-2.856571 5.420874,-4.5433 8.963657,-4.55003 h 0.0055 c 4.4914,0.0074 8.524134,2.693025 10.265578,6.837317 l 0.569244,1.354927 1.440835,0.297152 c 2.610321,0.536581 4.455792,2.801506 4.455956,5.46876 0,3.114753 -2.46157,5.199807 -5.572659,5.202768 -0.150433,-2.43e-4 -0.299598,0.259413 -0.449411,0.247054 v 5.289859 c 0.146114,0.01533 0.290596,0.04615 0.438511,0.04641 h 0.0027 0.0027 c 6.128478,-7e-6 11.15632,-4.651983 11.15632,-10.786032 -3.53e-4,-4.794927 -3.154125,-8.878845 -7.588241,-10.414108 -2.85324,-5.509278 -8.450138,-9.120526 -14.721339,-9.12733 h -0.0027 z"
     id="path3" />
  <ellipse
     style="fill:none;stroke:#ffffff;stroke-width:6"
     cx="22.913794"
     cy="40.016956"
     id="circle3"
     rx="5.6896539"
     ry="5.6949143" />
  <path
     style="fill:none;stroke:#ffffff;stroke-width:6"
     d="M 38.927538,30.08558 27.795477,37.209339"
     id="path4" />
  <path
     style="fill:none;stroke:#ffffff;stroke-width:6;stroke-linecap:round"
     d="m 40.023273,40.016663 h 3.323966"
     id="path5" />
  <path
     style="opacity:0.2;fill:#ffffff;stroke-width:0.999948"
     d="m 19.498513,3.0000003 c -9.141003,0 -16.4985127,7.3643117 -16.4985127,16.5137667 v 0.949151 c 0,-9.149444 7.3575097,-16.513765 16.4985127,-16.513765 h 22.002966 c 9.140996,0 16.498512,7.364322 16.498512,16.513765 v -0.949151 c 0,-9.149455 -7.357516,-16.5137667 -16.498512,-16.5137667 z"
     id="path6" />
</svg>
