<?xml version="1.0" encoding="UTF-8" standalone="no"?>
<svg
   width="62"
   height="62"
   version="1.1"
   id="svg5"
   sodipodi:docname="emby-server.svg"
   inkscape:version="1.4 (unknown)"
   xmlns:inkscape="http://www.inkscape.org/namespaces/inkscape"
   xmlns:sodipodi="http://sodipodi.sourceforge.net/DTD/sodipodi-0.dtd"
   xmlns:xlink="http://www.w3.org/1999/xlink"
   xmlns="http://www.w3.org/2000/svg"
   xmlns:svg="http://www.w3.org/2000/svg">
  <defs
     id="defs5">
    <linearGradient
       id="linearGradient8"
       inkscape:collect="always">
      <stop
         style="stop-color:#2d3d53;stop-opacity:1;"
         offset="0"
         id="stop8" />
      <stop
         style="stop-color:#464157;stop-opacity:1;"
         offset="1"
         id="stop10" />
    </linearGradient>
    <linearGradient
       id="linearGradient4217">
      <stop
         style="stop-color:#000000;stop-opacity:1;"
         offset="0"
         id="stop2" />
      <stop
         style="stop-color:#000000;stop-opacity:0;"
         offset="1"
         id="stop4" />
    </linearGradient>
    <linearGradient
       id="linearGradient4161">
      <stop
         style="stop-color:#334545;stop-opacity:1;"
         offset="0"
         id="stop7" />
      <stop
         style="stop-color:#4d6868;stop-opacity:1"
         offset="1"
         id="stop9" />
    </linearGradient>
    <linearGradient
       id="a-1-2"
       y1="510.79999"
       y2="527.14001"
       gradientUnits="userSpaceOnUse"
       x2="0">
      <stop
         stop-color="#7cbaf8"
         id="stop2-2-7" />
      <stop
         offset="1"
         stop-color="#f4fcff"
         id="stop4-70-0" />
    </linearGradient>
    <linearGradient
       id="c"
       y1="503.79999"
       x1="400.57001"
       y2="519.79999"
       x2="416.57001"
       gradientUnits="userSpaceOnUse">
      <stop
         stop-color="#292c2f"
         id="stop12" />
      <stop
         offset="1"
         stop-opacity="0"
         id="stop14" />
    </linearGradient>
    <linearGradient
       id="b"
       y1="542.79999"
       x1="408.57001"
       y2="521.79999"
       x2="387.57001"
       gradientUnits="userSpaceOnUse"
       gradientTransform="translate(-384.57,-499.8)">
      <stop
         stop-color="#197cf1"
         id="stop7-8" />
      <stop
         offset="1"
         stop-color="#20bcfa"
         id="stop9-7" />
    </linearGradient>
    <linearGradient
       xlink:href="#linearGradient1389"
       id="linearGradient4503-5-6"
       y1="37"
       y2="4"
       x2="0"
       gradientUnits="userSpaceOnUse"
       gradientTransform="matrix(1.0218446,0,0,0.99999999,21.748946,8.2587777)" />
    <linearGradient
       id="linearGradient1389">
      <stop
         style="stop-color:#ffaaaa;stop-opacity:1"
         id="stop1385"
         offset="0" />
      <stop
         offset="1"
         style="stop-color:#ff5555;stop-opacity:1"
         id="stop1387" />
    </linearGradient>
    <linearGradient
       id="paint543_linear_890_11"
       x1="978.5"
       y1="298"
       x2="978.5"
       y2="304"
       gradientUnits="userSpaceOnUse"
       gradientTransform="matrix(0.75000004,0,0,0.75000004,-717.38333,-173.49123)">
      <stop
         offset="0.189495"
         stop-color="#EFF2F6"
         id="stop1829" />
      <stop
         offset="0.850463"
         stop-color="#B7C6CD"
         id="stop1830" />
    </linearGradient>
    <linearGradient
       inkscape:collect="always"
       xlink:href="#linearGradient8"
       id="linearGradient10"
       x1="31.5"
       y1="59.017544"
       x2="30.677261"
       y2="34.448898"
       gradientUnits="userSpaceOnUse"
       gradientTransform="translate(-0.5,-1)" />
    <linearGradient
       id="linearGradient4144">
      <stop
         style="stop-color:#c83771;stop-opacity:1"
         offset="0"
         id="stop1141" />
      <stop
         style="stop-color:#de87aa;stop-opacity:1"
         offset="1"
         id="stop1143" />
    </linearGradient>
    <linearGradient
       id="c-0"
       gradientUnits="userSpaceOnUse"
       x1="10"
       x2="24"
       y1="10"
       y2="24"
       gradientTransform="translate(59.728813,26.237288)">
      <stop
         offset="0"
         stop-color="#292c2f"
         id="stop12-2" />
      <stop
         offset="1"
         stop-opacity="0"
         id="stop14-3" />
    </linearGradient>
    <linearGradient
       id="d"
       gradientUnits="userSpaceOnUse"
       x1="24"
       x2="24"
       y1="25"
       y2="7"
       gradientTransform="translate(59.728813,26.237288)">
      <stop
         offset="0"
         stop-color="#bb9d71"
         id="stop2-7" />
      <stop
         offset="1"
         stop-color="#f9f2e7"
         id="stop4-5" />
    </linearGradient>
  </defs>
  <sodipodi:namedview
     id="namedview5"
     pagecolor="#ffffff"
     bordercolor="#000000"
     borderopacity="0.25"
     inkscape:showpageshadow="2"
     inkscape:pageopacity="0.0"
     inkscape:pagecheckerboard="0"
     inkscape:deskcolor="#d1d1d1"
     inkscape:zoom="8.2643105"
     inkscape:cx="25.228965"
     inkscape:cy="49.91342"
     inkscape:window-width="1920"
     inkscape:window-height="998"
     inkscape:window-x="0"
     inkscape:window-y="0"
     inkscape:window-maximized="1"
     inkscape:current-layer="svg5" />
  <rect
     style="opacity:0.2;stroke-width:0.9823"
     width="55"
     height="55.017544"
     x="3.5"
     y="3.9824562"
     rx="8.25"
     ry="8.2526312"
     id="rect1" />
  <rect
     style="fill:url(#linearGradient10);stroke-width:0.9823"
     width="55"
     height="55.017544"
     x="3.5"
     y="3"
     rx="8.25"
     ry="8.2526312"
     id="rect2" />
  <path
     style="opacity:0.1;fill:#ffffff;stroke-width:0.9823"
     d="M 11.748466,3 C 7.1779652,3 3.5,6.6791384 3.5,11.251097 v 0.982456 c 0,-4.5719585 3.6779652,-8.2510969 8.248466,-8.2510969 h 38.503068 c 4.5705,0 8.248466,3.6791384 8.248466,8.2510969 V 11.251097 C 58.5,6.6791384 54.822034,3 50.251534,3 Z"
     id="path4" />
  <g
     id="g2"
     transform="matrix(0.74107143,0,0,0.73683845,12.473214,-34.210307)">
    <path
       style="opacity:0.2"
       d="m 23.11262,60.999908 a 1.95371,1.95371 0 0 0 -1.353216,0.572319 L 7.805002,75.52663 a 1.95371,1.95371 0 0 0 0,2.762392 l 0.478203,0.478203 -10.7112621,10.711263 a 1.95371,1.95371 0 0 0 0,2.762392 l 13.9544021,13.9544 a 1.95371,1.95371 0 0 0 2.762393,0 l 0.478203,-0.4782 10.711263,10.71126 a 1.95371,1.95371 0 0 0 2.762391,0 l 13.954403,-13.9544 a 1.95371,1.95371 0 0 0 0,-2.762394 L 41.716795,99.233344 52.428058,88.52208 a 1.95371,1.95371 0 0 0 0,-2.76239 L 38.473654,71.805286 a 1.95371,1.95371 0 0 0 -2.762392,0 L 35.233059,72.283489 24.521796,61.572227 A 1.95371,1.95371 0 0 0 23.11262,60.999908 Z"
       id="path1-1" />
    <path
       style="fill:#00b247;fill-opacity:1"
       d="m 23.11262,60.000192 a 1.95371,1.95371 0 0 0 -1.353216,0.572319 L 7.805002,74.526914 a 1.95371,1.95371 0 0 0 0,2.762392 l 0.478203,0.478203 -10.7112621,10.711263 a 1.95371,1.95371 0 0 0 0,2.762392 L 11.526345,105.19557 a 1.95371,1.95371 0 0 0 2.762393,0 l 0.478203,-0.47821 10.711263,10.71127 a 1.95371,1.95371 0 0 0 2.762391,0 l 13.954403,-13.95441 a 1.95371,1.95371 0 0 0 0,-2.76239 L 41.716795,98.233628 52.428058,87.522364 a 1.95371,1.95371 0 0 0 0,-2.76239 L 38.473654,70.80557 a 1.95371,1.95371 0 0 0 -2.762392,0 L 35.233059,71.283773 24.521796,60.572511 A 1.95371,1.95371 0 0 0 23.11262,60.000192 Z"
       id="path2-2" />
    <path
       style="opacity:0.2;stroke-width:1.34411"
       d="M 36.999936,89 17.999934,100 V 77.999999 Z"
       id="path3-7" />
    <path
       style="fill:#f3f3f3;stroke-width:1.34411;fill-opacity:1"
       d="m 36.999936,88.000284 -19.000002,11 V 77.000283 Z"
       id="path4-0" />
    <path
       style="opacity:0.2;fill:#ffffff"
       d="M 23.113281,60.000284 A 1.95371,1.95371 0 0 0 21.759766,60.57255 L 7.804688,74.527628 A 1.95371,1.95371 0 0 0 7.300781,76.408487 1.95371,1.95371 0 0 1 7.804688,75.525675 L 21.759766,61.57255 a 1.95371,1.95371 0 0 1 1.353515,-0.572266 1.95371,1.95371 0 0 1 1.408203,0.572266 l 10.710938,10.710937 0.478516,-0.478515 a 1.95371,1.95371 0 0 1 2.763671,0 L 52.427734,85.76005 a 1.95371,1.95371 0 0 1 0.50586,0.882812 1.95371,1.95371 0 0 0 -0.50586,-1.882812 L 38.474609,70.804972 a 1.95371,1.95371 0 0 0 -2.763671,0 L 35.232422,71.283487 24.521484,60.57255 A 1.95371,1.95371 0 0 0 23.113281,60.000284 Z M 7.783203,78.267862 -2.4277344,88.4788 A 1.95371,1.95371 0 0 0 -2.9335938,90.357706 1.95371,1.95371 0 0 1 -2.4277344,89.4788 L 8.283203,78.767862 7.804688,78.289346 a 1.95371,1.95371 0 0 1 -0.02149,-0.02148 z m 34.433594,20.464844 -0.5,0.5 0.478515,0.478516 a 1.95371,1.95371 0 0 1 0.503907,0.880858 1.95371,1.95371 0 0 0 -0.482422,-1.859374 z"
       id="path5-9" />
  </g>
</svg>
