<?xml version="1.0" encoding="UTF-8" standalone="no"?>
<svg
   width="62"
   height="62"
   version="1.1"
   id="svg6"
   sodipodi:docname="emily-is-away.svg"
   inkscape:version="1.4.2 (unknown)"
   xmlns:inkscape="http://www.inkscape.org/namespaces/inkscape"
   xmlns:sodipodi="http://sodipodi.sourceforge.net/DTD/sodipodi-0.dtd"
   xmlns="http://www.w3.org/2000/svg"
   xmlns:svg="http://www.w3.org/2000/svg">
  <defs
     id="defs6" />
  <sodipodi:namedview
     id="namedview6"
     pagecolor="#ffffff"
     bordercolor="#000000"
     borderopacity="0.25"
     inkscape:showpageshadow="2"
     inkscape:pageopacity="0.0"
     inkscape:pagecheckerboard="0"
     inkscape:deskcolor="#d1d1d1"
     inkscape:zoom="11.890625"
     inkscape:cx="31.95795"
     inkscape:cy="32"
     inkscape:current-layer="svg6" />
  <g
     id="g6"
     transform="translate(-1,-1.5)">
    <path
       d="M 4,14 V 55.222222 C 4,56.762222 5.24775,58 6.8,58 H 57.2014 C 58.7526,58 60,56.7625 60,55.222222 V 14 Z"
       style="opacity:0.2"
       id="path1" />
    <rect
       x="9.6000004"
       y="42.099998"
       width="44.799999"
       height="5.5999999"
       rx="2.1329999"
       ry="2.322"
       style="opacity:0.2"
       id="rect1" />
    <path
       d="M 4,13 V 54.222222 C 4,55.762222 5.24775,57 6.8,57 H 57.2014 C 58.7526,57 60,55.7625 60,54.222222 V 13 Z"
       style="fill:#d5e5ff"
       id="path2" />
    <path
       d="m 6.8,7.0000002 c -1.55232,0 -2.8,1.2381944 -2.8,2.7770832 V 13 H 60 V 9.7770834 C 60,8.2381946 58.7526,7.0000002 57.2,7.0000002 Z"
       style="fill:#8d5fd3"
       id="path3" />
    <path
       d="M 6.8007812,7 C 5.2484613,7 4,8.238455 4,9.7773438 V 10.777344 C 4,9.2384548 5.2484613,8 6.8007812,8 H 57.199219 C 58.751819,8 60,9.2384548 60,10.777344 V 9.7773438 C 60,8.2384549 58.751819,7 57.199219,7 Z"
       style="opacity:0.1;fill:#ffffff"
       id="path4" />
    <rect
       x="16"
       y="23"
       width="24"
       height="30"
       style="opacity:0.1"
       id="rect4" />
    <rect
       x="16"
       y="22"
       width="24"
       height="30"
       style="fill:#5599ff"
       id="rect5" />
    <path
       d="m 23,20 v 15 c 0,10 10,13 10,13 H 56 C 56,48 46,45 46,35 V 20 Z"
       style="opacity:0.2"
       id="path5" />
    <path
       d="m 23,19 v 15 c 0,10 10,13 10,13 H 56 C 56,47 46,44 46,34 V 19 Z"
       style="fill:#80b3ff"
       id="path6" />
  </g>
</svg>
