<?xml version="1.0" encoding="UTF-8" standalone="no"?>
<svg
   width="62"
   height="62"
   version="1.1"
   id="svg4"
   sodipodi:docname="endless-sky.svg"
   inkscape:version="1.4.2 (unknown)"
   xmlns:inkscape="http://www.inkscape.org/namespaces/inkscape"
   xmlns:sodipodi="http://sodipodi.sourceforge.net/DTD/sodipodi-0.dtd"
   xmlns:xlink="http://www.w3.org/1999/xlink"
   xmlns="http://www.w3.org/2000/svg"
   xmlns:svg="http://www.w3.org/2000/svg">
  <defs
     id="defs4">
    <linearGradient
       id="linearGradient3"
       inkscape:collect="always">
      <stop
         style="stop-color:#d8c3a6;stop-opacity:1;"
         offset="0"
         id="stop3" />
      <stop
         style="stop-color:#b7935c;stop-opacity:1;"
         offset="1"
         id="stop4" />
    </linearGradient>
    <radialGradient
       inkscape:collect="always"
       xlink:href="#linearGradient3"
       id="radialGradient4"
       cx="31"
       cy="30.508772"
       fx="31"
       fy="30.508772"
       r="27.5"
       gradientTransform="matrix(1,0,0,1.000319,0,-0.00973163)"
       gradientUnits="userSpaceOnUse" />
    <linearGradient
       id="linear0"
       gradientUnits="userSpaceOnUse"
       x1="0"
       y1="0"
       x2="0"
       y2="1"
       gradientTransform="matrix(83.36392,0,0,50.901657,-8.3790159,7.8523823)">
      <stop
         offset="0"
         style="stop-color:#2478ff;stop-opacity:1;"
         id="stop1" />
      <stop
         offset="1"
         style="stop-color:#0049bf;stop-opacity:1;"
         id="stop2" />
    </linearGradient>
  </defs>
  <sodipodi:namedview
     id="namedview4"
     pagecolor="#ffffff"
     bordercolor="#000000"
     borderopacity="0.25"
     inkscape:showpageshadow="2"
     inkscape:pageopacity="0.0"
     inkscape:pagecheckerboard="0"
     inkscape:deskcolor="#d1d1d1"
     inkscape:zoom="5.9453125"
     inkscape:cx="21.361367"
     inkscape:cy="65.681997"
     inkscape:current-layer="svg4" />
  <rect
     style="opacity:0.2;stroke-width:0.999971"
     width="55"
     height="55.017544"
     x="3.5"
     y="3.9824567"
     rx="12.6"
     ry="12.6"
     id="rect1" />
  <rect
     style="fill:url(#radialGradient4);stroke-width:0.999971"
     width="55"
     height="55.017544"
     x="3.5"
     y="2.9999995"
     rx="12.6"
     ry="12.6"
     id="rect2" />
  <path
     style="opacity:0.1;fill:#ffffff;stroke-width:0.999971"
     d="m 15.874615,2.9999995 c -6.8557487,0 -12.3746149,5.5206268 -12.3746149,12.3785615 v 0.982457 c 0,-6.8579385 5.5188662,-12.3785625 12.3746149,-12.3785625 h 30.25077 C 52.981135,3.9824555 58.5,9.5030795 58.5,16.361018 V 15.378561 C 58.5,8.5206263 52.981135,2.9999995 46.125385,2.9999995 Z"
     id="path4" />
  <path
     d="m 18.661295,14.000002 -2.055398,1.943975 -0.106108,3.993776 -3.898556,-4.099606 -2.002337,-0.0529 3.792447,8.093386 -4.004666,-0.105828 -0.159171,5.990668 c 4.405136,0.116414 6.007003,0.158738 5.953949,2.155629 -0.05302,1.996888 -1.654929,1.954561 -6.060062,1.838153 l -0.1591672,5.99067 4.0046682,0.105824 -4.2168942,7.881737 2.0023342,0.05288 4.110782,-3.887957 -0.05302,1.996891 1.94927,2.049807 2.002334,0.05289 6.886673,-7.811185 5.339558,0.141097 6.060058,-1.838152 4.057721,-1.891066 0.05304,-1.996891 6.007001,0.158737 4.084249,-2.889514 -3.925079,-3.101155 -6.007003,-0.158736 0.05303,-1.99689 -3.951611,-2.102714 -5.953945,-2.155625 -5.339561,-0.141101 -6.462548,-8.163669 z"
     fill="#ffffff"
     id="path3"
     style="stroke-width:0.999992" />
</svg>
