<?xml version="1.0" encoding="UTF-8" standalone="no"?>
<svg
   width="62"
   height="62"
   version="1.1"
   id="svg5"
   sodipodi:docname="enteauth.svg"
   inkscape:version="1.4.1 (unknown)"
   xmlns:inkscape="http://www.inkscape.org/namespaces/inkscape"
   xmlns:sodipodi="http://sodipodi.sourceforge.net/DTD/sodipodi-0.dtd"
   xmlns="http://www.w3.org/2000/svg"
   xmlns:svg="http://www.w3.org/2000/svg">
  <defs
     id="defs5">
    <linearGradient
       id="paint1_linear_335_176"
       x1="180.987"
       y1="163.291"
       x2="125.995"
       y2="71.064003"
       gradientUnits="userSpaceOnUse"
       gradientTransform="matrix(0.38181789,0,0,0.38181789,-67.240522,-23.8934)">
      <stop
         stop-color="#248EFE"
         id="stop4" />
      <stop
         offset="1"
         stop-color="#1DF4FF"
         id="stop5" />
    </linearGradient>
  </defs>
  <sodipodi:namedview
     id="namedview5"
     pagecolor="#ffffff"
     bordercolor="#000000"
     borderopacity="0.25"
     inkscape:showpageshadow="2"
     inkscape:pageopacity="0.0"
     inkscape:pagecheckerboard="0"
     inkscape:deskcolor="#d1d1d1"
     inkscape:zoom="5.84375"
     inkscape:cx="-8.2139037"
     inkscape:cy="56.812834"
     inkscape:window-width="1920"
     inkscape:window-height="996"
     inkscape:window-x="0"
     inkscape:window-y="0"
     inkscape:window-maximized="1"
     inkscape:current-layer="svg5" />
  <rect
     style="opacity:0.2;stroke-width:0.9823"
     width="55"
     height="55.017544"
     x="4"
     y="4.9824562"
     rx="8.25"
     ry="8.2526312"
     id="rect1" />
  <rect
     style="fill:#ab37c8;stroke-width:0.9823;fill-opacity:1"
     width="55"
     height="55.017544"
     x="4"
     y="4"
     rx="8.25"
     ry="8.2526312"
     id="rect2" />
  <path
     style="opacity:0.1;fill:#ffffff;stroke-width:0.9823"
     d="M 12.248466,4 C 7.6779652,4 4,7.6791384 4,12.251097 v 0.982456 C 4,8.6615945 7.6779652,4.9824561 12.248466,4.9824561 H 50.751534 C 55.322034,4.9824561 59,8.6615945 59,13.233553 V 12.251097 C 59,7.6791384 55.322034,4 50.751534,4 Z"
     id="path4" />
  <g
     id="g1"
     transform="translate(39.5,-51.508772)">
    <path
       d="m -8,68 c 0,0 -3.2139,1.35849 -7.041,3.02009 L -22,74.04159 v 10.809 C -22,94.97229 -10.6043,101 -8,101 -5.3957,101 6,94.97229 6,84.85059 v -10.809 l -6.959,-3.0215 C -4.7861,69.35849 -8,68 -8,68 Z"
       style="opacity:0.2;fill-rule:evenodd"
       id="path2-3" />
    <path
       d="m -8,67 c 0,0 -3.2139,1.35852 -7.041,3.02009 L -22,73.04159 v 10.809 C -22,93.97229 -10.6043,100 -8,100 -5.3957,100 6,93.97229 6,83.85059 v -10.809 l -6.959,-3.0215 C -4.7861,68.35852 -8,67 -8,67 Z"
       style="fill:#ececec;fill-rule:evenodd"
       id="path3" />
    <path
       d="m -8,76 c -2.2903,0 -4.0351,0.9475 -4,2.2207 0.0193,0.6979 0,2.5059 0,2.5059 C -12,81.3215 -12.1411,82 -12.875,82 -13.4856,82 -14,82.6927 -14,83.5235 v 6.9609 c 0,0.4677 0.5868,1.4983 1.6524,1.5156 h 8.6953 C -2.5868,91.9827 -2,90.9521 -2,90.4844 V 83.5235 C -2,82.6927 -2.5144,82 -3.125,82 -3.8589,82 -4,81.3215 -4,80.7266 c 0,0 -0.0193,-1.808 0,-2.5059 C -3.9649,76.9475 -5.7097,76 -8,76 Z m 0,2 c 1.2857,-0.0133 2,0.1848 2,1.2793 V 82 h -4 V 79.2793 C -10,78.1848 -9.2857,77.9867 -8,78 Z"
       style="opacity:0.2;fill-rule:evenodd"
       id="path4-6" />
    <path
       d="m -8,77.000608 c -1.2857,-0.0133 -2,0.184797 -2,1.279297 v 2.720703 h 4 v -2.720703 c 0,-1.0945 -0.7143,-1.292597 -2,-1.279297 z"
       style="fill:#ececec;fill-rule:evenodd"
       id="path5" />
    <path
       d="m -8,75 c -2.2903,0 -4.0351,0.9475 -4,2.2207 0.0193,0.6979 0,2.5059 0,2.5059 C -12,80.3215 -12.1411,81 -12.875,81 -13.4856,81 -14,81.6927 -14,82.5235 v 6.9609 c 0,0.4677 0.5868,1.4983 1.6524,1.5156 h 8.6953 C -2.5868,90.9827 -2,89.9521 -2,89.4844 V 82.5235 C -2,81.6927 -2.5144,81 -3.125,81 -3.8589,81 -4,80.3215 -4,79.7266 c 0,0 -0.0193,-1.808 0,-2.5059 C -3.9649,75.9475 -5.7097,75 -8,75 Z m 0,2 c 1.2857,-0.0133 2,0.1848 2,1.2793 V 81 h -4 V 78.2793 C -10,77.1848 -9.2857,76.9867 -8,77 Z"
       style="fill:#ab37c8;fill-rule:evenodd;fill-opacity:1"
       id="path6" />
    <path
       d="m -8,75 c -2.2903,0 -4.0351,0.947503 -4,2.220703 0.0056,0.203212 0.0073,0.502856 0.0078,0.822266 C -11.868357,76.860358 -10.182342,76 -8,76 c 2.182342,0 3.868357,0.860358 3.992188,2.042969 5.03e-4,-0.31941 0.0022,-0.619054 0.0078,-0.822266 C -3.9649,75.947503 -5.7097,75 -8,75 Z m -3.992188,3.835938 C -11.994728,79.301832 -12,79.726562 -12,79.726562 -12,80.321462 -12.1411,81 -12.875,81 -13.4856,81 -14,81.692638 -14,82.523438 v 1 C -14,82.692638 -13.4856,82 -12.875,82 -12.1411,82 -12,81.321462 -12,80.726562 c 0,10e-7 0.01161,-1.076875 0.0078,-1.890624 z m 7.984376,0 C -4.011608,79.649687 -4,80.726562 -4,80.726562 -4,81.321463 -3.8589,82 -3.125,82 -2.5144,82 -2,82.692638 -2,83.523438 v -1 C -2,81.692638 -2.5144,81 -3.125,81 -3.8589,81 -4,80.321462 -4,79.726562 c 0,0 -0.0053,-0.42473 -0.0078,-0.890624 z M -10,81 v 1 h 4 v -1 z"
       style="opacity:0.2;fill:#ffffff;fill-rule:evenodd"
       id="path8" />
  </g>
</svg>
