<?xml version="1.0" encoding="UTF-8" standalone="no"?>
<svg
   width="62"
   height="62"
   version="1.1"
   id="svg29"
   sodipodi:docname="etl.svg"
   inkscape:version="1.4 (unknown)"
   xmlns:inkscape="http://www.inkscape.org/namespaces/inkscape"
   xmlns:sodipodi="http://sodipodi.sourceforge.net/DTD/sodipodi-0.dtd"
   xmlns:xlink="http://www.w3.org/1999/xlink"
   xmlns="http://www.w3.org/2000/svg"
   xmlns:svg="http://www.w3.org/2000/svg">
  <defs
     id="defs29">
    <linearGradient
       id="linearGradient29"
       inkscape:collect="always">
      <stop
         style="stop-color:#2d3d53;stop-opacity:1;"
         offset="0"
         id="stop29" />
      <stop
         style="stop-color:#354864;stop-opacity:1;"
         offset="1"
         id="stop30" />
    </linearGradient>
    <linearGradient
       inkscape:collect="always"
       xlink:href="#linearGradient29"
       id="linearGradient30"
       x1="30.782633"
       y1="60"
       x2="30.193521"
       y2="5"
       gradientUnits="userSpaceOnUse"
       gradientTransform="matrix(0.98214286,0,0,0.98245614,-0.42857152,-0.92982455)" />
  </defs>
  <sodipodi:namedview
     id="namedview29"
     pagecolor="#ffffff"
     bordercolor="#000000"
     borderopacity="0.25"
     inkscape:showpageshadow="2"
     inkscape:pageopacity="0.0"
     inkscape:pagecheckerboard="0"
     inkscape:deskcolor="#d1d1d1"
     inkscape:zoom="7.0710678"
     inkscape:cx="20.435386"
     inkscape:cy="48.295393"
     inkscape:window-width="1920"
     inkscape:window-height="998"
     inkscape:window-x="0"
     inkscape:window-y="0"
     inkscape:window-maximized="1"
     inkscape:current-layer="svg29" />
  <rect
     style="opacity:0.2;stroke-width:0.9823"
     width="55"
     height="55.017544"
     x="3.5"
     y="3.9824562"
     ry="13.754386"
     id="rect1" />
  <rect
     style="fill:url(#linearGradient30);stroke-width:0.9823"
     width="55"
     height="55.017544"
     x="3.5"
     y="3"
     ry="13.754386"
     id="rect2" />
  <path
     style="opacity:0.1;fill:#ffffff;stroke-width:0.9823"
     d="M 17.25,3 C 9.6324999,3 3.4999999,9.1344561 3.4999999,16.754386 v 0.982456 c 0,-7.61993 6.1325,-13.7543858 13.7500001,-13.7543858 h 27.5 c 7.6175,0 13.75,6.1344558 13.75,13.7543858 V 16.754386 C 58.5,9.1344561 52.3675,3 44.75,3 Z"
     id="path28" />
  <g
     id="g1"
     transform="matrix(1.006468,0,0,1.0000243,10.46766,-63.001749)">
    <path
       style="opacity:0.2"
       d="m 5.088024,73 c 3.543789,0.447349 8.675129,0.613841 12.191163,1.214991 0.88381,0.185366 2.481791,2.356548 1.342425,2.602739 -2.199506,-0.248926 -5.361065,1.894963 -5.422564,3.738553 -0.04761,1.427341 -0.962262,3.875855 1.273969,3.424677 7.288701,0.05475 14.038148,0.02853 21.326983,0.03581 l -3.728833,3.96398 -19.096985,0.03623 v 2.93687 l 17.048008,0.09003 -3.696381,3.936785 -13.351627,0.0364 V 98.9806 l 10.709063,0.03653 c -1.242834,1.26115 -3.72849,3.95195 -3.72849,3.95195 l -6.928925,0.0596 -0.05166,6.00238 12.162043,-0.0643 c 1.977971,-0.36041 3.315293,-3.19631 3.179474,-5.18526 0.13685,-1.18843 2.245425,0.39588 2.448033,1.17084 0.56798,2.13367 0.543288,4.39806 0.834711,6.58723 0.151397,1.47417 0.271773,2.98851 0.451911,4.45936 H 5 Z"
       id="path2-6" />
    <path
       style="fill:#c83771"
       d="m 5.088024,72 c 3.543789,0.447349 8.675129,0.613841 12.191163,1.214991 0.88381,0.185366 2.481791,2.356548 1.342425,2.602739 -2.199506,-0.248926 -5.361065,1.894963 -5.422564,3.738553 -0.04761,1.427341 -0.962262,3.875855 1.273969,3.424677 7.288701,0.05475 14.038148,0.02853 21.326983,0.03581 l -3.728833,3.96398 -19.096985,0.03623 v 2.93687 l 17.048008,0.09003 -3.696381,3.936785 -13.351627,0.0364 V 97.9806 l 10.709063,0.03653 c -1.242834,1.261155 -3.72849,3.95195 -3.72849,3.95195 l -6.928925,0.0596 -0.05166,6.00238 12.162043,-0.0643 c 1.977971,-0.36041 3.315293,-3.19631 3.179474,-5.18526 0.13685,-1.18843 2.245425,0.39588 2.448033,1.17084 0.56798,2.13367 0.543288,4.39806 0.834711,6.58723 0.151397,1.47417 0.271773,2.98851 0.451911,4.45936 H 5 Z"
       id="path3" />
    <path
       style="opacity:0.2;fill:#ffffff"
       d="M 5.087891,72.000818 5,114.99886 H 5.002 L 5.08794,73.000818 c 3.543789,0.447349 8.675372,0.613694 12.191406,1.214844 0.501542,0.105191 1.218064,0.846127 1.548828,1.515625 0.696494,-0.472388 -0.730571,-2.344008 -1.548828,-2.515625 C 13.763312,72.614512 8.631729,72.448167 5.08794,72.000818 Z m 7.929687,10.167969 c -0.120624,1.117922 -0.03895,2.113932 1.455078,1.8125 6.966984,0.05233 13.463113,0.03081 20.386719,0.03516 l 0.941406,-1 c -7.288835,-0.0073 -14.039424,0.01959 -21.328125,-0.03516 -1.008461,0.203465 -1.359708,-0.196141 -1.455078,-0.8125 z m -0.04297,7.785156 v 1 l 16.113282,0.08398 0.933593,-0.99414 z m 0,8.027344 v 1 l 9.759766,0.03125 c 0.32445,-0.340349 0.696289,-0.739436 0.949219,-0.996094 z m 15.751953,4.373043 c -0.220089,0.007 -0.375943,0.13063 -0.410156,0.42774 0.135819,1.98895 -1.201716,4.82513 -3.179687,5.18554 l -12.154297,0.0625 -0.0078,1 12.16211,-0.0625 c 1.977971,-0.36041 3.315506,-3.19659 3.179687,-5.18554 0.13685,-1.18843 2.244658,0.39496 2.447266,1.16992 0.56798,2.13368 0.542561,4.39871 0.833984,6.58789 0.117432,1.14357 0.229063,2.30613 0.351551,3.45898 h 0.101562 c -0.180138,-1.47085 -0.301728,-2.98481 -0.453125,-4.45898 -0.291423,-2.18918 -0.266004,-4.45421 -0.833984,-6.58789 -0.151956,-0.58122 -1.376842,-1.61711 -2.037111,-1.59766 z"
       id="path5" />
  </g>
</svg>
