<?xml version="1.0" encoding="UTF-8" standalone="no"?>
<svg
   width="62"
   height="62"
   version="1"
   id="svg4"
   sodipodi:docname="f3d.svg"
   inkscape:version="1.4.1 (unknown)"
   xmlns:inkscape="http://www.inkscape.org/namespaces/inkscape"
   xmlns:sodipodi="http://sodipodi.sourceforge.net/DTD/sodipodi-0.dtd"
   xmlns="http://www.w3.org/2000/svg"
   xmlns:svg="http://www.w3.org/2000/svg">
  <defs
     id="defs4" />
  <sodipodi:namedview
     id="namedview4"
     pagecolor="#ffffff"
     bordercolor="#000000"
     borderopacity="0.25"
     inkscape:showpageshadow="2"
     inkscape:pageopacity="0.0"
     inkscape:pagecheckerboard="0"
     inkscape:deskcolor="#d1d1d1"
     inkscape:zoom="8.4852814"
     inkscape:cx="47.788633"
     inkscape:cy="36.298148"
     inkscape:window-width="1920"
     inkscape:window-height="996"
     inkscape:window-x="0"
     inkscape:window-y="0"
     inkscape:window-maximized="1"
     inkscape:current-layer="svg4" />
  <rect
     style="opacity:0.2;stroke-width:0.948714"
     width="55.050846"
     height="55"
     x="-59"
     y="-58.5"
     rx="16.515253"
     ry="16.5"
     transform="matrix(0,-1,-1,0,0,0)"
     id="rect1" />
  <rect
     style="fill:#3f3f3f;fill-opacity:1;stroke-width:0.948714"
     width="55.050846"
     height="55"
     x="-58.050846"
     y="-58.5"
     rx="16.515253"
     ry="16.5"
     transform="matrix(0,-1,-1,0,0,0)"
     id="rect2" />
  <path
     style="opacity:0.2;fill:#ffffff;stroke-width:0.948714"
     d="m 19.998519,3.0000001 c -9.141,0 -16.4985189,7.3643209 -16.4985189,16.5137719 v 0.949152 c 0,-9.149452 7.3575189,-16.5137714 16.4985189,-16.5137714 H 42.001481 C 51.142482,3.9491526 58.5,11.313473 58.5,20.462924 V 19.513772 C 58.5,10.364321 51.142482,3.0000001 42.001481,3.0000001 Z"
     id="path3" />
  <g
     id="g1"
     transform="matrix(1.4665951,0,0,1.3455525,-38.663804,-43.951115)">
    <path
       d="m 54.660187,39.700417 c -0.07386,-0.0018 -0.151902,0.02183 -0.221855,0.07744 L 40.635544,50.158238 c -0.08575,0.06608 -0.135647,0.168919 -0.134801,0.277354 v 6.91979 c 7.58e-4,0.19003 0.154494,0.344174 0.344017,0.344934 h 4.903963 C 45.938259,57.699576 46.092,57.54542 46.09274,57.355382 46.092,57.165343 45.938256,57.011189 45.748723,57.010449 h -4.186442 l 11.893146,-14.906764 -4.650543,11.66298 c -0.07246,0.179173 0.01531,0.383678 0.195176,0.453341 0.176792,0.06815 0.375605,-0.02044 0.445116,-0.197105 l 5.526733,-13.839577 c 0.103932,-0.247465 -0.09014,-0.477476 -0.311722,-0.482907 z"
       style="opacity:0.2"
       id="path3-3" />
    <path
       d="m 47.254709,53.700327 a 0.34514672,0.34606317 0 0 0 -0.322982,0.216831 L 40.02836,71.218586 a 0.34514672,0.34606317 0 0 0 0.533621,0.405502 L 54.365907,61.24295 a 0.34514672,0.34606317 0 0 0 0.134812,-0.277373 v -6.92029 a 0.34514672,0.34606317 0 0 0 -0.344046,-0.344958 z m 0.127788,0.960251 6.24898,6.265573 -12.496556,9.399767 z"
       style="opacity:0.2"
       id="path4" />
    <path
       d="m 54.660187,39.000412 c -0.07386,-0.0018 -0.151902,0.02183 -0.221855,0.07744 l -13.802788,10.38039 c -0.08575,0.06608 -0.135647,0.168919 -0.134801,0.277354 v 6.91979 c 7.58e-4,0.19003 0.154494,0.344174 0.344017,0.344934 h 4.903963 c 0.189536,-7.44e-4 0.343277,-0.1549 0.344017,-0.344938 -7.4e-4,-0.190039 -0.154484,-0.344193 -0.344017,-0.344933 h -4.186442 l 11.893146,-14.906764 -4.650543,11.66298 c -0.07246,0.179173 0.01531,0.383678 0.195176,0.453341 0.176792,0.06815 0.375605,-0.02044 0.445116,-0.197105 l 5.526733,-13.839582 c 0.103932,-0.247465 -0.09014,-0.477475 -0.311722,-0.482907 z"
       style="fill:#4c65ff;fill-opacity:1"
       id="path5" />
    <path
       d="m 54.631591,39.000316 c -0.06537,0.0041 -0.13215,0.02947 -0.193359,0.07813 L 40.635498,49.457347 c -0.08575,0.06608 -0.135612,0.168909 -0.134766,0.277344 v 0.695313 c 8.31e-4,-0.106432 0.05045,-0.206508 0.134766,-0.271485 L 54.438232,39.77766 c 0.06995,-0.0556 0.148796,-0.07993 0.222656,-0.07813 0.07124,0.0018 0.138751,0.02903 0.195313,0.07031 4.34e-4,3.17e-4 0.0015,-3.19e-4 0.002,0 l 0.113234,-0.287109 c 0.103932,-0.247465 -0.08897,-0.47699 -0.310547,-0.482422 -0.0092,-2.26e-4 -0.01996,-5.82e-4 -0.0293,0 z m -1.175781,3.103516 -0.55664,0.699218 -4.09375,10.263672 c -0.06079,0.150307 -0.0093,0.318756 0.115234,0.410156 z m -11.333984,14.207031 -0.550782,0.689453 h 4.177735 c 0.189536,-7.4e-4 0.34301,-0.155665 0.34375,-0.345703 -7.4e-4,-0.190039 -0.154217,-0.34301 -0.34375,-0.34375 z"
       style="opacity:0.2;fill:#ffffff"
       id="path6" />
    <path
       d="m 47.254709,53.000327 a 0.34514672,0.34606317 0 0 0 -0.322982,0.216831 L 40.02836,70.518586 a 0.34514672,0.34606317 0 0 0 0.533621,0.405502 L 54.365907,60.54295 a 0.34514672,0.34606317 0 0 0 0.134812,-0.277373 v -6.92029 a 0.34514672,0.34606317 0 0 0 -0.344046,-0.344958 z m 0.127788,0.960251 6.24898,6.265573 -12.496556,9.399767 z"
       style="fill:#c68d06;fill-opacity:1"
       id="path7" />
    <path
       d="m 47.254638,53.000316 a 0.34514672,0.34606317 0 0 0 -0.322265,0.216797 l -6.904297,17.300781 a 0.34514672,0.34606317 0 0 0 0.113281,0.416016 l 6.791016,-17.017578 a 0.34514672,0.34606317 0 0 1 0.322265,-0.216797 h 6.902344 a 0.34514672,0.34606317 0 0 1 0.34375,0.345703 v -0.699219 a 0.34514672,0.34606317 0 0 0 -0.34375,-0.345703 z m 5.978516,7.525391 -11.699219,8.798828 -0.398437,1.001953 12.496093,-9.400391 z"
       style="opacity:0.2;fill:#ffffff"
       id="path8" />
  </g>
</svg>
