<?xml version="1.0" encoding="UTF-8" standalone="no"?>
<svg
   id="svg3"
   width="62"
   height="62"
   version="1.1"
   viewBox="0 0 16.403844 16.403844"
   sodipodi:docname="flacon.svg"
   inkscape:version="1.4.2 (unknown)"
   xmlns:inkscape="http://www.inkscape.org/namespaces/inkscape"
   xmlns:sodipodi="http://sodipodi.sourceforge.net/DTD/sodipodi-0.dtd"
   xmlns="http://www.w3.org/2000/svg"
   xmlns:svg="http://www.w3.org/2000/svg">
  <defs
     id="defs1" />
  <sodipodi:namedview
     id="namedview1"
     pagecolor="#ffffff"
     bordercolor="#000000"
     borderopacity="0.25"
     inkscape:showpageshadow="2"
     inkscape:pageopacity="0.0"
     inkscape:pagecheckerboard="0"
     inkscape:deskcolor="#d1d1d1"
     inkscape:zoom="12.109375"
     inkscape:cx="31.421935"
     inkscape:cy="33.899355"
     inkscape:window-width="1920"
     inkscape:window-height="998"
     inkscape:window-x="0"
     inkscape:window-y="0"
     inkscape:window-maximized="1"
     inkscape:current-layer="svg3" />
  <g
     id="g1"
     transform="translate(0.79373355,0.79373355)">
    <rect
       id="rect4"
       x="0.11630593"
       y="0.11630593"
       width="14.583765"
       height="14.583765"
       rx="3.3859336"
       ry="3.3859336"
       fill="#e1e1e1"
       stroke="#b7b7b7"
       stroke-width="0.23261" />
    <path
       id="path1"
       d="M 7.4082613,2.1718592 A 5.2362275,5.2362275 0 0 0 2.1718592,7.4082613 5.2362275,5.2362275 0 0 0 3.0960436,10.362903 l -0.3381385,0.696185 0.9541967,0.938095 0.6826206,-0.320761 a 5.2362275,5.2362275 0 0 0 3.0135303,0.9682 A 5.2362275,5.2362275 0 0 0 12.644655,7.4082178 5.2362275,5.2362275 0 0 0 7.4082527,2.1718152 Z"
       stroke-width="0.501332"
       style="fill:#aa87de" />
    <circle
       id="circle1"
       cx="7.4082594"
       cy="7.4082594"
       r="4.4331446"
       fill="#355061"
       stroke-width="0.424452" />
    <circle
       id="circle3"
       cx="7.4082594"
       cy="7.4082594"
       r="1.8919446"
       stroke-width="0.181142"
       style="fill:#d35fbc" />
    <circle
       id="circle4"
       cx="7.4082594"
       cy="7.4082594"
       r="0.87850881"
       fill="#233540"
       stroke-width="0.0841138" />
    <circle
       id="circle5"
       cx="7.4082594"
       cy="7.4082594"
       r="0.25839016"
       fill="#ffffff"
       stroke-width="0.0247396" />
    <g
       id="g18"
       transform="matrix(0.87500882,0,0,0.87500882,-0.42171073,0.07028659)">
      <g
         id="g9"
         transform="matrix(0.40805,0,0,0.40805,13.846,11.922)">
        <path
           id="circle7"
           d="m -4.8673,6.6992 a 1.7671,1.7671 0 0 0 -1.7673,1.7673 1.7671,1.7671 0 0 0 1.7673,1.7673 1.7671,1.7671 0 0 0 1.7668,-1.7673 1.7671,1.7671 0 0 0 -1.7668,-1.7673 z m 0,0.40152 a 1.3655,1.3655 0 0 1 1.3653,1.3658 1.3655,1.3655 0 0 1 -1.3653,1.3658 1.3655,1.3655 0 0 1 -1.3658,-1.3658 1.3655,1.3655 0 0 1 1.3658,-1.3658 z"
           fill="#7c9bad"
           stroke-width="0.16919" />
        <circle
           id="circle9"
           cx="-4.8676"
           cy="8.4665003"
           r="1.0844001"
           stroke-width="0.43393"
           style="fill:#ffcc00" />
      </g>
      <g
         id="g10"
         transform="matrix(0.40593,0,0,0.40593,16.153,11.884)">
        <path
           id="path10"
           d="m -4.8673,6.6992 a 1.7671,1.7671 0 0 0 -1.7673,1.7673 1.7671,1.7671 0 0 0 1.7673,1.7673 1.7671,1.7671 0 0 0 1.7668,-1.7673 1.7671,1.7671 0 0 0 -1.7668,-1.7673 z m 0,0.40152 a 1.3655,1.3655 0 0 1 1.3653,1.3658 1.3655,1.3655 0 0 1 -1.3653,1.3658 1.3655,1.3655 0 0 1 -1.3658,-1.3658 1.3655,1.3655 0 0 1 1.3658,-1.3658 z"
           fill="#7c9bad"
           stroke-width="0.16919" />
        <circle
           id="circle10"
           cx="-4.8676"
           cy="8.4665003"
           r="1.0844001"
           stroke-width="0.43393"
           style="fill:#8d5fd3" />
      </g>
      <g
         id="g11"
         transform="matrix(0.40593,0,0,0.40593,11.517,11.94)">
        <path
           id="path11"
           d="m -4.8673,6.6992 a 1.7671,1.7671 0 0 0 -1.7673,1.7673 1.7671,1.7671 0 0 0 1.7673,1.7673 1.7671,1.7671 0 0 0 1.7668,-1.7673 1.7671,1.7671 0 0 0 -1.7668,-1.7673 z m 0,0.40152 a 1.3655,1.3655 0 0 1 1.3653,1.3658 1.3655,1.3655 0 0 1 -1.3653,1.3658 1.3655,1.3655 0 0 1 -1.3658,-1.3658 1.3655,1.3655 0 0 1 1.3658,-1.3658 z"
           fill="#7c9bad"
           stroke-width="0.16919" />
        <circle
           id="circle11"
           cx="-4.8676"
           cy="8.4665003"
           r="1.0844001"
           stroke-width="0.43393"
           style="fill:#3e3748" />
      </g>
    </g>
    <g
       id="g12"
       transform="matrix(0.63542261,0,0,0.63542261,15.77203,-2.8898914)">
      <path
         id="path12"
         d="m -4.8673,6.6992 a 1.7671,1.7671 0 0 0 -1.7673,1.7673 1.7671,1.7671 0 0 0 1.7673,1.7673 1.7671,1.7671 0 0 0 1.7668,-1.7673 1.7671,1.7671 0 0 0 -1.7668,-1.7673 z m 0,0.40152 a 1.3655,1.3655 0 0 1 1.3653,1.3658 1.3655,1.3655 0 0 1 -1.3653,1.3658 1.3655,1.3655 0 0 1 -1.3658,-1.3658 1.3655,1.3655 0 0 1 1.3658,-1.3658 z"
         stroke-width="0.16919"
         style="fill:#aa87de" />
      <circle
         id="circle12"
         cx="-4.8676"
         cy="8.4665003"
         r="1.0844001"
         fill="#f9c623"
         stroke-width="0.43393" />
    </g>
    <circle
       id="circle12-6"
       cx="10.725855"
       cy="7.7695522"
       r="0.48644337"
       fill="#f9c623"
       stroke-width="0.194658" />
    <path
       id="circle15"
       d="M 5.733758,3.3134828 A 4.4331442,4.4331442 0 0 0 2.9752046,7.4082613 4.4331442,4.4331442 0 0 0 5.6593815,11.475391 L 6.459428,9.4003958 A 2.2149978,2.2149978 0 0 1 5.1933779,7.4082613 2.2149978,2.2149978 0 0 1 6.529604,5.3781536 Z m 3.3490096,0 -0.7958399,2.0646708 A 2.2149978,2.2149978 0 0 1 9.6231554,7.4082613 2.2149978,2.2149978 0 0 1 9.363022,8.4249344 l 1.855108,1.236561 A 4.4331442,4.4331442 0 0 0 11.841331,7.4082613 4.4331442,4.4331442 0 0 0 9.0827755,3.3134828 Z M 8.8216982,9.0972033 A 2.2149978,2.2149978 0 0 1 8.2270419,9.463544 l 0.7948995,2.06187 a 4.4331442,4.4331442 0 0 0 1.2786536,-0.782277 z"
       fill="#233540"
       stroke-width="0.424452" />
    <path
       id="rect13"
       d="m 12.655252,2.4730373 c -0.102955,-0.0053 -0.200165,0.086947 -0.223372,0.2165905 l -0.625343,3.4947851 c -0.0023,0.00173 -0.0041,0.0032 -0.0064,0.00496 l -1.361903,1.191942 A 0.51333273,0.51333273 0 0 0 10.209854,7.327504 0.51333273,0.51333273 0 0 0 9.6966431,7.840714 0.51333273,0.51333273 0 0 0 10.209854,8.3539242 0.51333273,0.51333273 0 0 0 10.723512,7.840714 0.51333273,0.51333273 0 0 0 10.700453,7.6892414 L 12.06642,6.4941536 c 0.02644,-0.023126 0.04759,-0.049648 0.06374,-0.077318 v -4.552e-4 c 0.03483,-0.0378 0.06178,-0.088276 0.07236,-0.1474041 l 0.627639,-3.5083428 c 0.0247,-0.1382776 -0.04431,-0.2651188 -0.15464,-0.2848679 -0.007,-0.00124 -0.01344,-0.00231 -0.02037,-0.00271 z"
       fill="#f9c623"
       stroke-width="0.211631" />
  </g>
</svg>
