<?xml version="1.0" encoding="UTF-8" standalone="no"?>
<svg
   width="62"
   height="62"
   version="1.1"
   id="svg29"
   sodipodi:docname="fofix.svg"
   inkscape:version="1.4 (unknown)"
   xml:space="preserve"
   xmlns:inkscape="http://www.inkscape.org/namespaces/inkscape"
   xmlns:sodipodi="http://sodipodi.sourceforge.net/DTD/sodipodi-0.dtd"
   xmlns:xlink="http://www.w3.org/1999/xlink"
   xmlns="http://www.w3.org/2000/svg"
   xmlns:svg="http://www.w3.org/2000/svg"><defs
     id="defs29"><linearGradient
       id="linearGradient29"
       inkscape:collect="always"><stop
         style="stop-color:#2d3d53;stop-opacity:1;"
         offset="0"
         id="stop29" /><stop
         style="stop-color:#354864;stop-opacity:1;"
         offset="1"
         id="stop30" /></linearGradient><linearGradient
       inkscape:collect="always"
       xlink:href="#linearGradient29"
       id="linearGradient30"
       x1="30.782633"
       y1="60"
       x2="30.193521"
       y2="5"
       gradientUnits="userSpaceOnUse"
       gradientTransform="matrix(0.98214286,0,0,0.98245614,-0.42857152,-0.92982455)" /><linearGradient
       inkscape:collect="always"
       xlink:href="#linearGradient3564"
       id="linearGradient3468"
       gradientUnits="userSpaceOnUse"
       gradientTransform="matrix(0.41212155,0,0,0.41212155,869.73875,535.87498)"
       x1="71.891327"
       y1="-2.627378"
       x2="312.8569"
       y2="418.10117" /><linearGradient
       id="linearGradient3564"><stop
         style="stop-color:#b20607;stop-opacity:1;"
         offset="0"
         id="stop3566" /><stop
         style="stop-color:#b20607;stop-opacity:0;"
         offset="1"
         id="stop3568" /></linearGradient><linearGradient
       inkscape:collect="always"
       xlink:href="#linearGradient3570"
       id="linearGradient3465"
       gradientUnits="userSpaceOnUse"
       gradientTransform="translate(842.05504,528.59481)"
       x1="76.665161"
       y1="14.46736"
       x2="75.266258"
       y2="119.81979" /><linearGradient
       id="linearGradient3570"><stop
         style="stop-color:#fdea20;stop-opacity:1;"
         offset="0"
         id="stop3572" /><stop
         style="stop-color:#e9680a;stop-opacity:1;"
         offset="1"
         id="stop3574" /></linearGradient><filter
       inkscape:collect="always"
       id="filter3818"
       x="-0.011282305"
       y="-0.008354292"
       width="1.0225646"
       height="1.0167086"><feGaussianBlur
         inkscape:collect="always"
         stdDeviation="0.32296931"
         id="feGaussianBlur3820" /></filter><filter
       inkscape:collect="always"
       id="filter3964"
       x="-0.087518445"
       y="-0.044417502"
       width="1.175082"
       height="1.0895247"><feGaussianBlur
         inkscape:collect="always"
         stdDeviation="0.5813675"
         id="feGaussianBlur3966" /></filter><linearGradient
       inkscape:collect="always"
       xlink:href="#linearGradient3886"
       id="linearGradient3461"
       gradientUnits="userSpaceOnUse"
       gradientTransform="translate(837.3544,528.72785)"
       x1="108.48188"
       y1="53.648762"
       x2="110.6528"
       y2="103.18442" /><linearGradient
       inkscape:collect="always"
       id="linearGradient3886"><stop
         style="stop-color:#fad909;stop-opacity:1;"
         offset="0"
         id="stop3888" /><stop
         style="stop-color:#fad909;stop-opacity:0;"
         offset="1"
         id="stop3890" /></linearGradient><filter
       inkscape:collect="always"
       id="filter4008"
       x="-0.032023152"
       y="-0.016295882"
       width="1.0640463"
       height="1.0325918"><feGaussianBlur
         inkscape:collect="always"
         stdDeviation="0.38448517"
         id="feGaussianBlur4010" /></filter><linearGradient
       inkscape:collect="always"
       xlink:href="#linearGradient4021"
       id="linearGradient3458"
       gradientUnits="userSpaceOnUse"
       gradientTransform="translate(837.3544,528.72785)"
       x1="111.01447"
       y1="86.016808"
       x2="113.68722"
       y2="51.898907" /><linearGradient
       inkscape:collect="always"
       id="linearGradient4021"><stop
         style="stop-color:#de5b0c;stop-opacity:1;"
         offset="0"
         id="stop4023" /><stop
         style="stop-color:#de5b0c;stop-opacity:0;"
         offset="1"
         id="stop4025" /></linearGradient><filter
       inkscape:collect="always"
       id="filter4016"
       x="-0.045073986"
       y="-0.026782322"
       width="1.090148"
       height="1.0535646"><feGaussianBlur
         inkscape:collect="always"
         stdDeviation="0.37263364"
         id="feGaussianBlur4018" /></filter><filter
       inkscape:collect="always"
       id="filter4043"
       x="-0.094368185"
       y="-0.093788989"
       width="1.188737"
       height="1.1874535"><feGaussianBlur
         inkscape:collect="always"
         stdDeviation="0.32547733"
         id="feGaussianBlur4045" /></filter><linearGradient
       inkscape:collect="always"
       xlink:href="#linearGradient3409"
       id="linearGradient3454"
       gradientUnits="userSpaceOnUse"
       gradientTransform="translate(842.05504,528.59481)"
       x1="122.01018"
       y1="80.422913"
       x2="124.44415"
       y2="94.516548" /><linearGradient
       id="linearGradient3409"><stop
         style="stop-color:#fbd90a;stop-opacity:1;"
         offset="0"
         id="stop3411" /><stop
         id="stop3413"
         offset="0.3980374"
         style="stop-color:#fbd90a;stop-opacity:1;" /><stop
         style="stop-color:#df500a;stop-opacity:1;"
         offset="1"
         id="stop3415" /></linearGradient><filter
       inkscape:collect="always"
       id="filter3880"
       x="-0.043369655"
       y="-0.043031666"
       width="1.0867393"
       height="1.0860633"><feGaussianBlur
         inkscape:collect="always"
         stdDeviation="0.38896977"
         id="feGaussianBlur3882" /></filter><filter
       inkscape:collect="always"
       id="filter3940"
       x="-0.07575072"
       y="-0.063923121"
       width="1.1514541"
       height="1.1291118"><feGaussianBlur
         inkscape:collect="always"
         stdDeviation="0.23395168"
         id="feGaussianBlur3942" /></filter><linearGradient
       inkscape:collect="always"
       xlink:href="#linearGradient4029"
       id="linearGradient3450"
       gradientUnits="userSpaceOnUse"
       gradientTransform="translate(842.05504,528.59491)"
       x1="87.510933"
       y1="81.699913"
       x2="90.09729"
       y2="99.881859" /><linearGradient
       id="linearGradient4029"><stop
         style="stop-color:#fbd90a;stop-opacity:1;"
         offset="0"
         id="stop4031" /><stop
         id="stop4033"
         offset="0.40341854"
         style="stop-color:#fbd90a;stop-opacity:1;" /><stop
         style="stop-color:#df500a;stop-opacity:1;"
         offset="1"
         id="stop4035" /></linearGradient><filter
       inkscape:collect="always"
       id="filter3901"
       x="-0.065529919"
       y="-0.055330785"
       width="1.1310598"
       height="1.1106616"><feGaussianBlur
         inkscape:collect="always"
         stdDeviation="0.61736587"
         id="feGaussianBlur3903" /></filter><filter
       inkscape:collect="always"
       id="filter3988"
       x="-0.18350444"
       y="-0.072987749"
       width="1.3871167"
       height="1.133781"><feGaussianBlur
         inkscape:collect="always"
         stdDeviation="0.24539745"
         id="feGaussianBlur3990" /></filter><linearGradient
       inkscape:collect="always"
       xlink:href="#linearGradient3355"
       id="linearGradient3446"
       gradientUnits="userSpaceOnUse"
       gradientTransform="translate(842.05504,528.59481)"
       x1="91.539413"
       y1="38.196865"
       x2="89.240448"
       y2="53.48996" /><linearGradient
       id="linearGradient3355"><stop
         id="stop3357"
         offset="0"
         style="stop-color:#fbd90a;stop-opacity:1;" /><stop
         style="stop-color:#fbd90a;stop-opacity:1;"
         offset="0.61271751"
         id="stop3359" /><stop
         id="stop3361"
         offset="1"
         style="stop-color:#df500a;stop-opacity:1;" /></linearGradient><filter
       inkscape:collect="always"
       id="filter3795"
       x="-0.13358036"
       width="1.2671607"
       y="-0.044891837"
       height="1.0897837"><feGaussianBlur
         inkscape:collect="always"
         stdDeviation="0.42067094"
         id="feGaussianBlur3797" /></filter><filter
       inkscape:collect="always"
       id="filter3996"
       x="-0.17512607"
       y="-0.055879839"
       width="1.3498427"
       height="1.1035533"><feGaussianBlur
         inkscape:collect="always"
         stdDeviation="0.24239029"
         id="feGaussianBlur3998" /></filter><linearGradient
       inkscape:collect="always"
       xlink:href="#linearGradient3323"
       id="linearGradient3442"
       gradientUnits="userSpaceOnUse"
       gradientTransform="translate(842.05504,528.59481)"
       x1="125.16991"
       y1="36.547607"
       x2="125.91663"
       y2="54.239845" /><linearGradient
       id="linearGradient3323"><stop
         style="stop-color:#fbd90a;stop-opacity:1;"
         offset="0"
         id="stop3325" /><stop
         id="stop3345"
         offset="0.67312354"
         style="stop-color:#fbd90a;stop-opacity:1;" /><stop
         style="stop-color:#df500a;stop-opacity:1;"
         offset="1"
         id="stop3327" /></linearGradient><filter
       inkscape:collect="always"
       id="filter3759"
       x="-0.11872762"
       width="1.2374552"
       y="-0.046861953"
       height="1.0937239"><feGaussianBlur
         inkscape:collect="always"
         stdDeviation="0.417664"
         id="feGaussianBlur3761" /></filter><linearGradient
       inkscape:collect="always"
       xlink:href="#linearGradient3681"
       id="linearGradient3438"
       gradientUnits="userSpaceOnUse"
       gradientTransform="translate(842.20023,528.72785)"
       x1="86.023956"
       y1="108.44728"
       x2="86.023956"
       y2="52.831577" /><linearGradient
       id="linearGradient3681"><stop
         style="stop-color:#b3b3b3;stop-opacity:1;"
         offset="0"
         id="stop3683" /><stop
         style="stop-color:#ffffff;stop-opacity:1;"
         offset="1"
         id="stop3685" /></linearGradient><filter
       inkscape:collect="always"
       id="filter3739"
       x="-0.019448655"
       y="-0.018957626"
       width="1.0388973"
       height="1.0379153"><feGaussianBlur
         inkscape:collect="always"
         stdDeviation="0.6287891"
         id="feGaussianBlur3741" /></filter></defs><sodipodi:namedview
     id="namedview29"
     pagecolor="#ffffff"
     bordercolor="#000000"
     borderopacity="0.25"
     inkscape:showpageshadow="2"
     inkscape:pageopacity="0.0"
     inkscape:pagecheckerboard="0"
     inkscape:deskcolor="#d1d1d1"
     inkscape:zoom="7.0710678"
     inkscape:cx="20.576807"
     inkscape:cy="48.436815"
     inkscape:window-width="1920"
     inkscape:window-height="998"
     inkscape:window-x="0"
     inkscape:window-y="0"
     inkscape:window-maximized="1"
     inkscape:current-layer="svg29" /><rect
     style="opacity:0.2;stroke-width:0.9823"
     width="55"
     height="55.017544"
     x="3.5"
     y="3.9824562"
     ry="13.754386"
     id="rect1" /><rect
     style="fill:url(#linearGradient30);stroke-width:0.9823"
     width="55"
     height="55.017544"
     x="3.5"
     y="3"
     ry="13.754386"
     id="rect2" /><path
     style="opacity:0.1;fill:#ffffff;stroke-width:0.9823"
     d="M 17.25,3 C 9.6324999,3 3.4999999,9.1344561 3.4999999,16.754386 v 0.982456 c 0,-7.61993 6.1325,-13.7543858 13.7500001,-13.7543858 h 27.5 c 7.6175,0 13.75,6.1344558 13.75,13.7543858 V 16.754386 C 58.5,9.1344561 52.3675,3 44.75,3 Z"
     id="path28" /><g
     id="g1"
     transform="matrix(1.1079418,0,0,1.0971756,-977.77284,-584.44398)"><path
       sodipodi:nodetypes="ccscscsssscsscsscssscsssscssssssscscssccssc"
       id="path3800"
       d="m 908.25583,548.36942 c -1.56543,2.88349 -4.88681,3.77071 -4.88681,3.77071 0,0 1.5141,1.42213 3.96797,4.5225 1.23943,1.56617 2.85103,4.31105 4.29284,6.90632 -0.83509,1.84678 -2.35705,4.50398 -3.91679,6.60268 -1.35947,1.82915 -4.40361,6.1694 -7.9136,8.53526 0.3095,0.60579 1.31132,0.86698 3.04921,0.84743 1.69365,-0.0201 4.89093,-0.22882 5.32219,-0.95921 0.523,-0.88548 0.66085,-1.57866 2.69054,-4.54176 0.73826,-1.07769 2.30512,-2.95151 3.07352,-3.78332 0.59446,-0.64332 1.67163,-1.9448 1.67163,-1.9448 0,0 2.06917,1.99548 2.81062,2.90173 0.74147,0.90625 2.26358,3.00326 3.25034,4.42126 0.80025,1.14953 1.25421,2.07796 1.25421,2.07796 0,0 2.26471,-2.86932 2.0587,-6.04131 -0.12327,-1.89803 -0.37164,-2.53591 -1.2545,-3.27953 -0.23402,-0.19712 -1.37829,-1.90236 -2.83901,-4.03658 1.1837,-2.3666 1.62544,-2.82582 2.8751,-4.28978 1.69244,-1.98255 2.24822,-2.77064 3.443,-4.62422 0.99786,-1.54863 0.90629,-1.40065 0.90629,-3.04844 0,-1.64774 -2.22465,-5.10792 -2.22465,-5.10792 0,0 0.42628,1.7151 0.70042,3.00706 0.28837,1.35938 -1.39795,1.83631 -2.14214,1.73011 -0.85831,-0.12244 -2.6775,-1.68889 -3.17191,-2.67752 -0.67626,-1.35279 -0.57665,-2.05965 -0.57665,-3.21314 0,-1.15335 1.1533,-3.46024 1.1533,-3.46024 0,0 -2.0596,0.412 -2.8835,1.40064 -0.82383,0.98852 -1.40059,2.30685 -1.31821,3.46021 0.0823,1.15342 1.15341,2.554 0.65914,3.21306 -0.49431,0.6591 -1.64776,1.40057 -2.38923,1.3182 -0.74149,-0.0823 -2.63635,-0.0823 -3.04819,-0.98863 -0.4121,-0.90625 -0.16479,-2.47158 -0.16479,-3.70741 0,-1.23583 -0.74148,-2.47152 -1.89505,-3.62502 -1.15338,-1.15343 -2.30688,-1.48299 -2.55399,-1.40064 0,0 1.24294,3.72468 0,6.01434 z m -4.47281,-7.05154 c -1.17417,1.20986 -3.8169,3.34313 -2.75583,4.54564 0.80843,0.91616 1.96415,1.04047 2.35809,2.58666 0.33947,1.33244 -0.85534,2.43199 -0.85534,2.43199 l 1.31814,-1.1122 c 0,0 1.69099,-1.03238 1.74762,-2.0168 0.0583,-1.0154 -2.78512,-1.65663 -2.65387,-3.7502 0.06,-0.9524 0.84119,-2.68509 0.84119,-2.68509 z"
       style="display:inline;fill:none;fill-opacity:1;fill-rule:evenodd;stroke:url(#linearGradient3468);stroke-width:0.865473;stroke-linecap:round;stroke-linejoin:round;stroke-miterlimit:4;stroke-dasharray:none;stroke-opacity:0.8" /><path
       style="display:inline;fill:url(#linearGradient3465);fill-opacity:1;fill-rule:evenodd;stroke:none;stroke-width:1.6;stroke-linecap:round;stroke-linejoin:round;stroke-miterlimit:4;stroke-dasharray:none;stroke-opacity:0.8;filter:url(#filter3818)"
       d="m 930.81497,559.04517 c -3.79829,6.99684 -11.85786,9.14958 -11.85786,9.14958 0,0 3.67414,3.45067 9.6283,10.97398 3.00744,3.80002 6.91795,10.46056 10.41636,16.75772 -2.0262,4.48098 -5.71925,10.92873 -9.50368,16.02092 -3.29877,4.43869 -10.68545,14.97016 -19.20236,20.71087 0.75089,1.46966 3.18191,2.10353 7.39873,2.05606 4.10973,-0.0463 11.86778,-0.55521 12.91438,-2.32745 1.26886,-2.1486 1.60308,-3.83067 6.52849,-11.02025 1.79141,-2.6149 5.59332,-7.16205 7.45775,-9.18014 1.44206,-1.5609 4.05604,-4.71894 4.05604,-4.71894 0,0 5.02088,4.84203 6.82007,7.04104 1.79918,2.19901 5.49216,7.28721 7.88694,10.7278 1.94146,2.78931 3.04283,5.04195 3.04283,5.04195 0,0 5.49545,-6.96216 4.99568,-14.65868 -0.29907,-4.60558 -0.90186,-6.15365 -3.04402,-7.95793 -0.56779,-0.47822 -3.34441,-4.61576 -6.88876,-9.79471 2.87226,-5.74234 3.94401,-6.85656 6.97636,-10.40881 4.10656,-4.81064 5.45529,-6.7228 8.35398,-11.22077 2.42147,-3.75745 2.19901,-3.39847 2.19901,-7.39666 0,-3.9982 -5.39757,-12.39441 -5.39757,-12.39441 0,0 1.03423,4.16167 1.69923,7.29671 0.69969,3.29851 -3.39193,4.45573 -5.19764,4.1981 -2.08274,-0.29714 -6.49708,-4.09815 -7.69653,-6.49706 -1.6412,-3.28243 -1.39937,-4.99775 -1.39937,-7.79648 0,-2.79874 2.79874,-8.39621 2.79874,-8.39621 0,0 -4.99775,0.99955 -6.99684,3.39846 -1.9991,2.39892 -3.39847,5.59748 -3.19856,8.39621 0.19991,2.79874 2.79874,6.1972 1.59928,7.79648 -1.19946,1.59928 -3.9982,3.39847 -5.79739,3.19856 -1.79918,-0.19991 -6.39711,-0.19991 -7.39665,-2.39892 -0.99954,-2.19901 -0.39983,-5.99729 -0.39983,-8.99594 0,-2.99864 -1.79918,-5.99729 -4.59791,-8.79603 -2.79874,-2.79873 -5.59747,-3.59837 -6.1972,-3.39846 0,0 3.01603,9.03756 0,14.59341 z m -10.85336,-17.11021 c -2.84875,2.93587 -9.88001,8.37718 -6.59848,11.02962 2.30596,1.86389 4.23573,2.43639 5.54521,6.10001 1.12287,3.14156 -1.9871,6.07783 -1.9871,6.07783 l 3.19856,-2.69879 c 0,0 4.14975,-2.38914 4.32861,-4.62848 0.18703,-2.34157 -7.11144,-3.84279 -6.52762,-9.3652 0.2434,-2.30234 2.04082,-6.51499 2.04082,-6.51499 z"
       id="path3568"
       sodipodi:nodetypes="ccscscsssscsscsscssscsssscssssssscscssccssc"
       transform="matrix(0.41212154,0,0,0.41212154,524.64699,317.97484)" /><path
       style="display:inline;fill:none;fill-opacity:0.367521;fill-rule:evenodd;stroke:#bf4105;stroke-width:2.25;stroke-linecap:butt;stroke-linejoin:miter;stroke-miterlimit:4;stroke-dasharray:none;stroke-opacity:0.62;filter:url(#filter3964)"
       d="m 951.60557,576.23741 c -2.79873,-2.79874 -8.59612,4.79783 -10.59521,7.79648 -1.9991,2.99864 -4.99774,6.79693 -4.79783,9.39576 0.19991,2.59882 4.79783,9.59566 5.59747,12.99413 0.79963,3.39847 -1.39937,22.5898 3.19855,23.58935 4.59792,0.99955 8.39621,1.19946 10.59522,0 2.199,-1.19946 -0.79964,-9.39576 -0.99955,-12.79422 -0.19991,-3.39847 0.19991,-7.19675 2.59882,-9.59567 2.39892,-2.39892 7.59657,-6.79693 7.79648,-9.59567 0.19991,-2.79874 -1.19945,-7.19675 -2.99864,-9.59567 -1.79919,-2.39891 -2.79874,-6.79693 -2.19901,-8.99594 0.59973,-2.199 0.99955,-3.39846 1.19946,-4.1981 0.19991,-0.79964 0.39982,-0.39982 -1.59928,-0.99955 -1.9991,-0.59973 -4.59792,9.99549 -4.1981,12.99413 0.39982,2.99865 1.99909,5.59748 2.199,7.39666 0.19991,1.79919 -2.99864,4.59793 -5.39756,4.59793 -2.39892,0 -4.22404,-0.43468 -5.57226,-1.91071 -1.42044,-1.55508 -2.02431,-2.68722 -2.02431,-4.68631 0,-1.9991 0.75531,-5.14042 2.36124,-7.29784 1.67418,-2.24909 3.66132,-3.8231 4.46096,-5.22247 0.79964,-1.39937 0.17464,-3.87229 0.37455,-3.87229 z"
       id="path3240"
       sodipodi:nodetypes="csssssssssssssssssssc"
       transform="matrix(0.41212154,0,0,0.41212154,524.64699,317.97484)" /><path
       style="display:inline;fill:url(#linearGradient3461);fill-opacity:1;fill-rule:evenodd;stroke:none;stroke-width:1;stroke-linecap:butt;stroke-linejoin:round;stroke-miterlimit:4;stroke-dasharray:none;stroke-opacity:0.62;filter:url(#filter4008)"
       d="m 951.60557,576.23776 c -2.79873,-2.79873 -8.59612,4.79784 -10.59521,7.79648 -1.9991,2.99865 -4.99774,6.79693 -4.79783,9.39576 0.19991,2.59883 4.79783,9.59567 5.59747,12.99413 0.79963,3.39847 -1.39937,22.5898 3.19855,23.58935 4.59792,0.99955 8.39621,1.19946 10.59522,0 2.199,-1.19946 -0.79964,-9.39575 -0.99955,-12.79422 -0.19991,-3.39847 0.19991,-7.19675 2.59882,-9.59567 2.39892,-2.39891 7.59657,-6.79693 7.79648,-9.59567 0.19991,-2.79873 -1.19945,-7.19675 -2.99864,-9.59566 -1.79919,-2.39892 -2.79874,-6.79694 -2.19901,-8.99594 0.59973,-2.19901 0.99955,-3.39847 1.19946,-4.19811 0.19991,-0.79964 0.39982,-0.39982 -1.59928,-0.99955 -1.9991,-0.59973 -4.59792,9.99549 -4.1981,12.99414 0.39982,2.99864 1.99909,5.59747 2.199,7.39666 0.19991,1.79919 -2.99864,4.59792 -5.39756,4.59792 -2.39892,0 -4.45803,-0.82994 -5.43968,-1.91071 -0.99777,-1.0985 -2.15689,-2.68721 -2.15689,-4.68631 0,-1.9991 0.93705,-6.11124 2.73624,-8.11033 1.79918,-1.9991 3.59882,-4.57311 4.39846,-5.97248 0.79964,-1.39936 -0.13786,-2.30979 0.062,-2.30979 z"
       id="path4002"
       transform="matrix(0.41212154,0,0,0.41212154,524.64699,317.97484)" /><path
       style="display:inline;fill:url(#linearGradient3458);fill-opacity:1;fill-rule:evenodd;stroke:none;stroke-width:1;stroke-linecap:butt;stroke-linejoin:round;stroke-miterlimit:4;stroke-dasharray:none;stroke-opacity:0.62;filter:url(#filter4016)"
       d="m 958.86648,588.52763 c 4.70622,16.84411 -22.86839,18.17596 -14.49162,-3.207 -8.18735,13.90146 1.59576,17.33276 2.10159,28.22916 0.51585,11.1125 0.37946,0.58032 5.70358,2.18934 -3.91573,-6.19762 -3.9011,-1.03634 3.62684,-11.52359 4.19963,-5.85056 7.45945,-8.55084 3.05961,-15.68791 z"
       id="path3242"
       sodipodi:nodetypes="ccscsc"
       inkscape:export-xdpi="119.3904"
       inkscape:export-ydpi="119.3904"
       transform="matrix(0.41212154,0,0,0.41212154,524.64699,317.97484)" /><path
       style="display:inline;fill:none;fill-rule:evenodd;stroke:#cf5f0f;stroke-width:2.5;stroke-linecap:butt;stroke-linejoin:miter;stroke-miterlimit:4;stroke-dasharray:none;stroke-opacity:0.68;filter:url(#filter4043)"
       d="m 947.80729,628.51381 c 1.29941,3.0986 12.21958,-0.18142 15.69292,-3.29851 3.89823,-3.49842 5.8136,-6.71583 5.79738,-7.89644 -0.091,-6.62511 -6.16436,-10.04704 -6.19721,-9.09589 -0.0578,1.67356 1.9991,4.1981 1.89914,6.49706 -0.0999,2.29897 -3.49842,4.79784 -5.19765,5.39757 -1.69923,0.59973 -8.49616,0.29986 -10.29535,1.99909 -1.79919,1.69924 -1.79919,6.29716 -1.69923,6.39712 z"
       id="path3315"
       sodipodi:nodetypes="cssssssc"
       transform="matrix(0.41212154,0,0,0.41212154,524.64699,317.97484)" /><path
       sodipodi:nodetypes="cssssssc"
       id="path3399"
       d="m 947.80729,628.51381 c 1.29941,3.0986 12.21958,-0.18142 15.69292,-3.29851 3.89823,-3.49842 5.8136,-6.71583 5.79738,-7.89644 -0.091,-6.62511 -6.16436,-10.04704 -6.19721,-9.09589 -0.0578,1.67356 1.9991,4.1981 1.89914,6.49706 -0.0999,2.29897 -3.49842,4.79784 -5.19765,5.39757 -1.69923,0.59973 -8.49616,0.29986 -10.29535,1.99909 -1.79919,1.69924 -1.79919,6.29716 -1.69923,6.39712 z"
       style="display:inline;fill:url(#linearGradient3454);fill-opacity:1;fill-rule:evenodd;stroke:none;stroke-width:1px;stroke-linecap:butt;stroke-linejoin:miter;stroke-opacity:1;filter:url(#filter3880)"
       transform="matrix(0.41212154,0,0,0.41212154,524.64699,317.97484)" /><path
       style="display:inline;fill:#cf5f0f;fill-opacity:0.641026;fill-rule:evenodd;stroke:#cf5f0f;stroke-width:2.3;stroke-linecap:butt;stroke-linejoin:miter;stroke-miterlimit:4;stroke-dasharray:none;stroke-opacity:0.68;filter:url(#filter3940)"
       d="m 948.0072,631.91227 c -3.49842,1.69924 -7.39666,2.49888 -9.79558,1.49933 -2.39891,-0.99955 -9.89552,-7.39667 -11.19494,-9.49572 -1.29941,-2.09905 -1.69923,-6.59702 -1.59928,-8.29625 0.1,-1.69923 1.39937,-7.19675 2.29897,-7.99639 0.89959,-0.79964 2.199,-0.69969 2.39891,0.1 0.19991,0.79964 0.59973,7.69653 1.29942,8.69608 0.69968,0.99955 3.29851,3.39846 6.19719,3.69833 2.8987,0.29986 6.1972,-0.19991 7.79648,0.99955 1.59928,1.19945 2.69878,10.69517 2.59883,10.79512 z"
       id="path3317"
       sodipodi:nodetypes="cssssssssc"
       transform="matrix(0.41212154,0,0,0.41212154,524.64699,317.97484)" /><path
       id="path3417"
       style="display:inline;fill:url(#linearGradient3450);fill-opacity:1;fill-rule:evenodd;stroke:none;stroke-width:1px;stroke-linecap:butt;stroke-linejoin:miter;stroke-opacity:1;filter:url(#filter3901)"
       d="m 948.0072,631.91238 c -3.49842,1.69924 -7.39666,2.49888 -9.79558,1.49933 -2.39891,-0.99955 -9.89552,-7.39667 -11.19494,-9.49572 -1.29941,-2.09905 -1.69923,-6.59702 -1.59928,-8.29625 0.1,-1.69924 1.39937,-7.19676 2.29897,-7.99639 0.89959,-0.79964 2.199,-0.69969 2.39891,0.1 0.19991,0.79964 0.59973,7.69653 1.29942,8.69607 0.69968,0.99955 3.29851,3.39847 6.19719,3.69833 2.8987,0.29987 6.1972,-0.19991 7.79648,0.99955 1.59928,1.19946 2.69878,10.69518 2.59883,10.79513 z m -19.74593,-13.01455 c 0.71974,3.92944 1.76483,3.94992 5.26252,8.63448 2.99943,3.70093 5.01905,4.23389 8.5767,0.83224 2.62828,-2.51301 1.301,-3.34376 -1.03304,-6.7632 -7.48333,-0.10297 -10.02424,0.36107 -12.70612,-5.86496 z"
       transform="matrix(0.41212154,0,0,0.41212154,524.64699,317.97484)" /><path
       sodipodi:nodetypes="csscssc"
       id="path3363"
       d="m 935.6128,564.34278 c 0,0 -2.58861,1.17829 -4.29806,3.19855 -4.39801,5.19766 4.29806,10.69517 1.9991,13.99369 -1.04295,1.49641 -3.49842,5.2976 -3.49842,5.2976 0,0 4.54313,-3.1801 5.69743,-4.49797 5.57491,-6.36486 -3.37533,-10.48587 -1.09951,-14.89327 0.71527,-1.38521 1.59928,-2.89869 1.19946,-3.0986 z"
       style="display:inline;fill:none;fill-opacity:0.909804;fill-rule:evenodd;stroke:#cf5f0f;stroke-width:1.9;stroke-linecap:butt;stroke-linejoin:miter;stroke-miterlimit:4;stroke-dasharray:none;stroke-opacity:0.68;filter:url(#filter3988)"
       transform="matrix(0.41212154,0,0,0.41212154,524.64699,317.97484)" /><path
       style="display:inline;fill:url(#linearGradient3446);fill-opacity:1;fill-rule:evenodd;stroke:none;stroke-width:1px;stroke-linecap:butt;stroke-linejoin:miter;stroke-opacity:1;filter:url(#filter3795)"
       d="m 935.6128,564.34278 c 0,0 -2.58861,1.17829 -4.29806,3.19855 -4.39801,5.19766 4.29806,10.69517 1.9991,13.99369 -1.04295,1.49641 -3.49842,5.2976 -3.49842,5.2976 0,0 4.54313,-3.1801 5.69743,-4.49797 5.57491,-6.36486 -3.37533,-10.48587 -1.09951,-14.89327 0.71527,-1.38521 1.59928,-2.89869 1.19946,-3.0986 z"
       id="path3319"
       sodipodi:nodetypes="csscssc"
       transform="matrix(0.41212154,0,0,0.41212154,524.64699,317.97484)" /><path
       sodipodi:nodetypes="csscssc"
       id="path3365"
       d="m 967.4984,564.24282 c 0,0 -4.09815,4.39802 -5.19765,7.0968 -1.50851,3.7027 3.69832,7.79648 4.1981,10.1954 0.3393,1.62861 0.29986,4.09815 0.29986,4.09815 0,0 2.3114,-4.14887 3.0986,-5.29761 2.37592,-3.46711 -3.39846,-7.89644 -3.49842,-10.99504 -0.0678,-2.10034 1.09951,-5.0977 1.09951,-5.0977 z"
       style="display:inline;fill:none;fill-opacity:1;fill-rule:evenodd;stroke:#cf5f0f;stroke-width:1.8;stroke-linecap:butt;stroke-linejoin:miter;stroke-miterlimit:4;stroke-dasharray:none;stroke-opacity:0.68;filter:url(#filter3996)"
       transform="matrix(0.41212154,0,0,0.41212154,524.64699,317.97484)" /><path
       style="display:inline;fill:url(#linearGradient3442);fill-opacity:1;fill-rule:evenodd;stroke:none;stroke-width:1px;stroke-linecap:butt;stroke-linejoin:miter;stroke-opacity:1;filter:url(#filter3759)"
       d="m 967.4984,564.24282 c 0,0 -4.09815,4.39802 -5.19765,7.0968 -1.50851,3.7027 3.69832,7.79648 4.1981,10.1954 0.3393,1.62861 0.29986,4.09815 0.29986,4.09815 0,0 2.3114,-4.14887 3.0986,-5.29761 2.37592,-3.46711 -3.39846,-7.89644 -3.49842,-10.99504 -0.0678,-2.10034 1.09951,-5.0977 1.09951,-5.0977 z"
       id="path3321"
       sodipodi:nodetypes="csscssc"
       transform="matrix(0.41212154,0,0,0.41212154,524.64699,317.97484)" /><path
       style="display:inline;fill:none;fill-opacity:1;fill-rule:evenodd;stroke:#8c8c8c;stroke-width:1.19513;stroke-linecap:butt;stroke-linejoin:round;stroke-miterlimit:4;stroke-dasharray:none;stroke-opacity:0.96"
       d="m 896.84948,547.55598 c -0.93218,0 -1.11012,0.23497 -1.86749,0.87578 -0.75731,0.64086 -1.91888,7.86466 -1.91888,14.91368 0.0583,5.65093 0.22443,8.9159 0.39918,10.66366 0.1748,1.74775 0.87341,4.65914 1.33946,5.24166 0.46602,0.58252 0.94084,1.16585 2.04773,1.10752 1.10695,-0.0583 4.47829,-2.38512 6.40075,-4.36579 1.92247,-1.98081 5.30678,-6.46841 6.41365,-8.33259 1.10681,-1.86418 2.09916,-4.13415 2.09916,-4.13415 0,0 -0.76281,-1.456 -1.40358,-2.56293 -0.64098,-1.10686 -1.56925,-2.78128 -3.02673,-4.66202 -1.34895,-1.74088 -3.96454,-4.60986 -5.30587,-5.71829 -1.84195,-1.52188 -4.24537,-3.02653 -5.17738,-3.02653 z m 20.15526,0.52809 c -5.35958,0 -7.9272,0.40183 -7.86887,1.15913 0.0578,0.7573 2.51202,4.08818 3.61889,5.4863 1.1068,1.39819 4.48176,5.12636 4.48176,5.00986 0,0 2.49749,-2.68075 3.9538,-4.77803 1.45648,-2.09719 2.56909,-4.36783 2.6273,-5.24167 0.0586,-0.8738 -1.45324,-1.63559 -6.81288,-1.63559 z m 7.23788,11.44929 c -0.51592,-0.01 -1.58928,1.48294 -2.17651,2.35679 -0.57847,0.86095 -1.35385,2.3237 -1.33938,2.49848 -0.058,-0.0875 0.68537,0.95618 1.37803,2.00914 0.7283,1.10691 1.65839,2.60149 2.24101,2.60149 0.58241,0 0.69536,-2.38772 0.69536,-5.12577 0,-2.73807 -0.22943,-4.08139 -0.69536,-4.31439 -0.0289,-0.0149 -0.0685,-0.0246 -0.10315,-0.0256 z m -8.64171,8.64161 c -0.0581,0.11647 -3.61286,4.08694 -4.77791,5.71821 -1.16526,1.6313 -3.1376,4.83385 -2.8462,5.24166 0.29124,0.40792 4.1896,0.92731 8.38402,0.92731 4.19448,0 7.05028,-1.04199 7.22502,-1.27505 0.17471,-0.23298 -0.35758,-0.99352 -0.94004,-1.86736 -0.58261,-0.87383 -2.61585,-3.90242 -3.60609,-5.12584 -0.9904,-1.22341 -3.4388,-3.61893 -3.4388,-3.61893 z"
       id="path3672" /><path
       id="path3661"
       d="m 903.13773,557.0716 c -2.26172,0 -2.6936,0.57006 -4.53125,2.125 -1.83765,1.55493 -4.65625,19.08323 -4.65625,36.1875 0.14136,13.71168 0.54468,21.63427 0.96875,25.875 0.42407,4.24072 2.11914,11.30517 3.25,12.71875 1.13086,1.41358 2.28296,2.82886 4.96875,2.6875 2.68579,-0.14135 10.86645,-5.7876 15.53125,-10.59375 4.6648,-4.80616 12.8767,-15.69531 15.5625,-20.21875 2.68579,-4.52345 5.09374,-10.03126 5.09374,-10.03125 0,0 -1.85131,-3.53296 -3.40624,-6.21875 -1.55493,-2.6858 -3.80731,-6.74895 -7.34375,-11.3125 -3.27346,-4.2242 -9.62006,-11.18549 -12.875,-13.875 -4.46913,-3.69278 -10.30078,-7.34375 -12.5625,-7.34375 z m 48.90624,1.28125 c -13.00489,0 -19.2351,0.97485 -19.09374,2.8125 0.14135,1.83765 6.09545,9.91991 8.78124,13.3125 2.68579,3.39258 10.875,12.43896 10.875,12.15625 0,0 6.05981,-6.50488 9.59375,-11.59375 3.53394,-5.08887 6.23364,-10.59839 6.375,-12.71875 0.14136,-2.12037 -3.52636,-3.96875 -16.53125,-3.96875 z m 17.5625,27.78125 c -1.25185,-0.0228 -3.85663,3.59838 -5.28125,5.71875 -1.4036,2.08906 -3.28534,5.63842 -3.25,6.0625 -0.14135,-0.21204 1.66301,2.32026 3.34375,4.875 1.76697,2.68579 4.02392,6.3125 5.4375,6.3125 1.41357,0 1.6875,-5.7937 1.6875,-12.4375 0,-6.64381 -0.55664,-9.90333 -1.6875,-10.46875 -0.0707,-0.0353 -0.16654,-0.061 -0.25,-0.0625 z m -20.96875,20.96875 c -0.14136,0.28271 -8.76659,9.91698 -11.59374,13.875 -2.82715,3.95801 -7.61304,11.72924 -6.90625,12.71875 0.70679,0.9895 10.16601,2.25 20.34374,2.25 10.17775,0 17.10718,-2.52832 17.53125,-3.09375 0.42407,-0.56543 -0.86768,-2.41089 -2.28125,-4.53125 -1.41358,-2.12037 -6.34692,-9.469 -8.75,-12.4375 -2.40308,-2.96851 -8.34375,-8.78125 -8.34375,-8.78125 z"
       style="display:inline;fill:url(#linearGradient3438);fill-opacity:1;fill-rule:evenodd;stroke:none;stroke-width:1.9;stroke-linecap:butt;stroke-linejoin:round;stroke-miterlimit:4;stroke-dasharray:none;stroke-opacity:0.588235;filter:url(#filter3739)"
       transform="matrix(0.41212154,0,0,0.41212154,524.64699,317.97484)" /></g></svg>
