<?xml version="1.0" encoding="UTF-8" standalone="no"?>
<svg
   width="62"
   height="62"
   viewBox="0 0 62 62"
   version="1.1"
   id="svg30"
   sodipodi:docname="freac.svg"
   inkscape:version="1.4 (unknown)"
   xmlns:inkscape="http://www.inkscape.org/namespaces/inkscape"
   xmlns:sodipodi="http://sodipodi.sourceforge.net/DTD/sodipodi-0.dtd"
   xmlns:xlink="http://www.w3.org/1999/xlink"
   xmlns="http://www.w3.org/2000/svg"
   xmlns:svg="http://www.w3.org/2000/svg">
  <sodipodi:namedview
     id="namedview32"
     pagecolor="#ffffff"
     bordercolor="#666666"
     borderopacity="1.0"
     inkscape:showpageshadow="2"
     inkscape:pageopacity="0.0"
     inkscape:pagecheckerboard="0"
     inkscape:deskcolor="#d1d1d1"
     showgrid="false"
     inkscape:zoom="4.9166667"
     inkscape:cx="69.254237"
     inkscape:cy="53.18644"
     inkscape:window-width="1920"
     inkscape:window-height="998"
     inkscape:window-x="0"
     inkscape:window-y="0"
     inkscape:window-maximized="1"
     inkscape:current-layer="svg30" />
  <defs
     id="defs18">
    <linearGradient
       id="linearGradient4146">
      <stop
         style="stop-color:#e4f2f6;stop-opacity:1;"
         offset="0"
         id="stop2" />
      <stop
         style="stop-color:#b1caee;stop-opacity:1"
         offset="1"
         id="stop4" />
    </linearGradient>
    <linearGradient
       id="a"
       y1="543.79999"
       y2="503.79999"
       x2="0"
       gradientUnits="userSpaceOnUse"
       gradientTransform="translate(-384.5705,504.5622)">
      <stop
         stop-color="#2f74c8"
         id="stop7" />
      <stop
         offset="1"
         stop-color="#4699d7"
         id="stop9" />
    </linearGradient>
    <linearGradient
       id="b"
       y1="15.968"
       x1="18.437"
       y2="33.629002"
       x2="36.098"
       gradientUnits="userSpaceOnUse"
       gradientTransform="translate(-5.0357628e-4,1004.3622)">
      <stop
         stop-color="#292c2f"
         style="stop-color:#000000;stop-opacity:1"
         id="stop12" />
      <stop
         offset="1"
         stop-opacity="0"
         id="stop14" />
    </linearGradient>
    <linearGradient
       xlink:href="#linearGradient4146"
       id="linearGradient4152"
       x1="21.051001"
       y1="1016.939"
       x2="28.563999"
       y2="1040.1071"
       gradientUnits="userSpaceOnUse" />
    <linearGradient
       xlink:href="#linearGradient4298"
       id="linearGradient4304-3"
       x1="26.929001"
       y1="5.9949999"
       x2="47.120998"
       y2="37.126999"
       gradientUnits="userSpaceOnUse"
       gradientTransform="matrix(0.9,0,0,0.9,6.4000038,6.4000032)" />
    <linearGradient
       id="linearGradient4298">
      <stop
         style="stop-color:#000000;stop-opacity:1;"
         offset="0"
         id="stop4300" />
      <stop
         style="stop-color:#000000;stop-opacity:0;"
         offset="1"
         id="stop4302" />
    </linearGradient>
    <linearGradient
       id="a-3"
       y1="543.79999"
       y2="503.79999"
       x2="0"
       gradientUnits="userSpaceOnUse"
       gradientTransform="matrix(1.4,0,0,1.4,-458.08358,-714.58856)">
      <stop
         stop-color="#2f74c8"
         id="stop7-6" />
      <stop
         offset="1"
         stop-color="#4699d7"
         id="stop9-7" />
    </linearGradient>
    <linearGradient
       xlink:href="#linearGradient4146"
       id="linearGradient4152-5"
       x1="21.051001"
       y1="1016.939"
       x2="28.563999"
       y2="1040.1071"
       gradientUnits="userSpaceOnUse"
       gradientTransform="matrix(1.0499931,0,0,1.0499931,2.7999052,-1051.7715)" />
    <radialGradient
       inkscape:collect="always"
       xlink:href="#linearGradient7"
       id="radialGradient9"
       cx="32.302387"
       cy="34"
       fx="32.302387"
       fy="34"
       r="28"
       gradientUnits="userSpaceOnUse"
       gradientTransform="matrix(0.99999999,1,-1,0.99999999,32.697613,-35.302387)" />
    <linearGradient
       id="linearGradient7"
       inkscape:collect="always">
      <stop
         style="stop-color:#384850;stop-opacity:1;"
         offset="0"
         id="stop8" />
      <stop
         style="stop-color:#384850;stop-opacity:1;"
         offset="0.59162253"
         id="stop10" />
      <stop
         style="stop-color:#eff2f6;stop-opacity:1;"
         offset="0.92173076"
         id="stop11" />
      <stop
         style="stop-color:#eff2f6;stop-opacity:1;"
         offset="1"
         id="stop9-3" />
    </linearGradient>
    <linearGradient
       inkscape:collect="always"
       xlink:href="#linearGradient1"
       id="linearGradient6"
       x1="17.408081"
       y1="16.037786"
       x2="49.155514"
       y2="50.137749"
       gradientUnits="userSpaceOnUse"
       gradientTransform="translate(-1.3023872,-3)" />
    <linearGradient
       id="linearGradient1"
       inkscape:collect="always">
      <stop
         style="stop-color:#566c80;stop-opacity:1;"
         offset="0"
         id="stop5" />
      <stop
         style="stop-color:#566c80;stop-opacity:1;"
         offset="0.28848785"
         id="stop7-61" />
      <stop
         style="stop-color:#3771c8;stop-opacity:1"
         offset="1"
         id="stop6" />
    </linearGradient>
  </defs>
  <path
     d="M 59,31 C 59,46.46415 46.464172,59 30.999998,59 15.535835,59 3.0000001,46.46415 3.0000001,31 3.0000001,15.535835 15.535835,3 30.999998,3 46.464172,3 59,15.535835 59,31 Z"
     id="path154"
     style="fill:url(#radialGradient9)" />
  <path
     d="m 54.333333,31 c 0,12.88701 -10.446332,23.33332 -23.333335,23.33332 C 18.112999,54.33332 7.6666671,43.88701 7.6666671,31 7.6666671,18.113006 18.112999,7.666668 30.999998,7.666668 43.887001,7.666668 54.333333,18.113006 54.333333,31 Z"
     id="path155"
     style="fill:url(#linearGradient6)" />
  <g
     id="g3">
    <path
       style="fill:#ffffff;fill-opacity:1;stroke:none;stroke-width:0.0379222;stroke-linecap:butt;stroke-linejoin:miter;stroke-miterlimit:4;stroke-dasharray:none;stroke-opacity:1"
       d="m 36.483831,11.849258 c -0.265454,-0.0053 -0.598958,0.0414 -1.015456,0.135543 l -6.901558,1.400605 -6.576406,1.299135 c -1.16504,0.24905 -1.39108,0.899368 -1.363578,1.927223 l 0.01848,16.04364 c -0.05289,1.12762 -0.175227,1.747087 -1.472441,1.954627 -4.590882,0.683318 -5.482225,2.104805 -5.454297,4.12627 0.02784,2.013208 1.660117,3.626334 3.909259,3.399673 1.972454,-0.219392 3.441798,-0.793207 4.344764,-2.617526 0.349578,-0.687119 0.467891,-2.116501 0.381445,-3.563361 l -0.01775,-12.762476 c 0.0036,-0.893355 -0.147688,-1.390619 1.036197,-1.636138 l 6.1994,-1.249511 0.926578,-0.186648 v -0.0015 l 4.231444,-0.853252 c 0.688103,-0.138786 1.012392,0.09702 1.02286,0.87325 l 0.01775,9.535378 c -0.05289,1.127619 -0.161889,1.643395 -1.459115,1.850933 -4.590882,0.683318 -5.494809,2.208498 -5.466881,4.229964 0.02784,2.013208 1.685297,3.523381 3.934439,3.296719 1.972454,-0.219391 3.390693,-0.729508 4.293659,-2.553828 0.349578,-0.687118 0.378125,-2.051534 0.407366,-3.524105 L 37.46735,13.449835 c -5.72e-4,-1.098022 -0.187239,-1.584627 -0.983601,-1.600586 z"
       id="path929-2"
       inkscape:connector-curvature="0" />
    <circle
       style="fill:#8d5fd3;fill-opacity:0.992157;stroke-width:1.16837"
       id="path1654"
       cx="39.5"
       cy="36.5"
       r="11" />
    <circle
       style="fill:#e3d7f4;fill-opacity:0.992157;stroke-width:0.959696"
       id="circle1656"
       cx="39.5"
       cy="36.5"
       r="9.0352192" />
    <path
       id="rect1658"
       style="fill:#aa87de;fill-opacity:0.992157;stroke-width:0.950145"
       d="m 38.225134,29.362289 -0.104783,1.506643 a 5.7982496,5.7982496 0 0 0 -1.627789,0.673063 l -1.136522,-0.99077 -0.902343,0.902339 -0.90235,0.902353 0.990776,1.138158 a 5.7982496,5.7982496 0 0 0 -0.673071,1.626187 l -1.506629,0.104809 v 1.275726 1.275737 l 1.506629,0.104803 a 5.7982496,5.7982496 0 0 0 0.673071,1.626181 l -0.990776,1.138171 0.90235,0.902339 0.902343,0.902351 1.138148,-0.990781 a 5.7982496,5.7982496 0 0 0 1.626163,0.671435 l 0.104783,1.506639 h 1.275877 1.2757 l 0.10473,-1.506639 a 5.7982496,5.7982496 0 0 0 1.62463,-0.673071 l 1.13981,0.992417 0.90222,-0.902351 0.90235,-0.902339 -0.99243,-1.139803 a 5.7982496,5.7982496 0 0 0 0.67308,-1.624549 l 1.50676,-0.104803 v -1.275737 -1.275726 l -1.50676,-0.104809 a 5.7982496,5.7982496 0 0 0 -0.6713,-1.626187 l 0.99065,-1.138158 -0.90235,-0.902353 -0.90222,-0.902339 -1.13822,0.99077 a 5.7982496,5.7982496 0 0 0 -1.62622,-0.673063 l -0.10473,-1.506643 h -1.2757 z m 1.274087,3.116443 a 4.0205886,4.0205886 0 0 1 4.02212,4.020433 4.0205886,4.0205886 0 0 1 -4.02212,4.022067 4.0205886,4.0205886 0 0 1 -4.020357,-4.022067 4.0205886,4.0205886 0 0 1 4.020357,-4.020433 z m 0,1.121789 a 2.8986489,2.8986489 0 0 0 -2.898563,2.898644 2.8986489,2.8986489 0 0 0 2.898563,2.900275 2.8986489,2.8986489 0 0 0 2.90033,-2.900275 2.8986489,2.8986489 0 0 0 -2.90033,-2.898644 z" />
  </g>
</svg>
