<?xml version="1.0" encoding="UTF-8" standalone="no"?>
<svg
   width="62"
   height="62"
   version="1.1"
   id="svg6"
   sodipodi:docname="ghidra.svg"
   inkscape:version="1.4 (unknown)"
   xmlns:inkscape="http://www.inkscape.org/namespaces/inkscape"
   xmlns:sodipodi="http://sodipodi.sourceforge.net/DTD/sodipodi-0.dtd"
   xmlns:xlink="http://www.w3.org/1999/xlink"
   xmlns="http://www.w3.org/2000/svg"
   xmlns:svg="http://www.w3.org/2000/svg">
  <defs
     id="defs6">
    <filter
       id="f"
       width="1.1201701"
       height="1.1201701"
       x="-0.060085025"
       y="-0.060085025"
       color-interpolation-filters="sRGB">
      <feGaussianBlur
         stdDeviation=".212"
         id="feGaussianBlur9" />
    </filter>
    <linearGradient
       xlink:href="#b"
       id="g"
       x1="4.9330001"
       x2="7.0489998"
       y1="10.655"
       y2="10.655"
       gradientUnits="userSpaceOnUse" />
    <linearGradient
       id="b">
      <stop
         offset="0"
         stop-color="#548fed"
         id="stop3" />
      <stop
         offset="1"
         stop-color="#5ebae3"
         id="stop4" />
    </linearGradient>
    <linearGradient
       xlink:href="#b"
       id="h"
       x1="9.1660004"
       x2="11.283"
       y1="10.655"
       y2="10.655"
       gradientUnits="userSpaceOnUse" />
    <linearGradient
       xlink:href="#a"
       id="i"
       x1="11.283"
       x2="13.399"
       y1="10.655"
       y2="10.655"
       gradientUnits="userSpaceOnUse" />
    <linearGradient
       id="a">
      <stop
         offset="0"
         stop-color="#8ae234"
         id="stop5" />
      <stop
         offset="1"
         stop-color="#47e767"
         id="stop6" />
    </linearGradient>
    <linearGradient
       xlink:href="#b"
       id="j"
       x1="7.0489998"
       x2="9.1660004"
       y1="8.5380001"
       y2="8.5380001"
       gradientUnits="userSpaceOnUse" />
    <linearGradient
       xlink:href="#c"
       id="k"
       x1="11.283"
       x2="13.399"
       y1="8.5380001"
       y2="8.5380001"
       gradientUnits="userSpaceOnUse" />
    <linearGradient
       id="c">
      <stop
         offset="0"
         stop-color="#ec4520"
         id="stop9" />
      <stop
         offset="1"
         stop-color="#f58517"
         id="stop10" />
    </linearGradient>
    <linearGradient
       xlink:href="#a"
       id="l"
       x1="7.0489998"
       x2="9.1660004"
       y1="6.4219999"
       y2="6.4219999"
       gradientUnits="userSpaceOnUse" />
    <linearGradient
       xlink:href="#b"
       id="m"
       x1="9.1660004"
       x2="11.283"
       y1="6.4219999"
       y2="6.4219999"
       gradientUnits="userSpaceOnUse" />
    <linearGradient
       xlink:href="#a"
       id="n"
       x1="4.9330001"
       x2="7.0489998"
       y1="4.3049998"
       y2="4.3049998"
       gradientUnits="userSpaceOnUse" />
    <linearGradient
       xlink:href="#c"
       id="o"
       x1="7.0489998"
       x2="9.1660004"
       y1="4.3049998"
       y2="4.3049998"
       gradientUnits="userSpaceOnUse" />
    <linearGradient
       xlink:href="#b"
       id="p"
       x1="11.283"
       x2="13.399"
       y1="4.3049998"
       y2="4.3049998"
       gradientUnits="userSpaceOnUse" />
    <linearGradient
       id="paint0_linear_54_1212"
       x1="24.016001"
       y1="34.414799"
       x2="24.016001"
       y2="15.5054"
       gradientUnits="userSpaceOnUse"
       gradientTransform="matrix(1.2750627,0,0,1.2692104,0.21981883,-0.6795695)">
      <stop
         stop-color="#FD5900"
         id="stop2" />
      <stop
         offset="1"
         stop-color="#FFDE00"
         id="stop3-3" />
    </linearGradient>
    <clipPath
       id="clip-path-2">
      <circle
         class="cls-1"
         cx="74.919998"
         cy="74.220001"
         r="71.75"
         id="circle2" />
    </clipPath>
    <linearGradient
       id="linear-gradient"
       x1="-155.03999"
       y1="232.49001"
       x2="25.139999"
       y2="122.49"
       gradientTransform="rotate(-0.72,-1284.1074,964.39391)"
       gradientUnits="userSpaceOnUse">
      <stop
         offset="0"
         stop-color="#ce0e2d"
         id="stop2-3" />
      <stop
         offset="0.53"
         stop-color="#ff9e18"
         id="stop3-6" />
      <stop
         offset="0.99"
         stop-color="#f7be00"
         id="stop4-7" />
    </linearGradient>
    <linearGradient
       id="linear-gradient-2"
       x1="-166.11"
       y1="235.52"
       x2="7.8099999"
       y2="129.33"
       xlink:href="#linear-gradient" />
    <linearGradient
       id="linear-gradient-3"
       x1="-172.52"
       y1="242.02"
       x2="1.41"
       y2="135.84"
       xlink:href="#linear-gradient" />
    <linearGradient
       id="linear-gradient-4"
       x1="-166.11"
       y1="242.02"
       x2="7.8099999"
       y2="135.84"
       xlink:href="#linear-gradient" />
    <linearGradient
       id="linear-gradient-5"
       x1="-166.11"
       y1="248.52"
       x2="7.8099999"
       y2="142.34"
       xlink:href="#linear-gradient" />
    <linearGradient
       id="linear-gradient-6"
       x1="-159.91"
       y1="242.02"
       x2="14.02"
       y2="135.84"
       xlink:href="#linear-gradient" />
    <linearGradient
       id="linear-gradient-7"
       x1="-185.27"
       y1="248.52"
       x2="-11.34"
       y2="142.34"
       xlink:href="#linear-gradient" />
    <linearGradient
       id="linear-gradient-8"
       x1="-185.27"
       y1="254.67"
       x2="-11.34"
       y2="148.48"
       xlink:href="#linear-gradient" />
    <linearGradient
       id="linear-gradient-9"
       x1="-191.55"
       y1="260.51001"
       x2="-17.620001"
       y2="154.32001"
       xlink:href="#linear-gradient" />
    <linearGradient
       id="linear-gradient-10"
       x1="-172.52"
       y1="254.67"
       x2="1.41"
       y2="148.48"
       xlink:href="#linear-gradient" />
    <linearGradient
       id="linear-gradient-11"
       x1="-159.91"
       y1="235.52"
       x2="14.02"
       y2="129.33"
       xlink:href="#linear-gradient" />
    <linearGradient
       id="linear-gradient-12"
       x1="-171.91"
       y1="244.25"
       x2="8.2700005"
       y2="134.25"
       xlink:href="#linear-gradient" />
    <linearGradient
       id="linear-gradient-13"
       x1="-188.7"
       y1="248.00999"
       x2="-14.77"
       y2="141.82001"
       xlink:href="#linear-gradient" />
    <linearGradient
       id="linear-gradient-14"
       x1="-188.7"
       y1="254.5"
       x2="-14.77"
       y2="148.32001"
       xlink:href="#linear-gradient" />
    <linearGradient
       id="linear-gradient-15"
       x1="-181.97"
       y1="254.5"
       x2="-8.04"
       y2="148.32001"
       xlink:href="#linear-gradient" />
    <linearGradient
       id="linear-gradient-16"
       x1="-188.7"
       y1="260.64999"
       x2="-14.77"
       y2="154.46001"
       xlink:href="#linear-gradient" />
    <linearGradient
       id="linear-gradient-17"
       x1="-188.7"
       y1="266.48999"
       x2="-14.77"
       y2="160.3"
       xlink:href="#linear-gradient" />
    <linearGradient
       id="linear-gradient-18"
       x1="-194.72"
       y1="266.48999"
       x2="-20.790001"
       y2="160.3"
       xlink:href="#linear-gradient" />
    <linearGradient
       inkscape:collect="always"
       xlink:href="#linear-gradient"
       id="linearGradient55"
       gradientUnits="userSpaceOnUse"
       gradientTransform="rotate(-0.72,-1284.1074,964.39391)"
       x1="-155.03999"
       y1="232.49001"
       x2="25.139999"
       y2="122.49" />
  </defs>
  <sodipodi:namedview
     id="namedview6"
     pagecolor="#ffffff"
     bordercolor="#000000"
     borderopacity="0.25"
     inkscape:showpageshadow="2"
     inkscape:pageopacity="0.0"
     inkscape:pagecheckerboard="0"
     inkscape:deskcolor="#d1d1d1"
     inkscape:zoom="8"
     inkscape:cx="17.9375"
     inkscape:cy="32.75"
     inkscape:window-width="1920"
     inkscape:window-height="998"
     inkscape:window-x="0"
     inkscape:window-y="0"
     inkscape:window-maximized="1"
     inkscape:current-layer="svg6" />
  <g
     id="g2"
     transform="translate(0.5,0.5)">
    <path
       style="opacity:0.2;stroke-width:0.982303"
       d="M 3.0422325,29.83979 A 27.5,27.50877 0 0 0 3,30.99123 27.5,27.50877 0 0 0 30.5,58.5 27.5,27.50877 0 0 0 58,30.99123 27.5,27.50877 0 0 0 57.958753,30.17775 27.5,27.50877 0 0 1 30.5,56.53509 27.5,27.50877 0 0 1 3.0432142,29.83979 Z"
       id="path1" />
    <path
       style="fill:#2d3d53;fill-opacity:1;stroke-width:0.982303"
       d="M 30.5,2.5 A 27.5,27.50877 0 0 0 3,30.00877 27.5,27.50877 0 0 0 30.5,57.51754 27.5,27.50877 0 0 0 58,30.00877 27.5,27.50877 0 0 0 30.5,2.5 Z"
       id="path2" />
    <path
       style="opacity:0.1;fill:#ffffff;stroke-width:0.982303"
       d="M 30.498088,2.5 A 27.5,27.50877 0 0 0 3,30.00877 27.5,27.50877 0 0 0 3.0211007,30.40789 27.5,27.50877 0 0 1 30.498088,3.482456 h 0.0019 a 27.5,27.50877 0 0 1 27.477,27.101972 27.5,27.50877 0 0 0 0.02111,-0.575658 A 27.5,27.50877 0 0 0 30.5,2.5 Z"
       id="path3" />
    <g
       id="g1"
       transform="matrix(0.98214289,0,0,0.9824561,-0.44170581,-0.57015291)">
      <path
         class="cls-4"
         d="m 41.687342,26.944109 c 0,0 0.315582,-2.737779 -0.231956,-4.673242 -0.547569,-1.935465 -0.760504,-1.87463 -0.760504,-1.87463 0,0 0.866958,1.068486 1.406914,3.296728 0.403067,1.654076 0.05691,2.365153 0.05691,2.365153 z"
         id="path5"
         style="fill:#ffffff;stroke-width:0.380237" />
      <g
         class="cls-5"
         clip-path="url(#clip-path-2)"
         id="g40"
         transform="matrix(0.38024745,0,0,0.38024745,2.8526662,3.243273)">
        <path
           class="cls-6"
           d="m 94.69,228.31 c 19.26,-0.21 38.56,-5.67 54.5,-16.57 8.15,-5.11 15.91,-11 22.27,-18.14 a 63.7,63.7 0 0 0 8.31,-11.69 c 1.26,-2 2.33,-4.21 3.49,-6.31 1.16,-2.1 2.15,-4.31 3.19,-6.47 a 123.18,123.18 0 0 0 9,-27.3 88.88,88.88 0 0 0 1,-28.55 l -0.22,-1.77 c -0.08,-0.59 -0.22,-1.18 -0.33,-1.76 l -0.7,-3.51 c -0.19,-1.18 -0.59,-2.31 -0.89,-3.47 l -1,-3.44 c -0.83,-2.23 -1.59,-4.49 -2.5,-6.69 -0.91,-2.2 -2,-4.37 -3.07,-6.5 A 72.52,72.52 0 0 0 180.25,74 47.18,47.18 0 0 0 175.5,68.77 42.67,42.67 0 0 0 170,64.43 l -1.33,-0.88 1.19,-1 a 6.14,6.14 0 0 1 3.48,-1.59 7.31,7.31 0 0 1 3.61,0.76 c 1,0.47 1.94,1 2.82,1.45 a 8.44,8.44 0 0 0 2.52,0.9 l -1.11,2.08 A 37.55,37.55 0 0 0 168.49,56.92 49.31,49.31 0 0 0 153.13,53 l -3.22,-0.32 2.45,-2.11 a 11.71,11.71 0 0 1 5.14,-2.45 19.5,19.5 0 0 1 5.42,-0.36 27.37,27.37 0 0 1 5.26,0.86 28,28 0 0 1 5,1.79 l -1.77,2.19 a 7.67,7.67 0 0 0 -0.88,-1 2.75,2.75 0 0 0 -0.41,-0.31 h -0.06 a 0.58,0.58 0 0 0 0.22,0 h 0.17 a 1,1 0 0 0 0.22,-0.05 1,1 0 0 0 0.31,-0.15 1.41,1.41 0 0 0 0.35,-0.34 1.21,1.21 0 0 0 0.18,-1.1 0.5,0.5 0 0 0 -0.09,-0.19 c 0,0 0,0 0,0 a 3.31,3.31 0 0 0 0.4,0.28 6.77,6.77 0 0 0 1.18,0.53 l -1.52,2.43 A 51.53,51.53 0 0 0 151.57,40.83 72.6,72.6 0 0 0 128.4,37.33 h -3.44 l 2.18,-2.64 c 0.26,-0.3 0.51,-0.61 0.83,-0.92 l 0.28,-0.25 0.14,-0.13 0.21,-0.14 0.22,-0.14 a 3.25,3.25 0 0 1 0.43,-0.18 1.79,1.79 0 0 1 0.95,0 1.4,1.4 0 0 1 0.33,0.1 2.12,2.12 0 0 1 0.47,0.31 1.65,1.65 0 0 1 0.48,0.78 2,2 0 0 1 0.08,0.6 0.64,0.64 0 0 1 0,0.2 v 0.14 a 2,2 0 0 1 -0.15,0.45 2.83,2.83 0 0 1 -0.33,0.54 3.41,3.41 0 0 1 -0.74,0.69 3.71,3.71 0 0 1 -1.76,0.63 l -5.72,0.58 4.61,-3.5 a 17.45,17.45 0 0 1 6.19,-2.93 24.32,24.32 0 0 1 6.66,-0.7 42.36,42.36 0 0 1 12.72,2.59 l -1.58,3 -3.76,-2.68 -1.89,-1.29 -0.94,-0.61 -0.44,-0.26 -0.17,-0.09 c 0,0 0,0 0,0 h 0.06 0.16 0.17 0.21 a 1.24,1.24 0 0 0 0.27,0 1.66,1.66 0 0 0 0.95,-0.55 1.71,1.71 0 0 0 0.4,-1.42 V 29.36 29.3 29.18 L 146.3,29 l -0.07,-0.11 -0.06,-0.07 v 0 l 0.15,0.14 0.39,0.33 0.87,0.67 c 0.59,0.45 1.2,0.88 1.82,1.3 a 22.3,22.3 0 0 0 3.69,2.1 l -1.74,3 A 53.15,53.15 0 0 0 124.49,25.31 48.46,48.46 0 0 0 96.1,30.37 l -5,2.66 2.27,-5.15 a 15.12,15.12 0 0 1 3.8,-5.06 24.14,24.14 0 0 1 5,-3.4 30.39,30.39 0 0 1 5.5,-2.21 24.68,24.68 0 0 1 6,-1 L 113,20.12 A 34.92,34.92 0 0 0 99,17.81 40.06,40.06 0 0 0 85.09,20.92 44.26,44.26 0 0 0 63.81,39.46 L 63,40.79 61.49,40.52 c -1.87,-0.33 -3.5,-0.79 -5.08,-1.07 a 11.45,11.45 0 0 0 -4.29,-0.15 4.41,4.41 0 0 0 -1.6,0.64 5,5 0 0 0 -1.29,1.23 9.75,9.75 0 0 0 -1.59,3.83 c 0,0.28 -0.18,0.84 -0.28,1.29 L 47,47.65 a 23.84,23.84 0 0 1 -1,2.71 l -0.62,1.31 c -0.22,0.44 -0.5,0.84 -0.75,1.25 A 21.86,21.86 0 0 1 43,55.27 28.23,28.23 0 0 1 34.05,62 52.49,52.49 0 0 1 23.89,65.68 l -1.25,0.3 -0.61,0.15 -0.44,0.15 a 14,14 0 0 0 -2,0.9 12.41,12.41 0 0 0 -3.35,2.68 10,10 0 0 0 -1.16,1.69 6.74,6.74 0 0 0 -0.41,0.87 c -0.13,0.33 -0.25,0.71 -0.37,1.08 a 21.89,21.89 0 0 0 -0.94,4.53 11.49,11.49 0 0 0 2.09,8.08 L 11,87.23 A 21.37,21.37 0 0 1 13.27,80 11.55,11.55 0 0 1 16,76.73 8.39,8.39 0 0 1 20.34,74.88 l 3.87,-0.43 -1.16,3.75 a 5.13,5.13 0 0 0 -0.25,1.88 2.34,2.34 0 0 0 0.52,1.32 6.34,6.34 0 0 0 3.6,1.74 l -2.6,4.11 a 9.52,9.52 0 0 1 -1.63,-3.43 10.7,10.7 0 0 1 -0.25,-3.68 12.1,12.1 0 0 1 2.79,-6.48 l 3,-3.54 1.53,4.4 a 5.85,5.85 0 0 0 2,2.77 3.87,3.87 0 0 0 2.83,0.73 l -1.19,4.87 a 6.46,6.46 0 0 1 -2.46,-3.07 7,7 0 0 1 -0.18,-3.7 25.47,25.47 0 0 1 0.68,-2.53 17.24,17.24 0 0 0 0.5,-1.92 l 0.75,-4.31 3.49,2.64 a 11.9,11.9 0 0 0 3.38,1.87 2.68,2.68 0 0 0 2.44,-0.27 2.33,2.33 0 0 0 0.8,-0.79 7.81,7.81 0 0 0 0.67,-1.63 15.79,15.79 0 0 1 1.05,-2.68 8.14,8.14 0 0 1 2.42,-2.75 l 0.16,-0.11 0.17,-0.09 a 16.25,16.25 0 0 1 7.06,-1.61 c 2.25,-0.06 4.3,0.14 6.17,0.16 l 0.15,5.56 c -0.39,0 -0.79,0 -1.21,0 h -1 -0.26 -0.24 -0.24 A 2.38,2.38 0 0 1 57.23,67.5 l -0.24,-0.12 a 2.86,2.86 0 0 1 -1.06,-1 2.89,2.89 0 0 1 -0.34,-1.78 2.63,2.63 0 0 1 0.3,-0.9 2.44,2.44 0 0 1 0.45,-0.63 2.69,2.69 0 0 1 0.6,-0.48 3.41,3.41 0 0 1 0.45,-0.22 l 0.28,-0.09 a 1.8,1.8 0 0 1 0.31,-0.06 h 0.25 0.26 1 1.17 v 5.58 a 10,10 0 0 0 -2.71,0.57 3.76,3.76 0 0 0 -1.69,1.16 c -0.66,0.9 -0.74,2.3 0,4.17 0.74,1.87 2.06,3.84 3.21,6.37 a 16.11,16.11 0 0 1 0.76,2.1 14.14,14.14 0 0 1 0.4,2.21 24.3,24.3 0 0 1 0.08,4.07 c -0.13,2.59 -0.5,5 -0.67,7.27 -0.08,1.1 -0.09,2.34 -0.23,3.71 a 11.75,11.75 0 0 1 -1.29,4.56 6.78,6.78 0 0 1 -2,2.23 6.92,6.92 0 0 1 -1.31,0.77 l -0.67,0.24 a 5.69,5.69 0 0 1 -0.62,0.19 20.32,20.32 0 0 1 -4.14,0.58 51,51 0 0 1 -7.65,-0.39 l 2.41,-4.55 a 30.08,30.08 0 0 0 6.07,5.55 17.62,17.62 0 0 0 7.11,3 l 0.88,0.29 a 1.23,1.23 0 0 1 0.26,0.12 0.11,0.11 0 0 1 0.08,0 c 0,0 -0.24,0 -0.3,0.07 a 3.85,3.85 0 0 0 0.65,-1 c 0.34,-0.68 0.66,-1.53 1.1,-2.53 l 1.25,-2.61 c 1.56,-3.37 3.06,-6.84 4.53,-10.31 1.47,-3.47 2.88,-7 4.28,-10.49 L 74.63,74.52 75.62,72 78,73 a 5.12,5.12 0 0 0 3.12,0.27 8.34,8.34 0 0 0 3.24,-1.61 16.3,16.3 0 0 0 4.85,-6.44 27.41,27.41 0 0 0 1.89,-8.44 c 0.15,-2.82 -0.31,-5.63 -1.69,-7.55 l 3.77,-2.82 a 16.43,16.43 0 0 1 1.9,3.36 21.38,21.38 0 0 1 1.15,3.5 22.08,22.08 0 0 1 0.57,3.64 15.85,15.85 0 0 1 -0.18,3.86 L 94.06,58.1 a 35.47,35.47 0 0 1 15.24,1.11 47.55,47.55 0 0 1 13.55,6.57 72.39,72.39 0 0 1 11.27,9.65 l 2.51,2.7 2.4,2.78 c 0.76,1 1.54,1.87 2.3,2.85 0.76,0.98 1.51,2 2.23,3 a 52.31,52.31 0 0 1 9,28.06 66.13,66.13 0 0 1 -5.8,28.72 l 0.09,-0.3 -0.77,4.15 v 0.18 l -0.06,0.13 a 68.89,68.89 0 0 1 -9.49,14.81 56.38,56.38 0 0 1 -6.18,6.28 51.65,51.65 0 0 1 -7.07,5.23 56.1,56.1 0 0 1 -16.14,6.69 52.34,52.34 0 0 1 -8.55,1.78 24.91,24.91 0 0 1 -8.73,-0.57 l 0.13,-0.53 a 24.29,24.29 0 0 0 8.5,0.27 51.39,51.39 0 0 0 8.33,-2 l 4.13,-1.31 c 1.33,-0.51 2.68,-1 4,-1.57 a 47.69,47.69 0 0 0 7.5,-4.07 50.71,50.71 0 0 0 6.71,-5.25 54.3,54.3 0 0 0 5.8,-6.23 66.46,66.46 0 0 0 8.78,-14.55 l -0.1,0.31 0.69,-4.16 v -0.14 l 0.06,-0.16 a 63.25,63.25 0 0 0 5,-27.53 48.86,48.86 0 0 0 -8.87,-26 c -5.65,-7.45 -12.34,-14.44 -20,-19.61 A 43.62,43.62 0 0 0 108.14,63.53 31.2,31.2 0 0 0 94.8,62.7 L 91.69,63.21 92.17,60 a 16,16 0 0 0 -2.7,-10.69 l 3.77,-2.81 a 13.75,13.75 0 0 1 2.27,5.21 21.08,21.08 0 0 1 0.42,5.29 32,32 0 0 1 -2.12,10 21.28,21.28 0 0 1 -2.61,4.7 20.31,20.31 0 0 1 -3.74,3.91 13.31,13.31 0 0 1 -5.18,2.59 10.37,10.37 0 0 1 -6.2,-0.48 l 3.35,-1.4 -4,10.6 C 74,90.49 72.63,94 71.18,97.57 c -1.45,3.57 -2.91,7.06 -4.55,10.57 l -1.2,2.54 c -0.33,0.73 -0.66,1.66 -1.16,2.68 a 9.78,9.78 0 0 1 -1,1.65 6.12,6.12 0 0 1 -1.85,1.73 5.09,5.09 0 0 1 -3,0.65 7.6,7.6 0 0 1 -1.31,-0.3 c -0.35,-0.14 -0.7,-0.29 -1,-0.45 l 0.88,0.29 a 23.15,23.15 0 0 1 -9.39,-3.87 36.09,36.09 0 0 1 -7.22,-6.55 l -4.45,-5.24 6.86,0.69 a 45.93,45.93 0 0 0 6.81,0.34 15,15 0 0 0 3,-0.42 1.28,1.28 0 0 0 0.24,-0.08 1.39,1.39 0 0 1 0.19,-0.06 c 0.07,-0.07 0.19,-0.08 0.24,-0.15 a 1.34,1.34 0 0 0 0.4,-0.48 6.42,6.42 0 0 0 0.58,-2.39 c 0.11,-1 0.12,-2.2 0.21,-3.52 0.19,-2.58 0.54,-4.91 0.64,-7.16 A 19.32,19.32 0 0 0 55,84.88 8.24,8.24 0 0 0 54.27,82.23 c -0.84,-1.88 -2.22,-4 -3.28,-6.59 a 12.12,12.12 0 0 1 -0.94,-4.58 c 0,-0.44 0,-0.88 0.11,-1.31 0.11,-0.43 0.18,-0.88 0.31,-1.3 0.13,-0.42 0.32,-0.83 0.5,-1.23 a 8,8 0 0 1 0.78,-1.22 9.36,9.36 0 0 1 4.14,-3 15.13,15.13 0 0 1 4.36,-0.93 v 5.58 h -1 -0.61 c 0,0 0,0 0,0 H 58.75 59 l 0.25,-0.08 a 3.79,3.79 0 0 0 0.43,-0.21 3,3 0 0 0 0.6,-0.48 2.87,2.87 0 0 0 0.45,-0.62 l 0.14,-0.32 a 2.88,2.88 0 0 0 0.15,-0.58 2.8,2.8 0 0 0 -1.39,-2.82 1.51,1.51 0 0 0 -0.22,-0.11 2.29,2.29 0 0 0 -0.44,-0.15 h -0.18 -0.1 0.59 c 0.3,0 0.62,0 0.94,0 l 0.15,5.56 c -2.18,0 -4.16,-0.23 -6,-0.18 a 10.57,10.57 0 0 0 -4.7,1 L 50,68.46 a 2.33,2.33 0 0 0 -0.73,0.84 11.46,11.46 0 0 0 -0.69,1.8 12.67,12.67 0 0 1 -1.22,2.79 8.08,8.08 0 0 1 -6,3.72 A 8.7,8.7 0 0 1 38,77 17,17 0 0 1 33,74.28 l 4.28,-1.71 a 21.72,21.72 0 0 1 -0.66,2.57 18.76,18.76 0 0 0 -0.62,1.99 2.11,2.11 0 0 0 0,0.87 1.28,1.28 0 0 0 0.45,0.47 l 5.39,4 -6.59,0.82 a 9,9 0 0 1 -3.53,-0.24 9.14,9.14 0 0 1 -3.15,-1.53 11.08,11.08 0 0 1 -3.8,-5.34 l 4.52,0.87 a 6.73,6.73 0 0 0 -1.59,3.6 4.77,4.77 0 0 0 0.83,3.43 l 4.06,5.5 -6.69,-1.33 a 14.43,14.43 0 0 1 -3.42,-1.13 9.41,9.41 0 0 1 -3.19,-2.49 7.55,7.55 0 0 1 -1.62,-4.08 10.06,10.06 0 0 1 0.5,-3.91 L 20.9,80 a 3.23,3.23 0 0 0 -1.73,0.73 6.44,6.44 0 0 0 -1.49,1.84 16.71,16.71 0 0 0 -1.77,5.43 l -1,6 -3.55,-5 a 16.2,16.2 0 0 1 -2.54,-5.51 17.22,17.22 0 0 1 -0.39,-6 25.7,25.7 0 0 1 1.19,-5.55 C 9.76,71.5 9.91,71.06 10.09,70.58 A 13.89,13.89 0 0 1 10.78,69.13 14.81,14.81 0 0 1 12.56,66.59 17.09,17.09 0 0 1 17.29,63 18.49,18.49 0 0 1 20,61.78 l 0.79,-0.25 0.64,-0.15 1.26,-0.3 a 47.56,47.56 0 0 0 9.31,-3.25 23.34,23.34 0 0 0 7.48,-5.55 16.6,16.6 0 0 0 1.33,-1.82 c 0.19,-0.33 0.42,-0.63 0.59,-1 l 0.49,-1 a 19.14,19.14 0 0 0 0.81,-2.11 l 0.26,-1.11 c 0.09,-0.39 0.17,-0.67 0.28,-1.23 a 14.11,14.11 0 0 1 2.5,-5.59 9.87,9.87 0 0 1 2.44,-2.28 9.14,9.14 0 0 1 3.17,-1.24 16,16 0 0 1 6,0.17 c 1.81,0.35 3.49,0.84 5,1.11 L 60,37.27 A 48.59,48.59 0 0 1 83.49,17 a 44.23,44.23 0 0 1 15.37,-3.3 39.25,39.25 0 0 1 15.56,2.68 l 9.18,3.62 -9.87,0.25 A 20.47,20.47 0 0 0 108.79,21.06 26.23,26.23 0 0 0 104,22.94 20.5,20.5 0 0 0 99.83,25.76 11.3,11.3 0 0 0 97,29.45 L 94.3,27 a 49.35,49.35 0 0 1 15,-5 55.07,55.07 0 0 1 15.7,-0.31 56.66,56.66 0 0 1 28.62,12 l 9.56,7.72 -11.3,-4.71 a 24.89,24.89 0 0 1 -4.37,-2.5 c -0.66,-0.46 -1.31,-0.93 -2,-1.41 l -1,-0.76 -0.49,-0.43 -0.28,-0.25 -0.18,-0.2 a 0.8,0.8 0 0 1 -0.15,-0.18 l -0.11,-0.16 c -0.05,-0.09 -0.09,-0.17 -0.13,-0.26 v -0.14 -0.07 a 1.28,1.28 0 0 1 0,-0.15 1.79,1.79 0 0 1 0.4,-1.46 1.85,1.85 0 0 1 1,-0.56 h 0.28 0.15 a 0.64,0.64 0 0 1 0.2,0 l 0.24,0.06 h 0.12 l 0.27,0.12 0.34,0.19 0.55,0.34 1,0.66 1.94,1.35 3.79,2.73 9.84,7.1 -11.42,-4.12 a 38.57,38.57 0 0 0 -11.66,-2.46 c -3.9,-0.14 -7.82,0.65 -10.8,2.9 l -1.11,-2.92 a 0.47,0.47 0 0 0 0.19,-0.06 c 0,0 0,0 0,0 0,0 0,0 -0.05,0.1 a 1,1 0 0 0 -0.07,0.21 v 0.21 a 1.24,1.24 0 0 0 0.06,0.47 1.69,1.69 0 0 0 0.42,0.68 1.45,1.45 0 0 0 0.42,0.26 l 0.27,0.1 a 1.78,1.78 0 0 0 0.7,0 l 0.18,-0.08 v 0 h -0.05 l -0.12,0.1 c -0.17,0.17 -0.36,0.39 -0.56,0.62 l -1.26,-2.62 a 75.6,75.6 0 0 1 24.17,3.8 54.53,54.53 0 0 1 21,12.7 l 4.72,4.68 -6.24,-2.26 a 9.41,9.41 0 0 1 -1.69,-0.78 5.84,5.84 0 0 1 -0.87,-0.64 4.07,4.07 0 0 1 -0.49,-0.55 2.67,2.67 0 0 1 -0.27,-0.54 1.65,1.65 0 0 1 0.2,-1.48 1.64,1.64 0 0 1 0.42,-0.41 2.09,2.09 0 0 1 0.4,-0.19 0.93,0.93 0 0 1 0.32,-0.07 h 0.26 a 2.15,2.15 0 0 1 0.61,0.11 3.33,3.33 0 0 1 0.65,0.3 6.41,6.41 0 0 1 0.86,0.64 10.45,10.45 0 0 1 1.24,1.37 l 3.66,4.74 -5.44,-2.53 a 26.47,26.47 0 0 0 -9.21,-2.44 17.37,17.37 0 0 0 -4.63,0.27 9,9 0 0 0 -3.93,1.82 l -0.77,-2.43 a 51.59,51.59 0 0 1 16.17,4.26 40,40 0 0 1 13.48,10 l 2.25,2.52 -3.37,-0.5 a 10.44,10.44 0 0 1 -3.31,-1.17 c -1,-0.5 -1.85,-1 -2.71,-1.42 a 4.94,4.94 0 0 0 -2.4,-0.57 3.71,3.71 0 0 0 -2.07,1 l -0.14,-1.92 a 45.91,45.91 0 0 1 5.83,4.65 51.86,51.86 0 0 1 4.94,5.54 74.77,74.77 0 0 1 7.6,12.58 c 1.08,2.19 2.08,4.39 3.06,6.63 0.98,2.24 1.69,4.6 2.52,6.9 l 1,3.54 c 0.3,1.19 0.7,2.35 0.89,3.56 l 0.68,3.61 c 0.11,0.6 0.25,1.19 0.33,1.8 l 0.2,1.82 a 90.42,90.42 0 0 1 -1.22,29.13 124.55,124.55 0 0 1 -9.31,27.59 c -1.07,2.18 -2.13,4.37 -3.27,6.51 -1.14,2.14 -2.29,4.28 -3.57,6.34 a 64.1,64.1 0 0 1 -8.56,11.83 c -6.54,7.25 -14.43,13.1 -22.67,18.17 -2.05,1.28 -4.14,2.51 -6.24,3.71 a 71.88,71.88 0 0 1 -6.44,3.41 102,102 0 0 1 -13.64,5.06 104.78,104.78 0 0 1 -14.21,3 109.82,109.82 0 0 1 -14.49,1 z"
           id="path6"
           style="fill:#672f25;fill-opacity:0;opacity:0.01" />
        <path
           class="cls-7"
           d="m 140.52,89 c -9,-18.94 -6.4,-13.57 -6.4,-13.57 0,0 -1.84496,-2.977175 2.84504,-2.557175 2.75621,0.232064 8.35966,7.922175 8.35966,7.922175 0.95938,-6.075993 2.31584,-12.078222 -1.3711,-19.017325 -0.82383,-9.817281 1.3711,19.017325 1.3711,19.017325 0,0 1.09645,-0.111041 -0.0945,-19.128366 4.34306,0.07902 -1.27657,0.111041 0,0 0,0 -8.44567,-11.863225 -14.89017,-24.926634 -13.06,-20.04 -1.88,-1.029998 -1.88,-1.029998 0,0 -4.89,1.569998 1.88,1.029998 -6.51,4.099998 9.90526,23.058492 14.89017,24.926634 0,0 -7.36017,-37.526632 -22.76017,-38.496632 -14.63,-0.92 -27.27,5.5 -27.27,5.5 0,0 0.89,-2.73 6.91,-6.6 3.44449,-2.288927 7.44011,-3.611589 11.57,-3.83 0,0 -11.94,-5 -28.18,0.09 -13.07,4.12 -20.87,15.6 -23.4,19.89 -4.49,-0.5 -7.38,-0.91 -7.38,-0.91 -1.81,-0.37 -5.9,-1.53 -8.29,5.31 -2.39,6.84 -2.23,10.38 -7.85,15.16 -5.62,4.78 -20.4,5.39 -23.36,9.56 -2.96,4.17 -4.83,10.74 -4.33,13.66 0.545636,2.307509 1.400004,4.530883 2.54,6.61 0.379712,-2.401803 1.189327,-4.715474 2.39,-6.83 0.967625,-1.821423 2.74796,-3.070258 4.79,-3.36 0,0 -1.13,3.24 0.24,5.38 1.37,2.14 5.56,2.9 5.56,2.9 -0.989406,-1.419424 -1.465576,-3.133636 -1.35,-4.86 -0.07196,-2.045319 0.719132,-4.026691 2.18,-5.46 2.15,6.26 7.64,5.31 7.64,5.31 -1.107288,-1.167758 -1.732374,-2.710828 -1.75,-4.32 -0.15,-2.14 0.66,-2.76 1.61,-4.06 0,0 5.09,3.29 8.19,2.25 3.1,-1.04 2.75,-8.56 8.07,-9.26 2.331957,-0.272638 4.639,-0.72736 6.9,-1.36 -1.84,0.72 -5.73,2.86 -4.81,8 1.2,6.67 4.9,9.2 4.61,12.8 -0.29,3.6 -0.2,15.719998 -1.87,18.489998 -1.67,2.77 -13.4,1.49 -13.4,1.49 0,0 4.27,5.2 8.85,7.24 4.58,2.04 8.24,3.67 9.91,0.9 1.67,-2.77 15.84,-37.499998 15.84,-37.499998 0,0 3.24,1.64 8.97,-1.74 5.73,-3.38 7,-12.88 7,-12.88 l 0.18,-0.07 c 0.299475,-2.777067 0.195058,-5.582873 -0.31,-8.33 -0.244765,-1.252307 -0.578954,-2.485465 -1,-3.69 -0.149576,-0.283395 -0.316562,-0.557252 -0.5,-0.82 0,0 0.16,0 0.5,0.82 1.180199,2.233067 1.997104,4.639897 2.42,7.13 0.336378,1.500418 0.387264,3.050753 0.15,4.57 3.45,-0.7 13.2,-1.28 28.42,8.93 L 122.72,69 c 25.64,18.26 8.275,18.559982 -4.725,52.23998 -5.9,15.35 0.79161,13.87957 -30.468386,10.51957 15.033376,-4.43962 -3.816631,-8.23971 -2.336631,7.45029 19.685837,0.25222 16.246107,-7.321 32.805017,-17.96986 l 8.56497,-23.809749 c 0,0 -8.56497,23.809749 13.96001,-8.430231 z"
           id="path7"
           style="opacity:1;fill:#e1251b;fill-opacity:1"
           sodipodi:nodetypes="cccccccccccccccccccsssccccsccccccscccsscsscsccccccccccccccccc" />
        <polygon
           class="cls-6"
           points="23.59,69.26 17.26,69.88 23.74,67.09 "
           id="polygon7"
           style="fill:#672f25" />
        <path
           class="cls-6"
           d="m 92.36,46.5 c 0,0 4.76,3.68 7,7.11 a 25.08,25.08 0 0 1 2.92,7.66 l -10.09,3.29 a 24,24 0 0 0 0.86,-10.8 C 92.5,50.25 87.16,43.28 87.16,43.28 Z"
           id="path8"
           style="fill:#672f25" />
        <path
           class="cls-6"
           d="m 103,21.74 c 0,0 -9.22,5.88 -11.44,8 a 29.34,29.34 0 0 0 -4,5.06 c 0,0 4.38,-3.27 7,-5 2.62,-1.73 11.24,-4.95 11.24,-4.95 l -5.78,0.72 z"
           id="path9"
           style="fill:#672f25" />
        <path
           class="cls-8"
           d="m 87.54,49.74 c 0,0 4.46,6.45 3.56,11.89 -0.9,5.44 -3,9.54 -6.53,10.65 a 30.77,30.77 0 0 1 -7.36,1.2 18.91,18.91 0 0 0 9.32,-10.1 23.37,23.37 0 0 0 1.01,-13.64 z"
           id="path11"
           style="fill:#ff7f40" />
        <path
           class="cls-6"
           d="M 53.84,74.9 C 53,70.72 52.16,65 56.6,64.63 a 36.31,36.31 0 0 1 8.25,0.29 13,13 0 0 0 -7.57,-1.55 26.65,26.65 0 0 0 -7.6,2.63 L 52,69.51 c 0,0 2.1,6.64 1.84,5.39 z"
           id="path12"
           style="fill:#672f25" />
        <path
           class="cls-6"
           d="m 34.74,72.31 c 0,0 6.34,1.74 7.46,1.25 1.12,-0.49 4.73,-5.28 4.73,-5.28 L 45,75.89 40,76.28 Z"
           id="path13"
           style="fill:#672f25" />
        <path
           class="cls-6"
           d="m 52.94,104.37 c 0,0 -6.16,0.3 -6.64,1.72 -0.48,1.42 5.63,7.32 5.63,7.32 L 40,103.94 Z"
           id="path14"
           style="fill:#672f25" />
        <path
           class="cls-8"
           d="m 49.41,107 c 0,0 0.56,1.21 4.47,3.43 3.91,2.22 5.32,1.89 6.47,0.56 C 61.5,109.66 74,75.82 74,75.82 c 0,0 -12.25,31.36 -16.64,31.82 A 25.33,25.33 0 0 1 49.41,107 Z"
           id="path15"
           style="fill:#ff7f40" />
        <path
           class="cls-6"
           d="m 87.47,34.92 c 0,0 2.41,-8.49 12,-14.18 5,-3 14.2,-2.49 14.2,-2.49 0,0 -8.08,2.64 -11.64,5.39 z"
           id="path16"
           style="fill:#672f25" />
        <path
           class="cls-6"
           d="m 128.46,35.75 c 0,0 0.12307,-6.13 0.31999,-5.87 0.19692,0.26 0.4709,6.5 0.4709,6.5 0,0 -0.25435,-3.06 -0.42108,-2.21 -0.16674,0.85 -0.36981,1.58 -0.36981,1.58 z"
           id="path17"
           style="fill:#672f25;stroke-width:0.171182" />
        <path
           class="cls-8"
           d="m 68.35,30 c 0,0 12.5,-13.45 24.25,-13.85 11.75,-0.4 17.72,0.64 17.72,0.64 0,0 -13.79,-0.26 -23.92,3.21 A 66.33,66.33 0 0 0 68.35,30 Z"
           id="path18"
           style="fill:#ff7f40" />
        <path
           class="cls-8"
           d="m 87.47,34.92 c 0,0 16.53,-13.4 33.1,-11.72 9.85801,0.944936 0.0824,4.815281 8.68,9.73 0,0 0.42,-8.76 -16.97,-5.97 -17.39,2.79 -24.86,8.56 -24.86,8.56"
           id="path19"
           style="fill:#ff7f40"
           sodipodi:nodetypes="cccsc" />
        <path
           class="cls-6"
           d="m 22.86,87.19 c 0,0 4.35,1.34 6.14,1.71 a 12.58,12.58 0 0 0 3.7,0.09 c 0,0 -4.51,-3.08 -5,-4.25 -0.49,-1.17 -2,1.26 -2,1.26 z"
           id="path21"
           style="fill:#672f25" />
        <polygon
           class="cls-6"
           points="36.25,78.58 33.86,83.01 39.44,81.45 "
           id="polygon21"
           style="fill:#672f25" />
        <path
           class="cls-6"
           d="m 46.54,53.88 a 35.63,35.63 0 0 0 4.16,-6.14 67.32,67.32 0 0 0 2.8,-6.89 l 0.42,10 z"
           id="path22"
           style="fill:#672f25" />
        <path
           class="cls-9"
           d="m 44.85,89.64 a 1.8,1.8 0 0 1 -0.9,-0.19 2.16,2.16 0 0 1 -0.7,-0.54 2.41,2.41 0 0 1 -0.45,-0.82 3.29,3.29 0 0 1 -0.17,-1 v 0 a 3.11,3.11 0 0 1 0.15,-1 2.62,2.62 0 0 1 0.43,-0.83 2.08,2.08 0 0 1 0.69,-0.56 1.93,1.93 0 0 1 0.9,-0.22 2,2 0 0 1 0.9,0.19 1.94,1.94 0 0 1 0.69,0.55 2.67,2.67 0 0 1 0.46,0.81 A 3.68,3.68 0 0 1 47,87 v 0 a 3.38,3.38 0 0 1 -0.15,1 2.61,2.61 0 0 1 -0.43,0.83 2.11,2.11 0 0 1 -0.69,0.57 1.93,1.93 0 0 1 -0.88,0.24 z m 0,-0.79 a 1,1 0 0 0 0.53,-0.14 1.32,1.32 0 0 0 0.39,-0.39 2,2 0 0 0 0.25,-0.58 2.24,2.24 0 0 0 0.08,-0.7 v 0 a 2.34,2.34 0 0 0 -0.1,-0.71 1.87,1.87 0 0 0 -0.27,-0.57 1.21,1.21 0 0 0 -0.4,-0.38 1,1 0 0 0 -0.54,-0.14 1,1 0 0 0 -0.52,0.15 1.15,1.15 0 0 0 -0.4,0.39 1.86,1.86 0 0 0 -0.25,0.57 3.13,3.13 0 0 0 -0.08,0.7 v 0 a 3.11,3.11 0 0 0 0.1,0.7 1.88,1.88 0 0 0 0.27,0.57 1.38,1.38 0 0 0 0.41,0.39 1,1 0 0 0 0.53,0.14 z"
           id="path23"
           style="fill:url(#linearGradient55)" />
        <path
           class="cls-10"
           d="m 26.56,97.28 a 1.92,1.92 0 0 1 -0.87,-0.19 1.9,1.9 0 0 1 -0.67,-0.52 2.44,2.44 0 0 1 -0.44,-0.79 3.14,3.14 0 0 1 -0.16,-1 v 0 a 2.87,2.87 0 0 1 0.14,-1 A 2.43,2.43 0 0 1 25,93 a 2,2 0 0 1 0.66,-0.55 1.81,1.81 0 0 1 0.87,-0.21 2.05,2.05 0 0 1 0.87,0.18 2.16,2.16 0 0 1 0.67,0.53 2.74,2.74 0 0 1 0.44,0.79 3.08,3.08 0 0 1 0.16,1 v 0 a 3.18,3.18 0 0 1 -0.14,1 2.65,2.65 0 0 1 -0.42,0.8 1.93,1.93 0 0 1 -1.53,0.76 z m 0,-0.77 a 1,1 0 0 0 0.51,-0.14 1.15,1.15 0 0 0 0.38,-0.38 1.61,1.61 0 0 0 0.24,-0.55 2.49,2.49 0 0 0 0.08,-0.68 v 0 A 2.48,2.48 0 0 0 27.67,94.08 1.86,1.86 0 0 0 27.41,93.53 1.15,1.15 0 0 0 27.02,93.16 1,1 0 0 0 26.5,93 1,1 0 0 0 26,93.15 a 1.12,1.12 0 0 0 -0.38,0.37 1.61,1.61 0 0 0 -0.24,0.55 2.53,2.53 0 0 0 -0.08,0.68 v 0 a 2.48,2.48 0 0 0 0.09,0.68 1.86,1.86 0 0 0 0.26,0.55 1.28,1.28 0 0 0 0.4,0.37 1,1 0 0 0 0.51,0.16 z"
           id="path24"
           style="fill:url(#linear-gradient-2)" />
        <path
           class="cls-11"
           d="m 20.23,103.86 a 1.92,1.92 0 0 1 -0.87,-0.19 2,2 0 0 1 -0.67,-0.52 2.64,2.64 0 0 1 -0.44,-0.79 3.4,3.4 0 0 1 -0.16,-1 v 0 a 3.14,3.14 0 0 1 0.14,-1 2.54,2.54 0 0 1 0.42,-0.8 2.22,2.22 0 0 1 0.67,-0.55 2.06,2.06 0 0 1 0.86,-0.21 1.92,1.92 0 0 1 0.87,0.19 1.9,1.9 0 0 1 0.67,0.52 2.64,2.64 0 0 1 0.44,0.79 3.09,3.09 0 0 1 0.17,1 v 0 a 3.46,3.46 0 0 1 -0.14,1 2.47,2.47 0 0 1 -0.43,0.8 1.93,1.93 0 0 1 -1.53,0.76 z m 0,-0.77 a 1,1 0 0 0 0.51,-0.14 1.25,1.25 0 0 0 0.38,-0.38 2.13,2.13 0 0 0 0.24,-0.55 2.49,2.49 0 0 0 0.07,-0.68 v 0 a 2.48,2.48 0 0 0 -0.09,-0.68 2.15,2.15 0 0 0 -0.26,-0.55 1.24,1.24 0 0 0 -0.39,-0.37 1,1 0 0 0 -1,0 1.25,1.25 0 0 0 -0.39,0.37 2.06,2.06 0 0 0 -0.24,0.56 2.88,2.88 0 0 0 -0.08,0.68 v 0 a 2.93,2.93 0 0 0 0.1,0.68 1.64,1.64 0 0 0 0.26,0.55 1.24,1.24 0 0 0 0.39,0.37 0.94,0.94 0 0 0 0.51,0.14 z"
           id="path25"
           style="fill:url(#linear-gradient-3)" />
        <path
           class="cls-12"
           d="m 26.64,103.78 a 1.92,1.92 0 0 1 -0.87,-0.19 1.9,1.9 0 0 1 -0.67,-0.52 2.44,2.44 0 0 1 -0.44,-0.79 3.1,3.1 0 0 1 -0.16,-1 v 0 a 2.87,2.87 0 0 1 0.14,-1 2.54,2.54 0 0 1 0.42,-0.8 1.93,1.93 0 0 1 1.53,-0.76 1.92,1.92 0 0 1 0.87,0.19 2,2 0 0 1 0.67,0.52 2.64,2.64 0 0 1 0.44,0.79 3.08,3.08 0 0 1 0.16,1 v 0 a 2.91,2.91 0 0 1 -0.14,1 2.65,2.65 0 0 1 -0.42,0.8 1.93,1.93 0 0 1 -1.53,0.76 z m 0,-0.77 a 1,1 0 0 0 0.51,-0.14 1.15,1.15 0 0 0 0.38,-0.38 1.61,1.61 0 0 0 0.24,-0.55 2.49,2.49 0 0 0 0.08,-0.68 v 0 a 2.48,2.48 0 0 0 -0.1,-0.68 2.14,2.14 0 0 0 -0.25,-0.55 1.18,1.18 0 0 0 -0.4,-0.37 0.88,0.88 0 0 0 -0.51,-0.13 1,1 0 0 0 -0.51,0.14 1.22,1.22 0 0 0 -0.38,0.37 1.58,1.58 0 0 0 -0.24,0.56 2.44,2.44 0 0 0 -0.08,0.68 v 0 a 2.15,2.15 0 0 0 0.1,0.68 1.85,1.85 0 0 0 0.25,0.55 1.27,1.27 0 0 0 0.4,0.37 0.88,0.88 0 0 0 0.51,0.12 z"
           id="path26"
           style="fill:url(#linear-gradient-4)" />
        <path
           class="cls-13"
           d="m 26.72,110.27 a 1.79,1.79 0 0 1 -0.87,-0.18 2.12,2.12 0 0 1 -0.67,-0.52 2.44,2.44 0 0 1 -0.44,-0.79 3.14,3.14 0 0 1 -0.16,-1 v 0 a 3.1,3.1 0 0 1 0.14,-1 2.59,2.59 0 0 1 0.42,-0.81 2,2 0 0 1 0.66,-0.54 1.81,1.81 0 0 1 0.87,-0.21 1.89,1.89 0 0 1 1.54,0.71 2.52,2.52 0 0 1 0.44,0.79 3,3 0 0 1 0.16,1 v 0 a 2.91,2.91 0 0 1 -0.14,1 2.65,2.65 0 0 1 -0.42,0.8 2.07,2.07 0 0 1 -0.66,0.55 1.92,1.92 0 0 1 -0.87,0.2 z m 0,-0.76 a 0.94,0.94 0 0 0 0.5,-0.14 1.15,1.15 0 0 0 0.38,-0.38 1.61,1.61 0 0 0 0.24,-0.55 2.15,2.15 0 0 0 0.08,-0.68 v 0 a 2.15,2.15 0 0 0 -0.1,-0.68 2,2 0 0 0 -0.25,-0.55 1.18,1.18 0 0 0 -0.4,-0.37 1,1 0 0 0 -1,0 1.12,1.12 0 0 0 -0.38,0.37 1.61,1.61 0 0 0 -0.24,0.55 2.53,2.53 0 0 0 -0.08,0.68 v 0 a 2.48,2.48 0 0 0 0.1,0.68 1.85,1.85 0 0 0 0.25,0.55 1.4,1.4 0 0 0 0.4,0.37 1,1 0 0 0 0.51,0.15 z"
           id="path27"
           style="fill:url(#linear-gradient-5)" />
        <path
           class="cls-14"
           d="m 32.85,103.7 a 1.89,1.89 0 0 1 -1.54,-0.71 2.34,2.34 0 0 1 -0.44,-0.79 3.08,3.08 0 0 1 -0.16,-1 v 0 a 2.91,2.91 0 0 1 0.14,-1 2.65,2.65 0 0 1 0.42,-0.8 1.93,1.93 0 0 1 1.53,-0.76 1.92,1.92 0 0 1 0.87,0.19 2,2 0 0 1 0.67,0.52 2.88,2.88 0 0 1 0.44,0.79 3.1,3.1 0 0 1 0.16,1 v 0 a 2.87,2.87 0 0 1 -0.14,1 2.43,2.43 0 0 1 -0.42,0.8 1.93,1.93 0 0 1 -1.53,0.76 z m 0,-0.76 a 1,1 0 0 0 0.51,-0.15 1.22,1.22 0 0 0 0.38,-0.37 1.67,1.67 0 0 0 0.24,-0.56 2.41,2.41 0 0 0 0.08,-0.67 v 0 a 2.48,2.48 0 0 0 -0.1,-0.68 1.86,1.86 0 0 0 -0.26,-0.55 1.25,1.25 0 0 0 -0.39,-0.37 1,1 0 0 0 -1,0 1.22,1.22 0 0 0 -0.38,0.37 1.67,1.67 0 0 0 -0.24,0.56 2.49,2.49 0 0 0 -0.08,0.68 v 0 a 2.48,2.48 0 0 0 0.09,0.68 1.86,1.86 0 0 0 0.26,0.55 1.18,1.18 0 0 0 0.4,0.37 1,1 0 0 0 0.49,0.14 z"
           id="path28"
           style="fill:url(#linear-gradient-6)" />
        <path
           class="cls-15"
           d="m 7.56,110.51 a 1.84,1.84 0 0 1 -0.87,-0.18 2.12,2.12 0 0 1 -0.67,-0.52 2.42,2.42 0 0 1 -0.43,-0.79 3.15,3.15 0 0 1 -0.17,-1 v 0 a 3.41,3.41 0 0 1 0.14,-1 2.59,2.59 0 0 1 0.42,-0.81 2.19,2.19 0 0 1 0.67,-0.54 1.81,1.81 0 0 1 0.87,-0.21 2.08,2.08 0 0 1 0.87,0.18 2,2 0 0 1 0.66,0.53 2.34,2.34 0 0 1 0.44,0.79 3,3 0 0 1 0.17,1 v 0 a 3.52,3.52 0 0 1 -0.14,1 2.65,2.65 0 0 1 -0.42,0.8 2.22,2.22 0 0 1 -0.67,0.55 1.92,1.92 0 0 1 -0.87,0.2 z m 0,-0.76 a 1,1 0 0 0 0.51,-0.14 1.25,1.25 0 0 0 0.38,-0.38 2.13,2.13 0 0 0 0.24,-0.55 3,3 0 0 0 0.08,-0.68 v 0 a 2.93,2.93 0 0 0 -0.1,-0.68 2,2 0 0 0 -0.26,-0.55 1.24,1.24 0 0 0 -0.39,-0.37 1,1 0 0 0 -0.52,-0.14 1,1 0 0 0 -0.5,0.15 1.15,1.15 0 0 0 -0.39,0.37 2.13,2.13 0 0 0 -0.24,0.55 3,3 0 0 0 -0.08,0.68 v 0 a 2.93,2.93 0 0 0 0.1,0.68 1.86,1.86 0 0 0 0.26,0.55 1.37,1.37 0 0 0 0.39,0.37 1,1 0 0 0 0.53,0.14 z"
           id="path29"
           style="fill:url(#linear-gradient-7)" />
        <path
           class="cls-16"
           d="M 7.64,116.66 A 1.91,1.91 0 0 1 6.77,116.48 2,2 0 0 1 6.1,116 a 2.42,2.42 0 0 1 -0.44,-0.79 3.34,3.34 0 0 1 -0.16,-1 v 0 a 3.1,3.1 0 0 1 0.14,-1 2.59,2.59 0 0 1 0.42,-0.81 1.92,1.92 0 0 1 0.66,-0.54 1.81,1.81 0 0 1 0.87,-0.21 1.79,1.79 0 0 1 0.87,0.18 1.92,1.92 0 0 1 0.67,0.53 2.42,2.42 0 0 1 0.44,0.79 3,3 0 0 1 0.16,1 v 0 a 2.84,2.84 0 0 1 -0.14,1 2.23,2.23 0 0 1 -0.42,0.81 1.92,1.92 0 0 1 -0.66,0.54 1.81,1.81 0 0 1 -0.87,0.16 z m 0,-0.76 a 0.92,0.92 0 0 0 0.5,-0.14 1.25,1.25 0 0 0 0.38,-0.38 1.61,1.61 0 0 0 0.24,-0.55 2.15,2.15 0 0 0 0.08,-0.68 v 0 a 2.09,2.09 0 0 0 -0.1,-0.67 1.74,1.74 0 0 0 -0.25,-0.55 1.21,1.21 0 0 0 -0.4,-0.38 1,1 0 0 0 -0.51,-0.13 1,1 0 0 0 -0.51,0.14 1.25,1.25 0 0 0 -0.38,0.38 2,2 0 0 0 -0.24,0.55 2.49,2.49 0 0 0 -0.08,0.68 v 0 a 2.85,2.85 0 0 0 0.1,0.67 1.74,1.74 0 0 0 0.25,0.55 1.44,1.44 0 0 0 0.4,0.38 1,1 0 0 0 0.53,0.13 z"
           id="path30"
           style="fill:url(#linear-gradient-8)" />
        <path
           class="cls-17"
           d="m 1.44,122.57 a 1.79,1.79 0 0 1 -0.87,-0.18 1.9,1.9 0 0 1 -0.67,-0.52 2.44,2.44 0 0 1 -0.44,-0.79 3.14,3.14 0 0 1 -0.16,-1 v 0 a 2.87,2.87 0 0 1 0.14,-1 2.59,2.59 0 0 1 0.42,-0.81 2,2 0 0 1 0.66,-0.54 1.81,1.81 0 0 1 0.87,-0.21 2.05,2.05 0 0 1 0.87,0.18 2.16,2.16 0 0 1 0.67,0.53 2.74,2.74 0 0 1 0.44,0.79 3.08,3.08 0 0 1 0.16,1 v 0 a 2.91,2.91 0 0 1 -0.14,1 2.65,2.65 0 0 1 -0.42,0.8 2.07,2.07 0 0 1 -0.66,0.55 1.92,1.92 0 0 1 -0.87,0.2 z m 0,-0.76 a 1,1 0 0 0 0.51,-0.14 1.15,1.15 0 0 0 0.38,-0.38 1.61,1.61 0 0 0 0.24,-0.55 2.49,2.49 0 0 0 0.08,-0.68 v 0 a 2.48,2.48 0 0 0 -0.1,-0.68 1.75,1.75 0 0 0 -0.26,-0.55 1.15,1.15 0 0 0 -0.39,-0.37 1,1 0 0 0 -1,0 1.12,1.12 0 0 0 -0.38,0.37 1.61,1.61 0 0 0 -0.24,0.55 2.53,2.53 0 0 0 -0.08,0.68 v 0 a 2.48,2.48 0 0 0 0.09,0.68 1.86,1.86 0 0 0 0.26,0.55 1.28,1.28 0 0 0 0.4,0.37 1,1 0 0 0 0.49,0.15 z"
           id="path31"
           style="fill:url(#linear-gradient-9)" />
        <path
           class="cls-18"
           d="m 20.39,116.5 a 1.79,1.79 0 0 1 -0.87,-0.18 2,2 0 0 1 -0.67,-0.53 2.42,2.42 0 0 1 -0.44,-0.79 3.34,3.34 0 0 1 -0.16,-1 v 0 a 3.1,3.1 0 0 1 0.14,-1 2.59,2.59 0 0 1 0.42,-0.81 1.92,1.92 0 0 1 0.66,-0.54 1.81,1.81 0 0 1 0.87,-0.21 1.89,1.89 0 0 1 1.54,0.71 2.42,2.42 0 0 1 0.44,0.79 3,3 0 0 1 0.16,1 v 0 a 2.84,2.84 0 0 1 -0.14,1 2.23,2.23 0 0 1 -0.42,0.81 1.92,1.92 0 0 1 -0.66,0.54 1.81,1.81 0 0 1 -0.87,0.21 z m 0,-0.76 a 0.92,0.92 0 0 0 0.5,-0.14 1.25,1.25 0 0 0 0.38,-0.38 1.61,1.61 0 0 0 0.24,-0.55 2.15,2.15 0 0 0 0.08,-0.68 v 0 a 2.09,2.09 0 0 0 -0.1,-0.67 1.74,1.74 0 0 0 -0.25,-0.55 1.32,1.32 0 0 0 -0.4,-0.38 1,1 0 0 0 -0.51,-0.13 1,1 0 0 0 -0.51,0.14 1.25,1.25 0 0 0 -0.38,0.38 2,2 0 0 0 -0.24,0.55 2.49,2.49 0 0 0 -0.08,0.68 v 0 a 2.85,2.85 0 0 0 0.1,0.67 1.74,1.74 0 0 0 0.25,0.55 1.31,1.31 0 0 0 0.4,0.38 1,1 0 0 0 0.53,0.13 z"
           id="path32"
           style="fill:url(#linear-gradient-10)" />
        <path
           class="cls-19"
           d="M 32.77,97.2 A 1.92,1.92 0 0 1 31.9,97 a 2,2 0 0 1 -0.68,-0.52 2.62,2.62 0 0 1 -0.43,-0.79 2.82,2.82 0 0 1 -0.16,-1 v 0 a 2.87,2.87 0 0 1 0.14,-1 2.19,2.19 0 0 1 0.42,-0.8 1.93,1.93 0 0 1 1.53,-0.76 1.92,1.92 0 0 1 0.87,0.19 2,2 0 0 1 0.67,0.52 2.62,2.62 0 0 1 0.43,0.79 3.1,3.1 0 0 1 0.17,1 v 0 a 3.14,3.14 0 0 1 -0.14,1 2.54,2.54 0 0 1 -0.42,0.8 1.93,1.93 0 0 1 -1.53,0.76 z m 0,-0.77 a 1,1 0 0 0 0.51,-0.14 1.15,1.15 0 0 0 0.38,-0.38 2,2 0 0 0 0.24,-0.55 2.44,2.44 0 0 0 0.08,-0.68 v 0 a 2.93,2.93 0 0 0 -0.1,-0.68 1.86,1.86 0 0 0 -0.26,-0.55 1.24,1.24 0 0 0 -0.39,-0.37 0.92,0.92 0 0 0 -0.52,-0.13 1,1 0 0 0 -0.5,0.14 1.22,1.22 0 0 0 -0.38,0.37 1.58,1.58 0 0 0 -0.24,0.56 2.15,2.15 0 0 0 -0.08,0.68 v 0 a 2.48,2.48 0 0 0 0.09,0.68 1.86,1.86 0 0 0 0.26,0.55 1.18,1.18 0 0 0 0.4,0.37 0.88,0.88 0 0 0 0.51,0.13 z"
           id="path33"
           style="fill:url(#linear-gradient-11)" />
        <path
           class="cls-20"
           d="m 37.9,91 -0.93,0.27 -0.2,-0.74 1.38,-0.46 h 0.64 l 0.07,5.21 H 38 Z"
           id="path34"
           style="fill:url(#linear-gradient-12)" />
        <path
           class="cls-21"
           d="m 13.56,99.81 -0.89,0.26 -0.19,-0.71 1.33,-0.45 h 0.62 l 0.06,5 h -0.87 z"
           id="path35"
           style="fill:url(#linear-gradient-13)" />
        <path
           class="cls-22"
           d="m 13.65,106.3 -0.9,0.26 -0.19,-0.71 1.33,-0.44 h 0.62 l 0.06,5 H 13.7 Z"
           id="path36"
           style="fill:url(#linear-gradient-14)" />
        <path
           class="cls-23"
           d="m 20.37,106.22 -0.89,0.26 -0.2,-0.71 1.34,-0.44 h 0.62 l 0.06,5 h -0.87 z"
           id="path37"
           style="fill:url(#linear-gradient-15)" />
        <path
           class="cls-24"
           d="m 13.72,112.45 -0.89,0.26 -0.2,-0.71 1.34,-0.44 h 0.62 l 0.06,5 h -0.88 z"
           id="path38"
           style="fill:url(#linear-gradient-16)" />
        <path
           class="cls-25"
           d="m 13.8,118.29 -0.9,0.26 -0.19,-0.71 1.33,-0.45 h 0.62 l 0.06,5 h -0.87 z"
           id="path39"
           style="fill:url(#linear-gradient-17)" />
        <path
           class="cls-26"
           d="m 7.77,118.36 -0.89,0.26 -0.2,-0.71 1.32,-0.44 h 0.62 l 0.06,5 H 7.83 Z"
           id="path40"
           style="fill:url(#linear-gradient-18)" />
      </g>
      <path
         class="cls-7"
         d="m 42.778646,25.04287 c 0,0 6.901487,3.467851 6.901487,11.87892 0,7.0612 -3.692201,14.60152 -16.05024,17.01219 -14.970346,2.92425 -25.1837948,-8.0269 -25.1837948,-8.0269 0,0 7.6931908,12.311854 19.7234378,13.00823 11.894133,-0.17105 19.274747,-5.30455 19.274747,-5.30455 0.820254,0.838931 6.609175,-7.030511 8.785363,-10.358247 0.962021,-3.20923 2.483752,-7.886154 2.483752,-7.886154 L 56.110115,26.818622 44.702691,21.841183 Z"
         id="path41"
         style="fill:#e1251b;stroke-width:0.380237"
         sodipodi:nodetypes="csccccccccc" />
      <path
         class="cls-6"
         d="m 40.219577,26.696935 c 1.378476,-0.061 2.75746,0.108646 4.080047,0.50194 1.360519,0.376486 2.561678,1.185262 3.422223,2.304287 0.766932,1.177983 1.284562,2.500515 1.521004,3.886128 0.276483,1.359828 0.403982,2.745732 0.380239,4.13318 -0.02802,2.808119 -0.688243,5.573856 -1.931655,8.09184 -0.645196,1.278828 -1.489763,2.44685 -2.502027,3.46026 -0.250957,0.26222 -0.528545,0.49432 -0.802325,0.72987 -0.273787,0.2358 -0.551349,0.42987 -0.828939,0.64653 -0.27759,0.21673 -0.551346,0.42225 -0.840348,0.61601 -0.288979,0.19389 -0.57037,0.403 -0.866956,0.58937 -2.36888,1.552631 -4.995697,2.670305 -7.757053,3.30052 -2.789231,0.612799 -5.676702,0.627182 -8.4719,0.0422 -1.367585,-0.305614 -2.710926,-0.711067 -4.019227,-1.2131 -1.292849,-0.49049 -2.555263,-1.01902 -3.802478,-1.60091 -2.474811,-1.14522 -4.869479,-2.456221 -7.167667,-3.92406 l 0.09889,-0.20162 c 2.574287,0.86707 5.118145,1.77187 7.6696,2.61615 l 1.901238,0.61972 c 0.638808,0.19018 1.277631,0.38035 1.901225,0.56655 1.247686,0.378563 2.517609,0.679528 3.802485,0.90117 2.530687,0.425524 5.112719,0.448473 7.65057,0.068 2.552597,-0.431008 5.002601,-1.33363 7.224705,-2.6617 0.281384,-0.16358 0.555154,-0.34605 0.83274,-0.51718 0.277592,-0.17109 0.551356,-0.3538 0.817525,-0.54762 0.536028,-0.351185 1.044503,-0.742723 1.521007,-1.17121 0.938775,-0.864471 1.733367,-1.873413 2.353717,-2.98866 1.262541,-2.303933 2.002517,-4.857512 2.167413,-7.47952 0.09951,-1.31521 0.05616,-2.637332 -0.129283,-3.9432 -0.156014,-1.289279 -0.568435,-2.534307 -1.212975,-3.66176 -0.758004,-1.063559 -1.839837,-1.85326 -3.08381,-2.251076 -1.260113,-0.441823 -0.653547,-1.544636 -1.988856,-1.550926 z"
         id="path42"
         style="fill:#672f25;stroke-width:0.380237"
         sodipodi:nodetypes="ccccccccccccccccccccccccccccccccc" />
      <path
         class="cls-27"
         d="m 35.24594,56.17746 c 11.555708,-2.24348 15.187081,-9.25891 15.730832,-15.88659 0.642621,-7.86356 -3.209298,-11.407543 -5.35008,-13.107219 1.391698,1.140736 3.905135,4.920369 3.905135,9.738139 0,7.0612 -3.692198,14.60152 -16.050235,17.01219 -8.068857,1.57055 -18.335529,-3.18255 -22.78823,-5.77977 3.517287,3.41854 14.289698,10.01959 24.552578,8.02325 z"
         id="path43"
         style="fill:#ff9e18;stroke-width:0.380237" />
      <circle
         class="cls-28"
         cx="31.504282"
         cy="31.624977"
         r="27.282747"
         id="circle43"
         style="fill:none;stroke:#2d3d53;stroke-width:0.434507px;stroke-miterlimit:10;stroke-opacity:1" />
    </g>
  </g>
</svg>
