<?xml version="1.0" encoding="UTF-8" standalone="no"?>
<svg
   width="62"
   height="62"
   version="1"
   id="svg4"
   sodipodi:docname="gnome-workspace.svg"
   inkscape:version="1.4 (unknown)"
   xmlns:inkscape="http://www.inkscape.org/namespaces/inkscape"
   xmlns:sodipodi="http://sodipodi.sourceforge.net/DTD/sodipodi-0.dtd"
   xmlns:xlink="http://www.w3.org/1999/xlink"
   xmlns="http://www.w3.org/2000/svg"
   xmlns:svg="http://www.w3.org/2000/svg">
  <defs
     id="defs4">
    <linearGradient
       id="linearGradient4"
       inkscape:collect="always">
      <stop
         style="stop-color:#ffb380;stop-opacity:1"
         offset="0"
         id="stop4" />
      <stop
         style="stop-color:#d35f8d;stop-opacity:1"
         offset="1"
         id="stop5" />
    </linearGradient>
    <linearGradient
       inkscape:collect="always"
       xlink:href="#linearGradient4"
       id="linearGradient5"
       x1="13.780748"
       y1="6.5682039"
       x2="52.509281"
       y2="53.857174"
       gradientUnits="userSpaceOnUse"
       gradientTransform="translate(0.5)" />
    <linearGradient
       xlink:href="#a"
       id="d"
       x1="55.867001"
       x2="68.871002"
       y1="20.605"
       y2="45.125"
       gradientTransform="matrix(0.56571,0,0,0.56571,-87.766479,-17.158)"
       gradientUnits="userSpaceOnUse" />
    <linearGradient
       id="a"
       x1="55.867001"
       x2="68.871002"
       y1="20.605"
       y2="45.125"
       gradientUnits="userSpaceOnUse">
      <stop
         offset="0"
         stop-color="#67554b"
         id="stop1" />
      <stop
         offset=".179"
         stop-color="#77767b"
         id="stop2" />
      <stop
         offset=".801"
         stop-color="#241f31"
         id="stop3" />
      <stop
         offset="1"
         stop-color="#5e5c64"
         id="stop4-7" />
    </linearGradient>
    <clipPath
       id="e">
      <rect
         width="56.001999"
         height="56.001999"
         x="4"
         y="3.9690001"
         fill="url(#b)"
         stroke-width="3.78"
         opacity="0.412"
         rx="13.002"
         ry="13.002"
         id="rect9" />
    </clipPath>
    <linearGradient
       id="b"
       x1="7.9369998"
       x2="7.9369998"
       y1="15.081"
       y2="1.852"
       gradientTransform="scale(3.7796)"
       gradientUnits="userSpaceOnUse">
      <stop
         offset="0"
         stop-color="#363636"
         id="stop5-5" />
      <stop
         offset="1"
         stop-color="#6c6c6c"
         id="stop6-3" />
    </linearGradient>
    <linearGradient
       inkscape:collect="always"
       xlink:href="#linearGradient1577"
       id="linearGradient4447"
       gradientUnits="userSpaceOnUse"
       x1="16.400871"
       y1="1.16837"
       x2="14.086208"
       y2="161.16489"
       gradientTransform="matrix(0.41821097,0,0,0.41844279,3.3866628,58.631595)" />
    <linearGradient
       inkscape:collect="always"
       id="linearGradient1577">
      <stop
         style="stop-color:#ffffff;stop-opacity:1;"
         offset="0"
         id="stop1573" />
      <stop
         style="stop-color:#ffdfd8;stop-opacity:1"
         offset="0.13666479"
         id="stop4643" />
      <stop
         style="stop-color:#fee1e2;stop-opacity:1;"
         offset="0.17552173"
         id="stop4513" />
      <stop
         style="stop-color:#b89be4;stop-opacity:1;"
         offset="1"
         id="stop1575" />
    </linearGradient>
  </defs>
  <sodipodi:namedview
     id="namedview4"
     pagecolor="#ffffff"
     bordercolor="#000000"
     borderopacity="0.25"
     inkscape:showpageshadow="2"
     inkscape:pageopacity="0.0"
     inkscape:pagecheckerboard="0"
     inkscape:deskcolor="#d1d1d1"
     inkscape:zoom="8.2643105"
     inkscape:cx="20.146871"
     inkscape:cy="34.425134"
     inkscape:window-width="1920"
     inkscape:window-height="998"
     inkscape:window-x="0"
     inkscape:window-y="0"
     inkscape:window-maximized="1"
     inkscape:current-layer="svg4" />
  <rect
     style="opacity:0.2;stroke-width:0.948712"
     width="55"
     height="55.050846"
     x="3.5"
     y="3.9491525"
     rx="16.500004"
     ry="16.515257"
     id="rect1" />
  <rect
     style="fill:url(#linearGradient5);stroke-width:0.948712"
     width="55"
     height="55.050846"
     x="3.5"
     y="3"
     rx="16.500004"
     ry="16.515257"
     id="rect2" />
  <path
     style="opacity:0.1;fill:#ffffff;stroke-width:0.948712"
     d="M 19.998518,3 C 10.857511,3 3.5,10.364313 3.5,19.51377 v 0.949151 C 3.5,11.313473 10.857511,3.9491529 19.998518,3.9491529 h 22.002961 c 9.140995,0 16.498516,7.3643211 16.498516,16.5137681 V 19.51377 C 58.499995,10.364313 51.142474,3 42.001479,3 Z"
     id="path4" />
  <g
     id="g1"
     transform="translate(0.843332,-56.120491)">
    <g
       id="g6579"
       style="opacity:0.88044"
       transform="matrix(0.41821103,0,0,0.41844285,3.386663,58.6316)">
      <path
         id="path6459"
         style="fill:#741401;fill-opacity:0.0407297;stroke-width:2;stroke-linecap:round;stroke-linejoin:round"
         d="m 21.106759,32.020645 c -3.696083,0 -6.671875,2.973839 -6.671875,6.669922 v 17.316406 c 0,3.696083 2.975792,6.671875 6.671875,6.671875 h 37.529297 c 3.696083,0 6.671875,-2.975792 6.671875,-6.671875 V 38.690567 c 0,-3.696083 -2.975792,-6.669922 -6.671875,-6.669922 z m 60.550781,0 c -3.696083,0 -6.671875,2.973839 -6.671875,6.669922 v 17.316406 c 0,3.696083 2.975792,6.671875 6.671875,6.671875 h 24.73242 c 3.69609,0 6.67188,-2.975792 6.67188,-6.671875 V 38.690567 c 0,-3.696083 -2.97579,-6.669922 -6.67188,-6.669922 z M 21.106759,72.337051 c -3.696083,0 -6.671875,2.975792 -6.671875,6.671875 v 17.314453 c 0,3.696091 2.975792,6.671871 6.671875,6.671871 h 13.882812 c 3.696083,0 6.669922,-2.97578 6.669922,-6.671871 V 79.008926 c 0,-3.696083 -2.973839,-6.671875 -6.669922,-6.671875 z m 36.800781,0 c -3.696083,0 -6.671875,2.975792 -6.671875,6.671875 v 17.314453 c 0,3.696091 2.975792,6.671871 6.671875,6.671871 h 48.48242 c 3.69609,0 6.67188,-2.97578 6.67188,-6.671871 V 79.008926 c 0,-3.696083 -2.97579,-6.671875 -6.67188,-6.671875 z" />
      <path
         id="path6569"
         style="fill:#741401;fill-opacity:0.0407297;stroke-width:2;stroke-linecap:round;stroke-linejoin:round"
         d="m 22.331565,33.207035 c -3.696083,0 -6.671875,2.973839 -6.671875,6.669922 v 17.316406 c 0,3.696083 2.975792,6.671875 6.671875,6.671875 h 37.529297 c 3.696083,0 6.671875,-2.975792 6.671875,-6.671875 V 39.876957 c 0,-3.696083 -2.975792,-6.669922 -6.671875,-6.669922 z m 60.550781,0 c -3.696083,0 -6.671875,2.973839 -6.671875,6.669922 v 17.316406 c 0,3.696083 2.975792,6.671875 6.671875,6.671875 h 24.732424 c 3.69609,0 6.67188,-2.975792 6.67188,-6.671875 V 39.876957 c 0,-3.696083 -2.97579,-6.669922 -6.67188,-6.669922 z M 22.331565,73.523441 c -3.696083,0 -6.671875,2.975792 -6.671875,6.671875 v 17.314453 c 0,3.696091 2.975792,6.671871 6.671875,6.671871 h 13.882812 c 3.696083,0 6.669922,-2.97578 6.669922,-6.671871 V 80.195316 c 0,-3.696083 -2.973839,-6.671875 -6.669922,-6.671875 z m 36.800781,0 c -3.696083,0 -6.671875,2.975792 -6.671875,6.671875 v 17.314453 c 0,3.696091 2.975792,6.671871 6.671875,6.671871 h 48.482424 c 3.69609,0 6.67188,-2.97578 6.67188,-6.671871 V 80.195316 c 0,-3.696083 -2.97579,-6.671875 -6.67188,-6.671875 z" />
      <path
         id="path6571"
         style="fill:#741401;fill-opacity:0.0407297;stroke-width:2;stroke-linecap:round;stroke-linejoin:round"
         d="m 22.836563,34.630822 c -3.696083,0 -6.671875,2.973839 -6.671875,6.669922 V 58.61715 c 0,3.696083 2.975792,6.671875 6.671875,6.671875 H 60.36586 c 3.696083,0 6.671875,-2.975792 6.671875,-6.671875 V 41.300744 c 0,-3.696083 -2.975792,-6.669922 -6.671875,-6.669922 z m 60.550781,0 c -3.696083,0 -6.671875,2.973839 -6.671875,6.669922 V 58.61715 c 0,3.696083 2.975792,6.671875 6.671875,6.671875 h 24.732426 c 3.69609,0 6.67188,-2.975792 6.67188,-6.671875 V 41.300744 c 0,-3.696083 -2.97579,-6.669922 -6.67188,-6.669922 z M 22.836563,74.947228 c -3.696083,0 -6.671875,2.975792 -6.671875,6.671875 v 17.314453 c 0,3.696094 2.975792,6.671874 6.671875,6.671874 h 13.882812 c 3.696083,0 6.669922,-2.97578 6.669922,-6.671874 V 81.619103 c 0,-3.696083 -2.973839,-6.671875 -6.669922,-6.671875 z m 36.800781,0 c -3.696083,0 -6.671875,2.975792 -6.671875,6.671875 v 17.314453 c 0,3.696094 2.975792,6.671874 6.671875,6.671874 h 48.482426 c 3.69609,0 6.67188,-2.97578 6.67188,-6.671874 V 81.619103 c 0,-3.696083 -2.97579,-6.671875 -6.67188,-6.671875 z" />
      <path
         id="path6573"
         style="fill:#741401;fill-opacity:0.0407297;stroke-width:2;stroke-linecap:round;stroke-linejoin:round"
         d="m 23.46512,36.540414 c -3.696083,0 -6.671875,2.973839 -6.671875,6.669922 v 17.316406 c 0,3.696083 2.975792,6.671875 6.671875,6.671875 h 37.529297 c 3.696083,0 6.671875,-2.975792 6.671875,-6.671875 V 43.210336 c 0,-3.696083 -2.975792,-6.669922 -6.671875,-6.669922 z m 60.550781,0 c -3.696083,0 -6.671875,2.973839 -6.671875,6.669922 v 17.316406 c 0,3.696083 2.975792,6.671875 6.671875,6.671875 h 24.732429 c 3.69609,0 6.67188,-2.975792 6.67188,-6.671875 V 43.210336 c 0,-3.696083 -2.97579,-6.669922 -6.67188,-6.669922 z M 23.46512,76.85682 c -3.696083,0 -6.671875,2.975792 -6.671875,6.671875 v 17.314455 c 0,3.69609 2.975792,6.67187 6.671875,6.67187 h 13.882812 c 3.696083,0 6.669922,-2.97578 6.669922,-6.67187 V 83.528695 c 0,-3.696083 -2.973839,-6.671875 -6.669922,-6.671875 z m 36.800781,0 c -3.696083,0 -6.671875,2.975792 -6.671875,6.671875 v 17.314455 c 0,3.69609 2.975792,6.67187 6.671875,6.67187 h 48.482429 c 3.69609,0 6.67188,-2.97578 6.67188,-6.67187 V 83.528695 c 0,-3.696083 -2.97579,-6.671875 -6.67188,-6.671875 z" />
    </g>
    <path
       id="rect1067"
       style="fill:url(#linearGradient4447);fill-opacity:1;stroke-width:0.836596;stroke-linecap:round;stroke-linejoin:round"
       d="m 11.94692,71.620491 c -1.545745,0 -2.790252,1.24438 -2.790252,2.790982 v 7.245925 c 0,1.546603 1.244507,2.791792 2.790252,2.791792 h 15.695166 c 1.545739,0 2.79025,-1.245189 2.79025,-2.791792 v -7.245925 c 0,-1.546602 -1.244511,-2.790982 -2.79025,-2.790982 z m 25.322995,0 c -1.545735,0 -2.790246,1.24438 -2.790246,2.790982 v 7.245925 c 0,1.546603 1.244511,2.791792 2.790246,2.791792 h 10.34337 c 1.545745,0 2.790257,-1.245189 2.790257,-2.791792 v -7.245925 c 0,-1.546602 -1.244512,-2.790982 -2.790257,-2.790982 z M 11.94692,88.490603 c -1.545745,0 -2.790252,1.245196 -2.790252,2.7918 v 7.245134 c 0,1.546573 1.244507,2.791743 2.790252,2.791743 h 5.805945 c 1.545742,0 2.789435,-1.24517 2.789435,-2.791743 v -7.245134 c 0,-1.546604 -1.243693,-2.7918 -2.789435,-2.7918 z m 15.390491,0 c -1.545743,0 -2.79025,1.245196 -2.79025,2.7918 v 7.245134 c 0,1.546573 1.244507,2.791743 2.79025,2.791743 h 20.275874 c 1.545745,0 2.790257,-1.24517 2.790257,-2.791743 v -7.245134 c 0,-1.546604 -1.244512,-2.7918 -2.790257,-2.7918 z" />
  </g>
</svg>
