<?xml version="1.0" encoding="UTF-8" standalone="no"?>
<svg
   id="svg20"
   width="62"
   height="62"
   version="1.1"
   sodipodi:docname="gnome-connections.svg"
   inkscape:version="1.4.2 (unknown)"
   xmlns:inkscape="http://www.inkscape.org/namespaces/inkscape"
   xmlns:sodipodi="http://sodipodi.sourceforge.net/DTD/sodipodi-0.dtd"
   xmlns="http://www.w3.org/2000/svg"
   xmlns:svg="http://www.w3.org/2000/svg">
  <sodipodi:namedview
     id="namedview1"
     pagecolor="#ffffff"
     bordercolor="#000000"
     borderopacity="0.25"
     inkscape:showpageshadow="2"
     inkscape:pageopacity="0.0"
     inkscape:pagecheckerboard="0"
     inkscape:deskcolor="#d1d1d1"
     inkscape:zoom="4.2813106"
     inkscape:cx="45.897161"
     inkscape:cy="23.47412"
     inkscape:window-width="1920"
     inkscape:window-height="998"
     inkscape:window-x="0"
     inkscape:window-y="0"
     inkscape:window-maximized="1"
     inkscape:current-layer="svg20" />
  <defs
     id="defs8">
    <linearGradient
       id="c"
       x1="28.551001"
       x2="28.551001"
       y1="1052.4"
       y2="1004.4"
       gradientTransform="matrix(1.0183165,0,0,1.0183165,6.5600706,-1016.1798)"
       gradientUnits="userSpaceOnUse">
      <stop
         id="stop1"
         stop-color="#bfe1f9"
         offset="0" />
      <stop
         id="stop2"
         stop-color="#f6fbfe"
         offset="1" />
    </linearGradient>
    <linearGradient
       id="b"
       x1="28.77"
       x2="28.77"
       y1="47.028999"
       y2="0.88200003"
       gradientTransform="matrix(1.0674552,0,0,1.0674552,5.3800222,5.3913713)"
       gradientUnits="userSpaceOnUse">
      <stop
         id="stop3"
         stop-color="#fff"
         stop-opacity=".498"
         offset="0" />
      <stop
         id="stop4"
         stop-color="#fff"
         stop-opacity="0"
         offset="1" />
    </linearGradient>
    <linearGradient
       id="a"
       x1="7.9369998"
       x2="7.9369998"
       y1="15.081"
       y2="1.852"
       gradientTransform="matrix(3.2989006,0,0,3.2989006,3.0688016,3.0958615)"
       gradientUnits="userSpaceOnUse">
      <stop
         id="stop5"
         stop-color="#1560ff"
         offset="0" />
      <stop
         id="stop6"
         stop-color="#15afff"
         offset="1" />
    </linearGradient>
    <linearGradient
       id="d"
       x1="45"
       x2="45"
       y1="36"
       y2="2"
       gradientTransform="matrix(0.99997,0,0,1.1212,48.343,-5.897)"
       gradientUnits="userSpaceOnUse">
      <stop
         id="stop7"
         stop-color="#2c2b31"
         offset="0" />
      <stop
         id="stop8"
         stop-color="#403b54"
         offset="1" />
    </linearGradient>
    <filter
       id="e"
       x="-0.15539029"
       y="-0.13992276"
       width="1.3107806"
       height="1.2798455"
       color-interpolation-filters="sRGB">
      <feGaussianBlur
         id="feGaussianBlur8"
         stdDeviation="1.036" />
    </filter>
  </defs>
  <linearGradient
     id="f"
     x1="86"
     x2="109.45"
     y1="25.688"
     y2="24.833"
     gradientTransform="matrix(0.5,0,0,0.5,0.42935,0)"
     gradientUnits="userSpaceOnUse">
    <stop
       id="stop9"
       stop-color="#787878"
       offset="0" />
    <stop
       id="stop10"
       stop-color="#787878"
       stop-opacity="0"
       offset="1" />
  </linearGradient>
  <rect
     id="rect10"
     x="3"
     y="3"
     width="56"
     height="56"
     rx="13.001485"
     ry="13.001485"
     fill="url(#a)"
     stroke-width="0.999889"
     style="fill:url(#a)" />
  <path
     id="path10"
     d="M 15.999586,3.0310007 V 6.4058359 H 11.374794 V 3.8559005 c -0.09699,0.035998 -0.195991,0.067997 -0.290989,0.1069987 V 6.4058286 H 7.2319748 C 7.1259801,6.502825 7.0149837,6.5958227 6.9119914,6.6968156 H 11.083796 V 11.280591 H 6.5000223 V 7.1287741 Q 6.3520258,7.2867711 6.2090333,7.4487578 V 11.2806 H 3.8910916 q -0.062997,0.164998 -0.1219937,0.333984 H 6.208972 V 16.19635 H 3.0001458 v 0.292992 H 6.208972 V 21.07312 H 3.0001458 v 0.290985 H 6.208972 v 4.581761 H 3.0001458 v 0.333993 H 6.208972 v 4.583776 H 3.0001458 v 0.290989 H 6.208972 V 35.7384 H 3.0001458 v 0.331984 H 6.208972 v 4.583765 H 3.0001458 v 0.290999 H 6.208972 v 4.583766 H 3.0001458 v 0.290992 H 6.208972 v 4.624791 H 3.7910929 q 0.051998,0.147002 0.1069987,0.292994 h 2.3099106 v 3.809852 q 0.1439984,0.163989 0.2919836,0.319971 v -4.129813 h 4.5837762 v 4.581762 H 6.9339515 c 0.1039961,0.100999 0.2139894,0.194991 0.3219819,0.292991 h 3.8278286 v 2.423902 c 0.09499,0.03793 0.194996,0.06909 0.289985,0.104998 v -2.529857 h 4.625839 v 3.387838 h 0.290997 v -3.386881 h 4.583775 v 3.386881 h 0.289986 v -3.386881 h 4.584814 v 3.386881 h 0.333989 v -3.386881 h 4.581762 v 3.386881 h 0.292989 v -3.386881 h 4.581764 v 3.386881 h 0.292991 v -3.386881 h 4.624807 v 3.386881 h 0.289981 v -3.386881 h 4.584828 v 3.386881 h 0.289981 v -3.386881 h 4.584826 v 2.681905 q 0.167991,-0.059 0.331982,-0.121987 v -2.559893 h 4.204793 c 0.107987,-0.09799 0.219987,-0.19199 0.323994,-0.292992 h -4.529834 v -4.581763 h 4.584818 v 4.530794 c 0.100002,-0.09801 0.193994,-0.202985 0.29099,-0.304985 v -4.22479 h 2.686882 q 0.056,-0.145991 0.107991,-0.292992 h -2.794845 v -4.626788 h 3.583871 v -0.290001 h -3.583871 v -4.58376 h 3.583871 V 40.6542 h -3.583871 v -4.584809 h 3.583871 v -0.331999 h -3.583871 v -4.583763 h 3.583871 v -0.291 h -3.583871 v -4.582805 h 3.583871 V 25.945831 H 55.413847 V 21.36407 h 3.583871 v -0.290984 h -3.583871 v -4.583784 h 3.583871 V 16.196317 H 55.413847 V 11.61455 h 2.815873 q -0.05899,-0.168996 -0.119984,-0.333984 H 55.413867 V 7.032738 c -0.097,-0.1019982 -0.189998,-0.2059946 -0.291,-0.3049891 V 11.280539 H 50.539103 V 6.6967634 h 4.549816 C 54.985929,6.5957709 54.873929,6.5027715 54.766938,6.4057763 H 50.539103 V 3.8238943 Q 50.37511,3.760897 50.20712,3.7028956 V 6.4057491 H 45.623341 V 3.0309135 h -0.29099 V 6.4057491 H 40.748578 V 3.0309135 H 40.45758 V 6.4057491 H 35.832789 V 3.0309135 H 35.539795 V 6.4057491 H 30.958034 V 3.0309135 H 30.66504 V 6.4057491 H 26.08328 V 3.0309135 H 25.749291 V 6.4057491 H 21.165524 V 3.0309135 H 20.874527 V 6.4057491 H 16.29076 V 3.0309135 Z m -4.624792,3.665833 h 4.624792 v 4.5837753 h -4.624792 z m 4.915799,0 h 4.583766 v 4.5837753 h -4.583766 z m 4.874769,0 h 4.583783 v 4.5837753 h -4.583783 z m 4.917804,0 h 4.581761 v 4.5837753 h -4.581761 z m 4.874767,0 h 4.581763 v 4.5837753 h -4.581763 z m 4.874775,0 h 4.624807 v 4.5837753 h -4.624807 z m 4.915796,0 h 4.583785 v 4.5837753 h -4.583785 z m 4.874774,0 h 4.583779 V 11.280609 H 45.623278 Z M 6.5001084,11.614636 h 4.5837756 v 4.581769 H 6.5001084 Z m 4.8747736,0 h 4.624792 v 4.581769 h -4.624792 z m 4.915801,0 h 4.583764 v 4.581769 h -4.583764 z m 4.874773,0 h 4.58376 v 4.581769 h -4.58376 z m 4.917798,0 h 4.581762 v 4.581769 h -4.581762 z m 4.87477,0 h 4.581761 v 4.581769 h -4.581761 z m 4.874775,0 h 4.624791 v 4.581769 h -4.624791 z m 4.915797,0 h 4.583763 v 4.581769 h -4.583763 z m 4.874771,0 h 4.583778 v 4.581769 h -4.583778 z m 4.915799,0 h 4.583763 v 4.581769 H 50.539166 Z M 6.5002834,16.489411 h 4.5837756 v 4.583765 H 6.5002834 Z m 4.8747716,0 h 4.6248 v 4.583765 h -4.6248 z m 4.915792,0 h 4.58378 v 4.583765 h -4.58378 z m 4.874768,0 h 4.583786 v 4.583765 h -4.583786 z m 4.917816,0 h 4.581765 v 4.583765 h -4.581765 z m 4.874774,0 h 4.581766 v 4.583765 h -4.581766 z m 4.874771,0 h 4.624789 v 4.583765 h -4.624789 z m 4.915783,0 h 4.583781 v 4.583765 h -4.583781 z m 4.874788,0 h 4.583764 v 4.583765 h -4.583764 z m 4.915779,0 h 4.583785 v 4.583765 H 50.539326 Z M 6.5004583,21.364185 H 11.084234 V 25.94595 H 6.5004583 Z m 4.8747717,0 h 4.624804 V 25.94595 H 11.37523 Z m 4.915793,0 h 4.583785 v 4.581765 h -4.583785 z m 4.874777,0 h 4.583776 V 25.94595 H 21.1658 Z m 4.917796,0 h 4.581781 v 4.581765 h -4.581781 z m 4.874772,0 h 4.581778 v 4.581765 h -4.581778 z m 4.87477,0 h 4.624811 v 4.581765 h -4.624811 z m 4.9158,0 h 4.583779 v 4.581765 h -4.583779 z m 4.87477,0 h 4.583784 v 4.581765 h -4.583784 z m 4.915802,0 h 4.583776 V 25.94595 H 50.53951 Z m -44.038877,4.9158 h 4.583776 v 4.58376 H 6.500633 Z m 4.874772,0 h 4.624793 v 4.58376 h -4.624793 z m 4.915802,0 h 4.583759 v 4.58376 h -4.583759 z m 4.874769,0 h 4.583765 v 4.58376 h -4.583765 z m 4.917802,0 h 4.581762 v 4.58376 h -4.581762 z m 4.874769,0 h 4.581763 v 4.58376 h -4.581763 z m 4.874775,0 h 4.624793 v 4.58376 h -4.624793 z m 4.915795,0 h 4.583784 v 4.58376 h -4.583784 z m 4.874774,0 h 4.583777 v 4.58376 h -4.583777 z m 4.915795,0 h 4.583766 v 4.58376 h -4.583766 z m -44.0388783,4.87477 h 4.5837743 v 4.583764 H 6.5008077 Z m 4.8747713,0 h 4.624795 v 4.583764 h -4.624795 z m 4.915788,0 h 4.583784 v 4.583764 h -4.583784 z m 4.874773,0 h 4.58378 v 4.583764 h -4.58378 z m 4.917815,0 h 4.581764 v 4.583764 h -4.581764 z m 4.874776,0 h 4.581763 v 4.583764 h -4.581763 z m 4.874768,0 h 4.62479 v 4.583764 h -4.62479 z m 4.9158,0 h 4.583759 v 4.583764 h -4.583759 z m 4.87477,0 h 4.583764 v 4.583764 h -4.583764 z m 4.915781,0 h 4.583784 v 4.583764 H 50.53985 Z M 6.500981,36.070536 h 4.583775 v 4.583778 H 6.500981 Z m 4.874773,0 h 4.624803 v 4.583778 h -4.624803 z m 4.915793,0 h 4.583779 v 4.583778 h -4.583779 z m 4.874772,0 h 4.583782 v 4.583778 h -4.583782 z m 4.9178,0 H 30.6659 v 4.583778 h -4.581781 z m 4.874769,0 h 4.581783 v 4.583778 h -4.581783 z m 4.874774,0 h 4.624805 v 4.583778 h -4.624805 z m 4.915795,0 h 4.583784 v 4.583778 h -4.583784 z m 4.874775,0 h 4.583779 v 4.583778 h -4.583779 z m 4.915802,0 h 4.583776 v 4.583778 H 50.540034 Z M 6.5011556,40.945314 h 4.5837754 v 4.583774 H 6.5011556 Z m 4.8747734,0 h 4.624793 v 4.583774 h -4.624793 z m 4.915796,0 h 4.583765 v 4.583774 h -4.583765 z m 4.874773,0 h 4.583778 v 4.583774 h -4.583778 z m 4.917799,0 h 4.581762 v 4.583774 h -4.581762 z m 4.874773,0 h 4.581763 v 4.583774 H 30.95907 Z m 4.87477,0 h 4.624812 v 4.583774 H 35.83384 Z m 4.915801,0 h 4.583781 v 4.583774 h -4.583781 z m 4.874771,0 h 4.583781 v 4.583774 h -4.583781 z m 4.915798,0 h 4.583766 v 4.583774 H 50.54021 Z M 6.50133,45.820098 h 4.583776 v 4.62479 H 6.50133 Z m 4.874774,0 h 4.624794 v 4.62479 h -4.624794 z m 4.915787,0 h 4.583783 v 4.62479 h -4.583783 z m 4.874788,0 h 4.583764 v 4.62479 h -4.583764 z m 4.917799,0 h 4.581764 v 4.62479 h -4.581764 z m 4.874772,0 h 4.581762 v 4.62479 H 30.95925 Z m 4.874773,0 h 4.62479 v 4.62479 h -4.62479 z m 4.915799,0 h 4.583761 v 4.62479 h -4.583761 z m 4.874772,0 h 4.583762 v 4.62479 h -4.583762 z m 4.915781,0 h 4.583778 v 4.62479 H 50.540375 Z M 11.37619,50.737896 h 4.624797 V 55.31966 H 11.37619 Z m 4.915789,0 h 4.583785 v 4.581764 h -4.583785 z m 4.874773,0 h 4.58378 v 4.581764 h -4.58378 z m 4.917815,0 h 4.581766 v 4.581764 h -4.581766 z m 4.874775,0 h 4.581766 v 4.581764 h -4.581766 z m 4.874769,0 h 4.624792 v 4.581764 h -4.624792 z m 4.915784,0 h 4.583775 v 4.581764 h -4.583775 z m 4.874777,0 h 4.583775 v 4.581764 h -4.583775 z"
     fill="url(#b)"
     opacity="0.385"
     stroke-width="0.999889"
     style="fill:url(#b)" />
  <path
     id="path11"
     d="m 16.675151,3.0310007 c 0.190988,0.1399913 0.434983,0.083997 0.679971,0 z m 1.727928,0 c 0.164991,0.098 0.315973,0.2239912 0.414962,0.3299861 0.162,0.1739961 0.220998,0.5149797 0.419998,0.6289696 0.130991,0.079996 0.359982,0.059999 0.520966,0.1019978 0.510991,0.1549948 0.935928,0.4329785 1.495926,0.3139873 0.191996,-0.3369859 -0.393989,-0.4329787 -0.171999,-0.6969712 0.374983,0.027999 0.615975,0.1939925 0.903982,0.3099898 0.403971,-0.293991 0.676971,-0.3249847 0.662971,-0.7989682 a 0.35998484,0.35998484 0 0 0 -0.06905,-0.1889912 h -4.176868 z m -3.747888,0.036999 c -0.883983,0.089996 -1.741967,0.2699887 -2.563899,0.526981 0.428983,0.4849812 1.075916,-0.3059836 1.532924,-0.301986 0.448974,0 0.901983,0.6349746 1.185983,0.028998 A 0.79996331,0.79996331 0 0 0 14.655204,3.0680029 m -1.518952,0.7969696 a 0.52997482,0.52997482 0 0 0 -0.276998,0.058997 c -0.136995,0.084997 -0.150995,0.2119903 -0.138998,0.2769884 0.07503,0.3699869 0.772968,0.059999 0.765976,-0.1369965 -0.0051,-0.1149939 -0.174998,-0.1869927 -0.347989,-0.1949964 z m 37.97715,0.1739962 c -0.353995,0.1329911 -0.712973,0.2679893 -0.901967,0.5939779 -0.07407,0.3939816 0.09602,0.6899707 0.137985,0.9739777 0.03009,0.1959911 -0.028,0.3719856 0.0369,0.5589782 0.114996,0.3259892 0.574982,0.663969 1.009939,0.663969 0.66197,0 1.176901,-0.8339668 1.706971,-0.7329654 0.259985,0.055005 0.287985,0.4599835 0.417978,0.6959672 0.119995,0.2159873 0.671977,0.5819781 0.593984,0.9409851 -0.06304,0.2879854 -0.72297,0.3859854 -1.046948,0.3829834 -0.028,-0.3149909 0.04607,-0.8299615 -0.208983,-1.0099381 -0.52698,0.2499928 -0.896999,0.1779943 -1.042928,0.5919801 -0.184999,0.5239795 0.31699,0.9059847 0.241992,1.3929301 -0.07903,0.5109821 -1.135982,0.3339838 -1.602934,0.4199821 -0.349984,0.064997 -0.477975,0.489981 -0.765966,0.834963 -0.199985,0.239989 -0.575972,0.499977 -0.872985,0.626971 -0.14499,0.068 -0.31798,0.05799 -0.450992,0.142993 -0.195992,0.125993 -0.263984,0.443985 -0.485973,0.59398 -0.15999,0.102992 -0.772971,0.413985 -0.941943,0.417984 -0.197987,0 -0.382982,-0.184995 -0.524982,-0.142995 -0.209991,0.07097 -0.179992,0.474977 -0.415992,0.558977 -0.46198,0.162993 -1.233983,-0.409979 -1.394935,0.27699 0.197999,0.398983 0.699971,0.303982 1.044935,0.522969 0.218,0.136005 0.674982,0.742981 0.732971,0.976953 0.04794,0.196988 -0.02503,0.974934 -0.105989,1.183981 -0.21499,0.555971 -0.717972,0.36398 -1.356974,0.34998 -0.174995,0 -0.361988,0.0479 -0.523974,0.02695 -1.078985,-0.07903 -2.159877,-0.453979 -2.647868,0.313993 0.04003,0.590969 0.162991,0.985925 0.03297,1.499926 -0.09602,0.37798 -0.432985,0.717973 -0.415981,1.044934 0.0082,0.167991 0.203993,0.328 0.243979,0.55699 0.02095,0.118994 -0.056,0.377985 0,0.487974 0.17699,0.342993 0.659979,0.05704 0.974936,0.100011 0.307983,0.04999 0.666973,0.494972 0.663977,0.83996 -0.0029,0.239982 -0.234994,0.636967 -0.386982,0.867965 -0.303991,0.461982 -0.712966,0.485984 -1.147934,0.732967 -0.363982,0.205988 -0.517982,0.547988 -0.729967,0.905977 -0.230994,0.386982 -0.376994,0.62298 -0.281987,1.183986 -0.310986,0.617965 -0.779976,0.996932 -1.425925,1.289942 -0.19,0.08691 -0.453978,0.11299 -0.628972,0.244982 -0.139001,0.09801 -0.217999,0.366992 -0.415981,0.58998 -0.242991,0.272982 -0.499975,0.383984 -0.628971,0.590965 -0.09897,0.161999 -0.134992,0.481991 -0.243983,0.697984 -0.147999,0.291973 -0.465982,0.435971 -0.661973,0.73197 -0.09,0.138999 -0.142999,0.41198 -0.241988,0.591982 -0.219993,0.399974 -0.599984,0.693954 -0.558983,1.046935 0.04002,0.340983 0.426984,0.399994 0.452982,0.696973 0.01598,0.167994 -0.111991,0.269982 -0.104994,0.452989 0.01001,0.266985 0.189983,0.454973 0.210995,0.659967 0.05305,0.51798 -0.183998,0.726972 -0.280988,1.079945 -0.04712,0.169979 -0.02508,0.356969 -0.06906,0.488964 -0.08504,0.258 -0.445992,0.49599 -0.452981,0.80298 -0.0041,0.21798 0.225982,0.390972 0.24398,0.696966 0.01307,0.20999 -0.106998,0.43097 -0.07003,0.62497 0.07407,0.379972 0.749969,0.821966 1.044934,1.116935 0.393986,0.393991 0.91,0.699979 1.079944,1.114942 0.143998,0.352985 0.145993,0.813968 0.419985,1.079943 0.202982,0.194991 0.539972,0.318982 0.799953,0.523968 0.242993,0.188011 0.506982,0.353992 0.76597,0.555987 0.424987,0.331988 1.068943,0.990996 1.743885,0.939933 0.352992,-0.01807 0.712973,-0.31199 1.113981,-0.382982 a 5.6997604,5.6997604 0 0 1 1.35994,-0.07198 c 0.317987,0.03009 0.64297,0.222977 0.973975,0.206988 0.348985,-0.01403 0.752975,-0.279992 1.149941,-0.452982 0.686962,-0.299991 1.714909,-0.701984 2.718915,-0.554981 0.764969,0.106002 0.72596,0.986973 1.255982,1.321962 0.614972,0.056 1.114938,-0.223992 1.600918,-0.09999 0.367983,0.092 0.800971,0.650961 0.835964,0.941942 0.0369,0.302993 -0.164992,0.752966 -0.208985,0.939927 -0.09602,0.405984 -0.100001,0.889929 -0.172994,1.147932 -0.05704,0.199987 -0.212986,0.325987 -0.209991,0.524986 0.0041,0.182992 0.232989,0.629974 0.419983,0.869957 0.229997,0.29299 0.591977,0.518991 0.86997,0.836972 0.50997,0.582971 0.726969,1.287926 1.079934,2.056881 0.127992,0.278992 0.375981,0.715964 0.382984,1.009928 0.0029,0.216999 -0.123995,0.406997 -0.104,0.626981 0.04397,0.466981 0.33598,0.668965 0.384988,1.079928 0.113991,0.967963 -0.76597,1.25791 -0.943956,2.053924 -0.04199,0.189983 0.0052,0.388975 -0.03505,0.559974 -0.05992,0.257983 -0.239991,0.451976 -0.276988,0.695963 -0.03792,0.249983 -0.09395,0.721972 -0.06999,0.974935 0.02504,0.266986 0.225989,0.514976 0.415988,0.757966 A 12.959592,12.959592 0 0 0 58.997054,46.037261 V 22.876179 a 0.64996967,0.64996967 0 0 0 -0.213992,0.366979 c -0.06592,0.392993 0.199992,0.943954 -0.382982,1.011939 -0.369979,0.04398 -0.747965,-0.378984 -1.255981,-0.488963 -0.206983,-0.04607 -0.49798,-0.01494 -0.659971,-0.07799 -0.379982,-0.130994 -0.334984,-0.499976 -0.661965,-0.729983 a 2.8998488,2.8998488 0 0 0 -0.97597,-0.349987 c -0.187,-0.01493 -0.361986,0.06407 -0.55998,0.03096 -0.232984,-0.01992 -0.566968,-0.190992 -0.764971,-0.311991 -0.188987,-0.109985 -0.575967,-0.287988 -0.624969,-0.452981 -0.07407,-0.25699 0.467984,-0.550972 0.48698,-0.769965 0.01203,-0.163992 -0.203998,-0.267985 -0.243985,-0.520982 -0.02408,-0.154992 0.06403,-0.313982 0.03505,-0.415981 -0.05104,-0.179986 -0.346984,-0.379973 -0.626964,-0.384973 -0.248998,0 -0.484984,0.20198 -0.697982,0.208976 -0.305991,0.01402 -0.805971,-0.167993 -1.184937,-0.139993 -0.231997,0.01306 -0.44599,0.153993 -0.661971,0.170999 -0.606975,0.04999 -1.098966,-0.02199 -1.568971,0 -0.341994,0.01598 -0.932955,0.134 -1.251981,0.28098 -0.160986,0.07904 -0.280984,0.244 -0.48998,0.347993 -0.09395,0.04398 -0.222976,0.04398 -0.346986,0.101997 -0.197982,0.09 -0.403989,0.299985 -0.59198,0.346985 -0.272981,0.07197 -0.692962,-0.05809 -1.185982,-0.02904 -0.35299,0.01401 -0.934002,0.01492 -0.939944,-0.417993 -0.0082,-0.643974 1.096971,-0.409972 1.705927,-0.522971 0.229981,-0.04108 0.353987,-0.255992 0.628971,-0.417974 0.130991,-0.0819 0.294983,-0.09 0.417989,-0.174008 0.209993,-0.147982 0.526983,-0.492966 0.557965,-0.659965 0.028,-0.155993 -0.08794,-0.373981 -0.07002,-0.488981 0.02408,-0.14999 0.193998,-0.300987 0.382982,-0.487983 0.29399,-0.28999 0.615974,-0.679964 0.975989,-0.870963 0.246982,-0.125002 0.581974,-0.114999 0.695975,-0.313991 0.025,-0.223991 -0.04002,-0.353981 -0.03505,-0.556982 0.149989,-0.138997 0.255988,-0.249989 0.38198,-0.276983 0.37599,-0.084 0.748973,0.257985 1.18598,0.239983 0.188999,0 0.354983,-0.145991 0.557981,-0.277985 0.170994,-0.106996 0.354981,-0.192004 0.521983,-0.276992 0.183983,-0.09395 0.36799,-0.299987 0.59198,-0.313987 0.547976,-0.03009 0.761966,0.575966 1.010973,0.905982 0.208992,0.274991 0.806965,0.748974 1.14899,0.94099 0.192981,0.103994 0.451976,0.107004 0.663965,0.209993 0.451981,0.201981 1.341963,0.879962 1.356971,1.323972 0.0082,0.22099 -0.205992,0.386979 -0.171999,0.590972 0.342974,0.05992 0.721972,-0.317981 0.729964,-0.661972 0.0075,-0.21399 -0.213984,-0.329981 -0.172991,-0.555973 0.160006,-0.345982 0.630986,0 0.837973,-0.140991 -0.04003,-0.389992 -0.575976,-0.426992 -0.908002,-0.628972 -0.179976,-0.103985 -0.299975,-0.339984 -0.486966,-0.417985 -0.269984,-0.104992 -0.554967,-0.08109 -0.764967,-0.241981 -0.19699,-0.152994 -0.295986,-0.501975 -0.489981,-0.732975 -0.282988,-0.336982 -0.902936,-0.389974 -0.732965,-1.149928 0.07407,-0.09801 0.239985,-0.249998 0.366986,-0.254 v 0.01402 h 0.05305 c 0.258987,0.06698 0.226986,0.285999 0.417977,0.419985 0.138999,0.09396 0.329991,0.08108 0.48599,0.175996 0.182988,0.109002 0.281983,0.415982 0.488963,0.589983 0.292,0.244981 0.808972,0.432972 1.219947,0.627963 0.385987,0.183998 1.004954,0.433981 1.079927,0.765972 0.04292,0.18799 -0.05992,0.395971 -0.03505,0.557972 0.03098,0.206991 0.179997,0.419984 0.279991,0.556983 0.142997,0.197992 0.315987,0.389981 0.491981,0.587973 v -2.77482 A 12.969199,12.969199 0 0 0 56.788141,8.727841 c -0.532988,0.073005 -1.042935,0.499976 -1.559908,0.4849809 -0.259982,0 -0.525977,-0.3189884 -0.939929,-0.3149907 -0.211998,0 -0.373981,0.1559896 -0.592976,0.1759943 -0.275996,0.022006 -0.716967,-0.091999 -0.696976,-0.3149907 0.03008,-0.3429825 0.499971,-0.06199 0.766976,-0.1009936 0.336983,-0.062996 0.259977,-0.3399889 0.488966,-0.3829838 0.153013,-0.026004 0.293003,0.1239938 0.523002,0.1019985 0.247989,-0.022999 0.466984,-0.3899838 0.694967,-0.4889787 0.219997,-0.094994 0.417981,-0.1169923 0.569977,-0.1599956 a 12.99974,12.99974 0 0 0 -4.928804,-3.689803 z m -35.396236,0.022999 c -0.469979,0.1019979 -0.450989,0.8369632 -0.905977,0.9769448 0.06095,0.3399892 -0.399994,0.5669728 -0.450993,0.8359672 -0.03505,0.1809965 0.05704,0.3919818 0.06803,0.5559764 0.104974,1.6669066 -1.269979,2.4519175 -2.892892,2.406881 -0.317991,0.3039841 -0.243995,0.8689675 -0.417982,1.2869693 -0.145997,0.349981 -0.657973,0.726969 -1.009937,0.69697 -0.2589906,-0.017 -0.5569794,-0.384981 -0.5579742,-0.62697 0,-0.2979893 0.4339819,-0.4599837 0.1759947,-0.7999639 C 9.7624292,9.1627565 10.275411,9.0297566 10.211407,8.6617767 10.14641,8.2777894 9.6104291,8.4767823 9.1314693,8.4177893 8.7834859,8.3727904 8.3255021,8.1718024 8.016533,8.0018041 7.6085511,7.7758148 7.2575657,7.3338278 6.7255481,7.2668316 c -0.1289924,-0.013 -0.2489871,0.005 -0.3619835,0.013999 a 12.899363,12.899363 0 0 0 -3.004848,5.7247204 c 0.5299748,-0.187994 1.1269823,-0.540979 1.612966,-0.550973 v 0.01499 c 0.076993,0 0.1519925,0 0.2229873,0.01803 0.3149925,0.085 1.144963,0.994921 0.4499818,1.290991 -0.064997,0.02199 -1.0179668,0.136991 -1.1829292,0.09999 -0.2399906,-0.03504 -0.3829834,-0.372992 -0.6269713,-0.415991 -0.1859886,-0.034 -0.393981,0.04002 -0.6009784,0.114981 q -0.1949961,1.039965 -0.2199937,2.13292 c 0.034998,-0.05104 0.072997,-0.110001 0.088993,-0.130002 0.1389961,-0.169998 0.3239898,-0.322979 0.4879834,-0.51999 0.1599961,-0.192982 0.2639924,-0.452982 0.4179837,-0.55997 0.1679913,-0.108993 0.647971,-0.250974 0.9399366,-0.239983 0.095997,0 0.1739962,0.01992 0.2099907,0.07302 -0.046002,0.36999 -0.3399874,0.347982 -0.6269707,0.520974 -0.494983,0.299989 -0.782969,0.75497 -0.9409839,1.394935 -0.035998,0.147999 -0.343986,0.476982 -0.5899722,0.58598 v 9.766809 c 0.1999887,0.05992 0.4049873,0.114009 0.5899722,0.190001 0.3049886,-0.25199 0.040998,-0.713972 0,-1.077928 -0.018,-0.161 0.016998,-0.30599 0,-0.453992 C 3.5637122,25.010361 3.452719,24.77737 3.4517154,24.56338 c -0.005,-0.991964 0.797964,-1.455947 1.4629291,-1.847929 0.2879855,-0.169999 0.5179818,-0.46598 0.7679656,-0.590979 0.3529853,-0.176991 0.6119762,-0.218991 0.9039777,-0.382981 0.5279764,-0.296993 0.9819192,-0.534986 1.3949363,-0.870976 0.1899946,-0.449972 0.012007,-1.055925 0.034999,-1.499927 0.1899946,-0.114008 0.3559871,0.05704 0.5579746,0.02904 0.3189885,-0.07092 0.3409834,-0.515981 0.5219796,-0.694971 0.1039958,-0.09999 0.3929864,-0.176994 0.5229746,-0.279995 0.3179845,-0.247981 0.4199831,-0.620973 0.6979761,-0.727962 0.09899,-0.034 0.330988,-0.028 0.487983,-0.07799 0.206987,-0.05992 0.499975,-0.299986 0.835967,-0.415984 0.217997,-0.08007 0.718967,-0.09205 0.801973,-0.175999 0.102991,-0.09999 0,-0.39997 0.03399,-0.556972 0.168993,-0.785973 1.353903,-0.953992 2.053903,-1.21793 0.49099,-0.187989 0.99598,-0.524989 1.535908,-0.419979 -0.105998,0.373983 -0.610971,0.241989 -0.525982,0.696963 0.119999,0.629974 0.962977,-0.184988 1.185981,-0.276984 0.424977,-0.179995 1.149944,-0.288989 1.708898,-0.489978 0.488961,-0.178999 1.364899,-0.44999 0.90396,-1.009946 -0.384972,-0.01703 -0.569971,0.449992 -0.90396,0.592971 -0.231991,0.03009 -0.188006,-0.191989 -0.384991,-0.20999 -0.186993,-0.01493 -0.295984,0.174007 -0.487983,0.142 -0.191997,-0.03009 -0.458979,-0.333992 -0.488969,-0.558981 -0.07603,-0.580981 0.491968,-0.819974 0.732964,-1.253979 -0.16,-0.525978 -0.883999,-0.102992 -1.323983,-0.313987 0.042,-0.312984 0.36599,-0.531982 0.73197,-0.59198 0.299987,-0.05401 0.971964,-0.014 1.149937,0.139992 0.105002,0.08899 0.01401,0.30799 0.175993,0.453975 0.177991,0.160995 0.39499,0.144992 0.624974,0.100996 0.084,-0.395979 -0.517979,-0.294984 -0.452981,-0.557974 0.469978,-0.307991 1.235907,-0.06 1.812935,-0.139991 0.330987,-0.05299 0.681962,-0.285988 0.975979,-0.45198 0.279994,-0.157997 0.642975,-0.435981 0.939932,-0.175995 0.08007,0.284992 -0.259979,0.38198 -0.417976,0.523978 -0.53399,0.473985 -1.083962,1.017965 -1.497926,1.567928 0.253983,0.249 0.719963,0.119999 1.149928,0.173999 0.167992,0.01492 0.378985,0.07695 0.55699,0.100001 0.206981,0.03191 0.428979,0.02304 0.590963,0.07197 0.293994,0.07695 0.372984,0.386983 0.662976,0.386983 0.475979,-0.0011 0.479978,-0.517982 0.20999,-0.839964 0.08609,-0.32998 0.220006,-0.498979 0.104006,-0.728965 -0.214992,-0.429984 -1.003925,0 -1.044936,-0.557975 -0.02503,-0.348012 0.289983,-0.332013 0.415983,-0.592008 -0.057,-0.670991 0.554985,-0.72199 0.489989,-1.3239976 -0.027,-0.2520032 -0.24,-0.2529993 -0.417992,-0.4889907 C 23.15283,9.1009503 23.109837,8.8599576 22.99984,8.7669594 22.635859,8.4589668 21.89485,8.518965 21.849894,7.9309924 c -0.01698,-0.3469889 0.083,-0.6339726 0.035,-1.0109851 C 21.839885,6.5680256 21.599906,5.5940229 21.292921,5.5270785 20.903942,5.4400827 20.502954,6.1090549 20.036937,6.3300439 19.783957,6.4470364 19.420966,6.5840329 19.166965,6.537033 19.000986,6.5090337 18.667986,6.2650459 18.642997,5.9450622 18.614997,5.5790805 18.888986,5.5710769 18.956975,5.1790947 18.898984,4.9491079 18.661998,5.0030989 18.436016,4.8291115 18.180022,4.6351188 17.97403,4.2151368 17.633049,4.1681355 c -0.17,-0.016998 -0.389989,0.1239926 -0.558982,0.1379926 -0.517979,0.031 -0.962988,-0.3329882 -1.356971,-0.2439872 m 30.175045,2.1889393 c -0.178995,0.2319852 -0.495972,0.136998 -0.799973,0.2439871 -0.245972,0.087004 -0.702957,0.5129815 -0.765966,0.663969 -0.104991,0.2479944 0.02503,0.5229761 0,0.9039778 0.198004,0.087005 0.319993,0.4759818 0.659984,0.6619706 0.12799,0.075989 0.304979,0.037996 0.419982,0.1019982 0.198983,0.1059944 0.354983,0.3599836 0.313981,0.5589777 -0.05894,0.2859873 -0.43398,0.202991 -0.628972,0.4159856 0.034,0.4049868 -0.280984,0.4629758 -0.382981,0.7339688 0.06095,0.170995 0.31999,0.141991 0.34799,0.345985 -0.03897,0.221993 -0.43398,0.255989 -0.34799,0.489982 0.373979,0.289985 0.759973,-0.065 1.113981,-0.101998 0.779962,-0.09499 1.579965,0.096 2.057924,-0.278987 -0.06501,-0.371986 0.387982,-0.502979 0.347993,-0.835967 C 48.198083,9.9049384 47.782101,9.8749389 47.599123,9.7019465 47.501123,9.6099516 47.47512,9.3939556 47.35512,9.2139631 47.218129,9.0069755 46.949141,8.8599756 46.796157,8.658983 46.591168,8.3869957 46.171183,7.9930141 46.171183,7.7859904 c 0.0031,-0.2369869 0.294984,-0.3009903 0.347973,-0.6269707 -0.06,-0.2999869 -0.616973,-0.099999 -0.65996,-0.4199832 0.02303,-0.1969947 0.20698,-0.2309912 0.208988,-0.4509837 a 0.24999236,0.24999236 0 0 0 -0.121,-0.032998 h -0.05495 z M 43.609205,8.420992 v 0.01 c -0.179998,0 -0.358984,0.038989 -0.50398,0.1239924 -0.264993,0.1619947 -0.352001,0.4129819 -0.556995,0.4899819 -0.281981,0.1029928 -0.480981,0.013999 -0.522971,0.2779925 -0.03505,0.2139889 0.18,0.3199836 0.173989,0.520976 -0.102992,0.2569932 -0.40198,0.3199832 -0.452982,0.6299732 0.352002,0.574977 1.19995,0.065 1.637932,-0.077 0.197007,-0.063 0.485994,-0.054 0.591978,-0.206989 0.121001,-0.182994 0.01402,-0.5019743 0.10501,-0.7699635 C 44.183185,9.1279738 44.46317,9.0899708 44.429163,8.8289813 44.399152,8.59099 44.003176,8.4149957 43.609205,8.4209993 M 6.4158278,14.139798 v 0.01399 h 0.1029926 c 0.162989,0.01402 0.3599855,0.193984 0.5569796,0.209995 0.1859896,0.01306 0.3389857,-0.101 0.4529835,-0.07904 0.2909892,0.081 0.4119785,0.519971 0.1389964,0.733961 -0.2279889,0.02592 -0.3149905,-0.09704 -0.4869799,-0.07591 -0.4729798,0.08398 -0.6559744,1.007912 -1.0099379,0.976922 -0.3329872,-0.02501 -0.5139747,-0.838979 -0.174991,-1.079946 0.013001,-0.212 -0.1499926,-0.244997 -0.1389963,-0.452999 0.089996,-0.10799 0.316991,-0.234982 0.5589797,-0.246977 m 2.6599104,1.369967 v 0.0023 c 0.1769908,0 0.3339836,0.02303 0.405982,0.09291 -0.1129948,0.459991 -1.1019314,0.339992 -1.4649362,0.173998 0.023997,-0.171988 0.2939905,-0.219989 0.5219796,-0.243989 0.1609911,-0.01402 0.3599854,-0.028 0.5369746,-0.02499 m 43.2088291,0.836925 c -0.262999,0 -0.423979,0.559973 -0.04999,0.624969 0.159991,-0.09292 0.28299,-0.228992 0.242991,-0.522975 -0.06592,-0.07695 -0.131993,-0.098 -0.192984,-0.098 z m -45.469426,0.01401 c 0.1189907,0 0.2409946,0.01492 0.3649855,0.06305 -0.3199838,0.267991 -0.6699748,0.416978 -1.2199361,0.590977 -0.2649873,0.08609 -0.7209736,0.189991 -0.7659674,-0.100989 -0.055005,-0.362993 0.3849818,-0.279991 0.6269705,-0.312982 0.3039858,-0.03296 0.6369747,-0.21899 0.9939654,-0.22999 z m 45.400473,0.96701 c -0.133002,0.01396 -0.285985,0.09 -0.43599,0.24599 0.01001,0.389993 0.04398,0.636981 -0.03296,0.974942 0.225006,0.429981 0.721973,0.04397 0.835979,-0.244986 0.123984,-0.663977 -0.07511,-0.995974 -0.366987,-0.975982 m 2.665836,1.927871 v 0.0023 c -0.221987,0.01401 -0.419983,0.056 -0.556976,0.161992 0.255991,0.417982 0.786972,0.555974 1.35793,0.659973 0.205991,-0.154992 0.219991,-0.499974 0.313979,-0.765965 -0.312982,0 -0.744954,-0.07407 -1.114933,-0.05809 M 7.5512142,35.900217 c -0.146991,0 -0.279991,0.194973 -0.4059815,0.28297 -0.1929893,0.134003 -0.3779818,0.268002 -0.5919801,0.347 -0.4789763,0.178981 -0.7759688,0.08691 -1.1499361,0.27999 -0.3469893,0.179984 -0.3599854,0.478976 -0.5569798,0.835968 -0.160991,0.29098 -0.5269817,0.712971 -0.7679672,0.729961 -0.2919828,0.01598 -0.5699752,-0.406984 -0.8359662,-0.520965 a 1.1999491,1.1999491 0 0 0 -0.2419887,-0.07602 v 0.543982 c 0.1209987,0.171 0.1819912,0.42798 0.2779923,0.68196 0.087998,0.237991 0.3219824,0.446984 0.3819799,0.696986 0.1069987,0.432967 0.055997,1.725909 -0.032999,1.984861 -0.086996,0.254002 -0.3779823,0.397995 -0.6269708,0.622983 v 3.686866 c 0,2.982858 1.0049622,5.715727 2.681906,7.904679 l 0.00209,0.0023 a 9.9998666,9.9998666 0 0 0 1.0779299,0.606973 c 0.265991,0.124989 0.5589784,0.176991 0.8029656,0.311991 0.3699875,0.205991 1.0999246,0.756962 1.2869693,1.079927 0.131996,0.231001 0.2189897,0.70997 0.2899848,1.134925 a 12.949127,12.949127 0 0 0 6.8597356,1.960964 h 9.209978 c 0.04291,-0.02505 0.08794,-0.05308 0.123977,-0.06593 0.419985,-0.149996 0.936973,-0.07508 1.319964,-0.20999 0.652973,-0.237996 0.724983,-0.935925 1.046954,-1.529961 0.153001,-0.281991 0.354983,-0.569982 0.384974,-0.769968 0.02695,-0.179993 -0.06801,-0.342983 -0.03688,-0.555977 0.03009,-0.20999 0.22399,-0.395983 0.280995,-0.62697 0.07593,-0.301984 0.105988,-0.743973 0.105988,-1.079938 0,-0.276991 -0.129995,-0.517981 -0.142983,-0.765964 -0.04501,-0.903981 0.329977,-1.007935 0.663964,-1.499936 0.167,-0.244993 0.229984,-0.52198 0.347985,-0.69697 0.56098,-0.837964 1.532925,-1.241937 1.462925,-2.507866 -0.02304,-0.419984 -0.282983,-1.363954 -0.591982,-1.497937 -0.175988,-0.08007 -0.579973,-0.01492 -0.83596,-0.101988 -0.823968,-0.306991 -1.306957,-1.32992 -2.159874,-1.393981 -0.18199,-0.01402 -0.353994,0.07903 -0.558982,0.07594 -0.337984,-0.01403 -0.844965,-0.23699 -1.218972,-0.279993 -0.236993,-0.01994 -0.553982,0.07511 -0.696975,0 -0.217991,-0.09999 -0.240981,-0.505975 -0.417979,-0.625977 -0.140994,-0.09395 -0.413993,-0.12299 -0.626976,-0.209991 -0.34298,-0.126988 -0.615973,-0.285979 -1.010981,-0.313979 -0.123002,-0.01402 -0.276992,0.062 -0.417988,0.03094 -0.219992,-0.03009 -0.387984,-0.295988 -0.589966,-0.419982 -0.25299,-0.153991 -0.48998,-0.232991 -0.593984,-0.452985 0.228995,-0.749969 -0.404978,-0.958957 -0.558972,-1.391965 -0.07196,-0.204001 -0.04003,-0.443984 -0.102996,-0.624972 -0.09001,-0.259993 -0.345989,-0.411986 -0.626975,-0.629974 -0.503979,-0.385991 -0.950936,-0.747975 -1.671963,-0.836969 -0.316989,-0.03192 -0.628974,0.09395 -1.011943,0.07407 -0.404994,-0.01807 -0.91699,-0.383989 -1.219944,-0.729969 -0.294994,-0.339986 -0.439987,-0.642968 -0.697975,-0.804965 -0.242995,-0.154995 -0.563982,-0.152998 -0.729979,-0.309984 -0.07407,-0.07599 -0.05992,-0.18699 -0.138996,-0.349982 -0.121996,-0.252996 -0.327986,-0.393987 -0.175989,-0.696978 -0.277997,-0.145997 -0.287991,0.260991 -0.590978,0.208986 -0.270992,-0.384983 -0.499975,-0.565972 -1.115992,-0.452982 -0.279991,0.05809 -0.436986,0.408992 -0.764974,0.417984 -0.269988,0 -0.482982,-0.297983 -0.837966,-0.347985 -0.268019,-0.03198 -0.575006,0.07691 -0.765996,0.03002 C 9.74049,36.98913 9.6474916,36.744159 9.3755044,36.566147 9.1765103,36.436169 8.7905245,36.213178 8.6785335,36.216167 c -0.3499829,0.01401 -0.5969727,0.743981 -1.0799376,0.48799 -0.2359925,-0.296991 0.3829838,-0.453971 0.105,-0.731973 -0.052996,-0.053 -0.1029927,-0.07402 -0.1519926,-0.07197 m 0.019991,1.434898 c 0.234989,0.01403 0.2679902,0.507982 0.027006,0.546993 -0.2599859,0.03594 -0.3909872,-0.403994 -0.1389965,-0.520985 0.041998,-0.01402 0.078004,-0.02499 0.1119913,-0.01807 z"
     fill="url(#c)"
     opacity="0.5"
     stroke-width="0.999889"
     style="fill:url(#c)" />
  <path
     id="path12"
     d="m 50.99695,31.622154 v 14.406732 a 4.9727901,4.9727901 0 0 1 -4.999763,5.00176 H 28.833233 c -3.336861,0 -5.999746,-2.66488 -5.999746,-6.001762 v -0.219991 l -0.04795,-0.215984 C 21.740572,39.929094 17.060775,36.963256 12.39636,38.008195 l 0.437983,-0.04895 H 7.0005911 v 3.99985 h 6.0547339 l 0.216999,-0.04711 a 4.6658205,4.6658205 0 0 1 5.609762,3.554811 l -0.04795,-0.437967 c 0,5.499797 4.499799,10.001612 9.999869,10.001612 h 17.16394 c 4.94582,0 9.000501,-4.054843 9.000501,-9.00048 V 31.622424 Z"
     color="#000000"
     opacity="0.35"
     stroke-width="0.999889"
     style="-inkscape-stroke:none" />
  <path
     id="path13"
     d="m 34.999084,53.028879 a 1.9999357,1.9999357 0 1 1 -3.999871,0 1.9999357,1.9999357 0 1 1 3.999871,0 m 7.999637,0 a 1.9999377,1.9999377 0 1 1 -3.999875,0 1.9999377,1.9999377 0 1 1 3.999875,0 m 7.999633,-1 a 1.9999347,1.9999347 0 1 1 -3.999869,0 1.9999347,1.9999347 0 1 1 3.999869,0 m 3.999853,-5.999745 a 1.9999305,1.9999305 0 1 1 -3.999853,0 1.9999305,1.9999305 0 1 1 3.999853,0 m 0,-6.999725 a 1.9999305,1.9999305 0 1 1 -3.999853,0 1.9999305,1.9999305 0 1 1 3.999853,0 m -27.999116,12.99974 a 1.9999301,1.9999301 0 1 1 -3.999852,0 1.9999301,1.9999301 0 1 1 3.999852,0 m -3.999852,-5.999744 a 1.9999307,1.9999307 0 1 1 -3.999857,0 1.9999307,1.9999307 0 1 1 3.999857,0 m -3.999857,-5.998788 a 1.9999352,1.9999352 0 1 1 -3.99987,0 1.9999352,1.9999352 0 1 1 3.99987,0 m -5.999742,0 a 3.9988177,3.9988177 0 1 1 -7.997635,0 3.9998606,3.9998606 0 0 1 3.9988132,-4.000829 3.9998606,3.9998606 0 0 1 3.9988218,4.000829"
     fill="#ffffff"
     stroke-width="0.999889" />
  <g
     id="g20"
     transform="matrix(0.87281748,0,0,0.87281748,2.6940575,3.0958615)">
    <circle
       id="circle12"
       cx="45"
       cy="19"
       r="18"
       fill="url(#d)"
       fill-rule="evenodd"
       style="fill:url(#d);paint-order:stroke fill markers" />
    <path
       id="path14"
       transform="matrix(0.99997,0,0,0.99997,3.95,-2.138)"
       d="m 32.088,11.183 5.817,17.456 3.795,-3.252 2.467,2.96 a 1.819,1.819 0 0 0 2.795,-2.325 l -2.5,-3 3.627,-3.11 z"
       filter="url(#e)"
       opacity="0.35" />
    <path
       id="path15"
       d="m 36.037,7.592 5.816,17.453 3.795,-3.25 2.467,2.959 a 1.82,1.82 0 0 0 2.563,0.234 1.82,1.82 0 0 0 0.232,-2.56 l -2.5,-3 3.627,-3.11 z"
       fill="#787878" />
    <path
       id="path16"
       d="M 36.037,7.59 37,10.482 V 8.115 Z m 1.137,3.41 4.682,14.047 3.792,-3.252 2.467,2.96 a 1.82,1.82 0 0 0 2.795,-2.328 l -2.5,-3 L 51.242,17 H 49 V 14.662 L 47.787,14 H 43 V 11.39 L 42.287,11 Z M 52,16.299 v 0.05 l 0.037,-0.03 z"
       fill="#ffffff" />
    <path
       id="path17"
       d="m 36.037,7.592 5.816,17.453 3.795,-3.25 2.467,2.959 a 1.82,1.82 0 0 0 2.563,0.234 q 0.092,-0.08 0.171,-0.17 z"
       fill="#deddda" />
    <path
       id="path18"
       d="m 46,14 h 3 v 3 h -3 z"
       fill="#ffffff" />
    <path
       id="path19"
       d="m 49,11 h 3 v 3 H 49 Z M 43,8 h 3 v 3 h -3 z"
       fill="url(#f)"
       style="fill:url(#f)" />
    <path
       id="path20"
       d="M 45,1 A 18,18 0 0 0 27,19 18,18 0 0 0 27.035,19.5 18,18 0 0 1 45,2 18,18 0 0 1 62.982,19.254 L 63,19 A 18,18 0 0 0 45,1"
       fill="#ffffff"
       fill-rule="evenodd"
       opacity="0.08"
       style="paint-order:stroke fill markers" />
  </g>
</svg>
