<?xml version="1.0" encoding="UTF-8" standalone="no"?>
<svg
   width="62"
   height="62"
   version="1"
   id="svg27"
   sodipodi:docname="gottet.svg"
   inkscape:version="1.4 (unknown)"
   xmlns:inkscape="http://www.inkscape.org/namespaces/inkscape"
   xmlns:sodipodi="http://sodipodi.sourceforge.net/DTD/sodipodi-0.dtd"
   xmlns="http://www.w3.org/2000/svg"
   xmlns:svg="http://www.w3.org/2000/svg">
  <defs
     id="defs27" />
  <sodipodi:namedview
     id="namedview27"
     pagecolor="#ffffff"
     bordercolor="#000000"
     borderopacity="0.25"
     inkscape:showpageshadow="2"
     inkscape:pageopacity="0.0"
     inkscape:pagecheckerboard="0"
     inkscape:deskcolor="#d1d1d1"
     inkscape:zoom="12.109375"
     inkscape:cx="31.95871"
     inkscape:cy="32"
     inkscape:window-width="1920"
     inkscape:window-height="998"
     inkscape:window-x="0"
     inkscape:window-y="0"
     inkscape:window-maximized="1"
     inkscape:current-layer="svg27" />
  <g
     id="g27"
     transform="translate(-0.5,-1)">
    <rect
       style="opacity:0.2;stroke-width:0.982303"
       width="13.754388"
       height="13.750001"
       x="-60"
       y="-17.750004"
       rx="1.3754385"
       ry="1.3749998"
       transform="matrix(0,-1,-1,0,0,0)"
       id="rect1" />
    <rect
       style="opacity:0.2;stroke-width:0.982303"
       width="13.754388"
       height="13.750001"
       x="-60"
       y="-31.5"
       rx="1.3754385"
       ry="1.3749998"
       transform="matrix(0,-1,-1,0,0,0)"
       id="rect2" />
    <rect
       style="opacity:0.2;stroke-width:0.982303"
       width="13.754388"
       height="13.750001"
       x="-60"
       y="-45.249992"
       rx="1.3754385"
       ry="1.3749998"
       transform="matrix(0,-1,-1,0,0,0)"
       id="rect3" />
    <rect
       style="fill:#5ba8da;stroke-width:0.982303"
       width="13.754388"
       height="13.750001"
       x="-59.017548"
       y="-17.750004"
       rx="1.3754385"
       ry="1.3749998"
       transform="matrix(0,-1,-1,0,0,0)"
       id="rect4" />
    <rect
       style="fill:#2d89c3;stroke-width:0.982303"
       width="13.754388"
       height="13.750001"
       x="-59.017548"
       y="-31.5"
       rx="1.3754385"
       ry="1.3749998"
       transform="matrix(0,-1,-1,0,0,0)"
       id="rect5" />
    <rect
       style="fill:#5ba8da;stroke-width:0.982303"
       width="13.754388"
       height="13.750001"
       x="-59.017548"
       y="-45.249992"
       rx="1.3754385"
       ry="1.3749998"
       transform="matrix(0,-1,-1,0,0,0)"
       id="rect6" />
    <rect
       style="opacity:0.2;stroke-width:0.982303"
       width="13.754388"
       height="13.750001"
       x="-46.245609"
       y="-17.750004"
       rx="1.3754385"
       ry="1.3749998"
       transform="matrix(0,-1,-1,0,0,0)"
       id="rect7" />
    <rect
       style="fill:#fc965f;stroke-width:0.982303"
       width="13.754388"
       height="13.750001"
       x="-45.263153"
       y="-17.750004"
       rx="1.3754385"
       ry="1.3749998"
       transform="matrix(0,-1,-1,0,0,0)"
       id="rect8" />
    <rect
       style="opacity:0.2;stroke-width:0.982303"
       width="13.754388"
       height="13.750001"
       x="-46.245609"
       y="-31.5"
       rx="1.3754385"
       ry="1.3749998"
       transform="matrix(0,-1,-1,0,0,0)"
       id="rect9" />
    <rect
       style="fill:#5ba8da;stroke-width:0.982303"
       width="13.754388"
       height="13.750001"
       x="-45.263153"
       y="-31.5"
       rx="1.3754385"
       ry="1.3749998"
       transform="matrix(0,-1,-1,0,0,0)"
       id="rect10" />
    <rect
       style="opacity:0.2;stroke-width:0.982303"
       width="13.754388"
       height="13.750001"
       x="-46.245609"
       y="-45.249992"
       rx="1.3754385"
       ry="1.3749998"
       transform="matrix(0,-1,-1,0,0,0)"
       id="rect11" />
    <rect
       style="fill:#d83535;stroke-width:0.982303"
       width="13.754388"
       height="13.750001"
       x="-45.263153"
       y="-45.249992"
       rx="1.3754385"
       ry="1.3749998"
       transform="matrix(0,-1,-1,0,0,0)"
       id="rect12" />
    <rect
       style="opacity:0.2;stroke-width:0.982303"
       width="13.754388"
       height="13.750001"
       x="-46.245609"
       y="-59"
       rx="1.3754385"
       ry="1.3749998"
       transform="matrix(0,-1,-1,0,0,0)"
       id="rect13" />
    <rect
       style="fill:#dd5252;stroke-width:0.982303"
       width="13.754388"
       height="13.750001"
       x="-45.263153"
       y="-59"
       rx="1.3754385"
       ry="1.3749998"
       transform="matrix(0,-1,-1,0,0,0)"
       id="rect14" />
    <rect
       style="opacity:0.2;stroke-width:0.982303"
       width="13.754388"
       height="13.750001"
       x="-32.491234"
       y="-17.750004"
       rx="1.3754385"
       ry="1.3749998"
       transform="matrix(0,-1,-1,0,0,0)"
       id="rect15" />
    <rect
       style="fill:#fc7c35;stroke-width:0.982303"
       width="13.754388"
       height="13.750001"
       x="-31.508774"
       y="-17.750004"
       rx="1.3754385"
       ry="1.3749998"
       transform="matrix(0,-1,-1,0,0,0)"
       id="rect16" />
    <rect
       style="opacity:0.2;stroke-width:0.982303"
       width="13.754388"
       height="13.750001"
       x="-32.491234"
       y="-31.5"
       rx="1.3754385"
       ry="1.3749998"
       transform="matrix(0,-1,-1,0,0,0)"
       id="rect17" />
    <rect
       style="fill:#d83535;stroke-width:0.982303"
       width="13.754388"
       height="13.750001"
       x="-31.508774"
       y="-31.5"
       rx="1.3754385"
       ry="1.3749998"
       transform="matrix(0,-1,-1,0,0,0)"
       id="rect18" />
    <rect
       style="opacity:0.2;stroke-width:0.982303"
       width="13.754388"
       height="13.750001"
       x="-32.491234"
       y="-45.249992"
       rx="1.3754385"
       ry="1.3749998"
       transform="matrix(0,-1,-1,0,0,0)"
       id="rect19" />
    <rect
       style="fill:#dd5252;stroke-width:0.982303"
       width="13.754388"
       height="13.750001"
       x="-31.508774"
       y="-45.249992"
       rx="1.3754385"
       ry="1.3749998"
       transform="matrix(0,-1,-1,0,0,0)"
       id="rect20" />
    <rect
       style="opacity:0.2;stroke-width:0.982303"
       width="13.754388"
       height="13.750001"
       x="-18.736843"
       y="-17.750004"
       rx="1.3754385"
       ry="1.3749998"
       transform="matrix(0,-1,-1,0,0,0)"
       id="rect21" />
    <rect
       style="fill:#fc965f;stroke-width:0.982303"
       width="13.754388"
       height="13.750001"
       x="-17.754391"
       y="-17.750004"
       rx="1.3754385"
       ry="1.3749998"
       transform="matrix(0,-1,-1,0,0,0)"
       id="rect22" />
    <rect
       style="opacity:0.2;stroke-width:0.982303"
       width="13.754388"
       height="13.750001"
       x="-18.736843"
       y="-31.5"
       rx="1.3754385"
       ry="1.3749998"
       transform="matrix(0,-1,-1,0,0,0)"
       id="rect23" />
    <rect
       style="fill:#fc7c35;stroke-width:0.982303"
       width="13.754388"
       height="13.750001"
       x="-17.754391"
       y="-31.5"
       rx="1.3754385"
       ry="1.3749998"
       transform="matrix(0,-1,-1,0,0,0)"
       id="rect24" />
    <path
       style="opacity:0.2;fill:#ffffff;stroke-width:0.982303"
       d="m 46.623461,31.508771 c -0.761748,0 -1.373465,0.61191 -1.373465,1.373904 v 0.982456 c 0,-0.761992 0.611717,-1.373904 1.373465,-1.373904 H 57.62653 c 0.76175,0 1.373464,0.611912 1.373464,1.373904 v -0.982456 c 0,-0.761994 -0.611714,-1.373904 -1.373464,-1.373904 z"
       id="path24" />
    <path
       style="opacity:0.2;fill:#ffffff;stroke-width:0.982303"
       d="m 32.873463,17.754386 c -0.761751,0 -1.373466,0.611912 -1.373466,1.373903 v 0.982457 c 0,-0.761992 0.611715,-1.373905 1.373466,-1.373905 H 43.87653 c 0.761748,0 1.373466,0.611912 1.373466,1.373905 v -0.982457 c 0,-0.761991 -0.611718,-1.373903 -1.373466,-1.373903 z"
       id="path25" />
    <path
       style="opacity:0.2;fill:#ffffff;stroke-width:0.982303"
       d="M 5.3734653,4 C 4.6117153,4 4,4.6119105 4,5.3739035 V 6.3563596 C 4,5.5943666 4.6117153,4.982456 5.3734653,4.982456 H 16.376533 c 0.761748,0 1.373466,0.6119106 1.373466,1.3739036 V 5.3739035 C 17.749999,4.6119105 17.138281,4 16.376533,4 Z"
       id="path26" />
    <path
       style="opacity:0.2;fill:#ffffff;stroke-width:0.982303"
       d="m 19.123464,4 c -0.761748,0 -1.373465,0.6119105 -1.373465,1.3739035 v 0.9824561 c 0,-0.761993 0.611717,-1.3739036 1.373465,-1.3739036 h 11.003068 c 0.76175,0 1.373465,0.6119106 1.373465,1.3739036 V 5.3739035 C 31.499997,4.6119105 30.888282,4 30.126532,4 Z"
       id="path27" />
  </g>
</svg>
