<?xml version="1.0" encoding="UTF-8" standalone="no"?>
<svg
   width="62"
   height="62"
   version="1"
   id="svg24"
   sodipodi:docname="gtk-theme-config.svg"
   inkscape:version="1.4.1 (unknown)"
   xmlns:inkscape="http://www.inkscape.org/namespaces/inkscape"
   xmlns:sodipodi="http://sodipodi.sourceforge.net/DTD/sodipodi-0.dtd"
   xmlns="http://www.w3.org/2000/svg"
   xmlns:svg="http://www.w3.org/2000/svg">
  <defs
     id="defs24" />
  <sodipodi:namedview
     id="namedview24"
     pagecolor="#ffffff"
     bordercolor="#000000"
     borderopacity="0.25"
     inkscape:showpageshadow="2"
     inkscape:pageopacity="0.0"
     inkscape:pagecheckerboard="0"
     inkscape:deskcolor="#d1d1d1"
     inkscape:zoom="8"
     inkscape:cx="54.375"
     inkscape:cy="23.125"
     inkscape:window-width="1920"
     inkscape:window-height="996"
     inkscape:window-x="0"
     inkscape:window-y="0"
     inkscape:window-maximized="1"
     inkscape:current-layer="svg24" />
  <g
     id="g24"
     transform="matrix(1.375,0,0,1.3658537,-2,-2.4634157)">
    <circle
       style="opacity:0.2"
       cx="24"
       cy="25"
       r="17"
       id="circle1" />
    <circle
       style="fill:#4e7097;fill-opacity:1"
       cx="24"
       cy="24"
       r="17"
       id="circle2" />
    <path
       style="opacity:0.1"
       d="M 8.734375,13.185547 C 8.5855971,14.369238 8.9485232,15.606726 9.8574219,16.515625 11.419519,18.077722 22.437903,26.562097 24,25 24.215816,24.784184 24.226507,24.374579 24.103516,23.847656 24.075424,23.904408 24.042888,23.957112 24,24 22.437903,25.562097 11.419519,17.077722 9.8574219,15.515625 9.2039002,14.862103 8.8410798,14.036679 8.734375,13.185547 Z"
       id="path2" />
    <path
       style="fill:#c83771"
       d="M 32.485281,38.142136 C 30.923184,36.580038 22.437903,25.562097 24,24 c 1.562097,-1.562097 12.580038,6.923184 14.142136,8.485281 1.562097,1.562098 1.562097,4.094757 0,5.656855 -1.562098,1.562097 -4.094757,1.562097 -5.656855,0 z"
       id="path3" />
    <path
       style="fill:#bc5fd3"
       d="m 40,28 c -2.209139,0 -16,-1.790861 -16,-4 0,-2.209139 13.790861,-4 16,-4 2.209139,0 4,1.790861 4,4 0,2.209139 -1.790861,4 -4,4 z"
       id="path4" />
    <path
       style="fill:#892ca0"
       d="M 38.142136,15.514719 C 36.580038,17.076816 25.562097,25.562097 24,24 22.437903,22.437903 30.923184,11.419962 32.485281,9.8578644 c 1.562097,-1.5620972 4.094757,-1.5620972 5.656855,0 1.562097,1.5620976 1.562097,4.0947566 0,5.6568546 z"
       id="path5" />
    <path
       style="opacity:0.1;fill:#ffffff"
       d="m 35.314453,8.6855469 c -1.023689,0 -2.04903,0.3908264 -2.830078,1.171875 -1.519209,1.5192101 -9.582981,11.9799191 -8.587891,13.9902341 0.767234,-3.286994 7.24161,-11.643952 8.587891,-12.990234 1.562097,-1.5620972 4.096105,-1.5620972 5.658203,0 0.653199,0.653199 1.016125,1.477441 1.123047,2.328125 0.148349,-1.183309 -0.214471,-2.419549 -1.123047,-3.3281251 -0.781049,-0.7810486 -1.804436,-1.171875 -2.828125,-1.171875 z"
       id="path6" />
    <path
       style="fill:#8d5fd3"
       d="m 28,8 c 0,2.209139 -1.790861,16 -4,16 -2.209139,0 -4,-13.790861 -4,-16 0,-2.209139 1.790861,-4 4,-4 2.209139,0 4,1.790861 4,4 z"
       id="path7" />
    <path
       style="fill:#00ccff"
       d="M 9.8578644,15.514719 C 11.419962,17.076816 22.437903,25.562097 24,24 25.562097,22.437903 17.076816,11.419962 15.514719,9.8578644 c -1.562098,-1.5620972 -4.094757,-1.5620972 -5.6568546,0 -1.5620972,1.5620976 -1.5620972,4.0947566 0,5.6568546 z"
       id="path8" />
    <path
       style="opacity:0.1"
       d="M 4.0507812,24.5 C 4.0299176,24.665505 4,24.828834 4,25 c 0,2.209139 1.790861,4 4,4 2.209139,0 16,-1.790861 16,-4 0,-0.169859 -0.106285,-0.335711 -0.257812,-0.5 C 21.922984,26.472413 10.03928,28 8,28 5.9620269,28 4.2991923,26.470577 4.0507812,24.5 Z"
       id="path9" />
    <path
       style="fill:#009999;fill-opacity:1"
       d="m 8,28 c 2.209139,0 16,-1.790861 16,-4 0,-2.209139 -13.790861,-4 -16,-4 -2.209139,0 -4,1.790861 -4,4 0,2.209139 1.790861,4 4,4 z"
       id="path10" />
    <path
       style="opacity:0.1;fill:#ffffff"
       d="m 12.685547,8.6855469 c -1.023689,0 -2.047076,0.3908264 -2.8281251,1.171875 -0.9085756,0.9085761 -1.271396,2.1448161 -1.1230469,3.3281251 0.1069222,-0.850684 0.4698483,-1.674926 1.1230469,-2.328125 1.5620971,-1.5620972 4.0961051,-1.5620972 5.6582031,0 1.346281,1.346282 7.820657,9.70324 8.587891,12.990234 0.99509,-2.010315 -7.068682,-12.471024 -8.587891,-13.9902341 -0.781049,-0.7810486 -1.806389,-1.171875 -2.830078,-1.171875 z"
       id="path11" />
    <path
       style="opacity:0.1"
       d="m 24.103516,25.152344 c -0.767234,3.286994 -7.24161,11.643952 -8.587891,12.990234 -1.562098,1.562097 -4.096105,1.562097 -5.6582031,0 -0.6531985,-0.653199 -1.0161247,-1.477441 -1.1230469,-2.328125 -0.1483491,1.183309 0.2144714,2.419549 1.1230469,3.328125 1.5620981,1.562097 4.0961051,1.562097 5.6582031,0 1.519209,-1.51921 9.582981,-11.979919 8.587891,-13.990234 z"
       id="path12" />
    <path
       style="fill:#6cc427;fill-opacity:1"
       d="M 15.514719,38.142136 C 17.076816,36.580038 25.562097,25.562097 24,24 22.437903,22.437903 11.419962,30.923184 9.8578643,32.485281 c -1.5620971,1.562098 -1.5620971,4.094757 0,5.656855 1.5620977,1.562097 4.0947567,1.562097 5.6568547,0 z"
       id="path13" />
    <path
       style="opacity:0.1"
       d="M 20.039062,40.378906 C 20.026991,40.583349 20,40.870284 20,41 c 0,2.209139 1.790861,4 4,4 2.209139,0 4,-1.790861 4,-4 0,-0.129716 -0.02699,-0.416651 -0.03906,-0.621094 C 27.767409,42.407616 26.079407,44 24,44 21.920593,44 20.232591,42.407616 20.039062,40.378906 Z"
       id="path14" />
    <path
       style="opacity:0.1;fill:#ffffff"
       d="m 24,4 c -2.209139,0 -4,1.790861 -4,4 0,0.1297163 0.02699,0.4166511 0.03906,0.6210938 C 20.232591,6.5923837 21.920593,5 24,5 26.079407,5 27.767409,6.5923837 27.960938,8.6210938 27.973009,8.4166511 28,8.1297163 28,8 28,5.790861 26.209139,4 24,4 Z"
       id="path15" />
    <path
       style="fill:#ffcc00"
       d="m 28,40 c 0,-2.209139 -1.790861,-16 -4,-16 -2.209139,0 -4,13.790861 -4,16 0,2.209139 1.790861,4 4,4 2.209139,0 4,-1.790861 4,-4 z"
       id="path16" />
    <path
       style="opacity:0.1"
       d="m 23.896484,25.152344 c -0.99509,2.010315 7.068682,12.471024 8.587891,13.990234 1.562098,1.562097 4.096105,1.562097 5.658203,0 0.908576,-0.908576 1.271396,-2.144816 1.123047,-3.328125 -0.106922,0.850684 -0.469848,1.674926 -1.123047,2.328125 -1.562098,1.562097 -4.096105,1.562097 -5.658203,0 -1.346281,-1.346282 -7.820657,-9.70324 -8.587891,-12.990234 z"
       id="path17" />
    <path
       style="fill:#ff4c4c"
       d="m 24,24 c -0.728007,0.728007 0.749268,3.518186 2.667969,6.439453 C 26.375836,28.270591 25.830871,26.317427 25.205078,25.144531 24.458748,24.78184 24,24.397839 24,24 Z"
       id="path18" />
    <path
       style="opacity:0.1"
       d="M 24.257812,24.5 C 24.106285,24.664289 24,24.830141 24,25 c 0,2.209139 13.790861,4 16,4 2.209139,0 4,-1.790861 4,-4 0,-0.171166 -0.02992,-0.334495 -0.05078,-0.5 C 43.700808,26.470577 42.037973,28 40,28 37.96072,28 26.077016,26.472413 24.257812,24.5 Z"
       id="path19" />
    <path
       style="fill:#db4cb7"
       d="m 24,24 c -0.05127,0.339677 0.426589,0.751721 1.093894,1.099001 C 24.792952,24.413464 24.382075,23.991272 24,24 Z"
       id="path20" />
    <path
       style="opacity:0.1"
       d="M 39.265625,13.185547 C 39.15892,14.036679 38.7961,14.862103 38.142578,15.515625 36.58048,17.077722 25.562097,25.562097 24,24 c -0.04289,-0.04289 0.02809,0.05675 0,0 -0.232588,0.241018 -0.239641,0.81754 -0.05242,1.295435 -0.0143,-0.393818 0.158701,-0.631146 0.310228,-0.795435 0.190077,0.206085 0.511326,0.406425 0.898438,0.601562 3.289792,-0.771249 11.640577,-7.240186 12.986328,-8.585937 0.908899,-0.908899 1.271825,-2.146387 1.123047,-3.330078 z"
       id="path21" />
    <path
       style="opacity:0.1"
       d="m 19.480614,16.898469 c -0.523146,0.220065 -0.767142,0.818392 -0.547077,1.341538 l 0.515937,1.226492 a 7.1711866,7.1711866 0 0 0 -1.032456,1.044284 l -1.231492,-0.502198 c -0.525529,-0.21431 -1.120998,0.03619 -1.335308,0.56171 l -0.773598,1.897019 c -0.21431,0.52553 0.03619,1.121 0.561708,1.335308 l 1.226251,0.500062 a 7.1711866,7.1711866 0 0 0 0.0093,1.47217 l -1.222803,0.514384 c -0.523147,0.220066 -0.767142,0.818393 -0.547076,1.341539 l 0.794463,1.888613 c 0.220066,0.523146 0.818393,0.767142 1.341539,0.547076 l 1.226491,-0.515936 a 7.1711866,7.1711866 0 0 0 1.044285,1.032456 l -0.502198,1.231492 c -0.21431,0.525529 0.03619,1.120998 0.56171,1.335307 l 1.897018,0.773599 c 0.525531,0.21431 1.121,-0.03619 1.335309,-0.561708 l 0.500063,-1.226251 a 7.1711866,7.1711866 0 0 0 1.47217,-0.0093 l 0.514383,1.222804 c 0.220066,0.523147 0.818393,0.767142 1.341538,0.547076 l 1.888614,-0.794463 c 0.523145,-0.220066 0.767142,-0.818393 0.547076,-1.341539 l -0.515936,-1.226491 a 7.1711866,7.1711866 0 0 0 1.032457,-1.044284 l 1.231492,0.502196 c 0.525527,0.214311 1.120998,-0.03618 1.335308,-0.561709 l 0.773598,-1.897018 c 0.214309,-0.525532 -0.03619,-1.121 -0.56171,-1.335309 l -1.226251,-0.500061 a 7.1711866,7.1711866 0 0 0 -0.0093,-1.472171 l 1.222802,-0.514382 c 0.523147,-0.220067 0.767143,-0.818394 0.547076,-1.341539 l -0.794463,-1.888614 c -0.220066,-0.523145 -0.818393,-0.767142 -1.341539,-0.547075 l -1.226491,0.515935 a 7.1711866,7.1711866 0 0 0 -1.044283,-1.032457 l 0.502197,-1.231492 c 0.21431,-0.525527 -0.03619,-1.120998 -0.56171,-1.335306 l -1.897019,-0.7736 c -0.525532,-0.214309 -1.121,0.03619 -1.335308,0.56171 l -0.500063,1.226249 a 7.1711866,7.1711866 0 0 0 -1.472168,0.0093 l -0.514377,-1.222812 c -0.220065,-0.523146 -0.818392,-0.767142 -1.341538,-0.547077 z"
       id="path22" />
    <path
       style="fill:#2c3e54;fill-opacity:1"
       d="m 19.480614,15.898464 c -0.523146,0.220065 -0.767142,0.818392 -0.547077,1.341538 l 0.515937,1.226492 a 7.1711866,7.1711866 0 0 0 -1.032456,1.044284 L 17.185526,19.00858 c -0.525529,-0.21431 -1.120998,0.03619 -1.335308,0.56171 l -0.773598,1.897019 c -0.21431,0.52553 0.03619,1.121 0.561708,1.335308 l 1.226251,0.500062 a 7.1711866,7.1711866 0 0 0 0.0093,1.47217 l -1.222803,0.514384 c -0.523147,0.220066 -0.767142,0.818393 -0.547076,1.341539 l 0.794463,1.888613 c 0.220066,0.523146 0.818393,0.767142 1.341539,0.547076 l 1.226491,-0.515936 a 7.1711866,7.1711866 0 0 0 1.044285,1.032456 l -0.502198,1.231492 c -0.21431,0.525529 0.03619,1.120998 0.56171,1.335307 l 1.897018,0.773599 c 0.525531,0.21431 1.121,-0.03619 1.335309,-0.561708 L 23.30268,31.13542 a 7.1711866,7.1711866 0 0 0 1.47217,-0.0093 l 0.514383,1.222804 c 0.220066,0.523147 0.818393,0.767142 1.341538,0.547076 l 1.888614,-0.794463 c 0.523145,-0.220066 0.767142,-0.818393 0.547076,-1.341539 l -0.515936,-1.226491 a 7.1711866,7.1711866 0 0 0 1.032457,-1.044284 l 1.231492,0.502196 c 0.525527,0.214311 1.120998,-0.03618 1.335308,-0.561709 l 0.773598,-1.897018 c 0.214309,-0.525532 -0.03619,-1.121 -0.56171,-1.335309 l -1.226251,-0.500061 a 7.1711866,7.1711866 0 0 0 -0.0093,-1.472171 l 1.222802,-0.514382 c 0.523147,-0.220067 0.767143,-0.818394 0.547076,-1.341539 l -0.794463,-1.888614 c -0.220066,-0.523145 -0.818393,-0.767142 -1.341539,-0.547075 l -1.226491,0.515935 a 7.1711866,7.1711866 0 0 0 -1.044283,-1.032457 l 0.502197,-1.231492 c 0.21431,-0.525527 -0.03619,-1.120998 -0.56171,-1.335306 l -1.897019,-0.7736 c -0.525532,-0.214309 -1.121,0.03619 -1.335308,0.56171 l -0.500063,1.226249 a 7.1711866,7.1711866 0 0 0 -1.472168,0.0093 l -0.514377,-1.222812 c -0.220065,-0.523146 -0.818392,-0.767142 -1.341538,-0.547077 z"
       id="path23" />
    <circle
       style="opacity:0.2"
       cx="24"
       cy="25"
       r="4"
       id="circle23" />
    <circle
       style="fill:#ffffff"
       cx="24"
       cy="24"
       r="4"
       id="circle24" />
  </g>
</svg>
