<?xml version="1.0" encoding="UTF-8" standalone="no"?>
<svg
   width="62"
   height="62"
   viewBox="0 0 62 62"
   fill="none"
   version="1.1"
   id="svg5"
   sodipodi:docname="guilded.svg"
   inkscape:version="1.4.1 (unknown)"
   xmlns:inkscape="http://www.inkscape.org/namespaces/inkscape"
   xmlns:sodipodi="http://sodipodi.sourceforge.net/DTD/sodipodi-0.dtd"
   xmlns:xlink="http://www.w3.org/1999/xlink"
   xmlns="http://www.w3.org/2000/svg"
   xmlns:svg="http://www.w3.org/2000/svg">
  <sodipodi:namedview
     id="namedview5"
     pagecolor="#ffffff"
     bordercolor="#000000"
     borderopacity="0.25"
     inkscape:showpageshadow="2"
     inkscape:pageopacity="0.0"
     inkscape:pagecheckerboard="0"
     inkscape:deskcolor="#d1d1d1"
     inkscape:zoom="8.4852814"
     inkscape:cx="37.182032"
     inkscape:cy="44.901281"
     inkscape:window-width="1920"
     inkscape:window-height="996"
     inkscape:window-x="0"
     inkscape:window-y="0"
     inkscape:window-maximized="1"
     inkscape:current-layer="svg5" />
  <g
     id="g5"
     transform="translate(-0.01470203,-2.8417089)">
    <path
       opacity="0.4"
       d="m 16.65618,20.288079 c -1.168621,0 -2.098984,0.95489 -1.982936,2.125492 0.272529,2.748424 1.085426,7.783783 3.508644,12.830009 3.443355,6.718495 8.102242,11.197703 12.122196,13.269557 0.545001,0.280907 1.191308,0.268984 1.725204,-0.03287 2.948001,-1.66665 5.773117,-4.48753 7.915009,-7.317206 0.986758,-1.303638 0.0067,-3.067338 -1.621424,-3.067338 h -8.941787 c -0.500249,0 -0.987864,-0.175278 -1.352533,-0.519948 -2.333497,-2.205953 -4.221817,-5.308906 -5.092214,-9.020589 -0.288323,-1.229439 0.697799,-2.331937 1.952663,-2.331937 h 31.493562 c 1.340003,0 2.339868,1.243217 2.002365,2.5485 -1.885477,7.301045 -5.147291,14.445036 -8.270622,18.673175 -4.828481,6.529702 -11.371639,11.516136 -18.864534,14.377725 -0.03281,0.0127 -0.06766,0.01906 -0.102779,0.01906 -0.03778,0 -0.07562,-0.0073 -0.11052,-0.02226 C 18.526916,56.651239 11.791475,48.522567 7.3448821,39.352355 4.6886256,33.879728 1.919972,24.255978 1.5450349,11.380866 1.5021235,8.4156086 2.9785841,8.4156086 4.4550075,8.4156086 H 57.606727 c 1.476374,0 2.952746,0 2.906936,3.0602914 -0.07636,2.337392 -0.247994,4.632434 -0.513887,6.971628 -0.120045,1.055063 -1.015136,1.840551 -2.070286,1.840551 z"
       id="path1"
       style="fill:#d4d4d4;fill-opacity:1" />
    <path
       d="m 16.626774,17.714182 c -1.168613,0 -2.098983,0.954885 -1.982935,2.125492 0.272528,2.748423 1.085428,7.783782 3.508642,12.830004 3.443358,6.718495 8.102245,11.197702 12.122199,13.269555 0.545002,0.280913 1.191308,0.268984 1.725203,-0.03287 2.948007,-1.666649 5.773115,-4.487525 7.915016,-7.317205 0.986753,-1.30364 0.0067,-3.067336 -1.62143,-3.067336 h -8.941787 c -0.500249,0 -0.98786,-0.175278 -1.352533,-0.519953 -2.333497,-2.205946 -4.221817,-5.3089 -5.092215,-9.020587 -0.288322,-1.229434 0.697798,-2.331933 1.952662,-2.331933 H 56.35316 c 1.340002,0 2.339869,1.243217 2.002371,2.548501 -1.885484,7.301038 -5.147297,14.445035 -8.270628,18.673169 -4.82848,6.529492 -11.37164,11.516142 -18.864535,14.377724 -0.03281,0.0127 -0.06765,0.01906 -0.102777,0.01906 -0.03778,0 -0.07563,-0.0073 -0.110521,-0.02226 C 18.497512,54.077336 11.762071,45.948669 7.3154779,36.778458 4.6592213,31.305831 1.8905526,21.682079 1.5156151,8.8069643 1.4727036,5.8417088 2.9491796,5.8417088 4.4256036,5.8417088 H 57.577328 c 1.476371,0 2.952741,0 2.906931,3.0602888 -0.07636,2.3373924 -0.247991,4.6324394 -0.513882,6.9716324 -0.12005,1.05506 -1.015138,1.840552 -2.070291,1.840552 z"
       id="path2"
       style="fill:url(#linearGradient7)" />
  </g>
  <defs
     id="defs5">
    <linearGradient
       id="linearGradient5"
       inkscape:collect="always">
      <stop
         style="stop-color:#d4aa00;stop-opacity:1"
         offset="0"
         id="stop6" />
      <stop
         style="stop-color:#ffcc00;stop-opacity:1"
         offset="1"
         id="stop7" />
    </linearGradient>
    <linearGradient
       id="paint0_linear_231_111"
       x1="61"
       y1="117.8"
       x2="61"
       y2="17"
       gradientUnits="userSpaceOnUse"
       gradientTransform="matrix(0.52652316,0,0,0.53002108,-1.0884915,-0.59474943)">
      <stop
         stop-color="#FD5900"
         id="stop2" />
      <stop
         offset="1"
         stop-color="#FFDE00"
         id="stop3" />
    </linearGradient>
    <linearGradient
       id="paint1_linear_231_111"
       x1="68"
       y1="111.8"
       x2="68"
       y2="11"
       gradientUnits="userSpaceOnUse"
       gradientTransform="matrix(0.52652316,0,0,0.53002108,-4.8035578,0.01147694)">
      <stop
         stop-color="#FD5900"
         id="stop4" />
      <stop
         offset="1"
         stop-color="#FFDE00"
         id="stop5" />
    </linearGradient>
    <linearGradient
       inkscape:collect="always"
       xlink:href="#linearGradient5"
       id="linearGradient7"
       x1="30.388229"
       y1="61.841709"
       x2="31.001467"
       y2="5.8417087"
       gradientUnits="userSpaceOnUse" />
  </defs>
</svg>
