<?xml version="1.0" encoding="UTF-8" standalone="no"?>
<svg
   width="62"
   height="62"
   version="1.1"
   id="svg2"
   sodipodi:docname="hacknet.svg"
   inkscape:version="1.4.1 (unknown)"
   xmlns:inkscape="http://www.inkscape.org/namespaces/inkscape"
   xmlns:sodipodi="http://sodipodi.sourceforge.net/DTD/sodipodi-0.dtd"
   xmlns="http://www.w3.org/2000/svg"
   xmlns:svg="http://www.w3.org/2000/svg">
  <defs
     id="defs2" />
  <sodipodi:namedview
     id="namedview2"
     pagecolor="#ffffff"
     bordercolor="#000000"
     borderopacity="0.25"
     inkscape:showpageshadow="2"
     inkscape:pageopacity="0.0"
     inkscape:pagecheckerboard="0"
     inkscape:deskcolor="#d1d1d1"
     inkscape:zoom="5.6568543"
     inkscape:cx="39.509591"
     inkscape:cy="48.790367"
     inkscape:window-width="1920"
     inkscape:window-height="996"
     inkscape:window-x="0"
     inkscape:window-y="0"
     inkscape:window-maximized="1"
     inkscape:current-layer="svg2" />
  <path
     style="fill:#ef8d03;stroke-width:3.98937"
     d="M 28.931481,3.0002372 A 1.9948856,1.9948856 0 0 0 26.905628,4.9949231 V 11.384152 A 19.946861,19.946861 0 0 0 11.368894,26.928678 H 4.9640812 a 1.9948856,1.9948856 0 0 0 -1.9946861,2.025853 c 0.1634446,11.563088 5.5168753,19.159375 10.7837719,23.671315 5.266896,4.51194 10.573394,6.132104 10.573394,6.1321 a 1.9964199,1.9964199 0 1 0 1.168762,-3.817953 c 0,0 -4.518507,-1.371865 -9.147506,-5.337341 -4.261753,-3.650874 -8.1514583,-9.7071 -8.9137535,-18.684602 h 3.5140755 a 19.946861,19.946861 0 0 0 0,0.0078 A 19.946861,19.946861 0 0 0 30.895,50.872692 19.946861,19.946861 0 0 0 50.841861,30.92583 19.946861,19.946861 0 0 0 30.895,10.978969 V 7.4649054 c 8.9775,0.7622952 15.033726,4.6520006 18.6846,8.9137526 3.965476,4.628999 5.337341,9.147506 5.337341,9.147506 a 1.9964217,1.9964217 0 1 0 3.817957,-1.168761 c 0,0 -1.620164,-5.306498 -6.132104,-10.573395 C 48.090858,8.5171123 40.494567,3.16368 28.931481,3.0002372 Z M 30.895,18.957725 A 11.968117,11.968117 0 0 1 42.863117,30.925842 11.968117,11.968117 0 0 1 30.895,42.89396 11.968117,11.968117 0 0 1 18.926884,30.925842 11.968117,11.968117 0 0 1 30.895,18.957725 Z m 0,3.989373 A 7.9787444,7.9787444 0 0 0 22.916256,30.925842 7.9787444,7.9787444 0 0 0 30.895,38.904588 7.9787444,7.9787444 0 0 0 38.873745,30.925842 7.9787444,7.9787444 0 0 0 30.895,22.947098 Z m 0,3.989372 A 3.9893722,3.9893722 0 0 1 34.884373,30.925842 3.9893722,3.9893722 0 0 1 30.895,34.915214 3.9893722,3.9893722 0 0 1 26.905628,30.925842 3.9893722,3.9893722 0 0 1 30.895,26.93647 Z m 25.93092,3.989372 a 1.9946861,1.9946861 0 0 0 -1.994686,1.994686 1.9946861,1.9946861 0 0 0 1.994686,1.994686 1.9946861,1.9946861 0 0 0 1.994686,-1.994686 1.9946861,1.9946861 0 0 0 -1.994686,-1.994686 z m 0.257115,7.706033 a 1.9948856,1.9948856 0 0 0 -1.940144,1.363559 c 0,0 -2.197466,5.953085 -5.711349,9.466964 -3.536418,3.536422 -9.241005,5.664597 -9.241005,5.664597 a 1.9951006,1.9951006 0 1 0 1.347973,3.755619 c 0,0 6.271321,-2.157281 10.713646,-6.599603 4.464862,-4.464865 6.654145,-10.962982 6.654145,-10.962982 a 1.9948856,1.9948856 0 0 0 -1.823254,-2.688154 z"
     id="path2" />
  <rect
     style="fill:#ff5555;fill-opacity:1;stroke:#879fab;stroke-width:0;stroke-linecap:round;stroke-linejoin:round;paint-order:fill markers stroke"
     id="rect2"
     width="62"
     height="19"
     x="0"
     y="21.5"
     rx="4.6392522"
     ry="5.2686763" />
  <text
     xml:space="preserve"
     style="font-size:12.996px;font-family:'Blush Asliring';-inkscape-font-specification:'Blush Asliring';text-align:start;writing-mode:lr-tb;direction:ltr;text-anchor:start;fill:#1a0000;fill-opacity:1;stroke:#1a0000;stroke-width:0;stroke-linecap:round;stroke-linejoin:round;stroke-opacity:1;paint-order:fill markers stroke"
     x="2.9288967"
     y="33.804573"
     id="text2"
     transform="scale(0.9408668,1.0628497)"><tspan
       sodipodi:role="line"
       id="tspan2"
       x="2.9288967"
       y="33.804573"
       style="fill:#1a0000;fill-opacity:1;stroke:#1a0000;stroke-width:0;stroke-opacity:1">HACKNET</tspan></text>
</svg>
