<?xml version="1.0" encoding="UTF-8" standalone="no"?>
<svg
   width="62"
   height="62"
   version="1.1"
   id="svg29"
   sodipodi:docname="half-life-alyx.svg"
   inkscape:version="1.4.1 (unknown)"
   xmlns:inkscape="http://www.inkscape.org/namespaces/inkscape"
   xmlns:sodipodi="http://sodipodi.sourceforge.net/DTD/sodipodi-0.dtd"
   xmlns:xlink="http://www.w3.org/1999/xlink"
   xmlns="http://www.w3.org/2000/svg"
   xmlns:svg="http://www.w3.org/2000/svg">
  <defs
     id="defs29">
    <linearGradient
       id="linearGradient29"
       inkscape:collect="always">
      <stop
         style="stop-color:#59230d;stop-opacity:1;"
         offset="0"
         id="stop29" />
      <stop
         style="stop-color:#883311;stop-opacity:1;"
         offset="1"
         id="stop30" />
    </linearGradient>
    <linearGradient
       inkscape:collect="always"
       xlink:href="#linearGradient29"
       id="linearGradient30"
       x1="30.782633"
       y1="60"
       x2="30.193521"
       y2="5"
       gradientUnits="userSpaceOnUse"
       gradientTransform="matrix(0.98214286,0,0,0.98245614,-0.42857152,-0.92982455)" />
  </defs>
  <sodipodi:namedview
     id="namedview29"
     pagecolor="#ffffff"
     bordercolor="#000000"
     borderopacity="0.25"
     inkscape:showpageshadow="2"
     inkscape:pageopacity="0.0"
     inkscape:pagecheckerboard="0"
     inkscape:deskcolor="#d1d1d1"
     inkscape:zoom="7.0710678"
     inkscape:cx="20.364675"
     inkscape:cy="25.314423"
     inkscape:window-width="1920"
     inkscape:window-height="996"
     inkscape:window-x="0"
     inkscape:window-y="0"
     inkscape:window-maximized="1"
     inkscape:current-layer="svg29" />
  <rect
     style="opacity:0.2;stroke-width:0.9823"
     width="55"
     height="55.017544"
     x="3.5"
     y="3.9824562"
     ry="13.754386"
     id="rect1" />
  <rect
     style="fill:url(#linearGradient30);stroke-width:0.9823"
     width="55"
     height="55.017544"
     x="3.5"
     y="3"
     ry="13.754386"
     id="rect2" />
  <path
     style="opacity:0.1;fill:#ffffff;stroke-width:0.9823"
     d="M 17.25,3 C 9.6324999,3 3.4999999,9.1344561 3.4999999,16.754386 v 0.982456 c 0,-7.61993 6.1325,-13.7543858 13.7500001,-13.7543858 h 27.5 c 7.6175,0 13.75,6.1344558 13.75,13.7543858 V 16.754386 C 58.5,9.1344561 52.3675,3 44.75,3 Z"
     id="path28" />
  <g
     id="g1"
     transform="matrix(0.95864163,0,0,0.95834383,1.2821094,2.1085883)">
    <path
       d="m 38.27355,50.6785 a 702,702 0 0 0 -3.173,-8.463 c -1.265,-3.32 -2.69,-7.105 -3.169,-8.409 -0.478,-1.304 -0.93,-2.438 -1.006,-2.52 -0.076,-0.082 -2.999,4.357 -6.497,9.863 l -6.36,10.012 -4.272,0.001 c -2.349,0 -4.2300006,-0.072 -4.1800006,-0.161 0.049,-0.089 3.9200006,-6.565 8.6010006,-14.392 4.681,-7.827 8.623,-14.438 8.758,-14.691 0.204,-0.385 0.074,-0.923 -0.784,-3.234 l -1.029,-2.774 -3.068,-0.06 -3.067,-0.06 0.059,-3.39 0.06,-3.3889998 5.722,-0.057 5.722,-0.058 3.16,8.1429998 c 1.74,4.478 4.78,12.315 6.76,17.414 1.98,5.099 3.672,9.352 3.76,9.452 0.089,0.1 1.447,-0.267 3.019,-0.814 1.572,-0.547 2.895,-0.957 2.94,-0.912 0.144,0.144 2.226,6.47 2.153,6.543 -0.067,0.067 -13.039,4.381 -13.173,4.381 -0.035,0 -0.456,-1.091 -0.936,-2.425"
       style="fill:#f2f2f2;fill-opacity:0.30000001;stroke-width:0.869395"
       id="path2-3-7" />
    <path
       d="m 38.273549,48.972959 a 702,702 0 0 0 -3.173,-8.462999 c -1.265,-3.32 -2.69,-7.105 -3.169,-8.409 -0.478,-1.304 -0.93,-2.438 -1.006,-2.52 -0.076,-0.082 -2.999,4.357 -6.497,9.863 l -6.36,10.011999 -4.271999,10e-4 c -2.349,0 -4.2300003,-0.072 -4.1800003,-0.161 0.049,-0.089 3.9200003,-6.564999 8.6009993,-14.391999 4.681,-7.827 8.623,-14.438 8.758,-14.691 0.204,-0.385 0.074,-0.923 -0.784,-3.234 l -1.029,-2.774 -3.068,-0.06 -3.067,-0.06 0.059,-3.39 0.06,-3.3890004 5.722,-0.057 5.722,-0.058 3.16,8.1430004 c 1.74,4.478 4.78,12.315 6.76,17.414 1.98,5.099 3.672,9.352 3.76,9.452 0.089,0.1 1.447,-0.267 3.019,-0.814 1.572,-0.547 2.895,-0.957 2.94,-0.912 0.144,0.144 2.226,6.469999 2.153,6.542999 -0.067,0.067 -13.039,4.381 -13.173,4.381 -0.035,0 -0.456,-1.091 -0.936,-2.425"
       style="fill:#f2f2f2;fill-opacity:1;stroke-width:0.869395"
       id="path2-3-3" />
  </g>
</svg>
