<?xml version="1.0" encoding="UTF-8" standalone="no"?>
<svg
   width="62"
   height="62"
   version="1"
   id="svg7"
   sodipodi:docname="hedgewars.svg"
   inkscape:version="1.4.2 (unknown)"
   xmlns:inkscape="http://www.inkscape.org/namespaces/inkscape"
   xmlns:sodipodi="http://sodipodi.sourceforge.net/DTD/sodipodi-0.dtd"
   xmlns:xlink="http://www.w3.org/1999/xlink"
   xmlns="http://www.w3.org/2000/svg"
   xmlns:svg="http://www.w3.org/2000/svg">
  <defs
     id="defs7">
    <linearGradient
       id="linearGradient7"
       inkscape:collect="always">
      <stop
         style="stop-color:#bc5fd3;stop-opacity:1"
         offset="0"
         id="stop8" />
      <stop
         style="stop-color:#ac36c9;stop-opacity:1;"
         offset="0.59162253"
         id="stop10" />
      <stop
         style="stop-color:#ffffff;stop-opacity:1;"
         offset="0.92173076"
         id="stop11" />
      <stop
         style="stop-color:#eff2f6;stop-opacity:1;"
         offset="1"
         id="stop9" />
    </linearGradient>
    <linearGradient
       id="linearGradient1"
       inkscape:collect="always">
      <stop
         style="stop-color:#566c80;stop-opacity:1;"
         offset="0"
         id="stop5" />
      <stop
         style="stop-color:#566c80;stop-opacity:1;"
         offset="0.28848785"
         id="stop7" />
      <stop
         style="stop-color:#495361;stop-opacity:1;"
         offset="1"
         id="stop6" />
    </linearGradient>
    <linearGradient
       id="c-3"
       gradientUnits="userSpaceOnUse"
       x1="24.072048"
       x2="23.959682"
       y1="0.75082099"
       y2="46.056854">
      <stop
         offset="0"
         stop-color="#fff"
         id="stop3" />
      <stop
         offset="1"
         stop-color="#d9d9d9"
         id="stop4" />
    </linearGradient>
    <linearGradient
       id="b-6"
       gradientUnits="userSpaceOnUse"
       x1="29.203026"
       x2="34.121048"
       xlink:href="#a-7"
       y1="24.827356"
       y2="29.224836" />
    <linearGradient
       id="a-7">
      <stop
         offset="0"
         id="stop1" />
      <stop
         offset="1"
         stop-opacity="0"
         id="stop2" />
    </linearGradient>
    <linearGradient
       id="d"
       gradientUnits="userSpaceOnUse"
       x1="15.948756"
       x2="25.031786"
       xlink:href="#a-7"
       y1="23.618279"
       y2="33.69899" />
    <linearGradient
       id="e"
       gradientUnits="userSpaceOnUse"
       x1="21.990562"
       x2="29.320522"
       xlink:href="#a-7"
       y1="33.780373"
       y2="41.931858" />
    <linearGradient
       id="paint154_linear_890_11"
       x1="778"
       y1="812.29199"
       x2="788"
       y2="812.29199"
       gradientUnits="userSpaceOnUse"
       gradientTransform="translate(-751,-696)">
      <stop
         stop-color="#EFF2F6"
         id="stop1050" />
      <stop
         offset="0.600785"
         stop-color="#B7C6CD"
         id="stop1051" />
    </linearGradient>
    <linearGradient
       id="paint155_linear_890_11"
       x1="783"
       y1="813"
       x2="783"
       y2="817"
       gradientUnits="userSpaceOnUse"
       gradientTransform="translate(-751,-696)">
      <stop
         stop-color="#EFF2F6"
         id="stop1052" />
      <stop
         offset="0.734138"
         stop-color="#B7C6CD"
         id="stop1053" />
    </linearGradient>
    <radialGradient
       id="paint156_radial_890_11"
       cx="0"
       cy="0"
       r="1"
       gradientUnits="userSpaceOnUse"
       gradientTransform="matrix(27.999986,27.999976,-27.999986,27.999976,32.302392,33.999998)">
      <stop
         offset="0.60067803"
         stop-color="#B7C6CD"
         id="stop1054"
         style="stop-color:#384850;stop-opacity:1;" />
      <stop
         offset="0.876735"
         stop-color="#EFF2F6"
         id="stop1055" />
    </radialGradient>
    <linearGradient
       id="paint157_linear_890_11"
       x1="796.84485"
       y1="799.43359"
       x2="768.90088"
       y2="770.81476"
       gradientUnits="userSpaceOnUse"
       gradientTransform="matrix(1.1666666,0,0,1.1666668,-881.19764,-881.8333)">
      <stop
         offset="0.00000057"
         stop-color="#2E2E41"
         id="stop1056"
         style="stop-color:#495361;stop-opacity:1;" />
      <stop
         offset="0.711139"
         stop-color="#566C80"
         id="stop1057" />
    </linearGradient>
    <linearGradient
       id="paint158_linear_890_11"
       x1="792"
       y1="794"
       x2="774"
       y2="776"
       gradientUnits="userSpaceOnUse"
       gradientTransform="translate(-751,-696)">
      <stop
         offset="0.304478"
         stop-color="#2E2E41"
         id="stop1058" />
      <stop
         offset="1"
         stop-color="#566C80"
         id="stop1059" />
    </linearGradient>
    <linearGradient
       id="paint159_linear_890_11"
       x1="788"
       y1="790"
       x2="778"
       y2="780"
       gradientUnits="userSpaceOnUse"
       gradientTransform="translate(-751,-696)">
      <stop
         offset="0.391394"
         stop-color="#5200FF"
         id="stop1060" />
      <stop
         offset="1"
         stop-color="#0085FF"
         id="stop1061" />
    </linearGradient>
    <linearGradient
       id="paint160_linear_890_11"
       x1="784"
       y1="798"
       x2="782"
       y2="796"
       gradientUnits="userSpaceOnUse"
       gradientTransform="translate(-751,-696)">
      <stop
         stop-color="#FF7E07"
         id="stop1062" />
      <stop
         offset="1"
         stop-color="#FFE607"
         id="stop1063" />
    </linearGradient>
    <linearGradient
       inkscape:collect="always"
       xlink:href="#linearGradient1"
       id="linearGradient6"
       x1="17.408081"
       y1="16.037786"
       x2="49.155514"
       y2="50.137749"
       gradientUnits="userSpaceOnUse" />
    <radialGradient
       inkscape:collect="always"
       xlink:href="#linearGradient7"
       id="radialGradient9"
       cx="32.302387"
       cy="34"
       fx="32.302387"
       fy="34"
       r="28"
       gradientUnits="userSpaceOnUse"
       gradientTransform="matrix(0.99999999,1,-1,0.99999999,34,-32.302387)" />
  </defs>
  <sodipodi:namedview
     id="namedview7"
     pagecolor="#ffffff"
     bordercolor="#000000"
     borderopacity="0.25"
     inkscape:showpageshadow="2"
     inkscape:pageopacity="0.0"
     inkscape:pagecheckerboard="0"
     inkscape:deskcolor="#d1d1d1"
     inkscape:zoom="11.78125"
     inkscape:cx="31.448276"
     inkscape:cy="27.374005"
     inkscape:window-width="1920"
     inkscape:window-height="998"
     inkscape:window-x="0"
     inkscape:window-y="0"
     inkscape:window-maximized="1"
     inkscape:current-layer="svg7" />
  <g
     id="g1"
     transform="translate(-1.3023872,-3)">
    <path
       d="m 60.302387,34 c 0,15.46415 -12.535828,28 -28.000002,28 C 16.838222,62 4.3023873,49.46415 4.3023873,34 4.3023873,18.535835 16.838222,6 32.302385,6 47.766559,6 60.302387,18.535835 60.302387,34 Z"
       id="path154"
       style="fill:url(#radialGradient9)" />
    <path
       d="m 55.63572,34 c 0,12.88701 -10.446332,23.33332 -23.333335,23.33332 C 19.415386,57.33332 8.9690543,46.88701 8.9690543,34 c 0,-12.886994 10.4463317,-23.333332 23.3333307,-23.333332 12.887003,0 23.333335,10.446338 23.333335,23.333332 z"
       id="path155"
       style="fill:url(#linearGradient6)" />
  </g>
  <g
     id="surface1"
     transform="translate(-20.713528,36.533156)">
    <path
       style="fill:#00ccff;fill-opacity:1;fill-rule:nonzero;stroke:none;stroke-width:2.125"
       d="m 65.476218,-22.533162 c -1.660155,0 -2.996577,1.25341 -3.1875,2.855476 -2.100098,0.406726 -3.502923,1.934072 -4.449213,3.569334 -1.917486,-0.987794 -3.992661,-1.56885 -6.125977,-1.56885 -2.133313,0 -4.208492,0.581056 -6.125964,1.56885 -0.473164,-0.697278 -1.153824,-1.236826 -1.942406,-1.543941 -0.755363,-0.290539 -1.602047,-0.356949 -2.50682,-0.431651 -0.199231,-1.593742 -1.535653,-2.830569 -3.1875,-2.830569 -1.784665,0 -3.23731,1.452643 -3.23731,3.237311 0,1.78467 1.452645,3.237296 3.23731,3.237296 1.328116,0 2.52344,-0.813469 3.013174,-2.05028 0.87159,0.07469 1.59376,0.165998 2.100095,0.356931 0.456555,0.174312 0.805174,0.423343 1.112312,0.863283 -4.565423,3.013167 -7.844242,8.4833962 -7.844242,14.3354405 0,7.6450235 5.893553,12.4013695 15.381351,12.4013695 9.4878,0 15.381351,-4.756346 15.381351,-12.4013695 0,-5.8603507 -3.287108,-11.3554665 -7.869151,-14.3603485 0.771976,-1.369633 1.78467,-2.473638 3.262219,-2.789064 0.489743,1.228521 1.668453,2.025391 2.988271,2.025391 1.784668,0 3.23731,-1.452639 3.23731,-3.237299 0,-1.784665 -1.452642,-3.23731 -3.23731,-3.23731 z m -13.76269,12.949218 c 3.129396,0 5.669431,2.5400336 5.669431,5.6694342 0,3.1293946 -2.540035,5.6694361 -5.669431,5.6694361 -3.129396,0 -5.669428,-2.5400415 -5.669428,-5.6694361 0,-3.1294006 2.540032,-5.6694342 5.669428,-5.6694342 z m 0,3.2373122 c -1.37792,0 -2.432138,1.0541908 -2.432138,2.432122 0,1.377933 1.054218,2.4321289 2.432138,2.4321289 1.37792,0 2.432141,-1.0541959 2.432141,-2.4321289 v -0.1493818 c -0.166019,0.083044 -0.323733,0.1493818 -0.481452,0.1493818 -0.572769,0 -0.987796,-0.3984384 -0.987796,-0.9628924 0,-0.4067296 0.257319,-0.7470668 0.581049,-0.90479 -0.406745,-0.3237188 -0.979485,-0.5644396 -1.543942,-0.5644396 z M 57.631982,4.33646 c 0.323741,-0.033226 0.639163,0.1411624 0.788569,0.4233482 0.207535,0.3984308 0.06646,0.9047806 -0.332023,1.1123006 -0.116197,0.066376 -2.971688,1.5439484 -6.375,1.5439484 -3.403314,0 -6.258794,-1.4775474 -6.375,-1.5439484 C 44.940095,5.664586 44.798981,5.158239 45.006509,4.7598082 c 0.09961,-0.1826764 0.273916,-0.323733 0.481447,-0.390134 0.199215,-0.058112 0.423315,-0.033292 0.605935,0.066461 0.03315,0.015678 2.631356,1.3613334 5.619637,1.3613334 3.004882,0 5.594731,-1.3530318 5.619628,-1.3613334 0.09133,-0.058111 0.19087,-0.091357 0.298826,-0.099557 z m 0,0"
       id="path1" />
  </g>
</svg>
