<?xml version="1.0" encoding="UTF-8" standalone="no"?>
<svg
   width="62"
   height="62"
   version="1"
   id="svg7"
   sodipodi:docname="higan.svg"
   inkscape:version="1.4.1 (unknown)"
   xmlns:inkscape="http://www.inkscape.org/namespaces/inkscape"
   xmlns:sodipodi="http://sodipodi.sourceforge.net/DTD/sodipodi-0.dtd"
   xmlns:xlink="http://www.w3.org/1999/xlink"
   xmlns="http://www.w3.org/2000/svg"
   xmlns:svg="http://www.w3.org/2000/svg">
  <defs
     id="defs7">
    <linearGradient
       id="linearGradient7"
       inkscape:collect="always">
      <stop
         style="stop-color:#df1a1a;stop-opacity:1;"
         offset="0"
         id="stop8" />
      <stop
         style="stop-color:#df1a1a;stop-opacity:1;"
         offset="0.59162253"
         id="stop10" />
      <stop
         style="stop-color:#eff2f6;stop-opacity:1;"
         offset="0.77168155"
         id="stop11" />
      <stop
         style="stop-color:#eff2f6;stop-opacity:1;"
         offset="1"
         id="stop9" />
    </linearGradient>
    <linearGradient
       id="c-3"
       gradientUnits="userSpaceOnUse"
       x1="24.072048"
       x2="23.959682"
       y1="0.75082099"
       y2="46.056854">
      <stop
         offset="0"
         stop-color="#fff"
         id="stop3" />
      <stop
         offset="1"
         stop-color="#d9d9d9"
         id="stop4" />
    </linearGradient>
    <linearGradient
       id="b-6"
       gradientUnits="userSpaceOnUse"
       x1="29.203026"
       x2="34.121048"
       xlink:href="#a-7"
       y1="24.827356"
       y2="29.224836" />
    <linearGradient
       id="a-7">
      <stop
         offset="0"
         id="stop1" />
      <stop
         offset="1"
         stop-opacity="0"
         id="stop2" />
    </linearGradient>
    <linearGradient
       id="d"
       gradientUnits="userSpaceOnUse"
       x1="15.948756"
       x2="25.031786"
       xlink:href="#a-7"
       y1="23.618279"
       y2="33.69899" />
    <linearGradient
       id="e"
       gradientUnits="userSpaceOnUse"
       x1="21.990562"
       x2="29.320522"
       xlink:href="#a-7"
       y1="33.780373"
       y2="41.931858" />
    <linearGradient
       id="paint154_linear_890_11"
       x1="778"
       y1="812.29199"
       x2="788"
       y2="812.29199"
       gradientUnits="userSpaceOnUse"
       gradientTransform="translate(-751,-696)">
      <stop
         stop-color="#EFF2F6"
         id="stop1050" />
      <stop
         offset="0.600785"
         stop-color="#B7C6CD"
         id="stop1051" />
    </linearGradient>
    <linearGradient
       id="paint155_linear_890_11"
       x1="783"
       y1="813"
       x2="783"
       y2="817"
       gradientUnits="userSpaceOnUse"
       gradientTransform="translate(-751,-696)">
      <stop
         stop-color="#EFF2F6"
         id="stop1052" />
      <stop
         offset="0.734138"
         stop-color="#B7C6CD"
         id="stop1053" />
    </linearGradient>
    <radialGradient
       id="paint156_radial_890_11"
       cx="0"
       cy="0"
       r="1"
       gradientUnits="userSpaceOnUse"
       gradientTransform="matrix(27.999986,27.999976,-27.999986,27.999976,32.302392,33.999998)">
      <stop
         offset="0.60067803"
         stop-color="#B7C6CD"
         id="stop1054"
         style="stop-color:#384850;stop-opacity:1;" />
      <stop
         offset="0.876735"
         stop-color="#EFF2F6"
         id="stop1055" />
    </radialGradient>
    <linearGradient
       id="paint157_linear_890_11"
       x1="796.84485"
       y1="799.43359"
       x2="768.90088"
       y2="770.81476"
       gradientUnits="userSpaceOnUse"
       gradientTransform="matrix(1.1666666,0,0,1.1666668,-881.19764,-881.8333)">
      <stop
         offset="0.00000057"
         stop-color="#2E2E41"
         id="stop1056"
         style="stop-color:#495361;stop-opacity:1;" />
      <stop
         offset="0.711139"
         stop-color="#566C80"
         id="stop1057" />
    </linearGradient>
    <linearGradient
       id="paint158_linear_890_11"
       x1="792"
       y1="794"
       x2="774"
       y2="776"
       gradientUnits="userSpaceOnUse"
       gradientTransform="translate(-751,-696)">
      <stop
         offset="0.304478"
         stop-color="#2E2E41"
         id="stop1058" />
      <stop
         offset="1"
         stop-color="#566C80"
         id="stop1059" />
    </linearGradient>
    <linearGradient
       id="paint159_linear_890_11"
       x1="788"
       y1="790"
       x2="778"
       y2="780"
       gradientUnits="userSpaceOnUse"
       gradientTransform="translate(-751,-696)">
      <stop
         offset="0.391394"
         stop-color="#5200FF"
         id="stop1060" />
      <stop
         offset="1"
         stop-color="#0085FF"
         id="stop1061" />
    </linearGradient>
    <linearGradient
       id="paint160_linear_890_11"
       x1="784"
       y1="798"
       x2="782"
       y2="796"
       gradientUnits="userSpaceOnUse"
       gradientTransform="translate(-751,-696)">
      <stop
         stop-color="#FF7E07"
         id="stop1062" />
      <stop
         offset="1"
         stop-color="#FFE607"
         id="stop1063" />
    </linearGradient>
    <radialGradient
       inkscape:collect="always"
       xlink:href="#linearGradient7"
       id="radialGradient9"
       cx="32.302387"
       cy="34"
       fx="32.302387"
       fy="34"
       r="28"
       gradientUnits="userSpaceOnUse"
       gradientTransform="matrix(0.99999999,1,-1,0.99999999,34,-32.302387)" />
    <linearGradient
       id="b-2-5"
       y1="41.938999"
       y2="5.9780002"
       gradientUnits="userSpaceOnUse"
       x2="0"
       gradientTransform="matrix(0.89700557,0,0,0.88816458,9.7400586,9.697223)">
      <stop
         stop-color="#d35400"
         id="stop7-9-6"
         offset="0"
         style="stop-color:#ff8533;stop-opacity:1;" />
      <stop
         offset="1"
         stop-color="#f67400"
         stop-opacity=".941"
         id="stop9-1-2"
         style="stop-color:#ff9955;stop-opacity:1" />
    </linearGradient>
  </defs>
  <sodipodi:namedview
     id="namedview7"
     pagecolor="#ffffff"
     bordercolor="#000000"
     borderopacity="0.25"
     inkscape:showpageshadow="2"
     inkscape:pageopacity="0.0"
     inkscape:pagecheckerboard="0"
     inkscape:deskcolor="#d1d1d1"
     inkscape:zoom="8.3306018"
     inkscape:cx="35.171529"
     inkscape:cy="30.970152"
     inkscape:window-width="1920"
     inkscape:window-height="996"
     inkscape:window-x="0"
     inkscape:window-y="0"
     inkscape:window-maximized="1"
     inkscape:current-layer="svg7" />
  <g
     id="g1"
     transform="translate(-1.3023872,-2.5499585)">
    <path
       d="m 60.302387,34 c 0,15.46415 -12.535828,28 -28.000002,28 C 16.838222,62 4.3023873,49.46415 4.3023873,34 4.3023873,18.535835 16.838222,6 32.302385,6 47.766559,6 60.302387,18.535835 60.302387,34 Z"
       id="path154"
       style="fill:url(#radialGradient9)" />
  </g>
  <g
     id="g2"
     transform="translate(-2.789,-57.131985)">
    <path
       style="opacity:0.1"
       d="m 27.078016,65.008107 c -0.504503,0.04291 -0.814268,0.26495 -1.044922,0.677734 -0.299224,0.535502 -0.305424,0.729538 -0.03711,1.378906 1.208014,2.923582 1.247787,3.244455 1.353515,7.867188 0.224646,10.765338 0.560407,18.892825 -6.724609,28.589845 -1.715234,1.66785 -4.128909,3.14654 -6.560547,4.59766 a 28,28 0 0 0 3.558594,2.93163 c 6.215698,-2.71009 11.00073,-8.25206 13.679687,-15.169917 L 32.55653,93.29131 c 6.080642,8.68556 6.506242,12.23017 14.146485,18.6582 0.141286,0.11887 0.3143,0.22249 0.509765,0.31446 a 28,28 0 0 0 6.707032,-5.30274 C 46.719235,103.56453 41.15816,97.974369 36.00575,91.125294 l -2.511719,-3.222656 c 0.270458,-6.677298 -0.434595,-10.511436 0.964844,-17.580078 0.4347,-1.515715 0.442053,-1.681279 0.103516,-2.335938 -0.415297,-0.803098 -2.625141,-1.774917 -5.269531,-2.578125 -1.011213,-0.307146 -1.710342,-0.443305 -2.214844,-0.40039 z M 48.2245,72.043263 c -0.373513,-0.02702 -0.758263,9.75e-4 -1.15625,0.09375 -0.550524,0.128333 -0.732422,1.259019 -0.732422,1.779297 0,1.228813 -1.32849,2.990485 -5.267578,6.93164 -3.859761,3.86179 -4.18177,4.381111 -3.15039,5.103516 2.739394,0.6676 5.677984,-2.459071 8.333984,-3.482422 3.584832,-2.088656 4.579658,-2.349737 6.214844,-2.917969 1.511733,-0.52533 2.13185,-1.254604 1.886719,-2.214843 -1.494419,-2.220268 -3.514315,-5.103816 -6.128907,-5.292969 z m -33.408203,3.890625 c -0.576199,-0.02818 -0.90371,0.25921 -1.216797,0.853515 -0.22535,0.427764 -0.207588,0.743147 0.09375,1.650391 1.092285,2.962463 4.56778,7.485526 7.326172,7.642578 2.053589,0.116924 2.770599,-2.243883 2.238281,-4.65039 -0.47669,-1.140881 -3.454361,-3.270629 -5.736328,-4.449219 -1.303785,-0.673379 -2.128879,-1.018696 -2.705078,-1.046875 z"
       id="path2-3" />
    <path
       style="fill:#e5e5e5;fill-opacity:1"
       d="M 9.2780497,111.27975 C 8.914613,110.72508 8.9118018,110.62902 9.2441585,110.12178 12.84437,107.6209 17.72958,105.33561 20.624151,102.521 c 7.285016,-9.697021 6.949247,-17.824732 6.724601,-28.59007 -0.105728,-4.622733 -0.144111,-4.942938 -1.352125,-7.86652 -0.268315,-0.649369 -0.263274,-0.842622 0.03595,-1.378125 0.461307,-0.825567 1.237451,-0.891587 3.259877,-0.277293 2.64439,0.803208 4.855517,1.774611 5.270814,2.577709 0.338537,0.654659 0.331198,0.820274 -0.103502,2.335989 -1.399439,7.068642 -0.694905,10.90226 -0.965362,17.579558 l 2.510927,3.221997 c 5.993879,7.967636 12.534578,14.243385 21.574318,17.328515 2.091526,0.76403 4.194554,1.1284 3.73336,3.02402 -0.585949,0.78883 -2.087862,1.08913 -6.462557,1.29214 -3.880126,0.18006 -6.977493,0.16485 -8.147627,-0.81963 -7.640243,-6.42804 -8.06515,-9.97189 -14.145792,-18.657441 l -1.253754,2.58801 C 27.763,104.0219 20.549912,110.77447 11.208942,111.74197 9.7339022,111.87905 9.6589787,111.86112 9.2780469,111.27975 Z M 37.918476,84.951891 c -1.03138,-0.722405 -0.710394,-1.242652 3.149367,-5.104442 3.939088,-3.941155 5.268754,-5.702809 5.268754,-6.931622 0,-0.520278 0.181064,-1.651703 0.731588,-1.780036 3.183894,-0.742197 5.578179,2.662477 7.286086,5.199926 0.245131,0.960239 -0.376571,1.689417 -1.888304,2.214747 -1.635186,0.568232 -2.630173,0.830011 -6.215005,2.918667 -2.656,1.023351 -5.593092,4.15036 -8.332486,3.48276 z m -24.22566,-7.513943 c -0.301338,-0.907244 -0.31928,-1.222451 -0.09393,-1.650214 0.626173,-1.188612 1.314096,-1.15497 3.921666,0.191788 2.281967,1.17859 5.259957,3.309114 5.736647,4.449995 0.532318,2.406507 -0.183371,4.767484 -2.23696,4.65056 -2.758392,-0.157052 -6.235142,-4.679666 -7.327427,-7.642129 z"
       id="path3-6" />
  </g>
</svg>
