<?xml version="1.0" encoding="UTF-8" standalone="no"?>
<svg
   width="62"
   height="62"
   version="1.1"
   id="svg4"
   sodipodi:docname="hook.svg"
   inkscape:version="1.4.2 (unknown)"
   xmlns:inkscape="http://www.inkscape.org/namespaces/inkscape"
   xmlns:sodipodi="http://sodipodi.sourceforge.net/DTD/sodipodi-0.dtd"
   xmlns="http://www.w3.org/2000/svg"
   xmlns:svg="http://www.w3.org/2000/svg">
  <defs
     id="defs4" />
  <sodipodi:namedview
     id="namedview4"
     pagecolor="#ffffff"
     bordercolor="#000000"
     borderopacity="0.25"
     inkscape:showpageshadow="2"
     inkscape:pageopacity="0.0"
     inkscape:pagecheckerboard="0"
     inkscape:deskcolor="#d1d1d1"
     inkscape:zoom="11.921875"
     inkscape:cx="32"
     inkscape:cy="32"
     inkscape:current-layer="svg4" />
  <g
     id="g4"
     transform="translate(0.5)">
    <ellipse
       style="opacity:0.2;stroke-width:0.965215"
       cx="30.5"
       cy="31.482758"
       id="circle1"
       rx="27.5"
       ry="27.517242" />
    <ellipse
       style="fill:#373e48;stroke-width:0.965215"
       cx="30.5"
       cy="30.517242"
       id="circle2"
       rx="27.5"
       ry="27.517242" />
    <path
       style="opacity:0.2;stroke-width:0.965215"
       d="m 7.8245601,23.275857 v 6.758619 H 3.0716143 A 27.499993,27.517235 0 0 0 3,31.482753 27.499993,27.517235 0 0 0 3.05277,32.93103 h 4.7717916 v 6.758619 H 10.719297 V 23.275857 Z m 13.0263099,0 c -4.529702,0 -8.201746,3.674355 -8.201746,8.206896 0,4.532541 3.672044,8.206896 8.201746,8.206896 4.529708,0 8.201753,-3.674355 8.201753,-8.206896 0,-4.532541 -3.672045,-8.206896 -8.201753,-8.206896 z m 18.333333,0 c -4.529701,0 -8.201754,3.674355 -8.201754,8.206896 0,4.532541 3.672053,8.206896 8.201754,8.206896 4.5297,0 8.201753,-3.674355 8.201753,-8.206896 0,-4.532541 -3.672053,-8.206896 -8.201753,-8.206896 z m 10.131572,0 v 16.413792 h 2.89474 V 34.00026 l 4.913136,4.235455 a 27.499993,27.517235 0 0 0 0.621917,-3.228449 l -4.278029,-3.494341 4.206415,-4.103445 a 27.499993,27.517235 0 0 0 -0.650189,-3.166216 l -4.81325,4.799292 v -5.766699 z m -9.971379,2.574089 c 3.019801,0 5.469085,2.45082 5.469085,5.472514 0,3.021695 -2.449284,5.470635 -5.469085,5.470635 -3.01981,0 -5.467207,-2.44894 -5.467207,-5.470635 0,-3.021694 2.447397,-5.472514 5.467207,-5.472514 z M 20.85087,26.172412 c 2.930985,0 5.307022,2.377518 5.307022,5.310341 0,2.932822 -2.376037,5.310342 -5.307022,5.310342 -2.930978,0 -5.307015,-2.37752 -5.307015,-5.310342 0,-2.932823 2.376037,-5.310341 5.307015,-5.310341 z"
       id="path2" />
    <path
       style="fill:#ffffff;stroke-width:0.965215"
       d="m 7.8245601,22.310339 v 6.758619 H 3.0716143 A 27.499993,27.517235 0 0 0 3,30.517235 27.499993,27.517235 0 0 0 3.05277,31.965513 h 4.7717916 v 6.758618 H 10.719297 V 22.310339 Z m 13.0263099,0 c -4.529702,0 -8.201746,3.674355 -8.201746,8.206896 0,4.532541 3.672044,8.206896 8.201746,8.206896 4.529708,0 8.201753,-3.674355 8.201753,-8.206896 0,-4.532541 -3.672045,-8.206896 -8.201753,-8.206896 z m 18.333333,0 c -4.529701,0 -8.201754,3.674355 -8.201754,8.206896 0,4.532541 3.672053,8.206896 8.201754,8.206896 4.5297,0 8.201753,-3.674355 8.201753,-8.206896 0,-4.532541 -3.672053,-8.206896 -8.201753,-8.206896 z m 10.131572,0 v 16.413792 h 2.89474 V 33.03475 l 4.913136,4.235446 a 27.499993,27.517235 0 0 0 0.621917,-3.228448 l -4.278029,-3.494342 4.206415,-4.103443 a 27.499993,27.517235 0 0 0 -0.650189,-3.166218 l -4.81325,4.7993 v -5.766706 z m -9.971379,2.574088 c 3.019801,0 5.469085,2.45082 5.469085,5.472515 0,3.021695 -2.449284,5.470635 -5.469085,5.470635 -3.01981,0 -5.467207,-2.44894 -5.467207,-5.470635 0,-3.021695 2.447397,-5.472515 5.467207,-5.472515 z M 20.85087,25.206893 c 2.930985,0 5.307022,2.377519 5.307022,5.310342 0,2.932822 -2.376037,5.310342 -5.307022,5.310342 -2.930978,0 -5.307015,-2.37752 -5.307015,-5.310342 0,-2.932823 2.376037,-5.310342 5.307015,-5.310342 z"
       id="path3" />
    <path
       style="opacity:0.1;fill:#ffffff;stroke-width:0.965215"
       d="M 30.499993,3 A 27.499993,27.517235 0 0 0 3,30.517235 27.499993,27.517235 0 0 0 3.0207309,31.0792 27.499993,27.517235 0 0 1 30.499993,3.9655174 27.499993,27.517235 0 0 1 57.979255,30.920789 27.499993,27.517235 0 0 0 57.999986,30.517235 27.499993,27.517235 0 0 0 30.499993,3 Z"
       id="path4" />
  </g>
</svg>
