<?xml version="1.0" encoding="UTF-8" standalone="no"?>
<svg
   width="62"
   height="62"
   version="1.1"
   id="svg29"
   sodipodi:docname="houdini.svg"
   inkscape:version="1.4.1 (unknown)"
   xmlns:inkscape="http://www.inkscape.org/namespaces/inkscape"
   xmlns:sodipodi="http://sodipodi.sourceforge.net/DTD/sodipodi-0.dtd"
   xmlns="http://www.w3.org/2000/svg"
   xmlns:svg="http://www.w3.org/2000/svg">
  <defs
     id="defs29" />
  <sodipodi:namedview
     id="namedview29"
     pagecolor="#ffffff"
     bordercolor="#000000"
     borderopacity="0.25"
     inkscape:showpageshadow="2"
     inkscape:pageopacity="0.0"
     inkscape:pagecheckerboard="0"
     inkscape:deskcolor="#d1d1d1"
     inkscape:zoom="7.0710678"
     inkscape:cx="17.324116"
     inkscape:cy="43.274935"
     inkscape:window-width="1920"
     inkscape:window-height="996"
     inkscape:window-x="0"
     inkscape:window-y="0"
     inkscape:window-maximized="1"
     inkscape:current-layer="svg29" />
  <rect
     style="opacity:0.2;stroke-width:0.9823"
     width="55"
     height="55.017544"
     x="3.5"
     y="3.9824562"
     ry="13.754386"
     id="rect1" />
  <rect
     style="fill:#ff751a;stroke-width:0.9823;fill-opacity:1"
     width="55"
     height="55.017544"
     x="3.5"
     y="3"
     ry="13.754386"
     id="rect2" />
  <path
     style="opacity:0.1;fill:#ffffff;stroke-width:0.9823"
     d="M 17.25,3 C 9.6324999,3 3.4999999,9.1344561 3.4999999,16.754386 v 0.982456 c 0,-7.61993 6.1325,-13.7543858 13.7500001,-13.7543858 h 27.5 c 7.6175,0 13.75,6.1344558 13.75,13.7543858 V 16.754386 C 58.5,9.1344561 52.3675,3 44.75,3 Z"
     id="path28" />
  <g
     id="g1"
     transform="matrix(1.0005389,0,0,0.99998135,-3.0016168,-49.998601)">
    <path
       style="opacity:0.2"
       d="m 16.873047,76.000691 c -1.025493,-0.0071 -2.054326,0.04046 -2.8125,0.144531 -3.178742,0.436332 -6.1085407,1.487941 -9.0781251,3.240235 v 5.179687 c 2.9770903,-2.665273 6.9804271,-4.418986 11.2128911,-4.564453 0.338126,-0.01162 0.666159,-0.01351 0.986328,-0.0039 2.241179,0.06713 4.073844,0.639776 5.927734,1.535156 3.723927,1.798554 6.454114,5.220839 7.453125,9.341797 1.151262,4.748978 0.07796,9.845576 -2.707031,12.863286 -2.120746,2.29792 -5.975288,3.61339 -9.644531,3.29296 -2.26446,-0.19776 -4.536787,-0.95615 -6.197266,-2.07226 -0.686715,-0.46159 -1.847919,-1.58834 -2.3457032,-2.27539 -1.4287739,-1.972 -2.0865067,-4.050147 -1.9023438,-6.013674 0.3250433,-3.465508 2.946219,-6.269663 7.136719,-7.289063 1.205668,-0.293301 2.635595,-0.418322 3.345703,-0.291015 2.047328,0.367042 3.625615,2.49691 3.619141,4.625 -0.002,0.646674 -0.02426,0.720526 -0.394532,1.46875 -0.913094,1.845176 -2.994372,3.042192 -4.375445,2.654297 -0.824064,-0.23146 -1.487341,-1.350636 -1.683594,-2.530546 -0.111483,-0.6702 -0.244648,-0.972704 -0.505859,-1.15625 -0.860874,-0.604885 -2.33591,0.939955 -2.71875,2.845703 -0.327657,1.63109 -0.05727,2.975413 0.914062,4.053988 0.664112,0.73742 1.951972,1.47174 3.173829,1.81054 0.569736,0.15798 0.857815,0.18164 2.210937,0.18164 1.754196,0 2.527781,-0.10639 3.67232,-0.65039 2.296759,-1.09164 4.110821,-3.545795 4.88086,-6.601561 0.85444,-3.390706 0.02175,-6.4281 -2.382813,-8.699218 -1.572687,-1.485385 -3.661837,-2.448222 -6.380859,-2.939459 -3.251077,-0.523404 -6.64931,0.348416 -9.0449221,1.916015 C 4.7814823,89.022746 3.169167,91.664724 3,97.000691 3.0251201,106.78489 9.9824219,112.00069 18.453125,112.00069 31.384815,111.76557 36.222548,103.69877 36.94336,95.1003 37.199703,91.156865 36.181486,87.234365 33.546875,83.91866 32.742691,82.906576 31.031794,81.263096 29.9375,80.447957 26.919441,78.199764 23.471018,76.766484 19.669922,76.184285 18.920941,76.069566 17.898539,76.007801 16.873047,76.000691 Z"
       id="path4" />
    <path
       style="fill:#ffe7d6;fill-opacity:1"
       d="m 16.873047,75.000691 c -1.025493,-0.0071 -2.054326,0.04046 -2.8125,0.144531 -3.178742,0.436332 -6.1085407,1.487941 -9.0781251,3.240235 v 5.179687 c 2.9770903,-2.665273 6.9804271,-4.418986 11.2128911,-4.564453 0.338126,-0.01162 0.666159,-0.01351 0.986328,-0.0039 2.241179,0.06713 4.073844,0.639776 5.927734,1.535156 3.723927,1.798554 6.454114,5.220839 7.453125,9.341797 1.151262,4.748978 0.07796,9.84558 -2.707031,12.863286 -2.120746,2.29792 -5.975288,3.61339 -9.644531,3.29296 -2.26446,-0.19776 -4.536787,-0.95615 -6.197266,-2.07226 -0.686715,-0.46159 -1.847919,-1.58834 -2.3457032,-2.27539 -1.4287739,-1.972005 -2.0865067,-4.050147 -1.9023438,-6.013674 0.3250433,-3.465508 2.946219,-6.269663 7.136719,-7.289063 1.205668,-0.293301 2.635595,-0.418322 3.345703,-0.291015 2.047328,0.367042 3.625615,2.49691 3.619141,4.625 -0.002,0.646674 -0.02426,0.720526 -0.394532,1.46875 -0.913094,1.845176 -2.994372,3.042192 -4.375445,2.654297 -0.824064,-0.23146 -1.487341,-1.350636 -1.683594,-2.530546 -0.111483,-0.6702 -0.244648,-0.972704 -0.505859,-1.15625 -0.860874,-0.604885 -2.33591,0.939955 -2.71875,2.845703 -0.327657,1.63109 -0.05727,2.975413 0.914062,4.053988 0.664112,0.73742 1.951972,1.47174 3.173829,1.81054 0.569736,0.15798 0.857815,0.18164 2.210937,0.18164 1.754196,0 2.527781,-0.10639 3.67232,-0.65039 2.296759,-1.09164 4.110821,-3.545795 4.88086,-6.601561 0.85444,-3.390706 0.02175,-6.4281 -2.382813,-8.699218 -1.572687,-1.485385 -3.661837,-2.448222 -6.380859,-2.939459 -3.251077,-0.523404 -6.64931,0.348416 -9.0449221,1.916015 C 4.7814823,88.022746 3.169167,90.664724 3,96.000691 3.0251201,105.78489 9.9824219,111.00069 18.453125,111.00069 31.384815,110.76557 36.222548,102.69877 36.94336,94.1003 37.199703,90.156865 36.181486,86.234365 33.546875,82.91866 32.742691,81.906576 31.031794,80.263096 29.9375,79.447957 26.919441,77.199764 23.471018,75.766484 19.669922,75.184285 18.920941,75.069566 17.898539,75.007801 16.873047,75.000691 Z"
       id="path5" />
  </g>
</svg>
