<?xml version="1.0" encoding="UTF-8" standalone="no"?>
<svg
   width="62"
   height="62"
   version="1.1"
   id="svg29"
   sodipodi:docname="hulu.svg"
   inkscape:version="1.4.1 (unknown)"
   xmlns:inkscape="http://www.inkscape.org/namespaces/inkscape"
   xmlns:sodipodi="http://sodipodi.sourceforge.net/DTD/sodipodi-0.dtd"
   xmlns="http://www.w3.org/2000/svg"
   xmlns:svg="http://www.w3.org/2000/svg">
  <defs
     id="defs29" />
  <sodipodi:namedview
     id="namedview29"
     pagecolor="#ffffff"
     bordercolor="#000000"
     borderopacity="0.25"
     inkscape:showpageshadow="2"
     inkscape:pageopacity="0.0"
     inkscape:pagecheckerboard="0"
     inkscape:deskcolor="#d1d1d1"
     inkscape:zoom="7.0710678"
     inkscape:cx="17.324116"
     inkscape:cy="54.588644"
     inkscape:window-width="1920"
     inkscape:window-height="996"
     inkscape:window-x="0"
     inkscape:window-y="0"
     inkscape:window-maximized="1"
     inkscape:current-layer="svg29" />
  <rect
     style="opacity:0.2;stroke-width:0.9823"
     width="55"
     height="55.017544"
     x="3.5"
     y="3.9824562"
     ry="13.754386"
     id="rect1" />
  <rect
     style="fill:#37c871;stroke-width:0.9823;fill-opacity:1"
     width="55"
     height="55.017544"
     x="3.5"
     y="3"
     ry="13.754386"
     id="rect2" />
  <path
     style="opacity:0.1;fill:#ffffff;stroke-width:0.9823"
     d="M 17.25,3 C 9.6324999,3 3.4999999,9.1344561 3.4999999,16.754386 v 0.982456 c 0,-7.61993 6.1325,-13.7543858 13.7500001,-13.7543858 h 27.5 c 7.6175,0 13.75,6.1344558 13.75,13.7543858 V 16.754386 C 58.5,9.1344561 52.3675,3 44.75,3 Z"
     id="path28" />
  <g
     id="g1"
     transform="translate(13.5,-46)">
    <path
       style="opacity:0.2"
       d="M -7,69 V 77.300781 86 h 4 V 78.085938 C -2.477678,78.013598 -1.689687,78 -1,78 c 0.689687,0 1.477678,0.0136 2,0.08594 V 86 H 5 V 77.300781 C 5,76.331733 4.379603,75.33597 3.726562,74.875 3.073524,74.41403 2.454481,74.264096 1.882812,74.160156 0.739476,73.952276 -0.347619,74 -1,74 c -0.475152,0 -1.209869,0.0076 -2,0.07422 V 69 Z m 30,0 v 17 h 4 V 69 Z M 8,73.994141 v 8.701171 c 0,0.969049 0.622351,1.966765 1.275391,2.427735 0.65304,0.460969 1.270128,0.610904 1.841797,0.714844 1.143336,0.207879 2.230431,0.15625 2.882812,0.15625 0.652381,0 1.739476,0.05163 2.882812,-0.15625 0.571669,-0.10394 1.188757,-0.253875 1.841797,-0.714844 C 19.377649,84.662077 20,83.664361 20,82.695312 v -8.701171 h -4 v 7.916015 c -0.522322,0.0724 -1.310315,0.08398 -2,0.08398 -0.689685,0 -1.477678,-0.01158 -2,-0.08398 v -7.916015 z m 22,0 v 8.701171 c 0,0.969049 0.622351,1.966765 1.275391,2.427735 0.65304,0.460969 1.270127,0.610904 1.841797,0.714844 1.143335,0.207879 2.230431,0.15625 2.882812,0.15625 0.652381,0 1.739477,0.05163 2.882812,-0.15625 0.571669,-0.10394 1.188757,-0.253875 1.841797,-0.714844 C 41.377649,84.662077 42,83.664361 42,82.695312 v -8.701171 h -4 v 7.916015 c -0.522322,0.0724 -1.310315,0.08398 -2,0.08398 -0.689685,0 -1.477678,-0.01158 -2,-0.08398 v -7.916015 z"
       id="path2" />
    <path
       style="fill:#ffffff"
       d="m 23,68 h 4 v 17 h -4 z"
       id="path3" />
    <path
       style="fill:#ffffff"
       d="M -7,68 V 76.300782 85 h 4 V 77.085938 C -2.477678,77.013598 -1.689687,77 -1,77 c 0.689687,0 1.477678,0.0136 2,0.08594 V 85 H 5 V 76.300782 C 5,75.331734 4.379603,74.33597 3.726562,73.875 3.073523,73.41403 2.454481,73.264096 1.882812,73.160156 0.739476,72.952276 -0.347619,73 -1,73 c -0.475152,0 -1.209869,0.0076 -2,0.07422 V 68 Z"
       id="path4-3" />
    <path
       style="fill:none;stroke:#ffffff;stroke-width:4"
       d="m 10,72.99457 v 8.7 c 0,1.4 2.6,1.3 4,1.3 1.4,0 4,0.1 4,-1.3 v -8.7"
       id="path5-6" />
    <path
       style="fill:none;stroke:#ffffff;stroke-width:4"
       d="m 32,72.99457 v 8.7 c 0,1.4 2.6,1.3 4,1.3 1.4,0 4,0.1 4,-1.3 v -8.7"
       id="path6" />
  </g>
</svg>
