<?xml version="1.0" encoding="UTF-8" standalone="no"?>
<svg
   width="62"
   height="62"
   version="1.1"
   id="svg29"
   sodipodi:docname="hypnotix.svg"
   inkscape:version="1.4.1 (unknown)"
   xmlns:inkscape="http://www.inkscape.org/namespaces/inkscape"
   xmlns:sodipodi="http://sodipodi.sourceforge.net/DTD/sodipodi-0.dtd"
   xmlns="http://www.w3.org/2000/svg"
   xmlns:svg="http://www.w3.org/2000/svg">
  <defs
     id="defs29">
    <linearGradient
       id="paint0_linear_80_232"
       x1="4"
       y1="32"
       x2="43.5"
       y2="32"
       gradientUnits="userSpaceOnUse"
       gradientTransform="translate(-15,57)">
      <stop
         stop-color="#5558FF"
         id="stop2" />
      <stop
         offset="1"
         stop-color="#00C0FF"
         id="stop3" />
    </linearGradient>
    <linearGradient
       id="paint1_linear_80_232"
       x1="23"
       y1="32"
       x2="39.916698"
       y2="32"
       gradientUnits="userSpaceOnUse"
       gradientTransform="translate(-15,57)">
      <stop
         stop-color="#5558FF"
         id="stop4" />
      <stop
         offset="1"
         stop-color="#00C0FF"
         id="stop5" />
    </linearGradient>
  </defs>
  <sodipodi:namedview
     id="namedview29"
     pagecolor="#ffffff"
     bordercolor="#000000"
     borderopacity="0.25"
     inkscape:showpageshadow="2"
     inkscape:pageopacity="0.0"
     inkscape:pagecheckerboard="0"
     inkscape:deskcolor="#d1d1d1"
     inkscape:zoom="7.0710678"
     inkscape:cx="21.8496"
     inkscape:cy="27.294322"
     inkscape:window-width="1920"
     inkscape:window-height="996"
     inkscape:window-x="0"
     inkscape:window-y="0"
     inkscape:window-maximized="1"
     inkscape:current-layer="svg29" />
  <rect
     style="opacity:0.2;stroke-width:0.9823"
     width="55"
     height="55.017544"
     x="3.5"
     y="3.9824562"
     ry="13.754386"
     id="rect1" />
  <rect
     style="fill:#5599ff;stroke-width:0.9823;fill-opacity:1"
     width="55"
     height="55.017544"
     x="3.5"
     y="3"
     ry="13.754386"
     id="rect2" />
  <path
     style="opacity:0.1;fill:#ffffff;stroke-width:0.9823"
     d="M 17.25,3 C 9.6324999,3 3.4999999,9.1344561 3.4999999,16.754386 v 0.982456 c 0,-7.61993 6.1325,-13.7543858 13.7500001,-13.7543858 h 27.5 c 7.6175,0 13.75,6.1344558 13.75,13.7543858 V 16.754386 C 58.5,9.1344561 52.3675,3 44.75,3 Z"
     id="path28" />
  <g
     id="g1"
     transform="matrix(0.98214286,0,0,1,14.303571,-58.029114)">
    <path
       opacity="0.4"
       fill-rule="evenodd"
       clip-rule="evenodd"
       d="m -6.8385827,65.964366 c 1.1324372,1.439177 0,0 0,0 v 0 c 0.9628072,1.596847 0,0 0,0 0.80962,3.69414 3.2343827,9.345934 7.4568827,14.061734 0.2853,0.3186 0.345,0.7797 0.1592,1.165 C -0.3616,83.5532 -1,86.202 -1,89 c 0,0.2663 0.0058,0.5313 0.0172,0.7947 0.0356,0.8182 -0.828,1.4245 -1.5427,1.0247 -3.47806,-1.9456 -6.92987,-4.2656 -8.24537,-5.6743 C -10.92593,84.9791 -11,84.7582 -11,84.531 V 74.200114 c 0,-1.9756 2.2812773,-6.234028 4.1614173,-8.235748 z M 2.102,99.1051 C 1.8665,98.7586 1.4498,98.5788 1.0382,98.6561 -2.7295,99.3634 -7.18606,99.6146 -9.9305,99.5498 -10.50985,99.5361 -11,99.9949 -11,100.5744 c 0,3.12278 0.08882,4.0025 0.407273,5.2256 0.6042762,2.32089 1.7019449,4.53555 3.407808,5.94631 1.475181,-0.9215 0,0 0,0 l 0.8296039,0.79402 v 0 c 0,0 10.3597151,-2.68743 15.2547151,-5.75273 0.6728,-0.4212 0.5594,-1.4194 -0.1459,-1.7836 -2.6794,-1.3834 -4.9668,-3.4199 -6.6515,-5.8989 z m 16.1537,7.8518 c -0.4436,0.0305 -0.8248,0.3326 -0.9517,0.7587 -0.959,3.2197 -3.6605,5.79295 -3.6605,8.1638 v 0.16726 c 0,-0.16726 1.2296,0 1.2296,0 h 10.8462 1.4975 c 0.7842,-3.0153 1.2358,-7.58216 1.0965,-11.15386 -0.0305,-0.7822 -0.9315,-1.1659 -1.5898,-0.7425 -2.4737,1.5909 -5.3625,2.5926 -8.4678,2.8066 z M 33.2059,96.8434 c -0.1926,0.397 -0.1244,0.8729 0.178,1.1943 3.7686,4.0052 7.461415,9.30612 8.154515,13.32702 0.0437,0.2536 0.244713,2.56493 0.220485,2.31098 l -0.220485,-2.31098 c -0.009,-0.0939 -0.823614,-2.72037 0,0 C 41.907135,110.95636 45,107.62055 45,103.00011 V 93.5297 c 0,-0.2637 -0.1029,-0.5173 -0.2928,-0.7003 -2.1416,-2.0637 -5.3134,-4.1479 -8.2298,-5.6956 -0.7079,-0.3757 -1.5335,0.225 -1.4967,1.0255 C 34.9935,88.438 35,88.7182 35,89 c 0,2.8116 -0.6447,5.4726 -1.7941,7.8434 z M 31.8953,78.8909 c 0.2332,0.3429 0.6441,0.5231 1.0519,0.4484 3.6519,-0.669 8.017,-1.0918 10.9123,-0.9308 C 44.4649,78.4422 45,77.9734 45,77.367 v -2.966886 c 0,-4.5657 -4.309571,-8.584228 -4.309571,-8.584228 -2.018656,0.428423 -0.0038,0.0035 -0.0038,0.0035 l 0.0037,-0.0038 c -1.848834,0.625216 0.164154,-2.32e-4 -0.01075,-0.0029 C 34.362366,65.716756 30.1167,68.1077 25.1805,71.2003 c -0.6839,0.4285 -0.5805,1.4581 0.135,1.8314 2.6482,1.3819 4.9097,3.4033 6.5798,5.8592 z M 15.6935,71.0467 c 0.4192,-0.03 0.7851,-0.3025 0.921,-0.7002 0.9487,-2.7757 2.1773,-5.65083 3.2756,-7.6396 0.4002,-0.72474 0.8279,-0.700102 0,-0.699786 L 8.213078,62.01157 6.818,62.075114 c -0.4169,2.023 -1.4535,7.278186 -1.1504,11.188086 0.057,0.7352 0.8978,1.0496 1.5154,0.647 2.4809,-1.6173 5.3853,-2.6394 8.5105,-2.8635 z"
       fill="url(#paint0_linear_80_232)"
       id="path1"
       style="opacity:1;fill:#ffffff;fill-opacity:1"
       sodipodi:nodetypes="csccccscccssccccsscscccccccsccscsccccsssccscccsccccsscsccccccccsccccc" />
    <path
       d="M 13.9426,99.6986 C 11.2764,101.1798 8,99.2519 8,96.2019 V 81.7981 c 0,-3.05 3.2764,-4.9779 5.9426,-3.4967 l 12.9635,7.202 c 2.7432,1.524 2.7432,5.4692 0,6.9932 z"
       fill="url(#paint1_linear_80_232)"
       id="path2-5"
       style="fill:#ffffff;fill-opacity:1" />
  </g>
</svg>
