<?xml version="1.0" encoding="UTF-8" standalone="no"?>
<svg
   width="62"
   height="62"
   version="1"
   id="svg7"
   sodipodi:docname="imperator-rome.svg"
   inkscape:version="1.4.2 (unknown)"
   xmlns:inkscape="http://www.inkscape.org/namespaces/inkscape"
   xmlns:sodipodi="http://sodipodi.sourceforge.net/DTD/sodipodi-0.dtd"
   xmlns="http://www.w3.org/2000/svg"
   xmlns:svg="http://www.w3.org/2000/svg">
  <defs
     id="defs7" />
  <sodipodi:namedview
     id="namedview7"
     pagecolor="#ffffff"
     bordercolor="#000000"
     borderopacity="0.25"
     inkscape:showpageshadow="2"
     inkscape:pageopacity="0.0"
     inkscape:pagecheckerboard="0"
     inkscape:deskcolor="#d1d1d1"
     inkscape:zoom="5.9609375"
     inkscape:cx="20.214941"
     inkscape:cy="36.31979"
     inkscape:current-layer="svg7" />
  <g
     id="g7">
    <circle
       style="opacity:0.2;stroke-width:0.967511"
       cx="30.99297"
       cy="32.057926"
       r="27.090427"
       id="circle1" />
    <circle
       style="fill:#373e48;stroke-width:0.967511"
       cx="30.99297"
       cy="31.090427"
       r="27.090427"
       id="circle2" />
    <path
       style="opacity:0.1;fill:#ffffff;stroke-width:0.967511"
       d="M 30.992972,4 A 27.090425,27.090425 0 0 0 3.9025455,31.090425 27.090425,27.090425 0 0 0 3.9233319,31.65732 27.090425,27.090425 0 0 1 30.992972,4.967515 27.090425,27.090425 0 0 1 58.062611,31.491037 27.090425,27.090425 0 0 0 58.083394,31.090425 27.090425,27.090425 0 0 0 30.992972,4 Z"
       id="path2" />
    <path
       style="opacity:0.2;stroke-width:0.967511"
       d="m 26.261048,10.776371 c 0.04315,-0.0054 0.07002,-0.0054 0.07681,0.0011 0.107753,0.09086 -1.587694,1.842019 -2.147396,2.217973 -0.328142,0.220428 -0.897563,0.489459 -1.265391,0.597965 -0.363815,0.107302 -0.876144,0.197405 -1.148324,0.202608 -0.545823,0.315043 -1.309611,0.74676 -2.200454,1.246402 0.683347,-0.153304 1.474871,-0.224478 2.144486,-0.166708 0.935738,0.08089 3.117692,0.614011 3.372531,0.824164 0.0663,0.05462 -0.443097,0.142669 -1.131854,0.195325 -0.688757,0.05269 -1.659662,0.142671 -2.15764,0.199686 -0.974471,0.111767 -3.152599,0.06818 -3.58399,-0.07159 -0.08669,-0.02796 -0.148359,-0.0573 -0.189496,-0.08892 -0.709758,0.439759 -1.388441,0.914862 -2.032528,1.422503 0.928035,-0.346617 2.026449,-0.501636 3.421197,-0.499587 1.570239,0.0018 1.951492,0.127224 1.138455,0.372882 -0.3104,0.0937 -1.209682,0.430089 -1.998152,0.747176 -0.788449,0.317105 -1.841102,0.646606 -2.339076,0.732309 -0.497972,0.08569 -1.275056,0.161216 -1.727066,0.168082 l -0.225347,0.0034 c -0.174963,0.173846 -0.34692,0.349812 -0.513979,0.529363 -0.441667,0.463741 -0.853268,0.947129 -1.237592,1.445721 0.509594,-0.342647 1.111562,-0.644172 1.769859,-0.876446 1.103509,-0.389349 3.006254,-0.80078 3.148665,-0.680749 0.0282,0.02385 -0.437114,0.371252 -1.034187,0.772239 -0.597087,0.400999 -1.458985,0.987522 -1.915463,1.303418 -0.832554,0.576133 -2.420217,1.37821 -2.957335,1.494012 -0.167157,0.03606 -0.29377,0.05749 -0.39509,0.06577 -0.461317,0.810235 -0.855667,1.648685 -1.1790567,2.507697 0.1768217,-0.20932 0.3917417,-0.42223 0.6782407,-0.678204 0.757337,-0.676678 1.294154,-1.00758 2.485052,-1.532508 0.835439,-0.368246 1.518907,-0.621126 1.518907,-0.562045 0,0.05907 -0.224447,0.306182 -0.498984,0.548969 -0.548833,0.485371 -1.310607,1.41261 -1.755598,2.137018 -0.325466,0.529839 -1.601455,1.604971 -2.4960265,2.103243 -0.3007905,0.167588 -0.4991996,0.267749 -0.6237346,0.299544 -0.2667879,1.19552 -0.4010098,2.412924 -0.4013091,3.630676 0.086163,-0.472951 0.2276616,-0.972495 0.4155773,-1.39309 0.3478669,-0.778622 0.5759041,-1.051619 1.5430509,-1.844373 0.6243,-0.511746 1.303771,-1.073347 1.509757,-1.248223 l 0.374608,-0.318016 -0.11011,0.318049 c -1.090277,3.149694 -1.749057,4.394219 -2.973061,5.617731 -0.4666436,0.466436 -0.5900047,0.579904 -0.6804366,0.480707 0.036432,0.365964 0.083887,0.731328 0.1456062,1.094992 0.1173018,0.737321 0.2909273,1.465837 0.5132517,2.182402 -0.021478,-0.653592 0.091272,-1.354944 0.3416833,-1.935141 0.2807594,-0.650481 2.0999684,-3.188464 2.2128764,-3.08717 0.10152,0.09102 -0.244538,4.223346 -0.398748,4.761622 -0.196231,0.684974 -0.787958,1.768011 -1.152351,2.10906 -0.09542,0.08926 -0.172107,0.151944 -0.222058,0.187343 0.486523,1.057344 1.084799,2.076093 1.781936,3.042517 -0.245328,-0.865728 -0.300753,-1.940242 -0.09362,-2.926695 0.392248,-1.868273 1.054605,-3.124577 1.060895,-2.01249 0.0012,0.188255 0.206617,1.028915 0.456918,1.868359 0.712232,2.388665 0.735549,3.239643 0.124382,4.541229 l -0.12949,0.275573 c 0.639967,0.701972 1.334835,1.36657 2.080817,1.985613 -0.01002,-0.01717 -0.0227,-0.03484 -0.03148,-0.05048 -0.380637,-0.682762 -0.592765,-2.331859 -0.465697,-3.617613 l 0.105362,-1.069223 0.662512,1.044521 c 0.364233,0.574592 0.815472,1.226227 1.003093,1.447928 0.798669,0.943755 1.05565,1.620713 1.135522,2.992397 l 0.05963,1.019485 c 0.245777,0.151251 0.49396,0.299664 0.747015,0.441871 0.637207,0.366121 1.297305,0.700189 1.975825,1.002408 -0.881063,-0.872738 -1.559854,-2.161893 -1.825106,-3.576205 l -0.122543,-0.653175 0.920782,0.725422 c 2.870235,2.260847 3.644165,3.119168 3.822504,4.239902 0.02179,0.137162 0.03406,0.234303 0.03402,0.307491 1.001258,0.298854 2.027598,0.535367 3.06891,0.707984 -0.124637,-0.04479 -0.246765,-0.09801 -0.376062,-0.161906 -0.915735,-0.45233 -2.387082,-2.031344 -2.619312,-2.811227 l -0.09625,-0.322768 0.743725,0.302081 c 0.408924,0.166194 1.178528,0.422886 1.710236,0.570015 0.531699,0.147133 1.220666,0.408903 1.530973,0.581999 0.703157,0.392187 1.779013,1.522769 1.779013,1.869422 0,0.200614 -0.08295,0.240805 -0.721407,0.219655 1.55657,0.138038 3.12986,0.136673 4.686224,-0.0069 -0.02678,5.51e-4 -0.05497,0.0018 -0.08119,0.0018 l -1.02066,0.0121 0.233037,-0.469804 c 0.550107,-1.109703 1.427664,-1.701403 3.335962,-2.248479 0.573775,-0.164474 1.336783,-0.424942 1.695234,-0.579077 l 0.651536,-0.280305 -0.104241,0.294464 c -0.334584,0.945357 -2.057284,2.633933 -3.067086,3.06391 0.529697,-0.08413 1.056198,-0.183686 1.577445,-0.301705 0.539704,-0.116928 1.072356,-0.25414 1.597926,-0.408084 -0.02233,-0.08874 -0.01899,-0.212869 0.0033,-0.379417 0.130524,-0.976056 0.55826,-1.499183 2.655531,-3.246535 l 2.032161,-1.692974 -0.09334,0.548585 c -0.05129,0.301738 -0.264132,1.01099 -0.472629,1.576441 -0.342515,0.928887 -0.851425,1.683989 -1.515618,2.256106 1.030728,-0.441752 2.02106,-0.953707 2.959526,-1.529244 l -0.07718,-0.265405 c -0.289311,-0.992417 0.299287,-2.754634 1.354648,-4.055105 0.217274,-0.267722 0.643485,-0.887426 0.946765,-1.377107 l 0.551307,-0.890603 0.04791,1.653782 c 0.02677,0.926209 -0.02781,1.946454 -0.12404,2.319991 -0.09601,0.373005 -0.343044,0.801722 -0.675292,1.213729 0.966465,-0.751001 1.85722,-1.574012 2.659539,-2.456873 -0.08321,0.04877 -0.152403,0.0783 -0.181437,0.06318 -0.259663,-0.135284 -0.594943,-1.386036 -0.593025,-2.212545 0.0014,-0.523392 0.198275,-1.500697 0.527532,-2.616255 0.289053,-0.979351 0.531497,-1.952204 0.538863,-2.16206 0.01387,-0.376392 0.01747,-0.374276 0.303985,0.150743 0.340488,0.623779 0.891173,2.777429 0.891173,3.484726 0,0.270112 -0.112277,0.921958 -0.249509,1.448631 -0.05932,0.227524 -0.11936,0.415997 -0.184735,0.583432 0.624382,-0.815036 1.177803,-1.670049 1.646951,-2.559614 1.971051,-3.642118 2.444455,-7.831975 1.503546,-11.761555 -1.81e-4,0.405194 -0.03581,0.40269 -0.802624,-0.04756 -0.965,-0.566634 -1.951822,-1.484882 -2.951127,-2.74588 -0.498893,-0.629589 -1.121462,-1.359132 -1.383179,-1.621451 -0.261709,-0.262336 -0.43925,-0.47708 -0.394731,-0.47708 0.296938,0 2.942802,1.270473 3.48778,1.674827 0.725891,0.53855 1.280119,1.145713 1.627199,1.76487 -0.354292,-1.056406 -0.814213,-2.08539 -1.378431,-3.070826 -0.03133,0.0069 -0.06889,0.01211 -0.118514,0.01211 -0.703741,-0.0034 -3.169014,-1.255836 -4.432336,-2.252091 -0.294988,-0.232643 -0.896062,-0.650708 -1.335633,-0.929099 -0.891244,-0.56443 -0.785445,-0.610699 0.714819,-0.312601 1.623195,0.322524 3.080607,0.974469 4.061771,1.761237 -0.597866,-0.82498 -1.273025,-1.606184 -2.015706,-2.337415 l -0.382643,-0.0011 c -1.250637,-0.0034 -2.654109,-0.306283 -3.976878,-0.857909 -0.663966,-0.276881 -1.533487,-0.606225 -1.932301,-0.73195 -0.971853,-0.306357 -0.677675,-0.438657 0.981519,-0.441123 1.638449,-0.0018 2.761811,0.175268 3.729588,0.631734 -0.717096,-0.57423 -1.477573,-1.108857 -2.275791,-1.598962 -0.007,0.0121 -0.01556,0.02352 -0.02752,0.03415 -0.0524,0.04415 -0.35037,0.122248 -0.662511,0.173203 -0.913926,0.149367 -1.965033,0.129785 -3.736554,-0.07002 -0.912934,-0.102992 -1.914799,-0.187872 -2.226046,-0.188422 -0.31122,-5.89e-4 -0.565556,-0.04651 -0.565556,-0.101996 0,-0.05547 0.594054,-0.268326 1.32026,-0.472711 1.666845,-0.469104 3.452469,-0.514161 4.659526,-0.127026 -0.914712,-0.566855 -1.628621,-1.016614 -2.160572,-1.360764 -0.0589,0.02321 -0.156606,0.02645 -0.309114,0.02645 -1.122266,0 -2.00664,-0.373764 -3.135874,-1.325545 -1.175502,-0.990809 -1.862517,-1.850481 -1.332698,-1.667578 0.153634,0.05305 0.754673,0.199772 1.335628,0.326042 2.370868,0.515266 3.149655,1.021751 3.464365,2.25356 0.0021,0.0087 0.0021,0.01002 0.0041,0.0189 0.916989,0.470897 2.047626,1.082665 2.756115,1.479502 -0.03134,-0.02559 -0.06607,-0.0515 -0.09548,-0.07655 -0.874528,-0.748844 -1.299742,-1.424167 -1.678383,-2.664887 l -0.269256,-0.881901 0.32377,0.144206 c 0.177993,0.07917 0.724665,0.372095 1.214899,0.651338 1.910874,1.088469 2.900312,2.464521 2.569927,3.574032 -0.05432,0.182233 -0.128012,0.331103 -0.163822,0.331103 -0.0538,0 -0.139444,-0.02578 -0.236698,-0.06218 2.594551,1.735021 4.742256,3.941392 6.266598,6.470223 -0.249468,-0.552315 -0.399419,-1.207705 -0.400579,-1.849467 -0.0014,-0.76776 0.106577,-1.251195 0.508482,-2.278978 l 0.509978,-1.304131 0.430209,1.070328 c 1.155268,2.876533 1.19302,3.783561 0.215841,5.179508 l -0.309136,0.441861 -0.336191,-0.329654 c -0.09048,-0.0886 -0.175904,-0.189955 -0.2568,-0.299553 0.601262,1.092108 1.088237,2.239348 1.447926,3.431 0.01002,-0.239432 0.04497,-0.469628 0.108287,-0.694918 0.217475,-0.774436 0.813104,-1.975742 1.12346,-2.26553 0.114857,-0.107302 0.44077,-0.519704 0.723954,-0.916404 0.500553,-0.701149 0.51475,-0.710078 0.518363,-0.318028 0.0018,0.221812 0.0566,1.037061 0.121098,1.81171 0.189583,2.274768 -0.291439,3.646614 -1.495861,4.265666 -0.34069,0.175107 -0.504728,0.251249 -0.612743,0.195333 0.157584,0.929101 0.242158,1.87867 0.242158,2.845366 0,0.109024 -0.0034,0.217731 -0.0054,0.326393 0.375731,-0.851579 1.896396,-2.745458 2.508113,-3.102424 0.202866,-0.118452 0.613634,-0.386645 0.913097,-0.596516 0.417773,-0.292745 0.519408,-0.325445 0.436434,-0.140094 -0.05952,0.132884 -0.21025,0.762236 -0.335112,1.398896 -0.443928,2.2638 -1.222997,3.558211 -2.602844,4.324131 -0.454304,0.252161 -0.918307,0.458531 -1.031265,0.458531 -0.03354,0 -0.06213,-0.01872 -0.08736,-0.04861 -0.168143,1.079879 -0.438209,2.132102 -0.802628,3.148866 0.479927,-0.641468 1.077006,-1.208019 1.635976,-1.49401 0.291072,-0.148854 0.925912,-0.503436 1.410985,-0.787496 0.48511,-0.284066 1.202154,-0.671322 1.593183,-0.860831 l 0.710784,-0.344542 -0.899561,1.530685 c -0.494691,0.841792 -1.137852,1.833131 -1.429273,2.203092 -0.646108,0.820177 -1.729581,1.53729 -2.811377,1.861091 -0.907128,0.2715 -1.150955,0.3284 -1.166972,0.08105 -0.609842,1.176325 -1.350121,2.291674 -2.205934,3.331874 0.338538,-0.298971 0.686631,-0.570924 0.972357,-0.745386 0.949413,-0.579685 2.636892,-1.229896 3.611072,-1.391265 0.466409,-0.07724 1.10394,-0.222811 1.416834,-0.32349 0.800817,-0.2577 0.830879,-0.236101 0.319741,0.230167 -0.249219,0.227354 -0.753695,0.750766 -1.120885,1.162895 -0.681917,0.765406 -2.233722,1.898108 -3.144268,2.294961 -0.27902,0.121566 -0.92371,0.298707 -1.43257,0.393555 -0.508885,0.09492 -1.060997,0.147651 -1.226988,0.117615 -0.166075,-0.03005 -0.422574,-0.05531 -0.569953,-0.05636 -0.220262,-0.0015 -0.236541,-0.0378 -0.09251,-0.282448 -3.575804,3.60649 -8.645265,6.083468 -14.38316,6.717825 0.571258,0.09267 1.155644,0.219854 1.615479,0.366687 0.7908,0.252518 5.205849,2.064224 5.206061,2.136286 2.19e-4,0.0742 -2.929031,-0.05565 -3.863102,-0.170998 -1.326055,-0.164016 -3.057972,-0.648931 -3.7659,-1.054395 -0.293381,-0.168065 -0.766365,-0.53478 -1.051007,-0.815072 L 31.74284,50.914806 c -0.247879,0.0069 -0.496474,0.01211 -0.746282,0.01211 -0.277067,0 -0.552457,-0.0054 -0.827142,-0.01377 l -0.784324,0.618655 c -0.853609,0.67304 -1.136407,0.811377 -2.24215,1.097927 -1.848185,0.478962 -1.999148,0.501652 -3.981639,0.600156 -0.995954,0.04946 -1.895485,0.09923 -1.999234,0.110393 -0.103715,0.01002 -0.188768,-0.0069 -0.188768,-0.04137 0,-0.08256 1.337921,-0.645404 1.810843,-0.761721 0.207476,-0.05102 0.619648,-0.230656 0.916017,-0.399385 1.005862,-0.572544 2.842009,-1.124694 4.318269,-1.377432 -8.273443,-0.93251 -15.152363,-5.695262 -18.1504393,-12.149764 0.1408093,0.34166 0.2403433,0.619689 0.2403433,0.691266 0,0.253839 -0.2160441,0.245592 -1.1534466,-0.04328 -1.0762493,-0.331853 -2.0891218,-0.94992 -2.7016469,-1.648992 -0.5234438,-0.597402 -2.5009042,-3.83728 -2.3416482,-3.836526 0.099763,5.64e-4 2.019496,1.002762 3.1965819,1.669012 1.2572155,0.711602 1.9583105,1.43177 2.4872472,2.550553 C 9.0344079,36.6545 8.6379668,35.24891 8.427695,33.79377 8.3775479,34.1603 8.0987072,34.047604 7.2347379,33.612964 5.8624235,32.922598 4.999274,31.557438 4.589459,29.428619 4.4728987,28.823101 4.3106098,28.178868 4.228755,27.997417 4.146896,27.815957 4.135359,27.667742 4.203154,27.667742 c 0.2189348,0 2.4942188,1.954716 3.0250097,2.598849 0.548017,0.665036 0.8786377,1.31789 1.0532119,2.093427 -0.019483,-0.331832 -0.029273,-0.66571 -0.029273,-1.001698 0,-6.382505 3.5610024,-12.05094 9.0618624,-15.623865 -0.281856,0.120346 -0.563245,0.202525 -0.641293,0.184086 -0.219277,-0.05182 -0.276159,-0.960531 -0.09258,-1.479146 0.241376,-0.68181 1.553663,-1.892351 2.771117,-2.556704 0.601741,-0.328369 1.116184,-0.579275 1.143575,-0.557308 0.0855,0.06847 -0.417729,1.598169 -0.706409,2.146803 -0.251515,0.478014 -1.02674,1.261038 -1.706576,1.782305 0.405081,-0.241059 0.819566,-0.471657 1.243069,-0.690194 0.408341,-0.161897 1.196039,-0.527103 1.973994,-0.887341 -0.0166,-0.0345 -0.02379,-0.07724 -0.02379,-0.131338 0,-0.897198 1.116747,-1.845393 2.586381,-2.196188 0.527811,-0.126014 1.290027,-0.31549 1.693413,-0.420797 0.302535,-0.07899 0.576269,-0.136834 0.705678,-0.151082 z m -11.296331,2.581391 -0.05339,1.653425 c -0.04802,1.479452 -0.09715,1.731641 -0.464965,2.397309 -0.242306,0.438529 -0.705946,0.973245 -1.1293,1.302331 -0.395044,0.307098 -0.766625,0.559116 -0.82567,0.559854 -0.232472,0.0034 -0.451155,-1.114383 -0.367653,-1.877787 0.125482,-1.147205 0.581924,-1.848984 2.26153,-3.474535 z m 31.989259,0.05532 0.968328,0.990083 c 0.532707,0.544411 1.142929,1.284533 1.356124,1.645054 0.431265,0.729306 0.565241,1.796575 0.3369,2.683436 -0.07644,0.297289 -0.20728,0.540603 -0.290815,0.540603 -0.08356,0 -0.511136,-0.300416 -0.950411,-0.667684 -1.227221,-1.026021 -1.75722,-2.540324 -1.525864,-4.361177 z M 9.9258517,17.214386 c 0.081411,-0.0069 0.2804723,0.311721 0.5271483,0.849571 0.416487,0.908115 0.467671,1.167926 0.476304,2.416569 0.009,1.301119 -0.02074,1.44798 -0.423258,2.09853 -0.238082,0.384745 -0.5069983,0.777102 -0.5973946,0.871733 -0.1345202,0.140774 -0.2117773,0.122231 -0.4261854,-0.100984 -0.390569,-0.406556 -0.8827498,-1.6054 -0.8798086,-2.14283 0.00327,-0.601811 0.6346423,-2.535988 1.295752,-3.969773 0.00673,-0.01377 0.015674,-0.02195 0.027403,-0.02283 z m -3.5452196,4.731496 0.6592194,0.857189 c 0.3625447,0.471415 0.8787437,1.229203 1.1472264,1.683914 0.4573365,0.774542 0.4884038,0.910877 0.4872807,2.162054 -7.501e-4,0.848217 -0.071404,1.440056 -0.1938893,1.621815 -0.1060578,0.157437 -0.2336205,0.286098 -0.2831471,0.286098 -0.3012849,0 -1.0897724,-0.569053 -1.3575772,-0.979551 -0.6531933,-1.001226 -0.8157297,-2.214909 -0.5882484,-4.39276 z m 42.8118169,4.781211 c 0,-0.0357 0.612025,0.429103 1.360123,1.032561 1.468355,1.184438 1.930697,1.814859 2.347523,3.201169 0.166407,0.553239 0.21231,1.032002 0.143761,1.494389 -0.05555,0.374206 -0.150337,0.680372 -0.211074,0.680372 -0.135967,0 -1.517411,-1.54968 -1.934119,-2.169683 -0.271262,-0.403607 -0.730544,-1.505305 -1.46515,-3.514131 -0.132676,-0.362912 -0.241064,-0.688994 -0.241064,-0.724677 z m 0.482157,4.642188 c 0.208073,-0.07691 1.929933,2.301864 2.232992,3.128906 0.397519,1.084782 0.392565,2.241651 -0.01388,3.156496 -0.31143,0.701589 -0.321298,0.709269 -0.61972,0.481802 -0.368868,-0.281196 -0.825408,-1.015969 -1.121622,-1.805897 -0.173592,-0.462965 -0.475183,-3.43155 -0.498982,-4.911947 -3.71e-4,-0.02814 0.007,-0.04432 0.0209,-0.04948 z M 5.5860602,40.05093 c 0.1155233,0.0054 0.323215,0.04635 0.6171482,0.127734 0.3637933,0.100817 1.0313975,0.247727 1.4837858,0.326407 1.2208422,0.212343 3.2580848,1.117555 4.2508918,1.889029 0.719024,0.558732 1.641824,1.600381 1.641824,1.853108 0,0.03535 -0.186969,0.08856 -0.415214,0.118297 C 12.385356,44.46699 10.634977,44.120471 9.9360949,43.726509 8.0819999,42.681317 7.599902,42.302804 6.717191,41.198445 6.4315571,40.841084 6.0192187,40.450056 5.8011651,40.329631 5.4565234,40.139285 5.393517,40.043193 5.5860602,40.050799 Z m 46.8881968,5.59666 c 0.171606,-9.25e-4 0.281736,0.0069 0.310222,0.02369 0.02528,0.01544 -0.707456,0.466883 -1.628285,1.003503 -1.663068,0.969222 -2.113219,1.15731 -3.850316,1.611674 -1.038586,0.271628 -2.60298,0.234947 -3.503134,-0.08207 l -0.541433,-0.190614 0.588611,-0.435672 c 0.32387,-0.239687 1.030298,-0.617212 1.569764,-0.838686 0.539472,-0.22149 1.087868,-0.448041 1.218579,-0.503571 0.41708,-0.177247 4.635218,-0.582065 5.835992,-0.588177 z M 9.457591,45.69586 c 0.4208244,-0.0054 1.316548,0.04738 2.960622,0.163433 2.043141,0.144044 3.440613,0.500463 4.678546,1.193057 1.118809,0.625916 1.382936,0.883622 1.10516,1.077937 -0.117751,0.08238 -0.509817,0.198582 -0.871415,0.258501 -1.330795,0.220528 -2.478297,0.08754 -4.170029,-0.483607 -0.725395,-0.244891 -3.8332749,-1.906518 -4.0065196,-2.14209 -0.03043,-0.04136 0.051139,-0.06453 0.3036356,-0.06715 z m 11.080485,3.847413 c 1.009191,0 2.976695,0.342311 3.566421,0.62048 0.282279,0.133237 -0.703592,0.702461 -1.783022,1.029663 -0.586763,0.177867 -1.222404,0.249769 -2.238487,0.253063 -1.237757,0.0034 -1.696437,-0.0647 -3.589489,-0.536257 -1.929012,-0.480464 -2.115084,-0.550481 -1.674371,-0.629916 2.337825,-0.421398 4.788515,-0.737033 5.718948,-0.737033 z m 20.860463,0.02474 c 0.800171,0.0069 1.64203,0.07987 2.483217,0.221474 0.804435,0.135451 1.961495,0.317227 2.571392,0.404096 l 1.10918,0.15794 -0.656292,0.154697 c -0.360922,0.085 -1.335371,0.328025 -2.16532,0.540251 -2.614072,0.66839 -5.435098,0.474456 -6.70595,-0.460738 l -0.485075,-0.356914 0.388505,-0.1492 c 0.908391,-0.34886 2.126703,-0.522577 3.460343,-0.51157 z"
       id="path3" />
    <path
       style="fill:#00a489;stroke-width:0.967511;fill-opacity:1"
       d="m 26.261048,9.8088529 c 0.04315,-0.00531 0.07002,-0.00531 0.07681,0.00108 0.107753,0.090837 -1.587694,1.8420181 -2.147396,2.2179831 -0.328142,0.220421 -0.897563,0.489453 -1.265391,0.597955 -0.363815,0.107303 -0.876144,0.197404 -1.148324,0.202608 -0.545823,0.315045 -1.309611,0.746768 -2.200454,1.246407 0.683347,-0.153315 1.474871,-0.224481 2.144486,-0.166704 0.935738,0.08083 3.117692,0.613997 3.372531,0.824156 0.0663,0.05462 -0.443097,0.14267 -1.131854,0.195331 -0.688757,0.05269 -1.659662,0.142667 -2.15764,0.199688 -0.974471,0.111763 -3.152599,0.06818 -3.58399,-0.07159 -0.08669,-0.02796 -0.148359,-0.05732 -0.189496,-0.08892 -0.709758,0.439758 -1.388441,0.914866 -2.032528,1.422507 0.928035,-0.346617 2.026449,-0.501634 3.421197,-0.499588 1.570239,0.0018 1.951492,0.127226 1.138455,0.372885 -0.3104,0.0937 -1.209682,0.43008 -1.998152,0.747175 -0.788449,0.317098 -1.841102,0.646606 -2.339076,0.732303 -0.497972,0.08569 -1.275056,0.161219 -1.727066,0.168089 l -0.225347,0.0034 c -0.174963,0.17385 -0.34692,0.349809 -0.513979,0.529352 -0.441667,0.463748 -0.853268,0.947147 -1.237592,1.44574 0.509594,-0.342651 1.111562,-0.644186 1.769859,-0.876456 1.103509,-0.389348 3.006254,-0.800788 3.148665,-0.680764 0.0282,0.02385 -0.437114,0.37126 -1.034187,0.77225 -0.597087,0.401013 -1.458985,0.987513 -1.915463,1.303428 -0.832554,0.576124 -2.420217,1.378206 -2.957335,1.494008 -0.167157,0.03606 -0.29377,0.05753 -0.39509,0.06577 -0.461317,0.810244 -0.855667,1.648679 -1.1790567,2.507701 0.1768217,-0.209321 0.3917417,-0.42224 0.6782407,-0.678192 0.757337,-0.676685 1.294154,-1.007601 2.485052,-1.532528 0.835439,-0.368221 1.518907,-0.62113 1.518907,-0.562022 0,0.05907 -0.224447,0.306168 -0.498984,0.548965 -0.548833,0.485373 -1.310607,1.412597 -1.755598,2.136998 -0.325466,0.529837 -1.601455,1.604968 -2.4960265,2.103264 -0.3007894,0.167573 -0.4991986,0.267738 -0.6237336,0.299534 -0.2667878,1.195511 -0.4010097,2.412917 -0.4013091,3.630667 0.086164,-0.472936 0.2276616,-0.972502 0.4155773,-1.393098 0.3478668,-0.778599 0.5759041,-1.051596 1.5430509,-1.844371 0.6243,-0.511745 1.303771,-1.073346 1.509758,-1.24821 l 0.374607,-0.318018 -0.11011,0.31805 c -1.090279,3.149697 -1.749059,4.39424 -2.9730629,5.61774 -0.4666436,0.466424 -0.5900046,0.579892 -0.6804365,0.480704 0.036432,0.365964 0.083888,0.731329 0.1456061,1.094992 0.1173017,0.737325 0.2909274,1.465835 0.5132518,2.182393 -0.021478,-0.653581 0.091272,-1.354942 0.3416831,-1.93514 0.2807594,-0.65047 2.0999684,-3.188456 2.2128764,-3.087158 0.10152,0.09102 -0.244538,4.223352 -0.398748,4.761621 -0.196231,0.684972 -0.787957,1.76802 -1.152351,2.10906 -0.09542,0.08926 -0.172107,0.151931 -0.222058,0.18733 0.486523,1.057346 1.084799,2.076093 1.781936,3.042519 -0.245328,-0.865729 -0.300753,-1.940244 -0.09362,-2.926699 0.392248,-1.868263 1.054605,-3.124551 1.060895,-2.012483 0.0012,0.188261 0.206617,1.028924 0.456918,1.868363 0.712232,2.388655 0.73555,3.239635 0.124382,4.541246 l -0.12949,0.275553 c 0.639967,0.701975 1.334835,1.366592 2.080818,1.985608 -0.01002,-0.01716 -0.0227,-0.03484 -0.03148,-0.05047 C 15.24955,43.3881 15.037422,41.73902 15.16449,40.453265 l 0.105362,-1.069225 0.662512,1.044536 c 0.364233,0.574568 0.815472,1.226206 1.003093,1.447913 0.798669,0.943755 1.055657,1.6207 1.135522,2.992387 l 0.05963,1.019485 c 0.245777,0.151273 0.49396,0.299675 0.747015,0.441882 0.637207,0.366108 1.297305,0.700189 1.975825,1.002423 -0.881064,-0.872751 -1.559855,-2.161917 -1.825107,-3.576228 l -0.122543,-0.653148 0.920782,0.725424 c 2.870235,2.260844 3.644165,3.119139 3.822505,4.239872 0.02179,0.137189 0.03406,0.23433 0.03402,0.307518 1.001258,0.298853 2.027599,0.535351 3.06891,0.707983 -0.124642,-0.04484 -0.24677,-0.09802 -0.376067,-0.1619 -0.915735,-0.452344 -2.387082,-2.031368 -2.619312,-2.811251 l -0.09624,-0.322768 0.743725,0.302092 c 0.408922,0.166194 1.178529,0.422897 1.710236,0.570016 0.531698,0.147121 1.220666,0.408892 1.530974,0.581998 0.703156,0.3922 1.779012,1.522768 1.779012,1.869435 0,0.200594 -0.08295,0.240789 -0.721407,0.219657 1.55657,0.138032 3.12986,0.136667 4.686224,-0.0069 -0.02677,5.48e-4 -0.05497,0.0018 -0.08118,0.0018 l -1.02066,0.0121 0.233037,-0.469801 c 0.550105,-1.109713 1.427662,-1.701412 3.33596,-2.248494 0.573774,-0.164467 1.336786,-0.424932 1.695232,-0.579069 l 0.651539,-0.280298 -0.104245,0.294461 c -0.334581,0.94534 -2.057281,2.633925 -3.067083,3.0639 0.529693,-0.08413 1.0562,-0.183681 1.577445,-0.301711 0.539705,-0.116927 1.072357,-0.254118 1.597928,-0.408081 -0.02234,-0.08874 -0.01899,-0.21287 0.0033,-0.379395 0.130525,-0.976069 0.558265,-1.499205 2.65553,-3.246545 l 2.032161,-1.692988 -0.09333,0.548598 c -0.05128,0.30173 -0.264132,1.010986 -0.47263,1.576435 -0.342515,0.928887 -0.851419,1.684001 -1.515617,2.256099 1.030728,-0.441739 2.02106,-0.953688 2.959526,-1.529244 l -0.07717,-0.265396 c -0.289312,-0.992416 0.299286,-2.754632 1.354647,-4.055101 0.217275,-0.267736 0.643485,-0.887432 0.946764,-1.377121 l 0.551308,-0.890592 0.04791,1.65377 c 0.02675,0.926221 -0.02781,1.946454 -0.124039,2.320004 -0.09601,0.373021 -0.343046,0.801712 -0.675293,1.213732 0.966465,-0.751014 1.85722,-1.574023 2.659539,-2.456879 -0.08321,0.04878 -0.152405,0.0783 -0.181436,0.06312 -0.259663,-0.135272 -0.594944,-1.386036 -0.593025,-2.212519 0.0014,-0.523412 0.198274,-1.500705 0.52753,-2.616282 0.289054,-0.979337 0.531499,-1.952177 0.538865,-2.162044 0.01387,-0.376388 0.01747,-0.374279 0.303984,0.150729 0.340487,0.623797 0.891172,2.777432 0.891172,3.484735 0,0.270101 -0.112275,0.921971 -0.249507,1.448619 -0.05932,0.22755 -0.119361,0.416028 -0.184736,0.583457 0.62439,-0.815058 1.177803,-1.670071 1.646951,-2.559612 1.97105,-3.642133 2.444455,-7.831997 1.503546,-11.761574 -1.79e-4,0.405201 -0.03581,0.402685 -0.802624,-0.04756 -0.965008,-0.566628 -1.95183,-1.484873 -2.951133,-2.745876 -0.498896,-0.629588 -1.121463,-1.35914 -1.383181,-1.621449 -0.261708,-0.262333 -0.439252,-0.477079 -0.394728,-0.477079 0.296936,0 2.9428,1.270462 3.487778,1.674817 0.725888,0.538557 1.280121,1.145726 1.627198,1.764891 -0.354291,-1.056417 -0.814213,-2.085401 -1.378429,-3.070822 -0.03133,0.0069 -0.06888,0.01211 -0.118514,0.01211 -0.703743,-0.0034 -3.169015,-1.255829 -4.43234,-2.252095 -0.294985,-0.232628 -0.89606,-0.650701 -1.335632,-0.92909 -0.891243,-0.564439 -0.785444,-0.610703 0.714821,-0.312603 1.623195,0.322521 3.080604,0.974468 4.06177,1.761227 -0.597874,-0.824985 -1.273034,-1.606189 -2.015702,-2.337406 l -0.382657,-0.0011 c -1.250643,-0.0034 -2.654116,-0.306312 -3.976885,-0.857926 -0.663966,-0.276895 -1.533487,-0.606231 -1.932302,-0.731951 -0.971852,-0.306367 -0.677674,-0.438658 0.981521,-0.441114 1.638447,-0.0018 2.76181,0.175259 3.729589,0.631736 -0.717098,-0.574236 -1.477575,-1.108866 -2.275792,-1.598963 -0.007,0.0121 -0.01556,0.02351 -0.02752,0.03414 -0.0524,0.04415 -0.350369,0.12223 -0.662509,0.173187 -0.913924,0.149365 -1.965033,0.129802 -3.736553,-0.07002 -0.912935,-0.102983 -1.914801,-0.187886 -2.226048,-0.188432 -0.311219,-5.78e-4 -0.565555,-0.04651 -0.565555,-0.101996 0,-0.05547 0.594055,-0.268332 1.320258,-0.472697 1.666845,-0.469117 3.452472,-0.514167 4.659529,-0.127036 -0.914713,-0.566863 -1.628621,-1.016602 -2.160574,-1.360765 -0.0589,0.02318 -0.156606,0.02643 -0.309113,0.02643 -1.122267,0 -2.006638,-0.373765 -3.135873,-1.325547 C 35.866398,10.519469 35.17938,9.6598021 35.7092,9.8427015 c 0.153635,0.053046 0.754672,0.1997785 1.335627,0.3260385 2.370871,0.515282 3.149657,1.021752 3.464368,2.253562 0.0021,0.0087 0.0021,0.01002 0.0041,0.0189 0.91699,0.470898 2.047629,1.082676 2.756115,1.479502 -0.03134,-0.02559 -0.06607,-0.05148 -0.09548,-0.07655 -0.874552,-0.748858 -1.299766,-1.424178 -1.678406,-2.664903 l -0.269249,-0.881906 0.32377,0.144233 c 0.177994,0.07917 0.724665,0.372089 1.2149,0.651315 1.910873,1.088467 2.900313,2.464537 2.569927,3.574037 -0.05432,0.182246 -0.128012,0.331115 -0.163822,0.331115 -0.0538,0 -0.139443,-0.02578 -0.236696,-0.06217 2.594551,1.735025 4.742253,3.941388 6.266596,6.470224 -0.249467,-0.552327 -0.399417,-1.207704 -0.40058,-1.849481 -0.0014,-0.767734 0.106576,-1.251182 0.508485,-2.278965 l 0.509975,-1.304133 0.43021,1.07032 c 1.155268,2.87656 1.193022,3.783563 0.215842,5.179518 l -0.309131,0.441839 -0.336188,-0.329642 c -0.09048,-0.08858 -0.175904,-0.189964 -0.2568,-0.299538 0.601263,1.092092 1.088238,2.239332 1.447926,3.430984 0.01002,-0.23943 0.04495,-0.469638 0.108286,-0.694914 0.217476,-0.774446 0.813105,-1.975744 1.123461,-2.265533 0.114855,-0.107308 0.440768,-0.51969 0.723953,-0.916389 0.500554,-0.701166 0.514751,-0.710098 0.518364,-0.31804 0.0018,0.221794 0.05657,1.037059 0.121097,1.811702 0.189582,2.274763 -0.291439,3.646628 -1.495863,4.265666 -0.340688,0.175101 -0.504726,0.251244 -0.612742,0.195335 0.157584,0.929108 0.24216,1.878665 0.24216,2.845359 0,0.109032 -0.0034,0.217734 -0.0054,0.326392 0.375729,-0.851572 1.896395,-2.745444 2.508113,-3.102404 0.202865,-0.118471 0.613634,-0.386665 0.913096,-0.596537 0.417773,-0.29274 0.519406,-0.325434 0.436434,-0.140079 -0.05952,0.132871 -0.21025,0.762222 -0.335113,1.398883 -0.443927,2.263797 -1.222999,3.558234 -2.602845,4.32413 -0.454302,0.252177 -0.918306,0.458541 -1.031263,0.458541 -0.03347,0 -0.06213,-0.01873 -0.08732,-0.04861 -0.168141,1.079869 -0.438207,2.132104 -0.802625,3.148885 0.479925,-0.641486 1.077003,-1.208045 1.635975,-1.494016 0.291069,-0.14886 0.925906,-0.50344 1.410984,-0.787507 0.485107,-0.284049 1.202149,-0.67133 1.593184,-0.86084 l 0.710783,-0.344535 -0.899562,1.530678 c -0.494688,0.841793 -1.137851,1.833143 -1.429277,2.203096 -0.646104,0.82018 -1.729577,1.537288 -2.811375,1.861103 -0.907124,0.271489 -1.150949,0.328383 -1.16697,0.08101 -0.609846,1.176332 -1.350118,2.291669 -2.205933,3.331868 0.338535,-0.298947 0.686632,-0.570908 0.972354,-0.745364 0.949417,-0.579681 2.636895,-1.229909 3.611076,-1.391279 0.466407,-0.07724 1.10394,-0.222794 1.416832,-0.323488 0.800813,-0.257715 0.83088,-0.236115 0.319738,0.23017 -0.249216,0.227343 -0.753693,0.750778 -1.120882,1.162909 -0.681918,0.765379 -2.233721,1.898078 -3.144263,2.294947 -0.27902,0.121549 -0.923713,0.298697 -1.43258,0.393551 -0.50888,0.09492 -1.06099,0.147654 -1.226987,0.117614 -0.166068,-0.03005 -0.422569,-0.05531 -0.569952,-0.05636 -0.220264,-0.0015 -0.236536,-0.0378 -0.09249,-0.282446 -3.575805,3.606499 -8.645264,6.083459 -14.383163,6.717813 0.57126,0.09278 1.155644,0.219872 1.615485,0.366686 0.7908,0.252518 5.205847,2.064243 5.20606,2.136297 2.18e-4,0.0742 -2.929032,-0.05565 -3.863102,-0.170996 -1.325985,-0.163941 -3.057901,-0.648879 -3.76583,-1.054322 -0.293381,-0.168087 -0.766379,-0.534816 -1.051009,-0.81511 l -0.318573,-0.313598 c -0.247884,0.0069 -0.496478,0.01211 -0.746282,0.01211 -0.277078,0 -0.552468,-0.0054 -0.827145,-0.01377 l -0.784332,0.618641 c -0.853587,0.673039 -1.136406,0.811361 -2.242145,1.097932 -1.848182,0.478951 -1.999146,0.50165 -3.981642,0.600146 -0.995947,0.04946 -1.895482,0.09923 -1.999236,0.110393 -0.103708,0.01002 -0.188753,-0.0069 -0.188753,-0.04137 0,-0.08256 1.337916,-0.645408 1.810836,-0.761722 0.207478,-0.05101 0.61965,-0.230653 0.916014,-0.399371 1.005797,-0.572574 2.841945,-1.124741 4.318205,-1.377472 -8.273448,-0.932415 -15.152367,-5.695171 -18.1504467,-12.149665 0.1408097,0.341654 0.2403427,0.619678 0.2403427,0.691278 0,0.253838 -0.2160442,0.245574 -1.1534453,-0.04328 C 7.8787014,37.959257 6.8658294,37.341188 6.253304,36.6421 5.7298598,36.044717 3.7523996,32.804847 3.9116559,32.805588 c 0.099763,5.66e-4 2.0194957,1.002757 3.1965817,1.669027 1.257215,0.711603 1.9583101,1.431758 2.487247,2.550547 C 9.0344759,35.687052 8.6380348,34.281476 8.4277632,32.826319 8.3776174,33.192852 8.0987755,33.080156 7.234806,32.645506 5.862488,31.955151 4.9993406,30.589991 4.5895239,28.461173 4.472964,27.855652 4.310675,27.211419 4.2288213,27.029964 c -0.08186,-0.181456 -0.093395,-0.329669 -0.025601,-0.329669 0.2189351,0 2.4942189,1.954712 3.0250101,2.598844 0.5480164,0.665043 0.8786387,1.317893 1.0532116,2.09343 -0.019477,-0.331835 -0.029272,-0.665709 -0.029272,-1.0017 0,-6.38251 3.561002,-12.050937 9.06186,-15.623863 -0.281853,0.120349 -0.563241,0.202517 -0.64129,0.184083 -0.219276,-0.05182 -0.276156,-0.960531 -0.09257,-1.479139 0.241377,-0.68182 1.553662,-1.892353 2.771118,-2.556716 0.601743,-0.328364 1.116189,-0.57926 1.143575,-0.557307 0.0855,0.0685 -0.41773,1.598171 -0.706408,2.14681 -0.251515,0.478008 -1.026741,1.261031 -1.706575,1.782305 0.405079,-0.241066 0.819567,-0.471654 1.243077,-0.690192 0.408333,-0.161902 1.196028,-0.527111 1.973995,-0.887342 -0.01658,-0.0345 -0.02377,-0.07724 -0.02377,-0.13134 0,-0.897191 1.116744,-1.8454 2.58639,-2.196188 0.527803,-0.126016 1.290027,-0.31549 1.693399,-0.4207978 0.302544,-0.079005 0.576273,-0.1368347 0.705684,-0.1510857 z M 14.964717,12.390252 14.91133,14.04367 c -0.04802,1.479453 -0.09715,1.731632 -0.464965,2.39732 -0.242306,0.438522 -0.705946,0.973237 -1.1293,1.302313 -0.395044,0.307105 -0.766625,0.559122 -0.82567,0.559861 -0.232472,0.0034 -0.451155,-1.114379 -0.367653,-1.87778 0.125482,-1.147207 0.581924,-1.84899 2.26153,-3.474544 z m 31.989259,0.05532 0.968328,0.990074 c 0.532707,0.544416 1.142929,1.284537 1.356124,1.645061 0.431265,0.729305 0.565241,1.796573 0.3369,2.683433 -0.07644,0.297292 -0.20728,0.540605 -0.290815,0.540605 -0.08356,0 -0.511136,-0.300425 -0.950411,-0.667685 -1.227221,-1.026014 -1.75722,-2.540314 -1.525864,-4.361166 z M 9.9258517,16.246876 c 0.081411,-0.0069 0.2804723,0.311731 0.5271483,0.849572 0.416487,0.908113 0.467671,1.167927 0.476304,2.41658 0.009,1.301093 -0.02074,1.447965 -0.423258,2.098504 -0.238082,0.384762 -0.5069983,0.777116 -0.5973946,0.871744 -0.1345202,0.140773 -0.2117773,0.12223 -0.4261854,-0.100983 -0.390569,-0.406556 -0.8827498,-1.605411 -0.8798086,-2.14283 0.00327,-0.601813 0.6346423,-2.535992 1.295752,-3.969779 0.00673,-0.01377 0.015674,-0.02196 0.027403,-0.02283 z m -3.5452196,4.731487 0.6592194,0.857192 c 0.3625447,0.471413 0.8787437,1.2292 1.1472264,1.683911 0.4573365,0.774543 0.4884038,0.910865 0.4872807,2.162055 -7.501e-4,0.848207 -0.071404,1.440069 -0.1938893,1.621817 -0.1060578,0.157434 -0.2336205,0.286097 -0.2831471,0.286097 -0.3012849,0 -1.0897724,-0.569054 -1.3575772,-0.979556 C 6.1865517,25.608659 6.0240153,24.394982 6.2514966,22.21713 Z m 42.8118169,4.78122 c 0,-0.03571 0.612025,0.429094 1.360123,1.032555 1.468355,1.184442 1.930697,1.81486 2.347523,3.201169 0.166407,0.55324 0.21231,1.032004 0.143761,1.494388 -0.05555,0.374198 -0.150337,0.680372 -0.211074,0.680372 -0.135967,0 -1.517411,-1.549672 -1.934119,-2.169677 -0.271262,-0.4036 -0.730544,-1.505309 -1.46515,-3.514135 -0.132676,-0.362912 -0.241064,-0.688996 -0.241064,-0.724672 z m 0.482157,4.642181 c 0.208073,-0.07691 1.929933,2.301864 2.232992,3.128906 0.397519,1.084782 0.392565,2.24165 -0.01388,3.156491 -0.31143,0.7016 -0.321298,0.709276 -0.61972,0.481798 -0.368868,-0.281178 -0.825408,-1.01596 -1.121622,-1.805884 -0.173592,-0.462966 -0.475183,-3.431563 -0.498982,-4.911952 -3.71e-4,-0.02813 0.007,-0.04433 0.0209,-0.04948 z M 5.5860602,39.083406 c 0.1155233,0.0054 0.323215,0.04635 0.6171482,0.127736 0.3637933,0.100815 1.0313975,0.247726 1.4837858,0.326407 1.2208422,0.212343 3.2580848,1.117558 4.2508918,1.889022 0.719024,0.558742 1.641824,1.600393 1.641824,1.853115 0,0.03535 -0.186969,0.08858 -0.415214,0.118295 -0.77914,0.101484 -2.529519,-0.245028 -3.2284011,-0.638999 C 8.0819999,41.713802 7.599902,41.33528 6.717191,40.230936 6.4315571,39.87357 6.0192187,39.482526 5.8011651,39.362119 5.4565234,39.17176 5.393517,39.075671 5.5860602,39.083282 Z m 46.8881968,5.596665 c 0.171606,-9.42e-4 0.281736,0.0069 0.310222,0.02369 0.02528,0.01544 -0.707456,0.466893 -1.628285,1.003512 -1.663068,0.969209 -2.113219,1.157317 -3.850316,1.611665 -1.038586,0.271643 -2.60298,0.234957 -3.503134,-0.08208 l -0.541433,-0.190606 0.588611,-0.435684 c 0.32387,-0.239679 1.030298,-0.617196 1.569764,-0.838674 0.539472,-0.22149 1.087868,-0.448029 1.218579,-0.503584 0.41708,-0.177237 4.635218,-0.582059 5.835992,-0.588167 z M 9.457591,44.72832 c 0.4208244,-0.0054 1.316548,0.04738 2.960622,0.16346 2.043141,0.144044 3.440613,0.500461 4.678546,1.193042 1.118809,0.625904 1.382936,0.883634 1.10516,1.077951 -0.117751,0.08238 -0.509817,0.19857 -0.871415,0.258492 -1.330795,0.220524 -2.478297,0.08746 -4.170029,-0.48361 C 12.43508,46.692748 9.3272001,45.031133 9.1539554,44.79555 9.1235254,44.75419 9.2050944,44.73102 9.457591,44.7284 Z m 11.080485,3.84743 c 1.009191,0 2.976695,0.342307 3.566421,0.620492 0.282279,0.133235 -0.703592,0.702453 -1.783022,1.029652 -0.586763,0.177858 -1.222404,0.249764 -2.238487,0.253067 -1.237757,0.0034 -1.696437,-0.0647 -3.589489,-0.536264 -1.929012,-0.480467 -2.115084,-0.550475 -1.674371,-0.629916 2.337825,-0.421383 4.788515,-0.737031 5.718948,-0.737031 z m 20.860463,0.02475 c 0.800171,0.0069 1.64203,0.07986 2.483217,0.221474 0.804435,0.135465 1.961495,0.317243 2.571392,0.404101 l 1.10918,0.15795 -0.656292,0.154688 c -0.360922,0.085 -1.335371,0.32801 -2.16532,0.540243 -2.614072,0.668389 -5.435098,0.474473 -6.70595,-0.460738 L 37.549691,49.2613 37.938196,49.112119 c 0.908391,-0.348867 2.126703,-0.522578 3.460343,-0.511577 z"
       id="path4" />
    <path
       style="opacity:0.2;stroke-width:0.967511"
       d="m 19.932039,21.417086 c -1.341929,-0.03364 -2.929266,0.403658 -4.094635,1.144296 -1.165383,0.740635 -2.613547,1.884256 -3.178501,2.035727 -0.56505,0.151509 -0.21367,0.404035 -0.21367,0.404035 0,0 -0.775515,0.624447 -1.517127,1.230304 -0.741614,0.606044 -1.8725163,1.579989 -2.1020768,1.832429 -0.2294717,0.252452 0,0.589088 0,0.589088 0,0 -0.4470617,0.482873 -0.7131565,0.768942 H 8.0834886 C 7.2573914,30.441315 6.2304945,31.417714 5.4819359,32.521134 4.033483,34.25995 2.7140837,36.109227 1,37.617004 c 0.7407425,0.935122 2.1851581,-1.886166 3.3948386,-0.630791 1.2562288,-0.34395 2.6759612,0.201404 3.7420702,-1.264194 0.9706294,1.559044 3.0465232,1.047286 4.0679302,0.0834 2.127664,1.312704 3.465886,-2.160181 5.480878,-0.583875 1.605224,-0.162118 3.088108,-0.462465 4.789115,-0.338855 0.741729,-0.877811 4.031485,-2.358558 3.074318,-0.281513 -1.117882,0.755041 -0.443901,3.558636 -2.481356,2.202559 -1.233705,-0.404284 -2.257952,1.19614 -0.560909,0.544778 -0.13245,-0.03153 -1.50942,2.216552 -0.710484,1.660396 0.503098,-1.059732 1.954211,-0.91559 0.982922,0.27369 0.124015,2.912446 0.778934,-1.999136 2.315757,-0.271096 0.265281,0.936707 0.05543,1.624758 0.793291,0.372752 -0.903097,-1.592105 0.14327,-2.377347 1.85367,-2.567482 1.92481,-0.185057 -0.696001,2.706319 -1.220643,3.492822 -1.738905,1.671922 2.104315,2.161931 3.207865,2.348531 1.684716,0.05099 3.345602,0.179137 4.855876,-0.539564 3.339585,-0.650329 -0.588497,-3.025911 -0.916151,-4.723127 -0.590851,-1.560108 4.263889,-0.04744 2.518751,1.303292 -0.204261,0.943331 0.944476,2.21405 0.649055,0.539553 0.88663,-1.802936 2.265946,0.973889 2.222273,1.094773 0.538761,-0.88146 -0.72896,-3.165288 1.025662,-1.530062 0.785608,1.476796 0.318739,-1.349502 -0.683789,-1.347606 0.888032,-0.21146 1.712771,0.365279 0.499489,-0.706382 -1.319837,0.304798 -3.007149,0.765459 -2.724419,-1.240732 -1.527199,-0.920158 -0.729803,-2.811202 0.85739,-1.665611 1.341438,1.693357 3.140417,0.691312 4.767722,1.337178 0.89932,-0.192304 2.341206,0.132516 3.378826,-0.406625 1.092492,0.891815 2.474597,1.90889 3.846238,0.899263 1.049296,1.834597 3.04056,0.854628 4.113333,0.159 1.467575,1.551521 3.097809,0.737717 4.751715,1.019183 0.718075,0.281051 3.288213,1.824031 1.436995,0.08081 -2.250219,-2.394048 -4.188172,-5.048308 -6.359651,-7.509562 h -0.0026 c -0.367538,-0.410616 -0.699797,-0.802826 -0.699797,-0.802826 0,0 0.111881,-0.103604 0.07212,-0.297163 -0.03973,-0.193597 -0.09793,-0.232849 -0.52618,-0.607322 -0.428163,-0.374571 -0.776523,-0.732158 -1.53587,-1.36324 -0.759246,-0.631268 -1.634648,-1.384096 -1.634648,-1.384096 0,0 0.09372,-0.11767 -0.08279,-0.260658 C 49.38225,24.56351 49.152066,24.453888 48.233997,23.919417 47.315731,23.384952 46.822042,22.8884 45.987682,22.46755 45.153341,22.046715 44.242281,21.592687 43.25793,21.487481 c -0.984458,-0.105311 -1.927466,-0.112732 -2.761815,0.484824 -0.834359,0.597457 -1.289391,1.240523 -1.615963,2.145213 -0.326659,0.904693 -0.707067,2.154083 -1.567875,2.562271 -0.860798,0.408096 -1.27905,0.464044 -1.509106,0.471791 -0.635096,0.02154 -1.425521,-0.416084 -1.752174,-0.81586 -0.326582,-0.399785 -0.583749,-1.426798 -0.6544,-1.788714 -0.07066,-0.361913 -0.09082,-0.745498 -0.09082,-0.745498 0,0 0.09669,-0.2158 0.467427,-0.278889 0.370859,-0.06316 0.573206,-0.08795 0.873401,-0.04172 0.300128,0.04618 0.617018,0.195496 0.617018,0.195496 0,0 0.0756,-0.04258 0.06676,-0.307579 -0.009,-0.265204 -0.01282,-0.673192 -0.697132,-1.005541 -0.684242,-0.33245 -1.499958,-0.430252 -1.672058,-0.463971 -0.172301,-0.03357 -0.567095,-0.286568 -0.977571,-0.362317 -0.410591,-0.07569 -1.278497,-0.145696 -1.808279,0.127716 -0.52967,0.273605 -0.966948,0.519901 -1.183247,0.982679 -0.216289,0.462874 -0.249191,0.881357 -0.248401,1.079113 0.0025,0.60815 -0.08799,2.03191 -0.811977,2.637875 -0.723982,0.605955 -1.165345,0.792404 -1.677395,0.792404 -0.512037,0 -1.447139,-0.389114 -1.800246,-0.708992 -0.353126,-0.319797 -0.813327,-0.923528 -1.290089,-2.421521 -0.476775,-1.498084 -1.889882,-2.575576 -3.231915,-2.609195 z"
       id="path5" />
    <path
       style="fill:#8d5fd3;stroke-width:0.967511"
       d="m 19.932039,20.449575 c -1.341929,-0.03364 -2.929266,0.40365 -4.094635,1.14429 -1.165383,0.740627 -2.613547,1.884243 -3.178501,2.035741 -0.56505,0.151484 -0.21367,0.404019 -0.21367,0.404019 0,0 -0.775515,0.624442 -1.517127,1.230308 -0.741614,0.606054 -1.8725163,1.579984 -2.1020768,1.832424 -0.2294717,0.252457 0,0.589092 0,0.589092 0,0 -0.4470617,0.482861 -0.7131565,0.768938 H 8.0834886 C 7.2573912,29.473795 6.2304943,30.450197 5.4819356,31.553615 4.033483,33.292434 2.7140837,35.141709 1,36.649487 1.7407425,37.58461 3.1851581,34.763319 4.3948386,36.018686 5.6510674,35.674744 7.0707998,36.2201 8.1369088,34.75449 c 0.9706294,1.559057 3.0465232,1.04731 4.0679302,0.0834 2.127664,1.312718 3.465886,-2.160168 5.480878,-0.58386 1.605224,-0.162121 3.088108,-0.462469 4.789115,-0.338859 0.741729,-0.87781 4.031485,-2.358554 3.074318,-0.281509 -1.117882,0.755044 -0.443901,3.558621 -2.481356,2.20256 -1.233705,-0.404303 -2.257952,1.196146 -0.560909,0.544777 -0.13245,-0.03153 -1.50942,2.216541 -0.710484,1.660392 0.503098,-1.059733 1.954211,-0.915587 0.982922,0.273691 0.124015,2.912448 0.778934,-1.99913 2.315757,-0.271082 0.265281,0.936694 0.05543,1.624752 0.793291,0.37274 -0.903097,-1.592105 0.14327,-2.377336 1.85367,-2.567482 1.92481,-0.185058 -0.696001,2.706314 -1.220643,3.492812 -1.738905,1.671943 2.104315,2.161939 3.207865,2.348538 1.684716,0.05086 3.345602,0.17914 4.855876,-0.539565 3.339585,-0.650337 -0.588497,-3.025909 -0.916151,-4.723138 -0.590851,-1.560092 4.263889,-0.04744 2.518751,1.303305 -0.204261,0.943338 0.944476,2.21405 0.649055,0.539564 0.88663,-1.802936 2.265946,0.973882 2.222273,1.094749 0.538761,-0.881455 -0.72896,-3.165271 1.025662,-1.530055 0.785608,1.476801 0.318739,-1.349495 -0.683789,-1.347603 0.888032,-0.211444 1.712771,0.365284 0.499489,-0.706381 -1.319837,0.304796 -3.007149,0.765467 -2.724419,-1.240731 -1.527199,-0.920156 -0.729803,-2.811196 0.85739,-1.665608 1.341438,1.693344 3.140417,0.691315 4.767722,1.337179 0.89932,-0.192305 2.341206,0.132512 3.378826,-0.406628 1.092492,0.891804 2.474597,1.908892 3.846238,0.89927 1.049296,1.83458 3.04056,0.854622 4.113333,0.159001 1.467575,1.551515 3.097809,0.737706 4.751715,1.019161 0.718075,0.28108 3.288213,1.824046 1.436995,0.0809 -2.250219,-2.394062 -4.188172,-5.048326 -6.359651,-7.509576 h -0.0026 c -0.367538,-0.410606 -0.699797,-0.802828 -0.699797,-0.802828 0,0 0.111881,-0.103602 0.07212,-0.297151 -0.03973,-0.193604 -0.09795,-0.232858 -0.526193,-0.607328 -0.428116,-0.374584 -0.776476,-0.732168 -1.535824,-1.363243 -0.759246,-0.631263 -1.634648,-1.384096 -1.634648,-1.384096 0,0 0.09372,-0.117668 -0.08279,-0.260668 -0.176567,-0.143064 -0.406755,-0.252703 -1.324821,-0.787182 -0.918267,-0.53445 -1.411955,-1.031008 -2.246316,-1.451852 -0.834339,-0.420845 -1.745401,-0.874865 -2.729752,-0.980078 -0.984456,-0.10531 -1.927471,-0.112732 -2.761813,0.484824 -0.834361,0.597462 -1.289394,1.24053 -1.615963,2.145222 -0.326661,0.904676 -0.707066,2.154082 -1.567877,2.562265 -0.8608,0.408095 -1.279049,0.464037 -1.509107,0.471787 -0.635097,0.02155 -1.425524,-0.416068 -1.752174,-0.815853 -0.326584,-0.399787 -0.583748,-1.426795 -0.654396,-1.788727 -0.07066,-0.361906 -0.09083,-0.745474 -0.09083,-0.745474 0,0 0.09669,-0.215818 0.467429,-0.278906 0.370857,-0.06311 0.573204,-0.08795 0.873398,-0.04173 0.30013,0.04618 0.617018,0.195487 0.617018,0.195487 0,0 0.0756,-0.04258 0.06676,-0.307568 -0.009,-0.265204 -0.01283,-0.673194 -0.697136,-1.005542 -0.684238,-0.332448 -1.499952,-0.43025 -1.672052,-0.463972 -0.172301,-0.03357 -0.567096,-0.28657 -0.977573,-0.362312 -0.41059,-0.07569 -1.278497,-0.145691 -1.808278,0.127711 -0.529671,0.273605 -0.96695,0.5199 -1.18325,0.982671 -0.216286,0.462882 -0.249189,0.881363 -0.248397,1.079133 0.0025,0.608121 -0.08799,2.031884 -0.811979,2.637859 -0.723981,0.605958 -1.165343,0.792404 -1.677395,0.792404 -0.512037,0 -1.447141,-0.389118 -1.800245,-0.708997 C 24.100876,25.160516 23.640675,24.556792 23.163907,23.0588 22.68713,21.560718 21.274025,20.483228 19.93199,20.449606 Z"
       id="path6" />
    <path
       style="opacity:0.2;fill:#ffffff;stroke-width:0.967511"
       d="m 19.932681,20.449649 c -1.34193,-0.03364 -2.929556,0.404506 -4.094927,1.145143 -1.165383,0.740634 -2.613494,1.8837 -3.178443,2.035185 -0.565054,0.151494 -0.213531,0.404391 -0.213531,0.404391 0,0 -0.775799,0.624316 -1.517414,1.230182 -0.74161,0.606052 -1.8736488,1.578653 -2.1032093,1.831097 -0.2294716,0.252444 0,0.589578 0,0.589578 0,0 -0.4463145,0.483032 -0.7124082,0.769099 H 8.0844042 C 7.2583054,29.473731 6.2308755,30.449976 5.4823167,31.553396 4.0338641,33.292213 2.7140837,35.142075 1,36.649855 c 0.3055635,0.385748 0.7340001,0.127408 1.2131735,-0.215419 0.00186,-0.002 0.00381,-0.0038 0.00567,-0.0058 1.1621076,-1.237704 2.1771355,-2.603735 3.2634752,-3.907846 0.7485581,-1.103421 1.7759878,-2.079668 2.602086,-3.099076 h 0.028347 c 0.2660948,-0.286057 0.7124085,-0.769086 0.7124085,-0.769086 0,0 -0.2294709,-0.33713 0,-0.589579 0.2295605,-0.252444 1.3616058,-1.225045 2.1032108,-1.831098 0.741613,-0.605868 1.517414,-1.23018 1.517414,-1.23018 0,0 -0.351525,-0.252904 0.213532,-0.40439 0.564948,-0.151494 2.013059,-1.294556 3.178442,-2.035187 1.165371,-0.740633 2.752998,-1.178827 4.094924,-1.145151 1.342036,0.03358 2.754582,1.11157 3.231355,2.609655 0.476772,1.497986 0.937533,2.100885 1.290652,2.420676 0.353119,0.319872 1.286925,0.708629 1.798972,0.708629 0.512044,0 0.95405,-0.185819 1.678036,-0.791776 0.723966,-0.605963 0.81498,-2.029852 0.812563,-2.637991 -7.99e-4,-0.197772 0.03127,-0.616137 0.247546,-1.079004 0.216284,-0.462787 0.653255,-0.709028 1.18293,-0.982635 0.529774,-0.273402 1.397839,-0.204223 1.808429,-0.128497 0.410488,0.07571 0.806548,0.329218 0.978855,0.36282 0.172096,0.03368 0.986231,0.132408 1.670475,0.464856 0.165587,0.08044 0.287985,0.165148 0.383594,0.251327 0.140292,0.04936 0.247559,0.09447 0.247559,0.09447 0,0 0.07501,-0.04303 0.06614,-0.308024 -0.009,-0.265204 -0.013,-0.672957 -0.697291,-1.005303 -0.684248,-0.332414 -1.498381,-0.431107 -1.670478,-0.464826 -0.172305,-0.03357 -0.568365,-0.287071 -0.978853,-0.362821 -0.410591,-0.07569 -1.278656,-0.144901 -1.808423,0.128498 -0.529681,0.273609 -0.966653,0.519857 -1.182938,0.982634 -0.216304,0.462873 -0.248345,0.881238 -0.247546,1.079008 0.0025,0.608134 -0.0886,2.032026 -0.812562,2.637989 -0.723986,0.605954 -1.165992,0.791777 -1.678036,0.791777 -0.512045,0 -1.445853,-0.388755 -1.798971,-0.708632 C 24.101572,25.160097 23.64081,24.5572 23.164038,23.059208 22.687263,21.56113 21.274718,20.483186 19.932683,20.449565 Z m 22.594872,0.017 c -0.719637,-0.01852 -1.405628,0.0904 -2.031391,0.53856 -0.83436,0.597464 -1.289114,1.240099 -1.615675,2.144788 -0.326668,0.904681 -0.707631,2.154211 -1.568432,2.562399 -0.86081,0.408089 -1.279787,0.464674 -1.509854,0.472424 -0.635096,0.02152 -1.425083,-0.416559 -1.75173,-0.816346 -0.309396,-0.378746 -0.544042,-1.291135 -0.629265,-1.69693 -0.08287,0.06728 -0.115269,0.130388 -0.115269,0.130388 0,0 0.02005,0.38262 0.09072,0.744532 0.07064,0.36192 0.32726,1.389741 0.653831,1.789529 0.326649,0.399784 1.116636,0.837906 1.751728,0.81634 0.230069,-0.0079 0.649047,-0.06431 1.509857,-0.47242 0.860798,-0.408196 1.241765,-1.657712 1.568434,-2.562404 0.326559,-0.90469 0.781314,-1.547327 1.615672,-2.144791 0.834338,-0.597551 1.776353,-0.590951 2.76082,-0.48564 0.984359,0.105208 1.89624,0.5599 2.730585,0.980746 0.834354,0.420845 1.328546,0.916802 2.246827,1.451261 0.918073,0.534473 1.148086,0.644919 1.324669,0.788004 0.17656,0.142988 0.08312,0.260775 0.08312,0.260775 0,0 0.875324,0.751981 1.634565,1.383243 0.759355,0.631088 1.106295,0.989773 1.534424,1.36435 0.428225,0.374468 0.487455,0.412974 0.527225,0.606587 0.03973,0.193519 -0.0718,0.296678 -0.0718,0.296678 0,0 0.331641,0.392509 0.699182,0.803114 h 0.002 c 1.983733,2.248457 3.78368,4.649568 5.793749,6.87464 0.931406,0.466709 1.939158,0.959629 0.566902,-0.332577 -2.25021,-2.394059 -4.189172,-5.048328 -6.360648,-7.509581 h -0.002 c -0.367545,-0.410607 -0.699186,-0.803108 -0.699186,-0.803109 0,0 0.111577,-0.103135 0.0718,-0.296686 -0.03973,-0.193619 -0.09898,-0.232114 -0.527224,-0.606583 -0.428127,-0.374573 -0.775069,-0.733267 -1.534423,-1.364349 -0.759243,-0.631266 -1.634565,-1.383242 -1.634565,-1.383242 0,0 0.0934,-0.117784 -0.08314,-0.260778 -0.176577,-0.143076 -0.406596,-0.253522 -1.324668,-0.787991 -0.918282,-0.534467 -1.412475,-1.030424 -2.246829,-1.451272 -0.834343,-0.420838 -1.746225,-0.875533 -2.730584,-0.980741 -0.246112,-0.02635 -0.489535,-0.04672 -0.729429,-0.0529 z M 25.548811,33.632036 c -2.86e-4,6.14e-4 2.8e-4,0.0013 0,0.002 -1.117895,0.755058 -0.443693,3.557546 -2.481151,2.201477 -1.233697,-0.404291 -2.258274,1.197485 -0.561235,0.546114 -0.04004,-0.0096 -0.195431,0.203773 -0.368485,0.470533 0.25839,-0.109677 0.58138,-0.163275 0.92972,-0.04915 2.037458,1.356072 1.363256,-1.446433 2.481151,-2.201475 0.24944,-0.541274 0.207141,-0.83773 0,-0.969408 z m 10.952572,0.190858 c -0.279381,0.434227 -0.14297,1.19299 0.674614,1.685592 -0.281955,2.000688 1.395375,1.546309 2.713578,1.241518 -0.144317,-0.148217 -0.303877,-0.263018 -0.489426,-0.262679 0.888022,-0.211434 1.714044,0.364936 0.500764,-0.706723 -1.319832,0.304796 -3.007645,0.766567 -2.724916,-1.239632 -0.340248,-0.205001 -0.548163,-0.461009 -0.674614,-0.718076 z m -2.689013,3.014039 c -0.175183,0.100766 -0.249665,0.27931 -0.143616,0.559335 0.194475,1.007365 1.634988,2.246735 2.093752,3.229469 0.745189,-0.889929 -1.344632,-2.472354 -1.950136,-3.788804 z m -5.578329,0.0359 c -0.419772,0.861034 -1.408184,2.014282 -1.712046,2.469808 -0.544457,0.523493 -0.542132,0.930365 -0.247549,1.249081 0.06539,-0.0905 0.145082,-0.183045 0.247549,-0.281561 0.463696,-0.695158 2.559233,-3.031046 1.712046,-3.437328 z m -5.727616,0.476201 c -0.380969,0.14622 -0.607546,0.168637 -0.742644,0.136047 -0.232529,0.452117 -0.344802,0.817966 0.03215,0.555571 0.161672,-0.340548 0.41954,-0.543425 0.665159,-0.640596 0.0091,-0.0058 0.04004,-0.05225 0.04534,-0.05099 z m 17.517303,0.05672 c -0.128667,-0.0054 -0.276623,0.002 -0.428945,0.02074 0.12997,0.09256 0.285146,0.217787 0.489427,0.408171 0.463512,0.871298 0.484218,0.244148 0.222984,-0.415731 -0.08277,-0.0035 -0.158508,-0.0081 -0.283466,-0.01325 z m -3.684856,0.173855 c -0.04736,0.05067 -0.08609,0.100807 -0.151176,0.151173 -0.06214,0.28684 0.0059,0.596875 0.11527,0.852246 0.354619,-0.348959 0.303742,-0.700185 0.0359,-1.003419 z M 25.65085,37.881976 c -0.108232,0.25654 -0.121181,0.560156 -0.01516,0.916493 0.07509,-0.107744 0.136048,-0.182914 0.253213,-0.381713 -0.107889,-0.190223 -0.183656,-0.367232 -0.238089,-0.53478 z m 13.524421,0.377932 c -0.102328,0.09579 -0.05969,0.435208 -0.017,0.804999 0.05324,-0.252672 0.04581,-0.523495 0.017,-0.804999 z m -16.334379,0.04347 c -0.01678,-0.0026 -0.03879,0.005 -0.05668,0.0038 -0.0025,0.0026 -0.0033,0.0047 -0.0058,0.0077 0.01881,0.441487 0.05193,0.687814 0.09638,0.820118 0.34173,-0.49519 0.241972,-0.784082 -0.03399,-0.831457 z"
       id="path7" />
  </g>
</svg>
