<?xml version="1.0" encoding="UTF-8" standalone="no"?>
<svg
   width="62"
   height="62"
   version="1.1"
   id="svg5"
   sodipodi:docname="Jellyamp.svg"
   inkscape:version="1.4 (unknown)"
   xmlns:inkscape="http://www.inkscape.org/namespaces/inkscape"
   xmlns:sodipodi="http://sodipodi.sourceforge.net/DTD/sodipodi-0.dtd"
   xmlns:xlink="http://www.w3.org/1999/xlink"
   xmlns="http://www.w3.org/2000/svg"
   xmlns:svg="http://www.w3.org/2000/svg">
  <defs
     id="defs5">
    <linearGradient
       id="linearGradient5"
       inkscape:collect="always">
      <stop
         style="stop-color:#29333d;stop-opacity:1;"
         offset="0"
         id="stop5" />
      <stop
         style="stop-color:#566c80;stop-opacity:1;"
         offset="1"
         id="stop6" />
    </linearGradient>
    <linearGradient
       inkscape:collect="always"
       xlink:href="#linearGradient5"
       id="linearGradient6"
       x1="52.693913"
       y1="55.509823"
       x2="14.814894"
       y2="5.9813442"
       gradientUnits="userSpaceOnUse"
       gradientTransform="translate(-0.5,-0.5)" />
  </defs>
  <sodipodi:namedview
     id="namedview5"
     pagecolor="#ffffff"
     bordercolor="#000000"
     borderopacity="0.25"
     inkscape:showpageshadow="2"
     inkscape:pageopacity="0.0"
     inkscape:pagecheckerboard="0"
     inkscape:deskcolor="#d1d1d1"
     inkscape:zoom="11.6875"
     inkscape:cx="31.914439"
     inkscape:cy="32.042781"
     inkscape:window-width="1920"
     inkscape:window-height="998"
     inkscape:window-x="0"
     inkscape:window-y="0"
     inkscape:window-maximized="1"
     inkscape:current-layer="svg5" />
  <rect
     style="opacity:0.2;stroke-width:0.982303"
     width="55"
     height="55.017544"
     x="3.5"
     y="4.4824572"
     rx="16.499996"
     ry="16.50526"
     id="rect1" />
  <rect
     style="fill:url(#linearGradient6);stroke-width:0.982303"
     width="55"
     height="55.017544"
     x="3.5"
     y="3.5"
     rx="16.499996"
     ry="16.50526"
     id="rect2" />
  <path
     style="opacity:0.1;fill:#ffffff;stroke-width:0.982303"
     d="M 20.000766,3.5 C 10.859767,3.5 3.5,10.862115 3.5,20.00603 v 0.982457 C 3.5,11.844571 10.859767,4.482456 20.000766,4.482456 H 41.999232 C 51.140233,4.482456 58.5,11.844571 58.5,20.988487 V 20.00603 C 58.5,10.862115 51.140233,3.5 41.999232,3.5 Z"
     id="path2" />
  <g
     id="g1"
     transform="translate(4.9999998,5)">
    <path
       style="opacity:0.2;stroke-width:0.773728"
       d="m 24.06123,4.7719298 a 17.06123,16.98246 0 0 1 17.06122,16.9824522 17.06123,16.98246 0 0 1 -0.02273,0.622677 h 0.02273 v 2.302223 l 0.708858,1.22121 2.877882,4.963269 a 2.1716453,2.161619 0 0 1 -1.881217,3.241501 H 41.12245 v 4.648164 c 0,1.701598 -1.375881,3.071134 -3.085373,3.071134 h -4.669724 v 3.006313 C 33.367353,46.586487 31.947264,48 30.183507,48 H 16.38791 c -1.763757,0 -3.183826,-1.413513 -3.183826,-3.169127 V 34.836486 A 17.06123,16.98246 0 0 1 7,21.754382 17.06123,16.98246 0 0 1 24.06123,4.7719298 Z"
       id="path1" />
    <ellipse
       style="fill:#8d5fd3;stroke-width:0.773728"
       cx="-24.061218"
       cy="20.982449"
       transform="scale(-1,1)"
       id="circle1"
       rx="17.061218"
       ry="16.982449" />
    <path
       style="fill:#8d5fd3;stroke-width:0.773728"
       d="m 38.036747,21.6 h -13.37144 c -1.70949,0 -3.085704,1.369882 -3.085704,3.071456 v 13.309706 c 0,1.701598 1.376214,3.071458 3.085704,3.071458 h 13.37144 c 1.70947,0 3.085703,-1.36986 3.085703,-3.071458 V 24.671456 21.754382 Z"
       id="path2-3" />
    <rect
       style="fill:#8d5fd3;stroke-width:0.773728"
       width="20.163258"
       height="20.070168"
       x="-33.367329"
       y="27.157898"
       rx="3.1834714"
       ry="3.1687737"
       transform="scale(-1,1)"
       id="rect2-6" />
    <path
       style="fill:#8d5fd3;stroke-width:0.773728"
       d="m 37.1877,19.087902 a 2.1716453,2.161619 0 0 1 1.764287,1.078599 l 2.8797,4.962365 2.877561,4.962366 a 2.1716453,2.161619 0 0 1 -1.880916,3.242096 H 31.315947 a 2.1716453,2.161619 0 0 1 -1.880913,-3.242096 l 2.877561,-4.962366 2.879676,-4.962365 a 2.1716453,2.161619 0 0 1 1.779146,-1.078599 2.1716453,2.161619 0 0 1 0.216283,0 z"
       id="path3" />
    <path
       style="opacity:0.2;fill:#ffffff;stroke-width:0.773728"
       d="M 24.06123,4 A 17.06123,16.98246 0 0 1 41.12245,20.98246 17.06123,16.98246 0 0 1 41.108818,21.362389 17.06123,16.98246 0 0 0 24.06123,4.7719298 17.06123,16.98246 0 0 0 7.0181768,21.404605 17.06123,16.98246 0 0 1 7,20.98246 17.06123,16.98246 0 0 1 24.06123,4 Z m 17.06122,17.605119 v 0.149263 a 17.06123,16.98246 0 0 0 -0.0049,-0.149263 z m 0,0.149263 v 0.622677 h -0.02273 a 17.06123,16.98246 0 0 0 0.02273,-0.622677 z m 0,2.152962 0.708858,1.22123 2.877882,4.963247 a 2.1716453,2.161619 0 0 1 0.252952,1.4715 2.1716453,2.161619 0 0 0 -0.252952,-0.69956 l -2.877882,-4.963269 -0.708858,-1.22121 z"
       id="path4" />
    <path
       style="opacity:0.3;stroke-width:0.773728"
       d="m 11.598531,9.403505 a 17.06123,16.98246 0 0 0 -3.429207,5.40352 H 39.936467 A 17.06123,16.98246 0 0 0 36.511792,9.403505 Z M 7.0272636,20.21053 A 17.06123,16.98246 0 0 0 7,20.98246 17.06123,16.98246 0 0 0 7.6679691,25.61403 H 42.113046 l -0.281738,-0.485456 -0.708858,-1.22123 v -2.152962 l -0.02728,-0.0018 A 17.06123,16.98246 0 0 0 41.12245,20.982198 17.06123,16.98246 0 0 0 41.08467,20.21026 Z M 10.33378,31.01754 a 17.06123,16.98246 0 0 0 2.870304,3.047006 v 2.356512 H 41.12245 v -3.08773 h 1.705523 a 2.1716453,2.161619 0 0 0 2.162949,-2.315788 z m 2.870304,10.80702 v 2.234379 c 0,1.755492 1.420186,3.169121 3.183826,3.169121 h 13.795597 c 1.763657,0 3.183846,-1.413629 3.183846,-3.169121 V 41.82456 Z"
       id="path5" />
    <path
       style="opacity:0.2;stroke-width:0.773728"
       d="m 11.598531,9.403505 a 17.06123,16.98246 0 0 0 -3.429207,5.40352 H 8.5101236 A 17.06123,16.98246 0 0 1 11.598531,10.17544 h 24.913261 a 17.06123,16.98246 0 0 1 3.074798,4.631585 h 0.349877 A 17.06123,16.98246 0 0 0 36.511792,9.403505 Z M 7.0272636,20.21053 A 17.06123,16.98246 0 0 0 7,20.98246 17.06123,16.98246 0 0 0 7.0166561,21.285503 17.06123,16.98246 0 0 1 7.0272581,20.98246 H 41.08459 a 17.06123,16.98246 0 0 1 0.02276,0.447778 17.06123,16.98246 0 0 0 0.01521,-0.447778 17.06123,16.98246 0 0 0 -0.03784,-0.77193 z M 41.12245,21.754382 a 17.06123,16.98246 0 0 1 -0.02728,0.770423 l 0.02728,0.0018 z m 0,2.152962 v 0.771938 l 0.542249,0.934748 h 0.448347 L 41.831308,25.128574 Z M 10.33378,31.01754 a 17.06123,16.98246 0 0 0 0.627088,0.77193 h 33.943715 a 2.1716453,2.161619 0 0 0 0.08628,-0.77193 z m 2.870304,10.80702 v 0.77194 h 20.163269 v -0.77194 z"
       id="path6" />
  </g>
</svg>
