<?xml version="1.0" encoding="UTF-8" standalone="no"?>
<svg
   width="62"
   height="62"
   version="1.1"
   id="svg14"
   sodipodi:docname="io.botfather.Botfather.svg"
   inkscape:version="1.4.1 (unknown)"
   xmlns:inkscape="http://www.inkscape.org/namespaces/inkscape"
   xmlns:sodipodi="http://sodipodi.sourceforge.net/DTD/sodipodi-0.dtd"
   xmlns="http://www.w3.org/2000/svg"
   xmlns:svg="http://www.w3.org/2000/svg">
  <defs
     id="defs14" />
  <sodipodi:namedview
     id="namedview14"
     pagecolor="#ffffff"
     bordercolor="#000000"
     borderopacity="0.25"
     inkscape:showpageshadow="2"
     inkscape:pageopacity="0.0"
     inkscape:pagecheckerboard="0"
     inkscape:deskcolor="#d1d1d1"
     inkscape:zoom="12"
     inkscape:cx="32.041667"
     inkscape:cy="32"
     inkscape:window-width="1920"
     inkscape:window-height="996"
     inkscape:window-x="0"
     inkscape:window-y="0"
     inkscape:window-maximized="1"
     inkscape:current-layer="svg14" />
  <g
     id="g14"
     transform="matrix(1.0000036,0,0,0.98245251,-1.0001152,-0.92960305)">
    <path
       style="opacity:0.2"
       d="m 40.977887,51.163642 -3.665474,0.194779 -5.052414,2.72691 L 47.120037,61 c -0.185439,-4.499064 -3.81515,-6.740829 -6.14215,-9.836358 z"
       id="path1" />
    <path
       style="opacity:0.2"
       d="m 21.142212,51.163642 3.665476,0.194779 5.052414,2.72691 L 15.000062,61 c 0.185443,-4.499064 3.815149,-6.740829 6.14215,-9.836358 z"
       id="path2" />
    <path
       style="fill:#2ca05a;fill-opacity:1"
       d="m 40.977887,50.163649 -3.665474,0.194779 -5.052414,2.726911 14.860038,6.914668 c -0.185439,-4.499063 -3.81515,-6.740829 -6.14215,-9.836358 z"
       id="path3" />
    <path
       style="fill:#2ca05a;fill-opacity:1"
       d="m 21.142212,50.163649 3.665476,0.194779 5.052414,2.726911 -14.86004,6.914668 c 0.185443,-4.499063 3.815149,-6.740829 6.14215,-9.836358 z"
       id="path4" />
    <path
       style="fill:#782144"
       d="m 28.451353,20.204987 c -0.511414,-0.31072 -3.3483,-9.250574 -3.440367,-11.5285492 -0.130868,-3.2381059 0.895348,-6.353678 3.880537,-3.6415833 1.428983,1.2982559 9.547894,11.4706775 9.445222,11.7734895 -0.331135,0.976583 -9.161035,3.836741 -9.885392,3.396643 z"
       id="path5" />
    <path
       style="opacity:0.1;fill:#ffffff"
       d="m 27.007812,4.0039062 c -1.541864,-0.1161235 -2.094243,2.2432955 -1.996093,4.671875 0.07692,-2.0342059 0.668656,-3.7718493 1.996093,-3.671875 0.513957,0.038708 1.136518,0.3532266 1.882813,1.03125 1.235176,1.1221772 7.446986,8.8511308 9.048828,11.1289058 0.205711,-0.134131 0.363137,-0.257121 0.396485,-0.355468 C 38.438617,16.505782 30.31961,6.3334122 28.890625,5.0351562 28.14433,4.3571327 27.521769,4.0426143 27.007812,4.0039062 Z"
       id="path6" />
    <path
       style="fill:#a02c5a"
       d="m 28.079798,17.037013 -2.527774,-1.978567 1.153675,-0.918372 c 1.696614,-1.350576 8.941166,-5.825367 12.775136,-7.1075808 1.855201,-0.6204453 3.444297,-1.1280821 3.531323,-1.1280821 0.369951,0 0.107339,1.9077265 -0.564806,4.1028769 -0.660584,2.157418 -2.868878,10.589451 -5.657133,12.120622 -2.311196,1.269193 -6.753592,3.302137 -7.987943,2.010978 -1.262694,-1.320803 0.693619,-5.993451 -0.722478,-7.101875 z"
       id="path7" />
    <path
       style="opacity:0.1;fill:#ffffff"
       d="m 43.011719,5.9023438 c -0.08702,0 -1.676049,0.5084609 -3.53125,1.1289062 -3.83397,1.2822138 -11.076824,5.758799 -12.773438,7.109375 l -1.15625,0.917969 0.634766,0.496094 0.521484,-0.414063 c 1.696614,-1.350576 8.939468,-5.8271612 12.773438,-7.109375 1.855201,-0.6204453 3.44423,-1.1289062 3.53125,-1.1289062 0.0491,0 0.08342,0.043109 0.109375,0.109375 0.08324,-0.6673158 0.06157,-1.109375 -0.109375,-1.109375 z M 28.542969,20.035156 c -0.09172,0.951676 -0.208464,1.932234 -0.158203,2.740235 0.03345,-0.560914 0.102026,-1.157343 0.158203,-1.740235 0.02761,0.164413 0.03684,0.349938 0.04687,0.533203 0.02936,-0.559579 0.02822,-1.085944 -0.04687,-1.533203 z"
       id="path8" />
    <path
       style="opacity:0.2"
       d="m 47.682533,13.000146 c -0.72258,0 -17.975103,4.609139 -18.544315,5.274036 -0.289486,0.338153 0.07332,1.145081 1.167404,2.653617 -1.00302,2.460433 -1.469604,5.930285 -2.331953,5.791481 -1.09175,-0.175719 -3.151657,-7.123836 -2.343372,-1.07639 0.639998,4.788331 -3.086116,-0.794567 -5.126302,7.230354 -1.949297,7.667418 -2.081316,12.499692 -0.439561,16.148621 1.732721,3.85111 2.2087,6.995444 6.795513,7.792069 2.736616,0.475285 11.225251,0.0064 14.040797,-1.023818 4.738836,-1.73391 10.004207,-7.018188 10.095619,-12.612938 0.191439,-11.716687 -7.401593,-13.878941 -3.31383,-30.177032 z"
       id="path9" />
    <path
       style="fill:#c83771"
       d="m 47.682533,12.000182 c -0.72258,0 -17.975103,4.609139 -18.544315,5.274036 -0.289486,0.338153 0.07332,1.14508 1.167404,2.653618 -1.00302,2.460433 -1.469604,5.930284 -2.331953,5.79148 -1.09175,-0.175719 -3.151657,-7.123835 -2.343372,-1.07639 0.639998,4.788331 -3.086116,-0.794567 -5.126302,7.230354 -1.949297,7.667418 -2.081316,12.499692 -0.439561,16.148621 1.732721,3.85111 2.2087,6.995444 6.795513,7.79207 2.736616,0.475284 11.225251,0.0064 14.040797,-1.023819 C 45.63958,53.056243 50.904951,47.771964 50.996363,42.177214 51.187802,30.460527 43.59477,28.298273 47.682533,12.000182 Z"
       id="path10" />
    <path
       style="opacity:0.1;fill:#ffffff"
       d="m 47.683594,12 c -0.72258,0 -17.977664,4.60854 -18.546875,5.273438 -0.147677,0.172501 -0.101127,0.488253 0.105469,0.939453 1.232589,-0.793889 16.631706,-4.91621 18.210937,-5.166016 0.07501,-0.346304 0.138063,-0.67845 0.230469,-1.046875 z m -17.832032,9.265625 c -0.702766,2.21512 -1.163577,4.568265 -1.878906,4.453125 -0.978096,-0.157424 -2.684612,-5.537669 -2.455078,-2.337891 0.258109,-0.746721 1.625638,3.204393 2.455078,3.337891 0.715329,0.11514 1.17614,-2.238005 1.878906,-4.453125 0.0664,0.0997 0.14474,0.210062 0.212891,0.310547 0.07778,-0.219945 0.155335,-0.442129 0.240235,-0.650391 -0.1808,-0.249293 -0.311909,-0.448133 -0.453126,-0.660156 z M 46.5,21.648438 c -0.02466,0.62423 -0.02274,1.216889 -0.0059,1.791015 0.0025,-0.263836 -0.005,-0.517172 0.0059,-0.791015 0.305675,7.971058 4.355398,11.430364 4.484375,19.703124 0.004,-0.05862 0.01076,-0.117084 0.01172,-0.175781 C 51.141331,33.286554 46.815821,29.884068 46.5,21.648438 Z M 25.59375,26.3125 c -0.572881,1.579136 -3.403728,-1.069712 -5.089844,5.5625 -1.112437,4.37569 -1.615233,7.80979 -1.550781,10.644531 0.06001,-2.636463 0.566073,-5.771255 1.550781,-9.644531 1.686116,-6.632212 4.516963,-3.983364 5.089844,-5.5625 0.01636,0.132512 0.01536,0.184292 0.03516,0.332031 0.02025,0.151486 0.02345,0.264999 0.03516,0.396485 0.05291,-0.325454 0.04894,-0.767293 -0.03516,-1.396485 -0.0198,-0.147739 -0.0188,-0.199519 -0.03516,-0.332031 z"
       id="path11" />
    <path
       style="opacity:0.2"
       d="M 24.675877,56.814541 C 20.110579,56.020718 15.855057,52.887278 14.130464,49.049706 12.49641,45.413601 12.627072,40.600086 14.567225,32.95962 16.59784,24.962912 17.209762,19.356558 16.572767,14.58506 15.768274,8.5588762 15.751931,8.8978442 16.83856,9.0729562 c 1.498017,0.241407 8.382499,4.1699048 12.490726,7.1275938 12.64031,9.100298 17.931946,19.644016 14.7818,29.453112 -1.709516,5.323183 -4.525638,8.413143 -9.242244,10.140957 -2.802338,1.026564 -7.469189,1.493537 -10.192965,1.019922 z"
       id="path12" />
    <path
       style="fill:#d35f8d"
       d="M 24.675877,55.814563 C 20.110579,55.020739 15.855057,51.887299 14.130464,48.049727 12.49641,44.413622 12.627072,39.600108 14.567225,31.959642 16.59784,23.962933 17.209762,18.356578 16.572767,13.585081 15.768274,7.5588963 15.751931,7.8978647 16.83856,8.072976 c 1.498017,0.2414074 8.382499,4.169906 12.490726,7.127594 12.64031,9.1003 17.931946,19.644017 14.7818,29.453113 -1.709516,5.323183 -4.525638,8.413144 -9.242244,10.140957 -2.802338,1.026565 -7.469189,1.493537 -10.192965,1.019923 z"
       id="path13" />
    <path
       style="opacity:0.2;fill:#ffffff"
       d="m 16.226562,8.0117188 c -0.217938,0.059323 -0.269086,0.388819 -0.189453,1.3027343 0.0348,-0.1660471 0.08903,-0.2753995 0.189453,-0.3027343 0.138705,-0.037756 0.341625,0.018722 0.613282,0.0625 1.498017,0.2414072 8.380054,4.1673112 12.488281,7.1250002 9.95218,7.164998 15.323709,15.225573 15.628906,23.117187 C 45.087202,31.107806 39.701354,22.667349 29.328125,15.199219 25.219898,12.24153 18.337861,8.315626 16.839844,8.0742188 16.568187,8.0304409 16.365267,7.9739628 16.226562,8.0117188 Z M 16.78125,18.375 c -0.111086,3.741387 -0.820016,8.093002 -2.214844,13.585938 -1.106922,4.359139 -1.606981,7.779732 -1.542968,10.603515 0.06021,-2.6255 0.563567,-5.746561 1.542968,-9.603515 1.394828,-5.492937 2.103758,-9.844551 2.214844,-13.585938 0.0078,0.244205 0.0038,0.500621 0.0059,0.75 0.01294,-0.59744 0.01224,-1.181803 -0.0059,-1.75 z"
       id="path14" />
  </g>
</svg>
