<?xml version="1.0" encoding="UTF-8" standalone="no"?>
<svg
   width="62"
   height="62"
   version="1.1"
   id="svg7"
   sodipodi:docname="io.github.Youda008.DoomRunner.svg"
   inkscape:version="1.4.1 (unknown)"
   xmlns:inkscape="http://www.inkscape.org/namespaces/inkscape"
   xmlns:sodipodi="http://sodipodi.sourceforge.net/DTD/sodipodi-0.dtd"
   xmlns="http://www.w3.org/2000/svg"
   xmlns:svg="http://www.w3.org/2000/svg">
  <defs
     id="defs7" />
  <sodipodi:namedview
     id="namedview7"
     pagecolor="#ffffff"
     bordercolor="#000000"
     borderopacity="0.25"
     inkscape:showpageshadow="2"
     inkscape:pageopacity="0.0"
     inkscape:pagecheckerboard="0"
     inkscape:deskcolor="#d1d1d1"
     inkscape:zoom="8.4852814"
     inkscape:cx="25.51477"
     inkscape:cy="27.459313"
     inkscape:window-width="1920"
     inkscape:window-height="996"
     inkscape:window-x="0"
     inkscape:window-y="0"
     inkscape:window-maximized="1"
     inkscape:current-layer="svg7" />
  <g
     id="g7"
     transform="matrix(0.98214286,0,0,0.98245614,-0.42857152,-0.92982455)">
    <rect
       style="opacity:0.2"
       width="56"
       height="56"
       x="4"
       y="5"
       rx="6"
       ry="6"
       id="rect1" />
    <rect
       style="fill:#2d3d53;fill-opacity:1"
       width="50"
       height="56"
       x="4"
       y="4"
       rx="6"
       ry="6"
       id="rect2" />
    <path
       style="opacity:0.2"
       d="m 17,13 3,2 V 55 L 39,38 38,37 V 15 l -4,-2 z m 13,6 2,1 v 14 l -6,5 V 19 Z"
       id="path2" />
    <path
       style="fill:#f2f2f2;fill-opacity:1"
       d="m 17,12 3,2 V 54 L 39,37 38,36 V 14 l -4,-2 z m 13,6 2,1 v 14 l -6,5 V 18 Z"
       id="path3" />
    <path
       style="fill:#ff9955"
       d="m 48,48 v 12 h 6 c 3.324,0 6,-2.676 6,-6 v -6 z"
       id="path4" />
    <rect
       style="fill:#ff2a2a"
       width="12"
       height="12"
       x="48"
       y="37"
       id="rect4" />
    <rect
       style="fill:#a02c5a"
       width="12"
       height="12"
       x="48"
       y="26"
       id="rect5" />
    <rect
       style="fill:#8d5fd3"
       width="12"
       height="12"
       x="48"
       y="14"
       id="rect6" />
    <path
       style="fill:#0066ff"
       d="M 47.91,4 C 47.964,4.3257 48,4.6585 48,5 V 15 H 60 V 10 C 60,6.676 57.324,4 54,4 Z"
       id="path6" />
    <path
       style="opacity:0.1;fill:#ffffff"
       d="M 10,4 C 6.676,4 4,6.676 4,10 v 1 C 4,7.676 6.676,5 10,5 h 44 c 3.324,0 6,2.676 6,6 V 10 C 60,6.676 57.324,4 54,4 Z"
       id="path7" />
  </g>
</svg>
