<?xml version="1.0" encoding="UTF-8" standalone="no"?>
<svg
   height="62"
   viewBox="0 0 62 62"
   width="62"
   version="1.1"
   id="svg36"
   sodipodi:docname="io.github.lainsce.DotMatrix.svg"
   inkscape:version="1.4.1 (unknown)"
   xmlns:inkscape="http://www.inkscape.org/namespaces/inkscape"
   xmlns:sodipodi="http://sodipodi.sourceforge.net/DTD/sodipodi-0.dtd"
   xmlns:xlink="http://www.w3.org/1999/xlink"
   xmlns="http://www.w3.org/2000/svg"
   xmlns:svg="http://www.w3.org/2000/svg">
  <defs
     id="defs36">
    <linearGradient
       id="linearGradient38"
       inkscape:collect="always">
      <stop
         style="stop-color:#2a7fff;stop-opacity:1"
         offset="0"
         id="stop38" />
      <stop
         style="stop-color:#00b6b6;stop-opacity:1;"
         offset="1"
         id="stop39" />
    </linearGradient>
    <linearGradient
       id="linearGradient36"
       inkscape:collect="always">
      <stop
         style="stop-color:#e1ddda;stop-opacity:1;"
         offset="0"
         id="stop36" />
      <stop
         style="stop-color:#f6f5f4;stop-opacity:0.62107903;"
         offset="1"
         id="stop37" />
    </linearGradient>
    <linearGradient
       inkscape:collect="always"
       xlink:href="#linearGradient36"
       id="linearGradient37"
       x1="39"
       y1="9"
       x2="39"
       y2="64"
       gradientUnits="userSpaceOnUse"
       gradientTransform="translate(-9,-9)" />
    <linearGradient
       inkscape:collect="always"
       xlink:href="#linearGradient38"
       id="linearGradient39"
       x1="29.923077"
       y1="47.153847"
       x2="29.923077"
       y2="10.538462"
       gradientUnits="userSpaceOnUse" />
  </defs>
  <sodipodi:namedview
     id="namedview36"
     pagecolor="#ffffff"
     bordercolor="#000000"
     borderopacity="0.25"
     inkscape:showpageshadow="2"
     inkscape:pageopacity="0.0"
     inkscape:pagecheckerboard="0"
     inkscape:deskcolor="#d1d1d1"
     showgrid="true"
     inkscape:zoom="6"
     inkscape:cx="63.916667"
     inkscape:cy="45.666667"
     inkscape:window-width="1920"
     inkscape:window-height="996"
     inkscape:window-x="0"
     inkscape:window-y="0"
     inkscape:window-maximized="1"
     inkscape:current-layer="svg36">
    <inkscape:grid
       id="grid37"
       units="px"
       originx="0"
       originy="0"
       spacingx="1"
       spacingy="1"
       empcolor="#0099e5"
       empopacity="0.30196078"
       color="#0099e5"
       opacity="0.14901961"
       empspacing="5"
       enabled="true"
       visible="true" />
  </sodipodi:namedview>
  <linearGradient
     id="a"
     gradientTransform="matrix(0.12500008,0,0,0.17712531,-8.0743016,138.59912)"
     gradientUnits="userSpaceOnUse"
     x1="88.595886"
     x2="536.59589"
     y1="-449.39401"
     y2="-449.39401">
    <stop
       offset="0"
       stop-color="#deddda"
       id="stop1" />
    <stop
       offset="0.0384615"
       stop-color="#deddda"
       id="stop2" />
    <stop
       offset="0.0768555"
       stop-color="#c0bfbc"
       id="stop3" />
    <stop
       offset="0.923077"
       stop-color="#c0bfbc"
       id="stop4" />
    <stop
       offset="0.961538"
       stop-color="#deddda"
       id="stop5" />
    <stop
       offset="1"
       stop-color="#c0bfbc"
       id="stop6" />
  </linearGradient>
  <linearGradient
     id="b"
     gradientUnits="userSpaceOnUse"
     x1="63.822495"
     x2="64.202827"
     y1="27.805363"
     y2="92.536797"
     gradientTransform="matrix(0.53846154,0,0,0.53846154,-3.4615385,-3.4615385)">
    <stop
       offset="0"
       stop-color="#00dac7"
       id="stop7" />
    <stop
       offset="1"
       stop-color="#3584e4"
       id="stop8" />
  </linearGradient>
  <path
     d="m 22.384615,28.846154 c 0,0.595252 -0.48167,1.076923 -1.076923,1.076923 -0.595252,0 -1.076923,-0.481671 -1.076923,-1.076923 0,-0.595253 0.481671,-1.076923 1.076923,-1.076923 0.595253,0 1.076923,0.48167 1.076923,1.076923 z m 0,0"
     fill="#deddda"
     id="path8"
     style="stroke-width:0.538462;fill:#96948f;fill-opacity:1" />
  <path
     d="M 7.307692,5.153846 H 54.692308 C 57.071215,5.153846 59,7.082632 59,9.461538 v 45.23077 C 59,57.071215 57.071215,59 54.692308,59 H 7.307692 C 4.928786,59 3,57.071215 3,54.692308 V 9.461538 C 3,7.082632 4.928786,5.153846 7.307692,5.153846 Z m 0,0"
     fill="url(#a)"
     id="path9"
     style="fill:url(#a);stroke-width:0.538462" />
  <path
     d="M 7.307692,3 H 54.692308 C 57.071215,3 59,4.850962 59,7.135217 V 50.55709 c 0,2.284256 -1.928785,4.135218 -4.307692,4.135218 H 7.307692 C 4.928786,54.692308 3,52.841346 3,50.55709 V 7.135217 C 3,4.850962 4.928786,3 7.307692,3 Z m 0,0"
     id="path10"
     style="fill:url(#linearGradient37);stroke-width:0.538462" />
  <path
     d="m 13.769231,11.615385 c 0,1.190505 -0.963341,2.153846 -2.153846,2.153846 -1.190505,0 -2.153847,-0.963341 -2.153847,-2.153846 0,-1.190505 0.963342,-2.153847 2.153847,-2.153847 1.190505,0 2.153846,0.963342 2.153846,2.153847 z m 0,0"
     fill="#b8b7b5"
     id="path11"
     style="stroke-width:0.538462;fill:#96948f;fill-opacity:1" />
  <path
     d="m 52.538462,11.615385 c 0,1.190505 -0.96334,2.153846 -2.153847,2.153846 -1.190505,0 -2.153846,-0.963341 -2.153846,-2.153846 0,-1.190505 0.963341,-2.153847 2.153846,-2.153847 1.190507,0 2.153847,0.963342 2.153847,2.153847 z m 0,0"
     fill="#b8b7b5"
     id="path12"
     style="stroke-width:0.538462;fill:#979690;fill-opacity:1" />
  <path
     d="m 52.538462,46.076923 c 0,1.190505 -0.96334,2.153846 -2.153847,2.153846 -1.190505,0 -2.153846,-0.963341 -2.153846,-2.153846 0,-1.190505 0.963341,-2.153846 2.153846,-2.153846 1.190507,0 2.153847,0.963341 2.153847,2.153846 z m 0,0"
     fill="#b8b7b5"
     id="path13"
     style="stroke-width:0.538462;fill:#979690;fill-opacity:1" />
  <path
     d="m 13.769231,46.076923 c 0,1.190505 -0.963341,2.153846 -2.153846,2.153846 -1.190505,0 -2.153847,-0.963341 -2.153847,-2.153846 0,-1.190505 0.963342,-2.153846 2.153847,-2.153846 1.190505,0 2.153846,0.963341 2.153846,2.153846 z m 0,0"
     fill="#b8b7b5"
     id="path14"
     style="stroke-width:0.538462;fill:#96948f;fill-opacity:1" />
  <path
     d="M 12.692308,36.923077 C 12.692308,37.51833 12.210637,38 11.615385,38 c -0.595253,0 -1.076923,-0.48167 -1.076923,-1.076923 0,-0.595253 0.48167,-1.076923 1.076923,-1.076923 0.595252,0 1.076923,0.48167 1.076923,1.076923 z m 0,0"
     id="path15"
     style="fill:#96948f;stroke-width:0.538462;fill-opacity:1" />
  <path
     d="M 22.384615,36.923077 C 22.384615,37.51833 21.902945,38 21.307692,38 c -0.595252,0 -1.076923,-0.48167 -1.076923,-1.076923 0,-0.595253 0.481671,-1.076923 1.076923,-1.076923 0.595253,0 1.076923,0.48167 1.076923,1.076923 z m 0,0"
     id="path16"
     style="fill:#96948f;stroke-width:0.538462;fill-opacity:1" />
  <path
     d="m 12.692308,28.307692 c 0,0.595253 -0.481671,1.076923 -1.076923,1.076923 -0.595253,0 -1.076923,-0.48167 -1.076923,-1.076923 0,-0.595252 0.48167,-1.076923 1.076923,-1.076923 0.595252,0 1.076923,0.481671 1.076923,1.076923 z m 0,0"
     id="path17"
     style="fill:#96948f;stroke-width:0.538462;fill-opacity:1" />
  <path
     d="M 32.076923,36.923077 C 32.076923,37.51833 31.595253,38 31,38 c -0.595252,0 -1.076923,-0.48167 -1.076923,-1.076923 0,-0.595253 0.481671,-1.076923 1.076923,-1.076923 0.595253,0 1.076923,0.48167 1.076923,1.076923 z m 0,0"
     id="path18"
     style="fill:#979690;stroke-width:0.538462;fill-opacity:1" />
  <path
     d="m 22.653846,46.076923 c 0,0.595253 -0.48167,1.076923 -1.076923,1.076923 C 20.981671,47.153846 20.5,46.672176 20.5,46.076923 20.5,45.481671 20.981671,45 21.576923,45 c 0.595253,0 1.076923,0.481671 1.076923,1.076923 z m 0,0"
     id="path19"
     style="fill:#96948f;stroke-width:0.538462;fill-opacity:1" />
  <path
     d="m 41.5,46.076923 c 0,0.595253 -0.48167,1.076923 -1.076923,1.076923 -0.595253,0 -1.076923,-0.48167 -1.076923,-1.076923 C 39.346154,45.481671 39.827824,45 40.423077,45 41.01833,45 41.5,45.481671 41.5,46.076923 Z m 0,0"
     id="path20"
     style="fill:#979690;stroke-width:0.538462;fill-opacity:1" />
  <path
     d="M 41.769231,36.923077 C 41.769231,37.51833 41.28756,38 40.692308,38 c -0.595253,0 -1.076923,-0.48167 -1.076923,-1.076923 0,-0.595253 0.48167,-1.076923 1.076923,-1.076923 0.595252,0 1.076923,0.48167 1.076923,1.076923 z m 0,0"
     id="path21"
     style="fill:#979690;stroke-width:0.538462;fill-opacity:1" />
  <path
     d="M 51.461539,36.923077 C 51.461539,37.51833 50.979869,38 50.384615,38 c -0.595252,0 -1.076923,-0.48167 -1.076923,-1.076923 0,-0.595253 0.481671,-1.076923 1.076923,-1.076923 0.595254,0 1.076924,0.48167 1.076924,1.076923 z m 0,0"
     id="path22"
     style="fill:#979690;stroke-width:0.538462;fill-opacity:1" />
  <path
     d="m 41.5,28.307692 c 0,0.595253 -0.48167,1.076923 -1.076923,1.076923 -0.595253,0 -1.076923,-0.48167 -1.076923,-1.076923 0,-0.595252 0.48167,-1.076923 1.076923,-1.076923 0.595253,0 1.076923,0.481671 1.076923,1.076923 z m 0,0"
     id="path23"
     style="fill:#979690;stroke-width:0.538462;fill-opacity:1" />
  <path
     d="m 41.5,20.5 c 0,0.595253 -0.48167,1.076923 -1.076923,1.076923 -0.595253,0 -1.076923,-0.48167 -1.076923,-1.076923 0,-0.595253 0.48167,-1.076923 1.076923,-1.076923 0.595253,0 1.076923,0.48167 1.076923,1.076923 z m 0,0"
     id="path24"
     style="fill:#979690;stroke-width:0.538462;fill-opacity:1" />
  <path
     d="m 32.076923,20.5 c 0,0.595253 -0.48167,1.076923 -1.076923,1.076923 -0.595252,0 -1.076923,-0.48167 -1.076923,-1.076923 0,-0.595253 0.481671,-1.076923 1.076923,-1.076923 0.595253,0 1.076923,0.48167 1.076923,1.076923 z m 0,0"
     id="path25"
     style="fill:#979690;stroke-width:0.538462;fill-opacity:1" />
  <path
     d="m 22.653846,20.5 c 0,0.595253 -0.48167,1.076923 -1.076923,1.076923 C 20.981671,21.576923 20.5,21.095253 20.5,20.5 c 0,-0.595253 0.481671,-1.076923 1.076923,-1.076923 0.595253,0 1.076923,0.48167 1.076923,1.076923 z m 0,0"
     id="path26"
     style="fill:#96948f;stroke-width:0.538462;fill-opacity:1" />
  <path
     d="m 12.692308,20.5 c 0,0.595253 -0.481671,1.076923 -1.076923,1.076923 -0.595253,0 -1.076923,-0.48167 -1.076923,-1.076923 0,-0.595253 0.48167,-1.076923 1.076923,-1.076923 0.595252,0 1.076923,0.48167 1.076923,1.076923 z m 0,0"
     id="path27"
     style="fill:#96948f;stroke-width:0.538462;fill-opacity:1" />
  <path
     d="m 22.653846,11.615385 c 0,0.595252 -0.48167,1.076923 -1.076923,1.076923 -0.595252,0 -1.076923,-0.481671 -1.076923,-1.076923 0,-0.595253 0.481671,-1.076923 1.076923,-1.076923 0.595253,0 1.076923,0.48167 1.076923,1.076923 z m 0,0"
     id="path28"
     style="fill:#96948f;stroke-width:0.538462;fill-opacity:1" />
  <path
     d="m 41.5,11.615385 c 0,0.595252 -0.48167,1.076923 -1.076923,1.076923 -0.595253,0 -1.076923,-0.481671 -1.076923,-1.076923 0,-0.595253 0.48167,-1.076923 1.076923,-1.076923 0.595253,0 1.076923,0.48167 1.076923,1.076923 z m 0,0"
     id="path29"
     style="fill:#979690;stroke-width:0.538462;fill-opacity:1" />
  <path
     d="m 51.461539,20.5 c 0,0.595253 -0.48167,1.076923 -1.076924,1.076923 -0.595252,0 -1.076923,-0.48167 -1.076923,-1.076923 0,-0.595253 0.481671,-1.076923 1.076923,-1.076923 0.595254,0 1.076924,0.48167 1.076924,1.076923 z m 0,0"
     id="path30"
     style="fill:#979690;stroke-width:0.538462;fill-opacity:1" />
  <path
     d="m 51.461539,28.307692 c 0,0.595253 -0.48167,1.076923 -1.076924,1.076923 -0.595252,0 -1.076923,-0.48167 -1.076923,-1.076923 0,-0.595252 0.481671,-1.076923 1.076923,-1.076923 0.595254,0 1.076924,0.481671 1.076924,1.076923 z m 0,0"
     id="path31"
     style="fill:#979690;stroke-width:0.538462;fill-opacity:1" />
  <path
     d="m 22.653846,28.307692 c 0,0.595253 -0.48167,1.076923 -1.076923,1.076923 -0.595252,0 -1.076923,-0.48167 -1.076923,-1.076923 0,-0.595252 0.481671,-1.076923 1.076923,-1.076923 0.595253,0 1.076923,0.481671 1.076923,1.076923 z m 0,0"
     id="path32"
     style="fill:#96948f;stroke-width:0.538462;fill-opacity:1" />
  <path
     d="m 32.076923,28.307692 c 0,0.595253 -0.48167,1.076923 -1.076923,1.076923 -0.595252,0 -1.076923,-0.48167 -1.076923,-1.076923 0,-0.595252 0.481671,-1.076923 1.076923,-1.076923 0.595253,0 1.076923,0.481671 1.076923,1.076923 z m 0,0"
     id="path33"
     style="fill:#979690;stroke-width:0.538462;fill-opacity:1" />
  <path
     d="m 32.076923,11.615385 c 0,0.595252 -0.48167,1.076923 -1.076923,1.076923 -0.595252,0 -1.076923,-0.481671 -1.076923,-1.076923 0,-0.595253 0.481671,-1.076923 1.076923,-1.076923 0.595253,0 1.076923,0.48167 1.076923,1.076923 z m 0,0"
     id="path34"
     style="fill:#979690;stroke-width:0.538462;fill-opacity:1" />
  <path
     d="m 32.076923,46.076923 c 0,0.595253 -0.48167,1.076923 -1.076923,1.076923 -0.595252,0 -1.076923,-0.48167 -1.076923,-1.076923 C 29.923077,45.481671 30.404748,45 31,45 c 0.595253,0 1.076923,0.481671 1.076923,1.076923 z m 0,0"
     id="path35"
     style="fill:#979690;stroke-width:0.538462;fill-opacity:1" />
  <path
     d="m 10.906551,9.821214 c -0.851864,-0.02524 -1.278847,0.944411 -1.070614,1.678485 0.416467,7.111479 2.765926,14.652044 8.453426,19.313102 2.141226,1.758413 4.690505,2.999398 7.378606,3.664062 -3.9375,2.317909 -5.672777,7.105168 -5.65595,11.484375 0.283955,1.123197 1.697416,0.845553 2.536659,0.746695 4.000601,-0.357573 7.504808,-3.361178 8.680589,-7.166166 1.276743,4.240384 5.46875,7.330228 9.906851,7.248197 0.90655,0.182992 1.581731,-0.782452 1.320913,-1.615385 -0.252403,-4.128906 -1.932993,-8.527043 -5.666466,-10.697716 6.188101,-1.415565 11.18149,-6.268029 13.457332,-12.100661 1.478667,-3.716647 2.359978,-7.721455 2.362078,-11.724158 C 52.332333,9.533053 50.935698,9.81911 50.098558,9.861178 44.11238,10.060997 38.275541,13.125601 34.952224,18.148437 33.185397,20.69351 32.001202,23.602464 31.229267,26.591346 29.68119,20.197115 25.676382,14.021635 19.414663,11.445012 16.737079,10.298678 13.809195,9.817007 10.906551,9.821214 Z m 1.188401,2.254808 c 5.235276,0.126202 10.466346,2.591346 13.432092,6.987379 2.795372,4.061599 4.269831,8.96875 4.513821,13.871695 C 24.807692,32.808894 19.574519,30.345853 16.608774,25.94982 13.817608,21.900841 12.336839,16.964243 12.094952,12.076022 Z m 38.26863,0 c -0.328126,5.817908 -2.259015,11.80619 -6.360577,16.071815 -3.009916,3.09405 -7.323918,4.629507 -11.583233,4.787259 0.328125,-5.817909 2.259014,-11.804086 6.360577,-16.069711 3.016225,-3.100361 7.317607,-4.625301 11.583233,-4.789363 z M 30.030349,35.36238 c -0.330229,3.579928 -2.145433,7.546875 -5.838943,8.676382 -1.333534,0.616286 -2.404146,0.47536 -1.682692,-1.148438 0.622596,-3.264423 2.755408,-6.5625 6.196514,-7.290264 0.435397,-0.109375 0.879207,-0.1872 1.325121,-0.23768 z m 2.399939,0 c 3.218149,0.199819 5.967248,2.572416 6.947416,5.592848 0.433293,1.348258 1.726863,4.459135 -0.814002,3.173978 -3.880709,-0.999098 -5.788462,-5.083834 -6.133414,-8.766826 z m 0,0"
     id="path36"
     style="fill:url(#linearGradient39)" />
</svg>
