<?xml version="1.0" encoding="UTF-8" standalone="no"?>
<svg
   height="62"
   width="62"
   version="1.1"
   id="svg9"
   sodipodi:docname="io.github.ezQuake.svg"
   inkscape:version="1.4.1 (unknown)"
   xmlns:inkscape="http://www.inkscape.org/namespaces/inkscape"
   xmlns:sodipodi="http://sodipodi.sourceforge.net/DTD/sodipodi-0.dtd"
   xmlns="http://www.w3.org/2000/svg"
   xmlns:svg="http://www.w3.org/2000/svg">
  <defs
     id="defs9" />
  <sodipodi:namedview
     id="namedview9"
     pagecolor="#ffffff"
     bordercolor="#000000"
     borderopacity="0.25"
     inkscape:showpageshadow="2"
     inkscape:pageopacity="0.0"
     inkscape:pagecheckerboard="0"
     inkscape:deskcolor="#d1d1d1"
     inkscape:zoom="8.4852814"
     inkscape:cx="16.145605"
     inkscape:cy="31.466252"
     inkscape:window-width="1920"
     inkscape:window-height="996"
     inkscape:window-x="0"
     inkscape:window-y="0"
     inkscape:window-maximized="1"
     inkscape:current-layer="svg9" />
  <g
     id="g9"
     transform="matrix(0.98214286,0,0,0.98245614,-0.42857152,-0.92982455)">
    <circle
       cx="32"
       cy="33"
       r="28"
       style="opacity:0.2"
       id="circle1" />
    <circle
       cx="32"
       cy="32"
       r="28"
       style="fill:#4f4f4f"
       id="circle2" />
    <path
       d="M 32,4 A 28,28 0 0 0 4,32 28,28 0 0 0 4.0215,32.586 28,28 0 0 1 32,5 28,28 0 0 1 59.979,32.414 28,28 0 0 0 60,32 28,28 0 0 0 32,4 Z"
       style="opacity:0.1;fill:#ffffff"
       id="path2" />
    <path
       style="opacity:0.2"
       d="m 38.5,16 c -2.531273,0 -4.931163,0.548658 -7.103516,1.515625 l 2.640625,3.419922 c 2.166482,-1.275684 4.68288,-2.019291 7.378907,-2.019531 5.202489,0.0082 9.606254,2.787203 12.207031,7.292968 C 46.534399,34.16047 39,41 31.978516,49.730469 33.995402,50.541696 36.192883,51 38.5,51 45.329156,50.985264 51.525875,46.999262 54.371094,40.791016 h -0.341797 c -2.601825,4.507574 -7.408698,7.286896 -12.613281,7.292968 -1.077417,-0.0044 -2.151027,-0.128219 -3.201172,-0.36914 L 54.382812,26.208984 C 51.53582,19.996891 45.3334,16.010166 38.5,16 Z M 28.261719,19.328125 C 23.868938,22.507441 21,27.662891 21,33.5 c 0,6.061941 3.082881,11.402461 7.765625,14.542969 l 2.943359,-3.679688 C 28.653477,41.634342 26.83627,37.704425 26.833984,33.5 c -1.83e-4,-4.095578 1.693607,-7.792341 4.41211,-10.441406 z"
       id="path3" />
    <path
       style="fill:#ffcc00"
       d="m 38.5,15 c -2.531273,0 -4.931163,0.548658 -7.103516,1.515625 l 2.640625,3.419922 c 2.166482,-1.275684 4.68288,-2.019291 7.378907,-2.019531 5.202489,0.0082 9.606254,2.787203 12.207031,7.292968 C 46.534399,33.16047 39,40 31.978516,48.730469 33.995402,49.541696 36.192883,50 38.5,50 45.329156,49.985264 51.525875,45.999262 54.371094,39.791016 h -0.341797 c -2.601825,4.507574 -7.408698,7.286896 -12.613281,7.292968 -1.077417,-0.0044 -2.151027,-0.128219 -3.201172,-0.36914 L 54.382812,25.208984 C 51.53582,18.996891 45.3334,15.010166 38.5,15 Z M 28.261719,18.328125 C 23.868938,21.507441 21,26.662891 21,32.5 c 0,6.061941 3.082881,11.402461 7.765625,14.542969 l 2.943359,-3.679688 C 28.653477,40.634342 26.83627,36.704425 26.833984,32.5 c -1.83e-4,-4.095578 1.693607,-7.792341 4.41211,-10.441406 z"
       id="path4" />
    <path
       style="opacity:0.2;fill:#ffffff"
       d="m 38.5,15 c -2.531273,0 -4.931163,0.548658 -7.103516,1.515625 l 0.595704,0.769531 C 34.007025,16.473372 36.194539,16 38.5,16 c 6.608587,0.0098 12.618037,3.745096 15.582031,9.609375 l 0.300781,-0.400391 C 51.53582,18.996891 45.3334,15.010166 38.5,15 Z M 28.261719,18.328125 C 23.868938,21.507441 21,26.662891 21,32.5 c 0,0.166128 0.01103,0.329127 0.01563,0.494141 0.161085,-5.627563 2.981206,-10.579264 7.246094,-13.666016 l 2.554687,3.191406 c 0.144053,-0.152906 0.279246,-0.314338 0.429688,-0.460937 z m 24.99414,7.283203 c -6.981914,7.778638 -14.376181,14.538279 -21.277343,23.119141 0.210246,0.08456 0.43044,0.147834 0.644531,0.224609 6.837633,-8.356724 14.126587,-15.036041 21,-22.746094 -0.117776,-0.204042 -0.24211,-0.400792 -0.367188,-0.597656 z m -26.396484,7.378906 c -0.0059,0.170716 -0.0254,0.337593 -0.02539,0.509766 0.0022,3.988608 1.653065,7.716412 4.429688,10.419922 l 0.445312,-0.556641 C 28.773298,40.741357 26.99748,37.00773 26.859375,32.990234 Z m 27.169922,6.800782 c -2.601825,4.507574 -7.408698,7.286896 -12.613281,7.292968 -0.851703,-0.0035 -1.697922,-0.102323 -2.535157,-0.253906 l -0.666015,0.884766 c 1.050145,0.240921 2.123755,0.36474 3.201172,0.36914 4.300962,-0.005 8.326635,-1.908317 11.064453,-5.111328 0.73138,-0.979081 1.368313,-2.04196 1.890625,-3.18164 z"
       id="path5" />
    <path
       style="opacity:0.2"
       d="M 37,27.8 34.15,31 H 15.625 L 7,33.5 15.625,36 H 34.15 L 37,39.2 v -8.55 z"
       id="path6" />
    <path
       style="fill:#ffcc00"
       d="M 37,26.8 34.15,30 H 15.625 L 7,32.5 15.625,35 H 34.15 L 37,38.2 v -8.55 z"
       id="path7" />
    <path
       style="opacity:0.2;fill:#ffffff"
       d="M 37,26.800781 34.150391,30 H 15.625 L 7,32.5 8.7246094,33 15.625,31 H 34.150391 L 37,27.800781 Z"
       id="path9" />
  </g>
</svg>
