<?xml version="1.0" encoding="UTF-8" standalone="no"?>
<svg
   width="62"
   height="62"
   version="1.1"
   id="svg29"
   sodipodi:docname="io.github.flattool.Warehouse.svg"
   inkscape:version="1.4.1 (unknown)"
   xmlns:inkscape="http://www.inkscape.org/namespaces/inkscape"
   xmlns:sodipodi="http://sodipodi.sourceforge.net/DTD/sodipodi-0.dtd"
   xmlns:xlink="http://www.w3.org/1999/xlink"
   xmlns="http://www.w3.org/2000/svg"
   xmlns:svg="http://www.w3.org/2000/svg">
  <defs
     id="defs29">
    <linearGradient
       id="linearGradient29"
       inkscape:collect="always">
      <stop
         style="stop-color:#476083;stop-opacity:1;"
         offset="0"
         id="stop29" />
      <stop
         style="stop-color:#7892b8;stop-opacity:1;"
         offset="1"
         id="stop30" />
    </linearGradient>
    <linearGradient
       inkscape:collect="always"
       xlink:href="#linearGradient29"
       id="linearGradient30"
       x1="30.782633"
       y1="60"
       x2="30.193521"
       y2="5"
       gradientUnits="userSpaceOnUse"
       gradientTransform="matrix(0.98214286,0,0,0.98245614,-0.42857152,-0.92982455)" />
    <clipPath
       clipPathUnits="userSpaceOnUse"
       id="clipPath21">
      <rect
         width="11.90592"
         height="11.90592"
         x="2.5134759"
         y="2.5135839"
         fill="#8e74dc"
         rx="2.3811841"
         ry="2.3811841"
         style="fill:#3368aa;fill-opacity:1;stroke-width:0.238118"
         id="rect21" />
    </clipPath>
    <clipPath
       clipPathUnits="userSpaceOnUse"
       id="clipPath20">
      <rect
         width="11.90592"
         height="11.90592"
         x="2.5134759"
         y="2.5135839"
         fill="#8e74dc"
         rx="2.3811841"
         ry="2.3811841"
         style="fill:#3368aa;fill-opacity:1;stroke-width:0.238118"
         id="rect20" />
    </clipPath>
    <clipPath
       clipPathUnits="userSpaceOnUse"
       id="clipPath19">
      <rect
         width="11.90592"
         height="11.90592"
         x="2.5134759"
         y="2.5135839"
         fill="#8e74dc"
         rx="2.3811841"
         ry="2.3811841"
         style="fill:#3368aa;fill-opacity:1;stroke-width:0.238118"
         id="rect19" />
    </clipPath>
    <clipPath
       clipPathUnits="userSpaceOnUse"
       id="clipPath18">
      <rect
         width="11.90592"
         height="11.90592"
         x="2.5134759"
         y="2.5135839"
         fill="#8e74dc"
         rx="2.3811841"
         ry="2.3811841"
         style="fill:#3368aa;fill-opacity:1;stroke-width:0.238118"
         id="rect18" />
    </clipPath>
    <clipPath
       clipPathUnits="userSpaceOnUse"
       id="clipPath17">
      <rect
         width="11.90592"
         height="11.90592"
         x="2.5134759"
         y="2.5135839"
         fill="#8e74dc"
         rx="2.3811841"
         ry="2.3811841"
         style="fill:#3368aa;fill-opacity:1;stroke-width:0.238118"
         id="rect17" />
    </clipPath>
    <clipPath
       clipPathUnits="userSpaceOnUse"
       id="clipPath16">
      <rect
         width="11.90592"
         height="11.90592"
         x="2.5134759"
         y="2.5135839"
         fill="#8e74dc"
         rx="2.3811841"
         ry="2.3811841"
         style="fill:#3368aa;fill-opacity:1;stroke-width:0.238118"
         id="rect16" />
    </clipPath>
    <clipPath
       clipPathUnits="userSpaceOnUse"
       id="clipPath15">
      <rect
         width="11.90592"
         height="11.90592"
         x="2.5134759"
         y="2.5135839"
         fill="#8e74dc"
         rx="2.3811841"
         ry="2.3811841"
         style="fill:#3368aa;fill-opacity:1;stroke-width:0.238118"
         id="rect15" />
    </clipPath>
    <clipPath
       clipPathUnits="userSpaceOnUse"
       id="clipPath14">
      <rect
         width="11.90592"
         height="11.90592"
         x="2.5134759"
         y="2.5135839"
         fill="#8e74dc"
         rx="2.3811841"
         ry="2.3811841"
         style="fill:#3368aa;fill-opacity:1;stroke-width:0.238118"
         id="rect14" />
    </clipPath>
    <clipPath
       clipPathUnits="userSpaceOnUse"
       id="clipPath13">
      <rect
         width="11.90592"
         height="11.90592"
         x="2.5134759"
         y="2.5135839"
         fill="#8e74dc"
         rx="2.3811841"
         ry="2.3811841"
         style="fill:#3368aa;fill-opacity:1;stroke-width:0.238118"
         id="rect13" />
    </clipPath>
    <clipPath
       id="a"
       clipPathUnits="userSpaceOnUse">
      <rect
         width="80"
         height="80"
         x="24"
         y="16"
         fill="#8e74dc"
         rx="16"
         ry="16"
         style="fill:#3368aa;fill-opacity:1;stroke-width:1.6"
         id="rect1-2" />
    </clipPath>
  </defs>
  <sodipodi:namedview
     id="namedview29"
     pagecolor="#ffffff"
     bordercolor="#000000"
     borderopacity="0.25"
     inkscape:showpageshadow="2"
     inkscape:pageopacity="0.0"
     inkscape:pagecheckerboard="0"
     inkscape:deskcolor="#d1d1d1"
     inkscape:zoom="5"
     inkscape:cx="17.7"
     inkscape:cy="24.4"
     inkscape:window-width="1920"
     inkscape:window-height="996"
     inkscape:window-x="0"
     inkscape:window-y="0"
     inkscape:window-maximized="1"
     inkscape:current-layer="svg29"
     showgrid="true">
    <inkscape:grid
       id="grid1"
       units="px"
       originx="0"
       originy="0"
       spacingx="1"
       spacingy="1"
       empcolor="#0099e5"
       empopacity="0.30196078"
       color="#0099e5"
       opacity="0.14901961"
       empspacing="5"
       enabled="true"
       visible="true" />
  </sodipodi:namedview>
  <rect
     style="opacity:0.2;stroke-width:0.9823"
     width="55"
     height="55.017544"
     x="3.5"
     y="3.9824562"
     ry="13.754386"
     id="rect1" />
  <rect
     style="fill:url(#linearGradient30);stroke-width:0.9823"
     width="55"
     height="55.017544"
     x="3.5"
     y="3"
     ry="13.754386"
     id="rect2" />
  <path
     style="opacity:0.1;fill:#ffffff;stroke-width:0.9823"
     d="M 17.25,3 C 9.6324999,3 3.4999999,9.1344561 3.4999999,16.754386 v 0.982456 c 0,-7.61993 6.1325,-13.7543858 13.7500001,-13.7543858 h 27.5 c 7.6175,0 13.75,6.1344558 13.75,13.7543858 V 16.754386 C 58.5,9.1344561 52.3675,3 44.75,3 Z"
     id="path28" />
  <rect
     width="45.00032"
     height="45.00032"
     x="8.4998398"
     y="8.0086117"
     fill="#8e74dc"
     rx="9.0007439"
     ry="9.0007439"
     style="fill:#356cb0;fill-opacity:1;stroke-width:0.899999"
     id="rect3" />
  <g
     transform="matrix(3.4016418,0,0,3.4016418,2.2006118,1.7087714)"
     id="g12">
    <rect
       width="13.229"
       height="13.229"
       x="1.852"
       y="1.852"
       fill="#8e74dc"
       rx="2.6459999"
       ry="2.6459999"
       style="fill:#3368aa;fill-opacity:1;stroke-width:0.264578"
       id="rect3-9" />
    <g
       clip-path="url(#a)"
       style="fill:none"
       transform="matrix(0.16536,0,0,0.16536,-2.117,-0.794)"
       id="g11">
      <path
         fill="#62a0ea"
         d="m 24,52 h 80 v 7 H 24 Z"
         style="stroke-width:1.05409"
         id="path3" />
      <path
         fill="#b5835a"
         d="M 71.778,30.222 H 104 V 52.444 H 71.778 Z"
         id="path4" />
      <path
         fill="#ffffff"
         d="m 76.222,33.556 h 20 v 5.555 h -20 z m 0,7.777 h 13.334 v 3.334 H 76.222 Z"
         opacity="0.5"
         id="path5" />
      <path
         fill="#d4a782"
         d="m 24,30.208477 c 0.0022,-5.541477 4.445853,-8.88896 9.779229,-8.88896 L 71.778,21.333 V 52.444 H 24 Z"
         id="path6"
         sodipodi:nodetypes="cccccc" />
      <path
         fill="#ffffff"
         d="m 27.333,24.667 h 22.223 v 5.555 H 27.333 Z m 0,7.777 H 44 v 3.334 H 27.333 Z"
         opacity="0.5"
         id="path7" />
      <path
         fill="#b5835a"
         d="m 24,76.889 h 32.222 v 19.113662 0 c 0,0 -10.313357,-0.03176 -17.109395,-0.01588 C 30.561548,96.006763 24.002177,87.186713 24,81.408888 Z"
         id="path8"
         sodipodi:nodetypes="ccccscc" />
      <path
         fill="#ffffff"
         d="m 28.444,80.222 h 20 v 5.556 h -20 z m 0,7.778 h 13.334 v 3.333 H 28.444 Z"
         opacity="0.5"
         id="path9" />
      <path
         fill="#d4a782"
         d="M 104,68 H 56.222 v 28.002662 l 32.668782,-0.01588 C 97.801874,96.002662 104.00339,88.253387 104,79.986654 Z"
         id="path10"
         sodipodi:nodetypes="cccccc" />
      <path
         fill="#ffffff"
         d="m 59.556,71.333 h 22.222 v 5.556 H 59.556 Z m 0,7.778 h 16.666 v 3.333 H 59.556 Z"
         opacity="0.5"
         id="path11" />
    </g>
  </g>
</svg>
