<?xml version="1.0" encoding="UTF-8" standalone="no"?>
<!-- Created with Inkscape (http://www.inkscape.org/) -->

<svg
   width="62"
   height="62"
   viewBox="0 0 62 62"
   version="1.1"
   id="svg1"
   inkscape:version="1.4.1 (unknown)"
   sodipodi:docname="it.mijorus.gearlever.svg"
   xmlns:inkscape="http://www.inkscape.org/namespaces/inkscape"
   xmlns:sodipodi="http://sodipodi.sourceforge.net/DTD/sodipodi-0.dtd"
   xmlns:xlink="http://www.w3.org/1999/xlink"
   xmlns="http://www.w3.org/2000/svg"
   xmlns:svg="http://www.w3.org/2000/svg">
  <sodipodi:namedview
     id="namedview1"
     pagecolor="#ffffff"
     bordercolor="#000000"
     borderopacity="0.25"
     inkscape:showpageshadow="2"
     inkscape:pageopacity="0.0"
     inkscape:pagecheckerboard="0"
     inkscape:deskcolor="#d1d1d1"
     inkscape:document-units="px"
     inkscape:zoom="10.74725"
     inkscape:cx="27.169741"
     inkscape:cy="33.683035"
     inkscape:window-width="1920"
     inkscape:window-height="996"
     inkscape:window-x="0"
     inkscape:window-y="0"
     inkscape:window-maximized="1"
     inkscape:current-layer="layer1"
     showgrid="false">
    <inkscape:grid
       id="grid1"
       units="px"
       originx="0"
       originy="0"
       spacingx="1"
       spacingy="1"
       empcolor="#0099e5"
       empopacity="0.30196078"
       color="#0099e5"
       opacity="0.14901961"
       empspacing="5"
       enabled="true"
       visible="false" />
  </sodipodi:namedview>
  <defs
     id="defs1">
    <linearGradient
       id="linearGradient1"
       inkscape:collect="always">
      <stop
         style="stop-color:#6f7c91;stop-opacity:1"
         offset="0"
         id="stop1" />
      <stop
         style="stop-color:#373e48;stop-opacity:1"
         offset="1"
         id="stop2" />
    </linearGradient>
    <radialGradient
       id="paint664_radial_890_11"
       cx="0"
       cy="0"
       r="1"
       gradientUnits="userSpaceOnUse"
       gradientTransform="matrix(-16.000099,-9.999913,9.999913,-16.000099,583,171)">
      <stop
         offset="0.42141"
         stop-color="#B7C6CD"
         id="stop2071" />
      <stop
         offset="1"
         stop-color="#EFF2F6"
         id="stop2072" />
    </radialGradient>
    <linearGradient
       id="paint665_linear_890_11"
       x1="605"
       y1="180"
       x2="601.466"
       y2="162.72301"
       gradientUnits="userSpaceOnUse">
      <stop
         stop-color="#5200FF"
         id="stop2073" />
      <stop
         offset="1"
         stop-color="#0085FF"
         id="stop2074" />
    </linearGradient>
    <linearGradient
       id="paint666_linear_890_11"
       x1="567"
       y1="181"
       x2="562.11798"
       y2="174.183"
       gradientUnits="userSpaceOnUse">
      <stop
         stop-color="#5200FF"
         id="stop2075" />
      <stop
         offset="0.670391"
         stop-color="#0085FF"
         id="stop2076" />
    </linearGradient>
    <linearGradient
       id="paint667_linear_890_11"
       x1="605"
       y1="180"
       x2="597.32001"
       y2="174.24001"
       gradientUnits="userSpaceOnUse">
      <stop
         stop-color="#5200FF"
         id="stop2077" />
      <stop
         offset="1"
         stop-color="#0085FF"
         id="stop2078" />
    </linearGradient>
    <linearGradient
       id="paint668_linear_890_11"
       x1="567"
       y1="180"
       x2="561.23999"
       y2="172.32001"
       gradientUnits="userSpaceOnUse">
      <stop
         stop-color="#5200FF"
         id="stop2079" />
      <stop
         offset="1"
         stop-color="#0085FF"
         id="stop2080" />
    </linearGradient>
    <linearGradient
       id="paint669_linear_890_11"
       x1="607"
       y1="179"
       x2="602.50598"
       y2="171.80901"
       gradientUnits="userSpaceOnUse">
      <stop
         stop-color="#5200FF"
         id="stop2081" />
      <stop
         offset="1"
         stop-color="#0085FF"
         id="stop2082" />
    </linearGradient>
    <linearGradient
       id="paint670_linear_890_11"
       x1="607"
       y1="217"
       x2="568.82599"
       y2="170.01601"
       gradientUnits="userSpaceOnUse">
      <stop
         stop-color="#5200FF"
         id="stop2083" />
      <stop
         offset="1"
         stop-color="#0085FF"
         id="stop2084" />
    </linearGradient>
    <radialGradient
       id="paint671_radial_890_11"
       cx="0"
       cy="0"
       r="1"
       gradientUnits="userSpaceOnUse"
       gradientTransform="matrix(0,20,-16,0,583,187)">
      <stop
         offset="0.869716"
         stop-color="#EFF2F6"
         id="stop2085" />
      <stop
         offset="1"
         stop-color="#B7C6CD"
         id="stop2086" />
    </radialGradient>
    <linearGradient
       id="paint497_linear_890_11"
       x1="497"
       y1="413"
       x2="447.457"
       y2="376.79599"
       gradientUnits="userSpaceOnUse"
       gradientTransform="translate(-452,-358)">
      <stop
         offset="0.636456"
         stop-color="#71706E"
         id="stop1737" />
      <stop
         offset="1"
         stop-color="#B9AA99"
         id="stop1738" />
    </linearGradient>
    <linearGradient
       id="paint498_linear_890_11"
       x1="507"
       y1="413"
       x2="457.457"
       y2="376.79599"
       gradientUnits="userSpaceOnUse"
       gradientTransform="translate(-452,-358)">
      <stop
         offset="0.544933"
         stop-color="#FF7E07"
         id="stop1739" />
      <stop
         offset="1"
         stop-color="#FFE607"
         id="stop1740" />
    </linearGradient>
    <linearGradient
       id="paint499_linear_890_11"
       x1="473"
       y1="365"
       x2="486.28699"
       y2="389.91299"
       gradientUnits="userSpaceOnUse"
       gradientTransform="translate(-452,-358)">
      <stop
         stop-color="white"
         id="stop1741" />
      <stop
         offset="0.705"
         stop-color="#EAEFEF"
         id="stop1742" />
    </linearGradient>
    <linearGradient
       id="paint500_linear_890_11"
       x1="480"
       y1="371.5"
       x2="480"
       y2="368.5"
       gradientUnits="userSpaceOnUse"
       gradientTransform="translate(-452,-358)">
      <stop
         offset="0.155999"
         stop-color="#71706E"
         id="stop1743" />
      <stop
         offset="0.796276"
         stop-color="#B9AA99"
         id="stop1744" />
    </linearGradient>
    <linearGradient
       id="paint501_linear_890_11"
       x1="479"
       y1="375.5"
       x2="479"
       y2="372.5"
       gradientUnits="userSpaceOnUse"
       gradientTransform="translate(-452,-358)">
      <stop
         offset="0.155999"
         stop-color="#71706E"
         id="stop1745" />
      <stop
         offset="0.796276"
         stop-color="#B9AA99"
         id="stop1746" />
    </linearGradient>
    <linearGradient
       id="paint502_linear_890_11"
       x1="511"
       y1="417"
       x2="455.64352"
       y2="380.82346"
       gradientUnits="userSpaceOnUse"
       gradientTransform="translate(-452,-358)">
      <stop
         offset="0.18397722"
         stop-color="#2E2E41"
         id="stop1747"
         style="stop-color:#33424d;stop-opacity:1;" />
      <stop
         offset="1"
         stop-color="#566C80"
         id="stop1748" />
    </linearGradient>
    <linearGradient
       id="paint745_linear_890_11"
       x1="172"
       y1="61"
       x2="195.978"
       y2="83.979202"
       gradientUnits="userSpaceOnUse">
      <stop
         stop-color="#EFF2F6"
         id="stop2233" />
      <stop
         offset="1"
         stop-color="#ACD1CF"
         id="stop2234" />
    </linearGradient>
    <linearGradient
       id="paint746_linear_890_11"
       x1="176"
       y1="84"
       x2="175.47501"
       y2="78.479202"
       gradientUnits="userSpaceOnUse">
      <stop
         offset="0.404925"
         stop-color="#2E2E41"
         id="stop2235" />
      <stop
         offset="1"
         stop-color="#566C80"
         id="stop2236" />
    </linearGradient>
    <linearGradient
       id="paint747_linear_890_11"
       x1="202"
       y1="84"
       x2="201.47501"
       y2="78.479202"
       gradientUnits="userSpaceOnUse">
      <stop
         offset="0.404925"
         stop-color="#2E2E41"
         id="stop2237" />
      <stop
         offset="1"
         stop-color="#566C80"
         id="stop2238" />
    </linearGradient>
    <linearGradient
       id="paint748_linear_890_11"
       x1="155"
       y1="82"
       x2="186.461"
       y2="132.33701"
       gradientUnits="userSpaceOnUse">
      <stop
         offset="0.205721"
         stop-color="#EFF2F6"
         id="stop2239" />
      <stop
         offset="1"
         stop-color="#B7C6CD"
         id="stop2240" />
    </linearGradient>
    <radialGradient
       id="paint750_radial_890_11"
       cx="0"
       cy="0"
       r="1"
       gradientUnits="userSpaceOnUse"
       gradientTransform="matrix(5.6470608,5.6470608,-5.6470608,5.6470608,172,96)">
      <stop
         offset="0.340843"
         stop-color="#2E2E41"
         id="stop2243" />
      <stop
         offset="1"
         stop-color="#566C80"
         id="stop2244" />
    </radialGradient>
    <linearGradient
       id="paint751_linear_890_11"
       x1="166"
       y1="90"
       x2="178"
       y2="102"
       gradientUnits="userSpaceOnUse">
      <stop
         stop-color="white"
         id="stop2245" />
      <stop
         offset="0.705"
         stop-color="#EAEFEF"
         id="stop2246" />
    </linearGradient>
    <linearGradient
       id="paint752_linear_890_11"
       x1="193"
       y1="88"
       x2="199"
       y2="94"
       gradientUnits="userSpaceOnUse">
      <stop
         stop-color="#FFE607"
         id="stop2247" />
      <stop
         offset="0.802569"
         stop-color="#FF7E07"
         id="stop2248" />
    </linearGradient>
    <linearGradient
       id="paint753_linear_890_11"
       x1="199"
       y1="104"
       x2="193"
       y2="98"
       gradientUnits="userSpaceOnUse">
      <stop
         offset="0.253846"
         stop-color="#089953"
         id="stop2249" />
      <stop
         offset="1"
         stop-color="#16D96F"
         id="stop2250" />
    </linearGradient>
    <linearGradient
       id="paint754_linear_890_11"
       x1="198"
       y1="93"
       x2="204"
       y2="99"
       gradientUnits="userSpaceOnUse">
      <stop
         offset="0.30755"
         stop-color="#F15700"
         id="stop2251" />
      <stop
         offset="0.832479"
         stop-color="#FF0000"
         id="stop2252" />
    </linearGradient>
    <linearGradient
       id="paint755_linear_890_11"
       x1="194"
       y1="99"
       x2="188"
       y2="93"
       gradientUnits="userSpaceOnUse">
      <stop
         offset="0.320751"
         stop-color="#5200FF"
         id="stop2253" />
      <stop
         offset="1"
         stop-color="#0085FF"
         id="stop2254" />
    </linearGradient>
    <linearGradient
       id="paint723_linear_890_11"
       x1="555"
       y1="61"
       x2="610.99902"
       y2="117.38"
       gradientUnits="userSpaceOnUse">
      <stop
         offset="0.186267"
         stop-color="#EFF2F6"
         id="stop2189" />
      <stop
         offset="0.774054"
         stop-color="#B7C6CD"
         id="stop2190" />
    </linearGradient>
    <linearGradient
       id="paint724_linear_890_11"
       x1="568"
       y1="71"
       x2="577.836"
       y2="79.196701"
       gradientUnits="userSpaceOnUse">
      <stop
         offset="0.268133"
         stop-color="#F15700"
         id="stop2191" />
      <stop
         offset="0.700195"
         stop-color="#FF0000"
         id="stop2192" />
    </linearGradient>
    <linearGradient
       id="paint725_linear_890_11"
       x1="583"
       y1="108"
       x2="573"
       y2="98"
       gradientUnits="userSpaceOnUse">
      <stop
         offset="0.29783"
         stop-color="#FF7E07"
         id="stop2193" />
      <stop
         offset="0.909465"
         stop-color="#FFE607"
         id="stop2194" />
    </linearGradient>
    <linearGradient
       id="paint726_linear_890_11"
       x1="597"
       y1="80"
       x2="587"
       y2="70"
       gradientUnits="userSpaceOnUse">
      <stop
         offset="0.334156"
         stop-color="#089953"
         id="stop2195" />
      <stop
         offset="0.842157"
         stop-color="#16D96F"
         id="stop2196" />
    </linearGradient>
    <linearGradient
       id="paint727_linear_890_11"
       x1="572"
       y1="97"
       x2="562"
       y2="87"
       gradientUnits="userSpaceOnUse">
      <stop
         offset="0.314502"
         stop-color="#5200FF"
         id="stop2197" />
      <stop
         offset="0.885503"
         stop-color="#0085FF"
         id="stop2198" />
    </linearGradient>
    <linearGradient
       id="paint728_linear_890_11"
       x1="598.578"
       y1="100.584"
       x2="594.58398"
       y2="104.578"
       gradientUnits="userSpaceOnUse">
      <stop
         stop-color="#2E2E41"
         id="stop2199"
         style="stop-color:#550000;stop-opacity:1" />
      <stop
         offset="1"
         stop-color="#566C80"
         id="stop2200"
         style="stop-color:#ff5555;stop-opacity:1" />
    </linearGradient>
    <linearGradient
       id="paint729_linear_890_11"
       x1="575"
       y1="81"
       x2="589.55603"
       y2="95.556396"
       gradientUnits="userSpaceOnUse">
      <stop
         stop-color="white"
         id="stop2201"
         offset="0"
         style="stop-color:#797979;stop-opacity:1;" />
      <stop
         offset="0.70499998"
         stop-color="#EAEFEF"
         id="stop2202"
         style="stop-color:#5c7a7a;stop-opacity:1;" />
    </linearGradient>
    <linearGradient
       id="paint730_linear_890_11"
       x1="583.40698"
       y1="90.527802"
       x2="577.06799"
       y2="84.189201"
       gradientUnits="userSpaceOnUse">
      <stop
         offset="0.388464"
         stop-color="#71706E"
         id="stop2203" />
      <stop
         offset="1"
         stop-color="#B9AA99"
         id="stop2204" />
    </linearGradient>
    <linearGradient
       id="paint521_linear_890_11"
       x1="176"
       y1="417"
       x2="172.8"
       y2="410.60001"
       gradientUnits="userSpaceOnUse"
       gradientTransform="translate(-152,-358)">
      <stop
         stop-color="#2E2E41"
         id="stop1785" />
      <stop
         offset="1"
         stop-color="#566C80"
         id="stop1786" />
    </linearGradient>
    <linearGradient
       id="paint522_linear_890_11"
       x1="198"
       y1="417"
       x2="194.8"
       y2="410.60001"
       gradientUnits="userSpaceOnUse"
       gradientTransform="translate(-152,-358)">
      <stop
         stop-color="#2E2E41"
         id="stop1787" />
      <stop
         offset="1"
         stop-color="#566C80"
         id="stop1788" />
    </linearGradient>
    <linearGradient
       id="paint523_linear_890_11"
       x1="183"
       y1="415"
       x2="183"
       y2="361"
       gradientUnits="userSpaceOnUse"
       gradientTransform="translate(-152,-358)">
      <stop
         offset="0.221007"
         stop-color="#2E2E41"
         id="stop1789"
         style="stop-color:#555577;stop-opacity:1;" />
      <stop
         offset="1"
         stop-color="#566C80"
         id="stop1790"
         style="stop-color:#7a91a6;stop-opacity:1;" />
    </linearGradient>
    <linearGradient
       id="paint524_linear_890_11"
       x1="183"
       y1="389"
       x2="183"
       y2="363"
       gradientUnits="userSpaceOnUse"
       gradientTransform="translate(-152,-358)">
      <stop
         offset="0.16552401"
         stop-color="#2E2E41"
         id="stop1791"
         style="stop-color:#191924;stop-opacity:1;" />
      <stop
         offset="0.784914"
         stop-color="#566C80"
         id="stop1792" />
    </linearGradient>
    <linearGradient
       id="paint525_linear_890_11"
       x1="183"
       y1="367"
       x2="183"
       y2="373"
       gradientUnits="userSpaceOnUse"
       gradientTransform="translate(-152,-358)">
      <stop
         stop-color="#EFF2F6"
         id="stop1793" />
      <stop
         offset="0.600628"
         stop-color="#B7C6CD"
         id="stop1794" />
    </linearGradient>
    <linearGradient
       id="paint526_linear_890_11"
       x1="179"
       y1="399"
       x2="187"
       y2="407"
       gradientUnits="userSpaceOnUse"
       gradientTransform="translate(-152,-357)">
      <stop
         offset="0.313567"
         stop-color="#EFF2F6"
         id="stop1795" />
      <stop
         offset="0.581564"
         stop-color="#B7C6CD"
         id="stop1796" />
    </linearGradient>
    <linearGradient
       id="paint527_linear_890_11"
       x1="181"
       y1="401"
       x2="185"
       y2="405"
       gradientUnits="userSpaceOnUse"
       gradientTransform="translate(-152,-357)">
      <stop
         stop-color="#F15700"
         id="stop1797" />
      <stop
         offset="0.717503"
         stop-color="#FF0000"
         id="stop1798" />
    </linearGradient>
    <linearGradient
       id="paint528_linear_890_11"
       x1="182"
       y1="385"
       x2="180"
       y2="383"
       gradientUnits="userSpaceOnUse"
       gradientTransform="matrix(3.0499996,0,0,3.0499996,-526.64998,-1149.2349)">
      <stop
         stop-color="#FF7E07"
         id="stop1799" />
      <stop
         offset="1"
         stop-color="#FFE607"
         id="stop1800" />
    </linearGradient>
    <linearGradient
       id="paint529_linear_890_11"
       x1="186"
       y1="385"
       x2="184"
       y2="383"
       gradientUnits="userSpaceOnUse"
       gradientTransform="matrix(3.0499996,0,0,3.0499996,-526.64998,-1149.2349)">
      <stop
         stop-color="#089953"
         id="stop1801" />
      <stop
         offset="1"
         stop-color="#16D96F"
         id="stop1802" />
    </linearGradient>
    <linearGradient
       inkscape:collect="always"
       xlink:href="#linearGradient1"
       id="linearGradient2"
       x1="37.666092"
       y1="5.0784454"
       x2="22.431438"
       y2="63.22263"
       gradientUnits="userSpaceOnUse"
       gradientTransform="matrix(1.0178564,0,0,1.0175393,-0.55366426,-1.7621911)" />
    <linearGradient
       id="paint1_linear_54_1196"
       x1="64.222198"
       y1="98.666702"
       x2="64.222198"
       y2="32"
       gradientUnits="userSpaceOnUse"
       gradientTransform="matrix(0.55499913,0,0,0.55499913,-4.6432642,-5.6646042)">
      <stop
         stop-color="#5570FF"
         id="stop4" />
      <stop
         offset="1"
         stop-color="#4DD3FF"
         id="stop5" />
    </linearGradient>
  </defs>
  <g
     inkscape:label="Layer 1"
     inkscape:groupmode="layer"
     id="layer1">
    <g
       id="g2"
       transform="matrix(1.0036979,-0.01963023,0.01955416,0.9998088,-0.78068817,0.38073874)">
      <g
         id="g1"
         transform="matrix(0.92722824,-0.22987722,0.23064254,0.9236034,-4.8365832,9.5570475)">
        <path
           style="opacity:0.303977;fill:#ccaaff;fill-opacity:1;stroke-width:1.0177"
           d="m 37.08753,3.2179346 c -3.09412,-0.8288083 -6.254064,0.9950185 -7.083132,4.0881736 -0.43639,1.6281247 -1.470213,2.3265616 -3.816062,3.1112028 -2.89302,0.967659 -4.802748,1.261744 -6.430965,-0.365959 -2.26505,-2.2643477 -5.912514,-2.2628427 -8.177567,0.0015 l -2.0454905,2.04157 c -2.2650526,2.264349 -2.2635468,5.910674 0.00153,8.17502 1.1337705,1.133417 1.0281855,3.24369 0.5196185,5.629258 -0.6483204,3.041116 -0.8382738,3.96518 -3.265509,4.615352 -3.094119,0.828808 -4.919154,3.985866 -4.0900879,7.079022 l 0.7503418,2.790484 c 0.8290661,3.093154 3.9871101,4.91762 7.0812281,4.088814 2.12417,-0.568991 3.240506,0.525097 4.968053,2.168973 2.323461,2.210931 3.077707,3.298461 2.533083,5.330394 -0.829066,3.093156 0.99533,6.252116 4.089446,7.080922 l 1.395229,0.373736 1.395228,0.373734 c 3.094117,0.828808 6.254064,-0.99502 7.083131,-4.088173 0.544623,-2.031935 1.741755,-2.596757 4.859742,-3.350111 2.318293,-0.560135 3.832282,-0.949648 5.387283,0.604866 2.265052,2.264347 5.912516,2.262844 8.177567,-0.0015 l 2.045493,-2.041575 c 2.265053,-2.264346 2.263548,-5.910674 -0.0015,-8.175018 -1.776859,-1.776306 -1.479189,-2.671515 -0.519619,-5.62926 0.752723,-2.320165 1.71675,-4.200491 3.26551,-4.615351 3.094119,-0.828808 4.919154,-3.985867 4.090087,-7.079021 l -0.750342,-2.79048 C 57.720731,19.541353 54.562686,17.716885 51.468567,18.545694 49.244388,19.141475 47.737602,17.932221 45.716155,15.648143 44.07703,13.796066 43.531042,12.674451 43.967433,11.046326 44.796498,7.9531706 42.972103,4.7942106 39.877986,3.9654022 L 38.482757,3.5916684 Z"
           id="path1" />
        <path
           style="fill:url(#linearGradient2);stroke-width:1.0177"
           d="m 37.08753,2.2002588 c -3.09412,-0.8288084 -6.254064,0.9950185 -7.083132,4.0881732 -0.43639,1.6281244 -1.470213,2.3265622 -3.816062,3.111203 -2.89302,0.96766 -4.802748,1.261745 -6.430965,-0.365959 -2.26505,-2.2643472 -5.912514,-2.2628427 -8.177567,0.00153 l -2.0454905,2.041567 c -2.2650526,2.264348 -2.2635468,5.910673 0.00153,8.175019 1.1337705,1.133417 1.0281855,3.243691 0.5196185,5.629259 -0.6483204,3.041115 -0.8382738,3.96518 -3.265509,4.615352 -3.094119,0.828808 -4.919154,3.985866 -4.0900879,7.079021 l 0.7503418,2.790484 c 0.8290661,3.093155 3.9871101,4.917621 7.0812281,4.088815 2.12417,-0.568992 3.240506,0.525097 4.968053,2.168972 2.323461,2.210931 3.077707,3.298462 2.533083,5.330394 -0.829066,3.093157 0.99533,6.252117 4.089446,7.080923 l 1.395229,0.373735 1.395228,0.373734 c 3.094117,0.828808 6.254064,-0.995019 7.083131,-4.088173 0.544623,-2.031934 1.741755,-2.596757 4.859742,-3.350111 2.318293,-0.560135 3.832282,-0.949648 5.387283,0.604866 2.265052,2.264347 5.912516,2.262844 8.177567,-0.0015 l 2.045493,-2.041574 c 2.265053,-2.264347 2.263548,-5.910675 -0.0015,-8.175019 -1.776859,-1.776306 -1.479189,-2.671515 -0.519619,-5.629259 0.752723,-2.320166 1.71675,-4.200491 3.26551,-4.615352 3.094119,-0.828807 4.919154,-3.985866 4.090087,-7.079021 L 58.549796,21.616833 C 57.720731,18.523677 54.562686,16.69921 51.468567,17.528019 49.244388,18.123799 47.737602,16.914545 45.716155,14.630468 44.07703,12.778391 43.531042,11.656775 43.967433,10.02865 44.796498,6.9354949 42.972103,3.7765348 39.877986,2.9477263 L 38.482757,2.5739926 Z"
           id="path2" />
        <path
           style="opacity:0.242898;fill:#ffffff;stroke-width:1.0177"
           d="M 35.355673,2.0042358 C 32.890106,2.0995406 30.677592,3.775842 30.003975,6.2890303 29.567584,7.9171547 28.534851,8.6146411 26.189002,9.3992819 23.29598,10.366941 21.386036,10.661307 19.757819,9.0336038 17.492769,6.769257 13.844237,6.7712225 11.579184,9.0356388 L 9.5335307,11.07668 C 8.2706393,12.339131 7.7158326,14.030788 7.8616223,15.673446 7.9762917,14.369288 8.5309041,13.096487 9.5335307,12.094172 L 11.579184,10.05313 c 2.265053,-2.2643684 5.913585,-2.2663332 8.178635,-0.002 1.628217,1.627704 3.538161,1.333338 6.431183,0.365678 2.345849,-0.7846404 3.378582,-1.482126 3.814973,-3.1102517 0.829067,-3.0931543 3.989128,-4.9168516 7.083247,-4.0880432 l 1.395576,0.3736277 1.395577,0.3736277 C 42.297036,4.61361 43.932676,6.6864203 44.138661,9.0375315 44.386251,6.2871897 42.641532,3.6883976 39.878375,2.948242 L 38.482798,2.5746143 37.087222,2.2009866 C 36.507075,2.045585 35.92465,1.9822425 35.355673,2.0042358 Z m 8.516595,9.5215442 c -0.211342,1.381334 0.372556,2.45824 1.844865,4.121829 2.021447,2.284078 3.527107,3.493384 5.751287,2.897603 3.094118,-0.828809 6.252193,0.996875 7.081258,4.090031 l 0.749476,2.790283 c 0.08886,0.331536 0.143371,0.663633 0.172956,0.993691 0.058,-0.657369 0.0083,-1.334972 -0.172956,-2.01123 l -0.749476,-2.790283 c -0.829065,-3.093156 -3.98714,-4.91884 -7.081258,-4.090031 -2.22418,0.59578 -3.72984,-0.613526 -5.751287,-2.897603 -1.095508,-1.237835 -1.692878,-2.149743 -1.844865,-3.10429 z M 10.4003,22.515999 c -0.04366,0.736227 -0.166275,1.531673 -0.343925,2.364985 -0.6483205,3.041115 -0.8390495,3.964527 -3.266285,4.614699 -2.7626682,0.740024 -4.5090024,3.337828 -4.2622737,6.08735 0.2065242,-2.350202 1.8439462,-4.422024 4.2622737,-5.069811 2.4272355,-0.650172 2.6179645,-1.573583 3.266285,-4.614699 0.263372,-1.235411 0.412864,-2.392211 0.343925,-3.382524 z m 40.827572,17.172963 c -0.178478,1.163261 0.112742,1.937125 1.236536,3.060568 1.007275,1.006951 1.564144,2.286686 1.675885,3.597161 0.150625,-1.648268 -0.408386,-3.349597 -1.675885,-4.616687 -0.764245,-0.764007 -1.127445,-1.368811 -1.236536,-2.041042 z M 18.151514,50.355239 c -0.02823,0.192655 -0.06282,0.387552 -0.119279,0.598202 -0.180988,0.675247 -0.228494,1.35265 -0.170969,2.009242 0.02966,-0.32943 0.08228,-0.660846 0.170969,-0.991703 0.162285,-0.605467 0.194799,-1.123272 0.119279,-1.615741 z"
           id="path5" />
      </g>
      <path
         d="m 28.113141,13.953573 c -0.862209,0 -1.462297,0.68501 -1.462297,1.53586 v 17.493474 c 0,0.178027 -0.146328,0.322551 -0.326834,0.322551 h -5.511741 c -0.277072,0 -0.428451,0.318957 -0.251041,0.528935 l 10.196083,12.07493 c 0.130691,0.154818 0.371485,0.154818 0.502184,0 l 10.196133,-12.07493 c 0.177458,-0.209978 0.02585,-0.528935 -0.250985,-0.528935 h -5.511748 c -0.18075,0 -0.326834,-0.144524 -0.326834,-0.322551 V 15.489433 c 0,-0.85085 -0.600387,-1.53586 -1.462489,-1.53586 z"
         id="path2-5"
         style="fill:#f2f2f2;fill-opacity:1;stroke-width:0.877478" />
    </g>
  </g>
</svg>
