<?xml version="1.0" encoding="UTF-8" standalone="no"?>
<svg
   height="62"
   width="62"
   version="1.1"
   id="svg5"
   sodipodi:docname="kali-jad.svg"
   inkscape:version="1.4.1 (unknown)"
   xmlns:inkscape="http://www.inkscape.org/namespaces/inkscape"
   xmlns:sodipodi="http://sodipodi.sourceforge.net/DTD/sodipodi-0.dtd"
   xmlns="http://www.w3.org/2000/svg"
   xmlns:svg="http://www.w3.org/2000/svg">
  <defs
     id="defs5" />
  <sodipodi:namedview
     id="namedview5"
     pagecolor="#ffffff"
     bordercolor="#000000"
     borderopacity="0.25"
     inkscape:showpageshadow="2"
     inkscape:pageopacity="0.0"
     inkscape:pagecheckerboard="0"
     inkscape:deskcolor="#d1d1d1"
     inkscape:zoom="12"
     inkscape:cx="32.208333"
     inkscape:cy="34.083333"
     inkscape:window-width="1920"
     inkscape:window-height="996"
     inkscape:window-x="0"
     inkscape:window-y="0"
     inkscape:window-maximized="1"
     inkscape:current-layer="svg5" />
  <g
     id="g1"
     transform="matrix(0.98214286,0,0,0.98245614,-0.42857152,-0.92982455)">
    <path
       style="opacity:0.2"
       d="m 48,61 v -6 h 6 v -6 h 6 V 17 H 54 V 11 H 48 V 5 H 16 v 6 h -6 v 6 H 4 v 32 h 6 v 6 h 6 v 6 z"
       id="path1" />
    <path
       style="fill:#ffebeb;fill-opacity:1"
       d="m 48,60 v -6 h 6 v -6 h 6 V 16 H 54 V 10 H 48 V 4 H 16 v 6 h -6 v 6 H 4 v 32 h 6 v 6 h 6 v 6 z"
       id="path2" />
    <path
       style="opacity:0.2"
       d="m 15,16 v 34 h 8 l 1,-6 c 0,0 4,1 6,1 2,0 6,0 6,-7 V 16 Z m 29,0 v 22 c 0,7.489976 -2.989701,10.654447 -6.478516,12 H 49 V 16 Z"
       id="path3" />
    <path
       style="fill:#ff2a2a"
       d="m 15,15 v 34 h 8 l 1,-6 c 0,0 4,1 6,1 2,0 6,0 6,-7 V 15 Z m 29,0 v 22 c 0,7.489976 -2.989701,10.654447 -6.478516,12 H 49 V 15 Z"
       id="path4" />
    <path
       style="opacity:0.2;fill:#ffffff"
       d="M 16,4 V 5 H 48 V 4 Z m -6,6 v 1 h 6 v -1 z m 38,0 v 1 h 6 V 10 Z M 4,16 v 1 h 6 v -1 z m 50,0 v 1 h 6 v -1 z"
       id="path5" />
  </g>
</svg>
