<?xml version="1.0" encoding="UTF-8" standalone="no"?>
<svg
   height="62"
   width="62"
   version="1.1"
   id="svg9"
   sodipodi:docname="kali-dbpwaudit.svg"
   inkscape:version="1.4.1 (unknown)"
   xmlns:inkscape="http://www.inkscape.org/namespaces/inkscape"
   xmlns:sodipodi="http://sodipodi.sourceforge.net/DTD/sodipodi-0.dtd"
   xmlns="http://www.w3.org/2000/svg"
   xmlns:svg="http://www.w3.org/2000/svg">
  <defs
     id="defs9" />
  <sodipodi:namedview
     id="namedview9"
     pagecolor="#ffffff"
     bordercolor="#000000"
     borderopacity="0.25"
     inkscape:showpageshadow="2"
     inkscape:pageopacity="0.0"
     inkscape:pagecheckerboard="0"
     inkscape:deskcolor="#d1d1d1"
     inkscape:zoom="6"
     inkscape:cx="33.916667"
     inkscape:cy="38.333333"
     inkscape:window-width="1920"
     inkscape:window-height="996"
     inkscape:window-x="0"
     inkscape:window-y="0"
     inkscape:window-maximized="1"
     inkscape:current-layer="svg9" />
  <g
     id="g9"
     transform="matrix(0.98214286,0,0,0.98245614,-0.42857152,-0.92982456)">
    <path
       style="opacity:0.2"
       d="M 32,5 C 19.983334,5 13.198946,10.401843 10,16 6.8010534,21.598158 7,27 7,27 v 31 c 0,2 1,3 3,3 h 44 c 2,0 3,-1 3,-3 V 27 C 57,27 57.198946,21.598157 54,16 50.801054,10.401843 44.016667,5 32,5 Z"
       id="path1" />
    <path
       style="fill:#8c8c8c;fill-opacity:1"
       d="M 32,4 C 19.983334,4 13.198946,9.4018432 10,15 6.8010534,20.598158 7,26 7,26 v 31 c 0,2 1,3 3,3 h 44 c 2,0 3,-1 3,-3 V 26 C 57,26 57.198946,20.598157 54,15 50.801054,9.401843 44.016667,4 32,4 Z"
       id="path2" />
    <path
       style="opacity:0.2;fill:#ffffff"
       d="M 32,4 C 19.983334,4 13.198946,9.4018432 10,15 6.8010534,20.598158 7,26 7,26 v 1 c 0,0 -0.1989466,-5.401842 3,-11 3.198946,-5.598157 9.983334,-11 22,-11 12.016667,0 18.801054,5.401843 22,11 3.198946,5.598157 3,11 3,11 V 26 C 57,26 57.198946,20.598157 54,15 50.801054,9.401843 44.016667,4 32,4 Z"
       id="path3" />
    <path
       style="fill:#ffffff"
       d="M 15,32 H 49 V 26 C 49,26 48.8,13 32,13 15.200001,13 15,26 15,26 Z"
       id="path4" />
    <circle
       r="5.5"
       style="fill:#8d5fd3"
       cx="31.5"
       cy="23.5"
       id="circle4" />
    <circle
       r="2.5"
       style="fill:#373f48;fill-opacity:1"
       cx="31.5"
       cy="23.5"
       id="circle5" />
    <rect
       style="opacity:0.2"
       rx="3"
       ry="3"
       height="11"
       width="56"
       y="33"
       x="4"
       id="rect5" />
    <rect
       style="fill:#f2f2f2;fill-opacity:1"
       rx="3"
       ry="3"
       height="11"
       width="56"
       y="32"
       x="4"
       id="rect6" />
    <path
       style="fill:#373f48;fill-opacity:1"
       d="m 32,46 a 2.7999999,2.8 0 0 0 -2.8,2.8 2.7999999,2.8 0 0 0 1.914063,2.652345 L 29.2,57.2 h 5.6 L 32.885937,51.452345 A 2.7999999,2.8 0 0 0 34.8,48.8 2.7999999,2.8 0 0 0 32,46 Z"
       id="path6" />
    <circle
       r="3"
       style="fill:#373f48;fill-opacity:1"
       cx="17"
       cy="38"
       id="circle6" />
    <circle
       r="3"
       style="fill:#373f48;fill-opacity:1"
       cx="47"
       cy="38"
       id="circle7" />
    <circle
       r="3"
       style="fill:#373f48;fill-opacity:1"
       cx="37"
       cy="38"
       id="circle8" />
    <circle
       r="3"
       style="fill:#373f48;fill-opacity:1"
       cx="27"
       cy="38"
       id="circle9" />
    <path
       style="opacity:0.2;fill:#ffffff"
       d="m 7,32 c -1.662,0 -3,1.338 -3,3 v 1 c 0,-1.662 1.338,-3 3,-3 h 50 c 1.662,0 3,1.338 3,3 v -1 c 0,-1.662 -1.338,-3 -3,-3 z"
       id="path9" />
  </g>
</svg>
