<?xml version="1.0" encoding="UTF-8" standalone="no"?>
<svg
   width="62"
   height="62"
   version="1.1"
   viewBox="0 0 16.40457 16.40457"
   id="svg12"
   sodipodi:docname="set-logo.svg"
   inkscape:version="1.4.1 (unknown)"
   xmlns:inkscape="http://www.inkscape.org/namespaces/inkscape"
   xmlns:sodipodi="http://sodipodi.sourceforge.net/DTD/sodipodi-0.dtd"
   xmlns="http://www.w3.org/2000/svg"
   xmlns:svg="http://www.w3.org/2000/svg">
  <defs
     id="defs12" />
  <sodipodi:namedview
     id="namedview12"
     pagecolor="#ffffff"
     bordercolor="#000000"
     borderopacity="0.25"
     inkscape:showpageshadow="2"
     inkscape:pageopacity="0.0"
     inkscape:pagecheckerboard="0"
     inkscape:deskcolor="#d1d1d1"
     inkscape:zoom="6"
     inkscape:cx="34.166667"
     inkscape:cy="34.666667"
     inkscape:window-width="1920"
     inkscape:window-height="996"
     inkscape:window-x="0"
     inkscape:window-y="0"
     inkscape:window-maximized="1"
     inkscape:current-layer="svg12" />
  <g
     id="g12"
     transform="matrix(0.12929515,0,0,0.12957065,-0.71841577,1.3228759)">
    <path
       d="m 98.949,29.695 c -0.09077,-0.0011 -0.18319,7.94e-4 -0.27648,0.0057 -2.7982,0.14946 -6.6424,2.9644 -6.2241,4.7352 0.16481,0.69762 0.47658,2.9926 0.69248,5.1001 l 0.39275,3.8314 -4.7523,6.2132 c -2.1386,2.7964 -4.0812,5.1487 -4.8665,5.9212 h 9.1485 l 2.1725,-3.7683 c 1.2872,-2.2327 3.3706,-4.8752 4.6293,-5.8721 1.2587,-0.99686 2.2878,-2.0187 2.2878,-2.2712 0,-0.25253 -1.3101,-2.0978 -2.9115,-4.1011 l -2.911,-3.6433 2.6443,-2.0599 c 3.1339,-2.4416 3.2158,-3.827 0.24185,-4.0779 -0.08784,-0.0074 -0.17692,-0.01183 -0.26769,-0.01291 z m -59.386,0.59068 v 5.29e-4 c -0.60542,0.004 -1.059,0.1223 -1.2175,0.3788 -0.21106,0.34149 0.34522,1.0764 1.2361,1.634 0.89094,0.55768 1.7091,1.0733 1.8185,1.1462 0.10947,0.07296 -0.14159,1.0766 -0.55864,2.2299 -0.49786,1.3768 -1.0357,1.9904 -1.5643,1.7875 -0.44278,-0.16991 -1.4352,-0.46695 -2.2061,-0.66044 -1.5881,-0.3986 -1.6201,-0.47564 -0.82116,-1.9684 0.66199,-1.2369 0.20298,-2.9243 -0.78808,-2.8971 -1.1473,0.03153 -2.8188,2.8918 -2.8764,4.9218 -0.07624,2.6894 0.76152,3.4728 6.0143,5.6205 4.049,1.6555 5.2209,2.5203 10.272,7.5904 l 5.4112,5.4318 h 2.558 c -0.0132,-0.07675 0.0065,-0.16805 0.07442,-0.27802 0.18641,-0.30161 -0.89742,-2.3814 -2.4294,-4.6861 l -6.3429,-9.0229 c -0.77294,-0.89687 -1.5632,-1.5984 -2.0175,-1.7426 -1.0774,-0.34195 -1.1511,-0.68994 -0.80307,-3.7658 0.3595,-3.1775 0.29256,-3.4484 -1.079,-4.3471 -1.2808,-0.8392 -3.3485,-1.3822 -4.6804,-1.3731 z m 65.654,4.5451 c -0.68569,0 -4.8091,3.4929 -4.8091,4.0738 0,0.27238 0.69935,1.3273 1.555,2.3441 l 1.556,1.849 1.0516,-1.3669 c 0.57862,-0.75207 1.2178,-2.2178 1.4201,-3.2562 0.38369,-1.9696 0.0284,-3.6438 -0.77361,-3.6438 z m 7.9227,2.911 c -0.32569,0 -2.1444,1.1948 -4.0417,2.6547 -3.6591,2.8156 -4.0543,3.8042 -2.6263,6.5657 0.78695,1.5218 0.70315,1.7497 -1.893,5.1828 l -2.5389,3.357 h 7.7382 l 1.6289,-1.68 c 1.2496,-1.2892 2.6759,-2.0943 4.1218,-2.3255 1.8042,-0.28851 2.3907,-0.73133 3.1859,-2.4071 1.0962,-2.3101 1.0277,-6.7548 -0.11008,-7.1289 -0.40034,-0.13165 -0.72964,0.10991 -0.73124,0.53693 -0.002,0.42702 -0.61623,1.5431 -1.3664,2.4805 l -1.3638,1.7054 -1.8356,-1.3074 c -2.2218,-1.582 -2.2561,-2.0242 -0.34831,-4.5254 1.4112,-1.8502 1.4842,-3.1084 0.18036,-3.1084 z m -86.365,0.80049 c -2.3313,0.0204 -7.1003,2.1918 -7.9418,3.7642 -0.34762,0.64955 -1.3532,1.264 -2.234,1.3653 -1.2328,0.14185 -1.5576,0.45233 -1.4103,1.3488 0.10526,0.64054 0.56044,1.5446 1.0108,2.0087 0.71355,0.73534 1.0377,0.68164 2.5224,-0.416 l 1.7033,-1.2599 1.5312,1.2041 c 0.84194,0.66226 2.4176,2.9655 3.5017,5.1182 l 1.9265,3.8262 h 5.1719 l -2.7255,-4.6582 c -2.7104,-4.6328 -4.0029,-8.4436 -2.8635,-8.4436 0.32255,0 1.5234,0.39198 2.6681,0.87025 2.2006,0.91948 3.1218,0.74708 3.1218,-0.58344 0,-1.0423 -3.3232,-3.5749 -5.3574,-4.0825 -0.12204,-0.03044 -0.25858,-0.04852 -0.40774,-0.05685 -0.06992,-0.0039 -0.14236,-0.0058 -0.21756,-0.0052 z m 14.427,1.5286 c 0.4804,0 0.87335,0.39295 0.87335,0.87335 0,0.4804 -0.39296,0.87387 -0.87335,0.87387 -0.48041,0 -0.87387,-0.39347 -0.87387,-0.87387 0,-0.4804 0.39346,-0.87335 0.87387,-0.87335 z m -3.9136,2.942 c -0.05308,0.0048 -0.09087,0.01863 -0.11111,0.04186 -0.10479,0.12016 0.50747,3.0461 1.3596,6.5021 l 1.5379,6.4287 3.3022,1.0387 -0.08372,-3.8319 c -0.01707,-0.78449 -0.05947,-1.8 -0.06253,-3.1244 -0.005,-2.1356 -0.20198,-4.1872 -0.43823,-4.5585 -0.42552,-0.66876 -4.7018,-2.5681 -5.5037,-2.4965 z m 87.269,2.9968 c -0.65654,0.02008 -1.257,0.61258 -2.6712,2.2361 -1.5963,1.8325 -2.1632,2.9413 -1.9245,3.7627 0.45268,1.5575 0.78105,2.4741 0.66767,3.0149 -0.0444,0.21203 -0.90601,0.85011 -1.1054,0.96224 l -0.27803,2.802 0.61703,0.37104 h 2.386 l 0.71212,-1.0336 c 0.36817,-0.53441 1.5014,-0.69442 3.0536,-0.38396 1.4758,0.29517 2.0069,-0.01164 4.0588,-2.3415 1.2982,-1.4748 2.3601,-2.867 2.3601,-3.0929 0,-0.65566 -5.305,-5.302 -6.8649,-6.0127 -0.40315,-0.18369 -0.71347,-0.29285 -1.0118,-0.28371 z m -113.16,3.3782 -3.6743,5.7047 8.1346,4.066 h 5.9998 c 0.0033,-0.25039 0.0054,-0.31308 0.0083,-0.69248 l 4.3709,-2.0408 -9.0126,-4.0593 z m 17.185,8.9614 c -0.26557,-0.0097 -0.532,0.06043 -0.7054,0.21808 -0.18645,0.16949 -0.3944,0.37171 -0.61393,0.59119 h 2.5761 c -0.19285,-0.19524 -0.3797,-0.38111 -0.55657,-0.54882 -0.16993,-0.16139 -0.43466,-0.2508 -0.70023,-0.26045 z m -18.722,0.01241 c -0.30247,-0.02056 -0.65023,0.06753 -0.81651,0.231 -0.2655,0.26111 -0.38754,0.37836 -0.57982,0.56587 h 2.4878 C 10.65291,58.86437 10.60563,58.81809 10.30663,58.52343 10.20687,58.4252 10.04162,58.37401 9.86013,58.36168 Z"
       fill="#087142"
       fill-rule="evenodd"
       stroke-width="0.085377"
       id="path1" />
    <path
       d="m 98.949,28.107 c -0.0908,-0.0011 -0.1832,7.94e-4 -0.27648,0.0057 -2.7982,0.14946 -6.6424,2.9644 -6.2241,4.7352 0.16481,0.69762 0.47658,2.9926 0.69248,5.1001 l 0.39275,3.8314 -4.7523,6.2132 c -2.1386,2.7964 -4.0812,5.1487 -4.8665,5.9212 h 9.1485 l 2.1725,-3.7683 c 1.2872,-2.2327 3.3706,-4.8752 4.6293,-5.8721 1.2587,-0.99686 2.2878,-2.0187 2.2878,-2.2712 0,-0.25253 -1.3101,-2.0978 -2.9115,-4.1011 l -2.911,-3.6433 2.6443,-2.0599 c 3.1339,-2.4416 3.2158,-3.827 0.24185,-4.0779 -0.0878,-0.0074 -0.17692,-0.01183 -0.26769,-0.01291 z m -59.386,0.59068 v 5.29e-4 c -0.60542,0.004 -1.059,0.1223 -1.2175,0.3788 -0.21105,0.34149 0.34522,1.0764 1.2361,1.6341 0.89094,0.55768 1.7091,1.0733 1.8185,1.1462 0.10947,0.07296 -0.14159,1.0766 -0.55864,2.2299 -0.49786,1.3768 -1.0352,1.9909 -1.5638,1.788 -0.44278,-0.16991 -1.4357,-0.46695 -2.2066,-0.66044 -1.5881,-0.3986 -1.6201,-0.47563 -0.82116,-1.9684 0.662,-1.2369 0.20297,-2.9248 -0.78808,-2.8976 -1.1473,0.03153 -2.8188,2.8923 -2.8764,4.9223 -0.0762,2.6894 0.7611,3.4728 6.0137,5.6205 4.049,1.6555 5.2214,2.5203 10.272,7.5904 l 5.4112,5.4313 h 2.5575 c -0.0132,-0.07675 0.006,-0.16805 0.07442,-0.27803 0.18641,-0.30161 -0.89742,-2.3809 -2.4294,-4.6856 l -6.3429,-9.0229 c -0.77294,-0.89688 -1.5632,-1.5984 -2.0175,-1.7426 -1.0774,-0.34194 -1.151,-0.69045 -0.80307,-3.7663 0.3595,-3.1775 0.29256,-3.4484 -1.079,-4.3471 -1.2808,-0.8392 -3.348,-1.3822 -4.6799,-1.3731 z m 65.654,4.5451 c -0.68569,0 -4.8091,3.4929 -4.8091,4.0738 0,0.27238 0.69935,1.3273 1.555,2.3441 l 1.556,1.849 1.0516,-1.3669 c 0.57862,-0.75207 1.2178,-2.2178 1.4201,-3.2562 0.38368,-1.9696 0.0284,-3.6438 -0.77361,-3.6438 z m 7.9227,2.911 c -0.32571,0 -2.1444,1.1948 -4.0417,2.6547 -3.6591,2.8156 -4.0543,3.8042 -2.6263,6.5657 0.78695,1.5218 0.70324,1.7497 -1.893,5.1828 l -2.5389,3.357 h 7.7382 l 1.6289,-1.68 c 1.2496,-1.2892 2.6759,-2.0943 4.1218,-2.3255 1.8042,-0.28851 2.3907,-0.73133 3.1859,-2.4071 1.0962,-2.3101 1.0277,-6.7548 -0.11008,-7.1289 -0.40034,-0.13165 -0.72964,0.10991 -0.73124,0.53693 -0.002,0.42702 -0.61623,1.5431 -1.3664,2.4805 l -1.3638,1.7054 -1.8356,-1.3074 c -2.2218,-1.582 -2.2561,-2.0242 -0.34831,-4.5254 1.4112,-1.8502 1.4842,-3.1084 0.18036,-3.1084 z m -86.365,0.80049 c -2.3313,0.0204 -7.1003,2.1918 -7.9418,3.7642 -0.34763,0.64955 -1.3532,1.264 -2.234,1.3653 -1.2328,0.14185 -1.5576,0.45233 -1.4103,1.3488 0.10525,0.64054 0.56044,1.5446 1.0108,2.0087 0.71355,0.73534 1.0378,0.68163 2.5224,-0.416 l 1.7033,-1.2594 1.5312,1.2036 c 0.84193,0.66226 2.4176,2.9655 3.5017,5.1182 l 1.9265,3.8262 h 5.1719 l -2.7255,-4.6582 c -2.7104,-4.6328 -4.003,-8.4436 -2.8635,-8.4436 0.32254,0 1.5234,0.39198 2.6681,0.87025 2.2006,0.91948 3.1218,0.74708 3.1218,-0.58344 0,-1.0423 -3.3232,-3.5749 -5.3574,-4.0825 -0.12205,-0.03044 -0.25858,-0.0485 -0.40774,-0.05685 -0.0699,-0.0039 -0.14236,-0.0058 -0.21756,-0.0052 z m 14.427,1.5291 c 0.4804,0 0.87335,0.39295 0.87335,0.87335 0,0.4804 -0.39295,0.87387 -0.87335,0.87387 -0.48041,0 -0.87387,-0.39347 -0.87387,-0.87387 0,-0.4804 0.39346,-0.87335 0.87387,-0.87335 z m -3.913,2.942 c -0.0534,0.0048 -0.09129,0.01855 -0.11162,0.04186 -0.10479,0.12016 0.50747,3.0461 1.3596,6.5021 l 1.5379,6.4282 3.3022,1.0392 -0.08372,-3.8319 c -0.01709,-0.78449 -0.05953,-1.8 -0.06253,-3.1244 -0.005,-2.1356 -0.202,-4.1872 -0.43823,-4.5585 -0.4256,-0.66887 -4.7029,-2.5687 -5.5037,-2.4965 z m 87.268,2.9968 c -0.65634,0.02037 -1.2569,0.6125 -2.6707,2.2356 -1.5962,1.8325 -2.1632,2.9413 -1.9245,3.7627 0.45268,1.5575 0.78105,2.4741 0.66767,3.0149 -0.0444,0.21203 -0.906,0.85011 -1.1054,0.96224 l -0.27855,2.802 2.3048,1.3855 1.4108,-2.048 c 0.36817,-0.53441 1.5014,-0.69442 3.0536,-0.38396 1.4758,0.29517 2.0069,-0.01164 4.0588,-2.3415 1.2982,-1.4748 2.3601,-2.867 2.3601,-3.0929 0,-0.65566 -5.305,-5.302 -6.8649,-6.0127 -0.40293,-0.18359 -0.7131,-0.29271 -1.0113,-0.28371 z m -113.16,3.3777 -3.6743,5.7047 8.7454,4.3719 c 9.26e-4,0.04305 0.0052,0.26872 0.0052,0.26872 0,0 -1.2919,0.34946 -1.91,0.60101 -0.23652,0.09657 -0.55899,0.25834 -0.85527,0.41239 h 10.69 c -0.29213,-0.15437 -0.5989,-0.31031 -0.83098,-0.40309 -0.55359,-0.22149 -1.7178,-0.49972 -1.7178,-0.49972 0,0 0.01042,-0.62289 0.01602,-1.3777 l 4.3709,-2.0408 -9.0126,-4.0593 z m 17.184,8.9614 c -0.26557,-0.0097 -0.532,0.06043 -0.7054,0.21808 -0.59232,0.53844 -1.3838,1.3817 -2.1653,2.1792 h 5.7197 c -0.75237,-0.70562 -1.5113,-1.5324 -2.1488,-2.1369 -0.16993,-0.16139 -0.43466,-0.2508 -0.70023,-0.26046 z m -18.722,0.01241 c -0.30247,-0.02056 -0.65024,0.06805 -0.81651,0.23152 -1.7725,1.7432 -1.7753,1.7054 -2.1927,2.1534 h 5.7125 c -0.33562,-0.33038 -1.2105,-1.1915 -2.2568,-2.2227 -0.09976,-0.09823 -0.26501,-0.14993 -0.4465,-0.16227 z"
       fill-rule="evenodd"
       stroke-width="0.085377"
       id="path2"
       style="fill:#0b8e53;fill-opacity:1" />
    <path
       d="m 5.5564,60.441 v 37.578 h 83.886 V 74.577 H 92.34 v 23.442 h 31.284 V 74.577 h 6.1173 V 60.441 h -83.819 z"
       color="#000000"
       color-rendering="auto"
       dominant-baseline="auto"
       image-rendering="auto"
       solid-color="#000000"
       stroke-width="1.3083"
       style="font-variant-ligatures:normal;font-variant-position:normal;font-variant-caps:normal;font-variant-numeric:normal;font-variant-alternates:normal;font-feature-settings:normal;text-indent:0;text-decoration-line:none;text-decoration-style:solid;text-decoration-color:#000000;text-transform:none;text-orientation:mixed;white-space:normal;shape-padding:0;isolation:auto;mix-blend-mode:normal;paint-order:stroke fill markers;shape-rendering:auto;fill:#087746;fill-opacity:1"
       id="path3" />
    <path
       d="m 5.7281,53.557 v 37.578 h 83.885 V 67.694 h 2.9004 v 23.441 h 31.283 V 67.694 h 6.1172 V 53.557 h -83.82 z"
       color="#000000"
       color-rendering="auto"
       dominant-baseline="auto"
       fill="#0ba05d"
       image-rendering="auto"
       solid-color="#000000"
       style="font-variant-ligatures:normal;font-variant-position:normal;font-variant-caps:normal;font-variant-numeric:normal;font-variant-alternates:normal;font-feature-settings:normal;text-indent:0;text-decoration-line:none;text-decoration-style:solid;text-decoration-color:#000000;text-transform:none;text-orientation:mixed;white-space:normal;shape-padding:0;isolation:auto;mix-blend-mode:normal;paint-order:normal;shape-rendering:auto"
       id="path4" />
    <circle
       cx="70.025597"
       cy="30.781715"
       r="21.143124"
       fill="#0ba05d"
       opacity="0.3"
       style="stroke-width:0.1253;paint-order:markers stroke fill"
       id="circle4" />
    <circle
       cx="70.025597"
       cy="29.3132"
       r="21.143124"
       style="stroke-width:0.1253;paint-order:markers stroke fill;fill:#373e48"
       id="circle5" />
    <path
       d="M 67.380517,50.343552 C 64.16582,49.945624 61.051363,48.793466 58.370194,47.010321 54.206475,44.241442 51.175719,40.18924 49.750431,35.484726 49.418098,34.38884 49.081354,32.732512 48.962896,31.613583 c -0.109638,-1.032259 -0.109638,-3.559773 0,-4.591995 0.886885,-8.377432 6.813187,-15.532188 14.895664,-17.9830557 1.095886,-0.3323332 2.751713,-0.6690769 3.870141,-0.7875356 1.032259,-0.1096375 3.55877,-0.1096375 4.591117,0 4.888705,0.5178399 9.426319,2.7429423 12.908406,6.3286523 2.394358,2.466907 4.087411,5.329134 5.069763,8.57027 0.610349,2.013571 0.87269,3.868637 0.87269,6.16714 0,1.727762 -0.08663,2.674905 -0.3808,4.169608 -1.49771,7.603706 -7.162649,13.854421 -14.599956,16.108568 -1.095886,0.332346 -2.751713,0.669578 -3.870141,0.788025 -1.082667,0.114533 -3.870642,0.09202 -4.938574,-0.04062 z M 57.178842,43.27588 c 0.510497,-0.348484 2.104163,-1.105672 3.66941,-1.742923 2.886787,-1.176153 3.874026,-1.722374 4.493133,-2.486954 0.548187,-0.677397 0.559439,-0.728306 0.569726,-2.564766 l 0.0093,-1.668996 -0.429742,-0.566782 c -0.681319,-0.897662 -1.18203,-2.007682 -1.412131,-3.131999 -0.0881,-0.432184 -0.127254,-0.491902 -0.417011,-0.639719 -0.696004,-0.355338 -1.113503,-1.320035 -1.113503,-2.574038 0,-0.775294 0.0083,-0.81054 0.281436,-1.198181 0.278993,-0.395973 0.27997,-0.402814 0.182074,-0.853606 -0.71069,-3.268075 -0.704813,-5.726586 0.01762,-7.566491 0.995058,-2.531937 3.373828,-3.851973 6.953148,-3.858864 1.835394,-0.0034 2.859346,0.316182 3.634201,1.134065 0.257454,0.272139 0.412613,0.362192 0.702369,0.408202 0.204102,0.0323 0.640697,0.188439 0.969609,0.34653 1.186441,0.571192 2.009687,1.752696 2.298002,3.298397 0.309341,1.661227 0.09789,4.095806 -0.553086,6.362859 -0.09055,0.314716 -0.08076,0.352407 0.185018,0.730261 0.272139,0.386175 0.280459,0.42191 0.280459,1.196715 0,1.252023 -0.4175,2.218688 -1.111061,2.572535 -0.300519,0.153204 -0.324013,0.194804 -0.458121,0.804664 -0.256477,1.167345 -0.922133,2.572534 -1.505104,3.177483 l -0.2922,0.303464 0.03524,1.679771 c 0.03524,1.661228 0.03818,1.684158 0.272139,2.113937 0.50952,0.93584 1.466887,1.599579 3.559773,2.465904 2.736552,1.132599 3.775164,1.601459 4.458926,2.013069 0.470364,0.282903 0.757677,0.407714 0.862903,0.374434 0.210467,-0.06657 1.532419,-1.538308 2.274947,-2.532438 1.894662,-2.535821 3.139893,-5.551416 3.64598,-8.828262 0.204589,-1.324922 0.203612,-4.136404 -0.0015,-5.453056 -0.328913,-2.111931 -0.934851,-4.044308 -1.8374,-5.861158 -2.862854,-5.764802 -8.183593,-9.625546 -14.653835,-10.634838 -1.321539,-0.2060554 -4.130013,-0.2060554 -5.451552,0 -2.111556,0.328913 -4.043431,0.934851 -5.85978,1.8374 -5.762797,2.864232 -9.623165,8.186099 -10.631955,14.658847 -0.206056,1.32204 -0.206056,4.131015 0,5.453056 0.646071,4.146678 2.39536,7.717227 5.272373,10.761641 0.332822,0.351917 0.660757,0.640208 0.728795,0.639719 0.06803,-5.01e-4 0.235426,-0.07684 0.371489,-0.169844 z"
       id="path5"
       style="stroke-width:0.1253;fill:#0ba761;fill-opacity:1" />
    <g
       transform="translate(182.35,-59.295)"
       id="g7"
       style="fill-rule:evenodd;stroke-width:0.085377">
      <path
         d="m -58.633,94.302 5.3e-4,0.0011 c -0.15742,-8.5e-5 -0.32654,0.0034 -0.49766,0.0067 -0.0955,0.0016 -0.20127,0.10859 -0.20102,0.20413 5.2e-4,0.2533 0.0129,0.80204 0.0129,0.80204 0,0 -0.28383,0.07648 -0.41962,0.13178 -0.12139,0.04952 -0.35089,0.17829 -0.35089,0.17829 0,0 -0.31348,-0.30863 -0.58448,-0.57569 -0.0585,-0.05744 -0.21958,-0.04281 -0.27803,0.01447 -0.47838,0.47045 -0.35963,0.33928 -0.55863,0.55709 -0.0648,0.07097 -0.0537,0.22116 0.0155,0.28784 0.19647,0.18964 0.56535,0.55967 0.56535,0.55967 0,0 -0.1461,0.23965 -0.19999,0.36846 -0.0529,0.1266 -0.11989,0.39378 -0.11989,0.39378 0,0 -0.52631,-0.01003 -0.78964,-0.0067 -0.0997,0.0016 -0.22543,0.08442 -0.22583,0.18036 -5.3e-4,0.15218 -0.003,0.51689 -0.005,0.72917 -0.002,0.2123 0.11821,0.2879 0.22841,0.28733 0.32268,-0.0016 0.7886,0.0031 0.7886,0.0031 0,0 0.0744,0.26909 0.12713,0.39792 0.0518,0.12644 0.18501,0.36588 0.18501,0.36588 0,0 -0.36476,0.35014 -0.53849,0.54572 -0.0695,0.07807 -0.0858,0.2354 -0.016,0.31317 0.18619,0.2074 0.37299,0.3875 0.54933,0.54158 0.0845,0.0739 0.25242,0.0354 0.33435,-0.0413 0.14358,-0.13436 0.51678,-0.53021 0.51678,-0.53021 0,0 0.23864,0.12733 0.3633,0.17932 0.0654,0.0274 0.16554,0.062 0.2496,0.0899 0.0841,0.0279 0.15193,0.0491 0.15193,0.0491 0,0 -6e-5,0.12646 0,0.28526 6e-5,0.15895 2.7e-4,0.3499 0.001,0.48009 2.3e-4,0.0522 0.0236,0.11283 0.06,0.1602 0.0363,0.0474 0.0854,0.0815 0.13746,0.0822 0.248,0.002 0.52661,0.002 0.80152,0 0.0465,-1.7e-4 0.0953,-0.0351 0.13229,-0.0817 0.0369,-0.0465 0.0622,-0.10418 0.062,-0.15089 -5.3e-4,-0.12809 -2.1e-4,-0.33198 5.3e-4,-0.50334 10e-4,-0.17136 0.002,-0.31059 0.002,-0.31059 0,0 0.0666,-0.0145 0.14883,-0.0362 0.0823,-0.0216 0.1801,-0.0503 0.24237,-0.0775 0.0589,-0.0257 0.14172,-0.0749 0.20981,-0.11782 0.0681,-0.0429 0.12145,-0.07959 0.12145,-0.07959 0,0 0.10764,0.10867 0.23668,0.23771 0.12891,0.12891 0.2795,0.27785 0.36484,0.35864 0.0376,0.0356 0.0929,0.0545 0.15194,0.0517 0.0591,-0.002 0.12164,-0.027 0.17363,-0.0775 0.10894,-0.10596 0.20164,-0.19518 0.28423,-0.27596 0.0825,-0.0807 0.15557,-0.15303 0.22532,-0.2248 0.0342,-0.0352 0.0538,-0.09116 0.0563,-0.14728 0.002,-0.05612 -0.0118,-0.11264 -0.047,-0.1478 -0.0964,-0.09854 -0.24851,-0.25077 -0.37673,-0.37828 -0.12825,-0.12742 -0.23255,-0.22996 -0.23255,-0.22996 0,0 0.037,-0.05633 0.0801,-0.12764 0.0431,-0.07147 0.0921,-0.15797 0.11679,-0.21963 0.0251,-0.06223 0.0499,-0.15983 0.0682,-0.24185 0.0185,-0.08203 0.0305,-0.14831 0.0305,-0.14831 0,0 0.57783,0.01331 0.84132,0.0052 0.098,-0.0033 0.22094,-0.09216 0.22428,-0.19017 0.01,-0.28826 0.0101,-0.51917 0.003,-0.7793 -0.005,-0.1573 -0.11106,-0.22204 -0.27545,-0.22067 -0.2135,0.0016 -0.77981,0.0098 -0.77981,0.0098 0,0 -0.0607,-0.25854 -0.11007,-0.38138 -0.0505,-0.1261 -0.18863,-0.36123 -0.18863,-0.36123 0,0 0.38341,-0.38284 0.57,-0.57931 0.12726,-0.13386 0.0489,-0.2972 0.005,-0.33642 -0.17975,-0.16291 -0.36398,-0.36726 -0.51677,-0.51212 -0.0746,-0.07081 -0.23283,-0.07851 -0.30904,-0.0098 -0.15581,0.14179 -0.37491,0.38087 -0.57724,0.58189 0,0 -0.2406,-0.14012 -0.36949,-0.19172 -0.12163,-0.04869 -0.37777,-0.10956 -0.37777,-0.10956 0,0 0.0104,-0.55691 5.3e-4,-0.83718 -0.003,-0.09557 -0.13081,-0.1906 -0.22635,-0.19534 -0.0842,-0.0033 -0.17475,-0.0057 -0.26924,-0.0057 z m -0.10336,2.2206 c 0.71961,0 1.3033,0.58317 1.3033,1.3028 0,0.71961 -0.5837,1.3028 -1.3033,1.3028 -0.71962,0 -1.3028,-0.5832 -1.3028,-1.3028 0,-0.71962 0.58316,-1.3028 1.3028,-1.3028 z"
         fill="#087142"
         id="path6" />
      <path
         d="m -58.633,93.773 5.3e-4,0.0011 c -0.15742,-8.4e-5 -0.32654,0.0034 -0.49766,0.0067 -0.0955,0.0016 -0.20127,0.10859 -0.20102,0.20413 5.2e-4,0.2533 0.0129,0.80204 0.0129,0.80204 0,0 -0.28383,0.07648 -0.41962,0.13178 -0.12139,0.04952 -0.35089,0.17829 -0.35089,0.17829 0,0 -0.31348,-0.30862 -0.58448,-0.57569 -0.0585,-0.05744 -0.21957,-0.04281 -0.27803,0.01447 -0.47838,0.47045 -0.35963,0.33928 -0.55863,0.55709 -0.0648,0.07097 -0.0537,0.22117 0.0155,0.28784 0.19647,0.18964 0.56535,0.55967 0.56535,0.55967 0,0 -0.1461,0.23965 -0.19999,0.36846 -0.0529,0.1266 -0.11989,0.39378 -0.11989,0.39378 0,0 -0.52631,-0.01005 -0.78964,-0.0067 -0.0997,0.0016 -0.22543,0.08442 -0.22583,0.18036 -5.3e-4,0.15218 -0.003,0.51689 -0.005,0.72917 -0.002,0.2123 0.11821,0.2879 0.22841,0.28733 0.32268,-0.0021 0.7886,0.0031 0.7886,0.0031 0,0 0.0744,0.26909 0.12713,0.39792 0.0518,0.12643 0.18501,0.36588 0.18501,0.36588 0,0 -0.36476,0.35013 -0.53849,0.54572 -0.0695,0.0781 -0.0858,0.23541 -0.016,0.31317 0.18619,0.2074 0.37299,0.3875 0.54933,0.54158 0.0845,0.0739 0.25242,0.0354 0.33435,-0.0413 0.14357,-0.13436 0.51678,-0.53022 0.51678,-0.53022 0,0 0.23864,0.12732 0.3633,0.17932 0.0654,0.0274 0.16553,0.06202 0.2496,0.08992 0.0841,0.0279 0.15193,0.04909 0.15193,0.04909 0,0 -6e-5,0.12646 0,0.28526 6e-5,0.15895 2.7e-4,0.3499 0.001,0.48009 2.3e-4,0.0522 0.0236,0.11282 0.06,0.1602 0.0363,0.0474 0.0854,0.0815 0.13746,0.0822 0.248,0.002 0.52662,0.002 0.80152,0 0.0465,-1.7e-4 0.0953,-0.0352 0.13229,-0.0816 0.0369,-0.0465 0.0622,-0.10419 0.062,-0.1509 -5.3e-4,-0.12809 -2.2e-4,-0.33198 5.3e-4,-0.50334 10e-4,-0.17137 0.002,-0.31058 0.002,-0.31058 0,0 0.0666,-0.01447 0.14883,-0.03618 0.0823,-0.02159 0.18009,-0.05032 0.24237,-0.07752 0.0589,-0.0258 0.14173,-0.07491 0.20981,-0.11782 0.0681,-0.0429 0.12144,-0.07958 0.12145,-0.07958 0,0 0.10764,0.10868 0.23668,0.23772 0.12891,0.12892 0.2795,0.27784 0.36484,0.35864 0.0376,0.0356 0.0929,0.0545 0.15194,0.0517 0.0591,-0.002 0.12164,-0.027 0.17363,-0.0775 0.10894,-0.10598 0.20163,-0.19518 0.28423,-0.27596 0.0825,-0.0807 0.15557,-0.15303 0.22532,-0.2248 0.0342,-0.0352 0.0538,-0.0912 0.0563,-0.14728 0.002,-0.0561 -0.0118,-0.11264 -0.047,-0.1478 -0.0964,-0.0985 -0.24851,-0.25077 -0.37673,-0.37828 -0.12825,-0.12742 -0.23255,-0.22997 -0.23255,-0.22997 0,0 0.037,-0.05629 0.0801,-0.12764 0.0431,-0.0715 0.0921,-0.15796 0.11679,-0.21963 0.0251,-0.0622 0.0499,-0.15983 0.0682,-0.24185 0.0185,-0.082 0.0305,-0.14831 0.0305,-0.14831 0,0 0.57782,0.01307 0.84132,0.0052 0.098,-0.003 0.22094,-0.0922 0.22428,-0.19017 0.01,-0.28826 0.0101,-0.51917 0.003,-0.7793 -0.005,-0.1573 -0.11106,-0.22204 -0.27545,-0.22066 -0.2135,0.0016 -0.77981,0.0093 -0.77981,0.0093 0,0 -0.0607,-0.25854 -0.11007,-0.38138 -0.0505,-0.1261 -0.18863,-0.36123 -0.18863,-0.36123 0,0 0.38341,-0.38284 0.57,-0.57931 0.12726,-0.13386 0.0489,-0.2972 0.005,-0.33642 -0.17975,-0.16291 -0.36399,-0.36726 -0.51677,-0.51213 -0.0746,-0.07081 -0.23283,-0.07799 -0.30904,-0.0093 -0.15581,0.14179 -0.37491,0.38087 -0.57724,0.58189 0,0 -0.2406,-0.14012 -0.36949,-0.19172 -0.12162,-0.04869 -0.37777,-0.10956 -0.37777,-0.10956 0,0 0.0105,-0.55691 5.3e-4,-0.83718 -0.003,-0.09557 -0.13081,-0.1906 -0.22635,-0.19534 -0.0842,-0.0033 -0.17475,-0.0057 -0.26924,-0.0057 z m -0.10336,2.2201 c 0.71961,0 1.3033,0.58316 1.3033,1.3028 0,0.71961 -0.5837,1.3033 -1.3033,1.3033 -0.71962,0 -1.3028,-0.58372 -1.3028,-1.3033 0,-0.71962 0.58317,-1.3028 1.3028,-1.3028 z"
         fill="#0b9155"
         id="path7" />
    </g>
    <g
       transform="translate(175.63,-65.21)"
       id="g9"
       style="fill-rule:evenodd;stroke-width:0.085377">
      <path
         d="m -58.633,94.302 5.3e-4,0.0011 c -0.15742,-8.5e-5 -0.32654,0.0034 -0.49766,0.0067 -0.0955,0.0016 -0.20127,0.10859 -0.20102,0.20413 5.2e-4,0.2533 0.0129,0.80204 0.0129,0.80204 0,0 -0.28383,0.07648 -0.41962,0.13178 -0.12139,0.04952 -0.35089,0.17829 -0.35089,0.17829 0,0 -0.31348,-0.30863 -0.58448,-0.57569 -0.0585,-0.05744 -0.21958,-0.04281 -0.27803,0.01447 -0.47838,0.47045 -0.35963,0.33928 -0.55863,0.55709 -0.0648,0.07097 -0.0537,0.22116 0.0155,0.28784 0.19647,0.18964 0.56535,0.55967 0.56535,0.55967 0,0 -0.1461,0.23965 -0.19999,0.36846 -0.0529,0.1266 -0.11989,0.39378 -0.11989,0.39378 0,0 -0.52631,-0.01003 -0.78964,-0.0067 -0.0997,0.0016 -0.22543,0.08442 -0.22583,0.18036 -5.3e-4,0.15218 -0.003,0.51689 -0.005,0.72917 -0.002,0.2123 0.11821,0.2879 0.22841,0.28733 0.32268,-0.0016 0.7886,0.0031 0.7886,0.0031 0,0 0.0744,0.26909 0.12713,0.39792 0.0518,0.12644 0.18501,0.36588 0.18501,0.36588 0,0 -0.36476,0.35014 -0.53849,0.54572 -0.0695,0.07807 -0.0858,0.2354 -0.016,0.31317 0.18619,0.2074 0.37299,0.3875 0.54933,0.54158 0.0845,0.0739 0.25242,0.0354 0.33435,-0.0413 0.14358,-0.13436 0.51678,-0.53021 0.51678,-0.53021 0,0 0.23864,0.12733 0.3633,0.17932 0.0654,0.0274 0.16554,0.062 0.2496,0.0899 0.0841,0.0279 0.15193,0.0491 0.15193,0.0491 0,0 -6e-5,0.12646 0,0.28526 6e-5,0.15895 2.7e-4,0.3499 0.001,0.48009 2.3e-4,0.0522 0.0236,0.11283 0.06,0.1602 0.0363,0.0474 0.0854,0.0815 0.13746,0.0822 0.248,0.002 0.52661,0.002 0.80152,0 0.0465,-1.7e-4 0.0953,-0.0351 0.13229,-0.0817 0.0369,-0.0465 0.0622,-0.10418 0.062,-0.15089 -5.3e-4,-0.12809 -2.1e-4,-0.33198 5.3e-4,-0.50334 10e-4,-0.17136 0.002,-0.31059 0.002,-0.31059 0,0 0.0666,-0.0145 0.14883,-0.0362 0.0823,-0.0216 0.1801,-0.0503 0.24237,-0.0775 0.0589,-0.0257 0.14172,-0.0749 0.20981,-0.11782 0.0681,-0.0429 0.12145,-0.07959 0.12145,-0.07959 0,0 0.10764,0.10867 0.23668,0.23771 0.12891,0.12891 0.2795,0.27785 0.36484,0.35864 0.0376,0.0356 0.0929,0.0545 0.15194,0.0517 0.0591,-0.002 0.12164,-0.027 0.17363,-0.0775 0.10894,-0.10596 0.20164,-0.19518 0.28423,-0.27596 0.0825,-0.0807 0.15557,-0.15303 0.22532,-0.2248 0.0342,-0.0352 0.0538,-0.09116 0.0563,-0.14728 0.002,-0.05612 -0.0118,-0.11264 -0.047,-0.1478 -0.0964,-0.09854 -0.24851,-0.25077 -0.37673,-0.37828 -0.12825,-0.12742 -0.23255,-0.22996 -0.23255,-0.22996 0,0 0.037,-0.05633 0.0801,-0.12764 0.0431,-0.07147 0.0921,-0.15797 0.11679,-0.21963 0.0251,-0.06223 0.0499,-0.15983 0.0682,-0.24185 0.0185,-0.08203 0.0305,-0.14831 0.0305,-0.14831 0,0 0.57783,0.01331 0.84132,0.0052 0.098,-0.0033 0.22094,-0.09216 0.22428,-0.19017 0.01,-0.28826 0.0101,-0.51917 0.003,-0.7793 -0.005,-0.1573 -0.11106,-0.22204 -0.27545,-0.22067 -0.2135,0.0016 -0.77981,0.0098 -0.77981,0.0098 0,0 -0.0607,-0.25854 -0.11007,-0.38138 -0.0505,-0.1261 -0.18863,-0.36123 -0.18863,-0.36123 0,0 0.38341,-0.38284 0.57,-0.57931 0.12726,-0.13386 0.0489,-0.2972 0.005,-0.33642 -0.17975,-0.16291 -0.36398,-0.36726 -0.51677,-0.51212 -0.0746,-0.07081 -0.23283,-0.07851 -0.30904,-0.0098 -0.15581,0.14179 -0.37491,0.38087 -0.57724,0.58189 0,0 -0.2406,-0.14012 -0.36949,-0.19172 -0.12163,-0.04869 -0.37777,-0.10956 -0.37777,-0.10956 0,0 0.0104,-0.55691 5.3e-4,-0.83718 -0.003,-0.09557 -0.13081,-0.1906 -0.22635,-0.19534 -0.0842,-0.0033 -0.17475,-0.0057 -0.26924,-0.0057 z m -0.10336,2.2206 c 0.71961,0 1.3033,0.58317 1.3033,1.3028 0,0.71961 -0.5837,1.3028 -1.3033,1.3028 -0.71962,0 -1.3028,-0.5832 -1.3028,-1.3028 0,-0.71962 0.58316,-1.3028 1.3028,-1.3028 z"
         fill="#087142"
         id="path8" />
      <path
         d="m -58.633,93.773 5.3e-4,0.0011 c -0.15742,-8.4e-5 -0.32654,0.0034 -0.49766,0.0067 -0.0955,0.0016 -0.20127,0.10859 -0.20102,0.20413 5.2e-4,0.2533 0.0129,0.80204 0.0129,0.80204 0,0 -0.28383,0.07648 -0.41962,0.13178 -0.12139,0.04952 -0.35089,0.17829 -0.35089,0.17829 0,0 -0.31348,-0.30862 -0.58448,-0.57569 -0.0585,-0.05744 -0.21957,-0.04281 -0.27803,0.01447 -0.47838,0.47045 -0.35963,0.33928 -0.55863,0.55709 -0.0648,0.07097 -0.0537,0.22117 0.0155,0.28784 0.19647,0.18964 0.56535,0.55967 0.56535,0.55967 0,0 -0.1461,0.23965 -0.19999,0.36846 -0.0529,0.1266 -0.11989,0.39378 -0.11989,0.39378 0,0 -0.52631,-0.01005 -0.78964,-0.0067 -0.0997,0.0016 -0.22543,0.08442 -0.22583,0.18036 -5.3e-4,0.15218 -0.003,0.51689 -0.005,0.72917 -0.002,0.2123 0.11821,0.2879 0.22841,0.28733 0.32268,-0.0021 0.7886,0.0031 0.7886,0.0031 0,0 0.0744,0.26909 0.12713,0.39792 0.0518,0.12643 0.18501,0.36588 0.18501,0.36588 0,0 -0.36476,0.35013 -0.53849,0.54572 -0.0695,0.0781 -0.0858,0.23541 -0.016,0.31317 0.18619,0.2074 0.37299,0.3875 0.54933,0.54158 0.0845,0.0739 0.25242,0.0354 0.33435,-0.0413 0.14357,-0.13436 0.51678,-0.53022 0.51678,-0.53022 0,0 0.23864,0.12732 0.3633,0.17932 0.0654,0.0274 0.16553,0.06202 0.2496,0.08992 0.0841,0.0279 0.15193,0.04909 0.15193,0.04909 0,0 -6e-5,0.12646 0,0.28526 6e-5,0.15895 2.7e-4,0.3499 0.001,0.48009 2.3e-4,0.0522 0.0236,0.11282 0.06,0.1602 0.0363,0.0474 0.0854,0.0815 0.13746,0.0822 0.248,0.002 0.52662,0.002 0.80152,0 0.0465,-1.7e-4 0.0953,-0.0352 0.13229,-0.0816 0.0369,-0.0465 0.0622,-0.10419 0.062,-0.1509 -5.3e-4,-0.12809 -2.2e-4,-0.33198 5.3e-4,-0.50334 10e-4,-0.17137 0.002,-0.31058 0.002,-0.31058 0,0 0.0666,-0.01447 0.14883,-0.03618 0.0823,-0.02159 0.18009,-0.05032 0.24237,-0.07752 0.0589,-0.0258 0.14173,-0.07491 0.20981,-0.11782 0.0681,-0.0429 0.12144,-0.07958 0.12145,-0.07958 0,0 0.10764,0.10868 0.23668,0.23772 0.12891,0.12892 0.2795,0.27784 0.36484,0.35864 0.0376,0.0356 0.0929,0.0545 0.15194,0.0517 0.0591,-0.002 0.12164,-0.027 0.17363,-0.0775 0.10894,-0.10598 0.20163,-0.19518 0.28423,-0.27596 0.0825,-0.0807 0.15557,-0.15303 0.22532,-0.2248 0.0342,-0.0352 0.0538,-0.0912 0.0563,-0.14728 0.002,-0.0561 -0.0118,-0.11264 -0.047,-0.1478 -0.0964,-0.0985 -0.24851,-0.25077 -0.37673,-0.37828 -0.12825,-0.12742 -0.23255,-0.22997 -0.23255,-0.22997 0,0 0.037,-0.05629 0.0801,-0.12764 0.0431,-0.0715 0.0921,-0.15796 0.11679,-0.21963 0.0251,-0.0622 0.0499,-0.15983 0.0682,-0.24185 0.0185,-0.082 0.0305,-0.14831 0.0305,-0.14831 0,0 0.57782,0.01307 0.84132,0.0052 0.098,-0.003 0.22094,-0.0922 0.22428,-0.19017 0.01,-0.28826 0.0101,-0.51917 0.003,-0.7793 -0.005,-0.1573 -0.11106,-0.22204 -0.27545,-0.22066 -0.2135,0.0016 -0.77981,0.0093 -0.77981,0.0093 0,0 -0.0607,-0.25854 -0.11007,-0.38138 -0.0505,-0.1261 -0.18863,-0.36123 -0.18863,-0.36123 0,0 0.38341,-0.38284 0.57,-0.57931 0.12726,-0.13386 0.0489,-0.2972 0.005,-0.33642 -0.17975,-0.16291 -0.36399,-0.36726 -0.51677,-0.51213 -0.0746,-0.07081 -0.23283,-0.07799 -0.30904,-0.0093 -0.15581,0.14179 -0.37491,0.38087 -0.57724,0.58189 0,0 -0.2406,-0.14012 -0.36949,-0.19172 -0.12162,-0.04869 -0.37777,-0.10956 -0.37777,-0.10956 0,0 0.0105,-0.55691 5.3e-4,-0.83718 -0.003,-0.09557 -0.13081,-0.1906 -0.22635,-0.19534 -0.0842,-0.0033 -0.17475,-0.0057 -0.26924,-0.0057 z m -0.10336,2.2201 c 0.71961,0 1.3033,0.58316 1.3033,1.3028 0,0.71961 -0.5837,1.3033 -1.3033,1.3033 -0.71962,0 -1.3028,-0.58372 -1.3028,-1.3033 0,-0.71962 0.58317,-1.3028 1.3028,-1.3028 z"
         fill="#0b9155"
         id="path9" />
    </g>
    <g
       transform="translate(101.03,-75.555)"
       id="g11"
       style="fill-rule:evenodd;stroke-width:0.085377">
      <path
         d="m -58.633,94.302 5.3e-4,0.0011 c -0.15742,-8.5e-5 -0.32654,0.0034 -0.49766,0.0067 -0.0955,0.0016 -0.20127,0.10859 -0.20102,0.20413 5.2e-4,0.2533 0.0129,0.80204 0.0129,0.80204 0,0 -0.28383,0.07648 -0.41962,0.13178 -0.12139,0.04952 -0.35089,0.17829 -0.35089,0.17829 0,0 -0.31348,-0.30863 -0.58448,-0.57569 -0.0585,-0.05744 -0.21958,-0.04281 -0.27803,0.01447 -0.47838,0.47045 -0.35963,0.33928 -0.55863,0.55709 -0.0648,0.07097 -0.0537,0.22116 0.0155,0.28784 0.19647,0.18964 0.56535,0.55967 0.56535,0.55967 0,0 -0.1461,0.23965 -0.19999,0.36846 -0.0529,0.1266 -0.11989,0.39378 -0.11989,0.39378 0,0 -0.52631,-0.01003 -0.78964,-0.0067 -0.0997,0.0016 -0.22543,0.08442 -0.22583,0.18036 -5.3e-4,0.15218 -0.003,0.51689 -0.005,0.72917 -0.002,0.2123 0.11821,0.2879 0.22841,0.28733 0.32268,-0.0016 0.7886,0.0031 0.7886,0.0031 0,0 0.0744,0.26909 0.12713,0.39792 0.0518,0.12644 0.18501,0.36588 0.18501,0.36588 0,0 -0.36476,0.35014 -0.53849,0.54572 -0.0695,0.07807 -0.0858,0.2354 -0.016,0.31317 0.18619,0.2074 0.37299,0.3875 0.54933,0.54158 0.0845,0.0739 0.25242,0.0354 0.33435,-0.0413 0.14358,-0.13436 0.51678,-0.53021 0.51678,-0.53021 0,0 0.23864,0.12733 0.3633,0.17932 0.0654,0.0274 0.16554,0.062 0.2496,0.0899 0.0841,0.0279 0.15193,0.0491 0.15193,0.0491 0,0 -6e-5,0.12646 0,0.28526 6e-5,0.15895 2.7e-4,0.3499 0.001,0.48009 2.3e-4,0.0522 0.0236,0.11283 0.06,0.1602 0.0363,0.0474 0.0854,0.0815 0.13746,0.0822 0.248,0.002 0.52661,0.002 0.80152,0 0.0465,-1.7e-4 0.0953,-0.0351 0.13229,-0.0817 0.0369,-0.0465 0.0622,-0.10418 0.062,-0.15089 -5.3e-4,-0.12809 -2.1e-4,-0.33198 5.3e-4,-0.50334 10e-4,-0.17136 0.002,-0.31059 0.002,-0.31059 0,0 0.0666,-0.0145 0.14883,-0.0362 0.0823,-0.0216 0.1801,-0.0503 0.24237,-0.0775 0.0589,-0.0257 0.14172,-0.0749 0.20981,-0.11782 0.0681,-0.0429 0.12145,-0.07959 0.12145,-0.07959 0,0 0.10764,0.10867 0.23668,0.23771 0.12891,0.12891 0.2795,0.27785 0.36484,0.35864 0.0376,0.0356 0.0929,0.0545 0.15194,0.0517 0.0591,-0.002 0.12164,-0.027 0.17363,-0.0775 0.10894,-0.10596 0.20164,-0.19518 0.28423,-0.27596 0.0825,-0.0807 0.15557,-0.15303 0.22532,-0.2248 0.0342,-0.0352 0.0538,-0.09116 0.0563,-0.14728 0.002,-0.05612 -0.0118,-0.11264 -0.047,-0.1478 -0.0964,-0.09854 -0.24851,-0.25077 -0.37673,-0.37828 -0.12825,-0.12742 -0.23255,-0.22996 -0.23255,-0.22996 0,0 0.037,-0.05633 0.0801,-0.12764 0.0431,-0.07147 0.0921,-0.15797 0.11679,-0.21963 0.0251,-0.06223 0.0499,-0.15983 0.0682,-0.24185 0.0185,-0.08203 0.0305,-0.14831 0.0305,-0.14831 0,0 0.57783,0.01331 0.84132,0.0052 0.098,-0.0033 0.22094,-0.09216 0.22428,-0.19017 0.01,-0.28826 0.0101,-0.51917 0.003,-0.7793 -0.005,-0.1573 -0.11106,-0.22204 -0.27545,-0.22067 -0.2135,0.0016 -0.77981,0.0098 -0.77981,0.0098 0,0 -0.0607,-0.25854 -0.11007,-0.38138 -0.0505,-0.1261 -0.18863,-0.36123 -0.18863,-0.36123 0,0 0.38341,-0.38284 0.57,-0.57931 0.12726,-0.13386 0.0489,-0.2972 0.005,-0.33642 -0.17975,-0.16291 -0.36398,-0.36726 -0.51677,-0.51212 -0.0746,-0.07081 -0.23283,-0.07851 -0.30904,-0.0098 -0.15581,0.14179 -0.37491,0.38087 -0.57724,0.58189 0,0 -0.2406,-0.14012 -0.36949,-0.19172 -0.12163,-0.04869 -0.37777,-0.10956 -0.37777,-0.10956 0,0 0.0104,-0.55691 5.3e-4,-0.83718 -0.003,-0.09557 -0.13081,-0.1906 -0.22635,-0.19534 -0.0842,-0.0033 -0.17475,-0.0057 -0.26924,-0.0057 z m -0.10336,2.2206 c 0.71961,0 1.3033,0.58317 1.3033,1.3028 0,0.71961 -0.5837,1.3028 -1.3033,1.3028 -0.71962,0 -1.3028,-0.5832 -1.3028,-1.3028 0,-0.71962 0.58316,-1.3028 1.3028,-1.3028 z"
         fill="#087142"
         id="path10" />
      <path
         d="m -58.633,93.773 5.3e-4,0.0011 c -0.15742,-8.4e-5 -0.32654,0.0034 -0.49766,0.0067 -0.0955,0.0016 -0.20127,0.10859 -0.20102,0.20413 5.2e-4,0.2533 0.0129,0.80204 0.0129,0.80204 0,0 -0.28383,0.07648 -0.41962,0.13178 -0.12139,0.04952 -0.35089,0.17829 -0.35089,0.17829 0,0 -0.31348,-0.30862 -0.58448,-0.57569 -0.0585,-0.05744 -0.21957,-0.04281 -0.27803,0.01447 -0.47838,0.47045 -0.35963,0.33928 -0.55863,0.55709 -0.0648,0.07097 -0.0537,0.22117 0.0155,0.28784 0.19647,0.18964 0.56535,0.55967 0.56535,0.55967 0,0 -0.1461,0.23965 -0.19999,0.36846 -0.0529,0.1266 -0.11989,0.39378 -0.11989,0.39378 0,0 -0.52631,-0.01005 -0.78964,-0.0067 -0.0997,0.0016 -0.22543,0.08442 -0.22583,0.18036 -5.3e-4,0.15218 -0.003,0.51689 -0.005,0.72917 -0.002,0.2123 0.11821,0.2879 0.22841,0.28733 0.32268,-0.0021 0.7886,0.0031 0.7886,0.0031 0,0 0.0744,0.26909 0.12713,0.39792 0.0518,0.12643 0.18501,0.36588 0.18501,0.36588 0,0 -0.36476,0.35013 -0.53849,0.54572 -0.0695,0.0781 -0.0858,0.23541 -0.016,0.31317 0.18619,0.2074 0.37299,0.3875 0.54933,0.54158 0.0845,0.0739 0.25242,0.0354 0.33435,-0.0413 0.14357,-0.13436 0.51678,-0.53022 0.51678,-0.53022 0,0 0.23864,0.12732 0.3633,0.17932 0.0654,0.0274 0.16553,0.06202 0.2496,0.08992 0.0841,0.0279 0.15193,0.04909 0.15193,0.04909 0,0 -6e-5,0.12646 0,0.28526 6e-5,0.15895 2.7e-4,0.3499 0.001,0.48009 2.3e-4,0.0522 0.0236,0.11282 0.06,0.1602 0.0363,0.0474 0.0854,0.0815 0.13746,0.0822 0.248,0.002 0.52662,0.002 0.80152,0 0.0465,-1.7e-4 0.0953,-0.0352 0.13229,-0.0816 0.0369,-0.0465 0.0622,-0.10419 0.062,-0.1509 -5.3e-4,-0.12809 -2.2e-4,-0.33198 5.3e-4,-0.50334 10e-4,-0.17137 0.002,-0.31058 0.002,-0.31058 0,0 0.0666,-0.01447 0.14883,-0.03618 0.0823,-0.02159 0.18009,-0.05032 0.24237,-0.07752 0.0589,-0.0258 0.14173,-0.07491 0.20981,-0.11782 0.0681,-0.0429 0.12144,-0.07958 0.12145,-0.07958 0,0 0.10764,0.10868 0.23668,0.23772 0.12891,0.12892 0.2795,0.27784 0.36484,0.35864 0.0376,0.0356 0.0929,0.0545 0.15194,0.0517 0.0591,-0.002 0.12164,-0.027 0.17363,-0.0775 0.10894,-0.10598 0.20163,-0.19518 0.28423,-0.27596 0.0825,-0.0807 0.15557,-0.15303 0.22532,-0.2248 0.0342,-0.0352 0.0538,-0.0912 0.0563,-0.14728 0.002,-0.0561 -0.0118,-0.11264 -0.047,-0.1478 -0.0964,-0.0985 -0.24851,-0.25077 -0.37673,-0.37828 -0.12825,-0.12742 -0.23255,-0.22997 -0.23255,-0.22997 0,0 0.037,-0.05629 0.0801,-0.12764 0.0431,-0.0715 0.0921,-0.15796 0.11679,-0.21963 0.0251,-0.0622 0.0499,-0.15983 0.0682,-0.24185 0.0185,-0.082 0.0305,-0.14831 0.0305,-0.14831 0,0 0.57782,0.01307 0.84132,0.0052 0.098,-0.003 0.22094,-0.0922 0.22428,-0.19017 0.01,-0.28826 0.0101,-0.51917 0.003,-0.7793 -0.005,-0.1573 -0.11106,-0.22204 -0.27545,-0.22066 -0.2135,0.0016 -0.77981,0.0093 -0.77981,0.0093 0,0 -0.0607,-0.25854 -0.11007,-0.38138 -0.0505,-0.1261 -0.18863,-0.36123 -0.18863,-0.36123 0,0 0.38341,-0.38284 0.57,-0.57931 0.12726,-0.13386 0.0489,-0.2972 0.005,-0.33642 -0.17975,-0.16291 -0.36399,-0.36726 -0.51677,-0.51213 -0.0746,-0.07081 -0.23283,-0.07799 -0.30904,-0.0093 -0.15581,0.14179 -0.37491,0.38087 -0.57724,0.58189 0,0 -0.2406,-0.14012 -0.36949,-0.19172 -0.12162,-0.04869 -0.37777,-0.10956 -0.37777,-0.10956 0,0 0.0105,-0.55691 5.3e-4,-0.83718 -0.003,-0.09557 -0.13081,-0.1906 -0.22635,-0.19534 -0.0842,-0.0033 -0.17475,-0.0057 -0.26924,-0.0057 z m -0.10336,2.2201 c 0.71961,0 1.3033,0.58316 1.3033,1.3028 0,0.71961 -0.5837,1.3033 -1.3033,1.3033 -0.71962,0 -1.3028,-0.58372 -1.3028,-1.3033 0,-0.71962 0.58317,-1.3028 1.3028,-1.3028 z"
         fill="#0b9155"
         id="path11" />
    </g>
    <path
       d="m 8.5851,56.415 v 19.832 h 14.043 v 3.9695 H 8.5851 v 8.0616 h 37.805 v -19.667 h -13.068 v -3.9694 h 13.068 V 56.415 Z m 40.366,0 v 31.863 h 37.805 v -7.8663 h -13.647 v -3.9695 h 13.647 v -7.922 h -13.647 v -3.9683 h 13.647 v -8.1375 z m 40.302,0 v 8.4231 h 6.1177 v 23.44 h 25.569 v -23.44 h 6.1177 V 56.415 Z"
       style="paint-order:normal;fill:#373e48"
       id="path12" />
  </g>
</svg>
