<?xml version="1.0" encoding="UTF-8" standalone="no"?>
<svg
   version="1.1"
   viewBox="0 0 62 62"
   id="svg12"
   sodipodi:docname="unix-privesc-check-logo.svg"
   width="62"
   height="62"
   inkscape:version="1.4.2 (unknown)"
   xmlns:inkscape="http://www.inkscape.org/namespaces/inkscape"
   xmlns:sodipodi="http://sodipodi.sourceforge.net/DTD/sodipodi-0.dtd"
   xmlns:xlink="http://www.w3.org/1999/xlink"
   xmlns="http://www.w3.org/2000/svg"
   xmlns:svg="http://www.w3.org/2000/svg">
  <sodipodi:namedview
     id="namedview12"
     pagecolor="#ffffff"
     bordercolor="#000000"
     borderopacity="0.25"
     inkscape:showpageshadow="2"
     inkscape:pageopacity="0.0"
     inkscape:pagecheckerboard="0"
     inkscape:deskcolor="#d1d1d1"
     inkscape:zoom="6.0546875"
     inkscape:cx="42.363871"
     inkscape:cy="27.499355"
     inkscape:window-width="1920"
     inkscape:window-height="998"
     inkscape:window-x="0"
     inkscape:window-y="0"
     inkscape:window-maximized="1"
     inkscape:current-layer="svg12" />
  <defs
     id="defs2">
    <linearGradient
       id="linearGradient13"
       inkscape:collect="always">
      <stop
         style="stop-color:#fea44c;stop-opacity:1;"
         offset="0"
         id="stop13" />
      <stop
         style="stop-color:#000000;stop-opacity:0;"
         offset="1"
         id="stop14" />
    </linearGradient>
    <linearGradient
       id="a">
      <stop
         stop-color="#fea44c"
         offset="0"
         id="stop1" />
      <stop
         stop-color="#a16b3d"
         offset="1"
         id="stop2" />
    </linearGradient>
    <radialGradient
       id="c"
       cx="-15.911"
       cy="479.41"
       r="161.88"
       gradientTransform="matrix(2.5729,0,0,2.2473,291.96,-935.87)"
       gradientUnits="userSpaceOnUse"
       xlink:href="#a" />
    <radialGradient
       id="b"
       cx="-15.911"
       cy="479.41"
       r="161.88"
       gradientTransform="matrix(2.5729,0,0,2.2473,291.96,-935.87)"
       gradientUnits="userSpaceOnUse"
       xlink:href="#a" />
    <radialGradient
       inkscape:collect="always"
       xlink:href="#linearGradient13"
       id="radialGradient14"
       cx="259.75455"
       cy="71.108589"
       fx="259.75455"
       fy="71.108589"
       r="234.99923"
       gradientTransform="matrix(1,0,0,0.87344951,0,32.396741)"
       gradientUnits="userSpaceOnUse" />
  </defs>
  <g
     id="g13"
     transform="matrix(0.13191349,0,0,0.13397645,-2.7700778,-3.2977753)">
    <path
       d="m 272.03,50.743 c -3.4193,-0.0087 -7.2092,-0.0044 -11.447,0.01161 -32.429,0.11741 -39.928,0.72896 -53.232,4.3425 -25.989,7.0587 -46.414,18.284 -61.939,34.034 -16.042,16.275 -23.563,30.51 -27.708,52.459 l -2.9318,15.539 -16.114,-0.0369 a 67.232,67.211 0 0 0 -10.429,-0.8957 67.232,67.211 0 0 0 -67.23,67.21 67.232,67.211 0 0 0 62.875,66.994 c 0.56967,0.0942 1.1467,0.20037 1.6984,0.26928 l 10.865,1.3549 -1.3723,10.882 c -0.75428,5.9837 -1.3321,18.716 -1.2844,28.294 0.32832,66.058 55.812,118.54 135.94,128.58 36.839,4.6179 83.358,-1.8791 110.37,-15.414 56.078,-28.101 91.17,-84.839 83.395,-134.83 -1.24,-7.9728 -1.8375,-15.168 -1.3298,-15.99 0.50771,-0.82121 5.9513,-2.4888 12.099,-3.7076 0.30147,-0.0598 0.59666,-0.12961 0.896,-0.19275 a 67.232,67.211 0 0 0 0.49335,-0.10768 c 0.48842,-0.10653 0.97759,-0.21332 1.4602,-0.3288 a 67.232,67.211 0 0 0 53.893,-65.804 67.232,67.211 0 0 0 -67.233,-67.21 67.232,67.211 0 0 0 -8.5771,0.63209 c -11.697,-0.26544 -12.542,-0.89009 -13.655,-4.813 -10.913,-38.444 -19.842,-55.388 -37.172,-70.543 -12.689,-11.097 -31.308,-20.803 -50.638,-26.398 -12.1,-3.5022 -17.76,-4.2744 -41.695,-4.3312 z"
       fill="url(#b)"
       stroke-width="1.9353"
       id="path2"
       style="fill:url(#b)" />
    <path
       d="m 272.03,50.743 c -3.4193,-0.0087 -7.2092,-0.0044 -11.447,0.01161 -32.429,0.11741 -39.928,0.72896 -53.232,4.3425 -25.989,7.0587 -46.414,18.284 -61.939,34.034 -16.042,16.275 -23.563,30.51 -27.708,52.459 l -2.9318,15.539 -16.114,-0.0369 a 67.232,67.211 0 0 0 -10.429,-0.89565 67.232,67.211 0 0 0 -67.23,67.21 67.232,67.211 0 0 0 62.875,66.994 c 0.56967,0.0942 1.1467,0.20037 1.6984,0.26928 l 10.865,1.3549 -1.3723,10.882 c -0.75428,5.9837 -1.3321,18.716 -1.2844,28.294 0.32832,66.058 55.812,118.54 135.94,128.58 36.839,4.6179 83.358,-1.8791 110.37,-15.414 56.078,-28.101 91.17,-84.839 83.395,-134.83 -1.24,-7.9728 -1.8375,-15.168 -1.3298,-15.99 0.5077,-0.822 5.9513,-2.4888 12.099,-3.7076 0.30147,-0.0598 0.59666,-0.12959 0.896,-0.19273 a 67.232,67.211 0 0 0 0.49335,-0.1077 c 0.48842,-0.10651 0.97759,-0.2133 1.4602,-0.3288 a 67.232,67.211 0 0 0 53.893,-65.804 67.232,67.211 0 0 0 -67.233,-67.21 67.232,67.211 0 0 0 -8.5771,0.63208 c -11.697,-0.26543 -12.542,-0.89007 -13.655,-4.813 -10.913,-38.444 -19.842,-55.388 -37.172,-70.543 -12.689,-11.097 -31.308,-20.803 -50.638,-26.398 -12.1,-3.5022 -17.76,-4.2744 -41.695,-4.3312 z"
       stroke-width="1.9353"
       id="path3"
       style="fill:url(#radialGradient14)" />
    <g
       fill="#ffffff"
       id="g5">
      <path
         d="m 302.28,418.62 c 33.183,-5.3178 62.526,-26.69 82.099,-53.442 16.432,-23.897 24.56,-56.335 12.288,-83.721 -7.893,-16.62 -26.422,-22.801 -42.071,-29.68 -4.2054,-13.194 5.9091,-29.553 5.035,-44.286 1.2695,-21.079 -2.758,-44.861 -18.357,-60.212 -14.699,-12.197 -35.748,-9.721 -53.085,-5.7934 -12.534,3.2387 -21.871,12.473 -30.83,21.245 -8.7746,-11.598 -20.532,-21.457 -35.471,-23.472 -19.236,-3.6204 -43.674,-4.7053 -56.531,13.07 -12.981,17.676 -10.27,41.239 -8.6695,61.802 -1.9019,12.921 17.468,35.396 -1.373,39.967 -15.701,6.4147 -27.985,19.949 -36.679,34.246 -13.54,30.017 -3.0399,66.268 17.515,90.509 22.588,24.465 55.182,40.219 88.661,40.778 18.957,3.0537 38.563,0.29843 57.757,0.24776 6.5753,-0.31424 13.162,-0.55888 19.711,-1.2582 z"
         opacity="0.5"
         stroke-width="1.9353"
         id="path4" />
      <ellipse
         cx="200.91"
         cy="186.69"
         rx="8.4040003"
         ry="8.4013996"
         opacity="0.3"
         style="paint-order:stroke fill markers"
         id="ellipse4" />
      <ellipse
         cx="284.34"
         cy="188.23"
         rx="8.4040003"
         ry="8.4013996"
         opacity="0.3"
         style="paint-order:stroke fill markers"
         id="ellipse5" />
    </g>
    <path
       d="m 168.63,320.14 c -6.2596,-1.817 -13.885,-8.7145 -11.866,-10.733 0.64884,-0.64866 3.9673,-0.20794 7.3743,0.97939 4.1936,1.4614 33.632,2.1588 91.136,2.1588 71.452,0 86.055,-0.46498 91.951,-2.928 3.8554,-1.6104 7.4295,-2.5083 7.9426,-1.9954 2.3554,2.3547 -6.0808,10.736 -12.639,12.557 -8.9999,2.4986 -165.28,2.464 -173.9,-0.0385 z m 47.581,-71.909 c 0,-7.365 15.365,-12.433 20.905,-6.8953 3.7165,3.7153 2.786,4.9035 -4.9359,6.3024 -3.9923,0.72326 -9.2185,1.7853 -11.614,2.3602 -2.9984,0.71956 -4.3552,0.16893 -4.3552,-1.7672 z m 63.876,0.0575 c -10.542,-2.3247 -10.877,-2.597 -7.7814,-6.3256 5.2455,-6.3185 21.331,-1.4965 21.331,6.3945 0,2.594 -1.5088,2.5864 -13.549,-0.069 z m -76.458,-30.871 c -6.7047,-3.686 -10.558,-10.079 -10.603,-17.588 -0.0373,-6.2943 0.5472,-7.2564 4.4089,-7.2564 5.6727,0 9.0975,-3.4238 9.0975,-9.0947 0,-3.8605 0.96235,-4.4449 7.2586,-4.4076 11.568,0.0686 19.84,8.9528 19.84,21.309 0,8.742 -10.795,19.306 -19.647,19.225 -3.5664,-0.0324 -8.2265,-1.0166 -10.356,-2.1871 z m 83.232,0 c -6.7047,-3.686 -10.558,-10.079 -10.603,-17.588 -0.0373,-6.2943 0.5472,-7.2564 4.4089,-7.2564 5.6727,0 9.0975,-3.4238 9.0975,-9.0947 0,-3.8605 0.96237,-4.4449 7.2586,-4.4076 11.568,0.0686 19.84,8.9528 19.84,21.309 0,8.742 -10.795,19.306 -19.647,19.225 -3.5664,-0.0324 -8.2264,-1.0166 -10.356,-2.1871 z"
       stroke-width="1.9353"
       id="path5" />
    <g
       id="g12">
      <ellipse
         cx="257.57999"
         cy="233.02"
         rx="44.445999"
         ry="29.732"
         fill="#cd5c81"
         opacity="0.15"
         style="paint-order:stroke fill markers"
         id="ellipse6" />
      <path
         d="m 255.28,382.73 a 54.041,37.844 0 0 0 -53.771,34.074 c 7.6415,1.721 15.448,2.6978 23.304,2.8289 18.957,3.0537 38.564,0.29728 57.757,0.24661 6.5753,-0.31423 13.16,-0.55917 19.709,-1.2585 2.287,-0.3665 4.5536,-0.81671 6.8021,-1.3322 a 54.041,37.844 0 0 0 -53.802,-34.559 z"
         fill="#a16b3d"
         opacity="0.3"
         style="paint-order:stroke fill markers"
         id="path6" />
      <g
         stroke-width="1.9353"
         id="g9">
        <path
           d="m 21.238,218.07 a 67.232,67.211 0 0 0 -0.23828,5.3359 67.232,67.211 0 0 0 62.875,66.994 c 0.56968,0.0942 1.1475,0.20062 1.6992,0.26953 l 9.623,1.2012 1.2422,-9.8457 -10.865,-1.3555 c -0.55167,-0.0689 -1.1295,-0.17533 -1.6992,-0.26953 a 67.232,67.211 0 0 1 -62.637,-62.33 z m 469.52,0.59375 a 67.232,67.211 0 0 1 -53.654,60.545 c -0.48265,0.1155 -0.97252,0.22357 -1.4609,0.33008 a 67.232,67.211 0 0 1 -0.49218,0.10742 c -0.29934,0.0631 -0.59502,0.13356 -0.89649,0.19336 -6.1474,1.2187 -11.592,2.8858 -12.1,3.707 -0.36499,0.59037 -0.14063,4.5293 0.46485,9.6289 1.5118,-0.88729 6.3031,-2.2789 11.635,-3.3359 0.3014,-0.0598 0.59709,-0.13022 0.89649,-0.19336 a 67.232,67.211 0 0 0 0.49218,-0.10742 c 0.4884,-0.10651 0.97834,-0.21458 1.4609,-0.33008 a 67.232,67.211 0 0 0 53.893,-65.803 67.232,67.211 0 0 0 -0.23828,-4.7422 z m -66.332,99.996 c -2.3317,44.697 -35.315,91.144 -84.336,115.71 -27.01,13.535 -73.528,20.032 -110.37,15.414 -78.827,-9.8812 -133.8,-60.827 -135.88,-125.37 -0.0467,2.3421 -0.07313,4.6472 -0.0625,6.7852 0.32832,66.058 55.814,118.54 135.95,128.58 36.839,4.6179 83.357,-1.879 110.37,-15.414 52.691,-26.404 86.851,-78.09 84.336,-125.71 z"
           opacity="0.3"
           id="path7" />
        <path
           d="m 272.03,50.744 c -3.4193,-0.009 -7.208,-0.0058 -11.445,0.0098 -32.429,0.11741 -39.928,0.73021 -53.232,4.3438 -25.989,7.0587 -46.414,18.283 -61.939,34.033 -16.042,16.275 -23.562,30.51 -27.707,52.45899 l -2.9316,15.539 -16.115,-0.0371 a 67.232,67.211 0 0 0 -10.428,-0.89453 67.232,67.211 0 0 0 -67.23,67.209 67.232,67.211 0 0 0 0.23828,4.6641 67.232,67.211 0 0 1 66.992,-61.873 67.232,67.211 0 0 1 10.428,0.89453 l 16.115,0.0371 2.9316,-15.539 c 4.145,-21.949 11.665,-36.18398 27.707,-52.45899 15.526,-15.75 35.951,-26.974 61.939,-34.033 13.304,-3.6135 20.803,-4.2263 53.232,-4.3438 4.2373,-0.0156 8.026,-0.01876 11.445,-0.0098 23.935,0.05674 29.595,0.82786 41.695,4.3301 19.33,5.5947 37.947,15.301 50.637,26.398 17.33,15.155 26.261,32.099 37.174,70.543 1.1136,3.923 1.9568,4.5471 13.654,4.8125 a 67.232,67.211 0 0 1 8.5781,-0.63085 67.232,67.211 0 0 1 66.994,62.467 67.232,67.211 0 0 0 0.23828,-5.2578 67.232,67.211 0 0 0 -67.232,-67.209 67.232,67.211 0 0 0 -8.5781,0.63085 c -11.697,-0.26543 -12.541,-0.88954 -13.654,-4.8125 -10.913,-38.444 -19.844,-55.388 -37.174,-70.543 -12.689,-11.097 -31.307,-20.804 -50.637,-26.398 -12.1,-3.5022 -17.76,-4.2733 -41.695,-4.3301 z m -176.83,251.13 -0.13086,1.0352 c -0.75427,5.9837 -1.3328,18.716 -1.2852,28.295 0.0053,1.0756 0.02804,2.1466 0.0625,3.2148 0.16251,-8.1508 0.63674,-16.862 1.2227,-21.51 l 1.373,-10.881 -1.2422,-0.1543 z m 327.43,1.3047 c -0.23132,0.13576 -0.39747,0.26212 -0.46485,0.3711 -0.50771,0.82121 0.0901,8.0174 1.3301,15.99 0.46953,3.0192 0.77974,6.0625 0.94141,9.123 0.33565,-6.4343 0.037,-12.832 -0.94141,-19.123 -0.34855,-2.2412 -0.62848,-4.3673 -0.86523,-6.3613 z"
           fill="#ffffff"
           opacity="0.2"
           id="path8" />
        <path
           d="m 117.96,140.34 c -0.083,0.42008 -0.17349,0.82419 -0.2539,1.25 l -2.9316,15.539 -16.115,-0.0371 a 67.232,67.211 0 0 0 -10.428,-0.89453 67.232,67.211 0 0 0 -67.23,67.209 67.232,67.211 0 0 0 62.875,66.994 c 0.56967,0.0942 1.1475,0.20062 1.6992,0.26953 l 10.865,1.3555 -1.373,10.881 c -0.75428,5.9837 -1.3328,18.716 -1.2852,28.295 0.09103,18.315 4.4294,35.581 12.35,51.193 -8.6476,-18.214 -12.55,-38.724 -11.164,-60.51 1.6125,-25.339 7.3083,-41.031 20.275,-55.85 10.033,-11.465 10.325,-12.149 9.0137,-21.225 -7.1624,-49.589 -9.2217,-83.049 -6.2969,-104.47 z m 281.43,4.3125 c 0.008,0.0391 0.016,0.078 0.0234,0.11719 4.8991,25.605 3.9264,45.402 -4.4785,91.219 l -3.4941,19.045 8.4668,8.6875 c 15.351,15.75 22.976,36.145 23.068,61.701 0.0668,18.615 -2.7706,29.633 -13.324,51.754 -1.8483,3.8742 -3.8657,7.6188 -6.0176,11.258 16.25,-24.772 23.923,-52.753 19.857,-78.896 -1.24,-7.9728 -1.8378,-15.169 -1.3301,-15.99 0.50771,-0.82122 5.9522,-2.4883 12.1,-3.707 0.30147,-0.0598 0.59715,-0.13022 0.89649,-0.19336 a 67.232,67.211 0 0 0 0.49218,-0.10742 c 0.48842,-0.10651 0.97829,-0.21458 1.4609,-0.33008 a 67.232,67.211 0 0 0 53.893,-65.803 67.232,67.211 0 0 0 -67.232,-67.209 67.232,67.211 0 0 0 -8.5781,0.63085 c -11.697,-0.26543 -12.541,-0.88955 -13.654,-4.8125 -0.72437,-2.5517 -1.4385,-4.9952 -2.1484,-7.3633 z"
           fill="#a16b3d"
           id="path9" />
      </g>
      <path
         d="m 96.482,182.67 a 42.881,42.881 0 0 0 -42.881,42.881 42.881,42.881 0 0 0 42.881,42.881 42.881,42.881 0 0 0 21.992,-6.1289 c 6.8371,-8.0162 6.9327,-9.5239 5.7812,-17.496 -3.1511,-21.817 -5.3123,-40.505 -6.498,-56.426 a 42.881,42.881 0 0 0 -21.275,-5.7109 z m 319.04,1.7148 a 42.881,42.881 0 0 0 -13.598,2.2539 c -0.8942,13.07 -3.1646,28.502 -6.9883,49.346 l -3.4941,19.045 8.4668,8.6875 c 1.554,1.5945 3.024,3.2394 4.4199,4.9297 a 42.881,42.881 0 0 0 11.193,1.5 42.881,42.881 0 0 0 42.881,-42.881 42.881,42.881 0 0 0 -42.881,-42.881 z"
         fill="#fea44c"
         opacity="0.3"
         style="paint-order:stroke fill markers"
         id="path10" />
      <path
         d="m 117.96,140.34 c -0.083,0.42008 -0.17349,0.82419 -0.2539,1.25 l -2.9316,15.539 -16.115,-0.0371 a 67.232,67.211 0 0 0 -10.428,-0.89453 67.232,67.211 0 0 0 -67.23,67.209 67.232,67.211 0 0 0 0.125,2.4492 67.232,67.211 0 0 1 67.105,-63.658 67.232,67.211 0 0 1 10.428,0.89453 l 16.115,0.0371 2.1797,-11.559 c 0.21241,-4.0492 0.53902,-7.8113 1.0059,-11.23 z m 281.43,4.3125 c 0.008,0.0391 0.0159,0.078 0.0234,0.11719 0.83252,4.3511 1.481,8.5332 1.9668,12.705 0.0531,0.18636 0.10497,0.3535 0.15821,0.54101 1.1136,3.923 1.9568,4.5471 13.654,4.8125 a 67.232,67.211 0 0 1 8.5781,-0.63085 67.232,67.211 0 0 1 67.107,64.693 67.232,67.211 0 0 0 0.125,-3.4844 67.232,67.211 0 0 0 -67.232,-67.209 67.232,67.211 0 0 0 -8.5781,0.63085 c -11.697,-0.26543 -12.541,-0.88955 -13.654,-4.8125 -0.72437,-2.5517 -1.4385,-4.9952 -2.1484,-7.3633 z m -282.69,20.488 c -0.28078,20.733 2.2195,48.718 7.5566,85.67 0.11156,0.77238 0.19011,1.4116 0.27344,2.0742 0.50471,-2.1676 0.24975,-4.452 -0.27344,-8.0742 -4.8398,-33.508 -7.3403,-59.628 -7.5566,-79.67 z m 285.63,12.66 c -0.31013,14.951 -2.6842,32.468 -7.4023,58.188 l -3.4941,19.045 0.92578,0.95118 2.5684,-13.996 c 5.3637,-29.238 7.6866,-47.87 7.4023,-64.188 z m -306.64,120.13 -0.62695,4.9746 c -0.75428,5.9837 -1.3328,18.716 -1.2852,28.295 0.0022,0.44166 0.01826,0.87988 0.02539,1.3203 0.11522,-8.7134 0.62295,-18.563 1.2598,-23.615 l 1.373,-10.881 -0.74609,-0.0937 z m 326.54,1.5352 c -0.0245,0.0266 -0.0587,0.055 -0.0742,0.0801 -0.50771,0.82121 0.0901,8.0174 1.3301,15.99 0.57309,3.6851 0.90405,7.4084 1.0195,11.152 0.18568,-5.7693 -0.14107,-11.504 -1.0195,-17.152 -0.58179,-3.7409 -1.0047,-7.2497 -1.2559,-10.07 z m 0.69727,30.02 c -0.36701,16.258 -3.5207,27.231 -13.281,47.689 -1.8483,3.8742 -3.8657,7.6188 -6.0176,11.258 9.2007,-14.026 15.65,-29.081 18.777,-44.248 0.41657,-3.977 0.58107,-8.1346 0.56446,-12.764 -0.002,-0.65355 -0.0307,-1.2888 -0.043,-1.9356 z m -328.19,4.1504 c -0.1172,5.5625 0.11385,11.034 0.68555,16.396 1.9395,11.373 5.5615,22.219 10.707,32.361 -7.0749,-14.902 -10.968,-31.341 -11.393,-48.758 z"
         fill="#ffffff"
         opacity="0.1"
         stroke-width="1.9353"
         id="path11" />
      <path
         d="m 117.96,140.34 c -0.083,0.42008 -0.17349,0.82419 -0.2539,1.25 l -0.75196,3.9805 c -0.21912,4.1774 -0.30662,8.6865 -0.2539,13.57 0.096,-7.0904 0.5144,-13.342 1.2598,-18.801 z m 281.43,4.3125 c 0.008,0.0391 0.0159,0.078 0.0234,0.11719 1.7727,9.265 2.7626,17.779 2.9238,27.031 0.14846,-7.1569 -0.18892,-13.729 -0.95703,-20.326 -0.66977,-2.3496 -1.3325,-4.6283 -1.9902,-6.8223 z m -378.26,75.203 a 67.232,67.211 0 0 0 -0.125,3.5508 67.232,67.211 0 0 0 62.875,66.994 c 0.56967,0.0942 1.1475,0.20062 1.6992,0.26953 l 10.119,1.2617 0.74609,-5.9062 -10.865,-1.3555 c -0.55167,-0.0689 -1.1295,-0.17533 -1.6992,-0.26953 a 67.232,67.211 0 0 1 -62.75,-64.545 z m 469.75,1.0352 a 67.232,67.211 0 0 1 -53.768,62.318 c -0.48265,0.1155 -0.97252,0.22357 -1.4609,0.33008 a 67.232,67.211 0 0 1 -0.49218,0.10742 c -0.29934,0.0631 -0.59502,0.13356 -0.89649,0.19336 -6.1474,1.2187 -11.592,2.8858 -12.1,3.707 -0.26949,0.43589 -0.20995,2.729 0.0742,5.9199 0.78019,-0.84502 6.0654,-2.4454 12.025,-3.627 0.30147,-0.0598 0.59715,-0.13022 0.89649,-0.19336 a 67.232,67.211 0 0 0 0.49218,-0.10742 c 0.48842,-0.10651 0.97829,-0.21458 1.4609,-0.33008 a 67.232,67.211 0 0 0 53.893,-65.803 67.232,67.211 0 0 0 -0.125,-2.5156 z m -366.35,25.994 c -0.75991,3.2636 -3.2584,6.261 -9.2871,13.15 -12.967,14.818 -18.663,30.51 -20.275,55.85 -0.25213,3.962 -0.32298,7.8804 -0.22852,11.752 0.0402,-1.9081 0.10577,-3.8232 0.22852,-5.752 1.6125,-25.339 7.3083,-41.031 20.275,-55.85 9.1791,-10.489 10.183,-12.027 9.2871,-19.15 z m 267.83,3.0996 -0.92578,5.0488 8.4668,8.6875 c 14.958,15.348 22.56,35.12 23.025,59.766 0.0298,-1.3209 0.048,-2.6657 0.043,-4.0644 -0.0925,-25.556 -7.7177,-45.951 -23.068,-61.701 l -7.541,-7.7363 z m 32.145,70.705 c -0.18711,5.8141 -0.89681,11.663 -2.0996,17.496 -1.2586,12.016 -4.8305,22.37 -12.76,38.99 -1.8483,3.8742 -3.8657,7.6188 -6.0176,11.258 13.96,-21.281 21.581,-44.927 20.877,-67.744 z m -330.7,5.832 c -0.02126,1.6073 -0.03281,3.188 -0.02539,4.6797 0.091,18.315 4.4294,35.581 12.35,51.193 -5.65,-11.9 -9.2598,-24.785 -10.707,-38.361 -0.97384,-5.7106 -1.5208,-11.554 -1.6172,-17.512 z"
         opacity="0.3"
         stroke-width="1.9353"
         id="path12" />
    </g>
  </g>
</svg>
