<?xml version="1.0" encoding="UTF-8" standalone="no"?>
<svg
   height="62"
   width="62"
   version="1.1"
   id="svg19"
   sodipodi:docname="kfouleggs.svg"
   inkscape:version="1.4.1 (unknown)"
   xmlns:inkscape="http://www.inkscape.org/namespaces/inkscape"
   xmlns:sodipodi="http://sodipodi.sourceforge.net/DTD/sodipodi-0.dtd"
   xmlns="http://www.w3.org/2000/svg"
   xmlns:svg="http://www.w3.org/2000/svg">
  <defs
     id="defs19" />
  <sodipodi:namedview
     id="namedview19"
     pagecolor="#ffffff"
     bordercolor="#000000"
     borderopacity="0.25"
     inkscape:showpageshadow="2"
     inkscape:pageopacity="0.0"
     inkscape:pagecheckerboard="0"
     inkscape:deskcolor="#d1d1d1"
     inkscape:zoom="8"
     inkscape:cx="38.125"
     inkscape:cy="37.25"
     inkscape:window-width="1920"
     inkscape:window-height="996"
     inkscape:window-x="0"
     inkscape:window-y="0"
     inkscape:window-maximized="1"
     inkscape:current-layer="svg19" />
  <g
     id="g19"
     transform="matrix(0.98611111,0,0,0.98245614,-0.55555552,-0.92982455)">
    <path
       style="opacity:0.2"
       d="m 19,10 v 6 h 20 v 19 h 6 V 10 Z"
       id="path1" />
    <path
       style="opacity:0.2"
       d="M 19,31 V 56 H 45 V 50 H 25 V 31 Z"
       id="path2" />
    <path
       style="fill:#7137c8"
       d="m 19,9 v 6 h 20 v 19 h 6 V 9 Z"
       id="path3" />
    <circle
       r="8"
       style="opacity:0.2"
       cx="22"
       cy="13"
       id="circle3" />
    <path
       style="opacity:0.1;fill:#ffffff"
       d="m 19,9 v 1 H 45 V 9 Z"
       id="path4" />
    <circle
       r="8"
       style="opacity:0.2"
       cx="42"
       cy="13"
       id="circle4" />
    <path
       style="fill:#2ca05a"
       d="M 19,30 V 55 H 45 V 49 H 25 V 30 Z"
       id="path5" />
    <circle
       r="8"
       style="opacity:0.2"
       cx="22"
       cy="33"
       id="circle5" />
    <path
       style="opacity:0.1;fill:#ffffff"
       d="m 19,30 v 1 h 6 v -1 z m 6,19 v 1 h 20 v -1 z"
       id="path6" />
    <circle
       r="8"
       style="opacity:0.2"
       cx="42"
       cy="33"
       id="circle6" />
    <circle
       r="8"
       style="fill:#8d5fd3"
       cx="22"
       cy="12"
       id="circle7" />
    <circle
       r="8"
       style="opacity:0.2"
       cx="22"
       cy="53"
       id="circle8" />
    <circle
       r="8"
       style="fill:#8d5fd3"
       cx="42"
       cy="12"
       id="circle9" />
    <circle
       r="8"
       style="opacity:0.2"
       cx="42"
       cy="53"
       id="circle10" />
    <circle
       r="8"
       style="fill:#37c871"
       cx="22"
       cy="32"
       id="circle11" />
    <circle
       r="8"
       style="fill:#8d5fd3"
       cx="42"
       cy="32"
       id="circle12" />
    <circle
       r="8"
       style="fill:#37c871"
       cx="22"
       cy="52"
       id="circle13" />
    <circle
       r="8"
       style="fill:#37c871"
       cx="42"
       cy="52"
       id="circle14" />
    <path
       style="opacity:0.2;fill:#ffffff"
       d="m 22,4 a 8,8 0 0 0 -8,8 8,8 0 0 0 0.02148,0.576172 A 8,8 0 0 1 22,5 8,8 0 0 1 29.978516,12.423828 8,8 0 0 0 30,12 8,8 0 0 0 22,4 Z"
       id="path14" />
    <path
       style="opacity:0.2;fill:#ffffff"
       d="m 42,4 a 8,8 0 0 0 -8,8 8,8 0 0 0 0.02148,0.576172 A 8,8 0 0 1 42,5 8,8 0 0 1 49.978516,12.423828 8,8 0 0 0 50,12 8,8 0 0 0 42,4 Z"
       id="path15" />
    <path
       style="opacity:0.2;fill:#ffffff"
       d="m 22,24 a 8,8 0 0 0 -8,8 8,8 0 0 0 0.02148,0.576172 A 8,8 0 0 1 22,25 8,8 0 0 1 29.978516,32.423828 8,8 0 0 0 30,32 8,8 0 0 0 22,24 Z"
       id="path16" />
    <path
       style="opacity:0.2;fill:#ffffff"
       d="m 42,24 a 8,8 0 0 0 -8,8 8,8 0 0 0 0.02148,0.576172 A 8,8 0 0 1 42,25 8,8 0 0 1 49.978516,32.423828 8,8 0 0 0 50,32 8,8 0 0 0 42,24 Z"
       id="path17" />
    <path
       style="opacity:0.2;fill:#ffffff"
       d="m 22,44 a 8,8 0 0 0 -8,8 8,8 0 0 0 0.02148,0.576172 A 8,8 0 0 1 22,45 8,8 0 0 1 29.978516,52.423828 8,8 0 0 0 30,52 8,8 0 0 0 22,44 Z"
       id="path18" />
    <path
       style="opacity:0.2;fill:#ffffff"
       d="m 42,44 a 8,8 0 0 0 -8,8 8,8 0 0 0 0.02148,0.576172 A 8,8 0 0 1 42,45 8,8 0 0 1 49.978516,52.423828 8,8 0 0 0 50,52 8,8 0 0 0 42,44 Z"
       id="path19" />
  </g>
</svg>
