<?xml version="1.0" encoding="UTF-8" standalone="no"?>
<svg
   width="62"
   height="62"
   version="1.1"
   id="svg29"
   sodipodi:docname="kgoldrunner.svg"
   inkscape:version="1.4 (unknown)"
   xmlns:inkscape="http://www.inkscape.org/namespaces/inkscape"
   xmlns:sodipodi="http://sodipodi.sourceforge.net/DTD/sodipodi-0.dtd"
   xmlns:xlink="http://www.w3.org/1999/xlink"
   xmlns="http://www.w3.org/2000/svg"
   xmlns:svg="http://www.w3.org/2000/svg">
  <defs
     id="defs29">
    <linearGradient
       id="linearGradient29"
       inkscape:collect="always">
      <stop
         style="stop-color:#2d3c52;stop-opacity:1;"
         offset="0"
         id="stop29" />
      <stop
         style="stop-color:#00ccff;stop-opacity:1"
         offset="1"
         id="stop30" />
    </linearGradient>
    <linearGradient
       inkscape:collect="always"
       xlink:href="#linearGradient29"
       id="linearGradient30"
       x1="29.198713"
       y1="85.766464"
       x2="30.193521"
       y2="5"
       gradientUnits="userSpaceOnUse"
       gradientTransform="matrix(0.98214286,0,0,0.98245614,-0.42857152,-0.92982455)" />
    <linearGradient
       id="paint1_linear_11_148"
       x1="12.6932"
       y1="20.5312"
       x2="12.6932"
       y2="5.6079102"
       gradientUnits="userSpaceOnUse"
       gradientTransform="matrix(2.6803705,0,0,2.6803705,-3.022395,-3.5399929)">
      <stop
         stop-color="#FD5900"
         id="stop4" />
      <stop
         offset="1"
         stop-color="#FFDE00"
         id="stop5" />
    </linearGradient>
    <filter
       id="b"
       width="1.299904"
       height="1.2883692"
       x="-0.149952"
       y="-0.14418462"
       color-interpolation-filters="sRGB">
      <feGaussianBlur
         stdDeviation="1.562"
         id="feGaussianBlur22" />
    </filter>
    <linearGradient
       id="c-3"
       x1="19.570999"
       x2="43.064999"
       y1="34.216999"
       y2="34.216999"
       gradientUnits="userSpaceOnUse">
      <stop
         offset="0"
         stop-color="#e9be35"
         id="stop7-6" />
      <stop
         offset="1"
         stop-color="#cc7533"
         id="stop9" />
    </linearGradient>
    <filter
       id="d-7"
       width="1.2307799"
       height="1.6013072"
       x="-0.11538997"
       y="-0.30065359"
       color-interpolation-filters="sRGB">
      <feGaussianBlur
         stdDeviation="1.035"
         id="feGaussianBlur25" />
    </filter>
    <linearGradient
       id="e-5"
       x1="18.070999"
       x2="21.070999"
       y1="24.716999"
       y2="24.716999"
       gradientUnits="userSpaceOnUse">
      <stop
         offset="0"
         stop-color="#ffc086"
         id="stop17" />
      <stop
         offset="1"
         stop-color="#ffd59c"
         id="stop19" />
    </linearGradient>
    <linearGradient
       id="f-3"
       x1="25.070999"
       x2="43.070999"
       y1="25.216999"
       y2="25.216999"
       gradientUnits="userSpaceOnUse">
      <stop
         offset="0"
         stop-color="#fdfa21"
         id="stop12" />
      <stop
         offset="1"
         stop-color="#fdbe21"
         id="stop14" />
    </linearGradient>
    <filter
       id="g-5"
       width="2.6559999"
       height="2.242"
       x="-0.82799997"
       y="-0.62099998"
       color-interpolation-filters="sRGB">
      <feGaussianBlur
         stdDeviation="1.035"
         id="feGaussianBlur28" />
    </filter>
  </defs>
  <sodipodi:namedview
     id="namedview29"
     pagecolor="#ffffff"
     bordercolor="#000000"
     borderopacity="0.25"
     inkscape:showpageshadow="2"
     inkscape:pageopacity="0.0"
     inkscape:pagecheckerboard="0"
     inkscape:deskcolor="#d1d1d1"
     inkscape:zoom="7.0710678"
     inkscape:cx="20.293965"
     inkscape:cy="37.54737"
     inkscape:window-width="1920"
     inkscape:window-height="998"
     inkscape:window-x="0"
     inkscape:window-y="0"
     inkscape:window-maximized="1"
     inkscape:current-layer="svg29" />
  <rect
     style="opacity:0.2;stroke-width:0.9823"
     width="55"
     height="55.017544"
     x="3.5"
     y="3.9824562"
     ry="13.754386"
     id="rect1" />
  <rect
     style="fill:url(#linearGradient30);stroke-width:0.9823"
     width="55"
     height="55.017544"
     x="3.5"
     y="3"
     ry="13.754386"
     id="rect2" />
  <path
     style="opacity:0.1;fill:#ffffff;stroke-width:0.9823"
     d="M 17.25,3 C 9.6324999,3 3.4999999,9.1344561 3.4999999,16.754386 v 0.982456 c 0,-7.61993 6.1325,-13.7543858 13.7500001,-13.7543858 h 27.5 c 7.6175,0 13.75,6.1344558 13.75,13.7543858 V 16.754386 C 58.5,9.1344561 52.3675,3 44.75,3 Z"
     id="path28" />
  <g
     id="g3"
     transform="matrix(1.375,0,0,1.375,2.984375,-78.042083)">
    <path
       fill="#742424"
       d="M 0.37499988,69.939687 H 4.3749999 v 2 H 0.37499988 Z"
       id="path3-3" />
    <path
       fill="#ad3131"
       d="m 12.375,69.939687 h 4 v 2 h -4 z"
       id="path4-6" />
    <rect
       fill="#742424"
       width="8"
       height="2"
       x="16.375"
       y="69.939682"
       id="rect4" />
    <rect
       fill="#ad3131"
       width="8"
       height="2"
       x="24.375"
       y="69.939682"
       id="rect5" />
    <rect
       fill="#742424"
       width="8"
       height="2"
       x="32.375"
       y="69.939682"
       id="rect6" />
    <path
       fill="#742424"
       d="M 0.37499988,67.939687 H 4.3749999 v 2 H 0.37499988 Z"
       id="path6-7" />
    <rect
       fill="#742424"
       width="8"
       height="2"
       x="12.375"
       y="67.939682"
       id="rect7" />
    <rect
       fill="#ad3131"
       width="8"
       height="2"
       x="20.375"
       y="67.939682"
       id="rect8" />
    <rect
       fill="#742424"
       width="8"
       height="2"
       x="28.375"
       y="67.939682"
       id="rect9" />
    <path
       fill="#ad3131"
       d="m 36.375,67.939687 h 4 v 2 h -4 z"
       id="path9" />
    <rect
       fill="#742424"
       width="8"
       height="2"
       x="-40.375"
       y="-88.93969"
       transform="scale(-1)"
       id="rect10" />
    <rect
       fill="#ad3131"
       width="8"
       height="2"
       x="-32.375"
       y="-88.93969"
       transform="scale(-1)"
       id="rect11" />
    <rect
       fill="#742424"
       width="8"
       height="2"
       x="-24.375"
       y="-88.93969"
       transform="scale(-1)"
       id="rect12" />
    <rect
       fill="#ad3131"
       width="8"
       height="2"
       x="-16.375"
       y="-88.93969"
       transform="scale(-1)"
       id="rect13" />
    <rect
       fill="#742424"
       width="8"
       height="2"
       x="-8.375"
       y="-88.93969"
       transform="scale(-1)"
       id="rect14" />
    <path
       fill="#742424"
       d="m 40.375,90.939687 h -4 v -2 h 4 z"
       id="path14" />
    <rect
       fill="#ad3131"
       width="8"
       height="2"
       x="-36.375"
       y="-90.93969"
       transform="scale(-1)"
       id="rect15" />
    <rect
       fill="#742424"
       width="8"
       height="2"
       x="-28.375"
       y="-90.93969"
       transform="scale(-1)"
       id="rect16" />
    <rect
       fill="#ad3131"
       width="8"
       height="2"
       x="-20.375"
       y="-90.93969"
       transform="scale(-1)"
       id="rect17" />
    <rect
       fill="#742424"
       width="8"
       height="2"
       x="-12.375"
       y="-90.93969"
       transform="scale(-1)"
       id="rect18" />
    <path
       fill="#ad3131"
       d="M 4.3749999,90.939687 H 0.37499988 v -2 H 4.3749999 Z"
       id="path18" />
    <rect
       fill="#ffffff"
       width="2"
       height="18"
       x="5.375"
       y="67.939682"
       id="rect19" />
    <rect
       fill="#ffffff"
       width="2"
       height="18"
       x="9.375"
       y="67.939682"
       id="rect20" />
    <rect
       fill="#ffffff"
       width="6"
       height="2"
       x="5.375"
       y="68.939682"
       id="rect21" />
    <rect
       fill="#ffffff"
       width="6"
       height="2"
       x="5.375"
       y="74.93969"
       id="rect22" />
    <rect
       fill="#ffffff"
       width="6"
       height="2"
       x="5.375"
       y="80.93969"
       id="rect23" />
    <path
       fill="#ffeb5d"
       d="m 28.37466,62.939697 0.445046,1.1563 1.158801,-0.36404 -0.603871,1.0778 0.999985,0.70234 -1.198091,0.18774 0.08814,1.2398 -0.890081,-0.84372 -0.890082,0.84372 0.08814,-1.2398 -1.198091,-0.18774 0.999985,-0.70234 -0.603871,-1.0778 1.158801,0.36404 z"
       id="path23"
       style="stroke-width:0.987385" />
  </g>
</svg>
