<?xml version="1.0" encoding="UTF-8" standalone="no"?>
<svg
   width="62"
   height="62"
   viewBox="0 0 16.404166 16.404167"
   version="1.1"
   id="svg1443"
   inkscape:version="1.4.1 (unknown)"
   sodipodi:docname="ktikz.svg"
   xmlns:inkscape="http://www.inkscape.org/namespaces/inkscape"
   xmlns:sodipodi="http://sodipodi.sourceforge.net/DTD/sodipodi-0.dtd"
   xmlns:xlink="http://www.w3.org/1999/xlink"
   xmlns="http://www.w3.org/2000/svg"
   xmlns:svg="http://www.w3.org/2000/svg"
   xmlns:rdf="http://www.w3.org/1999/02/22-rdf-syntax-ns#"
   xmlns:cc="http://creativecommons.org/ns#"
   xmlns:dc="http://purl.org/dc/elements/1.1/">
  <defs
     id="defs1437">
    <linearGradient
       gradientTransform="matrix(0.4711726,0,0,0.47114666,-53.953909,-18.000765)"
       gradientUnits="userSpaceOnUse"
       y2="70.679932"
       x2="132.21078"
       y1="42.151531"
       x1="132.21078"
       id="linearGradient1632"
       xlink:href="#linearGradient1630"
       inkscape:collect="always" />
    <linearGradient
       id="linearGradient1630"
       inkscape:collect="always">
      <stop
         id="stop1626"
         offset="0"
         style="stop-color:#fafafc;stop-opacity:1" />
      <stop
         id="stop1628"
         offset="1"
         style="stop-color:#e2e6ea;stop-opacity:1" />
    </linearGradient>
    <filter
       color-interpolation-filters="sRGB"
       height="1.1311001"
       width="1.1106"
       y="-0.065563001"
       x="-0.055319"
       id="c-9">
      <feGaussianBlur
         id="feGaussianBlur1093"
         stdDeviation="1.1062912" />
    </filter>
    <linearGradient
       gradientUnits="userSpaceOnUse"
       gradientTransform="matrix(0.13235,0,0,0.13075,-32.379,1.0873)"
       y2="269.48999"
       y1="235.14999"
       x2="657.65002"
       x1="319.20999"
       id="a-12">
      <stop
         id="stop1076"
         offset="0"
         stop-color="#e54c18" />
      <stop
         id="stop1078"
         offset="1"
         stop-color="#fec350" />
    </linearGradient>
    <linearGradient
       id="paint1_linear_8_721"
       x1="12.0001"
       y1="14.825"
       x2="12.0001"
       y2="8.7750196"
       gradientUnits="userSpaceOnUse"
       gradientTransform="matrix(0.58965537,0,0,0.59037149,1.1261742,1.2356487)">
      <stop
         stop-color="#02AA93"
         id="stop4" />
      <stop
         offset="1"
         stop-color="#67FF80"
         id="stop5" />
    </linearGradient>
    <linearGradient
       id="linear0"
       gradientUnits="userSpaceOnUse"
       x1="0"
       y1="0"
       x2="0"
       y2="1"
       gradientTransform="matrix(68.686472,0,0,43.89438,-2.487702,8.992595)">
      <stop
         offset="0"
         style="stop-color:#2478ff;stop-opacity:1;"
         id="stop1" />
      <stop
         offset="1"
         style="stop-color:#0049bf;stop-opacity:1;"
         id="stop2" />
    </linearGradient>
    <linearGradient
       id="linear0-3"
       gradientUnits="userSpaceOnUse"
       x1="0"
       y1="0"
       x2="0"
       y2="1"
       gradientTransform="matrix(64,0,0,40.523438,0,11.738281)">
      <stop
         offset="0"
         style="stop-color:#2478ff;stop-opacity:1;"
         id="stop1-6" />
      <stop
         offset="1"
         style="stop-color:#0049bf;stop-opacity:1;"
         id="stop2-7" />
    </linearGradient>
  </defs>
  <sodipodi:namedview
     id="base"
     pagecolor="#ffffff"
     bordercolor="#666666"
     borderopacity="1.0"
     inkscape:pageopacity="0.0"
     inkscape:pageshadow="2"
     inkscape:zoom="8"
     inkscape:cx="24.4375"
     inkscape:cy="33.875"
     inkscape:document-units="px"
     inkscape:current-layer="layer1"
     inkscape:document-rotation="0"
     showgrid="false"
     units="px"
     inkscape:window-width="1920"
     inkscape:window-height="996"
     inkscape:window-x="0"
     inkscape:window-y="0"
     inkscape:window-maximized="1"
     inkscape:showpageshadow="2"
     inkscape:pagecheckerboard="0"
     inkscape:deskcolor="#d1d1d1" />
  <metadata
     id="metadata1440">
    <rdf:RDF>
      <cc:Work
         rdf:about="">
        <dc:format>image/svg+xml</dc:format>
        <dc:type
           rdf:resource="http://purl.org/dc/dcmitype/StillImage" />
      </cc:Work>
    </rdf:RDF>
  </metadata>
  <g
     inkscape:label="Capa 1"
     inkscape:groupmode="layer"
     id="layer1">
    <g
       style="opacity:0.295"
       transform="matrix(0.47117252,0,0,0.47114656,-31.72741,-18.000762)"
       id="g1702">
      <rect
         ry="6.6098609"
         rx="6.6098609"
         y="40.709618"
         x="69.839508"
         height="29.810888"
         width="29.810888"
         id="rect1634"
         style="fill:none;fill-opacity:1;stroke:#000000;stroke-width:0.1;stroke-linecap:round;stroke-linejoin:round;stroke-miterlimit:4;stroke-dasharray:none;stroke-opacity:0.02" />
      <rect
         style="fill:none;fill-opacity:1;stroke:#000000;stroke-width:0.2;stroke-linecap:round;stroke-linejoin:round;stroke-miterlimit:4;stroke-dasharray:none;stroke-opacity:0.02"
         id="rect1638"
         width="29.810888"
         height="29.810888"
         x="69.839508"
         y="40.709618"
         rx="6.6098609"
         ry="6.6098609" />
      <rect
         ry="6.6098609"
         rx="6.6098609"
         y="40.709618"
         x="69.839508"
         height="29.810888"
         width="29.810888"
         id="rect1640"
         style="fill:none;fill-opacity:1;stroke:#000000;stroke-width:0.3;stroke-linecap:round;stroke-linejoin:round;stroke-miterlimit:4;stroke-dasharray:none;stroke-opacity:0.02" />
      <rect
         style="fill:none;fill-opacity:1;stroke:#000000;stroke-width:0.4;stroke-linecap:round;stroke-linejoin:round;stroke-miterlimit:4;stroke-dasharray:none;stroke-opacity:0.02"
         id="rect1642"
         width="29.810888"
         height="29.810888"
         x="69.839508"
         y="40.709618"
         rx="6.6098609"
         ry="6.6098609" />
      <rect
         ry="6.6098609"
         rx="6.6098609"
         y="40.709618"
         x="69.839508"
         height="29.810888"
         width="29.810888"
         id="rect1644"
         style="fill:none;fill-opacity:1;stroke:#000000;stroke-width:0.5;stroke-linecap:round;stroke-linejoin:round;stroke-miterlimit:4;stroke-dasharray:none;stroke-opacity:0.02" />
      <rect
         style="fill:none;fill-opacity:1;stroke:#000000;stroke-width:0.6;stroke-linecap:round;stroke-linejoin:round;stroke-miterlimit:4;stroke-dasharray:none;stroke-opacity:0.02"
         id="rect1646"
         width="29.810888"
         height="29.810888"
         x="69.839508"
         y="40.709618"
         rx="6.6098609"
         ry="6.6098609" />
      <rect
         ry="6.6098609"
         rx="6.6098609"
         y="40.709618"
         x="69.839508"
         height="29.810888"
         width="29.810888"
         id="rect1648"
         style="fill:none;fill-opacity:1;stroke:#000000;stroke-width:0.7;stroke-linecap:round;stroke-linejoin:round;stroke-miterlimit:4;stroke-dasharray:none;stroke-opacity:0.02" />
      <rect
         style="fill:none;fill-opacity:1;stroke:#000000;stroke-width:0.8;stroke-linecap:round;stroke-linejoin:round;stroke-miterlimit:4;stroke-dasharray:none;stroke-opacity:0.02"
         id="rect1650"
         width="29.810888"
         height="29.810888"
         x="69.839508"
         y="40.709618"
         rx="6.6098609"
         ry="6.6098609" />
      <rect
         ry="6.6098609"
         rx="6.6098609"
         y="40.709618"
         x="69.839508"
         height="29.810888"
         width="29.810888"
         id="rect1652"
         style="fill:none;fill-opacity:1;stroke:#000000;stroke-width:1;stroke-linecap:round;stroke-linejoin:round;stroke-miterlimit:4;stroke-dasharray:none;stroke-opacity:0.02" />
      <rect
         style="fill:none;fill-opacity:1;stroke:#000000;stroke-width:1.2;stroke-linecap:round;stroke-linejoin:round;stroke-miterlimit:4;stroke-dasharray:none;stroke-opacity:0.02"
         id="rect1654"
         width="29.810888"
         height="29.810888"
         x="69.839508"
         y="40.709618"
         rx="6.6098609"
         ry="6.6098609" />
      <rect
         ry="6.6098609"
         rx="6.6098609"
         y="40.709618"
         x="69.839508"
         height="29.810888"
         width="29.810888"
         id="rect1656"
         style="fill:none;fill-opacity:1;stroke:#000000;stroke-width:1.4;stroke-linecap:round;stroke-linejoin:round;stroke-miterlimit:4;stroke-dasharray:none;stroke-opacity:0.02" />
      <rect
         style="fill:none;fill-opacity:1;stroke:#000000;stroke-width:1.6;stroke-linecap:round;stroke-linejoin:round;stroke-miterlimit:4;stroke-dasharray:none;stroke-opacity:0.02"
         id="rect1658"
         width="29.810888"
         height="29.810888"
         x="69.839508"
         y="40.709618"
         rx="6.6098609"
         ry="6.6098609" />
      <rect
         ry="6.6098609"
         rx="6.6098609"
         y="40.709618"
         x="69.839508"
         height="29.810888"
         width="29.810888"
         id="rect1660"
         style="fill:none;fill-opacity:1;stroke:#000000;stroke-width:1.8;stroke-linecap:round;stroke-linejoin:round;stroke-miterlimit:4;stroke-dasharray:none;stroke-opacity:0.02" />
      <rect
         style="fill:none;fill-opacity:1;stroke:#000000;stroke-width:2;stroke-linecap:round;stroke-linejoin:round;stroke-miterlimit:4;stroke-dasharray:none;stroke-opacity:0.02"
         id="rect1662"
         width="29.810888"
         height="29.810888"
         x="69.839508"
         y="40.709618"
         rx="6.6098609"
         ry="6.6098609" />
      <rect
         ry="6.6098609"
         rx="6.6098609"
         y="40.709618"
         x="69.839508"
         height="29.810888"
         width="29.810888"
         id="rect1664"
         style="fill:none;fill-opacity:1;stroke:#000000;stroke-width:2.2;stroke-linecap:round;stroke-linejoin:round;stroke-miterlimit:4;stroke-dasharray:none;stroke-opacity:0.02" />
      <rect
         style="fill:none;fill-opacity:1;stroke:#000000;stroke-width:2.6;stroke-linecap:round;stroke-linejoin:round;stroke-miterlimit:4;stroke-dasharray:none;stroke-opacity:0.02"
         id="rect1666"
         width="29.810888"
         height="29.810888"
         x="69.839508"
         y="40.709618"
         rx="6.6098609"
         ry="6.6098609" />
      <rect
         ry="6.6098609"
         rx="6.6098609"
         y="40.709618"
         x="69.839508"
         height="29.810888"
         width="29.810888"
         id="rect1668"
         style="fill:none;fill-opacity:1;stroke:#000000;stroke-width:3;stroke-linecap:round;stroke-linejoin:round;stroke-miterlimit:4;stroke-dasharray:none;stroke-opacity:0.02" />
      <rect
         style="fill:none;fill-opacity:1;stroke:#000000;stroke-width:3.4;stroke-linecap:round;stroke-linejoin:round;stroke-miterlimit:4;stroke-dasharray:none;stroke-opacity:0.02"
         id="rect1670"
         width="29.810888"
         height="29.810888"
         x="69.839508"
         y="40.709618"
         rx="6.6098609"
         ry="6.6098609" />
      <rect
         ry="6.6098609"
         rx="6.6098609"
         y="40.709618"
         x="69.839508"
         height="29.810888"
         width="29.810888"
         id="rect1672"
         style="fill:none;fill-opacity:1;stroke:#000000;stroke-width:3.8;stroke-linecap:round;stroke-linejoin:round;stroke-miterlimit:4;stroke-dasharray:none;stroke-opacity:0.02" />
      <rect
         style="fill:none;fill-opacity:1;stroke:#000000;stroke-width:4.2;stroke-linecap:round;stroke-linejoin:round;stroke-miterlimit:4;stroke-dasharray:none;stroke-opacity:0.02"
         id="rect1674"
         width="29.810888"
         height="29.810888"
         x="69.839508"
         y="40.709618"
         rx="6.6098609"
         ry="6.6098609" />
      <rect
         ry="6.6098609"
         rx="6.6098609"
         y="40.709618"
         x="69.839508"
         height="29.810888"
         width="29.810888"
         id="rect1676"
         style="fill:none;fill-opacity:1;stroke:#000000;stroke-width:4.6;stroke-linecap:round;stroke-linejoin:round;stroke-miterlimit:4;stroke-dasharray:none;stroke-opacity:0.02" />
      <rect
         style="fill:none;fill-opacity:1;stroke:#000000;stroke-width:5;stroke-linecap:round;stroke-linejoin:round;stroke-miterlimit:4;stroke-dasharray:none;stroke-opacity:0.02"
         id="rect1678"
         width="29.810888"
         height="29.810888"
         x="69.839508"
         y="40.709618"
         rx="6.6098609"
         ry="6.6098609" />
    </g>
    <rect
       ry="3.1142132"
       rx="3.1143851"
       y="1.1794344"
       x="1.1790471"
       height="14.045296"
       width="14.04607"
       id="rect849"
       style="fill:url(#linearGradient1632);fill-opacity:1;stroke-width:1.29783;stroke-linecap:round;stroke-linejoin:round" />
    <g
       id="surface1"
       transform="matrix(0.16743071,0,0,0.16726453,2.8276217,2.8502717)" />
    <g
       id="surface1-5"
       transform="matrix(0.20670573,0,0,0.20670573,1.5874999,3.5520912)">
      <path
         d="m 19.34375,48.425781 c 0,0.164063 -0.05078,0.246094 -0.140625,0.246094 -0.269531,0 -0.644531,-0.02344 -1.117187,-0.05859 -0.511719,-0.03516 -0.925782,-0.05078 -1.242188,-0.05078 -0.335938,0 -0.773438,0.01563 -1.320312,0.05078 -0.582032,0.03516 -1.066407,0.05859 -1.460938,0.05859 -0.08203,0 -0.121094,-0.08203 -0.121094,-0.246094 0,-0.144531 0.04687,-0.222656 0.136719,-0.234375 0.785156,-0.09766 1.183594,-0.28125 1.183594,-0.527344 0,-0.195312 -0.144531,-0.496093 -0.421875,-0.898437 l -2.21875,-3.214844 -2.375,3.214844 c -0.199219,0.238281 -0.292969,0.464844 -0.292969,0.683594 0,0.207031 0.097656,0.367187 0.308594,0.480469 0.214843,0.101562 0.578125,0.191406 1.085937,0.261718 0.07422,0.01172 0.109375,0.08984 0.109375,0.234375 0,0.164063 -0.05078,0.246094 -0.140625,0.246094 -0.394531,0 -0.84375,-0.02344 -1.347656,-0.05859 -0.4375,-0.03516 -0.804688,-0.05078 -1.105469,-0.05078 -0.257812,0 -0.566406,0.01563 -0.929687,0.05078 -0.425782,0.03516 -0.808594,0.05859 -1.148438,0.05859 -0.09375,0 -0.140625,-0.08203 -0.140625,-0.246094 0,-0.144531 0.0625,-0.222656 0.1875,-0.234375 C 7.414062,48.140625 7.875,48.019531 8.195312,47.835938 8.527344,47.652344 8.910156,47.289062 9.34375,46.746094 L 12.296875,43.085938 9.175781,38.738281 C 8.773438,38.152344 8.40625,37.777344 8.089844,37.621094 7.78125,37.46875 7.304688,37.355469 6.675781,37.296875 c 0.027344,0 0.046875,-0.08594 0.046875,-0.25 0,-0.152344 0.039063,-0.234375 0.125,-0.234375 0.269532,0 0.644532,0.01953 1.132813,0.04687 0.535156,0.04297 0.957031,0.0625 1.253906,0.0625 0.355469,0 0.792969,-0.01953 1.320313,-0.0625 0.570312,-0.02734 1.046874,-0.04687 1.429687,-0.04687 0.08594,0 0.140625,0.08203 0.140625,0.234375 0,0.164063 -0.06641,0.25 -0.183594,0.25 -0.519531,0.05859 -0.878906,0.136719 -1.058594,0.214844 -0.179687,0.07422 -0.261718,0.183593 -0.261718,0.324219 0,0.1875 0.152344,0.492187 0.464844,0.902343 l 2.234374,3.007813 2.078126,-3.007813 c 0.207031,-0.316406 0.3125,-0.550781 0.3125,-0.699219 0,-0.195312 -0.117188,-0.347656 -0.34375,-0.46875 -0.226563,-0.117187 -0.59375,-0.214843 -1.097657,-0.273437 -0.07813,0 -0.113281,-0.08594 -0.113281,-0.25 0,-0.152344 0.04687,-0.234375 0.140625,-0.234375 0.371094,0 0.78125,0.01953 1.242187,0.04687 0.433594,0.04297 0.824219,0.0625 1.179688,0.0625 0.257812,0 0.566406,-0.01563 0.933594,-0.04687 0.441406,-0.03906 0.859375,-0.0625 1.253906,-0.0625 0.08984,0 0.140625,0.08203 0.140625,0.234375 0,0.0625 -0.02344,0.121094 -0.0625,0.167969 -0.03906,0.05859 -0.08594,0.08203 -0.125,0.08203 -0.613281,0.05859 -1.078125,0.191406 -1.410156,0.386719 -0.320313,0.183594 -0.6875,0.535156 -1.085938,1.054687 l -2.730469,3.492188 3.132813,4.535156 c 0.421875,0.585937 0.773437,0.953125 1.054687,1.097656 0.277344,0.148438 0.738282,0.257813 1.382813,0.328125 0.08984,0.01172 0.140625,0.08984 0.140625,0.234376 z m -1.902344,0.976563 c 0.441406,0.992187 0.816406,1.949218 1.097656,2.859375 2.144532,-0.07422 3.671876,-0.113281 4.582032,-0.113281 0.910156,0 2.4375,0.03906 4.578125,0.113281 0.09375,0 0.140625,-0.08594 0.140625,-0.253907 0,-0.140624 -0.04687,-0.21875 -0.140625,-0.230468 -0.460938,-0.05078 -0.824219,-0.125 -1.070313,-0.21875 C 26.371094,51.472656 26.195312,51.34375 26.101562,51.1875 26,51.023438 25.945312,50.746094 25.945312,50.363281 v -7.992187 c 0,-0.390625 0.05078,-0.667969 0.140626,-0.824219 0.09375,-0.164063 0.269531,-0.292969 0.527343,-0.386719 0.246094,-0.101562 0.613281,-0.179687 1.085938,-0.230468 0.09375,0 0.140625,-0.08594 0.140625,-0.25 0,-0.152344 -0.04687,-0.234376 -0.140625,-0.234376 -1.433594,0.07422 -2.90625,0.109376 -4.40625,0.109376 -1.515625,0 -2.996094,-0.03516 -4.425781,-0.109376 -0.109376,0.851563 -0.296876,1.695313 -0.542969,2.53125 0,0.117188 0.105469,0.171876 0.3125,0.171876 0.08984,0 0.152343,-0.03906 0.167969,-0.125 0.425781,-1.285157 1.328124,-1.925782 2.703124,-1.925782 h 1.71875 c 0.652344,0 0.980469,0.332032 0.980469,0.976563 v 3.617187 h -2.1875 c -0.585937,0 -0.988281,-0.125 -1.195312,-0.371094 -0.207031,-0.246093 -0.347657,-0.6875 -0.4375,-1.320312 0,-0.07813 -0.07422,-0.125 -0.230469,-0.125 -0.152344,0 -0.230469,0.05469 -0.230469,0.140625 0,0.292969 0.03516,0.648437 0.08984,1.074219 0.0625,0.414062 0.09375,0.753906 0.09375,1.023437 0,0.257813 -0.03125,0.59375 -0.09375,1.007813 -0.05469,0.445312 -0.08984,0.816406 -0.08984,1.101562 0,0.09375 0.07813,0.140625 0.230469,0.140625 0.15625,0 0.230469,-0.04687 0.230469,-0.140625 0.09375,-0.734375 0.253906,-1.246094 0.46875,-1.539062 0.214843,-0.296875 0.609375,-0.449219 1.164062,-0.449219 h 2.1875 v 4.332031 c 0,0.695313 -0.328125,1.042969 -0.980469,1.042969 h -1.859374 c -0.671876,0 -1.339844,-0.226563 -2.003907,-0.667969 -0.671875,-0.445312 -1.164062,-1.003906 -1.476562,-1.675781 -0.01563,-0.05469 -0.0625,-0.08203 -0.140625,-0.08203 -0.07813,0 -0.148438,0.02344 -0.214844,0.0625 -0.05469,0.04297 -0.08984,0.09766 -0.08984,0.15625 z M 37.59375,39.625 c 0,0.101562 -0.105469,0.15625 -0.308594,0.15625 -0.08984,0 -0.144531,-0.04297 -0.171875,-0.128906 -0.242187,-0.792969 -0.589843,-1.355469 -1.042969,-1.691406 -0.457031,-0.328126 -1.125,-0.496094 -2.019531,-0.496094 h -0.804687 c -0.277344,0 -0.472656,0.05078 -0.574219,0.140625 -0.105469,0.08594 -0.15625,0.25 -0.15625,0.496093 v 8.664063 c 0,0.382813 0.05078,0.660156 0.15625,0.820313 0.101563,0.167968 0.28125,0.296874 0.527344,0.390624 0.257812,0.08984 0.621093,0.164063 1.089843,0.214844 0.08594,0.01172 0.140626,0.08984 0.140626,0.234375 0,0.164063 -0.05469,0.246094 -0.140626,0.246094 -0.386718,0 -0.84375,-0.02344 -1.367187,-0.05859 -0.496094,-0.03516 -0.914063,-0.05078 -1.242187,-0.05078 -0.355469,0 -0.785157,0.01563 -1.289063,0.05078 -0.527344,0.03516 -0.988281,0.05859 -1.367187,0.05859 -0.08203,0 -0.125,-0.08203 -0.125,-0.246094 0,-0.144531 0.04297,-0.222656 0.125,-0.234375 0.691406,-0.07031 1.164062,-0.195312 1.414062,-0.371094 0.242188,-0.175781 0.371094,-0.527343 0.371094,-1.054687 v -8.664063 c 0,-0.246093 -0.05078,-0.410156 -0.152344,-0.496093 -0.109375,-0.08984 -0.304688,-0.140625 -0.59375,-0.140625 h -0.652344 c -0.804687,0 -1.539062,0.207031 -2.1875,0.605468 -0.652344,0.40625 -1.078125,0.933594 -1.269531,1.582032 -0.03125,0.08594 -0.101563,0.128906 -0.1875,0.128906 -0.199219,0 -0.296875,-0.06641 -0.296875,-0.1875 0.320312,-0.859375 0.625,-1.832031 0.902344,-2.921875 0.773437,0.167969 2.542968,0.25 5.308594,0.25 2.832031,0 4.632812,-0.08203 5.398437,-0.25 0.08594,0.75 0.253906,1.730469 0.515625,2.953125 z m 8.097656,9.777344 c -0.449218,0.992187 -0.816406,1.949218 -1.101562,2.859375 -2.140625,-0.07422 -3.675782,-0.113281 -4.582032,-0.113281 -0.910156,0 -2.441406,0.03906 -4.574218,0.113281 -0.09766,0 -0.140625,-0.08594 -0.140625,-0.253907 0,-0.140624 0.04297,-0.21875 0.140625,-0.230468 0.457031,-0.05078 0.820312,-0.125 1.066406,-0.21875 0.257812,-0.08594 0.4375,-0.214844 0.527344,-0.371094 0.105468,-0.164062 0.15625,-0.441406 0.15625,-0.824219 v -7.992187 c 0,-0.390625 -0.04687,-0.667969 -0.140625,-0.824219 -0.08984,-0.164063 -0.269531,-0.292969 -0.527344,-0.386719 -0.246094,-0.101562 -0.613281,-0.179687 -1.082031,-0.230468 -0.09766,0 -0.140625,-0.08594 -0.140625,-0.25 0,-0.152344 0.04297,-0.234376 0.140625,-0.234376 1.433594,0.07422 2.902344,0.109376 4.40625,0.109376 1.515625,0 2.996094,-0.03516 4.425781,-0.109376 0.109375,0.851563 0.289063,1.695313 0.542969,2.53125 0,0.117188 -0.109375,0.171876 -0.3125,0.171876 -0.09375,0 -0.152344,-0.03906 -0.171875,-0.125 C 43.898438,41.738281 42.996094,41.097656 41.625,41.097656 h -1.726562 c -0.652344,0 -0.972657,0.332032 -0.972657,0.976563 v 3.617187 h 2.1875 c 0.582031,0 0.984375,-0.125 1.195313,-0.371094 0.203125,-0.246093 0.347656,-0.6875 0.429687,-1.320312 0,-0.07813 0.08203,-0.125 0.238281,-0.125 0.148438,0 0.230469,0.05469 0.230469,0.140625 0,0.292969 -0.03516,0.648437 -0.08984,1.074219 -0.06641,0.414062 -0.09766,0.753906 -0.09766,1.023437 0,0.257813 0.03125,0.59375 0.09766,1.007813 0.05469,0.445312 0.08984,0.816406 0.08984,1.101562 0,0.09375 -0.08203,0.140625 -0.230469,0.140625 -0.15625,0 -0.238281,-0.04687 -0.238281,-0.140625 -0.08984,-0.734375 -0.25,-1.246094 -0.460937,-1.539062 -0.21875,-0.296875 -0.609375,-0.449219 -1.164063,-0.449219 h -2.1875 v 4.332031 c 0,0.695313 0.320313,1.042969 0.972657,1.042969 h 1.867187 c 0.671875,0 1.339844,-0.226563 2.003906,-0.667969 0.667969,-0.445312 1.164063,-1.003906 1.46875,-1.675781 0.02344,-0.05469 0.07031,-0.08203 0.140625,-0.08203 0.08594,0 0.15625,0.02344 0.21875,0.0625 0.05859,0.04297 0.09375,0.09766 0.09375,0.156249 z M 56.875,48.425781 c 0,0.164063 -0.05078,0.246094 -0.140625,0.246094 -0.269531,0 -0.640625,-0.02344 -1.113281,-0.05859 -0.507813,-0.03516 -0.925782,-0.05078 -1.246094,-0.05078 -0.332031,0 -0.769531,0.01563 -1.320312,0.05078 -0.578126,0.03516 -1.0625,0.05859 -1.453126,0.05859 -0.08984,0 -0.128906,-0.08203 -0.128906,-0.246094 0,-0.144531 0.04687,-0.222656 0.140625,-0.234375 0.78125,-0.09766 1.179688,-0.28125 1.179688,-0.527344 0,-0.195312 -0.144531,-0.496093 -0.417969,-0.898437 l -2.21875,-3.214844 -2.375,3.214844 c -0.203125,0.238281 -0.296875,0.464844 -0.296875,0.683594 0,0.207031 0.101563,0.367187 0.3125,0.480469 0.210937,0.101562 0.574219,0.191406 1.082031,0.261718 0.07422,0.01172 0.113282,0.08984 0.113282,0.234375 0,0.164063 -0.05078,0.246094 -0.140626,0.246094 -0.394531,0 -0.847656,-0.02344 -1.351562,-0.05859 -0.4375,-0.03516 -0.804688,-0.05078 -1.105469,-0.05078 -0.257812,0 -0.566406,0.01563 -0.925781,0.05078 -0.429688,0.03516 -0.8125,0.05859 -1.152344,0.05859 -0.09375,0 -0.136718,-0.08203 -0.136718,-0.246094 0,-0.144531 0.05859,-0.222656 0.183593,-0.234375 0.589844,-0.05078 1.042969,-0.171875 1.367188,-0.355468 0.328125,-0.183594 0.714843,-0.546876 1.148437,-1.089844 l 2.949219,-3.660156 -3.121094,-4.347657 C 46.304688,38.152344 45.941406,37.777344 45.621094,37.621094 45.3125,37.46875 44.835938,37.355469 44.207031,37.296875 c 0.02734,0 0.05078,-0.08594 0.05078,-0.25 0,-0.152344 0.03906,-0.234375 0.121094,-0.234375 0.269532,0 0.644532,0.01953 1.132813,0.04687 0.535156,0.04297 0.957031,0.0625 1.261719,0.0625 0.347656,0 0.789062,-0.01953 1.316406,-0.0625 0.566406,-0.02734 1.042968,-0.04687 1.429687,-0.04687 0.08984,0 0.136719,0.08203 0.136719,0.234375 0,0.164063 -0.0625,0.25 -0.183594,0.25 -0.519531,0.05859 -0.871094,0.136719 -1.058594,0.214844 -0.179687,0.07422 -0.261718,0.183593 -0.261718,0.324219 0,0.1875 0.15625,0.492187 0.464844,0.902343 l 2.234374,3.007813 2.082032,-3.007813 c 0.207031,-0.316406 0.308594,-0.550781 0.308594,-0.699219 0,-0.195312 -0.113282,-0.347656 -0.34375,-0.46875 -0.226563,-0.117187 -0.59375,-0.214843 -1.097657,-0.273437 -0.07422,0 -0.109375,-0.08594 -0.109375,-0.25 0,-0.152344 0.04297,-0.234375 0.140625,-0.234375 0.367188,0 0.785157,0.01953 1.238281,0.04687 0.433594,0.04297 0.828126,0.0625 1.183594,0.0625 0.253906,0 0.566406,-0.01563 0.929688,-0.04687 0.445312,-0.03906 0.859375,-0.0625 1.257812,-0.0625 0.08984,0 0.136719,0.08203 0.136719,0.234375 0,0.0625 -0.02344,0.121094 -0.05859,0.167969 -0.04297,0.05859 -0.08594,0.08203 -0.125,0.08203 -0.613281,0.05859 -1.082031,0.191406 -1.414062,0.386719 -0.320313,0.183594 -0.683594,0.535156 -1.085938,1.054687 l -2.730469,3.492188 3.136719,4.535156 c 0.417969,0.585937 0.773438,0.953125 1.054688,1.097656 0.277343,0.148438 0.738281,0.257813 1.378906,0.328125 0.08984,0.01172 0.140625,0.08984 0.140625,0.234375 z M 9.421875,20.996094 14.785156,30.546875 H 9.503906 L 6.085938,23.933594 4.699219,24.761719 v 5.785156 H 0 V 13.242188 h 4.699219 v 7.519531 C 4.9375,20.296875 5.414062,19.558594 6.132812,18.546875 l 3.632813,-5.304687 h 5.113281 z m 13.53125,6.132812 c 0.621094,0 1.367187,-0.152344 2.234375,-0.460937 v 3.371093 c -0.625,0.269532 -1.21875,0.460938 -1.78125,0.578126 -0.5625,0.113281 -1.226562,0.171874 -1.980469,0.171874 -1.554687,0 -2.675781,-0.382812 -3.363281,-1.144531 -0.6875,-0.761719 -1.03125,-1.929687 -1.03125,-3.507812 v -5.527344 h -1.621094 v -1.886719 l 2.0625,-1.453125 1.195313,-2.816406 h 3.027343 v 2.6875 h 3.292969 v 3.46875 h -3.292969 v 5.21875 c 0,0.867187 0.417969,1.300781 1.257813,1.300781 z m 9.230469,-9.988281 v 13.40625 H 27.554688 V 17.140625 Z M 27.4375,13.800781 c 0,-0.695312 0.191406,-1.210937 0.578125,-1.546875 0.386719,-0.34375 1.011719,-0.515625 1.871094,-0.515625 0.859375,0 1.488281,0.175781 1.882812,0.527344 0.394531,0.34375 0.589844,0.855469 0.589844,1.535156 0,1.355469 -0.824219,2.035157 -2.472656,2.035157 -1.632813,0 -2.449219,-0.679688 -2.449219,-2.035157 z m 12.371094,9.210938 h 0.08984 c 0.5625,-0.894531 1.039062,-1.585938 1.433593,-2.082031 L 44.33984,17.140625 H 49.5 l -4.652344,5.703125 4.949219,7.703125 h -5.292969 l -2.9375,-4.804687 -1.5,1.148437 v 3.65625 H 35.414062 V 12.132812 h 4.652344 V 19.375 c 0,1.242188 -0.08594,2.453125 -0.257812,3.636719 z M 64,26.777344 v 3.769531 H 50.519531 V 27.660156 L 58.011719,17.019531 H 50.695312 V 13.242188 H 63.8125 v 2.878906 l -7.492188,10.65625 z m 0,0"
         id="path2"
         style="fill:#8d5fd3" />
    </g>
  </g>
</svg>
