<?xml version="1.0" encoding="UTF-8" standalone="no"?>
<svg
   clip-rule="evenodd"
   fill-rule="evenodd"
   stroke-linejoin="round"
   stroke-miterlimit="2"
   viewBox="0 0 62 62"
   version="1.1"
   id="svg5"
   sodipodi:docname="lpf.svg"
   width="62"
   height="62"
   inkscape:version="1.4 (unknown)"
   xmlns:inkscape="http://www.inkscape.org/namespaces/inkscape"
   xmlns:sodipodi="http://sodipodi.sourceforge.net/DTD/sodipodi-0.dtd"
   xmlns:xlink="http://www.w3.org/1999/xlink"
   xmlns="http://www.w3.org/2000/svg"
   xmlns:svg="http://www.w3.org/2000/svg">
  <defs
     id="defs5">
    <linearGradient
       id="linearGradient5"
       inkscape:collect="always">
      <stop
         style="stop-color:#1b1b1b;stop-opacity:1;"
         offset="0"
         id="stop5" />
      <stop
         style="stop-color:#404040;stop-opacity:1;"
         offset="1"
         id="stop6" />
    </linearGradient>
    <linearGradient
       inkscape:collect="always"
       xlink:href="#linearGradient5"
       id="linearGradient6"
       x1="23.959999"
       y1="39.306"
       x2="23.696562"
       y2="8.6940002"
       gradientUnits="userSpaceOnUse"
       gradientTransform="matrix(1.0138432,0,0,1.0111813,-0.29149643,-0.26835344)" />
  </defs>
  <sodipodi:namedview
     id="namedview5"
     pagecolor="#ffffff"
     bordercolor="#000000"
     borderopacity="0.25"
     inkscape:showpageshadow="2"
     inkscape:pageopacity="0.0"
     inkscape:pagecheckerboard="0"
     inkscape:deskcolor="#d1d1d1"
     inkscape:zoom="8.0729167"
     inkscape:cx="17.899355"
     inkscape:cy="35.489032"
     inkscape:window-width="1920"
     inkscape:window-height="998"
     inkscape:window-x="0"
     inkscape:window-y="0"
     inkscape:window-maximized="1"
     inkscape:current-layer="svg5" />
  <linearGradient
     id="a"
     x2="1"
     gradientTransform="matrix(0,-33.6872,33.6872,0,923.28,40.4502)"
     gradientUnits="userSpaceOnUse">
    <stop
       stop-color="#a0a8aa"
       offset="0"
       id="stop1" />
    <stop
       stop-color="#d7d7d7"
       offset="1"
       id="stop2" />
  </linearGradient>
  <linearGradient
     id="b"
     x2="1"
     gradientTransform="matrix(0,-30.6119,30.6119,0,24,39.3059)"
     gradientUnits="userSpaceOnUse">
    <stop
       stop-color="#1b1b1b"
       offset="0"
       id="stop3" />
    <stop
       stop-color="#424242"
       offset="1"
       id="stop4" />
  </linearGradient>
  <g
     id="g5"
     transform="matrix(1.2922282,0,0,1.2922282,-0.0134768,-0.0134768)">
    <path
       d="M 39.44,45.668 H 8.56 c -3.438,0 -6.228,-2.79 -6.228,-6.228 V 8.56 c 0,-3.438 2.79,-6.228 6.228,-6.228 h 30.88 c 3.438,0 6.228,2.79 6.228,6.228 v 30.88 c 0,3.438 -2.79,6.228 -6.228,6.228 z"
       id="path4"
       style="fill:url(#a)" />
    <path
       d="m 8.5228573,38.263723 c 0,0.670413 0.5444338,1.213419 1.2166119,1.213419 H 38.26091 c 0.336596,0 0.657983,-0.138533 0.887112,-0.383238 0.230143,-0.244706 0.348762,-0.57334 0.326458,-0.908041 C 39.145995,33.094565 37.93952,14.460513 37.629285,9.6584142 37.587717,9.0193475 37.056464,8.5228575 36.4147,8.5228575 h -3.069916 c -0.625544,0 -1.149701,0.473233 -1.21053,1.0940981 C 31.69526,14.056043 30.069055,30.486728 30.069055,30.486728 V 22.839164 H 27.65408 v -3.329823 c 0,-0.485365 -0.267655,-0.932309 -0.696509,-1.163867 -0.428857,-0.230551 -0.950986,-0.207294 -1.357536,0.05966 -2.553873,1.673503 -6.580858,4.313699 -6.580858,4.313699 h -0.96518 v -3.462286 c 0,-0.494468 -0.276779,-0.948488 -0.7178,-1.174991 -0.440011,-0.227517 -0.971261,-0.190105 -1.375785,0.09606 -2.239579,1.585532 -5.643055,3.994164 -6.9245502,4.901196 -0.321388,0.227517 -0.5130045,0.596598 -0.5130045,0.988936 z m 6.0293257,-7.174332 h -2.475806 v 3.552281 h 2.475806 z m 5.976607,0 h -2.474793 v 3.552281 h 2.474793 z m 5.987757,0 h -2.475803 v 3.552281 h 2.475803 z M 14.552183,25.188136 h -2.475806 v 3.552282 h 2.475806 z m 5.976607,0 h -2.474793 v 3.552282 h 2.474793 z m 5.987757,0 h -2.475803 v 3.552282 h 2.475803 z"
       id="path5"
       style="fill:url(#linearGradient6);stroke-width:1.01252" />
  </g>
</svg>
