<?xml version="1.0" encoding="UTF-8" standalone="no"?>
<svg
   width="62"
   height="62"
   version="1.1"
   id="svg29"
   sodipodi:docname="LyricsFinder.svg"
   inkscape:version="1.4 (unknown)"
   xmlns:inkscape="http://www.inkscape.org/namespaces/inkscape"
   xmlns:sodipodi="http://sodipodi.sourceforge.net/DTD/sodipodi-0.dtd"
   xmlns:xlink="http://www.w3.org/1999/xlink"
   xmlns="http://www.w3.org/2000/svg"
   xmlns:svg="http://www.w3.org/2000/svg">
  <defs
     id="defs29">
    <linearGradient
       id="linearGradient29"
       inkscape:collect="always">
      <stop
         style="stop-color:#2d3d53;stop-opacity:1;"
         offset="0"
         id="stop29" />
      <stop
         style="stop-color:#354864;stop-opacity:1;"
         offset="1"
         id="stop30" />
    </linearGradient>
    <linearGradient
       inkscape:collect="always"
       xlink:href="#linearGradient29"
       id="linearGradient30"
       x1="30.782633"
       y1="60"
       x2="30.193521"
       y2="5"
       gradientUnits="userSpaceOnUse"
       gradientTransform="matrix(0.98214286,0,0,0.98245614,-0.42857152,-0.92982455)" />
    <linearGradient
       id="paint0_linear_8_764"
       x1="8.6153803"
       y1="18.230801"
       x2="8.6153803"
       y2="3"
       gradientUnits="userSpaceOnUse"
       gradientTransform="matrix(1.818183,0,0,1.8299164,-47.032104,0.40362167)">
      <stop
         stop-color="#5558FF"
         id="stop2" />
      <stop
         offset="1"
         stop-color="#00C0FF"
         id="stop3" />
    </linearGradient>
    <linearGradient
       id="paint1_linear_8_764"
       x1="16.5128"
       y1="20.4872"
       x2="16.5128"
       y2="4.8001699"
       gradientUnits="userSpaceOnUse"
       gradientTransform="matrix(1.818183,0,0,1.8299164,-47.032104,0.40362167)">
      <stop
         stop-color="#5558FF"
         id="stop4" />
      <stop
         offset="1"
         stop-color="#00C0FF"
         id="stop5" />
    </linearGradient>
  </defs>
  <sodipodi:namedview
     id="namedview29"
     pagecolor="#ffffff"
     bordercolor="#000000"
     borderopacity="0.25"
     inkscape:showpageshadow="2"
     inkscape:pageopacity="0.0"
     inkscape:pagecheckerboard="0"
     inkscape:deskcolor="#d1d1d1"
     inkscape:zoom="7.0710678"
     inkscape:cx="1.4849242"
     inkscape:cy="25.243712"
     inkscape:window-width="1920"
     inkscape:window-height="998"
     inkscape:window-x="0"
     inkscape:window-y="0"
     inkscape:window-maximized="1"
     inkscape:current-layer="svg29" />
  <rect
     style="opacity:0.2;stroke-width:0.9823"
     width="55"
     height="55.017544"
     x="3.5"
     y="3.9824562"
     ry="13.754386"
     id="rect1" />
  <rect
     style="fill:url(#linearGradient30);stroke-width:0.9823"
     width="55"
     height="55.017544"
     x="3.5"
     y="3"
     ry="13.754386"
     id="rect2" />
  <path
     id="rect1-5"
     d="M 12.707353,3.741 C 7.3014286,5.7640153 3.547,10.278576 3.547,15.559533 V 45.45892 c 0,5.281287 3.7546295,9.795813 9.160353,11.818536 z"
     fill="#f43913"
     stroke-width="1.30805"
     style="fill:#c83771" />
  <path
     style="opacity:0.1;fill:#ffffff;stroke-width:0.9823"
     d="M 17.25,3 C 9.6325,3 3.5,9.1344562 3.5,16.754386 v 0.982456 C 3.5,10.116912 9.6325,3.9824562 17.25,3.9824562 h 27.5 c 7.6175,0 13.75,6.1344558 13.75,13.7543858 V 16.754386 C 58.5,9.1344562 52.3675,3 44.75,3 Z"
     id="path28-5" />
  <g
     id="g1"
     transform="matrix(3.7886552,0,0,3.7842181,4.9734979,-4.5281024)">
    <path
       id="path3779"
       d="m 3.9604,7.0279 -1.05,0.47128 1.5131,3.3899 0.23977,0.52916 0.52089,-0.23977 1.7942,-0.81854 -0.47955,-1.0418 -1.2567,0.57876 z"
       color="#000000"
       fill="#088ffc"
       style="text-indent:0;text-decoration-line:none;text-transform:none;fill:#00ccff" />
    <path
       id="path3783"
       d="m 10.112,6.0853 -1.0087,0.53742 1.1162,2.0918 -1.7611,1.5792 0.76893,0.85161 1.5461,-1.389 0.91776,1.7198 1.0087,-0.53742 -1.05,-1.9761 1.5544,-1.3973 -0.76066,-0.85161 -1.3477,1.2154 z"
       color="#000000"
       fill="#f43913"
       style="text-indent:0;text-decoration-line:none;text-transform:none;fill:#c83771" />
    <path
       id="path3781"
       d="m 6.8212,7.342 -1.0252,0.51262 1.3146,2.6292 -0.32245,2.3233 1.1327,0.14882 0.33072,-2.3564 2.0009,-1.9513 L 9.45874,7.8297 7.84644,9.3924 Z"
       color="#000000"
       fill="#fafa05"
       style="text-indent:0;text-decoration-line:none;text-transform:none;fill:#ffd42a" />
  </g>
</svg>
