<?xml version="1.0" encoding="UTF-8" standalone="no"?>
<svg
   width="62"
   height="62"
   version="1"
   id="svg4"
   sodipodi:docname="magnatune.svg"
   inkscape:version="1.4 (unknown)"
   xmlns:inkscape="http://www.inkscape.org/namespaces/inkscape"
   xmlns:sodipodi="http://sodipodi.sourceforge.net/DTD/sodipodi-0.dtd"
   xmlns="http://www.w3.org/2000/svg"
   xmlns:svg="http://www.w3.org/2000/svg">
  <defs
     id="defs4" />
  <sodipodi:namedview
     id="namedview4"
     pagecolor="#ffffff"
     bordercolor="#000000"
     borderopacity="0.25"
     inkscape:showpageshadow="2"
     inkscape:pageopacity="0.0"
     inkscape:pagecheckerboard="0"
     inkscape:deskcolor="#d1d1d1"
     inkscape:zoom="12.109375"
     inkscape:cx="32"
     inkscape:cy="32"
     inkscape:window-width="1920"
     inkscape:window-height="998"
     inkscape:window-x="0"
     inkscape:window-y="0"
     inkscape:window-maximized="1"
     inkscape:current-layer="svg4" />
  <g
     id="g4"
     transform="matrix(0.98214286,0,0,0.98245614,-0.42857152,-0.92982456)">
    <path
       style="opacity:0.2"
       d="m 4.0507997,32.000415 c -0.0118,0.333995 -0.050799,0.66199 -0.050799,0.999985 C 4.0000004,48.512179 16.487822,61 31.9996,61 47.511378,61 59.9992,48.512179 59.9992,33.0004 c 0,-0.337675 -0.03904,-0.66527 -0.05078,-0.999985 C 59.420428,47.0422 47.172603,59.000029 31.99882,59.000029 16.824637,59.000029 4.5772122,47.0422 4.0492197,32.000415 Z"
       id="path1" />
    <rect
       style="fill:#1d587c;fill-opacity:1"
       width="56"
       height="56"
       x="4"
       y="4"
       rx="28"
       ry="28"
       id="rect1" />
    <path
       style="opacity:0.2"
       d="M 31.9996,13.000686 A 19.999714,19.999714 0 0 0 11.999886,33.0004 19.999714,19.999714 0 0 0 31.9996,53.000114 19.999714,19.999714 0 0 0 51.999314,33.0004 19.999714,19.999714 0 0 0 31.9996,13.000686 Z m 0,5.999915 c 2.215968,0 3.999943,1.607137 3.999943,3.601548 v 16.79656 c 0,1.993971 -1.783975,3.601948 -3.999943,3.601948 -2.215968,0 -3.999943,-1.607977 -3.999943,-3.601948 v -16.79656 c 0,-1.993971 1.783975,-3.601948 3.999943,-3.601948 z m -11.999828,7.999885 c 2.215968,0 3.999942,1.783975 3.999942,3.999943 v 7.999886 c 0,2.215968 -1.783974,3.999942 -3.999942,3.999942 -2.215969,0 -3.999943,-1.783974 -3.999943,-3.999942 v -7.999886 c 0,-2.215968 1.783974,-3.999943 3.999943,-3.999943 z m 23.999656,0 c 2.215969,0 3.999943,1.783975 3.999943,3.999943 v 7.999886 c 0,2.215968 -1.783974,3.999942 -3.999943,3.999942 -2.215968,0 -3.999942,-1.783974 -3.999942,-3.999942 v -7.999886 c 0,-2.215968 1.783974,-3.999943 3.999942,-3.999943 z"
       id="path2" />
    <path
       style="fill:#f2f2f2;fill-opacity:1"
       d="M 31.9996,12.000715 A 19.999714,19.999714 0 0 0 11.999886,32.000429 19.999714,19.999714 0 0 0 31.9996,52.000143 19.999714,19.999714 0 0 0 51.999314,32.000429 19.999714,19.999714 0 0 0 31.9996,12.000715 Z m 0,5.999914 c 2.215968,0 3.999943,1.607177 3.999943,3.601949 v 16.79576 c 0,1.993971 -1.783975,3.601948 -3.999943,3.601948 -2.215968,0 -3.999943,-1.607977 -3.999943,-3.601948 v -16.79576 c 0,-1.994772 1.783975,-3.601949 3.999943,-3.601949 z m -11.999828,7.999886 c 2.215968,0 3.999942,1.783974 3.999942,3.999943 v 7.999885 c 0,2.215969 -1.783974,3.999943 -3.999942,3.999943 -2.215969,0 -3.999943,-1.783974 -3.999943,-3.999943 v -7.999885 c 0,-2.215969 1.783974,-3.999943 3.999943,-3.999943 z m 23.999656,0 c 2.215969,0 3.999943,1.783974 3.999943,3.999943 v 7.999885 c 0,2.215969 -1.783974,3.999943 -3.999943,3.999943 -2.215968,0 -3.999942,-1.783974 -3.999942,-3.999943 v -7.999885 c 0,-2.215969 1.783974,-3.999943 3.999942,-3.999943 z"
       id="path3" />
    <path
       style="opacity:0.2;fill:#ffffff"
       d="M 32,4 C 16.488222,4 4,16.488222 4,32 4,32.113554 4.011285,32.224034 4.017578,32.335938 4.3691163,17.134398 16.710946,5 32,5 47.289054,5 59.630884,17.134398 59.982422,32.335938 59.988797,32.224034 60,32.113554 60,32 60,16.488222 47.511778,4 32,4 Z"
       id="path4" />
  </g>
</svg>
