<?xml version="1.0" encoding="UTF-8" standalone="no"?>
<svg
   width="62"
   height="62"
   version="1"
   id="svg5"
   sodipodi:docname="mail.ru-cloud.svg"
   inkscape:version="1.4 (unknown)"
   xmlns:inkscape="http://www.inkscape.org/namespaces/inkscape"
   xmlns:sodipodi="http://sodipodi.sourceforge.net/DTD/sodipodi-0.dtd"
   xmlns:xlink="http://www.w3.org/1999/xlink"
   xmlns="http://www.w3.org/2000/svg"
   xmlns:svg="http://www.w3.org/2000/svg">
  <defs
     id="defs5">
    <linearGradient
       id="linearGradient1"
       inkscape:collect="always">
      <stop
         style="stop-color:#00ccff;stop-opacity:1"
         offset="0"
         id="stop1" />
      <stop
         style="stop-color:#00aad4;stop-opacity:1"
         offset="0.47080225"
         id="stop4" />
      <stop
         style="stop-color:#c83771;stop-opacity:1"
         offset="0.47080225"
         id="stop3" />
      <stop
         style="stop-color:#d35f5f;stop-opacity:1"
         offset="1"
         id="stop2" />
    </linearGradient>
    <linearGradient
       inkscape:collect="always"
       xlink:href="#linearGradient1"
       id="linearGradient2"
       x1="3.5"
       y1="41.458683"
       x2="3.5"
       y2="8.7043705"
       gradientUnits="userSpaceOnUse"
       gradientTransform="translate(0,0.5)" />
  </defs>
  <sodipodi:namedview
     id="namedview5"
     pagecolor="#ffffff"
     bordercolor="#000000"
     borderopacity="0.25"
     inkscape:showpageshadow="2"
     inkscape:pageopacity="0.0"
     inkscape:pagecheckerboard="0"
     inkscape:deskcolor="#d1d1d1"
     inkscape:zoom="12.078125"
     inkscape:cx="35.063389"
     inkscape:cy="31.917206"
     inkscape:window-width="1920"
     inkscape:window-height="998"
     inkscape:window-x="0"
     inkscape:window-y="0"
     inkscape:window-maximized="1"
     inkscape:current-layer="svg5" />
  <g
     id="g4">
    <rect
       style="opacity:0.2;stroke-width:0.9823"
       width="55"
       height="55.017544"
       x="3.5"
       y="4.4824557"
       rx="16.5"
       ry="16.505262"
       id="rect1" />
    <rect
       style="fill:url(#linearGradient2);fill-opacity:1;stroke-width:0.9823"
       width="55"
       height="55.017544"
       x="3.5"
       y="3.5"
       rx="16.5"
       ry="16.505262"
       id="rect2" />
    <path
       style="opacity:0.1;fill:#ffffff;stroke-width:0.9823"
       d="M 20.000767,3.5 C 10.859768,3.5 3.4999999,10.862116 3.4999999,20.00603 v 0.982457 c 0,-9.143915 7.3597681,-16.5060308 16.5007671,-16.5060308 H 41.999233 C 51.140232,4.4824562 58.5,11.844572 58.5,20.988487 V 20.00603 C 58.5,10.862116 51.140232,3.5 41.999233,3.5 Z"
       id="path4" />
    <path
       style="fill:#00d455;stroke-width:0.651574"
       d="m 17.76596,4.6 c -0.12377,0 -0.242623,0.02281 -0.356713,0.063583 -0.0074,0.00247 -0.01371,0.00821 -0.021,0.011137 C 17.278131,4.716569 17.171852,4.772248 17.072,4.8441458 L 36.589481,41.109704 42.278955,37.255216 23.986006,4.6000513 Z m 13.475792,0 15.684986,29.300485 V 18.58841 L 38.239755,4.6 Z"
       id="path2" />
    <path
       style="opacity:0.2"
       d="m 16.431027,24.658787 a 5.5030486,6.515336 27.901115 0 0 -5.73047,4.179688 5.5030486,6.515336 27.901115 0 0 2.41406,8.0625 5.5030486,6.515336 27.901115 0 0 7.24219,-2.867188 6.9237028,8.053442 56.175379 0 0 3.49218,8.8125 6.9237028,8.053442 56.175379 0 0 9.308604,-2.777342 6.9237028,8.0534418 22.173138 0 0 0.043,1.085936 6.9237028,8.0534418 22.173138 0 0 7.90625,5.914064 6.9237028,8.0534418 22.173138 0 0 5.79297,-5.777344 5.3467336,6.4723616 23.444494 0 0 2.79687,3.609374 5.3467336,6.4723616 23.444494 0 0 7.48047,-3.808594 5.3467336,6.4723616 23.444494 0 0 -2.32812,-8.066406 5.3467336,6.4723616 23.444494 0 0 -7.48047,3.8125 5.3467336,6.4723616 23.444494 0 0 -0.14062,0.347656 6.9237028,8.0534418 22.173138 0 0 -7.84766,-5.515624 6.9237028,8.0534418 22.173138 0 0 -4.24219,2.847656 6.9237028,8.053442 56.175379 0 0 -4.10937,-5.402344 6.9237028,8.053442 56.175379 0 0 -10.117194,3.871094 5.5030486,6.515336 27.901115 0 0 -2.46094,-7.960938 5.5030486,6.515336 27.901115 0 0 -2.01953,-0.367188 z"
       id="path4-6" />
    <ellipse
       style="fill:#f3f3f3;fill-opacity:1"
       cx="26.531776"
       cy="21.233658"
       rx="5.5100002"
       ry="6.5100002"
       transform="matrix(0.92245449,0.38610584,-0.40983581,0.91215931,0,0)"
       id="ellipse4" />
    <ellipse
       style="fill:#f3f3f3;fill-opacity:1"
       cx="40.901699"
       cy="23.847681"
       rx="7.2649999"
       ry="7.7470002"
       transform="matrix(0.94096018,0.33851726,-0.46326751,0.88621849,0,0)"
       id="ellipse5" />
    <ellipse
       style="fill:#f2f2f2;fill-opacity:1"
       cx="36.046665"
       cy="47.519081"
       rx="7.2649999"
       ry="7.7470002"
       transform="matrix(0.9693782,-0.24557261,0.11153977,0.99375997,0,0)"
       id="ellipse6" />
    <ellipse
       style="fill:#f2f2f2;fill-opacity:1"
       cx="63.062756"
       cy="14.033545"
       rx="5.3470001"
       ry="6.4720001"
       transform="rotate(23.444494)"
       id="ellipse7" />
    <path
       style="fill:#ffcc00"
       d="m 36.990969,11.92049 c -13.024724,3.598499 -12.117794,8.16247 -23.555264,8.013016 -2.51491,2.78e-4 -4.7565,1.114358 -6.21636,2.853966 -1.682754,1.856132 -1.147002,5.191012 -0.945744,6.983894 0.621784,0.2551 2.527114,-1.843942 3.159214,-1.603579 10.13425,3.853622 25.802614,8.496578 37.754714,9.752703 4.00598,0.421014 7.29664,-0.34013 10.14721,-1.080284 3.104475,-0.355466 4.656835,-3.167306 4.696865,-5.808758 4.9e-4,-4.20713 -3.567555,-7.21847 -7.969465,-7.218958 -6.22295,-1.115792 -7.50059,-11.482653 -17.07117,-11.892 z"
       id="path7" />
    <path
       style="fill:#2d3d53;fill-opacity:1"
       d="m 28.503475,20.420533 c -0.34267,0.004 -0.61682,0.286558 -0.61148,0.630178 0.2079,2.90676 -1.26467,2.719452 -2.70935,2.719452 -0.0209,-0.0011 -0.0419,-0.0011 -0.0628,0 -0.82497,0.04202 -0.76213,1.282974 0.0628,1.240964 1.43446,0 2.70935,0.02932 2.70935,2.780046 -0.0118,0.839089 1.24929,0.839089 1.23746,0 -0.21334,-2.97416 1.311454,-2.780046 2.774614,-2.780046 0.83672,0.0118 0.83672,-1.25283 0,-1.240964 -2.0977,0 -2.774614,0.04882 -2.774614,-2.719452 0.006,-0.349316 -0.27763,-0.634276 -0.62598,-0.630178 z"
       id="path8" />
    <path
       style="fill:#2d3d53;fill-opacity:1"
       d="m 41.503479,20.420533 c -0.34267,0.004 -0.61682,0.286558 -0.61148,0.630178 0.2079,2.90676 -1.26467,2.719452 -2.70935,2.719452 -0.0209,-0.0011 -0.0419,-0.0011 -0.0628,0 -0.82497,0.04202 -0.76213,1.282974 0.0628,1.240964 1.43446,0 2.70935,0.02932 2.70935,2.780046 -0.0118,0.839089 1.24929,0.839089 1.23746,0 -0.21334,-2.97416 1.31145,-2.780046 2.77461,-2.780046 0.83672,0.0118 0.83672,-1.25283 0,-1.240964 -2.0977,0 -2.77461,0.04882 -2.77461,-2.719452 0.006,-0.349316 -0.27763,-0.634276 -0.62598,-0.630178 z"
       id="path9" />
    <path
       style="opacity:0.1;stroke-width:0.544545"
       d="m 24.48418,46.681553 c -1.296163,0.0044 -1.99618,1.521384 -1.15843,2.510441 L 31,58.517544 h 3.94881 L 25.67983,47.253328 c -0.290559,-0.36288 -0.73078,-0.573399 -1.19565,-0.571775 z m 18.79847,4.176624 c -1.296169,0.0044 -1.9962,1.521373 -1.15845,2.510437 L 45.848,58.103 c 0.77116,-0.07739 3.664182,-1.110181 2.872,-1.110181 v 0 l -4.24168,-5.561383 c -0.290268,-0.363441 -0.730542,-0.574529 -1.19567,-0.573259 z m -22.744301,0.580705 c -1.296161,0.0044 -1.996178,1.521379 -1.158433,2.510437 l 3.758204,4.568225 h 3.9503 l -5.352894,-6.505401 c -0.290597,-0.363857 -0.731521,-0.574991 -1.197177,-0.573261 z m 15.549491,0 c -1.29614,0.0044 -1.996122,1.521395 -1.15839,2.510437 l 3.75821,4.568225 h 3.94881 l -5.3529,-6.505401 c -0.290281,-0.363459 -0.730581,-0.574549 -1.19573,-0.573261 z"
       id="path10"
       sodipodi:nodetypes="cccccccccsccccccccccccccc" />
    <path
       style="opacity:0.2;fill:#ffffff"
       d="m 36.992539,11.92049 c -13.024724,3.598499 -12.121124,8.161173 -23.558594,8.011719 -2.51491,2.78e-4 -4.75498,1.11586 -6.21484,2.855469 -1.024479,1.130028 -1.199459,2.790164 -1.152348,4.332031 0.0651,-1.227692 0.348813,-2.445712 1.152348,-3.332031 1.45986,-1.739609 3.69993,-2.855191 6.21484,-2.855469 11.43747,0.149455 10.53387,-4.413219 23.558594,-8.011718 9.57058,0.409346 10.84737,10.774834 17.07032,11.890624 4.20737,4.68e-4 7.643605,2.755098 7.939445,6.671875 0.0154,-0.149797 0.0293,-0.299385 0.0293,-0.453125 4.9e-4,-4.20713 -3.566835,-7.21826 -7.968745,-7.21875 -6.22295,-1.11579 -7.49974,-11.481278 -17.07032,-11.890625 z"
       id="path11" />
  </g>
</svg>
