<?xml version="1.0" encoding="UTF-8" standalone="no"?>
<svg
   width="62"
   height="62"
   version="1"
   id="svg4"
   sodipodi:docname="mame.svg"
   inkscape:version="1.4 (unknown)"
   xmlns:inkscape="http://www.inkscape.org/namespaces/inkscape"
   xmlns:sodipodi="http://sodipodi.sourceforge.net/DTD/sodipodi-0.dtd"
   xmlns:xlink="http://www.w3.org/1999/xlink"
   xmlns="http://www.w3.org/2000/svg"
   xmlns:svg="http://www.w3.org/2000/svg">
  <defs
     id="defs4">
    <linearGradient
       id="linearGradient4"
       inkscape:collect="always">
      <stop
         style="stop-color:#f4f2f1;stop-opacity:1;"
         offset="0"
         id="stop4" />
      <stop
         style="stop-color:#f2f2f2;stop-opacity:1;"
         offset="0.32338357"
         id="stop6" />
      <stop
         style="stop-color:#c8b2ea;stop-opacity:1;"
         offset="0.32727271"
         id="stop7" />
      <stop
         style="stop-color:#90bcff;stop-opacity:1;"
         offset="1"
         id="stop5" />
    </linearGradient>
    <linearGradient
       inkscape:collect="always"
       xlink:href="#linearGradient4"
       id="linearGradient5"
       x1="29.5"
       y1="58"
       x2="29.5"
       y2="3"
       gradientUnits="userSpaceOnUse"
       gradientTransform="translate(0.5)" />
    <linearGradient
       xlink:href="#a"
       id="d"
       x1="55.867001"
       x2="68.871002"
       y1="20.605"
       y2="45.125"
       gradientTransform="matrix(0.56571,0,0,0.56571,-87.766479,-17.158)"
       gradientUnits="userSpaceOnUse" />
    <linearGradient
       id="a"
       x1="55.867001"
       x2="68.871002"
       y1="20.605"
       y2="45.125"
       gradientUnits="userSpaceOnUse">
      <stop
         offset="0"
         stop-color="#67554b"
         id="stop1" />
      <stop
         offset=".179"
         stop-color="#77767b"
         id="stop2" />
      <stop
         offset=".801"
         stop-color="#241f31"
         id="stop3" />
      <stop
         offset="1"
         stop-color="#5e5c64"
         id="stop4-7" />
    </linearGradient>
    <clipPath
       id="e">
      <rect
         width="56.001999"
         height="56.001999"
         x="4"
         y="3.9690001"
         fill="url(#b)"
         stroke-width="3.78"
         opacity="0.412"
         rx="13.002"
         ry="13.002"
         id="rect9" />
    </clipPath>
    <linearGradient
       id="b"
       x1="7.9369998"
       x2="7.9369998"
       y1="15.081"
       y2="1.852"
       gradientTransform="scale(3.7796)"
       gradientUnits="userSpaceOnUse">
      <stop
         offset="0"
         stop-color="#363636"
         id="stop5-5" />
      <stop
         offset="1"
         stop-color="#6c6c6c"
         id="stop6-3" />
    </linearGradient>
    <radialGradient
       id="paint750_radial_890_11-0"
       cx="0"
       cy="0"
       r="1"
       gradientUnits="userSpaceOnUse"
       gradientTransform="matrix(5.2235266,5.2941199,-5.2235266,5.2941199,19.600436,48.216578)">
      <stop
         offset="0.340843"
         stop-color="#2E2E41"
         id="stop2243-7" />
      <stop
         offset="1"
         stop-color="#566C80"
         id="stop2244-6" />
    </radialGradient>
    <linearGradient
       id="paint751_linear_890_11-3"
       x1="166"
       y1="90"
       x2="178"
       y2="102"
       gradientUnits="userSpaceOnUse"
       gradientTransform="matrix(0.92499929,0,0,0.93750008,-139.49945,-41.783429)">
      <stop
         stop-color="white"
         id="stop2245-7" />
      <stop
         offset="0.705"
         stop-color="#EAEFEF"
         id="stop2246-6" />
    </linearGradient>
    <linearGradient
       id="paint752_linear_890_11-1"
       x1="193"
       y1="88"
       x2="199"
       y2="94"
       gradientUnits="userSpaceOnUse"
       gradientTransform="matrix(0.92499929,0,0,0.93750008,-139.49945,-41.783429)">
      <stop
         stop-color="#FFE607"
         id="stop2247-5" />
      <stop
         offset="0.802569"
         stop-color="#FF7E07"
         id="stop2248-0" />
    </linearGradient>
    <linearGradient
       id="paint753_linear_890_11-6"
       x1="199"
       y1="104"
       x2="193"
       y2="98"
       gradientUnits="userSpaceOnUse"
       gradientTransform="matrix(0.92499929,0,0,0.93750008,-139.49945,-41.783429)">
      <stop
         offset="0.253846"
         stop-color="#089953"
         id="stop2249-5" />
      <stop
         offset="1"
         stop-color="#16D96F"
         id="stop2250-0" />
    </linearGradient>
    <linearGradient
       id="paint754_linear_890_11-8"
       x1="198"
       y1="93"
       x2="204"
       y2="99"
       gradientUnits="userSpaceOnUse"
       gradientTransform="matrix(0.92499929,0,0,0.93750008,-139.49945,-41.783429)">
      <stop
         offset="0.30755"
         stop-color="#F15700"
         id="stop2251-1" />
      <stop
         offset="0.832479"
         stop-color="#FF0000"
         id="stop2252-2" />
    </linearGradient>
    <linearGradient
       id="paint755_linear_890_11-2"
       x1="194"
       y1="99"
       x2="188"
       y2="93"
       gradientUnits="userSpaceOnUse"
       gradientTransform="matrix(0.92499929,0,0,0.93750008,-139.49945,-41.783429)">
      <stop
         offset="0.320751"
         stop-color="#5200FF"
         id="stop2253-6" />
      <stop
         offset="1"
         stop-color="#0085FF"
         id="stop2254-9" />
    </linearGradient>
  </defs>
  <sodipodi:namedview
     id="namedview4"
     pagecolor="#ffffff"
     bordercolor="#000000"
     borderopacity="0.25"
     inkscape:showpageshadow="2"
     inkscape:pageopacity="0.0"
     inkscape:pagecheckerboard="0"
     inkscape:deskcolor="#d1d1d1"
     inkscape:zoom="11.6875"
     inkscape:cx="28.877005"
     inkscape:cy="39.144385"
     inkscape:window-width="1920"
     inkscape:window-height="998"
     inkscape:window-x="0"
     inkscape:window-y="0"
     inkscape:window-maximized="1"
     inkscape:current-layer="svg4"
     showgrid="false">
    <inkscape:grid
       id="grid1"
       units="px"
       originx="0"
       originy="0"
       spacingx="1"
       spacingy="1"
       empcolor="#0099e5"
       empopacity="0.30196078"
       color="#0099e5"
       opacity="0.14901961"
       empspacing="5"
       enabled="true"
       visible="false" />
  </sodipodi:namedview>
  <rect
     style="opacity:0.2;stroke-width:0.948712"
     width="55"
     height="55.050846"
     x="3.5"
     y="3.9491525"
     rx="16.500004"
     ry="16.515257"
     id="rect1" />
  <rect
     style="fill:url(#linearGradient5);stroke-width:0.948712"
     width="55"
     height="55.050846"
     x="3.5"
     y="3"
     rx="16.500004"
     ry="16.515257"
     id="rect2" />
  <path
     style="opacity:0.1;fill:#ffffff;stroke-width:0.948712"
     d="M 19.998518,3 C 10.857511,3 3.5,10.364313 3.5,19.51377 v 0.949151 C 3.5,11.313473 10.857511,3.9491529 19.998518,3.9491529 h 22.002961 c 9.140995,0 16.498516,7.3643211 16.498516,16.5137681 V 19.51377 C 58.499995,10.364313 51.142474,3 42.001479,3 Z"
     id="path4" />
  <g
     id="g1"
     transform="matrix(0.99922166,0,0,1.0079051,2.266948,-1.8027506)">
    <path
       style="opacity:0.2;fill-rule:evenodd;stroke-width:0.64872"
       d="m 34.892303,11.862822 -24.65128,24.65128 h 9.730766 L 31,25.485898 V 36.514102 L 41.379486,26.134616 v 10.379486 l 5.890358,-5.890357 -0.05188,-18.760923 -12.325641,12.325637 z"
       id="path1" />
    <path
       style="fill:#2b87d8;fill-rule:evenodd;stroke-width:0.64872"
       d="m 34.892303,11.214102 -24.65128,24.65128 h 9.730766 L 31,24.837179 V 35.865382 L 41.379486,25.485898 v 10.379484 l 5.890358,-5.890355 -0.0519,-18.760925 -12.325643,12.325643 z"
       id="path2" />
    <path
       style="opacity:0.2;fill:#ffffff;fill-rule:evenodd;stroke-width:0.64872"
       d="m 34.892303,11.214102 -24.65128,24.65128 h 0.648718 l 24.002562,-24.00256 z m 12.325643,0 -12.325643,12.325643 v 0.648714 L 47.217946,11.862822 Z"
       id="path3" />
  </g>
  <g
     id="g2"
     transform="translate(0.29954846,0.783422)">
    <path
       d="m 27.000442,48.216578 c 0,4.141875 -3.313358,7.5 -7.40001,7.5 -4.086625,0 -7.399981,-3.358125 -7.399981,-7.5 0,-4.142166 3.313356,-7.5 7.399981,-7.5 4.086652,0 7.40001,3.357834 7.40001,7.5 z"
       id="path730"
       style="fill:url(#paint750_radial_890_11-0);stroke-width:0.931224" />
    <path
       d="m 21.450441,43.841549 c 0,-0.690278 -0.552222,-1.249972 -1.233015,-1.249972 h -1.23396 c -0.680793,0 -1.233028,0.559694 -1.233028,1.249972 0,1.380751 -1.104446,2.500029 -2.466963,2.500029 -0.680799,0 -1.233028,0.559694 -1.233028,1.249971 v 1.250057 c 0,0.690277 0.552229,1.249972 1.233028,1.249972 1.362517,0 2.466963,1.119278 2.466963,2.500305 0,0.690002 0.552235,1.249694 1.233028,1.249694 h 1.23396 c 0.680793,0 1.233015,-0.559692 1.233015,-1.249694 0,-1.381027 1.104456,-2.500305 2.466976,-2.500305 0.680794,0 1.233029,-0.559695 1.233029,-1.249972 v -1.250057 c 0,-0.690277 -0.552235,-1.249971 -1.233029,-1.249971 -1.36252,0 -2.466976,-1.119278 -2.466976,-2.500029 z"
       id="path731"
       style="fill:url(#paint751_linear_890_11-3);stroke-width:0.931224" />
    <ellipse
       cx="41.800426"
       cy="43.529106"
       id="circle731"
       style="fill:url(#paint752_linear_890_11-1);stroke-width:0.931224"
       rx="2.7749951"
       ry="2.8125017" />
    <ellipse
       cx="41.800426"
       cy="52.90406"
       id="circle732"
       style="fill:url(#paint753_linear_890_11-6);stroke-width:0.931224"
       rx="2.7749951"
       ry="2.8125017" />
    <ellipse
       cx="46.425457"
       cy="48.216557"
       id="circle733"
       style="fill:url(#paint754_linear_890_11-8);stroke-width:0.931224"
       rx="2.7749951"
       ry="2.8125017" />
    <ellipse
       cx="37.175407"
       cy="48.216557"
       id="circle734"
       style="fill:url(#paint755_linear_890_11-2);stroke-width:0.931224"
       rx="2.7749951"
       ry="2.8125017" />
  </g>
</svg>
