<?xml version="1.0" encoding="UTF-8" standalone="no"?>
<svg
   width="62"
   height="62"
   version="1"
   id="svg7"
   sodipodi:docname="manjaro-architect.svg"
   inkscape:version="1.4 (unknown)"
   xmlns:inkscape="http://www.inkscape.org/namespaces/inkscape"
   xmlns:sodipodi="http://sodipodi.sourceforge.net/DTD/sodipodi-0.dtd"
   xmlns="http://www.w3.org/2000/svg"
   xmlns:svg="http://www.w3.org/2000/svg">
  <defs
     id="defs7" />
  <sodipodi:namedview
     id="namedview7"
     pagecolor="#ffffff"
     bordercolor="#000000"
     borderopacity="0.25"
     inkscape:showpageshadow="2"
     inkscape:pageopacity="0.0"
     inkscape:pagecheckerboard="0"
     inkscape:deskcolor="#d1d1d1"
     inkscape:zoom="5"
     inkscape:cx="45.1"
     inkscape:cy="57.9"
     inkscape:window-width="1920"
     inkscape:window-height="998"
     inkscape:window-x="0"
     inkscape:window-y="0"
     inkscape:window-maximized="1"
     inkscape:current-layer="svg7" />
  <g
     id="g7"
     transform="translate(0,-0.5)">
    <path
       style="opacity:0.2"
       d="m 11,14 v 2 H 8 v 2 h 3 v 6 H 8 v 2 h 3 v 2 h 2 v -2 h 4 v 2 h 2 v -2 h 3 v -2 h -3 v -6 h 3 v -2 h -3 v -2 h -2 v 2 h -4 v -2 z m 2,4 h 4 v 6 h -4 z m 12,8 v 2 h 12 v -2 z"
       id="path1" />
    <rect
       style="fill:#4f4f4f"
       width="48"
       height="56"
       x="-55"
       y="-59"
       rx="3"
       ry="3"
       transform="matrix(0,-1,-1,0,0,0)"
       id="rect1" />
    <path
       style="opacity:0.2"
       d="m 11,14 v 2 H 8 v 2 h 3 v 6 H 8 v 2 h 3 v 2 h 2 v -2 h 4 v 2 h 2 v -2 h 3 v -2 h -3 v -6 h 3 v -2 h -3 v -2 h -2 v 2 h -4 v -2 z m 2,4 h 4 v 6 h -4 z m 12,8 v 2 h 12 v -2 z"
       id="path2" />
    <path
       style="fill:#ffffff"
       d="m 11,13 v 2 H 8 v 2 h 3 v 6 H 8 v 2 h 3 v 2 h 2 v -2 h 4 v 2 h 2 v -2 h 3 v -2 h -3 v -6 h 3 v -2 h -3 v -2 h -2 v 2 h -4 v -2 z m 2,4 h 4 v 6 h -4 z m 12,8 v 2 h 12 v -2 z"
       id="path3" />
    <path
       style="opacity:0.1;fill:#ffffff"
       d="M 6,7 C 4.338,7 3,8.338 3,10 v 1 C 3,9.338 4.338,8 6,8 h 50 c 1.662,0 3,1.338 3,3 V 10 C 59,8.338 57.662,7 56,7 Z"
       id="path4" />
    <path
       style="opacity:0.2"
       d="m 3,52 v 1 c 0,1.662 1.338,3 3,3 h 50 c 1.662,0 3,-1.338 3,-3 v -1 c 0,1.662 -1.338,3 -3,3 H 6 C 4.338,55 3,53.662 3,52 Z"
       id="path5" />
  </g>
  <g
     id="g8"
     transform="translate(-68.199977,4.5)">
    <ellipse
       style="fill:#16a086;stroke-width:0.909242"
       cx="115.74998"
       cy="42.045456"
       id="circle5"
       rx="14.55"
       ry="14.545456" />
    <path
       style="fill:#ffffff;stroke-width:0.909242"
       d="m 115.71914,49.31819 -5.4249,-7.27274 h 3.63724 v -7.27271 h 3.63753 v 7.27271 h 3.63754 z"
       id="path6" />
    <path
       style="opacity:0.2;stroke-width:0.909242"
       d="M 101.223,42.5 A 14.549994,14.547164 0 0 0 101.2,42.952836 14.549994,14.547164 0 0 0 115.75004,57.5 14.549994,14.547164 0 0 0 130.29999,42.952836 14.549994,14.547164 0 0 0 130.2839,42.50532 14.549994,14.547164 0 0 1 115.75004,56.590812 14.549994,14.547164 0 0 1 101.223,42.5 Z"
       id="path7" />
  </g>
</svg>
