<?xml version="1.0" encoding="UTF-8" standalone="no"?>
<svg
   width="62"
   height="62"
   version="1.1"
   id="svg5"
   sodipodi:docname="manyverse.svg"
   inkscape:version="1.4 (unknown)"
   xmlns:inkscape="http://www.inkscape.org/namespaces/inkscape"
   xmlns:sodipodi="http://sodipodi.sourceforge.net/DTD/sodipodi-0.dtd"
   xmlns:xlink="http://www.w3.org/1999/xlink"
   xmlns="http://www.w3.org/2000/svg"
   xmlns:svg="http://www.w3.org/2000/svg">
  <defs
     id="defs5">
    <linearGradient
       id="linearGradient5"
       inkscape:collect="always">
      <stop
         style="stop-color:#2a7fff;stop-opacity:1"
         offset="0"
         id="stop5" />
      <stop
         style="stop-color:#2ad4ff;stop-opacity:1"
         offset="1"
         id="stop6" />
    </linearGradient>
    <linearGradient
       inkscape:collect="always"
       xlink:href="#linearGradient5"
       id="linearGradient6"
       x1="31.5"
       y1="59.01754"
       x2="31.5"
       y2="4.9824562"
       gradientUnits="userSpaceOnUse"
       gradientTransform="translate(-0.5,-1)" />
  </defs>
  <sodipodi:namedview
     id="namedview5"
     pagecolor="#ffffff"
     bordercolor="#000000"
     borderopacity="0.25"
     inkscape:showpageshadow="2"
     inkscape:pageopacity="0.0"
     inkscape:pagecheckerboard="0"
     inkscape:deskcolor="#d1d1d1"
     inkscape:zoom="7.0710678"
     inkscape:cx="23.688077"
     inkscape:cy="30.334881"
     inkscape:window-width="1920"
     inkscape:window-height="998"
     inkscape:window-x="0"
     inkscape:window-y="0"
     inkscape:window-maximized="1"
     inkscape:current-layer="svg5" />
  <path
     style="opacity:0.2;stroke-width:0.982303"
     d="M 31,3.982456 A 27.5,27.50877 0 0 0 3.5,31.49123 27.5,27.50877 0 0 0 31,59 27.5,27.50877 0 0 0 58.5,31.49123 27.5,27.50877 0 0 0 31,3.982456 Z"
     id="path1" />
  <path
     style="fill:url(#linearGradient6);stroke-width:0.982303"
     d="M 31,3 A 27.5,27.50877 0 0 0 3.5,30.50877 27.5,27.50877 0 0 0 31,58.01754 27.5,27.50877 0 0 0 58.5,30.50877 27.5,27.50877 0 0 0 31,3 Z"
     id="path2" />
  <path
     style="opacity:0.2;fill:#ffffff;stroke-width:0.982303"
     d="M 31,3 A 27.5,27.50877 0 0 0 3.5,30.50877 27.5,27.50877 0 0 0 3.5211007,30.90789 27.5,27.50877 0 0 1 31,3.982456 27.5,27.50877 0 0 1 58.478903,31.076755 27.5,27.50877 0 0 0 58.5,30.50877 27.5,27.50877 0 0 0 31,3 Z"
     id="path5" />
  <g
     id="g1"
     transform="translate(7,-44.9915)">
    <path
       style="opacity:0.2"
       d="m 11.601562,60.000541 c -0.858332,0 -1.668207,0.333979 -2.210937,0.816406 -0.54273,0.482427 -0.842281,1.054677 -1.03125,1.558594 C 7.981438,63.383375 8,64.301323 8,64.301323 v 20.246094 a 4,4 0 0 0 -2,3.453124 4,4 0 0 0 4,4 4,4 0 0 0 4,-4 4,4 0 0 0 -3,-3.871094 V 64.301323 c 0,0 0.02091,-0.482836 0.167968,-0.875 0.07353,-0.19608 0.16695,-0.324616 0.214844,-0.367188 0.04789,-0.04258 0.02708,-0.0586 0.21875,-0.0586 0.605954,0 0.706234,0.465184 0.707032,0.46875 0,0 0.004,0 0.004,0 l 8.167968,24.113282 a 1.50015,1.50015 0 0 0 0.07812,0.1875 c 0,0 1.041408,2.230468 3.441406,2.230468 2.399998,0 3.441406,-2.230468 3.441406,-2.230468 a 1.50015,1.50015 0 0 0 0.07812,-0.1875 l 8.199218,-24.195314 v -0.004 c 6.64e-4,-0.0018 0.02622,-0.06282 0.13672,-0.1836 0.11202,-0.12244 0.15912,-0.207056 0.51172,-0.19922 a 1.50015,1.50015 0 0 0 0.03126,0 c 0.19166,0 0.17086,0.016 0.21875,0.0586 0.0479,0.04258 0.14132,0.1711 0.214844,0.367188 0.14706,0.392158 0.16796,0.875 0.16796,0.875 v 19.83203 A 4,4 0 0 0 34,88.000541 a 4,4 0 0 0 4,4 4,4 0 0 0 4,-4 4,4 0 0 0 -2,-3.460938 v -20.23828 c 0,0 0.0186,-0.917948 -0.359376,-1.925782 -0.188968,-0.503917 -0.488516,-1.076167 -1.031248,-1.558594 -0.537888,-0.478122 -1.341614,-0.802702 -2.191408,-0.808594 -1.24289,-0.02036 -2.243848,0.584864 -2.777344,1.167969 -0.53658,0.58648 -0.757812,1.234375 -0.757812,1.234375 a 1.50015,1.50015 0 0 0 -0.004,0.0078 l -8.14053,24.027356 C 24.7201,86.474381 24.389456,87.000541 24,87.000541 c -0.389456,0 -0.7201,-0.52616 -0.738282,-0.554688 L 15.121094,62.418509 a 1.50015,1.50015 0 0 0 -0.03516,-0.08594 c 8e-6,4e-6 -1.041014,-2.332028 -3.484372,-2.332028 z"
       id="path2-6" />
    <circle
       fill="#ffffff"
       cx="38"
       cy="87.000542"
       r="4"
       id="circle3" />
    <circle
       fill="#ffffff"
       cx="10"
       cy="87.000542"
       r="4"
       id="circle4" />
    <path
       stroke="#ffffff"
       stroke-linecap="round"
       stroke-linejoin="round"
       stroke-width="1.4"
       style="fill:none;stroke-width:3"
       d="m 9.5,84.800541 v -21.5 c 0,0 0,-2.8 2.1,-2.8 1.525822,0 2.1,1.4 2.1,1.4 l 8.2,24.2 c 0,0 0.7,1.4 2.1,1.4 1.4,0 2.1,-1.4 2.1,-1.4 l 8.2,-24.2 c 0,0 0.49443,-1.43569 2.1,-1.4 2.1,0 2.1,2.8 2.1,2.8 v 21.5"
       id="path4-7" />
  </g>
</svg>
