<?xml version="1.0" encoding="UTF-8" standalone="no"?>
<svg
   width="62"
   height="62"
   version="1.1"
   id="svg29"
   sodipodi:docname="maple.svg"
   inkscape:version="1.4.1 (unknown)"
   xml:space="preserve"
   xmlns:inkscape="http://www.inkscape.org/namespaces/inkscape"
   xmlns:sodipodi="http://sodipodi.sourceforge.net/DTD/sodipodi-0.dtd"
   xmlns:xlink="http://www.w3.org/1999/xlink"
   xmlns="http://www.w3.org/2000/svg"
   xmlns:svg="http://www.w3.org/2000/svg"><defs
     id="defs29"><linearGradient
       id="linearGradient29"
       inkscape:collect="always"><stop
         style="stop-color:#d3dce7;stop-opacity:1;"
         offset="0"
         id="stop29" /><stop
         style="stop-color:#eef1f6;stop-opacity:1;"
         offset="1"
         id="stop30" /></linearGradient><linearGradient
       inkscape:collect="always"
       xlink:href="#linearGradient29"
       id="linearGradient30"
       x1="30.782633"
       y1="60"
       x2="30.193521"
       y2="5"
       gradientUnits="userSpaceOnUse"
       gradientTransform="matrix(0.98214286,0,0,0.98245614,-0.42857152,-0.92982455)" /><linearGradient
       id="linearGradient3564"><stop
         style="stop-color:#b20607;stop-opacity:1;"
         offset="0"
         id="stop3566" /><stop
         style="stop-color:#b20607;stop-opacity:0;"
         offset="1"
         id="stop3568" /></linearGradient><linearGradient
       id="linearGradient3570"><stop
         style="stop-color:#fdea20;stop-opacity:1;"
         offset="0"
         id="stop3572" /><stop
         style="stop-color:#e9680a;stop-opacity:1;"
         offset="1"
         id="stop3574" /></linearGradient><linearGradient
       id="linearGradient3409"><stop
         style="stop-color:#fbd90a;stop-opacity:1;"
         offset="0"
         id="stop3411" /><stop
         id="stop3413"
         offset="0.3980374"
         style="stop-color:#fbd90a;stop-opacity:1;" /><stop
         style="stop-color:#df500a;stop-opacity:1;"
         offset="1"
         id="stop3415" /></linearGradient><linearGradient
       id="linearGradient4029"><stop
         style="stop-color:#fbd90a;stop-opacity:1;"
         offset="0"
         id="stop4031" /><stop
         id="stop4033"
         offset="0.40341854"
         style="stop-color:#fbd90a;stop-opacity:1;" /><stop
         style="stop-color:#df500a;stop-opacity:1;"
         offset="1"
         id="stop4035" /></linearGradient><linearGradient
       id="linearGradient3355"><stop
         id="stop3357"
         offset="0"
         style="stop-color:#fbd90a;stop-opacity:1;" /><stop
         style="stop-color:#fbd90a;stop-opacity:1;"
         offset="0.61271751"
         id="stop3359" /><stop
         id="stop3361"
         offset="1"
         style="stop-color:#df500a;stop-opacity:1;" /></linearGradient><linearGradient
       id="linearGradient3323"><stop
         style="stop-color:#fbd90a;stop-opacity:1;"
         offset="0"
         id="stop3325" /><stop
         id="stop3345"
         offset="0.67312354"
         style="stop-color:#fbd90a;stop-opacity:1;" /><stop
         style="stop-color:#df500a;stop-opacity:1;"
         offset="1"
         id="stop3327" /></linearGradient><linearGradient
       id="linearGradient3681"><stop
         style="stop-color:#b3b3b3;stop-opacity:1;"
         offset="0"
         id="stop3683" /><stop
         style="stop-color:#ffffff;stop-opacity:1;"
         offset="1"
         id="stop3685" /></linearGradient><linearGradient
       id="a"
       x1="34.495998"
       x2="34.495998"
       y1="49.313999"
       y2="11.31"
       gradientUnits="userSpaceOnUse"
       gradientTransform="matrix(0.9999,0,0,0.9999,-13.492051,52.691906)"><stop
         offset="0"
         stop-color="#aef4f4"
         id="stop3" /><stop
         offset="1"
         stop-color="#a2ddef"
         id="stop4" /></linearGradient><linearGradient
       id="b"
       x1="32"
       x2="32"
       y1="50.998001"
       y2="12.999"
       gradientTransform="matrix(1.4999,0,0,1.4999,-591.80905,-702.63909)"
       gradientUnits="userSpaceOnUse"><stop
         offset="0"
         stop-color="#1db7f3"
         id="stop1" /><stop
         offset="1"
         stop-color="#2274d5"
         id="stop2" /></linearGradient><filter
       id="c"
       width="1.1579167"
       height="1.1112607"
       x="-0.078958346"
       y="-0.055630359"
       color-interpolation-filters="sRGB"><feGaussianBlur
         stdDeviation=".68"
         id="feGaussianBlur4" /></filter></defs><sodipodi:namedview
     id="namedview29"
     pagecolor="#ffffff"
     bordercolor="#000000"
     borderopacity="0.25"
     inkscape:showpageshadow="2"
     inkscape:pageopacity="0.0"
     inkscape:pagecheckerboard="0"
     inkscape:deskcolor="#d1d1d1"
     inkscape:zoom="7.0710678"
     inkscape:cx="20.576807"
     inkscape:cy="37.688792"
     inkscape:window-width="1920"
     inkscape:window-height="998"
     inkscape:window-x="0"
     inkscape:window-y="0"
     inkscape:window-maximized="1"
     inkscape:current-layer="svg29" /><rect
     style="opacity:0.2;stroke-width:0.9823"
     width="55"
     height="55.017544"
     x="3.5"
     y="3.9824562"
     ry="13.754386"
     id="rect1" /><rect
     style="fill:url(#linearGradient30);stroke-width:0.9823"
     width="55"
     height="55.017544"
     x="3.5"
     y="3"
     ry="13.754386"
     id="rect2" /><path
     style="opacity:0.1;fill:#ffffff;stroke-width:0.9823"
     d="M 17.25,3 C 9.6324999,3 3.4999999,9.1344561 3.4999999,16.754386 v 0.982456 c 0,-7.61993 6.1325,-13.7543858 13.7500001,-13.7543858 h 27.5 c 7.6175,0 13.75,6.1344558 13.75,13.7543858 V 16.754386 C 58.5,9.1344561 52.3675,3 44.75,3 Z"
     id="path28" /><g
     id="g2"
     transform="matrix(0.96428572,0,0,0.96428572,10.75,-70.240917)"><path
       style="opacity:0.1"
       d="m 7.083223,133.76806 c -0.257576,-2.90455 1.972279,-5.40842 2.853093,-8.09534 0.742966,-2.21011 3.481128,-5.35788 0.59689,-7.11638 -3.002052,-1.97546 -8.026153,-1.86514 -10.096692,-2.81699 -1.4534616,-2.50387 3.108454,-3.60255 3.897168,-5.71333 0.32717,-2.87511 -3.408788,-2.85439 -5.264202,-3.83342 -1.482299,-0.36567 -4.0240144,-1.90733 -1.1547326,-2.34779 3.5320646,-1.73349 -0.7435862,-5.059244 -2.073554,-6.869566 -1.0423952,-1.422606 -5.1560081,-4.896114 -1.0643458,-4.874662 3.2083534,-0.390483 6.4594164,-0.147559 9.6650314,-0.496395 2.179791,-0.385805 1.103669,-6.071648 3.48986,-2.814905 2.169123,2.339607 2.918077,6.432924 5.911551,7.504102 2.563602,0.91735 2.779456,-4.735186 3.319076,-7.096047 0.552518,-2.417318 0.8489,-5.786301 2.686958,-6.15734 1.323332,3.270444 4.427484,1.890228 6.33272,-0.01884 2.49912,-1.692383 4.753232,-3.895823 7.575168,-5.021157 1.618498,1.819125 0.767438,5.093925 1.179478,7.48259 -0.0755,2.524161 -0.08956,7.854724 3.716924,5.008556 3.405228,-1.189752 0.0584,3.160726 -0.747464,4.319138 -1.78607,2.806846 -3.89292,5.418146 -5.520632,8.318016 -1.107146,3.34611 4.195528,2.27002 6.170322,2.76286 1.737278,0.38603 5.409426,-0.29579 5.979978,1.04463 -2.548706,1.23178 -3.423792,4.23779 -1.02433,6.47699 1.774874,1.65634 4.747472,2.91604 5.488512,4.85471 -3.166042,1.9365 -6.973384,1.00979 -10.447304,1.43072 -1.402488,1.09458 0.859608,6.04281 -2.121796,3.73078 -2.363204,-1.07192 -5.295452,-4.50949 -7.656046,-2.47754 -2.082718,1.79278 -0.215402,5.42944 -1.523694,7.74787 -1.49671,-1.44205 -2.693888,-3.42554 -4.579154,-4.5481 -2.206742,-1.25285 -5.262828,-3.78439 -7.520994,-1.86426 -2.18725,1.85983 -2.590188,5.17736 -3.968146,7.69639 -0.931024,1.71912 -1.454152,4.90063 -4.099643,3.78471 z"
       id="path3" /><path
       style="fill:#014465;fill-opacity:1"
       d="m 7.083223,132.76806 c -0.257576,-2.90455 1.972279,-5.40842 2.853093,-8.09534 0.742966,-2.21011 3.481128,-5.35788 0.59689,-7.11638 -3.002052,-1.97546 -8.026153,-1.86514 -10.096692,-2.81699 -1.4534616,-2.50387 3.108454,-3.60255 3.897168,-5.71333 0.32717,-2.87511 -3.408788,-2.85439 -5.264202,-3.83342 -1.482299,-0.36567 -4.0240144,-1.90733 -1.1547326,-2.34779 3.5320646,-1.73349 -0.7435862,-5.059244 -2.073554,-6.869566 -1.0423952,-1.422606 -5.1560081,-4.896114 -1.0643458,-4.874662 3.2083534,-0.390483 6.4594164,-0.147559 9.6650314,-0.496395 2.179791,-0.385805 1.103669,-6.071648 3.48986,-2.814905 2.169123,2.339607 2.918077,6.432924 5.911551,7.504102 2.563602,0.91735 2.779456,-4.735186 3.319076,-7.096047 0.552518,-2.417318 0.8489,-5.786301 2.686958,-6.15734 1.323332,3.270444 4.427484,1.890228 6.33272,-0.01884 2.49912,-1.692383 4.753232,-3.895823 7.575168,-5.021157 1.618498,1.819125 0.767438,5.093925 1.179478,7.48259 -0.0755,2.524161 -0.08956,7.854725 3.716924,5.008556 3.405228,-1.189752 0.0584,3.160727 -0.747464,4.319138 -1.78607,2.806846 -3.89292,5.418144 -5.520632,8.318016 -1.107146,3.34611 4.195528,2.27002 6.170322,2.76286 1.737278,0.38603 5.409426,-0.29579 5.979978,1.04463 -2.548706,1.23178 -3.423792,4.23779 -1.02433,6.47699 1.774874,1.65634 4.747472,2.91604 5.488512,4.85471 -3.166042,1.9365 -6.973384,1.00979 -10.447304,1.43072 -1.402488,1.09458 0.859608,6.04281 -2.121796,3.73078 -2.363204,-1.07192 -5.295452,-4.50949 -7.656046,-2.47754 -2.082718,1.79278 -0.215402,5.42944 -1.523694,7.74787 -1.49671,-1.44205 -2.693888,-3.42554 -4.579154,-4.5481 -2.206742,-1.25285 -5.262828,-3.78439 -7.520994,-1.86426 -2.18725,1.85983 -2.590188,5.17736 -3.968146,7.69639 -0.931024,1.71912 -1.454152,4.90063 -4.099643,3.78471 z"
       id="path4" /></g></svg>
