<?xml version="1.0" encoding="UTF-8" standalone="no"?>
<svg
   width="62"
   height="62"
   version="1"
   id="svg13"
   sodipodi:docname="marktext.svg"
   inkscape:version="1.4 (unknown)"
   xmlns:inkscape="http://www.inkscape.org/namespaces/inkscape"
   xmlns:sodipodi="http://sodipodi.sourceforge.net/DTD/sodipodi-0.dtd"
   xmlns="http://www.w3.org/2000/svg"
   xmlns:svg="http://www.w3.org/2000/svg">
  <defs
     id="defs13" />
  <sodipodi:namedview
     id="namedview13"
     pagecolor="#ffffff"
     bordercolor="#000000"
     borderopacity="0.25"
     inkscape:showpageshadow="2"
     inkscape:pageopacity="0.0"
     inkscape:pagecheckerboard="0"
     inkscape:deskcolor="#d1d1d1"
     inkscape:zoom="5"
     inkscape:cx="25.7"
     inkscape:cy="50.7"
     inkscape:window-width="1920"
     inkscape:window-height="998"
     inkscape:window-x="0"
     inkscape:window-y="0"
     inkscape:window-maximized="1"
     inkscape:current-layer="svg13" />
  <g
     id="g13"
     transform="matrix(0.99992807,0,0,0.99941106,78.59659,16.01633)">
    <rect
       width="56.001999"
       height="56.001999"
       x="-75.599998"
       y="-13.024"
       rx="13.002"
       ry="13.002"
       id="rect1"
       style="fill:#3f3f3f;fill-opacity:1" />
    <path
       d="m -75.602,29.005 v 1 c 0,7.203 5.8,13.004 13.004,13.004 h 29.996 c 7.203,0 13.004,-5.8 13.004,-13.004 v -1 c 0,7.203 -5.8,13.002 -13.004,13.002 H -62.598 A 12.975,12.975 0 0 1 -75.602,29.005"
       opacity="0.35"
       id="path1" />
    <path
       fill="#ffffff"
       d="m -75.602,1.011 v -1 c 0,-7.203 5.8,-13.004 13.004,-13.004 h 29.996 c 7.203,0 13.004,5.8 13.004,13.004 v 1 c 0,-7.203 -5.8,-13.002 -13.004,-13.002 H -62.598 A 12.975,12.975 0 0 0 -75.602,1.011"
       opacity="0.15"
       id="path2" />
    <path
       d="m -65.6,8.571 h 4 v 9.056 l 2,1.131 v 8.213 l -6,-3.604 z"
       opacity="0.2"
       id="path3" />
    <path
       d="m -65.6,7.571 h 4 v 9.056 l 2,1.131 v 8.213 l -6,-3.604 z"
       id="path4"
       style="fill:#1174a1;fill-opacity:1" />
    <path
       d="m -37.6,19.668 -15.692,9.06 5.692,3.287 10,-5.776 z M -65.6,2 l 24.093,13.911 -6.112,3.526 -17.98,-10.382 z"
       opacity="0.2"
       id="path5" />
    <path
       d="m -57.6,19.668 v 6.57 l 10,5.774 5.692,-3.284 z"
       opacity="0.2"
       id="path6" />
    <path
       d="m -65.6,1 24.093,13.911 -6.112,3.526 -17.98,-10.382 z"
       id="path7"
       style="fill:#0ea9f1;fill-opacity:1" />
    <path
       d="m -29.6,8.571 h -4 v 9.056 l -2,1.131 v 8.213 l 6,-3.604 z"
       opacity="0.2"
       id="path8" />
    <path
       d="m -37.6,18.668 -15.692,9.06 5.692,3.287 10,-5.776 z"
       id="path9"
       style="fill:#0ea9f1;fill-opacity:1" />
    <path
       d="m -57.6,18.668 v 6.57 l 10,5.774 5.692,-3.284 z"
       id="path10"
       style="fill:#2bcdee;fill-opacity:1" />
    <path
       d="m -29.6,7.571 h -4 v 9.056 l -2,1.131 v 8.213 l 6,-3.604 z"
       id="path11"
       style="fill:#2096ac;fill-opacity:1" />
    <path
       d="m -29.6,2 -24.093,13.911 6.112,3.526 17.98,-10.382 z"
       opacity="0.2"
       id="path12" />
    <path
       d="m -29.6,1 -24.093,13.911 6.112,3.526 17.98,-10.382 z"
       id="path13"
       style="fill:#2bcdee;fill-opacity:1" />
  </g>
</svg>
