<?xml version="1.0" encoding="UTF-8" standalone="no"?>
<svg
   width="62"
   height="62"
   version="1.1"
   id="svg12"
   sodipodi:docname="mate-inhibit-applet.svg"
   inkscape:version="1.4 (unknown)"
   xmlns:inkscape="http://www.inkscape.org/namespaces/inkscape"
   xmlns:sodipodi="http://sodipodi.sourceforge.net/DTD/sodipodi-0.dtd"
   xmlns:xlink="http://www.w3.org/1999/xlink"
   xmlns="http://www.w3.org/2000/svg"
   xmlns:svg="http://www.w3.org/2000/svg">
  <defs
     id="defs12">
    <linearGradient
       inkscape:collect="always"
       xlink:href="#linearGradient4227"
       id="linearGradient4864"
       y1="20"
       x1="20"
       y2="48"
       x2="48"
       gradientUnits="userSpaceOnUse"
       gradientTransform="matrix(1.1333333,0,0,1.1333333,-5.900102,-11.495869)" />
    <linearGradient
       inkscape:collect="always"
       id="linearGradient4227">
      <stop
         style="stop-color:#292c2f"
         id="stop4229" />
      <stop
         offset="1"
         style="stop-opacity:0"
         id="stop4231" />
    </linearGradient>
    <linearGradient
       inkscape:collect="always"
       xlink:href="#linearGradient4159"
       id="linearGradient4384"
       y1="1043.3622"
       y2="1012.3622"
       x2="0"
       gradientUnits="userSpaceOnUse"
       gradientTransform="matrix(0.70833329,0,0,0.73118284,62.77991,-721.11772)" />
    <linearGradient
       inkscape:collect="always"
       id="linearGradient4159">
      <stop
         style="stop-color:#2a2c2f"
         id="stop4161" />
      <stop
         offset="1"
         style="stop-color:#424649"
         id="stop4163" />
    </linearGradient>
  </defs>
  <sodipodi:namedview
     id="namedview12"
     pagecolor="#ffffff"
     bordercolor="#000000"
     borderopacity="0.25"
     inkscape:showpageshadow="2"
     inkscape:pageopacity="0.0"
     inkscape:pagecheckerboard="0"
     inkscape:deskcolor="#d1d1d1"
     inkscape:zoom="6.0546875"
     inkscape:cx="64.495484"
     inkscape:cy="40.712258"
     inkscape:window-width="1920"
     inkscape:window-height="998"
     inkscape:window-x="0"
     inkscape:window-y="0"
     inkscape:window-maximized="1"
     inkscape:current-layer="svg12" />
  <g
     id="g13"
     transform="translate(0,-0.3)">
    <path
       style="opacity:0.2;stroke-width:1.03936"
       d="m 12.85185,44.099158 v 9.375627 c 0,3.125197 3.111116,3.125215 3.111116,3.125215 h 2.074067 5.185192 5.185183 5.185183 5.185192 5.185183 2.074067 c 0,0 3.111115,-1.8e-5 3.111115,-3.125215 v -9.375627 h -5.185182 -5.185183 -5.185192 -5.185183 -5.185183 -5.185192 z"
       id="path1" />
    <g
       transform="matrix(1.0370375,0,0,1.0417374,-3.7407399,-4.8624849)"
       id="g5">
      <rect
         style="fill:#ffff00"
         width="5"
         height="12"
         x="21"
         y="46"
         id="rect1" />
      <path
         style="fill:#38732b"
         d="m 16,46 v 9 c 0,2.999983 3,3 3,3 h 2 V 46 Z"
         id="path2" />
      <rect
         style="fill:#38732b"
         width="5"
         height="12"
         x="26"
         y="46"
         id="rect2" />
      <rect
         style="fill:#ffff00"
         width="5"
         height="12"
         x="31"
         y="46"
         id="rect3" />
      <rect
         style="fill:#38732b"
         width="5"
         height="12"
         x="36"
         y="46"
         id="rect4" />
      <rect
         style="fill:#ffff00"
         width="5"
         height="12"
         x="41"
         y="46"
         id="rect5" />
      <path
         style="fill:#38732b"
         d="m 51,46 v 9 c 0,2.999983 -3,3 -3,3 H 46 V 46 Z"
         id="path5" />
    </g>
    <rect
       style="opacity:0.2;stroke-width:1.03936"
       width="43.75296"
       height="55.999985"
       x="-50.794682"
       y="-58.999985"
       rx="2.73456"
       ry="2.8000011"
       transform="matrix(0,-1,-1,0,0,0)"
       id="rect6" />
    <rect
       style="fill:#00aa44;stroke-width:1.03936"
       width="43.75296"
       height="55.999985"
       x="-49.75296"
       y="-58.999985"
       rx="2.73456"
       ry="2.8000011"
       transform="matrix(0,-1,-1,0,0,0)"
       id="rect7" />
    <path
       style="opacity:0.2;fill:#ffffff;stroke-width:1.03936"
       d="M 5.799194,6 C 4.2479984,6 3,7.2196214 3,8.7345588 V 9.7762971 C 3,8.2613588 4.2479984,7.0417374 5.799194,7.0417374 H 56.200806 C 57.751998,7.0417374 59,8.2613588 59,9.7762971 V 8.7345588 C 59,7.2196214 57.751998,6 56.200806,6 Z"
       id="path7" />
    <g
       id="g12"
       transform="matrix(1.0370375,0,0,1.0417374,-5.6418682,-2.4707944)">
      <path
         inkscape:connector-curvature="0"
         style="opacity:0.3;fill:url(#linearGradient4864);fill-rule:evenodd;stroke-width:1.13323"
         id="path4842"
         d="m 48.5,19.104133 -22.66677,22.666677 6.8,7.933323 h 20.4 V 45.17081 h 6.8 V 30.437456 Z" />
      <path
         inkscape:connector-curvature="0"
         style="color:#000000;stroke-width:1.13323"
         id="path4303"
         d="m 28.1,42.904133 v 1.133323 h 1.13323 v -1.133323 z m 1.13323,1.133323 v 1.133354 h 1.13323 v -1.133354 z m 1.13323,0 H 31.5 v -1.133323 h -1.13354 z m 1.13354,0 v 1.133354 h 1.13323 v -1.133354 z m 1.13323,0 h 1.13323 v -1.133323 h -1.13323 z m 1.13323,0 V 45.17081 H 34.9 v -1.133354 z m 1.13354,0 h 1.13323 V 42.904133 H 34.9 Z m 1.13323,0 v 1.133354 h 1.13323 v -1.133354 z m 1.13323,0 H 38.3 v -1.133323 h -1.13354 z m 1.13354,0 v 1.133354 h 1.13323 v -1.133354 z m 1.13323,0 h 1.13323 v -1.133323 h -1.13323 z m 1.13323,0 V 45.17081 H 41.7 v -1.133354 z m 1.13354,0 h 1.13323 V 42.904133 H 41.7 Z m 1.13323,0 v 1.133354 h 1.13323 v -1.133354 z m 1.13323,0 H 45.1 v -1.133323 h -1.13354 z m 1.13354,0 v 1.133354 h 1.13323 v -1.133354 z" />
      <rect
         width="22.666693"
         x="25.946562"
         y="19.104334"
         height="22.666693"
         style="fill:url(#linearGradient4384);fill-rule:evenodd;stroke-width:1.13323"
         id="rect4241" />
      <path
         inkscape:connector-curvature="0"
         style="color:#000000;stroke-width:1.13323"
         id="path4497"
         d="m 46.23323,15.704133 v 1.133323 H 45.1 V 15.704133 Z M 45.1,16.837456 v 1.133354 h -1.13354 v -1.133354 z m -1.13354,0 h -1.13323 v -1.133323 h 1.13323 z m -1.13323,0 V 17.97081 H 41.7 v -1.133354 z m -1.13323,0 H 40.56646 V 15.704133 H 41.7 Z m -1.13354,0 v 1.133354 h -1.13323 v -1.133354 z m -1.13323,0 H 38.3 v -1.133323 h 1.13323 z m -1.13323,0 v 1.133354 h -1.13354 v -1.133354 z m -1.13354,0 h -1.13323 v -1.133323 h 1.13323 z m -1.13323,0 V 17.97081 H 34.9 v -1.133354 z m -1.13323,0 H 33.76646 V 15.704133 H 34.9 Z m -1.13354,0 v 1.133354 h -1.13323 v -1.133354 z m -1.13323,0 H 31.5 v -1.133323 h 1.13323 z m -1.13323,0 v 1.133354 h -1.13354 v -1.133354 z m -1.13354,0 h -1.13323 v -1.133323 h 1.13323 z m -1.13323,0 V 17.97081 H 28.1 v -1.133354 z" />
      <path
         style="fill:none;stroke:#e1e8ea;stroke-width:1.13323;stroke-linecap:butt;stroke-linejoin:miter;stroke-miterlimit:4;stroke-dasharray:none;stroke-opacity:1"
         d="m 28.1,31.004133 h 6.8 l -6.8,9.066677 h 6.8"
         id="path897"
         inkscape:connector-curvature="0"
         sodipodi:nodetypes="cccc" />
      <path
         sodipodi:nodetypes="cccc"
         inkscape:connector-curvature="0"
         id="path899"
         d="m 34.9,21.37081 h 10.2 l -10.2,13.6 h 10.2"
         style="fill:none;stroke:#e1e8ea;stroke-width:2.26677;stroke-linecap:butt;stroke-linejoin:miter;stroke-miterlimit:4;stroke-dasharray:none;stroke-opacity:1" />
    </g>
  </g>
</svg>
