<?xml version="1.0" encoding="UTF-8" standalone="no"?>
<svg
   width="62"
   height="62"
   version="1.1"
   id="svg19"
   sodipodi:docname="mcomix.svg"
   inkscape:version="1.4 (unknown)"
   xmlns:inkscape="http://www.inkscape.org/namespaces/inkscape"
   xmlns:sodipodi="http://sodipodi.sourceforge.net/DTD/sodipodi-0.dtd"
   xmlns="http://www.w3.org/2000/svg"
   xmlns:svg="http://www.w3.org/2000/svg">
  <defs
     id="defs19" />
  <sodipodi:namedview
     id="namedview19"
     pagecolor="#ffffff"
     bordercolor="#000000"
     borderopacity="0.25"
     inkscape:showpageshadow="2"
     inkscape:pageopacity="0.0"
     inkscape:pagecheckerboard="0"
     inkscape:deskcolor="#d1d1d1"
     showgrid="false"
     inkscape:zoom="8.8068182"
     inkscape:cx="29.806452"
     inkscape:cy="28.898064"
     inkscape:window-width="1920"
     inkscape:window-height="998"
     inkscape:window-x="0"
     inkscape:window-y="0"
     inkscape:window-maximized="1"
     inkscape:current-layer="svg19">
    <inkscape:grid
       id="grid19"
       units="px"
       originx="0"
       originy="0"
       spacingx="1"
       spacingy="1"
       empcolor="#0099e5"
       empopacity="0.30196078"
       color="#0099e5"
       opacity="0.14901961"
       empspacing="5"
       enabled="true"
       visible="false" />
  </sodipodi:namedview>
  <g
     id="g19"
     transform="matrix(1.0000071,0,0,1.0107381,-2.201e-4,4.4677857)">
    <path
       style="opacity:0.2;stroke-width:2.8182"
       d="m 30.999998,4.4090908 a 22.545451,22.545451 0 0 1 1.730286,0.072528 22.545451,22.545451 0 0 0 -1.730286,-0.072528 z m 0,0 A 22.545451,22.545451 0 0 0 11.176891,16.259441 22.545451,22.545451 0 0 1 30.999998,4.4090908 Z m 2.813003,0.2046281 A 22.545451,22.545451 0 0 1 34.99415,4.7743124 22.545451,22.545451 0 0 0 33.813001,4.6137189 Z m 2.092909,0.365225 A 22.545451,22.545451 0 0 1 37.208804,5.2897728 22.545451,22.545451 0 0 0 35.90591,4.9789439 Z m 2.09551,0.5750332 A 22.545451,22.545451 0 0 1 39.345754,6.0228108 22.545451,22.545451 0 0 0 38.00142,5.5539771 Z m 1.997073,0.7589408 a 22.545451,22.545451 0 0 1 1.432398,0.6656909 22.545451,22.545451 0 0 0 -1.432398,-0.6656909 z m 1.852018,0.9065837 a 22.545451,22.545451 0 0 1 1.523067,0.9014038 22.545451,22.545451 0 0 0 -1.523067,-0.9014038 z m 1.906422,1.1759689 a 22.545451,22.545451 0 0 1 1.447944,1.067177 22.545451,22.545451 0 0 0 -1.447944,-1.067177 z m 1.706971,1.2951233 a 22.545451,22.545451 0 0 1 1.422051,1.2821722 22.545451,22.545451 0 0 0 -1.422051,-1.2821722 z m 1.624074,1.4997442 a 22.545451,22.545451 0 0 1 1.32361,1.460883 22.545451,22.545451 0 0 0 -1.32361,-1.460883 z m -27.360707,1.175967 a 11.272725,11.272725 0 0 0 -8.607372,3.99156 22.545451,22.545451 0 0 0 -0.0025,0.0035 22.545451,22.545451 0 0 0 -2.6628122,10.593865 22.545451,22.545451 0 0 0 22.5454562,22.54544 22.545451,22.545451 0 0 0 22.54545,-22.545444 22.545451,22.545451 0 0 0 -2.626505,-10.531917 11.272725,11.272725 0 0 0 -0.0035,-0.0052 11.272725,11.272725 0 0 0 -8.643561,-4.051134 11.272725,11.272725 0 0 0 -11.272725,11.272717 11.272725,11.272725 0 0 0 0.03371,0.663113 h -0.05702 a 11.272725,11.272725 0 0 0 0.02337,-0.663174 11.272725,11.272725 0 0 0 -11.272664,-11.272776 z m 31.18909,4.051138 A 22.545451,22.545451 0 0 0 49.78701,14.51362 22.545451,22.545451 0 0 1 50.916361,16.417443 Z M 48.528148,12.80406 a 22.545451,22.545451 0 0 1 1.238135,1.675882 22.545451,22.545451 0 0 0 -1.238135,-1.675882 z"
       id="path1" />
    <path
       style="opacity:0.2;stroke-width:2.8182"
       d="M 47.909088,10.045442 A 14.090908,14.090908 0 0 0 33.818178,24.136363 14.090908,14.090908 0 0 0 47.909088,38.227269 14.090908,14.090908 0 0 0 61.999996,24.136363 14.090908,14.090908 0 0 0 47.909088,10.045442 Z"
       id="path2" />
    <path
       style="fill:#f8bb88;stroke-width:2.8182"
       d="M 47.909088,8.6363632 A 14.090908,14.090908 0 0 0 33.818178,22.727271 14.090908,14.090908 0 0 0 47.909088,36.818178 14.090908,14.090908 0 0 0 61.999996,22.727271 14.090908,14.090908 0 0 0 47.909088,8.6363632 Z"
       id="path3" />
    <path
       style="opacity:0.2;fill:#ffffff;stroke-width:2.8182"
       d="M 47.909088,8.6363632 A 14.090908,14.090908 0 0 0 33.818178,22.727271 14.090908,14.090908 0 0 0 33.848458,23.310714 14.090908,14.090908 0 0 1 47.909095,10.045442 14.090908,14.090908 0 0 1 61.969735,23.552909 14.090908,14.090908 0 0 0 62,22.727271 14.090908,14.090908 0 0 0 47.909088,8.6363632 Z"
       id="path4" />
    <path
       style="opacity:0.1;stroke-width:2.8182"
       d="m 47.909088,15.681819 a 8.4545479,8.4545479 0 0 0 -8.454545,8.454544 8.4545479,8.4545479 0 0 0 8.454545,8.454544 8.4545479,8.4545479 0 0 0 8.454544,-8.454544 8.4545479,8.4545479 0 0 0 -8.454544,-8.454544 z"
       id="path5" />
    <path
       style="fill:#2e3b52;stroke-width:2.8182;fill-opacity:1"
       d="m 47.909088,14.272728 a 8.4545479,8.4545479 0 0 0 -8.454545,8.454543 8.4545479,8.4545479 0 0 0 8.454545,8.454547 8.4545479,8.4545479 0 0 0 8.454544,-8.454547 8.4545479,8.4545479 0 0 0 -8.454544,-8.454543 z"
       id="path6" />
    <path
       style="opacity:0.2;stroke-width:2.8182"
       d="M 14.090908,10.045442 A 14.090908,14.090908 0 0 0 0,24.136363 14.090908,14.090908 0 0 0 14.090908,38.227269 14.090908,14.090908 0 0 0 28.181818,24.136363 14.090908,14.090908 0 0 0 14.090908,10.045442 Z"
       id="path7" />
    <path
       style="fill:#f8bb88;stroke-width:2.8182"
       d="M 14.090908,8.6363632 A 14.090908,14.090908 0 0 0 0,22.727271 14.090908,14.090908 0 0 0 14.090908,36.818178 14.090908,14.090908 0 0 0 28.181818,22.727271 14.090908,14.090908 0 0 0 14.090908,8.6363632 Z"
       id="path8" />
    <path
       style="opacity:0.2;fill:#ffffff;stroke-width:2.8182"
       d="M 14.090908,8.6363632 A 14.090908,14.090908 0 0 0 0,22.727271 14.090908,14.090908 0 0 0 0.03027345,23.310714 14.090908,14.090908 0 0 1 14.090908,10.045442 14.090908,14.090908 0 0 1 28.151543,23.552909 14.090908,14.090908 0 0 0 28.181823,22.727271 14.090908,14.090908 0 0 0 14.090909,8.6363632 Z"
       id="path9" />
    <path
       style="opacity:0.1;stroke-width:2.8182"
       d="m 14.090907,15.681819 a 8.4545479,8.4545479 0 0 0 -8.4545438,8.454544 8.4545479,8.4545479 0 0 0 8.4545438,8.454544 8.4545479,8.4545479 0 0 0 8.454544,-8.454544 8.4545479,8.4545479 0 0 0 -8.454544,-8.454544 z"
       id="path10" />
    <path
       style="fill:#2e3b52;stroke-width:2.8182;fill-opacity:1"
       d="m 14.090907,14.272728 a 8.4545479,8.4545479 0 0 0 -8.4545438,8.454543 8.4545479,8.4545479 0 0 0 8.4545438,8.454547 8.4545479,8.4545479 0 0 0 8.454544,-8.454547 8.4545479,8.4545479 0 0 0 -8.454544,-8.454543 z"
       id="path11" />
    <path
       style="fill:#ffb380;stroke-width:2.8182"
       d="M 30.999998,3 A 22.545451,22.545451 0 0 1 32.730284,3.072528 22.545451,22.545451 0 0 0 30.999998,3 Z m 0,0 A 22.545451,22.545451 0 0 0 11.176891,14.85035 22.545451,22.545451 0 0 1 30.999998,3 Z m 2.813003,0.204628 A 22.545451,22.545451 0 0 1 34.99415,3.3652232 22.545451,22.545451 0 0 0 33.813001,3.204628 Z m 2.092909,0.3652251 a 22.545451,22.545451 0 0 1 1.302894,0.310829 22.545451,22.545451 0 0 0 -1.302894,-0.310829 z m 2.09551,0.5750333 A 22.545451,22.545451 0 0 1 39.345754,4.6137198 22.545451,22.545451 0 0 0 38.00142,4.1448864 Z m 1.997073,0.7589407 a 22.545451,22.545451 0 0 1 1.432398,0.6656912 22.545451,22.545451 0 0 0 -1.432398,-0.6656912 z m 1.852018,0.9065833 a 22.545451,22.545451 0 0 1 1.523067,0.9014044 22.545451,22.545451 0 0 0 -1.523067,-0.9014044 z m 1.906422,1.1759692 a 22.545451,22.545451 0 0 1 1.447944,1.0671792 22.545451,22.545451 0 0 0 -1.447944,-1.0671792 z m 1.706971,1.2951219 A 22.545451,22.545451 0 0 1 46.885955,9.5636687 22.545451,22.545451 0 0 0 45.463904,8.2815015 Z M 47.087978,9.78125 a 22.545451,22.545451 0 0 1 1.32361,1.460893 22.545451,22.545451 0 0 0 -1.32361,-1.460893 z m -27.360707,1.175968 a 11.272725,11.272725 0 0 0 -8.607372,3.991553 22.545451,22.545451 0 0 0 -0.0025,0.0023 A 22.545451,22.545451 0 0 0 8.4545495,25.54507 22.545451,22.545451 0 0 0 31.000004,48.090517 22.545451,22.545451 0 0 0 53.545424,25.54507 22.545451,22.545451 0 0 0 50.91895,15.013153 a 11.272725,11.272725 0 0 0 -0.0035,-0.0052 11.272725,11.272725 0 0 0 -8.643566,-4.051148 11.272725,11.272725 0 0 0 -11.272729,11.27273 11.272725,11.272725 0 0 0 0.03374,0.663098 h -0.05684 A 11.272725,11.272725 0 0 0 30.999674,22.229704 11.272725,11.272725 0 0 0 19.726952,10.95704 Z m 31.18909,4.051129 a 22.545451,22.545451 0 0 0 -1.129351,-1.903817 22.545451,22.545451 0 0 1 1.129351,1.903817 z m -2.388213,-3.613375 a 22.545451,22.545451 0 0 1 1.238135,1.675875 22.545451,22.545451 0 0 0 -1.238135,-1.675875 z"
       id="path12" />
    <path
       style="opacity:0.1;stroke-width:2.8182"
       d="M 30.999998,4.4095868 A 22.545451,22.545451 0 0 0 11.117313,16.360951 11.272725,11.272725 0 0 1 19.727271,12.366802 11.272725,11.272725 0 0 1 30.999998,23.639528 11.272725,11.272725 0 0 1 42.272725,12.366802 11.272725,11.272725 0 0 1 50.918949,16.423123 22.545451,22.545451 0 0 0 30.999998,4.4095868 Z m 0,19.2299412 a 11.272725,11.272725 0 0 1 -0.02341,0.663106 h 0.05702 a 11.272725,11.272725 0 0 1 -0.03366,-0.663106 z"
       id="path13" />
    <path
       style="fill:#2e3b52;stroke-width:2.8182;fill-opacity:1"
       d="M 30.999998,3 A 22.545451,22.545451 0 0 0 11.117313,14.951363 11.272725,11.272725 0 0 1 19.727271,10.957218 11.272725,11.272725 0 0 1 30.999998,22.229942 11.272725,11.272725 0 0 1 42.272725,10.957218 11.272725,11.272725 0 0 1 50.918949,15.013538 22.545451,22.545451 0 0 0 30.999998,3 Z m 0,19.229942 a 11.272725,11.272725 0 0 1 -0.02341,0.663104 h 0.05702 a 11.272725,11.272725 0 0 1 -0.03366,-0.663104 z"
       id="path14" />
    <circle
       style="opacity:0.1;stroke-width:2.8182"
       cx="21.136372"
       cy="28.363642"
       r="4.2272749"
       id="circle14" />
    <circle
       style="fill:#2e3b52;stroke-width:2.8182;fill-opacity:1"
       cx="21.136372"
       cy="26.954548"
       r="4.2272749"
       id="circle15" />
    <circle
       style="opacity:0.1;stroke-width:2.8182"
       cx="40.863609"
       cy="28.363642"
       r="4.2272749"
       id="circle16" />
    <circle
       style="fill:#2e3b52;stroke-width:2.8182;fill-opacity:1"
       cx="40.863609"
       cy="26.954548"
       r="4.2272749"
       id="circle17" />
    <path
       style="opacity:0.1;fill:none;stroke:#000000;stroke-width:2.8182;stroke-linecap:round;stroke-linejoin:round"
       d="m 21.136363,39.636362 c 0,0 4.227271,2.818181 9.863635,2.818181 5.636364,0 9.863634,-2.818181 9.863634,-2.818181"
       id="path17" />
    <path
       style="fill:none;stroke:#2e3b52;stroke-width:2.8182;stroke-linecap:round;stroke-linejoin:round;stroke-opacity:1"
       d="m 21.136363,38.227269 c 0,0 4.227271,2.818182 9.863635,2.818182 5.636364,0 9.863634,-2.818182 9.863634,-2.818182"
       id="path18" />
    <path
       style="opacity:0.1;fill:#ffffff;stroke-width:2.8182"
       d="M 30.999998,3 A 22.545451,22.545451 0 0 0 11.11861,14.949753 11.272725,11.272725 0 0 1 13.111149,13.116831 22.545451,22.545451 0 0 1 30.999998,4.2439627 22.545451,22.545451 0 0 1 48.888845,13.127831 11.272725,11.272725 0 0 1 50.919918,15.015794 22.545451,22.545451 0 0 0 30.999998,3 Z m 0.03296,19.848377 a 11.272725,11.272725 0 0 0 -0.0056,0.04404 h 0.0056 a 11.272725,11.272725 0 0 1 0,-0.04404 z"
       id="path19" />
  </g>
</svg>
