<?xml version="1.0" encoding="UTF-8" standalone="no"?>
<!-- Created with Vectornator (http://vectornator.io/) -->

<svg
   height="62"
   stroke-miterlimit="10"
   style="clip-rule:evenodd;fill-rule:nonzero;stroke-linecap:round;stroke-linejoin:round"
   version="1.1"
   viewBox="0 0 62 62"
   width="62"
   xml:space="preserve"
   id="svg28"
   sodipodi:docname="mcpelauncher-icon.svg"
   inkscape:version="1.4 (unknown)"
   xmlns:inkscape="http://www.inkscape.org/namespaces/inkscape"
   xmlns:sodipodi="http://sodipodi.sourceforge.net/DTD/sodipodi-0.dtd"
   xmlns="http://www.w3.org/2000/svg"
   xmlns:svg="http://www.w3.org/2000/svg"
   xmlns:vectornator="http://vectornator.io"><sodipodi:namedview
   id="namedview28"
   pagecolor="#ffffff"
   bordercolor="#000000"
   borderopacity="0.25"
   inkscape:showpageshadow="2"
   inkscape:pageopacity="0.0"
   inkscape:pagecheckerboard="0"
   inkscape:deskcolor="#d1d1d1"
   inkscape:zoom="11.313709"
   inkscape:cx="33.278213"
   inkscape:cy="29.389126"
   inkscape:window-width="1920"
   inkscape:window-height="998"
   inkscape:window-x="0"
   inkscape:window-y="0"
   inkscape:window-maximized="1"
   inkscape:current-layer="svg28" />
<defs
   id="defs8">
<linearGradient
   gradientUnits="userSpaceOnUse"
   id="LinearGradient"
   x1="289.20099"
   x2="356.853"
   y1="668.737"
   y2="512">
<stop
   offset="0"
   stop-color="#000000"
   stop-opacity="0.0813788"
   id="stop1" />
<stop
   offset="1"
   stop-color="#000000"
   stop-opacity="0.35149"
   id="stop2" />
</linearGradient>
<linearGradient
   gradientTransform="matrix(-1,0,0,1,1024,0)"
   gradientUnits="userSpaceOnUse"
   id="LinearGradient_2"
   x1="289.20099"
   x2="319.63599"
   y1="668.737"
   y2="489.35699">
<stop
   offset="0"
   stop-color="#000000"
   stop-opacity="0.0813788"
   id="stop3" />
<stop
   offset="1"
   stop-color="#000000"
   stop-opacity="0.35149"
   id="stop4" />
</linearGradient>
<linearGradient
   gradientTransform="matrix(-1,0,0,1,1024,0)"
   gradientUnits="userSpaceOnUse"
   id="LinearGradient_3"
   x1="298.03"
   x2="343.03"
   y1="512"
   y2="415.72101">
<stop
   offset="0"
   stop-color="#000000"
   stop-opacity="0.0813788"
   id="stop5" />
<stop
   offset="1"
   stop-color="#1e3905"
   stop-opacity="0.212173"
   id="stop6" />
</linearGradient>
<linearGradient
   gradientUnits="userSpaceOnUse"
   id="LinearGradient_4"
   x1="300.97"
   x2="331.97"
   y1="512"
   y2="404.72101">
<stop
   offset="0"
   stop-color="#000000"
   stop-opacity="0.0813788"
   id="stop7" />
<stop
   offset="1"
   stop-color="#1e3905"
   stop-opacity="0.244728"
   id="stop8" />
</linearGradient>
</defs>



<g
   id="Layer-5"
   vectornator:layerName="Layer 5" />
<g
   id="g28"
   transform="translate(-0.25129156,-0.35853084)"><g
     id="Layer-1"
     vectornator:layerName="Layer 1"
     transform="matrix(0.05525423,0,0,0.05468702,2.9611258,3.3587766)">
<path
   d="M 955.405,768 512,1024 68.595,768 V 256 h 886.81 z"
   fill="#565656"
   fill-rule="evenodd"
   opacity="1"
   stroke="none"
   id="path8" />
<path
   d="M 68.595,768 512,1024 V 512 L 68.595,256 Z"
   fill="#636363"
   fill-rule="evenodd"
   opacity="1"
   stroke="none"
   id="path9" />
<path
   d="m 512,768 110.851,-64 v 64 L 512,832 Z"
   fill="#494949"
   fill-rule="evenodd"
   opacity="1"
   stroke="none"
   id="path10" />
<path
   d="m 789.128,608 110.851,-64 v 64 l -110.851,64 z"
   fill="#414141"
   fill-rule="evenodd"
   opacity="1"
   stroke="none"
   id="path11" />
<path
   d="M 595.138,848 705.99,784 v 64 l -110.852,64 z"
   fill="#404040"
   fill-rule="evenodd"
   opacity="1"
   stroke="none"
   id="path12" />
<path
   d="m 816.841,752 110.851,-64 v 64 l -110.851,64 z"
   fill="#4a4a4a"
   fill-rule="evenodd"
   opacity="1"
   stroke="none"
   id="path13" />
<path
   d="m 678.277,640 166.277,-96 v 64 l -166.277,96 z"
   fill="#4a4a4a"
   fill-rule="evenodd"
   opacity="1"
   stroke="none"
   id="path14" />
<path
   d="M 456.574,736 512,768 v 64 l -55.426,-32 z"
   fill="#595959"
   fill-rule="evenodd"
   opacity="1"
   stroke="none"
   id="path15" />
<path
   d="m 290.298,800 110.851,64 v 64 L 290.298,864 Z"
   fill="#595959"
   fill-rule="evenodd"
   opacity="1"
   stroke="none"
   id="path16" />
<path
   d="m 234.872,640 110.851,64 v 64 L 234.872,704 Z"
   fill="#4f4f4f"
   fill-rule="evenodd"
   opacity="1"
   stroke="none"
   id="path17" />
<path
   d="m 151.733,560 110.852,64 v 64 L 151.733,624 Z"
   fill="#595959"
   fill-rule="evenodd"
   opacity="1"
   stroke="none"
   id="path18" />
<path
   d="m 68.595,640 83.138,48 v 64 L 68.595,704 Z"
   fill="#595959"
   fill-rule="evenodd"
   opacity="1"
   stroke="none"
   id="path19" />
<path
   d="m 68.595,448 27.7128,16 v 64 L 68.595,512 Z"
   fill="#515151"
   fill-rule="evenodd"
   opacity="1"
   stroke="none"
   id="path20" />
<path
   d="m 650.564,784 110.851,-64 v 64 l -110.851,64 z"
   fill="#474747"
   fill-rule="evenodd"
   opacity="1"
   stroke="none"
   id="path21" />
</g><g
     id="Layer-3"
     vectornator:layerName="Layer 3"
     transform="matrix(0.05525423,0,0,0.05468702,2.9611258,3.3587766)">
<path
   d="M 68.595,768 512,1024 V 512 L 68.595,256 Z"
   fill="url(#LinearGradient)"
   fill-rule="evenodd"
   opacity="1"
   stroke="none"
   id="path22"
   style="fill:url(#LinearGradient)" />
<path
   d="M 955.405,768 512,1024 V 512 L 955.405,256 Z"
   fill="url(#LinearGradient_2)"
   fill-rule="evenodd"
   opacity="1"
   stroke="none"
   id="path23"
   style="fill:url(#LinearGradient_2)" />
</g><g
     id="Layer-2"
     vectornator:layerName="Layer 2"
     transform="matrix(0.05525423,0,0,0.05468702,2.9611258,3.3587766)">
<path
   d="m 512,480 415.692,-240 27.713,16 v 128 l -55.426,32 v 64 l -110.851,64 0.685,-64.395 -56.11,32.395 v 64 l -55.426,32 v -64 l -110.851,64 v 64 L 512,704 v -64 z"
   fill="#74a500"
   fill-rule="evenodd"
   opacity="1"
   stroke="none"
   id="path24" />
<path
   d="M 68.595,256 96.3078,240 512,480 v 224 l -55.426,-32 v -64 l -55.425,-32 v 64 L 290.298,576 v -64 l -55.426,-32 v 64 L 124.021,480 V 416 L 68.595,384 Z"
   fill="#8abb14"
   fill-rule="evenodd"
   opacity="1"
   stroke="none"
   id="path25" />
<path
   d="m 553.54335,27.424318 v 0 L 955.405,256 512,512 68.595,256 467.1577,27.424318 c 29.86166,-16.162582 58.65688,-16.162582 86.38565,0 z"
   fill="#8ec115"
   fill-rule="evenodd"
   opacity="1"
   stroke="none"
   id="path26"
   sodipodi:nodetypes="ccccccc" />
</g><g
     id="Layer-4"
     vectornator:layerName="Layer 4"
     transform="matrix(0.05525423,0,0,0.05468702,2.9611258,3.3587766)">
<path
   d="M 955.405,768 512,1024 V 512 L 955.405,256 Z"
   fill="url(#LinearGradient_3)"
   fill-rule="evenodd"
   opacity="1"
   stroke="none"
   id="path27"
   style="fill:url(#LinearGradient_3)" />
<path
   d="M 68.595,768 512,1024 V 512 L 68.595,256 Z"
   fill="url(#LinearGradient_4)"
   fill-rule="evenodd"
   opacity="1"
   stroke="none"
   id="path28"
   style="fill:url(#LinearGradient_4)" />
</g></g>
</svg>
