<?xml version="1.0" encoding="UTF-8" standalone="no"?>
<svg
   width="62"
   height="62"
   version="1"
   id="svg13"
   sodipodi:docname="me.dusansimic.DynamicWallpaper.svg"
   inkscape:version="1.4 (unknown)"
   xmlns:inkscape="http://www.inkscape.org/namespaces/inkscape"
   xmlns:sodipodi="http://sodipodi.sourceforge.net/DTD/sodipodi-0.dtd"
   xmlns="http://www.w3.org/2000/svg"
   xmlns:svg="http://www.w3.org/2000/svg">
  <defs
     id="defs13" />
  <sodipodi:namedview
     id="namedview13"
     pagecolor="#ffffff"
     bordercolor="#000000"
     borderopacity="0.25"
     inkscape:showpageshadow="2"
     inkscape:pageopacity="0.0"
     inkscape:pagecheckerboard="0"
     inkscape:deskcolor="#d1d1d1"
     inkscape:zoom="5"
     inkscape:cx="25.6"
     inkscape:cy="50.7"
     inkscape:window-width="1920"
     inkscape:window-height="998"
     inkscape:window-x="0"
     inkscape:window-y="0"
     inkscape:window-maximized="1"
     inkscape:current-layer="svg13" />
  <rect
     width="55.997971"
     height="55.969017"
     x="3.0020294"
     y="3.0000002"
     rx="13.001064"
     ry="12.994343"
     id="rect1"
     style="fill:#3f3f3f;fill-opacity:1;stroke-width:0.99967" />
  <path
     d="m 3.0000281,45.004248 v 0.999411 C 3.0000281,53.202417 8.7996109,59 16.003093,59 H 45.996935 C 53.199417,59 59,53.203416 59,46.003659 V 45.004248 C 59,52.203006 53.200417,57.99859 45.996935,57.99859 H 16.003093 A 12.974067,12.967359 0 0 1 3.0000281,45.004248"
     opacity="0.35"
     id="path1"
     style="stroke-width:0.99967" />
  <path
     fill="#ffffff"
     d="m 3.0000281,17.026735 v -0.999411 c 0,-7.1987583 5.7995828,-12.9963419 13.0030649,-12.9963419 H 45.996935 C 53.199417,3.0309821 59,8.8275662 59,16.027324 v 0.999411 C 59,9.8279767 53.200417,4.032392 45.996935,4.032392 H 16.003093 A 12.974067,12.967359 0 0 0 3.0000281,17.026735"
     opacity="0.15"
     id="path2"
     style="stroke-width:0.99967" />
  <g
     id="g1"
     transform="matrix(0.9999011,0,0,0.99997956,0.00118627,6.3364e-4)">
    <rect
       width="48.000946"
       height="48.000946"
       x="7.0033078"
       y="6.9995251"
       rx="8.3491411"
       ry="8.3491411"
       id="rect2"
       style="stroke-width:3.7796;fill:#a84ead;fill-opacity:1" />
    <path
       d="m 31,6.999525 v 48.00095 H 15.352448 A 8.3302428,8.3302428 0 0 1 6.9995275,46.65133 V 15.344887 c 0,-4.622454 3.7266875,-8.345362 8.3529205,-8.345362 z"
       id="path3"
       style="stroke-width:3.7796;fill:#f9a631;fill-opacity:1" />
    <path
       d="M 48.389949,34.390301 48.2879,34.341161 c -0.710565,0.10205 -1.417351,0 -2.127916,-0.151184 a 5.669403,5.669403 0 0 1 -3.945905,-6.939349 5.669403,5.669403 0 0 1 0.960019,-1.923817 v -0.09827 l -0.102049,-0.05291 a 5.8583831,5.8583831 0 0 0 -5.011752,4.255832 c -0.404418,1.515621 -0.200319,3.084156 0.559381,4.452371 0.7597,1.368216 2.022087,2.328235 3.541487,2.736432 0.506467,0.151184 1.065848,0.200319 1.572314,0.200319 a 5.8583831,5.8583831 0 0 0 4.65647,-2.328235 z m -31.699522,0.608516 a 0.70300597,0.70300597 0 0 0 -0.85797,0.200319 l -0.7597,1.368216 a 0.69922637,0.69922637 0 0 0 0.200319,0.861749 c 0.105829,0.04914 0.204099,0.102049 0.306148,0.102049 a 0.71812438,0.71812438 0 0 0 0.559381,-0.302368 l 0.755921,-1.368216 c 0.204098,-0.302368 0.102049,-0.710565 -0.200319,-0.861749 m -3.89677,-6.83352 1.360657,0.75592 a 0.7559204,0.7559204 0 0 0 0.306147,0.102049 0.68032836,0.68032836 0 0 0 0.555602,-0.302368 0.70300597,0.70300597 0 0 0 -0.200319,-0.861749 l -1.368216,-0.755921 a 0.69922637,0.69922637 0 0 0 -0.85797,0.200319 c -0.151184,0.302369 -0.05291,0.706786 0.200319,0.86175 M 21.297762,26.9974 a 0.7559204,0.7559204 0 0 0 0.302368,0.102049 0.71812438,0.71812438 0 0 0 0.555602,-0.302368 l 0.7597,-1.368216 a 0.69922637,0.69922637 0 0 0 -0.200319,-0.861749 0.70300597,0.70300597 0 0 0 -0.86175,0.204098 l -0.7597,1.364436 c -0.200319,0.359063 -0.102049,0.710566 0.204099,0.86175 m 3.847635,6.8373 -1.368216,-0.7597 a 0.70300597,0.70300597 0 0 0 -0.861749,0.200319 0.69922637,0.69922637 0 0 0 0.204098,0.861749 l 1.368216,0.75592 c 0.102049,0.05291 0.200319,0.105829 0.302368,0.105829 a 0.71812438,0.71812438 0 0 0 0.555602,-0.302368 c 0.204098,-0.306148 0.102049,-0.66143 -0.200319,-0.861749 M 15.016063,33.328233 C 14.864879,33.025865 14.460462,32.923816 14.158094,33.124134 L 12.842792,33.8347 c -0.302368,0.151184 -0.404417,0.555601 -0.204098,0.861749 0.102049,0.200319 0.302368,0.302368 0.559381,0.302368 a 0.7559204,0.7559204 0 0 0 0.302368,-0.102049 l 1.368216,-0.7597 c 0.200319,-0.151184 0.302368,-0.555602 0.151184,-0.808835 m 0.812614,-6.531152 c 0.10205,0.200319 0.302369,0.302368 0.559382,0.302368 A 0.7559204,0.7559204 0 0 0 16.694207,26.9974 c 0.302368,-0.151184 0.404417,-0.555602 0.204098,-0.86175 l -0.7597,-1.364436 c -0.151184,-0.302368 -0.559381,-0.408197 -0.865529,-0.204098 -0.302368,0.151184 -0.400638,0.555601 -0.200319,0.861749 z m 7.139669,1.923817 c 0.102049,0.204099 0.302368,0.302368 0.555601,0.302368 a 0.7559204,0.7559204 0 0 0 0.302368,-0.09827 l 1.368216,-0.7597 c 0.302368,-0.151184 0.408197,-0.559381 0.204099,-0.865529 -0.151184,-0.302368 -0.555602,-0.400638 -0.86175,-0.200319 l -1.368216,0.7597 c -0.253233,0.151184 -0.351502,0.559381 -0.200318,0.861749 m -0.808835,6.478238 C 22.012107,34.896767 21.60391,34.794718 21.301542,34.998816 20.999173,35.15 20.897124,35.554418 21.097443,35.860565 l 0.75592,1.364437 c 0.105829,0.204098 0.309928,0.302368 0.559381,0.302368 0.10205,0 0.204099,-0.04913 0.306148,-0.09827 0.302368,-0.151184 0.404418,-0.555601 0.200319,-0.861749 z M 14.415107,30.999998 A 0.58583831,0.58583831 0 0 0 13.81037,30.391482 h -2.18461 a 0.58583831,0.58583831 0 0 0 -0.604736,0.604737 c 0,0.355282 0.249454,0.608515 0.604736,0.608515 h 2.177051 c 0.302368,0 0.604737,-0.253233 0.604737,-0.604736 m 4.558199,-4.611114 c 0.351503,0 0.604737,-0.253234 0.604737,-0.604737 v -2.18083 a 0.58583831,0.58583831 0 0 0 -0.604737,-0.608516 0.58583831,0.58583831 0 0 0 -0.608515,0.604736 v 2.180831 c 0,0.351503 0.302368,0.604736 0.604736,0.604736 m 7.40424,4.010158 h -2.18083 a 0.58583831,0.58583831 0 0 0 -0.604736,0.604736 c 0,0.355283 0.253233,0.608516 0.604736,0.608516 h 2.177051 a 0.58583831,0.58583831 0 0 0 0.608516,-0.604736 c 0.05291,-0.355283 -0.253234,-0.608516 -0.604737,-0.608516 m -7.343767,5.215851 a 0.58583831,0.58583831 0 0 0 -0.604736,0.604736 v 2.18083 c 0,0.351503 0.249454,0.604737 0.604736,0.604737 0.355283,0 0.604737,-0.253234 0.604737,-0.604737 v -2.177051 a 0.61607513,0.61607513 0 0 0 -0.604737,-0.608515 m 0,-7.948503 a 3.3638458,3.3638458 0 0 0 -3.341168,3.341168 c 0,1.821768 1.5194,3.341168 3.341168,3.341168 A 3.3638458,3.3638458 0 0 0 22.36361,31.003778 3.3638458,3.3638458 0 0 0 19.022441,27.66261"
       id="path4"
       style="stroke-width:3.7796;fill:#f2f2f2;fill-opacity:1" />
  </g>
</svg>
