<?xml version="1.0" encoding="UTF-8" standalone="no"?>
<svg
   width="62"
   height="62"
   version="1.1"
   id="svg5"
   sodipodi:docname="media-downloader.svg"
   inkscape:version="1.4 (unknown)"
   xmlns:inkscape="http://www.inkscape.org/namespaces/inkscape"
   xmlns:sodipodi="http://sodipodi.sourceforge.net/DTD/sodipodi-0.dtd"
   xmlns:xlink="http://www.w3.org/1999/xlink"
   xmlns="http://www.w3.org/2000/svg"
   xmlns:svg="http://www.w3.org/2000/svg">
  <defs
     id="defs5">
    <linearGradient
       id="linearGradient8"
       inkscape:collect="always">
      <stop
         style="stop-color:#3f5574;stop-opacity:1;"
         offset="0"
         id="stop8" />
      <stop
         style="stop-color:#00ccff;stop-opacity:1"
         offset="1"
         id="stop10" />
    </linearGradient>
    <linearGradient
       id="linearGradient4217">
      <stop
         style="stop-color:#000000;stop-opacity:1;"
         offset="0"
         id="stop2" />
      <stop
         style="stop-color:#000000;stop-opacity:0;"
         offset="1"
         id="stop4" />
    </linearGradient>
    <linearGradient
       id="linearGradient4161">
      <stop
         style="stop-color:#334545;stop-opacity:1;"
         offset="0"
         id="stop7" />
      <stop
         style="stop-color:#4d6868;stop-opacity:1"
         offset="1"
         id="stop9" />
    </linearGradient>
    <linearGradient
       id="a-1-2"
       y1="510.79999"
       y2="527.14001"
       gradientUnits="userSpaceOnUse"
       x2="0">
      <stop
         stop-color="#7cbaf8"
         id="stop2-2-7" />
      <stop
         offset="1"
         stop-color="#f4fcff"
         id="stop4-70-0" />
    </linearGradient>
    <linearGradient
       id="c"
       y1="503.79999"
       x1="400.57001"
       y2="519.79999"
       x2="416.57001"
       gradientUnits="userSpaceOnUse">
      <stop
         stop-color="#292c2f"
         id="stop12" />
      <stop
         offset="1"
         stop-opacity="0"
         id="stop14" />
    </linearGradient>
    <linearGradient
       id="b"
       y1="542.79999"
       x1="408.57001"
       y2="521.79999"
       x2="387.57001"
       gradientUnits="userSpaceOnUse"
       gradientTransform="translate(-384.57,-499.8)">
      <stop
         stop-color="#197cf1"
         id="stop7-8" />
      <stop
         offset="1"
         stop-color="#20bcfa"
         id="stop9-7" />
    </linearGradient>
    <linearGradient
       xlink:href="#linearGradient1389"
       id="linearGradient4503-5-6"
       y1="37"
       y2="4"
       x2="0"
       gradientUnits="userSpaceOnUse"
       gradientTransform="matrix(1.0218446,0,0,0.99999999,21.748946,8.2587777)" />
    <linearGradient
       id="linearGradient1389">
      <stop
         style="stop-color:#ffaaaa;stop-opacity:1"
         id="stop1385"
         offset="0" />
      <stop
         offset="1"
         style="stop-color:#ff5555;stop-opacity:1"
         id="stop1387" />
    </linearGradient>
    <linearGradient
       id="paint543_linear_890_11"
       x1="978.5"
       y1="298"
       x2="978.5"
       y2="304"
       gradientUnits="userSpaceOnUse"
       gradientTransform="matrix(0.75000004,0,0,0.75000004,-717.38333,-173.49123)">
      <stop
         offset="0.189495"
         stop-color="#EFF2F6"
         id="stop1829" />
      <stop
         offset="0.850463"
         stop-color="#B7C6CD"
         id="stop1830" />
    </linearGradient>
    <linearGradient
       inkscape:collect="always"
       xlink:href="#linearGradient8"
       id="linearGradient10"
       x1="31.5"
       y1="59.017544"
       x2="31.5"
       y2="4.9824562"
       gradientUnits="userSpaceOnUse"
       gradientTransform="translate(-0.5,-1)" />
    <linearGradient
       id="linearGradient4144">
      <stop
         style="stop-color:#c83771;stop-opacity:1"
         offset="0"
         id="stop1141" />
      <stop
         style="stop-color:#de87aa;stop-opacity:1"
         offset="1"
         id="stop1143" />
    </linearGradient>
    <linearGradient
       id="c-0"
       gradientUnits="userSpaceOnUse"
       x1="10"
       x2="24"
       y1="10"
       y2="24"
       gradientTransform="translate(59.728813,26.237288)">
      <stop
         offset="0"
         stop-color="#292c2f"
         id="stop12-2" />
      <stop
         offset="1"
         stop-opacity="0"
         id="stop14-3" />
    </linearGradient>
    <linearGradient
       id="d"
       gradientUnits="userSpaceOnUse"
       x1="24"
       x2="24"
       y1="25"
       y2="7"
       gradientTransform="translate(59.728813,26.237288)">
      <stop
         offset="0"
         stop-color="#bb9d71"
         id="stop2-7" />
      <stop
         offset="1"
         stop-color="#f9f2e7"
         id="stop4-5" />
    </linearGradient>
    <linearGradient
       id="b-3"
       x2="1"
       gradientTransform="matrix(0,-21.779321,19.08075,0,309.77349,101.04924)"
       gradientUnits="userSpaceOnUse">
      <stop
         stop-color="#0b3241"
         offset="0"
         id="stop3" />
      <stop
         stop-color="#444c4d"
         offset="1"
         id="stop4-6" />
    </linearGradient>
  </defs>
  <sodipodi:namedview
     id="namedview5"
     pagecolor="#ffffff"
     bordercolor="#000000"
     borderopacity="0.25"
     inkscape:showpageshadow="2"
     inkscape:pageopacity="0.0"
     inkscape:pagecheckerboard="0"
     inkscape:deskcolor="#d1d1d1"
     inkscape:zoom="8.2643105"
     inkscape:cx="25.289466"
     inkscape:cy="31.642083"
     inkscape:window-width="1920"
     inkscape:window-height="998"
     inkscape:window-x="0"
     inkscape:window-y="0"
     inkscape:window-maximized="1"
     inkscape:current-layer="svg5" />
  <rect
     style="opacity:0.2;stroke-width:0.9823"
     width="55"
     height="55.017544"
     x="3.5"
     y="3.9824562"
     rx="8.25"
     ry="8.2526312"
     id="rect1" />
  <rect
     style="fill:url(#linearGradient10);stroke-width:0.9823"
     width="55"
     height="55.017544"
     x="3.5"
     y="3"
     rx="8.25"
     ry="8.2526312"
     id="rect2" />
  <path
     style="opacity:0.1;fill:#ffffff;stroke-width:0.9823"
     d="M 11.748466,3 C 7.1779652,3 3.5,6.6791384 3.5,11.251097 v 0.982456 c 0,-4.5719585 3.6779652,-8.2510969 8.248466,-8.2510969 h 38.503068 c 4.5705,0 8.248466,3.6791384 8.248466,8.2510969 V 11.251097 C 58.5,6.6791384 54.822034,3 50.251534,3 Z"
     id="path4" />
  <g
     id="g5"
     transform="matrix(1.005884,0,0,1,2.1911609,-61.50877)">
    <path
       d="m 23.776785,107.32878 h 9.727072 v 5.09705 h -9.727072 z"
       fill-rule="nonzero"
       stroke-width="0.6452"
       id="path4-06"
       style="fill:#2d3d53;fill-opacity:1" />
    <path
       d="m 38.765195,111.86442 c 0,-0.55974 -0.454226,-1.0132 -1.013399,-1.0132 H 19.527841 c -0.559172,0 -1.013396,0.45346 -1.013396,1.0132 v 1.12237 c 0,0.55879 0.454224,1.01321 1.013396,1.01321 h 18.223955 c 0.559173,0 1.013399,-0.45442 1.013399,-1.01321 z"
       fill="#e5e5e5"
       id="path5"
       style="stroke-width:0.915913" />
    <path
       d="M 41.922881,108.19919 H 15.357758 C 12.400153,108.19919 10,105.79908 10,102.84147 V 86.417188 c 0,-2.957606 2.400153,-5.357765 5.357758,-5.357765 h 26.565123 c 2.957606,0 5.357758,2.400159 5.357758,5.357765 v 16.424282 c 0,2.95761 -2.400152,5.35772 -5.357758,5.35772 z"
       id="path6"
       style="fill:#2d3d53;fill-opacity:1;stroke-width:1.24615" />
    <path
       d="M 41.922881,108.19919 H 15.357758 C 12.400153,108.19919 10,105.79908 10,102.84147 V 86.417188 c 0,-2.957606 2.400153,-5.357765 5.357758,-5.357765 h 26.565123 c 2.957606,0 5.357758,2.400159 5.357758,5.357765 v 16.424282 c 0,2.95761 -2.400152,5.35772 -5.357758,5.35772 z m 0,-0.86028 c 2.482737,0 4.497491,-2.01468 4.497491,-4.49744 V 86.417188 c 0,-2.482738 -2.014754,-4.497494 -4.497491,-4.497494 H 15.357758 c -2.482738,0 -4.49749,2.014756 -4.49749,4.497494 v 16.424282 c 0,2.48276 2.014752,4.49744 4.49749,4.49744 z"
       id="path7"
       style="fill:#f2f2f2;fill-opacity:1;stroke-width:0.860268" />
    <ellipse
       cx="28.640081"
       cy="84.764862"
       fill="#ffffff"
       stroke-width="1.41256"
       id="circle7"
       style="fill:#f2f2f2;fill-opacity:1"
       rx="12.675418"
       ry="12.75" />
    <path
       d="m 25.803439,76.254951 h 5.673279 v 7.091591 h 5.673274 l -8.509914,9.928226 -8.509908,-9.928226 h 5.673269 z"
       fill="#00987f"
       fill-rule="nonzero"
       id="path8"
       style="fill:#008080;stroke-width:1.41836" />
  </g>
</svg>
