<?xml version="1.0" encoding="UTF-8" standalone="no"?>
<svg
   width="62"
   height="62"
   version="1"
   id="svg7"
   sodipodi:docname="megabasterd.svg"
   inkscape:version="1.4 (unknown)"
   xmlns:inkscape="http://www.inkscape.org/namespaces/inkscape"
   xmlns:sodipodi="http://sodipodi.sourceforge.net/DTD/sodipodi-0.dtd"
   xmlns="http://www.w3.org/2000/svg"
   xmlns:svg="http://www.w3.org/2000/svg">
  <defs
     id="defs7" />
  <sodipodi:namedview
     id="namedview7"
     pagecolor="#ffffff"
     bordercolor="#000000"
     borderopacity="0.25"
     inkscape:showpageshadow="2"
     inkscape:pageopacity="0.0"
     inkscape:pagecheckerboard="0"
     inkscape:deskcolor="#d1d1d1"
     inkscape:zoom="6.0546875"
     inkscape:cx="20.645161"
     inkscape:cy="32.619355"
     inkscape:window-width="1920"
     inkscape:window-height="998"
     inkscape:window-x="0"
     inkscape:window-y="0"
     inkscape:window-maximized="1"
     inkscape:current-layer="svg7" />
  <g
     id="g7"
     transform="matrix(0.94911175,0,0,0.94915254,0.62842405,0.15254239)">
    <path
       style="opacity:0.2"
       d="m 31.94192,37.251975 a 1.0872222,1.3910478 0 0 0 -0.883302,0.693603 L 21.146288,59.91204 A 1.0872222,1.3910478 0 0 0 22.08767,62 h 19.824661 a 1.0872222,1.3910478 0 0 0 0.941381,-2.08796 L 32.941382,37.945578 A 1.0872222,1.3910478 0 0 0 31.94192,37.251975 Z"
       id="path1" />
    <path
       style="fill:#ff2a2a"
       d="m 31.94192,36.251985 a 1.0872222,1.3910478 0 0 0 -0.883302,0.693603 l -9.91233,21.966462 a 1.0872222,1.3910478 0 0 0 0.941382,2.08796 h 19.824661 a 1.0872222,1.3910478 0 0 0 0.941381,-2.08796 L 32.941382,36.945588 A 1.0872222,1.3910478 0 0 0 31.94192,36.251985 Z"
       id="path2" />
    <path
       style="opacity:0.2"
       d="M 32,3.9999416 C 29.906498,4.6325373 14.896802,20.271811 10.61405,26.336414 3.946833,35.777534 2.3319626,42.07157 5.716692,46.874766 7.9449602,50.036855 12.163163,51.87499 16.389159,51.998839 22.977946,52.069249 28.034973,48.927896 32,44.925214 c 3.965027,4.002682 9.022054,7.144029 15.61084,7.073625 C 51.836838,51.875 56.055037,50.036855 58.283309,46.874766 61.668036,42.07157 60.053168,35.777534 53.38595,26.336414 49.103199,20.271811 34.093504,4.6325373 32,3.9999416 Z"
       id="path3" />
    <path
       style="fill:#ff5555"
       d="M 32,3.0000002 C 29.906498,3.632596 14.896802,19.271871 10.61405,25.336473 3.946833,34.777593 2.3319626,41.071628 5.716692,45.874825 c 2.2282682,3.162089 6.446471,5.000224 10.672467,5.124073 6.588787,0.07041 11.645814,-3.070943 15.610841,-7.073626 3.965027,4.002683 9.022054,7.14403 15.61084,7.073626 4.225998,-0.123839 8.444197,-1.961984 10.672469,-5.124073 C 61.668036,41.071628 60.053168,34.777593 53.38595,25.336473 49.103199,19.271871 34.093504,3.632596 32,3.0000002 Z"
       id="path4" />
    <path
       style="opacity:0.2;fill:#ffffff"
       d="M 32,3 C 29.906498,3.6325957 14.896033,19.271335 10.613281,25.335938 6.0343349,31.819959 3.8581073,36.811941 4.0292969,40.863281 4.2222474,36.99611 6.4047581,32.295421 10.613281,26.335938 14.896033,20.271334 29.906498,4.6325957 32,4 c 2.093504,0.6325957 17.103968,16.271334 21.386719,22.335938 4.208524,5.959483 6.391033,10.660172 6.583984,14.527343 0.171189,-4.05134 -2.005037,-9.043322 -6.583984,-15.527343 C 49.103968,19.271335 34.093504,3.6325957 32,3 Z"
       id="path5" />
    <path
       style="opacity:0.2"
       d="m 18,20 v 26 h 6 V 36.8 28.318 L 28.040626,32.758624 32,36.718 35.959376,32.758624 40,28.318 V 36.8 46 h 6 V 20 H 40 L 32,28.4 24,20 Z"
       id="path6" />
    <path
       style="fill:#f2f2f2;fill-opacity:1"
       d="m 18,19 v 26 h 6 V 35.8 27.318 L 28.040626,31.758624 32,35.718 35.959376,31.758624 40,27.318 V 35.8 45 h 6 V 19 H 40 L 32,27.4 24,19 Z"
       id="path7" />
  </g>
</svg>
