<?xml version="1.0" encoding="UTF-8" standalone="no"?>
<svg
   width="62"
   height="62"
   version="1.1"
   id="svg5"
   sodipodi:docname="metro-last-light-redux.svg"
   inkscape:version="1.4.1 (unknown)"
   xmlns:inkscape="http://www.inkscape.org/namespaces/inkscape"
   xmlns:sodipodi="http://sodipodi.sourceforge.net/DTD/sodipodi-0.dtd"
   xmlns:xlink="http://www.w3.org/1999/xlink"
   xmlns="http://www.w3.org/2000/svg"
   xmlns:svg="http://www.w3.org/2000/svg">
  <defs
     id="defs5">
    <linearGradient
       id="linearGradient8"
       inkscape:collect="always">
      <stop
         style="stop-color:#ffcc00;stop-opacity:1"
         offset="0"
         id="stop8" />
      <stop
         style="stop-color:#ffcc00;stop-opacity:1"
         offset="0.3039647"
         id="stop1" />
      <stop
         style="stop-color:#2f4058;stop-opacity:1;"
         offset="0.3039647"
         id="stop3" />
      <stop
         style="stop-color:#4f4f4f;stop-opacity:1;"
         offset="1"
         id="stop10" />
    </linearGradient>
    <linearGradient
       id="linearGradient4217">
      <stop
         style="stop-color:#000000;stop-opacity:1;"
         offset="0"
         id="stop2" />
      <stop
         style="stop-color:#000000;stop-opacity:0;"
         offset="1"
         id="stop4" />
    </linearGradient>
    <linearGradient
       id="linearGradient4161">
      <stop
         style="stop-color:#334545;stop-opacity:1;"
         offset="0"
         id="stop7" />
      <stop
         style="stop-color:#4d6868;stop-opacity:1"
         offset="1"
         id="stop9" />
    </linearGradient>
    <linearGradient
       id="a-1-2"
       y1="510.79999"
       y2="527.14001"
       gradientUnits="userSpaceOnUse"
       x2="0">
      <stop
         stop-color="#7cbaf8"
         id="stop2-2-7" />
      <stop
         offset="1"
         stop-color="#f4fcff"
         id="stop4-70-0" />
    </linearGradient>
    <linearGradient
       id="c"
       y1="503.79999"
       x1="400.57001"
       y2="519.79999"
       x2="416.57001"
       gradientUnits="userSpaceOnUse">
      <stop
         stop-color="#292c2f"
         id="stop12" />
      <stop
         offset="1"
         stop-opacity="0"
         id="stop14" />
    </linearGradient>
    <linearGradient
       id="b"
       y1="542.79999"
       x1="408.57001"
       y2="521.79999"
       x2="387.57001"
       gradientUnits="userSpaceOnUse"
       gradientTransform="translate(-384.57,-499.8)">
      <stop
         stop-color="#197cf1"
         id="stop7-8" />
      <stop
         offset="1"
         stop-color="#20bcfa"
         id="stop9-7" />
    </linearGradient>
    <linearGradient
       xlink:href="#linearGradient1389"
       id="linearGradient4503-5-6"
       y1="37"
       y2="4"
       x2="0"
       gradientUnits="userSpaceOnUse"
       gradientTransform="matrix(1.0218446,0,0,0.99999999,21.748946,8.2587777)" />
    <linearGradient
       id="linearGradient1389">
      <stop
         style="stop-color:#ffaaaa;stop-opacity:1"
         id="stop1385"
         offset="0" />
      <stop
         offset="1"
         style="stop-color:#ff5555;stop-opacity:1"
         id="stop1387" />
    </linearGradient>
    <linearGradient
       id="paint543_linear_890_11"
       x1="978.5"
       y1="298"
       x2="978.5"
       y2="304"
       gradientUnits="userSpaceOnUse"
       gradientTransform="matrix(0.75000004,0,0,0.75000004,-717.38333,-173.49123)">
      <stop
         offset="0.189495"
         stop-color="#EFF2F6"
         id="stop1829" />
      <stop
         offset="0.850463"
         stop-color="#B7C6CD"
         id="stop1830" />
    </linearGradient>
    <linearGradient
       inkscape:collect="always"
       xlink:href="#linearGradient8"
       id="linearGradient10"
       x1="31.5"
       y1="59.017544"
       x2="31.5"
       y2="4.9824562"
       gradientUnits="userSpaceOnUse" />
    <linearGradient
       id="linearGradient4144">
      <stop
         style="stop-color:#c83771;stop-opacity:1"
         offset="0"
         id="stop1141" />
      <stop
         style="stop-color:#de87aa;stop-opacity:1"
         offset="1"
         id="stop1143" />
    </linearGradient>
  </defs>
  <sodipodi:namedview
     id="namedview5"
     pagecolor="#ffffff"
     bordercolor="#000000"
     borderopacity="0.25"
     inkscape:showpageshadow="2"
     inkscape:pageopacity="0.0"
     inkscape:pagecheckerboard="0"
     inkscape:deskcolor="#d1d1d1"
     inkscape:zoom="8.2643105"
     inkscape:cx="25.349967"
     inkscape:cy="49.187406"
     inkscape:window-width="1920"
     inkscape:window-height="998"
     inkscape:window-x="0"
     inkscape:window-y="0"
     inkscape:window-maximized="1"
     inkscape:current-layer="svg5" />
  <rect
     style="opacity:0.2;stroke-width:0.9823"
     width="55"
     height="55.017544"
     x="4"
     y="4.9824562"
     rx="8.25"
     ry="8.2526312"
     id="rect1" />
  <rect
     style="fill:url(#linearGradient10);stroke-width:0.9823"
     width="55"
     height="55.017544"
     x="4"
     y="4"
     rx="8.25"
     ry="8.2526312"
     id="rect2" />
  <path
     style="opacity:0.1;fill:#ffffff;stroke-width:0.9823"
     d="M 12.248466,4 C 7.6779652,4 4,7.6791384 4,12.251097 v 0.982456 C 4,8.6615945 7.6779652,4.9824561 12.248466,4.9824561 H 50.751534 C 55.322034,4.9824561 59,8.6615945 59,13.233553 V 12.251097 C 59,7.6791384 55.322034,4 50.751534,4 Z"
     id="path4" />
  <g
     id="g3"
     transform="translate(-2.063001e-6,0.12100223)">
    <path
       style="opacity:0.2"
       d="m 40.791993,9.8370408 c -2.181984,4.94e-4 -2.074239,0.115514 -3.186857,1.9223732 -3.206453,5.207155 -5.826526,9.237502 -6.004861,9.237502 -0.117521,0 -0.722155,-0.821068 -1.343616,-1.824852 -0.62146,-1.003785 -1.228053,-1.888636 -1.348233,-1.966318 C 28.788253,17.128006 28.601119,16.81733 28.492659,16.515527 28.384193,16.213726 27.974826,15.483283 27.582943,14.89217 27.191049,14.301046 26.788564,13.680155 26.688502,13.512461 25.367638,11.298903 24.886806,10.561276 24.588683,10.290037 24.27727,10.006709 23.727744,9.9590228 20.04861,9.8956248 c -3.502462,-0.06037 -4.185769,-0.03045 -4.185769,0.1839832 0,0.431814 1.884117,3.132241 2.319423,3.324246 0.25853,0.114014 0.450794,0.401841 0.521674,0.781668 0.09173,0.491512 2.094304,3.76967 3.881588,6.354102 0.658711,0.952524 2.624287,3.954401 3.212085,4.905448 0.310602,0.502545 0.679039,1.006166 0.818751,1.118912 0.139712,0.112745 0.451711,0.572851 0.693302,1.022821 0.241588,0.449971 0.735582,1.229661 1.097706,1.732671 0.362122,0.50302 0.942303,1.39799 1.289247,1.98847 0.346945,0.59048 0.806624,1.19127 1.021652,1.33506 0.21504,0.14379 0.491019,0.50406 0.613354,0.80096 0.12232,0.2969 0.277227,0.53981 0.343989,0.53981 0.06677,0 1.719329,-2.40225 3.67264,-5.33843 1.9533,-2.936186 3.915322,-5.370983 4.034596,-5.410958 0.165717,-0.05556 0.21712,1.864765 0.21712,8.142868 0,4.51873 0.0545,8.27086 0.121187,8.33794 0.06667,0.067 1.633677,0.12181 3.807821,0.12181 2.883721,0 3.719145,-0.0268 3.970782,-0.18398 v -28.94679 c -0.04661,-0.468476 -0.137781,-0.573815 -0.316277,-0.669856 -0.536854,-0.2888462 -0.890496,-0.2429502 -1.299904,0.16863 -0.455263,0.457689 -0.583104,0.457689 -0.867423,0 -0.211873,-0.3410742 -0.424599,-0.3658222 -3.13889,-0.3658222 -0.415401,0 -0.773557,-0.0022 -1.085269,-0.0022 z M 15.94635,13.680372 c -0.274272,0 -0.444874,2.198263 -0.446335,5.74748 -9.17e-4,2.307817 0.0464,2.782193 0.306676,3.071309 0.289089,0.321138 0.289089,0.373629 0,0.865625 -0.44081,0.750205 -0.397364,1.572387 0.101654,1.924516 l 0.409376,0.289019 -0.351807,0.590191 c -0.327211,0.549375 -0.354571,1.034249 -0.394454,6.990724 -0.03157,4.72125 0.01306,6.43672 0.169867,6.53844 0.116879,0.0758 1.97281,0.1176 4.124297,0.0929 l 3.645146,-0.045 0.04726,-7.8192 0.04757,-7.819548 -0.664521,-1.006027 c -0.300534,-0.605488 -0.657732,-1.125965 -0.95757,-1.613431 -0.224671,-0.540574 -1.229002,-2.123512 -3.009534,-4.743965 -0.831638,-1.223929 -1.650709,-1.579369 -1.658464,-0.719868 -0.0021,0.266554 -0.02709,0.271111 -0.179104,0.03464 -0.09696,-0.150901 -0.177641,-0.57981 -0.179092,-0.953148 -0.0032,-0.676193 -0.534028,-1.424726 -1.010999,-1.424726 z m 25.414922,2.989488 c 0.22847,0.0096 0.337599,0.234021 0.337599,0.679849 0,0.563606 -0.223806,0.661844 -0.773269,0.340106 -0.42528,-0.249021 -0.403124,-0.658422 0.04907,-0.901707 0.154262,-0.08301 0.282785,-0.122795 0.386625,-0.118254 z m -0.460543,2.70476 c 0.0865,-0.0075 0.1576,0.0033 0.193322,0.03893 0.05248,0.05276 0.0415,0.183502 -0.02453,0.290799 -0.147488,0.239908 -0.826208,0.260186 -0.826208,0.02467 0,-0.147479 0.398069,-0.331926 0.657409,-0.3544 z m 4.902536,1.805206 c 0.04417,0 0.08032,0.08235 0.08032,0.182911 0,0.100582 -0.08661,0.182911 -0.192598,0.182911 -0.10592,0 -0.142165,-0.08236 -0.08032,-0.182911 0.06186,-0.100582 0.14848,-0.182911 0.192607,-0.182911 z m 1.539061,0.534449 c 0.03147,0.0042 0.06646,0.02359 0.103788,0.06112 0.05887,0.05919 0.07146,0.257987 0.02805,0.441916 -0.07541,0.319539 -0.08501,0.319829 -0.22032,0.0064 -0.115946,-0.268548 -0.04779,-0.528508 0.08854,-0.509441 z m -21.100513,2.247123 c 0.117094,0.0075 0.17377,0.199683 0.17377,0.587327 0,0.729779 -0.04011,0.773369 -0.356777,0.389758 -0.261792,-0.317128 -0.188928,-0.862687 0.129346,-0.969225 0.0192,-0.0064 0.0369,-0.0086 0.05366,-0.0075 z m -7.12246,5.481688 c 0.178378,-0.012 0.346121,0.20936 0.412564,0.58912 0.08619,0.4927 -0.261076,0.54941 -0.546891,0.0893 -0.172819,-0.2782 -0.185279,-0.44357 -0.04406,-0.58554 0.05856,-0.0589 0.11892,-0.0889 0.17839,-0.0929 z m -0.832256,1.36149 c 0.05323,-4.7e-4 0.11512,0.006 0.185493,0.0196 0.338731,0.0651 0.409568,0.17292 0.342924,0.52337 -0.0656,0.34502 -0.198648,0.44121 -0.608726,0.44121 -0.288545,0 -0.524512,0.0824 -0.524512,0.18291 0,0.10058 -0.214816,0.18292 -0.477248,0.18292 -0.417258,0 -0.44673,-0.0367 -0.234891,-0.29331 0.133226,-0.16137 0.42992,-0.365 0.659189,-0.45264 0.22927,-0.0876 0.416841,-0.27353 0.416841,-0.41298 0,-0.12549 0.08139,-0.18971 0.24093,-0.19113 z m 13.828451,0.32582 c 0.07797,-0.012 0.15968,0.0228 0.203615,0.0943 0.05856,0.0953 0.0287,0.2212 -0.06614,0.28009 -0.09483,0.0589 -0.220022,0.0292 -0.278592,-0.0661 -0.05856,-0.0953 -0.02901,-0.22119 0.06571,-0.2801 0.02367,-0.0147 0.04928,-0.0242 0.07531,-0.0282 z m -10.284805,1.30469 c 0.115347,-0.0142 0.220651,0.0411 0.227787,0.17684 0.0054,0.10058 -0.126974,0.21138 -0.293887,0.24615 -0.18972,0.0395 -0.273111,-0.029 -0.222104,-0.18292 0.04726,-0.1424 0.172855,-0.22594 0.288204,-0.24007 z"
       id="path2" />
    <path
       style="fill:#f3f3f3;fill-opacity:1"
       d="m 40.791993,8.8370408 c -2.181984,4.94e-4 -2.074239,0.115514 -3.186857,1.9223732 -3.206453,5.207155 -5.826526,9.237502 -6.004861,9.237502 -0.117521,0 -0.722155,-0.821068 -1.343616,-1.824852 -0.62146,-1.003785 -1.228053,-1.888636 -1.348233,-1.966318 C 28.788253,16.128006 28.601119,15.81733 28.492659,15.515527 28.384193,15.213726 27.974826,14.483283 27.582943,13.89217 27.191049,13.301046 26.788564,12.680155 26.688502,12.512461 25.367638,10.298903 24.886806,9.5612758 24.588683,9.2900368 24.27727,9.0067088 23.727744,8.9590228 20.04861,8.8956248 c -3.502462,-0.06037 -4.185769,-0.03045 -4.185769,0.183983 0,0.431814 1.884117,3.1322412 2.319423,3.3242462 0.25853,0.114014 0.450794,0.401841 0.521674,0.781668 0.09173,0.491512 2.094304,3.76967 3.881588,6.354102 0.658711,0.952524 2.624287,3.954401 3.212085,4.905448 0.310602,0.502545 0.679039,1.006166 0.818751,1.118912 0.139712,0.112745 0.451711,0.572851 0.693302,1.022821 0.241588,0.449969 0.735582,1.229661 1.097706,1.732671 0.362122,0.50302 0.942303,1.39799 1.289247,1.98847 0.346945,0.59048 0.806624,1.19127 1.021652,1.33506 0.21504,0.14379 0.491019,0.50406 0.613354,0.80096 0.12232,0.2969 0.277227,0.53981 0.343989,0.53981 0.06677,0 1.719329,-2.40225 3.67264,-5.338433 1.9533,-2.936183 3.915322,-5.37098 4.034596,-5.410955 0.165717,-0.05556 0.21712,1.864765 0.21712,8.142868 0,4.51873 0.0545,8.27086 0.121187,8.33794 0.06667,0.067 1.633677,0.12181 3.807821,0.12181 2.883721,0 3.719145,-0.0268 3.970782,-0.18398 V 9.7062358 c -0.04661,-0.468476 -0.137781,-0.573815 -0.316277,-0.669856 -0.536854,-0.288846 -0.890496,-0.24295 -1.299904,0.16863 -0.455263,0.457689 -0.583104,0.457689 -0.867423,0 -0.211873,-0.341074 -0.424599,-0.365822 -3.13889,-0.365822 -0.415401,0 -0.773557,-0.0022 -1.085269,-0.0022 z M 15.94635,12.680372 c -0.274272,0 -0.444874,2.198263 -0.446335,5.74748 -9.17e-4,2.307817 0.0464,2.782193 0.306676,3.071309 0.289089,0.321138 0.289089,0.373629 0,0.865625 -0.44081,0.750205 -0.397364,1.572387 0.101654,1.924516 l 0.409376,0.289019 -0.351807,0.590191 c -0.327211,0.549375 -0.354571,1.034249 -0.394454,6.990724 -0.03157,4.72125 0.01306,6.43672 0.169867,6.53844 0.116879,0.0758 1.97281,0.1176 4.124297,0.0929 l 3.645146,-0.045 0.04726,-7.8192 0.04757,-7.819548 -0.664521,-1.006027 c -0.300534,-0.605488 -0.657732,-1.125965 -0.95757,-1.613431 -0.224671,-0.540574 -1.229002,-2.123512 -3.009534,-4.743965 -0.831638,-1.223929 -1.650709,-1.579369 -1.658464,-0.719868 -0.0021,0.266554 -0.02709,0.271111 -0.179104,0.03464 -0.09696,-0.150901 -0.177641,-0.57981 -0.179092,-0.953148 -0.0032,-0.676193 -0.534028,-1.424726 -1.010999,-1.424726 z m 25.414922,2.989488 c 0.22847,0.0096 0.337599,0.234021 0.337599,0.679849 0,0.563606 -0.223806,0.661844 -0.773269,0.340106 -0.42528,-0.249021 -0.403124,-0.658422 0.04907,-0.901707 0.154262,-0.08301 0.282785,-0.122795 0.386625,-0.118254 z m -0.460543,2.70476 c 0.0865,-0.0075 0.1576,0.0033 0.193322,0.03893 0.05248,0.05276 0.0415,0.183502 -0.02453,0.290799 -0.147488,0.239908 -0.826208,0.260186 -0.826208,0.02467 0,-0.147479 0.398069,-0.331926 0.657409,-0.3544 z m 4.902536,1.805206 c 0.04417,0 0.08032,0.08235 0.08032,0.182911 0,0.100582 -0.08661,0.182911 -0.192598,0.182911 -0.10592,0 -0.142165,-0.08236 -0.08032,-0.182911 0.06186,-0.100582 0.14848,-0.182911 0.192607,-0.182911 z m 1.539061,0.534449 c 0.03147,0.0042 0.06646,0.02359 0.103788,0.06112 0.05887,0.05919 0.07146,0.257987 0.02805,0.441916 -0.07541,0.319539 -0.08501,0.319829 -0.22032,0.0064 -0.115946,-0.268548 -0.04779,-0.528508 0.08854,-0.509441 z m -21.100513,2.247123 c 0.117094,0.0075 0.17377,0.199683 0.17377,0.587327 0,0.729779 -0.04011,0.773369 -0.356777,0.389758 -0.261792,-0.317128 -0.188928,-0.862687 0.129346,-0.969225 0.0192,-0.0064 0.0369,-0.0086 0.05366,-0.0075 z m -7.12246,5.481688 c 0.178378,-0.012 0.346121,0.20936 0.412564,0.58912 0.08619,0.4927 -0.261076,0.54941 -0.546891,0.0893 -0.172819,-0.2782 -0.185279,-0.44357 -0.04406,-0.58554 0.05856,-0.0589 0.11892,-0.0889 0.17839,-0.0929 z m -0.832256,1.36149 c 0.05323,-4.7e-4 0.11512,0.006 0.185493,0.0196 0.338731,0.0651 0.409568,0.17292 0.342924,0.52337 -0.0656,0.34502 -0.198648,0.44121 -0.608726,0.44121 -0.288545,0 -0.524512,0.0824 -0.524512,0.18291 0,0.10058 -0.214816,0.18292 -0.477248,0.18292 -0.417258,0 -0.44673,-0.0367 -0.234891,-0.29331 0.133226,-0.16137 0.42992,-0.365 0.659189,-0.45264 0.22927,-0.0876 0.416841,-0.27353 0.416841,-0.41298 0,-0.12549 0.08139,-0.18971 0.24093,-0.19113 z m 13.828451,0.32582 c 0.07797,-0.012 0.15968,0.0228 0.203615,0.0943 0.05856,0.0953 0.0287,0.2212 -0.06614,0.28009 -0.09483,0.0589 -0.220022,0.0292 -0.278592,-0.0661 -0.05856,-0.0953 -0.02901,-0.22119 0.06571,-0.2801 0.02367,-0.0147 0.04928,-0.0242 0.07531,-0.0282 z m -10.284805,1.30469 c 0.115347,-0.0142 0.220651,0.0411 0.227787,0.17684 0.0054,0.10058 -0.126974,0.21138 -0.293887,0.24615 -0.18972,0.0395 -0.273111,-0.029 -0.222104,-0.18292 0.04726,-0.1424 0.172855,-0.22594 0.288204,-0.24007 z"
       id="path3-2" />
  </g>
  <text
     xml:space="preserve"
     style="font-size:10.1604px;font-family:'Blush Asliring';-inkscape-font-specification:'Blush Asliring';text-align:start;writing-mode:lr-tb;direction:ltr;text-anchor:start;fill:#2f4058;fill-opacity:1;stroke:#2f4058;stroke-width:0.190517;stroke-linecap:round;stroke-linejoin:round;stroke-opacity:1;paint-order:fill markers stroke"
     x="4.0505948"
     y="51.446354"
     id="text1"
     transform="scale(0.96276803,1.0386718)"><tspan
       sodipodi:role="line"
       id="tspan1"
       x="4.0505948"
       y="51.446354"
       style="stroke-width:0.190517">LAST LIGHT</tspan></text>
</svg>
