<?xml version="1.0" encoding="UTF-8" standalone="no"?>
<svg
   width="62"
   height="62"
   version="1.1"
   id="svg4"
   sodipodi:docname="micropad.svg"
   inkscape:version="1.4 (unknown)"
   xmlns:inkscape="http://www.inkscape.org/namespaces/inkscape"
   xmlns:sodipodi="http://sodipodi.sourceforge.net/DTD/sodipodi-0.dtd"
   xmlns:xlink="http://www.w3.org/1999/xlink"
   xmlns="http://www.w3.org/2000/svg"
   xmlns:svg="http://www.w3.org/2000/svg">
  <defs
     id="defs4">
    <linearGradient
       id="linearGradient1"
       inkscape:collect="always">
      <stop
         style="stop-color:#2d3d53;stop-opacity:1;"
         offset="0"
         id="stop1" />
      <stop
         style="stop-color:#aa87de;stop-opacity:1"
         offset="1"
         id="stop2" />
    </linearGradient>
    <linearGradient
       inkscape:collect="always"
       xlink:href="#linearGradient1"
       id="linearGradient2"
       x1="31"
       y1="58.017544"
       x2="31"
       y2="3.9824562"
       gradientUnits="userSpaceOnUse" />
  </defs>
  <sodipodi:namedview
     id="namedview4"
     pagecolor="#ffffff"
     bordercolor="#000000"
     borderopacity="0.25"
     inkscape:showpageshadow="2"
     inkscape:pageopacity="0.0"
     inkscape:pagecheckerboard="0"
     inkscape:deskcolor="#d1d1d1"
     inkscape:zoom="10"
     inkscape:cx="25.75"
     inkscape:cy="31.35"
     inkscape:window-width="1920"
     inkscape:window-height="998"
     inkscape:window-x="0"
     inkscape:window-y="0"
     inkscape:window-maximized="1"
     inkscape:current-layer="svg4" />
  <ellipse
     style="opacity:0.2;stroke-width:0.9823"
     cx="31"
     cy="31.491228"
     id="circle1"
     rx="27.5"
     ry="27.508772" />
  <ellipse
     style="fill:url(#linearGradient2);fill-opacity:1;stroke-width:0.9823"
     cx="31"
     cy="30.508772"
     id="circle2"
     rx="27.5"
     ry="27.508772" />
  <path
     style="opacity:0.1;fill:#ffffff;stroke-width:0.9823"
     d="M 31,3 A 27.5,27.508772 0 0 0 3.4999999,30.508772 27.5,27.508772 0 0 0 3.5326101,30.98273 27.5,27.508772 0 0 1 31,3.9824562 27.5,27.508772 0 0 1 58.482736,30.746711 27.5,27.508772 0 0 0 58.5,30.508772 27.5,27.508772 0 0 0 31,3 Z"
     id="path4" />
  <g
     id="g1"
     transform="translate(2.3841858e-7,-1.4000063)">
    <rect
       x="19.75"
       y="14.000012"
       width="6.6490474"
       height="36"
       style="clip-rule:evenodd;fill:#ffffff;fill-rule:evenodd;stroke-width:0.0937451;stroke-linejoin:round;stroke-miterlimit:2"
       id="rect8" />
    <path
       d="m 35.60095,32.582558 c -4.414898,3.741319 -8.358598,2.893764 -9.201904,-3.77338 l -1.692628,9.380684 c 3.723801,3.764126 8.603599,3.091747 14.219056,-0.406811 z"
       style="clip-rule:evenodd;fill:#ffffff;fill-rule:evenodd;stroke-width:0.0937451;stroke-linejoin:round;stroke-miterlimit:2"
       id="path10"
       inkscape:connector-curvature="0" />
    <rect
       x="35.600952"
       y="14.000012"
       width="6.6490474"
       height="26.216522"
       style="clip-rule:evenodd;fill:#ffffff;fill-rule:evenodd;stroke-width:0.0937451;stroke-linejoin:round;stroke-miterlimit:2"
       id="rect12" />
    <rect
       x="19.75"
       y="14.8"
       width="6.6490474"
       height="36"
       style="clip-rule:evenodd;opacity:0.229545;fill:#ffffff;fill-rule:evenodd;stroke-width:0.0937451;stroke-linejoin:round;stroke-miterlimit:2"
       id="rect8-7" />
    <path
       d="m 35.60095,33.382546 c -4.414898,3.741319 -8.358598,2.893764 -9.201904,-3.77338 l -1.692628,9.380684 c 3.723801,3.764126 8.603599,3.091747 14.219056,-0.406811 z"
       style="clip-rule:evenodd;opacity:0.229545;fill:#ffffff;fill-rule:evenodd;stroke-width:0.0937451;stroke-linejoin:round;stroke-miterlimit:2"
       id="path10-5"
       inkscape:connector-curvature="0" />
    <rect
       x="35.600952"
       y="14.8"
       width="6.6490474"
       height="26.216522"
       style="clip-rule:evenodd;opacity:0.229545;fill:#ffffff;fill-rule:evenodd;stroke-width:0.0937451;stroke-linejoin:round;stroke-miterlimit:2"
       id="rect12-3" />
  </g>
</svg>
