<?xml version="1.0" encoding="UTF-8" standalone="no"?>
<svg
   width="62"
   height="62"
   version="1.1"
   id="svg10"
   sodipodi:docname="microscope.svg"
   inkscape:version="1.4.1 (unknown)"
   xmlns:inkscape="http://www.inkscape.org/namespaces/inkscape"
   xmlns:sodipodi="http://sodipodi.sourceforge.net/DTD/sodipodi-0.dtd"
   xmlns:xlink="http://www.w3.org/1999/xlink"
   xmlns="http://www.w3.org/2000/svg"
   xmlns:svg="http://www.w3.org/2000/svg">
  <defs
     id="defs10">
    <linearGradient
       id="linearGradient1"
       inkscape:collect="always">
      <stop
         style="stop-color:#7137c8;stop-opacity:1"
         offset="0"
         id="stop5" />
      <stop
         style="stop-color:#0066ff;stop-opacity:1"
         offset="1"
         id="stop6" />
    </linearGradient>
    <linearGradient
       id="linearGradient11"
       inkscape:collect="always">
      <stop
         style="stop-color:#a4b4c1;stop-opacity:1;"
         offset="0"
         id="stop11" />
      <stop
         style="stop-color:#e4ebec;stop-opacity:1;"
         offset="1"
         id="stop12" />
    </linearGradient>
    <linearGradient
       inkscape:collect="always"
       xlink:href="#linearGradient11"
       id="linearGradient12"
       x1="32"
       y1="60"
       x2="32"
       y2="4"
       gradientUnits="userSpaceOnUse"
       gradientTransform="matrix(1,0,0,0.98245614,-1,-0.43859645)" />
    <linearGradient
       id="paint154_linear_890_11"
       x1="778"
       y1="812.29199"
       x2="788"
       y2="812.29199"
       gradientUnits="userSpaceOnUse">
      <stop
         stop-color="#EFF2F6"
         id="stop1050" />
      <stop
         offset="0.600785"
         stop-color="#B7C6CD"
         id="stop1051" />
    </linearGradient>
    <linearGradient
       id="paint155_linear_890_11"
       x1="783"
       y1="813"
       x2="783"
       y2="817"
       gradientUnits="userSpaceOnUse">
      <stop
         stop-color="#EFF2F6"
         id="stop1052" />
      <stop
         offset="0.734138"
         stop-color="#B7C6CD"
         id="stop1053" />
    </linearGradient>
    <radialGradient
       id="paint156_radial_890_11"
       cx="0"
       cy="0"
       r="1"
       gradientUnits="userSpaceOnUse"
       gradientTransform="matrix(6.9999948,6.9999948,-6.9999948,6.9999948,45.000143,44.000006)">
      <stop
         offset="0.600678"
         stop-color="#B7C6CD"
         id="stop1054" />
      <stop
         offset="0.876735"
         stop-color="#EFF2F6"
         id="stop1055" />
    </radialGradient>
    <linearGradient
       id="paint157_linear_890_11"
       x1="803"
       y1="805"
       x2="763"
       y2="765"
       gradientUnits="userSpaceOnUse"
       gradientTransform="matrix(0.29166667,0,0,0.29166667,-183.37486,-184.95833)">
      <stop
         offset="0.314714"
         stop-color="#2E2E41"
         id="stop1056" />
      <stop
         offset="0.711139"
         stop-color="#566C80"
         id="stop1057" />
    </linearGradient>
    <linearGradient
       id="paint158_linear_890_11"
       x1="792"
       y1="794"
       x2="774"
       y2="776"
       gradientUnits="userSpaceOnUse"
       xlink:href="#paint160_linear_890_11"
       gradientTransform="matrix(0.29166667,0,0,0.29166667,-183.37486,-184.95833)">
      <stop
         offset="0.304478"
         stop-color="#2E2E41"
         id="stop1058"
         style="stop-color:#ffcc00;stop-opacity:1" />
      <stop
         offset="1"
         stop-color="#566C80"
         id="stop1059"
         style="stop-color:#ffb380;stop-opacity:1" />
    </linearGradient>
    <linearGradient
       id="paint160_linear_890_11"
       x1="784"
       y1="798"
       x2="782"
       y2="796"
       gradientUnits="userSpaceOnUse">
      <stop
         stop-color="#FF7E07"
         id="stop1062" />
      <stop
         offset="1"
         stop-color="#FFE607"
         id="stop1063" />
    </linearGradient>
    <linearGradient
       id="paint159_linear_890_11"
       x1="788"
       y1="790"
       x2="778"
       y2="780"
       gradientUnits="userSpaceOnUse"
       gradientTransform="matrix(0.29166667,0,0,0.29166667,-183.37486,-184.95833)">
      <stop
         offset="0.39139399"
         stop-color="#5200FF"
         id="stop1060"
         style="stop-color:#854cff;stop-opacity:1;" />
      <stop
         offset="1"
         stop-color="#0085FF"
         id="stop1061"
         style="stop-color:#40a4ff;stop-opacity:1;" />
    </linearGradient>
    <linearGradient
       id="c"
       x1="23.813"
       x2="23.813"
       y1="13.436"
       y2="35.035999"
       gradientTransform="matrix(1.2307,0,0,1.2307,-4.055,41.465)"
       gradientUnits="userSpaceOnUse">
      <stop
         offset="0"
         stop-color="#20adff"
         id="stop3" />
      <stop
         offset="1"
         stop-color="#345da2"
         id="stop4" />
    </linearGradient>
    <filter
       id="c-3"
       width="1.0595472"
       height="1.049413"
       x="-0.029773596"
       y="-0.024706516"
       color-interpolation-filters="sRGB">
      <feGaussianBlur
         stdDeviation="2.056"
         id="feGaussianBlur6" />
    </filter>
    <linearGradient
       id="d"
       x1="69.128998"
       x2="69.128998"
       y1="139.33"
       y2="-18.862"
       gradientUnits="userSpaceOnUse">
      <stop
         offset="0"
         stop-color="#6c523c"
         id="stop3-6" />
      <stop
         offset="1"
         stop-color="#ae7952"
         stop-opacity=".965"
         id="stop4-7" />
    </linearGradient>
    <linearGradient
       id="e"
       x1="78.639"
       x2="78.639"
       y1="143.06"
       y2="-25.268999"
       gradientUnits="userSpaceOnUse">
      <stop
         offset="0"
         stop-color="#291d1a"
         id="stop1" />
      <stop
         offset="1"
         stop-color="#513c34"
         id="stop2" />
    </linearGradient>
    <clipPath
       id="_clip2">
      <path
         d="m 362.691,209.643 h 9.844 v 36.359 H 65.488 v 33.244 H 33.142 V 176.398 h 32.346 v 33.245 H 226.136 V 68.456 h 36.772 z M 258.482,114.224 v 95.419 h 67.436 z"
         id="path44" />
    </clipPath>
    <clipPath
       id="_clip3">
      <path
         d="m 222.648,71.647 v 137.967 h 20.733 V 71.647 Z"
         id="path47" />
    </clipPath>
    <clipPath
       id="_clip4">
      <path
         d="m 246.665,71.675 99.352,137.968 H 366.75 L 267.398,71.675 Z"
         id="path54" />
    </clipPath>
    <clipPath
       id="_clip5">
      <path
         d="m 86.76,328.6 c -0.209,0.14 -0.307,0.397 -0.242,0.64 0.065,0.244 0.279,0.418 0.53,0.434 5.977,0.37 25.279,1.568 25.279,1.568 l -4.458,-16.639 c 0,0 -16.118,10.688 -21.109,13.997 z"
         id="path73" />
    </clipPath>
    <linearGradient
       id="linear0"
       x1="3.3408741"
       x2="3.3408741"
       y1="-0.00024570952"
       y2="13.004275"
       gradientTransform="matrix(1.9224124,0,0,2.9220593,12.07748,12.000735)"
       gradientUnits="userSpaceOnUse">
      <stop
         offset="0%"
         style="stop-color:#00b54e; stop-opacity:1"
         id="stop1-3" />
      <stop
         offset="50%"
         style="stop-color:#0073ff; stop-opacity:1"
         id="stop2-6" />
      <stop
         offset="100%"
         style="stop-color:#ffd000; stop-opacity:1"
         id="stop3-7" />
    </linearGradient>
    <linearGradient
       inkscape:collect="always"
       xlink:href="#linearGradient1"
       id="linearGradient6"
       x1="31.83449"
       y1="50"
       x2="31.625"
       y2="12"
       gradientUnits="userSpaceOnUse"
       gradientTransform="matrix(1.1200009,0,0,1.1052634,-3.72001,-3.2631563)" />
  </defs>
  <sodipodi:namedview
     id="namedview10"
     pagecolor="#ffffff"
     bordercolor="#000000"
     borderopacity="0.25"
     inkscape:showpageshadow="2"
     inkscape:pageopacity="0.0"
     inkscape:pagecheckerboard="0"
     inkscape:deskcolor="#d1d1d1"
     inkscape:zoom="8"
     inkscape:cx="35.6875"
     inkscape:cy="43.9375"
     inkscape:window-width="1920"
     inkscape:window-height="998"
     inkscape:window-x="0"
     inkscape:window-y="0"
     inkscape:window-maximized="1"
     inkscape:current-layer="svg10"
     showgrid="false">
    <inkscape:grid
       id="grid1"
       units="px"
       originx="0"
       originy="0"
       spacingx="1"
       spacingy="1"
       empcolor="#0099e5"
       empopacity="0.30196078"
       color="#0099e5"
       opacity="0.14901961"
       empspacing="5"
       enabled="true"
       visible="false" />
  </sodipodi:namedview>
  <rect
     style="opacity:0.2;stroke-width:0.991189"
     width="56"
     height="55.017544"
     x="3"
     y="3.9824562"
     rx="16.799999"
     ry="16.505262"
     id="rect1" />
  <rect
     style="fill:url(#linearGradient12);stroke-width:0.991189"
     width="56"
     height="55.017544"
     x="3"
     y="3.4912281"
     rx="16.799999"
     ry="16.505262"
     id="rect2" />
  <path
     style="opacity:0.1;fill:#ffffff;stroke-width:0.991189"
     d="M 19.800781,3 C 10.493582,3 3,10.362116 3,19.50603 v 0.982457 C 3,11.344572 10.493582,3.9824562 19.800781,3.9824562 H 42.199219 C 51.506418,3.9824562 59,11.344572 59,20.488487 V 19.50603 C 59,10.362116 51.506418,3 42.199219,3 Z"
     id="path9" />
  <path
     d="m 26.575593,10.029707 -6.326063,2.630189 c -0.217196,0.08672 -0.339092,0.296603 -0.256979,0.50399 l 0.715268,1.669472 c 0.09002,0.21 0.299347,0.291371 0.51127,0.202068 l 1.42788,-0.556483 0.407946,1.063097 -0.611949,0.251999 c -0.996056,0.391145 -1.009304,0.430497 -0.611915,1.414857 l 1.581497,3.793047 -1.327194,0.506614 c -4.159105,1.674735 -6.175067,6.402262 -4.490244,10.518203 l 1.631856,3.94265 c 1.181491,-1.131377 2.725926,-1.858455 4.49288,-1.871587 l -1.584159,-3.892809 c -0.664911,-1.648456 0.132443,-3.520054 1.788141,-4.197266 l 1.324562,-0.503986 0.715238,1.666821 7.194981,-2.882185 -4.082276,-10.011556 c -0.394706,-0.99221 -0.381466,-1.005357 -1.377527,-0.606361 l -0.765583,0.301878 -0.407977,-1.060484 1.072909,-0.456731 c 0.217184,-0.08677 0.294014,-0.338642 0.203934,-0.553875 l -0.662278,-1.619565 c -0.09002,-0.21 -0.347025,-0.341267 -0.564259,-0.254684 z m 7.60558,16.786558 -7.247946,2.884783 0.868901,2.123574 2.551077,1.060513 3.573668,-1.46473 1.120551,-2.477955 z m 6.890296,5.512346 c -0.161534,0.02608 -0.317871,0.07868 -0.460934,0.152237 L 27.59816,37.688777 c -0.900702,-1.123509 -2.264983,-1.871612 -3.827956,-1.871612 -2.707393,0 -4.900855,2.173441 -4.900855,4.856189 0.0074,2.404406 1.785522,4.446627 4.185597,4.803637 0.03965,0.08068 0.06883,0.170852 0.103191,0.252 0.503323,1.228401 1.300694,2.226 2.243775,3.034387 h -4.898174 c -0.90333,0 -1.63449,0.724602 -1.63449,1.619632 V 52 H 45 v -1.61699 c 0,-0.900261 -0.728509,-1.619632 -1.634493,-1.619632 H 37.39445 l 5.001486,-1.921373 c 1.263628,-0.480357 1.920606,-1.884666 1.427874,-3.13422 -0.233123,-0.598432 -0.699359,-1.081432 -1.292771,-1.336136 -0.593393,-0.257221 -1.266253,-0.267676 -1.870244,-0.03146 l -8.726137,3.338887 c -1.66364,0.666778 -3.555112,-0.126 -4.235936,-1.769177 -0.02472,-0.06574 -0.07669,-0.178566 -0.100725,-0.252 0.675531,-0.834721 1.051708,-1.866342 1.070239,-2.937321 L 41.836953,35.46281 c 0.744408,-0.278261 1.184139,-1.049978 1.030505,-1.826967 -0.15109,-0.776969 -0.847715,-1.330849 -1.645091,-1.307239 z m -17.301266,6.725165 c 0.898034,0 1.631832,0.729666 1.631832,1.619598 0,0.889857 -0.733798,1.61698 -1.631832,1.61698 -0.898054,0 -1.634512,-0.727123 -1.634512,-1.61698 0,-0.889932 0.736458,-1.619598 1.634512,-1.619598 z"
     id="path3-5"
     style="fill:url(#linearGradient6);fill-opacity:1;stroke-width:1.1126" />
</svg>
