<?xml version="1.0" encoding="UTF-8" standalone="no"?>
<svg
   width="62"
   height="62"
   version="1.1"
   id="svg4"
   sodipodi:docname="micro.svg"
   inkscape:version="1.4 (unknown)"
   xmlns:inkscape="http://www.inkscape.org/namespaces/inkscape"
   xmlns:sodipodi="http://sodipodi.sourceforge.net/DTD/sodipodi-0.dtd"
   xmlns:xlink="http://www.w3.org/1999/xlink"
   xmlns="http://www.w3.org/2000/svg"
   xmlns:svg="http://www.w3.org/2000/svg">
  <defs
     id="defs4">
    <linearGradient
       id="linearGradient1"
       inkscape:collect="always">
      <stop
         style="stop-color:#374762;stop-opacity:1;"
         offset="0"
         id="stop1" />
      <stop
         style="stop-color:#37c871;stop-opacity:1"
         offset="1"
         id="stop2" />
    </linearGradient>
    <linearGradient
       inkscape:collect="always"
       xlink:href="#linearGradient1"
       id="linearGradient2"
       x1="31"
       y1="58.017544"
       x2="31"
       y2="3.9824562"
       gradientUnits="userSpaceOnUse" />
  </defs>
  <sodipodi:namedview
     id="namedview4"
     pagecolor="#ffffff"
     bordercolor="#000000"
     borderopacity="0.25"
     inkscape:showpageshadow="2"
     inkscape:pageopacity="0.0"
     inkscape:pagecheckerboard="0"
     inkscape:deskcolor="#d1d1d1"
     inkscape:zoom="10"
     inkscape:cx="14.15"
     inkscape:cy="31.35"
     inkscape:window-width="1920"
     inkscape:window-height="998"
     inkscape:window-x="0"
     inkscape:window-y="0"
     inkscape:window-maximized="1"
     inkscape:current-layer="svg4" />
  <ellipse
     style="opacity:0.2;stroke-width:0.9823"
     cx="31"
     cy="31.491228"
     id="circle1"
     rx="27.5"
     ry="27.508772" />
  <ellipse
     style="fill:url(#linearGradient2);fill-opacity:1;stroke-width:0.9823"
     cx="31"
     cy="30.508772"
     id="circle2"
     rx="27.5"
     ry="27.508772" />
  <path
     style="opacity:0.1;fill:#ffffff;stroke-width:0.9823"
     d="M 31,3 A 27.5,27.508772 0 0 0 3.4999999,30.508772 27.5,27.508772 0 0 0 3.5326101,30.98273 27.5,27.508772 0 0 1 31,3.9824562 27.5,27.508772 0 0 1 58.482736,30.746711 27.5,27.508772 0 0 0 58.5,30.508772 27.5,27.508772 0 0 0 31,3 Z"
     id="path4" />
  <g
     id="g1"
     transform="matrix(1.0384615,0,0,1.030303,13.346154,-33.924241)">
    <path
       style="opacity:0.2"
       d="m 29.64928,64.661796 c -0.485533,2.039021 -2.000813,4.166214 -4.240739,4.231873 -1.449086,0.260536 -2.989175,-0.598334 -3.382839,-2.072754 -0.411013,-1.449227 -0.505304,-3.027305 -0.152071,-4.497607 -0.577873,0.840283 -0.984369,2.079554 -1.723337,2.933008 -1.740682,2.394315 -4.655318,4.192282 -7.663972,3.674721 C 10.373296,68.526665 9.364703,66.194535 9.354734,64.203297 9.226144,63.22887 9.594015,61.530055 9.037165,61.995976 7.566338,65.85162 6.997313,70.400831 6.533911,74.486782 c 0.186123,1.578139 1.282367,3.248805 0.376049,4.793343 -0.744339,1.370201 -2.994533,0.624032 -2.907504,-0.894476 0.02693,-3.118055 1.121089,-6.510079 1.902721,-9.491982 0.866843,-2.914649 1.902019,-5.779823 2.694137,-8.715358 0.537377,-3.297875 0.688216,-6.248494 1.412474,-9.514893 0.326609,-1.387253 1.43932,-2.991072 3.041499,-2.605057 1.497691,0.361053 1.118191,2.279397 0.887857,3.409016 -0.628302,2.458243 -1.615544,4.375729 -2.606343,6.698893 -0.684836,1.809791 -1.540164,4.032181 -0.337004,5.816237 1.3299,1.858298 4.264609,1.842899 5.785663,0.232938 2.601655,-2.239141 4.15876,-5.563665 4.614109,-8.960752 0.473228,-1.97529 0.573352,-3.638426 1.322389,-5.534642 0.463585,-1.208897 1.822879,-2.047008 3.067944,-1.494775 1.189671,0.658282 0.853144,2.30972 0.581852,3.408086 -0.93398,3.479728 -2.437786,6.338674 -3.83493,9.640286 -0.328451,1.66348 0.435855,3.762772 2.218309,4.179551 1.768673,0.358285 3.628193,-0.761611 4.162223,-2.518692 0.33279,-0.448971 0.54135,-2.937826 1.068073,-1.866585 0.06,1.205907 -0.04102,2.422539 -0.334149,3.593876 z"
       id="path2" />
    <path
       style="fill:#ffffff"
       d="m 29.64928,63.661796 c -0.485533,2.039021 -2.000813,4.166214 -4.240739,4.231873 -1.449086,0.260536 -2.989175,-0.598334 -3.382839,-2.072754 -0.411013,-1.449227 -0.505304,-3.027305 -0.152071,-4.497607 -0.577873,0.840283 -0.984369,2.079554 -1.723337,2.933008 -1.740682,2.394315 -4.655318,4.192282 -7.663972,3.674721 C 10.373296,67.526665 9.364703,65.194535 9.354734,63.203297 9.226144,62.22887 9.594015,60.530055 9.037165,60.995976 7.566338,64.85162 6.997313,69.400831 6.533911,73.486782 c 0.186123,1.578139 1.282367,3.248805 0.376049,4.793343 -0.744339,1.370201 -2.994533,0.624032 -2.907504,-0.894476 0.02693,-3.118055 1.121089,-6.510079 1.902721,-9.491982 0.866843,-2.914649 1.902019,-5.779823 2.694137,-8.715358 0.537377,-3.297875 0.688216,-6.248494 1.412474,-9.514893 0.326609,-1.387253 1.43932,-2.991072 3.041499,-2.605057 1.497691,0.361053 1.118191,2.279397 0.887857,3.409016 -0.628302,2.458243 -1.615544,4.375729 -2.606343,6.698893 -0.684836,1.809791 -1.540164,4.032181 -0.337004,5.816237 1.3299,1.858298 4.264609,1.842899 5.785663,0.232938 2.601655,-2.239141 4.15876,-5.563665 4.614109,-8.960752 0.473228,-1.97529 0.573352,-3.638426 1.322389,-5.534642 0.463585,-1.208897 1.822879,-2.047008 3.067944,-1.494775 1.189671,0.658282 0.853144,2.30972 0.581852,3.408086 -0.93398,3.479728 -2.437786,6.338674 -3.83493,9.640286 -0.328451,1.66348 0.435855,3.762772 2.218309,4.179551 1.768673,0.358285 3.628193,-0.761611 4.162223,-2.518692 0.33279,-0.448971 0.54135,-2.937826 1.068073,-1.866585 0.06,1.205907 -0.04102,2.422539 -0.334149,3.593876 z"
       id="path3" />
  </g>
</svg>
