<?xml version="1.0" encoding="UTF-8" standalone="no"?>
<svg
   width="62"
   height="62"
   version="1"
   id="svg10"
   sodipodi:docname="milkytracker.svg"
   inkscape:version="1.4 (unknown)"
   xmlns:inkscape="http://www.inkscape.org/namespaces/inkscape"
   xmlns:sodipodi="http://sodipodi.sourceforge.net/DTD/sodipodi-0.dtd"
   xmlns="http://www.w3.org/2000/svg"
   xmlns:svg="http://www.w3.org/2000/svg">
  <defs
     id="defs10" />
  <sodipodi:namedview
     id="namedview10"
     pagecolor="#ffffff"
     bordercolor="#000000"
     borderopacity="0.25"
     inkscape:showpageshadow="2"
     inkscape:pageopacity="0.0"
     inkscape:pagecheckerboard="0"
     inkscape:deskcolor="#d1d1d1"
     inkscape:zoom="12.109375"
     inkscape:cx="32"
     inkscape:cy="32"
     inkscape:window-width="1920"
     inkscape:window-height="998"
     inkscape:window-x="0"
     inkscape:window-y="0"
     inkscape:window-maximized="1"
     inkscape:current-layer="svg10" />
  <g
     id="g10"
     transform="matrix(0.98863636,0,0,0.98245614,-0.63636352,-0.92982455)">
    <path
       style="opacity:0.2"
       d="M 54,58.2 V 19 H 10 v 39.2 c 0,1.5512 1.2265,2.8 2.75,2.8 h 38.5 C 52.7735,61 54,59.7512 54,58.2 Z"
       id="path1" />
    <path
       style="fill:#e4e4e4"
       d="M 54,57.2 V 18 H 10 v 39.2 c 0,1.5512 1.2265,2.8 2.75,2.8 h 38.5 C 52.7735,60 54,58.7512 54,57.2 Z"
       id="path2" />
    <path
       style="fill:#b8b8b8"
       d="m 20,10 h 24 l 10,8 H 10 Z"
       id="path3" />
    <rect
       style="fill:#a3a3a3"
       width="24"
       height="6"
       x="20"
       y="4"
       id="rect3" />
    <path
       style="fill:#a3a3a3"
       d="m 44,10 v 0 l 10,8 H 36 Z"
       id="path4" />
    <path
       style="fill:#b8b8b8"
       d="M 36,18 V 60 H 51.428572 C 52.853142,60 54,58.7512 54,57.2 V 18 Z"
       id="path5" />
    <path
       style="opacity:0.2;fill:none;stroke:#000000;stroke-width:4;stroke-linecap:round;stroke-linejoin:round"
       d="M 28.999969,46.943032 V 30.971516 m -11.982829,0 5.982829,8 6,-8 M 17.01714,46.943032 V 30.971516"
       id="path6" />
    <path
       style="fill:none;stroke:#295e8a;stroke-width:4;stroke-linecap:round;stroke-linejoin:round;stroke-opacity:1"
       d="M 28.999969,45.971516 V 30 m -11.982829,0 5.982829,8 6,-8 M 17.01714,45.971516 V 30"
       id="path7" />
    <path
       style="opacity:0.2;fill:none;stroke:#000000;stroke-width:4;stroke-linecap:round"
       d="m 41.028485,30.971516 h 8 m -4,16 v -16"
       id="path8" />
    <path
       style="fill:none;stroke:#27618b;stroke-width:4;stroke-linecap:round;stroke-opacity:1"
       d="m 41.028485,30 h 8 m -4,16 V 30"
       id="path9" />
    <path
       style="opacity:0.1;fill:#ffffff"
       d="M 20,4 V 5 H 44 V 4 Z"
       id="path10" />
  </g>
</svg>
