<?xml version="1.0" encoding="UTF-8" standalone="no"?>
<svg
   width="62"
   height="62"
   version="1"
   id="svg4"
   sodipodi:docname="mintsources-foreign.svg"
   inkscape:version="1.4 (unknown)"
   xmlns:inkscape="http://www.inkscape.org/namespaces/inkscape"
   xmlns:sodipodi="http://sodipodi.sourceforge.net/DTD/sodipodi-0.dtd"
   xmlns:xlink="http://www.w3.org/1999/xlink"
   xmlns="http://www.w3.org/2000/svg"
   xmlns:svg="http://www.w3.org/2000/svg">
  <defs
     id="defs4">
    <linearGradient
       id="linearGradient4"
       inkscape:collect="always">
      <stop
         style="stop-color:#a02c5a;stop-opacity:1"
         offset="0"
         id="stop4" />
      <stop
         style="stop-color:#ff5555;stop-opacity:1"
         offset="1"
         id="stop5" />
    </linearGradient>
    <linearGradient
       inkscape:collect="always"
       xlink:href="#linearGradient4"
       id="linearGradient5"
       x1="30.5"
       y1="58.050846"
       x2="30.499989"
       y2="3.9491527"
       gradientUnits="userSpaceOnUse" />
  </defs>
  <sodipodi:namedview
     id="namedview4"
     pagecolor="#ffffff"
     bordercolor="#000000"
     borderopacity="0.25"
     inkscape:showpageshadow="2"
     inkscape:pageopacity="0.0"
     inkscape:pagecheckerboard="0"
     inkscape:deskcolor="#d1d1d1"
     inkscape:zoom="8"
     inkscape:cx="28.8125"
     inkscape:cy="40.5625"
     inkscape:window-width="1920"
     inkscape:window-height="998"
     inkscape:window-x="0"
     inkscape:window-y="0"
     inkscape:window-maximized="1"
     inkscape:current-layer="svg4" />
  <g
     id="g4"
     transform="translate(0.5)">
    <ellipse
       style="opacity:0.2;stroke-width:0.948713"
       cx="30.5"
       cy="31.474577"
       id="circle1"
       rx="27.5"
       ry="27.525423" />
    <ellipse
       style="fill:url(#linearGradient5);stroke-width:0.948713"
       cx="30.5"
       cy="30.525423"
       id="circle2"
       rx="27.5"
       ry="27.525423" />
    <path
       style="opacity:0.2;stroke-width:0.948713"
       d="m 30.499989,13.440677 c -6.077495,0 -11.284841,5.306713 -11.284841,11.389829 h 5.500738 c 0,-3.027795 2.759106,-5.884006 5.784103,-5.884006 3.025009,0 5.785347,2.47803 5.785347,5.505822 0,1.513904 -0.604942,2.887259 -1.622439,3.878183 l -3.411565,3.470338 c -1.98,2.009357 -3.499854,4.761918 -3.499855,7.789725 v 0.426371 h -0.09633 v 0.94915 h 5.689661 v -0.94915 h -0.05555 c 0.184215,-3.431016 1.646123,-4.996949 3.462811,-6.840563 l 2.4744,-2.532308 c 1.567494,-1.568959 2.559601,-3.769503 2.559601,-6.191746 0,-6.083111 -5.208577,-11.011645 -11.286084,-11.011645 z m -2.844824,32.271182 v 5.694906 h 5.689661 v -5.694906 z"
       id="path2" />
    <path
       style="fill:#ffffff;stroke-width:0.948713"
       d="m 30.499989,12.491526 c -6.077495,0 -11.284841,5.306712 -11.284841,11.389828 h 5.500738 c 0,-3.027794 2.759106,-5.884005 5.784103,-5.884005 3.025009,0 5.785347,2.47803 5.785347,5.505822 0,1.513903 -0.604942,2.887259 -1.622439,3.878183 l -3.411565,3.470337 c -1.98,2.009357 -3.499854,4.76192 -3.499855,7.789726 v 0.42637 0.949152 h 5.593349 v -0.949152 h -0.05555 c 0.184215,-3.431015 1.646123,-4.996948 3.462811,-6.840562 l 2.4744,-2.532308 c 1.567494,-1.568959 2.559601,-3.769504 2.559601,-6.191746 0,-6.083112 -5.208578,-11.011645 -11.286085,-11.011645 z m -2.844824,32.27118 v 5.694908 h 5.689661 v -5.694908 z"
       id="path3" />
    <path
       style="opacity:0.2;fill:#ffffff;stroke-width:0.948713"
       d="M 30.499989,3 A 27.499989,27.525412 0 0 0 3,30.525412 27.499989,27.525412 0 0 0 3.0166688,30.988873 27.499989,27.525412 0 0 1 30.499989,3.9491526 27.499989,27.525412 0 0 1 57.975913,30.994434 27.499989,27.525412 0 0 0 57.999991,30.525412 27.499989,27.525412 0 0 0 30.499989,3 Z"
       id="path4" />
  </g>
</svg>
