<?xml version="1.0" encoding="UTF-8" standalone="no"?>
<svg
   width="62"
   height="62"
   version="1.1"
   id="svg29"
   sodipodi:docname="mintsources-additional.svg"
   inkscape:version="1.4 (unknown)"
   xmlns:inkscape="http://www.inkscape.org/namespaces/inkscape"
   xmlns:sodipodi="http://sodipodi.sourceforge.net/DTD/sodipodi-0.dtd"
   xmlns:xlink="http://www.w3.org/1999/xlink"
   xmlns="http://www.w3.org/2000/svg"
   xmlns:svg="http://www.w3.org/2000/svg">
  <defs
     id="defs29">
    <linearGradient
       id="linearGradient29"
       inkscape:collect="always">
      <stop
         style="stop-color:#2d3d53;stop-opacity:1;"
         offset="0"
         id="stop29" />
      <stop
         style="stop-color:#78ba26;stop-opacity:1;"
         offset="1"
         id="stop30" />
    </linearGradient>
    <linearGradient
       inkscape:collect="always"
       xlink:href="#linearGradient29"
       id="linearGradient30"
       x1="30.782633"
       y1="60"
       x2="30.193521"
       y2="5"
       gradientUnits="userSpaceOnUse"
       gradientTransform="matrix(0.98214286,0,0,0.98245614,-0.42857152,-0.92982455)" />
    <linearGradient
       id="paint0_linear_107_124"
       x1="31.4526"
       y1="45.807999"
       x2="31.4526"
       y2="4"
       gradientUnits="userSpaceOnUse"
       gradientTransform="matrix(0.69827168,0,0,0.69565208,9.1133771,7.2252921)">
      <stop
         stop-color="#02AA93"
         id="stop2" />
      <stop
         offset="1"
         stop-color="#67FF80"
         id="stop3" />
    </linearGradient>
    <linearGradient
       id="paint1_linear_107_124"
       x1="31.500099"
       y1="61.5"
       x2="31.500099"
       y2="48"
       gradientUnits="userSpaceOnUse"
       gradientTransform="matrix(0.69827168,0,0,0.69565208,9.1133771,7.2252921)">
      <stop
         stop-color="#00B59C"
         id="stop4" />
      <stop
         offset="1"
         stop-color="#9CFFAC"
         id="stop5" />
    </linearGradient>
  </defs>
  <sodipodi:namedview
     id="namedview29"
     pagecolor="#ffffff"
     bordercolor="#000000"
     borderopacity="0.25"
     inkscape:showpageshadow="2"
     inkscape:pageopacity="0.0"
     inkscape:pagecheckerboard="0"
     inkscape:deskcolor="#d1d1d1"
     inkscape:zoom="7.0710678"
     inkscape:cx="53.527983"
     inkscape:cy="48.012551"
     inkscape:window-width="1920"
     inkscape:window-height="998"
     inkscape:window-x="0"
     inkscape:window-y="0"
     inkscape:window-maximized="1"
     inkscape:current-layer="svg29" />
  <rect
     style="opacity:0.2;stroke-width:0.9823"
     width="55"
     height="55.017544"
     x="3.5"
     y="3.9824562"
     ry="13.754386"
     id="rect1" />
  <rect
     style="fill:url(#linearGradient30);stroke-width:0.9823"
     width="55"
     height="55.017544"
     x="3.5"
     y="3"
     ry="13.754386"
     id="rect2" />
  <path
     style="opacity:0.1;fill:#ffffff;stroke-width:0.9823"
     d="M 17.25,3 C 9.6324999,3 3.4999999,9.1344561 3.4999999,16.754386 v 0.982456 c 0,-7.61993 6.1325,-13.7543858 13.7500001,-13.7543858 h 27.5 c 7.6175,0 13.75,6.1344558 13.75,13.7543858 V 16.754386 C 58.5,9.1344561 52.3675,3 44.75,3 Z"
     id="path28" />
  <g
     id="g1"
     transform="translate(-0.109057,0.5008639)">
    <path
       fill-rule="evenodd"
       clip-rule="evenodd"
       d="m 31.075845,10.007908 h -5.718578 c -0.192854,0 -0.349128,0.155731 -0.349128,0.347819 v 5.697124 6.044933 5.697121 c 0,0.192133 -0.156348,0.347819 -0.349129,0.347819 h -4.342909 c -0.314781,0 -0.468819,0.3824 -0.241322,0.599236 l 5.186126,4.942068 5.573615,5.31121 c 0.134979,0.12862 0.347669,0.12862 0.482648,0 l 5.573602,-5.31121 5.186133,-4.942068 c 0.227504,-0.216836 0.07347,-0.599236 -0.241323,-0.599236 h -4.342824 c -0.192869,0 -0.349142,-0.155686 -0.349142,-0.347819 v -5.697049 -6.044951 -5.697178 c 0,-0.192088 -0.156338,-0.347819 -0.349134,-0.347819 z"
       id="path1"
       style="fill:#f2f2f2;fill-opacity:1" />
    <path
       opacity="0.4"
       fill-rule="evenodd"
       clip-rule="evenodd"
       d="m 15.572392,50.007908 c 1.781574,0 3.330407,-0.98435 4.131743,-2.43476 h 7.214896 c 0.801334,1.45041 2.350096,2.43476 4.131742,2.43476 2.052222,0 3.798103,-1.30659 4.445128,-3.13039 h 8.161331 c 0.290411,0.68042 0.765159,1.26876 1.373152,1.6981 0.676136,0.47749 1.483894,0.73469 2.312676,0.73664 h 9.34e-4 c 1.064795,0 2.08608,-0.42145 2.839102,-1.1716 0.752875,-0.75018 1.175961,-1.76751 1.175961,-2.8284 0,-1.06087 -0.423086,-2.07838 -1.176032,-2.82844 -0.752951,-0.75008 -1.774236,-1.17155 -2.839031,-1.17155 h -9.34e-4 c -0.828782,0.003 -1.636614,0.25917 -2.31275,0.73665 -0.607919,0.42928 -1.082667,1.01775 -1.373078,1.69811 h -8.161331 c -0.647025,-1.8238 -2.392906,-3.13041 -4.445128,-3.13041 -1.781646,0 -3.330408,0.98436 -4.131742,2.43477 h -7.214896 c -0.801336,-1.45041 -2.350169,-2.43477 -4.131743,-2.43477 -2.603104,0 -4.713335,2.10228 -4.713335,4.69564 0,2.59336 2.110231,4.69565 4.713335,4.69565 z"
       id="path2"
       style="fill:#f2f2f2;fill-opacity:1;opacity:0.55681818" />
  </g>
</svg>
