<?xml version="1.0" encoding="UTF-8" standalone="no"?>
<svg
   width="62"
   height="62"
   version="1.1"
   id="svg5"
   sodipodi:docname="mkusb.svg"
   inkscape:version="1.4 (unknown)"
   xmlns:inkscape="http://www.inkscape.org/namespaces/inkscape"
   xmlns:sodipodi="http://sodipodi.sourceforge.net/DTD/sodipodi-0.dtd"
   xmlns:xlink="http://www.w3.org/1999/xlink"
   xmlns="http://www.w3.org/2000/svg"
   xmlns:svg="http://www.w3.org/2000/svg">
  <defs
     id="defs5">
    <linearGradient
       id="linearGradient8"
       inkscape:collect="always">
      <stop
         style="stop-color:#2d3d53;stop-opacity:1;"
         offset="0"
         id="stop8" />
      <stop
         style="stop-color:#afd817;stop-opacity:1;"
         offset="1"
         id="stop10" />
    </linearGradient>
    <linearGradient
       id="linearGradient4217">
      <stop
         style="stop-color:#000000;stop-opacity:1;"
         offset="0"
         id="stop2" />
      <stop
         style="stop-color:#000000;stop-opacity:0;"
         offset="1"
         id="stop4" />
    </linearGradient>
    <linearGradient
       id="linearGradient4161">
      <stop
         style="stop-color:#334545;stop-opacity:1;"
         offset="0"
         id="stop7" />
      <stop
         style="stop-color:#4d6868;stop-opacity:1"
         offset="1"
         id="stop9" />
    </linearGradient>
    <linearGradient
       id="a-1-2"
       y1="510.79999"
       y2="527.14001"
       gradientUnits="userSpaceOnUse"
       x2="0">
      <stop
         stop-color="#7cbaf8"
         id="stop2-2-7" />
      <stop
         offset="1"
         stop-color="#f4fcff"
         id="stop4-70-0" />
    </linearGradient>
    <linearGradient
       id="c"
       y1="503.79999"
       x1="400.57001"
       y2="519.79999"
       x2="416.57001"
       gradientUnits="userSpaceOnUse">
      <stop
         stop-color="#292c2f"
         id="stop12" />
      <stop
         offset="1"
         stop-opacity="0"
         id="stop14" />
    </linearGradient>
    <linearGradient
       id="b"
       y1="542.79999"
       x1="408.57001"
       y2="521.79999"
       x2="387.57001"
       gradientUnits="userSpaceOnUse"
       gradientTransform="translate(-384.57,-499.8)">
      <stop
         stop-color="#197cf1"
         id="stop7-8" />
      <stop
         offset="1"
         stop-color="#20bcfa"
         id="stop9-7" />
    </linearGradient>
    <linearGradient
       xlink:href="#linearGradient1389"
       id="linearGradient4503-5-6"
       y1="37"
       y2="4"
       x2="0"
       gradientUnits="userSpaceOnUse"
       gradientTransform="matrix(1.0218446,0,0,0.99999999,21.748946,8.2587777)" />
    <linearGradient
       id="linearGradient1389">
      <stop
         style="stop-color:#ffaaaa;stop-opacity:1"
         id="stop1385"
         offset="0" />
      <stop
         offset="1"
         style="stop-color:#ff5555;stop-opacity:1"
         id="stop1387" />
    </linearGradient>
    <linearGradient
       id="paint543_linear_890_11"
       x1="978.5"
       y1="298"
       x2="978.5"
       y2="304"
       gradientUnits="userSpaceOnUse"
       gradientTransform="matrix(0.75000004,0,0,0.75000004,-717.38333,-173.49123)">
      <stop
         offset="0.189495"
         stop-color="#EFF2F6"
         id="stop1829" />
      <stop
         offset="0.850463"
         stop-color="#B7C6CD"
         id="stop1830" />
    </linearGradient>
    <linearGradient
       inkscape:collect="always"
       xlink:href="#linearGradient8"
       id="linearGradient10"
       x1="31.5"
       y1="59.017544"
       x2="31.5"
       y2="4.9824562"
       gradientUnits="userSpaceOnUse" />
    <linearGradient
       id="linearGradient4144">
      <stop
         style="stop-color:#c83771;stop-opacity:1"
         offset="0"
         id="stop1141" />
      <stop
         style="stop-color:#de87aa;stop-opacity:1"
         offset="1"
         id="stop1143" />
    </linearGradient>
    <linearGradient
       id="paint0_linear_114_290"
       x1="12"
       y1="17.5"
       x2="36"
       y2="17.5"
       gradientUnits="userSpaceOnUse"
       gradientTransform="translate(17.173764,12.691802)">
      <stop
         stop-color="#9EE170"
         id="stop2-2" />
      <stop
         offset="1"
         stop-color="#E5ECA2"
         id="stop3" />
    </linearGradient>
    <linearGradient
       id="paint2_linear_114_290"
       x1="24"
       y1="44"
       x2="24"
       y2="37"
       gradientUnits="userSpaceOnUse"
       gradientTransform="translate(8.5868818,6.3459006)">
      <stop
         stop-color="#00B59C"
         id="stop6"
         style="stop-color:#00aad4;stop-opacity:1" />
      <stop
         offset="1"
         stop-color="#9CFFAC"
         id="stop7-1"
         style="stop-color:#52ff45;stop-opacity:1" />
    </linearGradient>
    <linearGradient
       inkscape:collect="always"
       xlink:href="#linearGradient895"
       id="linearGradient7"
       x1="27.210377"
       y1="71.370941"
       x2="27.210377"
       y2="116.57016"
       gradientUnits="userSpaceOnUse" />
    <linearGradient
       id="linearGradient895"
       x1="30.610914"
       x2="30.610914"
       y1="6"
       y2="23"
       gradientUnits="userSpaceOnUse"
       gradientTransform="matrix(0.35087719,0,0,0.35087719,3.8949315,3.8947368)">
      <stop
         stop-color="#dbdbdb"
         offset="0"
         id="stop1"
         style="stop-color:#eff2f6;stop-opacity:1;" />
      <stop
         stop-color="#b2b2b2"
         offset="1"
         id="stop2-3"
         style="stop-color:#b7c6cd;stop-opacity:1;" />
    </linearGradient>
  </defs>
  <sodipodi:namedview
     id="namedview5"
     pagecolor="#ffffff"
     bordercolor="#000000"
     borderopacity="0.25"
     inkscape:showpageshadow="2"
     inkscape:pageopacity="0.0"
     inkscape:pagecheckerboard="0"
     inkscape:deskcolor="#d1d1d1"
     inkscape:zoom="8.2643105"
     inkscape:cx="39.023219"
     inkscape:cy="42.532284"
     inkscape:window-width="1920"
     inkscape:window-height="998"
     inkscape:window-x="0"
     inkscape:window-y="0"
     inkscape:window-maximized="1"
     inkscape:current-layer="svg5" />
  <rect
     style="opacity:0.2;stroke-width:0.9823"
     width="55"
     height="55.017544"
     x="4"
     y="4.9824562"
     rx="8.25"
     ry="8.2526312"
     id="rect1" />
  <rect
     style="fill:url(#linearGradient10);stroke-width:0.9823"
     width="55"
     height="55.017544"
     x="4"
     y="4"
     rx="8.25"
     ry="8.2526312"
     id="rect2" />
  <path
     style="opacity:0.1;fill:#ffffff;stroke-width:0.9823"
     d="M 12.248466,4 C 7.6779652,4 4,7.6791384 4,12.251097 v 0.982456 C 4,8.6615945 7.6779652,4.9824561 12.248466,4.9824561 H 50.751534 C 55.322034,4.9824561 59,8.6615945 59,13.233553 V 12.251097 C 59,7.6791384 55.322034,4 50.751534,4 Z"
     id="path4" />
  <g
     id="g2"
     transform="matrix(0.8,0,0,0.80509802,9.7316984,-44.146731)">
    <g
       id="g1">
      <path
         style="opacity:0.2"
         d="m 27.210377,71.370938 -7,11.199219 h 4 v 14 h -8.199219 v -3.697266 a 6,6 0 0 0 3.199219,-5.302734 6,6 0 0 0 -6,-6 6,6 0 0 0 -5.9999999,6 6,6 0 0 0 3.1992189,5.302734 v 3.697266 c 0,5.600003 5.601562,6.000003 5.601562,6.000003 h 8.199219 v 3.8125 a 6,6 0 0 0 -3,5.1875 6,6 0 0 0 6,6 6,6 0 0 0 6,-6 6,6 0 0 0 -3,-5.18946 v -3.81054 h 8.199219 c 0,0 5.601562,-0.4 5.601562,-6.000003 v -3 h 0.699219 c 1.385,0 2.5,-1.115 2.5,-2.5 v -7 c 0,-1.385 -1.115,-2.5 -2.5,-2.5 h -7 c -1.385,0 -2.5,1.115 -2.5,2.5 v 7 c 0,1.385 1.115,2.5 2.5,2.5 h 0.699219 v 3 h -8.199219 v -14 h 4 z"
         id="path2" />
      <path
         style="fill:url(#linearGradient7)"
         d="m 27.210377,70.370938 -7,11.199219 h 4 v 14 h -8.199219 v -3.697266 a 6,6 0 0 0 3.199219,-5.302734 6,6 0 0 0 -6,-6 6,6 0 0 0 -5.9999999,6 6,6 0 0 0 3.1992189,5.302734 v 3.697266 c 0,5.600003 5.601562,6.000003 5.601562,6.000003 h 8.199219 v 3.8125 a 6,6 0 0 0 -3,5.1875 6,6 0 0 0 6,6 6,6 0 0 0 6,-6 6,6 0 0 0 -3,-5.18946 v -3.81054 h 8.199219 c 0,0 5.601562,-0.4 5.601562,-6.000003 v -3 h 0.699219 c 1.385,0 2.5,-1.115 2.5,-2.5 v -7 c 0,-1.385 -1.115,-2.5 -2.5,-2.5 h -7 c -1.385,0 -2.5,1.115 -2.5,2.5 v 7 c 0,1.385 1.115,2.5 2.5,2.5 h 0.699219 v 3 h -8.199219 v -14 h 4 z"
         id="path3" />
    </g>
  </g>
</svg>
