<?xml version="1.0" encoding="UTF-8" standalone="no"?>
<svg
   width="62"
   height="62"
   version="1.1"
   id="svg10"
   sodipodi:docname="mockoon.svg"
   inkscape:version="1.4 (unknown)"
   xml:space="preserve"
   xmlns:inkscape="http://www.inkscape.org/namespaces/inkscape"
   xmlns:sodipodi="http://sodipodi.sourceforge.net/DTD/sodipodi-0.dtd"
   xmlns:xlink="http://www.w3.org/1999/xlink"
   xmlns="http://www.w3.org/2000/svg"
   xmlns:svg="http://www.w3.org/2000/svg"><defs
     id="defs10"><linearGradient
       id="linearGradient11"
       inkscape:collect="always"><stop
         style="stop-color:#a4b4c1;stop-opacity:1;"
         offset="0"
         id="stop11" /><stop
         style="stop-color:#e4ebec;stop-opacity:1;"
         offset="1"
         id="stop12" /></linearGradient><linearGradient
       inkscape:collect="always"
       xlink:href="#linearGradient11"
       id="linearGradient12"
       x1="32"
       y1="60"
       x2="32"
       y2="4"
       gradientUnits="userSpaceOnUse"
       gradientTransform="matrix(1,0,0,0.98245614,-1,-0.43859645)" /><linearGradient
       id="paint154_linear_890_11"
       x1="778"
       y1="812.29199"
       x2="788"
       y2="812.29199"
       gradientUnits="userSpaceOnUse"><stop
         stop-color="#EFF2F6"
         id="stop1050" /><stop
         offset="0.600785"
         stop-color="#B7C6CD"
         id="stop1051" /></linearGradient><linearGradient
       id="paint155_linear_890_11"
       x1="783"
       y1="813"
       x2="783"
       y2="817"
       gradientUnits="userSpaceOnUse"><stop
         stop-color="#EFF2F6"
         id="stop1052" /><stop
         offset="0.734138"
         stop-color="#B7C6CD"
         id="stop1053" /></linearGradient><radialGradient
       id="paint156_radial_890_11"
       cx="0"
       cy="0"
       r="1"
       gradientUnits="userSpaceOnUse"
       gradientTransform="matrix(6.9999948,6.9999948,-6.9999948,6.9999948,45.000143,44.000006)"><stop
         offset="0.600678"
         stop-color="#B7C6CD"
         id="stop1054" /><stop
         offset="0.876735"
         stop-color="#EFF2F6"
         id="stop1055" /></radialGradient><linearGradient
       id="paint157_linear_890_11"
       x1="803"
       y1="805"
       x2="763"
       y2="765"
       gradientUnits="userSpaceOnUse"
       gradientTransform="matrix(0.29166667,0,0,0.29166667,-183.37486,-184.95833)"><stop
         offset="0.314714"
         stop-color="#2E2E41"
         id="stop1056" /><stop
         offset="0.711139"
         stop-color="#566C80"
         id="stop1057" /></linearGradient><linearGradient
       id="paint158_linear_890_11"
       x1="792"
       y1="794"
       x2="774"
       y2="776"
       gradientUnits="userSpaceOnUse"
       xlink:href="#paint160_linear_890_11"
       gradientTransform="matrix(0.29166667,0,0,0.29166667,-183.37486,-184.95833)"><stop
         offset="0.304478"
         stop-color="#2E2E41"
         id="stop1058"
         style="stop-color:#ffcc00;stop-opacity:1" /><stop
         offset="1"
         stop-color="#566C80"
         id="stop1059"
         style="stop-color:#ffb380;stop-opacity:1" /></linearGradient><linearGradient
       id="paint160_linear_890_11"
       x1="784"
       y1="798"
       x2="782"
       y2="796"
       gradientUnits="userSpaceOnUse"><stop
         stop-color="#FF7E07"
         id="stop1062" /><stop
         offset="1"
         stop-color="#FFE607"
         id="stop1063" /></linearGradient><linearGradient
       id="paint159_linear_890_11"
       x1="788"
       y1="790"
       x2="778"
       y2="780"
       gradientUnits="userSpaceOnUse"
       gradientTransform="matrix(0.29166667,0,0,0.29166667,-183.37486,-184.95833)"><stop
         offset="0.39139399"
         stop-color="#5200FF"
         id="stop1060"
         style="stop-color:#854cff;stop-opacity:1;" /><stop
         offset="1"
         stop-color="#0085FF"
         id="stop1061"
         style="stop-color:#40a4ff;stop-opacity:1;" /></linearGradient><linearGradient
       id="c"
       x1="23.813"
       x2="23.813"
       y1="13.436"
       y2="35.035999"
       gradientTransform="matrix(1.2307,0,0,1.2307,-4.055,41.465)"
       gradientUnits="userSpaceOnUse"><stop
         offset="0"
         stop-color="#20adff"
         id="stop3" /><stop
         offset="1"
         stop-color="#345da2"
         id="stop4" /></linearGradient><filter
       id="c-3"
       width="1.0595472"
       height="1.049413"
       x="-0.029773596"
       y="-0.024706516"
       color-interpolation-filters="sRGB"><feGaussianBlur
         stdDeviation="2.056"
         id="feGaussianBlur6" /></filter><linearGradient
       id="d"
       x1="69.128998"
       x2="69.128998"
       y1="139.33"
       y2="-18.862"
       gradientUnits="userSpaceOnUse"><stop
         offset="0"
         stop-color="#6c523c"
         id="stop3-6" /><stop
         offset="1"
         stop-color="#ae7952"
         stop-opacity=".965"
         id="stop4-7" /></linearGradient><linearGradient
       id="e"
       x1="78.639"
       x2="78.639"
       y1="143.06"
       y2="-25.268999"
       gradientUnits="userSpaceOnUse"><stop
         offset="0"
         stop-color="#291d1a"
         id="stop1" /><stop
         offset="1"
         stop-color="#513c34"
         id="stop2" /></linearGradient><filter
       id="b-367"
       width="1.1317421"
       height="1.3293637"
       x="-0.065871049"
       y="-0.16468183"
       color-interpolation-filters="sRGB"><feGaussianBlur
         stdDeviation="1.074"
         id="feGaussianBlur5" /></filter><filter
       id="c-5"
       width="1.1008318"
       height="1.3361104"
       x="-0.050415914"
       y="-0.16805519"
       color-interpolation-filters="sRGB"><feGaussianBlur
         stdDeviation=".548"
         id="feGaussianBlur2" /></filter></defs><sodipodi:namedview
     id="namedview10"
     pagecolor="#ffffff"
     bordercolor="#000000"
     borderopacity="0.25"
     inkscape:showpageshadow="2"
     inkscape:pageopacity="0.0"
     inkscape:pagecheckerboard="0"
     inkscape:deskcolor="#d1d1d1"
     inkscape:zoom="8.3085047"
     inkscape:cx="24.733692"
     inkscape:cy="47.120392"
     inkscape:window-width="1920"
     inkscape:window-height="998"
     inkscape:window-x="0"
     inkscape:window-y="0"
     inkscape:window-maximized="1"
     inkscape:current-layer="svg10"
     showgrid="false"><inkscape:grid
       id="grid1"
       units="px"
       originx="0"
       originy="0"
       spacingx="1"
       spacingy="1"
       empcolor="#0099e5"
       empopacity="0.30196078"
       color="#0099e5"
       opacity="0.14901961"
       empspacing="5"
       enabled="true"
       visible="false" /></sodipodi:namedview><rect
     style="opacity:0.2;stroke-width:0.991189"
     width="56"
     height="55.017544"
     x="3"
     y="3.9824562"
     rx="16.799999"
     ry="16.505262"
     id="rect1" /><rect
     style="fill:url(#linearGradient12);stroke-width:0.991189"
     width="56"
     height="55.017544"
     x="3"
     y="3.4912281"
     rx="16.799999"
     ry="16.505262"
     id="rect2" /><path
     style="opacity:0.1;fill:#ffffff;stroke-width:0.991189"
     d="M 19.800781,3 C 10.493582,3 3,10.362116 3,19.50603 v 0.982457 C 3,11.344572 10.493582,3.9824562 19.800781,3.9824562 H 42.199219 C 51.506418,3.9824562 59,11.344572 59,20.488487 V 19.50603 C 59,10.362116 51.506418,3 42.199219,3 Z"
     id="path9" /><g
     id="g1"
     transform="matrix(1.8999962,0,0,1.9035228,-2.9118562,-1.976973)"><path
       d="m 23.522,25.478 c -1.565,0 -3.26,1.304 -5.87,3.913 -1.81,1.81 -3.913,3.913 -3.913,5.217 0,1.305 1.894,2.842 3.913,4.24 2.019,1.398 4.044,2.282 5.74,2.282 1.696,0 2.871,-1.11 5.673,-3.913 C 31.675,34.608 32,33.304 32,32.652 32,31.348 30.696,29.717 28.74,28.087 27.062,26.689 25.087,25.478 23.522,25.478 Z m 19.565,0 c -1.565,0 -3.54,1.21 -5.217,2.609 -1.957,1.63 -3.261,3.26 -3.261,4.565 0,0.652 0.326,1.956 2.935,4.565 2.802,2.803 3.977,3.913 5.673,3.913 1.696,0 3.72,-0.885 5.74,-2.283 2.019,-1.397 3.913,-2.934 3.913,-4.239 0,-1.304 -2.104,-3.408 -3.913,-5.217 -2.61,-2.609 -4.305,-3.913 -5.87,-3.913 z"
       filter="url(#b)"
       opacity="0.1"
       id="path19"
       style="filter:url(#b-367)"
       transform="matrix(0.60605773,0,0,0.60605773,-2.3360688,-2.6019034)" /><path
       d="m 11.128715,12.048935 c -0.948478,0 -1.9757471,0.7903 -3.5575591,2.371505 -1.096965,1.096965 -2.371502,2.371505 -2.371502,3.161802 0,0.790301 1.147873,1.722417 2.371502,2.569687 1.224238,0.84666 2.4508981,1.383023 3.4787731,1.383023 1.027873,0 1.73999,-0.672725 3.438165,-2.371505 1.58181,-1.581205 1.778779,-2.371502 1.778779,-2.766653 0,-0.790298 -0.7903,-1.77878 -1.975749,-2.766654 -1.016965,-0.847268 -2.213929,-1.581205 -3.162409,-1.581205 z m 11.85752,0 c -0.948481,0 -2.145445,0.73333 -3.161803,1.581205 -1.186056,0.987874 -1.976354,1.975749 -1.976354,2.766654 0,0.395151 0.197566,1.185448 1.778172,2.766653 1.69878,1.69878 2.410899,2.371505 3.438772,2.371505 1.027874,0 2.254535,-0.536363 3.478771,-1.38363 1.223631,-0.846663 2.371505,-1.778175 2.371505,-2.56908 0,-0.790904 -1.275145,-2.065444 -2.371505,-3.161802 -1.581809,-1.581205 -2.609078,-2.371505 -3.557558,-2.371505 z"
       id="path21"
       style="stroke-width:0.606057;fill:#2d3d53;fill-opacity:1" /><path
       d="m 24.174,29.391 a 3.913,3.913 0 0 0 -3.913,3.913 3.913,3.913 0 0 0 3.913,3.913 3.913,3.913 0 0 0 3.913,-3.913 3.913,3.913 0 0 0 -3.913,-3.913 z m 18.261,0 a 3.913,3.913 0 0 0 -3.913,3.913 3.913,3.913 0 0 0 3.913,3.913 3.913,3.913 0 0 0 3.913,-3.913 3.913,3.913 0 0 0 -3.913,-3.913 z M 24.174,32 a 1.304,1.304 0 0 1 1.304,1.304 1.304,1.304 0 0 1 -1.304,1.304 A 1.304,1.304 0 0 1 22.87,33.304 1.304,1.304 0 0 1 24.174,32 Z m 18.261,0 a 1.304,1.304 0 0 1 1.304,1.304 1.304,1.304 0 0 1 -1.304,1.304 A 1.304,1.304 0 0 1 41.131,33.304 1.304,1.304 0 0 1 42.435,32 Z"
       filter="url(#c)"
       opacity="0.1"
       id="path23"
       style="filter:url(#c-5)"
       transform="matrix(0.60605773,0,0,0.60605773,-2.3360688,-2.6019034)" /><path
       d="m 11.524471,14.42044 a 2.371504,2.371504 0 0 0 -2.3715031,2.371505 2.371504,2.371504 0 0 0 2.3715031,2.371502 2.371504,2.371504 0 0 0 2.371505,-2.371502 2.371504,2.371504 0 0 0 -2.371505,-2.371505 z m 11.067222,0 a 2.371504,2.371504 0 0 0 -2.371505,2.371505 2.371504,2.371504 0 0 0 2.371505,2.371502 2.371504,2.371504 0 0 0 2.371502,-2.371502 2.371504,2.371504 0 0 0 -2.371502,-2.371505 z m -11.067222,1.581205 a 0.79029927,0.79029927 0 0 1 0.7903,0.7903 0.79029927,0.79029927 0 0 1 -0.7903,0.790297 0.79029927,0.79029927 0 0 1 -0.790298,-0.790297 0.79029927,0.79029927 0 0 1 0.790298,-0.7903 z m 11.067222,0 a 0.79029927,0.79029927 0 0 1 0.790297,0.7903 0.79029927,0.79029927 0 0 1 -0.790297,0.790297 0.79029927,0.79029927 0 0 1 -0.7903,-0.790297 0.79029927,0.79029927 0 0 1 0.7903,-0.7903 z"
       id="path25"
       style="stroke-width:0.606057;fill:#f2f2f2;fill-opacity:1" /></g></svg>
