<?xml version="1.0" encoding="UTF-8" standalone="no"?>
<svg
   width="64"
   height="64"
   version="1.1"
   id="svg9"
   sodipodi:docname="moe-era.svg"
   inkscape:version="1.4 (unknown)"
   xmlns:inkscape="http://www.inkscape.org/namespaces/inkscape"
   xmlns:sodipodi="http://sodipodi.sourceforge.net/DTD/sodipodi-0.dtd"
   xmlns="http://www.w3.org/2000/svg"
   xmlns:svg="http://www.w3.org/2000/svg">
  <defs
     id="defs9" />
  <sodipodi:namedview
     id="namedview9"
     pagecolor="#ffffff"
     bordercolor="#000000"
     borderopacity="0.25"
     inkscape:showpageshadow="2"
     inkscape:pageopacity="0.0"
     inkscape:pagecheckerboard="0"
     inkscape:deskcolor="#d1d1d1"
     inkscape:zoom="12.109375"
     inkscape:cx="32"
     inkscape:cy="25.393548"
     inkscape:window-width="1920"
     inkscape:window-height="998"
     inkscape:window-x="0"
     inkscape:window-y="0"
     inkscape:window-maximized="1"
     inkscape:current-layer="svg9" />
  <g
     id="g9"
     transform="translate(0.5)">
    <ellipse
       style="opacity:0.2;stroke-width:0.982303"
       cx="31.499998"
       cy="32.491234"
       id="circle1"
       rx="27.499998"
       ry="27.508766" />
    <ellipse
       style="fill:#cd87de;stroke-width:0.982303"
       cx="31.499998"
       cy="31.508766"
       id="circle2"
       rx="27.499998"
       ry="27.508766" />
    <path
       style="opacity:0.2;fill:#ffffff;stroke-width:0.982303"
       d="M 31.5,4 A 27.5,27.508768 0 0 0 4,31.508768 27.5,27.508768 0 0 0 4.0211163,32.084488 27.5,27.508768 0 0 1 31.5,4.982456 27.5,27.508768 0 0 1 58.979375,31.915506 27.5,27.508768 0 0 0 59,31.508768 27.5,27.508768 0 0 0 31.5,4 Z"
       id="path2" />
    <ellipse
       style="opacity:0.2;stroke-width:0.982303"
       cx="31.499998"
       cy="32.491234"
       id="circle3"
       rx="19.64286"
       ry="19.649124" />
    <ellipse
       style="fill:#f2f2f2;stroke-width:0.982303;fill-opacity:1"
       cx="31.499998"
       cy="31.508766"
       id="circle4"
       rx="19.64286"
       ry="19.649124" />
    <path
       style="opacity:0.1;stroke-width:0.982303"
       d="M 4,43.29824 H 14.803573 V 32.491224 L 17.75,35.438592 20.696427,32.491224 V 43.29824 H 31.5 L 28.553571,21.68421 20.696427,18.73684 17.75,21.68421 14.803573,18.73684 6.9464286,21.68421 Z"
       id="path4" />
    <path
       style="fill:#c83771;stroke-width:0.982303"
       d="M 4,42.315784 H 14.803573 V 31.508768 L 17.75,34.456136 20.696427,31.508768 V 42.315784 H 31.5 L 28.553571,20.70175 20.696427,17.754384 17.75,20.70175 14.803573,17.754384 6.9464286,20.70175 Z"
       id="path5" />
    <path
       style="opacity:0.1;stroke-width:0.982303"
       d="M 34.446429,10.87719 V 21.68421 L 39.357143,10.87719 Z M 28.553571,15.78947 31.5,21.68421 v -5.89474 z m 13.75,0 -2.946428,5.89474 5.892859,-2.94737 z m -8.839285,5.89474 A 12.767859,10.807018 0 0 0 20.696427,32.491224 12.767859,10.807018 0 0 0 33.464286,43.29824 12.767859,10.807018 0 0 0 46.232143,32.491224 12.767859,10.807018 0 0 0 33.464286,21.68421 Z m -0.491072,7.859646 a 4.4196429,2.947368 0 0 1 4.419643,2.947368 4.4196429,2.947368 0 0 1 -4.419643,2.947368 4.4196429,2.947368 0 0 1 -4.419643,-2.947368 4.4196429,2.947368 0 0 1 4.419643,-2.947368 z"
       id="path6" />
    <path
       style="fill:#abc837;stroke-width:0.982303"
       d="M 34.446429,9.894736 V 20.70175 L 39.357143,9.894736 Z M 28.553571,14.807018 31.5,20.70175 v -5.894732 z m 13.75,0 -2.946428,5.894732 5.892859,-2.947366 z M 33.464286,20.70175 A 12.767859,10.807018 0 0 0 20.696427,31.508768 12.767859,10.807018 0 0 0 33.464286,42.315784 12.767859,10.807018 0 0 0 46.232143,31.508768 12.767859,10.807018 0 0 0 33.464286,20.70175 Z m -0.491072,7.85965 a 4.4196429,2.947368 0 0 1 4.419643,2.947368 4.4196429,2.947368 0 0 1 -4.419643,2.947368 4.4196429,2.947368 0 0 1 -4.419643,-2.947368 4.4196429,2.947368 0 0 1 4.419643,-2.947368 z"
       id="path7" />
    <path
       style="opacity:0.1;stroke-width:0.982303"
       d="M 38.375,46.245608 40.339286,18.73684 59,15.78947 v 8.842106 H 48.196429 v 1.964914 h 5.892857 v 6.87719 h -5.892857 v 4.91228 h 8.839285 L 59,46.245608 Z"
       id="path8" />
    <path
       style="fill:#00aad4;stroke-width:0.982303"
       d="M 38.375,45.263154 40.339286,17.754384 59,14.807018 V 23.64912 H 48.196429 v 1.964912 h 5.892857 v 6.877192 h -5.892857 v 4.91228 h 8.839285 L 59,45.263154 Z"
       id="path9" />
  </g>
</svg>
