<?xml version="1.0" encoding="UTF-8" standalone="no"?>
<svg
   width="62"
   height="62"
   version="1"
   id="svg5"
   sodipodi:docname="mog.svg"
   inkscape:version="1.4 (unknown)"
   xmlns:inkscape="http://www.inkscape.org/namespaces/inkscape"
   xmlns:sodipodi="http://sodipodi.sourceforge.net/DTD/sodipodi-0.dtd"
   xmlns="http://www.w3.org/2000/svg"
   xmlns:svg="http://www.w3.org/2000/svg">
  <defs
     id="defs5" />
  <sodipodi:namedview
     id="namedview5"
     pagecolor="#ffffff"
     bordercolor="#000000"
     borderopacity="0.25"
     inkscape:showpageshadow="2"
     inkscape:pageopacity="0.0"
     inkscape:pagecheckerboard="0"
     inkscape:deskcolor="#d1d1d1"
     inkscape:zoom="12.109375"
     inkscape:cx="32"
     inkscape:cy="32"
     inkscape:window-width="1920"
     inkscape:window-height="998"
     inkscape:window-x="0"
     inkscape:window-y="0"
     inkscape:window-maximized="1"
     inkscape:current-layer="svg5" />
  <g
     id="g5"
     transform="translate(-1,-1.5)">
    <path
       style="opacity:0.2"
       d="M 59.958,31.828 A 28,28 0 0 1 32,59 28,28 0 0 1 4.044,32.172 28,28 0 0 0 4,33 28,28 0 0 0 32,61 28,28 0 0 0 60,33 28,28 0 0 0 59.958,31.828 Z"
       id="path1" />
    <path
       style="fill:#2d3b52;fill-opacity:1"
       d="M 60,32 A 28,28 0 0 1 32,60 28,28 0 0 1 4,32 28,28 0 0 1 32,4 28,28 0 0 1 60,32 Z"
       id="path2" />
    <path
       style="opacity:0.1;fill:#ffffff"
       d="M 31.998047,4 A 28,28 0 0 0 4,32 28,28 0 0 0 4.0175781,32.492188 28,28 0 0 1 31.998047,5 H 32 A 28,28 0 0 1 59.972656,32.5 28,28 0 0 0 59.998047,32 28,28 0 0 0 32,4 Z"
       id="path3" />
    <path
       style="opacity:0.2"
       d="M 32,15 A 18,18 0 0 0 14,33 18,18 0 0 0 32,51 18,18 0 0 0 50,33 18,18 0 0 0 32,15 Z m 0,8 A 10,10 0 0 1 42,33 10,10 0 0 1 32,43 10,10 0 0 1 22,33 10,10 0 0 1 32,23 Z"
       id="path4" />
    <path
       style="fill:#ffffff"
       d="M 32,14 A 18,18 0 0 0 14,32 18,18 0 0 0 32,50 18,18 0 0 0 50,32 18,18 0 0 0 32,14 Z m 0,8 A 10,10 0 0 1 42,32 10,10 0 0 1 32,42 10,10 0 0 1 22,32 10,10 0 0 1 32,22 Z"
       id="path5" />
  </g>
</svg>
