<?xml version="1.0" encoding="UTF-8" standalone="no"?>
<svg
   width="62"
   height="62"
   version="1.1"
   id="svg10"
   sodipodi:docname="molotov.svg"
   inkscape:version="1.4 (unknown)"
   xml:space="preserve"
   xmlns:inkscape="http://www.inkscape.org/namespaces/inkscape"
   xmlns:sodipodi="http://sodipodi.sourceforge.net/DTD/sodipodi-0.dtd"
   xmlns:xlink="http://www.w3.org/1999/xlink"
   xmlns="http://www.w3.org/2000/svg"
   xmlns:svg="http://www.w3.org/2000/svg"><defs
     id="defs10"><linearGradient
       id="linearGradient11"
       inkscape:collect="always"><stop
         style="stop-color:#d4aa00;stop-opacity:1"
         offset="0"
         id="stop11" /><stop
         style="stop-color:#ffcc00;stop-opacity:1"
         offset="1"
         id="stop12" /></linearGradient><linearGradient
       inkscape:collect="always"
       xlink:href="#linearGradient11"
       id="linearGradient12"
       x1="32"
       y1="60"
       x2="32"
       y2="4.5"
       gradientUnits="userSpaceOnUse"
       gradientTransform="matrix(1,0,0,0.98245614,-1,-0.43859645)" /><linearGradient
       id="paint154_linear_890_11"
       x1="778"
       y1="812.29199"
       x2="788"
       y2="812.29199"
       gradientUnits="userSpaceOnUse"><stop
         stop-color="#EFF2F6"
         id="stop1050" /><stop
         offset="0.600785"
         stop-color="#B7C6CD"
         id="stop1051" /></linearGradient><linearGradient
       id="paint155_linear_890_11"
       x1="783"
       y1="813"
       x2="783"
       y2="817"
       gradientUnits="userSpaceOnUse"><stop
         stop-color="#EFF2F6"
         id="stop1052" /><stop
         offset="0.734138"
         stop-color="#B7C6CD"
         id="stop1053" /></linearGradient><radialGradient
       id="paint156_radial_890_11"
       cx="0"
       cy="0"
       r="1"
       gradientUnits="userSpaceOnUse"
       gradientTransform="matrix(6.9999948,6.9999948,-6.9999948,6.9999948,45.000143,44.000006)"><stop
         offset="0.600678"
         stop-color="#B7C6CD"
         id="stop1054" /><stop
         offset="0.876735"
         stop-color="#EFF2F6"
         id="stop1055" /></radialGradient><linearGradient
       id="paint157_linear_890_11"
       x1="803"
       y1="805"
       x2="763"
       y2="765"
       gradientUnits="userSpaceOnUse"
       gradientTransform="matrix(0.29166667,0,0,0.29166667,-183.37486,-184.95833)"><stop
         offset="0.314714"
         stop-color="#2E2E41"
         id="stop1056" /><stop
         offset="0.711139"
         stop-color="#566C80"
         id="stop1057" /></linearGradient><linearGradient
       id="paint158_linear_890_11"
       x1="792"
       y1="794"
       x2="774"
       y2="776"
       gradientUnits="userSpaceOnUse"
       xlink:href="#paint160_linear_890_11"
       gradientTransform="matrix(0.29166667,0,0,0.29166667,-183.37486,-184.95833)"><stop
         offset="0.304478"
         stop-color="#2E2E41"
         id="stop1058"
         style="stop-color:#ffcc00;stop-opacity:1" /><stop
         offset="1"
         stop-color="#566C80"
         id="stop1059"
         style="stop-color:#ffb380;stop-opacity:1" /></linearGradient><linearGradient
       id="paint160_linear_890_11"
       x1="784"
       y1="798"
       x2="782"
       y2="796"
       gradientUnits="userSpaceOnUse"><stop
         stop-color="#FF7E07"
         id="stop1062" /><stop
         offset="1"
         stop-color="#FFE607"
         id="stop1063" /></linearGradient><linearGradient
       id="paint159_linear_890_11"
       x1="788"
       y1="790"
       x2="778"
       y2="780"
       gradientUnits="userSpaceOnUse"
       gradientTransform="matrix(0.29166667,0,0,0.29166667,-183.37486,-184.95833)"><stop
         offset="0.39139399"
         stop-color="#5200FF"
         id="stop1060"
         style="stop-color:#854cff;stop-opacity:1;" /><stop
         offset="1"
         stop-color="#0085FF"
         id="stop1061"
         style="stop-color:#40a4ff;stop-opacity:1;" /></linearGradient><linearGradient
       id="c"
       x1="23.813"
       x2="23.813"
       y1="13.436"
       y2="35.035999"
       gradientTransform="matrix(1.2307,0,0,1.2307,-4.055,41.465)"
       gradientUnits="userSpaceOnUse"><stop
         offset="0"
         stop-color="#20adff"
         id="stop3" /><stop
         offset="1"
         stop-color="#345da2"
         id="stop4" /></linearGradient><filter
       id="c-3"
       width="1.0595472"
       height="1.049413"
       x="-0.029773596"
       y="-0.024706516"
       color-interpolation-filters="sRGB"><feGaussianBlur
         stdDeviation="2.056"
         id="feGaussianBlur6" /></filter><linearGradient
       id="d"
       x1="69.128998"
       x2="69.128998"
       y1="139.33"
       y2="-18.862"
       gradientUnits="userSpaceOnUse"><stop
         offset="0"
         stop-color="#6c523c"
         id="stop3-6" /><stop
         offset="1"
         stop-color="#ae7952"
         stop-opacity=".965"
         id="stop4-7" /></linearGradient><linearGradient
       id="e"
       x1="78.639"
       x2="78.639"
       y1="143.06"
       y2="-25.268999"
       gradientUnits="userSpaceOnUse"><stop
         offset="0"
         stop-color="#291d1a"
         id="stop1" /><stop
         offset="1"
         stop-color="#513c34"
         id="stop2" /></linearGradient><filter
       id="b-367"
       width="1.1317421"
       height="1.3293637"
       x="-0.065871049"
       y="-0.16468183"
       color-interpolation-filters="sRGB"><feGaussianBlur
         stdDeviation="1.074"
         id="feGaussianBlur5" /></filter><filter
       id="c-5"
       width="1.1008318"
       height="1.3361104"
       x="-0.050415914"
       y="-0.16805519"
       color-interpolation-filters="sRGB"><feGaussianBlur
         stdDeviation=".548"
         id="feGaussianBlur2" /></filter></defs><sodipodi:namedview
     id="namedview10"
     pagecolor="#ffffff"
     bordercolor="#000000"
     borderopacity="0.25"
     inkscape:showpageshadow="2"
     inkscape:pageopacity="0.0"
     inkscape:pagecheckerboard="0"
     inkscape:deskcolor="#d1d1d1"
     inkscape:zoom="8.3085047"
     inkscape:cx="24.673513"
     inkscape:cy="47.120392"
     inkscape:window-width="1920"
     inkscape:window-height="998"
     inkscape:window-x="0"
     inkscape:window-y="0"
     inkscape:window-maximized="1"
     inkscape:current-layer="svg10"
     showgrid="false"><inkscape:grid
       id="grid1"
       units="px"
       originx="0"
       originy="0"
       spacingx="1"
       spacingy="1"
       empcolor="#0099e5"
       empopacity="0.30196078"
       color="#0099e5"
       opacity="0.14901961"
       empspacing="5"
       enabled="true"
       visible="false" /></sodipodi:namedview><rect
     style="opacity:0.2;stroke-width:0.991189"
     width="56"
     height="55.017544"
     x="3"
     y="3.9824562"
     rx="16.799999"
     ry="16.505262"
     id="rect1" /><rect
     style="fill:url(#linearGradient12);stroke-width:0.991189"
     width="56"
     height="55.017544"
     x="3"
     y="3.4912281"
     rx="16.799999"
     ry="16.505262"
     id="rect2" /><path
     style="opacity:0.1;fill:#ffffff;stroke-width:0.991189"
     d="M 19.800781,3 C 10.493582,3 3,10.362116 3,19.50603 v 0.982457 C 3,11.344572 10.493582,3.9824562 19.800781,3.9824562 H 42.199219 C 51.506418,3.9824562 59,11.344572 59,20.488487 V 19.50603 C 59,10.362116 51.506418,3 42.199219,3 Z"
     id="path9" /><g
     id="g1"
     transform="matrix(1.0937701,0,0,1.0911618,4.1560691,-61.790164)"><path
       style="opacity:0.1"
       d="m 15.183594,70 c -0.214096,0 -0.405938,0.034 -0.550782,0.07422 -0.855018,0.237406 -2.00507,2.037314 -3.460936,4.453126 C 10.11405,76.282644 9,78.585206 9,78.820312 c 0,0.567632 0.480591,1.33453 0.765625,1.222658 0.08981,-0.03526 0.560514,-0.65648 1.046875,-1.382814 0.486376,-0.726316 1.226796,-1.976324 1.648438,-2.527344 0.283648,-0.370678 0.466466,-0.643276 0.58203,-0.839842 -0.0391,0.29129 -0.48576,4.250086 -0.992186,8.066406 -0.506612,3.817692 -1.593767,8.165106 -1.76172,9.371094 -0.54262,3.896406 -0.385083,5.335936 0.59375,5.335936 0.32552,0 2.065956,-0.89645 2.34375,-1.20703 0.16142,-0.18046 0.377974,-0.742536 0.5625,-1.46875 1.674688,-6.590488 5.047202,-13.04303 7.347656,-16.058594 0.413414,-0.541924 0.767962,-1.384868 0.789064,-1.363282 0.02116,0.02164 -0.06462,1.06035 -0.1875,1.796876 -1.041756,6.24521 -1.51268,10.138392 -1.53125,12.011718 -0.0116,1.22113 0.019,1.55358 0.1914,1.882812 0.1968,0.37605 0.237984,0.397368 0.703124,0.34375 0.48904,-0.05644 1.796226,-0.661682 2.171876,-1.003906 0.10704,-0.09748 0.488348,-1.100498 0.84375,-2.230468 1.104172,-3.510596 2.89364,-7.107302 4.496094,-9.566406 0.716078,-1.098856 2.096432,-2.866316 2.17578,-2.785156 0.02694,0.02756 -0.217956,1.457982 -0.542968,3.179686 -1.446148,7.660928 -1.389276,11.52199 -1.475432,13.98047 -0.06822,1.945316 0.03448,2.665966 0.54297,3.765624 0.466112,1.00808 1.150454,1.72598 2.121094,2.22266 0.875224,0.44784 1.803346,0.54192 2.523436,0.28515 0.200718,-0.0716 0.367188,-0.20751 0.367188,-0.30078 0,-0.0933 -0.16172,-0.49405 -0.359376,-0.89453 -0.19764,-0.4005 -0.487758,-1.242814 -0.64453,-1.867186 -0.390978,-1.557134 -0.387074,-4.246916 0.0156,-7.898438 0.507206,-4.600682 0.08118,-6.158362 1.54965,-13.375 0.1308,-0.64276 0.234376,-1.327908 0.234376,-1.519532 0,-0.57646 -0.302818,-1.00105 -1.04297,-1.460938 -0.927542,-0.576312 -1.788166,-0.68014 -2.609374,-0.308592 -1.74577,0.789874 -3.679156,3.036982 -5.308594,6.472656 -0.557294,1.175038 -1.468082,3.383886 -1.796874,4.371092 -0.04114,0.1234 -0.09298,0.205312 -0.11718,0.17968 -0.0452,-0.04786 0.328142,-2.262638 1.027344,-5.40625 0.724986,-3.259472 0.90113,-4.295694 0.765624,-4.554686 -0.315728,-0.603426 -1.631786,-1.304608 -2.453124,-1.308594 -1.689914,-0.0088 -3.70649,2.056572 -5.414062,5.539062 -0.575096,1.172892 -1.790282,4.62578 -2.285158,6.160156 -0.21025,0.651886 -0.386598,1.07569 -0.390624,0.945312 -0.0072,-0.2281 -0.07358,-3.019964 1.382812,-11.773436 C 17.60201,70.505547 17.604182,70.525947 17,70.222657 16.662292,70.053165 15.825874,70 15.183594,70 Z m 20.089844,26.191406 c -0.293778,0.0042 -0.298034,0.05354 -0.253906,0.17968 0.15404,0.440246 0.324218,1.42885 0.324218,1.875 v 0.464844 l 0.957032,0.14062 c 1.157364,0.17194 2.514158,0.566052 3.464842,1.007812 0.386934,0.179818 0.731456,0.329098 0.769532,0.332028 0.03814,0.003 0.17516,-0.302194 0.300782,-0.679684 0.1962,-0.589542 0.207514,-0.758568 0.07812,-1.195314 -0.221758,-0.748768 -0.523114,-1.1433 -1.070312,-1.414062 -0.630262,-0.31186 -2.138944,-0.58739 -3.679688,-0.671874 -0.43587,-0.02392 -0.714354,-0.0416 -0.890624,-0.03906 z m -9.121094,1.800782 c -0.453072,0 -2.927194,0.441586 -4.359376,0.777344 -0.672442,0.15766 -1.6882,0.391664 -2.257812,0.523438 -0.56961,0.13174 -1.943204,0.474974 -3.05078,0.75781 -1.10758,0.28286 -2.427274,0.60043 -2.933594,0.70703 -0.989442,0.20832 -1.553606,0.39311 -1.550782,0.51172 0.004,0.19942 0.618342,0.72266 0.847656,0.72266 0.05842,0 1.172522,-0.15934 2.476562,-0.35156 3.6662,-0.54045 10.355034,-1.28488 11.65625,-1.29688 0.04462,-4.7e-4 0.0104,-0.20853 -0.07812,-0.464844 -0.08848,-0.256314 -0.225598,-0.785136 -0.300782,-1.17578 -0.127452,-0.66213 -0.154796,-0.710938 -0.449222,-0.710938 z"
       id="path2" /><path
       style="fill:#2d3d53;fill-opacity:1"
       d="m 15.183594,69 c -0.214096,0 -0.405938,0.034 -0.550782,0.07422 -0.855018,0.237406 -2.00507,2.037313 -3.460936,4.453126 C 10.11405,75.282644 9,77.585206 9,77.820312 c 0,0.567632 0.480591,1.33453 0.765625,1.222658 0.08981,-0.03526 0.560514,-0.65648 1.046875,-1.382814 0.486376,-0.726316 1.226796,-1.976324 1.648438,-2.527344 0.283648,-0.370678 0.466466,-0.643276 0.58203,-0.839842 -0.0391,0.29129 -0.48576,4.250086 -0.992186,8.066406 -0.506612,3.817692 -1.593767,8.165106 -1.76172,9.371094 -0.54262,3.896406 -0.385083,5.335936 0.59375,5.335936 0.32552,0 2.065956,-0.89645 2.34375,-1.20703 0.16142,-0.18046 0.377974,-0.742536 0.5625,-1.46875 1.674688,-6.590488 5.047202,-13.04303 7.347656,-16.058594 0.413414,-0.541924 0.767962,-1.384868 0.789064,-1.363282 0.02116,0.02164 -0.06462,1.06035 -0.1875,1.796876 -1.041756,6.24521 -1.51268,10.138392 -1.53125,12.011718 -0.0116,1.22113 0.019,1.55358 0.1914,1.882812 0.1968,0.37605 0.237984,0.397368 0.703124,0.34375 0.48904,-0.05644 1.796226,-0.661682 2.171876,-1.003906 0.10704,-0.09748 0.488348,-1.100498 0.84375,-2.230468 1.104172,-3.510596 2.89364,-7.107302 4.496094,-9.566406 0.716078,-1.098856 2.096432,-2.866316 2.17578,-2.785156 0.02694,0.02756 -0.217956,1.457982 -0.542968,3.179686 -1.446148,7.660928 -1.389276,11.52199 -1.475432,13.98047 -0.06822,1.945316 0.03448,2.665966 0.54297,3.765624 0.466112,1.008084 1.150454,1.72598 2.121094,2.22266 0.875224,0.44784 1.803346,0.54192 2.523436,0.28515 0.200718,-0.0716 0.367188,-0.20751 0.367188,-0.30078 0,-0.0933 -0.16172,-0.49405 -0.359376,-0.89453 -0.19764,-0.400496 -0.487758,-1.242814 -0.64453,-1.867186 -0.390978,-1.557134 -0.387074,-4.246916 0.0156,-7.898438 0.507206,-4.600682 0.08118,-6.158362 1.54965,-13.375 0.1308,-0.64276 0.234376,-1.327908 0.234376,-1.519532 0,-0.57646 -0.302818,-1.00105 -1.04297,-1.460938 -0.927542,-0.576311 -1.788166,-0.68014 -2.609374,-0.308592 -1.74577,0.789874 -3.679156,3.036982 -5.308594,6.472656 -0.557294,1.175038 -1.468082,3.383886 -1.796874,4.371092 -0.04114,0.1234 -0.09298,0.205312 -0.11718,0.17968 -0.0452,-0.04786 0.328142,-2.262638 1.027344,-5.40625 0.724986,-3.259472 0.90113,-4.295694 0.765624,-4.554686 -0.315728,-0.603426 -1.631786,-1.304609 -2.453124,-1.308595 -1.689914,-0.0088 -3.70649,2.056573 -5.414062,5.539063 -0.575096,1.172892 -1.790282,4.62578 -2.285158,6.160156 -0.21025,0.651886 -0.386598,1.07569 -0.390624,0.945312 -0.0072,-0.2281 -0.07358,-3.019964 1.382812,-11.773436 C 17.60201,69.505547 17.604182,69.525947 17,69.222657 16.662292,69.053165 15.825874,69 15.183594,69 Z m 20.089844,25.991353 c -0.293778,0.0042 -0.298034,0.05354 -0.253906,0.17968 0.15404,0.440246 0.324218,1.628903 0.324218,2.075053 v 0.464844 l 0.957032,0.14062 c 1.157364,0.17194 2.514158,0.566052 3.464842,1.007812 0.386934,0.17982 0.731456,0.3291 0.769532,0.33203 0.03814,0.0028 0.17516,-0.302196 0.300782,-0.679686 0.1962,-0.589542 0.207514,-0.758568 0.07812,-1.195314 -0.221758,-0.748768 -0.523114,-1.1433 -1.070312,-1.414062 -0.630262,-0.31186 -2.138944,-0.787443 -3.679688,-0.871927 -0.43587,-0.02392 -0.714354,-0.0416 -0.890624,-0.03906 z m -9.121094,2.000835 c -0.453072,0 -2.927194,0.441586 -4.359376,0.777344 -0.672442,0.15766 -1.6882,0.391664 -2.257812,0.523438 -0.56961,0.13174 -1.943204,0.474974 -3.05078,0.757812 -1.10758,0.282856 -2.427274,0.600428 -2.933594,0.70703 C 12.56134,99.966134 11.997176,100.15092 12,100.26953 c 0.004,0.19942 0.618342,0.72266 0.847656,0.72266 0.05842,0 1.172522,-0.15934 2.476562,-0.35156 3.6662,-0.54045 10.355034,-1.28488 11.65625,-1.29688 0.04462,-4.7e-4 0.0104,-0.20853 -0.07812,-0.464844 -0.08848,-0.256314 -0.225598,-0.785136 -0.300782,-1.17578 -0.127452,-0.66213 -0.154796,-0.710938 -0.449222,-0.710938 z"
       id="path3" /></g></svg>
