<?xml version="1.0" encoding="UTF-8" standalone="no"?>
<svg
   width="62"
   height="62"
   version="1.1"
   id="svg4"
   sodipodi:docname="moneydance.svg"
   inkscape:version="1.4 (unknown)"
   xmlns:inkscape="http://www.inkscape.org/namespaces/inkscape"
   xmlns:sodipodi="http://sodipodi.sourceforge.net/DTD/sodipodi-0.dtd"
   xmlns:xlink="http://www.w3.org/1999/xlink"
   xmlns="http://www.w3.org/2000/svg"
   xmlns:svg="http://www.w3.org/2000/svg">
  <defs
     id="defs4">
    <linearGradient
       id="linearGradient1"
       inkscape:collect="always">
      <stop
         style="stop-color:#c83771;stop-opacity:1"
         offset="0"
         id="stop1" />
      <stop
         style="stop-color:#ffb380;stop-opacity:1"
         offset="1"
         id="stop2" />
    </linearGradient>
    <linearGradient
       id="paint0_linear_235_115"
       x1="16.000099"
       y1="17.5557"
       x2="16.000099"
       y2="2"
       gradientUnits="userSpaceOnUse"
       gradientTransform="translate(-47.95566,10.4)">
      <stop
         stop-color="#FD2E00"
         id="stop3" />
      <stop
         offset="1"
         stop-color="#FF9900"
         id="stop4" />
    </linearGradient>
    <linearGradient
       id="paint1_linear_235_115"
       x1="16.000099"
       y1="30.000099"
       x2="16.000099"
       y2="17.5557"
       gradientUnits="userSpaceOnUse"
       gradientTransform="translate(-47.95566,10.4)">
      <stop
         stop-color="#FD2E00"
         id="stop5" />
      <stop
         offset="1"
         stop-color="#FF9900"
         id="stop6" />
    </linearGradient>
    <linearGradient
       inkscape:collect="always"
       xlink:href="#linearGradient1"
       id="linearGradient2"
       x1="-31.634384"
       y1="29.319059"
       x2="-31.955561"
       y2="12.4"
       gradientUnits="userSpaceOnUse" />
    <linearGradient
       inkscape:collect="always"
       xlink:href="#linearGradient1"
       id="linearGradient8"
       x1="-31.955561"
       y1="40.400101"
       x2="-31.955561"
       y2="27.9557"
       gradientUnits="userSpaceOnUse" />
  </defs>
  <sodipodi:namedview
     id="namedview4"
     pagecolor="#ffffff"
     bordercolor="#000000"
     borderopacity="0.25"
     inkscape:showpageshadow="2"
     inkscape:pageopacity="0.0"
     inkscape:pagecheckerboard="0"
     inkscape:deskcolor="#d1d1d1"
     inkscape:zoom="10"
     inkscape:cx="17.45"
     inkscape:cy="31.35"
     inkscape:window-width="1920"
     inkscape:window-height="998"
     inkscape:window-x="0"
     inkscape:window-y="0"
     inkscape:window-maximized="1"
     inkscape:current-layer="svg4" />
  <ellipse
     style="opacity:0.2;stroke-width:0.9823"
     cx="31"
     cy="31.491228"
     id="circle1"
     rx="27.5"
     ry="27.508772" />
  <ellipse
     style="fill:#2d3d53;fill-opacity:1;stroke-width:0.9823"
     cx="31"
     cy="30.508772"
     id="circle2"
     rx="27.5"
     ry="27.508772" />
  <path
     style="opacity:0.1;fill:#ffffff;stroke-width:0.9823"
     d="M 31,3 A 27.5,27.508772 0 0 0 3.4999999,30.508772 27.5,27.508772 0 0 0 3.5326101,30.98273 27.5,27.508772 0 0 1 31,3.9824562 27.5,27.508772 0 0 1 58.482736,30.746711 27.5,27.508772 0 0 0 58.5,30.508772 27.5,27.508772 0 0 0 31,3 Z"
     id="path4" />
  <g
     id="g1"
     transform="matrix(1.2455332,0,0,1.2142814,70.801674,-1.0570897)">
    <path
       fill-rule="evenodd"
       clip-rule="evenodd"
       d="m -19.51106,17.06667 c 0,2.57733 -5.5716,4.66663 -12.4445,4.66663 -6.87287,0 -12.44444,-2.0893 -12.44444,-4.66663 0,-2.57733 5.57157,-4.66667 12.44444,-4.66667 6.8729,0 12.4445,2.08934 12.4445,4.66667 z M -44.4,23.2891 c 0.0024,-0.2306 0.05042,-0.4603 0.14308,-0.6874 0.2164,-0.5303 0.91887,-0.5161 1.39068,-0.1913 0.9043,0.6225 2.1794,1.1625 3.73621,1.576 2.09777,0.557 4.60397,0.8569 7.17447,0.8582 2.5705,-0.0013 5.0767,-0.3012 7.1745,-0.8582 1.5568,-0.4135 2.8319,-0.9535 3.7362,-1.576 0.4718,-0.3248 1.1743,-0.339 1.3907,0.1913 0.0926,0.2271 0.1406,0.4568 0.1431,0.6874 0,1.2376 -1.3112,2.4246 -3.6449,3.2998 -2.3338,0.8752 -5.4991,1.3668 -8.7996,1.3668 -3.3005,0 -6.46576,-0.4916 -8.79954,-1.3668 C -43.08889,25.7137 -44.4,24.5267 -44.4,23.2891 Z"
       fill="#ffffff"
       id="path1" />
    <path
       fill-rule="evenodd"
       clip-rule="evenodd"
       d="m -19.51106,17.06667 c 0,2.57733 -5.5716,4.66663 -12.4445,4.66663 -6.87287,0 -12.44444,-2.0893 -12.44444,-4.66663 0,-2.57733 5.57157,-4.66667 12.44444,-4.66667 6.8729,0 12.4445,2.08934 12.4445,4.66667 z M -44.4,23.2891 c 0.0024,-0.2306 0.05042,-0.4603 0.14308,-0.6874 0.2164,-0.5303 0.91887,-0.5161 1.39068,-0.1913 0.9043,0.6225 2.1794,1.1625 3.73621,1.576 2.09777,0.557 4.60397,0.8569 7.17447,0.8582 2.5705,-0.0013 5.0767,-0.3012 7.1745,-0.8582 1.5568,-0.4135 2.8319,-0.9535 3.7362,-1.576 0.4718,-0.3248 1.1743,-0.339 1.3907,0.1913 0.0926,0.2271 0.1406,0.4568 0.1431,0.6874 0,1.2376 -1.3112,2.4246 -3.6449,3.2998 -2.3338,0.8752 -5.4991,1.3668 -8.7996,1.3668 -3.3005,0 -6.46576,-0.4916 -8.79954,-1.3668 C -43.08889,25.7137 -44.4,24.5267 -44.4,23.2891 Z"
       id="path2"
       style="fill:url(#linearGradient2)" />
    <path
       opacity="0.4"
       fill-rule="evenodd"
       clip-rule="evenodd"
       d="m -44.4,29.5112 c 0.0024,-0.2305 0.05042,-0.4603 0.14308,-0.6873 0.2164,-0.5304 0.91887,-0.5161 1.39068,-0.1914 0.9043,0.6225 2.1794,1.1626 3.73621,1.576 2.09777,0.5571 4.60397,0.8569 7.17447,0.8583 2.5705,-0.0014 5.0767,-0.3012 7.1745,-0.8583 1.5568,-0.4134 2.8319,-0.9535 3.7362,-1.576 0.4718,-0.3247 1.1743,-0.339 1.3907,0.1914 0.0926,0.227 0.1406,0.4568 0.1431,0.6873 0,1.2377 -1.3112,2.4247 -3.6449,3.2999 -2.3338,0.8751 -5.4991,1.3668 -8.7996,1.3668 -3.3005,0 -6.46576,-0.4917 -8.79954,-1.3668 C -43.08889,31.9359 -44.4,30.7489 -44.4,29.5112 Z m 0,6.2222 c 0.0024,-0.2305 0.05042,-0.4603 0.14308,-0.6874 0.2164,-0.5303 0.91887,-0.5161 1.39068,-0.1913 0.9043,0.6225 2.1794,1.1626 3.73621,1.576 2.09777,0.5571 4.60397,0.8569 7.17447,0.8582 2.5705,-0.0013 5.0767,-0.3011 7.1745,-0.8582 1.5568,-0.4134 2.8319,-0.9535 3.7362,-1.576 0.4718,-0.3248 1.1743,-0.339 1.3907,0.1913 0.0926,0.2271 0.1406,0.4569 0.1431,0.6874 0,1.2377 -1.3112,2.4246 -3.6449,3.2998 -2.3338,0.8752 -5.4991,1.3669 -8.7996,1.3669 -3.3005,0 -6.46576,-0.4917 -8.79954,-1.3669 C -43.08889,38.158 -44.4,36.9711 -44.4,35.7334 Z"
       id="path3"
       style="fill:url(#linearGradient8);opacity:0.6" />
  </g>
</svg>
