<?xml version="1.0" encoding="UTF-8" standalone="no"?>
<svg
   width="62"
   height="62"
   version="1.1"
   id="svg26"
   sodipodi:docname="morgen.svg"
   inkscape:version="1.4 (unknown)"
   xmlns:inkscape="http://www.inkscape.org/namespaces/inkscape"
   xmlns:sodipodi="http://sodipodi.sourceforge.net/DTD/sodipodi-0.dtd"
   xmlns="http://www.w3.org/2000/svg"
   xmlns:svg="http://www.w3.org/2000/svg">
  <defs
     id="defs26" />
  <sodipodi:namedview
     id="namedview26"
     pagecolor="#ffffff"
     bordercolor="#000000"
     borderopacity="0.25"
     inkscape:showpageshadow="2"
     inkscape:pageopacity="0.0"
     inkscape:pagecheckerboard="0"
     inkscape:deskcolor="#d1d1d1"
     inkscape:zoom="6.0546875"
     inkscape:cx="27.994839"
     inkscape:cy="45.171613"
     inkscape:window-width="1920"
     inkscape:window-height="998"
     inkscape:window-x="0"
     inkscape:window-y="0"
     inkscape:window-maximized="1"
     inkscape:current-layer="svg26" />
  <g
     id="g26"
     transform="translate(-0.5,-1)">
    <ellipse
       style="opacity:0.2;stroke-width:0.982303"
       cx="31.5"
       cy="32.49123"
       id="circle1"
       rx="27.5"
       ry="27.50877" />
    <ellipse
       style="fill:#ff8843;stroke-width:0.982303"
       cx="31.5"
       cy="31.50877"
       id="circle2"
       rx="26.812492"
       ry="26.821043" />
    <path
       style="fill:#f7be65;stroke-width:0.982303"
       d="m 12.185546,50.993249 a 27.499996,27.508766 0 0 0 9.573972,6.167983 v -6.167983 z"
       id="path2" />
    <path
       style="fill:#f8c362;stroke-width:0.982303"
       d="m 21.759518,50.993249 v 6.167983 a 27.499996,27.508766 0 0 0 9.740478,1.856302 v -8.024285 z"
       id="path3" />
    <path
       style="fill:#f8c86a;stroke-width:0.982303"
       d="m 31.499996,50.993249 v 8.024285 a 27.499996,27.508766 0 0 0 9.740479,-1.856302 v -6.167983 z"
       id="path4" />
    <path
       style="fill:#f8cc71;stroke-width:0.982303"
       d="m 41.240475,50.993249 v 6.167983 a 27.499996,27.508766 0 0 0 9.573973,-6.167983 z"
       id="path5" />
    <path
       style="fill:#f8c692;stroke-width:0.982303"
       d="m 50.978267,41.252351 v 9.577027 a 27.499996,27.508766 0 0 0 6.166017,-9.577027 z"
       id="path6" />
    <path
       style="fill:#f8c389;stroke-width:0.982303"
       d="m 41.245848,41.246984 v 9.740892 h 9.573976 a 27.499996,27.508766 0 0 0 0.163819,-0.163874 V 41.24698 Z"
       id="path7" />
    <rect
       style="fill:#f8be85;stroke-width:0.982303"
       width="9.7389259"
       height="9.7420321"
       x="-41.233028"
       y="41.244904"
       transform="scale(-1,1)"
       id="rect7" />
    <rect
       style="fill:#f7b882;stroke-width:0.982303"
       width="9.7389259"
       height="9.7420321"
       x="-31.5"
       y="41.244904"
       transform="scale(-1,1)"
       id="rect8" />
    <path
       style="fill:#f7b380;stroke-width:0.982303"
       d="m 12.027098,41.246984 v 9.587771 a 27.499996,27.508766 0 0 0 0.153079,0.153123 h 9.584714 v -9.740892 z"
       id="path8" />
    <path
       style="fill:#f6ac82;stroke-width:0.982303"
       d="m 5.8557128,41.252351 a 27.499996,27.508766 0 0 0 6.1660162,9.577027 v -9.577027 z"
       id="path9" />
    <path
       style="fill:#f5a397;stroke-width:0.982303"
       d="m 4,31.508766 a 27.499996,27.508766 0 0 0 1.8557128,9.743585 h 6.1660162 v -9.743585 z"
       id="path10" />
    <rect
       style="fill:#f6a998;stroke-width:0.982303"
       width="9.7389259"
       height="9.7420321"
       x="12.014287"
       y="31.50877"
       id="rect10" />
    <rect
       style="fill:#f7ae98;stroke-width:0.982303"
       width="9.7389259"
       height="9.7420321"
       x="21.766966"
       y="31.50877"
       id="rect11" />
    <rect
       style="fill:#f7b49b;stroke-width:0.982303"
       width="9.7389259"
       height="9.7420321"
       x="31.5"
       y="31.50877"
       id="rect12" />
    <rect
       style="fill:#f8baa1;stroke-width:0.982303"
       width="9.7389259"
       height="9.7420321"
       x="41.233028"
       y="31.50877"
       id="rect13" />
    <path
       style="fill:#f8bfa5;stroke-width:0.982303"
       d="m 50.978267,31.508766 v 9.743585 h 6.166017 a 27.499996,27.508766 0 0 0 1.85571,-9.743585 z"
       id="path13" />
    <path
       style="fill:#f8b7aa;stroke-width:0.982303"
       d="m 50.978267,21.765182 v 9.743584 h 8.021727 a 27.499996,27.508766 0 0 0 -1.791258,-9.743584 z"
       id="path14" />
    <rect
       style="fill:#f7b3a5;stroke-width:0.982303"
       width="9.7389259"
       height="9.7420321"
       x="-50.985703"
       y="21.772633"
       transform="scale(-1,1)"
       id="rect14" />
    <rect
       style="fill:#f7ada0;stroke-width:0.982303"
       width="9.7389259"
       height="9.7420321"
       x="-41.233028"
       y="21.772633"
       transform="scale(-1,1)"
       id="rect15" />
    <rect
       style="fill:#f6a59f;stroke-width:0.982303"
       width="9.7389259"
       height="9.7420321"
       x="-31.5"
       y="21.772633"
       transform="scale(-1,1)"
       id="rect16" />
    <rect
       style="fill:#f4a19f;stroke-width:0.982303"
       width="9.7389259"
       height="9.7420321"
       x="-21.766966"
       y="21.772633"
       transform="scale(-1,1)"
       id="rect17" />
    <path
       style="fill:#f29c9f;stroke-width:0.982303"
       d="M 5.8557128,21.765182 A 27.499996,27.508766 0 0 0 4,31.508766 h 8.021729 v -9.743584 z"
       id="path17" />
    <path
       style="fill:#f096a6;stroke-width:0.982303"
       d="M 12.021729,12.188156 A 27.499996,27.508766 0 0 0 5.8557128,21.765182 H 12.021729 Z"
       id="path18" />
    <path
       style="fill:#f29aa8;stroke-width:0.982303"
       d="m 12.190919,12.018914 a 27.499996,27.508766 0 0 0 -0.17456,0.174616 v 9.566282 h 9.737791 v -9.740898 z"
       id="path19" />
    <rect
       style="fill:#f49ea9;stroke-width:0.982303"
       width="9.7389259"
       height="9.7420321"
       x="21.766966"
       y="12.016843"
       id="rect19" />
    <rect
       style="fill:#f5a5a8;stroke-width:0.982303"
       width="9.7389259"
       height="9.7420321"
       x="31.5"
       y="12.016843"
       id="rect20" />
    <path
       style="fill:#f7abaa;stroke-width:0.982303"
       d="m 41.235109,12.018914 v 9.740898 h 9.737787 v -9.673738 a 27.499996,27.508766 0 0 0 -0.06714,-0.06716 z"
       id="path20" />
    <path
       style="fill:#f7b1ad;stroke-width:0.982303"
       d="m 50.978267,12.091446 v 9.673736 h 6.230469 a 27.499996,27.508766 0 0 0 -6.230469,-9.673736 z"
       id="path21" />
    <path
       style="fill:#f5a2af;stroke-width:0.982303"
       d="M 41.240475,5.7918312 V 12.024287 H 50.91113 A 27.499996,27.508766 0 0 0 41.240475,5.7918312 Z"
       id="path22" />
    <path
       style="fill:#f49caf;stroke-width:0.982303"
       d="m 31.499996,4 v 8.024287 h 9.740479 V 5.7918312 A 27.499996,27.508766 0 0 0 31.499996,4 Z"
       id="path23" />
    <path
       style="fill:#f297af;stroke-width:0.982303"
       d="m 31.499996,4 a 27.499996,27.508766 0 0 0 -9.740478,1.8563046 v 6.1679824 h 9.740478 z"
       id="path24" />
    <path
       style="fill:#f094ae;stroke-width:0.982303"
       d="m 21.759518,5.8563046 a 27.499996,27.508766 0 0 0 -9.573972,6.1679824 h 9.573972 z"
       id="path25" />
    <path
       style="opacity:0.2;fill:#ffffff;stroke-width:0.982303"
       d="M 31.499996,4 A 27.499996,27.508766 0 0 0 4,31.508766 27.499996,27.508766 0 0 0 4.0326097,31.982727 27.499996,27.508766 0 0 1 31.499996,4.9824559 27.499996,27.508766 0 0 1 58.982732,31.746706 27.499996,27.508766 0 0 0 58.999994,31.508766 27.499996,27.508766 0 0 0 31.499996,4 Z"
       id="path26" />
  </g>
</svg>
