<?xml version="1.0" encoding="UTF-8" standalone="no"?>
<svg
   width="62"
   height="62"
   version="1.1"
   id="svg7"
   sodipodi:docname="mosaic.svg"
   inkscape:version="1.4 (unknown)"
   xmlns:inkscape="http://www.inkscape.org/namespaces/inkscape"
   xmlns:sodipodi="http://sodipodi.sourceforge.net/DTD/sodipodi-0.dtd"
   xmlns="http://www.w3.org/2000/svg"
   xmlns:svg="http://www.w3.org/2000/svg">
  <defs
     id="defs7" />
  <sodipodi:namedview
     id="namedview7"
     pagecolor="#ffffff"
     bordercolor="#000000"
     borderopacity="0.25"
     inkscape:showpageshadow="2"
     inkscape:pageopacity="0.0"
     inkscape:pagecheckerboard="0"
     inkscape:deskcolor="#d1d1d1"
     inkscape:zoom="7.0710678"
     inkscape:cx="23.829499"
     inkscape:cy="36.557421"
     inkscape:window-width="1920"
     inkscape:window-height="998"
     inkscape:window-x="0"
     inkscape:window-y="0"
     inkscape:window-maximized="1"
     inkscape:current-layer="svg7" />
  <g
     id="g7"
     transform="translate(-0.4999091,-1)">
    <path
       style="opacity:0.2;stroke-width:0.982302"
       d="m 52.124847,4.9824568 c -2.732394,0.00139 -5.204625,1.4246353 -6.297586,3.9297274 H 14.999962 c 0,0 -2.889463,-0.010068 -5.661114,1.8348148 -2.77165,1.844882 -5.3564002,5.735594 -5.3388478,11.927637 0.016832,5.93752 2.73629,10.103358 5.588603,11.632102 2.4622748,1.319691 4.7895728,1.26924 5.4113588,1.230374 h 16.499961 16.107078 c 0.08877,-2.01e-4 0.177516,-0.0048 0.265867,-0.01352 0,0 1.283296,0.01102 2.54858,0.689162 1.265279,0.678149 2.672802,1.423343 2.685538,5.914409 0.0136,4.811419 -1.525826,6.226139 -2.886958,7.132142 -1.361129,0.9061 -2.613027,0.916111 -2.613027,0.916111 H 17.167208 c -1.092176,-2.503308 -3.561762,-3.926314 -6.292209,-3.929815 -3.7969441,0 -6.8749751,3.079028 -6.8749751,6.877203 0,3.798168 3.078031,6.877196 6.8749751,6.877196 2.732393,-0.0014 5.204624,-1.326388 6.297585,-3.831481 h 30.827274 c 0,0 2.889467,0.01002 5.661117,-1.834818 2.771648,-1.844883 5.356397,-5.735585 5.338845,-11.927637 -0.01683,-5.9375 -2.736287,-10.103337 -5.588601,-11.632081 -2.462274,-1.319686 -4.789571,-1.269234 -5.411361,-1.23037 H 31.499923 15.392818 c -0.08877,2.01e-4 -0.177516,0.0048 -0.265868,0.01352 0,0 -1.283296,0.08713 -2.548578,-0.591006 -1.265277,-0.678241 -2.6728046,-1.619927 -2.6855358,-6.110993 -0.013643,-4.81142 1.5258208,-6.127975 2.8869558,-7.03398 1.361128,-0.906007 2.613026,-0.916065 2.613026,-0.916065 h 30.439819 c 1.092175,2.503301 3.561761,3.828284 6.29221,3.831786 3.79694,0 6.874973,-3.079029 6.874973,-6.877196 0,-3.7981722 -3.078033,-6.8771985 -6.874973,-6.8771984 z"
       id="path1" />
    <path
       style="fill:#6051c7;stroke-width:0.982302;fill-opacity:1"
       d="M 52.124847,4 C 49.392453,4.00139 46.920222,5.4246353 45.827261,7.9297274 H 14.999962 c 0,0 -2.889463,-0.010068 -5.661114,1.8348152 -2.77165,1.8448854 -5.3564002,5.7355904 -5.3388478,11.9276404 0.016832,5.937515 2.73629,10.103351 5.588603,11.632095 2.4622748,1.319699 4.7895728,1.269247 5.4113588,1.230373 h 16.499961 16.107078 c 0.08877,-1.95e-4 0.177516,-0.0048 0.265867,-0.01352 0,0 1.283296,0.01102 2.54858,0.689169 1.265279,0.678149 2.672802,1.423336 2.685538,5.914402 0.0136,4.811419 -1.525826,6.226139 -2.886958,7.132142 -1.361129,0.9061 -2.613027,0.916113 -2.613027,0.916113 H 17.167208 c -1.092176,-2.503308 -3.561762,-3.926308 -6.292209,-3.929809 -3.7969441,0 -6.8749751,3.079029 -6.8749751,6.877196 0,3.798174 3.078031,6.877195 6.8749751,6.877195 2.732393,-0.0014 5.204624,-1.326386 6.297585,-3.831481 h 30.827274 c 0,0 2.889467,0.01002 5.661117,-1.834812 2.771648,-1.844887 5.356397,-5.73559 5.338845,-11.927641 -0.01683,-5.937494 -2.736287,-10.10333 -5.588601,-11.632073 -2.462274,-1.319695 -4.789571,-1.269244 -5.411361,-1.23037 H 31.499923 15.392818 c -0.08877,1.92e-4 -0.177516,0.0048 -0.265868,0.0135 0,0 -1.283296,0.08711 -2.548578,-0.591011 -1.265277,-0.678243 -2.6728046,-1.619922 -2.6855358,-6.110987 -0.013643,-4.811428 1.5258208,-6.127983 2.8869558,-7.033988 1.361128,-0.906005 2.613026,-0.916063 2.613026,-0.916063 h 30.439819 c 1.092175,2.503308 3.561761,3.828291 6.29221,3.831792 3.79694,0 6.874973,-3.079028 6.874973,-6.877203 0,-3.7981702 -3.078033,-6.8771961 -6.874973,-6.877196 z"
       id="path2" />
    <path
       style="opacity:0.1;fill:#ffffff;stroke-width:0.982302"
       d="M 52.124844,4 C 49.39245,4.00139 46.920216,5.4247348 45.827255,7.9298276 H 14.999196 c 0,0 -2.889079,-0.010448 -5.6607311,1.834431 C 6.5668146,11.609141 3.9824456,15.499852 3.999998,21.691896 c 4.05e-4,0.142832 0.00993,0.279463 0.013428,0.420233 C 4.1504414,16.249905 6.6526963,12.534436 9.3384648,10.746714 12.110117,8.9018327 14.999196,8.9122844 14.999196,8.9122844 h 30.828059 c 1.092961,-2.5050928 3.565195,-3.9284618 6.297589,-3.9298276 3.630968,-10e-8 6.597016,2.8182649 6.850042,6.3859702 0.01158,-0.163087 0.02493,-0.325198 0.02493,-0.491231 C 58.999829,7.0790261 55.921793,3.9999999 52.124853,4 Z M 9.913937,22.338558 c -0.00411,0.178017 -0.021633,0.327604 -0.021095,0.51617 0.012726,4.491067 1.420257,5.433327 2.685534,6.11157 1.265282,0.678143 2.549344,0.591013 2.549344,0.591013 0.08833,-0.0089 0.175931,-0.01327 0.264719,-0.01347 h 16.107469 16.500715 c 0.62178,-0.03886 2.949087,-0.08971 5.411361,1.229991 2.783696,1.491965 5.432537,5.500897 5.574408,11.2119 0.0045,-0.187453 0.014,-0.370359 0.01346,-0.562227 C 58.983013,35.486006 56.26432,31.320132 53.412006,29.791388 50.949732,28.471696 48.622425,28.52253 48.000645,28.561395 H 31.49991 15.392436 c -0.08877,2e-4 -0.176364,0.0048 -0.264717,0.01347 0,0 -1.284064,0.08713 -2.549346,-0.591006 -1.216935,-0.652333 -2.551832,-1.582097 -2.664436,-5.645295 z m 43.171945,19.326768 c -0.101876,4.369134 -1.558337,5.742077 -2.865854,6.612394 -1.361129,0.906099 -2.612647,0.915292 -2.612647,0.915292 H 17.166808 c -1.092176,-2.503308 -3.561385,-3.926323 -6.291832,-3.929823 -3.7969434,0 -6.874978,3.079027 -6.874978,6.877194 0,0.166035 0.01337,0.328145 0.024936,0.49123 0.2530274,-3.567703 3.2190738,-6.385973 6.850041,-6.385973 2.730447,0.0036 5.199653,1.426524 6.29183,3.929832 H 47.60738 c 0,0 1.251517,-0.0094 2.612646,-0.915299 1.361133,-0.906006 2.900567,-2.320982 2.886961,-7.132403 -4.93e-4,-0.171266 -0.01664,-0.30187 -0.02107,-0.462444 z"
       id="path3" />
    <rect
       style="opacity:0.2;stroke-width:0.982302"
       width="30.446329"
       height="30.45616"
       x="16.767809"
       y="16.771944"
       rx="15.223166"
       ry="15.228081"
       id="rect3" />
    <rect
       style="opacity:0.2;stroke-width:0.982302"
       width="30.446329"
       height="30.45616"
       x="16.767809"
       y="16.771944"
       rx="15.223166"
       ry="15.228081"
       id="rect4" />
    <rect
       style="fill:#00aad4;stroke-width:0.982302"
       width="30.446329"
       height="30.45616"
       x="16.767809"
       y="15.789485"
       rx="15.223166"
       ry="15.228081"
       id="rect5" />
    <path
       style="opacity:0.2;stroke-width:0.982302"
       d="m 31.990982,21.684222 c -5.695427,0 -10.312468,4.618533 -10.312468,10.315798 0,5.697265 4.617041,10.315798 10.312468,10.315798 5.695426,0 10.312465,-4.618533 10.312465,-10.315798 0,-5.697265 -4.617039,-10.315798 -10.312465,-10.315798 z m -1.032976,1.97163 c 0.120227,-0.0127 0.272898,0.0073 0.394201,0 0.0144,0.05755 -0.08727,0.261711 -0.224437,0.561267 -0.873164,1.908122 -0.922587,4.144818 -0.112217,5.339233 0.146643,0.216554 0.279109,0.422222 0.279109,0.449014 0,0.02676 -0.157833,0.05466 -0.336656,0.05466 -0.419776,0 -0.816939,-0.255095 -1.628589,-0.898024 -0.360563,-0.285607 -0.828349,-0.52496 -1.009954,-0.561269 -0.28517,-0.05701 -0.361926,-0.03229 -0.730845,0.336762 -0.343248,0.3433 -0.448869,0.52906 -0.448869,0.843341 0,1.191795 1.413591,2.136597 4.042692,2.694079 3.570411,0.756971 4.450626,1.437736 4.549108,3.315793 0.123645,2.355029 -1.130471,4.131439 -3.875809,5.506167 -0.32767,0.164138 -0.535818,0.226162 -0.673299,0.279201 -0.06091,-0.0057 -0.10614,0.0057 -0.166888,0 -0.02338,-0.07281 -0.05756,-0.241197 -0.05756,-0.561267 0,-1.250829 -0.491718,-2.538233 -1.234388,-3.258229 -0.199356,-0.193292 -0.759255,-0.602035 -1.237263,-0.898032 -0.477989,-0.295973 -0.960031,-0.639081 -1.067501,-0.785773 -0.178098,-0.243427 -0.191503,-0.393634 -0.05464,-0.843339 0.249372,-0.821329 0.545143,-1.279974 1.122171,-1.798927 0.302515,-0.272076 0.606286,-0.498253 0.673299,-0.503705 0.06703,-0.0057 -0.384214,-0.142845 -1.064621,-0.282069 -0.68036,-0.1395 -1.677962,-0.432538 -2.192538,-0.618831 -0.94096,-0.340584 -2.208881,-1.054087 -2.693218,-1.571551 -0.02045,-0.02192 -0.03976,-0.03812 -0.05757,-0.05759 0.693939,-2.765096 2.6408,-5.03 5.222418,-6.122129 0.54017,-0.228548 1.09832,-0.386312 1.686134,-0.506577 0.292791,-0.05983 0.595417,-0.0815 0.897734,-0.112254 z m 8.424919,4.213825 c 0.211075,0.13051 1.006882,1.855614 1.23439,2.696956 0.293724,1.086174 0.272465,2.964994 0,4.043994 -0.103701,0.410677 -0.234896,0.795524 -0.279108,0.843339 -0.0442,0.04785 -0.205601,-0.226941 -0.3942,-0.561266 -0.188612,-0.33427 -0.791265,-1.045982 -1.291934,-1.574423 -1.445162,-1.525432 -1.672858,-2.31999 -1.067503,-3.537417 0.305287,-0.613909 1.63499,-2.012044 1.798355,-1.911183 z"
       id="path5" />
    <path
       style="fill:#f2f2f2;stroke-width:0.982302;fill-opacity:1"
       d="m 31.990982,20.701763 c -5.695427,0 -10.312468,4.618533 -10.312468,10.315796 0,5.697272 4.617041,10.315798 10.312468,10.315798 5.695426,0 10.312465,-4.618526 10.312465,-10.315798 0,-5.697263 -4.617039,-10.315796 -10.312465,-10.315796 z m -1.032976,1.971635 c 0.120227,-0.0127 0.272898,0.0073 0.394201,0 0.0144,0.05755 -0.08727,0.261706 -0.224437,0.561262 -0.873164,1.908122 -0.922587,4.144818 -0.112217,5.339233 0.146643,0.216552 0.279109,0.42222 0.279109,0.449012 0,0.02676 -0.157833,0.05466 -0.336656,0.05466 -0.419776,0 -0.816939,-0.255102 -1.628589,-0.898031 -0.360563,-0.285607 -0.828349,-0.524953 -1.009954,-0.561262 -0.28517,-0.05701 -0.361926,-0.03229 -0.730845,0.336755 -0.343248,0.3433 -0.448869,0.52906 -0.448869,0.843341 0,1.191795 1.413591,2.136606 4.042692,2.694079 3.570411,0.75698 4.450626,1.437735 4.549108,3.315793 0.123645,2.355035 -1.130471,4.131445 -3.875809,5.506174 -0.32767,0.164138 -0.535818,0.226157 -0.673299,0.279194 -0.06091,-0.0057 -0.10614,0.0057 -0.166888,0 -0.02338,-0.07281 -0.05757,-0.241197 -0.05757,-0.561262 0,-1.250835 -0.491718,-2.53824 -1.234388,-3.258229 -0.199356,-0.193299 -0.759255,-0.602035 -1.237263,-0.898037 -0.477989,-0.295975 -0.960031,-0.639076 -1.067501,-0.785766 -0.178098,-0.243436 -0.191503,-0.393635 -0.05464,-0.843339 0.249372,-0.821338 0.545143,-1.279983 1.122171,-1.798936 0.302515,-0.272067 0.606286,-0.498244 0.673299,-0.503705 0.06703,-0.0057 -0.384214,-0.142845 -1.064621,-0.282069 -0.68036,-0.1395 -1.677962,-0.432538 -2.192538,-0.618831 -0.94096,-0.340584 -2.208881,-1.054088 -2.693218,-1.571551 -0.02045,-0.02192 -0.03976,-0.03812 -0.05757,-0.05759 0.693939,-2.765094 2.6408,-5.030001 5.222418,-6.122122 0.54017,-0.228548 1.09832,-0.386316 1.686134,-0.506582 0.292792,-0.05983 0.595417,-0.08148 0.897734,-0.112249 z m 8.424919,4.213819 c 0.211075,0.13051 1.006882,1.855613 1.23439,2.696957 0.293724,1.086172 0.272465,2.964992 0,4.044001 -0.103701,0.410668 -0.234896,0.795515 -0.279108,0.843339 -0.0442,0.04778 -0.205601,-0.226943 -0.3942,-0.561268 -0.188612,-0.33427 -0.791265,-1.04598 -1.291934,-1.57443 -1.445162,-1.525432 -1.672858,-2.31999 -1.067503,-3.537417 0.305287,-0.613909 1.63499,-2.012043 1.798355,-1.911182 z"
       id="path6" />
    <path
       style="opacity:0.2;fill:#ffffff;stroke-width:0.982302"
       d="m 31.990982,15.789479 c -8.433634,0 -15.223166,6.791726 -15.223166,15.228081 0,0.16583 0.01974,0.326714 0.02496,0.49123 0.25972,-8.205195 6.930375,-14.736851 15.198233,-14.736851 8.267856,0 14.938503,6.531656 15.198222,14.736851 0.0053,-0.164516 0.02498,-0.3254 0.02498,-0.49123 0,-8.436355 -6.789533,-15.228081 -15.223164,-15.228081 z"
       id="path7" />
  </g>
</svg>
