<?xml version="1.0" encoding="UTF-8" standalone="no"?>
<svg
   width="62"
   height="62"
   version="1"
   id="svg4"
   sodipodi:docname="mozc.svg"
   inkscape:version="1.4 (unknown)"
   xmlns:inkscape="http://www.inkscape.org/namespaces/inkscape"
   xmlns:sodipodi="http://sodipodi.sourceforge.net/DTD/sodipodi-0.dtd"
   xmlns:xlink="http://www.w3.org/1999/xlink"
   xmlns="http://www.w3.org/2000/svg"
   xmlns:svg="http://www.w3.org/2000/svg">
  <defs
     id="defs4">
    <linearGradient
       id="linearGradient4"
       inkscape:collect="always">
      <stop
         style="stop-color:#4d5865;stop-opacity:1;"
         offset="0"
         id="stop4" />
      <stop
         style="stop-color:#ffb380;stop-opacity:1"
         offset="1"
         id="stop5" />
    </linearGradient>
    <linearGradient
       inkscape:collect="always"
       xlink:href="#linearGradient4"
       id="linearGradient5"
       x1="30.5"
       y1="58.050846"
       x2="30.5"
       y2="3.9491525"
       gradientUnits="userSpaceOnUse"
       gradientTransform="translate(0.5)" />
    <linearGradient
       xlink:href="#a"
       id="d"
       x1="55.867001"
       x2="68.871002"
       y1="20.605"
       y2="45.125"
       gradientTransform="matrix(0.56571,0,0,0.56571,-87.766479,-17.158)"
       gradientUnits="userSpaceOnUse" />
    <linearGradient
       id="a"
       x1="55.867001"
       x2="68.871002"
       y1="20.605"
       y2="45.125"
       gradientUnits="userSpaceOnUse">
      <stop
         offset="0"
         stop-color="#67554b"
         id="stop1" />
      <stop
         offset=".179"
         stop-color="#77767b"
         id="stop2" />
      <stop
         offset=".801"
         stop-color="#241f31"
         id="stop3" />
      <stop
         offset="1"
         stop-color="#5e5c64"
         id="stop4-7" />
    </linearGradient>
    <clipPath
       id="e">
      <rect
         width="56.001999"
         height="56.001999"
         x="4"
         y="3.9690001"
         fill="url(#b)"
         stroke-width="3.78"
         opacity="0.412"
         rx="13.002"
         ry="13.002"
         id="rect9" />
    </clipPath>
    <linearGradient
       id="b"
       x1="7.9369998"
       x2="7.9369998"
       y1="15.081"
       y2="1.852"
       gradientTransform="scale(3.7796)"
       gradientUnits="userSpaceOnUse">
      <stop
         offset="0"
         stop-color="#363636"
         id="stop5-5" />
      <stop
         offset="1"
         stop-color="#6c6c6c"
         id="stop6-3" />
    </linearGradient>
  </defs>
  <sodipodi:namedview
     id="namedview4"
     pagecolor="#ffffff"
     bordercolor="#000000"
     borderopacity="0.25"
     inkscape:showpageshadow="2"
     inkscape:pageopacity="0.0"
     inkscape:pagecheckerboard="0"
     inkscape:deskcolor="#d1d1d1"
     inkscape:zoom="8.2643105"
     inkscape:cx="20.146871"
     inkscape:cy="24.744956"
     inkscape:window-width="1920"
     inkscape:window-height="998"
     inkscape:window-x="0"
     inkscape:window-y="0"
     inkscape:window-maximized="1"
     inkscape:current-layer="svg4" />
  <rect
     style="opacity:0.2;stroke-width:0.948712"
     width="55"
     height="55.050846"
     x="3.5"
     y="3.9491525"
     rx="16.500004"
     ry="16.515257"
     id="rect1" />
  <rect
     style="fill:url(#linearGradient5);stroke-width:0.948712"
     width="55"
     height="55.050846"
     x="3.5"
     y="3"
     rx="16.500004"
     ry="16.515257"
     id="rect2" />
  <path
     style="opacity:0.1;fill:#ffffff;stroke-width:0.948712"
     d="M 19.998518,3 C 10.857511,3 3.5,10.364313 3.5,19.51377 v 0.949151 C 3.5,11.313473 10.857511,3.9491529 19.998518,3.9491529 h 22.002961 c 9.140995,0 16.498516,7.3643211 16.498516,16.5137681 V 19.51377 C 58.499995,10.364313 51.142474,3 42.001479,3 Z"
     id="path4" />
  <g
     id="g1"
     transform="matrix(0.9999776,0,0,0.99937954,13,-35.970218)">
    <path
       style="opacity:0.2"
       d="m 10.405192,49.000175 c -0.08725,1.369707 -0.186291,3.344383 -0.267578,5.550781 -2.603985,0.0054 -5.196089,-0.06987 -7.75586,-0.248047 l -0.380859,5.460938 c 2.655133,0.184809 5.33102,0.264084 8.011719,0.261719 -0.01093,1.475966 0.0026,2.995071 0.03711,4.541015 -3.078543,1.430237 -5.968584,3.633591 -7.945312,6.248047 -1.198428,1.585062 -2.137534,3.386288 -2.103516,5.521485 0.03402,2.135196 1.436646,4.304607 3.513672,5.476562 2.893648,1.63273 6.134458,1.34676 8.96875,0.183594 0.184192,0.457205 0.377946,0.903194 0.591797,1.326172 l 4.884765,-2.470704 c -0.238059,-0.470858 -0.456231,-1.094509 -0.664062,-1.779296 1.824957,-1.44597 3.515004,-3.143883 5.070312,-4.886719 1.798931,-2.015833 3.118647,-3.915257 4.445313,-5.763672 0.76147,0.316665 1.427574,0.702686 1.935547,1.189453 0.933255,0.894297 1.584961,2.087661 1.701172,4.298828 0.05388,1.025109 -0.347722,1.86749 -1.402344,2.904297 -1.054622,1.036807 -2.728793,2.052935 -4.488281,2.851563 -3.518976,1.597254 -7.203125,2.349609 -7.203125,2.349609 l 1.072264,5.367187 c 0,0 4.165794,-0.813008 8.394531,-2.732421 2.114369,-0.959707 4.28857,-2.189629 6.0625,-3.933594 1.773933,-1.743966 3.180324,-4.220134 3.029297,-7.09375 -0.174698,-3.324022 -1.427123,-6.092585 -3.378906,-7.962891 -0.773386,-0.741101 -1.674384,-1.239472 -2.580078,-1.716797 0.230503,-0.377879 0.886719,-1.390625 0.886719,-1.390625 l -4.726563,-2.759765 c 0,0 -0.849534,1.332629 -1.613281,2.513672 -3.133489,-0.37407 -6.282037,-0.07565 -8.998047,0.5 -0.01,-0.987584 -0.02198,-1.956582 -0.01367,-2.91211 5.6812,-0.24871 11.335466,-0.846719 16.808594,-1.716797 l -0.859377,-5.404296 c -5.168267,0.821613 -10.49276,1.388597 -15.818359,1.636718 0.07699,-1.999034 0.167953,-3.805165 0.248047,-5.0625 z m 9.273437,18.773438 c 0.238904,0.0129 0.479229,0.02871 0.728516,0.01172 -0.75341,0.959737 -1.278367,1.807146 -2.125,2.75586 -0.708602,0.79404 -1.447201,1.543854 -2.193359,2.263672 -0.172306,-1.407449 -0.308026,-2.892942 -0.40625,-4.414063 1.005574,-0.247483 2.11454,-0.464872 3.273437,-0.609375 0.246272,-0.03071 0.483753,-0.02071 0.722656,-0.0078 z m -9.363281,2.949218 c 0.148217,2.058433 0.375172,4.051842 0.712891,5.933594 C 9.006214,77.694889 7.589198,77.826678 6.20402,77.045097 5.338453,76.556704 5.480065,76.53643 5.475504,76.250175 5.470904,75.96392 5.71782,75.112369 6.471598,74.115409 7.333455,72.975503 8.76555,71.743234 10.315348,70.722831 Z"
       id="path3" />
    <path
       style="fill:none;stroke:#e4e4e4;stroke-width:5.47368"
       d="m 28.477747,60.173017 c 0,0 -13.87257,23.75464 -23.617732,18.25597 -5.885185,-3.320696 1.672149,-10.886868 8.060312,-13.09 6.197526,-2.137388 19.67875,-3.642178 20.260568,7.4282 0.409806,7.79745 -15.290524,10.932062 -15.290524,10.932062"
       id="path4-3" />
    <path
       style="fill:none;stroke:#e4e4e4;stroke-width:5.47368"
       d="m 13.136665,48.173987 c -0.421832,6.622064 -1.27976,25.67119 2.381454,32.912728"
       id="path5" />
    <path
       style="fill:none;stroke:#e4e4e4;stroke-width:5.47368"
       d="m 2.190931,56.032246 c 9.830691,0.684259 20.030567,-0.02365 29.676601,-1.557107"
       id="path6" />
    <circle
       style="opacity:0.2"
       cx="33.000896"
       cy="91.030991"
       r="7"
       id="circle6" />
    <circle
       style="fill:#e4e4e4"
       cx="33.000896"
       cy="90.030991"
       r="7"
       id="circle7" />
  </g>
</svg>
