<?xml version="1.0" encoding="UTF-8" standalone="no"?>
<svg
   width="62"
   height="62"
   version="1.1"
   id="svg29"
   sodipodi:docname="mpc-qt.svg"
   inkscape:version="1.4 (unknown)"
   xmlns:inkscape="http://www.inkscape.org/namespaces/inkscape"
   xmlns:sodipodi="http://sodipodi.sourceforge.net/DTD/sodipodi-0.dtd"
   xmlns:xlink="http://www.w3.org/1999/xlink"
   xmlns="http://www.w3.org/2000/svg"
   xmlns:svg="http://www.w3.org/2000/svg">
  <defs
     id="defs29">
    <linearGradient
       id="linearGradient29"
       inkscape:collect="always">
      <stop
         style="stop-color:#2d3c52;stop-opacity:1;"
         offset="0"
         id="stop29" />
      <stop
         style="stop-color:#3f5174;stop-opacity:1;"
         offset="1"
         id="stop30" />
    </linearGradient>
    <linearGradient
       inkscape:collect="always"
       xlink:href="#linearGradient29"
       id="linearGradient30"
       x1="30.782633"
       y1="60"
       x2="30.193521"
       y2="5"
       gradientUnits="userSpaceOnUse"
       gradientTransform="matrix(0.98214286,0,0,0.98245614,-0.42857152,-0.92982455)" />
    <linearGradient
       id="paint1_linear_11_148"
       x1="12.6932"
       y1="20.5312"
       x2="12.6932"
       y2="5.6079102"
       gradientUnits="userSpaceOnUse"
       gradientTransform="matrix(2.6803705,0,0,2.6803705,-3.022395,-3.5399929)">
      <stop
         stop-color="#FD5900"
         id="stop4" />
      <stop
         offset="1"
         stop-color="#FFDE00"
         id="stop5" />
    </linearGradient>
  </defs>
  <sodipodi:namedview
     id="namedview29"
     pagecolor="#ffffff"
     bordercolor="#000000"
     borderopacity="0.25"
     inkscape:showpageshadow="2"
     inkscape:pageopacity="0.0"
     inkscape:pagecheckerboard="0"
     inkscape:deskcolor="#d1d1d1"
     inkscape:zoom="7.0710678"
     inkscape:cx="20.293965"
     inkscape:cy="48.719657"
     inkscape:window-width="1920"
     inkscape:window-height="998"
     inkscape:window-x="0"
     inkscape:window-y="0"
     inkscape:window-maximized="1"
     inkscape:current-layer="svg29" />
  <rect
     style="opacity:0.2;stroke-width:0.9823"
     width="55"
     height="55.017544"
     x="3.5"
     y="3.9824562"
     ry="13.754386"
     id="rect1" />
  <rect
     style="fill:url(#linearGradient30);stroke-width:0.9823"
     width="55"
     height="55.017544"
     x="3.5"
     y="3"
     ry="13.754386"
     id="rect2" />
  <path
     style="opacity:0.1;fill:#ffffff;stroke-width:0.9823"
     d="M 17.25,3 C 9.6324999,3 3.4999999,9.1344561 3.4999999,16.754386 v 0.982456 c 0,-7.61993 6.1325,-13.7543858 13.7500001,-13.7543858 h 27.5 c 7.6175,0 13.75,6.1344558 13.75,13.7543858 V 16.754386 C 58.5,9.1344561 52.3675,3 44.75,3 Z"
     id="path28" />
  <g
     id="g1"
     transform="translate(11,-40.991228)">
    <path
       style="opacity:0.2;fill-rule:evenodd"
       d="M 20,52 C 8.969111,52 0,60.969111 0,72 0,83.030889 8.969111,92 20,92 31.030889,92 40,83.030889 40,72 40,60.969111 31.030889,52 20,52 Z m 0,3 c 9.403224,0 17,7.596776 17,17 0,9.403224 -7.596776,17 -17,17 C 10.596776,89 3,81.403224 3,72 3,62.596776 10.596776,55 20,55 Z m -9,9 v 7 h 3 v -7 z m 15,0 v 7 h 3 V 64 Z M 13.371094,75.632812 11.25,77.753906 12.310547,78.814453 C 14.349597,80.853504 17.116347,82 20,82 c 2.883653,0 5.650402,-1.146496 7.689453,-3.185547 L 28.75,77.753906 26.628906,75.632812 25.568359,76.693359 C 24.091103,78.170616 22.089156,79 20,79 17.910844,79 15.908897,78.170616 14.431641,76.693359 Z"
       id="path2" />
    <path
       style="fill:#f2f2f2;fill-rule:evenodd;fill-opacity:1"
       d="M 20,51 C 8.969111,51 0,59.969111 0,71 0,82.030889 8.969111,91 20,91 31.030889,91 40,82.030889 40,71 40,59.969111 31.030889,51 20,51 Z m 0,3 c 9.403224,0 17,7.596776 17,17 0,9.403224 -7.596776,17 -17,17 C 10.596776,88 3,80.403224 3,71 3,61.596776 10.596776,54 20,54 Z"
       id="path3-6" />
    <path
       style="fill:none;stroke:#f2f2f2;stroke-width:3;stroke-linecap:square;stroke-opacity:1"
       d="M 26.629126,76.754126 A 9.375,9.375 0 0 1 20,79.5 9.375,9.375 0 0 1 13.370874,76.754126"
       id="path4-7" />
    <rect
       style="fill:#f2f2f2;fill-opacity:1"
       width="3"
       height="7"
       x="11"
       y="63"
       id="rect4" />
    <rect
       style="fill:#f2f2f2;fill-opacity:1"
       width="3"
       height="7"
       x="26"
       y="63"
       id="rect5-5" />
    <path
       style="opacity:0.2;fill:#ffffff;fill-rule:evenodd"
       d="M 20,51 C 8.969111,51 0,59.969111 0,71 0,71.167765 0.0076,71.333213 0.01172,71.5 0.278812,60.700209 9.136876,52 20,52 30.863124,52 39.721188,60.700209 39.988281,71.5 39.992406,71.333213 40,71.167765 40,71 40,59.969111 31.030889,51 20,51 Z m -9,12 v 1 h 3 v -1 z m 15,0 v 1 h 3 V 63 Z M 3.025391,71.5 C 3.020525,71.667661 3,71.831141 3,72 3,81.403224 10.596776,89 20,89 29.403224,89 37,81.403224 37,72 37,71.831141 36.97948,71.667661 36.97461,71.5 36.708503,80.668817 29.234365,88 20,88 10.765635,88 3.291497,80.668817 3.025391,71.5 Z m 10.345703,3.132812 -2.121094,2.121094 0.5,0.5 1.621094,-1.621094 1.060547,1.060547 C 15.908897,78.170616 17.910844,79 20,79 c 2.089156,0 4.091103,-0.829384 5.568359,-2.306641 l 1.060547,-1.060547 1.621094,1.621094 0.5,-0.5 -2.121094,-2.121094 -1.060547,1.060547 C 24.091103,77.170616 22.089156,78 20,78 17.910844,78 15.908897,77.170616 14.431641,75.693359 Z"
       id="path5-3" />
  </g>
</svg>
