<?xml version="1.0" encoding="UTF-8" standalone="no"?>
<svg
   width="62"
   height="62"
   version="1.1"
   id="svg29"
   sodipodi:docname="mullvad-vpn.svg"
   inkscape:version="1.4 (unknown)"
   xmlns:inkscape="http://www.inkscape.org/namespaces/inkscape"
   xmlns:sodipodi="http://sodipodi.sourceforge.net/DTD/sodipodi-0.dtd"
   xmlns:xlink="http://www.w3.org/1999/xlink"
   xmlns="http://www.w3.org/2000/svg"
   xmlns:svg="http://www.w3.org/2000/svg">
  <defs
     id="defs29">
    <linearGradient
       id="linearGradient3"
       inkscape:collect="always">
      <stop
         style="stop-color:#d4aa00;stop-opacity:1"
         offset="0"
         id="stop3" />
      <stop
         style="stop-color:#cc7533;stop-opacity:1;"
         offset="1"
         id="stop6" />
    </linearGradient>
    <linearGradient
       id="linearGradient1"
       inkscape:collect="always">
      <stop
         style="stop-color:#ffdd55;stop-opacity:1"
         offset="0"
         id="stop1" />
      <stop
         style="stop-color:#deaa87;stop-opacity:1"
         offset="1"
         id="stop2" />
    </linearGradient>
    <linearGradient
       id="linearGradient29"
       inkscape:collect="always">
      <stop
         style="stop-color:#2d3c52;stop-opacity:1;"
         offset="0"
         id="stop29" />
      <stop
         style="stop-color:#3f5174;stop-opacity:1;"
         offset="1"
         id="stop30" />
    </linearGradient>
    <linearGradient
       inkscape:collect="always"
       xlink:href="#linearGradient29"
       id="linearGradient30"
       x1="30.782633"
       y1="60"
       x2="30.193521"
       y2="5"
       gradientUnits="userSpaceOnUse"
       gradientTransform="matrix(0.98214286,0,0,0.98245614,-0.42857152,-0.92982455)" />
    <linearGradient
       id="paint1_linear_11_148"
       x1="12.6932"
       y1="20.5312"
       x2="12.6932"
       y2="5.6079102"
       gradientUnits="userSpaceOnUse"
       gradientTransform="matrix(2.6803705,0,0,2.6803705,-3.022395,-3.5399929)">
      <stop
         stop-color="#FD5900"
         id="stop4" />
      <stop
         offset="1"
         stop-color="#FFDE00"
         id="stop5" />
    </linearGradient>
    <filter
       id="b"
       width="1.299904"
       height="1.2883692"
       x="-0.149952"
       y="-0.14418462"
       color-interpolation-filters="sRGB">
      <feGaussianBlur
         stdDeviation="1.562"
         id="feGaussianBlur22" />
    </filter>
    <linearGradient
       id="c-3"
       x1="19.570999"
       x2="43.064999"
       y1="34.216999"
       y2="34.216999"
       gradientUnits="userSpaceOnUse">
      <stop
         offset="0"
         stop-color="#e9be35"
         id="stop7-6" />
      <stop
         offset="1"
         stop-color="#cc7533"
         id="stop9" />
    </linearGradient>
    <filter
       id="d-7"
       width="1.2307799"
       height="1.6013072"
       x="-0.11538997"
       y="-0.30065359"
       color-interpolation-filters="sRGB">
      <feGaussianBlur
         stdDeviation="1.035"
         id="feGaussianBlur25" />
    </filter>
    <linearGradient
       id="e-5"
       x1="18.070999"
       x2="21.070999"
       y1="24.716999"
       y2="24.716999"
       gradientUnits="userSpaceOnUse">
      <stop
         offset="0"
         stop-color="#ffc086"
         id="stop17" />
      <stop
         offset="1"
         stop-color="#ffd59c"
         id="stop19" />
    </linearGradient>
    <linearGradient
       id="f-3"
       x1="25.070999"
       x2="43.070999"
       y1="25.216999"
       y2="25.216999"
       gradientUnits="userSpaceOnUse">
      <stop
         offset="0"
         stop-color="#fdfa21"
         id="stop12" />
      <stop
         offset="1"
         stop-color="#fdbe21"
         id="stop14" />
    </linearGradient>
    <filter
       id="g-5"
       width="2.6559999"
       height="2.242"
       x="-0.82799997"
       y="-0.62099998"
       color-interpolation-filters="sRGB">
      <feGaussianBlur
         stdDeviation="1.035"
         id="feGaussianBlur28" />
    </filter>
    <linearGradient
       inkscape:collect="always"
       xlink:href="#linearGradient1"
       id="linearGradient2"
       x1="25.071"
       y1="25.217"
       x2="43.071"
       y2="25.217"
       gradientUnits="userSpaceOnUse" />
    <linearGradient
       inkscape:collect="always"
       xlink:href="#linearGradient3"
       id="linearGradient6"
       x1="19.571"
       y1="34.217"
       x2="43.065"
       y2="34.217"
       gradientUnits="userSpaceOnUse" />
  </defs>
  <sodipodi:namedview
     id="namedview29"
     pagecolor="#ffffff"
     bordercolor="#000000"
     borderopacity="0.25"
     inkscape:showpageshadow="2"
     inkscape:pageopacity="0.0"
     inkscape:pagecheckerboard="0"
     inkscape:deskcolor="#d1d1d1"
     inkscape:zoom="7.0710678"
     inkscape:cx="20.293965"
     inkscape:cy="26.09224"
     inkscape:window-width="1920"
     inkscape:window-height="998"
     inkscape:window-x="0"
     inkscape:window-y="0"
     inkscape:window-maximized="1"
     inkscape:current-layer="svg29" />
  <rect
     style="opacity:0.2;stroke-width:0.9823"
     width="55"
     height="55.017544"
     x="3.5"
     y="3.9824562"
     ry="13.754386"
     id="rect1" />
  <rect
     style="fill:url(#linearGradient30);stroke-width:0.9823"
     width="55"
     height="55.017544"
     x="3.5"
     y="3"
     ry="13.754386"
     id="rect2" />
  <path
     style="opacity:0.1;fill:#ffffff;stroke-width:0.9823"
     d="M 17.25,3 C 9.6324999,3 3.4999999,9.1344561 3.4999999,16.754386 v 0.982456 c 0,-7.61993 6.1325,-13.7543858 13.7500001,-13.7543858 h 27.5 c 7.6175,0 13.75,6.1344558 13.75,13.7543858 V 16.754386 C 58.5,9.1344561 52.3675,3 44.75,3 Z"
     id="path28" />
  <g
     transform="matrix(1.4460609,0,0,1.4318136,-14.653589,-15.128738)"
     id="g55">
    <path
       d="m 37.071,19.217 c -1.48,0 -2.7,0.4 -3.648,1.072 a 0.9,0.9 0 0 0 -0.352,-0.072 c -0.828,0 -2,1 -2,2.5 0,0.186 0.03,0.345 0.064,0.5 h -5.064 l 5,2 h -9.088 a 1.5,1.5 0 0 0 -1.412,-1 1.5,1.5 0 0 0 -1.5,1.5 1.5,1.5 0 0 0 1.5,1.5 c 3.933,4.684 4.5,8 10.5,8 2,0 3.373,-0.834 5,-2 l 1,1 -1,-0.5 c -0.575,1 -1.877,2.5 -5,2.5 -2,0 -3.206,-0.501 -4,-1 0,2 1,1 1,2.5 0,1.413 -1.488,2.75 -2.836,3.813 a 15,15 0 0 0 9.836,3.687 15,15 0 0 0 8.994,-3.014 c -0.957,-2.866 -1.904,-3.959 -1.98,-9.328 0.536,0.196 0.986,0.342 0.986,0.342 0,-5 1,-4 1,-8 0,-3.314 -3.134,-6 -7,-6 z"
       filter="url(#b)"
       opacity="0.15"
       id="path41" />
    <path
       d="m 20.071,24.217 -0.5,2 c 3.933,4.684 4.5,8 10.5,8 2,0 3.373,-0.834 5,-2 l 1,1 -1,-0.5 c -0.575,1 -1.877,2.5 -5,2.5 -2,0 -3.206,-0.501 -4,-1 0,2 1,1 1,2.5 0,1.413 -1.488,2.75 -2.836,3.813 a 15,15 0 0 0 9.836,3.687 15,15 0 0 0 8.994,-3.014 c -0.998,-2.988 -1.994,-3.997 -1.994,-9.986 l -7,-7 z"
       id="path43"
       style="fill:url(#linearGradient6)" />
    <path
       d="m 20.571,24.217 a 1.5,1.5 0 0 0 -0.523,0.098 l -0.477,1.902 c 0.286,0.34 0.522,0.657 0.775,0.982 a 1.5,1.5 0 0 0 0.225,0.018 1.5,1.5 0 0 0 1.5,-1.5 1.5,1.5 0 0 0 -1.5,-1.5 z m 8,0 2.5,1 c 3.367,4.04 7.595,6.238 10.027,7.262 -0.012,-0.41 -0.027,-0.796 -0.027,-1.262 l -7,-7 z"
       filter="url(#d)"
       opacity="0.1"
       id="path45"
       style="filter:url(#d-7)" />
    <circle
       cx="19.570999"
       cy="24.716999"
       r="1.5"
       id="circle47"
       style="fill:#ffccaa" />
    <path
       d="m 36.071,18.217 c -3.047,0 -5.013,1.67 -5.71,4 h -5.29 l 5,2 c 5,6 12,8 12,8 0,-5 1,-4 1,-8 0,-3.314 -3.134,-6 -7,-6 z"
       id="path49"
       style="fill:url(#linearGradient2)" />
    <path
       d="m 34.071,21.717 c 0,1.5 -1,2.5 -2,2.5 -0.529,0 -1,-0.563 -1,-1.5 0,-1.5 1.172,-2.5 2,-2.5 0.673,0 1,0.6 1,1.5 z"
       filter="url(#g)"
       opacity="0.1"
       id="path51"
       style="filter:url(#g-5)" />
    <path
       d="m 33.071,20.717 c 0,1.5 -1,2.5 -2,2.5 -0.529,0 -1,-0.563 -1,-1.5 0,-1.5 1.172,-2.5 2,-2.5 0.673,0 1,0.6 1,1.5 z"
       id="path53"
       style="fill:#f2f2f2;fill-opacity:1" />
  </g>
</svg>
