<?xml version="1.0" encoding="UTF-8" standalone="no"?>
<svg
   width="62"
   height="62"
   version="1.1"
   id="svg29"
   sodipodi:docname="mx-welcome.svg"
   inkscape:version="1.4 (unknown)"
   xmlns:inkscape="http://www.inkscape.org/namespaces/inkscape"
   xmlns:sodipodi="http://sodipodi.sourceforge.net/DTD/sodipodi-0.dtd"
   xmlns:xlink="http://www.w3.org/1999/xlink"
   xmlns="http://www.w3.org/2000/svg"
   xmlns:svg="http://www.w3.org/2000/svg">
  <defs
     id="defs29">
    <linearGradient
       id="linearGradient29"
       inkscape:collect="always">
      <stop
         style="stop-color:#2d3c52;stop-opacity:1;"
         offset="0"
         id="stop29" />
      <stop
         style="stop-color:#3f5174;stop-opacity:1;"
         offset="1"
         id="stop30" />
    </linearGradient>
    <linearGradient
       inkscape:collect="always"
       xlink:href="#linearGradient29"
       id="linearGradient30"
       x1="30.782633"
       y1="60"
       x2="30.193521"
       y2="5"
       gradientUnits="userSpaceOnUse"
       gradientTransform="matrix(0.98214286,0,0,0.98245614,-0.42857152,-0.92982455)" />
    <linearGradient
       id="paint1_linear_11_148"
       x1="12.6932"
       y1="20.5312"
       x2="12.6932"
       y2="5.6079102"
       gradientUnits="userSpaceOnUse"
       gradientTransform="matrix(2.6803705,0,0,2.6803705,-3.022395,-3.5399929)">
      <stop
         stop-color="#FD5900"
         id="stop4" />
      <stop
         offset="1"
         stop-color="#FFDE00"
         id="stop5" />
    </linearGradient>
    <filter
       id="b"
       width="1.299904"
       height="1.2883692"
       x="-0.149952"
       y="-0.14418462"
       color-interpolation-filters="sRGB">
      <feGaussianBlur
         stdDeviation="1.562"
         id="feGaussianBlur22" />
    </filter>
    <linearGradient
       id="c-3"
       x1="19.570999"
       x2="43.064999"
       y1="34.216999"
       y2="34.216999"
       gradientUnits="userSpaceOnUse">
      <stop
         offset="0"
         stop-color="#e9be35"
         id="stop7-6" />
      <stop
         offset="1"
         stop-color="#cc7533"
         id="stop9" />
    </linearGradient>
    <filter
       id="d-7"
       width="1.2307799"
       height="1.6013072"
       x="-0.11538997"
       y="-0.30065359"
       color-interpolation-filters="sRGB">
      <feGaussianBlur
         stdDeviation="1.035"
         id="feGaussianBlur25" />
    </filter>
    <linearGradient
       id="e-5"
       x1="18.070999"
       x2="21.070999"
       y1="24.716999"
       y2="24.716999"
       gradientUnits="userSpaceOnUse">
      <stop
         offset="0"
         stop-color="#ffc086"
         id="stop17" />
      <stop
         offset="1"
         stop-color="#ffd59c"
         id="stop19" />
    </linearGradient>
    <linearGradient
       id="f-3"
       x1="25.070999"
       x2="43.070999"
       y1="25.216999"
       y2="25.216999"
       gradientUnits="userSpaceOnUse">
      <stop
         offset="0"
         stop-color="#fdfa21"
         id="stop12" />
      <stop
         offset="1"
         stop-color="#fdbe21"
         id="stop14" />
    </linearGradient>
    <filter
       id="g-5"
       width="2.6559999"
       height="2.242"
       x="-0.82799997"
       y="-0.62099998"
       color-interpolation-filters="sRGB">
      <feGaussianBlur
         stdDeviation="1.035"
         id="feGaussianBlur28" />
    </filter>
  </defs>
  <sodipodi:namedview
     id="namedview29"
     pagecolor="#ffffff"
     bordercolor="#000000"
     borderopacity="0.25"
     inkscape:showpageshadow="2"
     inkscape:pageopacity="0.0"
     inkscape:pagecheckerboard="0"
     inkscape:deskcolor="#d1d1d1"
     inkscape:zoom="7.0710678"
     inkscape:cx="20.364675"
     inkscape:cy="48.719657"
     inkscape:window-width="1920"
     inkscape:window-height="998"
     inkscape:window-x="0"
     inkscape:window-y="0"
     inkscape:window-maximized="1"
     inkscape:current-layer="svg29" />
  <rect
     style="opacity:0.2;stroke-width:0.9823"
     width="55"
     height="55.017544"
     x="3.5"
     y="3.9824562"
     ry="13.754386"
     id="rect1" />
  <rect
     style="fill:url(#linearGradient30);stroke-width:0.9823"
     width="55"
     height="55.017544"
     x="3.5"
     y="3"
     ry="13.754386"
     id="rect2" />
  <path
     style="opacity:0.1;fill:#ffffff;stroke-width:0.9823"
     d="M 17.25,3 C 9.6324999,3 3.4999999,9.1344561 3.4999999,16.754386 v 0.982456 c 0,-7.61993 6.1325,-13.7543858 13.7500001,-13.7543858 h 27.5 c 7.6175,0 13.75,6.1344558 13.75,13.7543858 V 16.754386 C 58.5,9.1344561 52.3675,3 44.75,3 Z"
     id="path28" />
  <g
     fill="#dfdfdf"
     fill-rule="nonzero"
     id="g4"
     transform="matrix(1.3138418,0,0,1.3103448,-0.18135509,-1.4636412)">
    <path
       d="m 29.613,27.051 -1.077,1.077 4.488,5.051 -1.125,1.2 -1.747,-1.942 -5.386,6.463 H 42 l -3.77,-4.308 -1.014,1.014 -2.639,-2.97 4.73,-5.046 -0.538,-0.539 -4.7,5.014 z m 3.919,6.698 2.607,2.934 -1.14,1.14 -2.589,-2.876 z"
       id="path3"
       style="fill:#f2f2f2;fill-opacity:1" />
    <path
       d="m 17.652,9.9 c -1.646,0 -3,1.354 -3,3 0,1.646 1.354,3 3,3 1.645,0 3,-1.354 3,-3 0,-1.646 -1.355,-3 -3,-3 z M 7.575,12.516 c -0.537,-0.358 -1.252,-0.287 -1.708,0.169 -0.296,0.296 -0.44,0.71 -0.392,1.125 0.047,0.414 0.281,0.785 0.636,1.006 3.207,2.109 7.541,5.455 7.541,5.455 v 17.147 c 0,0.819 0.663,1.482 1.481,1.482 h 0.037 c 0.818,0 1.482,-0.663 1.482,-1.482 0,-3.409 0.058,-9.135 0.058,-9.135 h 2 c 0,0 -0.058,5.726 -0.058,9.135 0,0.819 0.663,1.482 1.481,1.482 h 0.037 c 0.818,0 1.482,-0.663 1.482,-1.482 V 25.9 20.271 c 0,0 4.628,-3.177 7.693,-5.405 0.328,-0.243 0.533,-0.616 0.563,-1.022 0.03,-0.407 -0.118,-0.806 -0.406,-1.094 -0.013,-0.013 -0.026,-0.025 -0.038,-0.038 -0.472,-0.472 -1.212,-0.545 -1.768,-0.175 -2.021,1.347 -6.544,4.363 -6.544,4.363 h -7 c 0,0 -4.572,-3.048 -6.577,-4.384 z"
       id="path4"
       style="fill:#f2f2f2;fill-opacity:1" />
  </g>
</svg>
