<?xml version="1.0" encoding="UTF-8" standalone="no"?>
<svg
   width="62"
   height="62"
   version="1.1"
   id="svg11"
   sodipodi:docname="naver-whale.svg"
   inkscape:version="1.4 (unknown)"
   xmlns:inkscape="http://www.inkscape.org/namespaces/inkscape"
   xmlns:sodipodi="http://sodipodi.sourceforge.net/DTD/sodipodi-0.dtd"
   xmlns="http://www.w3.org/2000/svg"
   xmlns:svg="http://www.w3.org/2000/svg">
  <defs
     id="defs11" />
  <sodipodi:namedview
     id="namedview11"
     pagecolor="#ffffff"
     bordercolor="#000000"
     borderopacity="0.25"
     inkscape:showpageshadow="2"
     inkscape:pageopacity="0.0"
     inkscape:pagecheckerboard="0"
     inkscape:deskcolor="#d1d1d1"
     inkscape:zoom="7.0710678"
     inkscape:cx="4.4547727"
     inkscape:cy="40.234376"
     inkscape:window-width="1920"
     inkscape:window-height="998"
     inkscape:window-x="0"
     inkscape:window-y="0"
     inkscape:window-maximized="1"
     inkscape:current-layer="svg11" />
  <g
     id="g11"
     transform="matrix(0.98214879,0,0,0.98245614,-0.42892748,-0.92982456)">
    <path
       style="opacity:0.2"
       d="M 60,33.000026 C 60,48.463985 47.463985,61 32.000026,61 c -4.5149,0 -8.780216,-1.068598 -12.556825,-2.966673 1.17779,-6.040003 2.715466,-11.197184 4.489756,-15.600304 2.051895,-5.092034 6.998048,-4.415409 9.492191,-7.689632 3.994983,-5.244473 5.734901,-13.172718 9.591898,-15.082779 4.767256,-2.360841 11.522321,-3.304024 11.522321,-3.304024 l 0.304924,0.448869 c 0.296226,0.417104 0.581314,0.842672 0.854832,1.276268 C 58.423553,22.400648 60,27.516238 60,33.000026 Z"
       id="path1" />
    <path
       style="fill:#003598;fill-opacity:1"
       d="m 57.961258,32.081908 c 0,15.463959 -13.217856,21.733701 -28.681814,21.733701 -15.463959,0 -21.7122545,-6.45542 -21.7122545,-21.919378 0,-5.708671 -1.8587426,-10.914557 1.0746771,-15.341824 C 13.654653,8.9888515 22.244739,4.000026 32.000026,4.000026 c 9.236485,0 17.428405,4.4723065 22.528404,11.369559 0.10871,0.147018 0.216013,0.295139 0.321893,0.444341 3.243172,4.570174 3.110935,10.23739 3.110935,16.267982 z"
       id="path2" />
    <path
       style="opacity:0.05;fill:#ffffff"
       d="M 32,4 C 22.244713,4 13.655365,8.989132 8.6425781,16.554688 7.2414788,18.669298 6.9373498,20.962531 6.9980469,23.402344 7.0452225,21.334541 7.4346796,19.37771 8.6425781,17.554688 13.655365,9.989132 22.244713,5 32,5 c 9.236485,0 17.429298,4.4718881 22.529297,11.369141 0.10871,0.147018 0.214432,0.29611 0.320312,0.445312 2.837776,3.998902 3.092299,8.838142 3.111329,14.025391 0.0014,-5.562851 -0.09275,-10.771705 -3.111329,-15.025391 -0.10588,-0.149202 -0.211602,-0.298294 -0.320312,-0.445312 C 49.429298,8.4718881 41.236485,4 32,4 Z"
       id="path3" />
    <circle
       style="fill:#ffffff"
       cx="24.209999"
       cy="16.790001"
       r="0.20999999"
       id="circle3" />
    <path
       style="fill:#a2f6e3;fill-opacity:1"
       d="m 60,32 c 0,15.463959 -12.536015,27.999974 -27.999974,27.999974 -4.5149,0 -8.780216,-1.068598 -12.556825,-2.966673 1.17779,-6.040003 2.715466,-11.197184 4.489756,-15.600304 2.051895,-5.092034 6.998048,-4.415409 9.492191,-7.689632 3.994983,-5.244473 5.734901,-13.172718 9.591898,-15.082779 4.767256,-2.360841 11.522321,-3.304024 11.522321,-3.304024 l 0.304924,0.448869 c 0.296226,0.417104 0.581314,0.842672 0.854832,1.276268 C 58.423553,21.400622 60,26.516212 60,32 Z"
       id="path4" />
    <path
       style="opacity:0.2"
       d="m 51.701172,15.992214 c -3.631843,4.77e-4 -7.543734,1.058467 -10.785156,2.591796 -2.776701,1.313497 -5.484984,3.585609 -10.736328,7.75586 -3.885067,3.08525 -6.495522,4.146759 -8.996094,4.636718 -0.986794,0.193354 -2.974453,0.149693 -4.019532,-0.08789 -4.467114,-1.015506 -7.893169,-4.363907 -8.5292964,-8.9375 -0.1944118,-1.397768 -0.061195,-3.285849 0.3222656,-4.544922 0.080186,-0.263287 0.133062,-0.493892 0.1152344,-0.511719 -0.053042,-0.05305 -1.1620039,1.697234 -1.6894531,2.667969 -1.5858637,2.918677 -2.5727301,5.829611 -3.1171875,9.191406 -0.2861283,1.766689 -0.3549774,5.456838 -0.1367188,7.347656 0.7497675,6.495405 3.7108389,12.54752 8.3203128,17.007813 l 0.746093,0.720703 -0.617187,0.572266 c -2.424704,2.237228 -5.4979398,4.139848 -8.4433594,5.228515 -0.1653988,0.06112 -0.1374336,0.09039 0.1933594,0.208985 1.1934654,0.427854 3.6934992,0.931693 5.4609375,1.097656 1.4002175,0.131488 3.9252395,0.03856 5.2656255,-0.191406 1.661122,-0.284994 3.183408,-0.711015 4.736328,-1.326172 l 2.236328,-1.03125 c 2.787712,-1.439797 5.686237,-3.824322 7.353515,-6.050781 2.177877,-2.908307 4.940388,-8.631998 7.949219,-16.478516 1.450802,-3.783446 2.110279,-5.345065 3.097656,-7.324219 1.382128,-2.77042 2.777875,-4.867021 4.191407,-6.294922 2.238517,-2.261271 5.860297,-4.70653 9.353515,-5.646484 l 0.53711,-0.220703 -0.01563,-0.01953 -1.25586,-0.306641 c -0.504651,-0.03542 -1.018275,-0.05476 -1.537109,-0.05469 z M 32.5,31.000026 c 0.828429,0 1.5,0.671573 1.5,1.5 0,0.828428 -0.671571,1.5 -1.5,1.5 -0.828427,0 -1.5,-0.671572 -1.5,-1.5 0,-0.828427 0.671573,-1.5 1.5,-1.5 z"
       id="path5" />
    <path
       style="fill:#00e5b8;fill-opacity:1"
       d="m 51.701172,14.992188 c -3.631843,4.77e-4 -7.543734,1.058467 -10.785156,2.591796 -2.776701,1.313497 -5.484984,3.585609 -10.736328,7.75586 -3.885067,3.08525 -6.495522,4.146759 -8.996094,4.636718 -0.986794,0.193354 -2.974453,0.149693 -4.019532,-0.08789 -4.467114,-1.015506 -7.893169,-4.363907 -8.5292964,-8.9375 -0.1944118,-1.397768 -0.061195,-3.285849 0.3222656,-4.544922 0.080186,-0.263287 0.133062,-0.493892 0.1152344,-0.511719 -0.053042,-0.05305 -1.1620039,1.697234 -1.6894531,2.667969 -1.5858637,2.918677 -2.5727301,5.829611 -3.1171875,9.191406 -0.2861283,1.766689 -0.3549774,5.456838 -0.1367188,7.347656 0.7497675,6.495405 3.7108389,12.54752 8.3203128,17.007813 l 0.746093,0.720703 -0.617187,0.572266 c -2.424704,2.237228 -5.4979398,4.139848 -8.4433594,5.228515 -0.1653988,0.06112 -0.1374336,0.09039 0.1933594,0.208985 1.1934654,0.427854 3.6934992,0.931693 5.4609375,1.097656 1.4002175,0.131488 3.9252395,0.03856 5.2656255,-0.191406 1.661122,-0.284994 3.183408,-0.711015 4.736328,-1.326172 l 2.236328,-1.03125 c 2.787712,-1.439797 5.686237,-3.824322 7.353515,-6.050781 2.177877,-2.908307 4.940388,-8.631998 7.949219,-16.478516 1.450802,-3.783446 2.110279,-5.345065 3.097656,-7.324219 1.382128,-2.77042 2.777875,-4.867021 4.191407,-6.294922 2.238517,-2.261271 5.860297,-4.70653 9.353515,-5.646484 l 0.53711,-0.220703 -0.01563,-0.01953 -1.25586,-0.306641 c -0.504651,-0.03542 -1.018275,-0.05476 -1.537109,-0.05469 z M 32.5,30 C 33.328429,30 34,30.671573 34,31.5 34,32.328428 33.328429,33 32.5,33 31.671573,33 31,32.328428 31,31.5 31,30.671573 31.671573,30 32.5,30 Z"
       id="path6" />
    <circle
       style="fill:#ffffff"
       cx="35"
       cy="9"
       r="1"
       id="circle6" />
    <circle
       style="fill:#ffffff"
       cx="42.5"
       cy="11.5"
       r="0.5"
       id="circle7" />
    <circle
       style="fill:#ffffff"
       cx="23.809999"
       cy="17.790001"
       r="0.20999999"
       id="circle8" />
    <circle
       style="fill:#ffffff"
       cx="32.5"
       cy="17.5"
       r="0.5"
       id="circle9" />
    <circle
       style="fill:#ffffff"
       cx="17.5"
       cy="18.5"
       r="0.5"
       id="circle10" />
    <circle
       style="fill:#ffffff"
       cx="22"
       cy="21.9"
       r="1"
       id="circle11" />
    <path
       style="opacity:0.2;fill:#ffffff"
       d="m 51.701172,14.992188 c -3.631843,4.77e-4 -7.543734,1.058467 -10.785156,2.591796 -2.776701,1.313497 -5.484984,3.585609 -10.736328,7.75586 -3.885067,3.08525 -6.495522,4.146759 -8.996094,4.636718 -0.986794,0.193354 -2.974453,0.149693 -4.019532,-0.08789 -4.467114,-1.015506 -7.893169,-4.363907 -8.5292964,-8.9375 -0.037614,-0.270435 -0.05276,-0.570104 -0.066406,-0.869141 -0.023808,0.653721 -0.012465,1.304031 0.066406,1.871094 0.6361274,4.573593 4.0621834,7.921994 8.5292964,8.9375 1.045079,0.237583 3.032738,0.281245 4.019532,0.08789 2.500572,-0.489959 5.111027,-1.551469 8.996094,-4.636719 5.251344,-4.170251 7.959627,-6.442362 10.736328,-7.755859 3.241422,-1.533329 7.153313,-2.59132 10.785156,-2.591797 0.31249,-4.3e-5 0.617893,0.01989 0.925781,0.0332 0.448766,-0.166374 0.897978,-0.31312 1.345703,-0.433594 l 0.53711,-0.220703 -0.01563,-0.01953 -1.25586,-0.306641 c -0.504651,-0.03542 -1.018275,-0.05476 -1.537109,-0.05469 z M 9.0722656,15.894531 C 9.0192236,15.841481 7.9102617,17.591765 7.3828125,18.5625 5.7969488,21.481177 4.8100824,24.392111 4.265625,27.753906 4.0907305,28.833786 4.0083064,30.61427 4.0117188,32.28125 4.0398767,30.93761 4.1261926,29.61678 4.265625,28.755859 4.8100824,25.394064 5.7969488,22.48313 7.3828125,19.564453 7.743387,18.90084 8.35731,17.904947 8.7382812,17.337891 c 0.059921,-0.332659 0.1328352,-0.649544 0.21875,-0.931641 0.080186,-0.263287 0.133062,-0.493892 0.1152344,-0.511719 z M 31.091797,32 C 31.035582,32.157561 31,32.325083 31,32.501953 c 0,0.828428 0.671573,1.5 1.5,1.5 0.828429,0 1.5,-0.671572 1.5,-1.5 C 34,32.325083 33.964418,32.157561 33.908203,32 33.701611,32.581346 33.152216,33 32.5,33 31.847785,33 31.298389,32.581346 31.091797,32 Z m -18.425781,21.320312 -0.08789,0.08203 c -2.424704,2.237228 -5.4979398,4.139848 -8.4433594,5.228515 -0.1653988,0.06112 -0.1374336,0.09039 0.1933594,0.208985 0.2736234,0.09809 0.6292195,0.199687 1.015625,0.300781 2.5617942,-1.124232 5.139994,-2.803883 7.234375,-4.736328 l 0.617187,-0.572266 z"
       id="path11" />
  </g>
</svg>
