<?xml version="1.0" encoding="UTF-8" standalone="no"?>
<svg
   width="62"
   height="62"
   version="1"
   id="svg7"
   sodipodi:docname="navit.svg"
   inkscape:version="1.4 (unknown)"
   xmlns:inkscape="http://www.inkscape.org/namespaces/inkscape"
   xmlns:sodipodi="http://sodipodi.sourceforge.net/DTD/sodipodi-0.dtd"
   xmlns="http://www.w3.org/2000/svg"
   xmlns:svg="http://www.w3.org/2000/svg">
  <defs
     id="defs7" />
  <sodipodi:namedview
     id="namedview7"
     pagecolor="#ffffff"
     bordercolor="#000000"
     borderopacity="0.25"
     inkscape:showpageshadow="2"
     inkscape:pageopacity="0.0"
     inkscape:pagecheckerboard="0"
     inkscape:deskcolor="#d1d1d1"
     inkscape:zoom="6.0546875"
     inkscape:cx="66.312258"
     inkscape:cy="49.630968"
     inkscape:window-width="1920"
     inkscape:window-height="998"
     inkscape:window-x="0"
     inkscape:window-y="0"
     inkscape:window-maximized="1"
     inkscape:current-layer="svg7" />
  <g
     id="g7"
     transform="translate(-1.5,-1)">
    <path
       style="opacity:0.2;stroke-width:1.02046"
       d="m 10,55.11273 v 2.03636 C 10,58.72727 11.277977,60 12.864398,60 H 52.136424 C 53.721621,60 55,58.72727 55,57.14909 v -2.03636 c 0,1.57818 -1.278379,2.85091 -2.863576,2.85091 H 12.864398 c -1.585607,0 -2.863584,-1.27273 -2.863584,-2.85091 z"
       id="path1" />
    <path
       style="fill:#2d3c52;fill-opacity:1;stroke-width:1.02046"
       d="M 54.999186,56.13091 V 6.850909 C 54.999186,5.271505 53.722846,4 52.135602,4 H 12.863586 C 11.277164,4 10,5.271505 10,6.850909 V 56.13091 c 0,1.58022 1.277164,2.85091 2.863586,2.85091 h 39.272016 c 1.586421,0 2.863584,-1.27151 2.863584,-2.85091 z"
       id="path2" />
    <g
       style="opacity:0.2"
       transform="matrix(1.022709,0,0,1.018182,-1.2058611,-0.9357993)"
       id="g3">
      <path
         d="m 29.95704,9.84766 v 10 h 6 v -10 z m 0,18 v 10 h 6 v -10 z m 0,18 v 10 h 6 v -10 z"
         id="path3" />
    </g>
    <g
       transform="matrix(1.022709,0,0,1.018182,-1.2058611,-1.953981)"
       id="g4">
      <path
         style="fill:#f2f2f2;fill-opacity:1"
         d="m 29.95704,9.84766 v 10 h 6 v -10 z m 0,18 v 10 h 6 v -10 z m 0,18 v 10 h 6 v -10 z"
         id="path4" />
    </g>
    <path
       style="opacity:0.1;fill:#ffffff;stroke-width:1.02046"
       d="M 12.864379,4 C 11.277958,4 10,5.2723012 10,6.8517042 v 1.018182 C 10,6.2904823 11.277958,5.018182 12.864379,5.018182 h 39.272419 c 1.585197,0 2.862388,1.2723003 2.862388,2.8517042 V 6.8517042 C 54.999186,5.2723012 53.721995,4 52.136798,4 Z"
       id="path5" />
  </g>
  <g
     id="g8"
     transform="matrix(0.66666659,0,0,0.66666659,26.433766,-3.3933258)">
    <circle
       style="fill:#8d5fd3"
       cx="37.099354"
       cy="81.839996"
       r="16"
       id="circle6" />
    <path
       style="fill:#f2f2f2;fill-opacity:1"
       d="m 35.099355,67.84 v 4.203125 A 10,10 0 0 0 27.310293,79.84 h -4.210938 v 4 h 4.203125 a 10,10 0 0 0 7.796875,7.789062 V 95.84 h 4 V 91.636875 A 10,10 0 0 0 46.888417,83.84 h 4.210938 v -4 H 46.89623 A 10,10 0 0 0 39.099355,72.050938 V 67.84 Z m 2,9 a 5,5 0 0 1 5,5 5,5 0 0 1 -5,5 5,5 0 0 1 -5,-5 5,5 0 0 1 5,-5 z"
       id="path7" />
  </g>
</svg>
