<?xml version="1.0" encoding="UTF-8" standalone="no"?>
<svg
   width="62"
   height="62"
   viewBox="0 0 16.404166 16.404167"
   version="1.1"
   id="svg1443"
   inkscape:version="1.4 (unknown)"
   sodipodi:docname="qjackctl.svg"
   xmlns:inkscape="http://www.inkscape.org/namespaces/inkscape"
   xmlns:sodipodi="http://sodipodi.sourceforge.net/DTD/sodipodi-0.dtd"
   xmlns:xlink="http://www.w3.org/1999/xlink"
   xmlns="http://www.w3.org/2000/svg"
   xmlns:svg="http://www.w3.org/2000/svg"
   xmlns:rdf="http://www.w3.org/1999/02/22-rdf-syntax-ns#"
   xmlns:cc="http://creativecommons.org/ns#"
   xmlns:dc="http://purl.org/dc/elements/1.1/">
  <defs
     id="defs1437">
    <linearGradient
       gradientTransform="matrix(0.4711726,0,0,0.47114666,-53.953909,-18.000765)"
       gradientUnits="userSpaceOnUse"
       y2="70.679932"
       x2="132.21078"
       y1="42.151531"
       x1="132.21078"
       id="linearGradient1632"
       xlink:href="#linearGradient1630"
       inkscape:collect="always" />
    <linearGradient
       id="linearGradient1630"
       inkscape:collect="always">
      <stop
         id="stop1626"
         offset="0"
         style="stop-color:#e6e6e6;stop-opacity:1" />
      <stop
         id="stop1628"
         offset="1"
         style="stop-color:#adb9c4;stop-opacity:1;" />
    </linearGradient>
    <filter
       color-interpolation-filters="sRGB"
       height="1.1311001"
       width="1.1106"
       y="-0.065563001"
       x="-0.055319"
       id="c-9">
      <feGaussianBlur
         id="feGaussianBlur1093"
         stdDeviation="1.1062912" />
    </filter>
    <linearGradient
       gradientUnits="userSpaceOnUse"
       gradientTransform="matrix(0.13235,0,0,0.13075,-32.379,1.0873)"
       y2="269.48999"
       y1="235.14999"
       x2="657.65002"
       x1="319.20999"
       id="a-12">
      <stop
         id="stop1076"
         offset="0"
         stop-color="#e54c18" />
      <stop
         id="stop1078"
         offset="1"
         stop-color="#fec350" />
    </linearGradient>
    <linearGradient
       xlink:href="#a-7"
       id="c-36"
       x1="8.6850004"
       x2="8.7620001"
       y1="16.868999"
       y2="4.5339999"
       gradientTransform="matrix(1.0634748,0,0,1.0634748,-0.80999368,1.8113865)"
       gradientUnits="userSpaceOnUse" />
    <linearGradient
       id="a-7">
      <stop
         offset="0"
         style="stop-color:#2369ff;stop-opacity:1;"
         id="stop8" />
      <stop
         offset="1"
         style="stop-color:#7fa8ff;stop-opacity:1"
         id="stop10" />
    </linearGradient>
  </defs>
  <sodipodi:namedview
     id="base"
     pagecolor="#ffffff"
     bordercolor="#666666"
     borderopacity="1.0"
     inkscape:pageopacity="0.0"
     inkscape:pageshadow="2"
     inkscape:zoom="11.2"
     inkscape:cx="19.241071"
     inkscape:cy="28.705357"
     inkscape:document-units="px"
     inkscape:current-layer="layer1"
     inkscape:document-rotation="0"
     showgrid="false"
     units="px"
     inkscape:window-width="1920"
     inkscape:window-height="998"
     inkscape:window-x="0"
     inkscape:window-y="0"
     inkscape:window-maximized="1"
     inkscape:showpageshadow="2"
     inkscape:pagecheckerboard="0"
     inkscape:deskcolor="#d1d1d1">
    <inkscape:grid
       id="grid1"
       units="px"
       originx="0"
       originy="0"
       spacingx="0.26458332"
       spacingy="0.26458334"
       empcolor="#0099e5"
       empopacity="0.30196078"
       color="#0099e5"
       opacity="0.14901961"
       empspacing="5"
       enabled="true"
       visible="false" />
  </sodipodi:namedview>
  <metadata
     id="metadata1440">
    <rdf:RDF>
      <cc:Work
         rdf:about="">
        <dc:format>image/svg+xml</dc:format>
        <dc:type
           rdf:resource="http://purl.org/dc/dcmitype/StillImage" />
      </cc:Work>
    </rdf:RDF>
  </metadata>
  <g
     inkscape:label="Capa 1"
     inkscape:groupmode="layer"
     id="layer1">
    <g
       style="opacity:0.295"
       transform="matrix(0.47117252,0,0,0.47114656,-31.72741,-18.000762)"
       id="g1702">
      <rect
         ry="6.6098609"
         rx="6.6098609"
         y="40.709618"
         x="69.839508"
         height="29.810888"
         width="29.810888"
         id="rect1634"
         style="fill:none;fill-opacity:1;stroke:#000000;stroke-width:0.1;stroke-linecap:round;stroke-linejoin:round;stroke-miterlimit:4;stroke-dasharray:none;stroke-opacity:0.02" />
      <rect
         style="fill:none;fill-opacity:1;stroke:#000000;stroke-width:0.2;stroke-linecap:round;stroke-linejoin:round;stroke-miterlimit:4;stroke-dasharray:none;stroke-opacity:0.02"
         id="rect1638"
         width="29.810888"
         height="29.810888"
         x="69.839508"
         y="40.709618"
         rx="6.6098609"
         ry="6.6098609" />
      <rect
         ry="6.6098609"
         rx="6.6098609"
         y="40.709618"
         x="69.839508"
         height="29.810888"
         width="29.810888"
         id="rect1640"
         style="fill:none;fill-opacity:1;stroke:#000000;stroke-width:0.3;stroke-linecap:round;stroke-linejoin:round;stroke-miterlimit:4;stroke-dasharray:none;stroke-opacity:0.02" />
      <rect
         style="fill:none;fill-opacity:1;stroke:#000000;stroke-width:0.4;stroke-linecap:round;stroke-linejoin:round;stroke-miterlimit:4;stroke-dasharray:none;stroke-opacity:0.02"
         id="rect1642"
         width="29.810888"
         height="29.810888"
         x="69.839508"
         y="40.709618"
         rx="6.6098609"
         ry="6.6098609" />
      <rect
         ry="6.6098609"
         rx="6.6098609"
         y="40.709618"
         x="69.839508"
         height="29.810888"
         width="29.810888"
         id="rect1644"
         style="fill:none;fill-opacity:1;stroke:#000000;stroke-width:0.5;stroke-linecap:round;stroke-linejoin:round;stroke-miterlimit:4;stroke-dasharray:none;stroke-opacity:0.02" />
      <rect
         style="fill:none;fill-opacity:1;stroke:#000000;stroke-width:0.6;stroke-linecap:round;stroke-linejoin:round;stroke-miterlimit:4;stroke-dasharray:none;stroke-opacity:0.02"
         id="rect1646"
         width="29.810888"
         height="29.810888"
         x="69.839508"
         y="40.709618"
         rx="6.6098609"
         ry="6.6098609" />
      <rect
         ry="6.6098609"
         rx="6.6098609"
         y="40.709618"
         x="69.839508"
         height="29.810888"
         width="29.810888"
         id="rect1648"
         style="fill:none;fill-opacity:1;stroke:#000000;stroke-width:0.7;stroke-linecap:round;stroke-linejoin:round;stroke-miterlimit:4;stroke-dasharray:none;stroke-opacity:0.02" />
      <rect
         style="fill:none;fill-opacity:1;stroke:#000000;stroke-width:0.8;stroke-linecap:round;stroke-linejoin:round;stroke-miterlimit:4;stroke-dasharray:none;stroke-opacity:0.02"
         id="rect1650"
         width="29.810888"
         height="29.810888"
         x="69.839508"
         y="40.709618"
         rx="6.6098609"
         ry="6.6098609" />
      <rect
         ry="6.6098609"
         rx="6.6098609"
         y="40.709618"
         x="69.839508"
         height="29.810888"
         width="29.810888"
         id="rect1652"
         style="fill:none;fill-opacity:1;stroke:#000000;stroke-width:1;stroke-linecap:round;stroke-linejoin:round;stroke-miterlimit:4;stroke-dasharray:none;stroke-opacity:0.02" />
      <rect
         style="fill:none;fill-opacity:1;stroke:#000000;stroke-width:1.2;stroke-linecap:round;stroke-linejoin:round;stroke-miterlimit:4;stroke-dasharray:none;stroke-opacity:0.02"
         id="rect1654"
         width="29.810888"
         height="29.810888"
         x="69.839508"
         y="40.709618"
         rx="6.6098609"
         ry="6.6098609" />
      <rect
         ry="6.6098609"
         rx="6.6098609"
         y="40.709618"
         x="69.839508"
         height="29.810888"
         width="29.810888"
         id="rect1656"
         style="fill:none;fill-opacity:1;stroke:#000000;stroke-width:1.4;stroke-linecap:round;stroke-linejoin:round;stroke-miterlimit:4;stroke-dasharray:none;stroke-opacity:0.02" />
      <rect
         style="fill:none;fill-opacity:1;stroke:#000000;stroke-width:1.6;stroke-linecap:round;stroke-linejoin:round;stroke-miterlimit:4;stroke-dasharray:none;stroke-opacity:0.02"
         id="rect1658"
         width="29.810888"
         height="29.810888"
         x="69.839508"
         y="40.709618"
         rx="6.6098609"
         ry="6.6098609" />
      <rect
         ry="6.6098609"
         rx="6.6098609"
         y="40.709618"
         x="69.839508"
         height="29.810888"
         width="29.810888"
         id="rect1660"
         style="fill:none;fill-opacity:1;stroke:#000000;stroke-width:1.8;stroke-linecap:round;stroke-linejoin:round;stroke-miterlimit:4;stroke-dasharray:none;stroke-opacity:0.02" />
      <rect
         style="fill:none;fill-opacity:1;stroke:#000000;stroke-width:2;stroke-linecap:round;stroke-linejoin:round;stroke-miterlimit:4;stroke-dasharray:none;stroke-opacity:0.02"
         id="rect1662"
         width="29.810888"
         height="29.810888"
         x="69.839508"
         y="40.709618"
         rx="6.6098609"
         ry="6.6098609" />
      <rect
         ry="6.6098609"
         rx="6.6098609"
         y="40.709618"
         x="69.839508"
         height="29.810888"
         width="29.810888"
         id="rect1664"
         style="fill:none;fill-opacity:1;stroke:#000000;stroke-width:2.2;stroke-linecap:round;stroke-linejoin:round;stroke-miterlimit:4;stroke-dasharray:none;stroke-opacity:0.02" />
      <rect
         style="fill:none;fill-opacity:1;stroke:#000000;stroke-width:2.6;stroke-linecap:round;stroke-linejoin:round;stroke-miterlimit:4;stroke-dasharray:none;stroke-opacity:0.02"
         id="rect1666"
         width="29.810888"
         height="29.810888"
         x="69.839508"
         y="40.709618"
         rx="6.6098609"
         ry="6.6098609" />
      <rect
         ry="6.6098609"
         rx="6.6098609"
         y="40.709618"
         x="69.839508"
         height="29.810888"
         width="29.810888"
         id="rect1668"
         style="fill:none;fill-opacity:1;stroke:#000000;stroke-width:3;stroke-linecap:round;stroke-linejoin:round;stroke-miterlimit:4;stroke-dasharray:none;stroke-opacity:0.02" />
      <rect
         style="fill:none;fill-opacity:1;stroke:#000000;stroke-width:3.4;stroke-linecap:round;stroke-linejoin:round;stroke-miterlimit:4;stroke-dasharray:none;stroke-opacity:0.02"
         id="rect1670"
         width="29.810888"
         height="29.810888"
         x="69.839508"
         y="40.709618"
         rx="6.6098609"
         ry="6.6098609" />
      <rect
         ry="6.6098609"
         rx="6.6098609"
         y="40.709618"
         x="69.839508"
         height="29.810888"
         width="29.810888"
         id="rect1672"
         style="fill:none;fill-opacity:1;stroke:#000000;stroke-width:3.8;stroke-linecap:round;stroke-linejoin:round;stroke-miterlimit:4;stroke-dasharray:none;stroke-opacity:0.02" />
      <rect
         style="fill:none;fill-opacity:1;stroke:#000000;stroke-width:4.2;stroke-linecap:round;stroke-linejoin:round;stroke-miterlimit:4;stroke-dasharray:none;stroke-opacity:0.02"
         id="rect1674"
         width="29.810888"
         height="29.810888"
         x="69.839508"
         y="40.709618"
         rx="6.6098609"
         ry="6.6098609" />
      <rect
         ry="6.6098609"
         rx="6.6098609"
         y="40.709618"
         x="69.839508"
         height="29.810888"
         width="29.810888"
         id="rect1676"
         style="fill:none;fill-opacity:1;stroke:#000000;stroke-width:4.6;stroke-linecap:round;stroke-linejoin:round;stroke-miterlimit:4;stroke-dasharray:none;stroke-opacity:0.02" />
      <rect
         style="fill:none;fill-opacity:1;stroke:#000000;stroke-width:5;stroke-linecap:round;stroke-linejoin:round;stroke-miterlimit:4;stroke-dasharray:none;stroke-opacity:0.02"
         id="rect1678"
         width="29.810888"
         height="29.810888"
         x="69.839508"
         y="40.709618"
         rx="6.6098609"
         ry="6.6098609" />
    </g>
    <rect
       ry="3.1142132"
       rx="3.1143851"
       y="1.1794344"
       x="1.1790471"
       height="14.045296"
       width="14.04607"
       id="rect849"
       style="fill:url(#linearGradient1632);fill-opacity:1;stroke-width:1.29783;stroke-linecap:round;stroke-linejoin:round" />
    <path
       d="m 14.022598,6.3439138 c -0.01239,0.4530584 -0.07713,1.0078407 -0.140292,1.20387 -0.03987,0.1234495 -0.144847,0.3068379 -0.233403,0.4075356 -0.148488,0.168859 -0.607085,0.545745 -0.76867,0.6317211 -0.03789,0.020156 -0.313026,0.1824402 -0.611431,0.3606426 -0.599538,0.3580129 -0.64157,0.3627772 -0.934204,0.1057698 -0.171521,-0.1506371 -0.214881,-0.1373337 -0.12852,0.039415 0.03911,0.079915 0.205913,0.2412544 0.370814,0.3585447 l 0.299793,0.21325 0.05926,0.5843984 -0.329025,-0.2628864 c -0.276526,-0.22094 -0.401689,-0.282751 -0.78444,-0.387359 l -0.455405,-0.124461 -0.180337,0.226537 -0.180338,0.226553 0.150354,0.2066314 c 0.14523,0.199591 0.160039,0.20675 0.434132,0.209973 0.415458,0.0051 0.545833,0.130331 0.644749,0.620342 0.0413,0.204739 0.06996,0.378995 0.06379,0.387211 -0.0066,0.0086 -0.102487,-0.0827 -0.213789,-0.202185 -0.194085,-0.208211 -0.413453,-0.30973 -0.839096,-0.388315 -0.06761,-0.01247 -0.21071,-0.103578 -0.3180759,-0.202459 -0.1073608,-0.09888 -0.2028758,-0.168051 -0.2122466,-0.153724 -0.0095,0.01439 -0.080305,0.128401 -0.1576424,0.2535 l -0.1406198,0.227469 0.1968571,0.300362 c 0.1941535,0.296229 0.2010416,0.301129 0.5019466,0.356581 0.193049,0.03555 0.317631,0.08588 0.339245,0.136988 0.06134,0.145153 0.241788,0.738926 0.229202,0.754447 -0.0071,0.0088 -0.12107,-0.08925 -0.25401,-0.21672 C 10.259007,12.052417 10.088542,11.948818 9.8389063,11.857582 9.491019,11.730457 9.4874127,11.727313 9.3634713,11.444046 9.2453913,11.174168 9.2310273,11.160133 9.100085,11.186589 c -0.2795295,0.05648 -0.2750526,0.04009 -0.1783326,0.649745 0.088146,0.555487 0.090724,0.562333 0.257854,0.684717 0.5266584,0.385612 0.8712506,0.682576 0.9069016,0.781547 0.04966,0.137926 -0.0082,0.40321 -0.09714,0.448549 -0.050939,0.02586 -0.070636,-0.0146 -0.087247,-0.178405 C 9.8833809,13.387765 9.8595662,13.349434 9.7142091,13.27008 9.622647,13.22012 9.35224,13.022345 9.1132787,12.830616 L 8.6788053,12.482005 8.6128146,11.830883 c -0.036289,-0.35812 -0.053057,-0.723412 -0.037264,-0.811751 0.028136,-0.157345 0.025602,-0.16029 -0.1233903,-0.143395 -0.083657,0.0099 -0.4523456,0.08812 -0.819293,0.174745 -0.5900632,0.139289 -0.7004851,0.18087 -0.9553454,0.359747 -0.1584922,0.111254 -0.8585197,0.482098 -1.5556176,0.824101 l -1.2674476,0.621851 -0.5803634,0.0021 c -0.5160165,0.0019 -0.5963605,-0.01032 -0.724652,-0.108914 -0.1125478,-0.0865 -0.1487532,-0.154961 -0.164575,-0.311076 -0.016895,-0.166676 0.020264,-0.272623 0.2221533,-0.633495 0.1333407,-0.238337 0.3129884,-0.52043 0.3992165,-0.62686 0.1461954,-0.180468 0.1823852,-0.19846 0.5360757,-0.266548 0.2086128,-0.04007 0.3875829,-0.06595 0.3977116,-0.05737 0.010132,0.009 -0.027452,0.152138 -0.083522,0.319019 -0.09737,0.289849 -0.1163814,0.312004 -0.4246022,0.494745 -0.3516643,0.208508 -0.4427624,0.305244 -0.3887109,0.412767 0.02778,0.05529 0.125443,0.06082 0.4644515,0.02632 l 0.429275,-0.04374 0.8189608,-0.47576 0.8189585,-0.475762 0.2970686,-0.695464 C 6.1317166,9.8078216 6.2205095,9.6575236 6.5798559,9.2177811 6.8058401,8.9412355 6.9894478,8.7022543 6.987872,8.6867137 6.9827963,8.6365897 6.462911,8.5479704 6.2819976,8.5663868 L 6.1066315,8.5842377 6.0703768,8.2265161 C 6.0384057,7.9110611 6.0224374,7.8663354 5.9352536,7.847993 5.8260271,7.8250073 5.8137657,7.7964211 5.8670889,7.689054 5.8953559,7.632147 5.9481859,7.621889 6.1154602,7.640848 L 6.327934,7.664914 6.339354,7.8933378 6.350775,8.1217621 6.946172,8.0611461 C 7.2736318,8.0278029 7.5517377,7.9794787 7.5641735,7.9537373 7.5766118,7.9280089 7.4912888,7.8789703 7.3745589,7.8447819 7.2567577,7.8102888 7.0600629,7.6896456 6.9324865,7.5736546 L 6.7026432,7.3646835 6.7843812,7.1530841 c 0.044953,-0.1163801 0.067058,-0.240806 0.049113,-0.2765015 -0.04141,-0.08239 -0.028778,-0.08274 0.1864535,-0.00538 0.1564502,0.056327 0.1796097,0.085195 0.1957087,0.2440433 0.010044,0.099089 0.054166,0.2095925 0.098036,0.2455604 0.1092543,0.089569 0.4962768,0.1029007 0.6343404,0.021868 C 8.0949678,7.2964684 8.0814299,7.2406632 7.9003031,7.1860055 7.7941174,7.1539698 7.6938537,7.0553942 7.5545577,6.8460773 L 7.3583715,6.5512688 7.5235738,6.3298541 C 7.684715,6.1138811 7.6870029,6.1035544 7.6166478,5.9098674 7.5769766,5.8006532 7.557407,5.6954157 7.5731613,5.6760042 7.5889161,5.6565902 7.7138317,5.7332722 7.8507577,5.8464124 L 8.0997126,6.0521131 7.9083519,6.2547322 7.7169904,6.4573533 7.8488594,6.6224564 C 7.946054,6.7441529 8.014316,6.7843016 8.1084841,6.7751584 8.2542892,6.7610031 8.2820457,6.6980555 8.2316695,6.4957798 8.2121805,6.4175264 8.2204192,6.2553013 8.2499879,6.1352674 8.2795495,6.0152334 8.2893135,5.7747641 8.2716911,5.6008882 L 8.2396495,5.2847519 8.3675053,5.4263591 8.4953601,5.5679654 8.536987,5.4442307 C 8.5710371,5.3430166 8.5513041,5.2652963 8.4285944,5.0172261 8.3460784,4.8504306 8.2694766,4.6243098 8.2583716,4.5147389 8.2392355,4.3259265 8.2624394,4.2852816 8.7025581,3.7367001 L 9.1669335,3.1578812 10.033123,2.902247 c 0.487376,-0.1438412 0.955942,-0.2559732 1.071428,-0.2564082 0.254067,-9.497e-4 0.496563,0.1429241 0.677328,0.4019143 l 0.13595,0.194758 -0.11874,-0.024968 c -0.06523,-0.013731 -0.260748,-0.021345 -0.43434,-0.016933 -0.682826,0.017415 -0.968408,0.4508146 -0.321755,0.4882997 0.236285,0.01369 0.195898,0.059252 -0.200958,0.2266593 -0.305714,0.1289699 -0.50127,0.1476995 -0.637603,0.061086 -0.08272,-0.052565 -0.9449593,0.1916962 -1.1564338,0.3276114 L 8.8782155,4.4133869 9.2579584,4.7050425 c 0.9271446,0.712082 0.9109366,0.7018634 0.9710096,0.6119528 0.08416,-0.125917 0.381876,-0.3035307 0.53196,-0.3173428 l 0.133734,-0.012244 -0.137523,0.1464116 c -0.21159,0.2252783 -0.244906,0.3523523 -0.127031,0.4846291 0.05371,0.060309 0.121532,0.1079169 0.150637,0.1057942 0.09925,-0.00728 0.355378,-0.2566034 0.362777,-0.3531779 0.01554,-0.2037702 0.08507,-0.192067 0.105232,0.017742 0.02313,0.2401958 -0.07086,0.5675787 -0.205272,0.7146405 l -0.08907,0.097372 0.203514,0.547367 c 0.146778,0.3947555 0.25405,0.604555 0.384752,0.7524812 0.131689,0.1490361 0.197368,0.2781503 0.240254,0.4722585 l 0.05904,0.2671464 0.264665,-0.1832854 0.264679,-0.1832844 -0.02595,-0.2611949 c -0.0192,-0.1943082 0.03474,-0.5332978 0.210645,-1.3236907 0.130106,-0.5843693 0.271222,-1.1145726 0.313605,-1.1782274 0.07557,-0.1134891 0.07746,-0.1063485 0.100112,0.3681713 0.0127,0.2661473 0.05067,0.5686216 0.08457,0.6721494 0.05216,0.1595046 0.0823,0.1885458 0.198361,0.19023 0.300783,0.00439 0.525553,-0.4885814 0.549504,-1.2051827 0.01392,-0.4141436 0.01542,-0.4191135 0.06924,-0.2109312 0.05749,0.222791 0.158051,1.1664107 0.151178,1.4190584 z"
       style="fill:#2d3d53;fill-opacity:1;stroke-width:0.251754"
       id="path2-3" />
  </g>
</svg>
