<?xml version="1.0" encoding="UTF-8" standalone="no"?>
<svg
   width="62"
   height="62"
   version="1"
   id="svg5"
   sodipodi:docname="ndm.svg"
   inkscape:version="1.4 (unknown)"
   xmlns:inkscape="http://www.inkscape.org/namespaces/inkscape"
   xmlns:sodipodi="http://sodipodi.sourceforge.net/DTD/sodipodi-0.dtd"
   xmlns="http://www.w3.org/2000/svg"
   xmlns:svg="http://www.w3.org/2000/svg">
  <defs
     id="defs5" />
  <sodipodi:namedview
     id="namedview5"
     pagecolor="#ffffff"
     bordercolor="#000000"
     borderopacity="0.25"
     inkscape:showpageshadow="2"
     inkscape:pageopacity="0.0"
     inkscape:pagecheckerboard="0"
     inkscape:deskcolor="#d1d1d1"
     inkscape:zoom="10"
     inkscape:cx="23.65"
     inkscape:cy="38.85"
     inkscape:window-width="1920"
     inkscape:window-height="998"
     inkscape:window-x="0"
     inkscape:window-y="0"
     inkscape:window-maximized="1"
     inkscape:current-layer="svg5" />
  <g
     id="g5"
     transform="matrix(1.0219312,0,0,1.0182158,-1.6973812,-2.0929475)">
    <g
       style="opacity:0.2"
       transform="matrix(2,0,0,2,-3,-3.9981654)"
       id="g1">
      <path
         d="M 10,5 A 4.0004,4.0004 0 0 0 6,9 v 12 a 4.0004,4.0004 0 0 0 4,4 h 3 a 4.0004,4.0004 0 0 0 0.242188,-0.01172 l 4.058593,5.41211 a 4.0004,4.0004 0 0 0 6.398438,0 l 4.5,-6 A 4.0004,4.0004 0 0 0 26,18.132812 v -1.11914 -0.0039 a 4.0004,4.0004 0 0 0 0,-0.002 C 26.00868,12.900276 24.155626,9.0429156 20.738281,7.3125 18.920897,6.3922578 17.250227,6.1532854 15.71875,6.0703125 A 4.0004,4.0004 0 0 0 13,5 Z"
         id="path1" />
    </g>
    <g
       transform="matrix(2,0,0,2,-3,-4.9981654)"
       id="g2">
      <path
         style="fill:#c83771"
         d="M 10,5 A 4.0004,4.0004 0 0 0 6,9 v 12 a 4.0004,4.0004 0 0 0 4,4 h 3 a 4.0004,4.0004 0 0 0 0.242188,-0.01172 l 4.058593,5.41211 a 4.0004,4.0004 0 0 0 6.398438,0 l 4.5,-6 A 4.0004,4.0004 0 0 0 26,18.132812 v -1.11914 -0.0039 a 4.0004,4.0004 0 0 0 0,-0.002 C 26.00868,12.900276 24.155626,9.0429156 20.738281,7.3125 18.920897,6.3922578 17.250227,6.1532854 15.71875,6.0703125 A 4.0004,4.0004 0 0 0 13,5 Z"
         id="path2" />
    </g>
    <path
       style="opacity:0.2"
       d="m 17,14.001835 v 23.999999 h 6 v -16 c 3.976752,0.0024 7.357852,0.204618 9.152344,1.113282 1.794492,0.908662 2.85952,2.109242 2.847656,6.878906 l 3,0.0078 h -3 v 10 h -6 l 9,12 9,-12 h -6 v -9.992188 c 6e-6,-0.0026 -6e-6,-0.0052 0,-0.0078 C 41.0128,23.938138 38.57589,19.64349 34.863282,17.763565 31.14902,15.882817 27.015192,16.004173 23,16.001835 v -2 z"
       id="path3" />
    <path
       style="fill:#f3f3f3;fill-opacity:1"
       d="m 17,13.001835 v 23.999999 h 6 v -16 c 3.976752,0.0024 7.357852,0.204618 9.152344,1.113282 1.794492,0.908662 2.85952,2.109242 2.847656,6.878906 l 3,-2.2e-4 -3,2e-5 v 10.00802 h -6 l 9,12 9,-12 h -6 v -9.992188 c 6e-6,-0.0026 -6e-6,-0.01325 0,-0.01585 C 41.0128,22.930086 38.57589,18.643491 34.863282,16.763565 31.14902,14.882816 27.015192,15.004173 23,15.001835 v -2 z"
       id="path4"
       sodipodi:nodetypes="ccccscccccccccccccc" />
    <path
       style="opacity:0.2;fill:#ffffff"
       d="M 17,5.0019531 A 8.0008,8.0008 0 0 0 9,13.001953 v 1 a 8.0008,8.0008 0 0 1 8,-7.9999999 h 6 a 8.0008,8.0008 0 0 1 5.4375,2.140625 C 31.500454,8.3085239 34.841794,8.7864689 38.476562,10.626953 45.311253,14.087785 49.01736,21.802586 49,30.017578 v -0.988281 -0.0078 a 8.0008,8.0008 0 0 0 0,-0.0039 C 49.01736,20.802586 45.311253,13.087785 38.476562,9.6269531 34.841794,7.7864687 31.500454,7.3085239 28.4375,7.1425781 A 8.0008,8.0008 0 0 0 23,5.0019531 Z M 49,31.267578 v 1 A 8.0008,8.0008 0 0 1 54.970703,39.484375 8.0008,8.0008 0 0 0 49,31.267578 Z"
       id="path5" />
  </g>
</svg>
