<?xml version="1.0" encoding="UTF-8" standalone="no"?>
<svg
   width="62"
   height="62"
   version="1.1"
   id="svg7"
   sodipodi:docname="negibox.svg"
   inkscape:version="1.4 (unknown)"
   xmlns:inkscape="http://www.inkscape.org/namespaces/inkscape"
   xmlns:sodipodi="http://sodipodi.sourceforge.net/DTD/sodipodi-0.dtd"
   xmlns:xlink="http://www.w3.org/1999/xlink"
   xmlns="http://www.w3.org/2000/svg"
   xmlns:svg="http://www.w3.org/2000/svg">
  <defs
     id="defs7">
    <linearGradient
       inkscape:collect="always"
       xlink:href="#linearGradient8"
       id="linearGradient10"
       x1="31.5"
       y1="59.017544"
       x2="31.5"
       y2="4.9824562"
       gradientUnits="userSpaceOnUse"
       gradientTransform="translate(-0.5,-0.5087719)" />
    <linearGradient
       id="linearGradient8"
       inkscape:collect="always">
      <stop
         style="stop-color:#2d3d53;stop-opacity:1;"
         offset="0"
         id="stop8" />
      <stop
         style="stop-color:#354864;stop-opacity:1;"
         offset="1"
         id="stop10" />
    </linearGradient>
    <linearGradient
       id="paint3_linear_332_93"
       x1="37.304401"
       y1="24.2272"
       x2="23.255199"
       y2="12.9039"
       gradientUnits="userSpaceOnUse"
       gradientTransform="matrix(1,0,0,1.0089403,-0.9999998,-0.28624446)">
      <stop
         stop-color="#731FFF"
         id="stop9" />
      <stop
         offset="0.905415"
         stop-color="#EB1AFF"
         id="stop10-5" />
    </linearGradient>
    <linearGradient
       id="paint1_linear_332_93"
       x1="2"
       y1="61.696899"
       x2="14.6751"
       y2="28.2421"
       gradientUnits="userSpaceOnUse"
       gradientTransform="matrix(0.91578336,0,0,1,1.7216248,-7.2011443)">
      <stop
         stop-color="#731FFF"
         id="stop5" />
      <stop
         offset="0.905415"
         stop-color="#EB1AFF"
         id="stop6" />
    </linearGradient>
    <linearGradient
       id="paint2_linear_332_93"
       x1="54.645401"
       y1="46.748501"
       x2="26.243099"
       y2="10.4978"
       gradientUnits="userSpaceOnUse"
       gradientTransform="matrix(0.91578336,0,0,1,1.7216248,-7.2011443)">
      <stop
         offset="0.118093"
         stop-color="#731FFF"
         id="stop7" />
      <stop
         offset="0.905415"
         stop-color="#EB1AFF"
         id="stop8-3" />
    </linearGradient>
    <linearGradient
       id="linearGradient4"
       x1="16"
       x2="47"
       y1="16"
       y2="48"
       gradientUnits="userSpaceOnUse"
       gradientTransform="matrix(1.1935485,0,0,1.1875,-6.5967725,-6.999994)">
      <stop
         stop-color="#ffffff"
         offset="0"
         id="stop1" />
      <stop
         stop-color="#ffffff"
         offset=".45161"
         id="stop2" />
      <stop
         stop-color="#fef0cb"
         offset=".59375"
         id="stop3" />
      <stop
         stop-color="#ffbcc3"
         offset="1"
         id="stop4" />
    </linearGradient>
  </defs>
  <sodipodi:namedview
     id="namedview7"
     pagecolor="#ffffff"
     bordercolor="#000000"
     borderopacity="0.25"
     inkscape:showpageshadow="2"
     inkscape:pageopacity="0.0"
     inkscape:pagecheckerboard="0"
     inkscape:deskcolor="#d1d1d1"
     inkscape:zoom="8.3085046"
     inkscape:cx="36.288119"
     inkscape:cy="42.787483"
     inkscape:window-width="1920"
     inkscape:window-height="998"
     inkscape:window-x="0"
     inkscape:window-y="0"
     inkscape:window-maximized="1"
     inkscape:current-layer="svg7"
     showgrid="false">
    <inkscape:grid
       id="grid1"
       units="px"
       originx="0"
       originy="0"
       spacingx="1"
       spacingy="1"
       empcolor="#0099e5"
       empopacity="0.30196078"
       color="#0099e5"
       opacity="0.14901961"
       empspacing="5"
       enabled="true"
       visible="false" />
  </sodipodi:namedview>
  <g
     id="g7"
     transform="translate(0,-0.4912281)">
    <rect
       style="opacity:0.2;stroke-width:0.9823"
       width="55"
       height="55.017544"
       x="3.5"
       y="4.4736843"
       rx="8.25"
       ry="8.2526312"
       id="rect1" />
    <rect
       style="fill:url(#linearGradient10);stroke-width:0.9823"
       width="55"
       height="55.017544"
       x="3.5"
       y="3.4912281"
       rx="8.25"
       ry="8.2526312"
       id="rect2" />
    <path
       style="opacity:0.1;fill:#ffffff;stroke-width:0.9823"
       d="M 11.748466,3.4912281 C 7.1779652,3.4912281 3.5,7.1703661 3.5,11.742325 v 0.982456 c 0,-4.5719589 3.6779652,-8.2510969 8.248466,-8.2510969 h 38.503068 c 4.5705,0 8.248466,3.679138 8.248466,8.2510969 v -0.982456 c 0,-4.5719589 -3.677966,-8.2510969 -8.248466,-8.2510969 z"
       id="path4-3" />
  </g>
  <circle
     cx="1018.3326"
     cy="1321.1312"
     fill="#fbfbfb"
     fill-opacity="0.432624"
     r="30.384001"
     id="circle4"
     style="stroke-width:101.28" />
  <ellipse
     cx="83.115273"
     cy="12.233553"
     fill="#fbfbfb"
     fill-opacity="0.432624"
     id="circle4-3"
     style="stroke-width:1.28996"
     rx="0.38999993"
     ry="0.38399988" />
  <g
     fill="#20ee03"
     fill-rule="nonzero"
     id="g4"
     transform="matrix(1.2691527,0,0,1.2922282,0.5403359,-0.01347616)">
    <path
       d="m 10.311,43.364 v 2.304 h 0.781 v -2.304 z m 2.66,-1.135 v 3.439 h 0.779 v -3.439 z m 5.32,1.135 v 2.304 h 0.779 v -2.304 z m 6.098,2.304 h -0.778 v -4.575 h 0.778 z m 15.959,-0.066 c -0.255,0.038 -0.516,0.059 -0.78,0.065 v -4.574 h 0.78 z m 1.879,-0.592 v -7.319 h 0.781 v 6.853 C 42.76,44.718 42.5,44.874 42.227,45.01 Z M 28.93,42.221 v 1.17 h 0.779 v -1.17 z m -2.66,-9.076 v 10.246 h 0.779 V 33.145 Z M 4.992,42.221 v 1.17 h 0.781 v -1.17 z M 31.59,39.953 v 3.438 h 0.779 v -3.438 z m -23.938,0 v 3.438 h 0.78 V 39.953 Z M 3.113,42.46 C 2.615,41.566 2.332,40.536 2.332,39.44 v -6.295 h 0.781 z m 42.555,-3.642 v 0.622 c 0,1.014 -0.242,1.971 -0.673,2.817 H 44.887 V 38.818 Z M 34.25,37.682 v 3.441 h 0.779 v -3.441 z m -15.959,0 v 3.441 h 0.779 v -3.441 z m 2.66,-5.673 v 7.98 h 0.779 v -7.98 z m 15.957,0 v 7.98 h 0.781 v -7.98 z m -23.937,0 v 7.98 h 0.779 v -7.98 z M 4.992,27.464 V 39.98 H 5.773 V 27.464 Z m 23.938,0 V 39.98 h 0.779 V 27.464 Z m 10.638,9.084 v 2.304 h 0.78 v -2.304 z m -15.957,0 v 2.304 h 0.778 V 36.548 Z M 7.652,28.6 v 9.112 h 0.78 V 28.6 Z m 23.938,0 v 9.112 h 0.779 V 28.6 Z m 13.297,-2.27 v 10.248 h 0.781 V 26.33 Z m -29.256,1.142 v 7.978 h 0.779 v -7.978 z m 26.596,5.673 v 2.305 h 0.781 V 33.145 Z M 34.25,33.137 v 2.304 h 0.779 v -2.304 z m -23.939,0 v 2.304 h 0.781 v -2.304 z m 13.3,-2.268 v 3.438 h 0.778 v -3.438 z m 18.616,-1.135 v 1.171 h 0.781 V 29.734 Z M 26.27,26.33 v 4.575 h 0.779 V 26.33 Z m 7.98,1.128 v 3.438 h 0.779 v -3.438 z m -15.959,0 v 3.438 h 0.779 v -3.438 z m -7.98,0 v 3.438 h 0.781 v -3.438 z m 2.66,-2.262 v 4.572 h 0.779 v -4.572 z m 7.98,0 v 4.572 h 0.779 v -4.572 z m 15.957,0 v 4.572 h 0.781 V 25.196 Z M 23.611,22.919 v 5.709 h 0.778 v -5.709 z m 15.957,0 v 5.709 h 0.78 v -5.709 z m 2.659,-3.403 v 7.978 h 0.781 V 19.516 Z M 31.59,20.65 v 5.709 h 0.779 V 20.65 Z m -23.938,0 v 5.709 h 0.78 V 20.65 Z m 7.979,-2.262 v 6.844 H 16.41 V 18.388 Z M 28.93,20.65 v 4.573 h 0.779 V 20.65 Z m -23.938,0 v 4.573 H 5.773 V 20.65 Z M 34.25,17.239 v 7.978 h 0.779 v -7.978 z m -15.959,0 v 7.978 h 0.779 v -7.978 z m -7.98,0 v 7.978 h 0.781 v -7.978 z m -7.979,4.546 v 2.304 h 0.781 v -2.304 z m 23.938,0 v 2.304 h 0.779 v -2.304 z m 18.617,0 v 2.304 h 0.781 v -2.304 z m -7.979,-4.539 v 5.709 h 0.781 v -5.709 z m -15.957,0 v 5.709 h 0.779 v -5.709 z m 2.66,1.128 v 2.304 h 0.778 v -2.304 z m 2.659,0 v 1.17 h 0.779 v -1.17 z m -23.938,0 v 1.17 h 0.781 v -1.17 z m 42.555,-2.269 v 3.439 h 0.781 v -3.439 z m -13.297,0 v 2.304 h 0.779 v -2.304 z m -2.66,0 v 2.304 h 0.779 v -2.304 z m -21.278,0 v 2.304 h 0.78 v -2.304 z m -2.66,0 v 2.304 H 5.773 V 16.105 Z M 42.227,4.759 v 12.516 h 0.781 V 4.759 Z m -26.596,9.084 v 2.304 H 16.41 V 13.843 Z M 26.27,11.558 v 4.575 h 0.779 V 11.558 Z M 23.611,2.332 v 13.801 h 0.778 V 2.332 Z M 2.332,11.558 v 4.575 H 3.113 V 11.558 Z M 39.568,2.333 c 0.264,0.006 0.525,0.028 0.78,0.065 v 13.735 h -0.78 z m -26.597,8.099 v 4.573 h 0.779 v -4.573 z m 23.937,0 v 4.573 h 0.781 v -4.573 z m -15.957,0 v 4.573 h 0.779 v -4.573 z m -10.64,-8.1 v 12.666 h 0.781 V 2.332 Z m 7.98,0 V 14.998 H 19.07 V 2.332 Z m 15.959,0 v 12.666 h 0.779 V 2.332 Z m -2.66,6.957 v 4.575 h 0.779 V 9.289 Z M 4.992,12.694 v 1.17 h 0.781 v -1.17 z m 23.938,0 v 1.17 h 0.779 v -1.17 z M 44.887,9.289 v 4.575 h 0.781 V 9.289 Z M 15.631,3.623 v 7.979 H 16.41 V 3.623 Z M 28.93,5.878 v 4.575 h 0.779 V 5.878 Z m -23.938,0 v 4.575 H 5.773 V 5.878 Z M 2.526,7.013 H 3.113 V 9.317 H 2.332 V 8.56 c 0,-0.534 0.067,-1.053 0.194,-1.547 z m 23.744,0 v 2.304 h 0.779 V 7.013 Z M 20.951,5.885 V 8.191 H 21.73 V 5.885 Z m -7.98,0 V 8.191 H 13.75 V 5.885 Z M 7.652,3.61 v 3.439 h 0.78 V 3.61 Z m 23.938,0 v 3.439 h 0.779 V 3.61 Z m 13.297,1.93 c 0.261,0.469 0.463,0.975 0.596,1.509 H 44.887 Z M 26.27,2.332 v 2.44 h 0.779 v -2.44 z m -13.299,0 V 3.644 H 13.75 V 2.332 Z m 23.937,0 v 1.312 h 0.781 V 2.332 Z M 5.773,2.99 V 3.638 H 4.992 V 3.456 C 5.24,3.282 5.5,3.126 5.773,2.99 Z"
       fill-opacity="0.2"
       id="path3" />
  </g>
  <g
     id="g1"
     transform="matrix(1.0118577,0,0,1.0106383,-5.2252959,-60.27473)"
     style="fill:#00d455">
    <path
       style="opacity:0.2;fill:#00d455"
       d="m 27.800781,73.000001 v 20 h -8.8 L 35.80078,109.6 52.600778,93.000001 h -8.799997 v -20 z"
       id="path3-3" />
    <path
       style="fill:#00d455"
       d="m 27.800781,72 v 20 h -8.8 L 35.80078,108.6 52.600778,92 H 43.800781 V 72 Z"
       id="path4" />
    <path
       style="opacity:0.2;fill:#00d455"
       d="m 27.800781,72 v 1 h 16 V 72 Z M 19,92 l 1.011719,1 h 7.789062 v -1 z m 24.800781,0 v 1 h 7.789062 l 1.011719,-1 z"
       id="path5" />
  </g>
</svg>
