<?xml version="1.0" encoding="UTF-8" standalone="no"?>
<svg
   width="62"
   height="62"
   version="1"
   id="svg4"
   sodipodi:docname="nerolinuxexpress.svg"
   inkscape:version="1.4 (unknown)"
   xmlns:inkscape="http://www.inkscape.org/namespaces/inkscape"
   xmlns:sodipodi="http://sodipodi.sourceforge.net/DTD/sodipodi-0.dtd"
   xmlns="http://www.w3.org/2000/svg"
   xmlns:svg="http://www.w3.org/2000/svg">
  <defs
     id="defs4" />
  <sodipodi:namedview
     id="namedview4"
     pagecolor="#ffffff"
     bordercolor="#000000"
     borderopacity="0.25"
     inkscape:showpageshadow="2"
     inkscape:pageopacity="0.0"
     inkscape:pagecheckerboard="0"
     inkscape:deskcolor="#d1d1d1"
     inkscape:zoom="12.109375"
     inkscape:cx="32.04129"
     inkscape:cy="32"
     inkscape:window-width="1920"
     inkscape:window-height="998"
     inkscape:window-x="0"
     inkscape:window-y="0"
     inkscape:window-maximized="1"
     inkscape:current-layer="svg4" />
  <g
     id="g1"
     transform="translate(-0.5,-1)">
    <ellipse
       style="opacity:0.2;stroke-width:0.982302"
       cx="31.5"
       cy="32.491226"
       id="circle1"
       rx="27.5"
       ry="27.508774" />
    <ellipse
       style="fill:#364863;fill-opacity:1;stroke-width:0.982302"
       cx="31.5"
       cy="31.508774"
       id="circle2"
       rx="27.5"
       ry="27.508774" />
    <path
       style="fill:#ff5555;stroke-width:0.982302"
       d="m 28.447922,16.908169 -0.512941,1.058444 c -0.733049,1.51477 -0.654765,2.630654 0.327638,4.757617 0.661874,1.432986 0.649115,2.55018 0.638623,3.612823 -0.313635,2.499086 -1.687106,4.9122 -3.70679,5.208789 -1.777607,0.261039 -3.92068,-1.950064 -4.704424,-3.451018 -0.781181,-1.496063 -1.054052,-0.23301 -0.418949,1.939582 0.203724,0.696883 0.848309,2.64648 1.431404,3.993668 1.780214,4.113064 0.852626,6.362719 -1.351607,7.023338 -1.208907,0.362312 -2.486136,0.0108 -3.636233,-0.999348 -0.451101,-0.396196 -0.896391,-0.64471 -0.988276,-0.553394 -0.09199,0.09134 -0.217852,1.225012 -0.281987,2.519846 -0.539624,4.253812 2.818305,5.878165 6.112698,7.715753 1.744792,0.960526 3.644548,1.681347 5.663426,2.129373 1.181942,0.262303 2.565604,0.341222 5.013915,0.284761 3.039836,-0.0701 3.605062,-0.153129 5.596674,-0.808606 3.730213,-1.227677 6.923256,-3.373514 9.368217,-6.098958 1.040614,-1.221805 1.34689,-2.103894 1.677441,-3.386737 0.321942,-1.853276 0.447585,-4.080645 0.230952,-4.080643 -0.119624,0 -0.732582,0.524381 -1.364256,1.165898 -0.819477,0.832257 -1.330562,1.165897 -1.783205,1.165897 -0.888524,0 -1.699853,-0.628746 -1.077571,-2.004054 0.834804,-1.844984 0.729702,-3.545159 -0.357177,-5.732784 -0.488585,-0.98341 -1.090749,-1.971504 -1.337401,-2.194794 -0.438023,-0.396533 -0.447215,-0.371406 -0.448489,1.087997 -0.0026,2.867341 -0.748321,4.596164 -2.852046,5.508604 -1.723785,0.747657 -4.35958,0.800715 -5.553045,0.09939 -1.806503,-1.061556 -1.808748,-2.576724 -0.0028,-6.970004 0.434951,-1.058023 0.739512,-1.829151 0.950654,-2.440387 0.687105,-1.882621 0.461875,-3.747563 -0.558561,-4.729626 -0.606645,-0.581584 -1.569688,-1.174685 -2.422294,-1.493646 -1.779844,-0.66583 -2.927175,-1.433353 -3.334055,-3.051751 z"
       id="path2" />
    <ellipse
       style="opacity:0.2;fill:none;stroke:#000000;stroke-width:5.89376;stroke-linecap:round;stroke-linejoin:round"
       cx="31.5"
       cy="32.491226"
       id="circle3"
       rx="18.660715"
       ry="18.666668" />
    <ellipse
       style="fill:none;stroke:#f2f2f2;stroke-width:5.89376;stroke-linecap:round;stroke-linejoin:round;stroke-opacity:1"
       cx="31.5"
       cy="31.508774"
       id="circle4"
       rx="18.660715"
       ry="18.666668" />
    <path
       style="opacity:0.2;fill:#ffffff;stroke-width:0.982302"
       d="M 31.499992,4 A 27.499992,27.508766 0 0 0 4,31.508766 27.499992,27.508766 0 0 0 4.0172646,31.992322 27.499992,27.508766 0 0 1 31.499992,4.9824558 27.499992,27.508766 0 0 1 58.975049,31.992322 27.499992,27.508766 0 0 0 58.999984,31.508766 27.499992,27.508766 0 0 0 31.499992,4 Z"
       id="path4" />
  </g>
</svg>
