<?xml version="1.0" encoding="UTF-8" standalone="no"?>
<svg
   width="62"
   height="64"
   version="1.1"
   id="svg6"
   sodipodi:docname="net.sf.VICE.svg"
   inkscape:version="1.4 (unknown)"
   xmlns:inkscape="http://www.inkscape.org/namespaces/inkscape"
   xmlns:sodipodi="http://sodipodi.sourceforge.net/DTD/sodipodi-0.dtd"
   xmlns:xlink="http://www.w3.org/1999/xlink"
   xmlns="http://www.w3.org/2000/svg"
   xmlns:svg="http://www.w3.org/2000/svg">
  <defs
     id="defs6">
    <linearGradient
       id="linearGradient7"
       inkscape:collect="always">
      <stop
         style="stop-color:#b3b3b3;stop-opacity:1"
         offset="0"
         id="stop7" />
      <stop
         style="stop-color:#e6e6e6;stop-opacity:1"
         offset="1"
         id="stop8" />
    </linearGradient>
    <linearGradient
       inkscape:collect="always"
       xlink:href="#linearGradient7"
       id="linearGradient8"
       x1="32"
       y1="61"
       x2="32"
       y2="4"
       gradientUnits="userSpaceOnUse" />
  </defs>
  <sodipodi:namedview
     id="namedview6"
     pagecolor="#ffffff"
     bordercolor="#000000"
     borderopacity="0.25"
     inkscape:showpageshadow="2"
     inkscape:pageopacity="0.0"
     inkscape:pagecheckerboard="0"
     inkscape:deskcolor="#d1d1d1"
     inkscape:zoom="6.0546875"
     inkscape:cx="41.620645"
     inkscape:cy="33.114839"
     inkscape:window-width="1920"
     inkscape:window-height="998"
     inkscape:window-x="0"
     inkscape:window-y="0"
     inkscape:window-maximized="1"
     inkscape:current-layer="svg6" />
  <g
     id="g7"
     transform="matrix(0.94827586,0,0,0.94915254,0.65517248,1.1525425)">
    <circle
       style="opacity:0.2"
       cx="32"
       cy="33"
       r="29"
       id="circle1" />
    <circle
       style="fill:url(#linearGradient8)"
       cx="32"
       cy="32"
       r="29"
       id="circle2" />
    <path
       style="opacity:0.1"
       d="M 31.777344,16 C 22.204408,16 13,23.61116 13,33 13,42.38884 22.204408,50 31.777344,50 34.271598,49.9938 36.735524,49.459188 39,48.433594 V 40 H 53.5 L 47.699218,34 H 39 v 5.925782 c -1.899302,1.909046 -4.503078,2.988344 -7.222656,2.992186 -5.584212,0 -11.554688,-4.441144 -11.554688,-9.917968 0,-5.476824 5.970476,-9.917968 11.554688,-9.917968 2.717932,9.3e-4 5.32147,1.075494 7.222656,2.980468 V 17.570312 C 36.735738,16.543767 34.271808,16.007168 31.777344,16 Z M 39,26.0625 v 6 h 8.699218 l 5.800782,-6 z"
       id="path2" />
    <path
       style="fill:#003d99;fill-opacity:1"
       d="M 31.777778,15 C 22.204842,15 13,22.61116 13,32 13,41.38884 22.204842,49 31.777778,49 34.272032,48.9938 36.735524,48.459512 39,47.433918 v -8.5083 c -1.899302,1.909046 -4.502644,2.987206 -7.222222,2.991048 -5.584212,0 -11.555556,-4.439842 -11.555556,-9.916666 0,-5.476824 5.971344,-9.916666 11.555556,-9.916666 2.717932,9.3e-4 5.321036,1.075006 7.222222,2.97998 V 16.568848 C 36.735738,15.542303 34.272242,15.007168 31.777778,15 Z"
       id="path3" />
    <path
       style="fill:#003d99;fill-opacity:1"
       d="m 39,25.063314 h 14.5 l -5.8,6 H 39 Z"
       id="path4" />
    <path
       style="fill:#c83771"
       d="M 39,39 H 53.5 L 47.7,33 H 39 Z"
       id="path5" />
    <path
       style="opacity:0.2;fill:#ffffff"
       d="M 32,3 A 29,29 0 0 0 3,32 29,29 0 0 0 3.0175781,32.488281 29,29 0 0 1 32,4 29,29 0 0 1 60.974609,32.494141 29,29 0 0 0 61,32 29,29 0 0 0 32,3 Z"
       id="path6" />
  </g>
</svg>
