<?xml version="1.0" encoding="UTF-8" standalone="no"?>
<svg
   width="62"
   height="62"
   version="1.1"
   id="svg6"
   sodipodi:docname="net.retrodeck.retrodeck.svg"
   inkscape:version="1.4 (unknown)"
   xmlns:inkscape="http://www.inkscape.org/namespaces/inkscape"
   xmlns:sodipodi="http://sodipodi.sourceforge.net/DTD/sodipodi-0.dtd"
   xmlns="http://www.w3.org/2000/svg"
   xmlns:svg="http://www.w3.org/2000/svg">
  <defs
     id="defs6" />
  <sodipodi:namedview
     id="namedview6"
     pagecolor="#ffffff"
     bordercolor="#000000"
     borderopacity="0.25"
     inkscape:showpageshadow="2"
     inkscape:pageopacity="0.0"
     inkscape:pagecheckerboard="0"
     inkscape:deskcolor="#d1d1d1"
     inkscape:zoom="7.0710678"
     inkscape:cx="24.960869"
     inkscape:cy="32.456201"
     inkscape:window-width="1920"
     inkscape:window-height="998"
     inkscape:window-x="0"
     inkscape:window-y="0"
     inkscape:window-maximized="1"
     inkscape:current-layer="svg6" />
  <g
     id="g6"
     transform="matrix(0.98214286,0,0,0.98245614,-0.42857152,-0.92982455)">
    <circle
       style="opacity:0.2"
       cx="32"
       cy="33"
       r="28"
       id="circle1" />
    <circle
       style="fill:#2d3c52;fill-opacity:1"
       cx="32"
       cy="32"
       r="28"
       id="circle2" />
    <path
       style="opacity:0.2"
       d="m 32,11 v 7.869141 c 7.806452,0 14.121094,6.333757 14.121094,14.130859 0,7.797102 -6.329126,14.130859 -14.121094,14.130859 V 55 C 44.151414,55 54,45.145747 54,32.986328 54,20.826907 44.136932,11 32,11 Z M 22.917969,25 C 21.852225,25 21,25.825164 21,26.857422 V 41 h 4 v -5 h 7.892578 l 4.609375,5 h 5.148438 l -4.460938,-5.484375 -0.04492,-0.01367 C 40.854558,35.354534 43,32.669124 43,30 43,27.242396 40.68495,25 37.837891,25 Z M 25,29 H 37.201172 C 38.12193,29 39,29.697138 39,30.427734 39,31.170504 38.121587,32.025144 37.201172,32 H 25 Z"
       id="path2" />
    <path
       style="fill:#f2f2f2;fill-opacity:1"
       d="m 32,10 v 7.869565 c 7.806452,0 14.121133,6.333333 14.121133,14.130435 0,7.797102 -6.329165,14.130435 -14.121133,14.130435 V 54 C 44.151414,54 54,44.144927 54,31.985508 54,19.826087 44.136932,10 32,10 Z"
       id="path3" />
    <path
       style="fill:#7158f4;fill-opacity:1"
       d="M 22.91748,24.000002 C 21.851736,24.000002 21,24.824514 21,25.856772 v 14.14323 h 4 V 35 h 7.891604 l 4.611085,5.000002 h 5.148195 l -4.460696,-5.484375 -0.04565,-0.01307 C 40.854565,34.355138 43,31.669123 43,28.999999 c 0,-2.757604 -2.314562,-5 -5.161621,-5 z m 2.08252,4 H 37.201907 C 38.122665,28.000002 39,28.697404 39,29.428 39,30.17077 38.122322,31.025144 37.201907,31 H 25 Z"
       id="path4" />
    <path
       style="opacity:0.1;fill:#ffffff"
       d="M 32,4 A 28,28 0 0 0 4,32 28,28 0 0 0 4.0351562,32.5 28,28 0 0 1 32,5 28,28 0 0 1 59.982422,32.251953 28,28 0 0 0 60,32 28,28 0 0 0 32,4 Z"
       id="path5" />
    <path
       style="opacity:0.1;fill:#ffffff"
       d="M 22.917969,24 C 21.852225,24 21,24.825164 21,25.857422 v 1 C 21,25.825164 21.852225,25 22.917969,25 h 14.919922 c 2.675236,0 4.878352,1.980977 5.134765,4.507812 C 42.989553,29.338844 43,29.169486 43,29 43,26.242396 40.68495,24 37.837891,24 Z m 15.953125,5.941406 C 38.595726,30.514462 37.911857,31.019415 37.201172,31 H 25 v 1 H 37.201172 C 38.121587,32.025144 39,31.170504 39,30.427734 39,30.261136 38.95244,30.096677 38.871094,29.941406 Z m 0.03125,5.451172 c -0.246646,0.05795 -0.499543,0.09533 -0.757813,0.109375 l 0.04492,0.01367 L 41.837891,40 h 0.8125 z"
       id="path6" />
  </g>
</svg>
