<?xml version="1.0" encoding="UTF-8" standalone="no"?>
<svg
   width="62"
   height="62"
   version="1.1"
   id="svg29"
   sodipodi:docname="net.baseart.Glide.svg"
   inkscape:version="1.4 (unknown)"
   xmlns:inkscape="http://www.inkscape.org/namespaces/inkscape"
   xmlns:sodipodi="http://sodipodi.sourceforge.net/DTD/sodipodi-0.dtd"
   xmlns:xlink="http://www.w3.org/1999/xlink"
   xmlns="http://www.w3.org/2000/svg"
   xmlns:svg="http://www.w3.org/2000/svg">
  <defs
     id="defs29">
    <linearGradient
       id="linearGradient29"
       inkscape:collect="always">
      <stop
         style="stop-color:#2d3c52;stop-opacity:1;"
         offset="0"
         id="stop29" />
      <stop
         style="stop-color:#3f5174;stop-opacity:1;"
         offset="1"
         id="stop30" />
    </linearGradient>
    <linearGradient
       inkscape:collect="always"
       xlink:href="#linearGradient29"
       id="linearGradient30"
       x1="30.782633"
       y1="60"
       x2="30.193521"
       y2="5"
       gradientUnits="userSpaceOnUse"
       gradientTransform="matrix(0.98214286,0,0,0.98245614,-0.42857152,-0.92982455)" />
    <linearGradient
       id="paint1_linear_11_148"
       x1="12.6932"
       y1="20.5312"
       x2="12.6932"
       y2="5.6079102"
       gradientUnits="userSpaceOnUse"
       gradientTransform="matrix(2.6803705,0,0,2.6803705,-3.022395,-3.5399929)">
      <stop
         stop-color="#FD5900"
         id="stop4" />
      <stop
         offset="1"
         stop-color="#FFDE00"
         id="stop5" />
    </linearGradient>
    <filter
       id="b"
       width="1.299904"
       height="1.2883692"
       x="-0.149952"
       y="-0.14418462"
       color-interpolation-filters="sRGB">
      <feGaussianBlur
         stdDeviation="1.562"
         id="feGaussianBlur22" />
    </filter>
    <linearGradient
       id="c-3"
       x1="19.570999"
       x2="43.064999"
       y1="34.216999"
       y2="34.216999"
       gradientUnits="userSpaceOnUse">
      <stop
         offset="0"
         stop-color="#e9be35"
         id="stop7-6" />
      <stop
         offset="1"
         stop-color="#cc7533"
         id="stop9" />
    </linearGradient>
    <filter
       id="d-7"
       width="1.2307799"
       height="1.6013072"
       x="-0.11538997"
       y="-0.30065359"
       color-interpolation-filters="sRGB">
      <feGaussianBlur
         stdDeviation="1.035"
         id="feGaussianBlur25" />
    </filter>
    <linearGradient
       id="e-5"
       x1="18.070999"
       x2="21.070999"
       y1="24.716999"
       y2="24.716999"
       gradientUnits="userSpaceOnUse">
      <stop
         offset="0"
         stop-color="#ffc086"
         id="stop17" />
      <stop
         offset="1"
         stop-color="#ffd59c"
         id="stop19" />
    </linearGradient>
    <linearGradient
       id="f-3"
       x1="25.070999"
       x2="43.070999"
       y1="25.216999"
       y2="25.216999"
       gradientUnits="userSpaceOnUse">
      <stop
         offset="0"
         stop-color="#fdfa21"
         id="stop12" />
      <stop
         offset="1"
         stop-color="#fdbe21"
         id="stop14" />
    </linearGradient>
    <filter
       id="g-5"
       width="2.6559999"
       height="2.242"
       x="-0.82799997"
       y="-0.62099998"
       color-interpolation-filters="sRGB">
      <feGaussianBlur
         stdDeviation="1.035"
         id="feGaussianBlur28" />
    </filter>
    <linearGradient
       id="4"
       x1="19.277"
       y1="13.767"
       x2="18.489"
       y2="-49.633999"
       gradientUnits="userSpaceOnUse"
       gradientTransform="matrix(0.25883298,0,0,0.25761365,38.268572,30.669904)">
      <stop
         stop-color="#74cb32"
         id="stop3" />
      <stop
         stop-color="#abeb6b"
         offset="1"
         id="stop4-3" />
    </linearGradient>
    <linearGradient
       id="2"
       gradientUnits="userSpaceOnUse"
       x1="-54.200001"
       y1="5.6680002"
       x2="-53.909"
       y2="-58.645"
       gradientTransform="matrix(0.25883298,0,0,0.25761365,38.268572,30.669904)">
      <stop
         stop-color="#197ff1"
         id="stop5-5" />
      <stop
         stop-color="#21c6fb"
         offset="1"
         id="stop6" />
    </linearGradient>
    <linearGradient
       id="3"
       x1="-26.393999"
       y1="73.099998"
       x2="-25.889"
       y2="-11.725"
       gradientUnits="userSpaceOnUse"
       gradientTransform="matrix(0.25883298,0,0,0.25761365,38.268572,30.669904)">
      <stop
         stop-color="#ffbc00"
         id="stop1" />
      <stop
         stop-color="#ffec00"
         offset="1"
         id="stop2" />
    </linearGradient>
    <linearGradient
       xlink:href="#0"
       id="5"
       x1="-46.07"
       y1="107.64"
       x2="-45.130001"
       y2="-95.68"
       gradientUnits="userSpaceOnUse"
       gradientTransform="matrix(0.25883298,0,0,0.25761365,38.268572,30.669904)" />
    <linearGradient
       id="0">
      <stop
         stop-color="#2e3436"
         id="stop7" />
      <stop
         offset="1"
         stop-color="#555753"
         id="stop8" />
    </linearGradient>
  </defs>
  <sodipodi:namedview
     id="namedview29"
     pagecolor="#ffffff"
     bordercolor="#000000"
     borderopacity="0.25"
     inkscape:showpageshadow="2"
     inkscape:pageopacity="0.0"
     inkscape:pagecheckerboard="0"
     inkscape:deskcolor="#d1d1d1"
     inkscape:zoom="7.0710678"
     inkscape:cx="20.435386"
     inkscape:cy="37.405949"
     inkscape:window-width="1920"
     inkscape:window-height="998"
     inkscape:window-x="0"
     inkscape:window-y="0"
     inkscape:window-maximized="1"
     inkscape:current-layer="svg29" />
  <rect
     style="opacity:0.2;stroke-width:0.9823"
     width="55"
     height="55.017544"
     x="3.5"
     y="3.9824562"
     ry="13.754386"
     id="rect1" />
  <rect
     style="fill:url(#linearGradient30);stroke-width:0.9823"
     width="55"
     height="55.017544"
     x="3.5"
     y="3"
     ry="13.754386"
     id="rect2" />
  <path
     style="opacity:0.1;fill:#ffffff;stroke-width:0.9823"
     d="M 17.25,3 C 9.6324999,3 3.4999999,9.1344561 3.4999999,16.754386 v 0.982456 c 0,-7.61993 6.1325,-13.7543858 13.7500001,-13.7543858 h 27.5 c 7.6175,0 13.75,6.1344558 13.75,13.7543858 V 16.754386 C 58.5,9.1344561 52.3675,3 44.75,3 Z"
     id="path28" />
  <g
     id="g1"
     transform="matrix(1.010778,0,0,1.0125145,11.489222,-52.775899)">
    <path
       d="M 6.524,62.000191 A 5.574,5.574 0 0 0 1,67.574191 v 30.156 a 5.75,5.75 0 0 0 8.428,5.088999 l 28.38,-14.936999 a 5.179,5.179 0 0 0 0.124,-9.097 l -28.627,-16.072 a 5.6,5.6 0 0 0 -2.781,-0.713 m 4.328,10.733 a 1.7,1.7 0 0 1 0.551,0.194 l 15.814,8.88 a 1.58,1.58 0 0 1 0.805,1.393 1.58,1.58 0 0 1 -0.842,1.371 l -15.74,8.285 a 1.748,1.748 0 0 1 -2.56,-1.547 v -16.905 a 1.695,1.695 0 0 1 1.971,-1.67"
       style="fill:#c071c8;fill-opacity:1"
       id="path9-3" />
    <path
       d="m 10.019,63.112191 17.197,18.693 a 1.58,1.58 0 0 1 0.805,1.395 1.58,1.58 0 0 1 -0.842,1.37 l -15.74,8.286 23.158,-3.286 3.209,-1.69 a 5.179,5.179 0 0 0 0.125,-9.098 z"
       style="fill:#ffcc00;fill-opacity:1"
       id="path10-6" />
    <path
       d="M 8.879,74.403191 1,90.823191 v 6.908 a 5.75,5.75 0 0 0 8.428,5.087999 l 25.236,-13.282999 -22.652,3.125 -0.112,-0.047 -0.46,0.242 a 1.748,1.748 0 0 1 -2.561,-1.546 z"
       style="fill:#00ccff;fill-opacity:1"
       id="path11-7" />
  </g>
</svg>
