<?xml version="1.0" encoding="UTF-8" standalone="no"?>
<svg
   width="62"
   height="62"
   version="1.1"
   id="svg29"
   sodipodi:docname="tabletop-simulator.svg"
   inkscape:version="1.4 (unknown)"
   xmlns:inkscape="http://www.inkscape.org/namespaces/inkscape"
   xmlns:sodipodi="http://sodipodi.sourceforge.net/DTD/sodipodi-0.dtd"
   xmlns:xlink="http://www.w3.org/1999/xlink"
   xmlns="http://www.w3.org/2000/svg"
   xmlns:svg="http://www.w3.org/2000/svg">
  <defs
     id="defs29">
    <linearGradient
       id="linearGradient29"
       inkscape:collect="always">
      <stop
         style="stop-color:#2d3d53;stop-opacity:1;"
         offset="0"
         id="stop29" />
      <stop
         style="stop-color:#354864;stop-opacity:1;"
         offset="1"
         id="stop30" />
    </linearGradient>
    <linearGradient
       inkscape:collect="always"
       xlink:href="#linearGradient29"
       id="linearGradient30"
       x1="30.782633"
       y1="60"
       x2="30.193521"
       y2="5"
       gradientUnits="userSpaceOnUse"
       gradientTransform="matrix(0.98214286,0,0,0.98245614,-0.42857152,-0.92982455)" />
  </defs>
  <sodipodi:namedview
     id="namedview29"
     pagecolor="#ffffff"
     bordercolor="#000000"
     borderopacity="0.25"
     inkscape:showpageshadow="2"
     inkscape:pageopacity="0.0"
     inkscape:pagecheckerboard="0"
     inkscape:deskcolor="#d1d1d1"
     inkscape:zoom="7.0710678"
     inkscape:cx="20.576807"
     inkscape:cy="48.436815"
     inkscape:window-width="1920"
     inkscape:window-height="998"
     inkscape:window-x="0"
     inkscape:window-y="0"
     inkscape:window-maximized="1"
     inkscape:current-layer="svg29" />
  <rect
     style="opacity:0.2;stroke-width:0.9823"
     width="55"
     height="55.017544"
     x="3.5"
     y="3.9824562"
     ry="13.754386"
     id="rect1" />
  <rect
     style="fill:url(#linearGradient30);stroke-width:0.9823"
     width="55"
     height="55.017544"
     x="3.5"
     y="3"
     ry="13.754386"
     id="rect2" />
  <path
     style="opacity:0.1;fill:#ffffff;stroke-width:0.9823"
     d="M 17.25,3 C 9.6324999,3 3.4999999,9.1344561 3.4999999,16.754386 v 0.982456 c 0,-7.61993 6.1325,-13.7543858 13.7500001,-13.7543858 h 27.5 c 7.6175,0 13.75,6.1344558 13.75,13.7543858 V 16.754386 C 58.5,9.1344561 52.3675,3 44.75,3 Z"
     id="path28" />
  <g
     id="g1"
     transform="matrix(0.74137931,0,0,0.74074067,-0.69396487,-45.978002)">
    <rect
       style="opacity:0.2"
       width="29"
       height="16"
       x="-57.75"
       y="108.92031"
       rx="2.7620001"
       ry="2.6670001"
       transform="scale(-1,1)"
       id="rect1-36" />
    <rect
       style="opacity:0.2"
       width="29"
       height="16"
       x="27.75"
       y="83.920311"
       rx="2.7620001"
       ry="2.6670001"
       id="rect2-7" />
    <path
       style="opacity:0.2"
       d="m 52.343089,102.92153 a 2.5195351,2.8647506 0 0 1 1.185834,0.38324 l 8.48044,5.56668 8.480437,5.56668 a 2.5195351,2.8647506 0 0 1 0,4.96246 l -8.480437,5.56669 -8.48044,5.56948 a 2.5195351,2.8647506 0 0 1 -3.778924,-2.48123 V 105.786 a 2.5195351,2.8647506 0 0 1 2.59309,-2.86447 z"
       id="path2-5" />
    <path
       style="opacity:0.2"
       d="m 33.15691,77.921531 a 2.519535,2.8647506 0 0 0 -1.185836,0.383235 l -8.480439,5.566683 -8.480436,5.566683 a 2.519535,2.8647506 0 0 0 0,4.962461 l 8.480436,5.566683 8.480439,5.569484 a 2.519535,2.8647506 0 0 0 3.778925,-2.48123 V 80.785995 A 2.519535,2.8647506 0 0 0 33.15691,77.921531 Z"
       id="path3-3" />
    <rect
       style="fill:#1f63e0;fill-opacity:1"
       width="29"
       height="16"
       x="-57.75"
       y="107.92031"
       rx="2.7620001"
       ry="2.6670001"
       transform="scale(-1,1)"
       id="rect3" />
    <path
       style="opacity:0.1;fill:#ffffff"
       d="m 31.511718,107.92031 c -1.530095,0 -2.761719,1.18868 -2.761719,2.66602 v 1 c 0,-1.47734 1.231624,-2.66602 2.761719,-2.66602 H 54.98828 c 1.530095,0 2.761719,1.18868 2.761719,2.66602 v -1 c 0,-1.47734 -1.231624,-2.66602 -2.761719,-2.66602 z"
       id="path4-5" />
    <rect
       style="fill:#59a30f;fill-opacity:1"
       width="29"
       height="16"
       x="27.75"
       y="82.920311"
       rx="2.7620001"
       ry="2.6670001"
       id="rect4" />
    <path
       style="opacity:0.1;fill:#ffffff"
       d="m 30.511718,82.920311 c -1.530095,0 -2.761719,1.188682 -2.761719,2.666016 v 1 c 0,-1.477334 1.231624,-2.666016 2.761719,-2.666016 H 53.98828 c 1.530095,0 2.761719,1.188682 2.761719,2.666016 v -1 c 0,-1.477334 -1.231624,-2.666016 -2.761719,-2.666016 z"
       id="path5" />
    <path
       style="fill:#51aefa;fill-opacity:1"
       d="m 52.343089,101.92153 a 2.5195351,2.8647506 0 0 1 1.185834,0.38324 l 8.48044,5.56668 8.480437,5.56668 a 2.5195351,2.8647506 0 0 1 0,4.96246 l -8.480437,5.56669 -8.48044,5.56948 a 2.5195351,2.8647506 0 0 1 -3.778924,-2.48123 V 104.786 a 2.5195351,2.8647506 0 0 1 2.59309,-2.86447 z"
       id="path6" />
    <path
       style="fill:#96e718;fill-opacity:1"
       d="m 33.15691,76.921531 a 2.519535,2.8647506 0 0 0 -1.185836,0.383235 l -8.480439,5.566683 -8.480436,5.566683 a 2.519535,2.8647506 0 0 0 0,4.962461 l 8.480436,5.566683 8.480439,5.569484 a 2.519535,2.8647506 0 0 0 3.778925,-2.48123 V 79.785995 A 2.519535,2.8647506 0 0 0 33.15691,76.921531 Z"
       id="path7" />
    <path
       style="opacity:0.2;fill:#ffffff"
       d="m 52.341796,101.92226 a 2.5195351,2.8647506 0 0 0 -2.591797,2.86329 v 1 a 2.5195351,2.8647506 0 0 1 2.59375,-2.86329 2.5195351,2.8647506 0 0 1 1.185547,0.38282 l 8.480469,5.5664 8.480468,5.56641 a 2.5195351,2.8647506 0 0 1 1.21875,1.98047 2.5195351,2.8647506 0 0 0 -1.21875,-2.98047 l -8.480468,-5.56641 -8.480469,-5.5664 a 2.5195351,2.8647506 0 0 0 -1.185547,-0.38282 2.5195351,2.8647506 0 0 1 -0.002,0 z"
       id="path8-6" />
    <path
       style="opacity:0.2;fill:#ffffff"
       d="m 33.156249,76.922264 a 2.519535,2.8647506 0 0 0 -1.185547,0.382813 L 15.009765,88.437889 a 2.519535,2.8647506 0 0 0 -1.21875,2.980469 2.519535,2.8647506 0 0 1 1.21875,-1.980469 L 31.970702,78.305077 a 2.519535,2.8647506 0 0 1 1.185547,-0.382813 2.519535,2.8647506 0 0 1 2.59375,2.863281 v -1 a 2.519535,2.8647506 0 0 0 -2.59375,-2.863281 z"
       id="path9" />
  </g>
</svg>
