<?xml version="1.0" encoding="UTF-8" standalone="no"?>
<svg
   width="62"
   height="62"
   viewBox="0 0 16.404166 16.404167"
   version="1.1"
   id="svg1443"
   inkscape:version="1.4.1 (unknown)"
   sodipodi:docname="netsniff-ng.svg"
   xmlns:inkscape="http://www.inkscape.org/namespaces/inkscape"
   xmlns:sodipodi="http://sodipodi.sourceforge.net/DTD/sodipodi-0.dtd"
   xmlns:xlink="http://www.w3.org/1999/xlink"
   xmlns="http://www.w3.org/2000/svg"
   xmlns:svg="http://www.w3.org/2000/svg"
   xmlns:rdf="http://www.w3.org/1999/02/22-rdf-syntax-ns#"
   xmlns:cc="http://creativecommons.org/ns#"
   xmlns:dc="http://purl.org/dc/elements/1.1/">
  <defs
     id="defs1437">
    <linearGradient
       gradientTransform="matrix(0.4711726,0,0,0.47114666,-53.953909,-18.000765)"
       gradientUnits="userSpaceOnUse"
       y2="70.679932"
       x2="132.21078"
       y1="42.151531"
       x1="132.21078"
       id="linearGradient1632"
       xlink:href="#linearGradient1630"
       inkscape:collect="always" />
    <linearGradient
       id="linearGradient1630"
       inkscape:collect="always">
      <stop
         id="stop1626"
         offset="0"
         style="stop-color:#fafafc;stop-opacity:1" />
      <stop
         id="stop1628"
         offset="1"
         style="stop-color:#e2e6ea;stop-opacity:1" />
    </linearGradient>
    <filter
       color-interpolation-filters="sRGB"
       height="1.1311001"
       width="1.1106"
       y="-0.065563001"
       x="-0.055319"
       id="c-9">
      <feGaussianBlur
         id="feGaussianBlur1093"
         stdDeviation="1.1062912" />
    </filter>
    <linearGradient
       gradientUnits="userSpaceOnUse"
       gradientTransform="matrix(0.13235,0,0,0.13075,-32.379,1.0873)"
       y2="269.48999"
       y1="235.14999"
       x2="657.65002"
       x1="319.20999"
       id="a-12">
      <stop
         id="stop1076"
         offset="0"
         stop-color="#e54c18" />
      <stop
         id="stop1078"
         offset="1"
         stop-color="#fec350" />
    </linearGradient>
    <linearGradient
       id="paint1_linear_8_721"
       x1="12.0001"
       y1="14.825"
       x2="12.0001"
       y2="8.7750196"
       gradientUnits="userSpaceOnUse"
       gradientTransform="matrix(0.58965537,0,0,0.59037149,1.1261742,1.2356487)">
      <stop
         stop-color="#02AA93"
         id="stop4" />
      <stop
         offset="1"
         stop-color="#67FF80"
         id="stop5" />
    </linearGradient>
    <linearGradient
       id="linear0"
       gradientUnits="userSpaceOnUse"
       x1="0"
       y1="0"
       x2="0"
       y2="1"
       gradientTransform="matrix(68.686472,0,0,43.89438,-2.487702,8.992595)">
      <stop
         offset="0"
         style="stop-color:#2478ff;stop-opacity:1;"
         id="stop1" />
      <stop
         offset="1"
         style="stop-color:#0049bf;stop-opacity:1;"
         id="stop2" />
    </linearGradient>
  </defs>
  <sodipodi:namedview
     id="base"
     pagecolor="#ffffff"
     bordercolor="#666666"
     borderopacity="1.0"
     inkscape:pageopacity="0.0"
     inkscape:pageshadow="2"
     inkscape:zoom="7.9195959"
     inkscape:cx="26.642774"
     inkscape:cy="33.96638"
     inkscape:document-units="px"
     inkscape:current-layer="layer1"
     inkscape:document-rotation="0"
     showgrid="false"
     units="px"
     inkscape:window-width="1920"
     inkscape:window-height="996"
     inkscape:window-x="0"
     inkscape:window-y="0"
     inkscape:window-maximized="1"
     inkscape:showpageshadow="2"
     inkscape:pagecheckerboard="0"
     inkscape:deskcolor="#d1d1d1" />
  <metadata
     id="metadata1440">
    <rdf:RDF>
      <cc:Work
         rdf:about="">
        <dc:format>image/svg+xml</dc:format>
        <dc:type
           rdf:resource="http://purl.org/dc/dcmitype/StillImage" />
      </cc:Work>
    </rdf:RDF>
  </metadata>
  <g
     inkscape:label="Capa 1"
     inkscape:groupmode="layer"
     id="layer1">
    <g
       style="opacity:0.295"
       transform="matrix(0.47117252,0,0,0.47114656,-31.72741,-18.000762)"
       id="g1702">
      <rect
         ry="6.6098609"
         rx="6.6098609"
         y="40.709618"
         x="69.839508"
         height="29.810888"
         width="29.810888"
         id="rect1634"
         style="fill:none;fill-opacity:1;stroke:#000000;stroke-width:0.1;stroke-linecap:round;stroke-linejoin:round;stroke-miterlimit:4;stroke-dasharray:none;stroke-opacity:0.02" />
      <rect
         style="fill:none;fill-opacity:1;stroke:#000000;stroke-width:0.2;stroke-linecap:round;stroke-linejoin:round;stroke-miterlimit:4;stroke-dasharray:none;stroke-opacity:0.02"
         id="rect1638"
         width="29.810888"
         height="29.810888"
         x="69.839508"
         y="40.709618"
         rx="6.6098609"
         ry="6.6098609" />
      <rect
         ry="6.6098609"
         rx="6.6098609"
         y="40.709618"
         x="69.839508"
         height="29.810888"
         width="29.810888"
         id="rect1640"
         style="fill:none;fill-opacity:1;stroke:#000000;stroke-width:0.3;stroke-linecap:round;stroke-linejoin:round;stroke-miterlimit:4;stroke-dasharray:none;stroke-opacity:0.02" />
      <rect
         style="fill:none;fill-opacity:1;stroke:#000000;stroke-width:0.4;stroke-linecap:round;stroke-linejoin:round;stroke-miterlimit:4;stroke-dasharray:none;stroke-opacity:0.02"
         id="rect1642"
         width="29.810888"
         height="29.810888"
         x="69.839508"
         y="40.709618"
         rx="6.6098609"
         ry="6.6098609" />
      <rect
         ry="6.6098609"
         rx="6.6098609"
         y="40.709618"
         x="69.839508"
         height="29.810888"
         width="29.810888"
         id="rect1644"
         style="fill:none;fill-opacity:1;stroke:#000000;stroke-width:0.5;stroke-linecap:round;stroke-linejoin:round;stroke-miterlimit:4;stroke-dasharray:none;stroke-opacity:0.02" />
      <rect
         style="fill:none;fill-opacity:1;stroke:#000000;stroke-width:0.6;stroke-linecap:round;stroke-linejoin:round;stroke-miterlimit:4;stroke-dasharray:none;stroke-opacity:0.02"
         id="rect1646"
         width="29.810888"
         height="29.810888"
         x="69.839508"
         y="40.709618"
         rx="6.6098609"
         ry="6.6098609" />
      <rect
         ry="6.6098609"
         rx="6.6098609"
         y="40.709618"
         x="69.839508"
         height="29.810888"
         width="29.810888"
         id="rect1648"
         style="fill:none;fill-opacity:1;stroke:#000000;stroke-width:0.7;stroke-linecap:round;stroke-linejoin:round;stroke-miterlimit:4;stroke-dasharray:none;stroke-opacity:0.02" />
      <rect
         style="fill:none;fill-opacity:1;stroke:#000000;stroke-width:0.8;stroke-linecap:round;stroke-linejoin:round;stroke-miterlimit:4;stroke-dasharray:none;stroke-opacity:0.02"
         id="rect1650"
         width="29.810888"
         height="29.810888"
         x="69.839508"
         y="40.709618"
         rx="6.6098609"
         ry="6.6098609" />
      <rect
         ry="6.6098609"
         rx="6.6098609"
         y="40.709618"
         x="69.839508"
         height="29.810888"
         width="29.810888"
         id="rect1652"
         style="fill:none;fill-opacity:1;stroke:#000000;stroke-width:1;stroke-linecap:round;stroke-linejoin:round;stroke-miterlimit:4;stroke-dasharray:none;stroke-opacity:0.02" />
      <rect
         style="fill:none;fill-opacity:1;stroke:#000000;stroke-width:1.2;stroke-linecap:round;stroke-linejoin:round;stroke-miterlimit:4;stroke-dasharray:none;stroke-opacity:0.02"
         id="rect1654"
         width="29.810888"
         height="29.810888"
         x="69.839508"
         y="40.709618"
         rx="6.6098609"
         ry="6.6098609" />
      <rect
         ry="6.6098609"
         rx="6.6098609"
         y="40.709618"
         x="69.839508"
         height="29.810888"
         width="29.810888"
         id="rect1656"
         style="fill:none;fill-opacity:1;stroke:#000000;stroke-width:1.4;stroke-linecap:round;stroke-linejoin:round;stroke-miterlimit:4;stroke-dasharray:none;stroke-opacity:0.02" />
      <rect
         style="fill:none;fill-opacity:1;stroke:#000000;stroke-width:1.6;stroke-linecap:round;stroke-linejoin:round;stroke-miterlimit:4;stroke-dasharray:none;stroke-opacity:0.02"
         id="rect1658"
         width="29.810888"
         height="29.810888"
         x="69.839508"
         y="40.709618"
         rx="6.6098609"
         ry="6.6098609" />
      <rect
         ry="6.6098609"
         rx="6.6098609"
         y="40.709618"
         x="69.839508"
         height="29.810888"
         width="29.810888"
         id="rect1660"
         style="fill:none;fill-opacity:1;stroke:#000000;stroke-width:1.8;stroke-linecap:round;stroke-linejoin:round;stroke-miterlimit:4;stroke-dasharray:none;stroke-opacity:0.02" />
      <rect
         style="fill:none;fill-opacity:1;stroke:#000000;stroke-width:2;stroke-linecap:round;stroke-linejoin:round;stroke-miterlimit:4;stroke-dasharray:none;stroke-opacity:0.02"
         id="rect1662"
         width="29.810888"
         height="29.810888"
         x="69.839508"
         y="40.709618"
         rx="6.6098609"
         ry="6.6098609" />
      <rect
         ry="6.6098609"
         rx="6.6098609"
         y="40.709618"
         x="69.839508"
         height="29.810888"
         width="29.810888"
         id="rect1664"
         style="fill:none;fill-opacity:1;stroke:#000000;stroke-width:2.2;stroke-linecap:round;stroke-linejoin:round;stroke-miterlimit:4;stroke-dasharray:none;stroke-opacity:0.02" />
      <rect
         style="fill:none;fill-opacity:1;stroke:#000000;stroke-width:2.6;stroke-linecap:round;stroke-linejoin:round;stroke-miterlimit:4;stroke-dasharray:none;stroke-opacity:0.02"
         id="rect1666"
         width="29.810888"
         height="29.810888"
         x="69.839508"
         y="40.709618"
         rx="6.6098609"
         ry="6.6098609" />
      <rect
         ry="6.6098609"
         rx="6.6098609"
         y="40.709618"
         x="69.839508"
         height="29.810888"
         width="29.810888"
         id="rect1668"
         style="fill:none;fill-opacity:1;stroke:#000000;stroke-width:3;stroke-linecap:round;stroke-linejoin:round;stroke-miterlimit:4;stroke-dasharray:none;stroke-opacity:0.02" />
      <rect
         style="fill:none;fill-opacity:1;stroke:#000000;stroke-width:3.4;stroke-linecap:round;stroke-linejoin:round;stroke-miterlimit:4;stroke-dasharray:none;stroke-opacity:0.02"
         id="rect1670"
         width="29.810888"
         height="29.810888"
         x="69.839508"
         y="40.709618"
         rx="6.6098609"
         ry="6.6098609" />
      <rect
         ry="6.6098609"
         rx="6.6098609"
         y="40.709618"
         x="69.839508"
         height="29.810888"
         width="29.810888"
         id="rect1672"
         style="fill:none;fill-opacity:1;stroke:#000000;stroke-width:3.8;stroke-linecap:round;stroke-linejoin:round;stroke-miterlimit:4;stroke-dasharray:none;stroke-opacity:0.02" />
      <rect
         style="fill:none;fill-opacity:1;stroke:#000000;stroke-width:4.2;stroke-linecap:round;stroke-linejoin:round;stroke-miterlimit:4;stroke-dasharray:none;stroke-opacity:0.02"
         id="rect1674"
         width="29.810888"
         height="29.810888"
         x="69.839508"
         y="40.709618"
         rx="6.6098609"
         ry="6.6098609" />
      <rect
         ry="6.6098609"
         rx="6.6098609"
         y="40.709618"
         x="69.839508"
         height="29.810888"
         width="29.810888"
         id="rect1676"
         style="fill:none;fill-opacity:1;stroke:#000000;stroke-width:4.6;stroke-linecap:round;stroke-linejoin:round;stroke-miterlimit:4;stroke-dasharray:none;stroke-opacity:0.02" />
      <rect
         style="fill:none;fill-opacity:1;stroke:#000000;stroke-width:5;stroke-linecap:round;stroke-linejoin:round;stroke-miterlimit:4;stroke-dasharray:none;stroke-opacity:0.02"
         id="rect1678"
         width="29.810888"
         height="29.810888"
         x="69.839508"
         y="40.709618"
         rx="6.6098609"
         ry="6.6098609" />
    </g>
    <rect
       ry="3.1142132"
       rx="3.1143851"
       y="1.1794344"
       x="1.1790471"
       height="14.045296"
       width="14.04607"
       id="rect849"
       style="fill:url(#linearGradient1632);fill-opacity:1;stroke-width:1.29783;stroke-linecap:round;stroke-linejoin:round" />
    <g
       id="g10"
       transform="matrix(0.25280738,0,0,0.2535589,-7.7666343,-5.7431309)">
      <rect
         x="46.810528"
         y="46.07222"
         width="32.711319"
         height="32.925716"
         style="stroke-width:0.106666;paint-order:stroke fill markers;fill:#373e48"
         id="rect1"
         ry="6.4500337"
         rx="5.7818756" />
      <path
         d="m 47.171061,30.999328 c -0.141439,0.03302 -0.892956,0.731784 -1.745485,1.627513 -0.909372,0.955377 -2.121804,2.441375 -2.694281,3.301745 -0.572478,0.860454 -1.263568,2.06783 -1.53578,2.683401 -0.272201,0.615581 -0.620968,1.653539 -0.77494,2.306442 -0.153973,0.653032 -0.279722,1.709646 -0.279445,2.348363 2.78e-4,0.638664 0.128587,1.770765 0.285023,2.515828 0.156447,0.745053 0.593,1.981858 0.970118,2.748255 0.434281,0.882513 1.098022,1.804898 1.810339,2.515828 0.618632,0.617352 1.704419,1.46058 2.413215,1.873698 l 1.183675,0.689842 v -0.02313 l 1.396367,0.475038 c 0.768007,0.261226 1.415673,0.453054 1.43914,0.426505 0.02354,-0.02655 0.756199,-1.882231 1.627939,-4.124034 1.00871,-2.593588 1.395834,-3.871663 1.385274,-4.291927 -1.42186,0.05109 -3.099186,-1.205115 -4.031448,-2.078604 -0.66132,-0.629128 -1.257488,-1.4209 -1.507514,-2.002231 -0.227508,-0.528787 -0.508979,-1.700685 -0.625607,-2.604255 -0.157845,-1.222714 -0.153248,-2.173963 0.01818,-3.720196 0.126655,-1.142608 0.357939,-2.634654 0.513875,-3.315611 0.155935,-0.680915 0.233086,-1.288528 0.171423,-1.350181 -0.0039,-0.0039 -0.0106,-0.0047 -0.02003,-0.0025 z m 31.989186,0 c -0.0094,-0.0022 -0.01597,-0.0014 -0.01983,0.0025 -0.06168,0.06166 0.01529,0.669234 0.171221,1.350181 0.155935,0.681042 0.387198,2.173003 0.513875,3.315611 0.171423,1.54634 0.176212,2.497482 0.01838,3.720196 -0.116629,0.90342 -0.398313,2.075404 -0.625811,2.604255 -0.250068,0.581309 -0.846204,1.373007 -1.507513,2.002231 -1.180688,0.964166 -2.453749,2.078604 -4.031661,2.078604 -0.01041,0.420328 0.37667,1.698445 1.385273,4.291927 0.871826,2.241696 1.604259,4.097368 1.627726,4.124034 0.02354,0.02655 0.671357,-0.165279 1.439353,-0.426505 l 1.396261,-0.475037 v 0.02334 l 1.184101,-0.690045 c 0.708765,-0.413096 1.794872,-1.256314 2.413429,-1.873698 0.712327,-0.710951 1.3761,-1.633379 1.810338,-2.515828 0.377118,-0.766397 0.813468,-2.003084 0.969916,-2.748254 0.156436,-0.745053 0.284916,-1.877218 0.285022,-2.515829 3.2e-4,-0.638663 -0.125471,-1.695459 -0.279444,-2.348362 -0.153972,-0.653032 -0.502717,-1.690873 -0.77494,-2.306443 -0.272159,-0.615581 -0.963302,-1.822925 -1.53578,-2.683401 -0.572477,-0.860455 -1.784951,-2.346229 -2.694281,-3.301745 -0.852508,-0.89575 -1.604046,-1.594553 -1.745485,-1.627512 z"
         fill="#d31818"
         stroke-width="0.193524"
         id="path1" />
      <path
         d="m 51.164643,55.841774 c 0.148447,0.03711 10.465445,2.746228 10.465445,2.746228 0,0 0.635122,4.859604 -4.824511,4.750378 -5.459709,-0.109376 -5.640934,-7.496606 -5.640934,-7.496606 z"
         fill="#ffffff"
         id="path2-3"
         style="stroke-width:0.145151" />
      <path
         d="m 54.644093,56.754837 a 2.6720944,2.6720944 0 0 0 -0.732562,1.833378 2.6720944,2.6720944 0 0 0 2.671881,2.671881 2.6720944,2.6720944 0 0 0 2.671881,-2.671881 2.6720944,2.6720944 0 0 0 -0.08165,-0.644669 C 57.53152,57.512828 56.632964,57.277064 54.64396,56.754858 Z"
         fill="#de0909"
         id="path3"
         style="stroke-width:0.145151" />
      <path
         d="m 55.734222,57.040702 a 1.6699657,1.6699657 0 0 0 -0.820999,1.43594 1.6699657,1.6699657 0 0 0 1.670072,1.670073 1.6699657,1.6699657 0 0 0 1.670072,-1.670073 1.6699657,1.6699657 0 0 0 -0.225663,-0.834044 c -1.034811,-0.271551 -1.174928,-0.308223 -2.293536,-0.601864 z"
         id="path4"
         style="stroke-width:0.145151;fill:#373e48" />
      <path
         d="m 74.445602,55.840708 c -0.148447,0.03711 -10.465445,2.746227 -10.465445,2.746227 0,0 -0.635122,4.859604 4.824511,4.750378 5.459709,-0.109375 5.640934,-7.496605 5.640934,-7.496605 z"
         fill="#ffffff"
         id="path5"
         style="stroke-width:0.145151" />
      <path
         d="m 70.966152,56.75377 a 2.6720944,2.6720944 0 0 1 0.732562,1.833378 2.6720944,2.6720944 0 0 1 -2.671881,2.671881 2.6720944,2.6720944 0 0 1 -2.671882,-2.671881 2.6720944,2.6720944 0 0 1 0.08165,-0.644669 c 1.642126,-0.430718 2.540682,-0.666482 4.529686,-1.188688 z"
         fill="#de0909"
         id="path6"
         style="stroke-width:0.145151" />
      <path
         d="m 69.876023,57.039635 a 1.6699657,1.6699657 0 0 1 0.820999,1.435941 1.6699657,1.6699657 0 0 1 -1.670072,1.670072 1.6699657,1.6699657 0 0 1 -1.670072,-1.670072 1.6699657,1.6699657 0 0 1 0.225663,-0.834045 c 1.034811,-0.27155 1.174927,-0.308222 2.293536,-0.601864 z"
         id="path7-6"
         style="stroke-width:0.145151;fill:#373e48" />
      <path
         d="m 74.444536,55.840708 c -0.148448,0.03711 -10.465339,2.74612 -10.465339,2.74612 0,0 -0.04055,0.314378 -0.01219,0.780519 0.006,-0.08673 0.01219,-0.146026 0.01219,-0.146026 0,0 10.17318,-2.671241 10.416059,-2.733107 0.04242,-0.399092 0.04936,-0.647506 0.04936,-0.647506 z m -23.279893,4.26e-4 c 0,0 0.0071,0.248415 0.04957,0.647507 0.243157,0.06201 10.415846,2.73332 10.415846,2.73332 0,0 0.0064,0.0595 0.01239,0.146645 0.02842,-0.466451 -0.01239,-0.781138 -0.01239,-0.781138 0,0 -10.316966,-2.709214 -10.465339,-2.746334 z"
         opacity="0.3"
         id="path8"
         style="stroke-width:0.145151" />
      <path
         d="m 47.171061,30.999435 c -0.141439,0.03301 -0.893159,0.731783 -1.745699,1.627512 -0.909372,0.955377 -2.12159,2.441376 -2.694067,3.301745 -0.572478,0.860455 -1.263568,2.067831 -1.53578,2.683401 -0.272201,0.615582 -0.621171,1.653539 -0.775143,2.306443 -0.153973,0.653032 -0.279519,1.709646 -0.279242,2.348363 7.6e-5,0.15217 0.0076,0.333502 0.02086,0.529779 0.04175,-0.600702 0.141973,-1.326074 0.258591,-1.820685 0.153973,-0.652925 0.502526,-1.690873 0.774727,-2.306443 0.272212,-0.615507 0.963569,-1.822925 1.535993,-2.683401 0.572531,-0.860423 1.784739,-2.346336 2.694068,-3.301745 0.730738,-0.767794 1.38442,-1.38762 1.646072,-1.570766 0.120213,-0.578931 0.17393,-1.057457 0.119584,-1.111782 -0.0039,-0.0039 -0.0106,-0.0047 -0.02004,-0.0025 z m 31.98812,0 c -0.0094,-0.0022 -0.01597,-0.0014 -0.01983,0.0025 -0.05436,0.05434 -7.47e-4,0.532872 0.11938,1.111781 0.261727,0.183146 0.915196,0.802951 1.645966,1.570767 0.909351,0.955462 2.122017,2.441268 2.694494,3.301744 0.572531,0.860423 1.263675,2.067831 1.53578,2.683401 0.272212,0.615507 0.620754,1.653433 0.774727,2.306443 0.11649,0.493982 0.216767,1.218448 0.258591,1.818765 0.01316,-0.19553 0.02104,-0.376254 0.02107,-0.527912 3.2e-4,-0.638664 -0.125685,-1.695459 -0.279658,-2.348363 C 85.755729,40.26553 85.407186,39.227689 85.134974,38.612119 84.862815,37.996537 84.171672,36.789194 83.599194,35.928718 83.026717,35.068263 81.814029,33.582488 80.9047,32.626973 80.052192,31.731222 79.300654,31.03242 79.159215,30.99946 Z m -32.77425,7.21522 c -0.03236,0.782194 0.0015,1.45194 0.102031,2.230603 0.116639,0.903527 0.398099,2.075511 0.625607,2.604255 0.250079,0.581341 0.846215,1.373114 1.507513,2.002231 0.883207,0.827516 2.434976,1.997751 3.80489,2.075297 0.157727,-0.527315 0.231284,-0.874833 0.226783,-1.054182 -1.421861,0.05109 -3.099186,-1.205114 -4.031449,-2.078604 -0.661319,-0.629127 -1.257487,-1.4209 -1.507513,-2.00223 -0.227508,-0.528787 -0.509181,-1.700686 -0.625821,-2.604255 -0.05302,-0.410686 -0.08583,-0.790898 -0.10203,-1.173115 z m 33.560379,0.0021 c -0.0162,0.381577 -0.04911,0.761117 -0.102031,1.171088 -0.116629,0.90342 -0.398313,2.075404 -0.625811,2.604255 -0.250068,0.581309 -0.846204,1.373007 -1.507513,2.002231 -1.180688,0.964166 -2.453748,2.078604 -4.031661,2.078604 -0.0044,0.178793 0.06848,0.524616 0.225129,1.049019 1.47466,-0.09922 2.682655,-1.152315 3.80649,-2.070177 0.66133,-0.62916 1.257487,-1.420901 1.507513,-2.002231 0.227508,-0.528873 0.509181,-1.700899 0.62581,-2.604255 0.100424,-0.77797 0.134314,-1.447247 0.102032,-2.228576 z"
         fill="#ffffff"
         opacity="0.2"
         stroke-width="1.8143"
         id="path9" />
      <path
         d="m 47.171061,30.999435 c -0.02053,0.0048 -0.05741,0.02734 -0.102083,0.05875 -0.01554,0.07449 -0.03173,0.150026 -0.04938,0.227081 -0.155935,0.680914 -0.387294,2.173004 -0.51396,3.315612 -0.114111,1.029318 -0.152447,1.794978 -0.119999,2.552521 0.01853,-0.445064 0.05792,-0.925819 0.119999,-1.48586 0.126656,-1.142608 0.358025,-2.634654 0.51396,-3.315611 0.155936,-0.680914 0.233119,-1.288314 0.171456,-1.349967 -0.0039,-0.0039 -0.01057,-0.0047 -0.02,-0.0025 z m 31.98812,0 c -0.0094,-0.0022 -0.01594,-0.0014 -0.01979,0.0025 -0.06168,0.06166 0.01531,0.669074 0.171252,1.349967 0.155936,0.681042 0.387071,2.173003 0.513747,3.315611 0.06208,0.560009 0.101646,1.040764 0.120213,1.48586 0.03238,-0.757554 -0.0061,-1.523193 -0.120213,-2.552521 -0.126676,-1.142608 -0.357811,-2.634548 -0.513747,-3.315612 -0.01765,-0.07705 -0.03405,-0.152596 -0.04958,-0.227081 -0.04467,-0.03141 -0.08135,-0.05395 -0.101874,-0.05875 z M 40.162026,42.732714 c -0.01367,0.194986 -0.02132,0.377396 -0.02125,0.534163 3.2e-4,0.638664 0.128554,1.770766 0.285002,2.515829 0.156447,0.745052 0.593085,1.981751 0.970203,2.748147 0.434281,0.882513 1.098129,1.805112 1.810445,2.516042 0.618632,0.617352 1.704312,1.46058 2.413109,1.873698 l 1.183781,0.689789 v -0.02312 l 1.396474,0.474995 c 0.768007,0.261225 1.415567,0.453 1.43914,0.426451 0.02354,-0.02655 0.756167,-1.882231 1.627939,-4.123928 1.00871,-2.593588 1.395727,-3.871555 1.385167,-4.29182 -0.07574,0.0027 -0.15233,9.02e-4 -0.229375,-0.0035 -0.21234,0.708317 -0.579944,1.748045 -1.155834,3.228785 -0.87174,2.241696 -1.604366,4.097368 -1.62794,4.123928 -0.02354,0.02655 -0.671154,-0.165226 -1.43914,-0.426452 l -1.396473,-0.474995 v 0.02312 L 45.619493,51.854058 C 44.910674,51.440875 43.825047,50.597637 43.206384,49.98036 42.494078,49.269397 41.830283,48.346874 41.395939,47.464318 41.01882,46.697943 40.582182,45.461234 40.425735,44.71617 40.306738,44.149432 40.204477,43.35991 40.161982,42.732819 Z m 46.006189,0.0019 c -0.04254,0.626791 -0.144884,1.415353 -0.263753,1.981431 -0.156448,0.745105 -0.592883,1.98175 -0.970001,2.748147 -0.434259,0.882535 -1.097915,1.805112 -1.810232,2.516042 -0.618557,0.617384 -1.704739,1.460686 -2.413535,1.873698 l -1.183995,0.690002 v -0.02333 l -1.39626,0.474995 c -0.768018,0.261225 -1.41578,0.453011 -1.439354,0.426451 -0.02351,-0.02656 -0.755868,-1.882231 -1.627725,-4.123927 -0.577182,-1.484154 -0.945191,-2.525322 -1.157329,-3.233692 -0.07537,0.0051 -0.151337,0.0085 -0.228126,0.0085 -0.01041,0.420328 0.376819,1.698445 1.38538,4.29182 0.871825,2.241696 1.604152,4.097368 1.627726,4.123928 0.02354,0.02655 0.671346,-0.165226 1.439353,-0.426452 l 1.39626,-0.474995 v 0.02333 l 1.183995,-0.690002 c 0.708765,-0.413097 1.794978,-1.256314 2.413536,-1.873698 0.712327,-0.710951 1.375887,-1.633486 1.810231,-2.516042 0.377118,-0.766396 0.813554,-2.002977 0.970001,-2.748147 0.156437,-0.745053 0.284895,-1.877112 0.285001,-2.515829 7.8e-5,-0.156244 -0.0077,-0.338025 -0.02125,-0.532285 z"
         opacity="0.3"
         stroke-width="1.8143"
         id="path10" />
    </g>
  </g>
</svg>
