<?xml version="1.0" encoding="UTF-8" standalone="no"?>
<svg
   width="62"
   height="62"
   version="1.1"
   id="svg18"
   sodipodi:docname="night-in-the-woods.svg"
   inkscape:version="1.4.2 (unknown)"
   xmlns:inkscape="http://www.inkscape.org/namespaces/inkscape"
   xmlns:sodipodi="http://sodipodi.sourceforge.net/DTD/sodipodi-0.dtd"
   xmlns="http://www.w3.org/2000/svg"
   xmlns:svg="http://www.w3.org/2000/svg">
  <defs
     id="defs18" />
  <sodipodi:namedview
     id="namedview18"
     pagecolor="#ffffff"
     bordercolor="#000000"
     borderopacity="0.25"
     inkscape:showpageshadow="2"
     inkscape:pageopacity="0.0"
     inkscape:pagecheckerboard="0"
     inkscape:deskcolor="#d1d1d1"
     inkscape:zoom="5.9453125"
     inkscape:cx="23.800263"
     inkscape:cy="22.454665"
     inkscape:current-layer="svg18" />
  <g
     id="g18"
     transform="translate(-0.99999991,-1.4292823)">
    <path
       style="opacity:0.2"
       d="m 6.2005662,9.8585651 -0.2149688,6.0309639 2.368647,0.871869 -2.4415448,1.092966 2.2997402,1.148835 -2.3321983,1.532491 2.3462988,0.26792 -2.1521028,1.734962 0.035917,0.99532 C 3.4592866,25.89297 2.5169501,28.845557 2.1029996,32.089769 0.84085647,42.212422 11.324467,52.624007 25.518896,55.344793 39.71338,58.065501 52.243511,52.065065 53.505805,41.942411 53.561032,41.48767 53.592546,41.02858 53.60025,40.566096 56.62005,36.866501 59.734404,33.632177 62,29.480052 57.512763,28.968177 53.588361,29.018998 49.801056,29.207076 c 2.110554,-1.903865 4.63399,-4.392958 6.744544,-7.075784 -2.940298,1.485518 -5.761798,2.235605 -7.535246,2.845963 1.944034,-2.395407 3.715571,-4.541467 4.808047,-6.936872 L 45.803915,22.23234 48.364,16.676746 c -3.992294,2.599492 -6.7136,3.673722 -9.534331,4.867302 C 36.08135,20.24372 33.122442,19.276576 30.089911,18.687389 26.052905,17.914193 21.578972,17.830065 17.816065,18.441818 12.308158,12.953187 9.5686579,11.81176 6.2005662,9.8585651 Z"
       id="path1" />
    <path
       style="fill:#535d6c"
       d="m 6.2005662,8.8585649 -0.2149688,6.0309641 2.368647,0.871869 -2.4415448,1.092966 2.2997402,1.148835 -2.3321983,1.532491 2.3462988,0.26792 -2.1521028,1.734962 0.035917,0.99532 C 3.4592866,24.89297 2.5169501,27.845557 2.1029996,31.089769 0.84085647,41.212422 11.324467,51.624007 25.518896,54.344793 39.71338,57.065501 52.243511,51.065065 53.505805,40.942411 53.561032,40.48767 53.592546,40.02858 53.60025,39.566096 56.62005,35.866501 59.734404,32.632177 62,28.480052 57.512763,27.968177 53.588361,28.018998 49.801056,28.207076 c 2.110554,-1.903865 4.63399,-4.392958 6.744544,-7.075784 -2.940298,1.485518 -5.761798,2.235605 -7.535246,2.845963 1.944034,-2.395407 3.715571,-4.541467 4.808047,-6.936872 L 45.803915,21.23234 48.364,15.676746 c -3.992294,2.599492 -6.7136,3.673722 -9.534331,4.867302 C 36.08135,19.24372 33.122442,18.276576 30.089911,17.687389 26.052905,16.914193 21.578972,16.830065 17.816065,17.441818 12.308158,11.953187 9.5686579,10.81176 6.2005662,8.8585649 Z"
       id="path2" />
    <path
       style="opacity:0.2"
       d="m 29.419922,19.958943 a 0.68188631,0.68188631 0 0 0 -0.699219,0.589844 l -0.503906,3.341797 a 0.68188631,0.68188631 0 1 0 1.347656,0.205078 l 0.503906,-3.34375 a 0.68188631,0.68188631 0 0 0 -0.648437,-0.792969 z m 3.144531,3.597657 a 0.68188631,0.68188631 0 0 0 -0.566406,0.287109 l -2.207031,3.027344 a 0.68188631,0.68188631 0 1 0 1.101562,0.802734 l 2.207031,-3.027344 A 0.68188631,0.68188631 0 0 0 32.564453,23.5566 Z m -7.253906,0.628906 a 0.68188631,0.68188631 0 0 0 -0.626953,0.990234 l 1.703125,3.46875 a 0.68188631,0.68188631 0 1 0 1.224609,-0.599609 l -1.703125,-3.46875 A 0.68188631,0.68188631 0 0 0 25.310547,24.185506 Z M 13.714844,41.535115 a 0.68188631,0.68188631 0 0 0 -0.123047,1.345703 l 6.181641,1.513672 a 0.68188631,0.68188631 0 1 0 0.324218,-1.324219 L 13.917969,41.5566 a 0.68188631,0.68188631 0 0 0 -0.203125,-0.02149 z m 9.58789,0.191406 a 0.68188631,0.68188631 0 0 0 -0.695312,0.800782 c 0.26605,1.489142 0.504613,2.140027 0.753906,3.095703 -0.958139,1.263526 -1.934122,2.404563 -2.945312,3.351562 a 0.68188631,0.68188631 0 1 0 0.93164,0.994141 c 0.826949,-0.774454 1.638099,-1.649374 2.433594,-2.617188 0.475679,1.455323 0.929658,2.447825 1.351562,3.25586 a 0.68188631,0.68188631 0 1 0 1.208985,-0.63086 c -0.512614,-0.98176 -1.00597,-2.206462 -1.527344,-4.064453 0.529051,-0.730261 1.066102,-1.418626 1.572266,-2.273437 a 0.68188631,0.68188631 0 0 0 -0.361328,-0.990234 l -2.521485,-0.882813 a 0.68188631,0.68188631 0 0 0 -0.201172,-0.03906 z m 0.927735,1.738282 0.5,0.175781 c -0.111766,0.176811 -0.227114,0.323801 -0.339844,0.494141 -0.05453,-0.246862 -0.104048,-0.394322 -0.160156,-0.669922 z m 4.103515,1.558594 a 0.68188631,0.68188631 0 0 0 -0.08008,1.357421 l 8.072266,1.292969 a 0.68188631,0.68188631 0 1 0 0.214844,-1.345703 l -8.070313,-1.294922 a 0.68188631,0.68188631 0 0 0 -0.136719,-0.0098 z m -14.703125,0.234374 a 0.68215088,0.68215088 0 0 0 0.05274,1.363282 l 5.486328,0.06445 a 0.68188631,0.68188631 0 1 0 0.01563,-1.363281 l -5.486328,-0.06445 a 0.68188631,0.68188631 0 0 0 -0.06836,0 z m 14.257813,2.152344 a 0.68188631,0.68188631 0 0 0 -0.265625,1.300782 l 5.066406,2.453124 a 0.68223679,0.68223679 0 0 0 0.59375,-1.228515 l -5.066406,-2.453125 a 0.68188631,0.68188631 0 0 0 -0.328125,-0.07227 z"
       id="path3" />
    <path
       style="opacity:0.2"
       d="M 12.777344,26.011569 C 5.9179198,25.718045 3,31.179538 3,31.179538 c 0,0 0.3863999,7.168977 9.410156,9.382812 C 21.433911,42.776183 25,35.870944 25,35.870944 c 0,0 0.111168,-6.873135 -9.039062,-9.34961 -1.14378,-0.309559 -2.203677,-0.467833 -3.183594,-0.509765 z m 26,5 C 31.917921,30.718045 29,36.179538 29,36.179538 c 0,-10e-7 0.386399,7.168977 9.410156,9.382812 C 47.433909,47.776184 51,40.870944 51,40.870944 c 0,0 0.111168,-6.873133 -9.039062,-9.34961 -1.14378,-0.309559 -2.203677,-0.467833 -3.183594,-0.509765 z"
       id="path4" />
    <path
       style="fill:#ffd357"
       d="m 29,35.179987 c 0,0 3.811171,-7.134158 12.961404,-4.657681 9.150231,2.476477 9.038507,9.348857 9.038507,9.348857 0,0 -3.565084,6.905009 -12.588837,4.691175 C 29.387317,42.348503 29,35.179987 29,35.179987 Z"
       id="path5" />
    <path
       style="fill:#8d5fd3"
       d="m 45.405987,31.872337 a 8.2499903,8.1818178 0 0 0 -5.405999,7.673118 8.2499903,8.1818178 0 0 0 2.094724,5.433238 c 6.314432,-0.137099 8.905262,-5.10831 8.905262,-5.10831 0,0 0.05929,-4.990791 -5.593987,-7.998046 z"
       id="path6" />
    <path
       style="fill:none;stroke:#a3cbcb;stroke-width:1.36364;stroke-linecap:round"
       d="M 19.935251,42.73274 13.754834,41.219169"
       id="path7" />
    <path
       style="fill:none;stroke:#a3cbcb;stroke-width:1.36364;stroke-linecap:round"
       d="m 19.178466,45.003098 -5.486697,-0.06307"
       id="path8" />
    <path
       style="fill:none;stroke:#a3cbcb;stroke-width:1.36364;stroke-linecap:round"
       d="m 28.362192,44.70696 8.071504,1.294082"
       id="path9" />
    <path
       style="fill:none;stroke:#a3cbcb;stroke-width:1.36364;stroke-linecap:round"
       d="m 27.920514,47.096788 5.066283,2.453269"
       id="path10" />
    <path
       style="fill:none;stroke:#a3cbcb;stroke-width:1.36364;stroke-linecap:round;stroke-linejoin:round"
       d="m 25.737275,49.291551 c -0.769693,-1.474122 -1.527009,-2.663527 -2.459553,-7.883185 l 2.522619,0.882916 c -1.547491,2.613409 -3.203787,4.573985 -4.919108,6.180417"
       id="path11" />
    <path
       style="fill:none;stroke:#356373;stroke-width:1.36364;stroke-linecap:round"
       d="M 26.998586,27.344763 25.295817,23.876161"
       id="path12" />
    <path
       style="fill:none;stroke:#356373;stroke-width:1.36364;stroke-linecap:round"
       d="m 28.890549,22.993244 0.504524,-3.34247"
       id="path13" />
    <path
       style="fill:none;stroke:#356373;stroke-width:1.36364;stroke-linecap:round"
       d="m 30.341056,26.272649 2.207292,-3.027143"
       id="path14" />
    <path
       style="fill:#ffd357"
       d="m 3,30.179989 c 0,0 3.8111708,-7.13416 12.961405,-4.657682 9.15023,2.476475 9.038505,9.348857 9.038505,9.348857 0,0 -3.565082,6.905008 -12.588837,4.691175 C 3.3873167,37.348504 3,30.179989 3,30.179989 Z"
       id="path15" />
    <path
       style="fill:#8d5fd3"
       d="m 19.405987,26.872339 a 8.2499904,8.1818178 0 0 0 -5.406,7.673118 8.2499904,8.1818178 0 0 0 2.094725,5.433238 c 6.314431,-0.137098 8.905262,-5.10831 8.905262,-5.10831 0,0 0.05929,-4.990791 -5.593987,-7.998046 z"
       id="path16" />
    <path
       style="opacity:0.1;fill:#ffffff"
       d="m 6.2011719,8.859375 -0.2148438,6.029297 0.035156,0.01367 0.1796875,-5.042969 c 3.3680917,1.953195 6.1073274,3.0934 11.6152344,8.582031 3.762907,-0.611753 8.236432,-0.527102 12.273438,0.246094 3.032531,0.589187 5.991915,1.557094 8.740234,2.857422 2.661783,-1.126322 5.248499,-2.163256 8.884766,-4.458984 l 0.648437,-1.410157 C 44.370987,18.275271 41.650809,19.35134 38.830078,20.54492 36.081759,19.244594 33.122375,18.276687 30.089844,17.6875 26.052838,16.914304 21.579313,16.829653 17.816406,17.441406 12.308499,11.952775 9.5692636,10.81257 6.2011719,8.859375 Z m 0.9277343,7.451172 -1.2167968,0.542969 1.0566406,0.527343 1.3847656,-0.61914 z m 46.6894528,0.730469 -7.40625,3.875 -0.607421,1.316406 7.291015,-3.814453 c 0.261556,-0.452758 0.509179,-0.908875 0.722656,-1.376953 z m -46.4707028,1.53125 -1.4667968,0.96289 1.296875,0.148438 1.0351562,-0.679688 z m -0.2070312,2.107422 -1.0664062,0.859374 0.037109,0.970704 2.1152344,-1.707032 z m 49.404297,0.451171 c -2.455604,1.240638 -4.688912,1.92264 -6.4375,2.484375 -0.359719,0.448628 -0.721335,0.897631 -1.097656,1.361328 1.494074,-0.514207 3.735961,-1.132421 6.162109,-2.201171 0.468615,-0.539136 0.93286,-1.084989 1.373047,-1.644532 z m -50.4687501,1.4375 c -2.6220296,2.353415 -3.5606938,5.292853 -3.9726563,8.521485 -0.089921,0.721187 -0.1143027,1.442828 -0.087891,2.164062 0.014321,-0.38833 0.039522,-0.776132 0.087891,-1.164062 0.4139505,-3.244212 1.3567446,-6.197563 4.0078125,-8.556641 z m 49.5625001,5.513672 c -1.621512,-0.02234 -3.178885,0.0188 -4.714844,0.08203 -0.379302,0.356245 -0.763616,0.718738 -1.123047,1.042969 3.625909,-0.180063 7.391752,-0.220277 11.642578,0.22461 C 61.631094,29.116525 61.822258,28.806214 62,28.480469 59.756382,28.224531 57.65409,28.109801 55.638672,28.082031 Z"
       id="path17" />
    <path
       style="opacity:0.2;fill:#ffffff"
       d="M 12.777344,25.011719 C 5.9179196,24.718195 3,30.179688 3,30.179688 c 0,0 0.038438,0.328231 0.1289062,0.783203 0.6095456,-0.98525 3.583152,-5.210714 9.6484378,-4.951172 0.979917,0.04193 2.039814,0.200206 3.183594,0.509765 7.236735,1.958595 8.663783,6.618253 8.951171,8.501954 C 24.94268,34.969627 25,34.871094 25,34.871094 c 0,0 0.111167,-6.873135 -9.039062,-9.34961 -1.143781,-0.309559 -2.203677,-0.467833 -3.183594,-0.509765 z m 26,5 C 31.917921,29.718195 29,35.179688 29,35.179688 c 0,-10e-7 0.03844,0.328231 0.128906,0.783203 0.609546,-0.98525 3.583153,-5.210714 9.648438,-4.951172 0.979917,0.04193 2.039814,0.200206 3.183594,0.509765 7.236735,1.958597 8.663783,6.618254 8.951171,8.501954 C 50.94268,39.969627 51,39.871094 51,39.871094 c 0,0 0.111168,-6.873133 -9.039062,-9.34961 -1.14378,-0.309559 -2.203677,-0.467833 -3.183594,-0.509765 z"
       id="path18" />
  </g>
</svg>
