<?xml version="1.0" encoding="UTF-8" standalone="no"?>
<svg
   width="62"
   height="62"
   version="1"
   id="svg6"
   sodipodi:docname="nitroshare.svg"
   inkscape:version="1.4 (unknown)"
   xmlns:inkscape="http://www.inkscape.org/namespaces/inkscape"
   xmlns:sodipodi="http://sodipodi.sourceforge.net/DTD/sodipodi-0.dtd"
   xmlns="http://www.w3.org/2000/svg"
   xmlns:svg="http://www.w3.org/2000/svg">
  <defs
     id="defs6" />
  <sodipodi:namedview
     id="namedview6"
     pagecolor="#ffffff"
     bordercolor="#000000"
     borderopacity="0.25"
     inkscape:showpageshadow="2"
     inkscape:pageopacity="0.0"
     inkscape:pagecheckerboard="0"
     inkscape:deskcolor="#d1d1d1"
     inkscape:zoom="8.5626212"
     inkscape:cx="27.736834"
     inkscape:cy="35.795114"
     inkscape:window-width="1920"
     inkscape:window-height="998"
     inkscape:window-x="0"
     inkscape:window-y="0"
     inkscape:window-maximized="1"
     inkscape:current-layer="svg6" />
  <g
     id="g6"
     transform="matrix(1,0,0,0.98244481,-1,-0.9291331)">
    <path
       style="opacity:0.2"
       d="m 35.824218,5.0026104 c -1.718522,0.050408 -3.33287,0.8354188 -4.433594,2.1559272 L 23.191406,16.996908 H 20 c -3.313571,3.31e-4 -5.999669,2.686027 -6,5.999103 v 23.996408 c 3.31e-4,3.313076 2.686429,5.99877 6,5.999102 h 2 v 1.9997 c 0.0026,5.609292 7.016722,8.147502 10.609376,3.839268 l 8.199218,-9.83837 H 44 c 3.313572,-3.32e-4 5.999668,-2.686026 6,-5.999102 V 18.996609 c -3.32e-4,-3.313076 -2.686428,-5.998771 -6,-5.999102 H 42 V 10.997806 C 41.998902,7.6164074 39.204682,4.9038934 35.824218,5.0026104 Z"
       id="path1" />
    <path
       style="fill:#2e3d54;fill-opacity:1"
       d="m 35.824218,4.0026116 c -1.718522,0.050408 -3.33287,0.8354188 -4.433594,2.1559272 L 23.191406,15.99691 H 20 c -3.313571,3.31e-4 -5.999669,2.686026 -6,5.999102 V 45.99242 c 3.31e-4,3.313076 2.686429,5.99877 6,5.999102 h 2 v 1.9997 c 0.0026,5.609292 7.016722,8.147502 10.609376,3.839268 l 8.199218,-9.83837 H 44 c 3.313572,-3.32e-4 5.999668,-2.686026 6,-5.999102 V 17.99661 c -3.32e-4,-3.313075 -2.686428,-5.99877 -6,-5.999102 H 42 V 9.9978078 C 41.998902,6.6164086 39.204682,3.9038946 35.824218,4.0026116 Z"
       id="path2" />
    <path
       style="opacity:1;fill:#486084;fill-opacity:1"
       d="M 36,10 26,22 h -5.9998 v 24 h 8 v 8 l 10,-12 H 44 V 18 h -8 z"
       id="path3" />
    <path
       style="opacity:0.2"
       d="m 22,24.999999 v 14 h 6 v -6 l 8,8 h 6 v -14 h -6 v 6 l -8,-8 z"
       id="path4" />
    <path
       style="fill:#f3f3f3;fill-opacity:1"
       d="m 22,24 v 14 h 6 v -6 l 8,8 h 6 V 26 h -6 v 6 l -8,-8 z"
       id="path5" />
    <path
       style="opacity:0.1;fill:#ffffff"
       d="m 35.824219,4.0019531 c -1.718522,0.050408 -3.33287,0.8357416 -4.433594,2.15625 L 23.191406,15.996094 H 20 c -3.313571,3.31e-4 -5.999669,2.686924 -6,6 v 1 c 3.31e-4,-3.313076 2.686429,-5.999669 6,-6 h 3.191406 l 8.199219,-9.8378909 c 1.100724,-1.3205084 2.715072,-2.105842 4.433594,-2.15625 C 39.204683,4.9032361 41.998902,7.6166479 42,10.998047 V 9.9980469 C 41.998902,6.6166477 39.204683,3.9032361 35.824219,4.0019531 Z M 42,11.998047 v 1 h 2 c 3.313572,3.32e-4 5.999668,2.684972 6,5.998047 v -1 c -3.32e-4,-3.313075 -2.686428,-5.997715 -6,-5.998047 z"
       id="path6" />
  </g>
</svg>
