<?xml version="1.0" encoding="UTF-8" standalone="no"?>
<svg
   width="62"
   height="62"
   version="1.1"
   id="svg4"
   sodipodi:docname="makehuman.svg"
   inkscape:version="1.4 (unknown)"
   xmlns:inkscape="http://www.inkscape.org/namespaces/inkscape"
   xmlns:sodipodi="http://sodipodi.sourceforge.net/DTD/sodipodi-0.dtd"
   xmlns="http://www.w3.org/2000/svg"
   xmlns:svg="http://www.w3.org/2000/svg">
  <defs
     id="defs4" />
  <sodipodi:namedview
     id="namedview4"
     pagecolor="#ffffff"
     bordercolor="#000000"
     borderopacity="0.25"
     inkscape:showpageshadow="2"
     inkscape:pageopacity="0.0"
     inkscape:pagecheckerboard="0"
     inkscape:deskcolor="#d1d1d1"
     inkscape:zoom="7.0710678"
     inkscape:cx="5.1618795"
     inkscape:cy="34.4361"
     inkscape:window-width="1920"
     inkscape:window-height="998"
     inkscape:window-x="0"
     inkscape:window-y="0"
     inkscape:window-maximized="1"
     inkscape:current-layer="svg4" />
  <ellipse
     style="opacity:0.2;stroke-width:0.9823"
     cx="31"
     cy="31.491228"
     id="circle1"
     rx="27.5"
     ry="27.508772" />
  <ellipse
     style="fill:#2d3d53;fill-opacity:1;stroke-width:0.9823"
     cx="31"
     cy="30.508772"
     id="circle2"
     rx="27.5"
     ry="27.508772" />
  <path
     style="opacity:0.1;fill:#ffffff;stroke-width:0.9823"
     d="M 31,3 A 27.5,27.508772 0 0 0 3.4999999,30.508772 27.5,27.508772 0 0 0 3.5326101,30.98273 27.5,27.508772 0 0 1 31,3.9824562 27.5,27.508772 0 0 1 58.482736,30.746711 27.5,27.508772 0 0 0 58.5,30.508772 27.5,27.508772 0 0 0 31,3 Z"
     id="path4" />
  <g
     id="g2"
     transform="matrix(0.73660714,0,0,0.73684211,18.477679,-9.403509)">
    <circle
       style="opacity:0.2"
       cx="27"
       cy="56"
       r="18"
       id="circle1-3" />
    <circle
       style="fill:#5792f1"
       cx="27"
       cy="55"
       r="18"
       id="circle2-5" />
    <path
       style="opacity:0.1;fill:#ffffff"
       d="M 27,37 A 18,18 0 0 0 9,55 18,18 0 0 0 9.021484,55.585938 18,18 0 0 1 27,38 18,18 0 0 1 44.978516,55.414062 18,18 0 0 0 45,55 18,18 0 0 0 27,37 Z"
       id="path2" />
    <circle
       style="fill:#2d3d53;fill-opacity:1"
       cx="27"
       cy="55"
       r="14"
       id="circle3" />
    <circle
       style="opacity:0.2"
       cx="17"
       cy="66"
       r="18"
       id="circle4" />
    <circle
       style="opacity:0.2"
       cx="7"
       cy="56"
       r="18"
       id="circle5" />
    <circle
       style="fill:#5792f1"
       cx="17"
       cy="45"
       r="18"
       id="circle6" />
    <path
       style="opacity:0.1;fill:#ffffff"
       d="M 17,27 A 18,18 0 0 0 -1,45 18,18 0 0 0 -0.978516,45.585938 18,18 0 0 1 17,28 18,18 0 0 1 34.978516,45.414062 18,18 0 0 0 35,45 18,18 0 0 0 17,27 Z"
       id="path6" />
    <circle
       style="fill:#2d3d53;fill-opacity:1"
       cx="17"
       cy="45"
       r="14"
       id="circle7" />
    <circle
       style="fill:#5792f1"
       cx="7"
       cy="55"
       r="18"
       id="circle8" />
    <path
       style="opacity:0.1;fill:#ffffff"
       d="m 7,37 a 18,18 0 0 0 -18,18 18,18 0 0 0 0.02148,0.585938 A 18,18 0 0 1 7,38 18,18 0 0 1 24.978516,55.414062 18,18 0 0 0 25,55 18,18 0 0 0 7,37 Z"
       id="path8" />
    <circle
       style="fill:#2d3d53;fill-opacity:1"
       cx="7"
       cy="55"
       r="14"
       id="circle9" />
    <circle
       style="fill:#5792f1"
       cx="17"
       cy="65"
       r="18"
       id="circle10" />
    <circle
       style="fill:#2d3d53;fill-opacity:1"
       cx="17"
       cy="65"
       r="14"
       id="circle11" />
    <path
       style="opacity:0.1;fill:#ffffff"
       d="M 17,47 A 18,18 0 0 0 -1,65 18,18 0 0 0 -0.957031,66.152344 18,18 0 0 1 17,49 18,18 0 0 1 34.957032,65.847656 18,18 0 0 0 35,65 18,18 0 0 0 17,47 Z"
       id="path11" />
    <circle
       style="opacity:0.2"
       cx="17"
       cy="56"
       r="18"
       id="circle12" />
    <circle
       style="fill:#5792f1"
       cx="17"
       cy="55"
       r="18"
       id="circle13" />
    <circle
       style="fill:#2d3d53;fill-opacity:1"
       cx="17"
       cy="55"
       r="14"
       id="circle14" />
    <path
       style="opacity:0.1;fill:#ffffff"
       d="M 17,37 A 18,18 0 0 0 -1,55 18,18 0 0 0 -0.978516,55.585938 18,18 0 0 1 17,38 18,18 0 0 1 34.978516,55.414062 18,18 0 0 0 35,55 18,18 0 0 0 17,37 Z"
       id="path14" />
  </g>
</svg>
