<?xml version="1.0" encoding="UTF-8" standalone="no"?>
<svg
   width="62"
   height="62"
   version="1.1"
   id="svg29"
   sodipodi:docname="normcap.svg"
   inkscape:version="1.4 (unknown)"
   xmlns:inkscape="http://www.inkscape.org/namespaces/inkscape"
   xmlns:sodipodi="http://sodipodi.sourceforge.net/DTD/sodipodi-0.dtd"
   xmlns:xlink="http://www.w3.org/1999/xlink"
   xmlns="http://www.w3.org/2000/svg"
   xmlns:svg="http://www.w3.org/2000/svg">
  <defs
     id="defs29">
    <linearGradient
       id="linearGradient29"
       inkscape:collect="always">
      <stop
         style="stop-color:#2d3d53;stop-opacity:1;"
         offset="0"
         id="stop29" />
      <stop
         style="stop-color:#623d64;stop-opacity:1;"
         offset="1"
         id="stop30" />
    </linearGradient>
    <linearGradient
       inkscape:collect="always"
       xlink:href="#linearGradient29"
       id="linearGradient30"
       x1="30.782633"
       y1="60"
       x2="30.193521"
       y2="5"
       gradientUnits="userSpaceOnUse"
       gradientTransform="matrix(0.98214286,0,0,0.98245614,-0.42857152,-0.92982455)" />
  </defs>
  <sodipodi:namedview
     id="namedview29"
     pagecolor="#ffffff"
     bordercolor="#000000"
     borderopacity="0.25"
     inkscape:showpageshadow="2"
     inkscape:pageopacity="0.0"
     inkscape:pagecheckerboard="0"
     inkscape:deskcolor="#d1d1d1"
     inkscape:zoom="7.0710678"
     inkscape:cx="20.576807"
     inkscape:cy="26.09224"
     inkscape:window-width="1920"
     inkscape:window-height="998"
     inkscape:window-x="0"
     inkscape:window-y="0"
     inkscape:window-maximized="1"
     inkscape:current-layer="svg29" />
  <rect
     style="opacity:0.2;stroke-width:0.9823"
     width="55"
     height="55.017544"
     x="3.5"
     y="3.9824562"
     ry="13.754386"
     id="rect1" />
  <rect
     style="fill:url(#linearGradient30);stroke-width:0.9823"
     width="55"
     height="55.017544"
     x="3.5"
     y="3"
     ry="13.754386"
     id="rect2" />
  <path
     style="opacity:0.1;fill:#ffffff;stroke-width:0.9823"
     d="M 17.25,3 C 9.6324999,3 3.4999999,9.1344561 3.4999999,16.754386 v 0.982456 c 0,-7.61993 6.1325,-13.7543858 13.7500001,-13.7543858 h 27.5 c 7.6175,0 13.75,6.1344558 13.75,13.7543858 V 16.754386 C 58.5,9.1344561 52.3675,3 44.75,3 Z"
     id="path28" />
  <g
     id="g2"
     transform="translate(78.378275,16.327576)">
    <path
       style="opacity:0.2"
       d="m -59.88597,-7.3471289 -0.21875,5.0234376 -4.710937,1.75781237 4.710937,1.76171903 0.21875,5.023436 3.128907,-3.937498 4.847656,1.347656 -2.78125,-4.19531303 2.78125,-4.19140637 -4.847656,1.347656 z m 16.097657,6.81249997 -0.17188,3.98828103 -3.742186,1.394532 3.742186,1.398436 0.17188,3.9882819 2.484374,-3.1249999 3.847656,1.070312 -2.20703,-3.33203 2.20703,-3.328125 -3.847656,1.070312 z m -9.582032,9.21093703 c -0.24286,1.86e-4 -0.485946,0.07182 -0.695312,0.214844 0,0 -0.004,0.004 -0.004,0.004 -0.04542,0.03134 -0.08708,0.06736 -0.1289,0.10546 -0.02032,0.0178 -0.0431,0.03138 -0.0625,0.05078 l -1.238194,1.2381979 c -0.0194,0.0194 -0.0329,0.04218 -0.05078,0.0625 -0.0381,0.04182 -0.07414,0.08348 -0.10546,0.1289 0,0 -0.004,0.004 -0.004,0.004 -0.328844,0.481398 -0.280734,1.14504 0.14062,1.566406 l 8.148438,8.210938 0.03516,-0.03516 18.09375,18.09375 c 0.481716,0.481724 1.271076,0.471134 1.757812,-0.0156 l 1.238282,-1.238282 c 0.486738,-0.486744 0.497326,-1.276088 0.0156,-1.757812 L -52.503157,9.0356841 c -0.05928,-0.05976 -0.12756,-0.1114 -0.19532,-0.15626 -0.202604,-0.13328 -0.436394,-0.203306 -0.671876,-0.203124 z m -12.445312,0.621094 -0.132812,3.1249999 -2.933594,1.09375 2.933594,1.097656 0.132812,3.125 1.945312,-2.449218 3.015625,0.835936 -1.726562,-2.609374 1.726562,-2.605468 -3.015625,0.835936 z"
       id="path26" />
    <path
       style="fill:#ffffff"
       d="m -68.882251,12.518068 2.931879,1.094416 0.13486,3.126576 1.946852,-2.450188 3.015221,0.837912 -1.728658,-2.608716 1.728658,-2.6087179 -3.015221,0.8379139 -1.946852,-2.4501879 -0.13486,3.1265759 z"
       id="path28-9" />
    <g
       id="g1">
      <rect
         style="opacity:0.2;fill:#ff2e88"
         width="36"
         height="30"
         x="-65.874252"
         y="-2.3237245"
         id="rect2-7" />
      <path
         style="fill:#ff2e88"
         d="m -63.147241,-1.2126129 h -2.181609 c -0.299971,0 -0.5454,-0.2500004 -0.5454,-0.5555564 v 0 c 0,-0.305556 0.245429,-0.555556 0.5454,-0.555556 h 2.181609 c 0.299972,0 0.545401,0.25 0.545401,0.555556 v 0 c 0,0.305556 -0.245429,0.5555564 -0.545401,0.5555564 z"
         id="path3-5" />
      <path
         style="fill:#ff2e88"
         d="m -56.602423,-1.2126129 h -2.181603 c -0.299971,0 -0.545403,-0.2500004 -0.545403,-0.5555564 v 0 c 0,-0.305556 0.245432,-0.555556 0.545403,-0.555556 h 2.181603 c 0.299968,0 0.5454,0.25 0.5454,0.555556 v 0 c 0,0.305556 -0.245432,0.5555564 -0.5454,0.5555564 z"
         id="path4-3" />
      <path
         style="fill:#ff2e88"
         d="m -63.147241,27.676276 h -2.181609 c -0.299971,0 -0.5454,-0.250002 -0.5454,-0.555556 v 0 c 0,-0.305554 0.245429,-0.555556 0.5454,-0.555556 h 2.181609 c 0.299972,0 0.545401,0.250002 0.545401,0.555556 v 0 c 0,0.305554 -0.245429,0.555556 -0.545401,0.555556 z"
         id="path5" />
      <path
         style="fill:#ff2e88"
         d="m -56.602423,27.676276 h -2.181603 c -0.299971,0 -0.545403,-0.250002 -0.545403,-0.555556 v 0 c 0,-0.305554 0.245432,-0.555556 0.545403,-0.555556 h 2.181603 c 0.299968,0 0.5454,0.250002 0.5454,0.555556 v 0 c 0,0.305554 -0.245432,0.555556 -0.5454,0.555556 z"
         id="path6" />
      <path
         style="fill:#ff2e88"
         d="m -50.057599,-1.2126129 h -2.18161 c -0.299974,0 -0.545402,-0.2500004 -0.545402,-0.5555564 v 0 c 0,-0.305556 0.245428,-0.555556 0.545402,-0.555556 h 2.18161 c 0.29997,0 0.5454,0.25 0.5454,0.555556 v 0 c 0,0.305556 -0.24543,0.5555564 -0.5454,0.5555564 z"
         id="path7" />
      <path
         style="fill:#ff2e88"
         d="m -43.512779,-1.2126129 h -2.181606 c -0.29997,0 -0.5454,-0.2500004 -0.5454,-0.5555564 v 0 c 0,-0.305556 0.24543,-0.555556 0.5454,-0.555556 h 2.181606 c 0.299972,0 0.545404,0.25 0.545404,0.555556 v 0 c 0,0.305556 -0.245432,0.5555564 -0.545404,0.5555564 z"
         id="path8-5" />
      <path
         style="fill:#ff2e88"
         d="m -36.967957,-1.2126129 h -2.181608 c -0.29997,0 -0.5454,-0.2500004 -0.5454,-0.5555564 v 0 c 0,-0.305556 0.24543,-0.555556 0.5454,-0.555556 h 2.181608 c 0.299974,0 0.545404,0.25 0.545404,0.555556 v 0 c 0,0.305556 -0.24543,0.5555564 -0.545404,0.5555564 z"
         id="path9" />
      <path
         style="fill:#ff2e88"
         d="m -30.423131,-1.2126129 h -2.181612 c -0.29997,0 -0.5454,-0.2500004 -0.5454,-0.5555564 v 0 c 0,-0.305556 0.24543,-0.555556 0.5454,-0.555556 h 2.181612 c 0.299966,0 0.545398,0.25 0.545398,0.555556 v 0 c 0,0.305556 -0.245432,0.5555564 -0.545398,0.5555564 z"
         id="path10-6" />
      <path
         style="fill:#ff2e88"
         d="m -65.32885,7.6762741 v 0 c -0.299971,0 -0.5454,-0.249998 -0.5454,-0.555558 v -2.22222 c 0,-0.305552 0.245429,-0.555556 0.5454,-0.555556 v 0 c 0.299972,0 0.545402,0.250004 0.545402,0.555556 v 2.22222 c 0,0.30556 -0.24543,0.555558 -0.545402,0.555558 z"
         id="path11-2" />
      <path
         style="fill:#ff2e88"
         d="m -65.32885,1.0096081 v 0 c -0.299971,0 -0.5454,-0.25000003 -0.5454,-0.55555403 V -1.7681693 c 0,-0.305556 0.245429,-0.555556 0.5454,-0.555556 v 0 c 0.299972,0 0.545402,0.25 0.545402,0.555556 v 2.22222337 c 0,0.305554 -0.24543,0.55555403 -0.545402,0.55555403 z"
         id="path12" />
      <path
         style="fill:#ff2e88"
         d="m -65.32885,21.009608 v 0 c -0.299971,0 -0.5454,-0.250002 -0.5454,-0.555556 v -2.22222 c 0,-0.305558 0.245429,-0.555558 0.5454,-0.555558 v 0 c 0.299972,0 0.545402,0.250002 0.545402,0.555558 v 2.22222 c 0,0.305554 -0.24543,0.555556 -0.545402,0.555556 z"
         id="path13" />
      <path
         style="fill:#ff2e88"
         d="m -65.32885,27.676276 v 0 c -0.299971,0 -0.5454,-0.250002 -0.5454,-0.555556 v -2.222224 c 0,-0.305554 0.245429,-0.555554 0.5454,-0.555554 v 0 c 0.299972,0 0.545402,0.25 0.545402,0.555554 v 2.222224 c 0,0.305554 -0.24543,0.555556 -0.545402,0.555556 z"
         id="path14" />
      <path
         style="fill:#ff2e88"
         d="m -65.32885,14.342942 v 0 c -0.299971,0 -0.5454,-0.250002 -0.5454,-0.555558 v -2.22222 c 0,-0.305556 0.245429,-0.555558 0.5454,-0.555558 v 0 c 0.299972,0 0.545402,0.250002 0.545402,0.555558 v 2.22222 c 0,0.305556 -0.24543,0.555558 -0.545402,0.555558 z"
         id="path15" />
      <path
         style="fill:#ff2e88"
         d="m -30.423131,7.6762741 v 0 c -0.299974,0 -0.545406,-0.249998 -0.545406,-0.555558 v -2.22222 c 0,-0.305552 0.245432,-0.555556 0.545406,-0.555556 v 0 c 0.299966,0 0.545398,0.250004 0.545398,0.555556 v 2.22222 c 0,0.30556 -0.245432,0.555558 -0.545398,0.555558 z"
         id="path16" />
      <path
         style="fill:#ff2e88"
         d="m -30.423131,1.0096081 v 0 c -0.299974,0 -0.545406,-0.25000003 -0.545406,-0.55555403 V -1.7681693 c 0,-0.305556 0.245432,-0.555556 0.545406,-0.555556 v 0 c 0.299966,0 0.545398,0.25 0.545398,0.555556 v 2.22222337 c 0,0.305554 -0.245432,0.55555403 -0.545398,0.55555403 z"
         id="path17" />
      <path
         style="fill:#ff2e88"
         d="m -30.423131,14.342942 v 0 c -0.299974,0 -0.545406,-0.250002 -0.545406,-0.555558 v -2.22222 c 0,-0.305556 0.245432,-0.555558 0.545406,-0.555558 v 0 c 0.299966,0 0.545398,0.250002 0.545398,0.555558 v 2.22222 c 0,0.305556 -0.245432,0.555558 -0.545398,0.555558 z"
         id="path18" />
      <rect
         style="fill:#ff2e88"
         width="1.092"
         height="1.1109999"
         x="-65.874252"
         y="-2.3237245"
         id="rect18" />
      <rect
         style="fill:#ff2e88"
         width="1.092"
         height="1.1109999"
         x="-30.964252"
         y="-2.3237245"
         id="rect19" />
      <rect
         style="fill:#ff2e88"
         width="1.092"
         height="1.1109999"
         x="-65.874252"
         y="26.566275"
         id="rect20" />
      <path
         style="fill:#ff2e88"
         d="m -30.965061,27.118194 v -2.22222 c 0,-0.305554 0.245432,-0.555556 0.545402,-0.555556 v 0 c 0.299974,0 0.545406,0.250002 0.545406,0.555556 v 2.22222 c 0,0.305556 -0.245432,0.555558 -0.545406,0.555558 v 0 c -0.29997,0 -0.545402,-0.250002 -0.545402,-0.555558 z"
         id="path20" />
      <path
         style="fill:#ff2e88"
         d="m -33.175813,27.118194 v 0 c 0,-0.305552 0.245428,-0.555554 0.545402,-0.555554 h 2.181606 c 0.29997,0 0.545402,0.250002 0.545402,0.555554 v 0 c 0,0.305556 -0.245432,0.555558 -0.545402,0.555558 h -2.181606 c -0.299974,0 -0.545402,-0.250002 -0.545402,-0.555558 z"
         id="path21" />
      <rect
         style="fill:#ff2e88"
         width="1.1109999"
         height="1.092"
         x="26.566275"
         y="29.874252"
         transform="rotate(90)"
         id="rect21" />
      <path
         style="fill:#ff2e88"
         d="m -30.440039,20.996282 v 0 c -0.29997,0 -0.5454,-0.250002 -0.5454,-0.555554 v -2.222222 c 0,-0.305558 0.24543,-0.555556 0.5454,-0.555556 v 0 c 0.299972,0 0.545402,0.249998 0.545402,0.555556 v 2.222222 c 0,0.305552 -0.24543,0.555554 -0.545402,0.555554 z"
         id="path22" />
      <path
         style="fill:#ff2e88"
         d="m -50.067709,27.665262 h -2.181608 c -0.299976,0 -0.545406,-0.250002 -0.545406,-0.555556 v 0 c 0,-0.305556 0.24543,-0.555558 0.545406,-0.555558 h 2.181608 c 0.299972,0 0.545402,0.250002 0.545402,0.555558 v 0 c 0,0.305554 -0.24543,0.555556 -0.545402,0.555556 z"
         id="path23" />
      <path
         style="fill:#ff2e88"
         d="m -43.522887,27.665262 h -2.181606 c -0.299974,0 -0.545406,-0.250002 -0.545406,-0.555556 v 0 c 0,-0.305556 0.245432,-0.555558 0.545406,-0.555558 h 2.181606 c 0.29997,0 0.545398,0.250002 0.545398,0.555558 v 0 c 0,0.305554 -0.245428,0.555556 -0.545398,0.555556 z"
         id="path24" />
      <path
         style="fill:#ff2e88"
         d="m -36.978067,27.665262 h -2.181606 c -0.299972,0 -0.545402,-0.250002 -0.545402,-0.555556 v 0 c 0,-0.305556 0.24543,-0.555558 0.545402,-0.555558 h 2.181606 c 0.299972,0 0.5454,0.250002 0.5454,0.555558 v 0 c 0,0.305554 -0.245428,0.555556 -0.5454,0.555556 z"
         id="path25" />
      <path
         style="fill:#f2f2f2;fill-opacity:1"
         d="m -47.702251,3.8500921 3.74124,1.396536 0.17208,3.989682 2.484292,-3.126576 3.847588,1.069224 -2.205862,-3.328866 2.205862,-3.32886803 -3.847588,1.06922303 -2.484292,-3.1265764 -0.17208,3.9896854 z"
         id="path27" />
      <path
         style="fill:#f2f2f2;fill-opacity:1"
         d="m -64.816251,-1.5643783 4.712602,1.75912837 0.216769,5.02555003 3.129305,-3.938349 4.846564,1.346832 -2.778586,-4.1931614 2.778586,-4.193164 -4.846564,1.346833 -3.129305,-3.9383496 -0.216769,5.0255526 z"
         id="path29" />
      <path
         style="fill:#ffffff"
         d="m -55.497649,9.2888801 c -0.486738,0.486742 -0.4985,1.2768359 -0.0168,1.7585599 l 26.27359,26.273976 c 0.481716,0.481724 1.271796,0.46996 1.758534,-0.0168 l 1.236382,-1.2364 c 0.486738,-0.486744 0.4985,-1.276836 0.0168,-1.75856 L -52.502731,8.0356961 c -0.481718,-0.481724 -1.271796,-0.469962 -1.758536,0.0168 z"
         id="path30" />
      <path
         style="fill:#2d3d53;fill-opacity:1"
         d="m -55.154521,9.6320121 1.236384,-1.2364 c 0.306848,-0.306852 0.779358,-0.309706 1.072278,-0.0168 l 26.27359,26.2740239 c 0.292916,0.292922 0.290064,0.76544 -0.0168,1.072292 l -1.236384,1.236402 c -0.306848,0.30685 -0.779358,0.309704 -1.072278,0.0168 L -55.171303,10.704306 c -0.292918,-0.292924 -0.290064,-0.7654419 0.0168,-1.0722939 z"
         id="path31" />
      <path
         style="fill:#ffffff"
         d="m -55.511839,9.3080841 c -0.482824,0.482828 -0.481738,1.2664239 -0.0056,1.7425699 l 8.146558,8.210778 3.01566,-3.0157 -8.14656,-8.2107779 c -0.474272,-0.478012 -1.25749,-0.47947 -1.740312,0.0034 z"
         id="path32" />
    </g>
  </g>
</svg>
