<?xml version="1.0" encoding="UTF-8" standalone="no"?>
<svg
   width="62"
   height="62"
   version="1.1"
   id="svg9"
   sodipodi:docname="org.polymc.PolyMC.svg"
   inkscape:version="1.4 (unknown)"
   xmlns:inkscape="http://www.inkscape.org/namespaces/inkscape"
   xmlns:sodipodi="http://sodipodi.sourceforge.net/DTD/sodipodi-0.dtd"
   xmlns="http://www.w3.org/2000/svg"
   xmlns:svg="http://www.w3.org/2000/svg">
  <defs
     id="defs9" />
  <sodipodi:namedview
     id="namedview9"
     pagecolor="#ffffff"
     bordercolor="#000000"
     borderopacity="0.25"
     inkscape:showpageshadow="2"
     inkscape:pageopacity="0.0"
     inkscape:pagecheckerboard="0"
     inkscape:deskcolor="#d1d1d1"
     inkscape:zoom="12.109375"
     inkscape:cx="32"
     inkscape:cy="32"
     inkscape:window-width="1920"
     inkscape:window-height="998"
     inkscape:window-x="0"
     inkscape:window-y="0"
     inkscape:window-maximized="1"
     inkscape:current-layer="svg9" />
  <g
     id="g9"
     transform="translate(-0.50003566,-1.0000001)">
    <path
       style="opacity:0.2;stroke-width:0.982609"
       d="m 31.498022,4.9825472 c -0.746364,-6.24e-5 -1.482527,0.2376669 -2.096419,0.6869656 L 4.4596298,23.937421 c -0.315837,0.23127 -0.5696924,0.516989 -0.7871163,0.825131 -0.00648,-3.4e-4 -0.012734,3.39e-4 -0.019206,0 -0.034815,0.04938 -0.0638,0.102568 -0.095993,0.153518 -0.017456,0.0278 -0.033246,0.0562 -0.049917,0.08444 -0.10674,0.17959 -0.1987386,0.365837 -0.2726113,0.560318 -0.00446,0.0118 -0.011003,0.02264 -0.015355,0.03456 -0.1531292,0.416107 -0.2264766,0.859675 -0.2188571,1.308689 0.00299,0.204992 0.018696,0.409085 0.057592,0.614043 0.027411,0.142989 0.062088,0.288669 0.107508,0.42984 l 0.3110067,0.963287 0.3954776,1.231934 8.0017106,24.838215 0.406992,1.258798 0.691124,1.93041 c 0.259508,0.463222 0.619049,0.846944 1.036694,1.143661 0.0091,0.0066 0.01786,0.013 0.02686,0.01928 0.04257,0.02972 0.08674,0.05664 0.130547,0.08444 0.05089,0.03256 0.101268,0.06586 0.153584,0.09596 0.03672,0.02084 0.07392,0.04185 0.111347,0.0614 0.08168,0.04332 0.164966,0.08184 0.249571,0.118979 0.437828,0.19199 0.907939,0.298573 1.389932,0.303182 0.885739,0.0086 1.485919,-0.0078 1.485919,-0.0078 h 13.941567 13.941547 c 0,0 0.600184,0.0161 1.485919,0.0078 0.474236,-0.0046 0.93872,-0.10946 1.370733,-0.29551 0.09525,-0.04104 0.18867,-0.08544 0.280293,-0.134318 0.07523,-0.04016 0.150259,-0.0814 0.222692,-0.12664 0.03231,-0.02006 0.0643,-0.0403 0.09601,-0.0614 0.03084,-0.0206 0.06188,-0.03986 0.09215,-0.0614 -3.5e-4,-0.0024 3.59e-4,-0.0056 0,-0.0078 0.372204,-0.265592 0.698522,-0.598363 0.94838,-0.997827 l 1.589594,-4.582328 7.598547,-23.587092 0.660409,-2.053225 0.04609,-0.142001 c 0.05242,-0.162818 0.09073,-0.330034 0.11903,-0.495076 4.33e-4,-0.0026 -4.3e-4,-0.0052 0,-0.0078 0.02452,-0.144616 0.04324,-0.288983 0.0499,-0.433672 0.0019,-0.0398 -5.48e-4,-0.07926 0,-0.118978 0.0018,-0.135577 -0.002,-0.268958 -0.01531,-0.402968 -0.0028,-0.02836 -0.0082,-0.05618 -0.0116,-0.08444 -0.01081,-0.08772 -0.02893,-0.174449 -0.04609,-0.260971 -0.02673,-0.135249 -0.06176,-0.26806 -0.103658,-0.399134 -0.007,-0.0213 -0.0084,-0.04404 -0.01531,-0.0652 v -0.004 c -0.0078,-0.02232 -0.0189,-0.04304 -0.02685,-0.0652 -0.03863,-0.106399 -0.08589,-0.208427 -0.134382,-0.31086 -0.02435,-0.05154 -0.04621,-0.103137 -0.07297,-0.153517 -0.06274,-0.11762 -0.131551,-0.231089 -0.20734,-0.341564 -0.02297,-0.03358 -0.04497,-0.06694 -0.06916,-0.09978 -0.06514,-0.0884 -0.137567,-0.170652 -0.211178,-0.253297 -0.165006,-0.185699 -0.342834,-0.363213 -0.54906,-0.514222 L 33.590595,5.6695128 C 32.976704,5.2202141 32.244377,4.9824848 31.498022,4.9825472 Z"
       id="path1" />
    <path
       style="fill:#6c5d53;stroke-width:0.982609"
       d="m 31.498779,46.050325 c -14.190677,0 -16.949108,8.836492 -17.486611,12.279563 0.601715,0.429145 1.32349,0.677935 2.064883,0.685034 0.885583,0.0086 1.484392,-0.0082 1.484392,-0.0082 h 13.937336 13.939988 c 0,0 0.598814,0.0165 1.484388,0.0082 0.740164,-0.0072 1.461104,-0.254544 2.062242,-0.682349 C 48.449823,54.891204 45.696483,46.050325 31.498779,46.050325 Z"
       id="path2" />
    <path
       style="fill:#917c6f;stroke-width:0.982609"
       d="m 3.054205,25.249475 c -0.09585,0.560388 -0.063043,1.147158 0.1192815,1.713932 l 0.7050842,2.194796 8.0024383,24.838511 0.405556,1.259924 0.691831,1.928842 c 0.445912,0.796084 1.179571,1.367242 2.014527,1.641395 l 16.505856,-12.77655 z"
       id="path3" />
    <path
       style="fill:#483e37;stroke-width:0.982609"
       d="m 59.80552,24.696081 -28.306741,21.354244 16.508509,12.77655 c 0.783761,-0.257343 1.475816,-0.777493 1.927056,-1.499015 l 1.587759,-4.58301 7.599539,-23.586647 0.70508,-2.194796 c 0.243531,-0.757026 0.222338,-1.550275 -0.02119,-2.267326 z"
       id="path4" />
    <path
       style="fill:#72b147;stroke-width:0.982609"
       d="m 32.806553,47.060554 -1.307514,1.011917 -1.308544,-1.011917 c 0,-1.011917 1.308029,-1.011917 1.308029,-1.011917 0,0 1.308029,0 1.308029,1.011917 z"
       id="path5" />
    <path
       style="fill:#5a9a30;stroke-width:0.982609"
       d="M 58.944044,23.309891 C 33.123342,24.752103 31.498779,46.050325 31.498779,46.050325 l 1.309447,1.012774 3.297456,-0.529219 3.300113,-4.577639 3.297456,-0.529222 3.300113,-4.57764 3.300115,-0.529223 3.297455,-4.577632 3.300113,-0.529224 3.880616,-4.107513 0.04505,-0.142378 c 0.418781,-1.301791 0.06092,-2.711822 -0.882678,-3.653516 z"
       id="path6" />
    <path
       style="fill:#88b858;stroke-width:0.982609"
       d="m 3.6585625,23.780014 c -0.6389019,0.906719 -0.8387996,2.083822 -0.4850762,3.183393 l 0.3101305,0.964419 3.6128928,3.282789 3.3001124,0.529223 3.297456,4.577634 3.300115,0.52922 3.300114,4.577641 3.297455,0.529224 3.300114,4.577631 3.297463,0.529222 1.30944,-1.012771 c 0,0 -1.90877,-20.902466 -27.8402165,-22.267625 z"
       id="path7" />
    <path
       style="fill:#5e923a;stroke-width:0.982609;fill-opacity:1"
       d="m 31.498779,4.0000016 c -0.746228,-6.3e-5 -1.480264,0.2357455 -2.094049,0.6850336 L 4.4670236,22.955285 C 3.6993964,23.517463 3.2114546,24.347779 3.056856,25.24679 L 31.498779,46.047639 59.80552,24.69339 C 59.573601,24.0121 59.140439,23.400015 58.533181,22.955285 L 33.592828,4.6850352 C 32.979047,4.2357471 32.245005,3.9999386 31.498779,4.0000016 Z"
       id="path8" />
    <path
       style="opacity:0.2;fill:#ffffff;stroke-width:0.982609"
       d="m 31.500031,4 c -0.746226,-6.3e-5 -1.482259,0.2376624 -2.096039,0.6869505 L 4.4664623,22.954462 C 4.150682,23.185728 3.8968712,23.47144 3.679487,23.779565 c -0.00648,-3.38e-4 -0.012725,3.48e-4 -0.019197,0 -0.034809,0.04938 -0.063788,0.102561 -0.095975,0.15351 -0.017456,0.0278 -0.033239,0.0562 -0.049906,0.08444 -0.1067198,0.179598 -0.1987033,0.365827 -0.2725627,0.56031 -0.00446,0.0118 -0.011008,0.02264 -0.015359,0.03456 -0.1531015,0.416097 -0.2264356,0.859654 -0.218817,1.308659 0.00218,0.145399 0.021664,0.290463 0.040309,0.435578 0.034528,-0.260343 0.088097,-0.516055 0.178509,-0.761779 0.00432,-0.01192 0.010878,-0.02276 0.01536,-0.03456 0.073858,-0.194474 0.1658429,-0.380712 0.2725627,-0.560302 0.016667,-0.02824 0.032451,-0.05664 0.049906,-0.08444 0.032184,-0.05096 0.061167,-0.104109 0.095975,-0.153509 0.00648,3.38e-4 0.012725,-3.39e-4 0.019197,0 0.2173842,-0.308133 0.471195,-0.593845 0.7869753,-0.825111 L 29.403992,5.6694046 c 0.61378,-0.4492881 1.349813,-0.6870135 2.096039,-0.6869505 0.746227,-6.3e-5 1.478422,0.2376625 2.092203,0.6869505 L 58.533601,23.936912 c 0.206193,0.15101 0.383974,0.328515 0.548963,0.514255 0.0736,0.08261 0.145982,0.164872 0.21114,0.253292 0.02417,0.03282 0.04616,0.06618 0.06913,0.09978 0.07579,0.110471 0.144602,0.223937 0.207301,0.341558 0.02673,0.05038 0.04859,0.101983 0.07295,0.153504 0.04849,0.102433 0.09573,0.204453 0.13436,0.310852 0.0081,0.02216 0.01924,0.04289 0.02685,0.06521 v 0.0039 c 0.0072,0.02116 0.0086,0.04391 0.01534,0.06521 0.04191,0.131066 0.07687,0.263872 0.10365,0.399121 0.01353,0.0681 0.02576,0.136588 0.03647,0.205315 0.01555,-0.106774 0.03153,-0.213547 0.03643,-0.320451 0.0019,-0.0398 -5.49e-4,-0.07925 0,-0.118964 0.0018,-0.135579 -0.002,-0.268956 -0.01534,-0.402965 -0.0028,-0.02836 -0.0081,-0.05618 -0.01152,-0.08444 -0.0108,-0.08772 -0.02893,-0.17444 -0.04608,-0.260966 -0.02673,-0.13524 -0.06175,-0.268048 -0.10365,-0.399119 -0.007,-0.0213 -0.0084,-0.04405 -0.01534,-0.06521 v -0.0039 c -0.0078,-0.02232 -0.0189,-0.04305 -0.02685,-0.06521 -0.03863,-0.106399 -0.08587,-0.208427 -0.13436,-0.310856 -0.02434,-0.05154 -0.04621,-0.103129 -0.07294,-0.153509 -0.06272,-0.117621 -0.131531,-0.231078 -0.207302,-0.341557 -0.02297,-0.03358 -0.04497,-0.06694 -0.06913,-0.09978 -0.06512,-0.0884 -0.13755,-0.170652 -0.211139,-0.253292 -0.16499,-0.18574 -0.342771,-0.363245 -0.548963,-0.514248 L 33.592234,4.6869505 C 32.978453,4.2376624 32.246258,3.999937 31.500031,4 Z"
       id="path9" />
  </g>
</svg>
