<?xml version="1.0" encoding="UTF-8" standalone="no"?>
<svg
   width="62"
   height="62"
   version="1.1"
   id="svg5"
   sodipodi:docname="org.horizon_eda.HorizonEDA.svg"
   inkscape:version="1.4 (unknown)"
   xmlns:inkscape="http://www.inkscape.org/namespaces/inkscape"
   xmlns:sodipodi="http://sodipodi.sourceforge.net/DTD/sodipodi-0.dtd"
   xmlns="http://www.w3.org/2000/svg"
   xmlns:svg="http://www.w3.org/2000/svg">
  <defs
     id="defs5" />
  <sodipodi:namedview
     id="namedview5"
     pagecolor="#ffffff"
     bordercolor="#000000"
     borderopacity="0.25"
     inkscape:showpageshadow="2"
     inkscape:pageopacity="0.0"
     inkscape:pagecheckerboard="0"
     inkscape:deskcolor="#d1d1d1"
     inkscape:zoom="12.109375"
     inkscape:cx="33.073548"
     inkscape:cy="33.899355"
     inkscape:window-width="1920"
     inkscape:window-height="998"
     inkscape:window-x="0"
     inkscape:window-y="0"
     inkscape:window-maximized="1"
     inkscape:current-layer="svg5" />
  <g
     id="g5"
     transform="translate(-1,-1.5)">
    <circle
       style="opacity:0.2"
       class="st1"
       cx="32"
       cy="33"
       r="28"
       id="circle1" />
    <circle
       style="fill:#2d3c52;fill-opacity:1"
       class="st1"
       cx="32"
       cy="32"
       r="28"
       id="circle2" />
    <path
       style="opacity:0.2"
       class="st2"
       d="m 32,20 a 7,7 0 0 0 -7,7 7,7 0 0 0 7,7 7,7 0 0 0 7,-7 7,7 0 0 0 -7,-7 z M 8.5898438,38 a 24,24 0 0 0 0.84375,3 H 54.566406 a 24,24 0 0 0 0.84375,-3 z m 2.1406252,6 a 24,24 0 0 0 2.595703,4 h 37.347656 a 24,24 0 0 0 2.595703,-4 z m 5.414062,7 A 24,24 0 0 0 32,57 24,24 0 0 0 47.855469,51 Z"
       id="path2" />
    <circle
       style="fill:#00ccff"
       class="st2"
       cx="32"
       cy="26"
       r="7"
       id="circle3" />
    <path
       style="fill:#f3f3f3;fill-opacity:1"
       d="m 8.5898438,37 a 24,24 0 0 0 0.84375,3 H 54.566406 a 24,24 0 0 0 0.84375,-3 z m 2.1406252,6 a 24,24 0 0 0 2.595703,4 h 37.347656 a 24,24 0 0 0 2.595703,-4 z m 5.414062,7 A 24,24 0 0 0 32,56 24,24 0 0 0 47.855469,50 Z"
       id="path3" />
    <path
       style="opacity:0.1;fill:#ffffff"
       class="st1"
       d="M 32,4 A 28,28 0 0 0 4,32 28,28 0 0 0 4.0351562,32.5 28,28 0 0 1 32,5 28,28 0 0 1 59.982422,32.251953 28,28 0 0 0 60,32 28,28 0 0 0 32,4 Z"
       id="path4" />
    <path
       style="opacity:0.2;fill:#ffffff"
       class="st2"
       d="m 32,19 a 7,7 0 0 0 -7,7 7,7 0 0 0 0.05664,0.5 A 7,7 0 0 1 32,20 7,7 0 0 1 38.962891,26.320312 7,7 0 0 0 39,26 7,7 0 0 0 32,19 Z M 8.5898438,37 a 24,24 0 0 0 0.28125,1 H 55.128906 a 24,24 0 0 0 0.28125,-1 z m 2.1406252,6 a 24,24 0 0 0 0.580078,1 h 41.378906 a 24,24 0 0 0 0.580078,-1 z m 5.414062,7 a 24,24 0 0 0 1.28125,1 h 29.148438 a 24,24 0 0 0 1.28125,-1 z"
       id="path5" />
  </g>
</svg>
