<?xml version="1.0" encoding="UTF-8" standalone="no"?>
<!-- Created with Inkscape (http://www.inkscape.org/) -->

<svg
   width="62"
   height="62"
   viewBox="0 0 62 62"
   version="1.1"
   id="svg1"
   inkscape:version="1.4 (unknown)"
   sodipodi:docname="org.xfce.panel.directorymenu.svg"
   xmlns:inkscape="http://www.inkscape.org/namespaces/inkscape"
   xmlns:sodipodi="http://sodipodi.sourceforge.net/DTD/sodipodi-0.dtd"
   xmlns:xlink="http://www.w3.org/1999/xlink"
   xmlns="http://www.w3.org/2000/svg"
   xmlns:svg="http://www.w3.org/2000/svg">
  <sodipodi:namedview
     id="namedview1"
     pagecolor="#ffffff"
     bordercolor="#000000"
     borderopacity="0.25"
     inkscape:showpageshadow="2"
     inkscape:pageopacity="0.0"
     inkscape:pagecheckerboard="0"
     inkscape:deskcolor="#d1d1d1"
     inkscape:document-units="px"
     inkscape:zoom="10.74725"
     inkscape:cx="30.8451"
     inkscape:cy="59.596641"
     inkscape:window-width="1920"
     inkscape:window-height="998"
     inkscape:window-x="0"
     inkscape:window-y="0"
     inkscape:window-maximized="1"
     inkscape:current-layer="layer1"
     showgrid="true">
    <inkscape:grid
       id="grid1"
       units="px"
       originx="0"
       originy="0"
       spacingx="1"
       spacingy="1"
       empcolor="#0099e5"
       empopacity="0.30196078"
       color="#0099e5"
       opacity="0.14901961"
       empspacing="5"
       enabled="true"
       visible="true" />
  </sodipodi:namedview>
  <defs
     id="defs1">
    <linearGradient
       id="linearGradient5"
       inkscape:collect="always">
      <stop
         style="stop-color:#566c80;stop-opacity:1;"
         offset="0"
         id="stop5" />
      <stop
         style="stop-color:#506577;stop-opacity:1;"
         offset="0.16268198"
         id="stop8" />
      <stop
         style="stop-color:#394a54;stop-opacity:1;"
         offset="0.82777005"
         id="stop7" />
      <stop
         style="stop-color:#33434c;stop-opacity:1;"
         offset="1"
         id="stop6" />
    </linearGradient>
    <linearGradient
       id="linearGradient3"
       inkscape:collect="always">
      <stop
         style="stop-color:#b89be3;stop-opacity:1;"
         offset="0"
         id="stop3" />
      <stop
         style="stop-color:#4f278d;stop-opacity:1;"
         offset="1"
         id="stop4" />
    </linearGradient>
    <linearGradient
       id="linearGradient1"
       inkscape:collect="always">
      <stop
         style="stop-color:#80b3ff;stop-opacity:1;"
         offset="0"
         id="stop1" />
      <stop
         style="stop-color:#007a99;stop-opacity:1;"
         offset="1"
         id="stop2" />
    </linearGradient>
    <radialGradient
       id="paint664_radial_890_11"
       cx="0"
       cy="0"
       r="1"
       gradientUnits="userSpaceOnUse"
       gradientTransform="matrix(-16.000099,-9.999913,9.999913,-16.000099,583,171)">
      <stop
         offset="0.42141"
         stop-color="#B7C6CD"
         id="stop2071" />
      <stop
         offset="1"
         stop-color="#EFF2F6"
         id="stop2072" />
    </radialGradient>
    <linearGradient
       id="paint665_linear_890_11"
       x1="605"
       y1="180"
       x2="601.466"
       y2="162.72301"
       gradientUnits="userSpaceOnUse">
      <stop
         stop-color="#5200FF"
         id="stop2073" />
      <stop
         offset="1"
         stop-color="#0085FF"
         id="stop2074" />
    </linearGradient>
    <linearGradient
       id="paint666_linear_890_11"
       x1="567"
       y1="181"
       x2="562.11798"
       y2="174.183"
       gradientUnits="userSpaceOnUse">
      <stop
         stop-color="#5200FF"
         id="stop2075" />
      <stop
         offset="0.670391"
         stop-color="#0085FF"
         id="stop2076" />
    </linearGradient>
    <linearGradient
       id="paint667_linear_890_11"
       x1="605"
       y1="180"
       x2="597.32001"
       y2="174.24001"
       gradientUnits="userSpaceOnUse">
      <stop
         stop-color="#5200FF"
         id="stop2077" />
      <stop
         offset="1"
         stop-color="#0085FF"
         id="stop2078" />
    </linearGradient>
    <linearGradient
       id="paint668_linear_890_11"
       x1="567"
       y1="180"
       x2="561.23999"
       y2="172.32001"
       gradientUnits="userSpaceOnUse">
      <stop
         stop-color="#5200FF"
         id="stop2079" />
      <stop
         offset="1"
         stop-color="#0085FF"
         id="stop2080" />
    </linearGradient>
    <linearGradient
       id="paint669_linear_890_11"
       x1="607"
       y1="179"
       x2="602.50598"
       y2="171.80901"
       gradientUnits="userSpaceOnUse">
      <stop
         stop-color="#5200FF"
         id="stop2081" />
      <stop
         offset="1"
         stop-color="#0085FF"
         id="stop2082" />
    </linearGradient>
    <linearGradient
       id="paint670_linear_890_11"
       x1="607"
       y1="217"
       x2="568.82599"
       y2="170.01601"
       gradientUnits="userSpaceOnUse">
      <stop
         stop-color="#5200FF"
         id="stop2083" />
      <stop
         offset="1"
         stop-color="#0085FF"
         id="stop2084" />
    </linearGradient>
    <radialGradient
       id="paint671_radial_890_11"
       cx="0"
       cy="0"
       r="1"
       gradientUnits="userSpaceOnUse"
       gradientTransform="matrix(0,20,-16,0,583,187)">
      <stop
         offset="0.869716"
         stop-color="#EFF2F6"
         id="stop2085" />
      <stop
         offset="1"
         stop-color="#B7C6CD"
         id="stop2086" />
    </radialGradient>
    <linearGradient
       id="paint497_linear_890_11"
       x1="497"
       y1="413"
       x2="447.457"
       y2="376.79599"
       gradientUnits="userSpaceOnUse"
       gradientTransform="translate(-452,-358)">
      <stop
         offset="0.636456"
         stop-color="#71706E"
         id="stop1737" />
      <stop
         offset="1"
         stop-color="#B9AA99"
         id="stop1738" />
    </linearGradient>
    <linearGradient
       id="paint498_linear_890_11"
       x1="507"
       y1="413"
       x2="457.457"
       y2="376.79599"
       gradientUnits="userSpaceOnUse"
       gradientTransform="translate(-452,-358)">
      <stop
         offset="0.544933"
         stop-color="#FF7E07"
         id="stop1739" />
      <stop
         offset="1"
         stop-color="#FFE607"
         id="stop1740" />
    </linearGradient>
    <linearGradient
       id="paint499_linear_890_11"
       x1="473"
       y1="365"
       x2="486.28699"
       y2="389.91299"
       gradientUnits="userSpaceOnUse"
       gradientTransform="translate(-452,-358)">
      <stop
         stop-color="white"
         id="stop1741" />
      <stop
         offset="0.705"
         stop-color="#EAEFEF"
         id="stop1742" />
    </linearGradient>
    <linearGradient
       id="paint500_linear_890_11"
       x1="480"
       y1="371.5"
       x2="480"
       y2="368.5"
       gradientUnits="userSpaceOnUse"
       gradientTransform="translate(-452,-358)">
      <stop
         offset="0.155999"
         stop-color="#71706E"
         id="stop1743" />
      <stop
         offset="0.796276"
         stop-color="#B9AA99"
         id="stop1744" />
    </linearGradient>
    <linearGradient
       id="paint501_linear_890_11"
       x1="479"
       y1="375.5"
       x2="479"
       y2="372.5"
       gradientUnits="userSpaceOnUse"
       gradientTransform="translate(-452,-358)">
      <stop
         offset="0.155999"
         stop-color="#71706E"
         id="stop1745" />
      <stop
         offset="0.796276"
         stop-color="#B9AA99"
         id="stop1746" />
    </linearGradient>
    <linearGradient
       id="paint502_linear_890_11"
       x1="511"
       y1="417"
       x2="455.64352"
       y2="380.82346"
       gradientUnits="userSpaceOnUse"
       gradientTransform="translate(-452,-358)">
      <stop
         offset="0.18397722"
         stop-color="#2E2E41"
         id="stop1747"
         style="stop-color:#33424d;stop-opacity:1;" />
      <stop
         offset="1"
         stop-color="#566C80"
         id="stop1748" />
    </linearGradient>
    <linearGradient
       inkscape:collect="always"
       xlink:href="#linearGradient1"
       id="linearGradient2"
       x1="35"
       y1="3.259999"
       x2="35"
       y2="34.459991"
       gradientUnits="userSpaceOnUse"
       gradientTransform="matrix(1,0,0,0.76923091,0,10.492308)" />
    <linearGradient
       inkscape:collect="always"
       xlink:href="#linearGradient3"
       id="linearGradient4"
       x1="12"
       y1="3"
       x2="17"
       y2="29"
       gradientUnits="userSpaceOnUse" />
    <linearGradient
       inkscape:collect="always"
       xlink:href="#linearGradient5"
       id="linearGradient6"
       x1="4"
       y1="23"
       x2="58"
       y2="58"
       gradientUnits="userSpaceOnUse" />
  </defs>
  <g
     inkscape:label="Layer 1"
     inkscape:groupmode="layer"
     id="layer1">
    <path
       d="M 7,8 C 7,5.239 9.239,3 12,3 h 28 c 2.761,0 5,2.239 5,5 v 42 c 0,2.761 -2.239,5 -5,5 H 12 C 9.239,55 7,52.761 7,50 Z"
       id="path487"
       style="fill:url(#linearGradient4)" />
    <path
       d="m 17,18 c 0,-3 2,-5.2 5,-5.2 h 28 c 3,0 5,2.2 5,5.2 V 48.953845 C 55,51.077687 52.761,52.8 50,52.8 H 22 c -2.761,0 -5,-1.722313 -5,-3.846155 z"
       id="path488"
       style="fill:url(#linearGradient2);fill-opacity:1;stroke-width:0.877058"
       sodipodi:nodetypes="sssssssss" />
    <path
       d="M 3,55 V 25 c 0,-2.209 1.791,-4 4,-4 h 9 c 0.657,0 1.303,0.162 1.882,0.47 l 39,21.795 C 58.186,43.961 59,45.318 59,46.795 V 55 c 0,2.209 -1.791,4 -4,4 H 7 C 4.791,59 3,57.209 3,55 Z"
       id="path492"
       style="fill:url(#linearGradient6)" />
    <path
       id="path599"
       style="fill:#d5e5ff;fill-opacity:0.79763663;stroke-width:0.803782"
       d="M 8.6153851,31 C 7.720704,31 7,31.713767 7,32.599783 v 2.401268 H 28 V 32.599783 C 28,31.713743 27.279268,31 26.384613,31 Z m 0.8093072,1.596664 A 0.80898452,0.8011705 0 0 1 10.232385,33.398152 0.80898452,0.8011705 0 0 1 9.4246923,34.199644 0.80898452,0.8011705 0 0 1 8.6153851,33.398152 0.80898452,0.8011705 0 0 1 9.4246923,32.596664 Z M 7,35.797825 v 4.001052 h 21 v -4.001052 z m 2.4246923,1.599782 A 0.80898452,0.8011705 0 0 1 10.232385,38.199093 0.80898452,0.8011705 0 0 1 9.4246923,39.000588 0.80898452,0.8011705 0 0 1 8.6153851,38.199093 0.80898452,0.8011705 0 0 1 9.4246923,37.397607 Z M 7,40.598769 v 4.001052 h 21 v -4.001052 z m 2.4246923,1.596662 A 0.80898452,0.8011705 0 0 1 10.232385,42.99692 0.80898452,0.8011705 0 0 1 9.4246923,43.79841 0.80898452,0.8011705 0 0 1 8.6153851,42.99692 0.80898452,0.8011705 0 0 1 9.4246923,42.195431 Z M 7,45.396592 v 4.001055 h 21 v -4.001055 z m 2.4246923,1.599784 A 0.80898452,0.8011705 0 0 1 10.232385,47.797862 0.80898452,0.8011705 0 0 1 9.4246923,48.599356 0.80898452,0.8011705 0 0 1 8.6153851,47.797862 0.80898452,0.8011705 0 0 1 9.4246923,46.996376 Z M 7,50.199054 v 3.201161 C 7,54.286257 7.7207282,55 8.6153851,55 H 26.384613 C 27.279295,55 28,54.28623 28,53.400215 v -3.201161 z m 2.4246923,1.595062 A 0.80898452,0.8011705 0 0 1 10.232385,52.59561 0.80898452,0.8011705 0 0 1 9.4246923,53.397095 0.80898452,0.8011705 0 0 1 8.6153851,52.59561 0.80898452,0.8011705 0 0 1 9.4246923,51.794116 Z" />
  </g>
</svg>
