<?xml version="1.0" encoding="UTF-8" standalone="no"?>
<svg
   width="62"
   height="62"
   version="1.1"
   id="svg12"
   sodipodi:docname="org.xfce.Gigolo.svg"
   inkscape:version="1.4 (unknown)"
   xmlns:inkscape="http://www.inkscape.org/namespaces/inkscape"
   xmlns:sodipodi="http://sodipodi.sourceforge.net/DTD/sodipodi-0.dtd"
   xmlns="http://www.w3.org/2000/svg"
   xmlns:svg="http://www.w3.org/2000/svg">
  <defs
     id="defs12" />
  <sodipodi:namedview
     id="namedview12"
     pagecolor="#ffffff"
     bordercolor="#000000"
     borderopacity="0.25"
     inkscape:showpageshadow="2"
     inkscape:pageopacity="0.0"
     inkscape:pagecheckerboard="0"
     inkscape:deskcolor="#d1d1d1"
     inkscape:zoom="12.109375"
     inkscape:cx="32"
     inkscape:cy="31.752258"
     inkscape:window-width="1920"
     inkscape:window-height="998"
     inkscape:window-x="0"
     inkscape:window-y="0"
     inkscape:window-maximized="1"
     inkscape:current-layer="svg12" />
  <g
     id="g12"
     transform="translate(-0.99995645,-1)">
    <path
       style="opacity:0.2;stroke-width:0.983034"
       d="m 3.3821409,54.1054 a 1.3628892,1.4736837 0 1 0 0,2.947072 H 60.617772 a 1.3628892,1.4736837 0 1 0 0,-2.947072 z"
       id="path1" />
    <path
       style="fill:#bcc5ca;stroke-width:0.983034"
       d="m 33.475364,52.556001 h -2.950815 v -8.399998 h 2.950815 z"
       id="path2" />
    <path
       style="fill:#bcc5ca;stroke-width:0.983034"
       d="m 3.3821409,53.122942 a 1.3628892,1.4736837 0 1 0 0,2.947077 H 60.617772 a 1.3628892,1.4736837 0 1 0 0,-2.947077 z"
       id="path3" />
    <rect
       style="opacity:0.2;stroke-width:0.983034"
       width="18.688494"
       height="8.8421059"
       x="22.655708"
       y="51.157894"
       ry="1.7684209"
       id="rect3" />
    <rect
       style="fill:#a0aab0;stroke-width:0.983034"
       width="18.688494"
       height="8.8421059"
       x="22.655708"
       y="50.175438"
       ry="1.7684209"
       id="rect4" />
    <path
       style="opacity:0.2;stroke-width:0.983034"
       d="m 6.9180338,36.666662 v 9.019596 c 0,1.943198 1.7214253,3.506715 3.8591772,3.506715 h 42.44549 c 2.137751,0 3.859171,-1.563517 3.859171,-3.506715 v -9.019596 z"
       id="path4" />
    <path
       style="fill:#dadfe1;stroke-width:0.983034"
       d="m 6.9180338,35.684204 v 9.019602 c 0,1.943195 1.7214253,3.506713 3.8591772,3.506713 h 42.44549 c 2.137751,0 3.859171,-1.563518 3.859171,-3.506713 v -9.019602 z"
       id="path5" />
    <path
       style="opacity:0.2;stroke-width:0.983034"
       d="m 6.9180338,36.421045 v 0.772667 c 0,1.748765 1.7214253,3.15716 3.8591772,3.15716 h 42.44549 c 2.137751,0 3.859171,-1.408395 3.859171,-3.15716 v -0.772667 z"
       id="path6" />
    <path
       style="fill:#ffffff;stroke-width:0.983034"
       d="m 6.9180338,35.438592 v 0.772659 c 0,1.748768 1.7214253,3.157162 3.8591772,3.157162 h 42.44549 c 2.137751,0 3.859171,-1.408394 3.859171,-3.157162 v -0.772659 z"
       id="path7" />
    <path
       style="fill:#2ad4ff;stroke-width:0.983034"
       d="M 10.776786,4 C 8.6390387,4 6.9180337,5.5064349 6.9180337,7.3776558 V 35.438592 H 57.081852 V 7.3776558 C 57.081852,5.5064349 55.360845,4 53.223101,4 Z"
       id="path8" />
    <path
       style="opacity:0.1;stroke-width:0.983034"
       d="m 25.114722,42.315782 a 2.4590118,2.4561398 0 0 0 -2.459012,2.45614 2.4590118,2.4561398 0 0 0 2.459012,2.45614 2.4590118,2.4561398 0 0 0 2.459011,-2.45614 2.4590118,2.4561398 0 0 0 -2.459011,-2.45614 z m 6.885232,0 a 2.4590118,2.4561398 0 0 0 -2.459012,2.45614 2.4590118,2.4561398 0 0 0 2.459012,2.45614 2.4590118,2.4561398 0 0 0 2.459011,-2.45614 2.4590118,2.4561398 0 0 0 -2.459011,-2.45614 z m 6.885234,0 a 2.4590118,2.4561398 0 0 0 -2.459013,2.45614 2.4590118,2.4561398 0 0 0 2.459013,2.45614 2.4590118,2.4561398 0 0 0 2.459013,-2.45614 2.4590118,2.4561398 0 0 0 -2.459013,-2.45614 z"
       id="path9" />
    <ellipse
       style="fill:#37c871;stroke-width:0.983034"
       cx="25.114727"
       cy="43.789467"
       id="circle9"
       rx="2.459012"
       ry="2.45614" />
    <path
       style="opacity:0.2;stroke-width:0.983034"
       d="m 34.704865,10.87719 a 5.4098266,5.3333322 0 0 0 -5.317375,4.382814 6.0860545,5.9999988 0 0 0 -2.121138,-0.382815 6.0860545,5.9999988 0 0 0 -6.086056,6 6.0860545,5.9999988 0 0 0 0.07926,0.92969 4.0573702,3.9999989 0 0 0 -1.431699,-0.263021 4.0573702,3.9999989 0 0 0 -4.05737,3.999999 4.0573702,3.9999989 0 0 0 4.05737,3.999998 h 25.696671 v -0.07291 a 3.3811413,3.3333324 0 0 0 2.704913,-3.260422 3.3811413,3.3333324 0 0 0 -3.381143,-3.333328 3.3811413,3.3333324 0 0 0 -0.67887,0.07292 5.4098266,5.3333322 0 0 0 0.0027,-0.07292 5.4098266,5.3333322 0 0 0 -4.266049,-5.210937 5.4098266,5.3333322 0 0 0 0.208675,-1.455733 5.4098266,5.3333322 0 0 0 -5.409823,-5.333331 z"
       id="path10" />
    <path
       style="fill:#ffffff;stroke-width:0.983034"
       d="m 34.704865,9.8947358 a 5.4098266,5.3333322 0 0 0 -5.317375,4.3828082 6.0860545,5.9999988 0 0 0 -2.121138,-0.382807 6.0860545,5.9999988 0 0 0 -6.086056,6 6.0860545,5.9999988 0 0 0 0.07926,0.929683 4.0573702,3.9999989 0 0 0 -1.431699,-0.26302 4.0573702,3.9999989 0 0 0 -4.05737,3.999999 4.0573702,3.9999989 0 0 0 4.05737,3.999999 h 25.696671 v -0.07291 a 3.3811413,3.3333324 0 0 0 2.704913,-3.260423 3.3811413,3.3333324 0 0 0 -3.381143,-3.333334 3.3811413,3.3333324 0 0 0 -0.67887,0.07292 5.4098266,5.3333322 0 0 0 0.0027,-0.07292 5.4098266,5.3333322 0 0 0 -4.266049,-5.210939 5.4098266,5.3333322 0 0 0 0.208675,-1.455725 5.4098266,5.3333322 0 0 0 -5.409823,-5.3333333 z"
       id="path11" />
    <ellipse
       style="fill:#37c871;stroke-width:0.983034"
       cx="31.999962"
       cy="43.789467"
       id="circle11"
       rx="2.459012"
       ry="2.45614" />
    <ellipse
       style="fill:#c83771;stroke-width:0.983034"
       cx="38.885193"
       cy="43.789467"
       id="circle12"
       rx="2.459012"
       ry="2.45614" />
    <path
       style="opacity:0.2;fill:#ffffff;stroke-width:0.983034"
       d="M 10.777528,4 C 8.6397796,4 6.9180337,5.5059721 6.9180337,7.3771922 v 0.982456 c 0,-1.8712202 1.7217459,-3.3771923 3.8594943,-3.3771923 h 42.444849 c 2.137745,0 3.859495,1.5059721 3.859495,3.3771923 V 7.3771922 C 57.081872,5.5059721 55.360122,4 53.222377,4 Z"
       id="path12" />
  </g>
</svg>
