<?xml version="1.0" encoding="UTF-8" standalone="no"?>
<svg
   width="62"
   height="62"
   version="1.1"
   id="svg12"
   sodipodi:docname="org.prismlauncher.PrismLauncher.svg"
   inkscape:version="1.4 (unknown)"
   xmlns:inkscape="http://www.inkscape.org/namespaces/inkscape"
   xmlns:sodipodi="http://sodipodi.sourceforge.net/DTD/sodipodi-0.dtd"
   xmlns="http://www.w3.org/2000/svg"
   xmlns:svg="http://www.w3.org/2000/svg">
  <defs
     id="defs12" />
  <sodipodi:namedview
     id="namedview12"
     pagecolor="#ffffff"
     bordercolor="#000000"
     borderopacity="0.25"
     inkscape:showpageshadow="2"
     inkscape:pageopacity="0.0"
     inkscape:pagecheckerboard="0"
     inkscape:deskcolor="#d1d1d1"
     inkscape:zoom="12.109375"
     inkscape:cx="32"
     inkscape:cy="32"
     inkscape:window-width="1920"
     inkscape:window-height="998"
     inkscape:window-x="0"
     inkscape:window-y="0"
     inkscape:window-maximized="1"
     inkscape:current-layer="svg12" />
  <g
     id="g12"
     transform="translate(-0.25,-0.223)">
    <path
       fill="#df6277"
       d="M 31.25,3.223973 19.147481,24.223243 31.25,31.223 43.350577,24.223243 43.876942,9.3139754 C 38.349135,6.1166998 32.64749,3.223 31.25,3.223 Z"
       id="path1"
       style="stroke-width:0.2576" />
    <path
       fill="#fb9168"
       d="M 43.875971,9.3139754 31.250971,31.223 43.350577,38.22373 55.453096,17.223486 C 54.753865,16.011129 49.402807,12.511251 43.876942,9.3139754 Z"
       id="path2"
       style="stroke-width:0.2576" />
    <path
       fill="#f3db6c"
       d="M 55.453096,17.223486 31.25,31.223 43.350577,38.22373 56.5,31.223 c 0,-6.392605 -0.347673,-12.787156 -1.046904,-13.999514"
       id="path3"
       style="stroke-width:0.2576" />
    <path
       fill="#7ab392"
       d="M 31.25,31.223 V 45.224459 H 55.453096 C 56.150384,44.011129 56.5,37.617551 56.5,31.223 Z"
       id="path4"
       style="stroke-width:0.2576" />
    <path
       fill="#4b7cbc"
       d="m 31.25,31.223 v 14.001459 l 12.625971,7.909512 c 5.526836,-3.197276 10.877894,-6.698127 11.576154,-7.910485 z"
       id="path5"
       style="stroke-width:0.2576" />
    <path
       fill="#6f488c"
       d="M 31.25,31.223 19.147481,38.22373 31.25,59.223 c 1.398462,0 7.099135,-2.8937 12.625971,-6.090975 z"
       id="path6"
       style="stroke-width:0.2576" />
    <path
       fill="#4d3f33"
       d="M 19.147481,24.223243 7.0469037,45.224459 C 8.4463365,47.647228 28.456961,59.223 31.25,59.223 v -28 z"
       id="path7"
       style="stroke-width:0.2576;fill:#6c5d53" />
    <path
       fill="#7a573b"
       d="m 7.048846,17.223486 c -1.3984614,2.424715 -1.3984614,25.574313 0,28 L 31.25,31.223 V 17.223486 Z"
       id="path8"
       style="stroke-width:0.2576;fill:#917c6f" />
    <path
       fill="#99cd61"
       d="m 31.25,3.223973 c -2.79401,0 -22.8046347,11.574799 -24.201154,13.999513 L 31.25,31.223 Z"
       id="path9"
       style="stroke-width:0.2576" />
    <path
       fill="#ffffff"
       d="m 31.252913,17.223487 c -1.396517,0 -11.401344,5.787398 -12.099602,6.999756 L 31.253886,45.223487 43.355434,24.223243 C 42.656203,23.010885 32.651375,17.223487 31.252913,17.223487"
       id="path10"
       style="stroke-width:0.972073" />
    <path
       fill="#dfdfdf"
       d="m 19.154276,24.223243 12.09961,20.999271 c 1.397489,0 11.403288,-5.787398 12.101548,-6.999757 0.69923,-1.212356 0.69923,-12.787158 0,-13.999514 l -12.101548,6.999758 z"
       id="path11"
       style="stroke-width:0.972073" />
    <path
       fill="#d6d2d2"
       d="m 19.151364,24.223243 c -0.69923,1.212356 -0.69923,12.78813 0,14.000486 0.699232,1.212356 10.702117,6.999758 12.100578,6.999758 V 31.223001 Z"
       id="path12"
       style="stroke-width:0.972073" />
  </g>
</svg>
