<?xml version="1.0" encoding="UTF-8" standalone="no"?>
<svg
   width="62"
   height="62"
   version="1.1"
   id="svg9"
   sodipodi:docname="org.gnome.Solanum.svg"
   inkscape:version="1.4 (unknown)"
   xmlns:inkscape="http://www.inkscape.org/namespaces/inkscape"
   xmlns:sodipodi="http://sodipodi.sourceforge.net/DTD/sodipodi-0.dtd"
   xmlns="http://www.w3.org/2000/svg"
   xmlns:svg="http://www.w3.org/2000/svg">
  <defs
     id="defs9" />
  <sodipodi:namedview
     id="namedview9"
     pagecolor="#ffffff"
     bordercolor="#000000"
     borderopacity="0.25"
     inkscape:showpageshadow="2"
     inkscape:pageopacity="0.0"
     inkscape:pagecheckerboard="0"
     inkscape:deskcolor="#d1d1d1"
     inkscape:zoom="12.109375"
     inkscape:cx="32"
     inkscape:cy="32"
     inkscape:window-width="1920"
     inkscape:window-height="998"
     inkscape:window-x="0"
     inkscape:window-y="0"
     inkscape:window-maximized="1"
     inkscape:current-layer="svg9" />
  <g
     id="g9"
     transform="matrix(1.0021247,0,0,1,0.24150099,1.0413678)">
    <circle
       style="opacity:0.2;stroke-width:0.953333"
       cx="30.693285"
       cy="31.565346"
       r="26.693285"
       id="circle1" />
    <circle
       style="fill:#c83771;stroke-width:0.953333"
       cx="30.693285"
       cy="30.612019"
       r="26.693285"
       id="circle2" />
    <path
       style="opacity:0.2;fill:#ffffff;stroke-width:0.953333"
       d="M 30.693282,3.9187329 A 26.693282,26.693282 0 0 0 4,30.612017 26.693282,26.693282 0 0 0 4.0167578,31.081236 26.693282,26.693282 0 0 1 30.693282,4.8720649 26.693282,26.693282 0 0 1 57.362363,31.081236 26.693282,26.693282 0 0 0 57.386569,30.612017 26.693282,26.693282 0 0 0 30.693282,3.9187329 Z"
       id="path2" />
    <path
       style="opacity:0.1;stroke-width:0.953333"
       d="m 26.520719,4.5408109 c -1.805618,0.3823268 -6.734142,0.7142546 -8.996818,6.2857831 3.022115,-2.4712146 7.19294,-2.8222594 9.747569,-3.717249 -1.17652,5.950376 2.763173,7.57874 4.250766,8.781326 C 30.479529,11.613836 30.516025,8.996643 33.074131,7.4464868 37.404839,11.853659 41.031718,10.19402 43.313503,9.5527542 41.257639,8.6977347 38.553551,8.9549349 35.543605,5.3593359 35.371558,5.1542704 40.644179,6.7600391 41.871095,7.3265755 41.118612,6.1813366 37.625541,5.0812814 35.708701,4.4504436 33.79186,3.819605 29.181358,3.9794871 26.520719,4.5408133 Z m 0,0"
       id="path3" />
    <path
       style="fill:#46d28b;stroke-width:0.953333;fill-opacity:1"
       d="m 26.520719,3.5868036 c -1.805618,0.382326 -6.734142,0.7142547 -8.996818,6.2857853 3.022115,-2.4712169 7.19294,-2.8222613 9.747569,-3.7172509 -1.17652,5.950377 2.763173,7.578737 4.250766,8.781327 C 30.479529,10.659829 30.516025,8.0426361 33.074131,6.4924796 37.404839,10.899655 41.031718,9.240011 43.313503,8.5987464 41.257639,7.7437272 38.553551,8.0009277 35.543605,4.4053287 35.371558,4.2002631 40.644179,5.8060318 41.871095,6.3725683 41.118612,5.2273293 37.625541,4.1272735 35.708701,3.4964358 33.79186,2.8655981 29.181358,3.0254799 26.520719,3.5868063 Z m 0,0"
       id="path4" />
    <path
       style="opacity:0.2;stroke-width:0.953333"
       d="m 42.133264,22.032092 -13.867615,6.986656 -0.448583,0.224299 -0.01298,0.01812 c -0.458783,0.241518 -0.898218,0.531809 -1.283899,0.917805 -2.062483,2.060754 -2.062483,5.405426 0,7.466182 2.060763,2.06249 5.405423,2.06249 7.466188,0 0.533311,-0.532866 0.923263,-1.15225 1.180766,-1.812407 z"
       id="path5" />
    <path
       style="fill:#f2f2f2;stroke-width:0.953333;fill-opacity:1"
       d="m 42.133264,21.078763 -13.867615,6.986651 -0.448583,0.224299 -0.01298,0.01812 c -0.458783,0.241514 -0.898218,0.531804 -1.283899,0.917806 -2.062483,2.060757 -2.062483,5.405421 0,7.466179 2.060763,2.062488 5.405423,2.062488 7.466188,0 0.533311,-0.532859 0.923263,-1.152246 1.180766,-1.812404 z"
       id="path6" />
    <path
       style="fill:#2d3c52;stroke-width:0.953333;fill-opacity:1"
       d="m 31.90182,31.310139 c 0.930836,0.930833 0.930836,2.439573 0,3.370404 -0.930833,0.930848 -2.439563,0.930848 -3.3704,0 -0.930841,-0.930831 -0.930841,-2.439572 0,-3.370404 0.930837,-0.930828 2.439567,-0.930828 3.3704,0 z m 0,0"
       id="path7" />
    <path
       style="opacity:0.2;fill:#ffffff;stroke-width:0.953333"
       d="m 31.393387,3.0938779 c -1.72481,0.031281 -3.542472,0.2127608 -4.872789,0.4934236 -1.805622,0.3823266 -6.734398,0.7145023 -8.997067,6.2860278 0.246652,-0.2016902 0.502955,-0.3855578 0.763412,-0.5604527 2.464667,-4.1122373 6.609512,-4.4283437 8.233655,-4.7722435 2.59688,-0.5478761 7.034411,-0.7092918 9.028719,-0.1303388 -0.0018,-0.00212 -0.0038,-0.00347 -0.0057,-0.00559 -0.172025,-0.2050657 5.100098,1.4015718 6.327017,1.9681081 C 41.118237,5.2275779 37.626288,4.1269023 35.709448,3.4960647 34.751022,3.1806453 33.118196,3.0625961 31.393387,3.0938779 Z m 4.150345,2.2641622 c 2.284404,2.7288854 4.390067,3.2388265 6.17245,3.6997463 C 42.289757,8.9020763 42.847176,8.7290039 43.313756,8.597878 41.524987,7.8539439 39.244731,7.9509005 36.700016,5.6205787 36.010557,5.4276448 35.491333,5.2955911 35.543732,5.3580401 Z m -8.272757,1.7502575 c -0.04745,0.016612 -0.104166,0.030295 -0.152685,0.046551 -0.0614,0.555747 -0.06473,1.0611749 -0.03722,1.53613 0.02548,-0.4938167 0.07728,-1.0130705 0.189921,-1.5826794 z m 3.640158,4.1373114 c -0.05375,1.001972 0.07959,2.163544 0.361223,3.511687 0.07213,0.0534 0.185772,0.127223 0.249509,0.178749 -0.343519,-1.408994 -0.553054,-2.620516 -0.610732,-3.690436 z"
       id="path8" />
    <path
       style="fill:#1e7b4c;stroke-width:0.953333;fill-opacity:1"
       d="M 31.965386,2.630531 30.839262,2.2586322 c 0,0 -1.444145,1.3920136 -1.652689,1.5675346 -0.359735,0.3075988 2.997785,0.8080978 3.413124,0.5856541 L 32.243439,2.9694112 Z m 0,0"
       id="path9" />
  </g>
</svg>
