<?xml version="1.0" encoding="UTF-8" standalone="no"?>
<svg
   width="62"
   height="62"
   version="1.1"
   id="svg6"
   sodipodi:docname="org.ubuntubudgie.quickchar.svg"
   inkscape:version="1.4 (unknown)"
   xmlns:inkscape="http://www.inkscape.org/namespaces/inkscape"
   xmlns:sodipodi="http://sodipodi.sourceforge.net/DTD/sodipodi-0.dtd"
   xmlns="http://www.w3.org/2000/svg"
   xmlns:svg="http://www.w3.org/2000/svg">
  <defs
     id="defs6" />
  <sodipodi:namedview
     id="namedview6"
     pagecolor="#ffffff"
     bordercolor="#000000"
     borderopacity="0.25"
     inkscape:showpageshadow="2"
     inkscape:pageopacity="0.0"
     inkscape:pagecheckerboard="0"
     inkscape:deskcolor="#d1d1d1"
     inkscape:zoom="6.0546875"
     inkscape:cx="70.44129"
     inkscape:cy="33.940645"
     inkscape:window-width="1920"
     inkscape:window-height="998"
     inkscape:window-x="0"
     inkscape:window-y="0"
     inkscape:window-maximized="1"
     inkscape:current-layer="svg6" />
  <g
     id="g6"
     transform="translate(-0.5,-1.0000002)">
    <rect
       style="opacity:0.2;stroke-width:0.98123"
       width="49"
       height="55.017544"
       x="7"
       y="4.9824567"
       rx="5.4448791"
       id="rect1" />
    <rect
       style="fill:#e4e4e4;stroke-width:0.98123"
       width="49"
       height="55.017544"
       x="7"
       y="4"
       rx="5.4448791"
       id="rect2" />
    <path
       style="opacity:0.2;fill:#ffffff;stroke-width:0.98123"
       d="M 12.443595,4 C 9.4273705,4 7.0000001,6.4334545 7.0000001,9.4572359 v 0.9824611 c 0,-3.0237863 2.4273704,-5.4572412 5.4435949,-5.4572412 h 38.112811 c 3.016221,0 5.443592,2.4334549 5.443592,5.4572412 V 9.4572359 C 55.999998,6.4334545 53.572627,4 50.556406,4 Z"
       id="path2" />
    <rect
       style="fill:#b5b5b5;stroke-width:0.98123"
       width="25.479998"
       height="2.9473684"
       x="18.759996"
       y="33.473679"
       ry="1.4736842"
       id="rect3" />
    <rect
       style="fill:#b5b5b5;stroke-width:0.98123"
       width="25.479998"
       height="2.9473684"
       x="18.759996"
       y="45.263145"
       ry="1.4736842"
       id="rect4" />
    <rect
       style="fill:#b5b5b5;stroke-width:0.98123"
       width="25.479998"
       height="2.9473684"
       x="18.759996"
       y="21.684214"
       ry="1.4736842"
       id="rect5" />
  </g>
  <g
     id="g7"
     transform="matrix(1.0003847,0,0,1,-54.955342,25)">
    <circle
       style="opacity:0.1;stroke-width:0.849672"
       cx="67.679306"
       cy="-11.745097"
       r="12.745097"
       id="circle5" />
    <circle
       style="fill:#2a7fff;stroke-width:0.849672"
       cx="67.679306"
       cy="-12.254903"
       r="12.745097"
       id="circle6" />
    <path
       style="fill:#ffffff;stroke-width:0.849672"
       d="m 63.392734,-18.107267 a 11.396569,13.02821 16.976146 0 0 -2.077873,0.408717 11.396569,13.02821 16.976146 0 0 -3.580942,1.809899 l 3.156693,1.764316 a 11.396569,13.02821 16.976146 0 1 0.376544,-0.128742 11.396569,13.02821 16.976146 0 1 8.172333,0.962661 l -2.934314,1.770712 4.408393,1.945395 4.410002,1.9467274 0.0012,-4.6082034 0.0015,-4.60674 -3.430875,2.070025 a 11.396569,13.02821 16.976146 0 0 -6.419381,-3.320777 11.396569,13.02821 16.976146 0 0 -2.083386,-0.01404 z"
       id="path6" />
  </g>
</svg>
