<?xml version="1.0" encoding="UTF-8" standalone="no"?>
<svg
   width="62"
   height="62"
   version="1.1"
   id="svg29"
   sodipodi:docname="spectacle.svg"
   inkscape:version="1.4.2 (unknown)"
   xmlns:inkscape="http://www.inkscape.org/namespaces/inkscape"
   xmlns:sodipodi="http://sodipodi.sourceforge.net/DTD/sodipodi-0.dtd"
   xmlns:xlink="http://www.w3.org/1999/xlink"
   xmlns="http://www.w3.org/2000/svg"
   xmlns:svg="http://www.w3.org/2000/svg">
  <defs
     id="defs29">
    <linearGradient
       id="linearGradient29"
       inkscape:collect="always">
      <stop
         style="stop-color:#2d3d53;stop-opacity:1;"
         offset="0"
         id="stop29" />
      <stop
         style="stop-color:#354864;stop-opacity:1;"
         offset="1"
         id="stop30" />
    </linearGradient>
    <linearGradient
       inkscape:collect="always"
       xlink:href="#linearGradient29"
       id="linearGradient30"
       x1="30.782633"
       y1="60"
       x2="30.193521"
       y2="5"
       gradientUnits="userSpaceOnUse"
       gradientTransform="matrix(0.98214286,0,0,0.98245614,-0.42857152,-0.92982455)" />
    <linearGradient
       id="paint157_linear_890_11"
       x1="803"
       y1="805"
       x2="763"
       y2="765"
       gradientUnits="userSpaceOnUse"
       gradientTransform="translate(-758,-692)">
      <stop
         offset="0.31471401"
         stop-color="#2E2E41"
         id="stop1056"
         style="stop-color:#8a8aac;stop-opacity:1;" />
      <stop
         offset="0.71113902"
         stop-color="#566C80"
         id="stop1057"
         style="stop-color:#748ca2;stop-opacity:1;" />
    </linearGradient>
    <linearGradient
       id="paint158_linear_890_11"
       x1="792"
       y1="794"
       x2="774"
       y2="776"
       gradientUnits="userSpaceOnUse"
       gradientTransform="translate(-758,-692)">
      <stop
         offset="0.304478"
         stop-color="#2E2E41"
         id="stop1058" />
      <stop
         offset="1"
         stop-color="#566C80"
         id="stop1059" />
    </linearGradient>
    <linearGradient
       id="paint159_linear_890_11"
       x1="788"
       y1="790"
       x2="778"
       y2="780"
       gradientUnits="userSpaceOnUse"
       gradientTransform="translate(-758,-692)">
      <stop
         offset="0.39139399"
         stop-color="#5200FF"
         id="stop1060"
         style="stop-color:#854cff;stop-opacity:1;" />
      <stop
         offset="1"
         stop-color="#0085FF"
         id="stop1061"
         style="stop-color:#40a4ff;stop-opacity:1;" />
    </linearGradient>
    <linearGradient
       id="paint160_linear_890_11"
       x1="784"
       y1="798"
       x2="782"
       y2="796"
       gradientUnits="userSpaceOnUse"
       gradientTransform="matrix(3.999999,0,0,3.999999,-3006.7517,-3112.4802)">
      <stop
         stop-color="#FF7E07"
         id="stop1062" />
      <stop
         offset="1"
         stop-color="#FFE607"
         id="stop1063" />
    </linearGradient>
    <linearGradient
       inkscape:collect="always"
       xlink:href="#paint157_linear_890_11"
       id="linearGradient18"
       gradientUnits="userSpaceOnUse"
       gradientTransform="matrix(0.98571422,0,0,0.98571422,-40.957138,-60.594612)"
       x1="49.666664"
       y1="69.090393"
       x2="96.333336"
       y2="115.75706" />
    <linearGradient
       inkscape:collect="always"
       xlink:href="#linearGradient28"
       id="linearGradient29-7"
       x1="14.512115"
       y1="14.516084"
       x2="41.481537"
       y2="41.485508"
       gradientUnits="userSpaceOnUse"
       gradientTransform="matrix(1.0233811,0,0,1.0233811,2.3485774,1.8532857)" />
    <linearGradient
       id="linearGradient28"
       inkscape:collect="always">
      <stop
         style="stop-color:#eff2f6;stop-opacity:1;"
         offset="0"
         id="stop28" />
      <stop
         style="stop-color:#b7c6cd;stop-opacity:1;"
         offset="1"
         id="stop29-9" />
    </linearGradient>
    <filter
       id="filter1030-6-5-2"
       x="-0.061720629"
       y="-0.058451215"
       width="1.1234413"
       height="1.1169024"
       color-interpolation-filters="sRGB">
      <feGaussianBlur
         stdDeviation="0.24897588"
         id="feGaussianBlur327-6-6" />
    </filter>
    <linearGradient
       inkscape:collect="always"
       xlink:href="#linearGradient958"
       id="linearGradient19"
       gradientUnits="userSpaceOnUse"
       gradientTransform="matrix(1.1156098,0,0,1.1156098,341.77899,-27.896128)"
       x1="-272.20999"
       y1="44.527"
       x2="-275.5"
       y2="50.384998" />
    <linearGradient
       id="linearGradient958"
       x1="-272.20999"
       x2="-275.5"
       y1="44.527"
       y2="50.384998"
       gradientTransform="matrix(0.41204,0,0,0.41204,123.57,-13.539)"
       gradientUnits="userSpaceOnUse">
      <stop
         stop-color="#3650ae"
         offset="0"
         id="stop286-7" />
      <stop
         stop-color="#388fc9"
         offset="1"
         id="stop288-5" />
    </linearGradient>
    <filter
       id="filter1040-5-2-7"
       x="-0.066213406"
       y="-0.054852634"
       width="1.1324268"
       height="1.1097053"
       color-interpolation-filters="sRGB">
      <feGaussianBlur
         stdDeviation="0.2340379"
         id="feGaussianBlur335-7-9" />
    </filter>
    <linearGradient
       inkscape:collect="always"
       xlink:href="#linearGradient966"
       id="linearGradient20"
       gradientUnits="userSpaceOnUse"
       gradientTransform="matrix(1.1156098,0,0,1.1156098,341.77899,-27.896128)"
       x1="-272.85999"
       y1="54.907001"
       x2="-267.62"
       y2="49.026001" />
    <linearGradient
       id="linearGradient966"
       x1="-272.85999"
       x2="-267.62"
       y1="54.907001"
       y2="49.026001"
       gradientTransform="matrix(0.41204,0,0,0.41204,123.57,-13.539)"
       gradientUnits="userSpaceOnUse">
      <stop
         stop-color="#3491cb"
         offset="0"
         id="stop294" />
      <stop
         stop-color="#3850bb"
         offset="1"
         id="stop296" />
    </linearGradient>
    <filter
       id="filter1046-3-6-2"
       x="-0.047273067"
       y="-0.082104253"
       width="1.0945461"
       height="1.1642085"
       color-interpolation-filters="sRGB">
      <feGaussianBlur
         stdDeviation="0.22334751"
         id="feGaussianBlur343-0-3" />
    </filter>
    <linearGradient
       inkscape:collect="always"
       xlink:href="#linearGradient974"
       id="linearGradient21"
       gradientUnits="userSpaceOnUse"
       gradientTransform="matrix(1.1156098,0,0,1.1156098,341.77899,-27.896128)"
       x1="-277.66"
       y1="59.727001"
       x2="-270.88"
       y2="58.222" />
    <linearGradient
       id="linearGradient974"
       x1="-277.66"
       x2="-270.88"
       y1="59.727001"
       y2="58.222"
       gradientTransform="matrix(0.41204,0,0,0.41204,123.57,-13.539)"
       gradientUnits="userSpaceOnUse">
      <stop
         stop-color="#2fb1dc"
         offset="0"
         id="stop302" />
      <stop
         stop-color="#3491cb"
         offset="1"
         id="stop304" />
    </linearGradient>
    <filter
       id="filter1052-5-1-9"
       x="-0.061679681"
       y="-0.058409123"
       width="1.1233594"
       height="1.1168182"
       color-interpolation-filters="sRGB">
      <feGaussianBlur
         stdDeviation="0.24881069"
         id="feGaussianBlur351-8-2" />
    </filter>
    <linearGradient
       inkscape:collect="always"
       xlink:href="#linearGradient982"
       id="linearGradient22"
       gradientUnits="userSpaceOnUse"
       gradientTransform="matrix(1.1156098,0,0,1.1156098,341.77899,-27.896128)"
       x1="-282.60999"
       y1="54.153999"
       x2="-278.76001"
       y2="62.018002" />
    <linearGradient
       id="linearGradient982"
       x1="-282.60999"
       x2="-278.76001"
       y1="54.153999"
       y2="62.018002"
       gradientTransform="matrix(0.41204,0,0,0.41204,123.57,-13.539)"
       gradientUnits="userSpaceOnUse">
      <stop
         stop-color="#30add9"
         offset="0"
         id="stop310-3" />
      <stop
         stop-color="#329ed2"
         offset="1"
         id="stop312" />
    </linearGradient>
    <filter
       id="filter1058-6-0-9"
       x="-0.066213588"
       y="-0.054852655"
       width="1.1324272"
       height="1.1097053"
       color-interpolation-filters="sRGB">
      <feGaussianBlur
         stdDeviation="0.23403799"
         id="feGaussianBlur359-2-7" />
    </filter>
    <linearGradient
       inkscape:collect="always"
       xlink:href="#linearGradient990-5"
       id="linearGradient23"
       gradientUnits="userSpaceOnUse"
       gradientTransform="matrix(1.1156098,0,0,1.1156098,341.77899,-27.896128)"
       x1="-286.34"
       y1="57.278"
       x2="-282.53"
       y2="49.414001" />
    <linearGradient
       id="linearGradient990-5"
       x1="-286.34"
       x2="-282.53"
       y1="57.278"
       y2="49.414001"
       gradientTransform="matrix(0.41204,0,0,0.41204,123.57,-13.539)"
       gradientUnits="userSpaceOnUse">
      <stop
         stop-color="#329fd2"
         offset="0"
         id="stop318-6" />
      <stop
         stop-color="#2c80c1"
         offset="1"
         id="stop320-2" />
    </linearGradient>
    <filter
       id="filter1064-9-9-1"
       x="-0.04727349"
       y="-0.082104264"
       width="1.094547"
       height="1.1642085"
       color-interpolation-filters="sRGB">
      <feGaussianBlur
         stdDeviation="0.22334755"
         id="feGaussianBlur367-2-2" />
    </filter>
    <linearGradient
       inkscape:collect="always"
       xlink:href="#linearGradient998"
       id="linearGradient24"
       gradientUnits="userSpaceOnUse"
       gradientTransform="matrix(1.1156098,0,0,1.1156098,341.77899,-27.896128)"
       x1="-281.51001"
       y1="43.16"
       x2="-282.54999"
       y2="49.908001" />
    <linearGradient
       id="linearGradient998"
       x1="-281.51001"
       x2="-282.54999"
       y1="43.16"
       y2="49.908001"
       gradientTransform="matrix(0.41204,0,0,0.41204,123.57,-13.539)"
       gradientUnits="userSpaceOnUse">
      <stop
         stop-color="#3857ba"
         offset="0"
         id="stop326" />
      <stop
         stop-color="#367dc1"
         offset="1"
         id="stop328-9" />
    </linearGradient>
    <filter
       id="filter1103-1-7-1"
       x="-0.05988692"
       y="-0.060124935"
       width="1.1197738"
       height="1.1202499"
       color-interpolation-filters="sRGB">
      <feGaussianBlur
         stdDeviation="0.60007942"
         id="feGaussianBlur375-3-9" />
    </filter>
    <filter
       id="filter1299-2-9-4"
       x="-0.024000055"
       y="-0.024000055"
       width="1.0480001"
       height="1.0480001"
       color-interpolation-filters="sRGB">
      <feGaussianBlur
         stdDeviation="0.18834042"
         id="feGaussianBlur383-3-5" />
    </filter>
    <linearGradient
       inkscape:collect="always"
       xlink:href="#linearGradient958"
       id="linearGradient26"
       gradientUnits="userSpaceOnUse"
       gradientTransform="matrix(0.41204,0,0,0.41204,123.57,-13.539)"
       x1="-272.20999"
       y1="44.527"
       x2="-275.5"
       y2="50.384998" />
    <filter
       id="filter1229-7-7-6"
       x="-0.069095556"
       y="-0.10709949"
       width="1.1381911"
       height="1.214199"
       color-interpolation-filters="sRGB">
      <feGaussianBlur
         stdDeviation="0.1347133"
         id="feGaussianBlur391-8-1" />
    </filter>
    <linearGradient
       inkscape:collect="always"
       xlink:href="#linearGradient1227"
       id="linearGradient27"
       gradientUnits="userSpaceOnUse"
       gradientTransform="translate(237.02,-44.947)"
       x1="-228.53999"
       y1="49.422001"
       x2="-228.53999"
       y2="52.341999" />
    <linearGradient
       id="linearGradient1227"
       x1="-228.53999"
       x2="-228.53999"
       y1="49.422001"
       y2="52.341999"
       gradientTransform="translate(237.02,-44.947)"
       gradientUnits="userSpaceOnUse">
      <stop
         stop-color="#fff"
         offset="0"
         id="stop342" />
      <stop
         stop-color="#fff"
         stop-opacity="0"
         offset="1"
         id="stop344" />
    </linearGradient>
    <filter
       id="filter5"
       x="-0.069095559"
       y="-0.10709949"
       width="1.1381911"
       height="1.2141989"
       color-interpolation-filters="sRGB">
      <feGaussianBlur
         stdDeviation="0.1347133"
         id="feGaussianBlur5" />
    </filter>
    <filter
       id="filter1251-0-5-2"
       x="-0.20800194"
       y="-0.28363517"
       width="1.4160039"
       height="1.5672703"
       color-interpolation-filters="sRGB">
      <feGaussianBlur
         stdDeviation="0.069956252"
         id="feGaussianBlur394-0-0" />
    </filter>
    <linearGradient
       inkscape:collect="always"
       xlink:href="#linearGradient958"
       id="linearGradient1"
       gradientUnits="userSpaceOnUse"
       gradientTransform="matrix(1.1156098,0,0,1.1156098,341.77899,-27.896128)"
       x1="-272.20999"
       y1="44.527"
       x2="-275.5"
       y2="50.384998" />
    <linearGradient
       inkscape:collect="always"
       xlink:href="#paint160_linear_890_11"
       id="linearGradient2"
       gradientUnits="userSpaceOnUse"
       gradientTransform="matrix(3.999999,0,0,3.999999,-3087.2001,-3176.6843)"
       x1="784"
       y1="798"
       x2="782"
       y2="796" />
  </defs>
  <sodipodi:namedview
     id="namedview29"
     pagecolor="#ffffff"
     bordercolor="#000000"
     borderopacity="0.25"
     inkscape:showpageshadow="2"
     inkscape:pageopacity="0.0"
     inkscape:pagecheckerboard="0"
     inkscape:deskcolor="#d1d1d1"
     inkscape:zoom="7.0710678"
     inkscape:cx="25.102291"
     inkscape:cy="55.366461"
     inkscape:window-width="1920"
     inkscape:window-height="1000"
     inkscape:window-x="0"
     inkscape:window-y="0"
     inkscape:window-maximized="1"
     inkscape:current-layer="svg29" />
  <rect
     style="opacity:0.2;stroke-width:0.9823"
     width="55"
     height="55.017544"
     x="3.5"
     y="3.9824562"
     ry="13.754386"
     id="rect1" />
  <rect
     style="fill:url(#linearGradient30);stroke-width:0.9823"
     width="55"
     height="55.017544"
     x="3.5"
     y="3"
     ry="13.754386"
     id="rect2" />
  <path
     style="opacity:0.1;fill:#ffffff;stroke-width:0.9823"
     d="M 17.25,3 C 9.6324999,3 3.4999999,9.1344561 3.4999999,16.754386 v 0.982456 c 0,-7.61993 6.1325,-13.7543858 13.7500001,-13.7543858 h 27.5 c 7.6175,0 13.75,6.1344558 13.75,13.7543858 V 16.754386 C 58.5,9.1344561 52.3675,3 44.75,3 Z"
     id="path28" />
  <g
     id="g1"
     transform="matrix(0.91304352,0,0,0.90922903,2.6956507,3.3482714)">
    <path
       d="m 53.999999,30.508767 c 0,12.702909 -10.297103,23.000005 -23.000002,23.000005 -12.7029,0 -22.9999957,-10.297096 -22.9999957,-23.000005 0,-12.702894 10.2970957,-22.9999952 22.9999957,-22.9999952 12.702899,0 23.000002,10.2971012 23.000002,22.9999952 z"
       id="path155-6"
       style="fill:url(#linearGradient18);stroke-width:0.985714" />
    <circle
       cx="31"
       cy="30.50877"
       r="13.799999"
       stroke-width="1.11561"
       id="circle409-3-5"
       style="fill:url(#linearGradient29-7)" />
    <circle
       cx="31"
       cy="30.50877"
       r="11.40492"
       fill="#3871ba"
       stroke-width="1.11561"
       id="circle411-2-4" />
    <path
       transform="matrix(1.0393117,0,0,1.0852043,326.94174,-26.095622)"
       d="m -284.85,42.218 a 10.223,10.223 0 0 0 -2.0288,0.21445 l 0.2899,0.50177 5.489,9.5067 3.9025,-6.7591 a 10.223,10.223 0 0 0 -7.6526,-3.4638 z"
       filter="url(#filter1030)"
       opacity="0.1"
       id="path413-0-7"
       style="filter:url(#filter1030-6-5-2)" />
    <path
       d="M 30.969675,19.203757 A 11.40492,11.40492 0 0 0 28.706316,19.443 l 0.323415,0.559755 6.123345,10.605658 4.353435,-7.540737 a 11.40492,11.40492 0 0 0 -8.537377,-3.864184 z"
       fill="url(#linearGradient958)"
       stroke-width="1.11561"
       id="path415-6-6"
       style="fill:url(#linearGradient1)" />
    <path
       transform="matrix(1.0571543,0,0,1.059564,332.16727,-25.367297)"
       d="m -277.19,45.682 -0.42269,0.73276 -5.489,9.5072 h 7.8588 a 10.223,10.223 0 0 0 0.62424,-3.4803 10.223,10.223 0 0 0 -2.5714,-6.7597 z"
       filter="url(#filter1040)"
       opacity="0.1"
       id="path417-1-5"
       style="filter:url(#filter1040-5-2-7)" />
    <path
       d="m 39.515987,23.068212 -0.471543,0.817484 -6.123346,10.60647 h 8.767518 a 11.40492,11.40492 0 0 0 0.69643,-3.882595 11.40492,11.40492 0 0 0 -2.868626,-7.541278 z"
       stroke-width="1.11561"
       id="path419-5-6"
       style="fill:url(#linearGradient20)" />
    <path
       transform="matrix(1.0234185,0,0,1.0726685,322.79923,-25.697615)"
       d="m -286.59,55.922 3.7692,6.5287 a 10.223,10.223 0 0 0 7.5699,-6.5287 h -0.36121 z"
       filter="url(#filter1046)"
       opacity="0.1"
       id="path421-5-9"
       style="filter:url(#filter1046-3-6-2)" />
    <path
       d="m 29.028377,34.492085 4.204791,7.283521 a 11.40492,11.40492 0 0 0 8.44505,-7.283521 h -0.402961 z"
       stroke-width="1.11561"
       id="path423-4-3"
       style="fill:url(#linearGradient21)" />
    <path
       transform="matrix(1.0759986,0,0,1.0623257,337.55525,-25.129034)"
       d="m -288.6,52.441 -3.9025,6.7597 a 10.223,10.223 0 0 0 7.6521,3.4638 10.223,10.223 0 0 0 2.0293,-0.21445 l -0.2899,-0.50177 z"
       filter="url(#filter1052)"
       opacity="0.1"
       id="path425-7-7"
       style="filter:url(#filter1052-5-1-9)" />
    <path
       d="m 26.786273,30.608678 -4.353434,7.541278 a 11.40492,11.40492 0 0 0 8.536836,3.864183 11.40492,11.40492 0 0 0 2.263899,-0.239237 L 32.91016,41.215148 Z"
       stroke-width="1.11561"
       id="path427-6-4"
       style="fill:url(#linearGradient22)" />
    <path
       transform="matrix(1.0524703,0,0,1.0670368,330.67812,-24.988243)"
       d="m -294.45,48.961 a 10.223,10.223 0 0 0 -0.62425,3.4798 10.223,10.223 0 0 0 2.5708,6.7602 l 0.42322,-0.73276 5.489,-9.5072 z"
       opacity="0.1"
       id="path429-5-5"
       style="filter:url(#filter1058-6-0-9)" />
    <path
       d="m 20.260048,26.726624 a 11.40492,11.40492 0 0 0 -0.69643,3.882054 11.40492,11.40492 0 0 0 2.867814,7.541819 l 0.472139,-0.817484 6.123344,-10.60647 z"
       stroke-width="1.11561"
       id="path431-6-2"
       style="fill:url(#linearGradient23)" />
    <path
       transform="matrix(1.0444019,0,0,1.0609719,328.29551,-25.045101)"
       d="m -286.88,42.433 a 10.223,10.223 0 0 0 -7.5694,6.5287 h 11.339 z"
       filter="url(#filter1064)"
       opacity="0.1"
       id="path433-9-5"
       style="filter:url(#filter1064-9-9-1)" />
    <path
       d="m 28.704827,19.443645 a 11.40492,11.40492 0 0 0 -8.444509,7.283521 H 32.91016 Z"
       stroke-width="1.11561"
       id="path435-3-4"
       style="fill:url(#linearGradient24)" />
    <path
       transform="matrix(0.31556239,0,0,0.30825206,370.66832,-30.343733)"
       d="m -1076.8,161.32 a 35.996,37.586 0 0 0 -7.1445,0.78711 l 1.0215,1.8457 11.789,21.32 11.238,-19.465 a 35.996,37.586 0 0 0 -16.904,-4.4883 z"
       filter="url(#filter1103)"
       opacity="0.15"
       id="path437-7-7"
       style="filter:url(#filter1103-1-7-1)" />
    <path
       d="m 30.973195,19.205111 a 11.40492,11.40492 0 0 0 -2.263332,0.239248 l 0.323415,0.559782 5.400436,9.353697 4.160658,-7.206357 a 11.40492,11.40492 0 0 0 -7.621421,-2.946332 z"
       stroke-width="0.295147"
       id="path439-4-4"
       style="fill:url(#linearGradient19)" />
    <circle
       transform="matrix(1.1863305,0,0,1.1863305,357.07653,-22.091188)"
       cx="-274.87"
       cy="44.339001"
       r="9.4169998"
       fill="none"
       opacity="0.25"
       stroke-dashoffset="0.42096"
       stroke-width="0.24372"
       id="circle441-5-4"
       style="filter:url(#filter1299-2-9-4)" />
    <ellipse
       transform="matrix(2.6900915,0,0,2.9861326,8.2278209,6.2495089)"
       cx="8.4666004"
       cy="6.4478998"
       rx="2.3396001"
       ry="1.5094"
       fill="url(#linearGradient2117)"
       filter="url(#filter1229)"
       opacity="0.4"
       id="ellipse443-2-3"
       style="fill:url(#linearGradient26);filter:url(#filter1229-7-7-6)" />
    <ellipse
       transform="matrix(2.6900915,0,0,2.9861326,8.2278209,6.2495089)"
       cx="8.4666004"
       cy="6.4478998"
       rx="2.3396001"
       ry="1.5094"
       opacity="0.4"
       id="ellipse445-5-0"
       style="fill:url(#linearGradient27);filter:url(#filter1229-7-7-6)" />
    <ellipse
       transform="matrix(2.707528,0,0,2.707528,8.0796378,7.5842119)"
       cx="8.4666004"
       cy="5.6413002"
       rx="0.40358999"
       ry="0.29596999"
       fill="#ffffff"
       filter="url(#filter1251)"
       opacity="0.7"
       id="ellipse447-4-7"
       style="filter:url(#filter1251-0-5-2)" />
    <path
       d="m 48.799999,11.31579 c 0,2.208 -1.792,4 -4,4 -2.208,0 -4,-1.792 -4,-4 0,-2.208 1.792,-4 4,-4 2.208,0 4,1.792 4,4 z"
       id="path158-3"
       style="fill:url(#linearGradient2);stroke-width:4" />
  </g>
</svg>
