<?xml version="1.0" encoding="UTF-8" standalone="no"?>
<svg
   width="62"
   height="62"
   viewBox="0 0 62 62"
   version="1.1"
   id="svg2"
   sodipodi:docname="outlast.svg"
   inkscape:version="1.4.2 (unknown)"
   xmlns:inkscape="http://www.inkscape.org/namespaces/inkscape"
   xmlns:sodipodi="http://sodipodi.sourceforge.net/DTD/sodipodi-0.dtd"
   xmlns="http://www.w3.org/2000/svg"
   xmlns:svg="http://www.w3.org/2000/svg">
  <sodipodi:namedview
     id="namedview2"
     pagecolor="#ffffff"
     bordercolor="#000000"
     borderopacity="0.25"
     inkscape:showpageshadow="2"
     inkscape:pageopacity="0.0"
     inkscape:pagecheckerboard="0"
     inkscape:deskcolor="#d1d1d1"
     inkscape:zoom="6.0546875"
     inkscape:cx="49.713548"
     inkscape:cy="47.31871"
     inkscape:window-width="1920"
     inkscape:window-height="998"
     inkscape:window-x="0"
     inkscape:window-y="0"
     inkscape:window-maximized="1"
     inkscape:current-layer="svg2" />
  <defs
     id="defs2">
    <linearGradient
       id="linear0"
       gradientUnits="userSpaceOnUse"
       x1="0"
       y1="0"
       x2="0"
       y2="1"
       gradientTransform="matrix(55.273438,0,0,64,4.363281,0)">
      <stop
         offset="0"
         style="stop-color:#2478ff;stop-opacity:1;"
         id="stop1" />
      <stop
         offset="1"
         style="stop-color:#0049bf;stop-opacity:1;"
         id="stop2" />
    </linearGradient>
  </defs>
  <g
     id="g3"
     transform="matrix(1.0008929,0,0,1,-0.02767992,-0.49122809)">
    <g
       id="surface1"
       transform="matrix(0.85317461,0,0,0.85964912,3.6984125,3.4912282)">
      <path
         style="fill:#71c837;fill-rule:nonzero;stroke:none"
         d="M 32,0 C 16.734375,0 4.363281,14.328125 4.363281,32 4.363281,49.671875 16.734375,64 32,64 47.265625,64 59.636719,49.671875 59.636719,32 59.636719,14.328125 47.265625,0 32,0 Z m 0,11.636719 c 3.472656,0 6.800781,2.144531 9.257812,5.964843 2.453126,3.820313 3.835938,9 3.835938,14.398438 0,5.398438 -1.382812,10.578125 -3.835938,14.398438 C 38.800781,50.21875 35.472656,52.363281 32,52.363281 c -3.472656,0 -6.800781,-2.144531 -9.257812,-5.964843 -2.453126,-3.820313 -3.835938,-9 -3.835938,-14.398438 0,-5.398438 1.382812,-10.578125 3.835938,-14.398438 C 25.199219,13.78125 28.527344,11.636719 32,11.636719 Z m 0,0"
         id="path2" />
    </g>
    <g
       id="surface1-1"
       transform="matrix(0.85317461,0,0,0.85964912,3.6984125,4.4736843)"
       style="opacity:0.312381;fill:#b9b9b9;fill-opacity:1">
      <path
         style="fill:#b9b9b9;fill-opacity:1;fill-rule:nonzero;stroke:none"
         d="M 32,0 C 16.734375,0 4.363281,14.328125 4.363281,32 4.363281,49.671875 16.734375,64 32,64 47.265625,64 59.636719,49.671875 59.636719,32 59.636719,14.328125 47.265625,0 32,0 Z m 0,11.636719 c 3.472656,0 6.800781,2.144531 9.257812,5.964843 2.453126,3.820313 3.835938,9 3.835938,14.398438 0,5.398438 -1.382812,10.578125 -3.835938,14.398438 C 38.800781,50.21875 35.472656,52.363281 32,52.363281 c -3.472656,0 -6.800781,-2.144531 -9.257812,-5.964843 -2.453126,-3.820313 -3.835938,-9 -3.835938,-14.398438 0,-5.398438 1.382812,-10.578125 3.835938,-14.398438 C 25.199219,13.78125 28.527344,11.636719 32,11.636719 Z m 0,0"
         id="path2-2" />
    </g>
  </g>
</svg>
