<?xml version="1.0" encoding="UTF-8" standalone="no"?>
<svg
   width="62"
   height="62"
   version="1.1"
   id="svg7"
   sodipodi:docname="overcooked2.svg"
   inkscape:version="1.4.2 (unknown)"
   xmlns:inkscape="http://www.inkscape.org/namespaces/inkscape"
   xmlns:sodipodi="http://sodipodi.sourceforge.net/DTD/sodipodi-0.dtd"
   xmlns="http://www.w3.org/2000/svg"
   xmlns:svg="http://www.w3.org/2000/svg">
  <defs
     id="defs7" />
  <sodipodi:namedview
     id="namedview7"
     pagecolor="#ffffff"
     bordercolor="#000000"
     borderopacity="0.25"
     inkscape:showpageshadow="2"
     inkscape:pageopacity="0.0"
     inkscape:pagecheckerboard="0"
     inkscape:deskcolor="#d1d1d1"
     inkscape:zoom="6.0546875"
     inkscape:cx="55.329032"
     inkscape:cy="35.757419"
     inkscape:window-width="1920"
     inkscape:window-height="998"
     inkscape:window-x="0"
     inkscape:window-y="0"
     inkscape:window-maximized="1"
     inkscape:current-layer="svg7" />
  <path
     style="opacity:0.2;stroke-width:0.981796"
     d="M 31,3.9824536 A 26,27.508701 0 0 0 5,31.491158 26,27.508701 0 0 0 31,58.99986 26,27.508701 0 0 0 57,31.491158 26,27.508701 0 0 0 31,3.9824536 Z M 31,24.417886 A 5.4736377,7.0736669 0 0 1 36.473634,31.491158 5.4736377,7.0736669 0 0 1 31,38.564431 5.4736377,7.0736669 0 0 1 25.526359,31.491158 5.4736377,7.0736669 0 0 1 31,24.417886 Z"
     id="path1" />
  <path
     style="fill:#7137c8;stroke-width:0.981796"
     d="M 31,3 A 26,27.508701 0 0 0 5,30.508701 26,27.508701 0 0 0 31,58.017412 26,27.508701 0 0 0 57,30.508701 26,27.508701 0 0 0 31,3 Z m 0,20.435429 A 5.4736377,7.0736669 0 0 1 36.473634,30.508701 5.4736377,7.0736669 0 0 1 31,37.581978 5.4736377,7.0736669 0 0 1 25.526359,30.508701 5.4736377,7.0736669 0 0 1 31,23.435429 Z"
     id="path2" />
  <path
     style="opacity:0.2;stroke-width:0.981796"
     d="M 31,7.9122687 A 22.075469,23.578891 0 0 0 8.9245284,31.491158 22.075469,23.578891 0 0 0 31,55.070049 22.075469,23.578891 0 0 0 53.075469,31.491158 22.075469,23.578891 0 0 0 31,7.9122687 Z M 31,19.701715 A 9.3207546,11.789441 0 0 1 40.320752,31.491158 9.3207546,11.789441 0 0 1 31,43.280602 9.3207546,11.789441 0 0 1 21.679246,31.491158 9.3207546,11.789441 0 0 1 31,19.701715 Z"
     id="path3" />
  <path
     style="fill:#ffffff;stroke-width:0.981796"
     d="M 31,6.9298151 A 22.075469,23.578891 0 0 0 8.9245284,30.508701 22.075469,23.578891 0 0 0 31,54.087592 22.075469,23.578891 0 0 0 53.075469,30.508701 22.075469,23.578891 0 0 0 31,6.9298151 Z M 31,18.71926 A 9.3207546,11.789441 0 0 1 40.320752,30.508701 9.3207546,11.789441 0 0 1 31,42.298151 9.3207546,11.789441 0 0 1 21.679246,30.508701 9.3207546,11.789441 0 0 1 31,18.71926 Z"
     id="path4" />
  <path
     style="opacity:0.1;fill:#ffffff;stroke-width:0.981796"
     d="M 31,3 A 26,27.508701 0 0 0 5,30.508701 26,27.508701 0 0 0 5.0191321,30.91554 26,27.508701 0 0 1 31,3.9824536 26,27.508701 0 0 1 56.980866,31.084324 26,27.508701 0 0 0 57,30.508701 26,27.508701 0 0 0 31,3 Z m 5.455587,27.953854 A 5.4736377,7.0736669 0 0 1 31,37.581583 a 5.4736377,7.0736669 0 0 1 -5.455586,-6.535574 5.4736377,7.0736669 0 0 0 -0.01728,0.445149 5.4736377,7.0736669 0 0 0 5.472855,7.072883 5.4736377,7.0736669 0 0 0 5.472853,-7.072883 5.4736377,7.0736669 0 0 0 -0.01728,-0.537304 z"
     id="path7" />
  <text
     xml:space="preserve"
     style="font-size:37.558px;font-family:'Blush Asliring';-inkscape-font-specification:'Blush Asliring';text-align:start;writing-mode:lr-tb;direction:ltr;text-anchor:start;opacity:1;fill:#ff5555;stroke:#ff5555;stroke-width:0.704208;stroke-linecap:round;stroke-linejoin:round;stroke-opacity:1;paint-order:fill markers stroke"
     x="47.558094"
     y="40.127396"
     id="text7"
     transform="matrix(0.95943163,0.29796844,-0.29449019,0.95082462,0,0)"><tspan
       sodipodi:role="line"
       id="tspan7"
       x="47.558094"
       y="40.127396"
       style="fill:#ff5555;stroke:#ff5555;stroke-width:0.704208;stroke-opacity:1">2</tspan></text>
</svg>
