<?xml version="1.0" encoding="UTF-8" standalone="no"?>
<svg
   width="62"
   height="62"
   version="1.1"
   id="svg5"
   sodipodi:docname="pacseek.svg"
   inkscape:version="1.4 (unknown)"
   xmlns:inkscape="http://www.inkscape.org/namespaces/inkscape"
   xmlns:sodipodi="http://sodipodi.sourceforge.net/DTD/sodipodi-0.dtd"
   xmlns="http://www.w3.org/2000/svg"
   xmlns:svg="http://www.w3.org/2000/svg">
  <defs
     id="defs5" />
  <sodipodi:namedview
     id="namedview5"
     pagecolor="#ffffff"
     bordercolor="#000000"
     borderopacity="0.25"
     inkscape:showpageshadow="2"
     inkscape:pageopacity="0.0"
     inkscape:pagecheckerboard="0"
     inkscape:deskcolor="#d1d1d1"
     inkscape:zoom="12.109375"
     inkscape:cx="31.95871"
     inkscape:cy="32"
     inkscape:window-width="1920"
     inkscape:window-height="998"
     inkscape:window-x="0"
     inkscape:window-y="0"
     inkscape:window-maximized="1"
     inkscape:current-layer="svg5" />
  <g
     id="g5"
     transform="matrix(0.99120307,0,0,0.98245614,-0.93842142,-0.92982455)">
    <path
       style="opacity:0.2"
       d="m 56.240624,15.100782 -9.849218,4.33125 1.542188,0.54414 -7.175,3.614844 2.515624,0.88867 -7.899608,3.978516 11.049608,3.904688 -2.20117,-7.549608 7.585154,2.679686 -1.998828,-6.855078 7.634376,2.698828 z m -11.659374,19.353904 -10.705078,3.841798 8.539452,4.52539 -2.630468,1.451954 7.50586,3.409766 -2.485548,1.345312 10.770704,2.083594 0.347264,-8.099218 -6.001952,3.248436 0.011,-7.590624 -5.75039,3.174608 z"
       id="path1" />
    <path
       style="opacity:0.2"
       d="M 35,5 A 28,28 0 0 0 7,33 28,28 0 0 0 35,61 28,28 0 0 0 56.782032,50.505468 L 34.007422,33 56.820314,15.461718 A 28,28 0 0 0 35,5 Z"
       id="path2" />
    <path
       style="fill:#f2f2f2;fill-opacity:1"
       d="m 56.240624,14.100782 -9.849218,4.33125 1.542188,0.54414 -7.175,3.614844 2.515624,0.88867 -7.899608,3.978516 11.049608,3.904688 -2.20117,-7.549608 7.585154,2.679686 -1.998828,-6.855077 7.634376,2.698827 z m -11.659374,19.353904 -10.705078,3.841798 8.539452,4.52539 -2.630468,1.451954 7.50586,3.409766 -2.485548,1.345312 10.770704,2.083594 0.347264,-8.099218 -6.001952,3.248436 0.011,-7.590624 -5.75039,3.174608 z"
       id="path3" />
    <path
       style="fill:#33414c;fill-opacity:1"
       d="M 35,4 A 28,28 0 0 0 7,32 28,28 0 0 0 35,60 28,28 0 0 0 56.782032,49.505468 L 34.007422,32 56.820314,14.461718 A 28,28 0 0 0 35,4 Z"
       id="path4" />
    <circle
       style="opacity:0.2"
       cx="33"
       cy="17"
       r="4"
       id="circle4" />
    <circle
       style="fill:#ffffff"
       cx="33"
       cy="16"
       r="4"
       id="circle5" />
    <path
       style="opacity:0.1;fill:#ffffff"
       d="M 35,4 A 28,28 0 0 0 7,32 28,28 0 0 0 7.0351562,32.5 28,28 0 0 1 35,5 28,28 0 0 1 56.283203,14.873047 l 0.537109,-0.412109 A 28,28 0 0 0 35,4 Z M 34.658203,32.5 34.007812,33 56.246094,50.09375 a 28,28 0 0 0 0.535156,-0.587891 z"
       id="path5" />
  </g>
</svg>
