<?xml version="1.0" encoding="UTF-8" standalone="no"?>
<svg
   width="64"
   height="64"
   version="1.1"
   id="svg9"
   sodipodi:docname="pegasus-fe.svg"
   inkscape:version="1.4 (unknown)"
   xmlns:inkscape="http://www.inkscape.org/namespaces/inkscape"
   xmlns:sodipodi="http://sodipodi.sourceforge.net/DTD/sodipodi-0.dtd"
   xmlns="http://www.w3.org/2000/svg"
   xmlns:svg="http://www.w3.org/2000/svg">
  <defs
     id="defs9" />
  <sodipodi:namedview
     id="namedview9"
     pagecolor="#ffffff"
     bordercolor="#000000"
     borderopacity="0.25"
     inkscape:showpageshadow="2"
     inkscape:pageopacity="0.0"
     inkscape:pagecheckerboard="0"
     inkscape:deskcolor="#d1d1d1"
     inkscape:zoom="8.5626212"
     inkscape:cx="35.9119"
     inkscape:cy="25.634674"
     inkscape:window-width="1920"
     inkscape:window-height="998"
     inkscape:window-x="0"
     inkscape:window-y="0"
     inkscape:window-maximized="1"
     inkscape:current-layer="svg9" />
  <g
     id="g9"
     transform="matrix(1,0,0,0.99996849,-7.6091105e-8,-0.49817218)">
    <path
       style="opacity:0.2"
       d="M 23.29091,57.643226 C 13.884414,56.183712 6.8720834,50.236906 4.5856888,41.780296 3.7680054,38.755908 3.8109432,34.071686 4.6866288,30.773548 7.573357,19.900618 17.51352,11.113688 29.909644,8.4768272 33.092542,7.7997716 39.38754,7.852216 42.318326,8.5801612 51.640654,10.895758 57.552544,16.429563 59.53588,24.696604 c 0.742042,3.092958 0.579488,7.771166 -0.381584,10.982054 -1.452344,4.852194 -3.74224,8.606014 -7.584132,12.43261 -7.50461,7.474762 -18.232538,11.090762 -28.279212,9.531916 z"
       id="path1" />
    <path
       style="fill:#2d3d53;fill-opacity:1"
       d="M 23.29091,56.643226 C 13.884414,55.183712 6.8720834,49.236906 4.5856888,40.780296 3.7680054,37.755908 3.8109432,33.071686 4.6866288,29.773548 7.573357,18.900618 17.51352,10.113687 29.909644,7.4768268 c 3.182898,-0.6770556 9.477896,-0.6246112 12.408682,0.103334 9.322328,2.315597 15.234218,7.8494022 17.217554,16.1164432 0.742042,3.092958 0.579488,7.771166 -0.381584,10.982054 -1.452344,4.852194 -3.74224,8.606014 -7.584132,12.43261 -7.50461,7.474762 -18.232538,11.090762 -28.279212,9.531916 z"
       id="path2" />
    <path
       style="opacity:0.1;fill:#ffffff"
       d="M 36.207031,7 C 33.869071,6.98052 31.501606,7.1380341 29.910156,7.4765625 17.514032,10.113423 7.5742282,18.900506 4.6875,29.773438 4.2244548,31.517426 4.037023,33.628694 4.0507812,35.693359 4.0985374,33.958111 4.2993006,32.235531 4.6875,30.773438 7.5742282,19.900506 17.514032,11.113423 29.910156,8.4765625 31.501606,8.1380341 33.869071,7.98052 36.207031,8 c 2.33796,0.019472 4.643983,0.2180587 6.109375,0.5820312 9.322328,2.3155968 15.235414,7.8462418 17.21875,16.1132808 0.271701,1.1327 0.40467,2.481468 0.433594,3.888672 0.02875,-1.765213 -0.0979,-3.489208 -0.433594,-4.888672 C 57.55182,15.428272 51.638734,9.8976282 42.316406,7.5820312 40.851014,7.2180586 38.544991,7.0194722 36.207031,7 Z"
       id="path8" />
    <path
       d="m 49.079979,14.999645 -6.368739,1.473681 -9.963581,2.304259 -7.358904,-1.70199 V 20.48048 L 12.25,23.51938 v 6.098253 l 13.138755,-3.039777 4.060401,-0.938945 a 3.4007649,3.4088874 0 0 1 -0.05157,-0.585407 3.4007649,3.4088874 0 0 1 3.400178,-3.408439 3.4007649,3.4088874 0 0 1 3.266569,2.463271 l 9.354896,-2.163903 5.922142,-1.369741 a 26.361962,20.904941 0 0 0 -0.117185,-0.620931 26.361962,20.904941 0 0 0 -0.652184,-2.024436 26.361962,20.904941 0 0 0 -0.903054,-1.963183 26.361962,20.904941 0 0 0 -0.589304,-0.966497 z m 2.665773,9.038419 -6.166375,1.426582 c -0.290498,2.44122 -1.398153,4.79191 -3.223828,6.843586 -2.345541,2.641058 -5.677721,4.859689 -9.616954,5.774947 l -7.34984,1.707357 -13.138642,3.039753 v 6.098279 l 13.138642,-3.039806 v 3.110883 h 7.34984 V 44.187731 C 40.988834,42.278701 47.788392,37.165778 50.483633,30.4286 51.312391,28.385544 51.739723,26.252683 51.75,24.10673 51.7424,24.08391 51.73862,24.06124 51.73862,24.03835 Z M 25.388868,30.135289 12.250113,33.17506 v 6.097246 L 25.388868,36.23339 Z"
       fill="#ff4b4b"
       id="path1-3"
       style="stroke-width:0.513394" />
  </g>
</svg>
