<?xml version="1.0" encoding="UTF-8" standalone="no"?>
<svg
   width="62"
   height="62"
   version="1.1"
   id="svg29"
   sodipodi:docname="pekka-kana-2.svg"
   inkscape:version="1.4 (unknown)"
   xmlns:inkscape="http://www.inkscape.org/namespaces/inkscape"
   xmlns:sodipodi="http://sodipodi.sourceforge.net/DTD/sodipodi-0.dtd"
   xmlns:xlink="http://www.w3.org/1999/xlink"
   xmlns="http://www.w3.org/2000/svg"
   xmlns:svg="http://www.w3.org/2000/svg">
  <defs
     id="defs29">
    <linearGradient
       id="linearGradient29"
       inkscape:collect="always">
      <stop
         style="stop-color:#2d3d53;stop-opacity:1;"
         offset="0"
         id="stop29" />
      <stop
         style="stop-color:#623d64;stop-opacity:1;"
         offset="1"
         id="stop30" />
    </linearGradient>
    <linearGradient
       inkscape:collect="always"
       xlink:href="#linearGradient29"
       id="linearGradient30"
       x1="30.782633"
       y1="60"
       x2="30.193521"
       y2="5"
       gradientUnits="userSpaceOnUse"
       gradientTransform="matrix(0.98214286,0,0,0.98245614,-0.42857152,-0.92982455)" />
  </defs>
  <sodipodi:namedview
     id="namedview29"
     pagecolor="#ffffff"
     bordercolor="#000000"
     borderopacity="0.25"
     inkscape:showpageshadow="2"
     inkscape:pageopacity="0.0"
     inkscape:pagecheckerboard="0"
     inkscape:deskcolor="#d1d1d1"
     inkscape:zoom="7.0710678"
     inkscape:cx="20.576807"
     inkscape:cy="26.09224"
     inkscape:window-width="1920"
     inkscape:window-height="998"
     inkscape:window-x="0"
     inkscape:window-y="0"
     inkscape:window-maximized="1"
     inkscape:current-layer="svg29" />
  <rect
     style="opacity:0.2;stroke-width:0.9823"
     width="55"
     height="55.017544"
     x="3.5"
     y="3.9824562"
     ry="13.754386"
     id="rect1" />
  <rect
     style="fill:url(#linearGradient30);stroke-width:0.9823"
     width="55"
     height="55.017544"
     x="3.5"
     y="3"
     ry="13.754386"
     id="rect2" />
  <path
     style="opacity:0.1;fill:#ffffff;stroke-width:0.9823"
     d="M 17.25,3 C 9.6324999,3 3.4999999,9.1344561 3.4999999,16.754386 v 0.982456 c 0,-7.61993 6.1325,-13.7543858 13.7500001,-13.7543858 h 27.5 c 7.6175,0 13.75,6.1344558 13.75,13.7543858 V 16.754386 C 58.5,9.1344561 52.3675,3 44.75,3 Z"
     id="path28" />
  <g
     id="g1"
     transform="translate(0.85263618,10.000033)">
    <path
       style="opacity:0.1;stroke-width:0.827355"
       d="m 23.496116,2.8217925 c -0.887533,-0.01998 -1.900505,0.7135138 -3.41942,2.440341 -2.28961,2.6030059 -3.400831,4.302417 -4.206099,6.4307265 -1.192108,3.150773 -0.906369,5.419361 0.826603,6.562816 0.915244,0.603892 0.910375,0.585973 0.542066,2.056129 -0.235966,0.94191 -0.212944,1.191787 0.184438,2.009307 0.802412,1.650725 3.077479,2.36219 4.696429,1.468397 0.976397,-0.539051 1.227222,-1.231102 1.24778,-3.439891 0.0204,-2.190021 -0.01125,-2.582735 0.724326,-2.581416 0.607528,0.0012 2.001839,0.867481 2.001839,1.243882 0.341511,-2.187583 4.072815,-2.286763 7.767692,3.159533 1.675994,0.489102 2.62702,0.180706 3.093272,-1.003159 l 0.291277,-0.740798 0.483588,0.875276 c 0.560418,1.014055 1.220195,1.260464 2.827868,1.057188 2.226035,-0.281469 4.589589,-2.462831 4.589589,-4.235934 0,-1.01225 -1.020285,-2.622559 -3.140508,-4.955718 -2.403158,-2.64451 -3.277681,-2.808696 -5.46624,-1.025361 -1.538696,1.253796 -2.099602,1.403298 -2.764318,0.736593 -1.077713,-1.080901 -2.270008,-0.536379 -3.133204,1.43119 -0.758288,1.72844 -1.14231,1.574455 -1.802213,-0.723389 C 28.549588,12.573184 27.991611,10.747057 27.600982,9.5298716 27.210356,8.3126903 26.725171,6.7824273 26.523033,6.1290006 26.087239,4.7203379 24.782362,3.1204203 23.869483,2.8758134 23.746682,2.8429064 23.622896,2.8246379 23.496105,2.8217882 Z m 1.435658,10.3262735 c 0.03372,0.0037 0.06546,0.01155 0.0945,0.02343 0.465183,0.190581 1.040415,1.152481 1.119561,1.872431 0.08445,0.768067 -0.176101,0.818216 -1.54861,0.298962 -0.812592,-0.307425 -1.151614,-0.56801 -1.151614,-0.884889 0,-0.532754 0.98087,-1.364774 1.486185,-1.309917 z"
       id="path2" />
    <path
       style="opacity:0.1;stroke-width:0.827355"
       d="m 28.06403,16.901192 c -0.898184,0.04823 -1.495607,0.547727 -1.627603,1.328403 0,0.1405 -0.319324,0.568255 -0.706377,0.949774 -0.693854,0.683953 -1.188745,1.916807 -1.191408,2.961638 -5.98e-4,0.294112 -0.148378,0.770616 -0.328782,1.055663 -0.180374,0.285062 -0.393454,1.483548 -0.471996,2.66323 -0.07853,1.179677 -0.244103,2.391702 -0.367843,2.692096 -0.123735,0.300408 -0.288271,0.832041 -0.364585,1.184016 -0.09873,0.45534 0.31871,1.200205 -0.143236,1.299523 -3.520381,0.756911 -4.080143,2.258516 -3.059891,5.717916 0.446091,1.512583 1.453021,2.47369 2.584642,2.467501 0.414321,-0.0023 0.05187,-1.255819 1.285798,-1.639659 2.253045,-0.70083 3.570966,0.05487 3.570964,0.449231 0,0.116517 0.386117,2.342249 0.843111,2.881411 0.675815,0.797345 0.833328,1.175412 0.833328,2.021486 0,0.578411 -0.214505,1.447202 -0.478525,1.957304 -0.511563,0.988452 -0.553953,1.401606 -0.172515,2.287818 h 6.956375 c -0.882753,-1.204271 -1.187046,-2.288387 -1.191406,-3.943507 -0.0033,-1.257096 0.528157,-1.865498 2.018237,-2.323101 2.541532,-0.780499 3.480281,-1.069542 4.257813,-1.864259 0.846365,-0.86508 1.416006,-2.2239 1.416006,-3.37876 0,-0.93512 -0.825831,-2.350317 -2.333976,-4.007678 -2.581307,-2.836693 -3.079695,-3.139017 -3.557948,-5.839844 -0.301143,-1.700653 -0.494217,-2.207218 -1.064451,-2.79478 -0.775926,-0.799503 -1.099356,-1.951598 -0.501302,-1.790464 -2.380206,-3.239328 -4.707445,-4.415329 -6.20443,-4.334958 z m -5.27343,5.441967 c -0.08302,0.08337 -0.17653,0.159828 -0.279949,0.231022 0.103932,-0.07151 0.19658,-0.147167 0.279949,-0.231022 z"
       id="path3" />
    <path
       style="opacity:0.1;stroke-width:0.827355"
       d="m 27.82966,37.462571 c -0.359004,-0.0023 -1.316808,0.598773 -1.458334,1.132678 -0.148305,0.671847 1.833605,1.527112 1.933591,3.475037 0.12789,2.491674 -1.346253,3.565658 -0.940753,5.108257 h 3.730464 c 0.256275,-1.361777 -0.515923,-3.366509 -0.556638,-5.271913 -0.03503,-1.639168 1.234429,-3.429141 0.947267,-3.750973 -0.499959,-0.570609 -1.428081,0.418638 -2.705076,-0.446014 -0.391464,-0.135468 -0.81907,-0.246248 -0.950521,-0.247072 z"
       id="path4" />
    <path
       style="fill:#9aaecb;stroke-width:0.827355;fill-opacity:1"
       d="m 28.064683,16.078489 c -0.898178,0.04825 -1.49724,0.549003 -1.629234,1.329683 0,0.140488 -0.317035,0.568571 -0.704101,0.950087 -0.693852,0.683954 -1.191341,1.917771 -1.194004,2.962607 -5.97e-4,0.294109 -0.147741,0.768369 -0.328129,1.053416 -0.180388,0.285051 -0.39313,1.484194 -0.471684,2.663868 -0.07853,1.179669 -0.243128,2.390419 -0.366855,2.690812 -0.123735,0.300409 -0.288282,0.833967 -0.364584,1.185942 -0.09874,0.455338 0.319066,1.200702 -0.14287,1.30002 -3.520386,0.75691 -4.080516,2.258027 -3.060265,5.717428 0.446094,1.512582 1.452373,2.472415 2.583986,2.466223 0.414326,-0.0023 0.05188,-1.25496 1.285808,-1.6388 2.253049,-0.70083 3.570644,0.05628 3.570644,0.450611 0,0.116517 0.386851,2.341912 0.843838,2.881075 0.675828,0.797357 0.831698,1.175412 0.831698,2.021492 0,0.578403 -0.212226,1.44624 -0.476233,1.956347 -0.597571,1.154633 -0.594066,1.481479 0.02966,2.751457 l 0.505863,1.028716 -0.143561,0.150494 h 7.827399 c -0.06367,-0.0659 -0.128455,-0.136108 -0.191412,-0.199899 -1.890982,-1.915831 -2.429879,-3.109852 -2.435871,-5.386132 -0.0033,-1.257106 0.526522,-1.867118 2.016607,-2.324714 2.541535,-0.780494 3.481795,-1.067304 4.259327,-1.862015 0.846365,-0.865063 1.415029,-2.223264 1.415029,-3.378117 0,-0.935105 -0.825181,-2.351924 -2.333335,-4.009276 -2.581297,-2.836705 -3.081518,-3.139017 -3.559775,-5.839844 -0.301139,-1.700653 -0.49389,-2.206588 -1.064124,-2.794148 -0.775937,-0.7995 -1.097083,-1.951278 -0.499028,-1.790132 0.215929,0.05814 0.419888,0.102697 0.612965,0.137015 -0.193077,-0.03429 -0.397036,-0.08102 -0.612965,-0.139263 -2.380201,-3.23933 -4.707778,-4.415339 -6.20475,-4.334958 z m -5.275065,5.44227 c -0.08302,0.08338 -0.174572,0.16015 -0.277997,0.231361 0.103938,-0.07159 0.194628,-0.147504 0.277997,-0.231361 z"
       id="path5-3" />
    <path
       style="opacity:0.1;stroke-width:0.827355"
       d="m 26.456175,21.769292 c -0.926408,0.284943 -1.631023,0.584947 -2.226579,0.884379 -0.175761,0.490011 -0.350467,1.439146 -0.424565,2.384037 -0.0925,1.17967 -0.287031,2.390414 -0.432758,2.690813 -0.004,0.0086 -0.0092,0.02365 -0.01367,0.03253 1.536992,0.683987 3.590839,0.395743 3.860685,-3.755734 -0.181623,-0.760604 0.449713,-1.691226 -0.763127,-2.236068 z"
       id="path6-6" />
    <path
       style="opacity:0.1;stroke-width:0.827355"
       d="m 28.502404,19.207011 c -1.907752,1.009311 -0.914626,2.732888 -1.200309,4.141925 0.641932,11.631225 7.702071,6.89745 8.661818,4.311608 l 0.284,-0.765552 c -0.157885,-0.507319 -0.27332,-1.094404 -0.41498,-1.894418 -0.157351,-0.888616 -0.286347,-1.448088 -0.453816,-1.866444 -1.80034,-1.201251 -3.338671,-2.645526 -6.876713,-3.927119 z"
       id="path7-7" />
    <path
       style="fill:#a02c5a;stroke-width:0.827355"
       d="m 28.39406,47.999967 c -2.53991,-2.656058 0.0778,-3.478863 -0.09011,-6.750363 -0.09995,-1.947925 -2.081279,-2.803817 -1.932985,-3.475666 0.141539,-0.533894 1.100947,-1.136513 1.459955,-1.13433 0.131447,8.28e-4 0.559323,0.112376 0.950793,0.247848 1.277005,0.864632 2.205063,-0.122871 2.705027,0.447727 0.287162,0.321844 -0.983582,2.112298 -0.948554,3.751477 0.06928,3.242447 2.340878,6.819697 -2.144149,6.913307 z"
       id="path8" />
    <path
       style="opacity:0.1;stroke-width:0.827355"
       d="m 23.062185,29.135652 c -0.09891,0.467495 -0.326874,0.698667 -0.789636,0.800629 -3.526659,0.777089 -6.229501,4.585331 -5.207431,8.136971 0.446881,1.552908 1.455905,2.540195 2.589527,2.533824 0.415061,-0.0023 1.766199,-0.326776 3.00234,-0.720847 4.032415,-2.514843 6.962967,0.357406 8.541701,-1.30227 2.422765,-2.7677 -2.192893,-9.986645 -8.136501,-9.448307 z"
       id="path9-5" />
    <path
       style="fill:#c83771;stroke-width:0.827355"
       d="m 23.062185,28.314227 c -0.09891,0.467496 -0.326874,0.698657 -0.789636,0.800629 -3.526659,0.777077 -6.229501,4.58532 -5.207431,8.136971 0.446881,1.552909 1.455905,2.540184 2.589527,2.533818 0.415061,-0.0023 1.766199,-0.32677 3.00234,-0.720852 4.032415,-2.514843 6.962967,0.357406 8.541701,-1.30227 2.422765,-2.767693 -2.192893,-9.986646 -8.136501,-9.448296 z"
       id="path10" />
    <path
       style="fill:#c83771;stroke-width:0.827355"
       d="m 23.496116,2.000364 c -0.887533,-0.019985 -1.900505,0.7135132 -3.41942,2.4403405 -2.28961,2.603006 -3.400831,4.3024184 -4.206099,6.4307305 -1.192108,3.150773 -0.906369,5.419362 0.826603,6.562807 0.915244,0.60389 0.910375,0.585971 0.542066,2.056127 -0.235966,0.941921 -0.212944,1.191798 0.184438,2.009306 0.802412,1.650738 3.077479,2.362203 4.696429,1.468409 0.976397,-0.53905 1.227222,-1.231114 1.24778,-3.439891 0.0204,-2.19002 -0.01125,-2.582735 0.724326,-2.581418 0.607528,0.0012 2.001839,0.867484 2.001839,1.243884 0.341511,-2.187594 4.072815,-2.286763 7.767692,3.159522 1.675994,0.489114 2.62702,0.180705 3.093272,-1.003147 l 0.291277,-0.740799 0.483588,0.875277 c 0.560418,1.014042 1.220195,1.260463 2.827868,1.057184 2.226035,-0.281477 4.589589,-2.46284 4.589589,-4.23593 0,-1.012251 -1.020285,-2.622571 -3.140508,-4.955731 -2.403158,-2.6445071 -3.277681,-2.808689 -5.46624,-1.02536 -1.538696,1.253808 -2.099602,1.40331 -2.764318,0.736605 -1.077713,-1.080901 -2.270008,-0.536379 -3.133204,1.43119 -0.758288,1.728429 -1.14231,1.574456 -1.802213,-0.723402 C 28.549588,11.751746 27.991611,9.9256205 27.600982,8.7084397 27.210356,7.4912613 26.725171,5.961 26.523033,5.3075732 26.087239,3.8989103 24.782362,2.2989918 23.869483,2.0543847 23.746682,2.0214778 23.622896,2.0032102 23.496105,2.0003596 Z m 1.435658,10.326278 c 0.03372,0.0037 0.06546,0.01153 0.0945,0.02343 0.465183,0.190568 1.040415,1.15247 1.119561,1.872419 0.08445,0.768073 -0.176101,0.81823 -1.54861,0.298963 -0.812592,-0.307414 -1.151614,-0.567999 -1.151614,-0.884882 0,-0.532749 0.98087,-1.364769 1.486185,-1.309912 z"
       id="path11" />
    <ellipse
       style="opacity:0.1;stroke-width:0.827269"
       cx="13.842857"
       cy="38.713799"
       rx="3.3110571"
       ry="4.3201818"
       transform="matrix(0.86343298,-0.50446357,0.49554967,0.8685796,0,0)"
       id="ellipse12" />
    <ellipse
       style="fill:#f2f2f2;stroke-width:0.827269;fill-opacity:1"
       cx="14.250502"
       cy="38.004906"
       rx="3.3110571"
       ry="4.3201818"
       transform="matrix(0.86343298,-0.50446357,0.49554967,0.8685796,0,0)"
       id="ellipse13" />
    <ellipse
       style="fill:#2d3d53;stroke-width:0.827355;fill-opacity:1"
       cx="29.946545"
       cy="25.234894"
       id="circle13"
       rx="1.1908334"
       ry="1.1738213" />
    <ellipse
       style="opacity:0.1;stroke-width:0.827427"
       cx="-31.794098"
       cy="19.576189"
       rx="1.4503901"
       ry="1.7917832"
       transform="matrix(-0.96937367,-0.24559047,-0.2726531,0.96211241,0,0)"
       id="ellipse14" />
    <ellipse
       style="fill:#f2f2f2;stroke-width:0.827427;fill-opacity:1"
       cx="-31.570139"
       cy="18.779371"
       rx="1.4503901"
       ry="1.7917832"
       transform="matrix(-0.96937367,-0.24559047,-0.2726531,0.96211241,0,0)"
       id="ellipse15" />
    <ellipse
       style="fill:#2d3d53;stroke-width:0.827366;fill-opacity:1"
       cx="-18.104965"
       cy="31.549126"
       transform="matrix(-0.9668449,0.25536431,0.26231373,0.96498265,0,0)"
       id="circle15"
       rx="0.59443456"
       ry="0.58707339" />
  </g>
</svg>
