<?xml version="1.0" encoding="UTF-8" standalone="no"?>
<svg
   width="62"
   height="62"
   version="1.1"
   id="svg5"
   sodipodi:docname="phoenix-emu-project-logo.svg"
   inkscape:version="1.4 (unknown)"
   xmlns:inkscape="http://www.inkscape.org/namespaces/inkscape"
   xmlns:sodipodi="http://sodipodi.sourceforge.net/DTD/sodipodi-0.dtd"
   xmlns:xlink="http://www.w3.org/1999/xlink"
   xmlns="http://www.w3.org/2000/svg"
   xmlns:svg="http://www.w3.org/2000/svg">
  <defs
     id="defs5">
    <linearGradient
       id="linearGradient2"
       inkscape:collect="always">
      <stop
         style="stop-color:#c83771;stop-opacity:1"
         offset="0"
         id="stop3" />
      <stop
         style="stop-color:#ffe680;stop-opacity:1;"
         offset="1"
         id="stop5" />
    </linearGradient>
    <linearGradient
       id="linearGradient8"
       inkscape:collect="always">
      <stop
         style="stop-color:#2d3d53;stop-opacity:1;"
         offset="0"
         id="stop8" />
      <stop
         style="stop-color:#354864;stop-opacity:1;"
         offset="1"
         id="stop10" />
    </linearGradient>
    <linearGradient
       id="linearGradient4217">
      <stop
         style="stop-color:#000000;stop-opacity:1;"
         offset="0"
         id="stop2" />
      <stop
         style="stop-color:#000000;stop-opacity:0;"
         offset="1"
         id="stop4" />
    </linearGradient>
    <linearGradient
       id="linearGradient4161">
      <stop
         style="stop-color:#334545;stop-opacity:1;"
         offset="0"
         id="stop7" />
      <stop
         style="stop-color:#4d6868;stop-opacity:1"
         offset="1"
         id="stop9" />
    </linearGradient>
    <linearGradient
       id="a-1-2"
       y1="510.79999"
       y2="527.14001"
       gradientUnits="userSpaceOnUse"
       x2="0">
      <stop
         stop-color="#7cbaf8"
         id="stop2-2-7" />
      <stop
         offset="1"
         stop-color="#f4fcff"
         id="stop4-70-0" />
    </linearGradient>
    <linearGradient
       id="c"
       y1="503.79999"
       x1="400.57001"
       y2="519.79999"
       x2="416.57001"
       gradientUnits="userSpaceOnUse">
      <stop
         stop-color="#292c2f"
         id="stop12" />
      <stop
         offset="1"
         stop-opacity="0"
         id="stop14" />
    </linearGradient>
    <linearGradient
       id="b"
       y1="542.79999"
       x1="408.57001"
       y2="521.79999"
       x2="387.57001"
       gradientUnits="userSpaceOnUse"
       gradientTransform="translate(-384.57,-499.8)">
      <stop
         stop-color="#197cf1"
         id="stop7-8" />
      <stop
         offset="1"
         stop-color="#20bcfa"
         id="stop9-7" />
    </linearGradient>
    <linearGradient
       xlink:href="#linearGradient1389"
       id="linearGradient4503-5-6"
       y1="37"
       y2="4"
       x2="0"
       gradientUnits="userSpaceOnUse"
       gradientTransform="matrix(1.0218446,0,0,0.99999999,21.748946,8.2587777)" />
    <linearGradient
       id="linearGradient1389">
      <stop
         style="stop-color:#ffaaaa;stop-opacity:1"
         id="stop1385"
         offset="0" />
      <stop
         offset="1"
         style="stop-color:#ff5555;stop-opacity:1"
         id="stop1387" />
    </linearGradient>
    <linearGradient
       id="paint543_linear_890_11"
       x1="978.5"
       y1="298"
       x2="978.5"
       y2="304"
       gradientUnits="userSpaceOnUse"
       gradientTransform="matrix(0.75000004,0,0,0.75000004,-717.38333,-173.49123)">
      <stop
         offset="0.189495"
         stop-color="#EFF2F6"
         id="stop1829" />
      <stop
         offset="0.850463"
         stop-color="#B7C6CD"
         id="stop1830" />
    </linearGradient>
    <linearGradient
       inkscape:collect="always"
       xlink:href="#linearGradient8"
       id="linearGradient10"
       x1="31.5"
       y1="59.017544"
       x2="31.5"
       y2="4.9824562"
       gradientUnits="userSpaceOnUse" />
    <linearGradient
       id="linearGradient4144">
      <stop
         style="stop-color:#c83771;stop-opacity:1"
         offset="0"
         id="stop1141" />
      <stop
         style="stop-color:#de87aa;stop-opacity:1"
         offset="1"
         id="stop1143" />
    </linearGradient>
    <linearGradient
       id="c-0"
       gradientUnits="userSpaceOnUse"
       x1="10"
       x2="24"
       y1="10"
       y2="24"
       gradientTransform="translate(59.728813,26.237288)">
      <stop
         offset="0"
         stop-color="#292c2f"
         id="stop12-2" />
      <stop
         offset="1"
         stop-opacity="0"
         id="stop14-3" />
    </linearGradient>
    <linearGradient
       id="d"
       gradientUnits="userSpaceOnUse"
       x1="24"
       x2="24"
       y1="25"
       y2="7"
       gradientTransform="translate(59.728813,26.237288)">
      <stop
         offset="0"
         stop-color="#bb9d71"
         id="stop2-7" />
      <stop
         offset="1"
         stop-color="#f9f2e7"
         id="stop4-5" />
    </linearGradient>
    <linearGradient
       inkscape:collect="always"
       xlink:href="#linearGradient2"
       id="linearGradient5"
       x1="23.625395"
       y1="37.201694"
       x2="24.448149"
       y2="3.0329156"
       gradientUnits="userSpaceOnUse" />
  </defs>
  <sodipodi:namedview
     id="namedview5"
     pagecolor="#ffffff"
     bordercolor="#000000"
     borderopacity="0.25"
     inkscape:showpageshadow="2"
     inkscape:pageopacity="0.0"
     inkscape:pagecheckerboard="0"
     inkscape:deskcolor="#d1d1d1"
     inkscape:zoom="8.2643105"
     inkscape:cx="25.289466"
     inkscape:cy="27.64901"
     inkscape:window-width="1920"
     inkscape:window-height="998"
     inkscape:window-x="0"
     inkscape:window-y="0"
     inkscape:window-maximized="1"
     inkscape:current-layer="svg5" />
  <g
     id="g1"
     transform="translate(-0.5,-1)">
    <rect
       style="opacity:0.2;stroke-width:0.9823"
       width="55"
       height="55.017544"
       x="4"
       y="4.9824562"
       rx="8.25"
       ry="8.2526312"
       id="rect1" />
    <rect
       style="fill:url(#linearGradient10);stroke-width:0.9823"
       width="55"
       height="55.017544"
       x="4"
       y="4"
       rx="8.25"
       ry="8.2526312"
       id="rect2" />
    <path
       style="opacity:0.1;fill:#ffffff;stroke-width:0.9823"
       d="M 12.248466,4 C 7.6779652,4 4,7.6791384 4,12.251097 v 0.982456 C 4,8.6615945 7.6779652,4.9824561 12.248466,4.9824561 H 50.751534 C 55.322034,4.9824561 59,8.6615945 59,13.233553 V 12.251097 C 59,7.6791384 55.322034,4 50.751534,4 Z"
       id="path4" />
  </g>
  <g
     id="g2"
     transform="matrix(1.0546722,0,0,1.0498962,6.4119004,7.7724829)"
     style="fill:url(#linearGradient5)">
    <path
       d="m 9.0315441,4.0543022 c -0.2069207,1.8209106 0.5105564,3.4761073 2.0414589,4.4694095 2.386527,1.6415493 5.172969,2.2900143 7.449102,4.1796603 0.62094,0.579292 1.020838,1.296714 0.896561,2.151861 -1.848448,2.041453 -3.241661,4.662424 -2.345093,7.476629 0.648472,2.262023 1.669087,4.372675 2.772783,6.4558 -2.096774,1.03449 -4.731624,2.234239 -5.655725,4.634425 -0.206925,0.607267 -0.427434,1.20021 -0.524235,1.848448 -0.303456,-1.958614 -1.420759,-3.72444 -3.089846,-5.06257 0.124243,0.786392 -0.01407,1.627887 -0.386228,2.290015 -1.0206196,1.448306 -1.7241718,3.40759 -1.0345009,5.200503 0.4140201,1.255515 1.6690869,2.427726 2.9107169,2.813987 C 9.7353287,40.457752 7.3626796,39.257403 6.3142973,37.064119 5.3899619,35.105514 5.804008,32.456784 7.1005112,30.801579 7.969582,29.47732 9.4731474,28.276893 9.0593507,26.539073 c 1.7517113,1.006954 3.9866423,1.434641 5.1037633,3.434675 0.137918,-0.192978 0,-0.441371 0,-0.661881 C 13.514903,27.049622 10.990419,26.814721 9.3627556,25.711481 7.638587,25.021622 6.1210881,23.24234 6.0107005,21.338809 5.8588404,20.207568 5.9551097,19.007592 6.4383972,18.055716 c 1.0895903,2.027573 3.3932591,2.510574 5.1727408,3.545075 1.062272,0.565348 2.290011,1.034274 2.979454,2.22082 0.04146,-0.951873 -0.537825,-1.793362 -1.324027,-2.386525 -2.855403,-1.544583 -7.4076716,-2.924146 -7.4902906,-7.021182 -0.041473,-1.172433 0.2619834,-2.193282 0.772537,-3.145157 0.1379184,0.137918 0.1379184,0.400166 0.2619833,0.565615 1.8070214,2.717476 4.8832103,2.993341 7.1456893,5.007493 0.34484,0.344842 0.551497,0.772541 0.827597,1.158552 0.234627,-1.11713 -0.386224,-2.124313 -1.324255,-2.758676 C 12.839151,14.841563 12.108034,14.607113 11.51487,14.193349 9.3077083,13.241471 6.5626917,11.296512 6.4798434,8.5929318 6.0796771,6.1652031 7.3764101,4.0270094 9.3627858,2.6062478 9.2523988,3.0200026 9.0316253,3.5303537 9.0316253,4.0543198 Z"
       id="path2"
       style="clip-rule:evenodd;fill-rule:evenodd;stroke-width:0.227614;fill:url(#linearGradient5)" />
    <path
       d="m 23.625867,37.202061 c 0.620674,-2.290022 -0.551497,-4.855446 0.358692,-7.090153 0,-0.05471 0.02736,-0.124068 -0.02736,-0.165452 -0.510556,0.413846 -0.924336,0.841451 -1.420993,1.296718 0.772534,-1.58669 1.407099,-3.531646 0.993299,-5.504146 -0.05471,-0.152034 -0.179563,0 -0.206917,0.06883 -0.413844,1.227974 -1.627667,2.11066 -2.745246,2.648736 -1.393223,-2.731355 -3.06231,-5.380095 -2.910483,-8.704387 0.344834,-3.034759 3.310631,-4.883214 4.538368,-7.545369 0.289511,-0.938223 0.110125,-2.014144 -0.565613,-2.7174751 -0.64821,-0.6343543 -1.434422,-0.924337 -2.289791,-1.0620459 0.110212,-0.3726348 0.399901,-0.7585939 0.772535,-0.9243339 0.744745,-0.3726353 1.627668,-0.041475 2.317331,0.2344531 1.158775,-0.5517623 2.538112,-0.027367 3.600152,0.4552262 1.034503,0.4552274 1.875992,1.3932121 3.117631,1.3654443 -0.02736,0.3174873 -0.400169,0.5380853 -0.662329,0.6623293 -0.979413,0.137917 -1.820903,-0.344842 -2.648282,-0.5656189 0.993084,1.5864669 0.592975,3.7244319 0.02736,5.3935269 0.01407,0.01408 0.02736,0.02736 0.04146,0.02736 1.089587,-1.50339 2.745249,-2.524462 4.303714,-3.338181 1.627886,-0.786388 3.269204,-1.531378 4.897318,-2.345098 C 36.647874,8.4544303 37.944583,6.8404335 37.8895,4.9505552 37.84803,4.274551 37.751315,3.6124195 37.4618,3.0329156 c 2.041462,1.3795631 3.117164,3.4902253 2.855402,5.9179404 -0.207095,2.290018 -2.041914,4.538151 -4.207196,5.26947 -1.655426,1.062048 -4.552263,1.655209 -4.634889,4.16578 0.52423,-0.827601 1.365687,-1.558917 2.248589,-1.944958 2.275682,-1.337903 5.186624,-1.87598 6.483337,-4.566138 h 0.06883 c 0.965533,2.027802 0.744562,4.841775 -0.827862,6.510869 -1.820903,1.958834 -4.359247,2.345091 -6.455792,3.751975 -0.979411,0.607264 -1.517265,1.62789 -1.558688,2.676271 1.158554,-2.165963 3.599928,-2.496687 5.462255,-3.572615 1.214089,-0.593147 2.538342,-1.227739 3.352514,-2.413837 h 0.06883 c 0.551762,2.193281 0.330723,4.869563 -1.531152,6.386828 -1.696852,1.365676 -3.724887,1.944947 -5.531681,3.075959 -0.593408,0.441374 -0.937995,1.034963 -1.159008,1.655436 0.02736,0.02736 0.05471,0.04145 0.06883,0.06883 1.586687,-1.654974 3.848487,-1.696862 5.55922,-3.048429 -0.331159,2.441612 2.221053,3.820946 2.524687,6.055649 0.565347,2.496698 -0.303634,4.93807 -2.290014,6.551846 -1.227975,0.924337 -2.813986,1.103915 -4.373129,1.131459 0.2761,-0.0547 0.565876,-0.193513 0.869071,-0.234632 1.338131,-0.482755 2.551769,-1.779019 2.648727,-3.241661 0.19307,-2.496689 -2.331209,-4.469189 -0.896565,-6.979531 -0.400169,0.02736 -0.745008,0.38578 -1.131014,0.592966 -2.083112,1.393225 -2.938478,3.655688 -4.303704,5.531681 h -0.05559 c 0.813922,-1.338139 0.345018,-3.214128 1.420763,-4.442098 0.124503,-0.06884 0.151594,-0.248575 0.234626,-0.358693 -0.745002,0.08294 -1.434638,0.510735 -2.05557,0.99308 -3.172466,2.138425 -3.379602,6.704341 -7.379668,7.738841 -1.04839,0.303636 -2.290018,0.400167 -3.379597,0.303636 1.779243,-0.261981 3.641582,-1.572577 4.069032,-3.407144 z m 1.751942,-2.193054 c 1.572349,-2.096996 4.966061,-2.91094 5.228042,-5.862853 -0.441378,0.386223 -0.965536,0.579289 -1.420756,0.96553 -0.04146,0.01407 -0.124063,0.06883 -0.165449,0 0.399726,-0.716943 0.565349,-1.531157 0.758423,-2.317556 0.05471,-0.482761 0.179562,-1.006965 0.207095,-1.420765 -1.241638,1.241633 -2.952371,1.710737 -3.904025,3.310633 -1.131007,1.531609 -0.620679,3.531646 -0.703358,5.325011 z"
       id="path3"
       style="clip-rule:evenodd;fill-rule:evenodd;stroke-width:0.227614;fill:url(#linearGradient5)" />
    <path
       d="m 20.715153,30.843006 c -0.910456,1.944951 0.179393,4.55226 -0.924105,6.455786 -1.062271,2.165513 -3.407149,3.558735 -5.903831,3.310636 0.855125,-0.193515 1.545039,-1.103921 1.765591,-1.889873 0.413847,-1.627886 0.137919,-3.559183 1.255287,-4.897327 1.048383,-1.669314 2.841526,-2.290008 4.165779,-3.641805 0,0.193689 -0.275663,0.427875 -0.358697,0.662593 z m 14.001618,2.717242 c -0.662328,1.393679 0.05471,2.993562 -0.593414,4.469638 -0.52423,1.338144 -1.931066,2.331211 -3.310169,2.510804 -1.641779,0.137734 -3.256012,0.137734 -4.897331,0.137734 3.283094,-0.552193 5.98691,-3.255552 7.738396,-6.097068 0.289777,-0.37264 0.662321,-0.786394 1.062491,-1.021073 z"
       id="path4-3"
       style="clip-rule:evenodd;fill-rule:evenodd;stroke-width:0.227614;fill:url(#linearGradient5)" />
  </g>
</svg>
