<?xml version="1.0" encoding="UTF-8" standalone="no"?>
<svg
   width="62"
   height="62"
   version="1.1"
   id="svg10"
   sodipodi:docname="pia-manager.svg"
   inkscape:version="1.4 (unknown)"
   xmlns:inkscape="http://www.inkscape.org/namespaces/inkscape"
   xmlns:sodipodi="http://sodipodi.sourceforge.net/DTD/sodipodi-0.dtd"
   xmlns="http://www.w3.org/2000/svg"
   xmlns:svg="http://www.w3.org/2000/svg">
  <defs
     id="defs10" />
  <sodipodi:namedview
     id="namedview10"
     pagecolor="#ffffff"
     bordercolor="#000000"
     borderopacity="0.25"
     inkscape:showpageshadow="2"
     inkscape:pageopacity="0.0"
     inkscape:pagecheckerboard="0"
     inkscape:deskcolor="#d1d1d1"
     inkscape:zoom="22.627417"
     inkscape:cx="37.388271"
     inkscape:cy="19.64431"
     inkscape:window-width="1920"
     inkscape:window-height="998"
     inkscape:window-x="0"
     inkscape:window-y="0"
     inkscape:window-maximized="1"
     inkscape:current-layer="svg10" />
  <g
     id="g10"
     transform="matrix(0.98809522,0,0,0.98245614,-0.61904746,-0.92982454)">
    <path
       style="opacity:1;fill:#3f8d35;fill-opacity:1"
       d="M 32.316266,5 H 31.68625 C 22.580856,4.9993 14.999304,12.432002 15,21.600488 v 4.453352 c 0,0.743958 0.799314,1.34686 1.538153,1.346158 h 3.557069 C 20.83406,27.400698 21,26.797798 21,26.05384 V 21.325166 C 21,15.584882 26.05477,11 31.755552,11 h 0.504014 C 37.960346,11 43,15.584884 43,21.325166 v 4.728674 c 0,0.743958 0.1806,1.34686 0.919474,1.346158 h 3.557488 C 48.20989,27.392398 49.00004,26.791886 49,26.05384 V 21.600488 C 49.000696,12.432993 41.420676,5.0007014 32.316266,5 Z"
       id="path2" />
    <path
       style="opacity:0.2"
       d="m 15.198969,58.135792 c 0.665648,1.489104 2.155538,2.86438 3.800049,2.864208 h 4.722716 c 1.563224,2.22e-4 2.994298,-1.620516 3.703534,-3 h 8.66303 c 0.708362,1.379082 2.138498,2.999852 3.700964,3 h 4.724 c 1.596148,-0.0011 3.050594,-1.322448 3.742142,-2.746972 2.73719,-0.453678 4.743074,-2.798796 4.74459,-5.54699 V 31.747374 c 5.48e-4,-0.975858 -0.256762,-1.934874 -0.746368,-2.781778 v -0.02676 C 52.252912,26.76327 50.471698,25 48.274706,25 H 40.62957 c -1.036382,-8.36e-4 -2.031866,1.282782 -2.773148,2 H 26.174458 c -0.740734,-0.717258 -1.735846,-2.00091 -2.771862,-1.999998 h -7.645138 c -2.184279,6.36e-4 -3.959385,1.745344 -3.976344,3.908252 C 11.269607,29.768668 10.999909,30.748942 11,31.747374 v 20.958664 c 0.0011,2.541142 1.721811,4.766274 4.198969,5.429754 z"
       id="path3" />
    <path
       style="fill:#3f8d35"
       d="M 32.316266,4 H 31.68625 C 22.580856,3.9993 14.999304,11.432002 15,20.600488 v 4.453352 c 0,0.743958 0.799314,1.34686 1.538153,1.346158 h 3.557069 C 20.83406,26.400698 21,25.797798 21,25.05384 V 20.325166 C 21,14.584882 26.05477,10 31.755552,10 h 0.504014 C 37.960346,10 43,14.584884 43,20.325166 v 4.728674 c 0,0.743958 0.1806,1.34686 0.919474,1.346158 h 3.557488 C 48.20989,26.392398 49.00004,25.791886 49,25.05384 V 20.600488 C 49.000696,11.432993 41.420676,4.0007014 32.316266,4 Z"
       id="path4" />
    <path
       style="fill:#51a948"
       d="m 15.198969,57.135792 c 0.665648,1.489104 2.155538,2.86438 3.800049,2.864208 h 4.722716 c 1.563224,2.22e-4 2.994298,-1.620516 3.703534,-3 h 8.66303 c 0.708362,1.379082 2.138498,2.999852 3.700964,3 h 4.724 c 1.596148,-0.0011 3.050594,-1.322448 3.742142,-2.746972 2.73719,-0.453678 4.743074,-2.798796 4.74459,-5.54699 V 30.747374 c 5.48e-4,-0.975858 -0.256762,-1.934874 -0.746368,-2.781778 v -0.02676 C 52.252912,25.76327 50.471698,24 48.274706,24 H 40.62957 c -1.036382,-8.36e-4 -2.031866,1.282782 -2.773148,2 H 26.174458 c -0.740734,-0.717258 -1.735846,-2.00091 -2.771862,-1.999998 h -7.645138 c -2.184279,6.36e-4 -3.959385,1.745344 -3.976344,3.908252 C 11.269607,28.768668 10.999909,29.748942 11,30.747374 v 20.958664 c 0.0011,2.541142 1.721811,4.766274 4.198969,5.429754 z"
       id="path5" />
    <path
       style="opacity:0.2"
       d="m 35.99446,39.010282 c 3.18e-4,-3.019594 -3.208824,-4.952892 -5.871246,-3.537176 -2.662422,1.41572 -2.86221,5.161688 -0.36541,6.853464 0.19616,0.13278 0.298366,0.366922 0.26249,0.601344 l -0.983512,7.35424 c -0.05612,0.377724 0.235694,0.717264 0.61691,0.717846 h 4.69383 c 0.381304,-6.9e-4 0.673358,-0.33992 0.618018,-0.717846 l -0.98462,-7.35424 c -0.0348,-0.236556 0.069,-0.47213 0.266924,-0.605782 1.097296,-0.744064 1.753914,-1.985592 1.752154,-3.312958"
       id="path7" />
    <path
       style="fill:#fefefe"
       d="m 35.99446,38.010282 c 3.18e-4,-3.019594 -3.208824,-4.952892 -5.871246,-3.537176 -2.662422,1.41572 -2.86221,5.161688 -0.36541,6.853464 0.19616,0.13278 0.298366,0.366922 0.26249,0.601344 l -0.983512,7.35424 c -0.05612,0.377724 0.235694,0.717264 0.61691,0.717846 h 4.69383 c 0.381304,-6.9e-4 0.673358,-0.33992 0.618018,-0.717846 l -0.98462,-7.35424 c -0.0348,-0.236556 0.069,-0.47213 0.266924,-0.605782 1.097296,-0.744064 1.753914,-1.985592 1.752154,-3.312958"
       id="path8" />
    <path
       style="opacity:0.1;fill:#ffffff"
       d="M 31.6875,4 C 22.582106,3.9993 14.999304,11.433077 15,20.601562 v 1 C 14.999304,12.433076 22.582106,4.9993 31.6875,5 h 0.628906 C 41.420816,5.0007014 49.000696,12.434067 49,21.601562 v -1 C 49.000696,11.434067 41.420816,4.0007014 32.316406,4 Z"
       id="path9" />
    <path
       style="opacity:0.2;fill:#ffffff"
       d="m 15.757812,24 c -2.184279,6.36e-4 -3.959603,1.747248 -3.976562,3.910156 C 11.269743,28.77057 10.999909,29.747662 11,30.746094 v 1 c -9.1e-5,-0.998432 0.269743,-1.975524 0.78125,-2.835938 C 11.79821,26.747248 13.573533,25.000636 15.757812,25 h 7.644532 c 1.036016,-9.12e-4 2.032703,1.282742 2.773437,2 h 11.679688 c 0.741282,-0.717218 1.737055,-2.000836 2.773437,-2 h 7.644532 c 2.196992,0 3.979754,1.761934 3.980468,3.9375 v 0.02734 C 52.743512,29.811744 53.000548,30.770232 53,31.74609 v -1 c 5.48e-4,-0.975858 -0.256488,-1.934346 -0.746094,-2.78125 V 27.9375 C 52.253192,25.761934 50.47043,24 48.273438,24 h -7.644532 c -1.036382,-8.36e-4 -2.032155,1.282782 -2.773437,2 H 26.175781 C 25.435047,25.282742 24.43836,23.999088 23.402344,24 Z"
       id="path10" />
    <path
       style="fill:#f2f2f2;fill-opacity:1;stroke-width:1.42967"
       d="m 32,10.890893 c -6.185589,0 -11.2,5.229222 -11.2,11.679794 v 2.919948 h 22.4 c 0,0 0,0 0,-2.919948 0,-6.450572 -5.014411,-11.679794 -11.2,-11.679794 z"
       id="path18"
       inkscape:connector-curvature="0"
       sodipodi:nodetypes="sccccs" />
    <path
       style="fill:#51a948"
       d="m 36.87403,15.200003 a 2,2 0 1 0 1.996094,1.996094 2,2 0 0 0 -1.996094,-1.996094 z m -10.105468,0.0039 a 2.0021018,2.0000768 0 0 0 0.09766,3.9961 2.0007526,1.9987289 0 0 0 2.003906,-2 2.0021018,2.0000768 0 0 0 -2.101562,-1.996094 z m 8.117186,4.835938 a 0.49188136,0.49188136 0 0 0 -0.10546,0.004 0.49188136,0.49188136 0 0 0 -0.273438,0.125 3.9333404,3.9333404 0 0 1 -5.26953,0 0.49150798,0.49150798 0 0 0 -0.664064,0.722656 4.8167784,4.8167784 0 0 0 6.601564,0 0.49188136,0.49188136 0 0 0 -0.289064,-0.851562 z"
       id="path6-2" />
  </g>
</svg>
