<?xml version="1.0" encoding="UTF-8" standalone="no"?>
<svg
   width="62"
   height="62"
   version="1.1"
   id="svg10"
   sodipodi:docname="pico-8.svg"
   inkscape:version="1.4 (unknown)"
   xmlns:inkscape="http://www.inkscape.org/namespaces/inkscape"
   xmlns:sodipodi="http://sodipodi.sourceforge.net/DTD/sodipodi-0.dtd"
   xmlns="http://www.w3.org/2000/svg"
   xmlns:svg="http://www.w3.org/2000/svg">
  <defs
     id="defs10" />
  <sodipodi:namedview
     id="namedview10"
     pagecolor="#ffffff"
     bordercolor="#000000"
     borderopacity="0.25"
     inkscape:showpageshadow="2"
     inkscape:pageopacity="0.0"
     inkscape:pagecheckerboard="0"
     inkscape:deskcolor="#d1d1d1"
     inkscape:zoom="6.0546875"
     inkscape:cx="44.098064"
     inkscape:cy="49.96129"
     inkscape:window-width="1920"
     inkscape:window-height="998"
     inkscape:window-x="0"
     inkscape:window-y="0"
     inkscape:window-maximized="1"
     inkscape:current-layer="svg10" />
  <g
     id="g10"
     transform="matrix(0.99968105,0,0,1,-0.49872408,-1)">
    <path
       d="M 25.61404,4.982456 V 15.78947 H 37.40351 V 4.982456 Z M 37.40351,15.78947 V 26.59649 H 48.21053 V 15.78947 Z M 48.21053,26.59649 V 38.38596 H 59.01754 V 26.59649 Z m 0,11.78947 H 37.40351 V 49.19298 H 48.21053 Z M 37.40351,49.19298 H 25.61404 V 60 h 11.78947 z m -11.78947,0 V 38.38596 H 14.80702 V 49.19298 Z M 14.80702,38.38596 V 26.59649 H 4 v 11.78947 z m 0,-11.78947 H 25.61404 V 15.78947 H 14.80702 Z"
       style="opacity:0.2;stroke-width:0.98246"
       id="path1" />
    <rect
       x="14.807014"
       y="14.807014"
       width="10.807014"
       height="10.807014"
       style="fill:#fea200;stroke-width:0.98246"
       id="rect1" />
    <rect
       x="25.614029"
       y="4"
       width="11.789476"
       height="10.807014"
       style="fill:#fe004c;stroke-width:0.98246"
       id="rect2" />
    <rect
       x="37.403496"
       y="14.807014"
       width="10.807014"
       height="10.807014"
       style="fill:#fecba9;stroke-width:0.98246"
       id="rect3" />
    <rect
       x="4"
       y="25.614029"
       width="10.807014"
       height="11.789476"
       style="fill:#fefe26;stroke-width:0.98246"
       id="rect4" />
    <rect
       transform="scale(-1)"
       x="-48.21051"
       y="-48.21051"
       width="10.807014"
       height="10.807014"
       style="fill:#82759b;stroke-width:0.98246"
       id="rect5" />
    <rect
       transform="scale(-1)"
       x="-37.403496"
       y="-59.017548"
       width="11.789476"
       height="10.807014"
       style="fill:#28acfe;stroke-width:0.98246"
       id="rect6" />
    <rect
       transform="scale(-1)"
       x="-25.614029"
       y="-48.21051"
       width="10.807014"
       height="10.807014"
       style="fill:#00e655;stroke-width:0.98246"
       id="rect7" />
    <rect
       transform="scale(-1)"
       x="-59.017548"
       y="-37.403496"
       width="10.807014"
       height="11.789476"
       style="fill:#fe76a7;stroke-width:0.98246"
       id="rect8" />
    <path
       d="M 25.61404,15.78947 V 26.59649 H 14.80702 V 38.38596 H 25.61404 V 49.19298 H 37.40351 V 38.38596 H 48.21053 V 26.59649 H 37.40351 V 15.78947 Z"
       style="opacity:0.2;stroke-width:0.98246"
       id="path8" />
    <path
       d="M 25.61404,14.80702 V 25.61404 H 14.80702 V 37.40351 H 25.61404 V 48.21053 H 37.40351 V 37.40351 H 48.21053 V 25.61404 H 37.40351 V 14.80702 Z"
       style="fill:#fdf0e8;stroke-width:0.98246"
       id="path9" />
    <path
       d="M 25.61404,4 V 4.982456 H 37.40351 V 4 Z M 14.80702,14.80702 v 0.98245 h 10.80702 v -0.98245 z m 22.59649,0 v 0.98245 H 48.21053 V 14.80702 Z M 4,25.61404 v 0.98245 h 10.80702 v -0.98245 z m 44.21053,0 v 0.98245 h 10.80701 v -0.98245 z"
       style="opacity:0.2;fill:#ffffff;stroke-width:0.98246"
       id="path10" />
  </g>
</svg>
