<?xml version="1.0" encoding="UTF-8" standalone="no"?>
<svg
   width="62"
   height="62"
   x="0"
   y="0"
   version="1.1"
   id="svg8"
   sodipodi:docname="picturama.svg"
   inkscape:version="1.4 (unknown)"
   xmlns:inkscape="http://www.inkscape.org/namespaces/inkscape"
   xmlns:sodipodi="http://sodipodi.sourceforge.net/DTD/sodipodi-0.dtd"
   xmlns="http://www.w3.org/2000/svg"
   xmlns:svg="http://www.w3.org/2000/svg">
  <defs
     id="defs8" />
  <sodipodi:namedview
     id="namedview8"
     pagecolor="#ffffff"
     bordercolor="#000000"
     borderopacity="0.25"
     inkscape:showpageshadow="2"
     inkscape:pageopacity="0.0"
     inkscape:pagecheckerboard="0"
     inkscape:deskcolor="#d1d1d1"
     inkscape:zoom="12.109375"
     inkscape:cx="31.95871"
     inkscape:cy="32"
     inkscape:window-width="1920"
     inkscape:window-height="998"
     inkscape:window-x="0"
     inkscape:window-y="0"
     inkscape:window-maximized="1"
     inkscape:current-layer="svg8" />
  <g
     id="g8"
     transform="matrix(1,0,0,0.98245614,-1,-0.9298246)">
    <path
       style="opacity:0.2"
       d="m 32.149196,5.0000004 v 0.00274 A 6.3412168,6.3670384 0 0 0 28.828884,5.850388 L 10.171116,16.667537 A 6.3412168,6.3670384 0 0 0 7,22.182755 v 21.634296 a 6.3412168,6.3670384 0 0 0 3.171116,5.512482 l 18.657768,10.817152 a 6.3412168,6.3670384 0 0 0 6.34223,0 L 53.828884,49.329533 A 6.3412168,6.3670384 0 0 0 57,43.817051 V 22.182755 A 6.3412168,6.3670384 0 0 0 53.828884,16.667537 L 35.171114,5.850388 A 6.3412168,6.3670384 0 0 0 32.149196,5.0000004 Z"
       id="path1" />
    <path
       style="fill:#d9d9d9;fill-opacity:1"
       d="m 32.149196,4.0000017 v 0.00274 A 6.3412168,6.3670384 0 0 0 28.828884,4.8503893 L 10.171116,15.667538 A 6.3412168,6.3670384 0 0 0 7,21.182757 v 21.634296 a 6.3412168,6.3670384 0 0 0 3.171116,5.512482 l 18.657768,10.817152 a 6.3412168,6.3670384 0 0 0 6.34223,0 L 53.828884,48.329535 A 6.3412168,6.3670384 0 0 0 57,42.817053 V 21.182757 A 6.3412168,6.3670384 0 0 0 53.828884,15.667538 L 35.171114,4.8503893 A 6.3412168,6.3670384 0 0 0 32.149196,4.0000017 Z"
       id="path2" />
    <polygon
       style="opacity:0.6;fill:#009741"
       transform="matrix(0.46666668,0,0,0.46666668,11,7.7566661)"
       points="45,34.6 60,43.3 60,26 30,8.7 0,26 0,60.6 30,77.9 60,60.6 45,69.3 30,60.6 30,43.3 "
       id="polygon2" />
    <polygon
       style="opacity:0.6;fill:#dedc0a"
       transform="matrix(0.46666668,0,0,0.46666668,11,7.7566661)"
       points="60,77.9 60,60.6 45,69.3 30,60.6 30,43.3 45,34.6 30,26 0,43.3 0,77.9 30,95.3 "
       id="polygon3" />
    <polygon
       style="opacity:0.6;fill:#f39208"
       transform="matrix(0.46666668,0,0,0.46666668,11,7.7566661)"
       points="30,43.3 45,34.6 15,52 15,86.6 45,103.9 75,86.6 75,52 45,34.6 60,43.3 60,60.6 45,69.3 30,60.6 "
       id="polygon4" />
    <polygon
       style="opacity:0.6;fill:#e72174"
       transform="matrix(0.46666668,0,0,0.46666668,11,7.7566661)"
       points="60,95.3 90,77.9 90,43.3 60,26 45,34.6 60,43.3 60,60.6 45,69.3 30,60.6 30,77.9 "
       id="polygon5" />
    <polygon
       style="opacity:0.6;fill:#253887"
       transform="matrix(0.46666668,0,0,0.46666668,11,7.7566661)"
       points="60,8.7 30,26 30,43.3 45,34.6 60,43.3 60,60.6 45,69.3 30,60.6 60,77.9 90,60.6 90,26 "
       id="polygon6" />
    <polygon
       style="opacity:0.6;fill:#3ba9e0"
       transform="matrix(0.46666668,0,0,0.46666668,11,7.7566661)"
       points="60,60.6 75,52 75,17.3 45,0 15,17.3 15,52 30,60.6 30,43.3 45,34.6 60,43.3 "
       id="polygon7" />
    <path
       style="opacity:0.2;fill:#ffffff"
       d="M 32.148438,4 V 4.00391 A 6.3412168,6.3670384 0 0 0 28.828125,4.8515625 L 10.171875,15.667969 A 6.3412168,6.3670384 0 0 0 7,21.183594 v 1 a 6.3412168,6.3670384 0 0 1 3.171875,-5.515625 L 28.828125,5.8515625 A 6.3412168,6.3670384 0 0 1 32.148438,5.0039062 V 5 a 6.3412168,6.3670384 0 0 1 3.023437,0.8515625 L 53.828125,16.667969 A 6.3412168,6.3670384 0 0 1 57,22.183594 v -1 A 6.3412168,6.3670384 0 0 0 53.828125,15.667969 L 35.171875,4.8515625 A 6.3412168,6.3670384 0 0 0 32.148438,4 Z"
       id="path7" />
    <path
       style="opacity:0.1"
       d="m 32,23.902344 -7,4.0625 v 1 l 7,-4.0625 7,4.0625 v -1 z M 11,44.109375 v 1 l 7,4.0625 0.539062,0.308594 6.460938,3.75 0.01953,-0.01172 L 32,57.242188 38.980469,53.21875 39,53.230469 53,45.109375 v -1 L 39,52.230469 38.980469,52.21875 32,56.242188 25.019531,52.21875 25,52.230469 18.539062,48.480469 18,48.171875 Z"
       id="path8" />
  </g>
</svg>
