<?xml version="1.0" encoding="UTF-8" standalone="no"?>
<svg
   version="1.1"
   viewBox="0 0 62 62"
   id="svg13"
   sodipodi:docname="pipal-logo.svg"
   width="62"
   height="62"
   inkscape:version="1.4.1 (unknown)"
   xmlns:inkscape="http://www.inkscape.org/namespaces/inkscape"
   xmlns:sodipodi="http://sodipodi.sourceforge.net/DTD/sodipodi-0.dtd"
   xmlns="http://www.w3.org/2000/svg"
   xmlns:svg="http://www.w3.org/2000/svg">
  <sodipodi:namedview
     id="namedview13"
     pagecolor="#ffffff"
     bordercolor="#000000"
     borderopacity="0.25"
     inkscape:showpageshadow="2"
     inkscape:pageopacity="0.0"
     inkscape:pagecheckerboard="0"
     inkscape:deskcolor="#d1d1d1"
     inkscape:zoom="8.4852814"
     inkscape:cx="33.35187"
     inkscape:cy="31.348401"
     inkscape:window-width="1920"
     inkscape:window-height="996"
     inkscape:window-x="0"
     inkscape:window-y="0"
     inkscape:window-maximized="1"
     inkscape:current-layer="svg13" />
  <defs
     id="defs6">
    <linearGradient
       id="b"
       x1="220.35001"
       x2="220.35001"
       y1="685.75"
       y2="780.27002"
       gradientTransform="matrix(1.3579,0,0,1.3579,-45.571,-694.77)"
       gradientUnits="userSpaceOnUse">
      <stop
         stop-color="#808080"
         offset="0"
         id="stop1" />
      <stop
         offset="1"
         id="stop2" />
    </linearGradient>
    <radialGradient
       id="a"
       cx="222.08"
       cy="700.17999"
       r="128.92999"
       gradientTransform="matrix(1.618887,-0.01884728,0.018271,1.5693872,-116.32987,-838.65777)"
       gradientUnits="userSpaceOnUse"
       fx="222.08"
       fy="700.17999">
      <stop
         stop-color="#b609ff"
         offset="0"
         id="stop3" />
      <stop
         stop-opacity=".082126"
         offset="1"
         id="stop4" />
    </radialGradient>
    <radialGradient
       id="c"
       cx="252.67999"
       cy="270.04001"
       r="216.92999"
       gradientTransform="matrix(1.2468,0,0,1.2468,-59.038,-80.685)"
       gradientUnits="userSpaceOnUse">
      <stop
         stop-color="#ad1fe9"
         offset="0"
         id="stop5" />
      <stop
         offset="1"
         id="stop6" />
    </radialGradient>
  </defs>
  <g
     id="g13">
    <g
       id="g7"
       transform="matrix(0.12444444,0,0,0.12444444,-0.85796144,-0.85777664)">
      <circle
         cx="256"
         cy="256"
         r="225"
         style="fill:url(#c);paint-order:normal"
         id="circle6" />
      <path
         d="M 480.79,250.15 A 225,225 0 0 1 256,471 225,225 0 0 1 31.21,251.85 a 225,225 0 0 0 -0.20703,4.1465 225,225 0 0 0 225,225 225,225 0 0 0 225,-225 225,225 0 0 0 -0.20703,-5.8535 z"
         opacity="0.5"
         style="paint-order:normal"
         id="path6" />
      <path
         d="m 371.4,447.3 c -3.9539,-1.0044 -9.0759,-2.5769 -11.382,-3.4946 -2.3065,-0.91765 -5.5016,-1.4044 -7.1002,-1.0818 -1.5986,0.32263 -3.6137,-1.9e-4 -4.4779,-0.7174 -0.86419,-0.71719 -2.3664,-0.99892 -3.3382,-0.62597 -0.97183,0.37293 -6.6535,-0.0518 -12.626,-0.94411 -5.9725,-0.89224 -11.869,-1.3581 -13.103,-1.0354 -1.2342,0.32275 -3.4282,-0.0471 -4.8757,-0.82174 -2.2313,-1.1941 -3.0756,-0.99176 -5.5465,1.3296 l -2.9147,2.7381 -10.361,-2.1535 c -6.4991,-1.3508 -16.424,-2.2335 -26.627,-2.3682 -16.45,-0.21722 -27.29,-1.8481 -44.423,-6.6838 -10.082,-2.8452 -31.693,-3.5308 -36.147,-1.1466 -4.2798,2.2905 -9.7306,3.4884 -11.088,2.4369 -3.0117,-2.3335 -7.515,-2.2037 -17.863,0.51485 -6.0424,1.5874 -12.882,2.8962 -15.199,2.9086 -5.5754,0.0298 -11.902,-3.461 -15.38,-8.4864 -2.5169,-3.6359 -2.7556,-5.0339 -2.2295,-13.058 0.63967,-9.7562 5.0441,-22.49 9.3724,-27.098 l 2.5042,-2.6657 -7.3146,-2.0524 c -9.1554,-2.5688 -14.594,-6.1942 -22.507,-15.002 -8.184,-9.1095 -8.8898,-12.829 -4.8548,-25.593 1.6799,-5.315 3.3643,-11.059 3.7433,-12.764 1.8604,-8.3709 13.196,-15.455 24.704,-15.439 9.5453,0.0133 22.24,2.9944 30.936,7.265 4.1646,2.0451 7.8584,3.432 8.2086,3.0819 1.4786,-1.4787 -4.9169,-9.9504 -9.1924,-12.177 -16.342,-8.5098 -17.839,-9.5374 -20.319,-13.949 -1.7874,-3.1802 -2.5372,-6.4954 -2.4627,-10.888 0.0588,-3.4735 -0.24593,-7.8013 -0.67749,-9.6177 -0.43158,-1.816 -0.23034,-3.9727 0.44727,-4.7927 0.67755,-0.81994 1.634,-3.6475 2.1254,-6.2835 0.49143,-2.636 1.7056,-5.3886 2.6982,-6.1171 1.0761,-0.78973 1.4854,-2.1567 1.0138,-3.3858 -0.47479,-1.2372 0.40548,-4.103 2.2017,-7.168 1.6459,-2.8086 2.9927,-5.875 2.9927,-6.814 0,-0.93909 1.2132,-2.2412 2.6959,-2.8936 2.508,-1.1036 2.6701,-1.823 2.3264,-10.324 -0.30473,-7.5383 0.0617,-9.8454 2.0924,-13.176 1.354,-2.2209 2.4637,-5.9399 2.4662,-8.2644 0.002,-2.3246 0.73249,-5.2901 1.6222,-6.5899 0.88976,-1.2999 1.9238,-4.321 2.2978,-6.7137 0.40313,-2.5788 2.9839,-7.3795 6.3377,-11.789 5.5628,-7.3147 5.7441,-7.4324 10.819,-7.0288 4.1255,0.3281 5.2724,-0.0111 5.7113,-1.6899 0.38992,-1.4911 1.7515,-2.1004 4.6934,-2.1004 2.4542,0 5.5093,-1.0738 7.4917,-2.6332 2.361,-1.8572 5.4984,-2.7818 10.646,-3.1373 4.0138,-0.27726 7.9719,-1.0454 8.7957,-1.7071 1.7323,-1.3915 1.9236,-5.1351 0.79407,-9.4721 -1.0807,-5.2132 -9.5595,-14.131 -9.7871,-20.764 -0.24803,-7.2232 5.5024,-3.7794 5.5024,-6.6181 l -0.59568,-11.89 c -0.57938,-11.564 -0.27317,-13.85 1.3123,-14.737 1.0316,-0.57735 1.8876,-1.9665 1.9021,-3.087 0.0145,-1.1205 1.0399,-4.2695 2.2788,-6.9978 1.6916,-3.7251 3.2821,-5.3003 6.3871,-6.325 2.3981,-0.79145 4.7012,-2.6081 5.4837,-4.3253 0.7419,-1.6284 2.0118,-2.9608 2.8219,-2.9608 0.81008,0 3.5175,-1.9966 6.0165,-4.4368 4.0645,-3.9688 4.5436,-4.1659 4.5436,-1.868 0,3.0732 1.9436,4.5474 3.9465,2.9935 0.79488,-0.61668 5.3867,-1.0063 10.204,-0.86593 7.4206,0.2163 9.0327,0.64643 10.552,2.8153 0.98622,1.408 2.535,2.56 3.4417,2.56 0.90672,0 1.9908,1.0783 2.4091,2.3963 0.41831,1.318 1.2859,2.3963 1.9281,2.3963 7.1064,0 13.939,24.74 10.833,39.223 -1.0708,4.9929 -2.1216,7.7952 0.44165,9.5224 3.7531,2.5291 2.3835,5.1389 -1.8196,14.35 -1.9873,4.3554 -3.5946,9.1112 -3.5946,10.557 0,1.4465 1.8094,4.7233 4.0209,7.2816 3.7986,4.3944 4.1345,4.5379 6.0764,2.596 2.7347,-2.7347 5.7613,-2.5989 7.5972,0.3408 0.89082,1.4265 2.7942,2.3963 4.7027,2.3963 1.7634,0 6.4766,0.8851 10.474,1.9669 5.7292,1.5506 8.6229,3.2624 13.67,8.0877 3.5216,3.3665 8.0212,8.9515 9.9989,12.411 1.978,3.4597 4.012,6.0336 4.52,5.7195 1.0673,-0.65965 3.8957,2.3397 5.9503,6.3097 1.4559,2.8133 2.0119,6.6717 3.4525,23.961 0.5473,6.5682 1.405,10.287 2.5332,10.983 0.96839,0.59752 2.0675,4.0742 2.5424,8.0422 0.56687,4.737 2.0755,8.9745 4.6806,13.146 4.4093,7.062 5.9792,12.739 6.0198,21.77 0.0656,14.577 -2.8978,19.152 -17.685,27.297 -5.741,3.1624 -9.0618,7.6649 -7.1001,9.6265 0.34974,0.34972 5.4019,-0.25867 11.227,-1.3519 14.625,-2.745 21.548,-2.6223 28.624,0.50742 9.7139,4.2969 12.891,8.21 17.468,21.515 2.0481,5.9531 2.1394,7.6179 0.87093,15.904 -1.0027,6.5501 -2.2485,10.24 -4.2631,12.626 -6.6321,7.8556 -14.044,14.754 -15.852,14.754 -1.0691,0 -3.0229,0.75592 -4.3419,1.6798 -1.319,0.92384 -4.6953,2.2983 -7.5027,3.0543 -2.8075,0.75598 -7.6584,2.8804 -10.78,4.7209 -3.1213,1.8405 -7.2789,3.9282 -9.2383,4.6392 l -3.5632,1.2928 4.7927,0.0897 c 2.8897,0.054 7.1331,-1.0978 10.687,-2.9008 4.2608,-2.1616 7.7476,-2.9758 12.581,-2.9378 8.768,0.0689 14.219,2.1298 22.475,8.4966 8.9718,6.919 12.743,14.751 12.5,25.959 -0.2233,10.297 -2.5724,14.305 -10.85,18.51 -7.5633,3.8423 -16.436,4.2314 -28.222,1.2374 z"
         opacity="0.3"
         stroke-width="1.1982"
         id="path7" />
    </g>
    <g
       transform="matrix(0.1098048,0,0,0.1098048,2.8899326,2.4268104)"
       id="g11">
      <path
         d="m 386.78,468.61 c -4.4811,-1.1383 -10.286,-2.9205 -12.9,-3.9605 -2.614,-1.04 -6.2351,-1.5917 -8.0469,-1.226 -1.8118,0.36565 -4.0955,-2e-4 -5.0749,-0.81305 -0.9794,-0.81282 -2.6819,-1.1321 -3.7833,-0.70942 -1.1014,0.42265 -7.5406,-0.0588 -14.309,-1.07 -6.7688,-1.0112 -13.451,-1.5392 -14.85,-1.1734 -1.3987,0.36578 -3.8853,-0.0534 -5.5258,-0.9313 -2.5288,-1.3533 -3.4856,-1.124 -6.286,1.5069 l -3.3033,3.1032 -11.742,-2.4406 c -7.3656,-1.5309 -18.614,-2.5313 -30.177,-2.684 -18.643,-0.24617 -30.928,-2.0945 -50.346,-7.5749 -11.426,-3.2246 -35.918,-4.0016 -40.966,-1.2995 -4.8504,2.5959 -11.028,3.9535 -12.566,2.7618 -3.4132,-2.6446 -8.5169,-2.4975 -20.245,0.5835 -6.848,1.799 -14.599,3.2824 -17.225,3.2964 -6.3188,0.0337 -13.489,-3.9224 -17.431,-9.6179 -2.8525,-4.1207 -3.123,-5.7051 -2.5267,-14.799 0.72495,-11.057 5.7166,-25.489 10.622,-30.711 l 2.8381,-3.0211 -8.2899,-2.326 c -10.376,-2.9113 -16.54,-7.0201 -25.508,-17.002 -9.2751,-10.324 -10.075,-14.539 -5.5021,-29.005 1.9039,-6.0236 3.8129,-12.533 4.2424,-14.466 2.1084,-9.487 14.955,-17.515 27.998,-17.497 10.818,0.015 25.205,3.3936 35.061,8.2336 4.7199,2.3178 8.9062,3.8896 9.303,3.4928 1.6758,-1.6758 -5.5725,-11.277 -10.418,-13.8 -18.521,-9.6444 -20.217,-10.809 -23.028,-15.809 -2.0257,-3.6042 -2.8755,-7.3614 -2.791,-12.34 0.0668,-3.9366 -0.27872,-8.8414 -0.76782,-10.9 -0.48913,-2.0581 -0.26103,-4.5024 0.5069,-5.4317 0.76789,-0.92927 1.8519,-4.1338 2.4088,-7.1213 0.55694,-2.9874 1.933,-6.1071 3.058,-6.9327 1.2196,-0.89503 1.6834,-2.4442 1.1489,-3.8372 -0.53808,-1.4022 0.45954,-4.6501 2.4952,-8.1237 1.8654,-3.1831 3.3917,-6.6583 3.3917,-7.7225 0,-1.0643 1.3749,-2.54 3.0553,-3.2794 2.8424,-1.2507 3.0261,-2.0661 2.6366,-11.701 -0.34537,-8.5434 0.0698,-11.158 2.3713,-14.933 1.5345,-2.517 2.7922,-6.7318 2.795,-9.3663 0.003,-2.6345 0.83015,-5.9954 1.8385,-7.4685 1.0084,-1.4732 2.1803,-4.8971 2.6042,-7.6088 0.45688,-2.9226 3.3817,-8.3634 7.1827,-13.361 6.3045,-8.29 6.5099,-8.4234 12.262,-7.9659 4.6755,0.37186 5.9753,-0.0122 6.4728,-1.9152 0.44192,-1.6899 1.985,-2.3805 5.3192,-2.3805 2.7814,0 6.2439,-1.217 8.4906,-2.9843 2.6758,-2.1048 6.2315,-3.1527 12.065,-3.5556 4.549,-0.31422 9.0348,-1.1848 9.9684,-1.9347 1.9633,-1.577 2.1801,-5.8198 0.89993,-10.735 -1.2248,-5.9083 -10.834,-16.015 -11.092,-23.532 -0.28111,-8.1862 6.236,-4.2833 6.236,-7.5005 l -0.6751,-13.475 c -0.65662,-13.106 -0.3096,-15.696 1.4873,-16.702 1.1692,-0.65432 2.1393,-2.2287 2.1557,-3.4986 0.0165,-1.2699 1.1786,-4.8387 2.5826,-7.9308 1.9171,-4.2218 3.7197,-6.007 7.2387,-7.1683 2.7178,-0.89698 5.328,-2.9558 6.2148,-4.902 0.84083,-1.8455 2.28,-3.3555 3.1981,-3.3555 0.91809,0 3.9865,-2.2628 6.8187,-5.0283 4.6064,-4.498 5.1494,-4.7213 5.1494,-2.117 0,3.4829 2.2027,5.1537 4.4727,3.3926 0.90085,-0.6989 6.1049,-1.1405 11.565,-0.98138 8.41,0.24514 10.237,0.73261 11.959,3.1907 1.1177,1.5957 2.873,2.9013 3.9006,2.9013 1.0276,0 2.2562,1.2221 2.7303,2.7158 0.47408,1.4937 1.4574,2.7158 2.1852,2.7158 8.0538,0 15.797,28.038 12.277,44.453 -1.2135,5.6586 -2.4045,8.8345 0.50054,10.792 4.2535,2.8663 2.7013,5.824 -2.0622,16.263 -2.2523,4.9361 -4.0738,10.326 -4.0738,11.965 0,1.6394 2.0507,5.353 4.557,8.2524 4.3051,4.9803 4.6857,5.1429 6.8866,2.9421 3.0993,-3.0993 6.5294,-2.9454 8.6101,0.38624 1.0096,1.6167 3.1667,2.7158 5.3297,2.7158 1.9985,0 7.3401,1.0031 11.87,2.2291 6.4931,1.7573 9.7726,3.6974 15.493,9.166 3.9911,3.8153 9.0907,10.145 11.332,14.066 2.2417,3.921 4.5469,6.838 5.1226,6.4821 1.2096,-0.74759 4.4151,2.6516 6.7436,7.151 1.65,3.1884 2.2801,7.5612 3.9128,27.156 0.62026,7.4439 1.5923,11.658 2.871,12.447 1.0975,0.67717 2.3431,4.6174 2.8813,9.1145 0.64246,5.3685 2.3522,10.171 5.3047,14.899 4.9972,8.0036 6.7764,14.438 6.8224,24.672 0.0743,16.521 -3.2842,21.705 -20.043,30.936 -6.5064,3.5841 -10.27,8.6868 -8.0467,10.91 0.39637,0.39635 6.1221,-0.29314 12.724,-1.5322 16.575,-3.111 24.421,-2.9719 32.44,0.57508 11.009,4.8698 14.61,9.3046 19.797,24.383 2.3212,6.7468 2.4246,8.6336 0.98704,18.024 -1.1364,7.4234 -2.5483,11.605 -4.8315,14.309 -7.5163,8.903 -15.917,16.721 -17.966,16.721 -1.2116,0 -3.4259,0.8567 -4.9208,1.9038 -1.4949,1.047 -5.3213,2.6047 -8.503,3.4615 -3.1818,0.85675 -8.6795,3.2644 -12.217,5.3503 -3.5375,2.0859 -8.2494,4.4519 -10.47,5.2578 l -4.0383,1.4652 5.4317,0.10163 c 3.275,0.0612 8.0841,-1.2442 12.112,-3.2876 4.8288,-2.4498 8.7805,-3.3726 14.258,-3.3295 9.937,0.0782 16.115,2.4138 25.472,9.6294 10.168,7.8415 14.442,16.718 14.167,29.42 -0.25306,11.67 -2.9154,16.212 -12.297,20.978 -8.5717,4.3546 -18.627,4.7956 -31.985,1.4024 z"
         stroke-width="1.3579"
         id="path8" />
      <path
         d="m 386.78,468.61 c -4.4811,-1.1383 -10.286,-2.9205 -12.9,-3.9605 -2.614,-1.04 -6.2351,-1.5917 -8.0469,-1.226 -1.8118,0.36565 -4.0955,-2e-4 -5.0749,-0.81305 -0.9794,-0.81282 -2.6819,-1.1321 -3.7833,-0.70942 -1.1014,0.42265 -7.5406,-0.0588 -14.309,-1.07 -6.7688,-1.0112 -13.451,-1.5392 -14.85,-1.1734 -1.3987,0.36578 -3.8853,-0.0534 -5.5258,-0.9313 -2.5288,-1.3533 -3.4856,-1.124 -6.286,1.5069 l -3.3033,3.1032 -11.742,-2.4406 c -7.3656,-1.5309 -18.614,-2.5313 -30.177,-2.684 -18.643,-0.24617 -30.928,-2.0945 -50.346,-7.5749 -11.426,-3.2246 -35.918,-4.0016 -40.966,-1.2995 -4.8504,2.5959 -11.028,3.9535 -12.566,2.7618 -3.4132,-2.6446 -8.5169,-2.4975 -20.245,0.5835 -6.848,1.799 -14.599,3.2824 -17.225,3.2964 -6.3188,0.0337 -13.489,-3.9224 -17.431,-9.6179 -2.8525,-4.1207 -3.123,-5.7051 -2.5267,-14.799 0.72495,-11.057 5.7166,-25.489 10.622,-30.711 l 2.8381,-3.0211 -8.2899,-2.326 c -10.376,-2.9113 -16.54,-7.0201 -25.508,-17.002 -9.2751,-10.324 -10.075,-14.539 -5.5021,-29.005 1.9039,-6.0236 3.8129,-12.533 4.2424,-14.466 2.1084,-9.487 14.955,-17.515 27.998,-17.497 10.818,0.015 25.205,3.3936 35.061,8.2336 4.7199,2.3178 8.9062,3.8896 9.303,3.4928 1.6758,-1.6758 -5.5725,-11.277 -10.418,-13.8 -18.521,-9.6444 -20.217,-10.809 -23.028,-15.809 -2.0257,-3.6042 -2.8755,-7.3614 -2.791,-12.34 0.0668,-3.9366 -0.27872,-8.8414 -0.76782,-10.9 -0.48913,-2.0581 -0.26103,-4.5024 0.5069,-5.4317 0.76789,-0.92927 1.8519,-4.1338 2.4088,-7.1213 0.55694,-2.9874 1.933,-6.1071 3.058,-6.9327 1.2196,-0.89503 1.6834,-2.4442 1.1489,-3.8372 -0.53808,-1.4022 0.45954,-4.6501 2.4952,-8.1237 1.8654,-3.1831 3.3917,-6.6583 3.3917,-7.7225 0,-1.0643 1.3749,-2.54 3.0553,-3.2794 2.8424,-1.2507 3.0261,-2.0661 2.6366,-11.701 -0.34537,-8.5434 0.0698,-11.158 2.3713,-14.933 1.5345,-2.517 2.7922,-6.7318 2.795,-9.3663 0.003,-2.6345 0.83015,-5.9954 1.8385,-7.4685 1.0084,-1.4732 2.1803,-4.8971 2.6042,-7.6088 0.45688,-2.9226 3.3817,-8.3634 7.1827,-13.361 6.3045,-8.29 6.5099,-8.4234 12.262,-7.9659 4.6755,0.37186 5.9753,-0.0122 6.4728,-1.9152 0.44192,-1.6899 1.985,-2.3805 5.3192,-2.3805 2.7814,0 6.2439,-1.217 8.4906,-2.9843 2.6758,-2.1048 6.2315,-3.1527 12.065,-3.5556 4.549,-0.31422 9.0348,-1.1848 9.9684,-1.9347 1.9633,-1.577 2.1801,-5.8198 0.89993,-10.735 -1.2248,-5.9083 -10.834,-16.015 -11.092,-23.532 -0.28111,-8.1862 6.236,-4.2833 6.236,-7.5005 l -0.6751,-13.475 c -0.65662,-13.106 -0.3096,-15.696 1.4873,-16.702 1.1692,-0.65432 2.1393,-2.2287 2.1557,-3.4986 0.0165,-1.2699 1.1786,-4.8387 2.5826,-7.9308 1.9171,-4.2218 3.7197,-6.007 7.2387,-7.1683 2.7178,-0.89698 5.328,-2.9558 6.2148,-4.902 0.84083,-1.8455 2.28,-3.3555 3.1981,-3.3555 0.91809,0 3.9865,-2.2628 6.8187,-5.0283 4.6064,-4.498 5.1494,-4.7213 5.1494,-2.117 0,3.4829 2.2027,5.1537 4.4727,3.3926 0.90085,-0.6989 6.1049,-1.1405 11.565,-0.98138 8.41,0.24514 10.237,0.73261 11.959,3.1907 1.1177,1.5957 2.873,2.9013 3.9006,2.9013 1.0276,0 2.2562,1.2221 2.7303,2.7158 0.47408,1.4937 1.4574,2.7158 2.1852,2.7158 8.0538,0 15.797,28.038 12.277,44.453 -1.2135,5.6586 -2.4045,8.8345 0.50054,10.792 4.2535,2.8663 2.7013,5.824 -2.0622,16.263 -2.2523,4.9361 -4.0738,10.326 -4.0738,11.965 0,1.6394 2.0507,5.353 4.557,8.2524 4.3051,4.9803 4.6857,5.1429 6.8866,2.9421 3.0993,-3.0993 6.5294,-2.9454 8.6101,0.38624 1.0096,1.6167 3.1667,2.7158 5.3297,2.7158 1.9985,0 7.3401,1.0031 11.87,2.2291 6.4931,1.7573 9.7726,3.6974 15.493,9.166 3.9911,3.8153 9.0907,10.145 11.332,14.066 2.2417,3.921 4.5469,6.838 5.1226,6.4821 1.2096,-0.74759 4.4151,2.6516 6.7436,7.151 1.65,3.1884 2.2801,7.5612 3.9128,27.156 0.62026,7.4439 1.5923,11.658 2.871,12.447 1.0975,0.67717 2.3431,4.6174 2.8813,9.1145 0.64246,5.3685 2.3522,10.171 5.3047,14.899 4.9972,8.0036 6.7764,14.438 6.8224,24.672 0.0743,16.521 -3.2842,21.705 -20.043,30.936 -6.5064,3.5841 -10.27,8.6868 -8.0467,10.91 0.39637,0.39635 6.1221,-0.29314 12.724,-1.5322 16.575,-3.111 24.421,-2.9719 32.44,0.57508 11.009,4.8698 14.61,9.3046 19.797,24.383 2.3212,6.7468 2.4246,8.6336 0.98704,18.024 -1.1364,7.4234 -2.5483,11.605 -4.8315,14.309 -7.5163,8.903 -15.917,16.721 -17.966,16.721 -1.2116,0 -3.4259,0.8567 -4.9208,1.9038 -1.4949,1.047 -5.3213,2.6047 -8.503,3.4615 -3.1818,0.85675 -8.6795,3.2644 -12.217,5.3503 -3.5375,2.0859 -8.2494,4.4519 -10.47,5.2578 l -4.0383,1.4652 5.4317,0.10163 c 3.275,0.0612 8.0841,-1.2442 12.112,-3.2876 4.8288,-2.4498 8.7805,-3.3726 14.258,-3.3295 9.937,0.0782 16.115,2.4138 25.472,9.6294 10.168,7.8415 14.442,16.718 14.167,29.42 -0.25306,11.67 -2.9154,16.212 -12.297,20.978 -8.5717,4.3546 -18.627,4.7956 -31.985,1.4024 z"
         stroke-width="1.3579"
         id="path9"
         style="fill:url(#a)" />
      <path
         d="m 162.9,244.02 h 186.21 c 2.8224,0 5.2394,2.2759 5.0946,5.0945 l -5.4317,105.69 c -0.14487,2.8186 -2.2722,5.0946 -5.0946,5.0946 h -175.35 c -2.8224,0 -4.9497,-2.2759 -5.0946,-5.0946 l -5.4317,-105.69 c -0.14486,-2.8187 2.2722,-5.0945 5.0945,-5.0945 z"
         style="fill:url(#b);paint-order:normal"
         id="path10" />
      <path
         d="m 162.9,244.02 c -2.8224,0 -5.2391,2.2756 -5.0942,5.0942 l 0.22849,4.4326 c 0.65543,-1.9942 2.6304,-3.4233 4.8658,-3.4233 h 186.21 c 2.2361,0 4.213,1.43 4.8677,3.4253 l 0.22848,-4.4346 c 0.14486,-2.8187 -2.2738,-5.0942 -5.0962,-5.0942 z"
         fill="#ffffff"
         opacity="0.2"
         style="paint-order:normal"
         id="path11" />
    </g>
    <path
       d="m 29.562484,6.9473794 c -0.07097,0.0091 -0.214331,0.138432 -0.498848,0.416254 -0.310987,0.303669 -0.647908,0.552197 -0.748708,0.552197 -0.100811,0 -0.258819,0.165686 -0.351145,0.368331 -0.09737,0.213696 -0.383973,0.439836 -0.682403,0.538322 -0.3864,0.127518 -0.584329,0.323717 -0.794827,0.787298 -0.154162,0.339521 -0.281829,0.7313466 -0.283634,0.8707866 -0.0018,0.13944 -0.108225,0.312157 -0.236606,0.383998 -0.169444,0.09486 -0.216409,0.365382 -0.18205,1.338027 0.0256,-0.258745 0.08441,-0.357367 0.18205,-0.412036 0.128377,-0.07185 0.234814,-0.244558 0.236606,-0.383998 0.0018,-0.13944 0.129472,-0.531253 0.283634,-0.870787 0.21051,-0.463568 0.408427,-0.6597796 0.794827,-0.7872976 0.29843,-0.09849 0.585025,-0.324626 0.682403,-0.538322 0.09233,-0.202645 0.250333,-0.368331 0.351145,-0.368331 0.100809,0 0.437721,-0.248528 0.748708,-0.552197 0.505804,-0.493895 0.56545,-0.518361 0.56545,-0.232387 0,0.382442 0.241746,0.565923 0.491008,0.372549 0.09892,-0.07674 0.67032,-0.125378 1.269831,-0.107907 0.923453,0.02692 1.124182,0.08064 1.313263,0.350547 0.122728,0.175218 0.315479,0.318591 0.428313,0.318591 0.112833,0 0.247843,0.134089 0.299911,0.298094 0.05206,0.164018 0.16001,0.298094 0.239929,0.298094 0.664993,0 1.310275,1.7407286 1.425386,3.3707016 0.133355,-1.812035 -0.630585,-4.2966926 -1.425386,-4.2966926 -0.07992,0 -0.187874,-0.134089 -0.239929,-0.298094 -0.05206,-0.164018 -0.187065,-0.298094 -0.299911,-0.298094 -0.112847,0 -0.305586,-0.143385 -0.428313,-0.318591 -0.189081,-0.269907 -0.38981,-0.32363 -1.313263,-0.350547 -0.599548,-0.01747 -1.170947,0.03116 -1.269831,0.107907 -0.249249,0.193374 -0.491008,0.0099 -0.491008,-0.37255 0,-0.125104 -0.01142,-0.19091 -0.06661,-0.183866 z m -3.726365,7.3394836 c -0.149881,0.14794 -0.67027,-0.05526 -0.643826,0.714958 0.005,0.145526 0.04311,0.300235 0.101275,0.45935 0.190922,-0.261657 0.583532,-0.09505 0.583532,-0.35687 z m 9.144054,0.358686 c -0.11412,0.505008 -0.191072,0.815808 0.09404,1.007926 0.04459,0.03005 0.08162,0.06039 0.114839,0.09133 0.224485,-0.550554 0.224522,-0.788592 -0.114839,-1.017271 -0.0376,-0.02533 -0.06821,-0.0527 -0.09404,-0.08198 z m -0.441268,3.565707 c -0.08475,0.246997 -0.138345,0.449257 -0.138345,0.541645 0,0.180008 0.225145,0.587987 0.500354,0.906353 0.472715,0.546859 0.514578,0.564779 0.756249,0.32312 0.340318,-0.340318 0.717074,-0.32363 0.945541,0.0422 0.110859,0.17752 0.347536,0.298406 0.585051,0.298406 0.219445,0 0.805914,0.110128 1.303306,0.244745 0.71298,0.192963 1.073048,0.40595 1.701156,1.006419 0.438231,0.41893 0.998443,1.113902 1.244569,1.54448 0.246151,0.430541 0.499234,0.750724 0.562439,0.711636 0.132832,-0.08209 0.484612,0.291436 0.74027,0.785481 0.181179,0.350099 0.250544,0.829994 0.429819,2.981564 0.0681,0.817376 0.174869,1.280285 0.31528,1.366898 0.120512,0.07436 0.25709,0.506899 0.316188,1.000695 0.07054,0.589481 0.258447,1.116926 0.582637,1.636071 0.478949,0.767101 0.688314,1.403236 0.737258,2.299733 0.0082,-0.161392 0.01259,-0.330972 0.01175,-0.516618 -0.0051,-1.123734 -0.200293,-1.830329 -0.749019,-2.709156 -0.32419,-0.519157 -0.512089,-1.04659 -0.582636,-1.636071 -0.0591,-0.493808 -0.195677,-0.926339 -0.316189,-1.000695 -0.14041,-0.08663 -0.247171,-0.549547 -0.31528,-1.366898 -0.179274,-2.151644 -0.248341,-2.631502 -0.42952,-2.981564 -0.255683,-0.494057 -0.607749,-0.867577 -0.740568,-0.785494 -0.06322,0.03908 -0.316288,-0.281095 -0.56244,-0.711635 -0.246101,-0.430541 -0.8063,-1.125513 -1.244568,-1.54448 -0.628121,-0.600482 -0.988214,-0.813469 -1.701156,-1.00642 -0.497404,-0.134624 -1.083874,-0.244745 -1.303307,-0.244745 -0.237502,0 -0.474183,-0.120877 -0.58505,-0.298392 -0.228468,-0.36583 -0.605223,-0.382518 -0.945542,-0.0422 -0.241671,0.241658 -0.283534,0.223738 -0.756249,-0.32312 -0.142488,-0.164839 -0.270641,-0.353298 -0.361996,-0.522045 z m -8.108924,0.386413 c -0.02973,0.06915 -0.06833,0.126423 -0.118454,0.16668 -0.102514,0.08234 -0.595243,0.177993 -1.094738,0.212502 -0.64054,0.04424 -1.030898,0.159513 -1.324711,0.390631 -0.246699,0.194059 -0.626864,0.327637 -0.932276,0.327637 -0.366115,0 -0.535621,0.07577 -0.584142,0.261321 -0.05463,0.208905 -0.197344,0.251216 -0.710739,0.210386 -0.631606,-0.05024 -0.654155,-0.03558 -1.346365,0.874707 -0.417362,0.548763 -0.738329,1.146072 -0.788505,1.466952 -0.04655,0.297758 -0.175317,0.673754 -0.286048,0.83552 -0.11072,0.161752 -0.201637,0.530867 -0.201948,0.820151 -2.49e-4,0.289283 -0.138345,0.752042 -0.306843,1.028421 -0.252709,0.414512 -0.298343,0.701593 -0.260425,1.63968 0.0013,0.03276 8.71e-4,0.04683 0.0021,0.07776 0.02828,-0.332901 0.10463,-0.539429 0.258309,-0.791517 0.168498,-0.276378 0.306532,-0.73915 0.306843,-1.028433 2.49e-4,-0.289284 0.09123,-0.658399 0.201948,-0.820151 0.110727,-0.161766 0.239494,-0.537762 0.286048,-0.83552 0.05017,-0.320918 0.371131,-0.918226 0.788505,-1.466952 0.69226,-0.910286 0.714809,-0.924945 1.346365,-0.874707 0.513395,0.04083 0.656108,-0.0015 0.710739,-0.210386 0.04852,-0.185559 0.218027,-0.261333 0.584142,-0.261333 0.305412,0 0.685577,-0.133579 0.932276,-0.327638 0.293813,-0.231118 0.684171,-0.346391 1.324711,-0.390631 0.499495,-0.0345 0.992221,-0.130156 1.094738,-0.212501 0.203902,-0.163781 0.234491,-0.590315 0.118455,-1.092622 z m -7.955858,9.141564 c -0.03112,0.231454 -0.112072,0.299924 -0.288749,0.377676 -0.184513,0.08119 -0.335776,0.243327 -0.335776,0.360192 0,0.116855 -0.167415,0.498363 -0.37225,0.847878 -0.223527,0.381422 -0.333076,0.738217 -0.27399,0.892192 0.05869,0.152954 0.0076,0.323095 -0.126286,0.421381 -0.12353,0.09065 -0.274624,0.433042 -0.335776,0.761077 -0.06115,0.328036 -0.180021,0.680139 -0.264345,0.782171 -0.08432,0.102041 -0.109471,0.37021 -0.05576,0.596201 0.01882,0.0792 0.03455,0.20389 0.04823,0.341799 0.0027,-0.0037 0.0048,-0.0087 0.0075,-0.01206 0.08432,-0.102037 0.203193,-0.454122 0.264345,-0.78217 0.06115,-0.328036 0.21224,-0.67042 0.335776,-0.761078 0.133914,-0.09828 0.184986,-0.268414 0.126286,-0.421381 -0.05908,-0.153963 0.05046,-0.51077 0.273989,-0.892192 0.204836,-0.349515 0.372251,-0.731024 0.372251,-0.847877 0,-0.116864 0.151262,-0.279005 0.335776,-0.360192 0.312106,-0.137337 0.33213,-0.226676 0.289358,-1.28464 -2.49e-4,-0.0069 -2.49e-4,-0.01217 -7.47e-4,-0.01899 z m -2.860978,9.554222 c -1.432231,-0.002 -2.84256,0.879499 -3.074151,1.921174 -0.04716,0.212252 -0.256928,0.927036 -0.465982,1.588408 -0.268215,0.848475 -0.365718,1.375236 -0.245355,1.855218 0.04914,-0.266137 0.13104,-0.567641 0.245355,-0.929264 0.209054,-0.661422 0.41883,-1.376231 0.465982,-1.588409 0.231516,-1.041724 1.64192,-1.923164 3.074151,-1.921173 1.187872,0.0017 2.767769,0.372786 3.849938,0.904238 0.518261,0.254502 0.977922,0.426969 1.02149,0.383401 0.134113,-0.134114 -0.253058,-0.728759 -0.678484,-1.149593 -0.108869,-0.04832 -0.22354,-0.101081 -0.343006,-0.159749 -1.082231,-0.531453 -2.662116,-0.902596 -3.849938,-0.904238 z m 29.964978,0.274587 c -0.552944,-0.0098 -1.223102,0.07184 -2.133102,0.242642 -0.335789,0.06302 -0.644175,0.111294 -0.890077,0.142563 -0.469852,0.35443 -0.703845,0.755005 -0.507285,0.951565 0.04353,0.04352 0.672435,-0.03214 1.397386,-0.168187 1.82,-0.3416 2.68128,-0.326181 3.561849,0.0633 1.208841,0.534726 1.604214,1.02149 2.173796,2.677174 0.0831,0.241534 0.137897,0.425289 0.171808,0.600419 0.08183,-0.657402 0.03996,-0.910833 -0.171808,-1.526311 -0.569557,-1.655733 -0.964967,-2.142435 -2.173796,-2.677173 -0.440259,-0.194743 -0.875753,-0.296128 -1.428746,-0.305934 z m -29.804445,9.295875 c -0.426433,0.734758 -0.79953,1.964605 -0.864154,2.950205 -0.0322,0.491083 -0.04076,0.781797 -0.0045,1.005212 0.0018,-0.02787 0.0026,-0.05002 0.0045,-0.07927 0.0796,-1.214105 0.627536,-2.79888 1.166169,-3.372196 l 0.311658,-0.331557 z m 30.3408,0.282726 c -0.202558,0.106005 -0.522654,0.230284 -0.803575,0.305934 -0.349378,0.09408 -0.953157,0.358412 -1.341635,0.587452 -0.388429,0.22904 -0.905757,0.489017 -1.149593,0.57751 l -0.443383,0.160658 0.596499,0.01116 c 0.359607,0.0067 0.887563,-0.136416 1.329814,-0.360789 0.530232,-0.268999 0.964096,-0.370347 1.565511,-0.365618 1.091129,0.0086 1.769351,0.265054 2.796764,1.057367 0.960686,0.740868 1.441067,1.566507 1.537511,2.670827 0.0088,-0.115217 0.01525,-0.235897 0.01809,-0.366514 0.0302,-1.394773 -0.439102,-2.369173 -1.555556,-3.230204 -0.946599,-0.729967 -1.600728,-1.002226 -2.550613,-1.047711 z"
       fill="#ffffff"
       opacity="0.1"
       stroke-width="0.149109"
       id="path12" />
    <path
       d="M 30.999817,3.0000014 A 28,28 0 0 0 2.9998166,31.000001 28,28 0 0 0 3.0255766,31.728437 28,28 0 0 1 30.999443,4.2448814 28,28 0 0 1 58.97331,31.516881 a 28,28 0 0 0 0.02576,-0.516009 28,28 0 0 0 -28,-27.9999996 z"
       fill="#ffffff"
       opacity="0.1"
       style="stroke-width:0.124444;paint-order:normal"
       id="path13" />
  </g>
</svg>
