<?xml version="1.0" encoding="UTF-8" standalone="no"?>
<svg
   width="62"
   height="62"
   version="1.1"
   id="svg4"
   sodipodi:docname="plexamp.svg"
   inkscape:version="1.4 (unknown)"
   xmlns:inkscape="http://www.inkscape.org/namespaces/inkscape"
   xmlns:sodipodi="http://sodipodi.sourceforge.net/DTD/sodipodi-0.dtd"
   xmlns:xlink="http://www.w3.org/1999/xlink"
   xmlns="http://www.w3.org/2000/svg"
   xmlns:svg="http://www.w3.org/2000/svg">
  <defs
     id="defs4">
    <linearGradient
       id="linearGradient4"
       inkscape:collect="always">
      <stop
         style="stop-color:#2d3d53;stop-opacity:1;"
         offset="0"
         id="stop4" />
      <stop
         style="stop-color:#374762;stop-opacity:1;"
         offset="1"
         id="stop5" />
    </linearGradient>
    <linearGradient
       inkscape:collect="always"
       xlink:href="#linearGradient4"
       id="linearGradient5"
       x1="33.428738"
       y1="61"
       x2="33.093723"
       y2="5"
       gradientUnits="userSpaceOnUse"
       gradientTransform="matrix(0.98214286,0,0,0.98245614,-0.42857152,-0.92982455)" />
  </defs>
  <sodipodi:namedview
     id="namedview4"
     pagecolor="#ffffff"
     bordercolor="#000000"
     borderopacity="0.25"
     inkscape:showpageshadow="2"
     inkscape:pageopacity="0.0"
     inkscape:pagecheckerboard="0"
     inkscape:deskcolor="#d1d1d1"
     inkscape:zoom="12.109375"
     inkscape:cx="32"
     inkscape:cy="38.606452"
     inkscape:window-width="1920"
     inkscape:window-height="998"
     inkscape:window-x="0"
     inkscape:window-y="0"
     inkscape:window-maximized="1"
     inkscape:current-layer="svg4" />
  <rect
     style="opacity:0.2;stroke-width:0.9823"
     width="55"
     height="55.017544"
     x="3.5"
     y="3.9824562"
     rx="6.875"
     ry="6.877193"
     id="rect1" />
  <rect
     style="fill:url(#linearGradient5);stroke-width:0.9823"
     width="55"
     height="55.017544"
     x="3.5"
     y="3"
     rx="6.875"
     ry="6.877193"
     id="rect2" />
  <path
     style="opacity:0.1;fill:#ffffff;stroke-width:0.9823"
     d="M 10.375,3 C 6.5662499,3 3.4999999,6.0672281 3.4999999,9.877193 v 0.982456 c 0,-3.8099648 3.06625,-6.8771928 6.8750001,-6.8771928 h 41.25 c 3.80875,0 6.875,3.067228 6.875,6.8771928 V 9.877193 C 58.5,6.0672281 55.43375,3 51.625,3 Z"
     id="path4" />
  <g
     id="g1"
     transform="translate(-1,-47.999999)">
    <path
       style="opacity:0.2;fill:none;stroke:#000000;stroke-width:1.52308"
       d="m 12,78.793799 h 20.839341 l -9.87988,-15.001245 h 3.503602 l 10.720721,15.722954 -10.825826,15.72295 h 3.573574 L 40.547147,79.515508 30.036637,63.792554 h 3.468468 l 10.405406,15.722954 -10.405406,15.72295 h 3.363363 L 46.924,80.288765 H 52"
       id="path2" />
    <path
       style="fill:none;stroke:#ffb000;stroke-width:1.52308;stroke-opacity:1"
       d="M 12,77.762783 H 32.839341 L 22.959461,62.76154 h 3.503602 L 37.183784,78.48449 26.357958,94.207443 h 3.573574 L 40.547147,78.48449 30.036637,62.76154 h 3.468468 L 43.910511,78.48449 33.505105,94.207443 h 3.363363 L 46.924,79.257749 H 52"
       id="path3" />
  </g>
</svg>
