<?xml version="1.0" encoding="UTF-8" standalone="no"?>
<svg
   width="62"
   height="62"
   version="1.1"
   id="svg15"
   sodipodi:docname="pm.mirko.Atoms.svg"
   inkscape:version="1.4 (unknown)"
   xmlns:inkscape="http://www.inkscape.org/namespaces/inkscape"
   xmlns:sodipodi="http://sodipodi.sourceforge.net/DTD/sodipodi-0.dtd"
   xmlns="http://www.w3.org/2000/svg"
   xmlns:svg="http://www.w3.org/2000/svg">
  <defs
     id="defs15" />
  <sodipodi:namedview
     id="namedview15"
     pagecolor="#ffffff"
     bordercolor="#000000"
     borderopacity="0.25"
     inkscape:showpageshadow="2"
     inkscape:pageopacity="0.0"
     inkscape:pagecheckerboard="0"
     inkscape:deskcolor="#d1d1d1"
     inkscape:zoom="12.109375"
     inkscape:cx="31.95871"
     inkscape:cy="32"
     inkscape:window-width="1920"
     inkscape:window-height="998"
     inkscape:window-x="0"
     inkscape:window-y="0"
     inkscape:window-maximized="1"
     inkscape:current-layer="svg15" />
  <g
     id="g15"
     transform="matrix(0.98214286,0,0,0.98245614,-0.42857152,-0.92982455)">
    <circle
       style="opacity:0.2"
       cx="32"
       cy="33"
       r="28"
       id="circle1" />
    <circle
       style="fill:#374762;fill-opacity:1"
       cx="32"
       cy="32"
       r="28"
       id="circle2" />
    <path
       style="opacity:0.1;fill:#ffffff"
       d="M 32,4 A 28,28 0 0 0 4,32 28,28 0 0 0 4.0215,32.586 28,28 0 0 1 32,5 28,28 0 0 1 59.979,32.414 28,28 0 0 0 60,32 28,28 0 0 0 32,4 Z"
       id="path2" />
    <circle
       style="fill:#e580ff"
       cx="32"
       cy="20"
       r="8"
       id="circle3" />
    <path
       style="opacity:0.1;fill:#ffffff"
       d="m 32.504606,12.016684 a 8,8 0 0 0 -5.353516,1.611327 8,8 0 0 0 -3.138672,6.808594 8,8 0 0 1 3.138672,-5.808593 8,8 0 0 1 11.208985,1.533203 8,8 0 0 1 1.611328,4.322265 8,8 0 0 0 -1.611329,-5.322265 8,8 0 0 0 -5.855468,-3.144531 z"
       id="path3" />
    <circle
       style="opacity:0.1"
       cx="56.784"
       cy="2.934"
       r="8"
       transform="rotate(52.792847)"
       id="circle4" />
    <circle
       style="fill:#ff9955"
       cx="55.987"
       cy="2.3299999"
       r="8"
       transform="rotate(52.792847)"
       id="circle5" />
    <circle
       style="opacity:0.1"
       cx="33.598"
       cy="0.398"
       r="8"
       transform="rotate(52.792847)"
       id="circle6" />
    <circle
       style="fill:#d38d5f"
       cx="32.801998"
       cy="-0.207"
       r="8"
       transform="rotate(52.792847)"
       id="circle7" />
    <path
       style="opacity:0.2;fill:#ffffff"
       d="m 20.504606,18.016684 a 8,8 0 0 0 -5.353516,1.611328 8,8 0 0 0 -3.138672,6.808594 8,8 0 0 1 3.138672,-5.808593 8,8 0 0 1 11.208985,1.533203 8,8 0 0 1 1.611328,4.322265 8,8 0 0 0 -1.611329,-5.322265 8,8 0 0 0 -5.855468,-3.144532 z"
       id="path7" />
    <circle
       style="opacity:0.1"
       cx="42"
       cy="41"
       r="8"
       id="circle8" />
    <circle
       style="fill:#8d5fd3"
       cx="42"
       cy="40"
       r="8"
       id="circle9" />
    <path
       style="opacity:0.1;fill:#ffffff"
       d="m 42.504606,32.016684 a 8,8 0 0 0 -5.353516,1.611328 8,8 0 0 0 -3.138672,6.808593 8,8 0 0 1 3.138672,-5.808593 8,8 0 0 1 11.208985,1.533203 8,8 0 0 1 1.611328,4.322265 8,8 0 0 0 -1.611329,-5.322265 8,8 0 0 0 -5.855468,-3.144531 z"
       id="path9" />
    <circle
       style="opacity:0.1"
       cx="46.902"
       cy="-17.124001"
       r="8"
       transform="rotate(52.792847)"
       id="circle10" />
    <circle
       style="fill:#ff7f2a"
       cx="46.105"
       cy="-17.729"
       r="8"
       transform="rotate(52.792847)"
       id="circle11" />
    <path
       style="opacity:0.2;fill:#ffffff"
       d="m 42.504606,18.016684 a 8,8 0 0 0 -5.353516,1.611328 8,8 0 0 0 -3.138672,6.808594 8,8 0 0 1 3.138672,-5.808593 8,8 0 0 1 11.208985,1.533203 8,8 0 0 1 1.611328,4.322265 8,8 0 0 0 -1.611329,-5.322265 8,8 0 0 0 -5.855468,-3.144532 z"
       id="path11" />
    <circle
       style="opacity:0.1"
       cx="20"
       cy="41"
       r="8"
       id="circle12" />
    <circle
       style="fill:#9182d7"
       cx="20"
       cy="40"
       r="8"
       id="circle13" />
    <path
       style="opacity:0.1;fill:#ffffff"
       d="m 20.504606,32.016684 a 8,8 0 0 0 -5.353516,1.611327 8,8 0 0 0 -3.138672,6.808594 8,8 0 0 1 3.138672,-5.808593 8,8 0 0 1 11.208985,1.533203 8,8 0 0 1 1.611328,4.322265 8,8 0 0 0 -1.611329,-5.322265 8,8 0 0 0 -5.855468,-3.144531 z"
       id="path13" />
    <circle
       style="opacity:0.1"
       cx="45.632999"
       cy="-5.5310001"
       r="8"
       transform="rotate(52.792847)"
       id="circle14" />
    <circle
       style="fill:#ffcc00"
       cx="44.837002"
       cy="-6.1360002"
       r="8"
       transform="rotate(52.792847)"
       id="circle15" />
    <path
       style="opacity:0.2;fill:#ffffff"
       d="m 32.515625,24.017578 a 8,8 0 0 0 -5.353516,1.611328 8,8 0 0 0 -3.138672,6.808594 8,8 0 0 1 3.138673,-5.808593 8,8 0 0 1 11.208984,1.533203 8,8 0 0 1 1.611328,4.322265 8,8 0 0 0 -1.611329,-5.322266 8,8 0 0 0 -5.855468,-3.144531 z"
       id="path15" />
  </g>
</svg>
