<?xml version="1.0" encoding="UTF-8" standalone="no"?>
<!-- Created with Inkscape (http://www.inkscape.org/) -->

<svg
   width="62"
   height="62"
   viewBox="0 0 62 62"
   version="1.1"
   id="svg1"
   inkscape:version="1.4 (unknown)"
   sodipodi:docname="pop-shop.svg"
   xmlns:inkscape="http://www.inkscape.org/namespaces/inkscape"
   xmlns:sodipodi="http://sodipodi.sourceforge.net/DTD/sodipodi-0.dtd"
   xmlns:xlink="http://www.w3.org/1999/xlink"
   xmlns="http://www.w3.org/2000/svg"
   xmlns:svg="http://www.w3.org/2000/svg">
  <sodipodi:namedview
     id="namedview1"
     pagecolor="#ffffff"
     bordercolor="#000000"
     borderopacity="0.25"
     inkscape:showpageshadow="2"
     inkscape:pageopacity="0.0"
     inkscape:pagecheckerboard="0"
     inkscape:deskcolor="#d1d1d1"
     inkscape:document-units="px"
     inkscape:zoom="10.74725"
     inkscape:cx="29.914629"
     inkscape:cy="31.77557"
     inkscape:window-width="1920"
     inkscape:window-height="998"
     inkscape:window-x="0"
     inkscape:window-y="0"
     inkscape:window-maximized="1"
     inkscape:current-layer="layer1" />
  <defs
     id="defs1">
    <linearGradient
       id="linearGradient1"
       inkscape:collect="always">
      <stop
         style="stop-color:#2bc2d4;stop-opacity:1;"
         offset="0"
         id="stop1" />
      <stop
         style="stop-color:#ffad00;stop-opacity:1;"
         offset="1"
         id="stop2" />
    </linearGradient>
    <radialGradient
       id="paint664_radial_890_11"
       cx="0"
       cy="0"
       r="1"
       gradientUnits="userSpaceOnUse"
       gradientTransform="matrix(-16.000099,-9.999913,9.999913,-16.000099,583,171)">
      <stop
         offset="0.42141"
         stop-color="#B7C6CD"
         id="stop2071" />
      <stop
         offset="1"
         stop-color="#EFF2F6"
         id="stop2072" />
    </radialGradient>
    <linearGradient
       id="paint665_linear_890_11"
       x1="605"
       y1="180"
       x2="601.466"
       y2="162.72301"
       gradientUnits="userSpaceOnUse"
       xlink:href="#paint670_linear_890_11">
      <stop
         stop-color="#5200FF"
         id="stop2073" />
      <stop
         offset="1"
         stop-color="#0085FF"
         id="stop2074" />
    </linearGradient>
    <linearGradient
       id="paint666_linear_890_11"
       x1="567"
       y1="181"
       x2="562.11798"
       y2="174.183"
       gradientUnits="userSpaceOnUse">
      <stop
         stop-color="#5200FF"
         id="stop2075" />
      <stop
         offset="0.670391"
         stop-color="#0085FF"
         id="stop2076" />
    </linearGradient>
    <linearGradient
       id="paint667_linear_890_11"
       x1="605"
       y1="180"
       x2="597.32001"
       y2="174.24001"
       gradientUnits="userSpaceOnUse">
      <stop
         stop-color="#5200FF"
         id="stop2077" />
      <stop
         offset="1"
         stop-color="#0085FF"
         id="stop2078" />
    </linearGradient>
    <linearGradient
       id="paint668_linear_890_11"
       x1="567"
       y1="180"
       x2="561.23999"
       y2="172.32001"
       gradientUnits="userSpaceOnUse">
      <stop
         stop-color="#5200FF"
         id="stop2079"
         offset="0"
         style="stop-color:#2bc2d4;stop-opacity:1;" />
      <stop
         offset="1"
         stop-color="#0085FF"
         id="stop2080" />
    </linearGradient>
    <linearGradient
       id="paint669_linear_890_11"
       x1="607"
       y1="179"
       x2="602.50598"
       y2="171.80901"
       gradientUnits="userSpaceOnUse">
      <stop
         stop-color="#5200FF"
         id="stop2081" />
      <stop
         offset="1"
         stop-color="#0085FF"
         id="stop2082" />
    </linearGradient>
    <linearGradient
       id="paint670_linear_890_11"
       x1="607"
       y1="217"
       x2="568.82599"
       y2="170.01601"
       gradientUnits="userSpaceOnUse">
      <stop
         stop-color="#5200FF"
         id="stop2083"
         offset="0"
         style="stop-color:#2bc2d4;stop-opacity:1;" />
      <stop
         offset="1"
         stop-color="#0085FF"
         id="stop2084"
         style="stop-color:#ffad00;stop-opacity:1;" />
    </linearGradient>
    <radialGradient
       id="paint671_radial_890_11"
       cx="0"
       cy="0"
       r="1"
       gradientUnits="userSpaceOnUse"
       gradientTransform="matrix(0,20,-16,0,583,187)">
      <stop
         offset="0.869716"
         stop-color="#EFF2F6"
         id="stop2085" />
      <stop
         offset="1"
         stop-color="#B7C6CD"
         id="stop2086" />
    </radialGradient>
    <linearGradient
       inkscape:collect="always"
       xlink:href="#linearGradient1"
       id="linearGradient2"
       x1="605.41827"
       y1="215.05968"
       x2="568.94373"
       y2="166.32924"
       gradientUnits="userSpaceOnUse" />
    <linearGradient
       inkscape:collect="always"
       xlink:href="#linearGradient1"
       id="linearGradient4"
       x1="597.10223"
       y1="161"
       x2="607"
       y2="182.38548"
       gradientUnits="userSpaceOnUse" />
  </defs>
  <g
     inkscape:label="Layer 1"
     inkscape:groupmode="layer"
     id="layer1">
    <g
       id="g2272"
       transform="translate(-552,-158)">
      <path
         d="m 597,181 c 1.105,0 2,-0.895 2,-2 v -2 c 0,-8.837 -7.163,-16 -16,-16 -8.837,0 -16,7.163 -16,16 v 2 c 0,1.105 0.895,2 2,2 1.105,0 2,-0.895 2,-2 v -2 c 0,-6.627 5.373,-12 12,-12 6.627,0 12,5.373 12,12 v 2 c 0,1.105 0.895,2 2,2 z"
         id="path647"
         style="fill:url(#paint664_radial_890_11)" />
      <path
         d="m 561,172 c 0,-0.552 0.448,-1 1,-1 h 42 c 0.552,0 1,0.448 1,1 v 7 c 0,0.552 -0.448,1 -1,1 h -42 c -0.552,0 -1,-0.448 -1,-1 z"
         id="path648"
         style="fill:url(#linearGradient4)" />
      <path
         d="m 561,181 v -9 l 5.144,0.75 c 0.492,0.072 0.856,0.493 0.856,0.99 V 181 Z"
         id="path649"
         style="fill:#ffad00;fill-opacity:1" />
      <path
         d="m 605,180 v -8 l -5.132,0.684 c -0.497,0.067 -0.868,0.49 -0.868,0.992 V 180 Z"
         id="path650"
         style="fill:#ffad00;fill-opacity:1" />
      <path
         d="M 559.649,176.757 567,174 v 6 h -8 v -2.307 c 0,-0.417 0.259,-0.79 0.649,-0.936 z"
         id="path651"
         style="fill:url(#paint668_linear_890_11)" />
      <path
         d="M 606.351,176.757 599,174 v 5 h 8 v -1.307 c 0,-0.417 -0.259,-0.79 -0.649,-0.936 z"
         id="path652"
         style="fill:#2bc2d4;fill-opacity:1" />
      <path
         d="m 559,178 h 48 v 33 c 0,3.314 -2.686,6 -6,6 h -36 c -3.314,0 -6,-2.686 -6,-6 z"
         id="path653"
         style="fill:url(#linearGradient2)" />
    </g>
    <g
       id="g1"
       transform="matrix(0.68757142,0,0,0.68114775,9.6882941,18.030882)">
      <path
         style="opacity:0.2"
         d="m 27.428625,46.823052 c -0.014,0.072 -0.414,2.338 -0.452,3.03 -0.026,0.458 -0.01,0.946 0.004,1.23 0.006,0.136 0.118,0.268 0.252,0.292 0.328,0.058 0.965,0.154 1.783,0.18 1.211,0.04 1.984,0.048 1.984,0.048 0,0 0.772,-0.008 1.985,-0.048 0.817,-0.026 1.453,-0.122 1.781,-0.18 0.135,-0.024 0.247,-0.156 0.253,-0.292 0.014,-0.284 0.03,-0.772 0.004,-1.23 -0.038,-0.692 -0.439,-2.958 -0.453,-3.03 0.002,-0.002 0.002,-0.002 0.004,-0.002 0,0 -0.004,-0.292 0.008,-0.446 0.014,-0.196 0.156,-0.436 0.415,-1.816 0.132,-0.008 0.266,-0.018 0.398,-0.036 l 2.61,-0.324 c 0.59,-0.074 1.171,0.218 1.461,0.738 l 6.847,12.317 c 0,0 0.38,0.81 0.622,0.676 0.152,-0.086 -0.036,-0.896 -0.036,-0.896 l -3.374,-17.377 c -0.074,-0.384 -0.269,-0.732 -0.553,-1 l -5.32,-5.028 c -0.094,-0.088 -0.216,-0.136 -0.344,-0.136 h -0.57 c 0.392,-2.641 0.266,-4.969 0.126,-8.001 -0.142,-3.03 -1.117,-7.423 -2.43,-11.999 -0.708,-2.4688 -1.351,-4.1876998 -2.273,-5.9999998 -0.721,-1.4137 -1.161,-1.3985 -1.161,-1.3985 0,0 -0.44,-0.0152 -1.161,1.3985 -0.923,1.8123 -1.565,3.5311998 -2.274,5.9999998 -1.312,4.576 -2.287,8.969 -2.429,11.999 -0.14,3.032 -0.266,5.36 0.126,8.001 h -0.579 c -0.128,0 -0.25,0.048 -0.344,0.136 l -5.32,5.028 c -0.284,0.268 -0.476,0.616 -0.552,1 l -3.374,17.377 c 0,0 -0.188,0.81 -0.036,0.896 0.242,0.134 0.622,-0.676 0.622,-0.676 l 6.847,-12.317 c 0.29,-0.52 0.871,-0.812 1.461,-0.738 l 2.61,0.324 c 0.136,0.018 0.272,0.028 0.406,0.036 0.258,1.38 0.4,1.62 0.414,1.816 0.012,0.154 0.008,0.446 0.008,0.446 0.002,0 0.002,0 0.004,0.002 z"
         id="path10" />
      <path
         style="fill:#d9d9d9"
         d="m 27.425625,45.821052 c 0,0 -0.412,2.328 -0.452,3.032 -0.024,0.458 -0.01,0.946 0.002,1.23 0.006,0.136 0.122,0.27 0.256,0.294 0.326,0.058 0.964,0.152 1.782,0.178 1.21,0.04 1.984,0.048 1.984,0.048 v -4.71 m 3.572,-0.072 c 0,0 0.412,2.328 0.452,3.032 0.024,0.458 0.01,0.946 -0.002,1.23 -0.006,0.136 -0.122,0.27 -0.256,0.294 -0.326,0.058 -0.964,0.152 -1.782,0.178 -1.21,0.04 -1.984,0.048 -1.984,0.048 v -4.71"
         id="path11" />
      <path
         style="fill:#ececec"
         d="m 30.993625,32.493052 h -6.312 c -0.128,0 -0.252,0.05 -0.346,0.138 l -5.318,5.026 c -0.284,0.268 -0.476,0.618 -0.55,1.002 l -3.376,17.376 c 0,0 -0.186,0.81 -0.034,0.894 0.242,0.136 0.618,-0.674 0.618,-0.674 l 6.85,-12.318 c 0.29,-0.52 0.868,-0.812 1.458,-0.738 l 2.614,0.324 c 0.264,0.034 0.53,0.05 0.796,0.05 h 3.6 m 0,-11.08 h 6.312 c 0.128,0 0.252,0.05 0.346,0.138 l 5.318,5.026 c 0.284,0.268 0.476,0.618 0.55,1.002 l 3.376,17.376 c 0,0 0.186,0.81 0.034,0.894 -0.242,0.136 -0.618,-0.674 -0.618,-0.674 l -6.85,-12.318 c -0.29,-0.52 -0.868,-0.812 -1.458,-0.738 l -2.614,0.324 c -0.264,0.034 -0.53,0.05 -0.796,0.05 h -3.6"
         id="path12" />
      <path
         style="fill:#ffffff"
         d="m 30.999625,5.0930522 c 0,0 -0.44,-0.0138 -1.161,1.3999 -0.923,1.8123 -1.563,3.5328998 -2.272,6.0010998 -1.312,4.577 -2.289,8.968 -2.431,11.999 -0.14,3.032 -0.264,5.36 0.126,8 0.39,2.64 1.173,7.562 1.555,10 0.384,2.437 0.584,2.643 0.602,2.881 0.012,0.154 0.008,0.446 0.008,0.446 1.089,0.552 2.382,0.604 3.573,0.672 m 0,-41.3989998 c 0,0 0.44,-0.0138 1.161,1.3999 0.922,1.8123 1.563,3.5328998 2.271,6.0010998 1.313,4.577 2.29,8.968 2.432,11.999 0.14,3.032 0.266,5.36 -0.126,8 -0.39,2.64 -1.173,7.562 -1.555,10 -0.385,2.437 -0.585,2.643 -0.603,2.881 -0.012,0.154 -0.008,0.446 -0.008,0.446 -1.088,0.552 -2.381,0.604 -3.572,0.672"
         id="path13" />
      <path
         style="fill:#f7ba08;fill-opacity:1"
         d="m 26.657625,34.919052 0.25,1.624 c 0.222,0.042 1.006,0.174 2.09,0.254 1.274,0.094 2,0.078 2,0.078 v -1.504 c 0,0 -1.094,0.002 -2,-0.096 -0.906,-0.1 -2.34,-0.356 -2.34,-0.356 z m 0.512,3.332 0.246,1.598 c 0,0 0.742,0.18 1.582,0.246 0.84,0.066 2,0.078 2,0.078 v -1.578 c 0,0 -1.126,0.016 -2,-0.086 -0.764,-0.088 -1.668,-0.232 -1.828,-0.258 z m 8.168,-3.332 -0.25,1.624 c -0.222,0.042 -1.006,0.174 -2.09,0.254 -1.274,0.094 -2,0.078 -2,0.078 v -1.504 c 0,0 1.094,0.002 2,-0.096 0.906,-0.1 2.34,-0.356 2.34,-0.356 z m -0.512,3.332 -0.246,1.598 c 0,0 -0.742,0.18 -1.582,0.246 -0.84,0.066 -2,0.078 -2,0.078 v -1.578 c 0,0 1.126,0.016 2,-0.086 0.764,-0.088 1.668,-0.232 1.828,-0.258 z"
         id="path14" />
      <path
         style="fill:#3ab4c5;fill-opacity:1"
         d="m 30.997625,11.093052 c 0,0 -1.744,0.0376 -2.016,0.3218 -0.276,0.2902 -0.46,0.8594 -0.46,0.8594 0,0 -0.188,0.5628 -0.22,0.9848 -0.03,0.421 -0.022,0.632 0,0.781 0.024,0.148 0.118,0.273 0.29,0.398 0.172,0.125 0.274,0.282 0.976,0.516 0.606,0.202 1.43,0.199 1.43,0.199 m 0,-4.06 c 0,0 1.744,0.0376 2.016,0.3218 0.276,0.2902 0.46,0.8594 0.46,0.8594 0,0 0.188,0.5628 0.22,0.9848 0.03,0.421 0.022,0.632 0,0.781 -0.024,0.148 -0.118,0.273 -0.29,0.398 -0.172,0.125 -0.274,0.282 -0.976,0.516 -0.606,0.202 -1.43,0.199 -1.43,0.199"
         id="path15" />
    </g>
  </g>
</svg>
