<?xml version="1.0" encoding="UTF-8" standalone="no"?>
<svg
   width="62"
   height="62"
   version="1"
   id="svg19"
   sodipodi:docname="powder-player.svg"
   inkscape:version="1.4 (unknown)"
   xmlns:inkscape="http://www.inkscape.org/namespaces/inkscape"
   xmlns:sodipodi="http://sodipodi.sourceforge.net/DTD/sodipodi-0.dtd"
   xmlns="http://www.w3.org/2000/svg"
   xmlns:svg="http://www.w3.org/2000/svg">
  <defs
     id="defs19" />
  <sodipodi:namedview
     id="namedview19"
     pagecolor="#ffffff"
     bordercolor="#000000"
     borderopacity="0.25"
     inkscape:showpageshadow="2"
     inkscape:pageopacity="0.0"
     inkscape:pagecheckerboard="0"
     inkscape:deskcolor="#d1d1d1"
     inkscape:zoom="12.109375"
     inkscape:cx="32"
     inkscape:cy="28.366452"
     inkscape:window-width="1920"
     inkscape:window-height="998"
     inkscape:window-x="0"
     inkscape:window-y="0"
     inkscape:window-maximized="1"
     inkscape:current-layer="svg19" />
  <g
     id="g19"
     transform="matrix(0.98,0,0,0.98245614,-0.36,-0.92982427)">
    <path
       style="opacity:0.2"
       d="m 32.149198,5.0000014 v 0.00274 A 6.3412168,6.367038 0 0 0 28.828884,5.8503892 L 10.171115,16.667538 A 6.3412168,6.367038 0 0 0 7,22.182754 v 21.634298 a 6.3412168,6.367038 0 0 0 3.171115,5.512482 l 18.657769,10.81715 a 6.3412168,6.367038 0 0 0 6.342232,0 L 53.828884,49.329534 A 6.3412168,6.367038 0 0 0 57,43.817052 V 22.182754 A 6.3412168,6.367038 0 0 0 53.828884,16.667538 L 35.171116,5.8503892 A 6.3412168,6.367038 0 0 0 32.149198,5.0000014 Z"
       id="path1" />
    <path
       style="fill:#2d3d53;fill-opacity:1"
       d="m 31.94323,5.1200028 v 0.00264 A 6.0875682,6.1123564 0 0 0 28.755728,5.936375 L 10.84427,16.320839 A 6.0875682,6.1123564 0 0 0 7.8,21.615444 v 20.768924 a 6.0875682,6.1123564 0 0 0 3.04427,5.291982 l 17.911458,10.384464 a 6.0875682,6.1123564 0 0 0 6.088544,0 L 52.755728,47.67635 A 6.0875682,6.1123564 0 0 0 55.8,42.384368 V 21.615444 A 6.0875682,6.1123564 0 0 0 52.755728,16.320839 L 34.844272,5.936375 A 6.0875682,6.1123564 0 0 0 31.94323,5.1200028 Z"
       id="path2" />
    <path
       style="fill:#f1d41a"
       d="m 32.148438,4.0000004 v 0.0039 c -0.799032,-0.01796 -1.594242,0.115894 -2.34375,0.3945314 L 29,4.8632816 13,14.101563 V 21.03125 L 32,10.0625 38.09375,6.5468754 35.171876,4.8515628 c -0.64489,-0.3705446 -1.34962,-0.624406 -2.082032,-0.75 -0.04548,-0.00832 -0.09106,-0.01612 -0.13672,-0.023438 -0.142612,-0.021829 -0.285924,-0.038766 -0.429686,-0.050781 -0.122106,-0.012681 -0.244554,-0.0218 -0.367188,-0.027344 z"
       id="path3" />
    <path
       style="fill:#aed447"
       d="m 13,14.027344 -2.828125,1.640625 C 8.2089124,16.805295 6.9996888,18.908034 7,21.183594 v 18.320312 l 6,3.464844 v -21.9375 z"
       id="path4" />
    <path
       style="fill:#d25e91"
       d="M 51,21.03125 V 24 49.96875 l 2.828124,-1.640626 C 55.789884,47.191496 56.99892,45.09057 57,42.816406 V 24.496094 Z"
       id="path5" />
    <path
       style="fill:#7acdcb"
       d="m 51,42.96875 -19,10.96875 -6.09375,3.515624 2.921874,1.695314 c 1.633118,0.944334 3.59995,1.110384 5.367188,0.453124 L 35,59.136718 51,49.902344 Z"
       id="path6" />
    <path
       style="fill:#ec8239"
       d="M 38.003906,6.5976566 32,10.0625 57,24.496094 v -3.3125 c -0.0017,-1.989448 -0.929466,-3.863741 -2.507812,-5.066406 z"
       id="path7" />
    <path
       style="fill:#5e8a93"
       d="m 7,39.503906 v 3.3125 c 0.0024,1.999066 0.9397154,3.880942 2.53125,5.082032 L 10,48.167968 25.992188,57.402344 32,53.9375 13,42.96875 Z"
       id="path8" />
    <path
       style="opacity:0.2;fill:#ffffff"
       d="M 32.148438,4 V 4.00391 A 6.3412168,6.367038 0 0 0 28.828125,4.8515625 L 10.171875,15.667969 A 6.3412168,6.367038 0 0 0 7,21.183594 v 1 a 6.3412168,6.367038 0 0 1 3.171875,-5.515625 L 28.828125,5.8515625 A 6.3412168,6.367038 0 0 1 32.148438,5.0039062 V 5 a 6.3412168,6.367038 0 0 1 3.023437,0.8515625 L 53.828125,16.667969 A 6.3412168,6.367038 0 0 1 57,22.183594 v -1 A 6.3412168,6.367038 0 0 0 53.828125,15.667969 L 35.171875,4.8515625 A 6.3412168,6.367038 0 0 0 32.148438,4 Z"
       id="path9" />
    <path
       style="opacity:0.2"
       d="m 32,15 a 3,3 0 0 0 -3,3 3,3 0 0 0 3,3 3,3 0 0 0 3,-3 3,3 0 0 0 -3,-3 z m -4,8 a 3,3 0 0 0 -3,3 3,3 0 0 0 3,3 3,3 0 0 0 3,-3 3,3 0 0 0 -3,-3 z m 8,0 a 3,3 0 0 0 -3,3 3,3 0 0 0 3,3 3,3 0 0 0 3,-3 3,3 0 0 0 -3,-3 z m -12,8 a 3,3 0 0 0 -3,3 3,3 0 0 0 3,3 3,3 0 0 0 3,-3 3,3 0 0 0 -3,-3 z m 8,0 a 3,3 0 0 0 -3,3 3,3 0 0 0 3,3 3,3 0 0 0 3,-3 3,3 0 0 0 -3,-3 z m 8,0 a 3,3 0 0 0 -3,3 3,3 0 0 0 3,3 3,3 0 0 0 3,-3 3,3 0 0 0 -3,-3 z m -20,8 a 3,3 0 0 0 -3,3 3,3 0 0 0 3,3 3,3 0 0 0 3,-3 3,3 0 0 0 -3,-3 z m 8,0 a 3,3 0 0 0 -3,3 3,3 0 0 0 3,3 3,3 0 0 0 3,-3 3,3 0 0 0 -3,-3 z m 8,0 a 3,3 0 0 0 -3,3 3,3 0 0 0 3,3 3,3 0 0 0 3,-3 3,3 0 0 0 -3,-3 z m 8,0 a 3,3 0 0 0 -3,3 3,3 0 0 0 3,3 3,3 0 0 0 3,-3 3,3 0 0 0 -3,-3 z"
       id="path10" />
    <circle
       style="fill:#ffffff"
       cx="20"
       cy="41"
       r="3"
       id="circle10" />
    <circle
       style="fill:#ffffff"
       cx="28"
       cy="41"
       r="3"
       id="circle11" />
    <circle
       style="fill:#ffffff"
       cx="36"
       cy="41"
       r="3"
       id="circle12" />
    <circle
       style="fill:#ffffff"
       cx="44"
       cy="41"
       r="3"
       id="circle13" />
    <circle
       style="fill:#ffffff"
       cx="24"
       cy="33"
       r="3"
       id="circle14" />
    <circle
       style="fill:#ffffff"
       cx="32"
       cy="33"
       r="3"
       id="circle15" />
    <circle
       style="fill:#ffffff"
       cx="40"
       cy="33"
       r="3"
       id="circle16" />
    <circle
       style="fill:#ffffff"
       cx="28"
       cy="25"
       r="3"
       id="circle17" />
    <circle
       style="fill:#ffffff"
       cx="36"
       cy="25"
       r="3"
       id="circle18" />
    <circle
       style="fill:#ffffff"
       cx="32"
       cy="17"
       r="3"
       id="circle19" />
  </g>
</svg>
