<?xml version="1.0" encoding="UTF-8" standalone="no"?>
<svg
   width="62"
   height="62"
   version="1.1"
   id="svg3"
   sodipodi:docname="poweriso-gui.svg"
   inkscape:version="1.4 (unknown)"
   xmlns:inkscape="http://www.inkscape.org/namespaces/inkscape"
   xmlns:sodipodi="http://sodipodi.sourceforge.net/DTD/sodipodi-0.dtd"
   xmlns="http://www.w3.org/2000/svg"
   xmlns:svg="http://www.w3.org/2000/svg">
  <sodipodi:namedview
     id="namedview3"
     pagecolor="#ffffff"
     bordercolor="#000000"
     borderopacity="0.25"
     inkscape:showpageshadow="2"
     inkscape:pageopacity="0.0"
     inkscape:pagecheckerboard="0"
     inkscape:deskcolor="#d1d1d1"
     inkscape:zoom="8.5626212"
     inkscape:cx="20.028914"
     inkscape:cy="45.955554"
     inkscape:window-width="1920"
     inkscape:window-height="998"
     inkscape:window-x="0"
     inkscape:window-y="0"
     inkscape:window-maximized="1"
     inkscape:current-layer="svg3" />
  <defs
     id="defs1">
    <style
       id="current-color-scheme"
       type="text/css">.ColorScheme-Text { color:#444444; } .ColorScheme-Highlight { color:#4285f4; } .ColorScheme-NeutralText { color:#ff9800; } .ColorScheme-PositiveText { color:#4caf50; } .ColorScheme-NegativeText { color:#f44336; }</style>
  </defs>
  <g
     id="g3"
     transform="matrix(3.5,0,0,3.5,3,3)">
    <path
       d="M 8,4 A 4,4 0 0 0 4,8 4,4 0 0 0 8,12 4,4 0 0 0 12,8 4,4 0 0 0 8,4 Z M 8,7 A 1,1 0 0 1 9,8 1,1 0 0 1 8,9 1,1 0 0 1 7,8 1,1 0 0 1 8,7 Z"
       style="fill:#7b94b7;fill-opacity:1"
       id="path1" />
    <path
       d="M 8,0 A 7.9999997,7.9999997 0 0 0 0,8 7.9999997,7.9999997 0 0 0 8,16 7.9999997,7.9999997 0 0 0 16,8 7.9999997,7.9999997 0 0 0 8,0 Z M 8,5 A 3,3 0 0 1 11,8 3,3 0 0 1 8,11 3,3 0 0 1 5,8 3,3 0 0 1 8,5 Z"
       style="fill:#3f5574;fill-opacity:1"
       class="ColorScheme-Text"
       id="path2" />
    <path
       d="M 8,1 A 7,7 0 0 0 1,8 7,7 0 0 0 2.2714844,12.017578 L 4.03125,7.3242188 A 0.50005,0.50005 0 0 1 4.0761719,7.2324219 4,4 0 0 1 8,4 4,4 0 0 1 11.710938,6.5136719 l 1.28125,-3.4121094 A 7,7 0 0 0 8,1 Z m 5.728516,2.9824219 -1.757813,4.6855469 A 0.50005,0.50005 0 0 1 11.923828,8.7734375 4,4 0 0 1 8,12 4,4 0 0 1 4.2890625,9.4882812 L 3.0097656,12.900391 A 7,7 0 0 0 8,15 7,7 0 0 0 15,8 7,7 0 0 0 13.728516,3.9824219 Z"
       style="fill:#f2f2f2;fill-opacity:1"
       id="path3" />
  </g>
</svg>
