<?xml version="1.0" encoding="UTF-8" standalone="no"?>
<svg
   clip-rule="evenodd"
   fill-rule="evenodd"
   stroke-linejoin="round"
   stroke-miterlimit="2"
   viewBox="0 0 62 62"
   version="1.1"
   id="svg3"
   sodipodi:docname="power-management.svg"
   width="62"
   height="62"
   inkscape:version="1.4 (unknown)"
   xmlns:inkscape="http://www.inkscape.org/namespaces/inkscape"
   xmlns:sodipodi="http://sodipodi.sourceforge.net/DTD/sodipodi-0.dtd"
   xmlns:xlink="http://www.w3.org/1999/xlink"
   xmlns="http://www.w3.org/2000/svg"
   xmlns:svg="http://www.w3.org/2000/svg">
  <defs
     id="defs3">
    <linearGradient
       id="linearGradient6">
      <stop
         offset="0"
         style="stop-color:#dbdbdb;stop-opacity:0;"
         id="stop5" />
      <stop
         offset="1"
         style="stop-color:#000000;stop-opacity:1;"
         id="stop6" />
    </linearGradient>
    <linearGradient
       id="linearGradient3"
       inkscape:collect="always">
      <stop
         style="stop-color:#334c66;stop-opacity:1;"
         offset="0"
         id="stop3" />
      <stop
         style="stop-color:#2d3c53;stop-opacity:1;"
         offset="1"
         id="stop4" />
    </linearGradient>
    <filter
       id="b-3-36"
       width="1.2393739"
       height="1.1966286"
       x="-0.11968695"
       y="-0.098314282"
       color-interpolation-filters="sRGB">
      <feGaussianBlur
         stdDeviation="1.147"
         id="feGaussianBlur7-6" />
    </filter>
    <filter
       id="b-3-36-6"
       width="1.2393739"
       height="1.1966286"
       x="-0.11968695"
       y="-0.098314282"
       color-interpolation-filters="sRGB">
      <feGaussianBlur
         stdDeviation="1.147"
         id="feGaussianBlur7-6-7" />
    </filter>
    <linearGradient
       inkscape:collect="always"
       xlink:href="#linearGradient3"
       id="linearGradient4"
       x1="31.996025"
       y1="5.0983038"
       x2="32.182014"
       y2="58.017544"
       gradientUnits="userSpaceOnUse" />
    <linearGradient
       id="linearGradient4306">
      <stop
         offset="0"
         style="stop-color:#000000;stop-opacity:0;"
         id="stop12" />
      <stop
         offset="1"
         style="stop-color:#000000;stop-opacity:1;"
         id="stop14" />
    </linearGradient>
    <radialGradient
       xlink:href="#linearGradient4324"
       id="radialGradient4340-3"
       cx="-12"
       cy="12"
       fx="-12"
       fy="12"
       r="4"
       gradientUnits="userSpaceOnUse"
       gradientTransform="matrix(1.235291,0,0,1.235291,-1.3530054,1.3530246)" />
    <linearGradient
       id="linearGradient4324">
      <stop
         style="stop-color:#eff1f1;stop-opacity:1"
         offset="0"
         id="stop7" />
      <stop
         style="stop-color:#ececec;stop-opacity:1;"
         offset="1"
         id="stop9" />
    </linearGradient>
    <linearGradient
       id="linearGradient4167">
      <stop
         style="stop-color:#ffffff;stop-opacity:0"
         offset="0"
         id="stop2-3" />
      <stop
         style="stop-color:#ffffff;stop-opacity:1"
         offset="1"
         id="stop4-6" />
    </linearGradient>
    <radialGradient
       xlink:href="#linearGradient4324"
       id="radialGradient4188-1"
       gradientUnits="userSpaceOnUse"
       cx="-12"
       cy="12"
       fx="-12"
       fy="12"
       r="4"
       gradientTransform="matrix(1.235291,0,0,1.235291,-16.176495,16.176515)" />
    <radialGradient
       xlink:href="#linearGradient4324"
       id="radialGradient4202-2"
       gradientUnits="userSpaceOnUse"
       cx="-12"
       cy="12"
       fx="-12"
       fy="12"
       r="4"
       gradientTransform="matrix(1.235291,0,0,1.235291,-30.999989,31.000009)" />
    <linearGradient
       xlink:href="#linearGradient4816"
       id="linearGradient4503-0-3"
       y1="37"
       y2="4"
       x2="0"
       gradientUnits="userSpaceOnUse"
       gradientTransform="matrix(1.0499998,0,0,1.0499998,9.2502391,54.800003)" />
    <linearGradient
       id="linearGradient4816">
      <stop
         style="stop-color:#da4453"
         id="stop1439" />
      <stop
         offset="1"
         style="stop-color:#ff7336"
         id="stop1441" />
    </linearGradient>
    <linearGradient
       id="linearGradient4279">
      <stop
         id="stop1432" />
      <stop
         offset="1"
         style="stop-opacity:0"
         id="stop1434" />
    </linearGradient>
    <linearGradient
       id="c"
       y1="513.38"
       x1="399.98999"
       y2="537.38"
       x2="424.98999"
       gradientUnits="userSpaceOnUse"
       gradientTransform="translate(-464.04842,-560.44526)">
      <stop
         stop-color="#292c2f"
         id="stop12-3" />
      <stop
         offset="1"
         stop-opacity="0"
         id="stop14-6" />
    </linearGradient>
    <linearGradient
       id="b"
       y1="35"
       x1="42"
       y2="12"
       x2="22"
       gradientUnits="userSpaceOnUse"
       gradientTransform="translate(-75.064419,-59.059262)">
      <stop
         stop-color="#197cf1"
         id="stop7-7" />
      <stop
         offset="1"
         stop-color="#20bcfa"
         id="stop9-5" />
    </linearGradient>
    <linearGradient
       id="a-3"
       y1="35"
       x1="23"
       y2="13"
       x2="5"
       gradientUnits="userSpaceOnUse"
       gradientTransform="translate(-79.064419,-59.059262)">
      <stop
         stop-color="#c61423"
         id="stop2-5" />
      <stop
         offset="1"
         stop-color="#dc2b41"
         id="stop4-62" />
    </linearGradient>
    <linearGradient
       id="linearGradient15349"
       x1="32"
       x2="32"
       y1="58"
       y2="61"
       gradientUnits="userSpaceOnUse"
       xlink:href="#linearGradient15347" />
    <linearGradient
       id="linearGradient15347">
      <stop
         id="stop1-2"
         stop-color="#9eb3c2"
         offset="0" />
      <stop
         id="stop2-7"
         stop-color="#dbe8eb"
         offset="1" />
    </linearGradient>
    <linearGradient
       id="linearGradient19930"
       x1="32"
       x2="32"
       y1="55.5"
       y2="60"
       gradientUnits="userSpaceOnUse"
       xlink:href="#linearGradient15347" />
    <linearGradient
       id="linearGradient47571"
       x1="32"
       x2="32"
       y1="41.75"
       y2="43.75"
       gradientUnits="userSpaceOnUse">
      <stop
         id="stop5-0"
         stop-color="#7ea2ac"
         offset="0" />
      <stop
         id="stop6-9"
         stop-color="#9eb9c1"
         offset="1" />
    </linearGradient>
    <linearGradient
       id="linearGradient16708"
       x1="37"
       x2="40"
       y1="33.75"
       y2="33.75"
       gradientTransform="translate(0,-0.5)"
       gradientUnits="userSpaceOnUse">
      <stop
         id="stop7-75"
         stop-color="#948c7c"
         offset="0" />
      <stop
         id="stop8"
         stop-color="#9e711b"
         offset=".19496" />
      <stop
         id="stop9-3"
         stop-color="#e3b151"
         offset=".35031" />
      <stop
         id="stop10"
         stop-color="#eec87f"
         offset=".48791" />
      <stop
         id="stop11-3"
         stop-color="#e3b151"
         offset=".64082" />
      <stop
         id="stop12-6"
         stop-color="#9e711b"
         offset=".80553" />
      <stop
         id="stop13"
         stop-color="#948c7c"
         offset="1" />
    </linearGradient>
    <radialGradient
       id="radialGradient16788"
       cx="37.198002"
       cy="36.589001"
       r="1.5"
       gradientTransform="matrix(-0.94352,0,1.3507e-7,-0.94352,73.597,63.023)"
       gradientUnits="userSpaceOnUse">
      <stop
         id="stop14-5"
         stop-color="#fff6d5"
         offset="0" />
      <stop
         id="stop15"
         stop-color="#fff6d5"
         stop-opacity="0"
         offset="1" />
    </radialGradient>
    <radialGradient
       id="radialGradient18"
       cx="37.198002"
       cy="36.589001"
       r="1.5"
       gradientTransform="matrix(-0.94352,0,1.3507e-7,-0.94352,73.597,63.023)"
       gradientUnits="userSpaceOnUse">
      <stop
         id="stop17"
         stop-color="#fff6d5"
         offset="0" />
      <stop
         id="stop18"
         stop-color="#fff6d5"
         stop-opacity="0"
         offset="1" />
    </radialGradient>
  </defs>
  <sodipodi:namedview
     id="namedview3"
     pagecolor="#ffffff"
     bordercolor="#000000"
     borderopacity="0.25"
     inkscape:showpageshadow="2"
     inkscape:pageopacity="0.0"
     inkscape:pagecheckerboard="0"
     inkscape:deskcolor="#d1d1d1"
     inkscape:zoom="11.019081"
     inkscape:cx="24.820582"
     inkscape:cy="37.25356"
     inkscape:window-width="1920"
     inkscape:window-height="1000"
     inkscape:window-x="0"
     inkscape:window-y="0"
     inkscape:window-maximized="1"
     inkscape:current-layer="svg3" />
  <linearGradient
     id="a"
     x2="1"
     gradientTransform="matrix(0,-43.53155,43.53155,0,1192.407,51.589413)"
     gradientUnits="userSpaceOnUse">
    <stop
       stop-color="#161616"
       offset="0"
       id="stop1" />
    <stop
       stop-color="#343434"
       offset="1"
       id="stop2" />
  </linearGradient>
  <g
     id="g3"
     transform="translate(3.487626,-1.843205)" />
  <rect
     style="opacity:0.2;stroke-width:0.9823"
     width="55"
     height="55.017544"
     x="3.5"
     y="3.9824562"
     rx="8.25"
     ry="8.2526312"
     id="rect1-3" />
  <rect
     style="fill:url(#linearGradient4);stroke-width:0.9823"
     width="55"
     height="55.017544"
     x="3.5"
     y="3"
     rx="8.25"
     ry="8.2526312"
     id="rect2-5" />
  <path
     style="opacity:0.1;fill:#ffffff;stroke-width:0.9823"
     d="M 11.748466,3 C 7.1779651,3 3.4999999,6.6791384 3.4999999,11.251097 v 0.982456 c 0,-4.5719585 3.6779652,-8.2510968 8.2484661,-8.2510968 h 38.503068 c 4.5705,0 8.248466,3.6791383 8.248466,8.2510968 V 11.251097 C 58.5,6.6791384 54.822034,3 50.251534,3 Z"
     id="path4-6" />
  <g
     id="g70"
     transform="matrix(0.67241379,0,0,0.67470465,-2.9313447,8.4366419)"
     stroke-width="1.0846">
    <g
       id="g63"
       transform="translate(18.462,-2.6834)">
      <circle
         id="circle61"
         cx="32"
         cy="34"
         r="22"
         fill-rule="evenodd"
         style="font-variation-settings:normal;-inkscape-stroke:none;fill:#707b8f;fill-opacity:1" />
      <path
         id="path62"
         fill-opacity="0.63327"
         d="m 27,20 v 1 h -2 c -0.554,0 -1,0.446 -1,1 v 1 c 0,0.554 0.446,1 1,1 h 2 v 1 h 2 v -5 z m 8,0 v 5 h 2 v -1 h 2 c 0.554,0 1,-0.446 1,-1 v -1 c 0,-0.554 -0.446,-1 -1,-1 h -2 v -1 z m -4,8 v 2.3438 c -0.5989,0.4319 -1,1.2299 -1,2.1562 0,0.9263 0.4011,1.7243 1,2.1562 v 1.625 c -0.5969,0.34604 -1,0.97915 -1,1.7188 0,1.1046 0.89543,2 2,2 1.10457,0 2,-0.89543 2,-2 0,-0.7396 -0.4031,-1.3727 -1,-1.7188 v -1.625 c 0.5989,-0.4319 1,-1.2299 1,-2.1562 0,-0.9263 -0.4011,-1.7243 -1,-2.1562 V 28 Z m -4,13 v 1 h -2 v 1 h -2 v 3 h 4 v 2 h 3 v -3 h -1 v -4 z m 8,0 v 4 h -1 v 3 h 3 v -2 h 4 v -3 h -2 v -1 h -2 v -1 z"
         style="fill:#2d3c53;fill-opacity:1" />
      <path
         id="path63"
         d="m 32,5.0005 c -15.993,0 -29,13.007 -29,29 10e-8,15.993 13.007,29 29,29 15.993,0 29,-13.007 29,-29 0,-15.993 -13.007,-29 -29,-29 z m 0,3.999 c 13.831,0 25,11.17 25,25 0,13.831 -11.17,25 -25,25 -13.831,0 -25,-11.17 -25,-25 0,-13.831 11.17,-25 25,-25 z"
         color-rendering="auto"
         fill-opacity="0.34326"
         image-rendering="auto"
         shape-rendering="auto"
         style="text-indent:0;text-decoration-line:none;text-decoration-style:solid;text-decoration-color:#000000;text-transform:none;white-space:normal;shape-padding:0;isolation:auto;mix-blend-mode:normal;fill:#001624;fill-opacity:0.34325999" />
    </g>
    <g
       id="g69"
       transform="translate(18.462,0.56656)">
      <g
         id="g68"
         stroke-width="1.0846">
        <g
           id="g64"
           fill="url(#linearGradient15349)"
           stroke-width="1.0846"
           style="fill:url(#linearGradient15349)">
          <path
             id="path64"
             d="M 32,54 V 64"
             color="#000000"
             fill="none"
             stroke-width="2.1693"
             style="stroke:url(#linearGradient19930)" />
        </g>
        <path
           id="path65"
           d="m 22.445,37.5 c -0.24631,0 -0.4208,0.27051 -0.44531,0.60352 l 0.5,6.793 0.5,5.6035 c 0.24619,2.759 3.23,5 6,5 h 6 c 2.77,0 5.2593,-2.3309 6,-5 l 0.5,-5.6035 0.5,-6.793 C 42.0242,37.77052 41.80069,37.5 41.55438,37.5 h -14.555 z"
           stroke-linecap="round"
           stroke-width="2.1693"
           style="fill:url(#linearGradient47571);paint-order:stroke fill markers" />
        <path
           id="path66"
           d="m 21.445,36.75 h 21.111 c 0.24631,0 0.4446,0.04887 0.4446,0.10958 v 1.7808 c 0,0.06071 -0.19829,0.10958 -0.4446,0.10958 H 21.445 c -0.24631,0 -0.4446,-0.04887 -0.4446,-0.10958 v -1.7808 c 0,-0.06071 0.19829,-0.10958 0.4446,-0.10958 z"
           stroke-linecap="round"
           stroke-width="2.1693"
           style="paint-order:stroke fill markers;fill:#eef1f6;fill-opacity:1" />
        <g
           id="g6350"
           transform="matrix(-1,0,0,1,64,0)">
          <path
             id="path67"
             d="M 38.5,27.5 C 37.669,27.5 37,28.169 37,29 v 8.5 c 0,0.55228 0.67157,1 1.5,1 0.82843,0 1.5,-0.44772 1.5,-1 V 29 c 0,-0.831 -0.669,-1.5 -1.5,-1.5 z"
             fill="url(#linearGradient16708)"
             stop-color="#000000"
             stroke-width="0.99426"
             style="fill:url(#linearGradient16708);paint-order:stroke fill markers" />
          <path
             id="path68"
             d="M 38.5,27.5 C 37.669,27.5 37,28.169 37,29 v 8.5 c 0,0.55228 0.67157,1 1.5,1 0.82843,0 1.5,-0.44772 1.5,-1 V 29 c 0,-0.831 -0.669,-1.5 -1.5,-1.5 z"
             stroke-width="0.99426"
             style="fill:url(#radialGradient16788);paint-order:stroke fill markers" />
        </g>
        <use
           id="use68"
           transform="matrix(-1,0,0,1,64,0)"
           width="100%"
           height="100%"
           stroke-width="1.0846"
           xlink:href="#g6350" />
        <rect
           id="rect68"
           x="21"
           y="38.75"
           width="22"
           height="3"
           rx="0"
           ry="0"
           stroke-width="1.0846"
           style="font-variation-settings:normal;-inkscape-stroke:none;paint-order:stroke fill markers;fill:#a2bbc3;fill-opacity:1" />
      </g>
    </g>
  </g>
</svg>
