<?xml version="1.0" encoding="UTF-8" standalone="no"?>
<svg
   width="62"
   height="62"
   version="1.1"
   id="svg6"
   sodipodi:docname="preferences-management-service.svg"
   inkscape:version="1.4 (unknown)"
   xmlns:inkscape="http://www.inkscape.org/namespaces/inkscape"
   xmlns:sodipodi="http://sodipodi.sourceforge.net/DTD/sodipodi-0.dtd"
   xmlns="http://www.w3.org/2000/svg"
   xmlns:svg="http://www.w3.org/2000/svg">
  <defs
     id="defs6" />
  <sodipodi:namedview
     id="namedview6"
     pagecolor="#ffffff"
     bordercolor="#000000"
     borderopacity="0.25"
     inkscape:showpageshadow="2"
     inkscape:pageopacity="0.0"
     inkscape:pagecheckerboard="0"
     inkscape:deskcolor="#d1d1d1"
     inkscape:zoom="6.0546875"
     inkscape:cx="21.140645"
     inkscape:cy="33.940645"
     inkscape:window-width="1920"
     inkscape:window-height="998"
     inkscape:window-x="0"
     inkscape:window-y="0"
     inkscape:window-maximized="1"
     inkscape:current-layer="svg6" />
  <path
     style="opacity:0.2;stroke-width:0.982295"
     d="M 3.5422321,30.339789 A 27.5,27.508772 0 0 0 3.5,31.491228 27.5,27.508772 0 0 0 31,59 27.5,27.508772 0 0 0 58.5,31.491228 27.5,27.508772 0 0 0 58.45875,30.677755 27.5,27.508772 0 0 1 31,57.035087 27.5,27.508772 0 0 1 3.5432143,30.339789 Z"
     id="path1" />
  <path
     style="fill:#2d3d53;fill-opacity:1;stroke-width:0.982295"
     d="M 31,3 A 27.5,27.508772 0 0 0 3.5,30.508772 27.5,27.508772 0 0 0 31,58.017544 27.5,27.508772 0 0 0 58.5,30.508772 27.5,27.508772 0 0 0 31,3 Z"
     id="path2" />
  <path
     style="opacity:0.1;fill:#ffffff;stroke-width:0.982295"
     d="M 30.998082,3 A 27.5,27.508772 0 0 0 3.5,30.508772 27.5,27.508772 0 0 0 3.5211008,30.907895 27.5,27.508772 0 0 1 30.998082,3.9824562 h 0.002 A 27.5,27.508772 0 0 1 58.476976,31.084431 27.5,27.508772 0 0 0 58.49807,30.508772 27.5,27.508772 0 0 0 31,3 Z"
     id="path3" />
  <g
     id="g1"
     transform="translate(70.283871,-13.186109)">
    <path
       style="opacity:0.2"
       d="m -45.815484,28.686109 v 32 h 20 v -8 h -12.00036 v -24 z"
       id="path4" />
    <path
       style="fill:#ff9955"
       d="m -45.815484,27.686109 v 32 h 20 v -8 h -12.00036 v -24 z"
       id="path5" />
  </g>
</svg>
