<?xml version="1.0" encoding="UTF-8" standalone="no"?>
<svg
   width="62"
   height="62"
   version="1.1"
   id="svg29"
   sodipodi:docname="premid.svg"
   inkscape:version="1.4 (unknown)"
   xmlns:inkscape="http://www.inkscape.org/namespaces/inkscape"
   xmlns:sodipodi="http://sodipodi.sourceforge.net/DTD/sodipodi-0.dtd"
   xmlns:xlink="http://www.w3.org/1999/xlink"
   xmlns="http://www.w3.org/2000/svg"
   xmlns:svg="http://www.w3.org/2000/svg">
  <defs
     id="defs29">
    <linearGradient
       id="linearGradient29"
       inkscape:collect="always">
      <stop
         style="stop-color:#2d3d53;stop-opacity:1;"
         offset="0"
         id="stop29" />
      <stop
         style="stop-color:#6a84e2;stop-opacity:1;"
         offset="1"
         id="stop30" />
    </linearGradient>
    <linearGradient
       inkscape:collect="always"
       xlink:href="#linearGradient29"
       id="linearGradient30"
       x1="31.790581"
       y1="69.644432"
       x2="30.193521"
       y2="5"
       gradientUnits="userSpaceOnUse"
       gradientTransform="matrix(0.98214286,0,0,0.98245614,-0.42857152,-0.92982455)" />
  </defs>
  <sodipodi:namedview
     id="namedview29"
     pagecolor="#ffffff"
     bordercolor="#000000"
     borderopacity="0.25"
     inkscape:showpageshadow="2"
     inkscape:pageopacity="0.0"
     inkscape:pagecheckerboard="0"
     inkscape:deskcolor="#d1d1d1"
     inkscape:zoom="7.0710678"
     inkscape:cx="25.102291"
     inkscape:cy="47.871129"
     inkscape:window-width="1920"
     inkscape:window-height="998"
     inkscape:window-x="0"
     inkscape:window-y="0"
     inkscape:window-maximized="1"
     inkscape:current-layer="svg29" />
  <rect
     style="opacity:0.2;stroke-width:0.9823"
     width="55"
     height="55.017544"
     x="3.5"
     y="3.9824562"
     ry="13.754386"
     id="rect1" />
  <rect
     style="fill:url(#linearGradient30);stroke-width:0.9823"
     width="55"
     height="55.017544"
     x="3.5"
     y="3"
     ry="13.754386"
     id="rect2" />
  <path
     style="opacity:0.1;fill:#ffffff;stroke-width:0.9823"
     d="M 17.25,3 C 9.6324999,3 3.4999999,9.1344561 3.4999999,16.754386 v 0.982456 c 0,-7.61993 6.1325,-13.7543858 13.7500001,-13.7543858 h 27.5 c 7.6175,0 13.75,6.1344558 13.75,13.7543858 V 16.754386 C 58.5,9.1344561 52.3675,3 44.75,3 Z"
     id="path28" />
  <text
     xml:space="preserve"
     style="font-size:21.3333px;font-family:'Blush Asliring';-inkscape-font-specification:'Blush Asliring';text-align:start;writing-mode:lr-tb;direction:ltr;text-anchor:start;fill:#9bb0ca;stroke:#000000;stroke-width:0;stroke-linecap:round;stroke-linejoin:round;paint-order:fill markers stroke"
     x="-29.274221"
     y="35.638184"
     id="text1"><tspan
       sodipodi:role="line"
       id="tspan1" /></text>
  <g
     id="g1"
     transform="translate(5.5,-51)">
    <path
       style="opacity:0.2"
       d="M 8.535156,70 A 2.5349999,2.5125854 0 0 0 6,72.511719 V 92.488281 A 2.5349999,2.5125854 0 0 0 8.535156,95 H 42.464844 A 2.5349999,2.5125854 0 0 0 45,92.488281 V 72.511719 A 2.5349999,2.5125854 0 0 0 42.464844,70 Z m 2.152344,5 a 0.73576587,0.74662883 0 0 1 0.07422,0 0.73576587,0.74662883 0 0 1 0.33789,0.09961 l 11.535157,6.757813 a 0.73576587,0.74662883 0 0 1 0,1.289062 L 11.09961,89.902345 A 0.73576587,0.74662883 0 0 1 10,89.257812 V 75.744141 A 0.73576587,0.74662883 0 0 1 10.6875,75 Z m 17.496094,1 h 7.632812 A 1.1886176,1.5058081 0 0 1 37,77.5 1.1886176,1.5058081 0 0 1 35.816406,79 H 28.183594 A 1.1886176,1.5058081 0 0 1 27,77.5 1.1656712,1.4767384 0 0 1 27.349609,76.443359 1.1656712,1.4767384 0 0 1 28.183594,76 Z m -0.06836,5 H 39.884766 A 1.1151956,1.499999 0 0 1 40.675781,83.556641 1.1195181,1.5058129 0 0 1 39.884766,84 H 28.115234 A 1.1195181,1.5058129 0 0 1 27,82.5 1.1195181,1.5058129 0 0 1 28.115234,81 Z m 0,5 H 39.884766 A 1.1151957,1.4999999 0 0 1 40.675781,88.556641 1.1195183,1.5058139 0 0 1 39.884766,89 H 28.115234 A 1.1195183,1.5058139 0 0 1 27,87.5 1.1195183,1.5058139 0 0 1 28.115234,86 Z"
       id="path2" />
    <path
       style="fill:#ffffff"
       d="M 8.535156,69 A 2.5349999,2.5125854 0 0 0 6,71.511719 V 91.488281 A 2.5349999,2.5125854 0 0 0 8.535156,94 H 42.464844 A 2.5349999,2.5125854 0 0 0 45,91.488281 V 71.511719 A 2.5349999,2.5125854 0 0 0 42.464844,69 Z m 2.152344,5 a 0.73576587,0.74662883 0 0 1 0.07422,0 0.73576587,0.74662883 0 0 1 0.33789,0.09961 l 11.535157,6.757813 a 0.73576587,0.74662883 0 0 1 0,1.289062 L 11.09961,88.902345 A 0.73576587,0.74662883 0 0 1 10,88.257812 V 74.744141 A 0.73576587,0.74662883 0 0 1 10.6875,74 Z m 17.496094,1 h 7.632812 A 1.1886176,1.5058081 0 0 1 37,76.5 1.1886176,1.5058081 0 0 1 35.816406,78 H 28.183594 A 1.1886176,1.5058081 0 0 1 27,76.5 1.1656712,1.4767384 0 0 1 27.349609,75.443359 1.1656712,1.4767384 0 0 1 28.183594,75 Z m -0.06836,5 H 39.884766 A 1.1151956,1.499999 0 0 1 40.675781,82.556641 1.1195181,1.5058129 0 0 1 39.884766,83 H 28.115234 A 1.1195181,1.5058129 0 0 1 27,81.5 1.1195181,1.5058129 0 0 1 28.115234,80 Z m 0,5 H 39.884766 A 1.1151957,1.4999999 0 0 1 40.675781,87.556641 1.1195183,1.5058139 0 0 1 39.884766,88 H 28.115234 A 1.1195183,1.5058139 0 0 1 27,86.5 1.1195183,1.5058139 0 0 1 28.115234,85 Z"
       id="path3" />
  </g>
</svg>
