<?xml version="1.0" encoding="UTF-8" standalone="no"?>
<svg
   width="62"
   height="62"
   version="1.1"
   id="svg29"
   sodipodi:docname="prepros.svg"
   inkscape:version="1.4 (unknown)"
   xmlns:inkscape="http://www.inkscape.org/namespaces/inkscape"
   xmlns:sodipodi="http://sodipodi.sourceforge.net/DTD/sodipodi-0.dtd"
   xmlns:xlink="http://www.w3.org/1999/xlink"
   xmlns="http://www.w3.org/2000/svg"
   xmlns:svg="http://www.w3.org/2000/svg">
  <defs
     id="defs29">
    <linearGradient
       id="linearGradient29"
       inkscape:collect="always">
      <stop
         style="stop-color:#2d3d53;stop-opacity:1;"
         offset="0"
         id="stop29" />
      <stop
         style="stop-color:#354864;stop-opacity:1;"
         offset="1"
         id="stop30" />
    </linearGradient>
    <linearGradient
       inkscape:collect="always"
       xlink:href="#linearGradient29"
       id="linearGradient30"
       x1="30.782633"
       y1="60"
       x2="30.193521"
       y2="5"
       gradientUnits="userSpaceOnUse"
       gradientTransform="matrix(0.98214286,0,0,0.98245614,-0.42857152,-0.92982455)" />
  </defs>
  <sodipodi:namedview
     id="namedview29"
     pagecolor="#ffffff"
     bordercolor="#000000"
     borderopacity="0.25"
     inkscape:showpageshadow="2"
     inkscape:pageopacity="0.0"
     inkscape:pagecheckerboard="0"
     inkscape:deskcolor="#d1d1d1"
     inkscape:zoom="7.0710678"
     inkscape:cx="25.243712"
     inkscape:cy="27.365032"
     inkscape:window-width="1920"
     inkscape:window-height="998"
     inkscape:window-x="0"
     inkscape:window-y="0"
     inkscape:window-maximized="1"
     inkscape:current-layer="svg29" />
  <rect
     style="opacity:0.2;stroke-width:0.9823"
     width="55"
     height="55.017544"
     x="3.5"
     y="3.9824562"
     ry="13.754386"
     id="rect1" />
  <rect
     style="fill:url(#linearGradient30);stroke-width:0.9823"
     width="55"
     height="55.017544"
     x="3.5"
     y="3"
     ry="13.754386"
     id="rect2" />
  <path
     style="opacity:0.1;fill:#ffffff;stroke-width:0.9823"
     d="M 17.25,3 C 9.6324999,3 3.4999999,9.1344561 3.4999999,16.754386 v 0.982456 c 0,-7.61993 6.1325,-13.7543858 13.7500001,-13.7543858 h 27.5 c 7.6175,0 13.75,6.1344558 13.75,13.7543858 V 16.754386 C 58.5,9.1344561 52.3675,3 44.75,3 Z"
     id="path28" />
  <text
     xml:space="preserve"
     style="font-size:21.3333px;font-family:'Blush Asliring';-inkscape-font-specification:'Blush Asliring';text-align:start;writing-mode:lr-tb;direction:ltr;text-anchor:start;fill:#9bb0ca;stroke:#000000;stroke-width:0;stroke-linecap:round;stroke-linejoin:round;paint-order:fill markers stroke"
     x="-29.274221"
     y="35.638184"
     id="text1"><tspan
       sodipodi:role="line"
       id="tspan1" /></text>
  <g
     id="g1"
     transform="matrix(0.84616855,0,0,0.84210526,62.501505,-7.736842)">
    <path
       style="opacity:0.2"
       d="m -38.628796,18.5 c -3.1024,0 -5.599609,2.497209 -5.599609,5.599609 v 2.625 a 21,21 0 0 0 -6.623047,3.826172 l -2.275391,-1.3125 c -2.686757,-1.5512 -6.09919,-0.635976 -7.65039,2.050781 l -1.400391,2.421876 c -1.5512,2.686758 -0.635976,6.09919 2.050781,7.65039 l 2.265626,1.308594 A 21,21 0 0 0 -58.228405,46.5 a 21,21 0 0 0 0.367188,3.830078 l -2.265626,1.308594 c -2.686757,1.5512 -3.601981,4.963633 -2.050781,7.65039 l 1.400391,2.421876 c 1.5512,2.686757 4.963633,3.601981 7.65039,2.050781 l 2.259766,-1.304688 a 21,21 0 0 0 6.638672,3.8125 v 2.63086 c 0,3.1024 2.497209,5.599609 5.599609,5.599609 h 2.800782 c 3.1024,0 5.599609,-2.497209 5.599609,-5.599609 v -2.640625 a 21,21 0 0 0 6.623047,-3.810547 l 2.275391,1.3125 c 2.686757,1.5512 6.09919,0.635977 7.65039,-2.050781 l 1.400391,-2.421876 c 1.5512,-2.686757 0.635975,-6.09919 -2.050781,-7.65039 l -2.265626,-1.308594 A 21,21 0 0 0 -16.228405,46.5 21,21 0 0 0 -16.595593,42.669922 l 2.265626,-1.308594 c 2.686757,-1.5512 3.601981,-4.963632 2.050781,-7.65039 l -1.400391,-2.421876 c -1.5512,-2.686758 -4.963633,-3.601981 -7.65039,-2.050781 l -2.259766,1.304688 a 21,21 0 0 0 -6.638672,-3.814453 v -2.628907 c 0,-3.1024 -2.497209,-5.599609 -5.599609,-5.599609 z"
       id="path1" />
    <path
       style="fill:#18b4d9"
       d="m -38.628796,17.5 c -3.1024,0 -5.599609,2.497209 -5.599609,5.599609 v 2.625 a 21,21 0 0 0 -6.623047,3.826172 l -2.275391,-1.3125 c -2.686757,-1.5512 -6.09919,-0.635976 -7.65039,2.050781 l -1.400391,2.421876 c -1.5512,2.686758 -0.635976,6.09919 2.050781,7.65039 l 2.265626,1.308594 A 21,21 0 0 0 -58.228405,45.5 a 21,21 0 0 0 0.367188,3.830078 l -2.265626,1.308594 c -2.686757,1.5512 -3.601981,4.963633 -2.050781,7.65039 l 1.400391,2.421876 c 1.5512,2.686757 4.963633,3.601981 7.65039,2.050781 l 2.259766,-1.304688 a 21,21 0 0 0 6.638672,3.8125 v 2.63086 c 0,3.1024 2.497209,5.599609 5.599609,5.599609 h 2.800782 c 3.1024,0 5.599609,-2.497209 5.599609,-5.599609 v -2.640625 a 21,21 0 0 0 6.623047,-3.810547 l 2.275391,1.3125 c 2.686757,1.5512 6.09919,0.635976 7.65039,-2.050781 l 1.400391,-2.421876 c 1.5512,-2.686757 0.635975,-6.09919 -2.050781,-7.65039 l -2.265626,-1.308594 A 21,21 0 0 0 -16.228405,45.5 21,21 0 0 0 -16.595593,41.669922 l 2.265626,-1.308594 c 2.686757,-1.5512 3.601981,-4.963632 2.050781,-7.65039 l -1.400391,-2.421876 c -1.5512,-2.686758 -4.963634,-3.601981 -7.65039,-2.050781 l -2.259766,1.304688 a 21,21 0 0 0 -6.638672,-3.814453 v -2.628907 c 0,-3.1024 -2.497209,-5.599609 -5.599609,-5.599609 z"
       id="path2" />
    <path
       style="opacity:0.2;fill:#ffffff"
       d="m -38.628796,17.5 c -3.1024,0 -5.599609,2.497209 -5.599609,5.599609 v 1 c 0,-3.1024 2.497209,-5.599609 5.599609,-5.599609 h 2.800782 c 3.1024,0 5.599609,2.497209 5.599609,5.599609 v -1 c 0,-3.1024 -2.497209,-5.599609 -5.599609,-5.599609 z m -5.599609,8.224609 a 21,21 0 0 0 -6.623047,3.826172 l -2.275391,-1.3125 c -2.686757,-1.5512 -6.09919,-0.635976 -7.65039,2.050781 l -1.400391,2.421876 c -0.603356,1.045044 -0.828609,2.200037 -0.726562,3.3125 0.06974,-0.789767 0.302707,-1.578362 0.726562,-2.3125 l 1.400391,-2.421876 c 1.5512,-2.686757 4.963633,-3.601981 7.65039,-2.050781 l 2.275391,1.3125 a 21,21 0 0 1 6.623047,-3.826172 z m 14,0.0039 v 1 a 21,21 0 0 1 6.638672,3.814453 l 2.259766,-1.304688 c 2.686757,-1.5512 6.09919,-0.635977 7.65039,2.050781 l 1.400391,2.421876 c 0.423855,0.734138 0.656827,1.522733 0.726562,2.3125 0.102046,-1.112463 -0.123206,-2.267456 -0.726562,-3.3125 l -1.400391,-2.421876 c -1.5512,-2.686758 -4.963633,-3.601981 -7.65039,-2.050781 l -2.259766,1.304688 a 21,21 0 0 0 -6.638672,-3.814446 z m 13.767578,16.863281 -0.134766,0.07813 a 21,21 0 0 1 0.341797,3.371096 21,21 0 0 0 0.02539,-0.541016 21,21 0 0 0 -0.232422,-2.908203 z m -41.529297,0.0039 a 21,21 0 0 0 -0.238281,2.90431 21,21 0 0 0 0.02539,0.458984 21,21 0 0 1 0.341797,-3.289062 z m 41.523438,6.808594 a 21,21 0 0 1 -0.128907,0.925781 l 2.265626,1.308594 c 1.641712,0.947843 2.617034,2.590267 2.777343,4.33789 0.185479,-2.100574 -0.824725,-4.210545 -2.777343,-5.33789 z m -41.529297,0.0039 -2.13086,1.230469 c -1.952618,1.127345 -2.962822,3.237316 -2.777343,5.33789 0.160309,-1.747623 1.135631,-3.390047 2.777343,-4.33789 l 2.265626,-1.308594 a 21,21 0 0 1 -0.134766,-0.921875 z"
       id="path3" />
    <path
       style="opacity:0.2"
       d="m -37.228405,34.500344 c -6.627304,0 -12,5.372697 -12,12 v 17.212891 a 21,21 0 0 0 5,2.55664 v 2.63086 c 0,1.191521 0.370482,2.291468 1,3.197265 V 56.87925 c 1.76666,1.02362 3.811304,1.621094 6,1.621094 6.627303,0 12,-5.372696 12,-12 0,-6.627303 -5.372697,-12 -12,-12 z m 0,6 a 5.9999127,5.9999127 0 0 1 6,6 5.9999127,5.9999127 0 0 1 -6,6 5.9999127,5.9999127 0 0 1 -6,-6 5.9999127,5.9999127 0 0 1 6,-6 z"
       id="path4" />
    <path
       style="fill:#ffffff"
       d="m -37.228405,33.5 c -6.627304,0 -12,5.372697 -12,12 v 17.212891 a 21,21 0 0 0 5,2.55664 v 2.63086 c 0,1.191521 0.370482,2.291468 1,3.197265 v -15.21875 c 1.76666,1.02362 3.811304,1.621094 6,1.621094 6.627303,0 12,-5.372696 12,-12 0,-6.627303 -5.372697,-12 -12,-12 z m 0,6 a 5.9999127,5.9999127 0 0 1 6,6 5.9999127,5.9999127 0 0 1 -6,6 5.9999127,5.9999127 0 0 1 -6,-6 5.9999127,5.9999127 0 0 1 6,-6 z"
       id="path5" />
  </g>
</svg>
