<?xml version="1.0" encoding="UTF-8" standalone="no"?>
<svg
   width="62"
   height="62"
   version="1.1"
   id="svg4"
   sodipodi:docname="pritunl_client_electron.svg"
   inkscape:version="1.4 (unknown)"
   xmlns:inkscape="http://www.inkscape.org/namespaces/inkscape"
   xmlns:sodipodi="http://sodipodi.sourceforge.net/DTD/sodipodi-0.dtd"
   xmlns:xlink="http://www.w3.org/1999/xlink"
   xmlns="http://www.w3.org/2000/svg"
   xmlns:svg="http://www.w3.org/2000/svg">
  <defs
     id="defs4">
    <linearGradient
       id="linearGradient4"
       inkscape:collect="always">
      <stop
         style="stop-color:#2d3d53;stop-opacity:1;"
         offset="0"
         id="stop4" />
      <stop
         style="stop-color:#374762;stop-opacity:1;"
         offset="1"
         id="stop5" />
    </linearGradient>
    <linearGradient
       inkscape:collect="always"
       xlink:href="#linearGradient4"
       id="linearGradient5"
       x1="33.428738"
       y1="61"
       x2="33.093723"
       y2="5"
       gradientUnits="userSpaceOnUse" />
  </defs>
  <sodipodi:namedview
     id="namedview4"
     pagecolor="#ffffff"
     bordercolor="#000000"
     borderopacity="0.25"
     inkscape:showpageshadow="2"
     inkscape:pageopacity="0.0"
     inkscape:pagecheckerboard="0"
     inkscape:deskcolor="#d1d1d1"
     inkscape:zoom="12.109375"
     inkscape:cx="32"
     inkscape:cy="32"
     inkscape:window-width="1920"
     inkscape:window-height="998"
     inkscape:window-x="0"
     inkscape:window-y="0"
     inkscape:window-maximized="1"
     inkscape:current-layer="svg4" />
  <g
     id="g4"
     transform="matrix(0.98214286,0,0,0.98245614,-0.42857152,-0.92982455)">
    <rect
       style="opacity:0.2"
       width="56"
       height="56"
       x="4"
       y="5"
       rx="7"
       ry="7"
       id="rect1" />
    <rect
       style="fill:url(#linearGradient5)"
       width="56"
       height="56"
       x="4"
       y="4"
       rx="7"
       ry="7"
       id="rect2" />
    <path
       style="opacity:0.2"
       d="m 19.65625,15 c -2.596813,3.9e-5 -4.228117,0.655002 -4.914062,1.964844 -0.342979,0.67923 -0.56998,1.286693 -0.667969,1.820312 -0.04901,0.53369 -0.07423,1.36468 -0.07422,2.480468 V 61 H 26 V 49.789124 c 1.812846,2.231648 5.298686,3.347656 9.316406,3.347656 4.01767,0 7.788636,-1.86598 11.316406,-5.601562 C 50.209504,43.799648 51.99996,38.65938 52,33.710938 c -4e-5,-4.948406 -1.790496,-9.303456 -5.367188,-13.039062 -3.576766,-3.735542 -7.369044,-5.597618 -11.386718,-5.597657 -3.968722,3.9e-5 -7.317844,1.258558 -9.179688,3.78125 C 25.919402,17.594142 25.20826,16.654158 24.277344,16.023438 23.395396,15.344281 22.253042,15.000039 19.65625,15 Z m 12.246094,14 c 1.824298,2.4e-5 3.291376,0.63157 4.414062,1.894532 1.122632,1.216236 1.68357,2.600896 1.683594,4.14453 -2.4e-5,1.543674 -0.608028,2.920528 -1.824218,4.13672 -1.169458,1.216226 -2.624724,1.82423 -4.35547,1.824218 -1.684006,1.2e-5 -3.084392,-0.607992 -4.20703,-1.824218 C 26.537386,37.912808 25.999984,36.535958 26,35.039062 c -1.6e-5,-1.496854 0.537386,-2.881516 1.613282,-4.14453 C 28.689144,29.63157 30.124786,29.000024 31.902344,29 Z"
       id="path2" />
    <path
       style="fill:#f2f2f2;fill-opacity:1"
       d="m 19.65625,14 c -2.596813,3.9e-5 -4.228117,0.655002 -4.914062,1.964844 -0.342979,0.67923 -0.56998,1.286693 -0.667969,1.820312 -0.04901,0.533689 -0.07423,1.364679 -0.07422,2.480468 V 60 H 26 V 48.789124 c 1.812846,2.231648 5.298686,3.347656 9.316406,3.347656 4.01767,0 7.788636,-1.86598 11.316406,-5.601562 C 50.209504,42.799648 51.99996,37.65938 52,32.710938 c -4e-5,-4.948406 -1.790496,-9.303456 -5.367188,-13.039063 -3.576766,-3.735541 -7.369044,-5.597617 -11.386718,-5.597656 -3.968722,3.9e-5 -7.317844,1.258558 -9.179688,3.78125 C 25.919402,16.594142 25.20826,15.654158 24.277344,15.023438 23.395396,14.344281 22.253042,14.000039 19.65625,14 Z m 12.246094,14 c 1.824298,2.4e-5 3.291376,0.63157 4.414062,1.894532 1.122632,1.216236 1.68357,2.600896 1.683594,4.14453 -2.4e-5,1.543674 -0.608028,2.920528 -1.824218,4.13672 -1.169458,1.216226 -2.624724,1.82423 -4.35547,1.824218 -1.684006,1.2e-5 -3.084392,-0.607992 -4.20703,-1.824218 C 26.537386,36.912808 25.999984,35.535958 26,34.039062 c -1.6e-5,-1.496854 0.537386,-2.881516 1.613282,-4.14453 C 28.689144,28.63157 30.124786,28.000024 31.902344,28 Z"
       id="path3" />
    <path
       style="opacity:0.1;fill:#ffffff"
       d="M 11,4 C 7.122,4 4,7.122 4,11 v 1 C 4,8.122 7.122,5 11,5 h 42 c 3.878,0 7,3.122 7,7 V 11 C 60,7.122 56.878,4 53,4 Z"
       id="path4" />
  </g>
</svg>
