<?xml version="1.0" encoding="UTF-8" standalone="no"?>
<svg
   width="62"
   height="62"
   version="1"
   id="svg5"
   sodipodi:docname="prey.svg"
   inkscape:version="1.4 (unknown)"
   xmlns:inkscape="http://www.inkscape.org/namespaces/inkscape"
   xmlns:sodipodi="http://sodipodi.sourceforge.net/DTD/sodipodi-0.dtd"
   xmlns:xlink="http://www.w3.org/1999/xlink"
   xmlns="http://www.w3.org/2000/svg"
   xmlns:svg="http://www.w3.org/2000/svg">
  <defs
     id="defs5">
    <linearGradient
       id="linearGradient1"
       inkscape:collect="always">
      <stop
         style="stop-color:#2d3d53;stop-opacity:1;"
         offset="0"
         id="stop1" />
      <stop
         style="stop-color:#5599ff;stop-opacity:1"
         offset="1"
         id="stop2" />
    </linearGradient>
    <linearGradient
       inkscape:collect="always"
       xlink:href="#linearGradient1"
       id="linearGradient2"
       x1="31"
       y1="58.017544"
       x2="32.156773"
       y2="3.9824562"
       gradientUnits="userSpaceOnUse" />
  </defs>
  <sodipodi:namedview
     id="namedview5"
     pagecolor="#ffffff"
     bordercolor="#000000"
     borderopacity="0.25"
     inkscape:showpageshadow="2"
     inkscape:pageopacity="0.0"
     inkscape:pagecheckerboard="0"
     inkscape:deskcolor="#d1d1d1"
     inkscape:zoom="12.109375"
     inkscape:cx="32"
     inkscape:cy="33.734194"
     inkscape:window-width="1920"
     inkscape:window-height="998"
     inkscape:window-x="0"
     inkscape:window-y="0"
     inkscape:window-maximized="1"
     inkscape:current-layer="svg5" />
  <ellipse
     style="opacity:0.2;stroke-width:0.9823"
     cx="31"
     cy="31.491228"
     id="circle1"
     rx="27.5"
     ry="27.508772" />
  <ellipse
     style="fill:url(#linearGradient2);fill-opacity:1;stroke-width:0.9823"
     cx="31"
     cy="30.508772"
     id="circle2"
     rx="27.5"
     ry="27.508772" />
  <path
     style="opacity:0.1;fill:#ffffff;stroke-width:0.9823"
     d="M 31,3 A 27.5,27.508772 0 0 0 3.4999999,30.508772 27.5,27.508772 0 0 0 3.5172641,30.992325 27.5,27.508772 0 0 1 31,3.9824562 27.5,27.508772 0 0 1 58.475062,30.992325 27.5,27.508772 0 0 0 58.5,30.508772 27.5,27.508772 0 0 0 31,3 Z"
     id="path5" />
  <g
     id="g1"
     transform="matrix(1.0181823,0,0,0.99846264,-0.81492552,-9.4472916)">
    <path
       d="m 42.717726,22.948468 c -0.06526,0.0043 -0.132417,0.01186 -0.199499,0.02304 l -19.696561,3.285075 c -1.07341,0.178963 -1.937428,1.198723 -1.937428,2.287283 v 18.021925 a 5.8928557,5.8947353 0 0 0 -1.964291,-0.33772 5.8928557,5.8947353 0 0 0 -5.89285,5.894743 5.8928557,5.8947353 0 0 0 5.89285,5.89473 5.8928557,5.8947353 0 0 0 5.892859,-5.89473 V 33.782348 l 15.714282,-2.621167 v 11.474776 a 5.8928557,5.8947353 0 0 0 -1.964283,-0.337713 5.8928557,5.8947353 0 0 0 -5.892859,5.89473 5.8928557,5.8947353 0 0 0 5.892859,5.89474 5.8928557,5.8947353 0 0 0 5.89285,-5.89474 V 24.614037 c 0,-1.020527 -0.758531,-1.728594 -1.737929,-1.665569 z"
       style="opacity:0.2;stroke-width:0.982302"
       id="path2-3" />
    <path
       d="m 42.717726,21.966008 c -0.06526,0.0043 -0.132417,0.01186 -0.199499,0.02304 l -19.696561,3.285083 c -1.07341,0.178955 -1.937428,1.198716 -1.937428,2.287276 v 18.021921 a 5.8928557,5.8947353 0 0 0 -1.964291,-0.33772 5.8928557,5.8947353 0 0 0 -5.89285,5.894736 5.8928557,5.8947353 0 0 0 5.89285,5.89474 5.8928557,5.8947353 0 0 0 5.892859,-5.89474 V 32.799889 l 15.714282,-2.62116 v 11.474776 a 5.8928557,5.8947353 0 0 0 -1.964283,-0.337719 5.8928557,5.8947353 0 0 0 -5.892859,5.894738 5.8928557,5.8947353 0 0 0 5.892859,5.89473 5.8928557,5.8947353 0 0 0 5.89285,-5.89473 V 23.63158 c 0,-1.020529 -0.758531,-1.728588 -1.737929,-1.665572 z"
       style="fill:#ffffff;stroke-width:0.982302"
       id="path3-6" />
  </g>
</svg>
