<?xml version="1.0" encoding="UTF-8" standalone="no"?>
<svg
   width="62"
   height="62"
   version="1.1"
   id="svg12"
   sodipodi:docname="projecteur.svg"
   inkscape:version="1.4 (unknown)"
   xmlns:inkscape="http://www.inkscape.org/namespaces/inkscape"
   xmlns:sodipodi="http://sodipodi.sourceforge.net/DTD/sodipodi-0.dtd"
   xmlns:xlink="http://www.w3.org/1999/xlink"
   xmlns="http://www.w3.org/2000/svg"
   xmlns:svg="http://www.w3.org/2000/svg">
  <defs
     id="defs12">
    <linearGradient
       id="linearGradient3"
       inkscape:collect="always">
      <stop
         style="stop-color:#2d3d53;stop-opacity:1;"
         offset="0"
         id="stop1" />
      <stop
         style="stop-color:#5879a7;stop-opacity:1;"
         offset="0.53666669"
         id="stop2" />
      <stop
         style="stop-color:#2d3d53;stop-opacity:1;"
         offset="1"
         id="stop3" />
    </linearGradient>
    <linearGradient
       id="linearGradient19"
       inkscape:collect="always">
      <stop
         style="stop-color:#ffdd55;stop-opacity:1"
         offset="0"
         id="stop19" />
      <stop
         style="stop-color:#fff6d5;stop-opacity:1"
         offset="1"
         id="stop20" />
    </linearGradient>
    <linearGradient
       id="linearGradient12"
       inkscape:collect="always">
      <stop
         style="stop-color:#233143;stop-opacity:1;"
         offset="0"
         id="stop12" />
      <stop
         style="stop-color:#5678a5;stop-opacity:1;"
         offset="0.53666669"
         id="stop14" />
      <stop
         style="stop-color:#233143;stop-opacity:1;"
         offset="1"
         id="stop13" />
    </linearGradient>
    <linearGradient
       inkscape:collect="always"
       xlink:href="#linearGradient3"
       id="linearGradient13"
       x1="17"
       y1="27.5"
       x2="47"
       y2="27.5"
       gradientUnits="userSpaceOnUse"
       gradientTransform="matrix(-0.74599672,-0.81397149,0.79520012,-0.737062,29.935259,79.923351)" />
    <linearGradient
       inkscape:collect="always"
       xlink:href="#linearGradient12"
       id="linearGradient18"
       x1="17"
       y1="45"
       x2="47"
       y2="45"
       gradientUnits="userSpaceOnUse"
       gradientTransform="matrix(1.1041108,0,0,1.0842526,-78.967352,-31.932182)" />
    <linearGradient
       inkscape:collect="always"
       xlink:href="#linearGradient19"
       id="linearGradient20"
       x1="32"
       y1="53"
       x2="31.097364"
       y2="40.120319"
       gradientUnits="userSpaceOnUse"
       gradientTransform="matrix(-0.74599672,-0.81397149,0.79520012,-0.737062,29.935259,79.923351)" />
  </defs>
  <sodipodi:namedview
     id="namedview12"
     pagecolor="#ffffff"
     bordercolor="#000000"
     borderopacity="0.25"
     inkscape:showpageshadow="2"
     inkscape:pageopacity="0.0"
     inkscape:pagecheckerboard="0"
     inkscape:deskcolor="#d1d1d1"
     inkscape:zoom="10"
     inkscape:cx="30.15"
     inkscape:cy="34.65"
     inkscape:window-width="1920"
     inkscape:window-height="998"
     inkscape:window-x="0"
     inkscape:window-y="0"
     inkscape:window-maximized="1"
     inkscape:current-layer="svg12" />
  <g
     id="g1"
     transform="matrix(-0.09018865,1.1036539,-1.101473,-0.09036722,64.615273,-4.3434421)">
    <ellipse
       style="opacity:0.2;stroke-width:1.09414"
       cx="-43.635807"
       cy="17.943436"
       id="circle1"
       rx="16.561663"
       ry="16.263788"
       transform="matrix(-0.67565385,-0.73721902,0.73340856,-0.67978811,0,0)" />
    <path
       style="opacity:0.2;fill:none;stroke:#000000;stroke-width:3.28239;stroke-linecap:round"
       d="m 18.204836,11.761209 30.585865,33.37283"
       id="path1" />
    <path
       style="fill:#3e5776;fill-opacity:1;stroke:#3e5776;stroke-width:3.28239;stroke-linecap:round;stroke-opacity:1"
       d="m 17.409636,12.498271 30.585865,33.37283"
       id="path3" />
    <path
       style="fill:url(#linearGradient13);stroke-width:1.09413"
       width="30"
       height="35"
       x="17"
       y="10"
       d="M 14.015365,46.505643 A 16.56858,16.256741 55.941077 0 1 14.753416,23.240141 L 30.657419,8.4989007 53.03732,32.918045 37.133317,47.659285 A 16.56858,16.256741 55.941077 0 1 14.015365,46.505643 Z"
       id="path5" />
    <ellipse
       style="fill:url(#linearGradient18);stroke-width:1.09414"
       cx="-43.635807"
       cy="16.859182"
       id="circle5"
       rx="16.561663"
       ry="16.263788"
       transform="matrix(-0.67565385,-0.73721902,0.73340856,-0.67978811,0,0)" />
    <path
       style="fill:#243143;fill-opacity:1;stroke-width:1.09413"
       d="m 27.533767,33.975589 a 19.882296,19.508089 55.941082 0 0 17.613677,6.255493 L 46.747163,38.74832 A 18.777724,18.424307 55.941072 0 1 28.328967,33.238527 18.777724,18.424307 55.941072 0 1 24.305137,14.38676 l -1.557785,1.443893 a 19.882296,19.508089 55.941082 0 0 4.786415,18.144936 z"
       id="path7" />
    <path
       style="fill:url(#linearGradient20);stroke-width:1.09413"
       d="m 32.304968,29.553217 c 4.434824,4.838923 11.554126,5.665101 16.7772,2.258726 C 52.884151,26.853926 52.644144,19.651282 48.20897,14.811977 43.773796,9.9726725 36.654958,9.1459386 31.43177,12.553251 27.630725,17.51123 27.870143,24.714294 32.304968,29.553217 Z"
       id="path8" />
    <path
       style="opacity:0.307143;fill:#ffffff;stroke-width:1.09413"
       d="M 29.919367,31.764403 A 16.56858,16.256741 55.941077 0 0 53.03732,32.918045 16.56858,16.256741 55.941077 0 0 53.408694,32.520898 16.56858,16.256741 55.941077 0 1 30.714568,31.027341 16.56858,16.256741 55.941077 0 1 30.873991,8.3246242 16.56858,16.256741 55.941077 0 0 30.657419,8.4989007 16.56858,16.256741 55.941077 0 0 29.919367,31.764403 Z"
       id="path9" />
    <path
       style="opacity:0.1;fill:#ffffff;stroke-width:1.09413"
       d="m 14.015365,46.505643 a 16.56858,16.256741 55.941077 0 0 23.117952,1.153642 l 0.795201,-0.737062 A 16.56858,16.256741 55.941077 0 1 14.810565,45.768581 16.56858,16.256741 55.941077 0 1 15.548617,22.503079 l -0.795201,0.737062 a 16.56858,16.256741 55.941077 0 0 -0.738051,23.265502 z"
       id="path10" />
    <path
       style="fill:#121923;fill-opacity:1;stroke-width:1.09413"
       d="m 18.128662,44.57486 a 0.828429,0.81283705 55.941071 0 0 1.155897,0.05768 0.828429,0.81283705 55.941071 0 0 0.0369,-1.163275 0.828429,0.81283705 55.941071 0 0 -1.155897,-0.05768 0.828429,0.81283705 55.941071 0 0 -0.0369,1.163276 z M 16.26367,42.539931 a 0.828429,0.81283705 55.941071 0 0 1.155898,0.05768 0.828429,0.81283705 55.941071 0 0 0.0369,-1.163274 0.828429,0.81283705 55.941071 0 0 -1.155897,-0.05768 0.828429,0.81283705 55.941071 0 0 -0.0369,1.163275 z m 4.64466,3.463158 a 0.66274323,0.65026967 55.94107 0 0 0.924115,0.04612 0.66274323,0.65026967 55.94107 0 0 0.0295,-0.930015 0.66274323,0.65026967 55.94107 0 0 -0.925574,-0.04771 0.66274323,0.65026967 55.94107 0 0 -0.02805,0.931604 z m -5.602261,-6.112734 a 0.66274323,0.65026967 55.94107 0 0 0.924116,0.04612 0.66274323,0.65026967 55.94107 0 0 0.0295,-0.930014 0.66274323,0.65026967 55.94107 0 0 -0.924118,-0.04612 0.66274323,0.65026967 55.94107 0 0 -0.0295,0.930015 z m 9.050368,6.66559 a 0.66274323,0.65026967 55.94107 0 0 0.924115,0.04612 0.66274323,0.65026967 55.94107 0 0 0.0295,-0.930013 0.66274323,0.65026967 55.94107 0 0 -0.924117,-0.04612 0.66274323,0.65026967 55.94107 0 0 -0.0295,0.930015 z m -3.842175,-4.192272 a 0.828429,0.81283705 55.941071 0 0 1.155897,0.05768 0.828429,0.81283705 55.941071 0 0 0.0369,-1.163276 0.828429,0.81283705 55.941071 0 0 -1.155898,-0.05768 0.828429,0.81283705 55.941071 0 0 -0.0369,1.163274 z M 18.64927,40.328745 a 0.828429,0.81283705 55.941071 0 0 1.155898,0.05768 0.828429,0.81283705 55.941071 0 0 0.0369,-1.163276 0.828429,0.81283705 55.941071 0 0 -1.155898,-0.05768 0.828429,0.81283705 55.941071 0 0 -0.0369,1.163275 z m -3.617792,-3.947444 a 0.66274323,0.65026967 55.94107 0 0 0.924116,0.04612 0.66274323,0.65026967 55.94107 0 0 0.0295,-0.930015 0.66274323,0.65026967 55.94107 0 0 -0.924116,-0.04612 0.66274323,0.65026967 55.94107 0 0 -0.0295,0.930015 z m 8.170818,7.495537 a 0.66274323,0.65026967 55.94107 0 0 0.924116,0.04612 0.66274323,0.65026967 55.94107 0 0 0.0295,-0.930014 0.66274323,0.65026967 55.94107 0 0 -0.925573,-0.04771 0.66274323,0.65026967 55.94107 0 0 -0.02805,0.931604 z m -5.60226,-6.112735 a 0.66274323,0.65026967 55.94107 0 0 0.924115,0.04612 0.66274323,0.65026967 55.94107 0 0 0.0295,-0.930013 0.66274323,0.65026967 55.94107 0 0 -0.924117,-0.04612 0.66274323,0.65026967 55.94107 0 0 -0.0295,0.930015 z m 9.515503,9.395271 a 0.55228601,0.54189137 55.941068 0 0 0.770598,0.03845 0.55228601,0.54189137 55.941068 0 0 0.0246,-0.775517 0.55228601,0.54189137 55.941068 0 0 -0.770599,-0.03845 0.55228601,0.54189137 55.941068 0 0 -0.0246,0.775517 z M 14.433594,33.321858 a 0.55228601,0.54189137 55.941068 0 0 0.770598,0.03845 0.55228601,0.54189137 55.941068 0 0 0.0246,-0.775517 0.55228601,0.54189137 55.941068 0 0 -0.770599,-0.03845 0.55228601,0.54189137 55.941068 0 0 -0.0246,0.775516 z m 12.216809,11.107836 a 0.66274323,0.65026967 55.94107 0 0 0.924115,0.04612 0.66274323,0.65026967 55.94107 0 0 0.0295,-0.930013 0.66274323,0.65026967 55.94107 0 0 -0.924116,-0.04612 0.66274323,0.65026967 55.94107 0 0 -0.0295,0.930015 z M 17.325443,34.25505 a 0.66274323,0.65026967 55.94107 0 0 0.924116,0.04612 0.66274323,0.65026967 55.94107 0 0 0.0295,-0.930014 0.66274323,0.65026967 55.94107 0 0 -0.924116,-0.04612 0.66274323,0.65026967 55.94107 0 0 -0.0295,0.930014 z m 12.872489,13.058143 a 0.55228601,0.54189137 55.941068 0 0 0.770599,0.03845 0.55228601,0.54189137 55.941068 0 0 0.0246,-0.775516 0.55228601,0.54189137 55.941068 0 0 -0.770598,-0.03846 0.55228601,0.54189137 55.941068 0 0 -0.0246,0.775518 z M 14.532001,30.219792 a 0.55228601,0.54189137 55.941068 0 0 0.770599,0.03845 0.55228601,0.54189137 55.941068 0 0 0.0246,-0.775516 0.55228601,0.54189137 55.941068 0 0 -0.770598,-0.03846 0.55228601,0.54189137 55.941068 0 0 -0.0246,0.775518 z m 14.879057,14.811891 a 0.55228601,0.54189137 55.941068 0 0 0.770599,0.03845 0.55228601,0.54189137 55.941068 0 0 0.0246,-0.775517 0.55228601,0.54189137 55.941068 0 0 -0.770598,-0.03845 0.55228601,0.54189137 55.941068 0 0 -0.0246,0.775517 z M 16.729113,31.194167 a 0.55228601,0.54189137 55.941068 0 0 0.770599,0.03845 0.55228601,0.54189137 55.941068 0 0 0.0246,-0.775516 0.55228601,0.54189137 55.941068 0 0 -0.770598,-0.03846 0.55228601,0.54189137 55.941068 0 0 -0.0246,0.775517 z m 16.546311,16.427342 a 0.44182881,0.4335131 55.941066 0 0 0.617081,0.03079 0.44182881,0.4335131 55.941066 0 0 0.01815,-0.61958 0.44182881,0.4335131 55.941066 0 0 -0.615527,-0.03223 0.44182881,0.4335131 55.941066 0 0 -0.0197,0.621019 z M 14.476891,27.110064 a 0.44182881,0.4335131 55.941066 0 0 0.61708,0.03079 0.44182881,0.4335131 55.941066 0 0 0.01815,-0.619579 0.44182881,0.4335131 55.941066 0 0 -0.615528,-0.03223 0.44182881,0.4335131 55.941066 0 0 -0.0197,0.62102 z m 18.01656,18.075438 a 0.55228601,0.54189137 55.941068 0 0 0.770599,0.03845 0.55228601,0.54189137 55.941068 0 0 0.0246,-0.775517 0.55228601,0.54189137 55.941068 0 0 -0.770599,-0.03845 0.55228601,0.54189137 55.941068 0 0 -0.0246,0.775517 z M 16.82752,28.092101 a 0.55228601,0.54189137 55.941068 0 0 0.770599,0.03845 0.55228601,0.54189137 55.941068 0 0 0.0246,-0.775518 0.55228601,0.54189137 55.941068 0 0 -0.770599,-0.03845 0.55228601,0.54189137 55.941068 0 0 -0.0246,0.775517 z m 18.673533,17.466498 a 0.44182881,0.4335131 55.941066 0 0 0.61708,0.03079 0.44182881,0.4335131 55.941066 0 0 0.0197,-0.62102 0.44182881,0.4335131 55.941066 0 0 -0.617081,-0.03079 0.44182881,0.4335131 55.941066 0 0 -0.0197,0.621018 z M 16.702519,25.047154 a 0.44182881,0.4335131 55.941066 0 0 0.61708,0.03079 0.44182881,0.4335131 55.941066 0 0 0.0197,-0.62102 0.44182881,0.4335131 55.941066 0 0 -0.617082,-0.03079 0.44182881,0.4335131 55.941066 0 0 -0.0197,0.621019 z"
       id="path12" />
  </g>
</svg>
