<?xml version="1.0" encoding="UTF-8" standalone="no"?>
<svg
   width="62"
   height="62"
   version="1.1"
   id="svg4"
   sodipodi:docname="psi-plus.svg"
   inkscape:version="1.4 (unknown)"
   xmlns:inkscape="http://www.inkscape.org/namespaces/inkscape"
   xmlns:sodipodi="http://sodipodi.sourceforge.net/DTD/sodipodi-0.dtd"
   xmlns:xlink="http://www.w3.org/1999/xlink"
   xmlns="http://www.w3.org/2000/svg"
   xmlns:svg="http://www.w3.org/2000/svg">
  <defs
     id="defs4">
    <linearGradient
       id="linearGradient1"
       inkscape:collect="always">
      <stop
         style="stop-color:#00ccff;stop-opacity:1"
         offset="0"
         id="stop1" />
      <stop
         style="stop-color:#8d5fd3;stop-opacity:1"
         offset="1"
         id="stop2" />
    </linearGradient>
    <linearGradient
       id="linearGradient4"
       inkscape:collect="always">
      <stop
         style="stop-color:#2d3d53;stop-opacity:1;"
         offset="0"
         id="stop4" />
      <stop
         style="stop-color:#374762;stop-opacity:1;"
         offset="1"
         id="stop5" />
    </linearGradient>
    <linearGradient
       inkscape:collect="always"
       xlink:href="#linearGradient4"
       id="linearGradient5"
       x1="33.428738"
       y1="61"
       x2="33.093723"
       y2="5"
       gradientUnits="userSpaceOnUse"
       gradientTransform="matrix(0.98214286,0,0,0.98245614,-0.42857152,-0.92982455)" />
    <linearGradient
       inkscape:collect="always"
       xlink:href="#linearGradient1"
       id="linearGradient2"
       x1="31.323872"
       y1="50.736774"
       x2="31.187189"
       y2="19.518726"
       gradientUnits="userSpaceOnUse" />
  </defs>
  <sodipodi:namedview
     id="namedview4"
     pagecolor="#ffffff"
     bordercolor="#000000"
     borderopacity="0.25"
     inkscape:showpageshadow="2"
     inkscape:pageopacity="0.0"
     inkscape:pagecheckerboard="0"
     inkscape:deskcolor="#d1d1d1"
     inkscape:zoom="12.109375"
     inkscape:cx="32"
     inkscape:cy="58.425806"
     inkscape:window-width="1920"
     inkscape:window-height="998"
     inkscape:window-x="0"
     inkscape:window-y="0"
     inkscape:window-maximized="1"
     inkscape:current-layer="svg4" />
  <rect
     style="opacity:0.2;stroke-width:0.9823"
     width="55"
     height="55.017544"
     x="3.5"
     y="3.9824562"
     rx="6.875"
     ry="6.877193"
     id="rect1" />
  <rect
     style="fill:url(#linearGradient5);stroke-width:0.9823"
     width="55"
     height="55.017544"
     x="3.5"
     y="3"
     rx="6.875"
     ry="6.877193"
     id="rect2" />
  <path
     style="opacity:0.1;fill:#ffffff;stroke-width:0.9823"
     d="M 10.375,3 C 6.5662499,3 3.4999999,6.0672281 3.4999999,9.877193 v 0.982456 c 0,-3.8099648 3.06625,-6.8771928 6.8750001,-6.8771928 h 41.25 c 3.80875,0 6.875,3.067228 6.875,6.8771928 V 9.877193 C 58.5,6.0672281 55.43375,3 51.625,3 Z"
     id="path4" />
  <path
     d="m 49.909774,13.003082 c -0.428719,-1.81286 -2.2465,-2.936905 -4.06084,-2.510272 -0.09432,0.02228 -0.188638,0.04798 -0.279526,0.07882 -2.236229,0.72996 -4.184291,2.148691 -5.563133,4.054106 -1.380466,1.90366 -2.123007,4.194606 -2.119583,6.54556 v 5.376992 -0.0017 c -0.0034,2.547952 -1.322165,4.91246 -3.488064,6.254295 V 13.395798 c 0,-1.862558 -1.512521,-3.373845 -3.376601,-3.373845 -1.864078,0 -3.376599,1.511287 -3.376599,3.373845 v 19.936279 c -1.334194,-0.565465 -2.471143,-1.509575 -3.271984,-2.715867 -0.79913,-1.206293 -1.227867,-2.621646 -1.227867,-4.069503 v -6.16832 c 0,-2.081884 -0.583049,-4.124334 -1.685709,-5.894601 -1.100949,-1.768292 -2.67695,-3.19391 -4.547702,-4.11407 -0.804266,-0.4112354 -1.740587,-0.483218 -2.599773,-0.197052 -0.85743,0.28444 -1.565684,0.899588 -1.96527,1.71004 -0.39957,0.812207 -0.456176,1.747764 -0.159485,2.601073 0.29839,0.853309 0.926048,1.552432 1.742343,1.939673 1.51252,0.736805 2.46943,2.272085 2.462581,3.954709 v 6.16832 c 0,6.7991 4.836132,12.491483 11.253139,13.819281 v 8.262448 -0.002 c 0,1.862556 1.51252,3.37384 3.376598,3.37384 1.864081,0 3.3766,-1.511284 3.3766,-3.37384 v -8.50897 c 5.906,-1.68951 10.241221,-7.135108 10.241221,-13.571005 v -5.375239 c -0.0034,-1.895105 1.210702,-3.581195 3.009631,-4.180875 1.678863,-0.534629 2.66321,-2.272084 2.260199,-3.987256 z"
     id="path1"
     style="stroke-width:0.438831;fill:url(#linearGradient2)" />
  <g
     id="g1"
     transform="matrix(0.8125,0,0,0.8125,23,-3.8125)">
    <circle
       style="fill:#8d5fd3"
       cx="32"
       cy="65"
       r="16"
       id="circle5" />
    <rect
       style="fill:#ffffff"
       width="4"
       height="20"
       x="30"
       y="55"
       id="rect5" />
    <rect
       style="fill:#ffffff"
       width="4"
       height="20"
       x="63"
       y="-42"
       transform="rotate(90)"
       id="rect6" />
  </g>
</svg>
