<?xml version="1.0" encoding="UTF-8" standalone="no"?>
<svg
   width="62"
   height="62"
   version="1"
   id="svg7"
   sodipodi:docname="pspp.svg"
   inkscape:version="1.4 (unknown)"
   xmlns:inkscape="http://www.inkscape.org/namespaces/inkscape"
   xmlns:sodipodi="http://sodipodi.sourceforge.net/DTD/sodipodi-0.dtd"
   xmlns="http://www.w3.org/2000/svg"
   xmlns:svg="http://www.w3.org/2000/svg">
  <defs
     id="defs7" />
  <sodipodi:namedview
     id="namedview7"
     pagecolor="#ffffff"
     bordercolor="#000000"
     borderopacity="0.25"
     inkscape:showpageshadow="2"
     inkscape:pageopacity="0.0"
     inkscape:pagecheckerboard="0"
     inkscape:deskcolor="#d1d1d1"
     inkscape:zoom="6.0546875"
     inkscape:cx="21.470968"
     inkscape:cy="31.132903"
     inkscape:window-width="1920"
     inkscape:window-height="998"
     inkscape:window-x="0"
     inkscape:window-y="0"
     inkscape:window-maximized="1"
     inkscape:current-layer="svg7" />
  <g
     id="g7"
     transform="translate(-1,-0.5)">
    <circle
       style="opacity:0.2"
       cx="29"
       cy="33"
       r="25"
       id="circle1" />
    <circle
       style="fill:#c83771"
       cx="29"
       cy="32"
       r="25"
       id="circle2" />
    <path
       style="opacity:0.1;fill:#ffffff"
       d="M 29,7 A 25,25 0 0 0 4,32 25,25 0 0 0 4.0175781,32.490234 25,25 0 0 1 29,8 25,25 0 0 1 53.974609,32.490234 25,25 0 0 0 54,32 25,25 0 0 0 29,7 Z"
       id="path2" />
    <path
       style="opacity:0.2"
       d="M 51.213204,53.2 30,31.986794 51.213204,10.77359 c 11.71573,11.715726 11.715726,30.710682 0,42.42641 z"
       id="path3" />
    <path
       style="fill:#00ccff"
       d="M 51.213204,52.2 30,30.986794 51.213204,9.77359 c 11.71573,11.715726 11.715726,30.710682 0,42.42641 z"
       id="path4" />
    <path
       style="opacity:0.2"
       d="M 30,6 V 32 L 48.385484,13.614514 C 43.680412,8.90944 37.179702,6 30,6 Z"
       id="path5" />
    <path
       style="fill:#00d455"
       d="M 30,5 V 31 L 48.385484,12.614514 C 43.680412,7.90944 37.179702,5 30,5 Z"
       id="path6" />
    <path
       style="opacity:0.1;fill:#ffffff"
       d="m 30,5 v 1 c 6.925271,0 13.213308,2.7127206 17.873047,7.126953 l 0.511719,-0.511719 C 43.679694,7.9101604 37.179702,5 30,5 Z"
       id="path7" />
  </g>
</svg>
