<?xml version="1.0" encoding="UTF-8" standalone="no"?>
<svg
   width="62"
   height="62"
   version="1.1"
   id="svg29"
   sodipodi:docname="pulseUi.svg"
   inkscape:version="1.4 (unknown)"
   xmlns:inkscape="http://www.inkscape.org/namespaces/inkscape"
   xmlns:sodipodi="http://sodipodi.sourceforge.net/DTD/sodipodi-0.dtd"
   xmlns:xlink="http://www.w3.org/1999/xlink"
   xmlns="http://www.w3.org/2000/svg"
   xmlns:svg="http://www.w3.org/2000/svg">
  <defs
     id="defs29">
    <linearGradient
       id="linearGradient29"
       inkscape:collect="always">
      <stop
         style="stop-color:#2d3d53;stop-opacity:1;"
         offset="0"
         id="stop29" />
      <stop
         style="stop-color:#354864;stop-opacity:1;"
         offset="1"
         id="stop30" />
    </linearGradient>
    <linearGradient
       inkscape:collect="always"
       xlink:href="#linearGradient29"
       id="linearGradient30"
       x1="30.782633"
       y1="60"
       x2="30.193521"
       y2="5"
       gradientUnits="userSpaceOnUse"
       gradientTransform="matrix(0.98214286,0,0,0.98245614,-0.42857152,-0.92982455)" />
  </defs>
  <sodipodi:namedview
     id="namedview29"
     pagecolor="#ffffff"
     bordercolor="#000000"
     borderopacity="0.25"
     inkscape:showpageshadow="2"
     inkscape:pageopacity="0.0"
     inkscape:pagecheckerboard="0"
     inkscape:deskcolor="#d1d1d1"
     inkscape:zoom="7.0710678"
     inkscape:cx="20.435386"
     inkscape:cy="48.153972"
     inkscape:window-width="1920"
     inkscape:window-height="998"
     inkscape:window-x="0"
     inkscape:window-y="0"
     inkscape:window-maximized="1"
     inkscape:current-layer="svg29" />
  <rect
     style="opacity:0.2;stroke-width:0.9823"
     width="55"
     height="55.017544"
     x="3.5"
     y="3.9824562"
     ry="13.754386"
     id="rect1" />
  <rect
     style="fill:url(#linearGradient30);stroke-width:0.9823"
     width="55"
     height="55.017544"
     x="3.5"
     y="3"
     ry="13.754386"
     id="rect2" />
  <path
     style="opacity:0.1;fill:#ffffff;stroke-width:0.9823"
     d="M 17.25,3 C 9.6324999,3 3.4999999,9.1344561 3.4999999,16.754386 v 0.982456 c 0,-7.61993 6.1325,-13.7543858 13.7500001,-13.7543858 h 27.5 c 7.6175,0 13.75,6.1344558 13.75,13.7543858 V 16.754386 C 58.5,9.1344561 52.3675,3 44.75,3 Z"
     id="path28" />
  <g
     id="g1"
     transform="translate(10,-51.50877)">
    <path
       style="opacity:0.2;stroke-width:1.03885"
       d="m 21.954899,63.023792 c -0.671929,0 -1.345114,0.161076 -2.049408,0.48018 -0.636503,0.288389 -1.027413,0.634876 -4.448612,3.96151 -3.408242,3.314033 -3.781428,3.710808 -4.074136,4.321651 -0.442293,0.922998 -0.57574,1.76983 -0.419753,2.669013 0.261823,1.509381 -0.206828,1.000378 10.835525,11.728475 5.528329,5.370995 10.077336,9.767599 10.111243,9.767727 0.03391,1.05e-4 0.134559,-0.0791 0.222228,-0.17607 0.546526,-0.604485 0.966667,-2.111482 0.847745,-3.04116 -0.08887,-0.694842 -0.375595,-1.524891 -0.674904,-1.952746 -0.124479,-0.177975 -4.042701,-4.042234 -8.707932,-8.587273 -4.665232,-4.54504 -8.481592,-8.329188 -8.481592,-8.411211 0,-0.19619 6.633731,-6.650538 6.835483,-6.650538 0.199453,0 6.843708,6.448827 6.843708,6.642536 0,0.08004 -0.842458,0.965928 -1.868336,1.968747 -1.025878,1.002828 -1.86422,1.892888 -1.86422,1.976759 0,0.08388 0.631754,0.761697 1.403307,1.504571 l 1.403311,1.348516 2.024718,-1.96075 c 1.113521,-1.078025 2.163284,-2.152442 2.333364,-2.388908 0.657574,-0.914244 0.913452,-2.185627 0.670791,-3.317267 -0.29284,-1.365628 -0.388906,-1.485292 -4.452734,-5.442072 -3.419396,-3.329323 -3.807488,-3.672894 -4.444498,-3.96151 -0.704302,-0.319104 -1.373368,-0.48018 -2.045298,-0.48018 z M 11.958883,90.326203 C 11.750418,90.372833 9,93.002596 9,93.155281 c 0,0.07076 2.296043,2.357167 5.102942,5.077941 4.583099,4.442468 5.172981,4.979518 5.777861,5.262008 0.570899,0.26661 1.320595,0.45836 1.967101,0.50419 0.08553,0.006 0.460832,-0.0356 0.831284,-0.0918 1.327654,-0.20256 1.798094,-0.51857 4.168783,-2.80107 1.182601,-1.138595 2.152285,-2.114945 2.152285,-2.168813 0,-0.160829 -2.829019,-2.885104 -2.995924,-2.885104 -0.0846,0 -1.000215,0.817845 -2.037061,1.820695 -1.149414,1.111727 -1.950766,1.809952 -2.049408,1.788683 -0.08899,-0.0193 -2.332996,-2.134896 -4.987725,-4.701794 -2.65472,-2.566891 -4.892189,-4.651449 -4.971255,-4.633765 z"
       id="path2" />
    <path
       style="fill:#f2f2f2;stroke-width:1.03885;fill-opacity:1"
       d="m 22.678736,102.88326 c 1.327652,-0.20256 1.800172,-0.5201 4.170857,-2.80257 1.182608,-1.138603 2.150192,-2.114266 2.150192,-2.168132 0,-0.16083 -2.827043,-2.884975 -2.993939,-2.884975 -0.08462,0 -1.002182,0.820517 -2.039029,1.823367 -1.149412,1.111726 -1.948314,1.809748 -2.04696,1.788482 -0.08899,-0.0193 -2.33383,-2.135075 -4.988555,-4.701968 -2.654722,-2.566897 -4.891459,-4.652617 -4.970525,-4.634935 -0.208473,0.04662 -2.9603767,2.677513 -2.9603767,2.830204 0,0.07076 2.2965657,2.354732 5.1034677,5.075509 4.583093,4.442478 5.172154,4.978918 5.777028,5.261478 0.570909,0.2666 1.322349,0.45948 1.968853,0.50531 0.08553,0.006 0.458534,-0.0354 0.828987,-0.0916 z"
       id="path3" />
    <path
       style="fill:#00d455;stroke-width:1.03885"
       d="M 32.132175,94.750495 C 32.6787,94.146011 33.098546,92.639683 32.979628,91.71 c -0.0889,-0.694837 -0.375281,-1.523133 -0.674588,-1.950991 -0.12448,-0.17798 -4.043365,-4.042244 -8.708595,-8.587282 -4.665234,-4.545042 -8.482244,-8.330814 -8.482244,-8.412839 0,-0.196191 6.636235,-6.649258 6.837984,-6.649258 0.199452,0 6.840353,6.44964 6.840353,6.643349 0,0.08004 -0.839351,0.966025 -1.865229,1.96885 -1.025873,1.002826 -1.865227,1.891938 -1.865227,1.975804 0,0.08388 0.631273,0.760301 1.402824,1.503171 l 1.402825,1.350684 2.024584,-1.960045 c 1.113521,-1.078026 2.163739,-2.153516 2.333819,-2.389982 0.657573,-0.914244 0.915641,-2.186706 0.672979,-3.318347 -0.29284,-1.365631 -0.389812,-1.484097 -4.453639,-5.440878 -3.419396,-3.329322 -3.806932,-3.674964 -4.443946,-3.96358 -1.408597,-0.638208 -2.68772,-0.638208 -4.096315,0 -0.636504,0.288379 -1.027747,0.636942 -4.448952,3.96358 -3.408235,3.314028 -3.780518,3.708835 -4.073227,4.319679 -0.442292,0.922997 -0.575503,1.770859 -0.419523,2.670047 0.261824,1.509383 -0.207922,1.000839 10.834428,11.728937 5.528326,5.370994 10.079249,9.765554 10.113157,9.765687 0.03391,1e-4 0.133418,-0.07912 0.221079,-0.176095 z"
       id="path4" />
    <path
       style="opacity:0.2;fill:#ffffff;stroke-width:1.03885"
       d="m 21.952842,62 c -0.67193,0 -1.343056,0.159083 -2.047351,0.478187 -0.636503,0.288379 -1.027414,0.636873 -4.448613,3.963506 -3.408242,3.314032 -3.781427,3.708808 -4.074135,4.319647 -0.405763,0.846772 -0.539488,1.632997 -0.440335,2.450936 0.06355,-0.466732 0.205452,-0.936369 0.440335,-1.426545 0.292708,-0.61084 0.665893,-1.005616 4.074135,-4.319646 3.421199,-3.326635 3.81211,-3.675128 4.448613,-3.963508 1.408595,-0.638208 2.688161,-0.638208 4.096757,0 0.637019,0.288616 1.023051,0.63419 4.442447,3.963508 4.063828,3.956779 4.161955,4.076441 4.454793,5.442077 0.02495,0.116321 0.02251,0.237379 0.03705,0.356136 0.0552,-0.462437 0.05935,-0.931259 -0.03705,-1.380527 C 32.60665,70.518136 32.508523,70.398473 28.444695,66.441693 25.025299,63.112377 24.639267,62.766803 24.002248,62.478187 23.297955,62.159083 22.62477,62 21.952842,62 Z m -6.349879,11.256295 c -0.162349,0.175518 -0.489718,0.505122 -0.489718,0.528198 0,0.08206 3.818418,3.86617 8.48365,8.41121 4.665231,4.545045 8.583454,8.409296 8.707933,8.587276 0.279825,0.400002 0.541755,1.148953 0.648153,1.812693 0.04227,-0.318572 0.06008,-0.625804 0.02672,-0.886341 -0.08888,-0.69484 -0.375594,-1.522884 -0.674903,-1.950742 -0.124479,-0.17798 -4.0427,-4.042238 -8.707931,-8.587276 -4.206615,-4.098239 -7.343111,-7.210106 -7.99393,-7.915018 z m 12.732678,0.03 c -0.341949,0.368664 -0.809579,0.850131 -1.407426,1.434549 -1.02588,1.002821 -1.866276,1.892885 -1.866276,1.97675 0,0.04265 0.165929,0.242142 0.427984,0.522204 0.338946,-0.370182 0.813506,-0.861813 1.438292,-1.472562 1.025872,-1.002825 1.86422,-1.888706 1.86422,-1.968752 0,-0.02126 -0.314085,-0.336995 -0.456794,-0.492189 z"
       id="path6" />
  </g>
</svg>
