<?xml version="1.0" encoding="UTF-8" standalone="no"?>
<svg
   width="62"
   height="62"
   version="1"
   id="svg7"
   sodipodi:docname="pynocchio.svg"
   inkscape:version="1.4 (unknown)"
   xmlns:inkscape="http://www.inkscape.org/namespaces/inkscape"
   xmlns:sodipodi="http://sodipodi.sourceforge.net/DTD/sodipodi-0.dtd"
   xmlns:xlink="http://www.w3.org/1999/xlink"
   xmlns="http://www.w3.org/2000/svg"
   xmlns:svg="http://www.w3.org/2000/svg">
  <defs
     id="defs7">
    <linearGradient
       id="c-3"
       gradientUnits="userSpaceOnUse"
       x1="24.072048"
       x2="23.959682"
       y1="0.75082099"
       y2="46.056854">
      <stop
         offset="0"
         stop-color="#fff"
         id="stop3" />
      <stop
         offset="1"
         stop-color="#d9d9d9"
         id="stop4" />
    </linearGradient>
    <linearGradient
       id="b-6"
       gradientUnits="userSpaceOnUse"
       x1="29.203026"
       x2="34.121048"
       xlink:href="#a-7"
       y1="24.827356"
       y2="29.224836" />
    <linearGradient
       id="a-7">
      <stop
         offset="0"
         id="stop1" />
      <stop
         offset="1"
         stop-opacity="0"
         id="stop2" />
    </linearGradient>
    <linearGradient
       id="d"
       gradientUnits="userSpaceOnUse"
       x1="15.948756"
       x2="25.031786"
       xlink:href="#a-7"
       y1="23.618279"
       y2="33.69899" />
    <linearGradient
       id="e"
       gradientUnits="userSpaceOnUse"
       x1="21.990562"
       x2="29.320522"
       xlink:href="#a-7"
       y1="33.780373"
       y2="41.931858" />
    <linearGradient
       id="paint154_linear_890_11"
       x1="778"
       y1="812.29199"
       x2="788"
       y2="812.29199"
       gradientUnits="userSpaceOnUse"
       gradientTransform="translate(-751,-696)">
      <stop
         stop-color="#EFF2F6"
         id="stop1050" />
      <stop
         offset="0.600785"
         stop-color="#B7C6CD"
         id="stop1051" />
    </linearGradient>
    <linearGradient
       id="paint155_linear_890_11"
       x1="783"
       y1="813"
       x2="783"
       y2="817"
       gradientUnits="userSpaceOnUse"
       gradientTransform="translate(-751,-696)">
      <stop
         stop-color="#EFF2F6"
         id="stop1052" />
      <stop
         offset="0.734138"
         stop-color="#B7C6CD"
         id="stop1053" />
    </linearGradient>
    <radialGradient
       id="paint156_radial_890_11"
       cx="0"
       cy="0"
       r="1"
       gradientUnits="userSpaceOnUse"
       gradientTransform="matrix(27.999986,27.999976,-27.999986,27.999976,32.302392,33.999998)">
      <stop
         offset="0.60067803"
         stop-color="#B7C6CD"
         id="stop1054"
         style="stop-color:#424b58;stop-opacity:1;" />
      <stop
         offset="0.876735"
         stop-color="#EFF2F6"
         id="stop1055" />
    </radialGradient>
    <linearGradient
       id="paint157_linear_890_11"
       x1="796.84485"
       y1="799.43359"
       x2="768.90088"
       y2="770.81476"
       gradientUnits="userSpaceOnUse"
       gradientTransform="matrix(1.1666666,0,0,1.1666668,-881.19764,-881.8333)">
      <stop
         offset="0.00000057"
         stop-color="#2E2E41"
         id="stop1056"
         style="stop-color:#424b58;stop-opacity:1;" />
      <stop
         offset="0.71113902"
         stop-color="#566C80"
         id="stop1057"
         style="stop-color:#303c47;stop-opacity:1;" />
    </linearGradient>
    <linearGradient
       id="paint158_linear_890_11"
       x1="792"
       y1="794"
       x2="774"
       y2="776"
       gradientUnits="userSpaceOnUse"
       gradientTransform="translate(-751,-696)">
      <stop
         offset="0.304478"
         stop-color="#2E2E41"
         id="stop1058" />
      <stop
         offset="1"
         stop-color="#566C80"
         id="stop1059" />
    </linearGradient>
    <linearGradient
       id="paint159_linear_890_11"
       x1="788"
       y1="790"
       x2="778"
       y2="780"
       gradientUnits="userSpaceOnUse"
       gradientTransform="translate(-751,-696)">
      <stop
         offset="0.391394"
         stop-color="#5200FF"
         id="stop1060" />
      <stop
         offset="1"
         stop-color="#0085FF"
         id="stop1061" />
    </linearGradient>
    <linearGradient
       id="paint160_linear_890_11"
       x1="784"
       y1="798"
       x2="782"
       y2="796"
       gradientUnits="userSpaceOnUse"
       gradientTransform="translate(-751,-696)">
      <stop
         stop-color="#FF7E07"
         id="stop1062" />
      <stop
         offset="1"
         stop-color="#FFE607"
         id="stop1063" />
    </linearGradient>
    <linearGradient
       id="c-3-6"
       gradientUnits="userSpaceOnUse"
       x1="24.072048"
       x2="23.959682"
       y1="0.75082099"
       y2="46.056854"
       gradientTransform="matrix(0.91471346,0,0,0.90068147,9.0468769,9.3836444)">
      <stop
         offset="0"
         stop-color="#fff"
         id="stop3-2" />
      <stop
         offset="1"
         stop-color="#d9d9d9"
         id="stop4-9" />
    </linearGradient>
    <linearGradient
       id="b-6-1"
       gradientUnits="userSpaceOnUse"
       x1="29.203026"
       x2="34.121048"
       xlink:href="#a-7"
       y1="24.827356"
       y2="29.224836"
       gradientTransform="matrix(1.1104534,0,0,1.0934187,4.3491158,4.7861435)" />
    <linearGradient
       id="d-0"
       gradientUnits="userSpaceOnUse"
       x1="15.948756"
       x2="25.031786"
       xlink:href="#a-7"
       y1="23.618279"
       y2="33.69899"
       gradientTransform="matrix(1.1104534,0,0,1.0934187,4.3491158,4.7861435)" />
    <linearGradient
       id="e-9"
       gradientUnits="userSpaceOnUse"
       x1="21.990562"
       x2="29.320522"
       xlink:href="#a-7"
       y1="33.780373"
       y2="41.931858"
       gradientTransform="matrix(1.1104534,0,0,1.0934187,4.3491158,4.7861435)" />
    <linearGradient
       id="b"
       y1="23.775"
       x1="22.540001"
       y2="37.804001"
       x2="36.896"
       gradientUnits="userSpaceOnUse"
       gradientTransform="matrix(1.04996,0,0,1.0499041,-73.401655,-34.188933)">
      <stop
         stop-color="#292c2f"
         id="stop211" />
      <stop
         offset="1"
         stop-color="#292c2f"
         stop-opacity="0"
         id="stop213" />
    </linearGradient>
    <linearGradient
       id="paint0_linear_8_376"
       x1="9.8101196"
       y1="22.9708"
       x2="9.8101196"
       y2="5.3530898"
       gradientUnits="userSpaceOnUse"
       gradientTransform="matrix(3.1781887,0,0,3.1786502,-0.17837162,-14.016188)">
      <stop
         stop-color="#5558FF"
         id="stop2-3"
         offset="0"
         style="stop-color:#37c871;stop-opacity:1" />
      <stop
         offset="1"
         stop-color="#00C0FF"
         id="stop3-6"
         style="stop-color:#00afaf;stop-opacity:1;" />
    </linearGradient>
  </defs>
  <sodipodi:namedview
     id="namedview7"
     pagecolor="#ffffff"
     bordercolor="#000000"
     borderopacity="0.25"
     inkscape:showpageshadow="2"
     inkscape:pageopacity="0.0"
     inkscape:pagecheckerboard="0"
     inkscape:deskcolor="#d1d1d1"
     inkscape:zoom="5.890625"
     inkscape:cx="67.055703"
     inkscape:cy="45.241379"
     inkscape:window-width="1920"
     inkscape:window-height="998"
     inkscape:window-x="0"
     inkscape:window-y="0"
     inkscape:window-maximized="1"
     inkscape:current-layer="svg7" />
  <path
     fill-rule="evenodd"
     clip-rule="evenodd"
     d="m 59.000175,30.988137 c 0.0012,4.732044 -1.196283,9.387205 -3.481085,13.530877 -2.284776,4.143681 -5.582164,7.640866 -9.584144,10.164684 -4.0023,2.523856 -8.578569,3.99242 -13.301655,4.268639 -4.723384,0.27596 -9.439563,-0.649725 -13.708294,-2.690407 -1.244685,-0.626228 -2.672018,-0.787702 -4.025053,-0.455193 l -4.294561,1.151948 C 9.8342286,57.164339 9.0225241,57.163798 8.2517152,56.957138 7.4809186,56.750162 6.7781606,56.343914 6.2139839,55.779058 5.6497636,55.214536 5.244014,54.511423 5.037374,53.740275 4.8306873,52.969135 4.8305084,52.157293 5.0368622,51.386182 L 6.1848825,47.091164 C 6.5177979,45.738006 6.3565879,44.31017 5.729842,43.065414 3.9202377,39.27293 2.9872667,35.121614 2.9999522,30.919458 3.0103745,26.717279 3.9708337,22.571664 5.8033623,18.790343 7.6359391,15.008783 10.295865,11.688197 13.586114,9.0747952 16.87631,6.4613045 20.712469,4.6218817 24.810128,3.6928602 c 4.097702,-0.9289358 8.351979,-0.9236656 12.447407,0.015089 4.095119,0.9390968 7.926733,2.7879681 11.210433,5.4095585 3.284024,2.6215933 5.935587,5.9486873 7.758907,9.7348173 1.823028,3.785765 2.771048,7.933589 2.7733,12.136078 z m -41.818022,0.01089 H 16.99991 v 0 h 0.182243 v 0 H 16.99991 17.182153 16.99991 Z m 10.3179,-0.01089 z m 0,0 c 0,0 0.928187,-0.02153 0,0 v 0 0 c -0.656615,-0.656673 0,0 0,0 z"
     id="path1"
     style="fill:url(#paint0_linear_8_376);stroke-width:3.17837"
     sodipodi:nodetypes="cscccccccccccccccccccccccccccccscscccccsscscscccs" />
  <g
     id="g1"
     transform="translate(-5.0235878,-4.4979995)">
    <path
       style="opacity:0.2;stroke:#000000;stroke-width:2.01454;stroke-linecap:round"
       d="m 28.00368,22.929799 -5.036262,5.036461 9.06527,8.058338 -9.06527,8.058338 6.043514,5.036463 7.050768,-7.051046 8.058019,7.051046 5.036262,-5.036463 -9.065273,-8.058338 9.065272,-8.058338 -5.036262,-5.036461 -8.058019,8.058336 z"
       id="path3" />
    <path
       style="fill:#2c3e53;stroke:#2d3f53;stroke-width:2.01454;stroke-linecap:round;fill-opacity:1;stroke-opacity:1"
       d="m 28.00368,21.922505 -5.036262,5.036463 9.06527,8.058338 -9.06527,8.058339 6.043514,5.036461 7.050768,-7.051046 8.058019,7.051046 5.036262,-5.036461 -9.065273,-8.058339 9.065272,-8.058338 -5.036262,-5.036463 -8.058019,8.058339 z"
       id="path4" />
    <path
       style="opacity:0.1;fill:#ffffff;stroke-width:1.00727"
       d="m 27.987563,20.915214 c -0.261885,0.004 -0.510677,0.109794 -0.69601,0.295136 l -5.036263,5.036462 c -0.322322,0.322332 -0.386786,0.820944 -0.159146,1.215802 0.04331,-0.07656 0.09772,-0.146058 0.159146,-0.208509 l 5.036263,-5.036462 c 0.185333,-0.185342 0.434125,-0.291108 0.69601,-0.295138 0.272965,-0.004 0.535859,0.101738 0.728243,0.295138 l 7.345893,7.346182 7.345891,-7.346182 c 0.393836,-0.392845 1.030419,-0.392845 1.424256,0 l 5.036261,5.036462 c 0.06145,0.06246 0.115835,0.131954 0.159146,0.208509 0.227639,-0.394858 0.163175,-0.89347 -0.159146,-1.215802 L 44.831846,21.21035 c -0.393837,-0.392844 -1.03042,-0.392844 -1.424256,0 l -7.345891,7.346181 -7.345893,-7.346181 c -0.192384,-0.193401 -0.455278,-0.299167 -0.728243,-0.295136 z m 1.962128,14.605739 -7.651089,6.801238 c -0.357574,0.318304 -0.442183,0.843103 -0.202458,1.2571 0.05339,-0.09367 0.121877,-0.178291 0.202458,-0.249808 l 8.217165,-7.304885 z m 12.224016,0 -0.566076,0.503645 8.217164,7.304885 c 0.08059,0.07152 0.149074,0.156129 0.202458,0.249808 0.239725,-0.413997 0.155117,-0.938796 -0.202458,-1.2571 z"
       id="path5" />
  </g>
</svg>
