<?xml version="1.0" encoding="UTF-8" standalone="no"?>
<svg
   height="62"
   viewBox="0 0 62 62"
   width="62"
   version="1.1"
   id="svg18"
   sodipodi:docname="qdirstat.svg"
   inkscape:version="1.4 (unknown)"
   xmlns:inkscape="http://www.inkscape.org/namespaces/inkscape"
   xmlns:sodipodi="http://sodipodi.sourceforge.net/DTD/sodipodi-0.dtd"
   xmlns:xlink="http://www.w3.org/1999/xlink"
   xmlns="http://www.w3.org/2000/svg"
   xmlns:svg="http://www.w3.org/2000/svg">
  <defs
     id="defs18">
    <linearGradient
       id="linearGradient18"
       inkscape:collect="always">
      <stop
         style="stop-color:#cccccc;stop-opacity:1"
         offset="0"
         id="stop18" />
      <stop
         style="stop-color:#f2f2f2;stop-opacity:1"
         offset="1"
         id="stop19" />
    </linearGradient>
    <linearGradient
       inkscape:collect="always"
       xlink:href="#linearGradient18"
       id="linearGradient19"
       x1="22.934563"
       y1="44"
       x2="23.030415"
       y2="5.507834"
       gradientUnits="userSpaceOnUse" />
  </defs>
  <sodipodi:namedview
     id="namedview18"
     pagecolor="#ffffff"
     bordercolor="#000000"
     borderopacity="0.25"
     inkscape:showpageshadow="2"
     inkscape:pageopacity="0.0"
     inkscape:pagecheckerboard="0"
     inkscape:deskcolor="#d1d1d1"
     inkscape:zoom="8.0729167"
     inkscape:cx="16.165161"
     inkscape:cy="22.110968"
     inkscape:window-width="1920"
     inkscape:window-height="998"
     inkscape:window-x="0"
     inkscape:window-y="0"
     inkscape:window-maximized="1"
     inkscape:current-layer="svg18" />
  <linearGradient
     id="a">
    <stop
       offset="0"
       stop-color="#292c2f"
       id="stop1" />
    <stop
       offset="1"
       stop-opacity="0"
       id="stop2" />
  </linearGradient>
  <linearGradient
     id="b"
     gradientUnits="userSpaceOnUse"
     x1="24"
     x2="24"
     y1="44"
     y2="4">
    <stop
       offset="0"
       stop-color="#b0b8b8"
       id="stop3" />
    <stop
       offset="1"
       stop-color="#eff1f1"
       id="stop4" />
  </linearGradient>
  <linearGradient
     id="c"
     gradientUnits="userSpaceOnUse"
     x1="8"
     x2="8"
     y1="16"
     y2="8">
    <stop
       offset="0"
       stop-color="#54a3d8"
       id="stop5" />
    <stop
       offset="1"
       stop-color="#7cbcec"
       id="stop6" />
  </linearGradient>
  <linearGradient
     id="d"
     gradientUnits="userSpaceOnUse"
     x1="18"
     x2="18"
     y1="27"
     y2="19">
    <stop
       offset="0"
       stop-color="#b154d8"
       id="stop7" />
    <stop
       offset="1"
       stop-color="#cb7cec"
       id="stop8" />
  </linearGradient>
  <linearGradient
     id="e"
     gradientUnits="userSpaceOnUse"
     x1="28"
     x2="28"
     y1="38"
     y2="30">
    <stop
       offset="0"
       stop-color="#ffa92d"
       id="stop9" />
    <stop
       offset="1"
       stop-color="#ffc169"
       id="stop10" />
  </linearGradient>
  <linearGradient
     id="f"
     gradientUnits="userSpaceOnUse"
     x1="8.2922249"
     x2="44"
     y1="26.146151"
     y2="26.146151">
    <stop
       offset="0"
       id="stop11" />
    <stop
       offset="1"
       stop-opacity="0"
       id="stop12" />
  </linearGradient>
  <linearGradient
     id="g"
     gradientUnits="userSpaceOnUse"
     x1="8.2922249"
     x2="36.58445"
     xlink:href="#a"
     y1="15.707775"
     y2="44" />
  <linearGradient
     id="h"
     gradientUnits="userSpaceOnUse"
     x1="18.292299"
     x2="35.584599"
     xlink:href="#a"
     y1="26.707701"
     y2="44" />
  <linearGradient
     id="i"
     gradientUnits="userSpaceOnUse"
     x1="28.2922"
     x2="34.584396"
     xlink:href="#a"
     y1="37.707802"
     y2="44" />
  <g
     id="g18"
     transform="matrix(1.4,0,0,1.4,-2.6,-2.6)">
    <rect
       height="40"
       rx="4"
       width="40"
       x="4"
       y="4"
       id="rect12"
       style="fill:url(#linearGradient19)" />
    <path
       d="m 11,17 v 6 h 1 5 v -1 h -5 v -5 z"
       id="path12"
       style="fill:#2d3d53;fill-opacity:1" />
    <path
       d="m 21,28 v 6 h 1 5 v -1 h -5 v -5 z"
       id="path13"
       style="fill:#2d3d53;fill-opacity:1" />
    <path
       d="M 8.292225,15.707775 18,25.41555 35,19.5846 23.7077,8.2923 Z"
       opacity="0.2"
       id="path14"
       style="fill:url(#g);opacity:0.15" />
    <path
       d="M 18.2923,26.7077 28,36.4154 39.7078,30.2922 44,34.5844 v -7 l -8.2922,-8.2922 z"
       opacity="0.2"
       id="path15"
       style="fill:url(#h)" />
    <path
       d="M 28.2922,37.7078 34.5844,44 H 44 v -9.4156 l -4.2922,-4.2922 z"
       opacity="0.2"
       id="path16"
       style="fill:url(#i)" />
    <rect
       height="8"
       rx="1"
       width="16"
       x="8"
       y="8"
       id="rect16"
       style="fill:#5599ff;fill-opacity:1" />
    <rect
       height="8"
       rx="1"
       width="18"
       x="18"
       y="19"
       id="rect17"
       style="fill:#bc5fd3" />
    <rect
       height="8"
       rx="1"
       width="12"
       x="28"
       y="30"
       id="rect18"
       style="fill:#e5b800;fill-opacity:1" />
    <path
       d="m 4,39 v 1 c 0,2.216 1.784,4 4,4 h 32 c 2.216,0 4,-1.784 4,-4 v -1 c 0,2.216 -1.784,4 -4,4 H 8 C 5.784,43 4,41.216 4,39 Z"
       fill="#292c2f"
       opacity="0.2"
       id="path18" />
  </g>
</svg>
