<?xml version="1.0" encoding="UTF-8" standalone="no"?>
<svg
   clip-rule="evenodd"
   fill-rule="evenodd"
   stroke-linejoin="round"
   stroke-miterlimit="2"
   viewBox="0 0 62 62"
   version="1.1"
   id="svg3"
   sodipodi:docname="qjadeo.svg"
   width="62"
   height="62"
   inkscape:version="1.4 (unknown)"
   xmlns:inkscape="http://www.inkscape.org/namespaces/inkscape"
   xmlns:sodipodi="http://sodipodi.sourceforge.net/DTD/sodipodi-0.dtd"
   xmlns:xlink="http://www.w3.org/1999/xlink"
   xmlns="http://www.w3.org/2000/svg"
   xmlns:svg="http://www.w3.org/2000/svg">
  <defs
     id="defs3">
    <linearGradient
       id="linearGradient6">
      <stop
         offset="0"
         style="stop-color:#dbdbdb;stop-opacity:0;"
         id="stop5" />
      <stop
         offset="1"
         style="stop-color:#000000;stop-opacity:1;"
         id="stop6" />
    </linearGradient>
    <linearGradient
       id="linearGradient3"
       inkscape:collect="always">
      <stop
         style="stop-color:#344a65;stop-opacity:1;"
         offset="0"
         id="stop3" />
      <stop
         style="stop-color:#233143;stop-opacity:1;"
         offset="1"
         id="stop4" />
    </linearGradient>
    <filter
       id="b-3-36"
       width="1.2393739"
       height="1.1966286"
       x="-0.11968695"
       y="-0.098314282"
       color-interpolation-filters="sRGB">
      <feGaussianBlur
         stdDeviation="1.147"
         id="feGaussianBlur7-6" />
    </filter>
    <filter
       id="b-3-36-6"
       width="1.2393739"
       height="1.1966286"
       x="-0.11968695"
       y="-0.098314282"
       color-interpolation-filters="sRGB">
      <feGaussianBlur
         stdDeviation="1.147"
         id="feGaussianBlur7-6-7" />
    </filter>
    <linearGradient
       inkscape:collect="always"
       xlink:href="#linearGradient3"
       id="linearGradient4"
       x1="31.996025"
       y1="5.0983038"
       x2="32.182014"
       y2="58.017544"
       gradientUnits="userSpaceOnUse" />
    <linearGradient
       id="linearGradient4306">
      <stop
         offset="0"
         style="stop-color:#000000;stop-opacity:0;"
         id="stop12" />
      <stop
         offset="1"
         style="stop-color:#000000;stop-opacity:1;"
         id="stop14" />
    </linearGradient>
    <radialGradient
       xlink:href="#linearGradient4324"
       id="radialGradient4340-3"
       cx="-12"
       cy="12"
       fx="-12"
       fy="12"
       r="4"
       gradientUnits="userSpaceOnUse"
       gradientTransform="matrix(1.235291,0,0,1.235291,-1.3530054,1.3530246)" />
    <linearGradient
       id="linearGradient4324">
      <stop
         style="stop-color:#eff1f1;stop-opacity:1"
         offset="0"
         id="stop7" />
      <stop
         style="stop-color:#ececec;stop-opacity:1;"
         offset="1"
         id="stop9" />
    </linearGradient>
    <linearGradient
       id="linearGradient4167">
      <stop
         style="stop-color:#ffffff;stop-opacity:0"
         offset="0"
         id="stop2-3" />
      <stop
         style="stop-color:#ffffff;stop-opacity:1"
         offset="1"
         id="stop4-6" />
    </linearGradient>
    <radialGradient
       xlink:href="#linearGradient4324"
       id="radialGradient4188-1"
       gradientUnits="userSpaceOnUse"
       cx="-12"
       cy="12"
       fx="-12"
       fy="12"
       r="4"
       gradientTransform="matrix(1.235291,0,0,1.235291,-16.176495,16.176515)" />
    <radialGradient
       xlink:href="#linearGradient4324"
       id="radialGradient4202-2"
       gradientUnits="userSpaceOnUse"
       cx="-12"
       cy="12"
       fx="-12"
       fy="12"
       r="4"
       gradientTransform="matrix(1.235291,0,0,1.235291,-30.999989,31.000009)" />
    <linearGradient
       xlink:href="#linearGradient4816"
       id="linearGradient4503-0-3"
       y1="37"
       y2="4"
       x2="0"
       gradientUnits="userSpaceOnUse"
       gradientTransform="matrix(1.0499998,0,0,1.0499998,9.2502391,54.800003)" />
    <linearGradient
       id="linearGradient4816">
      <stop
         style="stop-color:#da4453"
         id="stop1439" />
      <stop
         offset="1"
         style="stop-color:#ff7336"
         id="stop1441" />
    </linearGradient>
    <linearGradient
       id="linearGradient4279">
      <stop
         id="stop1432" />
      <stop
         offset="1"
         style="stop-opacity:0"
         id="stop1434" />
    </linearGradient>
    <linearGradient
       id="c"
       y1="513.38"
       x1="399.98999"
       y2="537.38"
       x2="424.98999"
       gradientUnits="userSpaceOnUse"
       gradientTransform="translate(-464.04842,-560.44526)">
      <stop
         stop-color="#292c2f"
         id="stop12-3" />
      <stop
         offset="1"
         stop-opacity="0"
         id="stop14-6" />
    </linearGradient>
    <linearGradient
       id="b"
       y1="35"
       x1="42"
       y2="12"
       x2="22"
       gradientUnits="userSpaceOnUse"
       gradientTransform="translate(-75.064419,-59.059262)">
      <stop
         stop-color="#197cf1"
         id="stop7-7" />
      <stop
         offset="1"
         stop-color="#20bcfa"
         id="stop9-5" />
    </linearGradient>
    <linearGradient
       id="a-3"
       y1="35"
       x1="23"
       y2="13"
       x2="5"
       gradientUnits="userSpaceOnUse"
       gradientTransform="translate(-79.064419,-59.059262)">
      <stop
         stop-color="#c61423"
         id="stop2-5" />
      <stop
         offset="1"
         stop-color="#dc2b41"
         id="stop4-62" />
    </linearGradient>
  </defs>
  <sodipodi:namedview
     id="namedview3"
     pagecolor="#ffffff"
     bordercolor="#000000"
     borderopacity="0.25"
     inkscape:showpageshadow="2"
     inkscape:pageopacity="0.0"
     inkscape:pagecheckerboard="0"
     inkscape:deskcolor="#d1d1d1"
     inkscape:zoom="7.7916669"
     inkscape:cx="20.534759"
     inkscape:cy="51.272726"
     inkscape:window-width="1920"
     inkscape:window-height="998"
     inkscape:window-x="0"
     inkscape:window-y="0"
     inkscape:window-maximized="1"
     inkscape:current-layer="svg3" />
  <linearGradient
     id="a"
     x2="1"
     gradientTransform="matrix(0,-43.53155,43.53155,0,1192.407,51.589413)"
     gradientUnits="userSpaceOnUse">
    <stop
       stop-color="#161616"
       offset="0"
       id="stop1" />
    <stop
       stop-color="#343434"
       offset="1"
       id="stop2" />
  </linearGradient>
  <g
     id="g3"
     transform="translate(3.487626,-1.843205)" />
  <rect
     style="opacity:0.2;stroke-width:0.9823"
     width="55"
     height="55.017544"
     x="3.5"
     y="3.9824562"
     rx="8.25"
     ry="8.2526312"
     id="rect1-3" />
  <rect
     style="fill:url(#linearGradient4);stroke-width:0.9823"
     width="55"
     height="55.017544"
     x="3.5"
     y="3"
     rx="8.25"
     ry="8.2526312"
     id="rect2-5" />
  <path
     style="opacity:0.1;fill:#ffffff;stroke-width:0.9823"
     d="M 11.748466,3 C 7.1779651,3 3.4999999,6.6791384 3.4999999,11.251097 v 0.982456 c 0,-4.5719585 3.6779652,-8.2510968 8.2484661,-8.2510968 h 38.503068 c 4.5705,0 8.248466,3.6791383 8.248466,8.2510968 V 11.251097 C 58.5,6.6791384 54.822034,3 50.251534,3 Z"
     id="path4-6" />
  <g
     id="g1"
     transform="translate(-0.3957218,0.5)">
    <path
       fill="#ffffff"
       d="m 10.395722,11 v 4 H 7.3957216 v -4 z"
       opacity="0.5"
       id="path1" />
    <path
       fill="#ffffff"
       d="m 41.394722,31 -15,11 V 20 Z"
       opacity="0.35"
       id="path2" />
    <path
       fill="#ffffff"
       d="m 10.773722,25.884 h 1.207 l 2.063,3.086 2.074,-3.086 h 1.207 l -2.67,3.987 2.848,4.315 h -1.207 l -2.336,-3.53 -2.352,3.53 h -1.212 l 2.964,-4.432 z m 11.822,0 h 1.123 v 7.724 q 0,1.501 -0.572,2.18 -0.568,0.678 -1.83,0.678 h -0.428 v -0.945 h 0.35 q 0.745,0 1.051,-0.417 0.306,-0.417 0.306,-1.496 z m 6.145,5.172 q -1.24,0 -1.718,0.284 -0.479,0.283 -0.479,0.967 0,0.545 0.356,0.868 0.362,0.317 0.979,0.317 0.85,0 1.362,-0.601 0.518,-0.606 0.518,-1.607 v -0.228 z m 2.04,-0.423 v 3.554 h -1.022 v -0.946 q -0.35,0.568 -0.873,0.84 -0.523,0.267 -1.28,0.267 -0.956,0 -1.523,-0.534 -0.562,-0.54 -0.562,-1.44 0,-1.051 0.701,-1.585 0.706,-0.534 2.102,-0.534 h 1.435 v -0.1 q 0,-0.706 -0.468,-1.09 -0.461,-0.389 -1.3,-0.389 -0.535,0 -1.04,0.128 -0.505,0.128 -0.974,0.384 v -0.946 q 0.562,-0.217 1.09,-0.322 0.529,-0.111 1.029,-0.111 1.351,0 2.018,0.7 0.668,0.7 0.668,2.124 z m 6.206,-1.729 v -3.37 h 1.023 v 8.653 h -1.023 v -0.935 q -0.323,0.556 -0.817,0.829 -0.49,0.267 -1.18,0.267 -1.128,0 -1.84,-0.901 -0.706,-0.9 -0.706,-2.369 0,-1.469 0.706,-2.369 0.712,-0.9 1.84,-0.9 0.69,0 1.18,0.272 0.494,0.267 0.817,0.823 m -3.487,2.174 q 0,1.129 0.462,1.774 0.467,0.64 1.279,0.64 0.812,0 1.279,-0.64 0.467,-0.645 0.467,-1.774 0,-1.129 -0.467,-1.768 -0.467,-0.645 -1.28,-0.645 -0.81,0 -1.278,0.645 -0.462,0.64 -0.462,1.768 m 11.945,-0.262 v 0.5 h -4.704 q 0.066,1.057 0.634,1.613 0.572,0.55 1.59,0.55 0.59,0 1.14,-0.144 0.556,-0.145 1.1,-0.434 v 0.968 q -0.55,0.233 -1.128,0.356 -0.578,0.123 -1.173,0.122 -1.49,0 -2.363,-0.867 -0.868,-0.868 -0.868,-2.347 0,-1.53 0.823,-2.425 0.829,-0.9 2.23,-0.9 1.257,0 1.985,0.812 0.734,0.806 0.734,2.196 m -1.023,-0.3 q -0.011,-0.84 -0.473,-1.34 -0.456,-0.5 -1.212,-0.5 -0.856,0 -1.374,0.483 -0.511,0.484 -0.589,1.362 z m 5.116,-1.84 q -0.823,0 -1.301,0.645 -0.478,0.64 -0.478,1.757 0,1.117 0.472,1.763 0.478,0.64 1.307,0.64 0.817,0 1.296,-0.646 0.479,-0.646 0.478,-1.757 0,-1.106 -0.478,-1.751 -0.479,-0.651 -1.296,-0.651 m 0,-0.867 q 1.335,0 2.096,0.867 0.761,0.867 0.762,2.402 0,1.53 -0.762,2.402 -0.761,0.868 -2.096,0.868 -1.34,0 -2.102,-0.868 -0.756,-0.873 -0.756,-2.402 0,-1.535 0.756,-2.402 0.762,-0.867 2.102,-0.867"
       aria-label="X Jadeo"
       id="path3-3" />
    <path
       fill="#ffffff"
       d="m 15.395722,11 v 4 h -3 v -4 z m 5,0 v 4 h -3 v -4 z m 5,0 v 4 h -3 v -4 z m 5,0 v 4 h -3 v -4 z m 5,0 v 4 h -3 v -4 z m 5,0 v 4 h -3 v -4 z m 5,0 v 4 h -3 v -4 z m 5,0 v 4 h -3 v -4 z m 5,0 v 4 h -3 v -4 z m -45,36 v 4 H 7.3957216 v -4 z m 5,0 v 4 h -3 v -4 z m 5,0 v 4 h -3 v -4 z m 5,0 v 4 h -3 v -4 z m 5,0 v 4 h -3 v -4 z m 5,0 v 4 h -3 v -4 z m 5,0 v 4 h -3 v -4 z m 5,0 v 4 h -3 v -4 z m 5,0 v 4 h -3 v -4 z m 5,0 v 4 h -3 v -4 z"
       opacity="0.5"
       id="path4" />
  </g>
</svg>
