<?xml version="1.0" encoding="UTF-8" standalone="no"?>
<svg
   width="62"
   height="62"
   version="1.1"
   id="svg10"
   sodipodi:docname="qmc2-arcade.svg"
   inkscape:version="1.4 (unknown)"
   xmlns:inkscape="http://www.inkscape.org/namespaces/inkscape"
   xmlns:sodipodi="http://sodipodi.sourceforge.net/DTD/sodipodi-0.dtd"
   xmlns="http://www.w3.org/2000/svg"
   xmlns:svg="http://www.w3.org/2000/svg">
  <defs
     id="defs10" />
  <sodipodi:namedview
     id="namedview10"
     pagecolor="#ffffff"
     bordercolor="#000000"
     borderopacity="0.25"
     inkscape:showpageshadow="2"
     inkscape:pageopacity="0.0"
     inkscape:pagecheckerboard="0"
     inkscape:deskcolor="#d1d1d1"
     inkscape:zoom="8.5626212"
     inkscape:cx="36.028687"
     inkscape:cy="36.379047"
     inkscape:window-width="1920"
     inkscape:window-height="998"
     inkscape:window-x="0"
     inkscape:window-y="0"
     inkscape:window-maximized="1"
     inkscape:current-layer="svg10" />
  <g
     id="g10"
     transform="matrix(0.98148148,0,0,0.98245614,0.0925926,-0.92982455)">
    <rect
       style="fill:#9bb0ca;fill-opacity:1"
       width="48"
       height="38"
       x="8"
       y="14"
       ry="0"
       id="rect1" />
    <rect
       style="fill:#f2f2f2;fill-opacity:1"
       width="6"
       height="3"
       x="40"
       y="42"
       ry="1"
       id="rect2" />
    <path
       style="opacity:0.2"
       d="M 6.4003906,5 C 5.6247906,5 5,5.6247906 5,6.4003906 V 17.599609 C 5,18.375209 5.6247906,19 6.4003906,19 H 57.599609 C 58.375209,19 59,18.375209 59,17.599609 V 6.4003906 C 59,5.6247906 58.375209,5 57.599609,5 Z m 0,39 C 5.6247906,44 5,44.624791 5,45.400391 V 59.599609 C 5,60.375209 5.6247906,61 6.4003906,61 H 57.599609 C 58.375209,61 59,60.375209 59,59.599609 V 45.400391 C 59,44.624791 58.375209,44 57.599609,44 Z"
       id="path2" />
    <rect
       style="fill:#c83771"
       width="54"
       height="14"
       x="5"
       y="4"
       ry="1.4"
       id="rect3" />
    <rect
       style="fill:#2d3d53;fill-opacity:1"
       width="28"
       height="21"
       x="18"
       y="20"
       ry="2.8"
       id="rect4" />
    <rect
       style="fill:#f1f1f1;fill-opacity:1"
       width="6"
       height="3"
       x="48"
       y="42"
       ry="1"
       id="rect5" />
    <rect
       style="fill:#2d3d53;fill-opacity:1"
       width="2"
       height="7"
       x="14"
       y="36"
       id="rect6" />
    <rect
       style="fill:#2d3d53;fill-opacity:1"
       width="6"
       height="3"
       x="12"
       y="42"
       ry="0.80000001"
       id="rect7" />
    <rect
       style="fill:#c83771"
       width="54"
       height="17"
       x="5"
       y="43"
       ry="1.4"
       id="rect8" />
    <circle
       style="opacity:0.1"
       cx="15"
       cy="36"
       r="4"
       id="circle8" />
    <circle
       style="fill:#3f5674;fill-opacity:1"
       cx="15"
       cy="35"
       r="4"
       id="circle9" />
    <path
       style="opacity:0.2;fill:#ffffff"
       d="M 6.4003906,4 C 5.6247906,4 5,4.6247906 5,5.4003906 v 1 C 5,5.6247906 5.6247906,5 6.4003906,5 H 57.599609 C 58.375209,5 59,5.6247906 59,6.4003906 v -1 C 59,4.6247906 58.375209,4 57.599609,4 Z m 0,39 C 5.6247906,43 5,43.624791 5,44.400391 v 1 C 5,44.624791 5.6247906,44 6.4003906,44 H 57.599609 C 58.375209,44 59,44.624791 59,45.400391 v -1 C 59,43.624791 58.375209,43 57.599609,43 Z"
       id="path9" />
    <path
       style="fill:#f2f2f2;fill-rule:evenodd;fill-opacity:1"
       d="M 35,23 21,37 h 7 l 5,-5 v 5 l 6,-5 v 5 l 4,-4 V 23 l -8,7 z"
       id="path10" />
  </g>
</svg>
