<?xml version="1.0" encoding="UTF-8" standalone="no"?>
<svg
   width="62"
   height="62"
   version="1.1"
   id="svg29"
   sodipodi:docname="qmmp.svg"
   inkscape:version="1.4 (unknown)"
   xmlns:inkscape="http://www.inkscape.org/namespaces/inkscape"
   xmlns:sodipodi="http://sodipodi.sourceforge.net/DTD/sodipodi-0.dtd"
   xmlns:xlink="http://www.w3.org/1999/xlink"
   xmlns="http://www.w3.org/2000/svg"
   xmlns:svg="http://www.w3.org/2000/svg">
  <defs
     id="defs29">
    <linearGradient
       id="linearGradient29"
       inkscape:collect="always">
      <stop
         style="stop-color:#2d3d53;stop-opacity:1;"
         offset="0"
         id="stop29" />
      <stop
         style="stop-color:#354864;stop-opacity:1;"
         offset="1"
         id="stop30" />
    </linearGradient>
    <linearGradient
       inkscape:collect="always"
       xlink:href="#linearGradient29"
       id="linearGradient30"
       x1="30.782633"
       y1="60"
       x2="30.193521"
       y2="5"
       gradientUnits="userSpaceOnUse"
       gradientTransform="matrix(0.98214286,0,0,0.98245614,-0.42857152,-0.92982455)" />
  </defs>
  <sodipodi:namedview
     id="namedview29"
     pagecolor="#ffffff"
     bordercolor="#000000"
     borderopacity="0.25"
     inkscape:showpageshadow="2"
     inkscape:pageopacity="0.0"
     inkscape:pagecheckerboard="0"
     inkscape:deskcolor="#d1d1d1"
     inkscape:zoom="7.0710678"
     inkscape:cx="20.435386"
     inkscape:cy="36.981685"
     inkscape:window-width="1920"
     inkscape:window-height="998"
     inkscape:window-x="0"
     inkscape:window-y="0"
     inkscape:window-maximized="1"
     inkscape:current-layer="svg29" />
  <rect
     style="opacity:0.2;stroke-width:0.9823"
     width="55"
     height="55.017544"
     x="3.5"
     y="3.9824562"
     ry="13.754386"
     id="rect1" />
  <rect
     style="fill:url(#linearGradient30);stroke-width:0.9823"
     width="55"
     height="55.017544"
     x="3.5"
     y="3"
     ry="13.754386"
     id="rect2" />
  <path
     style="opacity:0.1;fill:#ffffff;stroke-width:0.9823"
     d="M 17.25,3 C 9.6324999,3 3.4999999,9.1344561 3.4999999,16.754386 v 0.982456 c 0,-7.61993 6.1325,-13.7543858 13.7500001,-13.7543858 h 27.5 c 7.6175,0 13.75,6.1344558 13.75,13.7543858 V 16.754386 C 58.5,9.1344561 52.3675,3 44.75,3 Z"
     id="path28" />
  <g
     id="g2"
     transform="matrix(0.76666667,0,0,0.76807397,15.666667,-50.169072)">
    <path
       style="opacity:0.2;fill-rule:evenodd"
       d="M 16.261719,95.076952 C 9.620969,95.487693 5.72813,107.35079 4.792969,111.12578 c 0.09407,0.005 0.153869,0.0137 0.21289,0.0215 0.01586,0.11186 0.03906,0.32608 0.03906,0.6875 0,0.2211 -0.0185,0.45361 -0.06055,0.625 -0.04204,0.17134 -0.103122,0.26499 -0.134766,0.28516 l -0.03906,0.0176 -0.01758,0.0215 c 0,0 -0.405654,0.4126 -0.556641,1.10547 -0.15105,0.69286 -0.03215,1.6917 0.900391,2.75976 0.918455,1.05179 2.249323,2.06776 3.720703,3.35156 0.73569,0.64193 1.284975,1.26055 1.769531,1.77149 0.24222,0.25541 0.429524,0.47756 0.554688,0.66406 0.12524,0.1865 0.173828,0.33434 0.173828,0.36328 -0.0046,0.0368 -0.241002,2.04995 -0.363281,4.12891 -0.06166,1.04898 -0.09396,1.55707 -0.03906,2.38867 0.0275,0.41583 0.06768,0.77987 0.152344,1.06836 0.04236,0.14428 0.09643,0.26833 0.173828,0.38281 0.0774,0.11448 0.185811,0.22261 0.345703,0.26367 0.69358,0.1782 1.432889,-0.18448 2.015625,-0.64648 0.582736,-0.46201 1.047462,-0.82064 1.076172,-1.41797 0.04506,-0.93688 -0.579079,-1.40572 -0.650391,-1.48633 -0.017,-0.0644 -0.113588,0.0769 -0.173828,-0.42969 -0.03252,-0.27338 -0.06134,-0.54746 -0.03906,-0.77929 0.02226,-0.23183 0.100143,-0.40854 0.152343,-0.46094 0.07286,-0.0732 0.174105,-0.0963 0.365235,-0.0937 0.19114,0.003 0.442653,0.0339 0.710937,0.0937 0.26822,0.0598 0.560449,0.14873 0.845703,0.17383 0.285188,0.0251 0.581049,-0.01 0.845704,-0.17383 0.568044,-0.35283 1.628132,-1.12581 2.177734,-1.82617 0.2748,-0.35021 0.380827,-0.58165 0.748047,-0.89453 0.08496,-0.0724 0.170853,-0.0898 0.259765,-0.082 -4.654902,-15.18458 0.04222,-26.202643 -1.699218,-27.875002 -1.48841,-0.02284 -1.980157,-0.05494 -1.998047,-0.05664 z m 7.435547,0 c -0.01789,0.0017 -0.509637,0.0338 -1.998047,0.05664 -1.741438,1.67236 2.955683,12.690418 -1.699219,27.874998 0.08892,-0.008 0.174806,0.01 0.259766,0.082 0.36722,0.31288 0.471295,0.54432 0.746093,0.89453 0.549604,0.70036 1.611662,1.47337 2.179688,1.82617 0.264656,0.1643 0.560513,0.19893 0.845703,0.17383 0.285252,-0.0251 0.577483,-0.11407 0.845703,-0.17383 0.268284,-0.0598 0.517845,-0.0911 0.708985,-0.0937 0.191128,-0.003 0.294327,0.0205 0.367187,0.0937 0.0522,0.0524 0.128151,0.22911 0.150391,0.46094 0.02228,0.23183 -0.0046,0.50592 -0.03711,0.7793 -0.06024,0.50657 -0.156828,0.36529 -0.173828,0.42969 -0.07131,0.0806 -0.69545,0.54945 -0.65039,1.48632 0.02871,0.59734 0.493435,0.95596 1.076171,1.41797 0.582738,0.462 1.322047,0.82469 2.015625,0.64649 0.159892,-0.0411 0.268304,-0.14919 0.345704,-0.26367 0.07742,-0.11449 0.131468,-0.23854 0.173828,-0.38282 0.08466,-0.28849 0.124843,-0.65253 0.152343,-1.06836 0.0549,-0.83159 0.0226,-1.33968 -0.03906,-2.38867 -0.12228,-2.07896 -0.358681,-4.0921 -0.363281,-4.1289 0,-0.0289 0.04859,-0.17678 0.173828,-0.36329 0.125164,-0.1865 0.312469,-0.40865 0.554687,-0.66406 0.484558,-0.51093 1.033842,-1.12955 1.769531,-1.77148 1.471383,-1.2838 2.80225,-2.29978 3.720704,-3.35157 0.93254,-1.06805 1.05143,-2.06689 0.90039,-2.75976 -0.150986,-0.69286 -0.55664,-1.10547 -0.55664,-1.10547 l -0.01758,-0.0215 -0.03906,-0.0176 c -0.03166,-0.0202 -0.09273,-0.11382 -0.134766,-0.28516 -0.04202,-0.17138 -0.06055,-0.4039 -0.06055,-0.625 0,-0.36142 0.02326,-0.57564 0.03906,-0.6875 0.05903,-0.008 0.118831,-0.0163 0.212891,-0.0215 -0.935162,-3.77498 -4.827998,-15.638083 -11.46875,-16.048824 z"
       id="path1" />
    <path
       style="fill:#d9d9d9;fill-rule:evenodd;fill-opacity:1"
       d="M 16.261718,94.075448 C 9.620968,94.486189 5.727154,106.35036 4.791993,110.12534 c 0.09407,0.005 0.154668,0.0128 0.213689,0.0206 0.01586,0.11186 0.03862,0.32599 0.03862,0.68741 0,0.2211 -0.01716,0.45424 -0.05921,0.62562 -0.04204,0.17134 -0.104808,0.26561 -0.136452,0.28578 l -0.03862,0.018 -0.01802,0.0206 c 0,0 -0.405121,0.41163 -0.556108,1.10449 -0.15105,0.69287 -0.03144,1.69189 0.9011,2.75995 0.918455,1.05178 2.24888,2.06829 3.72026,3.35209 0.73569,0.64193 1.284176,1.26037 1.768732,1.77131 0.24222,0.25541 0.430944,0.47774 0.556108,0.66424 0.12524,0.1865 0.1725,0.33407 0.1725,0.36301 -0.0046,0.0368 -0.240734,2.05066 -0.363014,4.12962 -0.06166,1.04899 -0.09352,1.55761 -0.03862,2.3892 0.0275,0.41583 0.06724,0.77996 0.1519,1.06845 0.04236,0.14428 0.09766,0.26656 0.17506,0.38104 0.0774,0.11448 0.1851,0.22411 0.344992,0.26518 0.69358,0.1782 1.433156,-0.18422 2.015892,-0.64622 0.582736,-0.46201 1.047464,-0.82177 1.076174,-1.4191 0.04506,-0.93688 -0.580056,-1.40605 -0.651368,-1.48666 -0.017,-0.0644 -0.11226,0.0766 -0.1725,-0.42995 -0.03252,-0.27338 -0.0609,-0.54569 -0.03862,-0.77752 0.02226,-0.23183 0.0997,-0.40845 0.1519,-0.46085 0.07286,-0.0732 0.17446,-0.0978 0.36559,-0.0953 0.19114,0.003 0.442298,0.0354 0.710582,0.0953 0.26822,0.0598 0.559206,0.1474 0.84446,0.1725 0.285188,0.0251 0.58238,-0.008 0.847034,-0.1725 0.568044,-0.35283 1.628488,-1.12759 2.17809,-1.82795 0.2748,-0.35021 0.379406,-0.5805 0.746626,-0.89338 0.08496,-0.0724 0.17112,-0.0902 0.260032,-0.0824 -4.654902,-15.18458 0.04222,-26.203483 -1.699218,-27.875843 -1.48841,-0.02284 -1.97998,-0.05494 -1.99787,-0.05664 z"
       id="path2-7" />
    <g
       style="opacity:0.2"
       transform="matrix(0.63969578,0,0,0.60713286,-12.304152,76.2003)"
       id="g3">
      <path
         style="fill-rule:evenodd"
         d="m 25.63825,57.444681 c 0,0 10.808695,0.407656 17.001734,-9.746061 6.19304,-10.153717 4.529632,-16.514958 4.529632,-16.514958 0,0 -3.213294,-0.115689 -3.218866,-0.116225 -0.335462,-0.03224 -0.5178,-0.5199 -1,-0.9063 -1.795298,-1.730199 -4.275716,-2.016094 -6.3125,-2.360169 -0.269,0.0755 0.0394,-0.0037 -0.0313,0 -0.0706,0.0037 -0.1158,-0.0038 -0.3125,0 -0.1966,0.0038 -0.6357,-0.005 -1.0937,0 -0.916,0.01 -2.18,0.0351 -3.6875,0.0938 -3.0151,0.1172 -6.9784,0.4145 -10.9688,1.125 -3.9903,0.7105 -8.01105,1.8192 -11.15627,3.6875 -3.13608,1.8628 -5.44221,4.831232 -5.7812498,8.454632 -9.9e-4,0.0105 9.5e-4,0.0207 0,0.0313 -0.00252,0.0271 -0.00982,0.0854 0,0.1875 0.01145,0.119 0.05769,0.282 0.1249998,0.4687 0.13462,0.3733 0.40615,0.8857 0.96875,1.4688 1.1252,1.1661 3.36525,2.6981 7.96872,4.4687 0,0 0.8212,0.347 1.50005,0.875 0.3395,0.264 0.6171,0.5841 0.75,0.8438 0.133,0.2596 0.1563,0.3982 0,0.6562 v 0.0313 c 0,0 -0.1098,0.1752 -0.1562,0.4062 -0.0464,0.231 -0.0532,0.5451 0.0312,0.9375 0.1689,0.7848 0.7239,2.412381 2.1563,3.689081 4e-4,4e-4 0.0989,0.0802 0.125,0.0937 0.0261,0.0135 0.0466,0.0255 0.0625,0.0313 0.0316,0.0115 0.0466,-0.0037 0.0625,0 0.0318,0.0073 0.0436,0.0285 0.0625,0.0312 0.0377,0.0054 0.0526,-0.0042 0.0937,0 0.0822,0.0084 0.2172,0.0164 0.3438,0.0313 0.2532,0.0297 0.5877,0.0667 0.9375,0.1562 0.6995,0.1791 1.3966,0.549 1.6875,1.0938 0.1567,0.2934 0.3986,0.3607 0.625,0.4375 0.2264,0.0767 0.4716,0.1208 0.75,0.1562 0.5567,0.0709 1.2273,0.1116 1.875,0.125 0.6476,0.0135 1.2718,0.0059 1.7187,0.0313"
         id="path3" />
    </g>
    <path
       style="fill:#f1f1f1;fill-rule:evenodd;fill-opacity:1"
       d="m 4.096528,110.07685 c 0,0 6.914276,0.2475 10.875938,-5.91715 3.961662,-6.164655 2.897586,-10.026773 2.897586,-10.026773 0,0 -2.05553,-0.07024 -2.059094,-0.07056 -0.214594,-0.01958 -0.331236,-0.315648 -0.639696,-0.550244 -1.148446,-1.050461 -2.735158,-1.224037 -4.03808,-1.432937 -0.17208,0.04584 0.0252,-0.0022 -0.02002,0 -0.04516,0.0022 -0.07408,-0.0023 -0.1999,0 -0.12576,0.0023 -0.406654,-0.003 -0.699636,0 -0.58596,0.0061 -1.394536,0.02131 -2.358878,0.05695 -1.928754,0.07116 -4.46406,0.251657 -7.016702,0.683025 -2.552578,0.431368 -5.1246352,1.104496 -7.1366192,2.238802 -2.006137,1.130968 -3.4813588,2.9332 -3.698241,5.133087 -6.334e-4,0.006 6.076e-4,0.0126 0,0.019 -0.00161,0.0164 -0.00628,0.0518 0,0.11384 0.00732,0.0722 0.036904,0.17122 0.079962,0.28456 0.086116,0.22664 0.2598124,0.53774 0.6197052,0.89176 0.7197858,0.70798 2.1527364,1.6381 5.0975566,2.71309 0,0 0.5253183,0.21068 0.9595763,0.53125 0.217176,0.16028 0.3947561,0.35462 0.4797711,0.51229 0.08508,0.15762 0.09998,0.24176 0,0.3984 v 0.019 c 0,0 -0.07024,0.10638 -0.09992,0.24662 -0.02968,0.14024 -0.03403,0.33095 0.01996,0.56919 0.108044,0.47648 0.463076,1.46463 1.379376,2.23976 2.56e-4,2.4e-4 0.06327,0.0487 0.07996,0.0569 0.0167,0.008 0.02981,0.0154 0.03998,0.019 0.02021,0.007 0.02981,-0.002 0.03998,0 0.02034,0.004 0.02789,0.0174 0.03998,0.019 0.02412,0.003 0.03365,-0.003 0.05994,0 0.05258,0.005 0.138942,0.01 0.219928,0.019 0.161972,0.018 0.375949,0.0405 0.599715,0.0948 0.447467,0.10874 0.893399,0.33332 1.079486,0.66408 0.10024,0.17814 0.254983,0.219 0.39981,0.26562 0.144826,0.0466 0.301681,0.0733 0.479772,0.0948 0.356119,0.043 0.785099,0.0678 1.19943,0.0759 0.414267,0.008 0.813565,0.004 1.099445,0.019"
       id="path4" />
    <path
       style="fill:#d9d9d9;fill-rule:evenodd;fill-opacity:1"
       d="m 23.697084,94.075448 c 6.640752,0.410741 10.534564,12.274912 11.469726,16.049892 -0.09406,0.005 -0.15466,0.0128 -0.213688,0.0206 -0.0158,0.11186 -0.03862,0.32599 -0.03862,0.68741 0,0.2211 0.0172,0.45424 0.05922,0.62562 0.04204,0.17134 0.1048,0.26561 0.13646,0.28578 l 0.03862,0.018 0.018,0.0206 c 0,0 0.405122,0.41163 0.556108,1.10449 0.15104,0.69287 0.03144,1.69189 -0.9011,2.75995 -0.918454,1.05178 -2.248878,2.06829 -3.72026,3.35209 -0.73569,0.64193 -1.284174,1.26037 -1.768732,1.77131 -0.242218,0.25541 -0.430944,0.47774 -0.556108,0.66424 -0.12524,0.1865 -0.1725,0.33407 -0.1725,0.36301 0.0046,0.0368 0.240734,2.05066 0.363014,4.12962 0.06166,1.04899 0.09352,1.55761 0.03862,2.3892 -0.0275,0.41583 -0.06724,0.77996 -0.1519,1.06845 -0.04236,0.14428 -0.09766,0.26656 -0.17508,0.38104 -0.0774,0.11448 -0.1851,0.22411 -0.344992,0.26518 -0.693578,0.1782 -1.433154,-0.18422 -2.015892,-0.64622 -0.582736,-0.46201 -1.047464,-0.82177 -1.076172,-1.4191 -0.04506,-0.93688 0.580054,-1.40605 0.651368,-1.48666 0.017,-0.0644 0.11226,0.0766 0.1725,-0.42995 0.03252,-0.27338 0.0609,-0.54569 0.03862,-0.77752 -0.02224,-0.23183 -0.0997,-0.40845 -0.1519,-0.46085 -0.07286,-0.0732 -0.17446,-0.0978 -0.365588,-0.0953 -0.19114,0.003 -0.442298,0.0354 -0.710582,0.0953 -0.26822,0.0598 -0.559208,0.1474 -0.84446,0.1725 -0.28519,0.0251 -0.58238,-0.008 -0.847036,-0.1725 -0.568026,-0.3528 -1.628468,-1.12756 -2.178072,-1.82792 -0.274798,-0.35021 -0.379406,-0.5805 -0.746626,-0.89338 -0.08496,-0.0724 -0.171112,-0.0902 -0.260032,-0.0824 4.654902,-15.18458 -0.04222,-26.203485 1.699218,-27.875845 1.48841,-0.02284 1.979982,-0.05494 1.99787,-0.05664 z"
       id="path5" />
    <g
       style="opacity:0.2"
       transform="matrix(-0.63969578,0,0,0.60713286,52.304152,76.2003)"
       id="g6">
      <path
         style="fill-rule:evenodd"
         d="m 25.63825,57.444681 c 0,0 10.808695,0.407656 17.001734,-9.746061 6.19304,-10.153717 4.529632,-16.514958 4.529632,-16.514958 0,0 -3.213294,-0.115689 -3.218866,-0.116225 -0.335462,-0.03224 -0.5178,-0.5199 -1,-0.9063 -1.795298,-1.730199 -4.275716,-2.016094 -6.3125,-2.360169 -0.269,0.0755 0.0394,-0.0037 -0.0313,0 -0.0706,0.0037 -0.1158,-0.0038 -0.3125,0 -0.1966,0.0038 -0.6357,-0.005 -1.0937,0 -0.916,0.01 -2.18,0.0351 -3.6875,0.0938 -3.0151,0.1172 -6.9784,0.4145 -10.9688,1.125 -3.9903,0.7105 -8.01105,1.8192 -11.15627,3.6875 -3.13608,1.8628 -5.44221,4.831232 -5.7812498,8.454632 -9.9e-4,0.0105 9.5e-4,0.0207 0,0.0313 -0.00252,0.0271 -0.00982,0.0854 0,0.1875 0.01145,0.119 0.05769,0.282 0.1249998,0.4687 0.13462,0.3733 0.40615,0.8857 0.96875,1.4688 1.1252,1.1661 3.36525,2.6981 7.96872,4.4687 0,0 0.8212,0.347 1.50005,0.875 0.3395,0.264 0.6171,0.5841 0.75,0.8438 0.133,0.2596 0.1563,0.3982 0,0.6562 v 0.0313 c 0,0 -0.1098,0.1752 -0.1562,0.4062 -0.0464,0.231 -0.0532,0.5451 0.0312,0.9375 0.1689,0.7848 0.7239,2.412381 2.1563,3.689081 4e-4,4e-4 0.0989,0.0802 0.125,0.0937 0.0261,0.0135 0.0466,0.0255 0.0625,0.0313 0.0316,0.0115 0.0466,-0.0037 0.0625,0 0.0318,0.0073 0.0436,0.0285 0.0625,0.0312 0.0377,0.0054 0.0526,-0.0042 0.0937,0 0.0822,0.0084 0.2172,0.0164 0.3438,0.0313 0.2532,0.0297 0.5877,0.0667 0.9375,0.1562 0.6995,0.1791 1.3966,0.549 1.6875,1.0938 0.1567,0.2934 0.3986,0.3607 0.625,0.4375 0.2264,0.0767 0.4716,0.1208 0.75,0.1562 0.5567,0.0709 1.2273,0.1116 1.875,0.125 0.6476,0.0135 1.2718,0.0059 1.7187,0.0313"
         id="path6" />
    </g>
    <path
       style="fill:#f2f2f2;fill-rule:evenodd;fill-opacity:1"
       d="m 35.903472,110.07685 c 0,0 -6.914276,0.2475 -10.875938,-5.91715 -3.961662,-6.164655 -2.897586,-10.026773 -2.897586,-10.026773 0,0 2.05553,-0.07024 2.059094,-0.07056 0.214594,-0.01958 0.331236,-0.315648 0.639696,-0.550244 1.148446,-1.050461 2.735158,-1.224037 4.03808,-1.432937 0.17208,0.04584 -0.0252,-0.0022 0.02002,0 0.04516,0.0022 0.07408,-0.0023 0.1999,0 0.12576,0.0023 0.406654,-0.003 0.699634,0 0.585962,0.0061 1.394538,0.02131 2.358878,0.05695 1.928748,0.07116 4.464054,0.251657 7.016696,0.683025 2.552578,0.431368 5.124634,1.104496 7.136618,2.238802 2.006138,1.130968 3.48136,2.9332 3.698242,5.133087 6.34e-4,0.006 -6.08e-4,0.0126 0,0.019 0.0016,0.0164 0.0062,0.0518 0,0.11384 -0.0074,0.0722 -0.0369,0.17122 -0.07996,0.28456 -0.08612,0.22664 -0.259812,0.53774 -0.619706,0.89176 -0.719784,0.70798 -2.152736,1.6381 -5.097556,2.71309 0,0 -0.525318,0.21068 -0.959576,0.53125 -0.217176,0.16028 -0.394756,0.35462 -0.479772,0.51229 -0.08508,0.15762 -0.09998,0.24176 0,0.3984 v 0.019 c 0,0 0.07024,0.10638 0.09992,0.24662 0.02968,0.14024 0.03404,0.33095 -0.02,0.56919 -0.10804,0.47648 -0.463076,1.46463 -1.379376,2.23976 -2.56e-4,2.4e-4 -0.06326,0.0487 -0.07996,0.0569 -0.0166,0.008 -0.0298,0.0154 -0.03998,0.019 -0.02022,0.007 -0.0298,-0.002 -0.03998,0 -0.02034,0.004 -0.02788,0.0174 -0.03998,0.019 -0.02412,0.003 -0.03364,-0.003 -0.05994,0 -0.05258,0.005 -0.13894,0.01 -0.219928,0.019 -0.16198,0.018 -0.375948,0.0405 -0.599714,0.0948 -0.447468,0.10874 -0.893398,0.33332 -1.079486,0.66408 -0.10024,0.17814 -0.254984,0.219 -0.39981,0.26562 -0.14482,0.0466 -0.30168,0.0733 -0.479772,0.0948 -0.356118,0.043 -0.785098,0.0678 -1.19943,0.0759 -0.414266,0.008 -0.813564,0.004 -1.099444,0.019"
       id="path7" />
    <path
       style="opacity:0.2"
       d="m 12.07547,79.999522 c -0.59249,0 -1.07547,0.529934 -1.07547,1.183613 0,0.534269 0.321416,0.983551 0.764632,1.130831 0.666048,2.498624 2.23433,4.85235 4.400266,6.562297 -0.432504,0.939783 -0.662416,2.020302 -0.664488,3.122905 0.0014,1.705009 0.546822,3.328692 1.499952,4.465366 V 123.6561 c 0,2.60407 1.197188,4.49986 2.999922,4.49986 1.802718,0 2.995846,-1.97304 2.999906,-4.49986 V 96.46153 c 0.952548,-1.135974 1.497898,-2.7584 1.499952,-4.462362 -0.0012,-1.102221 -0.230034,-2.182712 -0.661482,-3.122905 2.16444,-1.709947 3.73038,-4.064874 4.39636,-6.562297 C 28.679014,82.166673 29,81.717284 29,81.18315 c 0,-0.653678 -0.482982,-1.183612 -1.075472,-1.183612 -0.59487,0 -1.078084,0.531042 -1.078084,1.183553 0,0.360109 0.14704,0.680395 0.377906,0.896462 -0.607526,2.206283 -2.011582,4.289569 -3.937376,5.829871 -0.849824,-1.215933 -2.039864,-1.907361 -3.286402,-1.909441 -1.24549,0.0032 -2.434282,0.694526 -3.283394,1.909441 -1.927444,-1.540453 -3.332896,-3.622389 -3.94038,-5.82927 0.230988,-0.215994 0.37799,-0.536384 0.37799,-0.896373 0,-0.65263 -0.484492,-1.183614 -1.078458,-1.183614 z"
       id="path8" />
    <path
       style="opacity:0.2;fill:#ffffff;fill-rule:evenodd"
       d="m 10.212891,92.078267 c -0.58596,0.0061 -1.39308,0.02295 -2.357422,0.05859 -1.928754,0.07116 -4.464936,0.250272 -7.017578,0.68164 -2.552578,0.431368 -5.1247351,1.105929 -7.1367191,2.240235 -2.006137,1.130968 -3.4803833,2.932926 -3.6972657,5.132808 -6.333e-4,0.006 6.077e-4,0.0112 0,0.0176 -0.00161,0.0164 -0.00628,0.0532 0,0.11524 0.00732,0.0722 0.03702,0.16986 0.080078,0.2832 0.00318,0.008 0.012198,0.0207 0.015625,0.0293 0.391289,-1.945804 1.7682903,-3.544609 3.6015625,-4.578123 2.011984,-1.134306 4.5841413,-1.808867 7.1367193,-2.240235 2.552642,-0.431368 5.088824,-0.61048 7.017578,-0.68164 0.964342,-0.03564 1.771462,-0.05249 2.357422,-0.05859 0.292982,-0.003 0.575413,0.0023 0.701171,0 0.125819,-0.0023 0.154059,0.0022 0.199219,0 0.04522,-0.0022 -0.152549,0.04584 0.01953,0 1.302923,0.2089 2.890617,0.383133 4.039063,1.433594 0.30846,0.234596 0.424078,0.531201 0.638672,0.550781 0.0036,3.2e-4 2.058594,0.07031 2.058594,0.07031 0,0 0.07123,0.2901 0.107421,0.804687 0.05265,-1.152122 -0.107421,-1.804688 -0.107421,-1.804687 0,0 -2.05503,-0.06999 -2.058594,-0.07031 -0.214593,-0.01959 -0.330211,-0.31619 -0.638671,-0.550786 -1.148446,-1.050461 -2.73614,-1.224694 -4.039063,-1.433594 -0.17208,0.04584 0.02569,-0.0022 -0.01953,0 -0.04516,0.0022 -0.0734,-0.0023 -0.199219,0 -0.125759,0.0023 -0.408189,-0.003 -0.701171,0 z m 18.654297,0 c -1.302923,0.2089 -2.890617,0.383133 -4.039063,1.433594 -0.30846,0.234596 -0.424078,0.531201 -0.638672,0.550781 -0.0036,3.2e-4 -2.058594,0.07031 -2.058594,0.07031 0,0 -0.160069,0.652565 -0.107421,1.804687 0.03619,-0.514587 0.107421,-0.804687 0.107421,-0.804687 0,-10e-7 2.054994,-0.06999 2.058594,-0.07031 0.214594,-0.01958 0.330212,-0.316185 0.638672,-0.550781 1.148446,-1.050461 2.73614,-1.224694 4.039063,-1.433594 0.172078,0.04584 -0.02569,-0.0022 0.01953,0 0.04516,0.0022 0.0734,-0.0023 0.199219,0 0.125759,0.0023 0.408191,-0.003 0.701171,0 0.585962,0.0061 1.393082,0.02295 2.357422,0.05859 1.928748,0.07116 4.464936,0.250272 7.017578,0.68164 2.552578,0.431368 5.124735,1.105929 7.136719,2.240235 1.833273,1.033514 3.210274,2.632319 3.601563,4.578128 0.0034,-0.009 0.01244,-0.0209 0.01563,-0.0293 0.04306,-0.11335 0.07268,-0.21097 0.08008,-0.28321 0.0062,-0.062 0.0016,-0.0988 0,-0.11523 -6.08e-4,-0.006 6.34e-4,-0.0112 0,-0.0176 -0.216882,-2.199887 -1.691128,-4.001845 -3.697266,-5.132813 -2.011984,-1.134306 -4.584141,-1.808867 -7.136719,-2.240235 -2.552642,-0.431368 -5.08883,-0.61048 -7.017578,-0.68164 -0.96434,-0.03564 -1.77146,-0.05249 -2.357422,-0.05859 -0.29298,-0.003 -0.575412,0.0023 -0.701171,0 -0.12582,-0.0023 -0.154059,0.0022 -0.199219,0 -0.04522,-0.0022 0.152549,0.04584 -0.01953,0 z M -2.875,106.10366 c -0.00417,0.11195 0.00114,0.23663 0.035156,0.38672 0.013396,0.0591 0.04483,0.14531 0.066406,0.21875 0.00251,-0.004 0.013672,-0.0352 0.013672,-0.0352 v -0.0195 c 0.09998,-0.15664 0.08508,-0.24082 0,-0.39844 -0.025536,-0.0474 -0.074343,-0.10036 -0.115234,-0.15234 z m 45.75,0 c -0.04089,0.052 -0.0897,0.10498 -0.115234,0.15234 -0.08508,0.15762 -0.09998,0.2418 0,0.39844 v 0.0195 c 0,0 0.01116,0.0311 0.01367,0.0352 0.02157,-0.0734 0.05301,-0.15967 0.06641,-0.21875 0.03404,-0.15008 0.03933,-0.27477 0.03516,-0.38672 z"
       id="path9" />
    <path
       style="fill:#5b7ba6;fill-opacity:1"
       d="M 12.07547,79 C 11.48298,79 11,79.529934 11,80.183613 c 0,0.53427 0.321416,0.98355 0.764632,1.130831 0.666048,2.498624 2.23433,4.85235 4.400266,6.562297 -0.432504,0.939783 -0.662416,2.020302 -0.664488,3.122905 0.0014,1.705009 0.546822,3.328692 1.499952,4.465366 v 27.191568 c 0,2.60406 1.197188,4.49986 2.999922,4.49986 1.802718,0 2.995846,-1.97304 2.999906,-4.49986 V 95.462008 c 0.952548,-1.135974 1.497898,-2.7584 1.499952,-4.462362 -0.0012,-1.102221 -0.230034,-2.182712 -0.661482,-3.122905 2.16444,-1.709947 3.73038,-4.064874 4.39636,-6.562297 C 28.679014,81.167151 29,80.717762 29,80.183628 c 0,-0.653678 -0.482982,-1.183612 -1.075472,-1.183612 -0.59487,0 -1.078084,0.531042 -1.078084,1.183553 0,0.360109 0.14704,0.680395 0.377906,0.896462 -0.607526,2.206283 -2.011582,4.289569 -3.937376,5.829871 -0.849824,-1.215933 -2.039864,-1.907361 -3.286402,-1.909441 -1.24549,0.0032 -2.434282,0.694526 -3.283394,1.909441 -1.927444,-1.540453 -3.332896,-3.622389 -3.94038,-5.82927 0.230988,-0.215994 0.37799,-0.536384 0.37799,-0.896373 0,-0.65263 -0.484492,-1.183614 -1.078458,-1.183614 z"
       id="path10" />
  </g>
</svg>
