<?xml version="1.0" encoding="UTF-8" standalone="no"?>
<svg
   width="62"
   height="62"
   viewBox="0 0 62 62"
   version="1.1"
   id="svg74"
   sodipodi:docname="qomp.svg"
   inkscape:version="1.4 (unknown)"
   xmlns:inkscape="http://www.inkscape.org/namespaces/inkscape"
   xmlns:sodipodi="http://sodipodi.sourceforge.net/DTD/sodipodi-0.dtd"
   xmlns:xlink="http://www.w3.org/1999/xlink"
   xmlns="http://www.w3.org/2000/svg"
   xmlns:svg="http://www.w3.org/2000/svg"
   xmlns:rdf="http://www.w3.org/1999/02/22-rdf-syntax-ns#"
   xmlns:cc="http://creativecommons.org/ns#"
   xmlns:dc="http://purl.org/dc/elements/1.1/">
  <metadata
     id="metadata78">
    <rdf:RDF>
      <cc:Work
         rdf:about="">
        <dc:format>image/svg+xml</dc:format>
        <dc:type
           rdf:resource="http://purl.org/dc/dcmitype/StillImage" />
      </cc:Work>
    </rdf:RDF>
  </metadata>
  <sodipodi:namedview
     pagecolor="#ffffff"
     bordercolor="#666666"
     borderopacity="1"
     objecttolerance="10"
     gridtolerance="10"
     guidetolerance="10"
     inkscape:pageopacity="0"
     inkscape:pageshadow="2"
     inkscape:window-width="1920"
     inkscape:window-height="998"
     id="namedview76"
     showgrid="false"
     inkscape:zoom="8.0751594"
     inkscape:cx="23.219356"
     inkscape:cy="27.553636"
     inkscape:window-x="0"
     inkscape:window-y="0"
     inkscape:window-maximized="1"
     inkscape:current-layer="svg74"
     inkscape:showpageshadow="2"
     inkscape:pagecheckerboard="0"
     inkscape:deskcolor="#d1d1d1">
    <inkscape:grid
       type="xygrid"
       id="grid845"
       originx="0"
       originy="0"
       spacingy="1"
       spacingx="1"
       units="px"
       visible="false" />
  </sodipodi:namedview>
  <defs
     id="defs44">
    <linearGradient
       inkscape:collect="always"
       id="linearGradient824">
      <stop
         style="stop-color:#2ca05a;stop-opacity:1"
         offset="0"
         id="stop820" />
      <stop
         style="stop-color:#5fd35f;stop-opacity:1"
         offset="1"
         id="stop822" />
    </linearGradient>
    <linearGradient
       id="b"
       y1="545.01599"
       x1="401.70099"
       y2="525.15198"
       x2="401.81"
       gradientUnits="userSpaceOnUse"
       gradientTransform="matrix(1.9998579,0,0,1.9997851,-770.08506,-1032.4887)">
      <stop
         stop-color="#197cf1"
         id="stop7"
         style="stop-color:#2a7fff;stop-opacity:1" />
      <stop
         offset="1"
         stop-color="#86dbfc"
         id="stop9"
         style="stop-color:#5f8dd3;stop-opacity:1" />
    </linearGradient>
    <linearGradient
       inkscape:collect="always"
       xlink:href="#linearGradient824"
       id="linearGradient826"
       x1="28.600128"
       y1="43.995712"
       x2="29.505178"
       y2="4.0143209"
       gradientUnits="userSpaceOnUse"
       gradientTransform="matrix(1.4000001,0,0,1.4000001,-2.6000087,-2.6000278)" />
  </defs>
  <rect
     width="55.996017"
     x="3.0000067"
     y="2.9999998"
     rx="27.998009"
     height="55.993977"
     id="rect48"
     style="fill:url(#b);stroke-width:1.99982" />
  <path
     d="m 30.612028,3.0200218 c -2.143846,0.029996 -4.221699,0.3079668 -6.221557,0.789915 -0.525963,0.4719493 -1.303908,0.7119234 -2.175846,0.687926 -0.311976,0.297968 -0.239982,0.8559081 -0.40997,1.265864 -0.14399,0.343963 -0.647954,0.7119234 -0.99193,0.6839265 -0.253982,-0.021998 -0.545961,-0.3799592 -0.545961,-0.6179336 0,-0.2859693 0.397971,-0.4459521 0.179988,-0.7659176 -2.227842,0.9039027 -4.301694,2.0937748 -6.199559,3.5116223 0.507964,-0.1879797 1.069924,-0.5019459 1.531892,-0.5119448 0.07599,0 0.145989,0.00601 0.213984,0.023997 0.309977,0.081991 1.125918,0.9758956 0.445969,1.2658646 -0.06399,0.028 -0.99793,0.129986 -1.159919,0.101988 -0.237983,-0.03999 -0.377973,-0.36796 -0.617955,-0.409955 -0.401971,-0.069993 -0.911935,0.347962 -1.257912,0.159983 -3.8157285,3.0796688 -6.7755176,7.1492308 -8.5493915,11.8187278 0.1619886,-0.09398 0.3299765,-0.191979 0.4759662,-0.26997 0.4999645,-0.259972 0.9219344,-0.679927 1.503893,-0.717923 0.2899794,-0.006 0.7099496,0.07799 0.9879298,0.135982 0.2579817,0.052 0.463967,0.225977 0.6879511,0.241975 0.6319549,0.04799 0.7819439,-0.443953 1.2959079,-0.717923 0.5319625,0.07599 0.8859375,-0.08999 1.3679035,-0.03599 0.327977,0.03599 0.563959,0.385959 0.819941,0.405956 0.213986,0.02199 0.405972,-0.199977 0.613957,-0.167981 0.201985,0.03199 0.549961,0.471949 0.581958,0.717922 0.042,0.307968 -0.223983,0.583938 -0.135996,0.921902 0.321978,0.327964 0.907936,0.393957 1.367904,0.581937 0.299978,-0.245973 0.04,-0.705924 0,-1.061885 -0.006,-0.157983 0.02199,-0.295969 0,-0.441954 -0.028,-0.245973 -0.135996,-0.471948 -0.135996,-0.683926 -0.006,-0.971896 0.783944,-1.427846 1.437896,-1.811805 0.28198,-0.167981 0.503964,-0.45995 0.749947,-0.581938 0.345975,-0.17398 0.603957,-0.213976 0.889937,-0.375958 0.517962,-0.28997 0.961931,-0.525944 1.367902,-0.855909 0.187986,-0.441952 0.01999,-1.031889 0.03599,-1.467842 0.187985,-0.113988 0.347974,0.052 0.54596,0.03599 0.311977,-0.066 0.337975,-0.507946 0.515963,-0.683927 0.103993,-0.10199 0.383972,-0.173982 0.511964,-0.27397 0.311979,-0.243974 0.411971,-0.613935 0.683952,-0.717923 0.098,-0.04 0.321978,-0.028 0.475966,-0.06999 0.201985,-0.054 0.489965,-0.293968 0.819941,-0.405957 0.213985,-0.07399 0.707951,-0.08999 0.789945,-0.171981 0.09999,-0.10199 0,-0.391958 0.03599,-0.545941 0.165988,-0.771917 1.327905,-0.9359 2.019857,-1.195872 0.481965,-0.18198 0.973931,-0.515944 1.503892,-0.413955 -0.103992,0.365961 -0.595957,0.237974 -0.511963,0.683926 0.11599,0.617934 0.941933,-0.177981 1.159917,-0.269971 0.41799,-0.175985 1.131938,-0.281974 1.679899,-0.479952 0.479966,-0.175981 1.339905,-0.4439528 0.885937,-0.9918938 -0.377974,-0.022 -0.557961,0.441953 -0.885937,0.581938 -0.227984,0.036 -0.185987,-0.18798 -0.377973,-0.207978 -0.183987,-0.022 -0.287979,0.167982 -0.475967,0.135985 -0.187986,-0.032 -0.451967,-0.325964 -0.479964,-0.545941 -0.07398,-0.5699345 0.481972,-0.8039094 0.717955,-1.2298636 -0.155988,-0.5159445 -0.869938,-0.1059884 -1.299907,-0.3079668 0.042,-0.3079669 0.359973,-0.5199441 0.717949,-0.5779378 0.293979,-0.049995 0.953933,-0.023997 1.12792,0.131985 0.10199,0.085991 0.008,0.3019675 0.171988,0.4459521 0.173988,0.157983 0.387972,0.1419847 0.613955,0.1059884 0.082,-0.389958 -0.505964,-0.2939684 -0.441969,-0.5499409 0.461968,-0.3019674 1.211914,-0.051995 1.777874,-0.1359848 0.325978,-0.047995 0.667953,-0.2799699 0.957932,-0.4419525 0.27398,-0.1559832 0.629955,-0.4279539 0.921935,-0.1719814 0.08,0.2799699 -0.253982,0.37196 -0.409972,0.5119449 -0.523962,0.4659499 -1.061923,0.9978927 -1.467896,1.5398344 0.249983,0.2439738 0.701951,0.1219876 1.125921,0.1719816 0.163989,0.021998 0.371973,0.069993 0.545961,0.1019886 0.203986,0.035995 0.42197,0.025997 0.581959,0.065993 0.28798,0.069993 0.363973,0.3779598 0.647954,0.3779598 0.467966,0 0.471966,-0.5079459 0.207985,-0.8239119 0.084,-0.3219654 0.213984,-0.4879476 0.10199,-0.7139233 C 34.053781,7.3795524 33.279836,7.779509 33.239838,7.2555658 33.213838,6.9156024 33.525819,6.9276011 33.64981,6.6736283 33.59381,6.015699 34.189772,5.9677042 34.125776,5.3777677 34.097776,5.1317943 33.887793,5.1277947 33.715805,4.8978195 33.625813,4.7798316 33.585816,4.5438574 33.477821,4.4518674 33.119847,4.1498998 32.3939,4.2078937 32.349902,3.6319555 c -0.006,-0.1959789 0.02199,-0.3699602 0.04,-0.5539404 -0.329978,-0.015998 -0.655954,-0.045996 -0.98793,-0.049995 z M 17.292975,9.7273002 c 0.159989,0.022 0.353975,0.19198 0.545962,0.207978 0.181986,0.006 0.333976,-0.09999 0.445968,-0.06999 0.28598,0.07599 0.405972,0.5079448 0.135996,0.7179228 -0.223984,0.028 -0.311978,-0.09599 -0.479967,-0.06599 -0.463967,0.07999 -0.641953,0.987893 -0.987929,0.957896 -0.327977,-0.028 -0.503964,-0.825911 -0.171987,-1.061885 0.02199,-0.207978 -0.15199,-0.239974 -0.139986,-0.4459518 0.09799,-0.125986 0.379972,-0.261972 0.651953,-0.237975 m -1.53989,0.105989 c 0.096,0.004 0.165989,0.026 0.203985,0.06599 -0.04599,0.3639608 -0.331977,0.3419628 -0.613956,0.5119448 -0.485966,0.293968 -0.767945,0.73992 -0.921934,1.367853 -0.044,0.181981 -0.521963,0.665928 -0.753946,0.617934 -0.541963,-0.113988 0.149989,-1.113881 0.27398,-1.265864 0.135996,-0.167982 0.319977,-0.317966 0.479966,-0.511945 0.155988,-0.18798 0.259981,-0.441953 0.40997,-0.545942 0.163988,-0.1139878 0.635955,-0.2499728 0.921935,-0.2379738 m 4.045712,1.2298678 c 0.173988,0.004 0.327977,0.032 0.397971,0.101988 -0.111986,0.451952 -1.081923,0.331965 -1.437896,0.167982 0.024,-0.169981 0.287978,-0.215977 0.511963,-0.237974 0.157988,-0.006 0.353974,-0.036 0.527962,-0.032 m -2.213842,0.831911 c 0.11599,-0.0041 0.233983,0.02199 0.355974,0.054 -0.313977,0.263971 -0.655954,0.411955 -1.195914,0.581938 -0.259983,0.08198 -0.70995,0.183979 -0.753948,-0.105994 -0.054,-0.355963 0.379974,-0.271971 0.617958,-0.303968 0.297978,-0.042 0.625955,-0.215977 0.97593,-0.225976 m 34.337557,0.507945 c 0.026,0.255974 0.03,0.499947 -0.04,0.777917 -0.094,0.36996 -0.425969,0.705924 -0.40997,1.027889 0.02199,0.163983 0.201985,0.323965 0.241982,0.545941 0.02199,0.117992 -0.056,0.37196 0,0.479949 0.173987,0.335964 0.647955,0.052 0.957932,0.10199 0.301978,0.04799 0.651954,0.481949 0.647955,0.819912 -0.0041,0.235975 -0.225984,0.627934 -0.375975,0.855908 -0.297978,0.453952 -0.701949,0.473949 -1.12792,0.713923 -0.355973,0.20198 -0.509962,0.539942 -0.717948,0.889905 -0.225983,0.37996 -0.365974,0.609935 -0.273981,1.159876 -0.305977,0.605934 -0.769944,0.977894 -1.4019,1.265863 -0.187986,0.08399 -0.441969,0.113988 -0.613956,0.237975 -0.135996,0.09799 -0.215985,0.363961 -0.40997,0.581937 -0.239984,0.265972 -0.491966,0.377959 -0.617957,0.581938 -0.098,0.157983 -0.12999,0.471949 -0.237984,0.683926 -0.145989,0.287969 -0.455967,0.427954 -0.647953,0.717923 -0.08799,0.13398 -0.145989,0.405957 -0.241982,0.581937 -0.215984,0.393958 -0.585958,0.677927 -0.545961,1.02389 0.04,0.333964 0.41997,0.391958 0.445968,0.683926 0.006,0.163982 -0.107996,0.265972 -0.10199,0.445952 0.006,0.261972 0.181987,0.445953 0.203986,0.647931 0.052,0.507946 -0.173988,0.711923 -0.269982,1.057887 -0.04599,0.165981 -0.026,0.349962 -0.07,0.479948 -0.084,0.253972 -0.437969,0.483947 -0.445968,0.785915 -0.0041,0.213977 0.219985,0.383958 0.237983,0.683926 0.006,0.205978 -0.10199,0.427954 -0.066,0.617934 0.072,0.37196 0.737946,0.803913 1.027926,1.093883 0.385973,0.385958 0.891938,0.685926 1.057926,1.093882 0.139986,0.345963 0.139986,0.797914 0.40997,1.057886 0.199986,0.191979 0.529962,0.311966 0.785945,0.511945 0.237982,0.18598 0.499964,0.347963 0.753946,0.545941 0.415968,0.325965 1.043925,0.975895 1.707878,0.925901 0.345975,-0.026 0.701951,-0.309967 1.093922,-0.377959 0.403971,-0.07199 0.927934,-0.107996 1.335905,-0.066 0.311977,0.03199 0.631954,0.217977 0.957932,0.203978 0.341975,-0.02199 0.735947,-0.27597 1.125919,-0.445953 0.615956,-0.267971 1.509893,-0.599935 2.409828,-0.549939 0.171989,-1.259866 0.29198,-2.537729 0.29198,-3.847587 0,-5.297431 -1.481893,-10.224902 -4.019714,-14.440447 -0.117992,-0.008 -0.225983,-0.024 -0.355975,-0.01999 -0.345975,0.02199 -0.915934,0.02199 -0.921935,-0.409957 -0.0041,-0.353962 0.333977,-0.431953 0.73795,-0.457951 -0.755947,-1.155875 -1.601887,-2.241759 -2.515822,-3.269648 M 9.1895525,25.233633 c -0.5679599,0.03199 -0.9379336,0.05799 -1.2619105,0.203979 -0.7399474,0.335964 -0.5959577,1.337856 -1.335905,1.57383 -0.2559819,0.08198 -0.605957,0.08399 -0.8859371,0.135982 -0.2419827,0.04399 -0.5379617,0.17798 -0.7899437,0.171981 -0.2959791,-0.006 -0.8119424,-0.291968 -0.9879298,-0.479949 -0.1219918,-0.131978 -0.3199773,-0.589936 -0.449968,-0.893903 -0.1779873,0.983894 -0.3019786,1.985787 -0.3759733,3.003676 0.059996,0.01204 0.123991,0.028 0.1759875,0.028 0.3239769,0.002 0.6699524,-0.333964 1.0279269,-0.343963 0.8379404,-0.024 1.2019145,1.065886 1.8778664,1.40185 0.169988,0.08399 0.3939721,0.08799 0.6139565,0.135982 0.1759874,0.04 0.3099779,0.113988 0.4799658,0.171981 0.3619742,0.121982 0.8039429,0.109984 1.0939222,0.237975 0.435969,0.19398 0.7539461,1.011892 1.1279201,1.229868 0.022,0.219976 -0.04,0.517944 0.036,0.683927 0.175988,0.239974 0.42797,0.187979 0.7179485,0.343963 0.347976,0.187979 0.453968,0.671927 0.785944,0.819911 0.113993,0.04999 0.401973,0.04599 0.58196,0.10199 0.453968,0.137984 0.599956,0.66193 0.98793,0.545941 0.253983,-0.07599 0.235982,-0.337962 0.277979,-0.581936 0.16799,-0.181981 0.349978,-0.47195 0.613958,-0.47595 0.423969,-0.02199 0.461967,0.439953 0.617956,0.851909 0.08799,0.233975 0.315977,0.437953 0.375972,0.683926 0.105994,0.423955 0.054,1.695819 -0.03599,1.949791 -0.105994,0.311967 -0.529964,0.443952 -0.789944,0.789916 -0.121996,0.161982 -0.179988,0.397957 -0.273981,0.511945 -0.167989,0.203977 -0.417972,0.257972 -0.541962,0.445951 -0.07,0.105994 -0.137984,0.333965 -0.207986,0.475949 -0.205985,0.435953 -0.481966,0.74392 -0.307978,1.265864 0.072,0.213976 0.409971,0.359961 0.409971,0.613934 0,0.297967 -0.633955,0.563939 -0.683951,0.889904 -0.03599,0.241973 0.195986,0.675927 0.27398,0.991893 0.056,0.237975 0.507964,0.387959 0.647954,0.545942 0.239984,0.269971 0.433969,0.64993 0.651954,0.987894 0.433968,0.665928 0.773944,1.475841 1.195914,2.121772 0.223986,0.337962 0.533964,0.64193 0.683952,0.991893 0.07599,0.175981 0.066,0.387958 0.135996,0.545941 0.243982,0.55194 1.321907,1.127879 1.877866,1.401849 0.259982,0.125986 0.549961,0.171982 0.789945,0.303968 0.361974,0.201978 1.077923,0.74392 1.261909,1.061885 0.163989,0.28597 0.263982,0.979895 0.343976,1.433846 0.105994,0.599936 0.0041,1.061887 0.03599,1.709816 0.02199,0.351963 0.131992,0.705925 0.135996,1.057887 0.002,0.123984 -0.06399,0.213977 -0.07,0.339963 -0.006,0.425954 0.105994,0.905902 0.07,1.335856 -0.002,0.09199 -0.01204,0.161983 -0.028,0.241975 C 23.42655,58.216085 27.118287,59 31.000011,59 c 0.405974,0 0.801944,-0.04599 1.203916,-0.06199 0.0099,-0.06399 0.018,-0.127988 0.032,-0.179982 0.123984,-0.345962 0.441968,-0.461951 0.647954,-0.717922 0.155988,-0.19398 0.227983,-0.419956 0.375973,-0.613934 0.15999,-0.209978 0.303979,-0.395958 0.40997,-0.581938 0.09999,-0.623933 -0.247982,-1.059886 -0.10199,-1.605827 0.16399,-0.613935 1.009931,-0.987894 1.605888,-1.265864 0.203985,-0.094 0.415968,-0.249973 0.581957,-0.307967 0.411971,-0.143984 0.923936,-0.066 1.299909,-0.203978 0.639954,-0.233975 0.707949,-0.919901 1.023926,-1.503839 0.149991,-0.27597 0.345977,-0.55394 0.375975,-0.749919 0.026,-0.17598 -0.06399,-0.341963 -0.03599,-0.549941 0.032,-0.205978 0.215985,-0.385958 0.273981,-0.613934 0.07599,-0.295968 0.105994,-0.727922 0.105994,-1.057886 0,-0.269971 -0.125986,-0.509945 -0.135996,-0.753918 -0.044,-0.885905 0.319977,-0.985895 0.647954,-1.467843 0.163987,-0.239974 0.223983,-0.511945 0.339977,-0.683927 0.549959,-0.821912 1.505892,-1.217868 1.437897,-2.459735 -0.024,-0.411956 -0.279981,-1.341856 -0.581958,-1.471842 -0.173988,-0.07599 -0.56996,-0.006 -0.819942,-0.10199 -0.807943,-0.301967 -1.283909,-1.303859 -2.121849,-1.367851 -0.177987,-0.02199 -0.341976,0.07399 -0.541962,0.06999 -0.331976,-0.02199 -0.83194,-0.231975 -1.199915,-0.273971 -0.233983,-0.026 -0.54396,0.07 -0.68395,0 -0.213986,-0.103992 -0.235984,-0.495947 -0.409972,-0.613933 -0.137984,-0.094 -0.40397,-0.125986 -0.613956,-0.207979 -0.335976,-0.12999 -0.603957,-0.281969 -0.99193,-0.307966 -0.119994,-0.006 -0.26998,0.05799 -0.409971,0.03599 -0.213984,-0.03599 -0.383972,-0.289968 -0.581958,-0.409955 -0.247982,-0.151984 -0.479966,-0.225975 -0.581959,-0.441953 0.223985,-0.73592 -0.395972,-0.941898 -0.545961,-1.367852 -0.072,-0.199979 -0.038,-0.439953 -0.10199,-0.617934 -0.08799,-0.253974 -0.341975,-0.399957 -0.617956,-0.613935 -0.493965,-0.379958 -0.933933,-0.73792 -1.639883,-0.823911 -0.309978,-0.04 -0.615956,0.094 -0.991929,0.06999 -0.397973,-0.026 -0.897936,-0.37396 -1.195915,-0.713923 -0.28998,-0.331965 -0.43197,-0.629933 -0.683952,-0.789915 -0.237983,-0.153985 -0.55596,-0.149985 -0.717948,-0.303968 -0.072,-0.068 -0.05999,-0.18398 -0.135996,-0.343963 -0.119994,-0.247974 -0.321978,-0.385958 -0.171989,-0.683927 -0.271981,-0.139986 -0.27998,0.257973 -0.577959,0.207979 -0.26598,-0.37796 -0.489965,-0.55594 -1.093922,-0.445952 -0.275979,0.052 -0.431969,0.401957 -0.753946,0.409955 -0.263982,0.02199 -0.471967,-0.293968 -0.819941,-0.343963 -0.263981,-0.03599 -0.56196,0.06999 -0.749947,0.03599 -0.29198,-0.05799 -0.381973,-0.301968 -0.647955,-0.47595 -0.195986,-0.127988 -0.573959,-0.347962 -0.68395,-0.343962 -0.343976,0.02199 -0.587958,0.731922 -1.061925,0.479948 -0.229984,-0.291969 0.373973,-0.445952 0.10199,-0.717923 -0.207986,-0.207978 -0.381974,0.09199 -0.545961,0.207977 -0.189987,0.131992 -0.367975,0.261972 -0.577959,0.339964 -0.469966,0.175981 -0.761946,0.08399 -1.12792,0.273971 -0.339976,0.17598 -0.353975,0.46995 -0.545961,0.819912 -0.157989,0.285969 -0.517964,0.701925 -0.753946,0.717923 -0.28598,0.02199 -0.559961,-0.399958 -0.819943,-0.511945 -0.781944,-0.339964 -1.161917,0.299968 -1.81187,0.307966 -0.603957,0.02199 -1.463897,-0.971895 -1.433899,-1.539834 0.006,-0.345963 0.197986,-0.871907 0.237983,-1.29986 0.036,-0.339964 0.269981,-0.543942 0.27398,-0.855909 0.006,-0.415955 -0.54996,-0.735921 -0.819941,-0.785915 -0.6379555,-0.117992 -1.5258925,0.257973 -2.2578403,-0.03599 -0.1399902,-0.231974 0.1639884,-0.391956 0.2419828,-0.617933 0.043996,-0.127988 0.019999,-0.299967 0.065996,-0.441952 0.081994,-0.217976 0.3079781,-0.385959 0.4099709,-0.617934 0.075995,-0.175981 0.095992,-0.429954 0.1719881,-0.64793 0.08999,-0.247973 0.253982,-0.407957 0.27398,-0.581938 0.026,-0.229975 -0.062,-0.495947 -0.241983,-0.647929 m 9.1393495,7.237222 c 0.231985,0.02199 0.259983,0.499945 0.024,0.53994 -0.255982,0.04 -0.383974,-0.399956 -0.135996,-0.515943 0.042,-0.02199 0.08,-0.026 0.113988,-0.024"
     id="path52"
     style="fill:url(#linearGradient826);fill-opacity:1;stroke-width:1.99982"
     inkscape:connector-curvature="0" />
  <path
     style="opacity:0.2;fill:#000000;fill-opacity:1;stroke-width:1.99982"
     d="m 3.0163978,30.299973 c -0.00563,0.232234 -0.016406,0.463627 -0.016406,0.697266 0,15.510332 12.4863695,27.997267 27.9972665,27.997267 15.510897,0 28.000002,-12.486935 28.000002,-27.997267 0,-0.23365 -0.01344,-0.46502 -0.01914,-0.697266 -0.368437,15.18484 -12.703626,27.300001 -27.980863,27.300001 -15.27725,0 -27.612446,-12.115144 -27.9808612,-27.300001 z"
     id="rect4573" />
  <text
     xml:space="preserve"
     style="font-size:19.906px;font-family:'Blush Asliring';-inkscape-font-specification:'Blush Asliring';text-align:start;writing-mode:lr-tb;direction:ltr;text-anchor:start;opacity:1;fill:#f1f1f1;fill-opacity:1;stroke:#f1f1f1;stroke-width:0.201547;stroke-linecap:round;stroke-linejoin:round;stroke-opacity:1;paint-order:fill markers stroke"
     x="5.3135867"
     y="35.501629"
     id="text1"
     transform="scale(0.99762075,1.0023849)"><tspan
       sodipodi:role="line"
       id="tspan1"
       x="5.3135867"
       y="35.501629"
       style="stroke-width:0.201547">gomp</tspan><tspan
       sodipodi:role="line"
       x="5.3135867"
       y="60.384129"
       id="tspan2"
       style="stroke-width:0.201547" /></text>
  <g
     id="g4"
     transform="translate(10.311458,-31.236623)">
    <g
       opacity="0.2"
       style="enable-background:new"
       transform="matrix(0.99999723,0,0,0.99999723,-463.99864,-112.99941)"
       id="g2">
      <path
         transform="matrix(2,0,0,2,269,-837)"
         d="m 110,507 v 0.5 l -1e-5,4.7695 c -0.30389,-0.17609 -0.64878,-0.26905 -1,-0.26953 -1.1046,0 -2,0.89543 -2,2 0,1.10457 0.89543,2 2,2 1.10457,0 2,-0.89543 2,-2 l 1e-5,-5 h 4 l -1e-5,3.2695 c -0.30389,-0.17609 -0.64878,-0.26905 -1,-0.26953 -1.1046,0 -2,0.89543 -2,2 0,1.10457 0.89543,2 2,2 1.10457,0 2,-0.89543 2,-2 l 1e-5,-7 h -0.5 z"
         id="path2" />
    </g>
    <g
       style="fill:#3f3f3f;enable-background:new"
       transform="matrix(0.99999723,0,0,0.99999723,-463.99864,-114.9994)"
       id="g3">
      <path
         transform="matrix(2,0,0,2,269,-837)"
         d="m 110,507 v 0.5 l -1e-5,4.7695 c -0.30389,-0.17609 -0.64878,-0.26905 -1,-0.26953 -1.1046,0 -2,0.89543 -2,2 0,1.10457 0.89543,2 2,2 1.10457,0 2,-0.89543 2,-2 l 1e-5,-5 h 4 l -1e-5,3.2695 c -0.30389,-0.17609 -0.64878,-0.26905 -1,-0.26953 -1.1046,0 -2,0.89543 -2,2 0,1.10457 0.89543,2 2,2 1.10457,0 2,-0.89543 2,-2 l 1e-5,-7 h -0.5 z"
         id="path3"
         style="fill:#2d3d53;fill-opacity:1" />
    </g>
  </g>
</svg>
