<?xml version="1.0" encoding="UTF-8" standalone="no"?>
<svg
   width="62"
   height="62"
   version="1.1"
   id="svg7"
   sodipodi:docname="qprompt.svg"
   inkscape:version="1.4 (unknown)"
   xmlns:inkscape="http://www.inkscape.org/namespaces/inkscape"
   xmlns:sodipodi="http://sodipodi.sourceforge.net/DTD/sodipodi-0.dtd"
   xmlns:xlink="http://www.w3.org/1999/xlink"
   xmlns="http://www.w3.org/2000/svg"
   xmlns:svg="http://www.w3.org/2000/svg">
  <defs
     id="defs7">
    <linearGradient
       id="linearGradient7"
       inkscape:collect="always">
      <stop
         style="stop-color:#2d3d53;stop-opacity:1;"
         offset="0"
         id="stop7" />
      <stop
         style="stop-color:#344b65;stop-opacity:1;"
         offset="1"
         id="stop8" />
    </linearGradient>
    <linearGradient
       inkscape:collect="always"
       xlink:href="#linearGradient7"
       id="linearGradient8"
       x1="30.930323"
       y1="59"
       x2="30.509678"
       y2="6"
       gradientUnits="userSpaceOnUse"
       gradientTransform="matrix(1.034487,0,0,1.0363638,-0.10346113,-0.1818182)" />
  </defs>
  <sodipodi:namedview
     id="namedview7"
     pagecolor="#ffffff"
     bordercolor="#000000"
     borderopacity="0.25"
     inkscape:showpageshadow="2"
     inkscape:pageopacity="0.0"
     inkscape:pagecheckerboard="0"
     inkscape:deskcolor="#d1d1d1"
     inkscape:zoom="6.0546875"
     inkscape:cx="39.225806"
     inkscape:cy="20.232258"
     inkscape:window-width="1920"
     inkscape:window-height="998"
     inkscape:window-x="0"
     inkscape:window-y="0"
     inkscape:window-maximized="1"
     inkscape:current-layer="svg7" />
  <g
     id="g9"
     transform="translate(-2.0000124,-2.5)">
    <path
       style="opacity:0.2;stroke-width:1.03546"
       d="M 42.310504,62 H 23.689745 A 7.8735839,7.887868 0 0 1 18.317652,59.87856 L 7.3378105,49.61234 A 7.1417875,7.154744 0 0 1 5.0689726,44.38182 V 24.6909 A 7.4923756,7.505968 0 0 1 7.2634295,19.3837 L 18.392136,8.234802 a 7.4923756,7.505968 0 0 1 5.297609,-2.198438 h 18.620759 a 7.4923756,7.505968 0 0 1 5.297609,2.198438 L 58.737123,19.3837 a 7.4923756,7.505968 0 0 1 2.194139,5.3072 v 19.69092 a 7.1417875,7.154744 0 0 1 -2.268624,5.23052 L 47.682598,59.87856 A 7.8735839,7.887868 0 0 1 42.310504,62 Z"
       id="path1" />
    <path
       style="fill:url(#linearGradient8);stroke-width:1.03546"
       d="M 42.310504,60.96364 H 23.689745 A 7.8735839,7.887868 0 0 1 18.317652,58.8422 L 7.3378105,48.57598 A 7.1417875,7.154744 0 0 1 5.0689726,43.34546 V 23.65454 A 7.4923756,7.505968 0 0 1 7.2634295,18.34732 L 18.392136,7.198438 A 7.4923756,7.505968 0 0 1 23.689745,5 h 18.620759 a 7.4923756,7.505968 0 0 1 5.297609,2.198438 l 11.12901,11.148882 a 7.4923756,7.505968 0 0 1 2.194139,5.30722 v 19.69092 a 7.1417875,7.154744 0 0 1 -2.268624,5.23052 L 47.682598,58.8422 a 7.8735839,7.887868 0 0 1 -5.372094,2.12144 z"
       id="path2" />
    <path
       style="opacity:0.1;fill:#ffffff;stroke-width:1.03546"
       d="M 23.689745,5 A 7.4923756,7.505968 0 0 0 18.392136,7.19823 L 7.2632238,18.34732 A 7.4923756,7.505968 0 0 0 5.0689726,23.65454 V 24.6909 A 7.4923756,7.505968 0 0 1 7.2632238,19.3837 L 18.392136,8.234594 a 7.4923756,7.505968 0 0 1 5.297609,-2.19823 h 18.620759 a 7.4923756,7.505968 0 0 1 5.297609,2.19823 L 58.737123,19.3837 a 7.4923756,7.505968 0 0 1 2.194139,5.3072 V 23.65454 A 7.4923756,7.505968 0 0 0 58.737123,18.34732 L 47.608113,7.19823 A 7.4923756,7.505968 0 0 0 42.310504,5 Z"
       id="path3" />
    <g
       id="g8"
       transform="matrix(1.0344872,0,0,1.036364,-0.10346114,-8.472728)">
      <path
         style="opacity:0.1"
         d="M 5.1309,22 A 7.2426,7.2426 0 0 0 5,23 v 2.104 L 42.744,49.848 C 43.417,50.315 44.291,49.634 44,48.869 L 33.725,24.328 C 33.141,22.935 31.827,22 30.314,22 Z m 37.7301,6 c -2.266,0 -3.422,1.723 -2.591,3.863 l 1.263,3.26 c 0.83,2.14 3.324,3.865 5.59,3.865 h 11.016 c 0.309,0 0.596,-0.035 0.861,-0.095 V 30.959 C 57.911,29.258 55.813,28 53.877,28 Z"
         id="path4" />
      <path
         style="fill:#17c7e1"
         d="M 44,47.869 33.726,23.329 C 33.142,21.936 31.828,21 30.315,21 H 4.16 C 3.0219,21.009 2.5685,22.472 3.5027,23.121 L 42.745,48.847 c 0.672,0.467 1.546,-0.213 1.255,-0.978 z"
         id="path5" />
      <path
         style="fill:#2ec27e"
         d="m 42.861,27 h 11.016 c 2.266,0 4.759,1.723 5.589,3.864 l 1.265,3.26 c 0.83,2.14 -0.326,3.864 -2.592,3.864 H 47.123 c -2.266,0 -4.759,-1.724 -5.589,-3.864 l -1.265,-3.26 C 39.439,28.723 40.595,27 42.861,27 Z"
         id="path6" />
      <path
         style="opacity:0.2;fill:#ffffff"
         d="M 4.1602,21 C 3.2409,21.007 2.7826,21.959 3.127,22.668 3.303,22.294 3.6596,22.004 4.1602,22 H 30.314 c 1.514,0 2.827,0.935 3.411,2.328 L 43.904,48.643 C 44.053,48.435 44.11,48.158 44,47.869 L 33.725,23.328 C 33.141,21.935 31.828,21 30.314,21 Z m 38.7008,6 c -1.967,0 -3.095,1.298 -2.816,3.041 C 40.261,28.825 41.294,28 42.861,28 h 11.016 c 2.266,0 4.76,1.723 5.59,3.863 l 1.263,3.26 c 0.11,0.282 0.183,0.557 0.225,0.822 0.096,-0.542 0.031,-1.162 -0.225,-1.822 l -1.263,-3.26 C 58.637,28.723 56.143,27 53.877,27 Z"
         id="path7" />
    </g>
    <text
       xml:space="preserve"
       style="font-size:22.0892px;font-family:'Blush Asliring';-inkscape-font-specification:'Blush Asliring';text-align:start;writing-mode:lr-tb;direction:ltr;text-anchor:start;fill:#f1f1f1;fill-opacity:1;stroke:#f1f1f1;stroke-width:0.223657;stroke-linecap:round;stroke-linejoin:round;paint-order:fill markers stroke"
       x="14.509659"
       y="45.912689"
       id="text8"
       transform="scale(0.99909416,1.0009067)"><tspan
         sodipodi:role="line"
         id="tspan8"
         x="14.509659"
         y="45.912689"
         style="stroke-width:0.223657">Q</tspan></text>
    <text
       xml:space="preserve"
       style="font-size:9.55698px;font-family:'Blush Asliring';-inkscape-font-specification:'Blush Asliring';text-align:start;writing-mode:lr-tb;direction:ltr;text-anchor:start;fill:#f1f1f1;fill-opacity:1;stroke:#f1f1f1;stroke-width:0.0967601;stroke-linecap:round;stroke-linejoin:round;paint-order:fill markers stroke"
       x="15.945975"
       y="55.759071"
       id="text9"
       transform="scale(1.0030489,0.9969604)"><tspan
         sodipodi:role="line"
         id="tspan9"
         x="15.945975"
         y="55.759071"
         style="stroke-width:0.0967601">Prompt</tspan></text>
  </g>
</svg>
