<?xml version="1.0" encoding="UTF-8" standalone="no"?>
<svg
   clip-rule="evenodd"
   fill-rule="evenodd"
   stroke-linejoin="round"
   stroke-miterlimit="2"
   viewBox="0 0 62 62"
   version="1.1"
   id="svg7"
   sodipodi:docname="qtikz.svg"
   width="62"
   height="62"
   inkscape:version="1.4 (unknown)"
   xmlns:inkscape="http://www.inkscape.org/namespaces/inkscape"
   xmlns:sodipodi="http://sodipodi.sourceforge.net/DTD/sodipodi-0.dtd"
   xmlns:xlink="http://www.w3.org/1999/xlink"
   xmlns="http://www.w3.org/2000/svg"
   xmlns:svg="http://www.w3.org/2000/svg">
  <defs
     id="defs7">
    <linearGradient
       id="linearGradient9"
       inkscape:collect="always">
      <stop
         style="stop-color:#aaccff;stop-opacity:1"
         offset="0"
         id="stop9" />
      <stop
         style="stop-color:#e3d7f4;stop-opacity:1"
         offset="1"
         id="stop10" />
    </linearGradient>
    <linearGradient
       id="linearGradient7"
       inkscape:collect="always">
      <stop
         style="stop-color:#2a7fff;stop-opacity:1"
         offset="0"
         id="stop7" />
      <stop
         style="stop-color:#aa87de;stop-opacity:1"
         offset="1"
         id="stop8" />
    </linearGradient>
    <linearGradient
       inkscape:collect="always"
       xlink:href="#linearGradient7"
       id="linearGradient8"
       x1="3.5550001"
       y1="53.034035"
       x2="3.5550001"
       y2="0.787"
       gradientUnits="userSpaceOnUse" />
    <linearGradient
       inkscape:collect="always"
       xlink:href="#linearGradient9"
       id="linearGradient10"
       x1="9.4843693"
       y1="56.786999"
       x2="9.4843693"
       y2="4.538753"
       gradientUnits="userSpaceOnUse" />
  </defs>
  <sodipodi:namedview
     id="namedview7"
     pagecolor="#ffffff"
     bordercolor="#000000"
     borderopacity="0.25"
     inkscape:showpageshadow="2"
     inkscape:pageopacity="0.0"
     inkscape:pagecheckerboard="0"
     inkscape:deskcolor="#d1d1d1"
     inkscape:zoom="6.6666667"
     inkscape:cx="20.025"
     inkscape:cy="35.325"
     inkscape:window-width="1920"
     inkscape:window-height="998"
     inkscape:window-x="0"
     inkscape:window-y="0"
     inkscape:window-maximized="1"
     inkscape:current-layer="svg7" />
  <linearGradient
     id="a"
     x2="1"
     gradientTransform="matrix(-0.57733734,-54.126549,54.126549,-0.57733734,198.23171,53.050275)"
     gradientUnits="userSpaceOnUse">
    <stop
       stop-color="#286cd8"
       offset="0"
       id="stop1" />
    <stop
       stop-color="#40a9fe"
       offset="1"
       id="stop2" />
  </linearGradient>
  <linearGradient
     id="b"
     x2="1"
     gradientTransform="matrix(-0.57733734,-54.126549,54.126549,-0.57733734,540.12474,53.21908)"
     gradientUnits="userSpaceOnUse">
    <stop
       stop-color="#cfdaf0"
       offset="0"
       id="stop3" />
    <stop
       stop-color="#fdfdfe"
       offset="1"
       id="stop4" />
  </linearGradient>
  <g
     id="g7"
     transform="matrix(1.0109947,0,0,1,2.4059131,2.213)">
    <path
       d="M 47.080664,6.8945045 C 47.080664,3.5220472 44.346829,0.787 40.974372,0.787 H 9.6612927 C 6.2888354,0.787 3.555,3.5220472 3.555,6.8945045 V 46.926531 c 0,3.372457 2.7338354,6.107504 6.1062927,6.107504 H 40.974372 c 3.372457,0 6.106292,-2.735047 6.106292,-6.107504 z"
       id="path4"
       style="fill:url(#linearGradient8)" />
    <path
       d="m 53.011245,10.646257 c 0,-3.372457 -2.733835,-6.1075042 -6.106293,-6.1075042 h -31.31429 c -3.372458,0 -6.106293,2.7350472 -6.106293,6.1075042 v 40.033238 c 0,3.372458 2.733835,6.107505 6.106293,6.107505 h 31.31429 c 3.372458,0 6.106293,-2.735047 6.106293,-6.107505 z"
       id="path5"
       style="fill:url(#linearGradient10)" />
    <path
       d="M 48.347002,51.00426 H 13.896556 v -0.964598 h 34.450446 z m 0,-2.748377 H 13.896556 v -0.998529 h 34.450446 z m 0,-2.922878 H 13.896556 v -0.964598 h 34.450446 z m 0,-2.982255 H 13.896556 V 41.386152 H 48.347002 Z M 28.887814,37.671965 H 14.083175 v -0.964598 h 14.804639 z m 7.475634,-2.982256 H 14.083175 V 33.725111 H 36.363448 Z M 28.8248,32.467256 H 14.195873 V 31.502658 H 28.8248 Z m 7.484117,-2.163074 H 13.961994 v -0.998529 h 22.346923 z m 8.946767,-2.924089 h -31.29369 v -0.964598 h 31.29369 z M 48.41244,24.399049 H 13.961994 V 23.434451 H 48.41244 Z M 48.53362,19.84508 H 14.083175 V 18.880482 H 48.53362 Z m 0,-2.748377 H 14.083175 v -0.99974 H 48.53362 Z m 0,-2.924089 H 14.083175 V 13.208016 H 48.53362 Z m 0,-2.981044 H 14.083175 V 10.22576 H 48.53362 Z"
       fill="#b0b0b0"
       id="path6"
       style="stroke-width:1.21181;fill:#7b95b8;fill-opacity:1" />
  </g>
  <g
     id="g10"
     transform="matrix(1.0561896,0,0,1.0561896,94.440878,19.258123)">
    <circle
       cx="-40.18301"
       cy="31"
       r="9.4679966"
       fill="#4f4f4f"
       stroke-width="0.860727"
       id="circle6"
       style="fill:#3f5574;fill-opacity:1" />
    <path
       d="m -46.183,34.327009 v 2.673 h 2.673 l 6.751,-6.751 -2.673,-2.673 z m 11.788,-6.434 c 0.283,-0.282 0.283,-0.728 0,-1.011 l -1.67,-1.67 c -0.283,-0.283 -0.729,-0.283 -1.011,0 l -1.397,1.405 2.673,2.673 z"
       fill="#ffffff"
       fill-rule="nonzero"
       id="path7" />
  </g>
</svg>
