<?xml version="1.0" encoding="UTF-8" standalone="no"?>
<svg
   width="62"
   height="62"
   version="1.1"
   id="svg29"
   sodipodi:docname="qtscrcpy.svg"
   inkscape:version="1.4 (unknown)"
   xmlns:inkscape="http://www.inkscape.org/namespaces/inkscape"
   xmlns:sodipodi="http://sodipodi.sourceforge.net/DTD/sodipodi-0.dtd"
   xmlns:xlink="http://www.w3.org/1999/xlink"
   xmlns="http://www.w3.org/2000/svg"
   xmlns:svg="http://www.w3.org/2000/svg">
  <defs
     id="defs29">
    <linearGradient
       id="linearGradient29"
       inkscape:collect="always">
      <stop
         style="stop-color:#2d3d53;stop-opacity:1;"
         offset="0"
         id="stop29" />
      <stop
         style="stop-color:#077063;stop-opacity:1;"
         offset="1"
         id="stop30" />
    </linearGradient>
    <linearGradient
       inkscape:collect="always"
       xlink:href="#linearGradient29"
       id="linearGradient30"
       x1="30.782633"
       y1="60"
       x2="30.193521"
       y2="5"
       gradientUnits="userSpaceOnUse"
       gradientTransform="matrix(0.98214286,0,0,0.98245614,-0.42857152,-0.92982455)" />
  </defs>
  <sodipodi:namedview
     id="namedview29"
     pagecolor="#ffffff"
     bordercolor="#000000"
     borderopacity="0.25"
     inkscape:showpageshadow="2"
     inkscape:pageopacity="0.0"
     inkscape:pagecheckerboard="0"
     inkscape:deskcolor="#d1d1d1"
     inkscape:zoom="7.0710678"
     inkscape:cx="56.780675"
     inkscape:cy="48.436815"
     inkscape:window-width="1920"
     inkscape:window-height="998"
     inkscape:window-x="0"
     inkscape:window-y="0"
     inkscape:window-maximized="1"
     inkscape:current-layer="svg29" />
  <rect
     style="opacity:0.2;stroke-width:0.9823"
     width="55"
     height="55.017544"
     x="3.5"
     y="3.9824562"
     ry="13.754386"
     id="rect1" />
  <rect
     style="fill:url(#linearGradient30);stroke-width:0.9823"
     width="55"
     height="55.017544"
     x="3.5"
     y="3"
     ry="13.754386"
     id="rect2" />
  <path
     style="opacity:0.1;fill:#ffffff;stroke-width:0.9823"
     d="M 17.25,3 C 9.6324999,3 3.4999999,9.1344561 3.4999999,16.754386 v 0.982456 c 0,-7.61993 6.1325,-13.7543858 13.7500001,-13.7543858 h 27.5 c 7.6175,0 13.75,6.1344558 13.75,13.7543858 V 16.754386 C 58.5,9.1344561 52.3675,3 44.75,3 Z"
     id="path28" />
  <g
     id="g1"
     transform="translate(-0.45513965,-0.48245615)">
    <path
       style="opacity:0.1"
       d="m 49.283254,18.491228 a 2.1,2.1 0 0 0 -1.61328,0.847656 l -4.726562,6.355468 c -3.347744,-2.0307 -7.277418,-3.203124 -11.484376,-3.203124 -4.209174,0 -8.139944,1.174068 -11.488282,3.207032 l -4.730468,-6.359376 a 2.1,2.1 0 0 0 -1.378906,-0.824218 2.1,2.1 0 0 0 -1.558594,0.390624 2.1,2.1 0 0 0 -0.433594,2.9375 l 4.734376,6.363282 C 12.646181,31.78564 9.9964719,36.77228 9.4590359,42.37404 c -0.1010532,2.117424 2.1328131,2.117188 2.1328131,2.117188 h 39.671875 c 0,0 2.298956,5.18e-4 2.1875,-2.222656 -0.560636,-5.560814 -3.201062,-10.51342 -7.136718,-14.070312 l 4.726562,-6.351564 a 2.1,2.1 0 0 0 -0.433594,-2.941406 2.1,2.1 0 0 0 -1.32422,-0.414062 z"
       id="path6" />
    <path
       style="fill:none;stroke:#25da79;stroke-width:4.2;stroke-linecap:round;stroke-opacity:1"
       d="M 19.13485,27.091264 13.55513,19.591228"
       id="path7" />
    <path
       style="fill:none;stroke:#25da79;stroke-width:4.2;stroke-linecap:round;stroke-opacity:1"
       d="m 43.7748,27.091264 5.58033,-7.500036"
       id="path8" />
    <path
       style="fill:#29db7c;fill-opacity:1"
       d="m 31.458412,21.491228 c -11.489318,0 -20.929561,8.726928 -21.9999561,19.883788 -0.1010536,2.117424 2.1341111,2.116212 2.1341111,2.116212 h 39.670819 c 0,0 2.299276,-4.62e-4 2.18782,-2.223636 C 52.331492,30.161394 42.911406,21.491228 31.458412,21.491228 Z"
       id="path9" />
    <path
       style="opacity:0.2"
       d="m 20.45513,32.491228 a 3.0000002,3.0000002 0 0 0 -3,3 3.0000002,3.0000002 0 0 0 3,3 3.0000002,3.0000002 0 0 0 3,-3 3.0000002,3.0000002 0 0 0 -3,-3 z m 22,0 a 3.0000002,3.0000002 0 0 0 -3,3 3.0000002,3.0000002 0 0 0 3,3 3.0000002,3.0000002 0 0 0 3,-3 3.0000002,3.0000002 0 0 0 -3,-3 z"
       id="path10" />
    <path
       style="fill:#ffffff"
       d="m 20.45513,31.491228 a 3.0000002,3.0000002 0 0 1 3,3 3.0000002,3.0000002 0 0 1 -3,3 3.0000002,3.0000002 0 0 1 -3,-3 3.0000002,3.0000002 0 0 1 3,-3 z"
       id="path11" />
    <path
       style="fill:#ffffff"
       d="m 42.45513,31.491228 a 3.0000002,3.0000002 0 0 1 3,3 3.0000002,3.0000002 0 0 1 -3,3 3.0000002,3.0000002 0 0 1 -3,-3 3.0000002,3.0000002 0 0 1 3,-3 z"
       id="path12" />
  </g>
  <path
     style="fill:#f2f2f2;stroke-width:0.991031;fill-opacity:1"
     d="m 3.5,41.308736 v 3.2 c 0,1.5512 1.2264996,2.8 2.749999,2.8 h 49.499983 c 1.523499,0 2.749999,-1.2488 2.749999,-2.8 v -3.2 z"
     id="path4" />
</svg>
