<?xml version="1.0" encoding="UTF-8" standalone="no"?>
<svg
   width="62"
   height="62"
   version="1.1"
   id="svg15"
   sodipodi:docname="qtwebflix.svg"
   inkscape:version="1.4 (unknown)"
   xmlns:inkscape="http://www.inkscape.org/namespaces/inkscape"
   xmlns:sodipodi="http://sodipodi.sourceforge.net/DTD/sodipodi-0.dtd"
   xmlns="http://www.w3.org/2000/svg"
   xmlns:svg="http://www.w3.org/2000/svg">
  <defs
     id="defs15" />
  <sodipodi:namedview
     id="namedview15"
     pagecolor="#ffffff"
     bordercolor="#000000"
     borderopacity="0.25"
     inkscape:showpageshadow="2"
     inkscape:pageopacity="0.0"
     inkscape:pagecheckerboard="0"
     inkscape:deskcolor="#d1d1d1"
     inkscape:zoom="6.0546875"
     inkscape:cx="24.526452"
     inkscape:cy="37.904516"
     inkscape:window-width="1920"
     inkscape:window-height="998"
     inkscape:window-x="0"
     inkscape:window-y="0"
     inkscape:window-maximized="1"
     inkscape:current-layer="svg15" />
  <g
     id="g15">
    <path
       style="opacity:0.2;stroke-width:0.964297"
       d="m 31.000003,14.586217 c 3.545453,0 25.999996,0 25.999996,15.668313 v 13.077144 c 0,15.668319 -1.181816,15.668319 -25.999996,15.668319 -4.727266,0 -26.0000021,0 -26.0000024,-15.668319 V 30.25453 c 3e-7,-15.668313 22.4545534,-15.668313 26.0000024,-15.668313 z"
       id="path1" />
    <path
       style="fill:none;stroke:#37474f;stroke-width:2.0555"
       d="m 24.259269,5.8965527 6.056526,8.2323033"
       id="path2" />
    <path
       style="fill:none;stroke:#37474f;stroke-width:2.0555"
       d="M 37.74074,5.8965527 32.185404,14.128856"
       id="path3" />
    <ellipse
       style="fill:#374762;stroke-width:0.964297;fill-opacity:1"
       cx="30.999987"
       cy="15.068967"
       rx="9.629631"
       ry="3.3793087"
       id="ellipse3" />
    <ellipse
       style="opacity:0.2;stroke-width:0.964297"
       cx="24.259264"
       cy="6.4625545"
       id="circle3"
       rx="2.8888917"
       ry="2.8965542" />
    <ellipse
       style="fill:#495f83;stroke-width:0.964297;fill-opacity:1"
       cx="24.259264"
       cy="5.8965473"
       id="circle4"
       rx="2.8888917"
       ry="2.8965542" />
    <path
       style="fill:#374762;stroke-width:0.964297;fill-opacity:1"
       d="m 31.000003,13.620683 c 3.545453,0 25.999996,0 25.999996,15.668327 v 13.077143 c 0,15.668325 -1.181816,15.668325 -25.999996,15.668325 -4.727266,0 -26.0000021,0 -26.0000024,-15.668325 V 29.28901 c 3e-7,-15.668327 22.4545534,-15.668327 26.0000024,-15.668327 z"
       id="path4" />
    <ellipse
       style="opacity:0.2;stroke-width:0.964297"
       cx="50.740776"
       cy="51.758625"
       id="circle5"
       rx="3.3703692"
       ry="3.3793087" />
    <ellipse
       style="fill:#5fd38d;stroke-width:0.964297"
       cx="50.740776"
       cy="50.793121"
       id="circle6"
       rx="3.3703692"
       ry="3.3793087" />
    <path
       style="opacity:1;stroke-width:0.964297;fill:#252e41;fill-opacity:1"
       d="m 28.111105,19.413785 c 2.626266,0 19.259267,0 19.259267,11.580945 v 9.66571 c 0,11.580935 -15.757572,11.580935 -19.259267,11.580935 -3.501671,0 -19.259254,0 -19.259254,-11.580935 v -9.66571 c 0,-11.580945 16.632997,-11.580945 19.259254,-11.580945 z"
       id="path6" />
    <path
       style="opacity:0.5;fill:none;stroke:#26a69a;stroke-width:4.11071;stroke-linecap:round"
       d="M 28.167038,27.234489 22.105261,46.293038"
       id="path7" />
    <path
       style="opacity:0.5;fill:none;stroke:#26a69a;stroke-width:4.11071;stroke-linecap:round"
       d="M 41.359559,27.234489 35.789477,46.293038"
       id="path8" />
    <path
       style="opacity:0.2;fill:none;stroke:#000000;stroke-width:4.11071;stroke-linecap:round"
       d="m 15.166879,28.200639 6.938382,19.058558"
       id="path9" />
    <path
       style="fill:#008080;stroke:#00b2b2;stroke-width:4.11071;stroke-linecap:round;stroke-opacity:1"
       d="m 15.166879,27.234489 6.938382,19.058549"
       id="path10" />
    <path
       style="opacity:0.2;fill:none;stroke:#000000;stroke-width:4.11071;stroke-linecap:round"
       d="m 28.167038,28.200639 7.622439,19.058558"
       id="path11" />
    <path
       style="fill:none;stroke:#00b2b2;stroke-width:4.11071;stroke-linecap:round;stroke-opacity:1"
       d="m 28.167038,27.234489 7.622439,19.058549"
       id="path12" />
    <ellipse
       style="opacity:0.2;stroke-width:0.964297"
       cx="37.740734"
       cy="6.4625545"
       id="circle12"
       rx="2.8888917"
       ry="2.8965542" />
    <ellipse
       style="fill:#495f83;stroke-width:0.964297;fill-opacity:1"
       cx="37.740734"
       cy="5.8965473"
       id="circle13"
       rx="2.8888917"
       ry="2.8965542" />
    <path
       style="opacity:0.1;fill:#ffffff;stroke-width:0.964297"
       d="m 24.259269,3.0000006 a 2.8888886,2.8965511 0 0 0 -2.888907,2.8965511 2.8888886,2.8965511 0 0 0 0.04125,0.4959596 2.8888886,2.8965511 0 0 1 2.847523,-2.4269939 2.8888886,2.8965511 0 0 1 2.847515,2.400593 2.8888886,2.8965511 0 0 0 0.04126,-0.4695587 2.8888886,2.8965511 0 0 0 -2.888867,-2.8965511 z"
       id="path13" />
    <path
       style="opacity:0.1;fill:#ffffff;stroke-width:0.964297"
       d="M 31.000003,13.620683 C 27.454554,13.620683 5.0000003,13.621284 5,29.2896 v 0.965527 c 3e-7,-15.668324 22.454554,-15.66891 26.000003,-15.66891 C 34.545456,14.586217 57,14.586803 57,30.255127 V 29.2896 C 57,13.621284 34.545456,13.620683 31.000003,13.620683 Z"
       id="path14" />
    <path
       style="opacity:0.1;fill:#ffffff;stroke-width:0.964297"
       d="m 37.74074,3.0000006 a 2.8888886,2.8965511 0 0 0 -2.888893,2.8965511 2.8888886,2.8965511 0 0 0 0.0413,0.4959596 2.8888886,2.8965511 0 0 1 2.847506,-2.4269939 2.8888886,2.8965511 0 0 1 2.847516,2.400593 2.8888886,2.8965511 0 0 0 0.04127,-0.4695587 2.8888886,2.8965511 0 0 0 -2.888911,-2.8965511 z"
       id="path15" />
  </g>
</svg>
