<?xml version="1.0" encoding="UTF-8" standalone="no"?>
<svg
   width="62"
   height="62"
   version="1.1"
   id="svg11"
   sodipodi:docname="quake2.svg"
   inkscape:version="1.4 (unknown)"
   xmlns:inkscape="http://www.inkscape.org/namespaces/inkscape"
   xmlns:sodipodi="http://sodipodi.sourceforge.net/DTD/sodipodi-0.dtd"
   xmlns:xlink="http://www.w3.org/1999/xlink"
   xmlns="http://www.w3.org/2000/svg"
   xmlns:svg="http://www.w3.org/2000/svg">
  <defs
     id="defs11">
    <linearGradient
       id="linearGradient11"
       inkscape:collect="always">
      <stop
         style="stop-color:#2d3d53;stop-opacity:1;"
         offset="0"
         id="stop11" />
      <stop
         style="stop-color:#415272;stop-opacity:1;"
         offset="1"
         id="stop12" />
    </linearGradient>
    <linearGradient
       inkscape:collect="always"
       xlink:href="#linearGradient11"
       id="linearGradient12"
       x1="32"
       y1="58"
       x2="32"
       y2="5"
       gradientUnits="userSpaceOnUse" />
  </defs>
  <sodipodi:namedview
     id="namedview11"
     pagecolor="#ffffff"
     bordercolor="#000000"
     borderopacity="0.25"
     inkscape:showpageshadow="2"
     inkscape:pageopacity="0.0"
     inkscape:pagecheckerboard="0"
     inkscape:deskcolor="#d1d1d1"
     inkscape:zoom="12.109375"
     inkscape:cx="31.95871"
     inkscape:cy="32"
     inkscape:window-width="1920"
     inkscape:window-height="998"
     inkscape:window-x="0"
     inkscape:window-y="0"
     inkscape:window-maximized="1"
     inkscape:current-layer="svg11" />
  <g
     id="g11"
     transform="translate(-1,-0.2)">
    <circle
       style="opacity:0.2"
       cx="32"
       cy="32"
       r="27"
       id="circle1" />
    <circle
       style="fill:url(#linearGradient12)"
       cx="32"
       cy="31"
       r="27"
       id="circle2" />
    <path
       style="opacity:0.2"
       d="M 30.6,33 33,35.7 V 53.65 L 36,62 39,53.65 V 35.7 L 41.4,33 h -2.7 -5.4 z"
       id="path2" />
    <path
       style="opacity:0.2"
       d="M 24.916666,16.57161 A 17,17 0 0 0 15,32 17,17 0 0 0 32,49 17,17 0 0 0 49,32 17,17 0 0 0 39.083334,16.58268 v 0.33203 A 14.166667,14.166667 0 0 1 46.166666,29.16667 14.166667,14.166667 0 0 1 32,43.333334 14.166667,14.166667 0 0 1 17.833333,29.16667 14.166667,14.166667 0 0 1 24.916666,16.92025 Z"
       id="path3" />
    <path
       style="fill:#80be41;fill-opacity:1"
       d="M 24.916666,15.571615 A 17,17 0 0 0 15,31 17,17 0 0 0 32,48 17,17 0 0 0 49,31 17,17 0 0 0 39.083334,15.582683 v 0.33203 A 14.166667,14.166667 0 0 1 46.166666,28.166666 14.166667,14.166667 0 0 1 32,42.333334 14.166667,14.166667 0 0 1 17.833333,28.166666 14.166667,14.166667 0 0 1 24.916666,15.920248 Z"
       id="path4" />
    <path
       style="opacity:0.2;fill:#ffffff"
       d="M 24.916016,15.572266 A 17,17 0 0 0 15,31 a 17,17 0 0 0 0.01563,0.310547 17,17 0 0 1 6.564453,-12.693359 14.166667,14.166667 0 0 1 3.335938,-2.697266 z m 14.167968,0.0098 v 0.332031 A 14.166667,14.166667 0 0 1 42.46875,18.646484 17,17 0 0 1 48.978516,31.591797 17,17 0 0 0 49,31 17,17 0 0 0 39.083984,15.582031 Z m 7.064454,12.921875 A 14.166667,14.166667 0 0 1 32,42.333984 14.166667,14.166667 0 0 1 17.855469,28.759766 14.166667,14.166667 0 0 0 17.833984,29.166016 14.166667,14.166667 0 0 0 32,43.333984 14.166667,14.166667 0 0 0 46.166016,29.166016 a 14.166667,14.166667 0 0 0 -0.01758,-0.66211 z"
       id="path5" />
    <path
       style="opacity:0.1;fill:#ffffff"
       d="M 32,4 A 27,27 0 0 0 5,31 27,27 0 0 0 5.0175781,31.498047 27,27 0 0 1 32,5 27,27 0 0 1 58.974609,31.486328 27,27 0 0 0 59,31 27,27 0 0 0 32,4 Z"
       id="path6" />
    <path
       style="opacity:0.2"
       d="M 22.6,33 25,35.7 V 53.65 L 28,62 31,53.65 V 35.7 L 33.4,33 h -2.7 -5.4 z"
       id="path7" />
    <path
       style="fill:#80be41;fill-opacity:1"
       d="M 22.6,32 25,34.7 V 52.65 L 28,61 31,52.65 V 34.7 L 33.4,32 h -2.7 -5.4 z"
       id="path8" />
    <path
       style="fill:#80be41;fill-opacity:1"
       d="M 30.6,32 33,34.7 V 52.65 L 36,61 39,52.65 V 34.7 L 41.4,32 h -2.7 -5.4 z"
       id="path9" />
    <path
       style="opacity:0.2;fill:#ffffff"
       d="m 22.599609,32 0.888672,1 h 1.8125 5.398438 1.8125 l 0.888672,-1 h -2.701172 -5.398438 z"
       id="path10" />
    <path
       style="opacity:0.2;fill:#ffffff"
       d="m 30.599609,32 0.888672,1 h 1.8125 5.398438 1.8125 l 0.888672,-1 h -2.701172 -5.398438 z"
       id="path11" />
  </g>
</svg>
