<?xml version="1.0" encoding="UTF-8" standalone="no"?>
<svg
   width="62"
   height="62"
   version="1.1"
   id="svg7"
   sodipodi:docname="quake3-team-arena.svg"
   inkscape:version="1.4 (unknown)"
   xmlns:inkscape="http://www.inkscape.org/namespaces/inkscape"
   xmlns:sodipodi="http://sodipodi.sourceforge.net/DTD/sodipodi-0.dtd"
   xmlns:xlink="http://www.w3.org/1999/xlink"
   xmlns="http://www.w3.org/2000/svg"
   xmlns:svg="http://www.w3.org/2000/svg">
  <defs
     id="defs7">
    <linearGradient
       id="linearGradient7"
       inkscape:collect="always">
      <stop
         style="stop-color:#2d3d53;stop-opacity:1;"
         offset="0"
         id="stop7" />
      <stop
         style="stop-color:#3f5674;stop-opacity:1;"
         offset="1"
         id="stop8" />
    </linearGradient>
    <linearGradient
       inkscape:collect="always"
       xlink:href="#linearGradient7"
       id="linearGradient8"
       x1="30.499998"
       y1="59"
       x2="30.499998"
       y2="3.9491653"
       gradientUnits="userSpaceOnUse" />
  </defs>
  <sodipodi:namedview
     id="namedview7"
     pagecolor="#ffffff"
     bordercolor="#000000"
     borderopacity="0.25"
     inkscape:showpageshadow="2"
     inkscape:pageopacity="0.0"
     inkscape:pagecheckerboard="0"
     inkscape:deskcolor="#d1d1d1"
     inkscape:zoom="7.0710678"
     inkscape:cx="30.900566"
     inkscape:cy="46.598337"
     inkscape:window-width="1920"
     inkscape:window-height="998"
     inkscape:window-x="0"
     inkscape:window-y="0"
     inkscape:window-maximized="1"
     inkscape:current-layer="svg7" />
  <g
     id="g7"
     transform="translate(0.5)">
    <ellipse
       style="opacity:0.2;stroke-width:0.948714"
       cx="30.499998"
       cy="31.474583"
       id="circle1"
       rx="27.499998"
       ry="27.525417" />
    <ellipse
       style="fill:url(#linearGradient8);stroke-width:0.948714"
       cx="30.499998"
       cy="30.525417"
       id="circle2"
       rx="27.499998"
       ry="27.525417" />
    <path
       style="opacity:0.2;stroke-width:0.948714"
       d="m 30.501749,10.046978 -2.846577,22.4121 2.846577,22.4121 2.843079,-22.4121 z m -13.716792,11.625763 -2.541672,0.695227 c -2.083636,0.570999 -3.716215,1.21119 -5.0344622,2.116587 -1.3182499,0.90539 -2.6055644,2.463727 -2.392464,4.41341 0.2131003,1.949682 1.5744222,3.101155 2.9764321,3.921602 1.4020061,0.820442 3.1399621,1.43693 5.3200141,1.972388 2.116639,0.519879 4.497299,0.896032 6.992169,1.163865 l 3.653645,18.915358 V 36.31373 31.045445 C 16.563107,30.607069 10.74879,28.718352 10.744633,26.526462 c 0.0076,-1.294487 2.343045,-2.5287 6.436494,-3.401457 z m 27.708843,0.05152 -0.414176,1.457405 c 3.936786,0.869827 6.170881,2.079144 6.179242,3.344824 -0.0096,2.190921 -5.826028,4.078225 -15.017486,4.516407 v 5.276007 18.552297 l 3.657145,-18.912785 c 2.382237,-0.257956 4.662887,-0.61414 6.709186,-1.099489 2.210116,-0.524204 3.97799,-1.130893 5.407484,-1.928616 1.429491,-0.797716 2.790622,-1.848765 3.133358,-3.761956 0.342729,-1.913195 -0.881795,-3.619661 -2.173801,-4.557612 -1.291999,-0.937943 -2.894747,-1.585584 -4.946998,-2.168081 z"
       id="path2" />
    <path
       style="fill:#a47fdc;stroke-width:0.948714;fill-opacity:1"
       d="m 30.501749,9.0978274 -2.846577,22.4120976 2.846577,22.4121 2.843079,-22.4121 z"
       id="path3" />
    <path
       style="fill:#00ccff;stroke-width:0.948714"
       d="m 16.784957,20.72359 -2.541672,0.695226 c -2.083636,0.570999 -3.716215,1.211194 -5.0344622,2.116586 -1.3182499,0.905393 -2.6055644,2.463727 -2.392464,4.413412 0.2131003,1.949683 1.5744222,3.101154 2.9764321,3.921603 1.4020061,0.820442 3.1399621,1.436929 5.3200141,1.972387 2.116639,0.519877 4.497299,0.896032 6.992169,1.163862 l 3.653645,18.915359 V 35.364578 30.096294 C 16.563107,29.657917 10.74879,27.769198 10.744633,25.57731 c 0.0076,-1.294488 2.343045,-2.528699 6.436494,-3.401466 z"
       id="path4" />
    <path
       style="fill:#d95656;stroke-width:0.948714"
       d="m 44.4938,20.77509 -0.414176,1.457406 c 3.936786,0.869824 6.170881,2.079142 6.179242,3.344822 -0.0096,2.190921 -5.826028,4.078225 -15.017486,4.516409 v 5.276002 18.552296 l 3.657145,-18.912784 c 2.382237,-0.257958 4.662887,-0.614139 6.709186,-1.099492 2.210116,-0.524202 3.97799,-1.130894 5.407484,-1.928612 1.429491,-0.797722 2.790622,-1.848764 3.133358,-3.761957 0.342729,-1.913195 -0.881795,-3.619664 -2.173801,-4.55761 -1.291999,-0.937942 -2.894747,-1.585585 -4.946998,-2.168081 z"
       id="path5" />
    <path
       style="opacity:0.1;fill:#ffffff;stroke-width:0.948714"
       d="M 30.499999,3 A 27.499999,27.525417 0 0 0 3,30.525417 27.499999,27.525417 0 0 0 3.0166689,30.988872 27.499999,27.525417 0 0 1 30.499999,3.9491524 27.499999,27.525417 0 0 1 57.975923,30.994434 27.499999,27.525417 0 0 0 58,30.525417 27.499999,27.525417 0 0 0 30.499999,3 Z"
       id="path6" />
    <path
       style="opacity:0.1;fill:#ffffff;stroke-width:0.948714"
       d="m 30.501852,9.0971916 -2.84668,22.4126024 0.06111,0.474574 2.785561,-21.938028 2.781857,21.938028 0.06111,-0.474574 z m -13.716663,11.6271164 -2.54108,0.695178 c -2.083635,0.571 -3.717616,1.209811 -5.0358655,2.115203 -1.3182498,0.905393 -2.6041631,2.464247 -2.3910626,4.413928 0.00282,0.02602 0.01156,0.04836 0.014821,0.07417 0.1837662,-1.538818 1.2627575,-2.77417 2.3762461,-3.53893 1.318255,-0.905391 2.95224,-1.544206 5.035874,-2.115202 l 2.541071,-0.69518 0.153725,0.559853 c 0.08397,-0.01855 0.157115,-0.03924 0.24263,-0.05749 z m 27.709291,0.05005 -0.414874,1.458955 c 0.08883,0.01962 0.164786,0.04123 0.251887,0.06117 l 0.162987,-0.570979 2.533675,0.719282 c 2.052246,0.582496 3.654961,1.229165 4.946962,2.167107 1.03105,0.748505 2.004438,1.991416 2.187328,3.433262 0.238808,-1.840543 -0.935596,-3.473699 -2.187328,-4.382412 -1.292001,-0.937944 -2.894716,-1.584611 -4.946962,-2.167108 z m 5.658167,5.281519 c -0.790992,1.981762 -6.398722,3.631787 -14.911267,4.037608 v 0.949149 c 9.191458,-0.438184 15.007354,-2.324967 15.016837,-4.51589 -0.0011,-0.158211 -0.03596,-0.314971 -0.10557,-0.470867 z m -39.303437,0.002 c -0.06867,0.154992 -0.102802,0.311714 -0.103722,0.469016 0.0042,2.19189 5.817619,4.081218 15.013131,4.519596 V 30.097193 C 17.244448,29.6913 11.637925,28.039785 10.84921,26.057734 Z"
       id="path7" />
  </g>
</svg>
