<?xml version="1.0" encoding="UTF-8" standalone="no"?>
<svg
   width="62"
   height="62"
   version="1.1"
   id="svg8"
   sodipodi:docname="quake.svg"
   inkscape:version="1.4 (unknown)"
   xmlns:inkscape="http://www.inkscape.org/namespaces/inkscape"
   xmlns:sodipodi="http://sodipodi.sourceforge.net/DTD/sodipodi-0.dtd"
   xmlns:xlink="http://www.w3.org/1999/xlink"
   xmlns="http://www.w3.org/2000/svg"
   xmlns:svg="http://www.w3.org/2000/svg">
  <defs
     id="defs8">
    <linearGradient
       id="linearGradient8"
       inkscape:collect="always">
      <stop
         style="stop-color:#2d3d53;stop-opacity:1;"
         offset="0"
         id="stop8" />
      <stop
         style="stop-color:#415271;stop-opacity:1;"
         offset="1"
         id="stop9" />
    </linearGradient>
    <linearGradient
       inkscape:collect="always"
       xlink:href="#linearGradient8"
       id="linearGradient9"
       x1="33.885269"
       y1="60.900009"
       x2="33.161289"
       y2="4"
       gradientUnits="userSpaceOnUse"
       gradientTransform="matrix(0.94736842,0,0,0.95081969,0.15789479,0.147541)" />
  </defs>
  <sodipodi:namedview
     id="namedview8"
     pagecolor="#ffffff"
     bordercolor="#000000"
     borderopacity="0.25"
     inkscape:showpageshadow="2"
     inkscape:pageopacity="0.0"
     inkscape:pagecheckerboard="0"
     inkscape:deskcolor="#d1d1d1"
     inkscape:zoom="6.0546875"
     inkscape:cx="38.152258"
     inkscape:cy="32.289032"
     inkscape:window-width="1920"
     inkscape:window-height="998"
     inkscape:window-x="0"
     inkscape:window-y="0"
     inkscape:window-maximized="1"
     inkscape:current-layer="svg8" />
  <g
     id="g9"
     transform="translate(1,0.8)">
    <ellipse
       style="opacity:0.2;stroke-width:0.949091"
       cx="29.999994"
       cy="31.049196"
       id="circle1"
       rx="26.999994"
       ry="27.098356" />
    <ellipse
       style="fill:url(#linearGradient9);stroke-width:0.949091"
       cx="29.999994"
       cy="30.098356"
       id="circle2"
       rx="26.999994"
       ry="27.098356" />
    <path
       style="opacity:0.2;stroke-width:0.949091"
       d="M 23.092107,15.948106 A 16.578948,16.639345 0 0 0 13.421052,31.049182 16.578948,16.639345 0 0 0 30,47.688524 16.578948,16.639345 0 0 0 46.578948,31.049182 16.578948,16.639345 0 0 0 36.907895,15.958943 v 0.324983 A 13.815789,13.86612 0 0 1 43.815786,28.275954 13.815789,13.86612 0 0 1 30,42.142075 13.815789,13.86612 0 0 1 16.184211,28.275954 13.815789,13.86612 0 0 1 23.092107,16.289347 Z"
       id="path2" />
    <path
       style="fill:#ffaf66;stroke-width:0.949091;fill-opacity:1"
       d="M 23.092107,14.997288 A 16.578948,16.639345 0 0 0 13.421052,30.098361 16.578948,16.639345 0 0 0 30,46.737706 16.578948,16.639345 0 0 0 46.578948,30.098361 16.578948,16.639345 0 0 0 36.907895,15.008125 v 0.324983 A 13.815789,13.86612 0 0 1 43.815786,27.325136 13.815789,13.86612 0 0 1 30,41.191257 13.815789,13.86612 0 0 1 16.184211,27.325136 13.815789,13.86612 0 0 1 23.092107,15.338523 Z"
       id="path3" />
    <path
       style="opacity:0.2;fill:#ffffff;stroke-width:0.949091"
       d="m 23.092723,14.996671 a 16.578948,16.639345 0 0 0 -9.671671,15.10169 16.578948,16.639345 0 0 0 0.0148,0.293417 16.578948,16.639345 0 0 1 6.511311,-12.531508 13.815789,13.86612 0 0 1 3.14556,-2.521901 z m 13.814554,0.01115 v 0.324985 a 13.815789,13.86612 0 0 1 3.251027,2.61104 16.578948,16.639345 0 0 1 6.40029,12.726499 16.578948,16.639345 0 0 0 0.02035,-0.571978 16.578948,16.639345 0 0 0 -9.671666,-15.090547 z m 6.892478,12.641073 A 13.815789,13.86612 0 0 1 30,41.190638 13.815789,13.86612 0 0 1 16.203946,27.888447 a 13.815789,13.86612 0 0 0 -0.02035,0.388127 13.815789,13.86612 0 0 0 13.816406,13.864882 13.815789,13.86612 0 0 0 13.816405,-13.864882 13.815789,13.86612 0 0 0 -0.01666,-0.627692 z"
       id="path4" />
    <path
       style="opacity:0.2;stroke-width:0.949091"
       d="m 24.599998,32.475412 3.031582,2.709834 V 52.799182 L 30,61 32.368423,52.799182 V 35.185246 l 3.031579,-2.709834 h -2.700004 -5.399999 z"
       id="path5" />
    <path
       style="fill:#ffaf66;stroke-width:0.949091;fill-opacity:1"
       d="m 24.599998,31.524588 3.031582,2.709837 V 51.848361 L 30,60.049182 32.368423,51.848361 V 34.234425 l 3.031579,-2.709837 h -2.700004 -5.399999 z"
       id="path6" />
    <path
       style="opacity:0.1;fill:#ffffff;stroke-width:0.949091"
       d="M 30,3 A 27,27.098361 0 0 0 3,30.098361 27,27.098361 0 0 0 3.0203536,30.651766 27,27.098361 0 0 1 30,3.9508195 27,27.098361 0 0 1 56.979646,30.495764 27,27.098361 0 0 0 57,30.098361 27,27.098361 0 0 0 30,3 Z"
       id="path7" />
    <path
       style="opacity:0.2;fill:#ffffff;stroke-width:0.949091"
       d="m 24.600738,31.524588 1.063941,0.950824 h 1.635691 5.39926 1.635688 l 1.063941,-0.950824 H 32.69963 27.30037 Z"
       id="path8" />
  </g>
</svg>
