<?xml version="1.0" encoding="UTF-8" standalone="no"?>
<svg
   width="62"
   height="62"
   version="1.1"
   viewBox="0 0 16.403844 16.403844"
   id="svg20"
   sodipodi:docname="qubzilla.svg"
   inkscape:version="1.4 (unknown)"
   xmlns:inkscape="http://www.inkscape.org/namespaces/inkscape"
   xmlns:sodipodi="http://sodipodi.sourceforge.net/DTD/sodipodi-0.dtd"
   xmlns:xlink="http://www.w3.org/1999/xlink"
   xmlns="http://www.w3.org/2000/svg"
   xmlns:svg="http://www.w3.org/2000/svg"
   xmlns:rdf="http://www.w3.org/1999/02/22-rdf-syntax-ns#"
   xmlns:cc="http://creativecommons.org/ns#"
   xmlns:dc="http://purl.org/dc/elements/1.1/">
  <metadata
     id="metadata26">
    <rdf:RDF>
      <cc:Work
         rdf:about="">
        <dc:format>image/svg+xml</dc:format>
        <dc:type
           rdf:resource="http://purl.org/dc/dcmitype/StillImage" />
      </cc:Work>
    </rdf:RDF>
  </metadata>
  <defs
     id="defs24">
    <linearGradient
       inkscape:collect="always"
       xlink:href="#linearGradient853"
       id="linearGradient855"
       x1="205.12303"
       y1="159.5856"
       x2="222.19002"
       y2="223.28046"
       gradientUnits="userSpaceOnUse"
       gradientTransform="matrix(0.19158158,0,0,0.19092044,-30.853775,-28.061973)" />
    <linearGradient
       inkscape:collect="always"
       id="linearGradient853">
      <stop
         style="stop-color:#00ccff;stop-opacity:1"
         offset="0"
         id="stop849" />
      <stop
         style="stop-color:#1e1bde;stop-opacity:1;"
         offset="1"
         id="stop851" />
    </linearGradient>
  </defs>
  <sodipodi:namedview
     pagecolor="#ffffff"
     bordercolor="#666666"
     borderopacity="1"
     objecttolerance="10"
     gridtolerance="10"
     guidetolerance="10"
     inkscape:pageopacity="0"
     inkscape:pageshadow="2"
     inkscape:window-width="1920"
     inkscape:window-height="998"
     id="namedview22"
     showgrid="false"
     inkscape:zoom="7.09375"
     inkscape:cx="5.9911894"
     inkscape:cy="52.088106"
     inkscape:window-x="0"
     inkscape:window-y="0"
     inkscape:window-maximized="1"
     inkscape:current-layer="svg20"
     inkscape:document-rotation="0"
     inkscape:showpageshadow="2"
     inkscape:pagecheckerboard="0"
     inkscape:deskcolor="#d1d1d1" />
  <circle
     cx="-330.35001"
     cy="-328.38"
     r="0"
     fill="#5e4aa6"
     stroke-width="0.26458"
     id="circle2" />
  <circle
     cx="-65.740997"
     cy="5.3371"
     r="0"
     fill="#5e4aa6"
     fill-rule="evenodd"
     stroke-width="0.40965"
     id="circle4" />
  <g
     id="g1"
     transform="translate(0.00104863,-0.11189216)">
    <ellipse
       style="fill:url(#linearGradient855);fill-opacity:1;stroke-width:0.168134;stroke-linecap:round;stroke-linejoin:round;stroke-opacity:0.992157"
       id="path837"
       cx="8.2008734"
       cy="8.3138142"
       rx="7.4338412"
       ry="7.4081874" />
    <path
       id="path875"
       style="fill:#ffffff;fill-opacity:0.379939;stroke:none;stroke-width:0.19125px;stroke-linecap:butt;stroke-linejoin:miter;stroke-opacity:1"
       d="M 7.990138,0.90870987 A 7.4338421,7.4081888 0 0 0 0.7691592,8.1543633 c 0.0489451,-0.006 0.0979939,-0.014315 0.14705423,-0.026849 C 1.2681161,8.5602949 1.9774719,6.7565554 2.4443751,7.8452372 2.8491275,8.525548 2.6102753,9.2665671 2.912478,9.9550578 c 0.550494,0.5080882 1.6506473,0.2003832 1.9304079,1.1216572 0.3606504,0.925414 1.3910854,-0.512629 1.4473395,0.513844 0.052361,0.854508 -0.5708384,1.872122 0.3827894,2.443933 0.591395,0.467672 1.2826309,0.870576 2.0553845,0.912838 0.574804,0.0883 1.8489067,0.350881 1.8058047,-0.514965 0.206893,-0.900443 -0.05696,-1.851037 -0.7008424,-2.522984 C 9.2890034,11.369734 8.6287923,10.961126 7.8861149,10.760502 7.4608957,10.443698 7.0200074,9.6485376 6.4930318,10.293641 5.7533546,10.176048 5.4723196,8.3368105 6.4518721,8.5414244 7.0461544,8.3261461 7.6141782,7.8276263 8.1906991,8.4731864 8.9695067,8.4864755 9.5609284,7.5784449 9.5867752,6.8727362 9.740498,6.2627049 10.034112,5.8713559 10.736639,5.8368433 11.118838,5.6569313 10.272423,5.7428723 10.316058,5.3908647 9.7187916,5.0273713 8.8591864,6.3800199 8.4526274,5.2950323 8.0482714,4.6224197 9.3691205,4.4972198 8.7123104,3.7419386 8.5932902,2.8570491 9.3952333,2.6624496 10.050387,2.5777726 10.242373,2.0514353 9.2374888,2.0254778 9.3764835,1.4490302 8.9751776,1.1212083 8.493846,0.97604367 7.990138,0.90870987 Z m 6.57813,4.48812123 c -0.734868,0.1460101 -0.325251,0.9538384 -0.534332,1.3737318 0.281022,0.8174524 -0.821564,0.8426575 -1.088498,1.4072933 -0.50778,0.4385031 -0.777366,1.5582056 0.01833,1.9401548 0.4722,0.535106 1.473713,0.598532 1.547247,1.405054 0.05144,0.102108 0.107383,0.258046 0.169503,0.422114 A 7.4338421,7.4081888 0 0 0 15.634685,8.3139613 7.4338421,7.4081888 0 0 0 15.114573,5.5918524 C 15.038773,5.5407234 14.962927,5.4897577 14.88333,5.4438147 l -0.160152,-0.043628 z" />
  </g>
</svg>
