<?xml version="1.0" encoding="UTF-8" standalone="no"?>
<svg
   width="62"
   height="62"
   version="1.1"
   id="svg29"
   sodipodi:docname="quaternion.svg"
   inkscape:version="1.4 (unknown)"
   xmlns:inkscape="http://www.inkscape.org/namespaces/inkscape"
   xmlns:sodipodi="http://sodipodi.sourceforge.net/DTD/sodipodi-0.dtd"
   xmlns:xlink="http://www.w3.org/1999/xlink"
   xmlns="http://www.w3.org/2000/svg"
   xmlns:svg="http://www.w3.org/2000/svg">
  <defs
     id="defs29">
    <linearGradient
       id="linearGradient29"
       inkscape:collect="always">
      <stop
         style="stop-color:#3b4b68;stop-opacity:1;"
         offset="0"
         id="stop29" />
      <stop
         style="stop-color:#00d455;stop-opacity:1"
         offset="1"
         id="stop30" />
    </linearGradient>
    <linearGradient
       inkscape:collect="always"
       xlink:href="#linearGradient29"
       id="linearGradient30"
       x1="31.214611"
       y1="83.311745"
       x2="30.6255"
       y2="-6.2278457"
       gradientUnits="userSpaceOnUse"
       gradientTransform="matrix(0.98214286,0,0,0.98245614,-0.42857152,-0.92982455)" />
  </defs>
  <sodipodi:namedview
     id="namedview29"
     pagecolor="#ffffff"
     bordercolor="#000000"
     borderopacity="0.25"
     inkscape:showpageshadow="2"
     inkscape:pageopacity="0.0"
     inkscape:pagecheckerboard="0"
     inkscape:deskcolor="#d1d1d1"
     inkscape:zoom="7.0710678"
     inkscape:cx="20.435386"
     inkscape:cy="48.578236"
     inkscape:window-width="1920"
     inkscape:window-height="998"
     inkscape:window-x="0"
     inkscape:window-y="0"
     inkscape:window-maximized="1"
     inkscape:current-layer="svg29" />
  <rect
     style="opacity:0.2;stroke-width:0.9823"
     width="55"
     height="55.017544"
     x="3.5"
     y="3.9824562"
     ry="13.754386"
     id="rect1" />
  <rect
     style="fill:url(#linearGradient30);stroke-width:0.9823"
     width="55"
     height="55.017544"
     x="3.5"
     y="3"
     ry="13.754386"
     id="rect2" />
  <path
     style="opacity:0.1;fill:#ffffff;stroke-width:0.9823"
     d="M 17.25,3 C 9.6324999,3 3.4999999,9.1344561 3.4999999,16.754386 v 0.982456 c 0,-7.61993 6.1325,-13.7543858 13.7500001,-13.7543858 h 27.5 c 7.6175,0 13.75,6.1344558 13.75,13.7543858 V 16.754386 C 58.5,9.1344561 52.3675,3 44.75,3 Z"
     id="path28" />
  <g
     id="g2"
     transform="translate(21.25,-52)">
    <path
       style="opacity:0.2;stroke-width:0.645307"
       d="M 9.749992,64.644067 A 18.749988,18.677955 0 0 0 -9,83.322045 18.749988,18.677955 0 0 0 9.749992,102 H 26.624997 C 27.663746,102 28.5,101.16691 28.5,100.1323 V 83.322045 A 18.749988,18.677955 0 0 0 9.749992,64.644067 Z"
       id="path1-3" />
    <path
       style="fill:#d5ffe6;stroke-width:0.645307"
       d="M 9.749992,64 A 18.749988,18.677955 0 0 0 -9,82.677955 18.749988,18.677955 0 0 0 9.749992,101.3559 h 16.875005 c 1.038749,0 1.875003,-0.83291 1.875003,-1.8678 V 82.677955 A 18.749988,18.677955 0 0 0 9.749992,64 Z"
       id="path2" />
    <path
       style="opacity:0.2;stroke-width:0.645307"
       d="m 10.57255,69.858549 h -2.23e-4 c -4.2539815,-0.214502 -8.5267992,1.623299 -11.27014342,5.298592 -1.42126378,1.905943 -2.24081588,4.062122 -2.51202768,6.25323 l 1.7092109,-0.251632 3.2447671,-0.473538 2.704384,-2.064343 -5.5046124,0.808584 c 0.37740218,-1.148644 0.92370616,-2.26166 1.68935559,-3.288054 C 3.6168621,72.142292 8.6661009,70.6281 13.18675,71.957907 L 14.762255,70.76018 C 13.404846,70.224991 11.990552,69.9269 10.57255,69.85533 Z m 6.76176,2.52192 -4.39e-4,0.01 -0.525264,1.639556 -0.865783,2.709236 0.50282,3.852534 1.72893,-5.403985 c 0.869906,0.842027 1.632194,1.819936 2.221279,2.956141 2.460675,4.745456 1.307907,10.357916 -2.463816,13.787564 l 0.0076,0.05336 c -0.02785,0.02583 -0.05563,0.05519 -0.08372,0.08136 l 4.184209,4.826527 1.284642,-1.106685 -3.228551,-3.724075 C 23.549353,88.110815 24.438735,82.33804 21.87111,77.386033 20.776759,75.275418 19.192176,73.591584 17.334568,72.385231 Z M -3.4500011,85.288027 c 0.8016191,5.917798 5.5600343,10.70802 11.797036,11.322448 2.3729441,0.233783 4.6577351,-0.174211 6.6843391,-1.070298 l -1.094597,-1.329009 -0.0067,-5.46e-4 -2.154285,-2.614468 -3.2493732,-1.34394 3.6849902,4.468881 C 11.028703,94.989719 9.7874522,95.09749 8.5100834,94.971668 3.4013946,94.468795 -0.57457682,90.75906 -1.6384233,86.040004 Z"
       id="path3" />
    <path
       style="fill:#5fd38d;stroke-width:0.645307"
       d="m 10.57255,69.214484 h -2.23e-4 C 6.3183455,68.99998 2.0455278,70.837786 -0.69781642,74.513075 -2.1190802,76.419017 -2.9386323,78.575196 -3.2098441,80.766307 l 1.7092109,-0.251634 3.2447671,-0.473543 2.704384,-2.064339 -5.5046124,0.808584 c 0.37740218,-1.148642 0.92370616,-2.26166 1.68935559,-3.288054 C 3.6168621,71.498226 8.6661009,69.984033 13.18675,71.313842 l 1.575505,-1.197729 c -1.357409,-0.535189 -2.771703,-0.83328 -4.189705,-0.90485 z m 6.76176,2.521918 -4.39e-4,0.01 -0.525264,1.639556 -0.865783,2.709229 0.50282,3.852538 1.72893,-5.40399 c 0.869906,0.842021 1.632194,1.819939 2.221279,2.956141 2.460675,4.745457 1.307907,10.35795 -2.463816,13.787518 l 0.0076,0.05348 c -0.02785,0.0259 -0.05563,0.05531 -0.08372,0.08141 l 4.184188,4.826553 1.284642,-1.106701 -3.228551,-3.724084 C 23.54938,87.466804 24.438757,81.694024 21.871133,76.741995 20.776782,74.631402 19.1922,72.947566 17.334595,71.741193 Z M -3.4500011,84.64396 c 0.8016191,5.917797 5.5600343,10.707953 11.797036,11.322498 2.3729441,0.233756 4.6577351,-0.174257 6.6843391,-1.070386 l -1.094597,-1.329034 -0.0067,-4.85e-4 -2.1543,-2.614483 -3.2493743,-1.343966 3.6849903,4.468955 C 11.028642,94.345614 9.7873902,94.453427 8.5100186,94.32759 3.4013377,93.824669 -0.57463337,90.115008 -1.6384801,85.395937 Z"
       id="path4" />
    <path
       style="opacity:0.2;fill:#ffffff;stroke-width:0.645307"
       d="M 9.749992,64 A 18.749988,18.677955 0 0 0 -9,82.677955 18.749988,18.677955 0 0 0 -8.9861094,82.940883 18.749988,18.677955 0 0 1 9.749992,64.644067 18.749988,18.677955 0 0 1 28.5,83.322045 v -0.64409 A 18.749988,18.677955 0 0 0 9.749992,64 Z"
       id="path5-6" />
  </g>
</svg>
