<?xml version="1.0" encoding="UTF-8" standalone="no"?>
<svg
   width="62"
   height="62"
   version="1.1"
   id="svg29"
   sodipodi:docname="qview.svg"
   inkscape:version="1.4 (unknown)"
   xmlns:inkscape="http://www.inkscape.org/namespaces/inkscape"
   xmlns:sodipodi="http://sodipodi.sourceforge.net/DTD/sodipodi-0.dtd"
   xmlns:xlink="http://www.w3.org/1999/xlink"
   xmlns="http://www.w3.org/2000/svg"
   xmlns:svg="http://www.w3.org/2000/svg">
  <defs
     id="defs29">
    <linearGradient
       id="linearGradient29"
       inkscape:collect="always">
      <stop
         style="stop-color:#2d3d53;stop-opacity:1;"
         offset="0"
         id="stop29" />
      <stop
         style="stop-color:#354864;stop-opacity:1;"
         offset="1"
         id="stop30" />
    </linearGradient>
    <linearGradient
       inkscape:collect="always"
       xlink:href="#linearGradient29"
       id="linearGradient30"
       x1="30.782633"
       y1="60"
       x2="30.193521"
       y2="5"
       gradientUnits="userSpaceOnUse"
       gradientTransform="matrix(0.98214286,0,0,0.98245614,-0.42857152,-0.92982455)" />
    <linearGradient
       id="paint1_linear_11_148"
       x1="12.6932"
       y1="20.5312"
       x2="12.6932"
       y2="5.6079102"
       gradientUnits="userSpaceOnUse"
       gradientTransform="matrix(2.6803705,0,0,2.6803705,-3.022395,-3.5399929)">
      <stop
         stop-color="#FD5900"
         id="stop4" />
      <stop
         offset="1"
         stop-color="#FFDE00"
         id="stop5" />
    </linearGradient>
  </defs>
  <sodipodi:namedview
     id="namedview29"
     pagecolor="#ffffff"
     bordercolor="#000000"
     borderopacity="0.25"
     inkscape:showpageshadow="2"
     inkscape:pageopacity="0.0"
     inkscape:pagecheckerboard="0"
     inkscape:deskcolor="#d1d1d1"
     inkscape:zoom="7.0710678"
     inkscape:cx="20.435386"
     inkscape:cy="48.436815"
     inkscape:window-width="1920"
     inkscape:window-height="998"
     inkscape:window-x="0"
     inkscape:window-y="0"
     inkscape:window-maximized="1"
     inkscape:current-layer="svg29" />
  <rect
     style="opacity:0.2;stroke-width:0.9823"
     width="55"
     height="55.017544"
     x="3.5"
     y="3.9824562"
     ry="13.754386"
     id="rect1" />
  <rect
     style="fill:url(#linearGradient30);stroke-width:0.9823"
     width="55"
     height="55.017544"
     x="3.5"
     y="3"
     ry="13.754386"
     id="rect2" />
  <path
     style="opacity:0.1;fill:#ffffff;stroke-width:0.9823"
     d="M 17.25,3 C 9.6324999,3 3.4999999,9.1344561 3.4999999,16.754386 v 0.982456 c 0,-7.61993 6.1325,-13.7543858 13.7500001,-13.7543858 h 27.5 c 7.6175,0 13.75,6.1344558 13.75,13.7543858 V 16.754386 C 58.5,9.1344561 52.3675,3 44.75,3 Z"
     id="path28" />
  <path
     fill-rule="evenodd"
     clip-rule="evenodd"
     d="m 26.914221,18.820969 c 0,4.039319 -3.289015,7.32682 -7.330095,7.32682 -4.04403,0 -7.329989,-3.287501 -7.329989,-7.32682 0,-4.039318 3.285959,-7.329741 7.329989,-7.329741 4.04108,0 7.330095,3.290423 7.330095,7.329741 z m 24.055824,15.958685 c 0.687278,0.66634 1.179877,1.427029 1.504344,2.237841 0.982248,2.453075 0.47195,5.401483 -0.578141,7.830971 -1.24477,2.892392 -3.628122,5.077162 -6.63091,6.032442 -1.333262,0.42752 -2.731416,0.61032 -4.126621,0.61032 H 16.417361 c -2.460044,0 -4.636918,-0.57199 -6.4214815,-1.64521 -1.1179345,-0.67224 -1.3155637,-2.22015 -0.4867004,-3.228508 1.3863559,-1.680592 2.7550139,-3.367081 4.1354709,-5.068312 2.631126,-3.255042 4.403891,-4.198533 6.374287,-3.37003 0.799368,0.342015 1.601685,0.857986 2.427598,1.400493 2.200444,1.456514 5.259277,3.455534 9.288558,1.285506 2.75421,-1.505564 4.352943,-4.0814 5.744662,-6.32353 l 0.02789,-0.04503 c 0.09358,-0.150101 0.186636,-0.300202 0.279149,-0.449766 0.473023,-0.764174 0.939074,-1.516822 1.467069,-2.209698 0.654833,-0.857986 3.085381,-3.541037 6.226805,-1.630469 2.00284,1.20295 3.687116,2.830471 5.489377,4.57298 z"
     id="path2"
     style="fill:#ffffff;fill-opacity:0.24519941;stroke-width:1.00022" />
  <path
     fill-rule="evenodd"
     clip-rule="evenodd"
     d="m 26.886331,17.965741 c 0,4.039319 -3.289015,7.32682 -7.330095,7.32682 -4.04403,0 -7.329989,-3.287501 -7.329989,-7.32682 0,-4.039318 3.285959,-7.329741 7.329989,-7.329741 4.04108,0 7.330095,3.290423 7.330095,7.329741 z m 24.055824,15.958685 c 0.687278,0.66634 1.179877,1.42703 1.504343,2.23784 0.982249,2.45308 0.471952,5.40148 -0.578139,7.83097 -1.244771,2.89239 -3.628123,5.07716 -6.630911,6.03244 -1.333262,0.42752 -2.731416,0.61032 -4.126622,0.61032 H 16.389471 c -2.460044,0 -4.636918,-0.57199 -6.421481,-1.64521 -1.1179352,-0.67224 -1.3155644,-2.22015 -0.4867011,-3.2285 1.3863561,-1.6806 2.7550141,-3.36709 4.1354711,-5.06832 2.631126,-3.25504 4.403891,-4.19853 6.374287,-3.37003 0.799368,0.34202 1.601685,0.85799 2.427598,1.4005 2.200444,1.45651 5.259277,3.45553 9.288558,1.2855 2.754209,-1.50556 4.352943,-4.0814 5.744662,-6.32353 l 0.02789,-0.045 c 0.09358,-0.1501 0.186635,-0.3002 0.279148,-0.44976 0.473023,-0.764177 0.939074,-1.516825 1.467069,-2.209701 0.654833,-0.857986 3.085381,-3.541037 6.226804,-1.630469 2.002841,1.20295 3.687117,2.830471 5.48938,4.57298 z"
     id="path2-5"
     style="fill:#f2f2f2;fill-opacity:1;stroke-width:1.00022" />
</svg>
