<?xml version="1.0" encoding="UTF-8" standalone="no"?>
<svg
   width="62"
   height="62"
   version="1.1"
   id="svg4"
   sodipodi:docname="quodlibet.svg"
   inkscape:version="1.4 (unknown)"
   xmlns:inkscape="http://www.inkscape.org/namespaces/inkscape"
   xmlns:sodipodi="http://sodipodi.sourceforge.net/DTD/sodipodi-0.dtd"
   xmlns="http://www.w3.org/2000/svg"
   xmlns:svg="http://www.w3.org/2000/svg">
  <defs
     id="defs4" />
  <sodipodi:namedview
     id="namedview4"
     pagecolor="#ffffff"
     bordercolor="#000000"
     borderopacity="0.25"
     inkscape:showpageshadow="2"
     inkscape:pageopacity="0.0"
     inkscape:pagecheckerboard="0"
     inkscape:deskcolor="#d1d1d1"
     inkscape:zoom="6.0390625"
     inkscape:cx="14.654592"
     inkscape:cy="14.654592"
     inkscape:window-width="1920"
     inkscape:window-height="998"
     inkscape:window-x="0"
     inkscape:window-y="0"
     inkscape:window-maximized="1"
     inkscape:current-layer="svg4" />
  <g
     id="g1"
     transform="translate(-3.4107518e-5)">
    <ellipse
       style="opacity:0.2;stroke-width:0.9823"
       cx="31"
       cy="31.491228"
       id="circle1"
       rx="27.5"
       ry="27.508772" />
    <ellipse
       style="fill:#2d3d53;fill-opacity:1;stroke-width:0.9823"
       cx="31"
       cy="30.508772"
       id="circle2"
       rx="27.5"
       ry="27.508772" />
    <g
       id="g3"
       transform="matrix(0.98214286,0,0,0.98214286,-1.4105799,-1.9106484)">
      <path
         d="M 32.999931,5.0000023 A 27.937708,27.937708 0 0 0 5.0000023,32.999931 27.937708,27.937708 0 0 0 32.999931,60.999863 27.937708,27.937708 0 0 0 60.999863,32.999931 27.937708,27.937708 0 0 0 32.999931,5.0000023"
         style="fill:#4d4d4d;fill-opacity:1;stroke:none;stroke-width:1.03702;stroke-opacity:1"
         id="path1" />
      <path
         d="M 32.999931,5.0000023 A 27.937708,27.937708 0 0 0 5.0000023,32.999931 c 0,5.890349 1.8044397,11.34309 4.8875437,15.84278 L 59.65897,24.39359 A 27.937708,27.937708 0 0 0 32.999931,5.0000023"
         style="fill:#006799;fill-opacity:1;stroke:none;stroke-width:1.03702;stroke-opacity:1"
         id="path2-5" />
      <path
         d="m 23.1481,16.960114 v 31.842143 h 5.222507 V 35.851782 h 3.57777 l 8.507835,12.950475 h 6.145465 L 36.511327,34.180073 c 10.37035,-4.401171 6.052139,-17.219959 -1.346064,-17.219959 z m 5.278507,4.381482 c 3.58503,0 8.636433,-0.126519 8.636433,4.579536 0,3.414953 -2.206816,5.473468 -8.636433,5.473468 z"
         style="fill:#f2f2f2;fill-opacity:1;stroke:none;stroke-width:0.444144px;stroke-linecap:butt;stroke-linejoin:miter;stroke-opacity:1"
         id="path3" />
    </g>
    <path
       style="opacity:0.1;fill:#ffffff;stroke-width:0.9823"
       d="M 31,3 A 27.5,27.508772 0 0 0 3.5,30.508772 27.5,27.508772 0 0 0 3.52112,31.084491 27.5,27.508772 0 0 1 31,3.982456 27.5,27.508772 0 0 1 58.479375,30.915509 27.5,27.508772 0 0 0 58.5,30.508772 27.5,27.508772 0 0 0 31,3 Z"
       id="path2-2" />
  </g>
</svg>
