<?xml version="1.0" encoding="UTF-8" standalone="no"?>
<svg
   id="circle_pieces"
   width="62"
   height="62"
   x="0"
   y="0"
   version="1.1"
   xml:space="preserve"
   sodipodi:docname="racket-logo.svg"
   inkscape:version="1.4 (unknown)"
   xmlns:inkscape="http://www.inkscape.org/namespaces/inkscape"
   xmlns:sodipodi="http://sodipodi.sourceforge.net/DTD/sodipodi-0.dtd"
   xmlns="http://www.w3.org/2000/svg"
   xmlns:svg="http://www.w3.org/2000/svg"><defs
   id="defs5" /><sodipodi:namedview
   id="namedview5"
   pagecolor="#ffffff"
   bordercolor="#000000"
   borderopacity="0.25"
   inkscape:showpageshadow="2"
   inkscape:pageopacity="0.0"
   inkscape:pagecheckerboard="0"
   inkscape:deskcolor="#d1d1d1"
   inkscape:zoom="12.109375"
   inkscape:cx="31.95871"
   inkscape:cy="32"
   inkscape:window-width="1920"
   inkscape:window-height="998"
   inkscape:window-x="0"
   inkscape:window-y="0"
   inkscape:window-maximized="1"
   inkscape:current-layer="circle_pieces" />
 
 
 
 
 
 <g
   id="g5"
   transform="translate(-0.5,-1)"><ellipse
     style="opacity:0.2;stroke-width:0.982298"
     cx="31.5"
     cy="32.491226"
     id="circle1"
     rx="27.5"
     ry="27.508774" /><path
     style="fill:#5f5fd3;stroke-width:0.982298"
     d="M 31.499994,4 A 27.499994,27.508768 0 0 0 22.197265,5.6494521 C 37.936501,15.888465 46.239537,31.381602 52.930658,48.707121 A 27.499994,27.508768 0 0 0 58.999989,31.508768 27.499994,27.508768 0 0 0 31.499994,4 Z"
     id="path1" /><path
     style="fill:#c83771;stroke-width:0.982298"
     d="M 13.817591,10.476151 A 27.499994,27.508768 0 0 0 4,31.508768 27.499994,27.508768 0 0 0 10.878835,49.67461 l 0.435443,-1.043859 6.88459,2.872536 c 0.153788,1.567168 0.140117,2.888151 0.0211,4.058387 a 27.499994,27.508768 0 0 0 13.280034,3.455863 27.499994,27.508768 0 0 0 13.527482,-3.597861 C 42.653411,39.191704 31.051859,19.878658 13.817591,10.476151 Z"
     id="path2" /><path
     style="opacity:0.2;stroke-width:0.982298"
     d="M 22.514157,6.5270752 A 27.499994,27.508768 0 0 0 13.46118,11.773624 c 5.009531,2.438289 9.87147,6.200444 14.099122,10.756355 -5.965239,5.99562 -13.05407,16.830811 -16.808838,27.962771 a 27.499994,27.508768 0 0 0 7.753175,6.229773 c 2.183429,-10.311199 8.208549,-21.578191 14.123283,-27.954714 5.526244,7.755929 9.907927,17.388531 12.18433,27.758604 a 27.499994,27.508768 0 0 0 8.349359,-7.14046 C 48.000224,31.767741 33.569368,12.522385 22.514157,6.5270752 Z"
     id="path3" /><path
     style="fill:#ffffff;stroke-width:0.982298"
     d="M 22.514157,5.5446817 A 27.499994,27.508768 0 0 0 13.46118,10.791227 c 5.009531,2.438294 9.87147,6.200451 14.099122,10.756356 -5.965239,5.995627 -13.05407,16.830811 -16.808838,27.962776 a 27.499994,27.508768 0 0 0 7.753175,6.229769 c 2.183429,-10.311193 8.208549,-21.578191 14.123283,-27.954714 5.526244,7.75593 9.907927,17.388532 12.18433,27.758603 a 27.499994,27.508768 0 0 0 8.349359,-7.140458 C 48.000224,30.785347 33.569368,11.539992 22.514157,5.5446817 Z"
     id="path4" /><path
     style="opacity:0.1;fill:#ffffff;stroke-width:0.982298"
     d="M 31.499994,4 A 27.499994,27.508768 0 0 0 4,31.508768 27.499994,27.508768 0 0 0 4.0172642,31.992323 27.499994,27.508768 0 0 1 31.499994,4.9824561 27.499994,27.508768 0 0 1 58.975052,31.992323 27.499994,27.508768 0 0 0 58.999989,31.508768 27.499994,27.508768 0 0 0 31.499994,4 Z"
     id="path5" /></g>
</svg>
