<?xml version="1.0" encoding="UTF-8" standalone="no"?>
<svg
   width="62"
   height="62"
   version="1.1"
   id="svg29"
   sodipodi:docname="radicle-upstream.svg"
   inkscape:version="1.4 (unknown)"
   xmlns:inkscape="http://www.inkscape.org/namespaces/inkscape"
   xmlns:sodipodi="http://sodipodi.sourceforge.net/DTD/sodipodi-0.dtd"
   xmlns:xlink="http://www.w3.org/1999/xlink"
   xmlns="http://www.w3.org/2000/svg"
   xmlns:svg="http://www.w3.org/2000/svg">
  <defs
     id="defs29">
    <linearGradient
       id="linearGradient29"
       inkscape:collect="always">
      <stop
         style="stop-color:#2d3d53;stop-opacity:1;"
         offset="0"
         id="stop29" />
      <stop
         style="stop-color:#354864;stop-opacity:1;"
         offset="1"
         id="stop30" />
    </linearGradient>
    <linearGradient
       inkscape:collect="always"
       xlink:href="#linearGradient29"
       id="linearGradient30"
       x1="30.782633"
       y1="60"
       x2="30.193521"
       y2="5"
       gradientUnits="userSpaceOnUse"
       gradientTransform="matrix(0.98214286,0,0,0.98245614,-0.42857152,-0.92982455)" />
  </defs>
  <sodipodi:namedview
     id="namedview29"
     pagecolor="#ffffff"
     bordercolor="#000000"
     borderopacity="0.25"
     inkscape:showpageshadow="2"
     inkscape:pageopacity="0.0"
     inkscape:pagecheckerboard="0"
     inkscape:deskcolor="#d1d1d1"
     inkscape:zoom="7.0710678"
     inkscape:cx="20.435386"
     inkscape:cy="37.123106"
     inkscape:window-width="1920"
     inkscape:window-height="998"
     inkscape:window-x="0"
     inkscape:window-y="0"
     inkscape:window-maximized="1"
     inkscape:current-layer="svg29" />
  <rect
     style="opacity:0.2;stroke-width:0.9823"
     width="55"
     height="55.017544"
     x="3.5"
     y="3.9824562"
     ry="13.754386"
     id="rect1" />
  <rect
     style="fill:url(#linearGradient30);stroke-width:0.9823"
     width="55"
     height="55.017544"
     x="3.5"
     y="3"
     ry="13.754386"
     id="rect2" />
  <path
     style="opacity:0.1;fill:#ffffff;stroke-width:0.9823"
     d="M 17.25,3 C 9.6324999,3 3.4999999,9.1344561 3.4999999,16.754386 v 0.982456 c 0,-7.61993 6.1325,-13.7543858 13.7500001,-13.7543858 h 27.5 c 7.6175,0 13.75,6.1344558 13.75,13.7543858 V 16.754386 C 58.5,9.1344561 52.3675,3 44.75,3 Z"
     id="path28" />
  <g
     id="g1"
     transform="translate(1.8785728e-5,0.00877145)">
    <path
       style="opacity:0.1"
       d="m 26.752233,51.878888 c -2.53069,-0.46718 -2.408758,-3.422578 -1.635868,-5.279116 1.097136,-3.650078 1.960164,-7.443376 1.945214,-11.266634 -0.12804,-1.966858 -1.275852,-5.410082 -2.644952,-6.106708 -2.045224,2.709656 -5.047664,3.755736 -7.576774,2.373798 -3.614925,-1.929144 -4.695128,-6.720318 -7.7523052,-9.224832 -0.6779866,-1.908718 2.7681792,-1.25349 3.9518182,-1.33343 7.472929,0.575232 13.973101,6.948024 15.978071,14.045052 3.254872,-6.461232 5.289184,-13.709504 10.346212,-19.119791 3.290282,-3.761937 8.185448,-6.2146239 13.258868,-5.94735 1.254118,1.375569 -0.982948,1.619099 -1.408824,4.724647 -0.988032,4.035357 -2.045092,8.657486 -5.9005,10.965134 -3.219892,2.530036 -10.419952,2.592406 -10.419952,2.592406 0,0 -0.867124,-0.1872 -1.380786,1.767764 -2.627164,4.657532 -3.35375,10.191868 -3.02795,15.462444 0.03032,1.954818 1.009814,4.686216 -0.973574,6.016776 -0.81036,0.52696 -1.84378,0.52668 -2.758698,0.32984 z"
       id="path3" />
    <path
       style="fill:#2c8d37;fill-opacity:1"
       d="m 26.752233,50.878889 c -2.53069,-0.46718 -2.408758,-3.422578 -1.635868,-5.279116 1.097136,-3.650078 1.960164,-7.443376 1.945214,-11.266634 -0.12804,-1.966858 -1.275852,-5.410082 -2.644952,-6.106708 -2.045224,2.709656 -5.047664,3.755736 -7.576774,2.373798 -3.614925,-1.929144 -4.695128,-6.720318 -7.7523052,-9.224832 -0.6779866,-1.908718 2.7681792,-1.25349 3.9518182,-1.33343 7.472929,0.575232 13.973101,6.948024 15.978071,14.045052 3.254872,-6.461232 5.289184,-13.709504 10.346212,-19.119791 3.290282,-3.761937 8.185448,-6.2146239 13.258868,-5.9473499 1.254118,1.3755689 -0.982948,1.6190989 -1.408824,4.7246469 -0.988032,4.035357 -2.045092,8.657486 -5.9005,10.965134 -3.219892,2.530036 -10.419952,2.592406 -10.419952,2.592406 0,0 -0.867124,-0.1872 -1.380786,1.767764 -2.627164,4.657532 -3.35375,10.191868 -3.02795,15.462444 0.03032,1.954818 1.009814,4.686216 -0.973574,6.016776 -0.81036,0.52696 -1.84378,0.52668 -2.758698,0.32984 z"
       id="path4" />
    <path
       style="fill:#00cc16;fill-opacity:1"
       d="m 51.673681,9.0013421 c -4.730216,0.063 -9.225384,2.4390369 -12.310024,5.9658579 -3.244714,3.47137 -5.24412,7.699817 -7.12088,11.991123 3.370974,0.73437 6.774048,0.203407 11.650602,-3.667605 2.0187,-1.602452 3.750856,-4.214446 5.093334,-7.15477 0.433134,-0.948654 1.72346,-2.629689 2.762876,-4.160798 0.251906,-0.505315 0.537356,-0.886283 0.773822,-1.207513 0.19084,-0.322798 0.352634,-0.624903 0.468392,-0.8934649 0.0296,-0.256354 -0.06654,-0.522214 -0.369342,-0.854336 -0.31709,-0.01666 -0.63343,-0.02268 -0.94878,-0.01848 z M 11.09011,19.995753 c -1.2390052,-0.0042 -2.426347,0.18668 -2.0026042,1.379616 0.448305,0.367262 0.850675,0.777866 1.2281832,1.21181 1.988956,1.269856 4.373496,2.73039 6.220187,3.705896 1.776652,0.934514 3.578581,1.73352 5.816911,2.039504 0,0 2.538568,0.316918 4.186282,0.13902 -3.04255,-4.498238 -8.004436,-8.006622 -13.499716,-8.429618 -0.443865,0.02996 -1.20584,-0.0434 -1.949243,-0.0462 z m 15.918433,13.903668 c 0.0188,0.1456 0.04402,0.295538 0.053,0.433718 0.015,3.823258 -0.84803,7.616556 -1.945168,11.266634 -0.772888,1.856678 -0.894786,4.811796 1.635902,5.279116 0.16396,0.035 0.334396,0.0546 0.50401,0.0756 1.672796,-2.502638 1.114792,-5.593696 1.093158,-8.390754 -0.0252,-3.258078 -0.52014,-6.259956 -1.340906,-8.664314 z"
       id="path5" />
  </g>
</svg>
