<?xml version="1.0" encoding="UTF-8" standalone="no"?>
<svg
   width="62"
   height="62"
   version="1.1"
   id="svg29"
   sodipodi:docname="radicle-upstream.svg"
   inkscape:version="1.4 (unknown)"
   xmlns:inkscape="http://www.inkscape.org/namespaces/inkscape"
   xmlns:sodipodi="http://sodipodi.sourceforge.net/DTD/sodipodi-0.dtd"
   xmlns:xlink="http://www.w3.org/1999/xlink"
   xmlns="http://www.w3.org/2000/svg"
   xmlns:svg="http://www.w3.org/2000/svg">
  <defs
     id="defs29">
    <linearGradient
       id="linearGradient29"
       inkscape:collect="always">
      <stop
         style="stop-color:#2d3d53;stop-opacity:1;"
         offset="0"
         id="stop29" />
      <stop
         style="stop-color:#00ccff;stop-opacity:1"
         offset="1"
         id="stop30" />
    </linearGradient>
    <linearGradient
       inkscape:collect="always"
       xlink:href="#linearGradient29"
       id="linearGradient30"
       x1="30.494646"
       y1="94.979057"
       x2="30.193521"
       y2="0.94642854"
       gradientUnits="userSpaceOnUse"
       gradientTransform="matrix(0.98214286,0,0,0.98245614,-0.42857152,-0.92982455)" />
  </defs>
  <sodipodi:namedview
     id="namedview29"
     pagecolor="#ffffff"
     bordercolor="#000000"
     borderopacity="0.25"
     inkscape:showpageshadow="2"
     inkscape:pageopacity="0.0"
     inkscape:pagecheckerboard="0"
     inkscape:deskcolor="#d1d1d1"
     inkscape:zoom="7.0710678"
     inkscape:cx="20.435386"
     inkscape:cy="25.809398"
     inkscape:window-width="1920"
     inkscape:window-height="998"
     inkscape:window-x="0"
     inkscape:window-y="0"
     inkscape:window-maximized="1"
     inkscape:current-layer="svg29" />
  <rect
     style="opacity:0.2;stroke-width:0.9823"
     width="55"
     height="55.017544"
     x="3.5"
     y="3.9824562"
     ry="13.754386"
     id="rect1" />
  <rect
     style="fill:url(#linearGradient30);stroke-width:0.9823"
     width="55"
     height="55.017544"
     x="3.5"
     y="3"
     ry="13.754386"
     id="rect2" />
  <path
     style="opacity:0.1;fill:#ffffff;stroke-width:0.9823"
     d="M 17.25,3 C 9.6324999,3 3.4999999,9.1344561 3.4999999,16.754386 v 0.982456 c 0,-7.61993 6.1325,-13.7543858 13.7500001,-13.7543858 h 27.5 c 7.6175,0 13.75,6.1344558 13.75,13.7543858 V 16.754386 C 58.5,9.1344561 52.3675,3 44.75,3 Z"
     id="path28" />
  <g
     id="g2"
     transform="translate(15.808586,-63.996746)">
    <path
       style="opacity:0.2"
       d="m 25.482706,74.497236 c -4.5822,-0.004 -13.940826,1.915538 -14.939486,3.142578 -0.3006,0.36928 -0.310843,0.744063 -0.03906,1.539063 0.61036,1.7854 1.002776,4.776834 -0.335905,13.490234 -1.5524591,10.104399 -2.2072001,13.603839 -2.5566401,13.960159 -0.14428,0.14714 -0.908659,-0.0307 -1.699219,-0.39649 -1.947,-0.90076 -4.96533702,-0.90859 -6.39843702,-0.0176 -4.27079998,2.654 -2.38815298,8.12682 3.49804602,10.08282 v 0.002 c 0.447,0.14858 1.710134,0.23035 2.808594,0.18359 1.5454,-0.0658 2.354812,-0.30541 3.576172,-1.06445 2.3264001,-1.4456 3.4332001,-3.90517 4.6875001,-10.41797 0.543037,-2.81985 1.015059,-5.409754 1.107419,-5.503954 0.09238,-0.0942 0.75165,0.704164 1.40625,1.521484 4.2564,5.3144 6.977947,7.47852 10.060547,7.47852 0.95582,0 1.572265,-0.10766 1.572265,-0.33594 0,-0.20662 -0.754634,-1.03436 -1.677734,-1.96094 -2.634061,-2.74278 -3.792481,-6.771668 -6.361328,-9.703124 l 1.263672,-0.660156 c 8.4976,-5.2556 13.456547,-13.056103 11.185547,-17.595703 -1.3342,-2.66702 -3.386003,-3.740741 -7.158203,-3.744141 z m -1.517578,7 c 1.583866,-0.0045 3.009016,0.151604 3.640624,0.507812 0.680055,0.383526 0.76396,0.497055 0.271485,0.371094 -0.574576,-0.146983 -0.915186,0.101508 -1.775391,1.300782 -1.343276,1.872845 -3.501634,3.878246 -6.021484,5.59375 -2.986776,2.033445 -3.687318,2.423729 -3.863281,2.148437 -0.223135,-0.34904 1.103877,-8.331378 1.457031,-8.763672 0.57203,-0.700234 3.651238,-1.15077 6.291016,-1.158203 z"
       id="path3-3" />
    <path
       style="fill:#ffffff"
       d="m 25.482706,73.496766 c -4.5822,-0.004 -13.940826,1.915538 -14.939486,3.142578 -0.3006,0.36928 -0.310843,0.744063 -0.03906,1.539063 0.61036,1.7854 1.002776,4.776834 -0.335905,13.490234 -1.5524591,10.104399 -2.2072001,13.603839 -2.5566401,13.960159 -0.14428,0.14714 -0.908659,-0.0307 -1.699219,-0.39649 -1.947,-0.90076 -4.96533702,-0.90859 -6.39843702,-0.0176 -4.27079998,2.654 -2.38815298,8.12682 3.49804602,10.08282 v 0.002 c 0.447,0.14858 1.710134,0.23035 2.808594,0.18359 1.5454,-0.0658 2.354812,-0.30541 3.576172,-1.06445 2.3264001,-1.4456 3.4332001,-3.90517 4.6875001,-10.41797 0.543037,-2.81985 1.015059,-5.409754 1.107419,-5.503954 0.09238,-0.0942 0.75165,0.704164 1.40625,1.521484 4.2564,5.3144 6.977947,7.47852 10.060547,7.47852 0.95582,0 1.572265,-0.10766 1.572265,-0.33594 0,-0.20662 -0.754634,-1.03436 -1.677734,-1.96094 -2.634061,-2.74278 -3.792481,-6.771668 -6.361328,-9.703124 l 1.263672,-0.660156 c 8.4976,-5.2556 13.456547,-13.056103 11.185547,-17.595703 -1.3342,-2.66702 -3.386003,-3.740741 -7.158203,-3.744141 z m -1.517578,7 c 1.583866,-0.0045 3.009016,0.151604 3.640624,0.507812 0.680055,0.383526 0.76396,0.497055 0.271485,0.371094 -0.574576,-0.146983 -0.915186,0.101508 -1.775391,1.300782 -1.343276,1.872845 -3.501634,3.878246 -6.021484,5.59375 -2.986776,2.033445 -3.687318,2.423729 -3.863281,2.148437 -0.223135,-0.34904 1.103877,-8.331378 1.457031,-8.763672 0.57203,-0.700234 3.651238,-1.15077 6.291016,-1.158203 z"
       id="path4-6" />
  </g>
</svg>
