<?xml version="1.0" encoding="UTF-8" standalone="no"?>
<svg
   width="62"
   height="62"
   viewBox="0 0 62 62"
   fill="none"
   version="1.1"
   id="svg20"
   sodipodi:docname="rapid-photo-downloader.svg"
   inkscape:version="1.4 (unknown)"
   xmlns:inkscape="http://www.inkscape.org/namespaces/inkscape"
   xmlns:sodipodi="http://sodipodi.sourceforge.net/DTD/sodipodi-0.dtd"
   xmlns:xlink="http://www.w3.org/1999/xlink"
   xmlns="http://www.w3.org/2000/svg"
   xmlns:svg="http://www.w3.org/2000/svg">
  <sodipodi:namedview
     id="namedview20"
     pagecolor="#ffffff"
     bordercolor="#000000"
     borderopacity="0.25"
     inkscape:showpageshadow="2"
     inkscape:pageopacity="0.0"
     inkscape:pagecheckerboard="0"
     inkscape:deskcolor="#d1d1d1"
     inkscape:zoom="6.0546875"
     inkscape:cx="4.3767742"
     inkscape:cy="67.468387"
     inkscape:window-width="1920"
     inkscape:window-height="998"
     inkscape:window-x="0"
     inkscape:window-y="0"
     inkscape:window-maximized="1"
     inkscape:current-layer="svg20" />
  <defs
     id="defs20">
    <linearGradient
       id="linearGradient32"
       inkscape:collect="always">
      <stop
         style="stop-color:#5599ff;stop-opacity:1"
         offset="0"
         id="stop32" />
      <stop
         style="stop-color:#2a7fff;stop-opacity:1"
         offset="1"
         id="stop33" />
    </linearGradient>
    <linearGradient
       id="linearGradient30"
       inkscape:collect="always">
      <stop
         style="stop-color:#c83771;stop-opacity:1"
         offset="0"
         id="stop30" />
      <stop
         style="stop-color:#d35f8d;stop-opacity:1"
         offset="1"
         id="stop31" />
    </linearGradient>
    <linearGradient
       id="paint0_linear_102_66"
       x1="56"
       y1="60"
       x2="0.65882599"
       y2="12.5647"
       gradientUnits="userSpaceOnUse"
       gradientTransform="matrix(0.67857146,0,0,0.67857146,-78.945668,-2.7142859)">
      <stop
         stop-color="#2E2E41"
         id="stop7" />
      <stop
         offset="1"
         stop-color="#566C80"
         id="stop8" />
    </linearGradient>
    <linearGradient
       id="paint1_linear_102_66"
       x1="50"
       y1="54"
       x2="37.0769"
       y2="34.615398"
       gradientUnits="userSpaceOnUse"
       gradientTransform="matrix(0.67857146,0,0,0.67857146,-78.945668,-2.7142859)">
      <stop
         stop-color="#71706E"
         id="stop9" />
      <stop
         offset="1"
         stop-color="#B9AA99"
         id="stop10" />
    </linearGradient>
    <linearGradient
       id="paint2_linear_102_66"
       x1="50"
       y1="54"
       x2="37.0769"
       y2="34.615398"
       gradientUnits="userSpaceOnUse"
       gradientTransform="matrix(0.67857684,0,0,0.67857684,19.85598,1.3571218)">
      <stop
         stop-color="#71706E"
         id="stop11" />
      <stop
         offset="1"
         stop-color="#B9AA99"
         id="stop12" />
    </linearGradient>
    <linearGradient
       id="paint3_linear_102_66"
       x1="50"
       y1="23"
       x2="41.694199"
       y2="-0.00068259402"
       gradientUnits="userSpaceOnUse"
       gradientTransform="matrix(0.67857146,0,0,0.67857146,-78.945668,-2.7142859)">
      <stop
         stop-color="#FF7E07"
         id="stop13" />
      <stop
         offset="1"
         stop-color="#FFE607"
         id="stop14" />
    </linearGradient>
    <linearGradient
       id="paint4_linear_102_66"
       x1="50"
       y1="23"
       x2="41.694199"
       y2="-0.00068259402"
       gradientUnits="userSpaceOnUse"
       gradientTransform="matrix(0.67857684,0,0,0.67857684,19.85598,1.3571218)">
      <stop
         stop-color="#FF7E07"
         id="stop15" />
      <stop
         offset="1"
         stop-color="#FFE607"
         id="stop16" />
    </linearGradient>
    <linearGradient
       id="paint5_linear_102_66"
       x1="50"
       y1="23"
       x2="41.694199"
       y2="-0.00068259402"
       gradientUnits="userSpaceOnUse"
       gradientTransform="matrix(0.67857684,0,0,0.67857684,19.85598,1.3571218)">
      <stop
         stop-color="#FF7E07"
         id="stop17" />
      <stop
         offset="1"
         stop-color="#FFE607"
         id="stop18" />
    </linearGradient>
    <linearGradient
       id="paint6_linear_102_66"
       x1="50"
       y1="23"
       x2="41.694199"
       y2="-0.00068259402"
       gradientUnits="userSpaceOnUse"
       gradientTransform="matrix(0.67857684,0,0,0.67857684,19.85598,1.3571218)">
      <stop
         stop-color="#FF7E07"
         id="stop19" />
      <stop
         offset="1"
         stop-color="#FFE607"
         id="stop20" />
    </linearGradient>
    <linearGradient
       inkscape:collect="always"
       xlink:href="#paint3_linear_102_66"
       id="linearGradient23"
       gradientUnits="userSpaceOnUse"
       gradientTransform="matrix(0.67857684,0,0,0.67857684,-1.5096168,17.785823)"
       x1="50"
       y1="23"
       x2="41.694199"
       y2="-0.00068259402" />
    <linearGradient
       inkscape:collect="always"
       xlink:href="#paint3_linear_102_66"
       id="linearGradient24"
       gradientUnits="userSpaceOnUse"
       gradientTransform="matrix(0.67857684,0,0,0.67857684,-1.5096168,17.785823)"
       x1="50"
       y1="23"
       x2="41.694199"
       y2="-0.00068259402" />
    <linearGradient
       inkscape:collect="always"
       xlink:href="#paint3_linear_102_66"
       id="linearGradient25"
       gradientUnits="userSpaceOnUse"
       gradientTransform="matrix(0.67857684,0,0,0.67857684,-1.5096168,17.785823)"
       x1="50"
       y1="23"
       x2="41.694199"
       y2="-0.00068259402" />
    <linearGradient
       inkscape:collect="always"
       xlink:href="#paint3_linear_102_66"
       id="linearGradient26"
       gradientUnits="userSpaceOnUse"
       gradientTransform="matrix(0.67857684,0,0,0.67857684,-1.5096168,17.785823)"
       x1="50"
       y1="23"
       x2="41.694199"
       y2="-0.00068259402" />
    <linearGradient
       inkscape:collect="always"
       xlink:href="#paint3_linear_102_66"
       id="linearGradient29"
       gradientUnits="userSpaceOnUse"
       gradientTransform="matrix(0.67857684,0,0,0.67857684,19.85598,1.3571218)"
       x1="50"
       y1="23"
       x2="41.694199"
       y2="-0.00068259402" />
    <linearGradient
       inkscape:collect="always"
       xlink:href="#linearGradient30"
       id="linearGradient31"
       x1="57.856285"
       y1="42.071728"
       x2="19.720854"
       y2="6.499063"
       gradientUnits="userSpaceOnUse" />
    <linearGradient
       inkscape:collect="always"
       xlink:href="#linearGradient32"
       id="linearGradient33"
       x1="0.76051086"
       y1="32.689655"
       x2="36.490688"
       y2="58.500427"
       gradientUnits="userSpaceOnUse" />
  </defs>
  <g
     id="g29"
     transform="matrix(1.0289728,0,0,1.0288633,-0.78254502,-1.1889442)">
    <path
       d="M 25.284595,38.000261 V 8.1428899 c 0,-2.2486061 1.822858,-4.0714609 4.071468,-4.0714609 h 20.890383 c 1.018408,0 1.999838,0.3816792 2.75068,1.0697349 l 3.538439,3.2424843 c 0.841511,0.7712036 1.320722,1.8602508 1.320722,3.0017528 v 3.54326 c 0,0.374775 -0.303807,0.678571 -0.678587,0.678571 -0.374774,0 -0.67857,0.303795 -0.67857,0.678581 v 2.714298 c 0,0.374782 0.303796,0.678588 0.67857,0.678588 0.37478,0 0.678587,0.30379 0.678587,0.678571 v 17.642991 c 0,2.24861 -1.822868,4.071468 -4.071467,4.071468 H 29.356063 c -2.24861,0 -4.071468,-1.822858 -4.071468,-4.071468 z"
       id="path1"
       style="fill:url(#linearGradient31)" />
    <path
       d="m 48.709276,34.984603 c 0,0.0379 0.01915,0.05685 0.05745,0.05685 l 0.133808,-0.0095 c 0.102,-0.0064 0.187978,-0.05371 0.258066,-0.142163 0.07021,-0.08843 0.108371,-0.202149 0.114745,-0.341191 v -2.60628 c 0,-0.145287 -0.0351,-0.262202 -0.105174,-0.350619 -0.07011,-0.0885 -0.16252,-0.132667 -0.277201,-0.132667 h -0.12425 c -0.03826,0 -0.05745,0.01891 -0.05745,0.05684 z"
       id="path2"
       style="fill:#263448;fill-opacity:1" />
    <path
       fill-rule="evenodd"
       clip-rule="evenodd"
       d="m 39.534708,31.214496 c 0,-1.499042 1.215266,-2.71431 2.714309,-2.71431 h 8.821494 c 1.499042,0 2.714309,1.215268 2.714309,2.71431 v 4.071467 c 0,1.499042 -1.215267,2.714298 -2.714309,2.714298 h -8.821494 c -1.499043,0 -2.714309,-1.215256 -2.714309,-2.714298 z m 7.520736,5.352819 c -0.04455,0 -0.07965,-0.01263 -0.105118,-0.03791 -0.02545,-0.0252 -0.03827,-0.05994 -0.03827,-0.104233 v -6.34978 c 0,-0.0442 0.0128,-0.07896 0.03827,-0.10429 0.02537,-0.0252 0.06053,-0.03786 0.105118,-0.03786 h 1.88325 c 0.420656,0 0.790267,0.07891 1.108937,0.236897 0.325027,0.157968 0.576791,0.382241 0.755183,0.672872 0.178466,0.284328 0.267697,0.612891 0.267697,0.9857 v 2.843168 c 0,0.372742 -0.08924,0.704498 -0.267697,0.995129 -0.178392,0.284329 -0.430156,0.505475 -0.755183,0.663387 -0.31867,0.157969 -0.688281,0.236953 -1.108937,0.236953 z m -3.832667,-0.151666 c 0.296739,0.151666 0.642947,0.227471 1.038621,0.227471 0.593491,0 1.072632,-0.170596 1.437365,-0.511788 0.364804,-0.341193 0.547133,-0.799222 0.547133,-1.374185 0,-0.309632 -0.05868,-0.57815 -0.176155,-0.805605 C 45.958464,33.71777 45.800817,33.509311 45.596773,33.32603 45.398966,33.142815 45.102159,32.902734 44.706479,32.605784 44.409739,32.38464 44.211941,32.217233 44.113,32.103507 c -0.09894,-0.120115 -0.148407,-0.243271 -0.148407,-0.36962 0,-0.107423 0.02159,-0.192715 0.06495,-0.255899 0.04949,-0.0631 0.114412,-0.09481 0.194743,-0.09481 0.08034,0 0.145289,0.03164 0.19476,0.09481 0.04949,0.05685 0.07411,0.132665 0.07411,0.227454 v 0.2464 c 0,0.0442 0.01237,0.07895 0.03712,0.104235 0.02468,0.02528 0.05866,0.03791 0.10198,0.03791 h 1.437443 c 0.04335,0 0.0773,-0.01264 0.101979,-0.03791 0.02474,-0.0252 0.03711,-0.05995 0.03711,-0.104235 v -0.208525 c 0,-0.372738 -0.08344,-0.701316 -0.250393,-0.98563 -0.160755,-0.284323 -0.392627,-0.505475 -0.695545,-0.663388 -0.296741,-0.157966 -0.642953,-0.236954 -1.038632,-0.236954 -0.389503,0 -0.735714,0.07896 -1.038634,0.236954 -0.296741,0.157913 -0.528606,0.379065 -0.695533,0.663388 -0.160755,0.284314 -0.241106,0.612892 -0.241106,0.98563 0,0.36019 0.07415,0.679254 0.222579,0.957203 0.148335,0.278002 0.321508,0.508657 0.519316,0.69187 0.204045,0.183214 0.460619,0.385438 0.769703,0.606581 0.315278,0.227401 0.522445,0.394867 0.621305,0.502286 0.09894,0.101106 0.148412,0.20534 0.148412,0.312749 0,0.08842 -0.02472,0.161097 -0.07411,0.217972 -0.04949,0.05683 -0.111288,0.08528 -0.185528,0.08528 -0.07416,0 -0.135982,-0.03164 -0.185453,-0.0948 -0.0495,-0.0631 -0.07417,-0.145289 -0.07417,-0.246399 V 34.56754 c 0,-0.0441 -0.01237,-0.07892 -0.03712,-0.104231 -0.0247,-0.0252 -0.05868,-0.0379 -0.101992,-0.0379 h -1.446658 c -0.04335,0 -0.07731,0.01272 -0.102055,0.0379 -0.02471,0.02528 -0.03703,0.06 -0.03703,0.104231 v 0.293811 c 0,0.347507 0.08034,0.657069 0.2411,0.928771 0.166935,0.2654 0.398736,0.473849 0.695547,0.625511 z"
       id="path3"
       style="fill:#263448;fill-opacity:1" />
    <path
       d="m 30.713203,8.1428899 c -0.749544,0 -1.35714,0.6075972 -1.35714,1.357153 v 6.1071891 c 0,0.749554 0.607596,1.357151 1.35714,1.357151 h 1.357158 c 0.749554,0 1.357151,-0.607597 1.357151,-1.357151 V 9.5000429 c 0,-0.7495558 -0.607597,-1.357153 -1.357151,-1.357153 z"
       fill="url(#paint3_linear_102_66)"
       id="path4"
       style="fill:url(#linearGradient29);stroke-width:0.67857" />
    <path
       d="m 37.49898,8.1428899 c -0.749554,0 -1.357152,0.6075972 -1.357152,1.357153 v 6.1071891 c 0,0.749554 0.607598,1.357151 1.357152,1.357151 h 1.357158 c 0.749543,0 1.35714,-0.607597 1.35714,-1.357151 V 9.5000429 c 0,-0.7495558 -0.607597,-1.357153 -1.35714,-1.357153 z"
       fill="url(#paint4_linear_102_66)"
       id="path5"
       style="fill:url(#paint4_linear_102_66);stroke-width:0.67857" />
    <path
       d="m 42.927587,9.5000429 c 0,-0.7495558 0.607602,-1.357153 1.357158,-1.357153 h 1.357158 c 0.749552,0 1.357152,0.6075972 1.357152,1.357153 v 6.1071891 c 0,0.749554 -0.6076,1.357151 -1.357152,1.357151 h -1.357158 c -0.749556,0 -1.357158,-0.607597 -1.357158,-1.357151 z"
       fill="url(#paint5_linear_102_66)"
       id="path6"
       style="fill:url(#paint5_linear_102_66);stroke-width:0.67857" />
    <path
       d="m 51.070511,10.178622 c -0.749558,0 -1.357158,0.607595 -1.357158,1.357152 v 4.071458 c 0,0.749554 0.6076,1.357151 1.357158,1.357151 h 1.357151 c 0.74956,0 1.357158,-0.607597 1.357158,-1.357151 v -4.071458 c 0,-0.749557 -0.607598,-1.357152 -1.357158,-1.357152 z"
       fill="url(#paint6_linear_102_66)"
       id="path7"
       style="fill:url(#paint6_linear_102_66);stroke-width:0.67857" />
    <path
       d="M 3.919,54.428962 V 24.571591 c 0,-2.248606 1.8228573,-4.071462 4.0714671,-4.071462 H 28.880849 c 1.018408,0 1.999835,0.381679 2.750681,1.069736 l 3.538438,3.242484 c 0.841507,0.771204 1.32072,1.86025 1.32072,3.001754 v 3.543259 c 0,0.374774 -0.303801,0.67857 -0.678585,0.67857 -0.374772,0 -0.678565,0.303795 -0.678565,0.678581 v 2.714299 c 0,0.374781 0.303793,0.678588 0.678565,0.678588 0.374784,0 0.678585,0.30379 0.678585,0.67857 v 17.642992 c 0,2.24861 -1.822863,4.071467 -4.071461,4.071467 H 7.9904671 C 5.7418573,58.500429 3.919,56.677572 3.919,54.428962 Z"
       id="path1-6"
       style="fill:url(#linearGradient33)" />
    <path
       d="m 27.343677,51.413303 c 0,0.0379 0.01919,0.05685 0.0575,0.05685 l 0.133811,-0.0095 c 0.102001,-0.0064 0.187982,-0.05371 0.258062,-0.142164 0.0702,-0.08843 0.108371,-0.202149 0.114751,-0.341191 v -2.60628 c 0,-0.145287 -0.03511,-0.262202 -0.10518,-0.350619 -0.0701,-0.0885 -0.162512,-0.132667 -0.277193,-0.132667 h -0.124255 c -0.0383,0 -0.0575,0.01891 -0.0575,0.05684 z"
       id="path2-0"
       style="fill:#263448;fill-opacity:1" />
    <path
       fill-rule="evenodd"
       clip-rule="evenodd"
       d="m 18.169112,47.643197 c 0,-1.499042 1.215267,-2.71431 2.71431,-2.71431 h 8.821494 c 1.499042,0 2.714311,1.215268 2.714311,2.71431 v 4.071466 c 0,1.499042 -1.215269,2.714299 -2.714311,2.714299 h -8.821494 c -1.499043,0 -2.71431,-1.215257 -2.71431,-2.714299 z m 7.520731,5.352819 c -0.0446,0 -0.0797,-0.01263 -0.10511,-0.03791 -0.0255,-0.0252 -0.0383,-0.05994 -0.0383,-0.104235 v -6.34978 c 0,-0.0442 0.0128,-0.07896 0.0383,-0.104289 0.0254,-0.0252 0.0605,-0.03786 0.10511,-0.03786 h 1.883255 c 0.420654,0 0.790266,0.07892 1.108939,0.236896 0.325023,0.157968 0.576784,0.382241 0.755186,0.672872 0.178462,0.284329 0.267693,0.612891 0.267693,0.9857 v 2.843168 c 0,0.372743 -0.08921,0.704498 -0.267693,0.995129 -0.178402,0.28433 -0.430163,0.505475 -0.755186,0.663387 -0.318673,0.157969 -0.688285,0.236954 -1.108939,0.236954 z M 21.857181,52.84435 c 0.29674,0.151666 0.642948,0.227471 1.038622,0.227471 0.593493,0 1.072627,-0.170596 1.43736,-0.511789 0.364803,-0.341192 0.547134,-0.799222 0.547134,-1.374183 0,-0.309633 -0.0587,-0.578152 -0.176152,-0.805607 -0.11128,-0.233772 -0.268922,-0.442231 -0.472963,-0.625512 -0.197811,-0.183214 -0.494624,-0.423296 -0.890297,-0.720246 -0.296741,-0.221143 -0.494539,-0.388551 -0.59348,-0.502277 -0.09894,-0.120114 -0.148408,-0.243271 -0.148408,-0.36962 0,-0.107422 0.02159,-0.192714 0.06495,-0.255899 0.04949,-0.0631 0.114412,-0.09481 0.194742,-0.09481 0.08034,0 0.145289,0.03164 0.194761,0.09481 0.04949,0.05685 0.07411,0.132666 0.07411,0.227455 v 0.246399 c 0,0.0442 0.0124,0.07896 0.0371,0.104235 0.02469,0.02528 0.0587,0.03791 0.10198,0.03791 h 1.437441 c 0.0434,0 0.0773,-0.01264 0.101982,-0.03791 0.02471,-0.0252 0.0371,-0.05995 0.0371,-0.104235 v -0.208524 c 0,-0.372738 -0.0834,-0.701316 -0.250392,-0.985631 -0.160762,-0.284323 -0.392634,-0.505475 -0.695545,-0.663387 -0.296743,-0.157966 -0.642956,-0.236955 -1.038637,-0.236955 -0.389503,0 -0.735713,0.07896 -1.038633,0.236955 -0.296741,0.157912 -0.528606,0.379064 -0.695534,0.663387 -0.160753,0.284315 -0.241105,0.612893 -0.241105,0.985631 0,0.360189 0.07415,0.679253 0.222578,0.957202 0.148336,0.278003 0.321509,0.508657 0.519316,0.69187 0.204046,0.183215 0.460619,0.385439 0.769704,0.606583 0.315277,0.227399 0.522445,0.394865 0.621305,0.502284 0.09894,0.101106 0.14841,0.205341 0.14841,0.31275 0,0.08842 -0.02471,0.161096 -0.0741,0.217972 -0.04949,0.05683 -0.111285,0.08528 -0.185525,0.08528 -0.07416,0 -0.135982,-0.03164 -0.185452,-0.09479 -0.0495,-0.0631 -0.07417,-0.145289 -0.07417,-0.246398 v -0.20852 c 0,-0.0441 -0.01237,-0.07892 -0.03712,-0.10423 -0.0247,-0.0252 -0.05868,-0.0379 -0.101992,-0.0379 h -1.446657 c -0.04335,0 -0.07731,0.01272 -0.102056,0.0379 -0.0247,0.02528 -0.03703,0.06 -0.03703,0.10423 v 0.293811 c 0,0.347507 0.08034,0.657069 0.2411,0.928772 0.166935,0.265399 0.398737,0.473848 0.695547,0.625511 z"
       id="path3-6"
       style="fill:#263448;fill-opacity:1" />
    <path
       d="m 9.3476078,24.571591 c -0.7495439,0 -1.3571407,0.607597 -1.3571407,1.357153 v 6.107188 c 0,0.749554 0.6075968,1.357152 1.3571407,1.357152 h 1.3571582 c 0.749554,0 1.357151,-0.607598 1.357151,-1.357152 v -6.107188 c 0,-0.749556 -0.607597,-1.357153 -1.357151,-1.357153 z"
       fill="url(#paint3_linear_102_66)"
       id="path4-2"
       style="fill:url(#linearGradient23);stroke-width:0.67857" />
    <path
       d="m 16.133384,24.571591 c -0.749554,0 -1.357152,0.607597 -1.357152,1.357153 v 6.107188 c 0,0.749554 0.607598,1.357152 1.357152,1.357152 h 1.357158 c 0.749544,0 1.35714,-0.607598 1.35714,-1.357152 v -6.107188 c 0,-0.749556 -0.607596,-1.357153 -1.35714,-1.357153 z"
       fill="url(#paint4_linear_102_66)"
       id="path5-6"
       style="fill:url(#linearGradient24);stroke-width:0.67857" />
    <path
       d="m 21.561992,25.928744 c 0,-0.749556 0.607602,-1.357153 1.357158,-1.357153 h 1.357152 c 0.749556,0 1.357161,0.607597 1.357161,1.357153 v 6.107188 c 0,0.749554 -0.607605,1.357152 -1.357161,1.357152 H 22.91915 c -0.749556,0 -1.357158,-0.607598 -1.357158,-1.357152 z"
       fill="url(#paint5_linear_102_66)"
       id="path6-1"
       style="fill:url(#linearGradient25);stroke-width:0.67857" />
    <path
       d="m 29.704916,26.607321 c -0.749556,0 -1.357162,0.607596 -1.357162,1.357153 v 4.071458 c 0,0.749554 0.607606,1.357152 1.357162,1.357152 h 1.35715 c 0.749556,0 1.357161,-0.607598 1.357161,-1.357152 v -4.071458 c 0,-0.749557 -0.607605,-1.357153 -1.357161,-1.357153 z"
       fill="url(#paint6_linear_102_66)"
       id="path7-8"
       style="fill:url(#linearGradient26);stroke-width:0.67857" />
  </g>
</svg>
