<?xml version="1.0" encoding="UTF-8" standalone="no"?>
<svg
   style="enable-background:new"
   width="62"
   height="62"
   version="1.0"
   id="svg10"
   sodipodi:docname="re.sonny.Tangram.svg"
   inkscape:version="1.4 (unknown)"
   xmlns:inkscape="http://www.inkscape.org/namespaces/inkscape"
   xmlns:sodipodi="http://sodipodi.sourceforge.net/DTD/sodipodi-0.dtd"
   xmlns="http://www.w3.org/2000/svg"
   xmlns:svg="http://www.w3.org/2000/svg">
  <defs
     id="defs10" />
  <sodipodi:namedview
     id="namedview10"
     pagecolor="#ffffff"
     bordercolor="#000000"
     borderopacity="0.25"
     inkscape:showpageshadow="2"
     inkscape:pageopacity="0.0"
     inkscape:pagecheckerboard="0"
     inkscape:deskcolor="#d1d1d1"
     inkscape:zoom="5"
     inkscape:cx="36.2"
     inkscape:cy="12.9"
     inkscape:window-width="1920"
     inkscape:window-height="998"
     inkscape:window-x="0"
     inkscape:window-y="0"
     inkscape:window-maximized="1"
     inkscape:current-layer="svg10" />
  <g
     id="g10"
     transform="matrix(0.98214286,0,0,0.98245612,-0.42857152,-0.92982341)">
    <path
       style="opacity:0.2"
       d="m 8.3066406,4.9999996 c -1.1932308,0 -2.2702134,0.4791972 -3.048828,1.2578126 C 4.479197,7.0364274 4,8.1134096 4,9.30664 V 56.693358 C 4,57.88659 4.479197,58.963572 5.2578126,59.742186 6.0364272,60.520802 7.1134098,61 8.3066406,61 H 32 55.69336 C 58.07982,61 60,59.079822 60,56.693358 V 33 9.30664 C 60,8.1134096 59.520802,7.0364274 58.742186,6.2578122 57.963572,5.4791968 56.88659,4.9999996 55.69336,4.9999996 Z"
       id="path1" />
    <path
       style="fill:#c83771"
       d="m 8.3076924,3.999999 c -1.1932308,0 -2.2702132,0.480249 -3.048828,1.2588642 L 32,31.999998 58.741136,5.2588632 C 57.962522,4.480248 56.885538,3.999999 55.692308,3.999999 Z"
       id="path2" />
    <path
       style="fill:#5652fa;fill-opacity:1"
       d="M 5.2588644,5.2588632 C 4.480249,6.0374786 4,7.1144604 4,8.3076912 V 55.692308 c 0,1.19323 0.480249,2.270212 1.2588644,3.048828 L 32,31.999998 Z"
       id="path3" />
    <path
       style="fill:#a0e21e;fill-opacity:1"
       d="M 58.741136,5.2588632 46,17.999998 l 14,14 V 8.3076912 C 60,7.1144604 59.51975,6.0374786 58.741136,5.2588632 Z"
       id="path4" />
    <rect
       style="fill:#fbfafa"
       width="19.799"
       height="19.799"
       x="0"
       y="45.25"
       transform="rotate(-45)"
       id="rect4" />
    <path
       style="fill:#25da8e;fill-opacity:1"
       d="M 60,31.999998 32,60.000002 H 55.692308 C 58.078768,60.000002 60,58.07877 60,55.692308 Z"
       id="path5" />
    <path
       style="fill:#ffa700;fill-opacity:1"
       d="M 45.999986,45.999994 H 18 l 14,-14 z"
       id="path6" />
    <path
       style="fill:#ffef33;fill-opacity:1"
       d="M 18,45.999998 5.2588644,58.741136 c 0.7786148,0.778616 1.8555972,1.258866 3.048828,1.258866 H 32 L 46,45.999998 Z"
       id="path7" />
    <path
       style="opacity:0.1"
       d="M 6.5195312,5.3984375 C 6.0498237,5.6131128 5.6198558,5.8996753 5.2597656,6.2597656 4.8996752,6.6198561 4.6131128,7.0498238 4.3984375,7.5195312 L 29.878906,33 4.3984375,58.480469 c 0.2146753,0.469707 0.5012377,0.899675 0.8613281,1.259765 0.3600902,0.360091 0.7900581,0.646653 1.2597656,0.861328 L 19.121094,48 H 42.878906 L 29.939453,60.939453 30,61 h 2 2.121094 L 60,35.121094 V 33 30.878906 L 48.121094,19 59.601562,7.5195312 C 59.386887,7.0498238 59.100324,6.6198561 58.740234,6.2597656 58.380145,5.8996753 57.950176,5.6131128 57.480469,5.3984375 L 32,30.878906 Z M 46,21.121094 57.878906,33 46,44.878906 34.121094,33 Z m -14,14 L 41.878906,45 H 22.121094 Z"
       id="path8" />
    <path
       style="fill:#3f3f3f"
       d="M 6.5195312,4.3984375 C 6.0498237,4.6131128 5.6198558,4.8996753 5.2597656,5.2597656 4.8996752,5.6198561 4.6131128,6.0498238 4.3984375,6.5195312 L 29.878906,32 4.3984375,57.480469 c 0.2146753,0.469707 0.5012377,0.899675 0.8613281,1.259765 0.3600902,0.360091 0.7900581,0.646653 1.2597656,0.861328 L 19.121094,47 H 42.878906 L 29.939453,59.939453 30,60 h 2 2.121094 L 60,34.121094 V 32 29.878906 L 48.121094,18 59.601562,6.5195312 C 59.386887,6.0498238 59.100324,5.6198561 58.740234,5.2597656 58.380145,4.8996753 57.950176,4.6131128 57.480469,4.3984375 L 32,29.878906 Z M 46,20.121094 57.878906,32 46,43.878906 34.121094,32 Z m -14,14 L 41.878906,44 H 22.121094 Z"
       id="path9" />
    <path
       style="opacity:0.2;fill:#ffffff"
       d="M 8.3046875,4 C 7.1114565,4 6.0364271,4.4791973 5.2578125,5.2578125 4.4791971,6.0364277 4,7.1114565 4,8.3046875 v 1 C 4,8.1114565 4.4791971,7.0364277 5.2578125,6.2578125 6.0364271,5.4791973 7.1114565,5 8.3046875,5 H 55.695312 c 1.19323,0 2.268262,0.4791973 3.046876,1.2578125 C 59.520803,7.0364279 60,8.1114567 60,9.3046875 v -1 C 60,7.1114567 59.520803,6.0364279 58.742188,5.2578125 57.963574,4.4791973 56.888542,4 55.695312,4 Z"
       id="path10" />
  </g>
</svg>
