<?xml version="1.0" encoding="UTF-8" standalone="no"?>
<svg
   width="62"
   height="62"
   version="1"
   id="svg9"
   sodipodi:docname="re.sonny.Junction.svg"
   inkscape:version="1.4 (unknown)"
   xmlns:inkscape="http://www.inkscape.org/namespaces/inkscape"
   xmlns:sodipodi="http://sodipodi.sourceforge.net/DTD/sodipodi-0.dtd"
   xmlns="http://www.w3.org/2000/svg"
   xmlns:svg="http://www.w3.org/2000/svg">
  <defs
     id="defs9" />
  <sodipodi:namedview
     id="namedview9"
     pagecolor="#ffffff"
     bordercolor="#000000"
     borderopacity="0.25"
     inkscape:showpageshadow="2"
     inkscape:pageopacity="0.0"
     inkscape:pagecheckerboard="0"
     inkscape:deskcolor="#d1d1d1"
     inkscape:zoom="12.109375"
     inkscape:cx="32"
     inkscape:cy="32"
     inkscape:window-width="1920"
     inkscape:window-height="998"
     inkscape:window-x="0"
     inkscape:window-y="0"
     inkscape:window-maximized="1"
     inkscape:current-layer="svg9" />
  <path
     stroke-linejoin="round"
     style="opacity:0.2;fill:none;stroke:#000000;stroke-width:8"
     d="M 6.9997312,52.499787 H 55.000269 L 31,10.499827 Z"
     id="path1" />
  <path
     stroke-linejoin="round"
     style="fill:none;stroke:#fecd38;stroke-width:8"
     d="M 6.9997312,51.500193 H 55.000269 L 31,9.500233 Z"
     id="path2" />
  <path
     stroke-linejoin="round"
     style="fill:none;stroke:#263448;stroke-width:6;stroke-dasharray:none;stroke-opacity:1"
     d="M 7.9997108,51.500213 H 53.999711 L 32.658466,13.457 30.999711,10.500213 Z"
     id="path3"
     sodipodi:nodetypes="ccccc" />
  <path
     style="fill:#ffcc00"
     d="M 7.9997108,51.500213 H 53.999711 l -23,-41 z"
     id="path4" />
  <path
     fill="#3f3f3f"
     d="m 28.999711,27.500213 h 4 v 20 h -4 z"
     id="path5"
     style="fill:#263448;fill-opacity:1" />
  <path
     stroke-linejoin="round"
     style="fill:none;stroke:#263448;stroke-width:3;stroke-opacity:1"
     d="m 30.999711,43.500213 c 0,-4 -3,-6 -7,-6"
     id="path6" />
  <path
     style="fill:#263448;fill-opacity:1"
     d="m 30.999711,21.500213 -5,7 h 10 z"
     id="path7" />
  <path
     style="fill:#263448;fill-opacity:1"
     d="m 18.999711,37.500213 7,4 v -8 z"
     id="path8" />
  <path
     style="opacity:0.2;fill:#ffffff"
     d="m 30.999711,5.500213 a 4.0005233,4.00042 0 0 0 -3.472656,2.015625 l -24.0000004,42 a 4.0005233,4.00042 0 0 0 -0.4667969,2.296875 4.0005233,4.00042 0 0 1 0.4667969,-1.296875 l 24.0000004,-42 a 4.0005233,4.00042 0 0 1 3.472656,-2.015625 4.0005233,4.00042 0 0 1 3.472656,2.015625 l 24,42 a 4.0005233,4.00042 0 0 1 0.486328,1.423828 4.0005233,4.00042 0 0 0 -0.486328,-2.423828 l -24,-42 A 4.0005233,4.00042 0 0 0 30.999711,5.500213 Z"
     id="path9" />
</svg>
