<?xml version="1.0" encoding="UTF-8" standalone="no"?>
<svg
   width="62"
   height="62"
   version="1.1"
   id="svg3"
   sodipodi:docname="reactotron.svg"
   inkscape:version="1.4 (unknown)"
   xmlns:inkscape="http://www.inkscape.org/namespaces/inkscape"
   xmlns:sodipodi="http://sodipodi.sourceforge.net/DTD/sodipodi-0.dtd"
   xmlns:xlink="http://www.w3.org/1999/xlink"
   xmlns="http://www.w3.org/2000/svg"
   xmlns:svg="http://www.w3.org/2000/svg">
  <sodipodi:namedview
     id="namedview3"
     pagecolor="#ffffff"
     bordercolor="#000000"
     borderopacity="0.25"
     inkscape:showpageshadow="2"
     inkscape:pageopacity="0.0"
     inkscape:pagecheckerboard="0"
     inkscape:deskcolor="#d1d1d1"
     inkscape:zoom="8"
     inkscape:cx="35.8125"
     inkscape:cy="42.3125"
     inkscape:window-width="1920"
     inkscape:window-height="998"
     inkscape:window-x="0"
     inkscape:window-y="0"
     inkscape:window-maximized="1"
     inkscape:current-layer="svg3" />
  <defs
     id="defs3">
    <linearGradient
       id="linearGradient3"
       inkscape:collect="always">
      <stop
         style="stop-color:#ff5555;stop-opacity:1"
         offset="0"
         id="stop4" />
      <stop
         style="stop-color:#ffcc00;stop-opacity:1"
         offset="0.5031727"
         id="stop6" />
      <stop
         style="stop-color:#bc5fd3;stop-opacity:1"
         offset="1"
         id="stop5" />
    </linearGradient>
    <linearGradient
       id="linear0"
       x1="0"
       x2="15.419072"
       y1="0.59202313"
       y2="16.011095"
       gradientTransform="scale(1.0376759,0.96369201)"
       gradientUnits="userSpaceOnUse">
      <stop
         offset="0%"
         style="stop-color:#ff0000; stop-opacity:1"
         id="stop1" />
      <stop
         offset="50%"
         style="stop-color:#ffd000; stop-opacity:1"
         id="stop2" />
      <stop
         offset="100%"
         style="stop-color:#ff00bb; stop-opacity:1"
         id="stop3" />
    </linearGradient>
    <linearGradient
       inkscape:collect="always"
       xlink:href="#linearGradient3"
       id="linearGradient5"
       x1="0"
       y1="0.57052797"
       x2="16"
       y2="15.429765"
       gradientUnits="userSpaceOnUse" />
  </defs>
  <g
     id="g3"
     transform="matrix(3.78125,0,0,3.7686996,0.75,0.84985191)">
    <path
       fill-rule="evenodd"
       d="M 6.286,5.143 H 9.714 L 11.2,8 9.714,10.857 H 6.286 L 4.8,8 Z M 3.921,10.436 C 1.562,9.953 0,9.041 0,8 0,6.957 1.569,6.043 3.917,5.548 3.213,3.143 3.252,1.237 4.165,0.711 5.039,0.208 6.504,1.087 7.997,2.849 9.494,1.088 10.96,0.208 11.835,0.711 12.75,1.238 12.788,3.151 12.079,5.564 14.438,6.047 16,6.959 16,8 c 0,1.043 -1.569,1.957 -3.917,2.452 0.704,2.405 0.665,4.311 -0.248,4.837 C 10.961,15.792 9.496,14.913 8.003,13.152 6.506,14.912 5.04,15.793 4.165,15.289 3.249,14.762 3.212,12.849 3.921,10.436 Z M 6.571,8 C 6.571,7.212 7.212,6.571 8,6.571 8.788,6.571 9.429,7.212 9.429,8 9.429,8.788 8.788,9.429 8,9.429 7.212,9.429 6.571,8.788 6.571,8 Z"
       id="path3"
       style="fill:url(#linearGradient5)" />
  </g>
</svg>
