<?xml version="1.0" encoding="UTF-8" standalone="no"?>
<svg
   width="62"
   height="62"
   version="1.1"
   id="svg6"
   sodipodi:docname="redeclipse.svg"
   inkscape:version="1.4 (unknown)"
   xmlns:inkscape="http://www.inkscape.org/namespaces/inkscape"
   xmlns:sodipodi="http://sodipodi.sourceforge.net/DTD/sodipodi-0.dtd"
   xmlns="http://www.w3.org/2000/svg"
   xmlns:svg="http://www.w3.org/2000/svg">
  <defs
     id="defs6" />
  <sodipodi:namedview
     id="namedview6"
     pagecolor="#ffffff"
     bordercolor="#000000"
     borderopacity="0.25"
     inkscape:showpageshadow="2"
     inkscape:pageopacity="0.0"
     inkscape:pagecheckerboard="0"
     inkscape:deskcolor="#d1d1d1"
     inkscape:zoom="6.0546875"
     inkscape:cx="41.207742"
     inkscape:cy="39.886452"
     inkscape:window-width="1920"
     inkscape:window-height="998"
     inkscape:window-x="0"
     inkscape:window-y="0"
     inkscape:window-maximized="1"
     inkscape:current-layer="svg6" />
  <g
     id="g6"
     transform="matrix(0.97404539,0,0,0.97404539,-0.16861694,-0.41676869)">
    <path
       style="opacity:0.2"
       d="M 4.000432,23.491846 C 5.7740117,19.485551 9.9773709,21.665851 11.495644,19.212417 12.932691,16.890241 8.1574756,13.2797 5.2092227,13.44054 c 1.0453384,-0.997203 7.7809593,0.222273 9.8743483,0.283778 2.540916,0.07465 -1.414803,-4.9379139 -1.414803,-4.9379139 0.929551,-1.8298319 5.793533,-0.6551406 7.721793,1.8944029 2.19231,2.898674 5.506135,-4.8479175 3.519583,-6.1722855 4.126797,0.1945935 4.731971,6.2837555 6.855644,6.4853445 3.483417,0.330663 4.185226,-1.375493 4.817412,-3.5149321 2.457037,2.4299881 0.506926,5.5959621 1.765376,5.7740031 4.119245,2.301291 7.140136,-3.976346 9.406905,-1.904217 -3.371605,2.290396 -6.419424,8.913539 -1.488579,8.934259 2.405657,0.145558 3.003028,0.513586 5.817472,2.848938 -6.40532,-2.209606 -6.517917,3.160233 -3.578852,2.547947 6.129317,-1.276904 7.638872,3.789788 6.96161,3.92524 -1.812636,-0.906319 -11.762491,-1.291148 -10.860436,0.2705 4.635282,8.02467 -4.349877,11.397213 -11.876016,13.292792 L 17.066722,43.277435 C 14.201381,41.551165 4.421238,36.508867 4.000432,29.166357 3.94223,28.150808 7.449032,29.394697 8.1860656,28.240685 10.187632,25.106731 7.9214748,23.448677 4.000432,23.491846 Z"
       id="path1" />
    <path
       style="fill:#c83771"
       d="m 4.000432,22.491872 c 1.7735797,-4.006295 5.9769389,-1.825995 7.495212,-4.279429 1.437047,-2.322176 -3.3381684,-5.932717 -6.2864213,-5.771878 1.0453384,-0.997202 7.7809593,0.222274 9.8743483,0.283779 2.540916,0.07465 -1.414803,-4.9379143 -1.414803,-4.9379143 0.929551,-1.8298319 5.793533,-0.6551406 7.721793,1.8944034 2.19231,2.8986729 5.506135,-4.847918 3.519583,-6.172286 4.126797,0.1945935 4.731971,6.2837556 6.855644,6.4853448 3.483417,0.3306621 4.185226,-1.3754932 4.817412,-3.5149324 2.457037,2.4299881 0.506926,5.5959625 1.765376,5.7740025 4.119245,2.301291 7.140136,-3.9763455 9.406905,-1.904217 -3.371605,2.290396 -6.419424,8.91354 -1.488579,8.93426 2.405657,0.145554 3.003028,0.513585 5.817472,2.848937 -6.40532,-2.209605 -6.517917,3.160234 -3.578852,2.547948 6.129317,-1.276904 7.638872,3.789787 6.96161,3.925239 C 53.654496,27.698811 43.704641,27.313982 44.606696,28.87563 49.241978,36.900299 40.256819,40.272842 32.73068,42.168422 L 17.066722,42.27746 C 14.201381,40.551191 4.421238,35.508893 4.000432,28.166383 3.94223,27.150834 7.449032,28.394722 8.1860656,27.240711 10.187632,24.106757 7.9214748,22.448702 4.000432,22.491872 Z"
       id="path2" />
    <path
       style="opacity:0.2;fill:#ffffff"
       d="m 24.910156,3.5078125 c 0.319958,0.2133051 0.490705,0.6048858 0.5625,1.0800781 3.619107,0.6970119 4.270981,6.2143134 6.292969,6.4062504 3.483417,0.330662 4.186173,-1.3761862 4.818359,-3.5156254 1.025792,1.0144986 1.270802,2.148359 1.314454,3.1484374 0.05232,-1.1721644 0.07845,-2.7708711 -1.314454,-4.1484374 -0.632186,2.1394392 -1.334942,3.8462874 -4.818359,3.515625 C 29.641952,9.7925514 29.036953,3.702406 24.910156,3.5078125 Z m 0.570313,2.1230469 C 25.1936,8.2229069 22.995828,11.804041 21.390625,9.6816406 19.462365,7.1320966 14.59752,5.9572775 13.667969,7.7871094 c 0,0 0.219968,0.2928466 0.404297,0.5429687 1.487479,-1.1138435 5.585007,0.057772 7.318359,2.3496099 1.828221,2.417274 4.426039,-2.5580825 4.089844,-5.0488286 z m 21.388672,4.2988281 c -2.153094,-0.2180483 -4.917145,4.3378485 -8.521485,2.3242185 -0.295155,-0.04176 -0.410757,-0.253735 -0.451172,-0.576172 -0.03962,0.86897 -0.08358,1.498564 0.451172,1.574219 3.669806,2.050204 6.467014,-2.693358 8.636719,-2.291015 0.253592,-0.224184 0.510459,-0.434009 0.771484,-0.611329 C 47.472513,10.090593 47.176725,9.9608373 46.869141,9.9296875 Z M 6.8984375,12.054688 c -0.8111744,0.02494 -1.4281185,0.137418 -1.6894531,0.386718 0.8145396,-0.04444 1.7674966,0.204306 2.6914062,0.628906 2.4524414,0.08349 5.8089494,0.61391 7.1835934,0.654297 0.866715,0.02546 0.96852,-0.54718 0.738282,-1.304687 -0.120543,0.195448 -0.344236,0.316264 -0.738282,0.304687 -1.570041,-0.04613 -5.7520234,-0.744755 -8.1855465,-0.669921 z m 36.8300785,5.423828 c -0.213631,1.571693 0.427496,2.795814 2.539062,2.804687 1.782028,0.107822 2.57408,0.341112 4.007813,1.402344 0.540222,0.08021 1.131612,0.213731 1.808593,0.447265 -2.814444,-2.335351 -3.410749,-2.704055 -5.816406,-2.849609 -1.633418,-0.0069 -2.37848,-0.746281 -2.539062,-1.804687 z m -32.039063,0.292968 c -0.04326,0.151096 -0.105141,0.298851 -0.193359,0.441407 C 9.9778206,20.666325 5.7735797,18.485892 4,22.492188 c 0.2033507,-0.0022 0.3820876,0.01851 0.5761719,0.02539 1.9819014,-2.643001 5.5467881,-1.085789 6.9199221,-3.304687 0.275193,-0.444695 0.31734,-0.937751 0.193359,-1.441407 z m 35.0625,6.160157 c -0.350262,0.961805 0.345225,2.041513 1.753906,1.748047 4.442231,-0.925438 6.449619,1.475355 6.964844,2.921874 0.663885,-0.16109 -0.851776,-5.195393 -6.964844,-3.921874 -0.909098,0.189389 -1.524666,-0.194086 -1.753906,-0.748047 z M 8.8691406,25.666016 C 8.7731642,26.140422 8.5529443,26.664982 8.1855469,27.240234 7.4485133,28.394245 3.941798,27.150467 4,28.166016 c 0.014955,0.260942 0.044165,0.518351 0.082031,0.773437 0.5066361,-0.570194 3.4362007,0.34563 4.1035157,-0.699219 C 8.83537,27.222773 9.0295634,26.36464 8.8691406,25.666016 Z m 35.9785154,3.660156 c -0.258172,0.147729 -0.368982,0.325938 -0.240234,0.548828 0.770539,1.33397 1.157095,2.537461 1.24414,3.628906 0.119263,-1.225516 -0.181565,-2.61193 -1.003906,-4.177734 z"
       id="path3" />
    <circle
       style="opacity:0.2"
       cx="29.999001"
       cy="31"
       r="18"
       id="circle3" />
    <circle
       style="fill:#ffffff"
       cx="29.999001"
       cy="30"
       r="18"
       id="circle4" />
    <circle
       style="opacity:0.2"
       cx="37.999001"
       cy="39"
       r="22"
       id="circle5" />
    <circle
       style="fill:#364863;fill-opacity:1"
       cx="37.999001"
       cy="38"
       r="22"
       id="circle6" />
    <path
       style="opacity:0.1"
       d="M 38,16 A 21.999718,21.999718 0 0 0 16,38 21.999718,21.999718 0 0 0 16.021484,38.585938 21.999718,21.999718 0 0 1 38,17 21.999718,21.999718 0 0 1 43.048828,17.615234 17.999769,17.999769 0 0 0 41.679688,16.3125 21.999718,21.999718 0 0 0 38,16 Z"
       id="path6" />
  </g>
</svg>
