<?xml version="1.0" encoding="UTF-8" standalone="no"?>
<svg
   width="62"
   height="62"
   version="1.1"
   id="svg3"
   sodipodi:docname="redriver2.svg"
   inkscape:version="1.4 (unknown)"
   xmlns:inkscape="http://www.inkscape.org/namespaces/inkscape"
   xmlns:sodipodi="http://sodipodi.sourceforge.net/DTD/sodipodi-0.dtd"
   xmlns="http://www.w3.org/2000/svg"
   xmlns:svg="http://www.w3.org/2000/svg">
  <defs
     id="defs3">
    <linearGradient
       id="paint584_linear_890_11"
       x1="496"
       y1="294"
       x2="482.5"
       y2="307.5"
       gradientUnits="userSpaceOnUse"
       gradientTransform="translate(-454.00025,-257.70022)">
      <stop
         offset="0.284815"
         stop-color="#71706E"
         id="stop1911" />
      <stop
         offset="0.744047"
         stop-color="#B9AA99"
         id="stop1912" />
    </linearGradient>
    <linearGradient
       id="paint585_linear_890_11"
       x1="493"
       y1="299"
       x2="455"
       y2="261"
       gradientUnits="userSpaceOnUse"
       gradientTransform="translate(-454.00025,-257.70022)">
      <stop
         offset="0.151316"
         stop-color="#2E2E41"
         id="stop1913" />
      <stop
         offset="1"
         stop-color="#566C80"
         id="stop1914" />
    </linearGradient>
    <linearGradient
       id="paint586_linear_890_11"
       x1="481.15799"
       y1="286.60699"
       x2="479.504"
       y2="284.953"
       gradientUnits="userSpaceOnUse"
       gradientTransform="translate(-454.00025,-257.70022)">
      <stop
         offset="0.252542"
         stop-color="#71706E"
         id="stop1915" />
      <stop
         offset="1"
         stop-color="#B9AA99"
         id="stop1916" />
    </linearGradient>
  </defs>
  <sodipodi:namedview
     id="namedview3"
     pagecolor="#ffffff"
     bordercolor="#000000"
     borderopacity="0.25"
     inkscape:showpageshadow="2"
     inkscape:pageopacity="0.0"
     inkscape:pagecheckerboard="0"
     inkscape:deskcolor="#d1d1d1"
     inkscape:zoom="8.3306018"
     inkscape:cx="64.161031"
     inkscape:cy="37.272217"
     inkscape:window-width="1920"
     inkscape:window-height="998"
     inkscape:window-x="0"
     inkscape:window-y="0"
     inkscape:window-maximized="1"
     inkscape:current-layer="svg3"
     showgrid="false">
    <inkscape:grid
       id="grid2"
       units="px"
       originx="0"
       originy="0"
       spacingx="1"
       spacingy="1"
       empcolor="#0099e5"
       empopacity="0.30196078"
       color="#0099e5"
       opacity="0.14901961"
       empspacing="5"
       enabled="true"
       visible="false" />
  </sodipodi:namedview>
  <rect
     style="opacity:0.2;stroke-width:0.9823"
     width="55"
     height="55.017544"
     x="3.5"
     y="3.9824562"
     ry="13.754386"
     id="rect1" />
  <rect
     style="fill:#ff5555;stroke-width:0.9823;fill-opacity:1"
     width="55"
     height="55.017544"
     x="3.5"
     y="3"
     ry="13.754386"
     id="rect2" />
  <path
     style="opacity:0.1;fill:#ffffff;stroke-width:0.9823"
     d="M 17.25,3 C 9.6324999,3 3.4999999,9.1344561 3.4999999,16.754386 v 0.982456 c 0,-7.61993 6.1325,-13.7543858 13.7500001,-13.7543858 h 27.5 c 7.6175,0 13.75,6.1344558 13.75,13.7543858 V 16.754386 C 58.5,9.1344561 52.3675,3 44.75,3 Z"
     id="path28" />
  <g
     id="g1"
     transform="matrix(1.000015,0,0,0.97560972,-74.776499,6.3311634)">
    <path
       style="opacity:0.2"
       d="m 121.3379,6.289068 c -0.16381,0 -0.52627,0.03793 -0.80469,0.08398 -0.27843,0.04604 -1.17988,0.177532 -2.00391,0.292969 -3.74598,0.524765 -8.9238,1.265753 -9.10156,1.300781 -0.1571,0.03096 -0.18722,0.0738 -0.14453,0.22461 0.14918,0.527022 0.22384,1.271782 0.17578,1.767578 -0.56003,5.777917 -1.13089,11.152198 -1.25,11.757812 -0.0671,0.341482 -0.20205,0.810396 -0.29883,1.041016 -0.0967,0.23062 -0.15484,0.453071 -0.1289,0.496094 0.0285,0.04739 0.22011,0.04577 0.48633,-0.002 0.24172,-0.04333 0.66477,-0.108678 0.93945,-0.146485 0.27467,-0.03781 1.58647,-0.229354 2.91406,-0.425781 1.3276,-0.196427 3.08613,-0.452149 3.91016,-0.568359 0.82402,-0.116209 1.9819,-0.286631 2.57226,-0.378907 0.59035,-0.09229 1.1718,-0.169205 1.29102,-0.169921 0.11922,-6.83e-4 0.26553,-0.03285 0.32617,-0.07227 0.0606,-0.03943 0.25581,-0.642689 0.43359,-1.341797 0.17779,-0.699104 0.35078,-1.363542 0.38282,-1.476563 0.0665,-0.234398 0.11731,-0.241218 -0.88086,0.117188 -0.5197,0.186603 -1.92869,0.457425 -3.16602,0.609375 -0.16023,0.01968 -0.48008,0.07131 -0.70898,0.115234 -0.94734,0.181761 -2.29773,0.361681 -2.34571,0.3125 -0.0283,-0.02902 0.0322,-0.908455 0.13477,-1.953125 0.1351,-1.375689 0.21756,-1.924302 0.30469,-1.99414 0.0662,-0.05303 0.48652,-0.143162 0.93164,-0.199219 0.44511,-0.05606 1.27737,-0.182098 1.84961,-0.28125 0.71704,-0.12424 1.40912,-0.182593 2.22656,-0.183594 0.65235,-7.68e-4 1.18765,-0.0016 1.18945,-0.0039 0.0334,-0.04027 0.31241,-3.163465 0.28516,-3.191406 -0.0213,-0.02189 -0.38502,0.0785 -0.80859,0.224609 -0.85196,0.293853 -1.29729,0.392803 -2.52344,0.566406 -0.45541,0.06448 -1.28771,0.185951 -1.84961,0.267578 -0.5619,0.08162 -1.04021,0.126422 -1.06445,0.101563 -0.0374,-0.0384 0.0651,-1.238746 0.2871,-3.365234 0.006,-0.05655 0.13246,-0.12357 0.28125,-0.146485 4.37489,-0.673961 4.98445,-0.738036 6.09571,-0.646484 l 0.5,0.04102 -0.006,-0.640626 c -0.003,-0.352022 -0.0353,-0.976023 -0.0703,-1.386718 l -0.0625,-0.746049 z m -16.37305,2.009766 c -0.69729,-0.038 -1.79115,0.04526 -3.20508,0.246093 -2.823387,0.401049 -7.815871,1.105399 -9.119138,1.285157 -1.223102,0.168704 -1.47104,0.259708 -1.341796,0.503906 0.04113,0.07773 0.12406,0.385679 0.18164,0.68164 0.109286,0.561614 0.06651,1.260314 -0.226562,3.798829 -0.16321,1.41369 -0.425525,3.859362 -0.63086,5.884765 -0.249021,2.456339 -0.405911,3.44771 -0.636718,4.001953 -0.114884,0.275871 -0.210938,0.528298 -0.210938,0.560547 0,0.07817 1.833012,-0.0319 2.210938,-0.132812 0.163623,-0.04369 0.469313,-0.09711 0.679687,-0.121094 0.477413,-0.0544 2.720395,-0.368077 3.214844,-0.449219 0.343384,-0.05635 0.36405,-0.07563 0.3125,-0.283203 -0.257073,-1.035198 -0.269313,-0.775178 0.294922,-6.111328 0.137387,-1.299359 0.331039,-3.17378 0.429687,-4.166016 0.220277,-2.215741 0.211589,-2.179116 0.445313,-2.232422 0.235224,-0.05365 3.278961,-0.474609 3.431641,-0.474609 0.061,0 0.16706,0.08649 0.23633,0.193359 0.11097,0.171163 0.1119,0.327545 0.004,1.310547 -0.22075,2.00003 -0.19559,1.970178 -1.789066,2.201172 -0.59361,0.08605 -1.094976,0.172886 -1.115234,0.19336 -0.05994,0.06061 -0.354088,2.409274 -0.310547,2.480468 0.02198,0.03589 0.110367,0.06445 0.197266,0.06445 0.157672,0 0.268544,0.276416 0.720703,1.804688 0.230186,0.778006 1.075516,3.44678 1.238281,3.908203 l 0.154297,0.429688 0.49414,-0.0293 c 0.64587,-0.03862 5.63874,-0.755269 5.70117,-0.81836 0.0263,-0.02657 -0.0899,-0.334054 -0.25976,-0.68164 -0.16993,-0.347585 -0.31055,-0.67098 -0.31055,-0.720703 0,-0.04973 -0.11243,-0.376239 -0.25,-0.72461 C 105.30581,20.39571 104.83819,19.184615 104,17 c -0.019,-0.04968 0.20637,-0.160336 0.5,-0.248047 0.99958,-0.298591 1.51148,-0.832763 1.80859,-1.886719 0.13167,-0.467004 0.46681,-3.673806 0.46681,-4.458978 0,-1.014842 -0.49465,-1.817853 -1.24805,-2.029297 -0.14147,-0.0397 -0.33007,-0.06545 -0.5625,-0.07813 z m 12.70117,14.992187 c -0.28333,-0.0042 -0.5917,0.0043 -0.93554,0.01953 -1.33031,0.05866 -2.33592,0.254006 -3.63672,0.712891 -0.75142,0.265076 -1.9322,0.864539 -2.36524,1.201172 -1.9911,1.547803 -3.08054,3.08901 -3.8164,5.398437 -0.21321,0.669142 -0.4611,1.924427 -0.39453,1.992188 0.0335,0.03406 0.28,0.02298 0.55078,-0.02344 0.27077,-0.04644 0.80765,-0.115595 1.19336,-0.15625 1.24496,-0.13122 3.09194,-0.45049 3.15429,-0.544922 0.0334,-0.05049 0.0619,-0.280721 0.0625,-0.511718 10e-4,-0.466936 0.22093,-1.12427 0.55078,-1.65625 0.40703,-0.656451 1.3449,-1.510771 2.05079,-1.865235 0.59216,-0.297368 0.72919,-0.331697 1.45312,-0.367187 0.71079,-0.03485 0.84445,-0.0177 1.18945,0.152344 0.32574,0.160536 0.42418,0.267509 0.60352,0.662109 0.34843,0.766613 0.28016,1.831429 -0.17188,2.714844 -0.21082,0.412 -1.20208,1.499345 -1.70898,1.873047 -0.188,0.138601 -0.4683,0.345438 -0.62305,0.460937 -0.15475,0.115493 -0.40339,0.294222 -0.55273,0.398438 -2.14001,1.49335 -3.30669,2.405358 -4.26563,3.335937 -0.58123,0.564052 -2.01659,2.192566 -2.50781,2.845703 -0.54361,0.7228 -1.21988,1.825895 -1.16992,1.908203 0.0298,0.04909 0.15491,0.06963 0.27539,0.04687 0.12046,-0.02275 0.68082,-0.102061 1.24805,-0.177734 0.56721,-0.07568 1.59082,-0.228231 2.27148,-0.337891 0.68066,-0.109663 1.52658,-0.245309 1.88086,-0.300781 l 0.64453,-0.09961 0.20899,-0.419922 c 0.30568,-0.614168 1.31042,-1.583382 2.62695,-2.53125 2.51839,-1.813181 3.90532,-2.966158 5.02148,-4.171875 0.86185,-0.930991 1.2787,-1.529599 1.67578,-2.412109 0.45072,-1.001714 0.42443,-0.916969 0.56446,-1.822266 0.44641,-2.886139 -0.70215,-5.21086 -2.95703,-5.984375 -0.6506,-0.223181 -1.2711,-0.327279 -2.1211,-0.339844 z m -15.79492,2 c -0.71766,0.01235 -1.5953,0.08478 -2.51953,0.214844 -0.834009,0.117366 -2.099644,0.293021 -2.8125,0.390625 -1.653045,0.226332 -2.386609,0.333631 -2.980469,0.429687 -0.590654,0.09554 -1.149328,0.171526 -1.599609,0.220703 -0.190088,0.02076 -0.65692,0.09264 -1.03711,0.160157 -0.380191,0.06752 -0.874978,0.145249 -1.099609,0.173828 -0.224631,0.02857 -0.427863,0.08635 -0.453125,0.126953 -0.02522,0.0406 -0.0083,0.352428 0.04102,0.693359 0.09534,0.6677 -0.03769,2.871299 -0.263672,4.375 -0.04612,0.30698 -0.140425,1.17795 -0.210938,1.933594 -0.41744,4.473808 -0.697891,6.64796 -0.953125,7.382813 -0.332788,0.958171 -0.357114,0.926242 0.628907,0.876953 0.46335,-0.02315 1.018563,-0.08386 1.232421,-0.136719 0.213858,-0.05284 0.484697,-0.110904 0.603516,-0.126953 0.118804,-0.01606 0.637335,-0.09302 1.150391,-0.171875 0.513056,-0.07885 1.035543,-0.161135 1.164062,-0.179688 1.910577,-0.275814 2.762299,-0.40009 2.908203,-0.433593 0.09733,-0.02235 0.488951,-0.07824 0.869141,-0.121094 3.847086,-0.433628 5.009706,-0.776001 6.025386,-1.777344 0.98331,-0.969432 1.29216,-1.874104 1.58399,-4.667969 0.11594,-1.109851 0.31195,-2.966115 0.4375,-4.123046 0.27795,-2.561304 0.25616,-3.439301 -0.10156,-4.166016 -0.25052,-0.508837 -0.47132,-0.702791 -1.05664,-0.929688 -0.28184,-0.10924 -0.83898,-0.15692 -1.55665,-0.144531 z m -3.208983,2.957031 v 0.002 c 0.08122,0.01192 0.152198,0.03918 0.210937,0.08203 0.270209,0.197125 0.246772,0.559979 -0.34375,5.933593 -0.333848,3.037946 -0.433215,3.635507 -0.65039,3.865235 -0.115982,0.122687 -0.363328,0.226815 -0.673828,0.285156 -0.829917,0.155943 -2.376058,0.359895 -2.726563,0.359375 h -0.333984 l 0.05273,-0.410156 c 0.0282,-0.22433 0.111424,-1.006251 0.183594,-1.738281 0.07222,-0.732031 0.1511,-1.426854 0.173828,-1.544922 0.02279,-0.118065 0.117106,-1.064506 0.212891,-2.103516 0.09578,-1.039011 0.21479,-2.098851 0.261718,-2.355469 0.04689,-0.256621 0.08527,-0.70178 0.08594,-0.988281 0.0011,-0.649037 0.06437,-0.888004 0.246094,-0.943359 0.13425,-0.04089 1.7972,-0.280811 2.412109,-0.347656 0.157043,-0.01706 0.431799,-0.05649 0.607422,-0.08594 0.108536,-0.0182 0.200041,-0.02162 0.28125,-0.0098 z m 25.066403,11.591797 c -0.021,-0.0065 -0.05,-5.99e-4 -0.0879,0.01172 -0.0876,0.02833 -0.45647,0.09278 -0.81836,0.140625 -0.36187,0.04785 -0.9306,0.123586 -1.26562,0.167969 -0.33503,0.04437 -0.92929,0.134363 -1.32031,0.201172 -0.39102,0.0668 -1.639,0.25889 -2.77344,0.425781 -1.13445,0.166895 -2.56319,0.378897 -3.17578,0.472656 -1.68028,0.257165 -3.48008,0.520161 -6.3125,0.919922 -0.99831,0.140905 -1.90024,0.271839 -2.00196,0.292969 -0.37604,0.07811 -1.0448,1.899311 -1.14062,3.101562 l -0.0566,0.714843 0.36328,-0.002 c 0.19909,-0.0011 0.5099,-0.03878 0.69141,-0.08398 0.46454,-0.115662 3.15967,-0.564902 4,-0.666015 0.3857,-0.04641 1.46233,-0.198972 2.39257,-0.341797 0.93025,-0.142825 2.10045,-0.311345 2.59961,-0.375 1.04362,-0.133083 3.46569,-0.490293 4.86914,-0.716797 0.27228,-0.04394 1.08646,-0.157864 1.8125,-0.253906 0.72605,-0.09605 1.41135,-0.2039 1.52149,-0.238281 0.18318,-0.05717 0.22093,-0.161261 0.43359,-1.232422 0.12787,-0.644065 0.25514,-1.488445 0.28516,-1.875 0.039,-0.501574 0.0473,-0.644512 -0.0156,-0.664063 z"
       id="path2" />
    <path
       style="fill:#ffffff;stroke-width:0.999987"
       d="m 121.33747,5.289068 c -0.16381,0 -0.52626,0.037929 -0.80468,0.083979 -0.27842,0.046039 -1.17986,0.1775298 -2.00388,0.2929653 -3.74593,0.5247583 -8.92369,1.2657368 -9.10145,1.3007644 -0.15709,0.03096 -0.18721,0.073799 -0.14452,0.2246071 0.14917,0.5270153 0.22383,1.2717658 0.17577,1.7675555 -0.56002,5.7778427 -1.13087,11.1520557 -1.24998,11.7576617 -0.0671,0.341478 -0.20205,0.810386 -0.29883,1.041003 -0.0967,0.230617 -0.15483,0.453065 -0.1289,0.496088 0.0285,0.04739 0.22011,0.04577 0.48633,-0.002 0.24172,-0.04333 0.66476,-0.108677 0.93944,-0.146484 0.27466,-0.03781 1.58645,-0.229351 2.91402,-0.425775 1.32758,-0.196425 3.08609,-0.452143 3.91011,-0.568352 0.82401,-0.116207 1.98187,-0.286627 2.57223,-0.378902 0.59034,-0.09229 1.17178,-0.169203 1.291,-0.169919 0.11922,-6.83e-4 0.26553,-0.03285 0.32617,-0.07227 0.0606,-0.03943 0.2558,-0.642681 0.43358,-1.34178 0.17779,-0.699095 0.35078,-1.363524 0.38282,-1.476544 0.0665,-0.234395 0.1173,-0.241215 -0.88085,0.117187 -0.5197,0.1866 -1.92867,0.457419 -3.16598,0.609367 -0.16023,0.01968 -0.48008,0.07131 -0.70897,0.115232 -0.94733,0.181759 -2.2977,0.361677 -2.34568,0.312496 -0.0283,-0.02902 0.0322,-0.908443 0.13476,-1.9531 0.1351,-1.375671 0.21756,-1.924277 0.30469,-1.994114 0.0662,-0.05303 0.48651,-0.143161 0.93163,-0.199217 0.4451,-0.05606 1.27735,-0.182095 1.84959,-0.281246 0.71703,-0.124239 1.4091,-0.182591 2.22653,-0.183592 0.65234,-7.68e-4 1.18763,-0.0016 1.18943,-0.0039 0.0334,-0.04027 0.31241,-3.163424 0.28516,-3.191365 -0.0213,-0.02189 -0.38502,0.0785 -0.80858,0.224606 -0.85195,0.293849 -1.29728,0.392798 -2.52341,0.566399 -0.4554,0.06448 -1.28769,0.185948 -1.84959,0.267574 -0.56189,0.08162 -1.04019,0.126421 -1.06443,0.101562 -0.0374,-0.0384 0.0651,-1.23873 0.28709,-3.3651909 0.006,-0.056549 0.13246,-0.1235684 0.28125,-0.1464831 4.37483,-0.6739524 4.98439,-0.7380266 6.09563,-0.6464758 l 0.5,0.041019 -0.006,-0.6406178 c -0.003,-0.3520175 -0.0353,-0.9760106 -0.0703,-1.3867003 l -0.0625,-0.7460395 z m -16.37284,2.0097404 c -0.69728,-0.038 -1.79113,0.045259 -3.20504,0.2460898 -2.823349,0.4010439 -7.81577,1.1053849 -9.11902,1.2851406 -1.223086,0.1687019 -1.471021,0.2597047 -1.341779,0.5038996 0.04113,0.077729 0.124058,0.3856741 0.181638,0.6816316 0.109284,0.561607 0.06651,1.260298 -0.226559,3.79878 -0.163208,1.413672 -0.42552,3.859313 -0.630852,5.88469 -0.249018,2.456308 -0.405906,3.447666 -0.63671,4.001902 -0.114883,0.275868 -0.210936,0.528291 -0.210936,0.56054 0,0.07817 1.832989,-0.0319 2.21091,-0.13281 0.163621,-0.04369 0.469307,-0.09711 0.679679,-0.121093 0.477407,-0.0544 2.72036,-0.368072 3.214803,-0.449213 0.343379,-0.05635 0.364045,-0.07563 0.312496,-0.283199 -0.25707,-1.035185 -0.26931,-0.775169 0.294918,-6.11125 0.137385,-1.299343 0.331035,-3.17374 0.429681,-4.165963 0.220275,-2.215713 0.211587,-2.179089 0.445308,-2.232394 0.235221,-0.05365 3.278923,-0.474603 3.431593,-0.474603 0.061,0 0.16706,0.08649 0.23633,0.193357 0.11097,0.171161 0.1119,0.327541 0.004,1.31053 -0.22075,2.000004 -0.19559,1.970153 -1.789042,2.201144 -0.593603,0.08605 -1.094962,0.172884 -1.11522,0.193357 -0.05994,0.06061 -0.354084,2.409244 -0.310543,2.480437 0.02198,0.03589 0.110365,0.06445 0.197263,0.06445 0.15767,0 0.268541,0.276412 0.720694,1.804665 0.230183,0.777996 1.075502,3.446736 1.238265,3.908153 l 0.154293,0.429683 0.49414,-0.0293 c 0.64586,-0.03862 5.63866,-0.755259 5.70109,-0.81835 0.0263,-0.02657 -0.0899,-0.334049 -0.25975,-0.681631 -0.16993,-0.34758 -0.31055,-0.670971 -0.31055,-0.720694 0,-0.04973 -0.11243,-0.376234 -0.25,-0.7246 -0.20014,-0.506627 -0.66776,-1.717707 -1.50594,-3.902294 -0.019,-0.04968 0.20637,-0.160334 0.5,-0.248043 0.99956,-0.298588 1.51146,-0.832753 1.80856,-1.886695 0.13167,-0.466998 0.46681,-3.67376 0.46681,-4.4589215 0,-1.0148291 -0.49465,-1.8178298 -1.24804,-2.0292711 -0.14146,-0.0397 -0.33006,-0.065449 -0.56249,-0.078129 z m 12.70101,14.9919956 c -0.28333,-0.0042 -0.59169,0.0043 -0.93553,0.01953 -1.33029,0.05866 -2.33589,0.254003 -3.63667,0.712882 -0.75141,0.265072 -1.93218,0.864528 -2.36521,1.201156 -1.99108,1.547784 -3.0805,3.088971 -3.81635,5.398369 -0.21321,0.669133 -0.4611,1.924402 -0.39453,1.992162 0.0335,0.03406 0.28,0.02298 0.55077,-0.02344 0.27077,-0.04644 0.80764,-0.115593 1.19335,-0.156248 1.24494,-0.131218 3.0919,-0.450484 3.15425,-0.544915 0.0334,-0.05049 0.0619,-0.280717 0.0625,-0.511711 0.001,-0.46693 0.22092,-1.124256 0.55077,-1.656229 0.40703,-0.656443 1.34488,-1.510752 2.05076,-1.865211 0.59216,-0.297364 0.72919,-0.331693 1.45311,-0.367182 0.71078,-0.03485 0.84444,-0.0177 1.18943,0.152342 0.32574,0.160534 0.42418,0.267505 0.60351,0.6621 0.34843,0.766603 0.28016,1.831406 -0.17187,2.71481 -0.21082,0.411994 -1.20207,1.499325 -1.70896,1.873023 -0.188,0.138599 -0.4683,0.345433 -0.62305,0.460931 -0.15474,0.115491 -0.40338,0.294218 -0.55272,0.398433 -2.13998,1.493331 -3.30665,2.405327 -4.26557,3.335894 -0.58123,0.564045 -2.01657,2.192538 -2.50778,2.845667 -0.5436,0.722791 -1.21987,1.825872 -1.16991,1.908178 0.0298,0.04909 0.15491,0.06963 0.27539,0.04687 0.12046,-0.02275 0.68081,-0.10206 1.24803,-0.177732 0.56721,-0.07568 1.5908,-0.228228 2.27145,-0.337887 0.68066,-0.109661 1.52657,-0.245305 1.88084,-0.300777 l 0.64452,-0.09961 0.20899,-0.419917 c 0.30568,-0.61416 1.3104,-1.583362 2.62692,-2.531218 2.51835,-1.813158 3.90527,-2.96612 5.02141,-4.171822 0.86184,-0.930979 1.27869,-1.529579 1.67576,-2.412078 0.45072,-1.001701 0.42443,-0.916957 0.56445,-1.822243 0.44641,-2.886102 -0.70214,-5.210793 -2.95699,-5.984298 -0.65059,-0.223178 -1.27108,-0.327275 -2.12107,-0.33984 z m -15.79472,1.999975 c -0.71765,0.01235 -1.59528,0.08478 -2.519498,0.214841 -0.833998,0.117364 -2.099617,0.293017 -2.812464,0.39062 -1.653024,0.226329 -2.386578,0.333627 -2.980431,0.429681 -0.590646,0.09554 -1.149313,0.171524 -1.599588,0.220701 -0.190086,0.02076 -0.656912,0.09264 -1.037097,0.160155 -0.380186,0.06752 -0.874967,0.145247 -1.099595,0.173825 -0.224628,0.02857 -0.427858,0.08635 -0.453119,0.126952 -0.02522,0.0406 -0.0083,0.352423 0.04102,0.69335 0.09534,0.667691 -0.03769,2.871262 -0.263668,4.374944 -0.04612,0.306976 -0.140424,1.177935 -0.210936,1.933569 -0.417434,4.473751 -0.697882,6.647876 -0.953113,7.382719 -0.332783,0.958159 -0.357109,0.92623 0.628899,0.876942 0.463344,-0.02315 1.01855,-0.08386 1.232406,-0.136717 0.213855,-0.05284 0.48469,-0.110903 0.603508,-0.126952 0.118802,-0.01606 0.637327,-0.09302 1.150376,-0.171872 0.51305,-0.07885 1.03553,-0.161133 1.164047,-0.179686 1.910553,-0.275811 2.762264,-0.400085 2.908166,-0.433588 0.09733,-0.02235 0.488945,-0.07824 0.86913,-0.121092 3.847037,-0.433623 5.009637,-0.775991 6.025307,-1.777321 0.9833,-0.96942 1.29214,-1.87408 1.58397,-4.66791 0.11594,-1.109837 0.31195,-2.966077 0.4375,-4.122993 0.27794,-2.561272 0.25615,-3.439257 -0.10156,-4.165963 -0.25052,-0.508831 -0.47132,-0.702782 -1.05663,-0.929676 -0.28184,-0.109239 -0.83897,-0.156918 -1.55663,-0.144529 z m -3.208942,2.956993 v 0.002 c 0.08122,0.01192 0.152196,0.03918 0.210934,0.08203 0.270206,0.197122 0.246769,0.559972 -0.343745,5.933517 -0.333844,3.037907 -0.43321,3.635461 -0.650382,3.865186 -0.11598,0.122685 -0.363323,0.226812 -0.673819,0.285152 -0.829907,0.155941 -2.376028,0.359891 -2.726529,0.359371 h -0.333979 l 0.05273,-0.410151 c 0.0282,-0.224327 0.111423,-1.006238 0.183592,-1.738259 0.07222,-0.732022 0.151098,-1.426836 0.173826,-1.544902 0.02279,-0.118064 0.117104,-1.064493 0.212888,-2.103489 0.09578,-1.038998 0.214787,-2.098825 0.261714,-2.355439 0.04689,-0.256618 0.08527,-0.701771 0.08594,-0.988269 0.0011,-0.649029 0.06437,-0.887992 0.246091,-0.943347 0.134249,-0.04089 1.797177,-0.280807 2.412078,-0.347651 0.157041,-0.01706 0.431794,-0.05649 0.607415,-0.08594 0.108534,-0.0182 0.200038,-0.02162 0.281246,-0.0098 z m 25.066082,11.591649 c -0.021,-0.0065 -0.05,-5.99e-4 -0.0879,0.01172 -0.0876,0.02833 -0.45646,0.09278 -0.81835,0.140623 -0.36186,0.04785 -0.93059,0.123584 -1.2656,0.167967 -0.33503,0.04437 -0.92928,0.134361 -1.32029,0.201169 -0.39102,0.0668 -1.63898,0.258887 -2.77341,0.425776 -1.13443,0.166893 -2.56316,0.378892 -3.17574,0.47265 -1.68026,0.257162 -3.48003,0.520154 -6.31242,0.91991 -0.99829,0.140903 -1.90021,0.271836 -2.00193,0.292965 -0.37604,0.07811 -1.04479,1.899287 -1.14061,3.101523 l -0.0566,0.714834 0.36328,-0.002 c 0.19909,-0.0011 0.50989,-0.03878 0.6914,-0.08398 0.46453,-0.115661 3.15963,-0.564895 3.99995,-0.666007 0.38569,-0.04641 1.46231,-0.198969 2.39254,-0.341792 0.93024,-0.142823 2.10042,-0.311341 2.59957,-0.374996 1.04361,-0.133081 3.46565,-0.490286 4.86908,-0.716787 0.27228,-0.04394 1.08645,-0.157862 1.81248,-0.253903 0.72604,-0.09605 1.41133,-0.203898 1.52147,-0.238278 0.18318,-0.05717 0.22093,-0.161259 0.43358,-1.232406 0.12787,-0.644057 0.25514,-1.488426 0.28516,-1.874976 0.039,-0.501568 0.0473,-0.644504 -0.0156,-0.664055 z"
       id="path3" />
  </g>
</svg>
