<?xml version="1.0" encoding="UTF-8" standalone="no"?>
<svg
   width="62"
   height="62"
   version="1.1"
   id="svg5"
   sodipodi:docname="revolt-desktop.svg"
   inkscape:version="1.4 (unknown)"
   xmlns:inkscape="http://www.inkscape.org/namespaces/inkscape"
   xmlns:sodipodi="http://sodipodi.sourceforge.net/DTD/sodipodi-0.dtd"
   xmlns="http://www.w3.org/2000/svg"
   xmlns:svg="http://www.w3.org/2000/svg">
  <defs
     id="defs5" />
  <sodipodi:namedview
     id="namedview5"
     pagecolor="#ffffff"
     bordercolor="#000000"
     borderopacity="0.25"
     inkscape:showpageshadow="2"
     inkscape:pageopacity="0.0"
     inkscape:pagecheckerboard="0"
     inkscape:deskcolor="#d1d1d1"
     inkscape:zoom="5.84375"
     inkscape:cx="22.588235"
     inkscape:cy="46.459893"
     inkscape:window-width="1920"
     inkscape:window-height="998"
     inkscape:window-x="0"
     inkscape:window-y="0"
     inkscape:window-maximized="1"
     inkscape:current-layer="svg5" />
  <rect
     style="opacity:0.2;stroke-width:0.9823"
     width="55"
     height="55.017544"
     x="4"
     y="4.9824562"
     rx="8.25"
     ry="8.2526312"
     id="rect1" />
  <rect
     style="fill:#212e3f;stroke-width:0.9823"
     width="55"
     height="55.017544"
     x="4"
     y="4"
     rx="8.25"
     ry="8.2526312"
     id="rect2" />
  <path
     style="opacity:0.1;fill:#ffffff;stroke-width:0.9823"
     d="M 12.248466,4 C 7.6779652,4 4,7.6791384 4,12.251097 v 0.982456 C 4,8.6615945 7.6779652,4.9824561 12.248466,4.9824561 H 50.751534 C 55.322034,4.9824561 59,8.6615945 59,13.233553 V 12.251097 C 59,7.6791384 55.322034,4 50.751534,4 Z"
     id="path4" />
  <g
     id="g1"
     transform="matrix(0.77083333,0,0,0.77192982,13.270833,-35.943859)">
    <path
       style="fill:#7137c8"
       d="m 25.86386,85.932098 c 1.523518,8.167446 1.051438,15.538382 -0.490506,22.482282 C 13.064238,109.99653 6.2176,108.055 -1,106.35277 l 8.402485,-3.64269 C -3.9813174,90.40223 2.749838,77.260436 6.925515,71.021533 l 0.235194,7.480611 C 12.642788,65.157319 19.301142,61.461168 31.470588,59.000002 19.243378,68.969493 18.46183,81.371758 19.63438,94.189366 Z"
       id="path1" />
    <path
       style="opacity:0.2"
       d="M 20.136142,89.067904 C 18.612622,80.900458 19.084702,73.529526 20.626646,66.585618 32.935762,65.003468 39.7824,66.944999 47,68.647233 l -8.202486,3.642684 c 11.383802,12.307853 4.652648,25.449651 0.47697,31.688553 L 39.03929,96.497856 C 33.55721,109.84268 26.69886,113.53883 14.529412,116 26.756622,106.03051 27.53817,93.628244 26.36562,80.810634 Z"
       id="path2" />
    <path
       style="fill:#aa87de"
       d="M 20.136142,88.067904 C 18.612622,79.900458 19.084702,72.529526 20.626646,65.585618 32.935762,64.003468 39.7824,65.944999 47,67.647233 l -8.202486,3.642684 c 11.383802,12.307853 4.652648,25.449651 0.47697,31.688553 L 39.03929,95.497856 C 33.55721,108.84268 26.69886,112.53883 14.529412,115 26.756622,105.03051 27.53817,92.628244 26.36562,79.810634 Z"
       id="path3" />
    <path
       style="fill:#7137c8"
       d="m 25.86386,85.932098 c 1.523518,8.167446 1.051438,15.538382 -0.490506,22.482282 -2.803954,0.36041 -5.324456,0.53797 -7.630462,0.57716 L 19.63438,94.189366 Z"
       id="path4-3" />
    <path
       style="opacity:0.2"
       d="m 31.470703,60 c -0.528879,0.106961 -1.034551,0.219714 -1.542969,0.332031 -1.704487,1.544128 -3.146653,3.144055 -4.376953,4.789063 0.275925,-0.01666 0.548306,-0.0301 0.81836,-0.04297 C 27.796716,63.327582 29.472503,61.629238 31.470703,60 Z M 19.398438,82.525391 c -0.119714,1.58794 -0.167534,3.190802 -0.146485,4.808593 0.0043,-1.461342 0.06863,-2.909952 0.193359,-4.345703 -0.01409,-0.15362 -0.03416,-0.309818 -0.04687,-0.46289 z M 1.123047,88.185547 c -0.108207,4.703905 1.319331,9.807536 5.642578,14.800783 l 0.636719,-0.27539 C 2.896668,97.839523 1.234757,92.83853 1.123047,88.185547 Z m 25.65625,7.503906 c 0.01728,4.435877 -0.502834,8.656217 -1.40625,12.724607 -11.45868,1.47284 -18.173954,-0.11225 -24.8710939,-1.71093 L -1,107.35352 c 7.2176,1.70223 14.063931,3.64269 26.373047,2.06054 0.9714,-4.37455 1.515524,-8.91872 1.40625,-13.724607 z"
       id="path5" />
    <path
       style="opacity:0.1;fill:#ffffff"
       d="M 31.470703,59 C 19.301257,61.461166 12.642235,65.157128 7.160156,78.501953 L 6.925781,71.021484 C 4.402825,74.791048 0.9525162,81.08255 1.123047,88.185547 1.276965,81.494468 4.521871,75.613181 6.925781,72.021484 l 0.234375,7.480469 C 12.403986,66.737089 18.737538,62.804116 29.927734,60.332031 30.422797,59.883545 30.932022,59.439215 31.470703,59 Z m -5.607422,26.931641 -6.228515,8.257812 c -0.21067,-2.302914 -0.353351,-4.59107 -0.382813,-6.855469 -0.0076,2.589835 0.141047,5.212635 0.382813,7.855469 l 6.228515,-8.257812 c 0.563727,3.022087 0.851835,5.935111 0.916016,8.757812 -0.01221,-3.135246 -0.285118,-6.375626 -0.916016,-9.757812 z M 6.765625,102.98633 -1,106.35352 c 0.4986637,0.1176 1.0049071,0.23095 1.5019531,0.34961 l 6.9003909,-2.99219 c -0.222977,-0.24108 -0.427487,-0.48295 -0.636719,-0.72461 z"
       id="path6" />
    <path
       style="opacity:0.2;fill:#ffffff"
       d="m 28.925781,65 c -2.485616,0.01387 -5.221549,0.190399 -8.298828,0.585938 -0.9714,4.374549 -1.515524,8.918722 -1.40625,13.724609 -0.01728,-4.435879 0.502834,-8.656215 1.40625,-12.724609 11.472001,-1.474553 18.189664,0.116213 24.894531,1.716796 L 47,67.646484 C 41.5868,66.369809 36.382632,64.958378 28.925781,65 Z m 10.503907,7.007812 -0.632813,0.28125 c 4.508814,4.874806 6.169677,9.879419 6.279297,14.535157 0.110439,-4.708252 -1.316698,-9.818036 -5.646484,-14.816407 z M 26.748047,87.666016 c -0.0038,1.28349 -0.04927,2.558217 -0.144531,3.822265 0.0108,0.130423 0.02925,0.264503 0.03906,0.394531 0.08769,-1.394599 0.123907,-2.799664 0.105469,-4.216796 z m -5.556641,21.167964 c -0.248348,0.0178 -0.486837,0.0302 -0.730468,0.0449 -1.586734,2.12349 -3.537714,4.1692 -5.931641,6.1211 0.527796,-0.10674 1.032879,-0.21996 1.541015,-0.33203 2.062857,-1.86864 3.742455,-3.81986 5.121094,-5.83399 z"
       id="path7" />
  </g>
</svg>
