<?xml version="1.0" encoding="UTF-8" standalone="no"?>
<!-- Created with Inkscape (http://www.inkscape.org/) -->

<svg
   width="62"
   height="62"
   viewBox="0 0 62 62"
   version="1.1"
   id="svg1"
   inkscape:version="1.4 (unknown)"
   sodipodi:docname="referencer.svg"
   xmlns:inkscape="http://www.inkscape.org/namespaces/inkscape"
   xmlns:sodipodi="http://sodipodi.sourceforge.net/DTD/sodipodi-0.dtd"
   xmlns:xlink="http://www.w3.org/1999/xlink"
   xmlns="http://www.w3.org/2000/svg"
   xmlns:svg="http://www.w3.org/2000/svg">
  <sodipodi:namedview
     id="namedview1"
     pagecolor="#ffffff"
     bordercolor="#000000"
     borderopacity="0.25"
     inkscape:showpageshadow="2"
     inkscape:pageopacity="0.0"
     inkscape:pagecheckerboard="0"
     inkscape:deskcolor="#d1d1d1"
     inkscape:document-units="px"
     inkscape:zoom="7.5994534"
     inkscape:cx="23.62012"
     inkscape:cy="46.77968"
     inkscape:window-width="1920"
     inkscape:window-height="998"
     inkscape:window-x="0"
     inkscape:window-y="0"
     inkscape:window-maximized="1"
     inkscape:current-layer="layer1" />
  <defs
     id="defs1">
    <linearGradient
       id="linearGradient3"
       inkscape:collect="always">
      <stop
         style="stop-color:#00a1b9;stop-opacity:1;"
         offset="0"
         id="stop4" />
      <stop
         style="stop-color:#008295;stop-opacity:1;"
         offset="1"
         id="stop5" />
    </linearGradient>
    <linearGradient
       id="linearGradient1"
       inkscape:collect="always">
      <stop
         style="stop-color:#008295;stop-opacity:1;"
         offset="0"
         id="stop1" />
      <stop
         style="stop-color:#005a66;stop-opacity:1;"
         offset="0.81818175"
         id="stop3" />
      <stop
         style="stop-color:#008295;stop-opacity:1;"
         offset="1"
         id="stop2" />
    </linearGradient>
    <radialGradient
       id="paint664_radial_890_11"
       cx="0"
       cy="0"
       r="1"
       gradientUnits="userSpaceOnUse"
       gradientTransform="matrix(-16.000099,-9.999913,9.999913,-16.000099,583,171)">
      <stop
         offset="0.42141"
         stop-color="#B7C6CD"
         id="stop2071" />
      <stop
         offset="1"
         stop-color="#EFF2F6"
         id="stop2072" />
    </radialGradient>
    <linearGradient
       id="paint665_linear_890_11"
       x1="605"
       y1="180"
       x2="601.466"
       y2="162.72301"
       gradientUnits="userSpaceOnUse">
      <stop
         stop-color="#5200FF"
         id="stop2073" />
      <stop
         offset="1"
         stop-color="#0085FF"
         id="stop2074" />
    </linearGradient>
    <linearGradient
       id="paint666_linear_890_11"
       x1="567"
       y1="181"
       x2="562.11798"
       y2="174.183"
       gradientUnits="userSpaceOnUse">
      <stop
         stop-color="#5200FF"
         id="stop2075" />
      <stop
         offset="0.670391"
         stop-color="#0085FF"
         id="stop2076" />
    </linearGradient>
    <linearGradient
       id="paint667_linear_890_11"
       x1="605"
       y1="180"
       x2="597.32001"
       y2="174.24001"
       gradientUnits="userSpaceOnUse">
      <stop
         stop-color="#5200FF"
         id="stop2077" />
      <stop
         offset="1"
         stop-color="#0085FF"
         id="stop2078" />
    </linearGradient>
    <linearGradient
       id="paint668_linear_890_11"
       x1="567"
       y1="180"
       x2="561.23999"
       y2="172.32001"
       gradientUnits="userSpaceOnUse">
      <stop
         stop-color="#5200FF"
         id="stop2079" />
      <stop
         offset="1"
         stop-color="#0085FF"
         id="stop2080" />
    </linearGradient>
    <linearGradient
       id="paint669_linear_890_11"
       x1="607"
       y1="179"
       x2="602.50598"
       y2="171.80901"
       gradientUnits="userSpaceOnUse">
      <stop
         stop-color="#5200FF"
         id="stop2081" />
      <stop
         offset="1"
         stop-color="#0085FF"
         id="stop2082" />
    </linearGradient>
    <linearGradient
       id="paint670_linear_890_11"
       x1="607"
       y1="217"
       x2="568.82599"
       y2="170.01601"
       gradientUnits="userSpaceOnUse">
      <stop
         stop-color="#5200FF"
         id="stop2083" />
      <stop
         offset="1"
         stop-color="#0085FF"
         id="stop2084" />
    </linearGradient>
    <radialGradient
       id="paint671_radial_890_11"
       cx="0"
       cy="0"
       r="1"
       gradientUnits="userSpaceOnUse"
       gradientTransform="matrix(0,20,-16,0,583,187)">
      <stop
         offset="0.869716"
         stop-color="#EFF2F6"
         id="stop2085" />
      <stop
         offset="1"
         stop-color="#B7C6CD"
         id="stop2086" />
    </radialGradient>
    <linearGradient
       id="paint451_linear_890_11"
       x1="55"
       y1="461"
       x2="111"
       y2="517"
       gradientUnits="userSpaceOnUse"
       gradientTransform="translate(-53,-457)">
      <stop
         offset="0.303571"
         stop-color="#EFF2F6"
         id="stop1644" />
      <stop
         offset="1"
         stop-color="#B7C6CD"
         id="stop1645" />
    </linearGradient>
    <linearGradient
       id="paint452_linear_890_11"
       x1="107"
       y1="513"
       x2="67.655701"
       y2="465.78699"
       gradientUnits="userSpaceOnUse"
       gradientTransform="matrix(1,0,0,1.2,-53,-559.6)">
      <stop
         stop-color="#2E2E41"
         id="stop1646" />
      <stop
         offset="1"
         stop-color="#566C80"
         id="stop1647" />
    </linearGradient>
    <linearGradient
       id="paint453_linear_890_11"
       x1="61"
       y1="465"
       x2="65"
       y2="469"
       gradientUnits="userSpaceOnUse"
       gradientTransform="translate(-53,-457)">
      <stop
         offset="0.236371"
         stop-color="#F15700"
         id="stop1648" />
      <stop
         offset="0.855848"
         stop-color="#FF0000"
         id="stop1649" />
    </linearGradient>
    <linearGradient
       id="paint454_linear_890_11"
       x1="71"
       y1="469"
       x2="67"
       y2="465"
       gradientUnits="userSpaceOnUse"
       gradientTransform="translate(-53,-457)">
      <stop
         stop-color="#FF7E07"
         id="stop1650" />
      <stop
         offset="1"
         stop-color="#FFE607"
         id="stop1651" />
    </linearGradient>
    <linearGradient
       id="paint455_linear_890_11"
       x1="77"
       y1="469"
       x2="73"
       y2="465"
       gradientUnits="userSpaceOnUse"
       gradientTransform="translate(-53,-457)">
      <stop
         stop-color="#089953"
         id="stop1652" />
      <stop
         offset="1"
         stop-color="#16D96F"
         id="stop1653" />
    </linearGradient>
    <linearGradient
       id="paint456_linear_890_11"
       x1="80"
       y1="486"
       x2="80"
       y2="492"
       gradientUnits="userSpaceOnUse"
       gradientTransform="translate(-53,-457)">
      <stop
         offset="0.189495"
         stop-color="#EFF2F6"
         id="stop1654" />
      <stop
         offset="0.850463"
         stop-color="#B7C6CD"
         id="stop1655" />
    </linearGradient>
    <linearGradient
       id="paint457_linear_890_11"
       x1="82"
       y1="494"
       x2="82"
       y2="500"
       gradientUnits="userSpaceOnUse">
      <stop
         offset="0.189495"
         stop-color="#EFF2F6"
         id="stop1656" />
      <stop
         offset="0.850463"
         stop-color="#B7C6CD"
         id="stop1657" />
    </linearGradient>
    <linearGradient
       id="paint400_linear_890_11"
       x1="568.5"
       y1="490.5"
       x2="559"
       y2="490.5"
       gradientUnits="userSpaceOnUse"
       gradientTransform="translate(-551.88344,-457.27914)">
      <stop
         offset="0.152115"
         stop-color="#2E2E41"
         id="stop1542" />
      <stop
         offset="1"
         stop-color="#566C80"
         id="stop1543" />
    </linearGradient>
    <linearGradient
       id="paint401_linear_890_11"
       x1="568"
       y1="461"
       x2="620.52502"
       y2="497.57999"
       gradientUnits="userSpaceOnUse"
       gradientTransform="translate(-551.88344,-457.27914)">
      <stop
         offset="0.179449"
         stop-color="#F15700"
         id="stop1544"
         style="stop-color:#2a7fff;stop-opacity:1" />
      <stop
         offset="0.879484"
         stop-color="#FF0000"
         id="stop1545"
         style="stop-color:#2a7fff;stop-opacity:1" />
    </linearGradient>
    <linearGradient
       id="paint402_linear_890_11"
       x1="585.5"
       y1="481"
       x2="585.5"
       y2="485"
       gradientUnits="userSpaceOnUse"
       gradientTransform="translate(-553,-457)">
      <stop
         stop-color="white"
         id="stop1546" />
      <stop
         offset="0.705"
         stop-color="#E6E6E6"
         id="stop1547" />
    </linearGradient>
    <linearGradient
       id="paint403_linear_890_11"
       x1="582"
       y1="489"
       x2="582"
       y2="493"
       gradientUnits="userSpaceOnUse"
       gradientTransform="translate(-553,-457)">
      <stop
         stop-color="white"
         id="stop1548" />
      <stop
         offset="0.705"
         stop-color="#E6E6E6"
         id="stop1549" />
    </linearGradient>
    <linearGradient
       inkscape:collect="always"
       xlink:href="#linearGradient1"
       id="linearGradient2"
       x1="7.1165647"
       y1="31.720859"
       x2="18.116565"
       y2="31.720859"
       gradientUnits="userSpaceOnUse" />
    <linearGradient
       inkscape:collect="always"
       xlink:href="#linearGradient3"
       id="linearGradient5"
       x1="34.933708"
       y1="3.7208588"
       x2="55.116566"
       y2="59.72086"
       gradientUnits="userSpaceOnUse" />
  </defs>
  <g
     inkscape:label="Layer 1"
     inkscape:groupmode="layer"
     id="layer1">
    <g
       id="g1"
       transform="translate(-0.11656485,-0.7208589)">
      <path
         d="m 7.1165647,9.7208588 c 0,-3.314 2.686,-6 6.0000003,-6 h 5 V 59.720859 h -5 c -3.3140003,0 -6.0000003,-2.686 -6.0000003,-6 z"
         id="path390"
         style="fill:url(#linearGradient2)" />
      <path
         d="m 16.116565,3.7208588 h 33 c 3.314,0 6,2.686 6,6 V 53.720859 c 0,3.314 -2.686,6 -6,6 h -33 z"
         id="path391"
         style="fill:url(#linearGradient5)" />
    </g>
    <g
       id="g2"
       transform="translate(2.6833561,-0.50006)">
      <path
         style="opacity:0.2;fill-rule:evenodd"
         d="m 32.854944,18.00109 c -5.9052,0 -10.953,3.6736 -12.99,8.8416 -0.10842,0.26286 -0.20364,0.5321 -0.29604,0.80272 -0.0182,0.05602 -0.03904,0.11044 -0.05648,0.16676 -0.444,1.352 -0.696,2.788 -0.696,4.288 0,7.667 6.261,13.9 13.962,13.9 5.8496,0 10.862,-3.6008 12.938,-8.6904 5.4e-4,-0.0013 0.0014,-0.0026 0.002,-0.004 0.14914,-0.3505 0.275,-0.71168 0.39536,-1.0761 0.45048,-1.364 0.70308,-2.8172 0.70308,-4.3296 0,-7.6652 -6.2626,-13.9 -13.962,-13.9 z m -1.0049,2.1696 v 4.6786 c -1.3331,-0.04682 -2.608,-0.18746 -3.786,-0.40912 0.17696,-0.41284 0.36246,-0.81048 0.5648,-1.173 0.93268,-1.6714 2.059,-2.714 3.2212,-3.0964 z m 1.9943,0.07756 c 0.1048,0.0172 0.2114,0.0294 0.3155,0.04848 1.0502,0.45756 2.0596,1.4505 2.9076,2.9704 0.19858,0.35586 0.38088,0.74546 0.55504,1.1498 -1.1728,0.22748 -2.4464,0.37512 -3.7782,0.4285 v -4.5972 z m -6.2496,0.95784 c -0.25016,0.34772 -0.49136,0.7076 -0.70892,1.0974 -0.28958,0.51894 -0.54856,1.0811 -0.7868,1.6675 -0.58376,-0.17046 -1.1238,-0.36342 -1.6282,-0.57198 0.91024,-0.8897 1.9651,-1.6283 3.124,-2.1928 z m 10.723,0.2986 c 0.5446,0.21748 0.96212,0.42034 1.3808,0.62432 0.5316,0.36928 1.0323,0.779 1.4957,1.2273 -0.49828,0.21092 -1.0342,0.40654 -1.6126,0.57974 -0.23448,-0.5732 -0.48752,-1.1241 -0.77124,-1.6326 -0.15492,-0.27764 -0.3218,-0.54086 -0.49272,-0.79884 z m 4.1794,3.3504 c 1.2724,1.7245 2.089,3.7984 2.2748,6.0592 h -3.7548 c -0.0733,-1.8155 -0.34688,-3.5328 -0.78876,-5.0936 0.79638,-0.24304 1.5443,-0.52188 2.228,-0.83956 0.0186,-0.0433 0.029,-0.0845 0.0409,-0.12604 z m -19.382,0.13186 c 0.7158,0.3316 1.5046,0.6188 2.3428,0.86864 -0.43612,1.5517 -0.70626,3.2566 -0.77902,5.0588 h -3.7412 c 0.18104,-2.203 0.96024,-4.2292 2.1774,-5.9272 z m 15.177,1.3243 c 0.3968,1.3904 0.65384,2.9468 0.72838,4.603 h -5.1766 v -4.0834 c 1.5669,-0.05722 3.064,-0.2334 4.4482,-0.51964 z m -10.897,0.02908 c 1.3875,0.27872 2.8868,0.44504 4.454,0.49442 v 4.0796 h -5.1746 c 0.07404,-1.6448 0.3284,-3.1908 0.7206,-4.574 z m -6.458,6.5594 h 3.7412 c 0.07476,1.8516 0.35664,3.6028 0.81408,5.1886 -0.8194,0.2426 -1.5884,0.52322 -2.2924,0.84344 -1.2636,-1.7185 -2.076,-3.7826 -2.2632,-6.032 z m 5.7376,0 h 5.1746 v 4.2192 c -1.5539,0.0488 -3.0414,0.21214 -4.419,0.48668 -0.41328,-1.4161 -0.6793,-3.0092 -0.75564,-4.7058 z m 7.1688,0 h 5.1766 c -0.07686,1.7078 -0.34544,3.3116 -0.76344,4.7348 -1.3744,-0.28196 -2.8594,-0.45524 -4.4132,-0.51188 v -4.223 z m 7.1728,0 h 3.7548 c -0.18924,2.2758 -1.0187,4.3618 -2.3078,6.092 -0.0036,-0.006 -0.004,-0.0134 -0.0078,-0.0194 -0.69354,-0.32222 -1.4538,-0.60388 -2.2632,-0.84924 0.46332,-1.5949 0.74852,-3.3584 0.82382,-5.2236 z m -9.1672,6.2046 v 4.5372 c -1.1617,-0.38308 -2.2888,-1.4217 -3.2212,-3.0926 -0.18162,-0.32548 -0.34894,-0.67878 -0.51026,-1.0451 1.1631,-0.21596 2.4188,-0.3532 3.7316,-0.39942 z m 1.9943,0.004 c 1.3124,0.05214 2.5668,0.19492 3.7256,0.41688 -0.15872,0.3588 -0.32422,0.70432 -0.50248,1.0238 -0.9328,1.6716 -2.0604,2.71 -3.2232,3.0926 v -4.5332 z m -7.6928,0.85894 c 0.22484,0.54064 0.4652,1.0632 0.73424,1.5453 0.21152,0.37904 0.44332,0.73284 0.68554,1.0722 -1.1008,-0.5394 -2.1046,-1.2381 -2.9816,-2.0728 0.4884,-0.19652 1.0024,-0.38324 1.5619,-0.54484 z m 13.38,0.0349 c 0.55356,0.16404 1.063,0.35192 1.5444,0.55066 -0.87128,0.8207 -1.8652,1.5082 -2.9544,2.0396 0.2432,-0.3428 0.47652,-0.69842 0.68944,-1.08 0.26328,-0.4718 0.49958,-0.98248 0.7206,-1.5104 z"
         id="path3" />
      <path
         style="fill:#ffffff;fill-rule:evenodd"
         d="m 32.854944,17.00017 c -5.9052,0 -10.953,3.6736 -12.99,8.8414 -0.10842,0.26286 -0.20364,0.5321 -0.29604,0.80272 -0.0182,0.05602 -0.03904,0.11044 -0.05648,0.16676 -0.443,1.353 -0.696,2.79 -0.696,4.289 0,7.667 6.261,13.9 13.962,13.9 5.8496,0 10.862,-3.6008 12.938,-8.6904 5.4e-4,-0.0013 0.0014,-0.0026 0.002,-0.004 0.14914,-0.3505 0.275,-0.71168 0.39536,-1.0761 0.45048,-1.364 0.70308,-2.8172 0.70308,-4.3296 0,-7.6652 -6.2626,-13.9 -13.962,-13.9 z m -1.0049,2.1696 v 4.6786 c -1.3331,-0.04682 -2.608,-0.18746 -3.786,-0.40912 0.17696,-0.41284 0.36246,-0.81048 0.5648,-1.173 0.93268,-1.6714 2.059,-2.714 3.2212,-3.0964 z m 1.9943,0.07756 c 0.1048,0.0172 0.2114,0.0294 0.3155,0.04848 1.0502,0.45756 2.0596,1.4505 2.9076,2.9704 0.19858,0.35586 0.38088,0.74546 0.55504,1.1498 -1.1728,0.22748 -2.4464,0.37512 -3.7782,0.4285 v -4.5972 z m -6.2496,0.95784 c -0.25016,0.34772 -0.49136,0.7076 -0.70892,1.0974 -0.28958,0.51894 -0.54856,1.0811 -0.7868,1.6675 -0.58376,-0.17046 -1.1238,-0.36342 -1.6282,-0.57198 0.91024,-0.8897 1.9651,-1.6283 3.124,-2.1928 z m 10.723,0.2986 c 0.5446,0.21748 0.96212,0.42034 1.3808,0.62432 0.5316,0.36928 1.0323,0.779 1.4957,1.2273 -0.49828,0.21092 -1.0342,0.40654 -1.6126,0.57974 -0.23448,-0.5732 -0.48752,-1.1241 -0.77124,-1.6326 -0.15492,-0.27764 -0.3218,-0.54086 -0.49272,-0.79884 z m 4.1794,3.3504 c 1.2724,1.7245 2.089,3.7984 2.2748,6.0592 h -3.7548 c -0.0733,-1.8155 -0.34688,-3.5328 -0.78876,-5.0936 0.79638,-0.24304 1.5443,-0.52188 2.228,-0.83956 0.0186,-0.0433 0.029,-0.0845 0.0409,-0.12604 z m -19.382,0.13186 c 0.7158,0.3316 1.5046,0.6188 2.3428,0.86864 -0.43612,1.5517 -0.70626,3.2566 -0.77902,5.0588 h -3.7412 c 0.18104,-2.203 0.96024,-4.2292 2.1774,-5.9272 z m 15.177,1.3243 c 0.3968,1.3904 0.65384,2.9468 0.72838,4.603 h -5.1766 v -4.0834 c 1.5669,-0.05722 3.064,-0.2334 4.4482,-0.51964 z m -10.897,0.02908 c 1.3875,0.27872 2.8868,0.44504 4.454,0.49442 v 4.0796 h -5.1746 c 0.07404,-1.6448 0.3284,-3.1908 0.7206,-4.574 z m -6.458,6.5594 h 3.7412 c 0.07476,1.8516 0.35664,3.6028 0.81408,5.1886 -0.8194,0.2426 -1.5884,0.52322 -2.2924,0.84344 -1.2636,-1.7185 -2.076,-3.7826 -2.2632,-6.032 z m 5.7376,0 h 5.1746 v 4.2192 c -1.5539,0.0488 -3.0414,0.21214 -4.419,0.48668 -0.41328,-1.4161 -0.6793,-3.0092 -0.75564,-4.7058 z m 7.1688,0 h 5.1766 c -0.07686,1.7078 -0.34544,3.3116 -0.76344,4.7348 -1.3744,-0.28196 -2.8594,-0.45524 -4.4132,-0.51188 v -4.223 z m 7.1728,0 h 3.7548 c -0.18924,2.2758 -1.0187,4.3618 -2.3078,6.092 -0.0036,-0.006 -0.004,-0.0134 -0.0078,-0.0194 -0.69354,-0.32222 -1.4538,-0.60388 -2.2632,-0.84924 0.46332,-1.5949 0.74852,-3.3584 0.82382,-5.2236 z m -9.1672,6.2046 v 4.5372 c -1.1617,-0.38308 -2.2888,-1.4217 -3.2212,-3.0926 -0.18162,-0.32548 -0.34894,-0.67878 -0.51026,-1.0451 1.1631,-0.21596 2.4188,-0.3532 3.7316,-0.39942 z m 1.9943,0.004 c 1.3124,0.05214 2.5668,0.19492 3.7256,0.41688 -0.15872,0.3588 -0.32422,0.70432 -0.50248,1.0238 -0.9328,1.6716 -2.0604,2.71 -3.2232,3.0926 v -4.5332 z m -7.6928,0.85894 c 0.22484,0.54064 0.4652,1.0632 0.73424,1.5453 0.21152,0.37904 0.44332,0.73284 0.68554,1.0722 -1.1008,-0.5394 -2.1046,-1.2381 -2.9816,-2.0728 0.4884,-0.19652 1.0024,-0.38324 1.5619,-0.54484 z m 13.38,0.0349 c 0.55356,0.16404 1.063,0.35192 1.5444,0.55066 -0.87128,0.8207 -1.8652,1.5082 -2.9544,2.0396 0.2432,-0.3428 0.47652,-0.69842 0.68944,-1.08 0.26328,-0.4718 0.49958,-0.98248 0.7206,-1.5104 z"
         id="path4" />
    </g>
  </g>
</svg>
