<?xml version="1.0" encoding="UTF-8" standalone="no"?>
<svg
   width="62"
   height="62"
   version="1"
   id="svg17"
   sodipodi:docname="regedit.svg"
   inkscape:version="1.4 (unknown)"
   xmlns:inkscape="http://www.inkscape.org/namespaces/inkscape"
   xmlns:sodipodi="http://sodipodi.sourceforge.net/DTD/sodipodi-0.dtd"
   xmlns="http://www.w3.org/2000/svg"
   xmlns:svg="http://www.w3.org/2000/svg">
  <defs
     id="defs17" />
  <sodipodi:namedview
     id="namedview17"
     pagecolor="#ffffff"
     bordercolor="#000000"
     borderopacity="0.25"
     inkscape:showpageshadow="2"
     inkscape:pageopacity="0.0"
     inkscape:pagecheckerboard="0"
     inkscape:deskcolor="#d1d1d1"
     inkscape:zoom="8.5626212"
     inkscape:cx="48.349681"
     inkscape:cy="33.80974"
     inkscape:window-width="1920"
     inkscape:window-height="998"
     inkscape:window-x="0"
     inkscape:window-y="0"
     inkscape:window-maximized="1"
     inkscape:current-layer="svg17" />
  <g
     id="g17"
     transform="matrix(1.0185185,0,0,1.0181818,-1.592592,-2.0909085)">
    <rect
       style="fill:#1e8496"
       width="18"
       height="18"
       x="23"
       y="41"
       id="rect1" />
    <path
       style="fill:#186977"
       d="m 5,41.000074 v 15.300143 c 0,1.495715 1.2041355,2.69979 2.69979,2.69979 H 22.999933 V 41.000074 Z"
       id="path2" />
    <rect
       style="opacity:0.2"
       width="18"
       height="18"
       x="5"
       y="24"
       id="rect2" />
    <rect
       style="fill:#4ca9ba"
       width="18"
       height="18"
       x="5"
       y="23"
       id="rect3" />
    <rect
       style="opacity:0.2"
       width="18"
       height="18"
       x="23"
       y="24"
       id="rect4" />
    <rect
       style="fill:#6eb9c7"
       width="18"
       height="18"
       x="23"
       y="23"
       id="rect5" />
    <rect
       style="opacity:0.2"
       width="18"
       height="18"
       x="41"
       y="24"
       id="rect6" />
    <rect
       style="fill:#90cad5"
       width="18"
       height="18"
       x="41"
       y="23"
       id="rect7" />
    <path
       style="opacity:0.2"
       d="M 40.999867,6.0001328 V 24.000066 H 58.9998 V 8.6999228 c 0,-1.4955945 -1.203995,-2.69979 -2.69999,-2.69979 z"
       id="path7" />
    <path
       style="fill:#c5e6ec"
       d="M 40.999867,5.000207 V 23.00014 H 58.9998 V 7.699997 c 0,-1.4955945 -1.203995,-2.69979 -2.69999,-2.69979 z"
       id="path8" />
    <rect
       style="opacity:0.2"
       width="18"
       height="18"
       x="23"
       y="6"
       id="rect8" />
    <rect
       style="fill:#acdbe3"
       width="18"
       height="18"
       x="23"
       y="5"
       id="rect9" />
    <path
       style="opacity:0.2"
       d="M 7.69979,6.0001328 C 6.2041955,6.0001328 5,7.2043283 5,8.6999228 V 24.000066 H 22.999933 V 6.0001328 Z"
       id="path9" />
    <path
       style="fill:#96d1dc"
       d="M 7.69979,5.000207 C 6.2041955,5.000207 5,6.2044025 5,7.699997 V 23.00014 H 22.999933 V 5.000207 Z"
       id="path10" />
    <path
       style="opacity:0.2"
       d="m 5,56.3 v 1.000211 C 5,58.796523 6.2034678,60 7.6993165,60 H 56.300683 C 57.796733,60 59,58.796523 59,57.300211 V 56.3 c 0,1.496311 -1.203267,2.699789 -2.699317,2.699789 H 7.6993165 C 6.2034678,58.999789 5,57.796311 5,56.3 Z"
       id="path11" />
    <path
       style="opacity:0.2;fill:#ffffff"
       d="M 7.6992188,5 C 6.2033966,5 5,6.203164 5,7.6992188 v 1 C 5,7.203164 6.2033966,6 7.6992188,6 H 56.300781 C 57.796804,6 59,7.203164 59,8.6992188 v -1 C 59,6.2031639 57.796804,5 56.300781,5 Z"
       id="path12" />
  </g>
  <g
     id="g18"
     transform="matrix(0.87038355,0,0,0.86363639,-38.012484,24.431816)">
    <path
       style="fill:#259fb3"
       d="M 92.736361,20.500075 V 38.500008 H 108.0365 c 1.496,0 2.69999,-1.203995 2.69999,-2.69999 V 20.499875 H 92.736561 Z"
       id="path1" />
    <circle
       style="fill:#8d5fd3"
       cx="98.736496"
       cy="26.500002"
       r="16"
       id="circle12" />
    <path
       style="opacity:0.2"
       d="m 82.761884,27.000001 a 16,16.001894 0 0 0 -0.02539,0.498106 16,16.001894 0 0 0 16,16.001894 16,16.001894 0 0 0 15.999996,-16.001894 16,16.001894 0 0 0 -0.0176,-0.492246 A 16,16.001894 0 0 1 98.736492,42.499883 16,16.001894 0 0 1 82.761884,27.000001 Z"
       id="path13" />
    <path
       style="fill:#ffffff"
       d="m 91.236714,18.500211 h 5.99998 c 0.2765,0 0.4998,0.22302 0.4998,0.50001 v 5.99998 c 0,0.2765 -0.2233,0.4998 -0.4998,0.4998 h -6.00019 c -0.27699,0 -0.50001,-0.2233 -0.50001,-0.4998 v -6.00019 c 0,-0.27699 0.22302,-0.50001 0.50001,-0.50001 z"
       id="path14" />
    <path
       style="fill:#ffffff"
       d="m 100.23627,18.500001 h 5.99974 c 0.27719,0 0.50048,0.223027 0.50048,0.500025 v 6.000159 c 0,0.276509 -0.22329,0.499816 -0.49978,0.499816 h -5.99973 c -0.277195,0 -0.500486,-0.223307 -0.500486,-0.499816 v -6.000159 c 0,-0.277006 0.22299,-0.500018 0.499986,-0.500018 z"
       id="path15" />
    <path
       style="fill:#ffffff"
       d="m 91.236714,27.50021 h 5.99998 c 0.2765,0 0.4998,0.223021 0.4998,0.50001 v 5.999981 c 0,0.276499 -0.2233,0.499799 -0.4998,0.499799 h -6.00019 c -0.27699,0 -0.50001,-0.2233 -0.50001,-0.499799 V 28.00001 c 0,-0.27699 0.22302,-0.50001 0.50001,-0.50001 z"
       id="path16" />
    <path
       style="fill:#ffffff"
       d="m 100.23627,27.5 h 5.99974 c 0.27719,0 0.50048,0.223027 0.50048,0.500026 v 6.000159 c 0,0.276509 -0.22329,0.499815 -0.49978,0.499815 h -5.99973 c -0.277195,0 -0.500486,-0.223306 -0.500486,-0.499815 v -6.000159 c 0,-0.277006 0.22299,-0.500018 0.499986,-0.500018 z"
       id="path17" />
  </g>
</svg>
