<?xml version="1.0" encoding="UTF-8" standalone="no"?>
<svg
   width="62"
   height="62"
   version="1.1"
   id="svg44"
   sodipodi:docname="remarkable.svg"
   inkscape:version="1.4 (unknown)"
   xmlns:inkscape="http://www.inkscape.org/namespaces/inkscape"
   xmlns:sodipodi="http://sodipodi.sourceforge.net/DTD/sodipodi-0.dtd"
   xmlns:xlink="http://www.w3.org/1999/xlink"
   xmlns="http://www.w3.org/2000/svg"
   xmlns:svg="http://www.w3.org/2000/svg">
  <sodipodi:namedview
     id="namedview46"
     pagecolor="#ffffff"
     bordercolor="#666666"
     borderopacity="1.0"
     inkscape:showpageshadow="2"
     inkscape:pageopacity="0.0"
     inkscape:pagecheckerboard="0"
     inkscape:deskcolor="#d1d1d1"
     showgrid="false"
     inkscape:zoom="9.8333334"
     inkscape:cx="31.372881"
     inkscape:cy="37.779661"
     inkscape:window-width="1920"
     inkscape:window-height="998"
     inkscape:window-x="0"
     inkscape:window-y="0"
     inkscape:window-maximized="1"
     inkscape:current-layer="svg44" />
  <defs
     id="defs20">
    <linearGradient
       id="linearGradient3"
       inkscape:collect="always">
      <stop
         style="stop-color:#1aafff;stop-opacity:1;"
         offset="0"
         id="stop3" />
      <stop
         style="stop-color:#0097e5;stop-opacity:1;"
         offset="0.28353515"
         id="stop18" />
      <stop
         style="stop-color:#4cc1ff;stop-opacity:1;"
         offset="0.72808719"
         id="stop17" />
      <stop
         style="stop-color:#4cc1ff;stop-opacity:1;"
         offset="1"
         id="stop16" />
    </linearGradient>
    <linearGradient
       id="a"
       y1="542.79999"
       y2="503.79999"
       x2="0"
       gradientUnits="userSpaceOnUse">
      <stop
         stop-color="#2a2c2f"
         id="stop2" />
      <stop
         offset="1"
         stop-color="#424649"
         id="stop4" />
    </linearGradient>
    <linearGradient
       id="b"
       y1="42"
       x1="42"
       y2="6"
       x2="6"
       gradientUnits="userSpaceOnUse">
      <stop
         stop-color="#989a9b"
         id="stop7" />
      <stop
         offset="1"
         stop-color="#f6f6f7"
         id="stop9" />
    </linearGradient>
    <linearGradient
       id="c"
       y1="523.79999"
       y2="549.79999"
       x2="0"
       gradientUnits="userSpaceOnUse"
       gradientTransform="matrix(0.70711,-0.70711,0.70711,0.70711,-635.28,-57.48)">
      <stop
         id="stop12" />
      <stop
         offset="1"
         stop-opacity="0"
         id="stop14" />
    </linearGradient>
    <linearGradient
       xlink:href="#c"
       id="d"
       y1="520.94"
       x1="410.88"
       y2="532.63"
       x2="422.57001"
       gradientUnits="userSpaceOnUse"
       gradientTransform="translate(-384.57,-499.8)" />
    <linearGradient
       xlink:href="#a"
       id="e"
       y1="543.79999"
       x1="428.57001"
       y2="503.79999"
       x2="388.57001"
       gradientUnits="userSpaceOnUse" />
    <linearGradient
       xlink:href="#a"
       id="f"
       x1="391.57001"
       x2="461.20001"
       gradientUnits="userSpaceOnUse"
       gradientTransform="translate(250.71,-442.32)" />
    <linearGradient
       gradientTransform="matrix(1.0499636,0,0,1.0499041,-523.49446,-510.34455)"
       gradientUnits="userSpaceOnUse"
       x2="426.69501"
       y2="499.92099"
       y1="547.67499"
       id="a-6"
       x1="389.32001">
      <stop
         stop-color="#18222a"
         style="stop-color:#1e2b35;stop-opacity:1"
         id="stop216" />
      <stop
         stop-color="#566069"
         offset="1"
         style="stop-color:#6d7983;stop-opacity:1"
         id="stop218" />
    </linearGradient>
    <linearGradient
       id="e-7-3-7"
       y1="543.79999"
       y2="503.79999"
       x2="0"
       gradientUnits="userSpaceOnUse"
       gradientTransform="translate(-380.57001,-495.79997)">
      <stop
         stop-color="#2f3943"
         id="stop18-5-7-5" />
      <stop
         offset="1"
         stop-color="#808c9b"
         id="stop20-3-5-3" />
    </linearGradient>
    <linearGradient
       id="b-6-2-6"
       y1="540.79999"
       y2="536.79999"
       gradientUnits="userSpaceOnUse"
       x2="0">
      <stop
         stop-color="#2f3943"
         id="stop7-2-2-2" />
      <stop
         offset="1"
         stop-color="#4d5662"
         id="stop9-9-8-9" />
    </linearGradient>
    <linearGradient
       id="c-2-7-2"
       y1="537.79999"
       y2="538.79999"
       x2="0"
       gradientUnits="userSpaceOnUse">
      <stop
         stop-color="#197cf1"
         id="stop12-7-3-7" />
      <stop
         offset="1"
         stop-color="#21c9fb"
         id="stop14-0-6-0" />
    </linearGradient>
    <linearGradient
       id="linearGradient450"
       y1="540.79999"
       y2="536.79999"
       gradientUnits="userSpaceOnUse"
       x2="0">
      <stop
         stop-color="#2f3943"
         id="stop446" />
      <stop
         offset="1"
         stop-color="#4d5662"
         id="stop448" />
    </linearGradient>
    <linearGradient
       xlink:href="#c-2-7-2"
       id="d-3-2-3"
       y1="539.79999"
       y2="538.79999"
       gradientUnits="userSpaceOnUse"
       x2="0"
       gradientTransform="translate(-387.87002,-583.50001)" />
    <linearGradient
       id="linearGradient457"
       y1="537.79999"
       y2="538.79999"
       x2="0"
       gradientUnits="userSpaceOnUse">
      <stop
         stop-color="#197cf1"
         id="stop453" />
      <stop
         offset="1"
         stop-color="#21c9fb"
         id="stop455" />
    </linearGradient>
    <linearGradient
       id="a-67"
       y1="542.79999"
       y2="503.79999"
       x2="0"
       gradientUnits="userSpaceOnUse">
      <stop
         stop-color="#2a2c2f"
         id="stop2-5" />
      <stop
         offset="1"
         stop-color="#424649"
         id="stop4-3" />
    </linearGradient>
    <linearGradient
       id="c-6"
       y1="523.79999"
       y2="549.79999"
       x2="0"
       gradientUnits="userSpaceOnUse"
       gradientTransform="matrix(0.70711,-0.70711,0.70711,0.70711,-635.28,-57.48)">
      <stop
         id="stop12-2" />
      <stop
         offset="1"
         stop-opacity="0"
         id="stop14-9" />
    </linearGradient>
    <linearGradient
       xlink:href="#a-67"
       id="f-1"
       x1="391.57001"
       x2="461.20001"
       gradientUnits="userSpaceOnUse"
       gradientTransform="translate(204.55027,-360.5481)" />
    <linearGradient
       id="linearGradient891"
       y1="542.79999"
       y2="503.79999"
       x2="0"
       gradientUnits="userSpaceOnUse">
      <stop
         stop-color="#2a2c2f"
         id="stop887" />
      <stop
         offset="1"
         stop-color="#424649"
         id="stop889" />
    </linearGradient>
    <linearGradient
       xlink:href="#c-6"
       id="d-2"
       y1="520.94"
       x1="410.88"
       y2="532.63"
       x2="422.57001"
       gradientUnits="userSpaceOnUse"
       gradientTransform="translate(-475.03132,-474.61839)" />
    <linearGradient
       id="linearGradient898"
       y1="523.79999"
       y2="549.79999"
       x2="0"
       gradientUnits="userSpaceOnUse"
       gradientTransform="matrix(0.70711,-0.70711,0.70711,0.70711,-635.28,-57.48)">
      <stop
         id="stop894" />
      <stop
         offset="1"
         stop-opacity="0"
         id="stop896" />
    </linearGradient>
    <linearGradient
       xlink:href="#a-67"
       id="e-7"
       y1="543.79999"
       x1="428.57001"
       y2="503.79999"
       x2="388.57001"
       gradientUnits="userSpaceOnUse"
       gradientTransform="translate(-90.461323,25.181605)" />
    <linearGradient
       id="linearGradient905"
       y1="542.79999"
       y2="503.79999"
       x2="0"
       gradientUnits="userSpaceOnUse">
      <stop
         stop-color="#2a2c2f"
         id="stop901" />
      <stop
         offset="1"
         stop-color="#424649"
         id="stop903" />
    </linearGradient>
    <linearGradient
       id="b-0"
       y1="42"
       x1="42"
       y2="6"
       x2="6"
       gradientUnits="userSpaceOnUse"
       gradientTransform="translate(-90.461323,25.181605)">
      <stop
         stop-color="#989a9b"
         id="stop7-9" />
      <stop
         offset="1"
         stop-color="#f6f6f7"
         id="stop9-3" />
    </linearGradient>
    <linearGradient
       id="e-3"
       x1="9.9694004"
       x2="9.9694004"
       y1="295.76001"
       y2="281.48999"
       gradientTransform="matrix(2.6677565,0,0,2.6677565,9.4119652,-737.77831)"
       gradientUnits="userSpaceOnUse">
      <stop
         stop-color="#7b88a1"
         offset="0"
         id="stop10"
         style="stop-color:#ffd42a;stop-opacity:1" />
      <stop
         stop-color="#a6aebf"
         offset="1"
         id="stop11"
         style="stop-color:#ff00ff;stop-opacity:1" />
    </linearGradient>
    <linearGradient
       id="d-6"
       x1="5.0327001"
       x2="5.0327001"
       y1="294.19"
       y2="282.62"
       gradientTransform="matrix(2.6361212,0,0,2.6361212,54.358138,-658.42438)"
       gradientUnits="userSpaceOnUse">
      <stop
         stop-color="#4c566a"
         offset="0"
         id="stop12-7" />
      <stop
         stop-color="#7b88a1"
         offset="1"
         id="stop13" />
    </linearGradient>
    <linearGradient
       id="c-5"
       x1="8.6028166"
       x2="8.6981649"
       y1="281.98367"
       y2="292.302"
       gradientTransform="matrix(2.6361212,0,0,2.6361212,54.358138,-658.42438)"
       gradientUnits="userSpaceOnUse"
       xlink:href="#e-3">
      <stop
         stop-color="#4c566a"
         offset="0"
         id="stop14-3"
         style="stop-color:#ffd42a;stop-opacity:1" />
      <stop
         stop-color="#2e3440"
         offset="1"
         id="stop15"
         style="stop-color:#ff00ff;stop-opacity:1" />
    </linearGradient>
    <radialGradient
       id="b-5"
       cx="-136.99001"
       cy="198.64999"
       r="38.5"
       gradientTransform="matrix(0.25885738,0,0,0.21740271,67.458336,-11.179684)"
       gradientUnits="userSpaceOnUse">
      <stop
         stop-color="#5e81ac"
         offset="0"
         id="stop1" />
      <stop
         stop-color="#2e3440"
         offset="1"
         id="stop2-6" />
    </radialGradient>
    <filter
       id="n"
       x="-0.10977762"
       y="-0.12999462"
       width="1.2195553"
       height="1.2599891"
       color-interpolation-filters="sRGB">
      <feGaussianBlur
         stdDeviation="0.15227829"
         id="feGaussianBlur9" />
    </filter>
    <filter
       id="m"
       x="-0.18987022"
       y="-0.24323177"
       width="1.3797404"
       height="1.4864635"
       color-interpolation-filters="sRGB">
      <feGaussianBlur
         stdDeviation="0.15227829"
         id="feGaussianBlur10" />
    </filter>
    <filter
       id="g"
       x="-0.04983059"
       y="-0.080737707"
       width="1.0996612"
       height="1.1614754"
       color-interpolation-filters="sRGB">
      <feGaussianBlur
         stdDeviation="0.12802309"
         id="feGaussianBlur7" />
    </filter>
    <filter
       id="a-2"
       x="-0.05351622"
       y="-0.086705591"
       width="1.1070324"
       height="1.1734112"
       color-interpolation-filters="sRGB">
      <feGaussianBlur
         stdDeviation="0.085527836"
         id="feGaussianBlur4" />
    </filter>
    <filter
       id="i"
       x="-0.049672056"
       y="-0.080481142"
       width="1.0993441"
       height="1.1609623"
       color-interpolation-filters="sRGB">
      <feGaussianBlur
         stdDeviation="0.7624247"
         id="feGaussianBlur5" />
    </filter>
    <filter
       id="j"
       x="-0.0099663455"
       y="-0.016147479"
       width="1.0199327"
       height="1.032295"
       color-interpolation-filters="sRGB">
      <feGaussianBlur
         stdDeviation="0.030455491"
         id="feGaussianBlur3" />
    </filter>
    <filter
       id="k"
       x="-0.19932388"
       y="-0.32295498"
       width="1.3986478"
       height="1.6459099"
       color-interpolation-filters="sRGB">
      <feGaussianBlur
         stdDeviation="1.0607186"
         id="feGaussianBlur2" />
    </filter>
    <filter
       id="f-9"
       x="-0.19465575"
       y="-0.31539097"
       width="1.3893116"
       height="1.6307819"
       color-interpolation-filters="sRGB">
      <feGaussianBlur
         stdDeviation="2.9878037"
         id="feGaussianBlur8" />
    </filter>
    <filter
       id="h"
       x="-0.19932236"
       y="-0.32295084"
       width="1.3986447"
       height="1.6459017"
       color-interpolation-filters="sRGB">
      <feGaussianBlur
         stdDeviation="0.51209235"
         id="feGaussianBlur6" />
    </filter>
    <filter
       id="filter1"
       x="-0.05351622"
       y="-0.086705588"
       width="1.1070324"
       height="1.1734113"
       color-interpolation-filters="sRGB">
      <feGaussianBlur
         stdDeviation="0.085527836"
         id="feGaussianBlur1" />
    </filter>
    <radialGradient
       id="paint156_radial_890_11"
       cx="0"
       cy="0"
       r="1"
       gradientUnits="userSpaceOnUse"
       gradientTransform="matrix(27.99998,27.99998,-27.99998,27.99998,122.33333,29.169492)">
      <stop
         offset="0.600678"
         stop-color="#B7C6CD"
         id="stop1054" />
      <stop
         offset="0.876735"
         stop-color="#EFF2F6"
         id="stop1055" />
    </radialGradient>
    <linearGradient
       id="paint157_linear_890_11"
       x1="803"
       y1="805"
       x2="763"
       y2="765"
       gradientUnits="userSpaceOnUse"
       gradientTransform="matrix(1.1666667,0,0,1.1666667,-840.50003,-823.40963)">
      <stop
         offset="0.314714"
         stop-color="#2E2E41"
         id="stop1056" />
      <stop
         offset="0.711139"
         stop-color="#566C80"
         id="stop1057" />
    </linearGradient>
    <linearGradient
       id="paint158_linear_890_11"
       x1="792"
       y1="794"
       x2="774"
       y2="776"
       gradientUnits="userSpaceOnUse"
       gradientTransform="translate(-752,-758)">
      <stop
         offset="0.304478"
         stop-color="#2E2E41"
         id="stop1058" />
      <stop
         offset="1"
         stop-color="#566C80"
         id="stop1059" />
    </linearGradient>
    <linearGradient
       id="paint159_linear_890_11"
       x1="788"
       y1="790"
       x2="778"
       y2="780"
       gradientUnits="userSpaceOnUse"
       gradientTransform="translate(-752,-758)">
      <stop
         offset="0.39139399"
         stop-color="#5200FF"
         id="stop1060"
         style="stop-color:#854cff;stop-opacity:1;" />
      <stop
         offset="1"
         stop-color="#0085FF"
         id="stop1061"
         style="stop-color:#40a4ff;stop-opacity:1;" />
    </linearGradient>
    <linearGradient
       id="paint160_linear_890_11"
       x1="784"
       y1="798"
       x2="782"
       y2="796"
       gradientUnits="userSpaceOnUse"
       gradientTransform="translate(-752,-758)">
      <stop
         stop-color="#FF7E07"
         id="stop1062" />
      <stop
         offset="1"
         stop-color="#FFE607"
         id="stop1063" />
    </linearGradient>
    <filter
       id="filter1030-6-5"
       x="-0.061720629"
       y="-0.058451215"
       width="1.1234413"
       height="1.1169024"
       color-interpolation-filters="sRGB">
      <feGaussianBlur
         stdDeviation="0.24897588"
         id="feGaussianBlur327-6" />
    </filter>
    <linearGradient
       id="linearGradient958"
       x1="-272.20999"
       x2="-275.5"
       y1="44.527"
       y2="50.384998"
       gradientTransform="matrix(0.41204,0,0,0.41204,123.57,-13.539)"
       gradientUnits="userSpaceOnUse">
      <stop
         stop-color="#3650ae"
         offset="0"
         id="stop286-7" />
      <stop
         stop-color="#388fc9"
         offset="1"
         id="stop288-5" />
    </linearGradient>
    <filter
       id="filter1040-5-2"
       x="-0.066213406"
       y="-0.054852634"
       width="1.1324268"
       height="1.1097053"
       color-interpolation-filters="sRGB">
      <feGaussianBlur
         stdDeviation="0.2340379"
         id="feGaussianBlur335-7" />
    </filter>
    <linearGradient
       id="linearGradient966"
       x1="-272.85999"
       x2="-267.62"
       y1="54.907001"
       y2="49.026001"
       gradientTransform="matrix(0.41204,0,0,0.41204,123.57,-13.539)"
       gradientUnits="userSpaceOnUse">
      <stop
         stop-color="#3491cb"
         offset="0"
         id="stop294" />
      <stop
         stop-color="#3850bb"
         offset="1"
         id="stop296" />
    </linearGradient>
    <filter
       id="filter1046-3-6"
       x="-0.047273067"
       y="-0.082104253"
       width="1.0945461"
       height="1.1642085"
       color-interpolation-filters="sRGB">
      <feGaussianBlur
         stdDeviation="0.22334751"
         id="feGaussianBlur343-0" />
    </filter>
    <linearGradient
       id="linearGradient974"
       x1="-277.66"
       x2="-270.88"
       y1="59.727001"
       y2="58.222"
       gradientTransform="matrix(0.41204,0,0,0.41204,123.57,-13.539)"
       gradientUnits="userSpaceOnUse">
      <stop
         stop-color="#2fb1dc"
         offset="0"
         id="stop302" />
      <stop
         stop-color="#3491cb"
         offset="1"
         id="stop304" />
    </linearGradient>
    <filter
       id="filter1052-5-1"
       x="-0.061679681"
       y="-0.058409123"
       width="1.1233594"
       height="1.1168182"
       color-interpolation-filters="sRGB">
      <feGaussianBlur
         stdDeviation="0.24881069"
         id="feGaussianBlur351-8" />
    </filter>
    <linearGradient
       id="linearGradient982"
       x1="-282.60999"
       x2="-278.76001"
       y1="54.153999"
       y2="62.018002"
       gradientTransform="matrix(0.41204,0,0,0.41204,123.57,-13.539)"
       gradientUnits="userSpaceOnUse">
      <stop
         stop-color="#30add9"
         offset="0"
         id="stop310-3" />
      <stop
         stop-color="#329ed2"
         offset="1"
         id="stop312" />
    </linearGradient>
    <filter
       id="filter1058-6-0"
       x="-0.066213588"
       y="-0.054852655"
       width="1.1324272"
       height="1.1097053"
       color-interpolation-filters="sRGB">
      <feGaussianBlur
         stdDeviation="0.23403799"
         id="feGaussianBlur359-2" />
    </filter>
    <linearGradient
       id="linearGradient990-5"
       x1="-286.34"
       x2="-282.53"
       y1="57.278"
       y2="49.414001"
       gradientTransform="matrix(0.41204,0,0,0.41204,123.57,-13.539)"
       gradientUnits="userSpaceOnUse">
      <stop
         stop-color="#329fd2"
         offset="0"
         id="stop318-6" />
      <stop
         stop-color="#2c80c1"
         offset="1"
         id="stop320-2" />
    </linearGradient>
    <filter
       id="filter1064-9-9"
       x="-0.04727349"
       y="-0.082104264"
       width="1.094547"
       height="1.1642085"
       color-interpolation-filters="sRGB">
      <feGaussianBlur
         stdDeviation="0.22334755"
         id="feGaussianBlur367-2" />
    </filter>
    <linearGradient
       id="linearGradient998"
       x1="-281.51001"
       x2="-282.54999"
       y1="43.16"
       y2="49.908001"
       gradientTransform="matrix(0.41204,0,0,0.41204,123.57,-13.539)"
       gradientUnits="userSpaceOnUse">
      <stop
         stop-color="#3857ba"
         offset="0"
         id="stop326" />
      <stop
         stop-color="#367dc1"
         offset="1"
         id="stop328-9" />
    </linearGradient>
    <filter
       id="filter1103-1-7"
       x="-0.05988692"
       y="-0.060124935"
       width="1.1197738"
       height="1.1202499"
       color-interpolation-filters="sRGB">
      <feGaussianBlur
         stdDeviation="0.60007942"
         id="feGaussianBlur375-3" />
    </filter>
    <filter
       id="filter1299-2-9"
       x="-0.030470268"
       y="-0.030470268"
       width="1.0609405"
       height="1.0609405"
       color-interpolation-filters="sRGB">
      <feGaussianBlur
         stdDeviation="0.18834042"
         id="feGaussianBlur383-3" />
    </filter>
    <linearGradient
       id="linearGradient1227"
       x1="-228.53999"
       x2="-228.53999"
       y1="49.422001"
       y2="52.341999"
       gradientTransform="translate(237.02,-44.947)"
       gradientUnits="userSpaceOnUse">
      <stop
         stop-color="#fff"
         offset="0"
         id="stop342" />
      <stop
         stop-color="#fff"
         stop-opacity="0"
         offset="1"
         id="stop344" />
    </linearGradient>
    <filter
       id="filter1229-7-7"
       x="-0.069095556"
       y="-0.10709949"
       width="1.1381911"
       height="1.214199"
       color-interpolation-filters="sRGB">
      <feGaussianBlur
         stdDeviation="0.1347133"
         id="feGaussianBlur391-8" />
    </filter>
    <filter
       id="filter4"
       x="-0.069095559"
       y="-0.10709949"
       width="1.1381911"
       height="1.2141989"
       color-interpolation-filters="sRGB">
      <feGaussianBlur
         stdDeviation="0.1347133"
         id="feGaussianBlur4-3" />
    </filter>
    <filter
       id="filter1251-0-5"
       x="-0.20800194"
       y="-0.28363517"
       width="1.4160039"
       height="1.5672703"
       color-interpolation-filters="sRGB">
      <feGaussianBlur
         stdDeviation="0.069956252"
         id="feGaussianBlur394-0" />
    </filter>
    <radialGradient
       inkscape:collect="always"
       xlink:href="#linearGradient7"
       id="radialGradient9"
       cx="32.302387"
       cy="34"
       fx="32.302387"
       fy="34"
       r="28"
       gradientUnits="userSpaceOnUse"
       gradientTransform="matrix(0.99999999,1,-1,0.99999999,32.697613,-35.302381)" />
    <linearGradient
       id="linearGradient7"
       inkscape:collect="always">
      <stop
         style="stop-color:#384850;stop-opacity:1;"
         offset="0"
         id="stop8" />
      <stop
         style="stop-color:#1aafff;stop-opacity:1;"
         offset="0.58519185"
         id="stop10-7" />
      <stop
         style="stop-color:#eff2f6;stop-opacity:1;"
         offset="0.86599815"
         id="stop11-5" />
      <stop
         style="stop-color:#eff2f6;stop-opacity:1;"
         offset="1"
         id="stop9-35" />
    </linearGradient>
    <linearGradient
       inkscape:collect="always"
       xlink:href="#linearGradient1-6"
       id="linearGradient6"
       x1="15.60323"
       y1="17.703012"
       x2="48.302387"
       y2="50"
       gradientUnits="userSpaceOnUse"
       gradientTransform="translate(-1.3023867,-2.999994)" />
    <linearGradient
       id="linearGradient1-6"
       inkscape:collect="always">
      <stop
         style="stop-color:#303c47;stop-opacity:1;"
         offset="0"
         id="stop5" />
      <stop
         style="stop-color:#363e48;stop-opacity:1;"
         offset="0.25046653"
         id="stop7-2" />
      <stop
         style="stop-color:#303c47;stop-opacity:1;"
         offset="0.91934216"
         id="stop12-9" />
      <stop
         style="stop-color:#303c47;stop-opacity:1;"
         offset="1"
         id="stop6" />
    </linearGradient>
    <linearGradient
       id="d-6-1"
       gradientUnits="userSpaceOnUse"
       x1="27"
       x2="25.42725"
       y1="28"
       y2="32.71825"
       gradientTransform="translate(-58.575692,-29.333333)">
      <stop
         offset="0"
         stop-color="#b1621e"
         id="stop231" />
      <stop
         offset="1"
         stop-color="#ffa21d"
         id="stop233" />
    </linearGradient>
    <linearGradient
       id="c-2"
       gradientTransform="matrix(2.0428665,-6.8308524,5.7819337,2.3633129,-33.356582,5.3194785)"
       gradientUnits="userSpaceOnUse"
       x1="24"
       x2="24"
       y1="35"
       y2="13">
      <stop
         offset="0"
         stop-color="#cd7223"
         id="stop224" />
      <stop
         offset=".53"
         stop-color="#f48e00"
         id="stop226" />
      <stop
         offset="1"
         stop-color="#ffa92d"
         id="stop228" />
    </linearGradient>
    <filter
       id="filter1030-6-5-2"
       x="-0.061720629"
       y="-0.058451215"
       width="1.1234413"
       height="1.1169024"
       color-interpolation-filters="sRGB">
      <feGaussianBlur
         stdDeviation="0.24897588"
         id="feGaussianBlur327-6-6" />
    </filter>
    <filter
       id="filter1040-5-2-7"
       x="-0.066213406"
       y="-0.054852634"
       width="1.1324268"
       height="1.1097053"
       color-interpolation-filters="sRGB">
      <feGaussianBlur
         stdDeviation="0.2340379"
         id="feGaussianBlur335-7-9" />
    </filter>
    <filter
       id="filter1046-3-6-2"
       x="-0.047273067"
       y="-0.082104253"
       width="1.0945461"
       height="1.1642085"
       color-interpolation-filters="sRGB">
      <feGaussianBlur
         stdDeviation="0.22334751"
         id="feGaussianBlur343-0-3" />
    </filter>
    <filter
       id="filter1052-5-1-9"
       x="-0.061679681"
       y="-0.058409123"
       width="1.1233594"
       height="1.1168182"
       color-interpolation-filters="sRGB">
      <feGaussianBlur
         stdDeviation="0.24881069"
         id="feGaussianBlur351-8-2" />
    </filter>
    <filter
       id="filter1058-6-0-9"
       x="-0.066213588"
       y="-0.054852655"
       width="1.1324272"
       height="1.1097053"
       color-interpolation-filters="sRGB">
      <feGaussianBlur
         stdDeviation="0.23403799"
         id="feGaussianBlur359-2-7" />
    </filter>
    <filter
       id="filter1064-9-9-1"
       x="-0.04727349"
       y="-0.082104264"
       width="1.094547"
       height="1.1642085"
       color-interpolation-filters="sRGB">
      <feGaussianBlur
         stdDeviation="0.22334755"
         id="feGaussianBlur367-2-2" />
    </filter>
    <filter
       id="filter1103-1-7-1"
       x="-0.05988692"
       y="-0.060124935"
       width="1.1197738"
       height="1.1202499"
       color-interpolation-filters="sRGB">
      <feGaussianBlur
         stdDeviation="0.60007942"
         id="feGaussianBlur375-3-9" />
    </filter>
    <filter
       id="filter1299-2-9-4"
       x="-0.024000055"
       y="-0.024000055"
       width="1.0480001"
       height="1.0480001"
       color-interpolation-filters="sRGB">
      <feGaussianBlur
         stdDeviation="0.18834042"
         id="feGaussianBlur383-3-5" />
    </filter>
    <filter
       id="filter1229-7-7-6"
       x="-0.069095556"
       y="-0.10709949"
       width="1.1381911"
       height="1.214199"
       color-interpolation-filters="sRGB">
      <feGaussianBlur
         stdDeviation="0.1347133"
         id="feGaussianBlur391-8-1" />
    </filter>
    <filter
       id="filter5"
       x="-0.069095559"
       y="-0.10709949"
       width="1.1381911"
       height="1.2141989"
       color-interpolation-filters="sRGB">
      <feGaussianBlur
         stdDeviation="0.1347133"
         id="feGaussianBlur5-3" />
    </filter>
    <filter
       id="filter1251-0-5-2"
       x="-0.20800194"
       y="-0.28363517"
       width="1.4160039"
       height="1.5672703"
       color-interpolation-filters="sRGB">
      <feGaussianBlur
         stdDeviation="0.069956252"
         id="feGaussianBlur394-0-0" />
    </filter>
    <linearGradient
       inkscape:collect="always"
       xlink:href="#linearGradient3"
       id="linearGradient18"
       gradientUnits="userSpaceOnUse"
       gradientTransform="translate(-41.999998,-61.42372)"
       x1="49.666664"
       y1="69.090393"
       x2="96.333336"
       y2="115.75706" />
  </defs>
  <path
     d="m 59,31.000006 c 0,15.46415 -12.535828,28 -28.000002,28 -15.464163,0 -27.9999974,-12.53585 -27.9999974,-28 0,-15.464165 12.5358344,-28 27.9999974,-28 15.464174,0 28.000002,12.535835 28.000002,28 z"
     id="path154-0"
     style="fill:url(#radialGradient9)" />
  <path
     d="m 54.333333,31.000006 c 0,12.88701 -10.446332,23.33332 -23.333335,23.33332 -12.886999,0 -23.3333304,-10.44631 -23.3333304,-23.33332 0,-12.886994 10.4463314,-23.333332 23.3333304,-23.333332 12.887003,0 23.333335,10.446338 23.333335,23.333332 z"
     id="path155-9"
     style="fill:url(#linearGradient6)" />
  <path
     d="m 54.333335,31.000004 c 0,12.88701 -10.446337,23.33334 -23.333337,23.33334 -12.887,0 -23.3333298,-10.44633 -23.3333298,-23.33334 0,-12.886995 10.4463298,-23.33333 23.3333298,-23.33333 12.887,0 23.333337,10.446335 23.333337,23.33333 z"
     id="path155-6"
     style="fill:url(#linearGradient18)" />
  <g
     id="g2"
     transform="translate(1.0740567e-6,-39.5)">
    <g
       style="font-size:31.4131px;line-height:125%;letter-spacing:0px;word-spacing:0px;opacity:0.2"
       transform="matrix(1.2912604,0,0,1.314099,7.6708187,48.158168)"
       id="g4">
      <path
         d="m 29.683542,12.012141 c -2.4e-5,0.782275 -0.552207,1.94646 -1.65655,3.49256 -0.220896,0.312915 -0.952538,0.768466 -2.194929,1.366654 -0.294518,0.358929 -0.869708,0.800675 -1.725573,1.32524 -0.635029,0.193273 -1.541529,0.501575 -2.719503,0.924907 -0.395747,0.230084 -0.975539,0.529183 -1.739378,0.897298 -0.119653,0.02762 -1.053763,0.179467 -2.80233,0.455551 -1.398875,0.22088 -2.098306,0.506175 -2.098297,0.855884 -9e-6,0.322113 0.60279,0.911108 1.808401,1.766987 0.984715,0.699436 1.656537,1.127378 2.015469,1.283826 0.984713,0.432547 2.622855,1.173392 4.914432,2.222538 l 2.374388,0.786862 c 1.05833,0.478558 1.60131,1.049147 1.628941,1.711768 -0.165677,0.303699 -0.414159,0.455549 -0.745448,0.455551 -0.0092,-2e-6 -0.193285,-0.03681 -0.552183,-0.110436 -0.358939,-0.06442 -0.575211,-0.09663 -0.648815,-0.09663 -1.270041,-1e-6 -2.438828,-0.243882 -3.506365,-0.731643 -0.06444,-0.0092 -1.108983,-0.487762 -3.13364,-1.435676 -0.414151,-0.257685 -1.035356,-0.658018 -1.863619,-1.200999 -0.681037,-0.441745 -1.1734,-0.860483 -1.47709,-1.256217 -0.11965,-0.0092 -0.285305,-0.04141 -0.496965,-0.09663 -0.303711,-0.469353 -1.150391,-1.127371 -2.540044,-1.974056 -1.168794,-0.727036 -1.753187,-1.759351 -1.753182,-2.182698 0.05521,-0.138039 0.230071,-0.118059 0.524574,-0.85431 1.831401,-0.395723 4.159771,-0.938703 6.98512,-1.628941 0.285281,-0.05521 0.984713,-0.216262 2.098296,-0.48316 0.717823,-0.174848 1.969437,-0.865077 3.754847,-2.070688 2.236322,-1.518491 3.354492,-2.779308 3.354514,-3.782456 -2.2e-5,-0.89268 -0.391151,-1.7071493 -1.17339,-2.4434113 C 25.532944,8.4643822 24.575827,8.0042298 23.44387,7.8293523 22.919278,7.6177019 22.601773,7.5118668 22.491354,7.5118468 c -0.184078,2e-5 -0.524591,-0.00458 -1.02154,-0.013804 -0.607417,-0.00918 -1.09978,-0.013785 -1.47709,-0.013805 l -1.684159,-0.013805 c -0.128856,2e-5 -0.193277,0.013825 -0.193264,0.041414 -1.3e-5,0.092051 -0.01382,0.1518703 -0.04141,0.1794596 -0.257698,-0.00918 -0.492376,-0.013785 -0.704034,-0.013804 -0.635022,1.98e-5 -1.053761,0.027629 -1.256217,0.082827 -0.45096,0.1380654 -1.196407,0.4233598 -2.236343,0.8558842 -0.524582,0.1380645 -1.177998,0.3221255 -1.960251,0.5521833 -0.681031,0.3037189 -1.067559,0.6028179 -1.159585,0.8972981 -0.542985,1.767002 -1.2980108,3.251116 -1.4912706,5.671506 0.036808,0.496976 0.055214,1.256227 0.055218,2.277757 -4.2e-6,0.165664 -4.2e-6,0.340521 0,0.524574 -0.064426,0.147257 -0.1610575,0.381935 -0.2898962,0.704034 -0.1932679,0.874297 -0.2898999,1.642751 -0.2898963,2.305365 -3.6e-6,0.174863 0.0046,0.340518 0.013805,0.496965 l 0.082828,0.869689 c 0.027605,0.34972 0.04141,0.855887 0.041414,1.518504 -3.8e-6,1.435678 -0.2714937,2.153516 -0.8144705,2.153515 -2.9e-6,1e-6 -0.1978684,-0.06902 -0.5935971,-0.207068 C 7.0850602,26.233287 6.8595855,26.159663 6.7951659,26.159662 6.6019002,25.138125 6.5052682,23.435561 6.5052696,21.051966 c -1.4e-6,-0.09202 0.078224,-0.846674 0.234678,-2.263951 0.2024654,-1.932632 0.3911278,-3.017018 0.5659879,-4.167411 0.1932618,-0.625795 0.7780316,-1.218787 0.9805014,-2.083889 v -0.66262 c -0.1380485,-0.13803 -0.2254774,-0.211654 -0.2622871,-0.220873 -2.5e-6,1.6e-5 -0.1426497,0.06904 -0.4279421,0.207069 C 7.3201142,11.989149 7.1498579,12.05357 7.0854381,12.053555 6.9105786,12.05357 6.7495253,11.887916 6.6022777,11.55659 6.5010431,11.344936 6.4504263,11.165476 6.4504273,11.018211 6.4504263,10.033502 6.7219162,9.2328365 7.2648977,8.6162136 7.6422209,8.1928923 8.4750966,7.539476 9.7635274,6.6559627 9.9015688,6.563953 11.097965,6.2970647 13.352719,5.8552968 c 2.309957,-0.4325216 3.883678,-0.6487932 4.721168,-0.6488154 1.840597,2.22e-5 3.598378,0.08285 5.273351,0.2484825 0.119622,0.1012555 0.322089,0.193286 0.607402,0.2760916 0.874271,0.00922 1.905012,0.4923848 3.092226,1.4494813 1.187172,0.9571372 1.8774,1.8544342 2.070688,2.6918939 -2.4e-5,0.018424 0.0644,0.1610713 0.193264,0.4279423 0.128819,0.266905 0.19324,0.414154 0.193264,0.441746 -2.4e-5,0.03683 0.03219,0.243898 0.09663,0.621207 0.05519,0.395747 0.0828,0.612018 0.08283,0.648815"
         id="path4-3" />
    </g>
    <g
       style="font-size:31.4131px;line-height:125%;letter-spacing:0px;word-spacing:0px;fill:#ffffff"
       transform="matrix(1.2912604,0,0,1.314099,7.6708187,47.158168)"
       id="g5">
      <path
         style="fill:#ffffff"
         d="m 29.683542,12.012141 c -2.4e-5,0.782275 -0.552207,1.94646 -1.65655,3.49256 -0.220896,0.312915 -0.952538,0.768466 -2.194929,1.366654 -0.294518,0.358929 -0.869708,0.800675 -1.725573,1.32524 -0.635029,0.193273 -1.541529,0.501575 -2.719503,0.924907 -0.395747,0.230084 -0.975539,0.529183 -1.739378,0.897298 -0.119653,0.02762 -1.053763,0.179467 -2.80233,0.455551 -1.398875,0.22088 -2.098306,0.506175 -2.098297,0.855884 -9e-6,0.322113 0.60279,0.911108 1.808401,1.766987 0.984715,0.699436 1.656537,1.127378 2.015469,1.283826 0.984713,0.432547 2.622855,1.173392 4.914432,2.222538 l 2.374388,0.786862 c 1.05833,0.478558 1.60131,1.049147 1.628941,1.711768 -0.165677,0.303699 -0.414159,0.455549 -0.745448,0.455551 -0.0092,-2e-6 -0.193285,-0.03681 -0.552183,-0.110436 -0.358939,-0.06442 -0.575211,-0.09663 -0.648815,-0.09663 -1.270041,-1e-6 -2.438828,-0.243882 -3.506365,-0.731643 -0.06444,-0.0092 -1.108983,-0.487762 -3.13364,-1.435676 -0.414151,-0.257685 -1.035356,-0.658018 -1.863619,-1.200999 -0.681037,-0.441745 -1.1734,-0.860483 -1.47709,-1.256217 -0.11965,-0.0092 -0.285305,-0.04141 -0.496965,-0.09663 -0.303711,-0.469353 -1.150391,-1.127371 -2.540044,-1.974056 -1.168794,-0.727036 -1.753187,-1.759351 -1.753182,-2.182698 0.05521,-0.138039 0.230071,-0.118059 0.524574,-0.85431 1.831401,-0.395723 4.159771,-0.938703 6.98512,-1.628941 0.285281,-0.05521 0.984713,-0.216262 2.098296,-0.48316 0.717823,-0.174848 1.969437,-0.865077 3.754847,-2.070688 2.236322,-1.518491 3.354492,-2.779308 3.354514,-3.782456 -2.2e-5,-0.89268 -0.391151,-1.7071493 -1.17339,-2.4434113 C 25.532944,8.4643822 24.575827,8.0042298 23.44387,7.8293523 22.919278,7.6177019 22.601773,7.5118668 22.491354,7.5118468 c -0.184078,2e-5 -0.524591,-0.00458 -1.02154,-0.013804 -0.607417,-0.00918 -1.09978,-0.013785 -1.47709,-0.013805 l -1.684159,-0.013805 c -0.128856,2e-5 -0.193277,0.013825 -0.193264,0.041414 -1.3e-5,0.092051 -0.01382,0.1518703 -0.04141,0.1794596 -0.257698,-0.00918 -0.492376,-0.013785 -0.704034,-0.013804 -0.635022,1.98e-5 -1.053761,0.027629 -1.256217,0.082827 -0.45096,0.1380654 -1.196407,0.4233598 -2.236343,0.8558842 -0.524582,0.1380645 -1.177998,0.3221255 -1.960251,0.5521833 -0.681031,0.3037189 -1.067559,0.6028179 -1.159585,0.8972981 -0.542985,1.767002 -1.2980108,3.708241 -1.4912706,6.128631 0.036808,0.496976 0.055214,0.799102 0.055218,1.820632 -4.2e-6,0.165664 -4.2e-6,0.340521 0,0.524574 -0.064426,0.147257 -0.1610575,0.381935 -0.2898962,0.704034 -0.1932679,0.874297 -0.2898999,1.642751 -0.2898963,2.305365 -3.6e-6,0.174863 0.0046,0.340518 0.013805,0.496965 l 0.082828,0.869689 c 0.027605,0.34972 0.04141,0.855887 0.041414,1.518504 -3.8e-6,1.435678 -0.2714937,2.153516 -0.8144705,2.153515 -2.9e-6,1e-6 -0.1978684,-0.06902 -0.5935971,-0.207068 C 7.0850602,26.233287 6.8595855,26.159663 6.7951659,26.159662 6.6019002,25.138125 6.5052682,23.435561 6.5052696,21.051966 c -1.4e-6,-0.09202 0.078224,-0.846674 0.234678,-2.263951 0.2024654,-1.932632 0.3911278,-3.017018 0.5659879,-4.167411 0.1932618,-0.625795 0.7780316,-1.218787 0.9805014,-2.083889 v -0.66262 c -0.1380485,-0.13803 -0.2254774,-0.211654 -0.2622871,-0.220873 -2.5e-6,1.6e-5 -0.1426497,0.06904 -0.4279421,0.207069 C 7.3201142,11.989149 7.1498579,12.05357 7.0854381,12.053555 6.9105786,12.05357 6.7495253,11.887916 6.6022777,11.55659 6.5010431,11.344936 6.4504263,11.165476 6.4504273,11.018211 6.4504263,10.033502 6.7219162,9.2328365 7.2648977,8.6162136 7.6422209,8.1928923 8.4750966,7.539476 9.7635274,6.6559627 9.9015688,6.563953 11.097965,6.2970647 13.352719,5.8552968 c 2.309957,-0.4325216 3.883678,-0.6487932 4.721168,-0.6488154 1.840597,2.22e-5 3.598378,0.08285 5.273351,0.2484825 0.119622,0.1012555 0.322089,0.193286 0.607402,0.2760916 0.874271,0.00922 1.905012,0.4923848 3.092226,1.4494813 1.187172,0.9571372 1.8774,1.8544342 2.070688,2.6918939 -2.4e-5,0.018424 0.0644,0.1610713 0.193264,0.4279423 0.128819,0.266905 0.19324,0.414154 0.193264,0.441746 -2.4e-5,0.03683 0.03219,0.243898 0.09663,0.621207 0.05519,0.395747 0.0828,0.612018 0.08283,0.648815"
         id="path5-6" />
    </g>
  </g>
</svg>
