<?xml version="1.0" encoding="UTF-8" standalone="no"?>
<svg
   width="62"
   height="62"
   viewBox="0 0 62 62"
   version="1.1"
   id="svg3"
   sodipodi:docname="renoise3.svg"
   inkscape:version="1.4 (unknown)"
   xmlns:inkscape="http://www.inkscape.org/namespaces/inkscape"
   xmlns:sodipodi="http://sodipodi.sourceforge.net/DTD/sodipodi-0.dtd"
   xmlns:xlink="http://www.w3.org/1999/xlink"
   xmlns="http://www.w3.org/2000/svg"
   xmlns:svg="http://www.w3.org/2000/svg">
  <sodipodi:namedview
     id="namedview3"
     pagecolor="#ffffff"
     bordercolor="#000000"
     borderopacity="0.25"
     inkscape:showpageshadow="2"
     inkscape:pageopacity="0.0"
     inkscape:pagecheckerboard="0"
     inkscape:deskcolor="#d1d1d1"
     inkscape:zoom="12.109375"
     inkscape:cx="32"
     inkscape:cy="32"
     inkscape:window-width="1920"
     inkscape:window-height="998"
     inkscape:window-x="0"
     inkscape:window-y="0"
     inkscape:window-maximized="1"
     inkscape:current-layer="svg3" />
  <defs
     id="defs2">
    <linearGradient
       id="linear0"
       x1="0"
       x2="0"
       y1="0"
       y2="1">
      <stop
         offset="0%"
         style="stop-color:#24dbdb; stop-opacity:1"
         id="stop1" />
      <stop
         offset="100%"
         style="stop-color:#174475; stop-opacity:1"
         id="stop2" />
    </linearGradient>
    <linearGradient
       inkscape:collect="always"
       xlink:href="#linear0"
       id="linearGradient3"
       x1="3.4338436"
       y1="3.3661511"
       x2="3.4338436"
       y2="35.701"
       gradientTransform="matrix(0.63362843,0,0,1.578212,0,-0.320312)"
       gradientUnits="userSpaceOnUse" />
    <linearGradient
       inkscape:collect="always"
       xlink:href="#linear0"
       id="linearGradient4"
       x1="18.453175"
       y1="4.5842619"
       x2="18.453175"
       y2="53.350327"
       gradientTransform="scale(0.9182871,1.088984)"
       gradientUnits="userSpaceOnUse" />
  </defs>
  <g
     id="surface1"
     transform="matrix(0.97395868,0,0,0.97918354,-0.11912082,0.11173161)">
    <path
       style="fill:url(#linearGradient3);fill-rule:nonzero;stroke:none"
       d="M 2.175781,13.496094 15.835938,4.9921881 h 6.828124 V 56.023438 H 15.835938 L 2.175781,47.515626 Z m 0,0"
       id="path2" />
    <path
       style="fill:url(#linearGradient4);fill-rule:nonzero;stroke:none"
       d="M 44.933594,58.097656 H 61.726562 V 40.394531 c 0,-8.851562 -11.195312,-8.851562 -11.195312,-8.851562 0,0 11.195312,0 11.195312,-8.847657 V 13.84375 c 0,-4.425781 -5.597656,-8.851562 -11.195312,-8.851562 H 16.945312 v 8.851562 h 16.792969 c 5.597657,0 11.195313,0 11.195313,6.636719 0,6.640625 -5.597656,6.640625 -11.195313,6.640625 H 16.945312 v 8.847656 h 16.792969 c 5.597657,0 11.195313,4.425781 11.195313,8.851562 z m 0,0"
       id="path3" />
  </g>
</svg>
