<?xml version="1.0" encoding="UTF-8" standalone="no"?>
<svg
   width="62"
   height="62"
   version="1.1"
   id="svg5"
   sodipodi:docname="rescuetime.svg"
   inkscape:version="1.4 (unknown)"
   xmlns:inkscape="http://www.inkscape.org/namespaces/inkscape"
   xmlns:sodipodi="http://sodipodi.sourceforge.net/DTD/sodipodi-0.dtd"
   xmlns:xlink="http://www.w3.org/1999/xlink"
   xmlns="http://www.w3.org/2000/svg"
   xmlns:svg="http://www.w3.org/2000/svg">
  <defs
     id="defs5">
    <linearGradient
       id="linearGradient1"
       inkscape:collect="always">
      <stop
         style="stop-color:#2e3b52;stop-opacity:1;"
         offset="0"
         id="stop1" />
      <stop
         style="stop-color:#415071;stop-opacity:1;"
         offset="1"
         id="stop2" />
    </linearGradient>
    <linearGradient
       id="paint2_linear_345_601"
       x1="29.406401"
       y1="30.4872"
       x2="29.406401"
       y2="6.7002001"
       gradientUnits="userSpaceOnUse"
       gradientTransform="matrix(0.92487499,0,0,0.92487499,8.4232483,8.8382413)">
      <stop
         stop-color="#EC396C"
         id="stop8" />
      <stop
         offset="1"
         stop-color="#FF709A"
         id="stop9" />
    </linearGradient>
    <linearGradient
       inkscape:collect="always"
       xlink:href="#linearGradient1"
       id="linearGradient2"
       x1="31.5"
       y1="59.017544"
       x2="31.5"
       y2="4.9824562"
       gradientUnits="userSpaceOnUse" />
  </defs>
  <sodipodi:namedview
     id="namedview5"
     pagecolor="#ffffff"
     bordercolor="#000000"
     borderopacity="0.25"
     inkscape:showpageshadow="2"
     inkscape:pageopacity="0.0"
     inkscape:pagecheckerboard="0"
     inkscape:deskcolor="#d1d1d1"
     inkscape:zoom="8.2643105"
     inkscape:cx="9.982684"
     inkscape:cy="23.655936"
     inkscape:window-width="1920"
     inkscape:window-height="998"
     inkscape:window-x="0"
     inkscape:window-y="0"
     inkscape:window-maximized="1"
     inkscape:current-layer="svg5" />
  <rect
     style="opacity:0.2;stroke-width:0.9823"
     width="55"
     height="55.017544"
     x="4"
     y="4.9824562"
     rx="8.25"
     ry="8.2526312"
     id="rect1" />
  <rect
     style="fill:url(#linearGradient2);stroke-width:0.9823"
     width="55"
     height="55.017544"
     x="4"
     y="4"
     rx="8.25"
     ry="8.2526312"
     id="rect2" />
  <path
     style="opacity:0.1;fill:#ffffff;stroke-width:0.9823"
     d="M 12.248466,4 C 7.6779652,4 4,7.6791384 4,12.251097 v 0.982456 C 4,8.6615945 7.6779652,4.9824561 12.248466,4.9824561 H 50.751534 C 55.322034,4.9824561 59,8.6615945 59,13.233553 V 12.251097 C 59,7.6791384 55.322034,4 50.751534,4 Z"
     id="path4" />
  <rect
     style="fill:#f2f2f2;fill-opacity:1;stroke-width:0.699087"
     width="16.714285"
     height="39.298229"
     x="22.642855"
     y="12"
     rx="2.0892856"
     ry="1.9649117"
     id="rect1-3" />
  <rect
     style="fill:#f2f2f2;fill-opacity:1;stroke-width:0.699087"
     width="16.842106"
     height="38.999985"
     x="23.228069"
     y="-50.499989"
     rx="2.1052632"
     ry="1.9499993"
     transform="rotate(90)"
     id="rect2-6" />
  <path
     style="opacity:0.2;stroke-width:0.699087"
     d="m 11.500008,37.964914 v 0.701752 c 0,1.166363 0.870242,2.105267 1.950544,2.105267 h 9.192311 v -0.701757 h -9.192311 c -1.080302,0 -1.950544,-0.938903 -1.950544,-2.105262 z m 38.999996,0 c 0,1.166359 -0.871082,2.105262 -1.950544,2.105262 h -9.192314 v 0.701757 h 9.192314 c 1.079462,0 1.950544,-0.938904 1.950544,-2.105267 z M 22.642863,49.332785 v 0.701756 c 0,1.087762 0.931822,1.96546 2.089284,1.96546 h 12.535716 c 1.157461,0 2.089283,-0.876845 2.089283,-1.96546 v -0.701756 c 0,1.08861 -0.931822,1.96546 -2.089283,1.96546 H 24.732147 c -1.157462,0 -2.089284,-0.877699 -2.089284,-1.96546 z"
     id="path6" />
  <path
     style="opacity:0.2;fill:#ffffff;stroke-width:0.699087"
     d="m 24.732147,12.000001 c -1.157444,0 -2.089284,0.876916 -2.089284,1.96546 v 0.701756 c 0,-1.088543 0.93184,-1.96546 2.089284,-1.96546 h 12.535716 c 1.157448,0 2.089283,0.876917 2.089283,1.96546 v -0.701756 c 0,-1.088544 -0.931835,-1.96546 -2.089283,-1.96546 z m -11.281595,11.22807 c -1.080284,0 -1.950544,0.938963 -1.950544,2.105263 v 0.701754 c 0,-1.1663 0.87026,-2.105264 1.950544,-2.105264 h 9.192311 v -0.701753 z m 25.906594,0 v 0.701753 h 9.192314 c 1.079444,0 1.950544,0.938964 1.950544,2.105264 v -0.701754 c 0,-1.1663 -0.8711,-2.105263 -1.950544,-2.105263 z"
     id="path7" />
  <path
     fill-rule="evenodd"
     clip-rule="evenodd"
     d="m 32.499247,24.687794 c 0,0.392056 0.250446,0.735179 0.603565,0.905448 1.222414,0.589608 2.214338,1.581532 2.803947,2.803946 0.170268,0.353119 0.513402,0.603565 0.905447,0.603565 h 7.687286 c 1.10431,0 2.000508,0.896215 2.000508,1.99958 0,1.103382 -0.896198,1.99958 -2.000508,1.99958 h -7.687369 c -0.391962,0 -0.735096,0.250546 -0.905364,0.603582 C 34.937394,35.613246 32.880478,37 30.499667,37 27.186207,37 24.5,34.313892 24.5,31.000333 c 0,-2.380811 1.386765,-4.437644 3.396505,-5.406998 0.353036,-0.170362 0.603582,-0.513485 0.603582,-0.905458 V 17.000505 C 28.500087,15.896204 29.396285,15 30.499667,15 c 1.10337,0 1.99958,0.896204 1.99958,2.000505 z"
     id="path4-7"
     style="fill:#ff5555" />
</svg>
