<?xml version="1.0" encoding="UTF-8" standalone="no"?>
<svg
   width="62"
   height="62"
   version="1.1"
   id="svg29"
   sodipodi:docname="riot-web.svg"
   inkscape:version="1.4 (unknown)"
   xml:space="preserve"
   xmlns:inkscape="http://www.inkscape.org/namespaces/inkscape"
   xmlns:sodipodi="http://sodipodi.sourceforge.net/DTD/sodipodi-0.dtd"
   xmlns:xlink="http://www.w3.org/1999/xlink"
   xmlns="http://www.w3.org/2000/svg"
   xmlns:svg="http://www.w3.org/2000/svg"><defs
     id="defs29"><linearGradient
       id="linearGradient29"
       inkscape:collect="always"><stop
         style="stop-color:#d3dce7;stop-opacity:1;"
         offset="0"
         id="stop29" /><stop
         style="stop-color:#eef1f6;stop-opacity:1;"
         offset="1"
         id="stop30" /></linearGradient><linearGradient
       inkscape:collect="always"
       xlink:href="#linearGradient29"
       id="linearGradient30"
       x1="30.782633"
       y1="60"
       x2="30.193521"
       y2="5"
       gradientUnits="userSpaceOnUse"
       gradientTransform="matrix(0.98214286,0,0,0.98245614,-0.42857152,-0.92982455)" /><linearGradient
       id="linearGradient3564"><stop
         style="stop-color:#b20607;stop-opacity:1;"
         offset="0"
         id="stop3566" /><stop
         style="stop-color:#b20607;stop-opacity:0;"
         offset="1"
         id="stop3568" /></linearGradient><linearGradient
       id="linearGradient3570"><stop
         style="stop-color:#fdea20;stop-opacity:1;"
         offset="0"
         id="stop3572" /><stop
         style="stop-color:#e9680a;stop-opacity:1;"
         offset="1"
         id="stop3574" /></linearGradient><linearGradient
       id="linearGradient3409"><stop
         style="stop-color:#fbd90a;stop-opacity:1;"
         offset="0"
         id="stop3411" /><stop
         id="stop3413"
         offset="0.3980374"
         style="stop-color:#fbd90a;stop-opacity:1;" /><stop
         style="stop-color:#df500a;stop-opacity:1;"
         offset="1"
         id="stop3415" /></linearGradient><linearGradient
       id="linearGradient4029"><stop
         style="stop-color:#fbd90a;stop-opacity:1;"
         offset="0"
         id="stop4031" /><stop
         id="stop4033"
         offset="0.40341854"
         style="stop-color:#fbd90a;stop-opacity:1;" /><stop
         style="stop-color:#df500a;stop-opacity:1;"
         offset="1"
         id="stop4035" /></linearGradient><linearGradient
       id="linearGradient3355"><stop
         id="stop3357"
         offset="0"
         style="stop-color:#fbd90a;stop-opacity:1;" /><stop
         style="stop-color:#fbd90a;stop-opacity:1;"
         offset="0.61271751"
         id="stop3359" /><stop
         id="stop3361"
         offset="1"
         style="stop-color:#df500a;stop-opacity:1;" /></linearGradient><linearGradient
       id="linearGradient3323"><stop
         style="stop-color:#fbd90a;stop-opacity:1;"
         offset="0"
         id="stop3325" /><stop
         id="stop3345"
         offset="0.67312354"
         style="stop-color:#fbd90a;stop-opacity:1;" /><stop
         style="stop-color:#df500a;stop-opacity:1;"
         offset="1"
         id="stop3327" /></linearGradient><linearGradient
       id="linearGradient3681"><stop
         style="stop-color:#b3b3b3;stop-opacity:1;"
         offset="0"
         id="stop3683" /><stop
         style="stop-color:#ffffff;stop-opacity:1;"
         offset="1"
         id="stop3685" /></linearGradient><linearGradient
       id="a"
       x1="34.495998"
       x2="34.495998"
       y1="49.313999"
       y2="11.31"
       gradientUnits="userSpaceOnUse"
       gradientTransform="matrix(0.9999,0,0,0.9999,-13.492051,52.691906)"><stop
         offset="0"
         stop-color="#aef4f4"
         id="stop3" /><stop
         offset="1"
         stop-color="#a2ddef"
         id="stop4" /></linearGradient><linearGradient
       id="b"
       x1="32"
       x2="32"
       y1="50.998001"
       y2="12.999"
       gradientTransform="matrix(1.4999,0,0,1.4999,-591.80905,-702.63909)"
       gradientUnits="userSpaceOnUse"><stop
         offset="0"
         stop-color="#1db7f3"
         id="stop1" /><stop
         offset="1"
         stop-color="#2274d5"
         id="stop2" /></linearGradient><filter
       id="c"
       width="1.1579167"
       height="1.1112607"
       x="-0.078958346"
       y="-0.055630359"
       color-interpolation-filters="sRGB"><feGaussianBlur
         stdDeviation=".68"
         id="feGaussianBlur4" /></filter></defs><sodipodi:namedview
     id="namedview29"
     pagecolor="#ffffff"
     bordercolor="#000000"
     borderopacity="0.25"
     inkscape:showpageshadow="2"
     inkscape:pageopacity="0.0"
     inkscape:pagecheckerboard="0"
     inkscape:deskcolor="#d1d1d1"
     inkscape:zoom="7.0710678"
     inkscape:cx="20.576807"
     inkscape:cy="48.719657"
     inkscape:window-width="1920"
     inkscape:window-height="998"
     inkscape:window-x="0"
     inkscape:window-y="0"
     inkscape:window-maximized="1"
     inkscape:current-layer="svg29" /><rect
     style="opacity:0.2;stroke-width:0.9823"
     width="55"
     height="55.017544"
     x="3.5"
     y="3.9824562"
     ry="13.754386"
     id="rect1" /><rect
     style="fill:url(#linearGradient30);stroke-width:0.9823"
     width="55"
     height="55.017544"
     x="3.5"
     y="3"
     ry="13.754386"
     id="rect2" /><path
     style="opacity:0.1;fill:#ffffff;stroke-width:0.9823"
     d="M 17.25,3 C 9.6324999,3 3.4999999,9.1344561 3.4999999,16.754386 v 0.982456 c 0,-7.61993 6.1325,-13.7543858 13.7500001,-13.7543858 h 27.5 c 7.6175,0 13.75,6.1344558 13.75,13.7543858 V 16.754386 C 58.5,9.1344561 52.3675,3 44.75,3 Z"
     id="path28" /><g
     id="g2"
     transform="matrix(0.99996668,0,0,0.99929997,10.000201,-51.955198)"><path
       fill="url(#a)"
       d="m 11.667433,64.000775 c 0.08499,3.789621 -1.8778124,5.666433 -5.6664335,5.666433 v 26.567343 a 5.6854314,5.6854314 0 1 0 11.3688625,0 v -4.90051 h 4.895511 c 7.586241,0 13.735626,-6.080392 13.735626,-13.666633 0,-7.587241 -6.149385,-13.641635 -13.735626,-13.641635 z m 5.666433,10.666933 h 4.769523 c 1.90481,0 3.230677,1.367863 3.230677,3.333667 0,1.965803 -1.325867,3.332667 -3.229677,3.332667 h -4.769523 z"
       id="path6"
       style="fill:url(#a);stroke-width:0.9999" /><path
       fill="#001851"
       d="m 11.659949,68.667906 a 0.943,0.943 0 0 0 -0.925,0.958 v 27.415 c -0.018,1.279 1.897,1.279 1.879,0 v -10.398 h 9.863 c 4.93,0 8.925,-4.02 8.925,-8.981 0,-4.961 -3.996,-8.981 -8.925,-8.981 h -10.658 a 1,1 0 0 0 -0.16,-0.013 z m 0.954,1.903 h 9.863 c 3.914,0 7.046,3.152 7.046,7.09 0,3.938 -3.132,7.091 -7.046,7.091 h -9.863 z"
       opacity="0.3"
       id="path7" /><path
       fill="url(#b)"
       fill-rule="evenodd"
       d="m 11.566949,64.000906 a 5.63,5.63 0 0 0 -3.148,1.023 5.63,5.63 0 0 0 -2.33,3.659 5.63,5.63 0 0 0 0.937,4.236 5.67,5.67 0 0 0 7.89,1.393 5.64,5.64 0 0 0 2.33,-3.66 5.63,5.63 0 0 0 -0.939,-4.235 5.66,5.66 0 0 0 -4.74,-2.416 m 12.271,17.332 a 5.67,5.67 0 0 0 -3.287,1.025 5.667,5.667 0 0 0 -1.393,7.893 l 6.534,9.332 a 5.667,5.667 0 0 0 7.89,1.393004 5.667,5.667 0 0 0 1.395,-7.891004 l -6.536,-9.334 a 5.67,5.67 0 0 0 -4.603,-2.418"
       id="path8"
       style="fill:url(#b)" /><g
       filter="url(#c)"
       opacity="0.15"
       transform="matrix(0.9999,0,0,0.9999,-13.492051,52.691906)"
       id="g9"><path
         d="m 25.154,15.977 a 0.943,0.943 0 0 0 -0.925,0.958 v 27.42 c -0.018,1.278 1.897,1.278 1.88,0 v -10.4 h 9.864 c 4.929,0 8.925,-4.022 8.925,-8.983 0,-4.961 -3.996,-8.982 -8.925,-8.982 h -10.66 a 1,1 0 0 0 -0.159,-0.013 m 0.954,1.904 h 9.865 c 3.913,0 7.046,3.152 7.046,7.091 0,3.939 -3.132,7.091 -7.046,7.091 h -9.865 z"
         opacity="0.3"
         id="path9" /></g></g></svg>
