<?xml version="1.0" encoding="UTF-8" standalone="no"?>
<svg
   width="62"
   height="62"
   version="1"
   id="svg7"
   sodipodi:docname="ring.svg"
   inkscape:version="1.4 (unknown)"
   xmlns:inkscape="http://www.inkscape.org/namespaces/inkscape"
   xmlns:sodipodi="http://sodipodi.sourceforge.net/DTD/sodipodi-0.dtd"
   xmlns:xlink="http://www.w3.org/1999/xlink"
   xmlns="http://www.w3.org/2000/svg"
   xmlns:svg="http://www.w3.org/2000/svg">
  <defs
     id="defs7">
    <linearGradient
       id="linearGradient7"
       inkscape:collect="always">
      <stop
         style="stop-color:#384850;stop-opacity:1;"
         offset="0"
         id="stop8" />
      <stop
         style="stop-color:#384850;stop-opacity:1;"
         offset="0.59162253"
         id="stop10" />
      <stop
         style="stop-color:#eff2f6;stop-opacity:1;"
         offset="0.92173076"
         id="stop11" />
      <stop
         style="stop-color:#eff2f6;stop-opacity:1;"
         offset="1"
         id="stop9" />
    </linearGradient>
    <linearGradient
       id="linearGradient1"
       inkscape:collect="always">
      <stop
         style="stop-color:#b7c3cf;stop-opacity:1;"
         offset="0"
         id="stop5" />
      <stop
         style="stop-color:#bbc7d1;stop-opacity:1;"
         offset="0.51019794"
         id="stop7" />
      <stop
         style="stop-color:#b6bec8;stop-opacity:1;"
         offset="1"
         id="stop6" />
    </linearGradient>
    <linearGradient
       id="c-3"
       gradientUnits="userSpaceOnUse"
       x1="24.072048"
       x2="23.959682"
       y1="0.75082099"
       y2="46.056854">
      <stop
         offset="0"
         stop-color="#fff"
         id="stop3" />
      <stop
         offset="1"
         stop-color="#d9d9d9"
         id="stop4" />
    </linearGradient>
    <linearGradient
       id="b-6"
       gradientUnits="userSpaceOnUse"
       x1="29.203026"
       x2="34.121048"
       xlink:href="#a-7"
       y1="24.827356"
       y2="29.224836" />
    <linearGradient
       id="a-7">
      <stop
         offset="0"
         id="stop1" />
      <stop
         offset="1"
         stop-opacity="0"
         id="stop2" />
    </linearGradient>
    <linearGradient
       id="d"
       gradientUnits="userSpaceOnUse"
       x1="15.948756"
       x2="25.031786"
       xlink:href="#a-7"
       y1="23.618279"
       y2="33.69899" />
    <linearGradient
       id="e"
       gradientUnits="userSpaceOnUse"
       x1="21.990562"
       x2="29.320522"
       xlink:href="#a-7"
       y1="33.780373"
       y2="41.931858" />
    <linearGradient
       id="paint154_linear_890_11"
       x1="778"
       y1="812.29199"
       x2="788"
       y2="812.29199"
       gradientUnits="userSpaceOnUse"
       gradientTransform="translate(-751,-696)">
      <stop
         stop-color="#EFF2F6"
         id="stop1050" />
      <stop
         offset="0.600785"
         stop-color="#B7C6CD"
         id="stop1051" />
    </linearGradient>
    <linearGradient
       id="paint155_linear_890_11"
       x1="783"
       y1="813"
       x2="783"
       y2="817"
       gradientUnits="userSpaceOnUse"
       gradientTransform="translate(-751,-696)">
      <stop
         stop-color="#EFF2F6"
         id="stop1052" />
      <stop
         offset="0.734138"
         stop-color="#B7C6CD"
         id="stop1053" />
    </linearGradient>
    <radialGradient
       id="paint156_radial_890_11"
       cx="0"
       cy="0"
       r="1"
       gradientUnits="userSpaceOnUse"
       gradientTransform="matrix(27.999986,27.999976,-27.999986,27.999976,32.302392,33.999998)">
      <stop
         offset="0.60067803"
         stop-color="#B7C6CD"
         id="stop1054"
         style="stop-color:#384850;stop-opacity:1;" />
      <stop
         offset="0.876735"
         stop-color="#EFF2F6"
         id="stop1055" />
    </radialGradient>
    <linearGradient
       id="paint157_linear_890_11"
       x1="796.84485"
       y1="799.43359"
       x2="768.90088"
       y2="770.81476"
       gradientUnits="userSpaceOnUse"
       gradientTransform="matrix(1.1666666,0,0,1.1666668,-881.19764,-881.8333)">
      <stop
         offset="0.00000057"
         stop-color="#2E2E41"
         id="stop1056"
         style="stop-color:#495361;stop-opacity:1;" />
      <stop
         offset="0.711139"
         stop-color="#566C80"
         id="stop1057" />
    </linearGradient>
    <linearGradient
       id="paint158_linear_890_11"
       x1="792"
       y1="794"
       x2="774"
       y2="776"
       gradientUnits="userSpaceOnUse"
       gradientTransform="translate(-751,-696)">
      <stop
         offset="0.304478"
         stop-color="#2E2E41"
         id="stop1058" />
      <stop
         offset="1"
         stop-color="#566C80"
         id="stop1059" />
    </linearGradient>
    <linearGradient
       id="paint159_linear_890_11"
       x1="788"
       y1="790"
       x2="778"
       y2="780"
       gradientUnits="userSpaceOnUse"
       gradientTransform="translate(-751,-696)">
      <stop
         offset="0.391394"
         stop-color="#5200FF"
         id="stop1060" />
      <stop
         offset="1"
         stop-color="#0085FF"
         id="stop1061" />
    </linearGradient>
    <linearGradient
       id="paint160_linear_890_11"
       x1="784"
       y1="798"
       x2="782"
       y2="796"
       gradientUnits="userSpaceOnUse"
       gradientTransform="translate(-751,-696)">
      <stop
         stop-color="#FF7E07"
         id="stop1062" />
      <stop
         offset="1"
         stop-color="#FFE607"
         id="stop1063" />
    </linearGradient>
    <linearGradient
       inkscape:collect="always"
       xlink:href="#linearGradient1"
       id="linearGradient6"
       x1="17.408081"
       y1="16.037786"
       x2="49.155514"
       y2="50.137749"
       gradientUnits="userSpaceOnUse" />
    <radialGradient
       inkscape:collect="always"
       xlink:href="#linearGradient7"
       id="radialGradient9"
       cx="32.302387"
       cy="34"
       fx="32.302387"
       fy="34"
       r="28"
       gradientUnits="userSpaceOnUse"
       gradientTransform="matrix(0.99999999,1,-1,0.99999999,34,-32.302387)" />
  </defs>
  <sodipodi:namedview
     id="namedview7"
     pagecolor="#ffffff"
     bordercolor="#000000"
     borderopacity="0.25"
     inkscape:showpageshadow="2"
     inkscape:pageopacity="0.0"
     inkscape:pagecheckerboard="0"
     inkscape:deskcolor="#d1d1d1"
     inkscape:zoom="11.78125"
     inkscape:cx="32.551724"
     inkscape:cy="35.692308"
     inkscape:window-width="1920"
     inkscape:window-height="998"
     inkscape:window-x="0"
     inkscape:window-y="0"
     inkscape:window-maximized="1"
     inkscape:current-layer="svg7" />
  <g
     id="g1"
     transform="translate(-1.3023872,-3)">
    <path
       d="m 60.302387,34 c 0,15.46415 -12.535828,28 -28.000002,28 C 16.838222,62 4.3023873,49.46415 4.3023873,34 4.3023873,18.535835 16.838222,6 32.302385,6 47.766559,6 60.302387,18.535835 60.302387,34 Z"
       id="path154"
       style="fill:url(#radialGradient9)" />
    <path
       d="m 55.63572,34 c 0,12.88701 -10.446332,23.33332 -23.333335,23.33332 C 19.415386,57.33332 8.9690543,46.88701 8.9690543,34 c 0,-12.886994 10.4463317,-23.333332 23.3333307,-23.333332 12.887003,0 23.333335,10.446338 23.333335,23.333332 z"
       id="path155"
       style="fill:url(#linearGradient6)" />
  </g>
  <path
     style="fill:#2b3c54;fill-opacity:1;stroke-width:1.11348"
     d="M 29.301839,54.354042 C 26.001456,54.006448 23.533112,53.346744 20.982059,52.13048 14.312791,48.950792 9.5251771,42.855792 8.0787634,35.703667 c -0.6163609,-3.047837 -0.6163609,-6.36567 0,-9.413491 1.7739992,-8.771904 8.5328856,-15.809823 17.2821206,-17.9955225 2.745187,-0.6857864 6.274581,-0.8704333 8.921863,-0.4667521 11.047067,1.6845781 19.18666,10.4406556 20.03697,21.5544926 0.50633,6.617983 -2.024106,13.382317 -6.788065,18.145781 -3.547339,3.546951 -8.157447,5.868806 -13.139438,6.617578 -1.135413,0.170656 -4.24116,0.297728 -5.090375,0.208283 z M 44.56098,44.894448 c 1.798586,-1.784245 3.016802,-3.437147 4.114099,-5.582128 0.602569,-1.177916 1.431736,-3.422568 1.326916,-3.592172 -0.03012,-0.04893 -0.323399,-0.148995 -0.651529,-0.222398 -0.467108,-0.104522 -0.608775,-0.185773 -0.652675,-0.374264 -0.03099,-0.132435 -0.111773,-0.511693 -0.179825,-0.842806 -0.117257,-0.570605 -0.159347,-0.62608 -0.806154,-1.062806 -0.668306,-0.451284 -0.703753,-0.461428 -1.719026,-0.49257 l -1.036639,-0.03178 -0.03385,-0.410463 -0.03384,-0.410469 h -5.002888 -5.002866 l -0.48828,0.611859 c -0.508055,0.636619 -1.606661,1.574676 -2.115864,1.80667 l -0.294508,0.13414 v 1.765731 1.765693 l 0.491398,0.482202 0.491381,0.482201 -0.06066,0.717278 c -0.0508,0.600345 -0.02433,0.774799 0.162027,1.070076 0.122933,0.194721 0.356469,0.386357 0.521169,0.427711 0.164194,0.04129 0.832088,-0.01339 1.484361,-0.122935 0.969065,-0.161685 1.264695,-0.174225 1.616743,-0.06889 0.463104,0.13881 0.767138,0.47046 0.767138,0.837044 0,0.372186 -0.603534,1.211694 -1.192861,1.659236 -0.302389,0.229667 -0.539488,0.487501 -0.526874,0.572975 0.04369,0.29687 0.941693,0.665542 1.620963,0.665542 0.558219,0 0.77303,-0.0737 1.816426,-0.622555 1.739996,-0.915422 2.516281,-0.871039 2.956302,0.169027 0.164556,0.388907 0.214532,2.21882 0.07079,2.593232 -0.119618,0.311841 1.142507,-0.718001 2.358749,-1.924557 z m -24.956225,1.563548 c -0.05241,-0.225763 -0.09651,-0.755271 -0.09775,-1.176674 -0.003,-0.940386 0.224834,-1.454725 0.763513,-1.723816 0.755736,-0.37749 1.367251,-0.210897 2.688141,0.732356 0.7861,0.5614 1.324783,0.581266 2.379313,0.08792 0.403963,-0.189023 0.7345,-0.365085 0.7345,-0.391237 0,-0.02632 -0.222039,-0.287338 -0.49338,-0.580416 -0.88604,-0.956936 -1.185379,-1.964212 -0.711242,-2.393249 0.19555,-0.17697 0.336337,-0.188383 1.340996,-0.108716 0.617389,0.04883 1.441813,0.09337 1.832059,0.09869 0.677284,0.0094 0.716384,-0.0048 0.860789,-0.30473 0.130649,-0.271585 0.12714,-0.412708 -0.02666,-1.035145 l -0.177844,-0.720715 0.548601,-0.555447 0.548602,-0.555451 V 36.42746 c 0,-1.256917 -0.01893,-1.396638 -0.179734,-1.33489 -0.09884,0.03789 -2.729412,1.49627 -5.845664,3.240755 -3.116229,1.744478 -5.695472,3.171793 -5.731644,3.171793 -0.03629,0 -0.06581,-0.172423 -0.06581,-0.383135 0,-0.210689 -0.02306,-0.383105 -0.0511,-0.383105 -0.100403,0 -2.851541,1.2201 -2.934628,1.301494 -0.211473,0.207113 1.941872,2.562781 3.674091,4.019304 0.529099,0.444915 0.979574,0.808921 1.001057,0.808921 0.02148,0 -0.003,-0.18473 -0.05626,-0.410482 z M 19.395219,37.93895 c 2.769334,-1.78069 5.035134,-3.264947 5.035134,-3.298312 0,-0.03338 -0.381771,-0.668949 -0.848399,-1.412348 l -0.848388,-1.351626 -2.764133,-0.0014 -2.764143,-0.0014 v 0.437843 0.437836 l -1.231546,0.0032 -1.231533,0.0032 -0.790189,1.136521 c -0.64729,0.930995 -0.891671,1.191733 -1.351315,1.44189 -0.560073,0.30479 -0.561025,0.306243 -0.490932,0.747572 0.110424,0.695563 0.774262,2.588571 1.213682,3.461005 0.389432,0.773217 0.91384,1.633206 0.9959,1.633206 0.02245,0 2.30651,-1.456943 5.075862,-3.237642 z m 7.072518,-4.431816 c 0.505086,-0.305051 0.918359,-0.574656 0.918359,-0.599104 0,-0.02432 -0.108399,-0.267426 -0.240765,-0.539953 l -0.24076,-0.495483 h -1.454526 -1.454522 l 0.669836,1.094568 c 0.368401,0.602044 0.718026,1.094611 0.776928,1.094611 0.05907,0 0.520378,-0.249592 1.02545,-0.554639 z m 1.172005,-4.312226 c 0.365519,-0.57851 1.395202,-1.54581 1.903513,-1.788173 l 0.360648,-0.171954 v -5.2885 -5.28849 h -0.371131 -0.371148 l -0.008,-0.948215 c -0.01487,-1.848342 -0.720716,-2.607338 -2.424437,-2.608598 -0.451566,-3.17e-4 -0.971453,0.03321 -1.15532,0.07451 -0.303467,0.0681 -0.358838,0.03539 -0.60057,-0.35574 -0.146493,-0.236948 -0.292708,-0.430803 -0.325031,-0.430803 -0.210406,0 -2.008006,0.777283 -3.064201,1.324972 -1.792362,0.929437 -3.143338,1.927253 -4.652605,3.436377 -1.58574,1.58556 -2.556594,2.920725 -3.502139,4.816305 -0.662079,1.327327 -1.369187,3.218117 -1.369187,3.661198 0,0.118598 0.255609,0.35125 0.66032,0.60102 0.555669,0.34293 0.781614,0.588297 1.425564,1.547987 l 0.76524,1.140456 h 1.146999 1.147002 v 0.383101 0.3831 l 5.063022,-2.25e-4 5.063021,-2.09e-4 0.308399,-0.488119 z m 11.021824,0.434996 c 0,-0.0505 -1.047934,-1.56645 -1.602281,-2.317806 l -0.255484,-0.346311 -1.09675,0.603743 c -0.603215,0.332044 -1.123462,0.646946 -1.156121,0.699779 -0.06343,0.102416 0.04817,0.34498 0.46199,1.003632 l 0.257797,0.410476 h 1.695429 c 0.932484,0 1.69542,-0.02402 1.69542,-0.05335 z m 6.23983,-0.32959 v -0.383122 h 1.047736 1.047724 l 0.754656,-0.675588 c 0.644679,-0.577102 0.764621,-0.742 0.82299,-1.131215 0.09029,-0.603031 0.115429,-0.633177 0.815201,-0.983201 0.331144,-0.165705 0.617227,-0.314503 0.635728,-0.330779 0.148502,-0.130607 -1.697367,-4.211869 -2.218613,-4.905405 -0.140301,-0.186623 -0.457835,-0.01668 -4.784568,2.558466 -2.548903,1.517089 -4.650639,2.77264 -4.670542,2.790103 -0.01977,0.01745 0.263357,0.408646 0.629468,0.869301 l 0.665623,0.837535 v 0.868511 0.868497 h 2.627307 2.62729 z m -10.810232,-3.737943 1.50521,-0.824197 v -0.470187 c 0,-0.385876 0.05112,-0.503713 0.285339,-0.657125 0.279602,-0.183175 0.292554,-0.179989 0.641718,0.158351 l 0.356369,0.345346 3.241435,-2.031796 c 1.782796,-1.117511 3.267446,-2.031822 3.299233,-2.031822 0.03178,0 0.0577,0.221654 0.0577,0.492568 0,0.318777 0.04789,0.492577 0.135625,0.492577 0.173802,0 3.280898,-1.203316 3.409502,-1.320448 0.172405,-0.15701 -0.921431,-1.545791 -2.279135,-2.893712 -1.928279,-1.914445 -3.737688,-3.126004 -6.03843,-4.043261 -1.775153,-0.707729 -1.833231,-0.712874 -2.177115,-0.193277 l -0.284648,0.43006 -1.226952,0.05659 c -1.371192,0.06342 -1.739997,0.185523 -2.04122,0.676415 -0.249412,0.40644 -0.444674,1.404382 -0.444674,2.272569 0,0.606133 -0.01339,0.636642 -0.273682,0.636642 h -0.273674 v 4.977689 4.977687 l 0.301031,-0.11326 c 0.165555,-0.06221 0.978405,-0.484165 1.806284,-0.937464 z"
     id="path3" />
</svg>
