<?xml version="1.0" encoding="UTF-8" standalone="no"?>
<svg
   width="62"
   height="62"
   version="1.1"
   id="svg29"
   sodipodi:docname="rocketchat.svg"
   inkscape:version="1.4 (unknown)"
   xmlns:inkscape="http://www.inkscape.org/namespaces/inkscape"
   xmlns:sodipodi="http://sodipodi.sourceforge.net/DTD/sodipodi-0.dtd"
   xmlns:xlink="http://www.w3.org/1999/xlink"
   xmlns="http://www.w3.org/2000/svg"
   xmlns:svg="http://www.w3.org/2000/svg">
  <defs
     id="defs29">
    <linearGradient
       id="linearGradient1"
       inkscape:collect="always">
      <stop
         style="stop-color:#ff8080;stop-opacity:1"
         offset="0"
         id="stop6" />
      <stop
         style="stop-color:#ff2a2a;stop-opacity:1"
         offset="1"
         id="stop7" />
    </linearGradient>
    <linearGradient
       id="linearGradient29"
       inkscape:collect="always">
      <stop
         style="stop-color:#2d3d53;stop-opacity:1;"
         offset="0"
         id="stop29" />
      <stop
         style="stop-color:#354864;stop-opacity:1;"
         offset="1"
         id="stop30" />
    </linearGradient>
    <linearGradient
       inkscape:collect="always"
       xlink:href="#linearGradient29"
       id="linearGradient30"
       x1="30.782633"
       y1="60"
       x2="30.193521"
       y2="5"
       gradientUnits="userSpaceOnUse"
       gradientTransform="matrix(0.98214286,0,0,0.98245614,-0.42857152,-0.92982455)" />
    <linearGradient
       id="paint1_linear_11_148"
       x1="12.6932"
       y1="20.5312"
       x2="12.6932"
       y2="5.6079102"
       gradientUnits="userSpaceOnUse"
       gradientTransform="matrix(2.6803705,0,0,2.6803705,-3.022395,-3.5399929)">
      <stop
         stop-color="#FD5900"
         id="stop4" />
      <stop
         offset="1"
         stop-color="#FFDE00"
         id="stop5" />
    </linearGradient>
    <linearGradient
       id="linear0"
       x1="0"
       x2="15.457296"
       y1="0.40162264"
       y2="15.858919"
       gradientTransform="matrix(2.3613453,0,0,2.1996089,12.750007,12.625351)"
       gradientUnits="userSpaceOnUse">
      <stop
         offset="0%"
         style="stop-color:#ff0000; stop-opacity:1"
         id="stop1" />
      <stop
         offset="50%"
         style="stop-color:#ffd000; stop-opacity:1"
         id="stop2" />
      <stop
         offset="100%"
         style="stop-color:#ff00bb; stop-opacity:1"
         id="stop3" />
    </linearGradient>
    <linearGradient
       id="linear0-6"
       x1="0"
       x2="0"
       y1="0"
       y2="16"
       gradientUnits="userSpaceOnUse"
       gradientTransform="matrix(2.2500014,0,0,2.2500014,13.000004,13.000032)">
      <stop
         offset="0%"
         style="stop-color:#00b54e; stop-opacity:1"
         id="stop1-7" />
      <stop
         offset="50%"
         style="stop-color:#0073ff; stop-opacity:1"
         id="stop2-5" />
      <stop
         offset="100%"
         style="stop-color:#ffd000; stop-opacity:1"
         id="stop3-3" />
    </linearGradient>
    <linearGradient
       inkscape:collect="always"
       xlink:href="#linearGradient1"
       id="linearGradient7"
       x1="13"
       y1="13"
       x2="49"
       y2="49"
       gradientUnits="userSpaceOnUse" />
  </defs>
  <sodipodi:namedview
     id="namedview29"
     pagecolor="#ffffff"
     bordercolor="#000000"
     borderopacity="0.25"
     inkscape:showpageshadow="2"
     inkscape:pageopacity="0.0"
     inkscape:pagecheckerboard="0"
     inkscape:deskcolor="#d1d1d1"
     inkscape:zoom="7.0710678"
     inkscape:cx="14.990664"
     inkscape:cy="37.264527"
     inkscape:window-width="1920"
     inkscape:window-height="998"
     inkscape:window-x="0"
     inkscape:window-y="0"
     inkscape:window-maximized="1"
     inkscape:current-layer="svg29" />
  <rect
     style="opacity:0.2;stroke-width:0.9823"
     width="55"
     height="55.017544"
     x="3.5"
     y="3.9824562"
     ry="13.754386"
     id="rect1" />
  <rect
     style="fill:url(#linearGradient30);stroke-width:0.9823"
     width="55"
     height="55.017544"
     x="3.5"
     y="3"
     ry="13.754386"
     id="rect2" />
  <path
     style="opacity:0.1;fill:#ffffff;stroke-width:0.9823"
     d="M 17.25,3 C 9.6324999,3 3.4999999,9.1344561 3.4999999,16.754386 v 0.982456 c 0,-7.61993 6.1325,-13.7543858 13.7500001,-13.7543858 h 27.5 c 7.6175,0 13.75,6.1344558 13.75,13.7543858 V 16.754386 C 58.5,9.1344561 52.3675,3 44.75,3 Z"
     id="path28" />
  <path
     d="m 13,13 c 1.406901,2.068147 2.433284,5.989838 3.010255,10.533685 C 14.049148,25.7461 13.00202,28.343283 13,31 c 0.0059,2.731927 1.116914,5.398076 3.186034,7.646441 C 15.691832,43.113044 14.665817,46.959345 13,49 17.727316,49 22.005709,46.989092 25.106919,43.739763 27.00105,44.237817 28.992881,44.494877 31,44.5 40.94111,44.5 49,38.455877 49,31 49,23.544139 40.94111,17.5 31,17.5 28.992881,17.5051 27.00105,17.762176 25.106919,18.260259 22.005709,15.010844 17.727316,13 13,13 Z m 18,9 a 13.5,9 0 0 1 1.467772,0.05723 c 0.0093,7.63e-4 0.0214,-7.77e-4 0.03091,0 a 13.5,9 0 0 1 0.127361,0.01269 13.5,9 0 0 1 11.645487,7.308093 c 0.0063,0.02551 0.02042,0.04906 0.0262,0.07467 a 13.5,9 0 0 1 0.20215,1.546837 13.5,9 0 0 1 -0.188983,1.445729 c -0.01418,0.06192 -0.02648,0.123213 -0.04385,0.184599 a 13.5,9 0 0 1 -0.610861,1.463327 13.5,9 0 0 1 -9.676762,5.673354 c -0.0084,0.001 -0.01654,0.001 -0.0262,0.0021 a 13.5,9 0 0 1 -0.0703,0.0041 13.5,9 0 0 1 -1.085446,0.127257 c -0.175172,0.01273 -0.34996,0.0325 -0.527349,0.0432 a 13.5,9 0 0 1 -1.23483,0.04916 h -0.0222 a 13.5,9 0 0 1 -0.01265,0 13.5,9 0 0 1 -5.813966,-0.892039 l -1.502934,-0.395537 -1.832518,1.920466 c -0.482242,0.505225 -1.119932,0.770709 -1.665531,1.18655 0.13718,-0.90613 0.369813,-1.729121 0.474618,-2.676334 l 0.224126,-2.037732 -0.55371,-0.602064 A 13.5,9 0 0 1 17.636527,32.19559 c -0.01024,-0.05219 -0.01688,-0.105666 -0.02631,-0.158164 a 13.5,9 0 0 1 -0.110048,-1.038548 13.5,9 0 0 1 0.105425,-1.072292 c 0.0075,-0.04237 0.02186,-0.08436 0.0308,-0.127301 A 13.5,9 0 0 1 31,22 Z m -6.75,6.75 C 23.007347,28.75 22,29.757373 22,31 c 0,1.242637 1.007347,2.25 2.25,2.25 1.242653,0 2.25,-1.007363 2.25,-2.25 0,-1.242627 -1.007347,-2.25 -2.25,-2.25 z m 6.75,0 c -1.242653,0 -2.25,1.007373 -2.25,2.25 0,1.242637 1.007347,2.25 2.25,2.25 1.242653,0 2.25,-1.007363 2.25,-2.25 0,-1.242627 -1.007347,-2.25 -2.25,-2.25 z m 6.75,0 c -1.242653,0 -2.25,1.007373 -2.25,2.25 0,1.242637 1.007347,2.25 2.25,2.25 1.242653,0 2.25,-1.007363 2.25,-2.25 0,-1.242627 -1.007347,-2.25 -2.25,-2.25 z"
     id="path3"
     style="fill:url(#linearGradient7)" />
</svg>
