<?xml version="1.0" encoding="UTF-8" standalone="no"?>
<svg
   width="62"
   height="62"
   version="1.1"
   id="svg5"
   sodipodi:docname="rto-proxy.svg"
   inkscape:version="1.4 (unknown)"
   xmlns:inkscape="http://www.inkscape.org/namespaces/inkscape"
   xmlns:sodipodi="http://sodipodi.sourceforge.net/DTD/sodipodi-0.dtd"
   xmlns:xlink="http://www.w3.org/1999/xlink"
   xmlns="http://www.w3.org/2000/svg"
   xmlns:svg="http://www.w3.org/2000/svg">
  <defs
     id="defs5">
    <linearGradient
       id="linearGradient5"
       inkscape:collect="always">
      <stop
         style="stop-color:#008080;stop-opacity:1"
         offset="0"
         id="stop5" />
      <stop
         style="stop-color:#00aa44;stop-opacity:1"
         offset="1"
         id="stop6" />
    </linearGradient>
    <linearGradient
       inkscape:collect="always"
       xlink:href="#linearGradient5"
       id="linearGradient6"
       x1="31.5"
       y1="59.01754"
       x2="31.5"
       y2="4.9824562"
       gradientUnits="userSpaceOnUse" />
  </defs>
  <sodipodi:namedview
     id="namedview5"
     pagecolor="#ffffff"
     bordercolor="#000000"
     borderopacity="0.25"
     inkscape:showpageshadow="2"
     inkscape:pageopacity="0.0"
     inkscape:pagecheckerboard="0"
     inkscape:deskcolor="#d1d1d1"
     inkscape:zoom="7.0710678"
     inkscape:cx="23.688077"
     inkscape:cy="52.820877"
     inkscape:window-width="1920"
     inkscape:window-height="998"
     inkscape:window-x="0"
     inkscape:window-y="0"
     inkscape:window-maximized="1"
     inkscape:current-layer="svg5" />
  <g
     id="g5"
     transform="translate(-0.5,-1)">
    <path
       style="opacity:0.2;stroke-width:0.982303"
       d="M 31.5,4.982456 A 27.5,27.50877 0 0 0 4,32.49123 27.5,27.50877 0 0 0 31.5,60 27.5,27.50877 0 0 0 59,32.49123 27.5,27.50877 0 0 0 31.5,4.982456 Z"
       id="path1" />
    <path
       style="fill:url(#linearGradient6);stroke-width:0.982303"
       d="M 31.5,4 A 27.5,27.50877 0 0 0 4,31.50877 27.5,27.50877 0 0 0 31.5,59.01754 27.5,27.50877 0 0 0 59,31.50877 27.5,27.50877 0 0 0 31.5,4 Z"
       id="path2" />
    <path
       style="opacity:0.2;stroke-width:0.982303"
       d="m 26.345358,45.519738 c 2.601348,-1.2095 4.919191,-2.196856 5.150751,-2.194148 0.231568,0.0026 2.530521,0.992292 5.108781,2.19907 2.57827,1.206784 5.249847,2.68587 5.456089,2.68587 0.285315,0 0.33981,-0.23204 0.227863,-0.970184 -0.48507,-3.607206 -1.483501,-6.413481 -1.949551,-10.153378 l 2.844811,-2.72916 c 4.027688,-3.863955 5.147908,-5.552162 5.001437,-5.697206 -0.0723,-0.07158 -2.527824,-0.58922 -5.456664,-1.150226 -4.234809,-0.811156 -5.414025,-1.127224 -5.759153,-1.543626 -0.2387,-0.287996 -1.346501,-2.182512 -2.461787,-4.210038 -2.373441,-4.314808 -2.97375,-5.226565 -3.249394,-4.935241 -0.111344,0.117682 -1.337232,2.251314 -2.724173,4.741417 -1.386954,2.49009 -2.608029,4.612904 -2.713509,4.71736 -0.105486,0.10445 -2.36285,0.601178 -5.016358,1.10384 -6.193963,1.173322 -6.000253,1.126452 -6.000253,1.451942 0,0.15285 1.70873,2.078716 3.797192,4.279668 3.550017,3.741238 4.181384,4.055424 4.050432,4.826742 -0.256019,1.508116 -1.969126,9.094482 -1.96964,9.685978 -2.64e-4,0.320156 0.121191,0.582112 0.270002,0.582112 0.14878,0 2.791773,-1.481304 5.393124,-2.690792 z"
       id="path3" />
    <path
       style="fill:#f1f1f1;stroke-width:0.982303;fill-opacity:1"
       d="m 26.345358,44.537278 c 2.601348,-1.20949 4.919191,-2.196856 5.150751,-2.194148 0.231568,0.0026 2.530521,0.992292 5.108781,2.19907 2.57827,1.206784 5.249847,2.68587 5.456089,2.68587 0.285315,0 0.33981,-0.23204 0.227863,-0.970184 -0.48507,-3.607206 -1.483501,-6.413481 -1.949551,-10.153368 l 2.844811,-2.72917 c 4.027688,-3.863955 5.147908,-5.552152 5.001437,-5.697196 -0.0723,-0.07158 -2.527824,-0.58922 -5.456664,-1.150226 -4.234809,-0.811166 -5.414025,-1.127234 -5.759153,-1.543636 -0.2387,-0.287996 -1.346501,-2.182512 -2.461787,-4.210038 -2.373441,-4.314808 -2.97375,-5.226565 -3.249394,-4.935241 -0.111344,0.117692 -1.337232,2.251324 -2.724173,4.741417 -1.386954,2.490092 -2.608029,4.612914 -2.713509,4.71736 -0.105486,0.10446 -2.36285,0.601188 -5.016358,1.10384 -6.193963,1.173332 -6.000253,1.126462 -6.000253,1.451942 0,0.15285 1.70873,2.078716 3.797192,4.279668 3.550017,3.741238 4.181384,4.055424 4.050432,4.826742 -0.256019,1.508126 -1.969126,9.094492 -1.96964,9.68598 -2.64e-4,0.320164 0.121191,0.58211 0.270002,0.58211 0.14878,0 2.791773,-1.481304 5.393124,-2.690792 z"
       id="path4" />
    <path
       style="opacity:0.2;fill:#ffffff;stroke-width:0.982303"
       d="M 31.5,4 A 27.5,27.50877 0 0 0 4,31.50877 27.5,27.50877 0 0 0 4.0211007,31.90789 27.5,27.50877 0 0 1 31.5,4.982456 27.5,27.50877 0 0 1 58.978903,32.076755 27.5,27.50877 0 0 0 59,31.50877 27.5,27.50877 0 0 0 31.5,4 Z"
       id="path5" />
  </g>
</svg>
