<?xml version="1.0" encoding="UTF-8" standalone="no"?>
<!-- Created with Inkscape (http://www.inkscape.org/) -->

<svg
   width="62"
   height="62"
   viewBox="0 0 62 62"
   version="1.1"
   id="svg1"
   inkscape:version="1.4 (unknown)"
   sodipodi:docname="rygel.svg"
   xmlns:inkscape="http://www.inkscape.org/namespaces/inkscape"
   xmlns:sodipodi="http://sodipodi.sourceforge.net/DTD/sodipodi-0.dtd"
   xmlns:xlink="http://www.w3.org/1999/xlink"
   xmlns="http://www.w3.org/2000/svg"
   xmlns:svg="http://www.w3.org/2000/svg">
  <sodipodi:namedview
     id="namedview1"
     pagecolor="#ffffff"
     bordercolor="#000000"
     borderopacity="0.25"
     inkscape:showpageshadow="2"
     inkscape:pageopacity="0.0"
     inkscape:pagecheckerboard="0"
     inkscape:deskcolor="#d1d1d1"
     inkscape:document-units="px"
     inkscape:zoom="7.5994534"
     inkscape:cx="23.685914"
     inkscape:cy="41.779321"
     inkscape:window-width="1920"
     inkscape:window-height="998"
     inkscape:window-x="0"
     inkscape:window-y="0"
     inkscape:window-maximized="1"
     inkscape:current-layer="layer1" />
  <defs
     id="defs1">
    <linearGradient
       id="linearGradient3"
       inkscape:collect="always">
      <stop
         style="stop-color:#a02c5a;stop-opacity:1"
         offset="0"
         id="stop4" />
      <stop
         style="stop-color:#cd87de;stop-opacity:1"
         offset="1"
         id="stop5" />
    </linearGradient>
    <linearGradient
       id="linearGradient1"
       inkscape:collect="always">
      <stop
         style="stop-color:#d35f8d;stop-opacity:1"
         offset="0"
         id="stop1" />
      <stop
         style="stop-color:#1f232e;stop-opacity:1;"
         offset="0.81818175"
         id="stop3" />
      <stop
         style="stop-color:#1f232e;stop-opacity:1;"
         offset="1"
         id="stop2" />
    </linearGradient>
    <radialGradient
       id="paint664_radial_890_11"
       cx="0"
       cy="0"
       r="1"
       gradientUnits="userSpaceOnUse"
       gradientTransform="matrix(-16.000099,-9.999913,9.999913,-16.000099,583,171)">
      <stop
         offset="0.42141"
         stop-color="#B7C6CD"
         id="stop2071" />
      <stop
         offset="1"
         stop-color="#EFF2F6"
         id="stop2072" />
    </radialGradient>
    <linearGradient
       id="paint665_linear_890_11"
       x1="605"
       y1="180"
       x2="601.466"
       y2="162.72301"
       gradientUnits="userSpaceOnUse">
      <stop
         stop-color="#5200FF"
         id="stop2073" />
      <stop
         offset="1"
         stop-color="#0085FF"
         id="stop2074" />
    </linearGradient>
    <linearGradient
       id="paint666_linear_890_11"
       x1="567"
       y1="181"
       x2="562.11798"
       y2="174.183"
       gradientUnits="userSpaceOnUse">
      <stop
         stop-color="#5200FF"
         id="stop2075" />
      <stop
         offset="0.670391"
         stop-color="#0085FF"
         id="stop2076" />
    </linearGradient>
    <linearGradient
       id="paint667_linear_890_11"
       x1="605"
       y1="180"
       x2="597.32001"
       y2="174.24001"
       gradientUnits="userSpaceOnUse">
      <stop
         stop-color="#5200FF"
         id="stop2077" />
      <stop
         offset="1"
         stop-color="#0085FF"
         id="stop2078" />
    </linearGradient>
    <linearGradient
       id="paint668_linear_890_11"
       x1="567"
       y1="180"
       x2="561.23999"
       y2="172.32001"
       gradientUnits="userSpaceOnUse">
      <stop
         stop-color="#5200FF"
         id="stop2079" />
      <stop
         offset="1"
         stop-color="#0085FF"
         id="stop2080" />
    </linearGradient>
    <linearGradient
       id="paint669_linear_890_11"
       x1="607"
       y1="179"
       x2="602.50598"
       y2="171.80901"
       gradientUnits="userSpaceOnUse">
      <stop
         stop-color="#5200FF"
         id="stop2081" />
      <stop
         offset="1"
         stop-color="#0085FF"
         id="stop2082" />
    </linearGradient>
    <linearGradient
       id="paint670_linear_890_11"
       x1="607"
       y1="217"
       x2="568.82599"
       y2="170.01601"
       gradientUnits="userSpaceOnUse">
      <stop
         stop-color="#5200FF"
         id="stop2083" />
      <stop
         offset="1"
         stop-color="#0085FF"
         id="stop2084" />
    </linearGradient>
    <radialGradient
       id="paint671_radial_890_11"
       cx="0"
       cy="0"
       r="1"
       gradientUnits="userSpaceOnUse"
       gradientTransform="matrix(0,20,-16,0,583,187)">
      <stop
         offset="0.869716"
         stop-color="#EFF2F6"
         id="stop2085" />
      <stop
         offset="1"
         stop-color="#B7C6CD"
         id="stop2086" />
    </radialGradient>
    <linearGradient
       id="paint451_linear_890_11"
       x1="55"
       y1="461"
       x2="111"
       y2="517"
       gradientUnits="userSpaceOnUse"
       gradientTransform="translate(-53,-457)">
      <stop
         offset="0.303571"
         stop-color="#EFF2F6"
         id="stop1644" />
      <stop
         offset="1"
         stop-color="#B7C6CD"
         id="stop1645" />
    </linearGradient>
    <linearGradient
       id="paint452_linear_890_11"
       x1="107"
       y1="513"
       x2="67.655701"
       y2="465.78699"
       gradientUnits="userSpaceOnUse"
       gradientTransform="matrix(1,0,0,1.2,-53,-559.6)">
      <stop
         stop-color="#2E2E41"
         id="stop1646" />
      <stop
         offset="1"
         stop-color="#566C80"
         id="stop1647" />
    </linearGradient>
    <linearGradient
       id="paint453_linear_890_11"
       x1="61"
       y1="465"
       x2="65"
       y2="469"
       gradientUnits="userSpaceOnUse"
       gradientTransform="translate(-53,-457)">
      <stop
         offset="0.236371"
         stop-color="#F15700"
         id="stop1648" />
      <stop
         offset="0.855848"
         stop-color="#FF0000"
         id="stop1649" />
    </linearGradient>
    <linearGradient
       id="paint454_linear_890_11"
       x1="71"
       y1="469"
       x2="67"
       y2="465"
       gradientUnits="userSpaceOnUse"
       gradientTransform="translate(-53,-457)">
      <stop
         stop-color="#FF7E07"
         id="stop1650" />
      <stop
         offset="1"
         stop-color="#FFE607"
         id="stop1651" />
    </linearGradient>
    <linearGradient
       id="paint455_linear_890_11"
       x1="77"
       y1="469"
       x2="73"
       y2="465"
       gradientUnits="userSpaceOnUse"
       gradientTransform="translate(-53,-457)">
      <stop
         stop-color="#089953"
         id="stop1652" />
      <stop
         offset="1"
         stop-color="#16D96F"
         id="stop1653" />
    </linearGradient>
    <linearGradient
       id="paint456_linear_890_11"
       x1="80"
       y1="486"
       x2="80"
       y2="492"
       gradientUnits="userSpaceOnUse"
       gradientTransform="translate(-53,-457)">
      <stop
         offset="0.189495"
         stop-color="#EFF2F6"
         id="stop1654" />
      <stop
         offset="0.850463"
         stop-color="#B7C6CD"
         id="stop1655" />
    </linearGradient>
    <linearGradient
       id="paint457_linear_890_11"
       x1="82"
       y1="494"
       x2="82"
       y2="500"
       gradientUnits="userSpaceOnUse">
      <stop
         offset="0.189495"
         stop-color="#EFF2F6"
         id="stop1656" />
      <stop
         offset="0.850463"
         stop-color="#B7C6CD"
         id="stop1657" />
    </linearGradient>
    <linearGradient
       id="paint400_linear_890_11"
       x1="568.5"
       y1="490.5"
       x2="559"
       y2="490.5"
       gradientUnits="userSpaceOnUse"
       gradientTransform="translate(-551.88344,-457.27914)">
      <stop
         offset="0.152115"
         stop-color="#2E2E41"
         id="stop1542" />
      <stop
         offset="1"
         stop-color="#566C80"
         id="stop1543" />
    </linearGradient>
    <linearGradient
       id="paint401_linear_890_11"
       x1="568"
       y1="461"
       x2="620.52502"
       y2="497.57999"
       gradientUnits="userSpaceOnUse"
       gradientTransform="translate(-551.88344,-457.27914)">
      <stop
         offset="0.179449"
         stop-color="#F15700"
         id="stop1544"
         style="stop-color:#2a7fff;stop-opacity:1" />
      <stop
         offset="0.879484"
         stop-color="#FF0000"
         id="stop1545"
         style="stop-color:#2a7fff;stop-opacity:1" />
    </linearGradient>
    <linearGradient
       id="paint402_linear_890_11"
       x1="585.5"
       y1="481"
       x2="585.5"
       y2="485"
       gradientUnits="userSpaceOnUse"
       gradientTransform="translate(-553,-457)">
      <stop
         stop-color="white"
         id="stop1546" />
      <stop
         offset="0.705"
         stop-color="#E6E6E6"
         id="stop1547" />
    </linearGradient>
    <linearGradient
       id="paint403_linear_890_11"
       x1="582"
       y1="489"
       x2="582"
       y2="493"
       gradientUnits="userSpaceOnUse"
       gradientTransform="translate(-553,-457)">
      <stop
         stop-color="white"
         id="stop1548" />
      <stop
         offset="0.705"
         stop-color="#E6E6E6"
         id="stop1549" />
    </linearGradient>
    <linearGradient
       inkscape:collect="always"
       xlink:href="#linearGradient1"
       id="linearGradient2"
       x1="7.1165647"
       y1="31.720859"
       x2="18.116565"
       y2="31.720859"
       gradientUnits="userSpaceOnUse"
       gradientTransform="translate(3.9999982)" />
    <linearGradient
       inkscape:collect="always"
       xlink:href="#linearGradient3"
       id="linearGradient5"
       x1="34.933708"
       y1="3.7208588"
       x2="55.116566"
       y2="59.72086"
       gradientUnits="userSpaceOnUse" />
  </defs>
  <g
     inkscape:label="Layer 1"
     inkscape:groupmode="layer"
     id="layer1">
    <g
       id="g3"
       transform="translate(-2.000001,0.2000001)">
      <g
         id="g2">
        <g
           id="g1"
           transform="translate(-0.11656485,-0.7208589)">
          <path
             d="m 11.116565,9.7208588 c 0,-3.314 2.686,-6 6,-6 h 5 V 59.720859 h -5 c -3.314,0 -6,-2.686 -6,-6 z"
             id="path390"
             style="fill:url(#linearGradient2)" />
          <path
             d="m 16.116565,3.7208588 h 33 c 3.314,0 6,2.686 6,6 V 53.720859 c 0,3.314 -2.686,6 -6,6 h -33 z"
             id="path391"
             style="fill:url(#linearGradient5)" />
        </g>
        <path
           style="opacity:0.2"
           d="m 20.461315,4.000471 c 0.115599,0.415996 0.300797,1.12899 0.300797,1.12899 l 0.344197,1.03499 -0.012,0.004 0.024,0.0702 c 0.086,0.273598 0.157998,0.550195 0.213998,0.832193 0.056,0.281797 0.1,0.573595 0.125999,0.859192 0.024,0.285798 0.036,0.569995 0.03,0.855592 -0.004,0.285398 -0.024,0.566595 -0.058,0.847593 -0.034,0.280997 -0.082,0.556195 -0.143999,0.828192 -0.064,0.271998 -0.141998,0.545595 -0.235998,0.804593 -0.0918,0.258798 -0.194398,0.508595 -0.315597,0.749993 -0.121399,0.241398 -0.260397,0.467796 -0.410196,0.687594 l 0.0274,-0.0078 c -0.158999,0.222998 -0.304597,0.459596 -0.437596,0.699194 -0.132999,0.239397 -0.249998,0.484795 -0.355397,0.738193 -0.105399,0.253397 -0.200798,0.508795 -0.277397,0.773393 -0.0764,0.264797 -0.133599,0.535195 -0.179599,0.808592 -0.0462,0.273398 -0.0798,0.556595 -0.0938,0.835993 -0.0144,0.279397 -0.0114,0.556795 0.0078,0.839792 0.0192,0.282998 0.0592,0.571595 0.113399,0.855392 0.054,0.283998 0.120599,0.561995 0.210798,0.843993 0.0748,0.233998 0.162399,0.463995 0.257798,0.683993 0.0956,0.219998 0.201598,0.429997 0.316397,0.635995 0.229798,0.411996 0.494795,0.791992 0.792993,1.139989 0.298997,0.349997 0.632994,0.665994 0.988991,0.945992 0.353996,0.279997 0.727993,0.523995 1.127989,0.729993 0.399997,0.205998 0.825993,0.369997 1.257989,0.495996 0.431996,0.125998 0.875992,0.211998 1.327988,0.249997 0.453996,0.04 0.905992,0.038 1.367987,-0.014 0.229998,-0.028 0.463996,-0.068 0.693994,-0.117999 0.231998,-0.052 0.465996,-0.119998 0.695994,-0.195998 0.229998,-0.076 0.455996,-0.151998 0.671994,-0.249997 0.215998,-0.096 0.421996,-0.209999 0.623994,-0.327998 0.403996,-0.233997 0.777993,-0.505995 1.12199,-0.807992 0.343997,-0.303997 0.653994,-0.635994 0.929991,-0.995991 0.275998,-0.359997 0.515996,-0.745993 0.717994,-1.15199 0.203998,-0.405996 0.363996,-0.831992 0.487995,-1.269988 0.123999,-0.439996 0.215998,-0.898992 0.253998,-1.359588 0.04,-0.460395 0.034,-0.920791 -0.018,-1.390587 -0.028,-0.234798 -0.064,-0.472196 -0.113999,-0.706994 -0.05,-0.234997 -0.115999,-0.473595 -0.191998,-0.706993 -0.09,-0.282198 -0.199998,-0.550795 -0.319997,-0.812593 C 32.212207,13.601984 32.078208,13.353786 31.930209,13.113588 31.782211,12.87359 31.622212,12.639592 31.450214,12.422194 31.276215,12.204996 31.090217,12.002198 30.894219,11.809 30.698221,11.615802 30.492223,11.433803 30.278224,11.266005 30.062226,11.098206 29.834229,10.942608 29.602231,10.801209 29.370233,10.65981 29.130235,10.532012 28.882237,10.418413 28.636239,10.304614 28.380242,10.206215 28.122244,10.121415 l 0.042,-0.0156 C 27.916247,10.018215 27.672249,9.919417 27.434251,9.797218 27.194254,9.675219 26.960256,9.532421 26.734258,9.379422 26.50826,9.226023 26.288262,9.056625 26.078264,8.875427 25.868266,8.694228 25.664267,8.49943 25.472269,8.293432 25.280271,8.087234 25.100273,7.872636 24.930274,7.645038 24.760276,7.41724 24.602277,7.176242 24.458278,6.930044 24.31228,6.683847 24.172281,6.429849 24.054282,6.168451 23.964282,5.969253 23.890284,5.765855 23.816284,5.559057 l 0.012,-0.004 -0.441996,-1.327988 c 0,0 -0.05,-0.187598 -0.062,-0.226598 z m 19.916819,14.003873 c -0.277998,-0.0118 -0.559995,-0.002 -0.841993,0.02 -0.283997,0.022 -0.565995,0.06 -0.847992,0.115999 -0.283997,0.058 -0.563995,0.125999 -0.843992,0.219998 -0.231998,0.076 -0.461996,0.167999 -0.679994,0.263998 -0.217998,0.098 -0.431996,0.203998 -0.635994,0.321997 -0.407997,0.231998 -0.783993,0.501995 -1.12999,0.803993 -0.345997,0.301997 -0.655994,0.631994 -0.933992,0.987991 -0.275997,0.357996 -0.523995,0.739993 -0.725993,1.139989 -0.201998,0.401997 -0.361997,0.825993 -0.483996,1.257989 -0.121999,0.433996 -0.199998,0.883992 -0.233997,1.335988 -0.036,0.453996 -0.022,0.909991 0.034,1.371987 0.03,0.229998 0.064,0.459996 0.117999,0.691994 0.052,0.229998 0.119999,0.461996 0.199998,0.689994 0.078,0.229998 0.161999,0.453996 0.259998,0.667994 0.1,0.215998 0.213998,0.423996 0.331997,0.625994 0.237998,0.401996 0.511995,0.771993 0.817992,1.11199 0.305998,0.341997 0.643995,0.649994 1.007991,0.921991 0.361997,0.273998 0.747994,0.511996 1.15599,0.711994 0.405996,0.199998 0.829992,0.355997 1.267988,0.475996 0.439996,0.119998 0.895992,0.199998 1.355988,0.233997 0.459996,0.036 0.929991,0.03 1.397987,-0.026 0.235998,-0.03 0.465996,-0.07 0.699994,-0.121999 0.233998,-0.052 0.469996,-0.121999 0.703993,-0.199998 0.279998,-0.092 0.551995,-0.199999 0.811993,-0.323997 0.259998,-0.121999 0.507995,-0.253998 0.745993,-0.405997 0.237998,-0.149998 0.463996,-0.311997 0.679994,-0.487995 0.213998,-0.175999 0.421996,-0.359997 0.611994,-0.557995 0.191999,-0.197998 0.369997,-0.411997 0.535996,-0.629995 0.165998,-0.215998 0.313997,-0.441995 0.451995,-0.675993 0.139999,-0.231998 0.267998,-0.473996 0.379997,-0.721994 0.111999,-0.247998 0.205998,-0.501995 0.287997,-0.761993 l 0.016,0.04 c 0.086,-0.249998 0.185999,-0.489996 0.305997,-0.729994 0.117999,-0.241997 0.257998,-0.479995 0.409997,-0.707993 0.149998,-0.227998 0.319997,-0.447996 0.499995,-0.659994 0.177999,-0.211998 0.369997,-0.415996 0.573995,-0.609995 0.203998,-0.193998 0.413996,-0.381996 0.639994,-0.553995 0.225998,-0.171998 0.465996,-0.327997 0.711994,-0.475995 0.243997,-0.147999 0.495995,-0.281998 0.755993,-0.403997 0.197998,-0.09 0.397996,-0.171998 0.601994,-0.245997 l 0.008,0.012 c 1.197988,-0.241998 2.311978,-0.249998 3.597967,-0.249998 v -2.783975 c -1.299989,0 -2.641976,0.016 -4.229962,0.315997 l -0.008,-0.012 -0.066,0.024 c -0.273998,0.09 -0.555995,0.165999 -0.835993,0.225998 -0.281997,0.06 -0.563995,0.1 -0.847992,0.129999 -0.285997,0.028 -0.569995,0.044 -0.855992,0.042 -0.283998,-0.002 -0.569995,-0.024 -0.851992,-0.054 -0.279998,-0.032 -0.555995,-0.072 -0.827993,-0.133999 -0.271997,-0.06 -0.543995,-0.143998 -0.803993,-0.233998 -0.259997,-0.09 -0.507995,-0.185998 -0.749993,-0.303997 -0.241998,-0.119999 -0.473995,-0.259997 -0.695993,-0.405996 l 0.012,0.03 C 44.0141,19.160333 43.776103,19.010334 43.536105,18.878336 43.294107,18.748337 43.050109,18.638338 42.796112,18.536339 42.542114,18.43234 42.280116,18.336341 42.016119,18.262341 c -0.265998,-0.074 -0.531996,-0.127999 -0.805993,-0.171998 -0.271998,-0.044 -0.551995,-0.074 -0.831992,-0.086 z m -20.647813,7.999927 c -0.231997,0.006 -0.468795,0.018 -0.702993,0.046 -0.234398,0.03 -0.468996,0.074 -0.703194,0.125999 -0.234198,0.052 -0.466596,0.113999 -0.699193,0.191998 -0.280998,0.092 -0.548195,0.199999 -0.808593,0.323998 -0.260198,0.121998 -0.511595,0.261997 -0.749993,0.413996 -0.238398,0.149997 -0.464396,0.307996 -0.679594,0.483994 -0.215398,0.175999 -0.422197,0.367997 -0.613395,0.565995 -0.190998,0.197998 -0.369396,0.399997 -0.535195,0.617995 -0.165598,0.215998 -0.317997,0.441996 -0.456996,0.675993 -0.138998,0.231998 -0.259797,0.473996 -0.370996,0.721994 -0.111399,0.247998 -0.214798,0.501995 -0.296998,0.761993 l -0.0116,-0.036 c -0.0852,0.249998 -0.188998,0.489996 -0.308597,0.729994 -0.119599,0.241997 -0.251398,0.48 -0.402396,0.70799 -0.356797,0.444 -0.844793,0.68 -1.390588,0.812 v 4.44196 h 0.843793 c 0.285197,0.002 0.566595,0.016 0.847592,0.046 0.280798,0.032 0.555795,0.076 0.828192,0.13799 0.272198,0.06 0.545196,0.136 0.804593,0.226 0.259398,0.09 0.507796,0.198 0.749993,0.316 0.242198,0.12 0.474596,0.248 0.695394,0.394 l -0.0118,-0.026 c 0.224398,0.15599 0.462596,0.30199 0.703194,0.43399 0.240398,0.13 0.484196,0.244 0.738193,0.346 0.254198,0.104 0.516196,0.196 0.781193,0.27 0.265198,0.074 0.531396,0.124 0.804793,0.16799 0.273398,0.044 0.556595,0.082 0.835792,0.094 0.279398,0.012 0.557595,0.002 0.839993,-0.02 0.282397,-0.022 0.564995,-0.056 0.846992,-0.11199 0.283998,-0.058 0.563995,-0.13 0.843992,-0.224 0.231998,-0.076 0.465996,-0.168 0.683994,-0.264 0.217998,-0.098 0.427996,-0.204 0.631994,-0.322 0.409997,-0.232 0.787993,-0.50199 1.13399,-0.80399 0.345997,-0.302 0.655994,-0.63799 0.933992,-0.99599 0.275997,-0.358 0.519995,-0.73599 0.721993,-1.13599 0.201998,-0.402 0.357997,-0.82599 0.479996,-1.25799 0.121999,-0.434 0.203998,-0.87599 0.237998,-1.32799 0.036,-0.45399 0.03,-0.91399 -0.026,-1.37598 -0.03,-0.230003 -0.068,-0.464001 -0.121999,-0.695999 -0.052,-0.229998 -0.123999,-0.461996 -0.203998,-0.689994 -0.078,-0.229998 -0.161999,-0.449996 -0.259998,-0.663994 -0.1,-0.215998 -0.217998,-0.419996 -0.335997,-0.621994 -0.237998,-0.401996 -0.507995,-0.775993 -0.813992,-1.11599 -0.305998,-0.341997 -0.643995,-0.649994 -1.005991,-0.921991 -0.363997,-0.273998 -0.749993,-0.507996 -1.15799,-0.707994 -0.405996,-0.199998 -0.831992,-0.359997 -1.271988,-0.479996 -0.439996,-0.119998 -0.895792,-0.199998 -1.356188,-0.233997 -0.229998,-0.018 -0.459396,-0.026 -0.691394,-0.02 z m 14.183471,6.053949 c -0.229998,0.004 -0.459995,0.016 -0.691993,0.044 -0.229998,0.026 -0.463996,0.062 -0.693994,0.11199 -0.231998,0.052 -0.461996,0.12 -0.691994,0.196 -0.229998,0.076 -0.455996,0.16 -0.671994,0.258 -0.215998,0.098 -0.417996,0.208 -0.621994,0.324 -0.403996,0.234 -0.779993,0.50599 -1.12399,0.80799 -0.343997,0.304 -0.653994,0.63599 -0.929991,0.99599 -0.275998,0.362 -0.519996,0.748 -0.721994,1.15399 -0.203998,0.406 -0.363996,0.83399 -0.487995,1.27199 -0.123999,0.44 -0.215998,0.89199 -0.253998,1.35199 -0.04,0.45999 -0.034,0.92799 0.018,1.39799 0.028,0.23599 0.068,0.46799 0.117999,0.70399 0.05,0.234 0.111999,0.47399 0.187998,0.70599 0.09,0.284 0.199998,0.552 0.319997,0.81399 0.119999,0.262 0.253998,0.514 0.401997,0.754 0.147998,0.23999 0.307997,0.46599 0.479995,0.68199 0.173999,0.218 0.359997,0.428 0.555995,0.622 0.195998,0.19399 0.405996,0.37199 0.619994,0.53799 0.215999,0.168 0.439996,0.32 0.671994,0.462 0.231998,0.142 0.471996,0.27199 0.719994,0.38599 0.245998,0.114 0.501995,0.216 0.759993,0.302 l -0.042,0.008 c 0.247998,0.086 0.491996,0.194 0.729994,0.316 0.239997,0.122 0.473995,0.256 0.699993,0.40999 0.225998,0.154 0.449996,0.326 0.659994,0.508 0.209998,0.18 0.409997,0.376 0.601995,0.58199 0.191998,0.206 0.379996,0.424 0.549995,0.652 0.169998,0.228 0.323997,0.46399 0.467996,0.70999 0.145998,0.248 0.281997,0.498 0.399996,0.75799 0.09,0.2 0.163998,0.404 0.237998,0.61 l -0.016,0.008 0.453996,1.33199 c 0,0 0.831992,2.67197 1.181989,6.16394 h 2.817974 c -0.365996,-4.03196 -1.383987,-7.07393 -1.383987,-7.07393 l -0.347997,-1.028 0.016,-0.004 -0.024,-0.074 c -0.086,-0.27399 -0.153998,-0.55399 -0.209998,-0.83599 -0.056,-0.282 -0.103999,-0.56199 -0.129999,-0.84799 -0.024,-0.286 -0.03,-0.57399 -0.026,-0.85799 0.004,-0.286 0.024,-0.572 0.058,-0.85199 0.034,-0.282 0.082,-0.56 0.143999,-0.832 0.064,-0.27199 0.141998,-0.54199 0.235998,-0.80199 0.092,-0.258 0.193998,-0.508 0.315997,-0.74999 0.119999,-0.24 0.259997,-0.47 0.409996,-0.69 l -0.032,0.016 c 0.159999,-0.22399 0.303997,-0.46399 0.437996,-0.70399 0.131999,-0.24 0.249998,-0.484 0.355997,-0.73799 0.103999,-0.254 0.199998,-0.512 0.275997,-0.778 0.078,-0.264 0.133999,-0.52999 0.179999,-0.80399 0.046,-0.274 0.076,-0.55199 0.09,-0.83199 0.014,-0.28 0.02,-0.562 0,-0.84399 -0.018,-0.282 -0.062,-0.568 -0.115999,-0.852 -0.054,-0.28399 -0.121999,-0.56599 -0.211998,-0.84799 -0.074,-0.232 -0.157999,-0.46 -0.253998,-0.67799 -0.096,-0.22 -0.205998,-0.436 -0.319997,-0.642 C 39.855739,35.23819 39.591742,34.85619 39.291744,34.50819 38.993747,34.1602 38.66375,33.8442 38.307753,33.5622 37.953757,33.28221 37.57776,33.03821 37.179764,32.83221 c -0.399997,-0.206 -0.821993,-0.374 -1.253989,-0.5 -0.431996,-0.126 -0.875992,-0.20999 -1.327988,-0.24999 -0.225998,-0.02 -0.453996,-0.026 -0.683995,-0.024 z"
           id="path2" />
        <path
           style="fill:#ffffff"
           d="m 20.461315,3 c 0.115599,0.416 0.300797,1.129 0.300797,1.129 l 0.344197,1.035 -0.012,0.004 0.024,0.0702 c 0.086,0.2736 0.157998,0.5502 0.213998,0.8322 0.056,0.2818 0.1,0.5736 0.125999,0.8592 0.024,0.2858 0.036,0.57 0.03,0.8556 -0.004,0.2854 -0.024,0.566599 -0.058,0.8476 -0.034,0.280999 -0.082,0.5562 -0.143999,0.828199 -0.064,0.272001 -0.141998,0.5456 -0.235998,0.8046 -0.0918,0.258801 -0.194398,0.5086 -0.315597,0.75 -0.121399,0.2414 -0.260397,0.4678 -0.410196,0.6876 l 0.0274,-0.0078 c -0.158999,0.223 -0.304597,0.459601 -0.437596,0.699201 -0.132999,0.2394 -0.249998,0.484799 -0.355397,0.738199 -0.105399,0.253401 -0.200798,0.5088 -0.277397,0.7734 -0.0764,0.264801 -0.133599,0.5352 -0.179599,0.808601 -0.0462,0.273399 -0.0798,0.5566 -0.0938,0.835999 -0.0144,0.2794 -0.0114,0.5568 0.0078,0.8398 0.0192,0.283 0.0592,0.5716 0.113399,0.855401 0.054,0.283999 0.120599,0.561599 0.210798,0.843799 0.0748,0.2336 0.162399,0.4638 0.257798,0.6836 0.0956,0.2198 0.201598,0.4306 0.316397,0.6366 0.229798,0.412 0.494795,0.792 0.792993,1.14 0.298997,0.35 0.632994,0.666 0.988991,0.946 0.353996,0.28 0.727993,0.524 1.127989,0.73 0.399997,0.206 0.825993,0.37 1.257989,0.496 0.431996,0.126 0.875992,0.212 1.327988,0.249999 0.453996,0.04 0.905992,0.038 1.367987,-0.014 0.229998,-0.028 0.463996,-0.068 0.693994,-0.118 0.231998,-0.052 0.465996,-0.12 0.695994,-0.196001 0.229998,-0.076 0.455996,-0.151999 0.671994,-0.249999 0.215998,-0.096 0.421996,-0.21 0.623994,-0.328 0.403996,-0.234 0.777993,-0.506 1.12199,-0.808 0.343997,-0.304 0.653994,-0.636 0.929991,-0.996 0.275998,-0.36 0.515996,-0.746 0.717994,-1.152 0.203998,-0.4064 0.363996,-0.831 0.487995,-1.2702 0.123999,-0.4392 0.215998,-0.8988 0.253998,-1.359399 0.04,-0.4604 0.034,-0.920801 -0.018,-1.390601 -0.028,-0.2348 -0.064,-0.4722 -0.113999,-0.706999 -0.05,-0.235 -0.115999,-0.473601 -0.191998,-0.707001 -0.09,-0.282199 -0.199998,-0.5508 -0.319997,-0.8126 C 32.212208,12.6016 32.078209,12.3534 31.93021,12.113199 31.782212,11.873199 31.622213,11.6392 31.450215,11.4218 31.276216,11.2046 31.090218,11.001799 30.89422,10.8086 30.698222,10.6154 30.492224,10.4334 30.278225,10.2656 30.062227,10.0978 29.83423,9.9422 29.602232,9.800799 29.370234,9.6594 29.130236,9.5316 28.882238,9.418 28.63624,9.3042 28.380243,9.2058 28.122245,9.120999 l 0.042,-0.0156 c -0.247998,-0.0876 -0.491996,-0.1864 -0.729994,-0.3086 C 27.194254,8.6748 26.960256,8.532 26.734258,8.379 26.50826,8.2256 26.288262,8.0562 26.078264,7.875 25.868266,7.6938 25.664267,7.499 25.472269,7.293 25.280271,7.0868 25.100273,6.8722 24.930274,6.6446 24.760276,6.4168 24.602277,6.1758 24.458278,5.9296 24.31228,5.6834 24.172281,5.4294 24.054282,5.168 23.964282,4.9688 23.890284,4.7654 23.816284,4.5586 l 0.012,-0.004 -0.441996,-1.328 c 0,0 -0.05,-0.1876 -0.062,-0.2266 z m 19.916819,14.004 c -0.277998,-0.0118 -0.559995,-0.0026 -0.841993,0.0194 -0.283997,0.0218 -0.565995,0.0606 -0.847992,0.1172 -0.283997,0.0566 -0.563995,0.125799 -0.843992,0.2188 -0.231998,0.0768 -0.461996,0.167999 -0.679994,0.265599 -0.217998,0.0976 -0.431996,0.2036 -0.635994,0.3204 -0.407997,0.2334 -0.783993,0.503401 -1.12999,0.804601 -0.345997,0.301999 -0.655994,0.631999 -0.933992,0.987999 -0.275997,0.358001 -0.523995,0.74 -0.725993,1.140001 -0.201998,0.401999 -0.361997,0.825999 -0.483996,1.257999 -0.121999,0.434 -0.199998,0.884 -0.233997,1.336 -0.036,0.454 -0.022,0.910001 0.034,1.372 0.03,0.23 0.064,0.46 0.117999,0.692 0.052,0.23 0.119999,0.462 0.199998,0.69 0.078,0.23 0.161999,0.454 0.259998,0.668 0.1,0.216 0.213998,0.424 0.331997,0.626 0.237998,0.402 0.511995,0.772 0.817992,1.112 0.305998,0.342 0.643995,0.65 1.007991,0.922 0.361997,0.274 0.747994,0.512 1.15599,0.712 0.405996,0.2 0.829992,0.356 1.267988,0.476 0.439996,0.12 0.895992,0.2 1.355988,0.234 0.459996,0.036 0.929991,0.03 1.397987,-0.026 0.235998,-0.03 0.465996,-0.07 0.699994,-0.122 0.233998,-0.052 0.469996,-0.122 0.703993,-0.2 0.279998,-0.092 0.551995,-0.2 0.811993,-0.324 0.259998,-0.122 0.507995,-0.254 0.745993,-0.406001 0.237998,-0.149999 0.463996,-0.311999 0.679994,-0.487999 0.213998,-0.176001 0.421996,-0.36 0.611994,-0.558 0.191999,-0.198 0.369997,-0.412 0.535996,-0.63 0.165998,-0.216 0.313997,-0.442 0.451995,-0.676 0.139999,-0.232 0.267998,-0.474 0.379997,-0.722 0.111999,-0.248 0.205998,-0.502 0.287997,-0.762 l 0.016,0.04 c 0.086,-0.25 0.185999,-0.49 0.305997,-0.73 0.117999,-0.242 0.257998,-0.48 0.409997,-0.708 0.149998,-0.228 0.319997,-0.448 0.499995,-0.66 0.177999,-0.212 0.369997,-0.416 0.573995,-0.609999 0.203998,-0.194001 0.413996,-0.382001 0.639994,-0.554 0.225998,-0.172001 0.465996,-0.328 0.711994,-0.476001 0.243997,-0.148 0.495995,-0.281999 0.755993,-0.403999 0.197998,-0.09 0.397996,-0.170001 0.601994,-0.246001 l 0.008,0.012 c 1.197989,-0.242 2.311979,-0.25 3.597968,-0.25 v -2.7846 c -1.299989,0.0012 -2.641976,0.0156 -4.229962,0.316601 l -0.008,-0.012 -0.066,0.024 c -0.273998,0.09 -0.555995,0.166 -0.835993,0.226 -0.281997,0.06 -0.563995,0.100001 -0.847992,0.13 -0.285997,0.028 -0.569995,0.044 -0.855992,0.042 -0.283998,-0.002 -0.569995,-0.024 -0.851992,-0.054 -0.279998,-0.032 -0.555995,-0.072 -0.827993,-0.133999 -0.271997,-0.06 -0.543995,-0.144 -0.803993,-0.234 C 45.412088,18.905801 45.16409,18.8106 44.922092,18.6914 44.680094,18.5722 44.448097,18.432801 44.226099,18.2852 l 0.012,0.0312 C 44.014101,18.159399 43.776104,18.0098 43.536106,17.879 43.294108,17.747999 43.05011,17.638399 42.796113,17.5352 42.542115,17.432 42.280117,17.3358 42.01612,17.261799 c -0.265998,-0.0742 -0.531996,-0.128399 -0.805993,-0.172 -0.271998,-0.0436 -0.551995,-0.0744 -0.831992,-0.0858 z m -20.647813,7.999999 c -0.231997,0.006 -0.468795,0.018 -0.702993,0.046 -0.234398,0.03 -0.468996,0.074 -0.703194,0.125999 -0.234198,0.052 -0.466596,0.114 -0.699193,0.192 -0.280998,0.092 -0.548195,0.2 -0.808593,0.324 -0.260198,0.122 -0.511595,0.262 -0.749993,0.414 -0.238398,0.15 -0.464396,0.308 -0.679594,0.484001 -0.215398,0.175999 -0.422197,0.367999 -0.613395,0.565999 -0.190998,0.198 -0.369396,0.4 -0.535195,0.618 -0.165598,0.216 -0.317997,0.442 -0.456996,0.676 -0.138998,0.231999 -0.259797,0.474 -0.370996,0.722 -0.111399,0.248 -0.214798,0.501999 -0.296998,0.762 l -0.0116,-0.036 c -0.0852,0.250001 -0.188998,0.490001 -0.308597,0.730001 -0.119599,0.242 -0.251398,0.479999 -0.402396,0.707999 C 12.033791,31.779999 11.545795,32.016 11,32.148 v 4.442 h 0.843793 c 0.285197,0.002 0.566595,0.016 0.847592,0.046 0.280798,0.032 0.555795,0.076 0.828192,0.138 0.272198,0.06 0.545196,0.136 0.804593,0.226 0.259398,0.09 0.507796,0.198 0.749993,0.316 0.242198,0.12 0.474596,0.248 0.695394,0.394 l -0.0118,-0.026 c 0.224398,0.156 0.462596,0.302 0.703194,0.434 0.240398,0.13 0.484196,0.244 0.738193,0.346 0.254198,0.104 0.516196,0.196 0.781193,0.27 0.265198,0.074 0.531396,0.124 0.804793,0.168 0.273398,0.044 0.556595,0.082 0.835792,0.094 0.279398,0.012 0.557595,0.002 0.839993,-0.02 0.282397,-0.022 0.564995,-0.056 0.846992,-0.112 0.283998,-0.058 0.563995,-0.13 0.843992,-0.224 0.231998,-0.076 0.465996,-0.168 0.683994,-0.264 0.217998,-0.098 0.427996,-0.204 0.631994,-0.322 0.409997,-0.232 0.787993,-0.502 1.13399,-0.804 0.345997,-0.302 0.655994,-0.638 0.933992,-0.996 0.275997,-0.358 0.519995,-0.736 0.721993,-1.136 0.201998,-0.402 0.357997,-0.826 0.479996,-1.258 0.121999,-0.434 0.203998,-0.876 0.237998,-1.328 0.036,-0.454 0.03,-0.914002 -0.026,-1.376002 -0.03,-0.23 -0.068,-0.464 -0.121999,-0.696 -0.052,-0.230001 -0.123999,-0.462 -0.203998,-0.69 -0.078,-0.23 -0.161999,-0.45 -0.259998,-0.664 -0.1,-0.216 -0.217998,-0.420001 -0.335997,-0.622 -0.237998,-0.402 -0.507995,-0.776 -0.813992,-1.116 -0.305998,-0.342 -0.643995,-0.65 -1.005991,-0.922 -0.363997,-0.274 -0.749993,-0.508 -1.15799,-0.708 -0.405996,-0.2 -0.831992,-0.359999 -1.271988,-0.48 -0.439996,-0.12 -0.895792,-0.2 -1.356188,-0.234 -0.229998,-0.018 -0.459396,-0.026 -0.691394,-0.02 z m 14.183471,6.054 c -0.229998,0.004 -0.459995,0.016 -0.691993,0.044 -0.229998,0.026 -0.463996,0.062 -0.693994,0.112 -0.231998,0.052 -0.461996,0.12 -0.691994,0.196001 -0.229998,0.076 -0.455996,0.16 -0.671994,0.257999 -0.215998,0.098 -0.417996,0.208 -0.621994,0.324 C 30.137827,32.226 29.76183,32.498 29.417833,32.8 c -0.343997,0.304 -0.653994,0.636 -0.929991,0.996 -0.275998,0.362 -0.519996,0.748 -0.721994,1.154 -0.203998,0.406 -0.363996,0.834 -0.487995,1.272 -0.123999,0.44 -0.215998,0.892 -0.253998,1.352 -0.04,0.46 -0.034,0.928 0.018,1.398 0.028,0.236 0.068,0.468 0.117999,0.704 0.05,0.234 0.111999,0.474 0.187998,0.706 0.09,0.284 0.199998,0.552 0.319997,0.814 0.119999,0.262 0.253998,0.514 0.401997,0.754 0.147998,0.24 0.307997,0.466 0.479995,0.682 0.173999,0.218 0.359997,0.428 0.555995,0.622 0.195998,0.194 0.405996,0.372 0.619994,0.538 0.215999,0.168 0.439996,0.32 0.671994,0.462 0.231998,0.142 0.471996,0.272 0.719994,0.386 0.245998,0.114 0.501995,0.216 0.759993,0.302 l -0.042,0.008 c 0.247998,0.086 0.491996,0.194 0.729994,0.316 0.239997,0.122 0.473995,0.256 0.699993,0.41 0.225998,0.154 0.449996,0.326 0.659994,0.508 0.209998,0.18 0.409997,0.376 0.601995,0.582 0.191998,0.206 0.379996,0.424 0.549995,0.652 0.169998,0.228 0.323997,0.464 0.467996,0.71 0.145998,0.248 0.281997,0.498 0.399996,0.758 0.09,0.2 0.163998,0.404 0.237998,0.61 l -0.016,0.008 0.453996,1.332 c 0,0 1.219989,3.7 1.349987,8.164 h 2.769975 c -0.129999,-4.988 -1.503986,-9.074 -1.503986,-9.074 l -0.347997,-1.028 0.016,-0.004 -0.024,-0.074 c -0.086,-0.274 -0.153998,-0.554 -0.209998,-0.836 -0.056,-0.282 -0.103999,-0.562 -0.129999,-0.848 -0.024,-0.286 -0.03,-0.574 -0.026,-0.858 0.004,-0.286 0.024,-0.572 0.058,-0.852 0.034,-0.282 0.082,-0.56 0.143999,-0.832 0.064,-0.272 0.141998,-0.542 0.235998,-0.802 0.092,-0.258 0.193998,-0.508 0.315997,-0.75 0.119999,-0.24 0.259997,-0.47 0.409996,-0.69 l -0.032,0.016 c 0.159999,-0.224 0.303997,-0.464 0.437996,-0.704 0.131999,-0.24 0.249998,-0.484 0.355997,-0.738 0.103999,-0.254 0.199998,-0.512 0.275997,-0.778 0.078,-0.264 0.133999,-0.53 0.179999,-0.804 0.046,-0.274 0.076,-0.552 0.09,-0.832 0.014,-0.28 0.02,-0.562 0,-0.844 -0.018,-0.282 -0.062,-0.568 -0.115999,-0.852 -0.054,-0.284 -0.121999,-0.566 -0.211998,-0.848 -0.074,-0.232 -0.157999,-0.46 -0.253998,-0.678 -0.096,-0.22 -0.205998,-0.436 -0.319997,-0.642 -0.229998,-0.41 -0.493995,-0.792 -0.793993,-1.14 C 38.993747,33.16 38.66375,32.844 38.307753,32.562 37.953757,32.282 37.57776,32.038 37.179764,31.832 36.779767,31.626 36.357771,31.458 35.925775,31.331999 35.493779,31.206 35.049783,31.122 34.597787,31.082 34.371789,31.062 34.143791,31.056 33.913793,31.058 Z"
           id="path3" />
      </g>
    </g>
  </g>
</svg>
