<?xml version="1.0" encoding="UTF-8" standalone="no"?>
<svg
   width="62"
   height="62"
   version="1.1"
   id="svg29"
   sodipodi:docname="ryujinx.svg"
   inkscape:version="1.4 (unknown)"
   xmlns:inkscape="http://www.inkscape.org/namespaces/inkscape"
   xmlns:sodipodi="http://sodipodi.sourceforge.net/DTD/sodipodi-0.dtd"
   xmlns:xlink="http://www.w3.org/1999/xlink"
   xmlns="http://www.w3.org/2000/svg"
   xmlns:svg="http://www.w3.org/2000/svg">
  <defs
     id="defs29">
    <linearGradient
       id="linearGradient29"
       inkscape:collect="always">
      <stop
         style="stop-color:#2d3c52;stop-opacity:1;"
         offset="0"
         id="stop29" />
      <stop
         style="stop-color:#3f5174;stop-opacity:1;"
         offset="1"
         id="stop30" />
    </linearGradient>
    <linearGradient
       inkscape:collect="always"
       xlink:href="#linearGradient29"
       id="linearGradient30"
       x1="30.782633"
       y1="60"
       x2="30.193521"
       y2="5"
       gradientUnits="userSpaceOnUse"
       gradientTransform="matrix(0.98214286,0,0,0.98245614,-0.42857152,-0.92982455)" />
    <linearGradient
       id="paint1_linear_11_148"
       x1="12.6932"
       y1="20.5312"
       x2="12.6932"
       y2="5.6079102"
       gradientUnits="userSpaceOnUse"
       gradientTransform="matrix(2.6803705,0,0,2.6803705,-3.022395,-3.5399929)">
      <stop
         stop-color="#FD5900"
         id="stop4" />
      <stop
         offset="1"
         stop-color="#FFDE00"
         id="stop5" />
    </linearGradient>
    <filter
       id="b"
       width="1.299904"
       height="1.2883692"
       x="-0.149952"
       y="-0.14418462"
       color-interpolation-filters="sRGB">
      <feGaussianBlur
         stdDeviation="1.562"
         id="feGaussianBlur22" />
    </filter>
    <linearGradient
       id="c-3"
       x1="19.570999"
       x2="43.064999"
       y1="34.216999"
       y2="34.216999"
       gradientUnits="userSpaceOnUse">
      <stop
         offset="0"
         stop-color="#e9be35"
         id="stop7-6" />
      <stop
         offset="1"
         stop-color="#cc7533"
         id="stop9" />
    </linearGradient>
    <filter
       id="d-7"
       width="1.2307799"
       height="1.6013072"
       x="-0.11538997"
       y="-0.30065359"
       color-interpolation-filters="sRGB">
      <feGaussianBlur
         stdDeviation="1.035"
         id="feGaussianBlur25" />
    </filter>
    <linearGradient
       id="e-5"
       x1="18.070999"
       x2="21.070999"
       y1="24.716999"
       y2="24.716999"
       gradientUnits="userSpaceOnUse">
      <stop
         offset="0"
         stop-color="#ffc086"
         id="stop17" />
      <stop
         offset="1"
         stop-color="#ffd59c"
         id="stop19" />
    </linearGradient>
    <linearGradient
       id="f-3"
       x1="25.070999"
       x2="43.070999"
       y1="25.216999"
       y2="25.216999"
       gradientUnits="userSpaceOnUse">
      <stop
         offset="0"
         stop-color="#fdfa21"
         id="stop12" />
      <stop
         offset="1"
         stop-color="#fdbe21"
         id="stop14" />
    </linearGradient>
    <filter
       id="g-5"
       width="2.6559999"
       height="2.242"
       x="-0.82799997"
       y="-0.62099998"
       color-interpolation-filters="sRGB">
      <feGaussianBlur
         stdDeviation="1.035"
         id="feGaussianBlur28" />
    </filter>
  </defs>
  <sodipodi:namedview
     id="namedview29"
     pagecolor="#ffffff"
     bordercolor="#000000"
     borderopacity="0.25"
     inkscape:showpageshadow="2"
     inkscape:pageopacity="0.0"
     inkscape:pagecheckerboard="0"
     inkscape:deskcolor="#d1d1d1"
     inkscape:zoom="7.0710678"
     inkscape:cx="20.293965"
     inkscape:cy="37.54737"
     inkscape:window-width="1920"
     inkscape:window-height="998"
     inkscape:window-x="0"
     inkscape:window-y="0"
     inkscape:window-maximized="1"
     inkscape:current-layer="svg29" />
  <g
     id="g2">
    <rect
       style="opacity:0.2;stroke-width:0.9823"
       width="55"
       height="55.017544"
       x="3.5"
       y="3.9824562"
       ry="13.754386"
       id="rect1" />
    <rect
       style="fill:url(#linearGradient30);stroke-width:0.9823"
       width="55"
       height="55.017544"
       x="3.5"
       y="3"
       ry="13.754386"
       id="rect2" />
    <path
       style="opacity:0.1;fill:#ffffff;stroke-width:0.9823"
       d="M 17.25,3 C 9.6324999,3 3.4999999,9.1344561 3.4999999,16.754386 v 0.982456 c 0,-7.61993 6.1325,-13.7543858 13.7500001,-13.7543858 h 27.5 c 7.6175,0 13.75,6.1344558 13.75,13.7543858 V 16.754386 C 58.5,9.1344561 52.3675,3 44.75,3 Z"
       id="path28" />
    <g
       id="g1"
       transform="matrix(0.73660714,0,0,0.73684211,16.267857,-46.736843)">
      <path
         style="opacity:0.2"
         d="M 2.908203,78 C -3.1354334,78 -8,82.932005 -8,89.058594 V 113.94141 C -8,120.06799 -3.1354334,125 2.908203,125 H 7 V 78 Z M 33,87 v 47 h 4.091797 C 43.135433,134 48,129.06799 48,122.94141 V 98.058594 C 48,91.932005 43.135433,87 37.091797,87 Z m -16.068359,9 -0.740235,4 h -3.65039 l -0.523438,3 h 3.677734 l -0.986328,6 h -3.738281 l -0.521484,3 h 3.765625 l -0.988282,5 h 2.841797 l 0.986329,-5 h 2.078124 2.082032 l -0.988282,5 h 2.841797 l 0.986329,-5 h 3.71875 l 0.523437,-3 h -3.746094 l 0.988281,-6 h 3.800782 l 0.523437,-3 H 26.03125 l 0.742188,-4 h -2.841797 l -0.740235,4 H 21.224609 19.03125 l 0.742188,-4 z m 1.607421,7 h 2.164063 1.992187 l -0.986328,6 H 19.65625 17.550781 Z"
         id="path1" />
      <path
         style="fill:#00ccff"
         d="m 7,77 v 47 H 2.909091 C -3.1345455,124 -8,119.06777 -8,112.94118 V 88.058824 C -8,81.932235 -3.1345455,77 2.909091,77 Z"
         id="path2" />
      <path
         style="fill:#c83771"
         d="m 33,86 v 47 h 4.090909 C 43.134545,133 48,128.06776 48,121.94118 V 97.058824 C 48,90.932235 43.134545,86 37.090909,86 Z"
         id="path3" />
      <path
         style="fill:#c83771"
         d="m 23.932032,95 -0.741016,4 H 21.225 l -0.522266,3 h 1.993359 l -0.987109,6 h -2.053516 l -0.522265,3 h 2.08086 l -0.98711,5 h 2.841015 l 0.98711,-5 h 3.71875 l 0.522265,-3 H 24.55 l 0.989843,-6 h 3.800782 l 0.522266,-3 h -3.830859 l 0.741015,-4 z"
         id="path4" />
      <path
         style="fill:#00ccff"
         d="m 16.932032,95 -0.741016,4 h -3.650391 l -0.522266,3 h 3.677734 l -0.987109,6 h -3.737891 l -0.522265,3 h 3.765235 l -0.98711,5 h 2.841015 l 0.98711,-5 h 2.078125 l 0.522265,-3 H 17.55 l 0.989843,-6 h 2.162891 L 21.225,99 h -2.192968 l 0.741015,-4 z"
         id="path5" />
      <path
         style="opacity:0.2;fill:#00ccff"
         d="M 2.908203,77 C -3.1354333,77 -8,81.932005 -8,88.058594 v 1 C -8,82.932005 -3.1354333,78 2.908203,78 H 7 V 77 Z M 33,86 v 1 h 4.091797 C 43.135433,87 48,91.932005 48,98.058594 v -1 C 48,90.932005 43.135433,86 37.091797,86 Z m -16.068359,9 -0.740235,4 h -3.65039 l -0.523438,3 h 0.173828 l 0.34961,-2 h 3.65039 l 0.740235,-4 h 2.65625 l 0.185547,-1 z m 7,0 -0.740235,4 h -1.966797 -2.007812 l -0.185547,1 h 2.193359 1.966797 l 0.740235,-4 h 2.65625 l 0.185547,-1 z m 2.285156,4 -0.185547,1 h 3.658203 l 0.173828,-1 z m -10.685547,4 -0.822266,5 h -3.738281 l -0.521484,3 h 0.173828 l 0.347656,-2 h 3.738281 l 0.986328,-6 z m 7,0 -0.822266,5 H 19.65625 17.714844 l -0.164063,1 h 2.105469 2.052734 l 0.986328,-6 z m 2.183594,5 -0.164063,1 h 3.572266 l 0.173828,-1 z m -10.697266,4 -0.791016,4 h 0.197266 l 0.791016,-4 z m 7,0 -0.791016,4 h 0.197266 l 0.791016,-4 z"
         id="path6" />
    </g>
  </g>
</svg>
