<?xml version="1.0" encoding="UTF-8" standalone="no"?>
<svg
   width="62"
   height="62"
   version="1.1"
   id="svg13"
   sodipodi:docname="sc_ide.svg"
   inkscape:version="1.4 (unknown)"
   xmlns:inkscape="http://www.inkscape.org/namespaces/inkscape"
   xmlns:sodipodi="http://sodipodi.sourceforge.net/DTD/sodipodi-0.dtd"
   xmlns="http://www.w3.org/2000/svg"
   xmlns:svg="http://www.w3.org/2000/svg">
  <defs
     id="defs13" />
  <sodipodi:namedview
     id="namedview13"
     pagecolor="#ffffff"
     bordercolor="#000000"
     borderopacity="0.25"
     inkscape:showpageshadow="2"
     inkscape:pageopacity="0.0"
     inkscape:pagecheckerboard="0"
     inkscape:deskcolor="#d1d1d1"
     inkscape:zoom="7.0710678"
     inkscape:cx="22.698128"
     inkscape:cy="39.527269"
     inkscape:window-width="1920"
     inkscape:window-height="998"
     inkscape:window-x="0"
     inkscape:window-y="0"
     inkscape:window-maximized="1"
     inkscape:current-layer="svg13" />
  <g
     id="g13"
     transform="matrix(0.98214286,0,0,0.98245614,-0.42857152,-0.92982455)">
    <circle
       style="opacity:0.2"
       cx="32"
       cy="33"
       r="28"
       id="circle1" />
    <circle
       style="fill:#2d3d53;fill-opacity:1"
       cx="32"
       cy="32"
       r="28"
       id="circle2" />
    <circle
       style="opacity:0.2"
       cx="32"
       cy="33"
       r="22"
       id="circle3" />
    <circle
       style="fill:#3f5574;fill-opacity:1"
       cx="32"
       cy="32"
       r="22"
       id="circle4" />
    <circle
       style="opacity:0.2"
       cx="32"
       cy="33"
       r="17"
       id="circle5" />
    <circle
       style="fill:#516d94;fill-opacity:1"
       cx="32"
       cy="32"
       r="17"
       id="circle6" />
    <circle
       style="opacity:0.2"
       cx="32"
       cy="33"
       r="12"
       id="circle7" />
    <circle
       style="fill:#6e8ab0;fill-opacity:1"
       cx="32"
       cy="32"
       r="12"
       id="circle8" />
    <circle
       style="opacity:0.2"
       cx="32"
       cy="33"
       r="6"
       id="circle9" />
    <circle
       style="fill:#e5e5e5;fill-opacity:1"
       cx="32"
       cy="32"
       r="6"
       id="circle10" />
    <path
       style="opacity:0.1;fill:#ffffff"
       d="M 32,4 A 28,28 0 0 0 4,32 28,28 0 0 0 4.0214844,32.585938 28,28 0 0 1 32,5 28,28 0 0 1 59.978516,32.414062 28,28 0 0 0 60,32 28,28 0 0 0 32,4 Z"
       id="path10" />
    <path
       style="opacity:0.1;fill:#ffffff"
       d="M 32,10 A 22,22 0 0 0 10,32 22,22 0 0 0 10.021484,32.585938 22,22 0 0 1 32,11 22,22 0 0 1 53.978516,32.414062 22,22 0 0 0 54,32 22,22 0 0 0 32,10 Z"
       id="path11" />
    <path
       style="opacity:0.1;fill:#ffffff"
       d="M 32,15 A 17,17 0 0 0 15,32 17,17 0 0 0 15.021484,32.580078 17,17 0 0 1 32,16 17,17 0 0 1 48.978516,32.419922 17,17 0 0 0 49,32 17,17 0 0 0 32,15 Z"
       id="path12" />
    <path
       style="opacity:0.1;fill:#ffffff"
       d="M 32,20 A 12,12 0 0 0 20,32 12,12 0 0 0 20.019531,32.59375 12,12 0 0 1 32,21 12,12 0 0 1 43.980469,32.40625 12,12 0 0 0 44,32 12,12 0 0 0 32,20 Z"
       id="path13" />
  </g>
</svg>
