<?xml version="1.0" encoding="UTF-8" standalone="no"?>
<svg
   width="62"
   height="62"
   version="1"
   id="svg7"
   sodipodi:docname="scans2pdf.svg"
   inkscape:version="1.4 (unknown)"
   xmlns:inkscape="http://www.inkscape.org/namespaces/inkscape"
   xmlns:sodipodi="http://sodipodi.sourceforge.net/DTD/sodipodi-0.dtd"
   xmlns:xlink="http://www.w3.org/1999/xlink"
   xmlns="http://www.w3.org/2000/svg"
   xmlns:svg="http://www.w3.org/2000/svg">
  <defs
     id="defs7">
    <linearGradient
       id="linearGradient1"
       inkscape:collect="always">
      <stop
         style="stop-color:#8d5fd3;stop-opacity:1"
         offset="0"
         id="stop1" />
      <stop
         style="stop-color:#d35f8d;stop-opacity:1"
         offset="0.21907079"
         id="stop3" />
      <stop
         style="stop-color:#ffdd55;stop-opacity:1"
         offset="0.42271939"
         id="stop4" />
      <stop
         style="stop-color:#5599ff;stop-opacity:1"
         offset="0.77036196"
         id="stop5" />
      <stop
         style="stop-color:#bc5fd3;stop-opacity:1"
         offset="1"
         id="stop2" />
    </linearGradient>
    <linearGradient
       id="linearGradient9"
       inkscape:collect="always">
      <stop
         style="stop-color:#f34235;stop-opacity:1;"
         offset="0"
         id="stop9" />
      <stop
         style="stop-color:#e9afc6;stop-opacity:1"
         offset="1"
         id="stop10" />
    </linearGradient>
    <linearGradient
       id="linearGradient7"
       inkscape:collect="always">
      <stop
         style="stop-color:#3f5574;stop-opacity:1;"
         offset="0"
         id="stop7" />
      <stop
         style="stop-color:#495360;stop-opacity:1;"
         offset="1"
         id="stop8" />
    </linearGradient>
    <linearGradient
       inkscape:collect="always"
       xlink:href="#linearGradient7"
       id="linearGradient8"
       x1="-57.798435"
       y1="-52.640152"
       x2="-4.9824557"
       y2="-11.657891"
       gradientUnits="userSpaceOnUse" />
    <linearGradient
       inkscape:collect="always"
       xlink:href="#linearGradient9"
       id="linearGradient10"
       x1="31"
       y1="26.596485"
       x2="31"
       y2="20.701748"
       gradientUnits="userSpaceOnUse" />
    <linearGradient
       inkscape:collect="always"
       xlink:href="#linearGradient1"
       id="linearGradient2"
       x1="-52.140347"
       y1="-30.99999"
       x2="-10.877197"
       y2="-30.99999"
       gradientUnits="userSpaceOnUse" />
  </defs>
  <sodipodi:namedview
     id="namedview7"
     pagecolor="#ffffff"
     bordercolor="#000000"
     borderopacity="0.25"
     inkscape:showpageshadow="2"
     inkscape:pageopacity="0.0"
     inkscape:pagecheckerboard="0"
     inkscape:deskcolor="#d1d1d1"
     inkscape:zoom="11.78125"
     inkscape:cx="32"
     inkscape:cy="45.623342"
     inkscape:window-width="1920"
     inkscape:window-height="998"
     inkscape:window-x="0"
     inkscape:window-y="0"
     inkscape:window-maximized="1"
     inkscape:current-layer="svg7" />
  <g
     id="g7"
     transform="translate(0,-1)">
    <rect
       style="opacity:0.2;stroke-width:0.982459"
       width="55.017548"
       height="44.210514"
       x="-60"
       y="-53.105255"
       rx="2.7508764"
       ry="2.763649"
       transform="matrix(0,-1,-1,0,0,0)"
       id="rect1" />
    <rect
       style="fill:url(#linearGradient8);stroke-width:0.982459"
       width="55.017548"
       height="44.210514"
       x="-59.017548"
       y="-53.105255"
       rx="2.7508764"
       ry="2.763649"
       transform="matrix(0,-1,-1,0,0,0)"
       id="rect2" />
    <rect
       style="fill:url(#linearGradient2);stroke-width:0.982459"
       width="41.263149"
       height="30.456137"
       x="-52.140347"
       y="-46.228058"
       rx="0"
       ry="0"
       transform="matrix(0,-1,-1,0,0,0)"
       id="rect3" />
    <rect
       style="opacity:0.2;stroke-width:0.982459"
       width="56"
       height="5.8947368"
       x="3"
       y="21.684212"
       rx="1.3999995"
       ry="1.4736842"
       id="rect4" />
    <rect
       style="fill:url(#linearGradient10);stroke-width:0.982459"
       width="56"
       height="5.8947368"
       x="3"
       y="20.701748"
       rx="1.3999995"
       ry="1.4736842"
       id="rect5" />
    <rect
       style="opacity:0.2;stroke-width:0.982459"
       width="0.98245597"
       height="30.456137"
       x="-53.122803"
       y="-46.228058"
       rx="0"
       ry="0"
       transform="matrix(0,-1,-1,0,0,0)"
       id="rect6" />
    <rect
       style="opacity:0.2;fill:#ffffff;stroke-width:0.982459"
       width="0.98245597"
       height="30.456137"
       x="-11.859647"
       y="-46.228058"
       rx="0"
       ry="0"
       transform="matrix(0,-1,-1,0,0,0)"
       id="rect7" />
    <path
       style="opacity:0.1;fill:#ffffff;stroke-width:0.982459"
       d="M 11.657891,4 C 10.127104,4 8.8947361,5.2276589 8.8947361,6.7516441 v 0.9824565 c 0,-1.5239858 1.2323679,-2.7516447 2.7631549,-2.7516447 h 38.68421 c 1.530787,0 2.763155,1.2276589 2.763155,2.7516447 V 6.7516441 C 53.105256,5.2276589 51.872888,4 50.342101,4 Z"
       id="path7" />
  </g>
  <path
     d="m 37.090843,31.511939 c -0.249844,-0.03999 -0.496544,0.125752 -0.759191,0.573317 -0.420228,0.712774 -0.613805,2.708593 -0.267539,4.628285 0.116988,0.656067 0.366889,1.61031 0.705349,2.65123 -0.267891,0.975015 -0.567933,2.008901 -0.894748,3.03513 -1.291001,4.054642 -4.063922,8.302924 -5.52619,10.588982 -0.92452,1.438979 -3.147331,3.130042 -3.335603,2.800555 -0.184919,-0.329501 0.441347,-1.068131 1.221276,-2.251583 0.776606,-1.176744 2.765793,-2.397508 2.765793,-2.397508 0,0 -0.849466,-0.03306 -3.024637,1.883294 -2.175171,1.926452 -1.516686,2.87814 -0.998898,3.170656 0.514371,0.29905 1.959099,1.441402 6.867649,-7.081265 1.792314,-3.113335 2.832946,-5.944693 3.438215,-8.292566 0.619985,1.606204 1.420161,3.22903 2.308851,4.251409 0.518098,0.599201 1.198873,1.17007 1.95448,1.699187 -0.59498,0.108305 -1.278545,0.240171 -2.204606,0.410001 -3.391145,0.615067 -5.079035,1.949028 -5.116377,1.978827 0.02753,-0.0084 3.970726,-1.256065 8.160158,-1.836389 1.647785,1.002555 3.540515,1.773803 5.105694,2.086583 2.442048,0.494066 3.107618,-0.401168 3.186262,-0.521216 -0.09531,0.07891 -0.412526,0.226586 -1.421136,0.14103 -0.810417,-0.06684 -3.026079,-0.693437 -5.271082,-1.897225 4.648498,-0.429567 6.255129,0.04271 6.669344,0.373519 0.413495,0.33285 0.413467,0.700155 0.413467,0.700155 0,0 0.532062,-0.514347 0.182262,-1.035477 -0.295657,-0.541618 -0.750159,-0.991947 -4.478576,-0.877687 -1.848624,0.05491 -2.844142,0.118369 -3.795932,0.244959 -1.129494,-0.702616 -2.21744,-1.540441 -3.075001,-2.555562 -1.149574,-1.36081 -1.85238,-2.927059 -2.310641,-4.468561 0.686706,-3.306852 0.473077,-5.354103 0.470818,-5.375441 0,0 -0.348818,1.584765 -0.886025,3.674633 -0.308203,-1.579621 -0.414143,-3.035952 -0.502068,-4.070656 -0.188271,-2.373604 0.873724,-1.715088 1.024971,-1.412489 0.242032,0.194996 0.359638,0.844347 0.359638,0.844347 0,0 -0.08367,-0.969488 -0.507274,-1.386405 -0.15759,-0.155072 -0.308743,-0.252248 -0.45864,-0.276248 z m -2.866548,17.648283 c -9.8e-5,3e-5 -0.01069,0.0034 -0.01069,0.0034 l -0.0034,0.0065 c 0,0 0.01366,-0.0096 0.01391,-0.0099 z"
     fill-opacity="0.90196"
     id="path2"
     style="fill:#ffffff;fill-opacity:1;stroke-width:3.13769" />
</svg>
