<?xml version="1.0" encoding="UTF-8" standalone="no"?>
<svg
   width="62"
   height="62"
   version="1"
   id="svg5"
   sodipodi:docname="scenarist.svg"
   inkscape:version="1.4 (unknown)"
   xmlns:inkscape="http://www.inkscape.org/namespaces/inkscape"
   xmlns:sodipodi="http://sodipodi.sourceforge.net/DTD/sodipodi-0.dtd"
   xmlns="http://www.w3.org/2000/svg"
   xmlns:svg="http://www.w3.org/2000/svg">
  <defs
     id="defs5" />
  <sodipodi:namedview
     id="namedview5"
     pagecolor="#ffffff"
     bordercolor="#000000"
     borderopacity="0.25"
     inkscape:showpageshadow="2"
     inkscape:pageopacity="0.0"
     inkscape:pagecheckerboard="0"
     inkscape:deskcolor="#d1d1d1"
     inkscape:zoom="7.0710678"
     inkscape:cx="39.103005"
     inkscape:cy="27.365032"
     inkscape:window-width="1920"
     inkscape:window-height="998"
     inkscape:window-x="0"
     inkscape:window-y="0"
     inkscape:window-maximized="1"
     inkscape:current-layer="svg5" />
  <g
     id="g6"
     transform="matrix(0.37456723,0.91129279,-0.90271683,0.37812568,48.350711,-10.449763)">
    <g
       id="g5">
      <path
         style="opacity:0.2"
         d="m 31.999,3.0001 c -1.571,0 -3.144,0.5857 -4.319,1.7604 L 3.7604,28.683 c -2.3494,2.35 -2.3461,6.281 0.0035,8.631 L 27.684,61.236 c 2.349,2.35 6.285,2.353 8.634,0.004 l 23.92,-23.923 c 2.349,-2.349 2.349,-6.284 0,-8.634 L 36.318,4.7605 C 35.143,3.5858 33.571,3.0001 31.999,3.0001 Z"
         id="path1" />
      <path
         style="fill:#00aa44"
         d="M 31.999,2 C 30.428,2 28.855,2.5858 27.68,3.7605 L 3.7604,27.683 C 1.411,30.032 1.4143,33.964 3.7639,36.314 L 27.684,60.236 c 2.349,2.35 6.285,2.353 8.634,0.004 l 23.92,-23.923 c 2.349,-2.349 2.349,-6.284 0,-8.634 L 36.318,3.7605 C 35.143,2.5858 33.571,2 31.999,2 Z"
         id="path2" />
      <path
         style="opacity:0.2"
         d="M 5.1010219,32.996151 9.3436269,37.238806 12.172032,34.41037 7.9294269,30.167713 Z M 10.757829,27.339277 20.657243,37.238806 36.21346,21.682404 26.31405,11.782873 Z M 29.142455,8.954438 33.38506,13.197092 36.21346,10.368657 31.970857,6.126 Z m -18.384626,29.698587 4.242607,4.242654 2.828403,-2.828435 -4.242605,-4.242655 z m 24.041433,-24.041714 4.242608,4.242655 2.8284,-2.828436 -4.24261,-4.242657 z m -18.384626,29.698587 4.242607,4.242657 2.828405,-2.828438 -4.242607,-4.242655 z m 24.041434,-24.041713 4.2426,4.242655 2.82841,-2.828436 -4.24261,-4.242657 z M 24.899848,41.481462 37.62766,54.209429 53.18389,38.653025 40.45607,25.925058 Z m -2.828403,8.48531 4.242605,4.242657 2.828405,-2.828438 -4.242607,-4.242655 z m 24.041435,-24.041714 4.2426,4.242655 2.82841,-2.828436 -4.24261,-4.242654 z m -18.384628,29.698589 4.242605,4.242655 2.828405,-2.828438 -4.242607,-4.242654 z m 24.041428,-24.041715 4.24261,4.242657 2.8284,-2.828438 -4.2426,-4.242655 z"
         id="path3" />
      <path
         style="fill:#e4e4e4"
         d="m 5.1010219,31.996344 4.242605,4.242655 2.8284051,-2.828436 -4.2426051,-4.242657 z M 10.757829,26.33947 20.657243,36.238999 36.21346,20.682597 26.31405,10.783066 Z M 29.142455,7.954631 33.38506,12.197285 36.21346,9.36885 31.970857,5.126193 Z m -18.384626,29.698587 4.242607,4.242654 2.828403,-2.828435 -4.242605,-4.242655 z m 24.041433,-24.041714 4.242608,4.242655 2.8284,-2.828436 -4.24261,-4.242657 z m -18.384626,29.698587 4.242607,4.242657 2.828405,-2.828438 -4.242607,-4.242655 z m 24.041434,-24.041713 4.2426,4.242655 2.82841,-2.828436 -4.24261,-4.242657 z M 24.899848,40.481655 37.62766,53.209622 53.18389,37.653218 40.45607,24.925251 Z m -2.828403,8.48531 4.242605,4.242657 2.828405,-2.828438 -4.242607,-4.242655 z m 24.041435,-24.041714 4.2426,4.242655 2.82841,-2.828436 -4.24261,-4.242654 z m -18.384628,29.698589 4.242605,4.242655 2.828405,-2.828438 -4.242607,-4.242654 z m 24.041428,-24.041715 4.24261,4.242657 2.8284,-2.828438 -4.2426,-4.242655 z"
         id="path4" />
      <path
         style="opacity:0.2;fill:#ffffff"
         d="M 32,2 C 30.429,2 28.854,2.5851 27.68,3.7598 L 3.7598,27.684 C 2.4601,28.983 1.8843,30.766 2.0234,32.498 2.1343,31.099 2.7099,29.733 3.7598,28.684 L 27.68,4.7598 C 28.854,3.5851 30.429,3 32,3 c 1.572,0 3.144,0.5851 4.318,1.7598 l 23.92,23.9242 c 1.05,1.049 1.627,2.416 1.739,3.816 0.138,-1.733 -0.439,-3.517 -1.739,-4.816 L 36.318,3.7598 C 35.144,2.5851 33.572,2 32,2 Z"
         id="path5" />
    </g>
  </g>
</svg>
