<?xml version="1.0" encoding="UTF-8" standalone="no"?>
<svg
   clip-rule="evenodd"
   fill-rule="evenodd"
   stroke-linejoin="round"
   stroke-miterlimit="2"
   viewBox="0 0 62 62"
   version="1.1"
   id="svg3"
   sodipodi:docname="scid.svg"
   width="62"
   height="62"
   inkscape:version="1.4 (unknown)"
   xmlns:inkscape="http://www.inkscape.org/namespaces/inkscape"
   xmlns:sodipodi="http://sodipodi.sourceforge.net/DTD/sodipodi-0.dtd"
   xmlns="http://www.w3.org/2000/svg"
   xmlns:svg="http://www.w3.org/2000/svg">
  <defs
     id="defs3" />
  <sodipodi:namedview
     id="namedview3"
     pagecolor="#ffffff"
     bordercolor="#000000"
     borderopacity="0.25"
     inkscape:showpageshadow="2"
     inkscape:pageopacity="0.0"
     inkscape:pagecheckerboard="0"
     inkscape:deskcolor="#d1d1d1"
     inkscape:zoom="6.6666667"
     inkscape:cx="28.275"
     inkscape:cy="41.475"
     inkscape:window-width="1920"
     inkscape:window-height="998"
     inkscape:window-x="0"
     inkscape:window-y="0"
     inkscape:window-maximized="1"
     inkscape:current-layer="svg3" />
  <g
     id="g3"
     transform="translate(0.668,0.668)">
    <path
       d="M 2.332,10.380002 C 2.332,5.9373166 5.9373166,2.332 10.380002,2.332 h 39.904 c 4.442679,0 8.047998,3.6053166 8.047998,8.048002 v 39.904 c 0,4.442679 -3.605319,8.047998 -8.047998,8.047998 h -39.904 C 5.9373166,58.332 2.332,54.726681 2.332,50.284002 Z"
       fill="#af903d"
       id="path1"
       style="stroke-width:1.29221;fill:#917c6f;fill-opacity:1" />
    <path
       d="m 10.380002,2.332 h 3.151743 V 13.531745 H 2.332 V 10.380002 C 2.332,5.9373166 5.9373166,2.332 10.380002,2.332 Z m 14.351482,0 H 35.932516 V 13.531745 H 24.731484 Z m 22.400771,0 h 3.151747 c 4.442679,0 8.047998,3.6053166 8.047998,8.048002 v 3.151743 H 47.132255 Z M 58.332,24.731484 V 35.932516 H 47.132255 V 24.731484 Z m 0,22.400771 v 3.151747 c 0,4.442679 -3.605319,8.047998 -8.047998,8.047998 H 47.132255 V 47.132255 Z M 35.932516,58.332 H 24.731484 V 47.132255 h 11.201032 z m -22.400771,0 H 10.380002 C 5.9373166,58.332 2.332,54.726681 2.332,50.284002 V 47.132255 H 13.531745 Z M 2.332,35.932516 V 24.731484 H 13.531745 V 35.932516 Z M 13.531745,13.531745 H 24.731484 V 24.731484 H 13.531745 Z m 22.400771,0 H 47.132255 V 24.731484 H 35.932516 Z M 47.132255,35.932516 V 47.132255 H 35.932516 V 35.932516 Z M 24.731484,47.132255 H 13.531745 V 35.932516 h 11.199739 z m 0,-22.400771 H 35.932516 V 35.932516 H 24.731484 Z"
       fill="#fece43"
       id="path2"
       style="stroke-width:1.29221;fill:#c8beb7;fill-opacity:1" />
    <path
       d="m 41.532,16.332 c 1.5456,0 2.8,1.2544 2.8,2.8 0,1.5456 -1.2544,2.8 -2.8,2.8 h -19.6 v 5.6 h 19.6 c 1.546992,0 2.8,1.253008 2.8,2.8 v 11.2 c 0,1.546992 -1.252992,2.8 -2.8,2.8 h -22.4 c -1.5456,0 -2.8,-1.2544 -2.8,-2.8 0,-1.5456 1.2544,-2.8 2.8,-2.8 h 19.6 v -5.6 h -19.6 c -1.546992,0 -2.8,-1.253008 -2.8,-2.8 v -11.2 c 0,-1.546992 1.253008,-2.8 2.8,-2.8 z"
       fill="#15284e"
       id="path3"
       style="stroke-width:1.4;fill:#2d3d53;fill-opacity:1" />
  </g>
</svg>
