<?xml version="1.0" encoding="UTF-8" standalone="no"?>
<svg
   width="62"
   height="62"
   version="1.1"
   id="svg29"
   sodipodi:docname="rocketchat.svg"
   inkscape:version="1.4 (unknown)"
   xmlns:inkscape="http://www.inkscape.org/namespaces/inkscape"
   xmlns:sodipodi="http://sodipodi.sourceforge.net/DTD/sodipodi-0.dtd"
   xmlns:xlink="http://www.w3.org/1999/xlink"
   xmlns="http://www.w3.org/2000/svg"
   xmlns:svg="http://www.w3.org/2000/svg">
  <defs
     id="defs29">
    <linearGradient
       id="linearGradient29"
       inkscape:collect="always">
      <stop
         style="stop-color:#2d3d53;stop-opacity:1;"
         offset="0"
         id="stop29" />
      <stop
         style="stop-color:#ff5555;stop-opacity:1"
         offset="1"
         id="stop30" />
    </linearGradient>
    <linearGradient
       inkscape:collect="always"
       xlink:href="#linearGradient29"
       id="linearGradient30"
       x1="30.782633"
       y1="60"
       x2="30.193521"
       y2="5"
       gradientUnits="userSpaceOnUse"
       gradientTransform="matrix(0.98214286,0,0,0.98245614,-0.42857152,-0.92982455)" />
    <linearGradient
       id="paint1_linear_11_148"
       x1="12.6932"
       y1="20.5312"
       x2="12.6932"
       y2="5.6079102"
       gradientUnits="userSpaceOnUse"
       gradientTransform="matrix(2.6803705,0,0,2.6803705,-3.022395,-3.5399929)">
      <stop
         stop-color="#FD5900"
         id="stop4" />
      <stop
         offset="1"
         stop-color="#FFDE00"
         id="stop5" />
    </linearGradient>
    <linearGradient
       id="linear0"
       x1="0"
       x2="15.457296"
       y1="0.40162264"
       y2="15.858919"
       gradientTransform="matrix(2.3613453,0,0,2.1996089,12.750007,12.625351)"
       gradientUnits="userSpaceOnUse">
      <stop
         offset="0%"
         style="stop-color:#ff0000; stop-opacity:1"
         id="stop1" />
      <stop
         offset="50%"
         style="stop-color:#ffd000; stop-opacity:1"
         id="stop2" />
      <stop
         offset="100%"
         style="stop-color:#ff00bb; stop-opacity:1"
         id="stop3" />
    </linearGradient>
    <linearGradient
       id="linear0-6"
       x1="0"
       x2="0"
       y1="0"
       y2="16"
       gradientUnits="userSpaceOnUse"
       gradientTransform="matrix(2.2500014,0,0,2.2500014,13.000004,13.000032)">
      <stop
         offset="0%"
         style="stop-color:#00b54e; stop-opacity:1"
         id="stop1-7" />
      <stop
         offset="50%"
         style="stop-color:#0073ff; stop-opacity:1"
         id="stop2-5" />
      <stop
         offset="100%"
         style="stop-color:#ffd000; stop-opacity:1"
         id="stop3-3" />
    </linearGradient>
  </defs>
  <sodipodi:namedview
     id="namedview29"
     pagecolor="#ffffff"
     bordercolor="#000000"
     borderopacity="0.25"
     inkscape:showpageshadow="2"
     inkscape:pageopacity="0.0"
     inkscape:pagecheckerboard="0"
     inkscape:deskcolor="#d1d1d1"
     inkscape:zoom="7.0710678"
     inkscape:cx="15.061374"
     inkscape:cy="37.264527"
     inkscape:window-width="1920"
     inkscape:window-height="998"
     inkscape:window-x="0"
     inkscape:window-y="0"
     inkscape:window-maximized="1"
     inkscape:current-layer="svg29" />
  <rect
     style="opacity:0.2;stroke-width:0.9823"
     width="55"
     height="55.017544"
     x="3.5"
     y="3.9824562"
     ry="13.754386"
     id="rect1" />
  <rect
     style="fill:url(#linearGradient30);stroke-width:0.9823"
     width="55"
     height="55.017544"
     x="3.5"
     y="3"
     ry="13.754386"
     id="rect2" />
  <path
     style="opacity:0.1;fill:#ffffff;stroke-width:0.9823"
     d="M 17.25,3 C 9.6324999,3 3.4999999,9.1344561 3.4999999,16.754386 v 0.982456 c 0,-7.61993 6.1325,-13.7543858 13.7500001,-13.7543858 h 27.5 c 7.6175,0 13.75,6.1344558 13.75,13.7543858 V 16.754386 C 58.5,9.1344561 52.3675,3 44.75,3 Z"
     id="path28" />
  <g
     id="g1"
     transform="translate(18.925943,-38)">
    <path
       style="opacity:0.2;stroke-width:0.878132"
       d="m -8.9991222,70.081954 c 0,-10.647882 5.5064067,-16.452725 8.72806288,-16.452725 3.22183202,0 3.56606182,1.641567 3.56606182,4.255126 0,5.07316 -6.1469427,3.253355 -6.1469427,12.773969 0,3.153348 1.7391936,6.680546 5.3354018,6.680546 2.8853543,0 3.9465949,-3.06797 5.4094664,-9.223277 2.427,-9.25367 4.883851,-16.239106 13.174635,-16.239106 8.055456,0 12.080552,6.777852 12.080552,17.426268 0,10.648064 -6.236615,17.689401 -9.458442,17.689401 -3.221654,0 -4.588246,-1.285188 -4.588246,-3.898829 0,-5.073162 7.309745,-4.257629 7.309745,-13.778063 0,-3.153347 -1.381945,-7.797653 -4.977976,-7.797653 -2.885355,0 -3.905152,0.202162 -5.674997,6.949959 C 14.795827,75.676564 12.505804,87 3.7443769,87 -4.3105541,87 -9.0000002,80.73055 -9.0000002,70.083009 Z"
       id="path2" />
    <path
       style="fill:#ffffff;stroke-width:0.878132"
       d="m -8.9991222,69.205479 c 0,-10.64789 5.5064067,-16.452725 8.72806288,-16.452725 3.22183202,0 3.56606182,1.641567 3.56606182,4.255121 0,5.073165 -6.1469427,3.253358 -6.1469427,12.773969 0,3.15334 1.7391936,6.680543 5.3354018,6.680543 2.8853543,0 3.9465949,-3.067966 5.4094664,-9.223268 C 10.319928,57.985435 12.776779,51 21.067563,51 c 8.055456,0 12.080552,6.777858 12.080552,17.42627 0,10.648061 -6.236615,17.689405 -9.458442,17.689405 -3.221654,0 -4.588246,-1.285182 -4.588246,-3.898832 0,-5.073164 7.309745,-4.257624 7.309745,-13.778066 0,-3.153336 -1.381945,-7.797653 -4.977976,-7.797653 -2.885355,0 -3.905152,0.202166 -5.674997,6.949959 -0.962372,7.208993 -3.252395,18.53243 -12.0138221,18.53243 -8.054931,0 -12.7443771,-6.269451 -12.7443771,-16.916983 z"
       id="path3-3" />
  </g>
</svg>
