<?xml version="1.0" encoding="UTF-8" standalone="no"?>
<svg
   width="62"
   height="62"
   version="1.1"
   id="svg29"
   sodipodi:docname="sdrangel.svg"
   inkscape:version="1.4 (unknown)"
   xmlns:inkscape="http://www.inkscape.org/namespaces/inkscape"
   xmlns:sodipodi="http://sodipodi.sourceforge.net/DTD/sodipodi-0.dtd"
   xmlns:xlink="http://www.w3.org/1999/xlink"
   xmlns="http://www.w3.org/2000/svg"
   xmlns:svg="http://www.w3.org/2000/svg">
  <defs
     id="defs29">
    <linearGradient
       id="linearGradient29"
       inkscape:collect="always">
      <stop
         style="stop-color:#2d3d53;stop-opacity:1;"
         offset="0"
         id="stop29" />
      <stop
         style="stop-color:#4f4f4f;stop-opacity:1;"
         offset="1"
         id="stop30" />
    </linearGradient>
    <linearGradient
       inkscape:collect="always"
       xlink:href="#linearGradient29"
       id="linearGradient30"
       x1="30.782633"
       y1="60"
       x2="30.193521"
       y2="5"
       gradientUnits="userSpaceOnUse"
       gradientTransform="matrix(0.98214286,0,0,0.98245614,-0.42857152,-0.92982455)" />
    <linearGradient
       id="paint1_linear_11_148"
       x1="12.6932"
       y1="20.5312"
       x2="12.6932"
       y2="5.6079102"
       gradientUnits="userSpaceOnUse"
       gradientTransform="matrix(2.6803705,0,0,2.6803705,-3.022395,-3.5399929)">
      <stop
         stop-color="#FD5900"
         id="stop4" />
      <stop
         offset="1"
         stop-color="#FFDE00"
         id="stop5" />
    </linearGradient>
    <linearGradient
       id="linear0"
       x1="0"
       x2="15.457296"
       y1="0.40162264"
       y2="15.858919"
       gradientTransform="matrix(2.3613453,0,0,2.1996089,12.750007,12.625351)"
       gradientUnits="userSpaceOnUse">
      <stop
         offset="0%"
         style="stop-color:#ff0000; stop-opacity:1"
         id="stop1" />
      <stop
         offset="50%"
         style="stop-color:#ffd000; stop-opacity:1"
         id="stop2" />
      <stop
         offset="100%"
         style="stop-color:#ff00bb; stop-opacity:1"
         id="stop3" />
    </linearGradient>
    <linearGradient
       id="linear0-6"
       x1="0"
       x2="0"
       y1="0"
       y2="16"
       gradientUnits="userSpaceOnUse"
       gradientTransform="matrix(2.2500014,0,0,2.2500014,13.000004,13.000032)">
      <stop
         offset="0%"
         style="stop-color:#00b54e; stop-opacity:1"
         id="stop1-7" />
      <stop
         offset="50%"
         style="stop-color:#0073ff; stop-opacity:1"
         id="stop2-5" />
      <stop
         offset="100%"
         style="stop-color:#ffd000; stop-opacity:1"
         id="stop3-3" />
    </linearGradient>
  </defs>
  <sodipodi:namedview
     id="namedview29"
     pagecolor="#ffffff"
     bordercolor="#000000"
     borderopacity="0.25"
     inkscape:showpageshadow="2"
     inkscape:pageopacity="0.0"
     inkscape:pagecheckerboard="0"
     inkscape:deskcolor="#d1d1d1"
     inkscape:zoom="7.0710678"
     inkscape:cx="15.061374"
     inkscape:cy="37.264527"
     inkscape:window-width="1920"
     inkscape:window-height="998"
     inkscape:window-x="0"
     inkscape:window-y="0"
     inkscape:window-maximized="1"
     inkscape:current-layer="svg29" />
  <rect
     style="opacity:0.2;stroke-width:0.9823"
     width="55"
     height="55.017544"
     x="3.5"
     y="3.9824562"
     ry="13.754386"
     id="rect1" />
  <rect
     style="fill:url(#linearGradient30);stroke-width:0.9823"
     width="55"
     height="55.017544"
     x="3.5"
     y="3"
     ry="13.754386"
     id="rect2" />
  <path
     style="opacity:0.1;fill:#ffffff;stroke-width:0.9823"
     d="M 17.25,3 C 9.6324999,3 3.4999999,9.1344561 3.4999999,16.754386 v 0.982456 c 0,-7.61993 6.1325,-13.7543858 13.7500001,-13.7543858 h 27.5 c 7.6175,0 13.75,6.1344558 13.75,13.7543858 V 16.754386 C 58.5,9.1344561 52.3675,3 44.75,3 Z"
     id="path28" />
  <g
     id="g1"
     transform="translate(27.499904,-54.707945)">
    <path
       style="opacity:0.2"
       d="m 13.300881,68.708372 c -1.467191,0.0061 -2.937664,0.124084 -4.3593749,0.238281 -2.349845,0.321444 -4.772189,0.738483 -6.865234,1.945313 -0.698599,0.380658 -1.55467497,1.37408 -0.753906,2.101562 1.203915,1.11096 2.937724,1.273573 4.478515,1.527344 4.5036389,0.448332 9.2161859,0.154902 13.4492189,-1.582031 1.115432,-0.335543 2.628076,-1.908672 1.109375,-2.796875 C 18.18152,68.998227 15.7462,68.698211 13.300881,68.708372 Z m -1.189453,0.832031 c 1.775063,-0.03916 3.549637,0.122035 5.246094,0.671875 0.566061,0.231216 1.429484,0.57246 1.25,1.353516 -0.97473,1.187092 -2.577405,1.460256 -3.97461,1.818359 -3.250021,0.609056 -6.6917889,0.831745 -9.9003899,-0.126953 -0.585389,-0.205835 -1.766291,-0.693568 -1.216797,-1.5 1.441385,-1.381651 3.551347,-1.626701 5.417969,-1.970703 1.047902,-0.126886 2.1126969,-0.2226 3.1777339,-0.246094 z m -18.8339839,6.167969 c -4.5650571,-0.04695 -8.9887371,1.785203 -13.2773441,3.304688 3.007595,5.167757 7.159029,9.923877 12.5742191,12.404296 3.934176,1.901565 8.802997,1.765541 12.425781,-0.822265 C 1.2659241,88.11467 0.48698913,83.341609 -0.78896187,79.307981 -1.1433919,77.401175 -2.9323979,75.997628 -4.7577119,75.85095 c -0.657912,-0.08971 -1.312693,-0.135871 -1.964844,-0.142578 z m 23.8632809,3.001953 c -0.993258,0.009 -1.965899,0.077 -2.890625,0.222656 -2.478761,0.381993 -4.9451089,1.908319 -5.7695309,4.378907 -0.928849,2.737155 -0.616775,6.318238 1.8867189,8.134765 2.734331,2.094089 6.402901,1.828913 9.425781,3.230469 1.775256,0.884903 1.330925,3.800826 -0.5625,4.259766 -3.731882,1.074522 -7.916294,-0.383675 -11.2304689,-2.082032 v 5.171874 c 3.8720339,1.39055 8.3585749,2.06871 12.4531249,1.45313 2.146243,-0.33253 4.377264,-1.31047 5.490234,-3.27539 1.552662,-2.954267 1.616222,-7.406138 -1.324218,-9.533207 -2.940437,-2.088594 -6.756981,-1.820217 -9.980469,-3.164063 -1.717545,-0.733757 -1.357807,-3.488551 0.365234,-3.980469 3.451579,-1.077275 7.825977,0.04275 11,1.488282 -0.0027,-1.720341 0.0087,-3.437862 -0.0078,-5.158203 -2.699981,-0.655446 -5.875694,-1.173541 -8.855469,-1.146485 z"
       id="path2" />
    <path
       style="fill:#4d88ef"
       d="m 8.9414071,67.946375 c 3.7912289,-0.304526 7.9331399,-0.634431 11.4178679,1.195551 1.518701,0.888203 0.0054,2.461596 -1.110032,2.797139 -4.233033,1.736933 -8.943767,2.03018 -13.4474059,1.581848 -1.540791,-0.253771 -3.274872,-0.417314 -4.478787,-1.528274 -0.80076897,-0.727482 0.05523,-1.720015 0.753829,-2.100673 2.093045,-1.20683 4.514683,-1.624147 6.864528,-1.945591 m -0.0085,0.840271 c -1.866622,0.344002 -3.976237,0.589315 -5.417622,1.970966 -0.549494,0.806432 0.632333,1.294242 1.217722,1.500077 3.208601,0.958698 6.6491479,0.735941 9.8991689,0.126885 1.397204,-0.358103 3.001505,-0.631613 3.976235,-1.818705 0.179484,-0.781056 -0.684797,-1.122237 -1.250858,-1.353453 -2.714331,-0.879745 -5.630239,-0.764137 -8.4246459,-0.425774 z"
       id="path3-6" />
    <path
       style="fill:#4d88ef"
       d="m -19.9999,78.011805 c 4.901265,-1.736554 9.979747,-3.87909 15.2430391,-3.161419 1.825315,0.146678 3.612657,1.550588 3.96708703,3.457394 1.275951,4.033628 2.05569797,8.805878 5.78987397,11.286299 -3.622784,2.587806 -8.49114,2.724005 -12.425316,0.82244 C -12.840406,87.9361 -16.992305,83.179563 -19.9999,78.011805 Z"
       id="path4" />
    <path
       style="fill:#4d88ef"
       d="m 14.250719,77.933485 c 3.698904,-0.582609 8.145307,0.04945 11.745281,0.923377 0.01649,1.720342 0.0055,3.437937 0.0082,5.158278 -3.174023,-1.445528 -7.548974,-2.566772 -11.000553,-1.489497 -1.723041,0.491918 -2.083038,3.248312 -0.365493,3.982069 3.223488,1.343846 7.040561,1.074527 9.980998,3.163121 2.94044,2.127069 2.877234,6.579069 1.324572,9.533332 -1.11297,1.964925 -3.344405,2.943265 -5.490648,3.275795 -4.09455,0.61558 -8.580942,-0.0632 -12.4529759,-1.45377 v -5.172021 c 3.3141749,1.698357 7.4982789,3.157623 11.2301609,2.083097 1.893425,-0.45894 2.338611,-3.374728 0.563355,-4.259631 C 16.770736,92.276079 13.102059,92.5399 10.367727,90.445811 7.8642331,88.629284 7.5509531,85.048443 8.4798021,82.311288 9.3042241,79.8407 11.771993,78.315478 14.250754,77.933485 Z"
       id="path5" />
    <path
       style="opacity:0.2;fill:#ffffff"
       d="m 13.300881,67.708068 c -1.467191,0.0061 -2.937664,0.124084 -4.3593749,0.238281 -2.349845,0.321444 -4.772189,0.738483 -6.865234,1.945313 -0.634336,0.345641 -1.38418697,1.194341 -0.919922,1.892578 0.205388,-0.374448 0.579777,-0.707237 0.919922,-0.892578 1.082521,-0.624171 2.253927,-1.032396 3.457031,-1.330078 1.091999,-0.395992 2.288293,-0.570441 3.400391,-0.775391 1.047902,-0.126886 2.1126969,-0.2226 3.1777339,-0.246094 1.27897,-0.02821 2.557216,0.05444 3.806641,0.304688 1.54283,0.18026 3.044977,0.563549 4.441406,1.296875 0.237846,0.139103 0.393778,0.29562 0.496094,0.460937 0.244275,-0.508194 0.197442,-1.055327 -0.496094,-1.460937 C 18.18152,67.997923 15.7462,67.697907 13.300881,67.708068 Z m 5.080078,3.089844 c -0.984453,0.984308 -2.451434,1.253616 -3.748047,1.585937 -3.250021,0.609056 -6.6917889,0.831745 -9.9003899,-0.126953 -0.318049,-0.111833 -0.804965,-0.309589 -1.101563,-0.59375 -0.03715,0.03339 -0.07892,0.05894 -0.115234,0.09375 -0.549494,0.806432 0.631408,1.294165 1.216797,1.5 0.330002,0.0986 0.663574,0.17748 0.998047,0.251953 0.02306,0.0037 0.04733,0.0079 0.07031,0.01172 3.696551,0.367987 7.5295949,0.222627 11.1269529,-0.796875 0.638939,-0.257025 1.227698,-0.607739 1.679688,-1.158203 0.0747,-0.325077 -0.03658,-0.571097 -0.226563,-0.767578 z m -25.1035149,3.910156 c -4.5650571,-0.04695 -8.9887371,1.785202 -13.2773441,3.304688 0.160795,0.276282 0.338508,0.544714 0.50586,0.818359 4.131459,-1.480451 8.384494,-3.168163 12.7714841,-3.123047 0.652151,0.0067 1.306932,0.05287 1.964844,0.142578 1.825313,0.146678 3.614319,1.550225 3.96875003,3.457031 1.189936,3.761713 1.95067097,8.16528 5.07617097,10.753907 0.242118,-0.145956 0.480456,-0.300766 0.712891,-0.466797 -3.734176,-2.480421 -4.51311097,-7.253482 -5.78906197,-11.28711 -0.35443003,-1.906806 -2.14343703,-3.310353 -3.96875003,-3.457031 -0.657912,-0.08971 -1.312693,-0.135871 -1.964844,-0.142578 z m 23.8632809,3.001953 c -0.993258,0.009 -1.965899,0.077 -2.890625,0.222656 -2.478761,0.381993 -4.9451089,1.908319 -5.7695309,4.378907 -0.363155,1.070154 -0.528104,2.267187 -0.455078,3.439453 0.04474,-0.840997 0.195143,-1.673472 0.455078,-2.439453 0.824422,-2.470588 3.2907699,-3.996914 5.7695309,-4.378907 0.924726,-0.145656 1.897367,-0.213656 2.890625,-0.222656 2.979775,-0.02706 6.155488,0.491038 8.855469,1.146485 0.0133,1.386825 0.0068,2.772088 0.0059,4.158203 5.3e-4,2.41e-4 0.0014,-2.42e-4 0.002,0 -0.0027,-1.720341 0.0087,-3.437862 -0.0078,-5.158203 C 23.296313,78.20106 20.1206,77.682965 17.140825,77.710021 Z m -3.552734,7.480469 c -0.188678,0.910816 0.109757,1.914389 1.050781,2.316406 3.223488,1.343846 7.040032,1.075469 9.980469,3.164063 1.558015,1.127044 2.266656,2.907677 2.363281,4.771484 0.1372,-2.209921 -0.527667,-4.443629 -2.363281,-5.771484 C 21.678804,87.582365 17.86226,87.850742 14.638772,86.506896 14.044499,86.253015 13.714466,85.750827 13.587991,85.19049 Z M 8.0001001,95.854552 v 1 c 3.3141749,1.698357 7.4985869,3.156558 11.2304689,2.082032 1.24911,-0.302767 1.848685,-1.669439 1.615234,-2.822266 -0.167537,0.838619 -0.722279,1.605826 -1.615234,1.822266 -3.731882,1.074526 -7.916294,-0.383675 -11.2304689,-2.082032 z"
       id="path7" />
  </g>
</svg>
