<?xml version="1.0" encoding="UTF-8" standalone="no"?>
<svg
   width="62"
   height="62"
   version="1.1"
   id="svg29"
   sodipodi:docname="seafile.svg"
   inkscape:version="1.4 (unknown)"
   xmlns:inkscape="http://www.inkscape.org/namespaces/inkscape"
   xmlns:sodipodi="http://sodipodi.sourceforge.net/DTD/sodipodi-0.dtd"
   xmlns:xlink="http://www.w3.org/1999/xlink"
   xmlns="http://www.w3.org/2000/svg"
   xmlns:svg="http://www.w3.org/2000/svg">
  <defs
     id="defs29">
    <linearGradient
       id="linearGradient29"
       inkscape:collect="always">
      <stop
         style="stop-color:#2d3d53;stop-opacity:1;"
         offset="0"
         id="stop29" />
      <stop
         style="stop-color:#fea238;stop-opacity:1;"
         offset="1"
         id="stop30" />
    </linearGradient>
    <linearGradient
       inkscape:collect="always"
       xlink:href="#linearGradient29"
       id="linearGradient30"
       x1="30.638639"
       y1="72.091522"
       x2="30.193521"
       y2="5"
       gradientUnits="userSpaceOnUse"
       gradientTransform="matrix(0.98214286,0,0,0.98245614,-0.42857152,-0.92982455)" />
    <linearGradient
       id="paint1_linear_11_148"
       x1="12.6932"
       y1="20.5312"
       x2="12.6932"
       y2="5.6079102"
       gradientUnits="userSpaceOnUse"
       gradientTransform="matrix(2.6803705,0,0,2.6803705,-3.022395,-3.5399929)">
      <stop
         stop-color="#FD5900"
         id="stop4" />
      <stop
         offset="1"
         stop-color="#FFDE00"
         id="stop5" />
    </linearGradient>
    <linearGradient
       id="linear0"
       x1="0"
       x2="15.457296"
       y1="0.40162264"
       y2="15.858919"
       gradientTransform="matrix(2.3613453,0,0,2.1996089,12.750007,12.625351)"
       gradientUnits="userSpaceOnUse">
      <stop
         offset="0%"
         style="stop-color:#ff0000; stop-opacity:1"
         id="stop1" />
      <stop
         offset="50%"
         style="stop-color:#ffd000; stop-opacity:1"
         id="stop2" />
      <stop
         offset="100%"
         style="stop-color:#ff00bb; stop-opacity:1"
         id="stop3" />
    </linearGradient>
    <linearGradient
       id="linear0-6"
       x1="0"
       x2="0"
       y1="0"
       y2="16"
       gradientUnits="userSpaceOnUse"
       gradientTransform="matrix(2.2500014,0,0,2.2500014,13.000004,13.000032)">
      <stop
         offset="0%"
         style="stop-color:#00b54e; stop-opacity:1"
         id="stop1-7" />
      <stop
         offset="50%"
         style="stop-color:#0073ff; stop-opacity:1"
         id="stop2-5" />
      <stop
         offset="100%"
         style="stop-color:#ffd000; stop-opacity:1"
         id="stop3-3" />
    </linearGradient>
  </defs>
  <sodipodi:namedview
     id="namedview29"
     pagecolor="#ffffff"
     bordercolor="#000000"
     borderopacity="0.25"
     inkscape:showpageshadow="2"
     inkscape:pageopacity="0.0"
     inkscape:pagecheckerboard="0"
     inkscape:deskcolor="#d1d1d1"
     inkscape:zoom="7.0710678"
     inkscape:cx="15.061374"
     inkscape:cy="37.264527"
     inkscape:window-width="1920"
     inkscape:window-height="998"
     inkscape:window-x="0"
     inkscape:window-y="0"
     inkscape:window-maximized="1"
     inkscape:current-layer="svg29" />
  <rect
     style="opacity:0.2;stroke-width:0.9823"
     width="55"
     height="55.017544"
     x="3.5"
     y="3.9824562"
     ry="13.754386"
     id="rect1" />
  <rect
     style="fill:url(#linearGradient30);stroke-width:0.9823"
     width="55"
     height="55.017544"
     x="3.5"
     y="3"
     ry="13.754386"
     id="rect2" />
  <path
     style="opacity:0.1;fill:#ffffff;stroke-width:0.9823"
     d="M 17.25,3 C 9.6324999,3 3.4999999,9.1344561 3.4999999,16.754386 v 0.982456 c 0,-7.61993 6.1325,-13.7543858 13.7500001,-13.7543858 h 27.5 c 7.6175,0 13.75,6.1344558 13.75,13.7543858 V 16.754386 C 58.5,9.1344561 52.3675,3 44.75,3 Z"
     id="path28" />
  <g
     id="g1"
     transform="matrix(1.0007645,0,0,1,9.5022934,-45.491218)">
    <path
       style="opacity:0.2;stroke-width:1.3601"
       d="m 13.435682,60.375492 c -1.082071,0.05588 -2.146555,0.262221 -2.773381,0.600367 -2.107658,1.13704 -3.6622053,2.630188 -4.1016257,5.057963 -0.1153881,0.637503 -0.2807444,1.233651 -0.3665955,1.322934 -0.085825,0.08927 -0.5064381,0.06202 -0.935085,-0.06112 -0.9941206,-0.285488 -2.4174043,0.04569 -3.6314261,0.847417 -0.96221313,0.63544 -1.85600796,2.803611 -2.08534693,4.14679 -0.12945908,0.758252 -0.1751101,0.252366 -0.92977247,0.252366 -0.6123156,0 -0.887104,0.125595 -1.2140168,0.557867 -0.5550265,0.733879 -0.5317503,1.117303 0.079687,1.753284 0.4953497,0.514902 0.5381117,0.521283 4.2291381,0.518015 1.3722694,-0.0011 2.4086768,-0.03802 3.121378,-0.085 0.4072051,-0.867323 0.9395007,-1.691992 1.6496825,-2.43069 3.0258461,-3.147335 7.6911619,-3.617809 11.3565079,-1.596556 0.915022,-1.602308 2.050484,-2.980898 3.402966,-4.024584 -0.0054,-0.167448 -0.18224,-0.873968 -0.403784,-1.604522 -0.71677,-2.364056 -2.272024,-4.061536 -4.529315,-4.946382 -0.689299,-0.270184 -1.786945,-0.364033 -2.869013,-0.308153 z m 16.132877,6.797967 c -2.16087,-0.03935 -4.391724,0.599918 -6.3623,1.960487 -1.883784,1.300526 -3.218934,2.774611 -3.934265,5.135006 -0.191612,0.632361 -0.434325,1.150258 -0.539265,1.150258 -0.104923,0 -0.50221,-0.694759 -0.884616,-1.044005 -2.71475,-2.479341 -6.827323,-2.319051 -9.4092973,0.366598 -1.9213796,1.998522 -2.2746025,5.490536 -1.2963688,8.142149 0.1030169,0.279171 -0.8170032,0.500257 -1.7665668,0.998845 -1.421627,0.746309 -2.3440574,1.809175 -2.6936848,3.108094 -0.6291794,2.336642 1.1806329,4.821325 3.6500216,5.738025 1.0331286,0.384058 3.0292175,0.355925 4.2185111,-0.05843 0.881344,-0.307111 1.746823,-1.113895 7.037047,-6.569509 6.969405,-7.1874 7.231173,-8.060088 10.081389,-8.070424 1.443255,-0.0054 2.475224,0.07818 3.67659,0.69334 1.634319,0.837005 2.832712,2.843324 3.41625,4.465567 0.543219,1.508346 0.547882,3.343702 0.01292,4.255701 -0.468224,0.798725 -2.166246,1.546085 -3.07887,1.546085 -0.906501,0 -2.430135,-0.793969 -2.799947,-1.604531 -0.597326,-1.385963 -0.685095,-2.693974 0.746428,-3.907693 -2.838445,0.07297 -3.177132,1.12983 -4.080373,4.375242 0,2.243609 1.137583,4.400156 3.009805,4.975614 0.457264,0.140417 3.009862,0.196865 6.944077,0.154078 5.927044,-0.06447 6.257066,-0.09055 7.03439,-0.528648 1.139488,-0.64232 2.449638,-2.109546 2.961988,-3.317962 0.509412,-1.201508 0.600186,-3.50042 0.201896,-4.765748 -0.753297,-2.210238 -4.225332,-4.593533 -6.423399,-3.097468 -0.384201,0.436214 -0.752796,0.05476 -0.820858,-0.01598 -0.06798,-0.07073 0.301759,-0.403974 0.488798,-1.073222 0.249768,-0.894373 0.318276,-1.785249 0.260338,-3.363123 -0.07379,-2.006788 -0.133109,-2.26565 -0.929774,-3.971457 -1.708281,-3.657753 -5.119824,-5.611353 -8.721271,-5.676919 z"
       id="path4" />
    <path
       style="fill:#ffffff;stroke-width:1.3601"
       d="m 13.435682,59.015466 c -1.082071,0.05591 -2.146555,0.262227 -2.773381,0.600372 -2.107658,1.137044 -3.6622053,2.630194 -4.1016257,5.057962 -0.1153881,0.637509 -0.2807444,1.233657 -0.3665955,1.322936 -0.085825,0.08927 -0.5064381,0.06203 -0.935085,-0.06112 -0.9941206,-0.285485 -2.4174043,0.04567 -3.6314261,0.847423 -0.96221313,0.635435 -1.85600796,2.80361 -2.08534693,4.146788 -0.12945908,0.758247 -0.1751101,0.252361 -0.92977247,0.252361 -0.6123156,0 -0.887104,0.125598 -1.2140168,0.557868 -0.5550265,0.733878 -0.5317503,1.117302 0.079687,1.753287 0.4953497,0.514901 0.5381117,0.52128 4.2291381,0.518011 1.3722694,-0.0011 2.4086768,-0.03802 3.121378,-0.085 0.4072048,-0.867324 0.9395004,-1.691993 1.6496822,-2.43069 3.0258461,-3.147337 7.6911622,-3.617811 11.3565082,-1.596551 0.915022,-1.602314 2.050484,-2.980902 3.402966,-4.024591 -0.0054,-0.167447 -0.18224,-0.873968 -0.403784,-1.604518 -0.716767,-2.364063 -2.272021,-4.061537 -4.529313,-4.94639 -0.689301,-0.270183 -1.786947,-0.364028 -2.869015,-0.308147 z m 16.132877,6.797974 c -2.16087,-0.03936 -4.391724,0.599918 -6.3623,1.960491 -1.883784,1.300519 -3.218934,2.774605 -3.934265,5.135001 -0.191612,0.632363 -0.434325,1.150257 -0.539265,1.150257 -0.104923,0 -0.50221,-0.694753 -0.884616,-1.043998 -2.71475,-2.479342 -6.827323,-2.319051 -9.4092973,0.366592 -1.9213796,1.998521 -2.2746025,5.490537 -1.2963688,8.142154 0.1030168,0.279171 -0.8170032,0.500257 -1.7665668,0.998839 -1.421627,0.746315 -2.3440574,1.809182 -2.6936848,3.108095 -0.6291794,2.336648 1.1806329,4.821318 3.6500216,5.738024 1.0331286,0.384064 3.0292175,0.355932 4.2185111,-0.05843 0.881344,-0.307109 1.746823,-1.113888 7.037047,-6.569507 6.969405,-7.187395 7.231173,-8.060083 10.081389,-8.070426 1.443255,-0.0054 2.475224,0.07818 3.67659,0.693346 1.634319,0.836999 2.832712,2.843324 3.41625,4.465562 0.543219,1.508351 0.547882,3.343708 0.01292,4.255707 -0.468224,0.798727 -2.166246,1.546075 -3.07887,1.546075 -0.906501,0 -2.430135,-0.793959 -2.799947,-1.604519 -0.597326,-1.385966 -0.685095,-2.693975 0.746428,-3.907702 -2.838445,0.07301 -3.177132,1.129837 -4.080373,4.375241 0,2.243618 1.137583,4.400158 3.009805,4.975615 0.457264,0.140417 3.009862,0.196865 6.944077,0.154078 5.927044,-0.06441 6.257066,-0.09055 7.03439,-0.528642 1.139488,-0.64232 2.449638,-2.109544 2.961988,-3.31796 0.509412,-1.201514 0.600186,-3.500424 0.201896,-4.765749 -0.753297,-2.210245 -4.225332,-4.593535 -6.423399,-3.097469 -0.384201,0.436209 -0.752796,0.05476 -0.820858,-0.01598 -0.06798,-0.07073 0.301759,-0.403974 0.488798,-1.07322 0.249768,-0.894376 0.318276,-1.785249 0.260338,-3.363123 -0.07379,-2.006793 -0.133109,-2.265656 -0.929774,-3.971462 -1.708234,-3.657753 -5.119772,-5.611346 -8.721219,-5.676916 z"
       id="path5" />
  </g>
</svg>
