<?xml version="1.0" encoding="UTF-8" standalone="no"?>
<svg
   width="62"
   height="62"
   version="1.1"
   id="svg2"
   sodipodi:docname="securecrt.svg"
   inkscape:version="1.4 (unknown)"
   xmlns:inkscape="http://www.inkscape.org/namespaces/inkscape"
   xmlns:sodipodi="http://sodipodi.sourceforge.net/DTD/sodipodi-0.dtd"
   xmlns="http://www.w3.org/2000/svg"
   xmlns:svg="http://www.w3.org/2000/svg">
  <defs
     id="defs2" />
  <sodipodi:namedview
     id="namedview2"
     pagecolor="#ffffff"
     bordercolor="#000000"
     borderopacity="0.25"
     inkscape:showpageshadow="2"
     inkscape:pageopacity="0.0"
     inkscape:pagecheckerboard="0"
     inkscape:deskcolor="#d1d1d1"
     inkscape:zoom="12.109375"
     inkscape:cx="32"
     inkscape:cy="38.606452"
     inkscape:window-width="1920"
     inkscape:window-height="998"
     inkscape:window-x="0"
     inkscape:window-y="0"
     inkscape:window-maximized="1"
     inkscape:current-layer="svg2" />
  <rect
     width="56"
     height="46"
     x="3"
     y="8"
     rx="7"
     ry="7"
     id="rect1"
     style="fill:#4d4d4d;fill-opacity:1" />
  <rect
     width="50"
     height="40"
     x="6"
     y="11"
     opacity="0.15"
     rx="4"
     ry="4"
     id="rect2"
     style="fill:#ffffff;fill-opacity:1" />
  <rect
     width="15.999"
     height="1.999"
     x="18.111273"
     y="33.149807"
     paint-order="stroke markers fill"
     ry="1.002"
     id="rect2-5"
     style="fill:#ffffff;fill-opacity:1" />
  <path
     d="m 13.125272,15.007801 a 1,1 0 0 0 -0.99,0.491 1,1 0 0 0 0.366,1.369 l 10.742,6.198 -10.742,6.202 a 1,1 0 0 0 -0.366,1.369 c 0.28,0.48 0.888,0.642 1.368,0.366 l 12.12,-7 a 0.98,0.98 0 0 0 0.481,-0.85 c 0.008,-0.03 0.004,-0.057 0.008,-0.083 q 0.002,-0.043 -0.008,-0.087 a 0.98,0.98 0 0 0 -0.48,-0.847 l -12.121,-7.003 a 1,1 0 0 0 -0.378,-0.125"
     paint-order="stroke markers fill"
     id="path2-3"
     style="fill:#ffffff;fill-opacity:1" />
  <circle
     cx="50"
     cy="50"
     r="12"
     id="circle2"
     style="fill:#32a8ff;fill-opacity:1" />
  <path
     d="m 44,43.998003 v 1 c 0,0.55 0.454,1 1,1 a 9,9 0 0 1 9,8.999999 c 0,0.55 0.454,1 1,1 h 1 v -1 c 0,-6.075 -4.925,-10.999999 -11,-10.999999 z m 0,4 v 0.999999 c 0,0.55 0.454,1 1,1 a 5,5 0 0 1 5,5 c 0,0.55 0.454,1 1,1 h 1 v -1 a 7,7 0 0 0 -7,-6.999999 z m 2,4.001999 a 2,2 0 1 0 0,4 2,2 0 0 0 0,-4"
     id="path3"
     style="fill:#ffffff;fill-opacity:1" />
</svg>
