<?xml version="1.0" encoding="UTF-8" standalone="no"?>
<svg
   width="62"
   height="62"
   version="1"
   id="svg6"
   sodipodi:docname="security-high.svg"
   inkscape:version="1.4.2 (unknown)"
   xmlns:inkscape="http://www.inkscape.org/namespaces/inkscape"
   xmlns:sodipodi="http://sodipodi.sourceforge.net/DTD/sodipodi-0.dtd"
   xmlns="http://www.w3.org/2000/svg"
   xmlns:svg="http://www.w3.org/2000/svg">
  <defs
     id="defs6" />
  <sodipodi:namedview
     id="namedview6"
     pagecolor="#ffffff"
     bordercolor="#000000"
     borderopacity="0.25"
     inkscape:showpageshadow="2"
     inkscape:pageopacity="0.0"
     inkscape:pagecheckerboard="0"
     inkscape:deskcolor="#d1d1d1"
     showgrid="true"
     inkscape:zoom="8.4079416"
     inkscape:cx="34.729071"
     inkscape:cy="36.810437"
     inkscape:current-layer="svg6">
    <inkscape:grid
       id="grid7"
       units="px"
       originx="0"
       originy="0"
       spacingx="1"
       spacingy="1"
       empcolor="#0099e5"
       empopacity="0.30196078"
       color="#0099e5"
       opacity="0.14901961"
       empspacing="5"
       enabled="true"
       visible="true" />
  </sodipodi:namedview>
  <g
     id="g7"
     transform="matrix(0.97999999,0,0,0.98245614,-0.35999835,-0.92982455)"
     style="stroke-width:1.01914">
    <g
       style="opacity:0.2;stroke-width:1.01914"
       transform="matrix(0.16155185,0,0,0.15880199,7.2824811,0.77812796)"
       id="g1">
      <path
         d="m 153.00034,26.585781 c -3.08843,0 -6.18237,0.51471 -9.1349,1.556119 L 16.566632,73.029934 c -10.9028258,3.845169 -18.3151784,14.32115 -18.3151784,25.885431 0,49.504535 12.7255444,104.519855 35.0423344,153.636785 18.116448,39.87821 50.50828,94.45406 107.138492,123.62164 3.92272,2.01865 8.25938,3.05239 12.56806,3.05239 4.30867,0 8.64534,-1.03374 12.56805,-3.05239 56.62579,-29.17286 89.00424,-83.7503 107.12337,-123.62164 a 23.108569,23.10857 0 0 0 0.0155,0 c 22.3156,-49.12005 35.04233,-104.13858 35.04233,-153.636785 0,-11.564281 -7.41235,-22.040262 -18.31518,-25.885431 a 23.108569,23.10857 0 0 0 -0.0302,0 L 162.13524,28.1419 c -2.95561,-1.043801 -6.04293,-1.556119 -9.1349,-1.556119 z"
         id="path1"
         style="stroke-width:1.01914" />
    </g>
    <g
       style="fill:#2aa830;stroke-width:1.01914"
       transform="matrix(0.16155185,0,0,0.15880199,7.2824811,-0.22187195)"
       id="g2">
      <path
         style="fill:#2aa830;stroke-width:1.01914"
         d="m 153.00034,26.585781 c -3.08843,0 -6.18237,0.51471 -9.1349,1.556119 L 16.566632,73.029934 c -10.9028258,3.845169 -18.3151784,14.32115 -18.3151784,25.885431 0,49.504535 12.7255444,104.519855 35.0423344,153.636785 18.116448,39.87821 50.50828,94.45406 107.138492,123.62164 3.92272,2.01865 8.25938,3.05239 12.56806,3.05239 4.30867,0 8.64534,-1.03374 12.56805,-3.05239 56.62579,-29.17286 89.00424,-83.7503 107.12337,-123.62164 a 23.108569,23.10857 0 0 0 0.0155,0 c 22.3156,-49.12005 35.04233,-104.13858 35.04233,-153.636785 0,-11.564281 -7.41235,-22.040262 -18.31518,-25.885431 a 23.108569,23.10857 0 0 0 -0.0302,0 L 162.13524,28.1419 c -2.95561,-1.043801 -6.04293,-1.556119 -9.1349,-1.556119 z"
         id="path2" />
    </g>
    <path
       style="opacity:0.2;fill:none;stroke:#000000;stroke-width:6.11478;stroke-linecap:round;stroke-linejoin:round"
       d="m 21.999999,34.000142 9,8 14.999999,-19.999999"
       id="path3" />
    <path
       style="fill:none;stroke:#ffffff;stroke-width:6.11478;stroke-linecap:round;stroke-linejoin:round"
       d="m 21.999999,33.000001 9,8 14.999999,-19.999999"
       id="path4" />
    <g
       style="opacity:0.2;fill:#ffffff;stroke-width:1.01914"
       transform="matrix(0.16155185,0,0,0.15880199,7.2824811,-0.22187195)"
       id="g5">
      <path
         style="fill:#ffffff;stroke-width:1.01914"
         transform="matrix(8.5971705,0,0,8.8160099,-53.331569,-8.6782565)"
         d="M 24,4 C 23.640762,4 23.28093,4.057654 22.9375,4.1757812 L 8.1308594,9.2675781 C 6.8626717,9.7037356 6,10.893342 6,12.205078 c 0,5.6153 1.4803422,11.854448 4.076172,17.425781 2.107257,4.523386 5.875815,10.714959 12.46289,14.023438 C 22.995343,43.883272 23.498826,44 24,44 Z"
         id="path5" />
    </g>
    <g
       style="opacity:0.2;fill:#ffffff;stroke-width:1.01914"
       transform="matrix(0.16155185,0,0,0.15880199,7.2824811,-0.22187195)"
       id="g6">
      <path
         style="fill:#ffffff;stroke-width:1.01914"
         transform="matrix(6.1899632,0,0,6.2971503,-45.07829,1.397161)"
         d="M 32,4 C 31.501058,4 31.000423,4.080716 30.523438,4.2460938 L 9.9570312,11.375 C 8.1956595,11.985621 7,13.647944 7,15.484375 7,15.66968 7.0115507,15.858529 7.0253906,16.048828 7.1973917,14.389766 8.3363024,12.936863 9.9570312,12.375 L 30.523438,5.2460938 C 31.000423,5.080716 31.501058,5 32,5 c 0.499514,0 0.999079,0.080336 1.476562,0.2460938 L 54.035156,12.375 a 3.7332323,3.669687 0 0 1 0.0078,0 c 1.620731,0.561863 2.75964,2.014766 2.93164,3.673828 C 56.988447,15.858565 57,15.669776 57,15.484375 57,13.647944 55.804343,11.985621 54.042969,11.375 a 3.7332323,3.669687 0 0 0 -0.0078,0 L 33.476562,4.2460938 C 32.999079,4.080336 32.499514,4 32,4 Z"
         id="path6" />
    </g>
  </g>
</svg>
