<?xml version="1.0" encoding="UTF-8" standalone="no"?>
<svg
   width="62"
   height="62"
   version="1.1"
   id="svg6"
   sodipodi:docname="sepolicy.svg"
   inkscape:version="1.4 (unknown)"
   xmlns:inkscape="http://www.inkscape.org/namespaces/inkscape"
   xmlns:sodipodi="http://sodipodi.sourceforge.net/DTD/sodipodi-0.dtd"
   xmlns:xlink="http://www.w3.org/1999/xlink"
   xmlns="http://www.w3.org/2000/svg"
   xmlns:svg="http://www.w3.org/2000/svg">
  <defs
     id="defs6">
    <linearGradient
       id="linearGradient6"
       inkscape:collect="always">
      <stop
         style="stop-color:#2d3d53;stop-opacity:1;"
         offset="0"
         id="stop6" />
      <stop
         style="stop-color:#374762;stop-opacity:1;"
         offset="1"
         id="stop7" />
    </linearGradient>
    <linearGradient
       inkscape:collect="always"
       xlink:href="#linearGradient6"
       id="linearGradient7"
       x1="31.5"
       y1="59.017548"
       x2="31.5"
       y2="4.9824524"
       gradientUnits="userSpaceOnUse" />
  </defs>
  <sodipodi:namedview
     id="namedview6"
     pagecolor="#ffffff"
     bordercolor="#000000"
     borderopacity="0.25"
     inkscape:showpageshadow="2"
     inkscape:pageopacity="0.0"
     inkscape:pagecheckerboard="0"
     inkscape:deskcolor="#d1d1d1"
     inkscape:zoom="5"
     inkscape:cx="47.9"
     inkscape:cy="51.1"
     inkscape:window-width="1920"
     inkscape:window-height="998"
     inkscape:window-x="0"
     inkscape:window-y="0"
     inkscape:window-maximized="1"
     inkscape:current-layer="svg6" />
  <g
     id="g6"
     transform="translate(-0.5,-1)">
    <ellipse
       style="opacity:0.2;stroke-width:0.982302"
       cx="31.5"
       cy="32.491226"
       id="circle1"
       rx="27.5"
       ry="27.508774" />
    <ellipse
       style="fill:url(#linearGradient7);stroke-width:0.982302"
       cx="31.5"
       cy="31.508774"
       id="circle2"
       rx="27.5"
       ry="27.508774" />
    <path
       style="opacity:0.2;stroke-width:0.982302"
       d="m 23.64285,20.701706 v 1.96491 h 5.892858 v 1.96491 h -7.857141 v 5.894738 H 19.714282 V 24.631526 H 17.75 v 13.754387 h 1.964282 v -5.894738 h 1.964285 v 5.894738 l 3.928574,3.92982 h 12.76785 l 1.964288,-1.96491 h 2.946429 v 1.96491 h 1.964283 l 1.964284,-1.96452 V 28.561744 l -1.964284,-1.965308 h -1.964283 v 1.96491 l -1.718771,3.98e-4 -3.928575,-3.929827 h -6.138391 v -1.96491 l 5.892859,-3.91e-4 v -1.96491 z m 0,5.89473 h 12.767853 l 3.928576,3.929828 h 4.910712 v 7.859649 h -5.892859 l -1.964282,1.96491 H 26.83482 l -3.19197,-3.340349 z"
       id="path2" />
    <path
       style="fill:#ffa92c;stroke-width:0.982302"
       d="m 23.64285,19.719296 v 1.964911 h 5.892858 v 1.96491 h -7.857141 v 5.894738 H 19.714282 V 23.649117 H 17.75 v 13.754387 h 1.964282 v -5.894739 h 1.964285 v 5.894739 l 3.928574,3.929819 h 12.76785 l 1.964288,-1.96491 h 2.946429 v 1.96491 h 1.964283 l 1.964284,-1.964519 V 27.579336 l -1.964284,-1.965301 h -1.964283 v 1.96491 l -1.718771,3.91e-4 -3.928575,-3.929821 h -6.138391 v -1.964917 l 5.892859,-3.91e-4 v -1.964911 z m 0,5.894739 h 12.767853 l 3.928576,3.92982 h 4.910712 v 7.859649 H 39.357132 L 37.39285,39.368413 H 26.83482 l -3.19197,-3.340349 z"
       id="path3" />
    <path
       style="opacity:0.1;fill:#ffffff;stroke-width:0.982302"
       d="M 31.498078,4 A 27.499991,27.508765 0 0 0 4,31.508765 27.499991,27.508765 0 0 0 4.0172646,31.992322 27.499991,27.508765 0 0 1 31.498078,4.9824558 h 0.0019 A 27.499991,27.508765 0 0 1 58.973131,31.999995 27.499991,27.508765 0 0 0 58.998078,31.508765 27.499991,27.508765 0 0 0 31.499991,4 Z"
       id="path4" />
  </g>
  <g
     id="g7"
     transform="matrix(0.90624996,0,0,0.90909091,-61.387494,2.4545454)">
    <path
       style="opacity:0.2"
       d="M 135.558,48.348 A 16,16 0 0 1 119.6,63.5 16,16 0 0 1 103.642,48.652 16,16 0 0 0 103.6,49.5 a 16,16 0 0 0 16,16 16,16 0 0 0 16,-16 16,16 0 0 0 -0.043,-1.15234 z"
       id="path5" />
    <circle
       style="fill:#3f92e7"
       cx="119.6"
       cy="48.5"
       r="16"
       id="circle5" />
    <path
       style="fill:#ffffff"
       d="m 117.6,40.5 -0.1764,2.1072 a 6.2858,6.2858 0 0 0 -1.83704,1.06252 l -1.91518,-0.9018 -2,3.4642 1.73882,1.2076 a 6.2858,6.2858 0 0 0 -0.096,1.06026 6.2858,6.2858 0 0 0 0.0914,1.06474 l -1.73438,1.20312 2,3.4642 1.91072,-0.89956 a 6.2858,6.2858 0 0 0 1.8415,1.0558 l 0.1764,2.1116 h 4 l 0.1764,-2.1072 a 6.2858,6.2858 0 0 0 1.83708,-1.06252 l 1.91516,0.9018 2,-3.4642 -1.73884,-1.2076 a 6.2858,6.2858 0 0 0 0.096,-1.06026 6.2858,6.2858 0 0 0 -0.0914,-1.06474 l 1.73438,-1.20312 -2,-3.4642 -1.91072,0.89956 a 6.2858,6.2858 0 0 0 -1.842,-1.056 l -0.176,-2.112 h -4 z m 2,5.7144 a 2.2858,2.2858 0 0 1 2.286,2.286 2.2858,2.2858 0 0 1 -2.286,2.286 2.2858,2.2858 0 0 1 -2.286,-2.286 2.2858,2.2858 0 0 1 2.286,-2.286 z"
       id="path6" />
  </g>
</svg>
