<?xml version="1.0" encoding="UTF-8" standalone="no"?>
<svg
   width="62"
   height="62"
   version="1.1"
   id="svg10"
   sodipodi:docname="servez.svg"
   inkscape:version="1.4 (unknown)"
   xmlns:inkscape="http://www.inkscape.org/namespaces/inkscape"
   xmlns:sodipodi="http://sodipodi.sourceforge.net/DTD/sodipodi-0.dtd"
   xmlns="http://www.w3.org/2000/svg"
   xmlns:svg="http://www.w3.org/2000/svg">
  <defs
     id="defs10" />
  <sodipodi:namedview
     id="namedview10"
     pagecolor="#ffffff"
     bordercolor="#000000"
     borderopacity="0.25"
     inkscape:showpageshadow="2"
     inkscape:pageopacity="0.0"
     inkscape:pagecheckerboard="0"
     inkscape:deskcolor="#d1d1d1"
     inkscape:zoom="12.109375"
     inkscape:cx="32"
     inkscape:cy="32"
     inkscape:window-width="1920"
     inkscape:window-height="998"
     inkscape:window-x="0"
     inkscape:window-y="0"
     inkscape:window-maximized="1"
     inkscape:current-layer="svg10" />
  <g
     id="g10"
     transform="translate(-0.5,-1)">
    <path
       style="opacity:0.2;stroke-width:0.981229"
       d="m 31.499903,4.9831111 c -4.731723,0 -5.813986,0.072621 -7.705981,0.5487945 -7.792399,1.9611665 -12.092379,6.8158874 -13.618507,15.3758274 -0.0318,0.203857 -0.05226,0.383437 -0.08227,0.58333 a 3.0592202,8.2526287 0 0 0 -0.03447,-0.002 A 3.0592202,8.2526287 0 0 0 7,29.740241 a 3.0592202,8.2526287 0 0 0 3.058658,8.253019 3.0592202,8.2526287 0 0 0 0.174184,-0.0288 c 0.224599,1.063942 0.477502,2.152929 0.794334,3.31579 0.679973,1.99467 2.539716,5.658655 3.906582,7.702305 1.487833,2.224512 4.734959,5.673707 6.856143,7.282073 1.919992,1.455809 4.622824,2.830399 6.578607,3.344574 1.135577,0.298542 1.958644,0.431489 3.131395,0.379931 1.172751,0.05158 1.995816,-0.08134 3.131397,-0.379931 0.488942,-0.128547 1.024411,-0.311442 1.582923,-0.535361 0.558456,-0.223858 1.140597,-0.489947 1.720731,-0.784817 0.289609,-0.147218 0.579086,-0.302073 0.86516,-0.462444 0,0 0.002,0 0.002,0 0.572535,-0.321023 1.133125,-0.667253 1.655657,-1.022754 0.07441,-0.0506 0.141569,-0.102492 0.214373,-0.153503 0.182497,-0.12791 0.366721,-0.255933 0.537849,-0.385695 0,0 0.002,0 0.002,0 0.21485,-0.162944 0.44648,-0.357054 0.681403,-0.554547 0.05454,-0.04588 0.103414,-0.08107 0.158869,-0.128567 0,0 0.002,-0.002 0.002,-0.002 0.588643,-0.504547 1.225301,-1.09998 1.864294,-1.738489 0,0 0.002,-0.002 0.002,-0.002 0.959479,-0.958878 1.924962,-2.015155 2.744757,-3.006856 0.273356,-0.330629 0.53032,-0.652939 0.765622,-0.963268 0.235248,-0.310296 0.447575,-0.606531 0.633554,-0.884593 0,0 0.002,-0.002 0.002,-0.002 0.683437,-1.021823 1.489939,-2.449356 2.210735,-3.870336 0.72074,-1.420636 1.355735,-2.834711 1.695855,-3.831968 0,0 0,-0.002 0,-0.002 0.187719,-0.688993 0.349836,-1.347236 0.499565,-1.993696 0.129534,-0.544024 0.243043,-1.078685 0.350272,-1.602249 A 3.0592201,8.2526281 0 0 0 52.939425,37.993121 3.0592201,8.2526281 0 0 0 56,29.740102 a 3.0592201,8.2526281 0 0 0 -3.060575,-8.251096 3.0592201,8.2526281 0 0 0 -0.02298,0.06335 c -0.03305,-0.220527 -0.05477,-0.419357 -0.09,-0.644719 -0.858532,-4.814889 -2.596582,-8.458642 -5.338392,-11.0736706 -0.30431,-0.2902176 -0.62011,-0.5676939 -0.949369,-0.8327853 0,0 -0.002,0 -0.002,0 C 46.207061,8.7358377 45.865803,8.4838329 45.510785,8.2432546 45.155788,8.0026674 44.787085,7.7724962 44.406376,7.5563027 44.025662,7.3401162 43.632172,7.1363756 43.225403,6.9441861 42.005125,6.3675986 40.666966,5.8996238 39.205888,5.5319056 38.259897,5.2938205 37.515831,5.15654 36.417113,5.0790542 35.867858,5.0403251 35.230566,5.0164671 34.434147,5.0022996 33.637655,4.9881236 32.682836,4.9831094 31.499903,4.9831111 Z"
       id="path1" />
    <ellipse
       style="fill:#056ffa;stroke-width:0.981229;fill-opacity:1"
       cx="10.05955"
       cy="28.7579"
       rx="3.0595481"
       ry="8.2526302"
       id="ellipse1" />
    <ellipse
       style="fill:#0c73fa;stroke-width:0.981229"
       cx="-52.940262"
       cy="28.7579"
       rx="3.0595481"
       ry="8.2526302"
       transform="scale(-1,1)"
       id="ellipse2" />
    <path
       style="fill:#056bfa;stroke-width:0.981229;fill-opacity:1"
       d="M 31.499901,4 C 26.768178,4 25.686,4.07175 23.794005,4.547919 c -7.792398,1.9611663 -12.09333,6.816704 -13.619459,15.376636 -1.2717183,8.143782 -1.1405169,13.054687 0.853226,20.372371 0.679978,1.994669 2.539743,5.659447 3.906608,7.703098 1.487833,2.224505 4.734159,5.673041 6.855342,7.281406 1.919992,1.455804 4.623205,2.829741 6.57899,3.343917 1.135577,0.298542 1.958438,0.432954 3.131189,0.381396 1.172751,0.05158 1.995611,-0.08284 3.131188,-0.381396 1.955786,-0.514176 4.658991,-1.888113 6.578983,-3.343917 2.12119,-1.608365 5.367509,-5.056901 6.855348,-7.281406 1.366864,-2.043651 3.226631,-5.708429 3.906605,-7.703098 1.993746,-7.317684 2.124946,-12.228589 0.853233,-20.372371 C 51.299129,11.364623 46.998186,6.5090853 39.205787,4.547919 37.313795,4.0717496 36.231626,4 31.499901,4 Z"
       id="path2" />
    <path
       style="opacity:0.3;fill:#ffffff;stroke-width:0.981229"
       d="M 31.499901,4.0000002 V 59.006777 c 1.172751,0.05158 1.996027,-0.0829 3.131603,-0.381472 1.955785,-0.514176 4.659577,-1.888762 6.579562,-3.344572 2.12119,-1.608368 5.365543,-5.05564 6.853386,-7.280147 1.366864,-2.043651 3.227878,-5.709934 3.907857,-7.704602 0.345225,-1.267082 0.614766,-2.445058 0.850693,-3.597095 a 3.0592201,8.2526281 0 0 0 0.116968,0.311625 3.0592201,8.2526281 0 0 0 3.059838,-8.252634 3.0592201,8.2526281 0 0 0 -3.059832,-8.252627 3.0592201,8.2526281 0 0 0 -0.02396,0.06448 c -0.03302,-0.220543 -0.05518,-0.419375 -0.0904,-0.64474 C 51.299527,11.365057 46.999025,6.5091928 39.206629,4.5480264 37.314638,4.071857 36.231626,4.0000002 31.499901,4.0000002 Z"
       id="path3" />
    <path
       style="fill:#2d3d53;stroke-width:0.981229;fill-opacity:1"
       d="M 22.554795,36.723659 C 21.030632,35.7411 19.44878,33.858331 18.498003,31.895134 c -0.770104,-1.590145 -0.785277,-1.691131 -0.658215,-4.381049 0.149487,-3.164778 0.967051,-6.021186 2.747127,-9.597889 l 1.058435,-2.126725 0.320218,1.253907 c 0.698084,2.733585 1.81899,4.508502 4.658026,7.375813 1.729011,1.746238 2.763418,2.996692 2.86247,3.460326 0.412864,1.932613 -1.611469,6.459357 -3.91024,8.743956 -1.019511,1.013215 -1.576082,1.031681 -3.021029,0.10019 z"
       id="path4" />
    <path
       style="opacity:0.2;stroke-width:0.981229"
       d="m 20.279716,26.596493 c -0.597899,-0.01973 -0.543601,0.362741 -0.535939,1.182017 0.0238,2.538279 1.60326,4.712723 3.422328,4.712723 0.497692,0 1.377431,-0.263297 1.954253,-0.585253 0.989151,-0.552095 2.459561,-2.193881 2.459561,-2.745891 0,-0.421753 -0.387832,-0.588064 -3.709434,-1.598405 -2.026793,-0.616501 -3.063218,-0.947774 -3.590769,-0.965191 z m 22.440378,0 c -0.527558,0.01743 -1.563977,0.34869 -3.590769,0.965191 -3.321604,1.010341 -3.709435,1.176652 -3.709435,1.598405 0,0.55201 1.470403,2.193796 2.459561,2.745891 0.576823,0.321956 1.456561,0.585253 1.954245,0.585253 1.819078,0 3.398557,-2.174444 3.422336,-4.712723 0.0078,-0.819276 0.06197,-1.201756 -0.535938,-1.182017 z"
       id="path5" />
    <path
       style="fill:#f3f3f3;stroke-width:0.981229;fill-opacity:1"
       d="m 25.120176,30.923389 c 0.98916,-0.552101 2.459734,-2.193566 2.459734,-2.745575 0,-0.421754 -0.388292,-0.589164 -3.709903,-1.599505 -4.323813,-1.315194 -4.139751,-1.324891 -4.125321,0.217282 0.0238,2.538273 1.60276,4.713168 3.421838,4.713168 0.497684,0 1.37683,-0.263414 1.953652,-0.58537 z"
       id="path6" />
    <path
       style="fill:#2d3d53;stroke-width:0.981229;fill-opacity:1"
       d="m 37.379881,44.604995 c 0,2.533876 -2.632552,4.58799 -5.879978,4.58799 -3.247423,0 -5.879973,-2.054114 -5.879973,-4.58799 0,-2.533873 2.63255,-0.602343 5.879973,-0.602343 3.247426,0 5.879978,-1.93153 5.879978,0.602343 z"
       id="path7" />
    <path
       style="fill:#2d3d53;stroke-width:0.981229;fill-opacity:1"
       d="m 40.445013,36.723659 c 1.524155,-0.982559 3.106007,-2.865328 4.056784,-4.828525 0.770113,-1.590145 0.785287,-1.691131 0.658222,-4.381049 -0.149485,-3.164778 -0.967057,-6.021186 -2.747126,-9.597889 l -1.058435,-2.126725 -0.320218,1.253907 c -0.698085,2.733585 -1.818998,4.508502 -4.658024,7.375813 -1.729011,1.746238 -2.76342,2.996692 -2.862471,3.460326 -0.41287,1.932613 1.611462,6.459357 3.910241,8.743956 1.01951,1.013215 1.576081,1.031681 3.021027,0.10019 z"
       id="path8" />
    <path
       style="fill:#f3f3f3;stroke-width:0.981229;fill-opacity:1"
       d="m 37.879625,30.923389 c -0.989152,-0.552101 -2.459727,-2.193566 -2.459727,-2.745575 0,-0.421754 0.388292,-0.589164 3.709897,-1.599505 4.323819,-1.315194 4.13975,-1.324891 4.125323,0.217282 -0.0238,2.538273 -1.602764,4.713168 -3.421833,4.713168 -0.497684,0 -1.37683,-0.263414 -1.95366,-0.58537 z"
       id="path9" />
    <path
       style="opacity:0.2;fill:#ffffff;stroke-width:0.981229"
       d="M 31.499903,4 C 26.76818,4 25.685917,4.072624 23.793922,4.5487938 16.001523,6.5099603 11.701543,11.364684 10.175415,19.924616 c -0.0318,0.203858 -0.05226,0.383438 -0.08227,0.583339 a 3.0592202,8.2526287 0 0 0 -0.03447,-0.002 A 3.0592202,8.2526287 0 0 0 7,28.757131 a 3.0592202,8.2526287 0 0 0 0.024884,0.495066 3.0592202,8.2526287 0 0 1 3.033778,-7.763705 3.0592202,8.2526287 0 0 1 0.03447,0.002 c 0.03011,-0.199893 0.05048,-0.379472 0.08227,-0.58333 1.526129,-8.559987 5.826105,-13.4147067 13.6185,-15.375873 1.891995,-0.4761699 2.974258,-0.5487939 7.705983,-0.5487939 1.182934,0 2.137755,0.005 2.934244,0.019191 0.796419,0.01417 1.433711,0.038024 1.982964,0.076755 1.09872,0.077489 1.842788,0.2147661 2.788777,0.4528511 1.46108,0.3677185 2.799239,0.8356935 4.019515,1.4122809 0.406769,0.1921896 0.80026,0.3959299 1.180976,0.6121161 0.380709,0.2161938 0.74941,0.4463647 1.104409,0.6869519 0.355018,0.2405784 0.69632,0.4925839 1.025932,0.7579495 h 0.002 c 0.329259,0.2650915 0.645059,0.542568 0.949369,0.8327852 2.741811,2.6150312 4.479865,6.2587812 5.338303,11.0737392 0.03523,0.225362 0.05694,0.424192 0.08998,0.644732 a 3.0592201,8.2526281 0 0 1 0.02298,-0.06335 3.0592201,8.2526281 0 0 1 3.049087,8.003559 3.0592201,8.2526281 0 0 0 0.01145,-0.734923 3.0592201,8.2526281 0 0 0 -3.060572,-8.251098 3.0592201,8.2526281 0 0 0 -0.02298,0.06335 c -0.03305,-0.220544 -0.05477,-0.419374 -0.08999,-0.644746 C 51.967862,15.109655 50.229812,11.465908 47.488002,8.8508777 47.183692,8.5606606 46.867892,8.2831843 46.538633,8.0180924 h -0.002 C 46.207061,7.7527265 45.865803,7.5007211 45.510785,7.2601428 45.155788,7.0195557 44.787085,6.7893852 44.406376,6.573191 44.025662,6.3570052 43.632172,6.1532645 43.225403,5.961075 42.005125,5.3844875 40.666966,4.9165127 39.205888,4.5487938 38.259897,4.3107095 37.515831,4.1734283 36.417113,4.0959432 35.867858,4.0572134 35.230566,4.0333549 34.434147,4.0191882 33.637655,4.005012 32.682836,4 31.499903,4 Z"
       id="path10" />
  </g>
</svg>
