<?xml version="1.0" encoding="UTF-8" standalone="no"?>
<svg
   width="62"
   height="62"
   version="1.1"
   id="svg29"
   sodipodi:docname="shadow-beta.svg"
   inkscape:version="1.4 (unknown)"
   xmlns:inkscape="http://www.inkscape.org/namespaces/inkscape"
   xmlns:sodipodi="http://sodipodi.sourceforge.net/DTD/sodipodi-0.dtd"
   xmlns:xlink="http://www.w3.org/1999/xlink"
   xmlns="http://www.w3.org/2000/svg"
   xmlns:svg="http://www.w3.org/2000/svg">
  <defs
     id="defs29">
    <linearGradient
       id="linearGradient1"
       inkscape:collect="always">
      <stop
         style="stop-color:#e5e5e5;stop-opacity:1;"
         offset="1"
         id="stop1" />
      <stop
         style="stop-color:#00b2b2;stop-opacity:0;"
         offset="1"
         id="stop2" />
    </linearGradient>
    <linearGradient
       id="linearGradient29"
       inkscape:collect="always">
      <stop
         style="stop-color:#2d3d53;stop-opacity:1;"
         offset="0"
         id="stop29" />
      <stop
         style="stop-color:#354864;stop-opacity:1;"
         offset="1"
         id="stop30" />
    </linearGradient>
    <linearGradient
       inkscape:collect="always"
       xlink:href="#linearGradient29"
       id="linearGradient30"
       x1="30.782633"
       y1="60"
       x2="30.193521"
       y2="5"
       gradientUnits="userSpaceOnUse"
       gradientTransform="matrix(0.98214286,0,0,0.98245614,-0.42857152,-0.92982455)" />
    <linearGradient
       inkscape:collect="always"
       xlink:href="#linearGradient1"
       id="linearGradient2"
       x1="-11"
       y1="83"
       x2="30.107029"
       y2="83.149246"
       gradientUnits="userSpaceOnUse"
       gradientTransform="matrix(0.94755163,0,0,0.94755163,22.472037,-47.64679)" />
  </defs>
  <sodipodi:namedview
     id="namedview29"
     pagecolor="#ffffff"
     bordercolor="#000000"
     borderopacity="0.25"
     inkscape:showpageshadow="2"
     inkscape:pageopacity="0.0"
     inkscape:pagecheckerboard="0"
     inkscape:deskcolor="#d1d1d1"
     inkscape:zoom="7.0710678"
     inkscape:cx="31.041988"
     inkscape:cy="25.667976"
     inkscape:window-width="1920"
     inkscape:window-height="998"
     inkscape:window-x="0"
     inkscape:window-y="0"
     inkscape:window-maximized="1"
     inkscape:current-layer="svg29" />
  <rect
     style="opacity:0.2;stroke-width:0.9823"
     width="55"
     height="55.017544"
     x="3.5"
     y="3.9824562"
     ry="13.754386"
     id="rect1" />
  <rect
     style="fill:url(#linearGradient30);stroke-width:0.9823"
     width="55"
     height="55.017544"
     x="3.5"
     y="3"
     ry="13.754386"
     id="rect2" />
  <path
     style="opacity:0.1;fill:#ffffff;stroke-width:0.9823"
     d="M 17.25,3 C 9.6324999,3 3.4999999,9.1344561 3.4999999,16.754386 v 0.982456 c 0,-7.61993 6.1325,-13.7543858 13.7500001,-13.7543858 h 27.5 c 7.6175,0 13.75,6.1344558 13.75,13.7543858 V 16.754386 C 58.5,9.1344561 52.3675,3 44.75,3 Z"
     id="path28" />
  <path
     id="path2-5"
     style="fill:#e5e5e5;fill-opacity:1;stroke:url(#linearGradient2);stroke-width:2.09795;stroke-dasharray:none"
     d="m 31,12.048973 c -10.466367,0 -18.951027,8.48466 -18.951027,18.951027 0.0037,5.665634 2.541697,11.032543 6.918914,14.629681 -0.974116,-1.289603 -1.502148,-2.86117 -1.504342,-4.477344 0,-4.111781 3.333264,-7.445043 7.445056,-7.445043 4.11178,0 7.445046,3.333262 7.445046,7.445043 0,4.111789 -3.333266,7.445052 -7.445046,7.445052 -0.395176,-0.004 -0.789468,-0.03761 -1.179163,-0.103106 2.303961,0.959603 4.774762,1.454672 7.270562,1.456744 10.466365,0 18.951027,-8.484659 18.951027,-18.951022 C 49.951027,20.533637 41.466365,12.048977 31,12.048977 Z m 0,2.707279 c 9.003238,0 16.243747,7.240505 16.243747,16.243748 0,8.268997 -6.130753,14.978404 -14.102244,16.029588 1.195897,-1.665196 1.919436,-3.687073 1.919436,-5.877251 C 35.060939,35.577415 30.483506,31 24.908601,31 20.958374,31 17.54566,33.320452 15.870629,36.643274 15.199803,34.848628 14.75763,32.962322 14.756253,31 V 30.9986 C 14.757006,21.996055 21.997209,14.756184 31,14.756184 Z" />
  <g
     id="g1"
     transform="translate(-38.477333,5.0308647)">
    <circle
       cx="81.477333"
       cy="12.969135"
       r="11"
       fill="#fa4315"
       stroke-width="0.999937"
       id="circle5"
       style="fill:#8d5fd3" />
    <path
       d="m 81.376462,5.8463813 c -0.909493,0 -1.667403,0.2811314 -2.275493,0.7164889 -1.58633,1.0090777 -1.844546,2.5284225 -1.852478,4.0689128 v 10.88835 c 0.832823,0.426545 1.723809,0.73059 2.643873,0.902443 v -3.35684 c 0.60104,0.713843 1.246142,0.88129 2.203229,0.88129 2.081607,-0.01322 3.875032,-1.829562 3.965802,-3.82127 0,-1.747607 -0.871597,-3.117131 -2.614785,-3.933201 1.168589,-0.781708 1.753765,-1.784612 1.753765,-3.0087273 0,-1.0469729 -0.368373,-1.8542347 -1.106017,-2.4182615 C 83.362882,6.19449 82.456036,5.8463813 81.376462,5.8463813 Z m 0.278487,0.8812901 c 0.60809,0 0.86366,0.1128045 1.239092,0.5684323 0.38336,0.4556273 0.573722,1.1121887 0.573722,1.9688009 0,0.9588464 -0.243243,1.8463044 -0.728828,2.6623854 -0.539354,-0.16304 -0.990575,-0.244126 -1.352781,-0.244126 -0.580777,0 -0.870722,0.162158 -0.870722,0.48912 0,0.360453 0.346351,0.540224 1.0364,0.540224 0.327838,0 0.696223,-0.05115 1.106902,-0.153343 0.957968,0.972069 1.485854,2.24025 1.515821,3.293393 0,0.957955 -0.213277,1.774036 -0.643346,2.447335 -0.430949,0.666262 -0.953549,0.765843 -1.87626,0.765843 -0.957088,0 -1.760824,-0.05461 -1.760824,-1.081347 V 9.8465635 c -8.81e-4,-2.2376019 0.879534,-3.1188921 1.760824,-3.1188921 z"
       fill="#ffffff"
       fill-rule="nonzero"
       id="path6"
       style="stroke-width:0.881288" />
  </g>
</svg>
