<?xml version="1.0" encoding="UTF-8" standalone="no"?>
<svg
   width="62"
   height="62"
   version="1.1"
   id="svg4"
   sodipodi:docname="shuffler-control.svg"
   inkscape:version="1.4 (unknown)"
   xmlns:inkscape="http://www.inkscape.org/namespaces/inkscape"
   xmlns:sodipodi="http://sodipodi.sourceforge.net/DTD/sodipodi-0.dtd"
   xmlns="http://www.w3.org/2000/svg"
   xmlns:svg="http://www.w3.org/2000/svg">
  <defs
     id="defs4" />
  <sodipodi:namedview
     id="namedview4"
     pagecolor="#ffffff"
     bordercolor="#000000"
     borderopacity="0.25"
     inkscape:showpageshadow="2"
     inkscape:pageopacity="0.0"
     inkscape:pagecheckerboard="0"
     inkscape:deskcolor="#d1d1d1"
     inkscape:zoom="12.109375"
     inkscape:cx="32"
     inkscape:cy="32"
     inkscape:window-width="1920"
     inkscape:window-height="998"
     inkscape:window-x="0"
     inkscape:window-y="0"
     inkscape:window-maximized="1"
     inkscape:current-layer="svg4" />
  <g
     id="g4"
     transform="matrix(0.98214286,0,0,0.98245614,-0.42857152,-0.92982455)">
    <rect
       style="opacity:0.2"
       width="56"
       height="56"
       x="4"
       y="5"
       ry="12.445"
       id="rect1" />
    <rect
       style="fill:#009f9f"
       width="56"
       height="56"
       x="4"
       y="4"
       ry="12.445"
       id="rect2" />
    <path
       style="opacity:0.2"
       d="M 14.007812,15 14,25.992188 24.990234,26 25,15.007812 Z m 14,0 L 28,25.992188 38.990234,26 39,15.007812 Z m -14,14 L 14,39.992188 24.990234,40 25,29.007812 Z M 28.019531,29 28,50.980469 49.984375,51 50,29.019531 Z"
       id="path2" />
    <path
       style="fill:#ffffff"
       d="M 14.007812,14 14,24.992188 24.990234,25 25,14.007812 Z m 14,0 L 28,24.992188 38.990234,25 39,14.007812 Z m -14,14 L 14,38.992188 24.990234,39 25,28.007812 Z M 28.019531,28 28,49.980469 49.984375,50 50,28.019531 Z"
       id="path3" />
    <path
       style="opacity:0.1;fill:#ffffff"
       d="M 16.445312,4 C 9.551004,4 4,9.551004 4,16.445312 v 1 C 4,10.551004 9.551004,5 16.445312,5 H 47.554688 C 54.448996,5 60,10.551004 60,17.445312 v -1 C 60,9.551004 54.448996,4 47.554688,4 Z"
       id="path4" />
  </g>
</svg>
