<?xml version="1.0" encoding="UTF-8" standalone="no"?>
<svg
   width="62"
   height="62"
   version="1.1"
   id="svg29"
   sodipodi:docname="slic3r-gcodeviewer.svg"
   inkscape:version="1.4 (unknown)"
   xml:space="preserve"
   xmlns:inkscape="http://www.inkscape.org/namespaces/inkscape"
   xmlns:sodipodi="http://sodipodi.sourceforge.net/DTD/sodipodi-0.dtd"
   xmlns:xlink="http://www.w3.org/1999/xlink"
   xmlns="http://www.w3.org/2000/svg"
   xmlns:svg="http://www.w3.org/2000/svg"><defs
     id="defs29"><linearGradient
       id="linearGradient29"
       inkscape:collect="always"><stop
         style="stop-color:#d3dce7;stop-opacity:1;"
         offset="0"
         id="stop29" /><stop
         style="stop-color:#e5e5c9;stop-opacity:1;"
         offset="1"
         id="stop30" /></linearGradient><linearGradient
       inkscape:collect="always"
       xlink:href="#linearGradient29"
       id="linearGradient30"
       x1="30.782633"
       y1="60"
       x2="30.193521"
       y2="5"
       gradientUnits="userSpaceOnUse"
       gradientTransform="matrix(0.98214286,0,0,0.98245614,-0.42857152,-0.92982455)" /><linearGradient
       id="linearGradient3564"><stop
         style="stop-color:#b20607;stop-opacity:1;"
         offset="0"
         id="stop3566" /><stop
         style="stop-color:#b20607;stop-opacity:0;"
         offset="1"
         id="stop3568" /></linearGradient><linearGradient
       id="linearGradient3570"><stop
         style="stop-color:#fdea20;stop-opacity:1;"
         offset="0"
         id="stop3572" /><stop
         style="stop-color:#e9680a;stop-opacity:1;"
         offset="1"
         id="stop3574" /></linearGradient><linearGradient
       id="linearGradient3409"><stop
         style="stop-color:#fbd90a;stop-opacity:1;"
         offset="0"
         id="stop3411" /><stop
         id="stop3413"
         offset="0.3980374"
         style="stop-color:#fbd90a;stop-opacity:1;" /><stop
         style="stop-color:#df500a;stop-opacity:1;"
         offset="1"
         id="stop3415" /></linearGradient><linearGradient
       id="linearGradient4029"><stop
         style="stop-color:#fbd90a;stop-opacity:1;"
         offset="0"
         id="stop4031" /><stop
         id="stop4033"
         offset="0.40341854"
         style="stop-color:#fbd90a;stop-opacity:1;" /><stop
         style="stop-color:#df500a;stop-opacity:1;"
         offset="1"
         id="stop4035" /></linearGradient><linearGradient
       id="linearGradient3355"><stop
         id="stop3357"
         offset="0"
         style="stop-color:#fbd90a;stop-opacity:1;" /><stop
         style="stop-color:#fbd90a;stop-opacity:1;"
         offset="0.61271751"
         id="stop3359" /><stop
         id="stop3361"
         offset="1"
         style="stop-color:#df500a;stop-opacity:1;" /></linearGradient><linearGradient
       id="linearGradient3323"><stop
         style="stop-color:#fbd90a;stop-opacity:1;"
         offset="0"
         id="stop3325" /><stop
         id="stop3345"
         offset="0.67312354"
         style="stop-color:#fbd90a;stop-opacity:1;" /><stop
         style="stop-color:#df500a;stop-opacity:1;"
         offset="1"
         id="stop3327" /></linearGradient><linearGradient
       id="linearGradient3681"><stop
         style="stop-color:#b3b3b3;stop-opacity:1;"
         offset="0"
         id="stop3683" /><stop
         style="stop-color:#ffffff;stop-opacity:1;"
         offset="1"
         id="stop3685" /></linearGradient><linearGradient
       id="a"
       x2="1"
       gradientTransform="matrix(-0.158638,-28.8193,28.8193,-0.158638,18.7385,32.2492)"
       gradientUnits="userSpaceOnUse"><stop
         stop-color="#3b3b3b"
         offset="0"
         id="stop1" /><stop
         stop-color="#4f4f4f"
         offset="1"
         id="stop2" /></linearGradient><linearGradient
       id="b"
       x2="1"
       gradientTransform="matrix(0.138672,-20.6705,20.6705,0.138672,24,43.8773)"
       gradientUnits="userSpaceOnUse"><stop
         stop-color="#ca4900"
         offset="0"
         id="stop3" /><stop
         stop-color="#ed6b21"
         offset="1"
         id="stop4" /></linearGradient></defs><sodipodi:namedview
     id="namedview29"
     pagecolor="#ffffff"
     bordercolor="#000000"
     borderopacity="0.25"
     inkscape:showpageshadow="2"
     inkscape:pageopacity="0.0"
     inkscape:pagecheckerboard="0"
     inkscape:deskcolor="#d1d1d1"
     inkscape:zoom="7.0710678"
     inkscape:cx="20.506097"
     inkscape:cy="48.719657"
     inkscape:window-width="1920"
     inkscape:window-height="998"
     inkscape:window-x="0"
     inkscape:window-y="0"
     inkscape:window-maximized="1"
     inkscape:current-layer="svg29" /><rect
     style="opacity:0.2;stroke-width:0.9823"
     width="55"
     height="55.017544"
     x="3.5"
     y="3.9824562"
     ry="13.754386"
     id="rect1" /><rect
     style="fill:url(#linearGradient30);stroke-width:0.9823"
     width="55"
     height="55.017544"
     x="3.5"
     y="3"
     ry="13.754386"
     id="rect2" /><path
     style="opacity:0.1;fill:#ffffff;stroke-width:0.9823"
     d="M 17.25,3 C 9.6324999,3 3.4999999,9.1344561 3.4999999,16.754386 v 0.982456 c 0,-7.61993 6.1325,-13.7543858 13.7500001,-13.7543858 h 27.5 c 7.6175,0 13.75,6.1344558 13.75,13.7543858 V 16.754386 C 58.5,9.1344561 52.3675,3 44.75,3 Z"
     id="path28" /><g
     id="g1"
     transform="matrix(1.1864407,0,0,1.1842099,-6.7413413,-8.2510822)"><path
       fill="#4d4d4d"
       d="m 33.428154,14.145377 c -4.190861,0 -8.379709,1.593 -11.570639,4.764 -6.395942,6.358 -6.395942,16.661 0,22.946 l 23.081927,-22.946 a 16.316794,16.22 0 0 0 -11.570641,-4.764 z m 0,1.452 q 0.64382,0 1.280597,0.066 v 2.864 h -2.940443 v -2.835 a 15.089514,15 0 0 1 1.660852,-0.097 z m 2.749309,0.3 c 1.003956,0.216 1.984774,0.548 2.940444,0.982 v 1.652 h -2.940444 v -2.631 z m -5.880886,0.034 v 2.602 h -2.941449 v -1.638 a 14.687127,14.6 0 0 1 2.940443,-0.953 z m -4.411168,1.71 v 0.89 h -1.340955 a 15.089514,15 0 0 1 1.340955,-0.89 m 14.702217,0.003 c 0.460733,0.27 0.9104,0.57 1.350008,0.887 h -1.350008 z m -17.642661,2.353 h 2.940444 v 2.923 h -2.940444 z m 4.411168,0 h 2.940444 v 2.923 h -2.941449 z m 4.410163,0 h 2.940444 v 2.923 h -2.940444 z m 4.411167,0 h 2.940444 v 2.704 l -0.226343,0.225 h -2.720136 v -2.923 z m 4.410163,0 h 1.244381 l -1.244381,1.236 z m -19.113384,1.593 v 1.333 h -0.88123 c 0.26759,-0.456 0.558313,-0.902 0.882235,-1.333 m -1.631679,2.791 h 1.632685 v 2.923 h -2.558175 q 0.298771,-1.496 0.921465,-2.923 z m 3.102404,0 h 2.940442 v 2.923 h -2.940442 z m 4.411168,0 h 2.940442 v 2.923 h -2.942454 z m 4.410162,0 h 2.940443 v 2.704 l -0.226342,0.225 h -2.720137 v -2.923 z m 4.411167,0 h 1.243377 l -1.243377,1.237 z m -17.495788,4.385 h 2.7644 v 2.923 h -2.74931 a 14.787724,14.7 0 0 1 -0.01509,-2.923 m 4.234118,0 h 2.940442 v 2.923 h -2.940442 z m 4.411168,0 h 2.940443 v 2.704 l -0.227348,0.225 H 27.32193 v -2.923 z m 4.410161,0 h 1.243377 l -1.243377,1.236 z m -12.82005,4.384 h 2.529003 v 2.923 h -1.588424 a 15.089514,15 0 0 1 -0.93052,-2.923 z m 3.998721,0 h 2.940442 v 2.704 l -0.226342,0.225 h -2.720137 v -2.923 z m 4.411168,0 h 1.243376 l -1.243376,1.237 z m -6.733947,4.385 h 0.855071 v 1.333 q -0.465761,-0.65 -0.855071,-1.333 m 2.322779,0 h 1.243375 l -1.243375,1.236 z"
       id="path1"
       style="fill:#1b2532;fill-opacity:1;stroke-width:1.00298" /><path
       fill="#ee7630"
       d="m 30.192963,52.144377 a 16.316794,16.22 0 0 0 11.570639,-4.765 c 6.395942,-6.357 6.395942,-16.661 0,-22.945 l -23.081928,22.945 a 16.316794,16.22 0 0 0 11.570641,4.766 z m 0,-1.453 q -0.642813,0 -1.280597,-0.066 v -2.864 h 2.940442 v 2.835 c -0.551269,0.061 -1.105557,0.097 -1.660852,0.097 z m -2.74931,-0.3 a 14.385337,14.3 0 0 1 -2.940444,-0.982 v -1.651 h 2.940444 z m 5.880886,-0.034 v -2.601 h 2.940444 v 1.636 a 14.687127,14.6 0 0 1 -2.940444,0.953 z m 4.411169,-1.71 v -0.89 h 1.340954 a 15.089514,15 0 0 1 -1.340954,0.89 m -14.702218,-0.002 c -0.460732,-0.27 -0.9104,-0.57 -1.350008,-0.887 h 1.350008 z m 17.642661,-2.353 h -2.940443 v -2.923 h 2.940443 z m -4.411168,0 h -2.940444 v -2.923 h 2.940444 z m -4.410163,0 h -2.940443 v -2.923 h 2.940443 z m -4.411167,0 h -2.940444 v -2.704 l 0.227349,-0.225 h 2.719131 z m -4.410163,0 h -1.243376 l 1.243376,-1.236 z m 19.113385,-1.593 v -1.334 h 0.881229 a 14.083547,14 0 0 1 -0.882235,1.333 m 1.63168,-2.791 h -1.632685 v -2.923 h 2.558175 a 14.385337,14.3 0 0 1 -0.921466,2.923 z m -3.102404,0 h -2.940443 v -2.923 h 2.940443 z m -4.411168,0 h -2.940443 v -2.923 h 2.940443 z m -4.410162,0 h -2.939438 v -2.704 l 0.226344,-0.225 h 2.720136 z m -4.411167,0 h -1.243377 l 1.243377,-1.237 z m 17.495788,-4.385 h -2.763393 v -2.923 h 2.74931 c 0.102608,0.972 0.106631,1.959 0.01409,2.923 m -4.234118,0 h -2.940447 v -2.923 h 2.940443 z m -4.410162,0 h -2.940451 v -2.704 l 0.226343,-0.225 h 2.720136 z m -4.411167,0 h -1.243377 l 1.243377,-1.236 z m 12.820043,-4.384 h -2.527996 v -2.923 h 1.587416 c 0.412448,0.948 0.724297,1.929 0.930521,2.923 z m -3.998721,0 h -2.940443 v -2.704 l 0.226342,-0.225 h 2.720137 z m -4.410162,0 H 35.05078 l 1.244381,-1.237 z m 6.732941,-4.385 h -0.855072 v -1.333 q 0.466769,0.65 0.855072,1.333 m -2.322779,0 h -1.243375 l 1.243375,-1.236 z"
       id="path2"
       style="fill:#ff9955;fill-opacity:1;stroke-width:1.00298" /></g></svg>
