<?xml version="1.0" encoding="UTF-8" standalone="no"?>
<!-- Created with Inkscape (http://www.inkscape.org/) -->

<svg
   width="62"
   height="62"
   viewBox="0 0 62 62"
   version="1.1"
   id="svg1"
   inkscape:version="1.4 (unknown)"
   sodipodi:docname="softwarecenter-debian.svg"
   xmlns:inkscape="http://www.inkscape.org/namespaces/inkscape"
   xmlns:sodipodi="http://sodipodi.sourceforge.net/DTD/sodipodi-0.dtd"
   xmlns:xlink="http://www.w3.org/1999/xlink"
   xmlns="http://www.w3.org/2000/svg"
   xmlns:svg="http://www.w3.org/2000/svg">
  <sodipodi:namedview
     id="namedview1"
     pagecolor="#ffffff"
     bordercolor="#000000"
     borderopacity="0.25"
     inkscape:showpageshadow="2"
     inkscape:pageopacity="0.0"
     inkscape:pagecheckerboard="0"
     inkscape:deskcolor="#d1d1d1"
     inkscape:document-units="px"
     inkscape:zoom="10.74725"
     inkscape:cx="29.914629"
     inkscape:cy="32.240806"
     inkscape:window-width="1920"
     inkscape:window-height="998"
     inkscape:window-x="0"
     inkscape:window-y="0"
     inkscape:window-maximized="1"
     inkscape:current-layer="layer1" />
  <defs
     id="defs1">
    <linearGradient
       id="linearGradient19"
       inkscape:collect="always">
      <stop
         style="stop-color:#950d4b;stop-opacity:1;"
         offset="0"
         id="stop18" />
      <stop
         style="stop-color:#f58bbb;stop-opacity:1;"
         offset="1"
         id="stop19" />
    </linearGradient>
    <linearGradient
       id="linearGradient17"
       inkscape:collect="always">
      <stop
         style="stop-color:#c31162;stop-opacity:1;"
         offset="0"
         id="stop16" />
      <stop
         style="stop-color:#f58bbb;stop-opacity:1;"
         offset="1"
         id="stop17" />
    </linearGradient>
    <linearGradient
       id="linearGradient16"
       inkscape:collect="always">
      <stop
         style="stop-color:#ef5d87;stop-opacity:1;"
         offset="0"
         id="stop7" />
      <stop
         style="stop-color:#ec396c;stop-opacity:1;"
         offset="1"
         id="stop8" />
    </linearGradient>
    <linearGradient
       id="linearGradient9"
       inkscape:collect="always">
      <stop
         style="stop-color:#96abb6;stop-opacity:1;"
         offset="0"
         id="stop9" />
      <stop
         style="stop-color:#d0dadf;stop-opacity:1;"
         offset="1"
         id="stop10" />
    </linearGradient>
    <radialGradient
       id="radialGradient2"
       cx="0"
       cy="0"
       r="1"
       gradientUnits="userSpaceOnUse"
       gradientTransform="matrix(-16.000099,-9.999913,9.999913,-16.000099,583,171)">
      <stop
         offset="0.09984342"
         stop-color="#B7C6CD"
         id="stop1" />
      <stop
         offset="1"
         stop-color="#EFF2F6"
         id="stop2" />
    </radialGradient>
    <linearGradient
       id="linearGradient5"
       inkscape:collect="always">
      <stop
         style="stop-color:#ef3c8d;stop-opacity:1;"
         offset="0"
         id="stop5" />
      <stop
         style="stop-color:#c31162;stop-opacity:1;"
         offset="1"
         id="stop6" />
    </linearGradient>
    <radialGradient
       id="paint664_radial_890_11"
       cx="0"
       cy="0"
       r="1"
       gradientUnits="userSpaceOnUse"
       gradientTransform="matrix(-16.000099,-9.999913,9.999913,-16.000099,583,171)">
      <stop
         offset="0.42141"
         stop-color="#B7C6CD"
         id="stop2071" />
      <stop
         offset="1"
         stop-color="#EFF2F6"
         id="stop2072" />
    </radialGradient>
    <linearGradient
       id="paint665_linear_890_11"
       x1="605"
       y1="180"
       x2="601.466"
       y2="162.72301"
       gradientUnits="userSpaceOnUse">
      <stop
         stop-color="#5200FF"
         id="stop2073" />
      <stop
         offset="1"
         stop-color="#0085FF"
         id="stop2074" />
    </linearGradient>
    <linearGradient
       id="paint666_linear_890_11"
       x1="567"
       y1="181"
       x2="562.11798"
       y2="174.183"
       gradientUnits="userSpaceOnUse">
      <stop
         stop-color="#5200FF"
         id="stop2075" />
      <stop
         offset="0.670391"
         stop-color="#0085FF"
         id="stop2076" />
    </linearGradient>
    <linearGradient
       id="paint667_linear_890_11"
       x1="605"
       y1="180"
       x2="597.32001"
       y2="174.24001"
       gradientUnits="userSpaceOnUse">
      <stop
         stop-color="#5200FF"
         id="stop2077" />
      <stop
         offset="1"
         stop-color="#0085FF"
         id="stop2078" />
    </linearGradient>
    <linearGradient
       id="paint668_linear_890_11"
       x1="567"
       y1="180"
       x2="561.23999"
       y2="172.32001"
       gradientUnits="userSpaceOnUse">
      <stop
         stop-color="#5200FF"
         id="stop2079" />
      <stop
         offset="1"
         stop-color="#0085FF"
         id="stop2080" />
    </linearGradient>
    <linearGradient
       id="paint669_linear_890_11"
       x1="607"
       y1="179"
       x2="602.50598"
       y2="171.80901"
       gradientUnits="userSpaceOnUse">
      <stop
         stop-color="#5200FF"
         id="stop2081" />
      <stop
         offset="1"
         stop-color="#0085FF"
         id="stop2082" />
    </linearGradient>
    <linearGradient
       id="paint670_linear_890_11"
       x1="607"
       y1="217"
       x2="568.82599"
       y2="170.01601"
       gradientUnits="userSpaceOnUse">
      <stop
         stop-color="#5200FF"
         id="stop2083" />
      <stop
         offset="1"
         stop-color="#0085FF"
         id="stop2084" />
    </linearGradient>
    <radialGradient
       id="paint671_radial_890_11"
       cx="0"
       cy="0"
       r="1"
       gradientUnits="userSpaceOnUse"
       gradientTransform="matrix(0,20,-16,0,583,187)">
      <stop
         offset="0.869716"
         stop-color="#EFF2F6"
         id="stop2085" />
      <stop
         offset="1"
         stop-color="#B7C6CD"
         id="stop2086" />
    </radialGradient>
    <linearGradient
       id="a"
       gradientUnits="userSpaceOnUse"
       x1="25"
       x2="25"
       y1="6"
       y2="26">
      <stop
         offset="0"
         id="stop1047" />
      <stop
         offset="1"
         stop-color="#292c2f"
         id="stop1049" />
    </linearGradient>
    <linearGradient
       inkscape:collect="always"
       xlink:href="#linearGradient16"
       id="linearGradient4"
       x1="565.60632"
       y1="178"
       x2="607"
       y2="217"
       gradientUnits="userSpaceOnUse" />
    <linearGradient
       inkscape:collect="always"
       xlink:href="#linearGradient5"
       id="linearGradient6"
       x1="596.91614"
       y1="163.03169"
       x2="607"
       y2="177.69299"
       gradientUnits="userSpaceOnUse" />
    <linearGradient
       inkscape:collect="always"
       xlink:href="#linearGradient17"
       id="linearGradient8"
       x1="567"
       y1="178"
       x2="562.90594"
       y2="174"
       gradientUnits="userSpaceOnUse" />
    <linearGradient
       inkscape:collect="always"
       xlink:href="#linearGradient19"
       id="linearGradient10"
       x1="600.0235"
       y1="180"
       x2="602.67548"
       y2="175.37849"
       gradientUnits="userSpaceOnUse" />
    <radialGradient
       inkscape:collect="always"
       xlink:href="#paint671_radial_890_11"
       id="radialGradient14"
       gradientUnits="userSpaceOnUse"
       gradientTransform="matrix(0,20,-16,0,583,188)"
       cx="0"
       cy="0"
       r="1" />
    <linearGradient
       inkscape:collect="always"
       xlink:href="#linearGradient9"
       id="linearGradient11"
       x1="583.09717"
       y1="167.18506"
       x2="583"
       y2="161"
       gradientUnits="userSpaceOnUse" />
  </defs>
  <g
     inkscape:label="Layer 1"
     inkscape:groupmode="layer"
     id="layer1">
    <g
       id="g2272"
       transform="translate(-552,-158)">
      <path
         d="m 597,181 c 1.105,0 2,-0.895 2,-2 v -2 c 0,-8.837 -7.163,-16 -16,-16 -8.837,0 -16,7.163 -16,16 v 2 c 0,1.105 0.895,2 2,2 1.105,0 2,-0.895 2,-2 v -2 c 0,-6.627 5.373,-12 12,-12 6.627,0 12,5.373 12,12 v 2 c 0,1.105 0.895,2 2,2 z"
         id="path647"
         style="fill:url(#linearGradient11);fill-opacity:1" />
      <path
         d="m 561,172 c 0,-0.552 0.448,-1 1,-1 h 42 c 0.552,0 1,0.448 1,1 v 7 c 0,0.552 -0.448,1 -1,1 h -42 c -0.552,0 -1,-0.448 -1,-1 z"
         id="path648"
         style="fill:url(#linearGradient6)" />
      <path
         d="m 561,181 v -9 l 5.144,0.75 c 0.492,0.072 0.856,0.493 0.856,0.99 V 181 Z"
         id="path649"
         style="fill:#b21058;fill-opacity:1" />
      <path
         d="m 605,180 v -8 l -5.132,0.684 c -0.497,0.067 -0.868,0.49 -0.868,0.992 V 180 Z"
         id="path650"
         style="fill:#a31052;fill-opacity:1" />
      <path
         d="M 559.649,176.757 567,174 v 6 h -8 v -2.307 c 0,-0.417 0.259,-0.79 0.649,-0.936 z"
         id="path651"
         style="fill:url(#linearGradient8)" />
      <path
         d="M 606.351,176.757 599,174 v 5 h 8 v -1.307 c 0,-0.417 -0.259,-0.79 -0.649,-0.936 z"
         id="path652"
         style="fill:url(#linearGradient10)" />
      <path
         d="m 559,178 h 48 v 33 c 0,3.314 -2.686,6 -6,6 h -36 c -3.314,0 -6,-2.686 -6,-6 z"
         id="path653"
         style="fill:url(#linearGradient4)" />
      <path
         d="m 597,188 c 1.105,0 2,0.895 2,2 v 2 c 0,8.837 -7.163,16 -16,16 -8.837,0 -16,-7.163 -16,-16 v -2 c 0,-1.105 0.895,-2 2,-2 1.105,0 2,0.895 2,2 v 2 c 0,6.627 5.373,12 12,12 6.627,0 12,-5.373 12,-12 v -2 c 0,-1.105 0.895,-2 2,-2 z"
         id="path654"
         style="fill:url(#radialGradient14)" />
    </g>
    <g
       id="g1"
       transform="matrix(0.78571429,0,0,0.78571429,11.135001,-35.198247)">
      <path
         style="opacity:0.2;stroke-width:0.687731"
         d="m 14.021238,81.881796 c 0.146572,-0.451422 0.172813,-0.722234 0.228756,-0.983862 -0.404059,0.519581 -0.186258,0.630479 -0.228756,0.983862 m 0.746472,-3.13355 c 0.0728,0.676663 -0.506262,0.939587 0.128118,0.49288 0.340629,-0.770885 -0.132499,-0.212674 -0.128118,-0.49288 m 11.085603,-5.924092 c 0.315313,-0.115914 0.775612,-0.06375 1.111262,-0.140107 -0.436874,0.0368 -0.871618,0.05873 -1.300642,0.113722 l 0.189364,0.0264 M 35.99821,85.46086 35.92973,85.634265 c -0.12562,0.897769 -0.397819,1.786109 -0.814097,2.610155 0.460012,-0.869208 0.756575,-1.820139 0.882561,-2.783574 M 23.15993,88.26641 c -0.16329,-0.180755 -0.257969,-0.39793 -0.366365,-0.615116 0.103123,0.380422 0.314382,0.707402 0.510318,1.040436 l -0.143972,-0.424322 m -0.725432,0.02804 -0.06574,0.32866 c 0.307195,0.419376 0.550947,0.87365 0.942501,1.200332 -0.281878,-0.552577 -0.490933,-0.780932 -0.876598,-1.529204 m 3.823722,-15.106777 -0.175307,0.03679 0.163443,-0.01514 0.01194,-0.02163 m -0.49701,-0.138706 c 0.249387,0.04463 0.538773,0.07918 0.497196,0.139158 0.273749,-0.06058 0.335314,-0.115287 -0.497196,-0.139158 m 5.201214,11.553007 c 0.05688,-0.845362 -0.165328,-0.577709 -0.240014,-0.255714 0.08688,0.0459 0.155939,0.596238 0.240014,0.255714 m -0.924787,2.420186 c 0.279065,-0.386085 0.481569,-0.808264 0.553132,-1.244946 -0.06284,0.310998 -0.230009,0.579587 -0.388759,0.863534 -0.872867,0.552574 -0.08251,-0.327952 -6.25e-4,-0.663145 -0.938143,1.188376 -0.129386,0.712468 -0.163763,1.044542 m -2.505768,0.627254 c -0.466886,0.0064 0.08782,0.241253 0.697533,0.335816 0.169065,-0.132552 0.320949,-0.265755 0.457198,-0.395809 -0.378634,0.09363 -0.764884,0.09567 -1.15459,0.06014 M 14.023198,81.882007 c 0.14657,-0.451434 0.172817,-0.722231 0.228753,-0.983932 -0.404063,0.519601 -0.186247,0.630495 -0.228753,0.983932 m 0.746264,-3.133279 c 0.07281,0.676674 -0.506261,0.939591 0.128124,0.492897 0.340627,-0.770946 -0.132498,-0.212678 -0.128124,-0.492897 m 11.084914,-5.925457 c 0.315315,-0.115924 0.775612,-0.06376 1.111264,-0.140111 -0.436879,0.03679 -0.871551,0.05873 -1.300651,0.113723 l 0.189378,0.02638 m 10.145595,12.638068 -0.06847,0.173407 c -0.12563,0.897839 -0.397818,1.786248 -0.814103,2.610221 0.460005,-0.869274 0.756582,-1.820135 0.882495,-2.783633 M 23.16094,88.266689 c -0.1625,-0.180951 -0.258132,-0.398347 -0.366252,-0.614479 0.10313,0.38044 0.314372,0.707479 0.510324,1.040449 l -0.14406,-0.426011 m -0.725295,0.02832 -0.06593,0.328909 c 0.307186,0.419388 0.550939,0.873651 0.942503,1.200333 -0.281875,-0.552593 -0.490938,-0.780996 -0.876534,-1.529265 m 3.823312,-15.106777 -0.175319,0.03679 0.163436,-0.01514 0.01187,-0.02161 m 6.963541,11.766198 c 0.02575,0.709796 -0.201721,1.054655 -0.407455,1.664624 l -0.369969,0.188901 c -0.302447,0.603441 0.02999,0.383107 -0.186561,0.862857 -0.472694,0.430988 -1.43244,1.348191 -1.739642,1.432166 -0.224621,-0.0056 0.151937,-0.272043 0.201155,-0.376339 -0.632081,0.44538 -0.507315,0.668662 -1.47411,0.939792 l -0.02803,-0.06494 c -2.383527,1.151682 -5.694742,-1.130226 -5.651275,-4.243071 -0.02519,0.197424 -0.07237,0.148068 -0.125052,0.227393 -0.123045,-1.601484 0.720515,-3.209942 2.143052,-3.867678 1.391603,-0.706854 3.022849,-0.417172 4.018785,0.537342 -0.547087,-0.736242 -1.637057,-1.516761 -2.927735,-1.444602 -1.264998,0.02112 -2.448866,0.846387 -2.843563,1.742652 -0.647817,0.41865 -0.723352,1.614743 -1.005495,1.833805 -0.380275,2.86734 0.714491,4.105595 2.566686,5.563181 0.29071,0.201531 0.08181,0.232381 0.120748,0.385745 -0.615202,-0.295554 -1.178335,-0.742119 -1.641761,-1.288817 0.246077,0.369291 0.511312,0.728309 0.854383,1.010303 -0.580578,-0.201253 -1.355749,-1.443373 -1.581405,-1.493933 1.000025,1.838451 4.056858,3.224285 5.658336,2.536494 -0.741073,0.0282 -1.682192,0.01554 -2.514216,-0.30025 -0.350517,-0.18479 -0.825247,-0.567019 -0.740246,-0.638394 2.185007,0.837573 4.441443,0.633997 6.331574,-0.921613 0.481289,-0.384868 1.006598,-1.039144 1.158534,-1.047962 -0.228617,0.353123 0.03916,0.16981 -0.136488,0.481528 0.478423,-0.793502 -0.208604,-0.323168 0.495026,-1.370267 l 0.259804,0.367244 c -0.09729,-0.659266 0.796866,-1.458818 0.705912,-2.500692 0.205155,-0.318451 0.228617,0.343143 0.01103,1.075838 0.301869,-0.812909 0.07984,-0.94362 0.157087,-1.61475 0.0833,0.225626 0.193999,0.465064 0.250371,0.703309 -0.196859,-0.785845 0.201153,-1.32291 0.300153,-1.779823 -0.09787,-0.04407 -0.303588,0.34726 -0.351081,-0.580525 0.0074,-0.403082 0.109599,-0.211225 0.148777,-0.310523 -0.0767,-0.04554 -0.27899,-0.354595 -0.401742,-0.947172 0.08842,-0.139551 0.238064,0.361066 0.359393,0.381328 -0.0781,-0.470947 -0.212302,-0.830257 -0.218038,-1.191856 -0.354812,-0.760911 -0.125604,0.101661 -0.412899,-0.326691 -0.377693,-1.208666 0.313043,-0.280568 0.359959,-0.82937 0.571704,0.85048 0.897576,2.169707 1.047859,2.715647 -0.114449,-0.665994 -0.299023,-1.311429 -0.524788,-1.935751 0.174254,0.0755 -0.280124,-1.369985 0.226321,-0.412754 -0.542686,-2.040157 -2.313342,-3.946662 -3.942781,-4.841087 0.199354,0.187216 0.451314,0.422131 0.361333,0.459169 -0.811263,-0.494972 -0.668671,-0.53406 -0.784959,-0.743277 -0.660363,-0.275773 -0.703279,0.02269 -1.140749,6.82e-4 -1.24457,-0.678102 -1.484074,-0.606082 -2.628972,-1.030411 l 0.05218,0.25032 c -0.824347,-0.282028 -0.960571,0.106352 -1.851363,5.86e-4 -0.05407,-0.04318 0.285577,-0.15745 0.565404,-0.198884 -0.797206,0.10811 -0.75997,-0.161569 -1.540014,0.02963 0.192011,-0.13838 0.395737,-0.230342 0.600599,-0.347837 -0.64981,0.04058 -1.551915,0.388396 -1.273583,0.07165 -1.060107,0.485914 -2.943239,1.167801 -3.999954,2.185149 l -0.03317,-0.227986 c -0.484139,0.596673 -2.111356,1.782147 -2.241072,2.555763 l -0.129621,0.03085 c -0.251504,0.438033 -0.414894,0.934262 -0.614624,1.384612 -0.329332,0.576698 -0.482997,0.222113 -0.436069,0.312593 -0.648097,1.349081 -0.970534,2.482519 -1.248384,3.412605 0.198009,0.304065 0.0051,1.830935 0.07954,3.052786 -0.325047,6.035601 4.125518,11.895341 8.990314,13.24756 0.713034,0.26235 1.773141,0.25296 2.675078,0.278765 -1.063842,-0.312569 -1.201176,-0.165407 -2.238167,-0.536436 -0.747646,-0.361948 -0.911352,-0.774703 -1.441169,-1.246828 l 0.209744,0.380414 c -1.038646,-0.377492 -0.604036,-0.4671 -1.44933,-0.741785 l 0.22405,-0.299928 c -0.335026,-0.02603 -0.890169,-0.582153 -1.04246,-0.891033 l -0.36854,0.01511 C 20.22683,96.11955 19.990777,95.714953 20.00822,95.401544 l -0.119048,0.21798 C 19.754402,95.38189 18.260827,93.51668 19.035607,93.950968 18.891689,93.816418 18.700263,93.731535 18.49281,93.344043 l 0.157672,-0.184791 c -0.372272,-0.492674 -0.686155,-1.123973 -0.662109,-1.334372 0.198857,0.27553 0.336783,0.327278 0.473565,0.374566 -0.941675,-2.39848 -0.994627,-0.131919 -1.707388,-2.441388 l 0.150502,-0.01235 c -0.11534,-0.179526 -0.186,-0.373127 -0.278715,-0.563791 l 0.06581,-0.671305 c -0.677397,-0.804939 -0.189258,-3.421925 -0.09112,-4.856823 0.06713,-0.58353 0.565672,-1.205321 0.943614,-2.179684 l -0.230633,-0.04061 c 0.44121,-0.789674 2.518508,-3.172634 3.481078,-3.050327 0.466121,-0.601089 -0.09269,-0.0024 -0.183981,-0.153357 1.024108,-1.087927 1.345982,-0.768564 2.037011,-0.96453 0.744807,-0.453889 -0.639511,0.177437 -0.286422,-0.173048 1.288463,-0.337558 0.912732,-0.767948 2.593266,-0.939243 0.177399,0.103408 -0.411184,0.15982 -0.558835,0.294083 1.072988,-0.539383 3.396221,-0.416298 4.905914,0.299076 1.750163,0.840509 3.718097,3.323915 3.795895,5.660484 l 0.08841,0.02435 c -0.04463,0.928931 0.138496,2.003256 -0.17941,2.989783 l 0.214886,-0.46738 M 25.761938,73.050665 c 0.249374,0.04462 0.538754,0.07917 0.497188,0.139163 0.27375,-0.06059 0.33532,-0.115291 -0.497188,-0.139163 m 5.202515,11.554368 c 0.0569,-0.84536 -0.165306,-0.577715 -0.239997,-0.255711 0.08687,0.04591 0.155942,0.59625 0.239997,0.255711 m -0.925954,2.420206 c 0.279059,-0.386089 0.481558,-0.808325 0.553121,-1.244947 -0.06281,0.310999 -0.229995,0.579606 -0.388755,0.863605 -0.872796,0.552588 -0.0825,-0.327976 -6.2e-4,-0.663164 -0.938147,1.188442 -0.129371,0.712467 -0.163748,1.04454 m -2.505353,0.627982 c -0.466881,0.0065 0.08781,0.241264 0.697532,0.335819 0.169059,-0.132569 0.320935,-0.265767 0.457191,-0.395827 -0.379062,0.09332 -0.765297,0.09551 -1.154664,0.06007"
         id="path2" />
      <path
         style="fill:#ffffff;stroke-width:0.687731"
         d="m 14.021238,81.198511 c 0.146572,-0.451417 0.172813,-0.722233 0.228756,-0.983867 -0.403551,0.5193 -0.185504,0.630678 -0.228423,0.983937 m 0.746469,-3.133557 c 0.0728,0.676662 -0.506259,0.939592 0.128118,0.492883 0.340637,-0.770884 -0.132498,-0.212676 -0.128118,-0.492883 m 11.085605,-5.924085 c 0.315314,-0.115917 0.775616,-0.06377 1.111262,-0.14011 -0.436871,0.03679 -0.871614,0.05873 -1.300646,0.113718 l 0.189371,0.0264 m 10.145597,12.636697 -0.06857,0.173551 c -0.125625,0.897771 -0.397829,1.786112 -0.814106,2.610156 0.460012,-0.869207 0.756583,-1.82014 0.882558,-2.783572 m -12.838938,2.805566 c -0.16329,-0.180753 -0.257968,-0.397925 -0.366375,-0.615119 0.103132,0.38043 0.314389,0.707408 0.510327,1.040437 L 23.16015,87.584349 m -0.725425,0.02804 -0.06575,0.328664 c 0.307207,0.41937 0.550958,0.873652 0.942506,1.200326 -0.281879,-0.55257 -0.490936,-0.780928 -0.876605,-1.529195 m 3.823721,-15.10678 -0.175127,0.03693 0.163362,-0.01507 0.01177,-0.02179 m -0.496993,-0.138726 c 0.249383,0.04463 0.538763,0.07919 0.497185,0.13916 0.27376,-0.06059 0.335328,-0.115289 -0.497185,-0.13916 M 30.9628,83.919763 c 0.05688,-0.845368 -0.165322,-0.57771 -0.240011,-0.255715 0.08686,0.0459 0.155936,0.596237 0.240011,0.255715 m -0.924782,2.420195 c 0.279073,-0.386083 0.481564,-0.808258 0.553128,-1.244949 -0.06282,0.311007 -0.230007,0.579591 -0.388755,0.863538 -0.872867,0.552577 -0.08251,-0.327948 -6.27e-4,-0.66314 -0.93814,1.188375 -0.129384,0.712461 -0.16376,1.044536 m -2.50577,0.627255 c -0.46689,0.0065 0.08781,0.241258 0.697533,0.335826 0.169059,-0.132558 0.320947,-0.265755 0.457201,-0.395817 -0.37906,0.09333 -0.765298,0.09551 -1.154734,0.06008 m -13.509005,-5.76842 c 0.146576,-0.451435 0.172815,-0.722235 0.228757,-0.983936 -0.404065,0.5196 -0.186254,0.630494 -0.228757,0.983936 m 0.746264,-3.13328 c 0.0728,0.676671 -0.506255,0.939587 0.128125,0.492893 0.340629,-0.770954 -0.1325,-0.212676 -0.128125,-0.492893 m 11.084925,-5.925453 c 0.315303,-0.115919 0.775608,-0.06376 1.111255,-0.140114 -0.436875,0.03677 -0.871545,0.05873 -1.300647,0.113718 l 0.189375,0.0264 m 10.145598,12.63806 -0.06849,0.173416 c -0.125629,0.897836 -0.397819,1.78624 -0.814102,2.610219 0.460003,-0.869277 0.75658,-1.820136 0.882487,-2.783641 m -12.83894,2.805343 c -0.162498,-0.180949 -0.25813,-0.398344 -0.366249,-0.614474 0.103122,0.380435 0.314374,0.707477 0.510318,1.040437 L 23.16096,87.583513 m -0.72529,0.02832 -0.06593,0.328917 c 0.307193,0.419386 0.550942,0.873652 0.942502,1.200327 -0.281871,-0.552583 -0.490934,-0.780997 -0.87653,-1.529263 m 3.82331,-15.106778 -0.175319,0.03679 0.163434,-0.01514 0.01188,-0.02161 m 6.963547,11.766153 c 0.02575,0.7098 -0.201722,1.054656 -0.407457,1.664622 l -0.369969,0.188909 c -0.302448,0.60344 0.02998,0.383104 -0.186564,0.862854 -0.472688,0.430987 -1.43244,1.348189 -1.739642,1.432168 -0.224617,-0.0056 0.151942,-0.272045 0.201153,-0.376342 -0.632073,0.445385 -0.507314,0.668662 -1.474108,0.939794 l -0.02803,-0.06494 c -2.383526,1.151683 -5.694741,-1.130225 -5.651267,-4.243073 -0.0252,0.197428 -0.07237,0.14807 -0.125059,0.227395 -0.123042,-1.601482 0.720515,-3.209942 2.14306,-3.867674 1.391604,-0.706857 3.022846,-0.417174 4.018783,0.537337 -0.547089,-0.736238 -1.637058,-1.516761 -2.927735,-1.444601 -1.264998,0.02114 -2.448874,0.846385 -2.843563,1.742653 -0.647815,0.418652 -0.72335,1.614741 -1.005496,1.833805 -0.380285,2.867337 0.714492,4.105595 2.566684,5.563181 0.290712,0.201526 0.08181,0.232383 0.12075,0.385743 -0.615201,-0.295551 -1.178334,-0.74212 -1.641762,-1.288818 0.246079,0.369293 0.511315,0.728312 0.85438,1.010308 -0.580574,-0.201254 -1.355745,-1.443374 -1.581404,-1.493935 1.000029,1.838452 4.056858,3.22429 5.658337,2.536497 -0.741073,0.02821 -1.682192,0.01553 -2.514218,-0.300255 -0.350516,-0.184786 -0.825243,-0.567016 -0.740238,-0.638391 2.185003,0.837571 4.441442,0.633997 6.331568,-0.921613 0.481289,-0.384871 1.006595,-1.039145 1.158535,-1.04796 -0.228614,0.353123 0.03916,0.169813 -0.136487,0.481524 0.478425,-0.793499 -0.208602,-0.323166 0.49502,-1.370264 l 0.259815,0.367244 c -0.09729,-0.659269 0.796858,-1.458817 0.705908,-2.500693 0.205153,-0.318456 0.228617,0.343145 0.01103,1.075834 0.30187,-0.812907 0.07983,-0.943615 0.157086,-1.614746 0.0833,0.225626 0.193998,0.465065 0.250369,0.703311 -0.196858,-0.78585 0.201151,-1.322914 0.300151,-1.779825 -0.09783,-0.04407 -0.303585,0.347259 -0.351086,-0.580521 0.0074,-0.403088 0.109605,-0.211231 0.148784,-0.310529 -0.07672,-0.04553 -0.278987,-0.354593 -0.40174,-0.947169 0.08841,-0.139549 0.238064,0.361065 0.35939,0.381329 -0.07809,-0.470949 -0.21231,-0.830261 -0.218038,-1.191856 -0.354812,-0.760912 -0.125614,0.101659 -0.4129,-0.326692 -0.377691,-1.208667 0.313044,-0.28057 0.359954,-0.829373 0.571707,0.85048 0.897578,2.169705 1.047855,2.715649 -0.114446,-0.665997 -0.299016,-1.311426 -0.524781,-1.935751 0.174255,0.0755 -0.280125,-1.369989 0.226322,-0.412761 -0.542686,-2.040152 -2.313339,-3.946658 -3.942779,-4.841082 0.199351,0.18722 0.451315,0.422134 0.361324,0.459169 -0.81126,-0.494971 -0.668663,-0.534058 -0.784951,-0.743274 -0.660362,-0.275774 -0.703279,0.02269 -1.140751,6.78e-4 -1.244582,-0.678092 -1.484085,-0.606072 -2.628983,-1.030393 l 0.05218,0.250313 c -0.824344,-0.282035 -0.960572,0.106354 -1.851365,5.86e-4 -0.05405,-0.0432 0.285576,-0.157456 0.565403,-0.198891 -0.797206,0.108115 -0.759968,-0.161567 -1.540011,0.02964 0.192008,-0.138381 0.395731,-0.230339 0.600597,-0.347835 -0.649807,0.04058 -1.551919,0.388394 -1.273579,0.07166 -1.060109,0.485907 -2.943241,1.167797 -3.999955,2.185146 l -0.03317,-0.227983 c -0.484142,0.596671 -2.111356,1.782147 -2.241074,2.55576 l -0.129619,0.03085 c -0.25151,0.438036 -0.414899,0.934263 -0.614626,1.384616 -0.329332,0.576693 -0.483002,0.222112 -0.436068,0.312592 -0.648098,1.349081 -0.970541,2.482521 -1.248382,3.412607 0.198007,0.30406 0.0051,1.830933 0.07954,3.052782 -0.325042,6.035597 4.125524,11.895322 8.990318,13.247565 0.713034,0.262331 1.77314,0.252921 2.675078,0.278789 -1.063858,-0.312571 -1.201192,-0.165408 -2.238174,-0.536446 -0.747648,-0.361961 -0.911357,-0.774718 -1.441169,-1.246851 l 0.209746,0.380431 c -1.038613,-0.377517 -0.604,-0.467127 -1.449294,-0.741801 L 22.080242,96.8723 c -0.335021,-0.026 -0.890166,-0.582165 -1.042452,-0.891044 l -0.36854,0.01529 C 20.226883,95.43658 19.990826,95.031998 20.008265,94.718597 l -0.119043,0.217961 C 19.754454,94.69891 18.260876,92.833712 19.035656,93.267994 18.891732,93.133441 18.700315,93.048576 18.492859,92.661063 l 0.157669,-0.184782 c -0.372275,-0.49268 -0.686155,-1.124 -0.662107,-1.334387 0.198854,0.27556 0.33678,0.327281 0.473564,0.374577 C 17.520307,89.118 17.467348,91.384552 16.754587,89.075088 l 0.150506,-0.01236 c -0.115332,-0.179495 -0.185995,-0.373095 -0.278706,-0.563759 l 0.06581,-0.6713 c -0.677385,-0.804916 -0.189245,-3.421904 -0.0911,-4.856801 0.06712,-0.583527 0.565669,-1.20532 0.94361,-2.179688 l -0.230628,-0.04059 c 0.441206,-0.789669 2.518505,-3.172632 3.481083,-3.050325 0.466114,-0.601087 -0.09269,-0.0024 -0.18399,-0.153352 1.024114,-1.087933 1.345988,-0.768565 2.037011,-0.964531 0.744812,-0.453892 -0.639516,0.177435 -0.286414,-0.173045 1.28846,-0.337562 0.912729,-0.76795 2.59326,-0.939251 0.177397,0.103413 -0.411182,0.159822 -0.558829,0.294089 1.072981,-0.539387 3.396221,-0.4163 4.90591,0.299072 1.750161,0.84051 3.718091,3.323917 3.795893,5.660484 l 0.08841,0.02435 c -0.04463,0.928931 0.138494,2.003261 -0.179405,2.989791 l 0.214895,-0.467415 M 25.762011,72.367428 c 0.249369,0.04465 0.538755,0.07918 0.497184,0.139167 0.273754,-0.06062 0.335318,-0.115293 -0.497184,-0.139167 m 5.202519,11.554368 c 0.05688,-0.845358 -0.165311,-0.577717 -0.240002,-0.255711 0.08685,0.04591 0.155937,0.596253 0.240002,0.255711 m -0.925959,2.420206 c 0.279058,-0.386087 0.481564,-0.808327 0.553123,-1.244946 -0.06283,0.311002 -0.229993,0.579604 -0.388755,0.863608 -0.872799,0.552582 -0.0825,-0.327972 -6.24e-4,-0.663169 -0.938138,1.188445 -0.129376,0.712465 -0.163748,1.044544 m -2.505354,0.627979 c -0.466876,0.0065 0.08781,0.241266 0.697538,0.335819 0.169059,-0.132572 0.320937,-0.265769 0.457185,-0.395826 -0.379064,0.09332 -0.765299,0.09552 -1.15466,0.06007"
         id="path3" />
    </g>
  </g>
</svg>
