<?xml version="1.0" encoding="UTF-8" standalone="no"?>
<!-- Created with Inkscape (http://www.inkscape.org/) -->

<svg
   width="62"
   height="62"
   viewBox="0 0 62 62"
   version="1.1"
   id="svg1"
   inkscape:version="1.4 (unknown)"
   sodipodi:docname="gnome-software.svg"
   xmlns:inkscape="http://www.inkscape.org/namespaces/inkscape"
   xmlns:sodipodi="http://sodipodi.sourceforge.net/DTD/sodipodi-0.dtd"
   xmlns:xlink="http://www.w3.org/1999/xlink"
   xmlns="http://www.w3.org/2000/svg"
   xmlns:svg="http://www.w3.org/2000/svg">
  <sodipodi:namedview
     id="namedview1"
     pagecolor="#ffffff"
     bordercolor="#000000"
     borderopacity="0.25"
     inkscape:showpageshadow="2"
     inkscape:pageopacity="0.0"
     inkscape:pagecheckerboard="0"
     inkscape:deskcolor="#d1d1d1"
     inkscape:document-units="px"
     inkscape:zoom="10.74725"
     inkscape:cx="29.914629"
     inkscape:cy="32.147759"
     inkscape:window-width="1920"
     inkscape:window-height="998"
     inkscape:window-x="0"
     inkscape:window-y="0"
     inkscape:window-maximized="1"
     inkscape:current-layer="layer1" />
  <defs
     id="defs1">
    <linearGradient
       id="linearGradient15"
       inkscape:collect="always">
      <stop
         style="stop-color:#c3cfd5;stop-opacity:1;"
         offset="0"
         id="stop13" />
      <stop
         style="stop-color:#d0dadf;stop-opacity:1;"
         offset="1"
         id="stop14" />
    </linearGradient>
    <linearGradient
       id="linearGradient9"
       inkscape:collect="always">
      <stop
         style="stop-color:#96abb6;stop-opacity:1;"
         offset="0"
         id="stop9" />
      <stop
         style="stop-color:#d0dadf;stop-opacity:1;"
         offset="1"
         id="stop10" />
    </linearGradient>
    <radialGradient
       id="radialGradient2"
       cx="0"
       cy="0"
       r="1"
       gradientUnits="userSpaceOnUse"
       gradientTransform="matrix(-16.000099,-9.999913,9.999913,-16.000099,583,171)">
      <stop
         offset="0.09984342"
         stop-color="#B7C6CD"
         id="stop1" />
      <stop
         offset="1"
         stop-color="#EFF2F6"
         id="stop2" />
    </radialGradient>
    <linearGradient
       id="linearGradient5"
       inkscape:collect="always">
      <stop
         style="stop-color:#dc8add;stop-opacity:1"
         offset="0"
         id="stop5" />
      <stop
         style="stop-color:#813d9c;stop-opacity:1"
         offset="1"
         id="stop6" />
    </linearGradient>
    <linearGradient
       id="linearGradient3"
       inkscape:collect="always">
      <stop
         style="stop-color:#cdab8f;stop-opacity:1"
         offset="0"
         id="stop3" />
      <stop
         style="stop-color:#865e3c;stop-opacity:1"
         offset="1"
         id="stop4" />
    </linearGradient>
    <radialGradient
       id="paint664_radial_890_11"
       cx="0"
       cy="0"
       r="1"
       gradientUnits="userSpaceOnUse"
       gradientTransform="matrix(-16.000099,-9.999913,9.999913,-16.000099,583,171)">
      <stop
         offset="0.42141"
         stop-color="#B7C6CD"
         id="stop2071" />
      <stop
         offset="1"
         stop-color="#EFF2F6"
         id="stop2072" />
    </radialGradient>
    <linearGradient
       id="paint665_linear_890_11"
       x1="605"
       y1="180"
       x2="601.466"
       y2="162.72301"
       gradientUnits="userSpaceOnUse">
      <stop
         stop-color="#5200FF"
         id="stop2073" />
      <stop
         offset="1"
         stop-color="#0085FF"
         id="stop2074" />
    </linearGradient>
    <linearGradient
       id="paint666_linear_890_11"
       x1="567"
       y1="181"
       x2="562.11798"
       y2="174.183"
       gradientUnits="userSpaceOnUse">
      <stop
         stop-color="#5200FF"
         id="stop2075" />
      <stop
         offset="0.670391"
         stop-color="#0085FF"
         id="stop2076" />
    </linearGradient>
    <linearGradient
       id="paint667_linear_890_11"
       x1="605"
       y1="180"
       x2="597.32001"
       y2="174.24001"
       gradientUnits="userSpaceOnUse">
      <stop
         stop-color="#5200FF"
         id="stop2077" />
      <stop
         offset="1"
         stop-color="#0085FF"
         id="stop2078" />
    </linearGradient>
    <linearGradient
       id="paint668_linear_890_11"
       x1="567"
       y1="180"
       x2="561.23999"
       y2="172.32001"
       gradientUnits="userSpaceOnUse">
      <stop
         stop-color="#5200FF"
         id="stop2079" />
      <stop
         offset="1"
         stop-color="#0085FF"
         id="stop2080" />
    </linearGradient>
    <linearGradient
       id="paint669_linear_890_11"
       x1="607"
       y1="179"
       x2="602.50598"
       y2="171.80901"
       gradientUnits="userSpaceOnUse">
      <stop
         stop-color="#5200FF"
         id="stop2081" />
      <stop
         offset="1"
         stop-color="#0085FF"
         id="stop2082" />
    </linearGradient>
    <linearGradient
       id="paint670_linear_890_11"
       x1="607"
       y1="217"
       x2="568.82599"
       y2="170.01601"
       gradientUnits="userSpaceOnUse">
      <stop
         stop-color="#5200FF"
         id="stop2083" />
      <stop
         offset="1"
         stop-color="#0085FF"
         id="stop2084" />
    </linearGradient>
    <radialGradient
       id="paint671_radial_890_11"
       cx="0"
       cy="0"
       r="1"
       gradientUnits="userSpaceOnUse"
       gradientTransform="matrix(0,20,-16,0,583,187)">
      <stop
         offset="0.869716"
         stop-color="#EFF2F6"
         id="stop2085" />
      <stop
         offset="1"
         stop-color="#B7C6CD"
         id="stop2086" />
    </radialGradient>
    <linearGradient
       id="a"
       gradientUnits="userSpaceOnUse"
       x1="25"
       x2="25"
       y1="6"
       y2="26">
      <stop
         offset="0"
         id="stop1047" />
      <stop
         offset="1"
         stop-color="#292c2f"
         id="stop1049" />
    </linearGradient>
    <linearGradient
       inkscape:collect="always"
       xlink:href="#linearGradient3"
       id="linearGradient4"
       x1="565.60632"
       y1="178"
       x2="607"
       y2="217"
       gradientUnits="userSpaceOnUse" />
    <linearGradient
       inkscape:collect="always"
       xlink:href="#linearGradient5"
       id="linearGradient6"
       x1="596.91614"
       y1="163.03169"
       x2="607"
       y2="177.69299"
       gradientUnits="userSpaceOnUse" />
    <linearGradient
       inkscape:collect="always"
       xlink:href="#linearGradient3"
       id="linearGradient8"
       x1="567"
       y1="178"
       x2="562.90594"
       y2="174"
       gradientUnits="userSpaceOnUse" />
    <linearGradient
       inkscape:collect="always"
       xlink:href="#linearGradient3"
       id="linearGradient10"
       x1="600.0235"
       y1="180"
       x2="602.67548"
       y2="175.37849"
       gradientUnits="userSpaceOnUse" />
    <linearGradient
       inkscape:collect="always"
       xlink:href="#linearGradient3"
       id="linearGradient12"
       x1="605"
       y1="175.5"
       x2="599"
       y2="175.27495"
       gradientUnits="userSpaceOnUse" />
    <linearGradient
       inkscape:collect="always"
       xlink:href="#linearGradient3"
       id="linearGradient14"
       x1="561"
       y1="176.5"
       x2="567"
       y2="176.5"
       gradientUnits="userSpaceOnUse" />
    <radialGradient
       inkscape:collect="always"
       xlink:href="#paint671_radial_890_11"
       id="radialGradient14"
       gradientUnits="userSpaceOnUse"
       gradientTransform="matrix(0,20,-16,0,583,188)"
       cx="0"
       cy="0"
       r="1" />
    <linearGradient
       inkscape:collect="always"
       xlink:href="#linearGradient9"
       id="linearGradient11"
       x1="583.09717"
       y1="167.18506"
       x2="583"
       y2="161"
       gradientUnits="userSpaceOnUse" />
    <linearGradient
       inkscape:collect="always"
       xlink:href="#linearGradient15"
       id="linearGradient13"
       x1="31.130032"
       y1="39.224689"
       x2="31.130161"
       y2="24.765938"
       gradientUnits="userSpaceOnUse" />
  </defs>
  <g
     inkscape:label="Layer 1"
     inkscape:groupmode="layer"
     id="layer1">
    <g
       id="g2272"
       transform="translate(-552,-158)">
      <path
         d="m 597,181 c 1.105,0 2,-0.895 2,-2 v -2 c 0,-8.837 -7.163,-16 -16,-16 -8.837,0 -16,7.163 -16,16 v 2 c 0,1.105 0.895,2 2,2 1.105,0 2,-0.895 2,-2 v -2 c 0,-6.627 5.373,-12 12,-12 6.627,0 12,5.373 12,12 v 2 c 0,1.105 0.895,2 2,2 z"
         id="path647"
         style="fill:url(#linearGradient11);fill-opacity:1" />
      <path
         d="m 561,172 c 0,-0.552 0.448,-1 1,-1 h 42 c 0.552,0 1,0.448 1,1 v 7 c 0,0.552 -0.448,1 -1,1 h -42 c -0.552,0 -1,-0.448 -1,-1 z"
         id="path648"
         style="fill:url(#linearGradient6)" />
      <path
         d="m 561,181 v -9 l 5.144,0.75 c 0.492,0.072 0.856,0.493 0.856,0.99 V 181 Z"
         id="path649"
         style="fill:url(#linearGradient14)" />
      <path
         d="m 605,180 v -8 l -5.132,0.684 c -0.497,0.067 -0.868,0.49 -0.868,0.992 V 180 Z"
         id="path650"
         style="fill:url(#linearGradient12)" />
      <path
         d="M 559.649,176.757 567,174 v 6 h -8 v -2.307 c 0,-0.417 0.259,-0.79 0.649,-0.936 z"
         id="path651"
         style="fill:url(#linearGradient8)" />
      <path
         d="M 606.351,176.757 599,174 v 5 h 8 v -1.307 c 0,-0.417 -0.259,-0.79 -0.649,-0.936 z"
         id="path652"
         style="fill:url(#linearGradient10)" />
      <path
         d="m 559,178 h 48 v 33 c 0,3.314 -2.686,6 -6,6 h -36 c -3.314,0 -6,-2.686 -6,-6 z"
         id="path653"
         style="fill:url(#linearGradient4)" />
      <path
         d="m 597,188 c 1.105,0 2,0.895 2,2 v 2 c 0,8.837 -7.163,16 -16,16 -8.837,0 -16,-7.163 -16,-16 v -2 c 0,-1.105 0.895,-2 2,-2 1.105,0 2,0.895 2,2 v 2 c 0,6.627 5.373,12 12,12 6.627,0 12,-5.373 12,-12 v -2 c 0,-1.105 0.895,-2 2,-2 z"
         id="path654"
         style="fill:url(#radialGradient14)" />
    </g>
    <path
       d="m 35.494191,23.003718 c -0.0823,-0.006 -0.1634,-0.004 -0.2433,7.87e-4 -0.532731,0.0376 -1.02607,0.33276 -1.31338,0.83028 -0.458021,0.7952 -0.18384,1.80562 0.613,2.265319 0.7952,0.458 1.8073,0.191781 2.26531,-0.60593 0.45964,-0.792709 0.1964,-1.82188 -0.5988,-2.280669 -0.22411,-0.1289 -0.47598,-0.19478 -0.72281,-0.210231 z m -4.3641,1.76219 c -1.14955,0 -2.22467,0.27154 -3.18889,0.749971 l 1.15512,2.08577 c 0.62213,-0.290501 1.30394,-0.461801 2.03384,-0.461801 2.54076,6e-6 4.63778,1.94421 4.85657,4.43025 l 2.358621,-0.02947 c -0.117581,-1.832089 -0.91916,-3.480131 -2.14957,-4.6901 -0.633561,0.23766 -1.35311,0.20123 -1.984201,-0.16535 -0.63106,-0.36494 -1.0303,-0.97491 -1.139749,-1.64524 -0.615601,-0.16902 -1.273041,-0.274 -1.941671,-0.274 z m -4.00386,1.21886 c -1.456501,0.97238 -2.52915,2.46469 -2.97985,4.20699 0.52743,0.42862 0.84449,1.0695 0.84449,1.8035 -10e-7,0.72904 -0.31624,1.393741 -0.84449,1.82478 0.4507,1.74145 1.52335,3.22753 2.979849,4.19991 l 1.2185,-2.04937 c -1.24994,-0.87846 -2.063339,-2.33122 -2.063339,-3.9755 2e-6,-1.64597 0.8134,-3.09698 2.06334,-3.97551 z m -4.46683,4.3511 c -0.920132,4e-6 -1.659404,0.73926 -1.659401,1.659391 -1.1e-5,0.91686 0.73927,1.659399 1.659401,1.659399 0.92091,1e-6 1.66767,-0.74254 1.66767,-1.6594 -4e-6,-0.92013 -0.74676,-1.659389 -1.66767,-1.65939 z m 13.32727,2.09998 c -0.218809,2.48198 -2.31581,4.43025 -4.85658,4.43025 -0.730721,-10e-7 -1.4117,-0.16403 -2.03383,-0.45471 l -1.15512,2.07041 c 0.96422,0.48008 2.039401,0.74289 3.18889,0.74289 0.6687,10e-7 1.326079,-0.0893 1.941669,-0.259839 0.109411,-0.669471 0.507841,-1.277511 1.139781,-1.644091 0.63276,-0.36489 1.35068,-0.40031 1.98418,-0.15944 1.230401,-1.21161 2.03189,-2.85637 2.14957,-4.6901 z m -0.72875,5.245161 c -0.24077,0.0205 -0.48381,0.1006 -0.707449,0.230319 -0.796771,0.45643 -1.071001,1.46466 -0.613001,2.25823 0.45968,0.79768 1.48348,1.06508 2.279471,0.607081 0.79617,-0.458872 1.058429,-1.471271 0.598809,-2.266471 -0.28729,-0.4975 -0.787639,-0.79163 -1.32046,-0.829119 -0.08,-0.007 -0.15721,-0.007 -0.23739,5e-6 z"
       id="path16"
       style="fill:url(#linearGradient13)" />
  </g>
</svg>
