<?xml version="1.0" encoding="UTF-8" standalone="no"?>
<svg
   width="62"
   height="62"
   version="1.1"
   id="svg4"
   sodipodi:docname="soundux.svg"
   inkscape:version="1.4.1 (unknown)"
   xmlns:inkscape="http://www.inkscape.org/namespaces/inkscape"
   xmlns:sodipodi="http://sodipodi.sourceforge.net/DTD/sodipodi-0.dtd"
   xmlns="http://www.w3.org/2000/svg"
   xmlns:svg="http://www.w3.org/2000/svg">
  <defs
     id="defs4" />
  <sodipodi:namedview
     id="namedview4"
     pagecolor="#ffffff"
     bordercolor="#000000"
     borderopacity="0.25"
     inkscape:showpageshadow="2"
     inkscape:pageopacity="0.0"
     inkscape:pagecheckerboard="0"
     inkscape:deskcolor="#d1d1d1"
     inkscape:zoom="16.970563"
     inkscape:cx="32.379598"
     inkscape:cy="41.247896"
     inkscape:window-width="1920"
     inkscape:window-height="996"
     inkscape:window-x="0"
     inkscape:window-y="0"
     inkscape:window-maximized="1"
     inkscape:current-layer="svg4" />
  <ellipse
     style="opacity:0.2;stroke-width:0.9823"
     cx="31"
     cy="31.491228"
     id="circle1"
     rx="27.5"
     ry="27.508772" />
  <ellipse
     style="fill:#00b2b2;fill-opacity:1;stroke-width:0.9823"
     cx="31"
     cy="30.508772"
     id="circle2"
     rx="27.5"
     ry="27.508772" />
  <path
     style="opacity:0.2;stroke-width:0.9823"
     d="m 28.372001,13.48246 c -3.784758,0 -7.218209,3.21761 -7.504185,7.030702 -1.068943,0.713141 -1.84775,0.87434 -2.555107,0.828947 -0.72862,-0.04676 -1.43069,-0.302015 -2.294224,-0.30318 -0.332533,-0.0059 -0.614069,0.21745 -0.679059,0.560307 v 0.0038 0.0038 c -0.429334,2.600797 1.780422,5.864366 6.821288,5.722051 l 0.656041,1.097588 c -1.774449,2.103001 -4.964425,4.328082 -4.964425,8.105263 0,1.971714 0.579655,3.962498 1.883719,5.526316 1.299507,1.564862 4.077879,2.667321 6.775252,2.862938 h 0.01151 10.934013 c 3.010032,0 5.818539,-1.896966 7.864816,-4.67818 2.041427,-2.778981 3.356931,-6.765937 3.356931,-10.588267 v -0.0038 c 0.0053,-0.266869 -0.153626,-0.47312 -0.337611,-0.587171 -0.184623,-0.114436 -0.429918,-0.162527 -0.659877,-0.04222 h -0.0038 c -3.300862,1.753692 -4.922718,1.160164 -7.02846,0.257127 -1.657548,-0.709832 -3.722205,-1.503345 -6.495186,-1.492872 0.797661,-0.661997 1.543206,-1.051198 1.956612,-1.826755 0.708431,-1.325626 0.905407,-2.737183 0.905407,-4.087177 v -0.0038 c -0.02179,-2.658793 -0.970588,-4.771648 -2.532087,-6.20176 -1.561501,-1.430113 -3.688622,-2.17606 -6.111537,-2.183662 z m 0,1.385416 c 4.174131,-0.01114 7.248269,2.724714 7.281668,7.003838 -2.59e-4,1.215464 -0.167808,2.361472 -0.73277,3.419408 -0.562968,1.056514 -1.525187,1.765065 -3.245676,2.632676 v 0.0038 c -0.305417,0.157292 -0.451296,0.497988 -0.345284,0.828948 v 0.0077 0.0038 c 0.111944,0.333973 0.429351,0.511691 0.759626,0.460527 h 0.0077 0.0038 c 3.828652,-0.703565 5.84145,0.394988 8.010603,1.32785 1.927109,0.826906 4.141921,1.243182 7.08217,0.05373 -0.201412,3.161094 -1.280105,6.513739 -2.969447,8.811403 -1.862546,2.533782 -4.32945,4.114035 -6.767578,4.114035 H 26.576521 c -2.378897,-0.179342 -4.74584,-1.099679 -5.804618,-2.371688 -1.060305,-1.276329 -1.557617,-2.937489 -1.557617,-4.632127 0,-3.33826 3.107271,-5.35746 4.956752,-7.594846 l 0.0038,-0.0038 v -0.0038 c 0.185841,-0.233585 0.204859,-0.548932 0.04987,-0.802084 l -0.859375,-1.442982 0.491072,-0.744517 c 0.159559,-0.246234 0.151862,-0.564786 -0.02302,-0.802084 -1.021613,-1.60797 -1.710221,-2.418574 -1.688058,-4.133224 v -0.0038 -0.0038 c 0,-3.248469 2.903912,-6.128838 6.226633,-6.128838 z m -2.850517,4.509321 c -0.779184,0 -1.396484,0.686658 -1.396484,1.477521 0,0.812122 0.659839,1.469847 1.473214,1.469847 0.812908,0 1.473215,-0.657725 1.473215,-1.469847 0,-0.816376 -0.660307,-1.477521 -1.473215,-1.477521 z m -4.603794,2.663377 c 0.204692,1.376307 0.768431,2.389506 1.549944,3.51535 l -0.272392,0.402962 c -3.963556,0.157802 -5.346217,-1.768993 -5.447823,-3.438597 0.98255,0.171006 2.359742,0.432025 4.170271,-0.479715 z m 8.025948,11.091009 c -3.930502,0 -5.800781,2.180448 -5.800781,4.100603 v 0.0038 c 0.01827,1.513433 0.744809,2.714805 1.830008,3.51727 1.085197,0.802463 2.518909,1.21236 3.970773,1.220395 2.642183,0 5.2248,-0.436982 7.738212,-0.646656 l 0.0038,-0.0038 h 0.0038 c 0.289214,-0.02897 0.478915,-0.221971 0.548619,-0.42215 0.06971,-0.200185 0.03456,-0.462246 -0.187989,-0.629386 l -0.0038,-0.0038 -1.070382,-0.744518 2.094727,-1.139803 c 0.432404,-0.227665 0.446702,-0.780666 0.02302,-1.022751 l -1.212333,-0.700384 2.585799,-1.120614 c 0.56396,-0.237783 0.465659,-1.006628 -0.141951,-1.12829 l -0.01151,-0.0038 H 39.2983 C 35.903143,33.98078 32.580652,33.226809 28.955148,33.131583 h -0.0038 z m 0.0038,1.201206 h 0.0038 c 1.319064,8.16e-4 4.961078,0.476176 7.987584,0.963267 l -1.722586,0.761788 c -0.235522,0.101043 -0.345125,0.303833 -0.360631,0.495066 -0.01552,0.191235 0.06135,0.406497 0.276228,0.53728 l 0.0038,0.0038 1.304408,0.75603 -2.002632,1.091837 v 0.0038 c -0.417574,0.217717 -0.456581,0.735311 -0.06905,0.99205 l 0.510253,0.35307 c -2.010417,0.21335 -3.99986,0.412856 -5.931222,0.485472 h -0.0038 -0.0077 c -2.40011,0.05227 -4.472397,-1.433893 -4.423481,-3.540297 v -0.0038 c 0,-1.164643 0.62981,-1.83713 1.515416,-2.277686 0.883994,-0.439746 2.030369,-0.604141 2.919573,-0.621711 z"
     id="path2" />
  <path
     style="fill:#ffffff;stroke-width:0.9823"
     d="m 28.372001,12.500004 c -3.784758,0 -7.218209,3.217609 -7.504185,7.030701 -1.068943,0.713142 -1.84775,0.874341 -2.555107,0.828948 -0.72862,-0.04677 -1.43069,-0.302015 -2.294224,-0.30318 -0.332533,-0.0059 -0.614069,0.21745 -0.679059,0.560307 v 0.0038 0.0038 c -0.429334,2.600798 1.780422,5.864367 6.821288,5.722052 l 0.656041,1.097588 c -1.774449,2.103001 -4.964425,4.328082 -4.964425,8.105263 0,1.971714 0.579655,3.962497 1.883719,5.526316 1.299507,1.564862 4.077879,2.667321 6.775252,2.862938 h 0.01151 10.934013 c 3.010032,0 5.818539,-1.896966 7.864816,-4.67818 2.041427,-2.778981 3.356931,-6.765938 3.356931,-10.588267 v -0.0038 c 0.0053,-0.266869 -0.153626,-0.47312 -0.337611,-0.587171 -0.184623,-0.114437 -0.429918,-0.162527 -0.659877,-0.04222 h -0.0038 c -3.300862,1.753692 -4.922718,1.160164 -7.02846,0.257127 -1.657548,-0.709832 -3.722205,-1.503345 -6.495186,-1.492872 0.797661,-0.661997 1.543206,-1.051198 1.956612,-1.826755 0.708431,-1.325626 0.905407,-2.737183 0.905407,-4.087177 v -0.0038 C 36.993866,18.226628 36.045068,16.113774 34.483569,14.683662 32.922068,13.253548 30.794947,12.507602 28.372032,12.5 Z m 0,1.385416 c 4.174131,-0.01114 7.248269,2.724714 7.281668,7.003838 -2.59e-4,1.215464 -0.167808,2.361471 -0.73277,3.419408 -0.562968,1.056513 -1.525187,1.765065 -3.245676,2.632676 v 0.0038 c -0.305417,0.157291 -0.451296,0.497988 -0.345284,0.828948 v 0.0077 0.0038 c 0.111944,0.333973 0.429351,0.511691 0.759626,0.460527 h 0.0077 0.0038 c 3.828652,-0.703565 5.84145,0.394988 8.010603,1.32785 1.927109,0.826906 4.141921,1.243182 7.08217,0.05373 -0.201412,3.161093 -1.280105,6.513739 -2.969447,8.811403 -1.862546,2.533782 -4.32945,4.114035 -6.767578,4.114035 H 26.576521 c -2.378897,-0.179342 -4.74584,-1.099679 -5.804618,-2.371688 -1.060305,-1.276329 -1.557617,-2.937489 -1.557617,-4.632127 0,-3.33826 3.107271,-5.35746 4.956752,-7.594846 l 0.0038,-0.0038 v -0.0038 c 0.185841,-0.233584 0.204859,-0.548931 0.04987,-0.802083 l -0.859375,-1.442982 0.491072,-0.744517 C 24.015997,24.71102 24.0083,24.392468 23.833416,24.15517 22.811803,22.547199 22.123195,21.736596 22.145358,20.021946 v -0.0038 -0.0038 c 0,-3.248469 2.903912,-6.128838 6.226633,-6.128838 z m -2.850517,4.509321 c -0.779184,0 -1.396484,0.686658 -1.396484,1.477521 0,0.812122 0.659839,1.469847 1.473214,1.469847 0.812908,0 1.473215,-0.657725 1.473215,-1.469847 0,-0.816376 -0.660307,-1.477521 -1.473215,-1.477521 z m -4.603794,2.663377 c 0.204692,1.376307 0.768431,2.389505 1.549944,3.51535 l -0.272392,0.402961 c -3.963556,0.157802 -5.346217,-1.768992 -5.447823,-3.438596 0.98255,0.171006 2.359742,0.432025 4.170271,-0.479715 z m 8.025948,11.091008 c -3.930502,0 -5.800781,2.180449 -5.800781,4.100603 v 0.0038 c 0.01827,1.513432 0.744809,2.714805 1.830008,3.51727 1.085197,0.802463 2.518909,1.21236 3.970773,1.220395 2.642183,0 5.2248,-0.436982 7.738212,-0.646656 l 0.0038,-0.0038 h 0.0038 c 0.289214,-0.02897 0.478915,-0.221972 0.548619,-0.42215 0.06971,-0.200185 0.03456,-0.462247 -0.187989,-0.629386 l -0.0038,-0.0038 -1.070382,-0.744518 2.094727,-1.139803 c 0.432404,-0.227665 0.446702,-0.780666 0.02302,-1.022751 l -1.212333,-0.700385 2.585799,-1.120614 c 0.56396,-0.237783 0.465659,-1.006627 -0.141951,-1.12829 l -0.01151,-0.0038 H 39.2983 C 35.903143,32.998324 32.580652,32.244353 28.955148,32.149126 h -0.0038 z m 0.0038,1.201206 h 0.0038 c 1.319064,8.17e-4 4.961078,0.476177 7.987584,0.963268 l -1.722586,0.761788 c -0.235522,0.101042 -0.345125,0.303833 -0.360631,0.495065 -0.01552,0.191235 0.06135,0.406497 0.276228,0.537281 l 0.0038,0.0038 1.304408,0.75603 -2.002632,1.091837 v 0.0038 c -0.417574,0.217717 -0.456581,0.735311 -0.06905,0.992049 l 0.510253,0.353071 c -2.010417,0.21335 -3.99986,0.412856 -5.931222,0.485471 h -0.0038 -0.0077 c -2.40011,0.05227 -4.472397,-1.433892 -4.423481,-3.540296 v -0.0038 c 0,-1.164642 0.62981,-1.837129 1.515416,-2.277686 0.883994,-0.439745 2.030369,-0.60414 2.919573,-0.621711 z"
     id="path3" />
  <path
     style="opacity:0.2;fill:#ffffff;stroke-width:0.9823"
     d="M 31,3 A 27.5,27.508772 0 0 0 3.4999999,30.508772 27.5,27.508772 0 0 0 3.5326101,30.98273 27.5,27.508772 0 0 1 31,3.9824562 27.5,27.508772 0 0 1 58.482736,30.746711 27.5,27.508772 0 0 0 58.5,30.508772 27.5,27.508772 0 0 0 31,3 Z"
     id="path4" />
  <text
     xml:space="preserve"
     style="font-size:7.75842px;font-family:'Blush Asliring';-inkscape-font-specification:'Blush Asliring';text-align:start;writing-mode:lr-tb;direction:ltr;text-anchor:start;fill:#404040;fill-opacity:1;stroke:#000000;stroke-width:0;stroke-linecap:round;stroke-linejoin:round;stroke-opacity:1;paint-order:fill markers stroke;opacity:0.384"
     x="15.107101"
     y="51.112526"
     id="text4"
     transform="scale(0.9853205,1.0148982)"><tspan
       sodipodi:role="line"
       id="tspan4"
       x="15.107101"
       y="51.112526"
       style="stroke-width:0;stroke:#000000;stroke-opacity:1;fill:#404040;fill-opacity:1">Soundux</tspan></text>
  <text
     xml:space="preserve"
     style="font-size:7.75842px;font-family:'Blush Asliring';-inkscape-font-specification:'Blush Asliring';text-align:start;writing-mode:lr-tb;direction:ltr;text-anchor:start;opacity:1;fill:#ffffff;fill-opacity:1;stroke:#ffffff;stroke-width:0;stroke-linecap:round;stroke-linejoin:round;stroke-opacity:1;paint-order:fill markers stroke"
     x="15.107101"
     y="50.521336"
     id="text4-0"
     transform="scale(0.9853205,1.0148982)"><tspan
       sodipodi:role="line"
       id="tspan4-9"
       x="15.107101"
       y="50.521336"
       style="stroke:#ffffff;stroke-width:0;stroke-opacity:1">Soundux</tspan></text>
</svg>
