<?xml version="1.0" encoding="UTF-8" standalone="no"?>
<svg
   width="62"
   height="62"
   version="1"
   id="svg7"
   sodipodi:docname="spitfire.svg"
   inkscape:version="1.4 (unknown)"
   xmlns:inkscape="http://www.inkscape.org/namespaces/inkscape"
   xmlns:sodipodi="http://sodipodi.sourceforge.net/DTD/sodipodi-0.dtd"
   xmlns:xlink="http://www.w3.org/1999/xlink"
   xmlns="http://www.w3.org/2000/svg"
   xmlns:svg="http://www.w3.org/2000/svg">
  <defs
     id="defs7">
    <linearGradient
       id="linearGradient7"
       inkscape:collect="always">
      <stop
         style="stop-color:#384850;stop-opacity:1;"
         offset="0"
         id="stop8" />
      <stop
         style="stop-color:#384850;stop-opacity:1;"
         offset="0.59162253"
         id="stop10" />
      <stop
         style="stop-color:#eff2f6;stop-opacity:1;"
         offset="0.92173076"
         id="stop11" />
      <stop
         style="stop-color:#eff2f6;stop-opacity:1;"
         offset="1"
         id="stop9" />
    </linearGradient>
    <linearGradient
       id="linearGradient1"
       inkscape:collect="always">
      <stop
         style="stop-color:#566c80;stop-opacity:1;"
         offset="0"
         id="stop5" />
      <stop
         style="stop-color:#566c80;stop-opacity:1;"
         offset="0.28848785"
         id="stop7" />
      <stop
         style="stop-color:#495361;stop-opacity:1;"
         offset="1"
         id="stop6" />
    </linearGradient>
    <linearGradient
       id="c-3"
       gradientUnits="userSpaceOnUse"
       x1="24.072048"
       x2="23.959682"
       y1="0.75082099"
       y2="46.056854">
      <stop
         offset="0"
         stop-color="#fff"
         id="stop3" />
      <stop
         offset="1"
         stop-color="#d9d9d9"
         id="stop4" />
    </linearGradient>
    <linearGradient
       id="b-6"
       gradientUnits="userSpaceOnUse"
       x1="29.203026"
       x2="34.121048"
       xlink:href="#a-7"
       y1="24.827356"
       y2="29.224836" />
    <linearGradient
       id="a-7">
      <stop
         offset="0"
         id="stop1" />
      <stop
         offset="1"
         stop-opacity="0"
         id="stop2" />
    </linearGradient>
    <linearGradient
       id="d"
       gradientUnits="userSpaceOnUse"
       x1="15.948756"
       x2="25.031786"
       xlink:href="#a-7"
       y1="23.618279"
       y2="33.69899" />
    <linearGradient
       id="e"
       gradientUnits="userSpaceOnUse"
       x1="21.990562"
       x2="29.320522"
       xlink:href="#a-7"
       y1="33.780373"
       y2="41.931858" />
    <linearGradient
       id="paint154_linear_890_11"
       x1="778"
       y1="812.29199"
       x2="788"
       y2="812.29199"
       gradientUnits="userSpaceOnUse"
       gradientTransform="translate(-751,-696)">
      <stop
         stop-color="#EFF2F6"
         id="stop1050" />
      <stop
         offset="0.600785"
         stop-color="#B7C6CD"
         id="stop1051" />
    </linearGradient>
    <linearGradient
       id="paint155_linear_890_11"
       x1="783"
       y1="813"
       x2="783"
       y2="817"
       gradientUnits="userSpaceOnUse"
       gradientTransform="translate(-751,-696)">
      <stop
         stop-color="#EFF2F6"
         id="stop1052" />
      <stop
         offset="0.734138"
         stop-color="#B7C6CD"
         id="stop1053" />
    </linearGradient>
    <radialGradient
       id="paint156_radial_890_11"
       cx="0"
       cy="0"
       r="1"
       gradientUnits="userSpaceOnUse"
       gradientTransform="matrix(27.999986,27.999976,-27.999986,27.999976,32.302392,33.999998)">
      <stop
         offset="0.60067803"
         stop-color="#B7C6CD"
         id="stop1054"
         style="stop-color:#384850;stop-opacity:1;" />
      <stop
         offset="0.876735"
         stop-color="#EFF2F6"
         id="stop1055" />
    </radialGradient>
    <linearGradient
       id="paint157_linear_890_11"
       x1="796.84485"
       y1="799.43359"
       x2="768.90088"
       y2="770.81476"
       gradientUnits="userSpaceOnUse"
       gradientTransform="matrix(1.1666666,0,0,1.1666668,-881.19764,-881.8333)">
      <stop
         offset="0.00000057"
         stop-color="#2E2E41"
         id="stop1056"
         style="stop-color:#495361;stop-opacity:1;" />
      <stop
         offset="0.711139"
         stop-color="#566C80"
         id="stop1057" />
    </linearGradient>
    <linearGradient
       id="paint158_linear_890_11"
       x1="792"
       y1="794"
       x2="774"
       y2="776"
       gradientUnits="userSpaceOnUse"
       gradientTransform="translate(-751,-696)">
      <stop
         offset="0.304478"
         stop-color="#2E2E41"
         id="stop1058" />
      <stop
         offset="1"
         stop-color="#566C80"
         id="stop1059" />
    </linearGradient>
    <linearGradient
       id="paint159_linear_890_11"
       x1="788"
       y1="790"
       x2="778"
       y2="780"
       gradientUnits="userSpaceOnUse"
       gradientTransform="translate(-751,-696)">
      <stop
         offset="0.391394"
         stop-color="#5200FF"
         id="stop1060" />
      <stop
         offset="1"
         stop-color="#0085FF"
         id="stop1061" />
    </linearGradient>
    <linearGradient
       id="paint160_linear_890_11"
       x1="784"
       y1="798"
       x2="782"
       y2="796"
       gradientUnits="userSpaceOnUse"
       gradientTransform="translate(-751,-696)">
      <stop
         stop-color="#FF7E07"
         id="stop1062" />
      <stop
         offset="1"
         stop-color="#FFE607"
         id="stop1063" />
    </linearGradient>
    <linearGradient
       inkscape:collect="always"
       xlink:href="#linearGradient1"
       id="linearGradient6"
       x1="17.408081"
       y1="16.037786"
       x2="49.155514"
       y2="50.137749"
       gradientUnits="userSpaceOnUse" />
    <radialGradient
       inkscape:collect="always"
       xlink:href="#linearGradient7"
       id="radialGradient9"
       cx="32.302387"
       cy="34"
       fx="32.302387"
       fy="34"
       r="28"
       gradientUnits="userSpaceOnUse"
       gradientTransform="matrix(0.99999999,1,-1,0.99999999,34,-32.302387)" />
    <linearGradient
       id="c-3-6"
       gradientUnits="userSpaceOnUse"
       x1="24.072048"
       x2="23.959682"
       y1="0.75082099"
       y2="46.056854"
       gradientTransform="matrix(0.91471346,0,0,0.90068147,9.0468769,9.3836444)">
      <stop
         offset="0"
         stop-color="#fff"
         id="stop3-2" />
      <stop
         offset="1"
         stop-color="#d9d9d9"
         id="stop4-9" />
    </linearGradient>
    <linearGradient
       id="b-6-1"
       gradientUnits="userSpaceOnUse"
       x1="29.203026"
       x2="34.121048"
       xlink:href="#a-7"
       y1="24.827356"
       y2="29.224836"
       gradientTransform="matrix(1.1104534,0,0,1.0934187,4.3491158,4.7861435)" />
    <linearGradient
       id="d-0"
       gradientUnits="userSpaceOnUse"
       x1="15.948756"
       x2="25.031786"
       xlink:href="#a-7"
       y1="23.618279"
       y2="33.69899"
       gradientTransform="matrix(1.1104534,0,0,1.0934187,4.3491158,4.7861435)" />
    <linearGradient
       id="e-9"
       gradientUnits="userSpaceOnUse"
       x1="21.990562"
       x2="29.320522"
       xlink:href="#a-7"
       y1="33.780373"
       y2="41.931858"
       gradientTransform="matrix(1.1104534,0,0,1.0934187,4.3491158,4.7861435)" />
    <linearGradient
       id="linear0"
       x1="61.921312"
       x2="1.6038128"
       y1="62.772762"
       y2="2.4552626"
       gradientTransform="scale(1.0089039,0.99117464)"
       gradientUnits="userSpaceOnUse">
      <stop
         offset="0%"
         style="stop-color:#00b54e; stop-opacity:1"
         id="stop1-3" />
      <stop
         offset="100%"
         style="stop-color:#ff0000; stop-opacity:1"
         id="stop2-6" />
    </linearGradient>
  </defs>
  <sodipodi:namedview
     id="namedview7"
     pagecolor="#ffffff"
     bordercolor="#000000"
     borderopacity="0.25"
     inkscape:showpageshadow="2"
     inkscape:pageopacity="0.0"
     inkscape:pagecheckerboard="0"
     inkscape:deskcolor="#d1d1d1"
     inkscape:zoom="8.3306018"
     inkscape:cx="23.587732"
     inkscape:cy="46.995404"
     inkscape:window-width="1920"
     inkscape:window-height="998"
     inkscape:window-x="0"
     inkscape:window-y="0"
     inkscape:window-maximized="1"
     inkscape:current-layer="svg7" />
  <g
     id="g1"
     transform="translate(-1.3023872,-3)">
    <path
       d="m 60.302387,34 c 0,15.46415 -12.535828,28 -28.000002,28 C 16.838222,62 4.3023873,49.46415 4.3023873,34 4.3023873,18.535835 16.838222,6 32.302385,6 47.766559,6 60.302387,18.535835 60.302387,34 Z"
       id="path154"
       style="fill:url(#radialGradient9)" />
    <path
       d="m 55.63572,34 c 0,12.88701 -10.446332,23.33332 -23.333335,23.33332 C 19.415386,57.33332 8.9690543,46.88701 8.9690543,34 c 0,-12.886994 10.4463317,-23.333332 23.3333307,-23.333332 12.887003,0 23.333335,10.446338 23.333335,23.333332 z"
       id="path155"
       style="fill:url(#linearGradient6)" />
  </g>
  <g
     id="surface1"
     transform="matrix(0.63429919,0,0,0.63560907,10.673645,10.453186)">
    <path
       d="M 33.421875,62.117188 C 33.128906,60.625 32.863281,59.121094 32.628906,57.621094 c -0.01953,-0.230469 -0.0039,-0.457032 0.04297,-0.6875 0.238281,-1.214844 1.269531,-2.003906 2.941406,-2.253906 1.355469,-0.199219 2.464844,0.167968 3.078125,1.015624 0.386719,0.527344 0.441406,0.71875 0.894532,3.175782 0.226562,1.214844 0.398437,2.226562 0.386718,2.246094 -0.449218,0.101562 -0.902344,0.171874 -1.363281,0.210937 -0.144531,-0.695313 -0.285156,-1.394531 -0.402344,-2.097656 -0.140625,-0.777344 -0.289062,-1.550781 -0.464843,-2.324219 -0.277344,-0.863281 -1.1875,-1.269531 -2.25,-1.003906 -0.820313,0.195312 -1.289063,0.617187 -1.414063,1.273437 -0.05859,0.339844 -0.05859,0.375 0.371094,2.734375 0.203125,1.105469 0.359375,2.023438 0.351562,2.046875 -0.195312,0.07422 -0.40625,0.125 -0.617187,0.140625 -0.222656,0.03516 -0.453125,0.07422 -0.675782,0.117188 -0.04297,0.01563 -0.07422,-0.01563 -0.09375,-0.08984 z M 21.910156,60.789062 c -0.59375,-0.210937 -1.179687,-0.429687 -1.765625,-0.667968 -0.414062,-0.207032 -0.789062,-0.476563 -1.109375,-0.800782 -0.636718,-0.597656 -0.988281,-1.417968 -0.964844,-2.273437 -0.01562,-0.964844 0.382813,-1.894531 1.09375,-2.578125 0.535157,-0.53125 1.246094,-0.859375 2.011719,-0.929688 0.5,-0.05469 1.003907,-0.01953 1.492188,0.109376 0.492187,0.117187 3.410156,1.152343 3.398437,1.203124 0,0.03125 -2.386718,6.164063 -2.492187,6.441407 -0.02344,0.03906 -0.04297,0.07031 -0.06641,0.07031 z m 1.582032,-3.1875 c 0.484374,-1.238281 0.871093,-2.253906 0.863281,-2.261718 -0.628907,-0.238282 -1.261719,-0.453125 -1.910157,-0.640625 -0.429687,-0.06641 -0.875,-0.04297 -1.289062,0.07813 -0.722656,0.25 -1.234375,0.800781 -1.542969,1.636718 -0.09375,0.269532 -0.125,0.554688 -0.09766,0.832032 v 0.546875 l 0.1875,0.363281 c 0.222656,0.441406 0.585937,0.808594 1.042969,1.03125 0.355468,0.179688 1.710937,0.6875 1.808594,0.675781 0.03906,-0.0078 0.371093,-0.796875 0.9375,-2.261719 z m 23.613281,-3.675781 c -1.183594,-0.5625 -2.355469,-1.128906 -3.527344,-1.710937 0,-0.01172 0.917969,-0.742188 1.074219,-0.847656 0.05859,-0.04688 0.203125,0.01562 0.914062,0.355468 0.457032,0.222656 0.851563,0.410156 0.875,0.402344 0.01953,-0.0078 0.585938,-0.445312 1.246094,-0.980469 l 1.222656,-0.972656 -0.289062,-0.867187 c -0.113282,-0.292969 -0.203125,-0.59375 -0.265625,-0.898438 0.359375,-0.296875 0.730469,-0.582031 1.109375,-0.851562 0.01172,0.0039 0.515625,1.542968 1.125,3.417968 l 1.164062,3.597656 0.05859,0.175782 -0.542969,0.429687 c -0.1875,0.160157 -0.382812,0.300781 -0.59375,0.433594 -0.02344,0 -1.628906,-0.761719 -3.570312,-1.683594 z m 3.109375,0.02344 -0.921875,-2.671875 c -0.328125,0.183594 -0.632813,0.410156 -0.90625,0.660156 -0.492188,0.386719 -0.875,0.71875 -0.855469,0.734375 0.05078,0.05078 2.617188,1.324219 2.664062,1.324219 0.01953,0 0.02344,-0.02344 0.01953,-0.04687 z M 9.351562,53.441406 8.859375,52.96875 11.398438,50.503906 c 1.40625,-1.355468 2.570312,-2.460937 2.589843,-2.460937 0.05859,0 0.96875,0.871093 0.96875,0.933593 0,0.01563 -1.144531,1.144532 -2.550781,2.488282 l -2.5625,2.449218 z M 4.847656,45 c -1.398437,-0.261719 -2.5,-1.273438 -3,-2.757812 -0.414062,-1.09375 -0.261718,-2.3125 0.40625,-3.292969 0.769532,-1.085938 2.101563,-1.679688 3.464844,-1.542969 0.84375,0.08203 1.625,0.449219 2.210938,1.035156 0.519531,0.492188 0.921874,1.195313 1.148437,1.96875 0.105469,0.339844 0.148437,0.699219 0.125,1.050782 0,0.488281 -0.023437,0.707031 -0.085937,0.933593 C 8.964844,42.878906 8.726562,43.339844 8.417969,43.75 7.914062,44.316406 7.253906,44.730469 6.503906,44.9375 5.964844,45.058594 5.398438,45.078125 4.847656,44.996094 Z M 5.917969,43.628906 C 6.875,43.453125 7.644531,42.773438 7.90625,41.871094 8.09375,40.984375 7.8125,40.070312 7.144531,39.429688 6.398438,38.691406 5.21875,38.523438 4.28125,39.023438 2.949219,39.65625 2.527344,41.007812 3.214844,42.371094 c 0.253906,0.449218 0.628906,0.824218 1.089844,1.09375 0.503906,0.230468 1.03125,0.285156 1.613281,0.164062 z m 55.402343,-5.667968 c -0.15625,-0.01172 -0.308593,-0.03516 -0.460937,-0.06641 l 0.171875,-1.5625 0.183594,-1.5625 c -0.621094,-0.08594 -1.25,-0.148437 -1.875,-0.203125 -0.07031,0.496094 -0.136719,1 -0.1875,1.5 -0.05469,0.5 -0.121094,0.996094 -0.183594,1.492188 -0.367188,-0.03125 -0.726562,-0.07031 -1.089844,-0.121094 0,-0.0078 0.06641,-0.675781 0.164063,-1.488281 0.101562,-0.816407 0.167969,-1.488281 0.160156,-1.5 -0.664063,-0.09375 -1.335937,-0.167969 -2.011719,-0.21875 -0.07422,0.523437 -0.144531,1.050781 -0.199218,1.578125 -0.0625,0.527344 -0.128907,1.058594 -0.21875,1.585937 -0.183594,0.0078 -0.363282,0 -0.542969,-0.02734 -0.457031,-0.05078 -0.519531,-0.0625 -0.519531,-0.132813 0,-0.08984 0.519531,-4.484375 0.53125,-4.484375 2.410156,0.253906 4.820312,0.511719 7.230468,0.78125 l -0.1875,1.667969 c -0.367187,3.144531 -0.324218,2.832031 -0.429687,2.820312 z m -6.734374,-11.15625 c -0.265626,-0.707032 -0.265626,-0.707032 -0.183594,-0.800782 0.04687,-0.0625 0.367187,-0.414062 0.726562,-0.789062 1.308594,-1.402344 1.464844,-1.707032 1.195313,-2.460938 -0.08984,-0.265625 -0.117188,-0.328125 -0.183594,-0.300781 -0.355469,0.125 -2.824219,0.972656 -2.832031,0.957031 C 53.140625,23 52.992188,22.578125 52.863281,22.15625 c 2.273438,-0.800781 4.550781,-1.589844 6.832031,-2.363281 0.04688,0.0625 0.984376,2.632812 1.023438,2.800781 0.02734,0.207031 0.03906,0.417969 0.01953,0.628906 0.01563,0.261719 -0.05469,0.523438 -0.191406,0.753906 -0.171875,0.359376 -0.472656,0.652344 -0.847656,0.832032 -0.726563,0.382812 -1.628907,0.261718 -2.222657,-0.296875 l -0.164062,-0.144531 -0.05078,0.199218 c -0.125,0.457032 -0.382813,0.804688 -1.371094,1.839844 -0.351563,0.359375 -0.695313,0.730469 -1.03125,1.109375 z m 4.371093,-3.222657 c 0.613281,-0.222656 0.738281,-0.691406 0.410157,-1.597656 -0.05859,-0.179687 -0.132813,-0.355469 -0.214844,-0.527344 -0.644532,0.171875 -1.273438,0.378907 -1.894532,0.621094 l 0.191407,0.519531 c 0.242187,0.636719 0.386719,0.828125 0.738281,0.984375 0.242188,0.101563 0.519531,0.101563 0.765625,0 z M 6.859375,26.21875 C 6.648438,26.152344 6.441406,26.074219 6.242188,25.988281 6.332031,25.90625 6.429688,25.835938 6.53125,25.78125 6.769531,25.617188 6.992188,25.4375 7.199219,25.242188 c 0.402343,-0.347657 0.671875,-0.8125 0.753906,-1.328126 0.054687,-0.574218 -0.253906,-0.941406 -0.78125,-0.941406 -0.273437,0 -0.546875,0.175782 -1.253906,0.820313 -0.8125,0.746093 -1.011719,0.894531 -1.453125,1.09375 -0.582032,0.273437 -1.265625,0.246093 -1.816406,-0.07031 -1.3125,-0.664062 -1.214844,-2.726562 0.203124,-4.160156 L 3.125,20.382812 3.710938,20.589844 c 0.203124,0.0625 0.398437,0.136718 0.585937,0.21875 -0.074219,0.08203 -0.15625,0.152344 -0.242187,0.210937 -0.492188,0.394531 -0.871094,0.902344 -1.09375,1.484375 -0.214844,0.660156 0.03125,1.164063 0.566406,1.164063 0.339844,0 0.585937,-0.15625 1.332031,-0.851563 C 5.660156,22.070312 5.835938,21.933594 6.261719,21.734375 7.035156,21.402344 7.9375,21.558594 8.539062,22.125 9.144531,22.679688 9.292969,23.5625 8.949219,24.519531 8.769531,25.09375 8.4375,25.609375 7.984375,26.011719 7.835938,26.167969 7.683594,26.308594 7.511719,26.4375 7.292969,26.371094 7.074219,26.300781 6.859375,26.21875 Z M 10.199219,15.238281 7.628906,12.753906 8.804688,11.640625 c 1.25,-1.183594 1.390624,-1.296875 1.949218,-1.449219 0.214844,-0.05859 0.441406,-0.07422 0.660156,-0.05469 0.257813,-0.0078 0.515626,0.05469 0.738282,0.179687 0.664062,0.300782 1.121094,0.914063 1.207031,1.617188 0.03516,0.398437 -0.05469,0.796875 -0.257813,1.144531 -0.214843,0.371094 -0.496093,0.695313 -0.824218,0.972656 l -0.648438,0.640625 1.078125,1.027344 1.070313,1.03125 -0.492188,0.476562 -0.492187,0.46875 z m 1.171875,-1.84375 c 0.433594,-0.421875 0.523437,-0.539062 0.589844,-0.730469 0.04297,-0.121093 0.0625,-0.253906 0.05078,-0.382812 -0.06641,-0.28125 -0.23828,-0.527344 -0.484374,-0.691406 -0.179688,-0.128906 -0.242188,-0.148438 -0.472656,-0.148438 -0.371094,0 -0.585938,0.117188 -1.167969,0.652344 l -0.496094,0.457031 0.699219,0.671875 c 0.390625,0.375 0.710937,0.679688 0.734375,0.679688 0.01172,0 0.257812,-0.230469 0.542969,-0.507813 z m 37.492187,3.445313 c -0.160156,-0.160156 -0.304687,-0.332032 -0.433593,-0.511719 0,-0.04297 5.03125,-4.507813 5.238281,-4.648437 0.105469,-0.07031 0.105469,-0.06641 0.308593,0.140624 l 0.464844,0.5 0.269532,0.285157 -2.65625,2.335937 c -0.894532,0.792969 -1.796876,1.574219 -2.707032,2.347656 -0.179687,-0.132812 -0.34375,-0.28125 -0.484375,-0.449218 z m -29,-8.515625 C 19.382812,7.257812 18.914062,6.191406 18.464844,5.109375 18.871094,4.898438 19.296875,4.71875 19.730469,4.5625 c 0.734375,1.664062 1.476562,3.320312 2.214843,4.984375 0.578126,1.28125 0.636719,1.421875 0.566407,1.460937 -0.117188,0.05469 -1.171875,0.496094 -1.207031,0.496094 -0.0078,0 -0.65625,-1.429687 -1.441407,-3.179687 z m 20.679688,2.847656 c -0.203125,-0.09375 -0.394531,-0.195313 -0.589844,-0.308594 l 2.214844,-4.347656 c 0.476562,-0.910156 0.878906,-1.710937 0.917969,-1.789063 l 0.0625,-0.128906 1.972656,0.933594 1.992187,0.941406 C 46.996094,6.796875 46.839844,7.105469 46.648438,7.394531 46.179688,7.214844 45.726562,7.011719 45.277344,6.785156 44.835938,6.574219 44.386719,6.371094 43.9375,6.175781 43.792969,6.445312 43.652344,6.710938 43.515625,6.980469 l -0.402344,0.785156 1.339844,0.636719 1.355469,0.640625 C 45.742188,9.207031 45.667969,9.371094 45.582031,9.53125 L 45.351562,10.007812 44.910156,9.808594 C 44.449219,9.601562 43.992188,9.390625 43.542969,9.171875 l -0.925781,-0.441406 -0.695313,1.359375 c -0.222656,0.46875 -0.46875,0.921875 -0.738281,1.363281 -0.02734,0 -0.304688,-0.128906 -0.640625,-0.28125 z M 30.539062,6.472656 V 3.523438 L 29.257812,3.503906 27.972656,3.492188 27.960938,2.96875 27.949219,2.433594 h 6.601562 V 3.472656 H 31.96875 v 5.960938 h -1.429688 z m 0,0"
       id="path2"
       style="fill:#ffffff;fill-opacity:1" />
  </g>
</svg>
