<?xml version="1.0" encoding="UTF-8" standalone="no"?>
<svg
   width="62"
   height="62"
   version="1.1"
   viewBox="0 0 46.5 46.5"
   id="svg22"
   sodipodi:docname="ssdeep.svg"
   inkscape:version="1.4.1 (unknown)"
   xmlns:inkscape="http://www.inkscape.org/namespaces/inkscape"
   xmlns:sodipodi="http://sodipodi.sourceforge.net/DTD/sodipodi-0.dtd"
   xmlns="http://www.w3.org/2000/svg"
   xmlns:svg="http://www.w3.org/2000/svg">
  <defs
     id="defs22" />
  <sodipodi:namedview
     id="namedview22"
     pagecolor="#ffffff"
     bordercolor="#000000"
     borderopacity="0.25"
     inkscape:showpageshadow="2"
     inkscape:pageopacity="0.0"
     inkscape:pagecheckerboard="0"
     inkscape:deskcolor="#d1d1d1"
     inkscape:zoom="12"
     inkscape:cx="30.75"
     inkscape:cy="45.333333"
     inkscape:window-width="1920"
     inkscape:window-height="996"
     inkscape:window-x="0"
     inkscape:window-y="0"
     inkscape:window-maximized="1"
     inkscape:current-layer="svg22" />
  <g
     id="g23"
     transform="matrix(0.13221956,0,0,0.13193187,-3.3484845,-2.8960255)">
    <circle
       cx="150.10001"
       cy="155.39"
       r="91.404999"
       fill="#ffffff"
       opacity="0.2"
       id="circle1" />
    <path
       d="m 257.7,238.95 h -13.822 l -4.9027,-4.7276 c 17.148,-19.944 27.468,-45.836 27.468,-74.005 0,-62.805 -50.908,-113.71 -113.72,-113.71 -62.805,0 -113.71,50.908 -113.71,113.71 0,62.81 50.908,113.72 113.71,113.72 28.168,0 54.061,-10.325 74.005,-27.468 l 4.7276,4.8971 v 13.816 l 87.47,87.301 26.067,-26.061 v -7.5 z m -104.97,0 c -43.56,0 -78.726,-35.166 -78.726,-78.732 0,-43.56 35.166,-78.726 78.726,-78.726 43.566,0 78.732,35.166 78.732,78.726 0,43.566 -35.166,78.732 -78.732,78.732 z"
       fill="#198388"
       stroke-width="1.446"
       id="path1" />
    <path
       d="m 257.7,231.45 h -13.822 l -4.9027,-4.7276 c 17.148,-19.944 27.468,-45.836 27.468,-74.005 0,-62.805 -50.908,-113.71 -113.72,-113.71 -62.805,0 -113.71,50.908 -113.71,113.71 0,62.81 50.908,113.72 113.71,113.72 28.168,0 54.061,-10.325 74.005,-27.468 l 4.7276,4.8971 v 13.816 l 87.47,87.301 26.067,-26.061 z m -104.97,0 c -43.56,0 -78.726,-35.166 -78.726,-78.732 0,-43.56 35.166,-78.726 78.726,-78.726 43.566,0 78.732,35.166 78.732,78.726 0,43.566 -35.166,78.732 -78.732,78.732 z"
       stroke-width="1.446"
       id="path2"
       style="fill:#1ea6ae;fill-opacity:1" />
    <g
       transform="matrix(0.77413,-0.32245,0.32245,0.77413,122.17,55.737)"
       fill="#198388"
       stroke="#198388"
       stroke-width="15"
       aria-label="ssdeep"
       id="g8">
      <path
         d="m -186.01,298.33 c 17.802,0 28.376,-7.897 28.376,-20.88 0,-24.36 -36.808,-16.195 -36.808,-27.171 0,-3.8816 4.6846,-6.2908 12.582,-6.2908 5.3539,0 11.779,1.0708 17.802,2.8108 l 3.6139,-12.849 c -6.0231,-2.1416 -13.652,-3.3462 -21.014,-3.3462 -18.605,0 -29.446,7.4954 -29.446,20.88 0,24.226 36.272,14.991 36.272,26.769 0,4.1492 -4.417,6.6923 -11.645,6.6923 -6.2908,0 -14.991,-1.74 -21.817,-4.417 l -3.7477,12.715 c 7.3616,3.2123 16.865,5.0862 25.832,5.0862 z"
         id="path3" />
      <path
         d="m -121.9,298.33 c 17.802,0 28.376,-7.897 28.376,-20.88 0,-24.36 -36.808,-16.195 -36.808,-27.171 0,-3.8816 4.6846,-6.2908 12.582,-6.2908 5.3539,0 11.779,1.0708 17.802,2.8108 l 3.6139,-12.849 c -6.0231,-2.1416 -13.652,-3.3462 -21.014,-3.3462 -18.605,0 -29.446,7.4954 -29.446,20.88 0,24.226 36.272,14.991 36.272,26.769 0,4.1492 -4.4169,6.6923 -11.645,6.6923 -6.2908,0 -14.991,-1.74 -21.817,-4.417 l -3.7477,12.715 c 7.3616,3.2123 16.865,5.0862 25.832,5.0862 z"
         id="path4" />
      <path
         d="m -53.104,298.33 c 7.7631,0 14.322,-2.8108 19.274,-7.6293 l 2.6769,6.2908 h 7.4954 v -98.913 h -10.708 v 38.816 c -4.5508,-3.7477 -10.44,-5.7554 -17.266,-5.7554 -18.203,0 -30.249,13.652 -30.249,34.131 0,19.809 11.511,33.06 28.777,33.06 z m 18.739,-16.731 c -3.6139,4.6846 -9.1016,7.3616 -15.66,7.3616 -12.849,0 -21.148,-10.039 -21.148,-24.896 0,-14.188 7.4954,-23.557 19.943,-23.557 7.2277,0 12.983,2.9446 16.865,8.0308 z"
         id="path5" />
      <path
         d="m 27.606,298.33 c 7.3616,0 15.392,-1.74 21.148,-4.8185 l -2.4092,-7.7631 c -4.9523,2.4092 -11.243,3.8816 -16.865,3.8816 -13.652,0 -22.219,-8.1646 -23.825,-21.951 h 44.973 c 0.26769,-2.0077 0.53539,-6.6923 0.53539,-9.2354 0,-16.195 -10.708,-27.305 -26.636,-27.305 -17.935,0 -30.116,14.054 -30.116,33.863 0,20.612 12.715,33.328 33.194,33.328 z M 5.521,259.648 c 0.93693,-12.582 7.3616,-19.408 18.203,-19.408 10.975,0 17.4,7.0939 17.4,19.408 z"
         id="path6" />
      <path
         d="m 98.277,298.33 c 7.3616,0 15.392,-1.74 21.148,-4.8185 l -2.4092,-7.7631 c -4.9523,2.4092 -11.243,3.8816 -16.865,3.8816 -13.652,0 -22.219,-8.1646 -23.825,-21.951 h 44.973 c 0.2677,-2.0077 0.53539,-6.6923 0.53539,-9.2354 0,-16.195 -10.708,-27.305 -26.636,-27.305 -17.935,0 -30.116,14.054 -30.116,33.863 0,20.612 12.715,33.328 33.194,33.328 z M 76.192,259.648 c 0.93693,-12.582 7.3616,-19.408 18.203,-19.408 10.975,0 17.4,7.0939 17.4,19.408 z"
         id="path7" />
      <path
         d="m 168.28,298.33 c 17.935,0 29.982,-13.92 29.982,-34.8 0,-19.408 -11.109,-32.391 -27.706,-32.391 -7.6293,0 -14.991,2.8108 -20.479,7.7631 l -2.6769,-6.4246 h -7.4954 v 93.559 h 10.708 v -34.532 c 4.4169,4.4169 10.574,6.8262 17.668,6.8262 z m -17.668,-20.345 v -30.249 c 4.5508,-4.5508 10.842,-7.2277 17.132,-7.2277 12.046,0 19.809,9.637 19.809,24.36 0,14.455 -7.0939,24.092 -18.739,24.092 -7.897,0 -14.723,-4.2831 -18.203,-10.975 z"
         id="path8" />
    </g>
    <g
       fill="#ffffff"
       id="g11">
      <ellipse
         cx="153.95"
         cy="108.86"
         rx="1.0075001"
         ry="0.16150001"
         opacity="0.2"
         id="ellipse8" />
      <ellipse
         cx="153.95"
         cy="108.86"
         rx="1.0089999"
         ry="7.3378"
         opacity="0.2"
         id="ellipse9" />
      <ellipse
         cx="175.19"
         cy="122.46"
         rx="19.393999"
         ry="18.736"
         opacity="0.784"
         id="ellipse10" />
      <ellipse
         cx="199.95"
         cy="146.85001"
         rx="9.1661997"
         ry="8.5472002"
         opacity="0.784"
         id="ellipse11" />
    </g>
    <g
       transform="matrix(0.77413,-0.32245,0.32245,0.77413,122.17,48.237)"
       fill="#198388"
       stroke="#198388"
       stroke-width="15"
       aria-label="ssdeep"
       id="g16">
      <path
         d="m -186.01,298.33 c 17.802,0 28.376,-7.897 28.376,-20.88 0,-24.36 -36.808,-16.195 -36.808,-27.171 0,-3.8816 4.6846,-6.2908 12.582,-6.2908 5.3539,0 11.779,1.0708 17.802,2.8108 l 3.6139,-12.849 c -6.0231,-2.1416 -13.652,-3.3462 -21.014,-3.3462 -18.605,0 -29.446,7.4954 -29.446,20.88 0,24.226 36.272,14.991 36.272,26.769 0,4.1492 -4.417,6.6923 -11.645,6.6923 -6.2908,0 -14.991,-1.74 -21.817,-4.417 l -3.7477,12.715 c 7.3616,3.2123 16.865,5.0862 25.832,5.0862 z"
         id="path11" />
      <path
         d="m -121.9,298.33 c 17.802,0 28.376,-7.897 28.376,-20.88 0,-24.36 -36.808,-16.195 -36.808,-27.171 0,-3.8816 4.6846,-6.2908 12.582,-6.2908 5.3539,0 11.779,1.0708 17.802,2.8108 l 3.6139,-12.849 c -6.0231,-2.1416 -13.652,-3.3462 -21.014,-3.3462 -18.605,0 -29.446,7.4954 -29.446,20.88 0,24.226 36.272,14.991 36.272,26.769 0,4.1492 -4.4169,6.6923 -11.645,6.6923 -6.2908,0 -14.991,-1.74 -21.817,-4.417 l -3.7477,12.715 c 7.3616,3.2123 16.865,5.0862 25.832,5.0862 z"
         id="path12" />
      <path
         d="m -53.104,298.33 c 7.7631,0 14.322,-2.8108 19.274,-7.6293 l 2.6769,6.2908 h 7.4954 v -98.913 h -10.708 v 38.816 c -4.5508,-3.7477 -10.44,-5.7554 -17.266,-5.7554 -18.203,0 -30.249,13.652 -30.249,34.131 0,19.809 11.511,33.06 28.777,33.06 z m 18.739,-16.731 c -3.6139,4.6846 -9.1016,7.3616 -15.66,7.3616 -12.849,0 -21.148,-10.039 -21.148,-24.896 0,-14.188 7.4954,-23.557 19.943,-23.557 7.2277,0 12.983,2.9446 16.865,8.0308 z"
         id="path13" />
      <path
         d="m 27.606,298.33 c 7.3616,0 15.392,-1.74 21.148,-4.8185 l -2.4092,-7.7631 c -4.9523,2.4092 -11.243,3.8816 -16.865,3.8816 -13.652,0 -22.219,-8.1646 -23.825,-21.951 h 44.973 c 0.26769,-2.0077 0.53539,-6.6923 0.53539,-9.2354 0,-16.195 -10.708,-27.305 -26.636,-27.305 -17.935,0 -30.116,14.054 -30.116,33.863 0,20.612 12.715,33.328 33.194,33.328 z M 5.521,259.648 c 0.93693,-12.582 7.3616,-19.408 18.203,-19.408 10.975,0 17.4,7.0939 17.4,19.408 z"
         id="path14" />
      <path
         d="m 98.277,298.33 c 7.3616,0 15.392,-1.74 21.148,-4.8185 l -2.4092,-7.7631 c -4.9523,2.4092 -11.243,3.8816 -16.865,3.8816 -13.652,0 -22.219,-8.1646 -23.825,-21.951 h 44.973 c 0.2677,-2.0077 0.53539,-6.6923 0.53539,-9.2354 0,-16.195 -10.708,-27.305 -26.636,-27.305 -17.935,0 -30.116,14.054 -30.116,33.863 0,20.612 12.715,33.328 33.194,33.328 z M 76.192,259.648 c 0.93693,-12.582 7.3616,-19.408 18.203,-19.408 10.975,0 17.4,7.0939 17.4,19.408 z"
         id="path15" />
      <path
         d="m 168.28,298.33 c 17.935,0 29.982,-13.92 29.982,-34.8 0,-19.408 -11.109,-32.391 -27.706,-32.391 -7.6293,0 -14.991,2.8108 -20.479,7.7631 l -2.6769,-6.4246 h -7.4954 v 93.559 h 10.708 v -34.532 c 4.4169,4.4169 10.574,6.8262 17.668,6.8262 z m -17.668,-20.345 v -30.249 c 4.5508,-4.5508 10.842,-7.2277 17.132,-7.2277 12.046,0 19.809,9.637 19.809,24.36 0,14.455 -7.0939,24.092 -18.739,24.092 -7.897,0 -14.723,-4.2831 -18.203,-10.975 z"
         id="path16" />
    </g>
    <g
       transform="matrix(0.77413,-0.32245,0.32245,0.77413,122.17,48.237)"
       fill="#23bac2"
       stroke-width="5.0193"
       aria-label="ssdeep"
       id="g22">
      <path
         d="m -186.01,298.33 c 17.802,0 28.376,-7.897 28.376,-20.88 0,-24.36 -36.808,-16.195 -36.808,-27.171 0,-3.8816 4.6846,-6.2908 12.582,-6.2908 5.3539,0 11.779,1.0708 17.802,2.8108 l 3.6139,-12.849 c -6.0231,-2.1416 -13.652,-3.3462 -21.014,-3.3462 -18.605,0 -29.446,7.4954 -29.446,20.88 0,24.226 36.272,14.991 36.272,26.769 0,4.1492 -4.417,6.6923 -11.645,6.6923 -6.2908,0 -14.991,-1.74 -21.817,-4.417 l -3.7477,12.715 c 7.3616,3.2123 16.865,5.0862 25.832,5.0862 z"
         id="path17"
         style="fill:#d7eef4;fill-opacity:1" />
      <path
         d="m -121.9,298.33 c 17.802,0 28.376,-7.897 28.376,-20.88 0,-24.36 -36.808,-16.195 -36.808,-27.171 0,-3.8816 4.6846,-6.2908 12.582,-6.2908 5.3539,0 11.779,1.0708 17.802,2.8108 l 3.6139,-12.849 c -6.0231,-2.1416 -13.652,-3.3462 -21.014,-3.3462 -18.605,0 -29.446,7.4954 -29.446,20.88 0,24.226 36.272,14.991 36.272,26.769 0,4.1492 -4.4169,6.6923 -11.645,6.6923 -6.2908,0 -14.991,-1.74 -21.817,-4.417 l -3.7477,12.715 c 7.3616,3.2123 16.865,5.0862 25.832,5.0862 z"
         id="path18"
         style="fill:#d7eef4;fill-opacity:1" />
      <path
         d="m -53.104,298.33 c 7.7631,0 14.322,-2.8108 19.274,-7.6293 l 2.6769,6.2908 h 7.4954 v -98.913 h -10.708 v 38.816 c -4.5508,-3.7477 -10.44,-5.7554 -17.266,-5.7554 -18.203,0 -30.249,13.652 -30.249,34.131 0,19.809 11.511,33.06 28.777,33.06 z m 18.739,-16.731 c -3.6139,4.6846 -9.1016,7.3616 -15.66,7.3616 -12.849,0 -21.148,-10.039 -21.148,-24.896 0,-14.188 7.4954,-23.557 19.943,-23.557 7.2277,0 12.983,2.9446 16.865,8.0308 z"
         id="path19"
         style="fill:#d7eef4;fill-opacity:1" />
      <path
         d="m 27.606,298.33 c 7.3616,0 15.392,-1.74 21.148,-4.8185 l -2.4092,-7.7631 c -4.9523,2.4092 -11.243,3.8816 -16.865,3.8816 -13.652,0 -22.219,-8.1646 -23.825,-21.951 h 44.973 c 0.26769,-2.0077 0.53539,-6.6923 0.53539,-9.2354 0,-16.195 -10.708,-27.305 -26.636,-27.305 -17.935,0 -30.116,14.054 -30.116,33.863 0,20.612 12.715,33.328 33.194,33.328 z M 5.521,259.648 c 0.93693,-12.582 7.3616,-19.408 18.203,-19.408 10.975,0 17.4,7.0939 17.4,19.408 z"
         id="path20"
         style="fill:#d7eef4;fill-opacity:1" />
      <path
         d="m 98.277,298.33 c 7.3616,0 15.392,-1.74 21.148,-4.8185 l -2.4092,-7.7631 c -4.9523,2.4092 -11.243,3.8816 -16.865,3.8816 -13.652,0 -22.219,-8.1646 -23.825,-21.951 h 44.973 c 0.2677,-2.0077 0.53539,-6.6923 0.53539,-9.2354 0,-16.195 -10.708,-27.305 -26.636,-27.305 -17.935,0 -30.116,14.054 -30.116,33.863 0,20.612 12.715,33.328 33.194,33.328 z M 76.192,259.648 c 0.93693,-12.582 7.3616,-19.408 18.203,-19.408 10.975,0 17.4,7.0939 17.4,19.408 z"
         id="path21"
         style="fill:#d7eef4;fill-opacity:1" />
      <path
         d="m 168.28,298.33 c 17.935,0 29.982,-13.92 29.982,-34.8 0,-19.408 -11.109,-32.391 -27.706,-32.391 -7.6293,0 -14.991,2.8108 -20.479,7.7631 l -2.6769,-6.4246 h -7.4954 v 93.559 h 10.708 v -34.532 c 4.4169,4.4169 10.574,6.8262 17.668,6.8262 z m -17.668,-20.345 v -30.249 c 4.5508,-4.5508 10.842,-7.2277 17.132,-7.2277 12.046,0 19.809,9.637 19.809,24.36 0,14.455 -7.0939,24.092 -18.739,24.092 -7.897,0 -14.723,-4.2831 -18.203,-10.975 z"
         id="path22"
         style="fill:#d7eef4;fill-opacity:1" />
    </g>
  </g>
</svg>
