<?xml version="1.0" encoding="UTF-8" standalone="no"?>
<svg
   clip-rule="evenodd"
   fill-rule="evenodd"
   stroke-linejoin="round"
   stroke-miterlimit="2"
   viewBox="0 0 62 62"
   version="1.1"
   id="svg3"
   sodipodi:docname="staruml.svg"
   width="62"
   height="62"
   inkscape:version="1.4 (unknown)"
   xmlns:inkscape="http://www.inkscape.org/namespaces/inkscape"
   xmlns:sodipodi="http://sodipodi.sourceforge.net/DTD/sodipodi-0.dtd"
   xmlns:xlink="http://www.w3.org/1999/xlink"
   xmlns="http://www.w3.org/2000/svg"
   xmlns:svg="http://www.w3.org/2000/svg">
  <defs
     id="defs3">
    <linearGradient
       id="linearGradient6">
      <stop
         offset="0"
         style="stop-color:#dbdbdb;stop-opacity:0;"
         id="stop5" />
      <stop
         offset="1"
         style="stop-color:#000000;stop-opacity:1;"
         id="stop6" />
    </linearGradient>
    <linearGradient
       id="linearGradient3"
       inkscape:collect="always">
      <stop
         style="stop-color:#334c66;stop-opacity:1;"
         offset="0"
         id="stop3" />
      <stop
         style="stop-color:#2d3c53;stop-opacity:1;"
         offset="1"
         id="stop4" />
    </linearGradient>
    <filter
       id="b-3-36"
       width="1.2393739"
       height="1.1966286"
       x="-0.11968695"
       y="-0.098314282"
       color-interpolation-filters="sRGB">
      <feGaussianBlur
         stdDeviation="1.147"
         id="feGaussianBlur7-6" />
    </filter>
    <filter
       id="b-3-36-6"
       width="1.2393739"
       height="1.1966286"
       x="-0.11968695"
       y="-0.098314282"
       color-interpolation-filters="sRGB">
      <feGaussianBlur
         stdDeviation="1.147"
         id="feGaussianBlur7-6-7" />
    </filter>
    <linearGradient
       inkscape:collect="always"
       xlink:href="#linearGradient3"
       id="linearGradient4"
       x1="31.996025"
       y1="5.0983038"
       x2="32.182014"
       y2="58.017544"
       gradientUnits="userSpaceOnUse" />
    <linearGradient
       id="linearGradient4306">
      <stop
         offset="0"
         style="stop-color:#000000;stop-opacity:0;"
         id="stop12" />
      <stop
         offset="1"
         style="stop-color:#000000;stop-opacity:1;"
         id="stop14" />
    </linearGradient>
    <radialGradient
       xlink:href="#linearGradient4324"
       id="radialGradient4340-3"
       cx="-12"
       cy="12"
       fx="-12"
       fy="12"
       r="4"
       gradientUnits="userSpaceOnUse"
       gradientTransform="matrix(1.235291,0,0,1.235291,-1.3530054,1.3530246)" />
    <linearGradient
       id="linearGradient4324">
      <stop
         style="stop-color:#eff1f1;stop-opacity:1"
         offset="0"
         id="stop7" />
      <stop
         style="stop-color:#ececec;stop-opacity:1;"
         offset="1"
         id="stop9" />
    </linearGradient>
    <linearGradient
       id="linearGradient4167">
      <stop
         style="stop-color:#ffffff;stop-opacity:0"
         offset="0"
         id="stop2-3" />
      <stop
         style="stop-color:#ffffff;stop-opacity:1"
         offset="1"
         id="stop4-6" />
    </linearGradient>
    <radialGradient
       xlink:href="#linearGradient4324"
       id="radialGradient4188-1"
       gradientUnits="userSpaceOnUse"
       cx="-12"
       cy="12"
       fx="-12"
       fy="12"
       r="4"
       gradientTransform="matrix(1.235291,0,0,1.235291,-16.176495,16.176515)" />
    <radialGradient
       xlink:href="#linearGradient4324"
       id="radialGradient4202-2"
       gradientUnits="userSpaceOnUse"
       cx="-12"
       cy="12"
       fx="-12"
       fy="12"
       r="4"
       gradientTransform="matrix(1.235291,0,0,1.235291,-30.999989,31.000009)" />
    <linearGradient
       xlink:href="#linearGradient4816"
       id="linearGradient4503-0-3"
       y1="37"
       y2="4"
       x2="0"
       gradientUnits="userSpaceOnUse"
       gradientTransform="matrix(1.0499998,0,0,1.0499998,9.2502391,54.800003)" />
    <linearGradient
       id="linearGradient4816">
      <stop
         style="stop-color:#da4453"
         id="stop1439" />
      <stop
         offset="1"
         style="stop-color:#ff7336"
         id="stop1441" />
    </linearGradient>
    <linearGradient
       id="linearGradient4279">
      <stop
         id="stop1432" />
      <stop
         offset="1"
         style="stop-opacity:0"
         id="stop1434" />
    </linearGradient>
    <linearGradient
       id="c"
       y1="513.38"
       x1="399.98999"
       y2="537.38"
       x2="424.98999"
       gradientUnits="userSpaceOnUse"
       gradientTransform="translate(-464.04842,-560.44526)">
      <stop
         stop-color="#292c2f"
         id="stop12-3" />
      <stop
         offset="1"
         stop-opacity="0"
         id="stop14-6" />
    </linearGradient>
    <linearGradient
       id="b"
       y1="35"
       x1="42"
       y2="12"
       x2="22"
       gradientUnits="userSpaceOnUse"
       gradientTransform="translate(-75.064419,-59.059262)">
      <stop
         stop-color="#197cf1"
         id="stop7-7" />
      <stop
         offset="1"
         stop-color="#20bcfa"
         id="stop9-5" />
    </linearGradient>
    <linearGradient
       id="a-3"
       y1="35"
       x1="23"
       y2="13"
       x2="5"
       gradientUnits="userSpaceOnUse"
       gradientTransform="translate(-79.064419,-59.059262)">
      <stop
         stop-color="#c61423"
         id="stop2-5" />
      <stop
         offset="1"
         stop-color="#dc2b41"
         id="stop4-62" />
    </linearGradient>
  </defs>
  <sodipodi:namedview
     id="namedview3"
     pagecolor="#ffffff"
     bordercolor="#000000"
     borderopacity="0.25"
     inkscape:showpageshadow="2"
     inkscape:pageopacity="0.0"
     inkscape:pagecheckerboard="0"
     inkscape:deskcolor="#d1d1d1"
     inkscape:zoom="7.7916669"
     inkscape:cx="-10.395722"
     inkscape:cy="51.272726"
     inkscape:window-width="1920"
     inkscape:window-height="998"
     inkscape:window-x="0"
     inkscape:window-y="0"
     inkscape:window-maximized="1"
     inkscape:current-layer="svg3" />
  <linearGradient
     id="a"
     x2="1"
     gradientTransform="matrix(0,-43.53155,43.53155,0,1192.407,51.589413)"
     gradientUnits="userSpaceOnUse">
    <stop
       stop-color="#161616"
       offset="0"
       id="stop1" />
    <stop
       stop-color="#343434"
       offset="1"
       id="stop2" />
  </linearGradient>
  <g
     id="g3"
     transform="translate(3.487626,-1.843205)" />
  <rect
     style="opacity:0.2;stroke-width:0.9823"
     width="55"
     height="55.017544"
     x="3.5"
     y="3.9824562"
     rx="8.25"
     ry="8.2526312"
     id="rect1-3" />
  <rect
     style="fill:url(#linearGradient4);stroke-width:0.9823"
     width="55"
     height="55.017544"
     x="3.5"
     y="3"
     rx="8.25"
     ry="8.2526312"
     id="rect2-5" />
  <path
     style="opacity:0.1;fill:#ffffff;stroke-width:0.9823"
     d="M 11.748466,3 C 7.1779651,3 3.4999999,6.6791384 3.4999999,11.251097 v 0.982456 c 0,-4.5719585 3.6779652,-8.2510968 8.2484661,-8.2510968 h 38.503068 c 4.5705,0 8.248466,3.6791383 8.248466,8.2510968 V 11.251097 C 58.5,6.6791384 54.822034,3 50.251534,3 Z"
     id="path4-6" />
  <g
     id="g1"
     transform="matrix(1.9047621,0,0,1.9,10.047581,9.6000002)">
    <path
       style="opacity:0.45487365;fill:#cdafff;fill-opacity:1;stroke-width:0.987727"
       d="M 11.000007,1.4879065 C 10.053414,1.5009214 9.3783366,2.0496473 9.0615233,2.9579917 l 0.011721,-0.040965 -1.4873087,4.424549 H 2.5702943 c -0.010936,-1.687e-4 -0.02129,-1.687e-4 -0.032226,0 C 1.9391126,7.3602577 1.3990406,7.6293813 1.0185318,8.0751884 0.19560474,8.9842411 0.37002363,10.41457 1.4150173,11.092532 l 3.9433715,2.773442 -1.530278,4.575081 c -0.0017,0.0052 -0.00329,0.01016 -0.00488,0.01523 -0.2338283,0.739201 -0.013943,1.500761 0.5742207,2.021725 0.00425,0.0039 0.00927,0.0079 0.013668,0.01142 0.7067896,0.604656 1.6998713,0.681507 2.4980542,0.181021 0.015184,-0.0097 0.030283,-0.01931 0.044922,-0.02952 l 4.0459083,-2.811562 4.04591,2.81155 c 0.01464,0.01022 0.02972,0.02009 0.04489,0.02952 0.798182,0.500484 1.791264,0.423634 2.498055,-0.181022 0.0043,-0.0038 0.0094,-0.0078 0.01364,-0.01142 0.588165,-0.520964 0.808049,-1.282524 0.574222,-2.021725 -0.0016,-0.0052 -0.0032,-0.01019 -0.0049,-0.01523 l -1.530247,-4.575081 3.943372,-2.773442 C 21.62998,10.414567 21.804399,8.9842381 20.981472,8.0751855 20.600964,7.6293783 20.060893,7.3602548 19.461935,7.3415719 c -0.01093,-1.687e-4 -0.0213,-1.687e-4 -0.03219,0 h -5.015642 l -1.48731,-4.4245491 0.01173,0.040965 C 12.621675,2.0496473 11.946599,1.5009261 11.000007,1.4879065 Z"
       id="path1" />
    <path
       style="fill:#f0e5ff;stroke-width:0.987727;fill-opacity:1"
       d="M 11.000007,0.99999991 C 10.053414,1.0130243 9.3783366,1.5617407 9.0615233,2.4700849 l 0.011721,-0.040966 -1.4873092,4.424549 H 2.5702927 c -0.010936,-1.689e-4 -0.02129,-1.689e-4 -0.032227,0 -0.5989542,0.018683 -1.1390263,0.2878068 -1.519535,0.7336139 -0.82292706,0.9090515 -0.64850819,2.339383 0.3964854,3.0173422 l 3.9433716,2.773443 -1.530278,4.57508 c -0.0017,0.0052 -0.00329,0.01015 -0.00488,0.01523 -0.2338283,0.739202 -0.013943,1.500762 0.5742207,2.021725 0.00425,0.0039 0.00927,0.0079 0.013668,0.01142 0.7067895,0.604658 1.6998712,0.681508 2.4980542,0.181023 0.015184,-0.0097 0.030283,-0.0193 0.044922,-0.02952 l 4.0459104,-2.811561 4.04591,2.811551 c 0.01464,0.01022 0.02972,0.02009 0.04489,0.02952 0.798182,0.500485 1.791264,0.423635 2.498055,-0.181023 0.0043,-0.0038 0.0094,-0.0078 0.01364,-0.01142 0.588165,-0.520963 0.808049,-1.282523 0.574222,-2.021725 -0.0016,-0.0052 -0.0032,-0.01019 -0.0049,-0.01523 l -1.530225,-4.57508 3.943372,-2.773443 C 21.629928,9.9266639 21.804348,8.4963325 20.981422,7.5872808 20.600913,7.1414737 20.060841,6.87235 19.461884,6.8536672 c -0.01093,-1.689e-4 -0.0213,-1.689e-4 -0.03219,0 h -5.01566 L 12.92671,2.4291181 12.93842,2.4700831 C 12.621675,1.5617407 11.946599,1.0130194 11.000007,0.99999991 Z"
       id="path2" />
    <path
       style="opacity:0.2;fill:#ffffff;stroke-width:0.987727"
       d="M 11.000007,0.99999991 C 10.053414,1.0130243 9.3783366,1.5617407 9.0615233,2.4700849 l 0.011721,-0.040966 -1.4873092,4.424549 H 2.5702927 c -0.010936,-1.689e-4 -0.02129,-1.689e-4 -0.032227,0 C 1.9391111,6.872351 1.399039,7.1414747 1.0185303,7.5872818 0.60514467,8.043931 0.44464109,8.6315167 0.51852871,9.1897988 0.56403377,8.7907107 0.72500345,8.3993334 1.0185303,8.075087 1.399039,7.6292798 1.9391111,7.3601562 2.5380662,7.3414734 c 0.010936,-1.687e-4 0.02129,-1.687e-4 0.032226,0 h 5.0156413 l 1.4873092,-4.4245509 -0.01172,0.040968 C 9.378337,2.0495472 10.053414,1.500825 11.000007,1.4878054 c 0.946592,0.013015 1.621686,0.5617418 1.938481,1.4700861 l -0.01173,-0.040965 1.487307,4.4245481 h 5.015642 c 0.01093,-1.687e-4 0.0213,-1.687e-4 0.03219,0 0.598956,0.018684 1.139028,0.2878074 1.519538,0.7336136 0.293526,0.3242474 0.454498,0.7156237 0.500003,1.1147118 0.07387,-0.5582826 -0.08661,-1.1458683 -0.500007,-1.6025175 -0.380508,-0.4458073 -0.920579,-0.714931 -1.519536,-0.7336139 -0.01093,-1.689e-4 -0.0213,-1.689e-4 -0.0322,0 h -5.015637 l -1.487308,-4.424549 0.01173,0.040965 C 12.621675,1.5617407 11.946599,1.0130194 11.000007,0.99999991 Z M 5.2265511,13.772501 3.8281093,17.953145 c -0.0017,0.0052 -0.00329,0.01015 -0.00488,0.01523 -0.089256,0.282168 -0.1114523,0.567216 -0.073242,0.841274 0.014578,-0.117642 0.036054,-0.2359 0.073244,-0.353468 0.0016,-0.0052 0.0032,-0.01018 0.00489,-0.01523 l 1.5302662,-4.575083 z m 11.5469109,0 -0.131837,0.09335 1.530279,4.575083 c 0.0017,0.0052 0.0033,0.01016 0.0049,0.01523 0.03721,0.117567 0.05864,0.235825 0.07323,0.353467 0.03818,-0.274057 0.01602,-0.559106 -0.07323,-0.841274 -0.0016,-0.0052 -0.0032,-0.01019 -0.0049,-0.01523 z"
       id="path3-2" />
  </g>
</svg>
