<?xml version="1.0" encoding="UTF-8" standalone="no"?>
<svg
   width="62"
   height="62"
   version="1.1"
   id="svg29"
   sodipodi:docname="stardew-valley.svg"
   inkscape:version="1.4 (unknown)"
   xml:space="preserve"
   xmlns:inkscape="http://www.inkscape.org/namespaces/inkscape"
   xmlns:sodipodi="http://sodipodi.sourceforge.net/DTD/sodipodi-0.dtd"
   xmlns:xlink="http://www.w3.org/1999/xlink"
   xmlns="http://www.w3.org/2000/svg"
   xmlns:svg="http://www.w3.org/2000/svg"><defs
     id="defs29"><linearGradient
       id="linearGradient29"
       inkscape:collect="always"><stop
         style="stop-color:#2d3d53;stop-opacity:1;"
         offset="0"
         id="stop29" /><stop
         style="stop-color:#003380;stop-opacity:1"
         offset="1"
         id="stop30" /></linearGradient><linearGradient
       inkscape:collect="always"
       xlink:href="#linearGradient29"
       id="linearGradient30"
       x1="30.782633"
       y1="60"
       x2="30.193521"
       y2="5"
       gradientUnits="userSpaceOnUse"
       gradientTransform="matrix(0.98214286,0,0,0.98245614,-0.42857152,-0.92982455)" /><linearGradient
       id="linearGradient3564"><stop
         style="stop-color:#b20607;stop-opacity:1;"
         offset="0"
         id="stop3566" /><stop
         style="stop-color:#b20607;stop-opacity:0;"
         offset="1"
         id="stop3568" /></linearGradient><linearGradient
       id="linearGradient3570"><stop
         style="stop-color:#fdea20;stop-opacity:1;"
         offset="0"
         id="stop3572" /><stop
         style="stop-color:#e9680a;stop-opacity:1;"
         offset="1"
         id="stop3574" /></linearGradient><linearGradient
       id="linearGradient3409"><stop
         style="stop-color:#fbd90a;stop-opacity:1;"
         offset="0"
         id="stop3411" /><stop
         id="stop3413"
         offset="0.3980374"
         style="stop-color:#fbd90a;stop-opacity:1;" /><stop
         style="stop-color:#df500a;stop-opacity:1;"
         offset="1"
         id="stop3415" /></linearGradient><linearGradient
       id="linearGradient4029"><stop
         style="stop-color:#fbd90a;stop-opacity:1;"
         offset="0"
         id="stop4031" /><stop
         id="stop4033"
         offset="0.40341854"
         style="stop-color:#fbd90a;stop-opacity:1;" /><stop
         style="stop-color:#df500a;stop-opacity:1;"
         offset="1"
         id="stop4035" /></linearGradient><linearGradient
       id="linearGradient3355"><stop
         id="stop3357"
         offset="0"
         style="stop-color:#fbd90a;stop-opacity:1;" /><stop
         style="stop-color:#fbd90a;stop-opacity:1;"
         offset="0.61271751"
         id="stop3359" /><stop
         id="stop3361"
         offset="1"
         style="stop-color:#df500a;stop-opacity:1;" /></linearGradient><linearGradient
       id="linearGradient3323"><stop
         style="stop-color:#fbd90a;stop-opacity:1;"
         offset="0"
         id="stop3325" /><stop
         id="stop3345"
         offset="0.67312354"
         style="stop-color:#fbd90a;stop-opacity:1;" /><stop
         style="stop-color:#df500a;stop-opacity:1;"
         offset="1"
         id="stop3327" /></linearGradient><linearGradient
       id="linearGradient3681"><stop
         style="stop-color:#b3b3b3;stop-opacity:1;"
         offset="0"
         id="stop3683" /><stop
         style="stop-color:#ffffff;stop-opacity:1;"
         offset="1"
         id="stop3685" /></linearGradient></defs><sodipodi:namedview
     id="namedview29"
     pagecolor="#ffffff"
     bordercolor="#000000"
     borderopacity="0.25"
     inkscape:showpageshadow="2"
     inkscape:pageopacity="0.0"
     inkscape:pagecheckerboard="0"
     inkscape:deskcolor="#d1d1d1"
     inkscape:zoom="8"
     inkscape:cx="26.375"
     inkscape:cy="34.0625"
     inkscape:window-width="1920"
     inkscape:window-height="998"
     inkscape:window-x="0"
     inkscape:window-y="0"
     inkscape:window-maximized="1"
     inkscape:current-layer="svg29" /><rect
     style="opacity:0.2;stroke-width:0.9823"
     width="55"
     height="55.017544"
     x="3.5"
     y="3.9824562"
     ry="13.754386"
     id="rect1" /><rect
     style="fill:url(#linearGradient30);stroke-width:0.9823"
     width="55"
     height="55.017544"
     x="3.5"
     y="3"
     ry="13.754386"
     id="rect2" /><path
     style="opacity:0.1;fill:#ffffff;stroke-width:0.9823"
     d="M 17.25,3 C 9.6324999,3 3.4999999,9.1344561 3.4999999,16.754386 v 0.982456 c 0,-7.61993 6.1325,-13.7543858 13.7500001,-13.7543858 h 27.5 c 7.6175,0 13.75,6.1344558 13.75,13.7543858 V 16.754386 C 58.5,9.1344561 52.3675,3 44.75,3 Z"
     id="path28" /><g
     id="g1"
     transform="matrix(1.0172688,0,0,1.0095402,65.941149,8.0305173)"><path
       fill="#fdd71f"
       d="m -46.39,41.325421 v -1.238 h 4.953 v 2.476 h -4.953 z m 12.382,0 v -1.238 h 4.953 v 2.476 h -4.952 z m -14.858,-22.288 v -1.238 h 7.43 v 1.238 l -0.008,1.307 -3.707,-0.069 h -3.716 z"
       id="path1" /><path
       fill="#b34719"
       d="m -41.437,38.848421 v -1.237 h 7.43 v 2.477 h -7.43 z m 12.382,0 v -1.237 h 2.477 v 2.477 h -2.477 z m -17.335,-2.476 v -1.238 h -2.476 v -2.477 h 2.476 v 2.477 h 2.477 v 2.476 h -2.477 z m 22.288,0 v -1.238 h 2.476 v 2.476 h -2.476 z m 2.476,-4.953 v -1.238 h 2.477 v 2.476 h -2.478 z m -24.764,-9.905 v -1.239 h 2.477 v 2.477 h -2.477 z m 4.953,-12.383 v -1.239 h 2.477 v -2.476 h 7.429 v 2.476 h -4.953 l 0.05,1.22 -0.028,1.354 h -2.477 l -2.503,-0.06 z"
       id="path2" /><path
       fill="#69350f"
       d="m -48.866,41.325421 v -1.238 h 2.476 v -2.477 h -2.476 v -2.476 h -2.476 v -2.477 h -2.477 v -7.429 h 2.477 v -2.476 h 2.476 v -2.477 h -2.476 v -2.476 h 2.476 v -4.953 h 2.476 v -2.475 h 2.477 v -2.477 h 2.476 v -2.476 h 2.477 v -2.477 h 9.905 v 4.952 h -2.476 v 4.953 h 2.476 v 2.477 h 2.477 v -2.477 h 9.905 v 2.477 h 2.477 v 4.952 h -2.477 v 2.477 h 2.477 v 4.953 h -2.477 v 4.952 h -2.476 v 4.953 h -2.478 v 2.477 h -4.95 v 2.476 h -2.477 v -2.476 h -4.953 v -2.477 h 4.953 v 2.477 h 2.477 v -2.477 h 4.952 v -4.953 h 2.477 v -4.952 h 2.476 v -4.954 h -2.476 v -2.477 h 2.476 v -4.952 h -9.905 v 2.476 h -2.477 v 2.476 h -2.476 v -7.429 h -2.477 v 7.43 h -2.476 v -7.43 h 2.476 v -2.407 h -2.477 l 0.001,-1.307 v -1.239 h 4.953 v -2.476 h -7.43 v 2.476 h -2.477 v 1.239 l 0.012,1.305 -1.245,-0.022 -1.214,0.01 -0.03,1.183 v 1.238 h 2.477 v 4.953 h -2.476 v -4.953 h -2.477 v 4.953 h -2.476 v 2.476 h 2.476 v 2.477 h -2.476 v 2.476 h -2.476 v 7.43 h 2.476 v 2.476 h 2.476 v 2.476 h 4.953 v 2.477 h -4.953 v 2.476 h -2.476 z m 9.906,0 v -1.238 h 2.476 v 2.476 h -2.476 z m 9.905,-12.382 v -1.238 h -2.476 v -2.477 h 2.476 v 2.477 h 4.953 v -2.477 h 2.476 v 2.477 h -2.476 v 2.476 h -4.953 z"
       id="path3-6" /><g
       fill="#fee1af"
       stroke="#fee1af"
       stroke-linecap="square"
       id="g6"
       transform="translate(-65.997,-9.248579)"><path
         stroke-width="0.144"
         d="m 44.474,35.65 v -3.72 h -2.627 v 2.517 H 39.33 v 2.408 h -2.298 v -2.408 h -2.518 v -2.408 h 2.518 v -2.517 h 2.407 v -2.407 h 2.517 v -2.517 h 7.333 v 2.407 h -4.925 v 2.517 h 2.408 l -10e-4,1.286 c 0,0.708 0.009,2.074 0.021,3.037 0.012,0.963 0.013,2.601 10e-4,3.64 l -0.021,1.887 h -2.299 z"
         id="path4-7" /><path
         stroke-width="0.102"
         d="m 24.565,45.593 v -1.238 h -2.476 v -2.4 h 2.476 V 39.48 h 2.399 v 2.477 h 2.554 V 39.403 H 27.04 v -2.48 l -2.515,0.042 -0.042,2.438 h -2.396 v -2.477 h -2.476 v -2.399 h 2.476 V 32.05 h 2.477 V 29.574 H 27.04 V 27.02 h -2.476 v -3.676 l 0.01,-3.656 1.19,-0.02 h 1.199 v 2.476 h 2.476 v 7.43 h 2.554 v -2.477 h 2.399 v 4.876 H 29.44 v 2.553 h 2.477 v 2.477 h 2.476 v 2.476 h 9.906 v 2.4 h -2.477 v 2.476 H 36.87 v 2.476 h -2.4 v -2.476 h -2.553 v 2.476 h -2.4 v -2.476 h -2.553 v 2.476 h -2.4 z"
         id="path5-5" /><path
         stroke-width="0.036"
         d="m 19.617,40.67 v -1.218 h 2.462 v 2.435 h -2.462 z"
         id="path6-3" /></g><path
       fill="#dca059"
       stroke="#dca059"
       stroke-linecap="square"
       stroke-width="0.17"
       d="m -51.319,28.946421 v -3.695 h 2.462 v -2.463 h 4.87 v 2.408 h -2.462 v 2.572 h 2.462 v 2.408 h -2.462 v 2.462 h -4.87 z m 7.442,-7.415 v -1.204 h 2.353 v 2.407 h -2.354 z m 2.462,-2.463 v -1.204 h 2.408 v 2.408 h -2.408 z m -4.925,-3.749 v -2.435 h 2.408 v 4.87 h -2.408 z m 2.463,-3.693 v -1.205 h 1.176 l 1.208,0.003 v 2.408 l -1.208,-0.003 h -1.177 z m 4.924,0 v -1.205 h 4.925 v 2.408 h -4.925 z m 4.981,3.693 v -2.435 h 2.408 v 4.87 h -2.408 z m 7.442,1.232 v -1.204 h 2.407 v 2.408 h -2.407 z m -2.519,2.435 v -1.177 h 2.408 v 2.353 h -2.408 z m -2.46,2.517 v -1.177 h 2.462 v 2.353 h -2.462 z m -2.518,4.924 v -1.23 h -2.463 v -2.408 h 4.925 v 4.87 h -2.463 z m -7.388,2.545 v -1.204 h 2.408 v 2.408 h -2.408 z m -2.462,2.462 v -1.203 h 2.353 v 2.407 h -2.354 z m 4.924,0 v -1.203 h 2.408 v 2.407 h -2.408 z m -7.387,2.463 v -1.204 h 2.353 v 2.408 h -2.353 z m 2.463,2.462 v -1.204 h 2.353 v 2.408 h -2.354 z m 4.924,0 v -1.204 h 2.408 v 2.408 h -2.408 z m 4.926,0 v -1.204 h 2.407 v 2.408 h -2.408 z m 4.978,0 v -1.204 h 4.925 v 2.408 h -4.925 z m 4.925,-2.462 v -1.204 h 2.463 v 2.408 h -2.463 z m 0.057,-4.951 v -1.232 h 2.462 v 2.463 h -2.463 z m -7.442,0 v -1.232 h 2.407 v 2.463 h -2.407 z m 4.922,-2.463 v -1.176 h 2.463 v 2.353 h -2.462 z m 2.52,-2.49 v -1.204 h 2.462 v 2.408 h -2.463 z m 4.978,2.01 c 0,-0.91 -0.016,-2.006 -0.036,-2.435 l -0.035,-0.78 h 2.48 v 4.87 h -2.409 z m -0.054,-5.787 c 0,-0.034 -0.438,-0.054 -1.204,-0.054 h -1.204 v -2.299 h 4.87 v 2.408 h -1.23 c -0.785,0 -1.232,-0.02 -1.232,-0.055 z"
       id="path7-5" /><path
       fill="#ffffff"
       d="m -25.681,7.631421 -0.689,0.236 -0.31,0.658 -0.236,-0.689 -0.658,-0.31 0.688,-0.236 0.311,-0.658 0.236,0.688 z m -26.082,8.454 -1.183,-0.121 -0.912,0.764 0.122,-1.183 -0.764,-0.912 1.183,0.122 0.911,-0.764 -0.121,1.183 z m 33.456,20.566 0.66,-0.872 -0.164,-1.082 0.871,0.661 1.082,-0.165 -0.661,0.872 0.165,1.082 -0.872,-0.661 z"
       id="path8-6" /></g></svg>
