<?xml version="1.0" encoding="UTF-8" standalone="no"?>
<svg
   width="62"
   height="62"
   version="1"
   id="svg13"
   sodipodi:docname="statalogo_14.svg"
   inkscape:version="1.4 (unknown)"
   xmlns:inkscape="http://www.inkscape.org/namespaces/inkscape"
   xmlns:sodipodi="http://sodipodi.sourceforge.net/DTD/sodipodi-0.dtd"
   xmlns="http://www.w3.org/2000/svg"
   xmlns:svg="http://www.w3.org/2000/svg">
  <defs
     id="defs13" />
  <sodipodi:namedview
     id="namedview13"
     pagecolor="#ffffff"
     bordercolor="#000000"
     borderopacity="0.25"
     inkscape:showpageshadow="2"
     inkscape:pageopacity="0.0"
     inkscape:pagecheckerboard="0"
     inkscape:deskcolor="#d1d1d1"
     inkscape:zoom="7.0710678"
     inkscape:cx="30.617724"
     inkscape:cy="49.0025"
     inkscape:window-width="1920"
     inkscape:window-height="998"
     inkscape:window-x="0"
     inkscape:window-y="0"
     inkscape:window-maximized="1"
     inkscape:current-layer="svg13" />
  <rect
     width="55.997971"
     height="55.969017"
     x="3.0020294"
     y="3.0000002"
     rx="13.001064"
     ry="12.994343"
     id="rect1"
     style="fill:#557991;fill-opacity:1;stroke-width:0.99967" />
  <path
     d="m 3.0000281,45.004248 v 0.999411 C 3.0000281,53.202417 8.7996109,59 16.003093,59 H 45.996935 C 53.199417,59 59,53.203416 59,46.003659 V 45.004248 C 59,52.203006 53.200417,57.99859 45.996935,57.99859 H 16.003093 A 12.974067,12.967359 0 0 1 3.0000281,45.004248"
     opacity="0.35"
     id="path1"
     style="stroke-width:0.99967" />
  <path
     fill="#ffffff"
     d="m 3.0000281,17.026735 v -0.999411 c 0,-7.1987583 5.7995828,-12.9963419 13.0030649,-12.9963419 H 45.996935 C 53.199417,3.0309821 59,8.8275662 59,16.027324 v 0.999411 C 59,9.8279767 53.200417,4.032392 45.996935,4.032392 H 16.003093 A 12.974067,12.967359 0 0 0 3.0000281,17.026735"
     opacity="0.15"
     id="path2"
     style="stroke-width:0.99967" />
  <g
     id="g1"
     transform="translate(0.00101471,0.5)">
    <path
       style="fill:#ffffff"
       d="M 26,11 V 21 H 36 V 11 Z m 14,0 V 21 H 50 V 11 Z M 12,25 V 35 H 22 V 25 Z m 14,0 V 35 H 36 V 25 Z m 14,0 V 35 H 50 V 25 Z M 12,39 V 49 H 22 V 39 Z m 14,0 V 49 H 36 V 39 Z"
       id="path2-3" />
    <path
       style="opacity:0.2"
       d="m 26,21 v 1 h 10 v -1 z m 14,0 v 1 H 50 V 21 Z M 12,35 v 1 h 10 v -1 z m 14,0 v 1 h 10 v -1 z m 14,0 v 1 H 50 V 35 Z M 12,49 v 1 h 10 v -1 z m 14,0 v 1 h 10 v -1 z"
       id="path4" />
  </g>
  <path
     d="m 60.35,40 c 0.911,0 1.65,0.739 1.65,1.65 v 18.7 C 62,61.261 61.261,62 60.35,62 H 41.65 C 40.739,62 40,61.261 40,60.35 V 41.65 C 40,40.739 40.739,40 41.65,40 Z"
     fill="#ac4b55"
     id="path4-5"
     style="stroke-width:0.999925;fill:#00b3b3;fill-opacity:1" />
  <text
     xml:space="preserve"
     style="font-size:17.2964px;font-family:'Blush Asliring';-inkscape-font-specification:'Blush Asliring';text-align:start;writing-mode:lr-tb;direction:ltr;text-anchor:start;fill:#000000;fill-opacity:1;stroke:#000000;stroke-width:0.544026;stroke-linecap:round;stroke-linejoin:round;stroke-opacity:1;paint-order:fill markers stroke"
     x="43.198025"
     y="56.528145"
     id="text1"
     transform="scale(0.99647714,1.0035353)"><tspan
       sodipodi:role="line"
       id="tspan1"
       x="43.198025"
       y="56.528145"
       style="fill:#000000;fill-opacity:1;stroke:#000000;stroke-width:0.544026;stroke-opacity:1">14</tspan></text>
</svg>
