<?xml version="1.0" encoding="UTF-8" standalone="no"?>
<svg
   width="62"
   height="62"
   viewBox="0 0 16.404166 16.404167"
   version="1.1"
   id="svg1443"
   inkscape:version="1.4.1 (unknown)"
   sodipodi:docname="steamvr.svg"
   xmlns:inkscape="http://www.inkscape.org/namespaces/inkscape"
   xmlns:sodipodi="http://sodipodi.sourceforge.net/DTD/sodipodi-0.dtd"
   xmlns:xlink="http://www.w3.org/1999/xlink"
   xmlns="http://www.w3.org/2000/svg"
   xmlns:svg="http://www.w3.org/2000/svg"
   xmlns:rdf="http://www.w3.org/1999/02/22-rdf-syntax-ns#"
   xmlns:cc="http://creativecommons.org/ns#"
   xmlns:dc="http://purl.org/dc/elements/1.1/">
  <defs
     id="defs1437">
    <linearGradient
       id="linearGradient50"
       inkscape:collect="always">
      <stop
         style="stop-color:#27292c;stop-opacity:1;"
         offset="0"
         id="stop50" />
      <stop
         style="stop-color:#60656c;stop-opacity:1;"
         offset="0.42978129"
         id="stop52" />
      <stop
         style="stop-color:#27292c;stop-opacity:0;"
         offset="1"
         id="stop51" />
    </linearGradient>
    <linearGradient
       id="linearGradient49"
       inkscape:collect="always">
      <stop
         style="stop-color:#3c2e82;stop-opacity:1;"
         offset="0"
         id="stop48" />
      <stop
         style="stop-color:#6161b5;stop-opacity:0.75559378;"
         offset="1"
         id="stop49" />
    </linearGradient>
    <linearGradient
       id="linearGradient41"
       inkscape:collect="always">
      <stop
         style="stop-color:#2e2e2e;stop-opacity:1;"
         offset="0"
         id="stop44" />
      <stop
         style="stop-color:#696969;stop-opacity:1;"
         offset="0.53450269"
         id="stop46" />
      <stop
         style="stop-color:#363636;stop-opacity:1;"
         offset="1"
         id="stop45" />
    </linearGradient>
    <linearGradient
       id="linearGradient1"
       inkscape:collect="always">
      <stop
         style="stop-color:#3c2e82;stop-opacity:1;"
         offset="0"
         id="stop3" />
      <stop
         style="stop-color:#6161b5;stop-opacity:0;"
         offset="1"
         id="stop40" />
    </linearGradient>
    <linearGradient
       gradientTransform="matrix(0.4711726,0,0,0.47114666,-53.953909,-18.000765)"
       gradientUnits="userSpaceOnUse"
       y2="70.679932"
       x2="132.21078"
       y1="42.151531"
       x1="132.21078"
       id="linearGradient1632"
       xlink:href="#linearGradient1630"
       inkscape:collect="always" />
    <linearGradient
       id="linearGradient1630"
       inkscape:collect="always">
      <stop
         id="stop1626"
         offset="0"
         style="stop-color:#fafafc;stop-opacity:1" />
      <stop
         id="stop1628"
         offset="1"
         style="stop-color:#e2e6ea;stop-opacity:1" />
    </linearGradient>
    <filter
       color-interpolation-filters="sRGB"
       height="1.1311001"
       width="1.1106"
       y="-0.065563001"
       x="-0.055319"
       id="c-9">
      <feGaussianBlur
         id="feGaussianBlur1093"
         stdDeviation="1.1062912" />
    </filter>
    <linearGradient
       gradientUnits="userSpaceOnUse"
       gradientTransform="matrix(0.13235,0,0,0.13075,-32.379,1.0873)"
       y2="269.48999"
       y1="235.14999"
       x2="657.65002"
       x1="319.20999"
       id="a-12">
      <stop
         id="stop1076"
         offset="0"
         stop-color="#e54c18" />
      <stop
         id="stop1078"
         offset="1"
         stop-color="#fec350" />
    </linearGradient>
    <linearGradient
       xlink:href="#a-7"
       id="c-36"
       x1="8.6850004"
       x2="8.7620001"
       y1="16.868999"
       y2="4.5339999"
       gradientTransform="matrix(1.0634748,0,0,1.0634748,-0.80999368,1.8113865)"
       gradientUnits="userSpaceOnUse" />
    <linearGradient
       id="a-7">
      <stop
         offset="0"
         style="stop-color:#2369ff;stop-opacity:1;"
         id="stop8" />
      <stop
         offset="1"
         style="stop-color:#7fa8ff;stop-opacity:1"
         id="stop10" />
    </linearGradient>
    <linearGradient
       id="SVGID_1_"
       gradientUnits="userSpaceOnUse"
       x1="36.2281"
       y1="183.8333"
       x2="104.9374"
       y2="183.8333"
       gradientTransform="matrix(0.0615769,0,0,0.0615769,-0.90789966,16.028837)">
						<stop
   offset="0"
   style="stop-color:#3C2E82"
   id="stop1" />

						<stop
   offset="1"
   style="stop-color:#6161b5;stop-opacity:1"
   id="stop2" />

					</linearGradient>
    <linearGradient
       id="SVGID_00000170977584976496873390000000279198422182503560_"
       gradientUnits="userSpaceOnUse"
       x1="84.042603"
       y1="155.25369"
       x2="266.28329"
       y2="155.25369"
       gradientTransform="matrix(0.0615769,0,0,0.0615769,-0.90789966,16.028837)">
								<stop
   offset="0"
   style="stop-color:#393C41"
   id="stop4" />

								<stop
   offset="1"
   style="stop-color:#4E5259"
   id="stop5" />

							</linearGradient>
    <linearGradient
       id="SVGID_00000124859425419085003910000006061384879879221169_"
       gradientUnits="userSpaceOnUse"
       x1="183.3719"
       y1="196.0551"
       x2="138.1147"
       y2="76.898804"
       gradientTransform="matrix(0.0615769,0,0,0.0615769,-0.90789966,16.028837)">
								<stop
   offset="0"
   style="stop-color:#202020"
   id="stop6" />

								<stop
   offset="0.6117"
   style="stop-color:#393C41"
   id="stop7" />

								<stop
   offset="0.8527"
   style="stop-color:#2B2C2E"
   id="stop8-3" />

								<stop
   offset="1"
   style="stop-color:#202020"
   id="stop9" />

							</linearGradient>
    <linearGradient
       id="SVGID_00000123402024227704109720000012382128789114565546_"
       gradientUnits="userSpaceOnUse"
       x1="209.0175"
       y1="192.46581"
       x2="209.0175"
       y2="83.437798"
       gradientTransform="matrix(0.0615769,0,0,0.0615769,-0.90789966,16.028837)">
								<stop
   offset="0.0106"
   style="stop-color:#292C30"
   id="stop11" />

								<stop
   offset="0.4255"
   style="stop-color:#303337"
   id="stop12" />

								<stop
   offset="0.6995"
   style="stop-color:#373A3F"
   id="stop13" />

								<stop
   offset="0.7103"
   style="stop-color:#36393E"
   id="stop14" />

								<stop
   offset="0.8433"
   style="stop-color:#2C2F33"
   id="stop15" />

								<stop
   offset="1"
   style="stop-color:#292C30"
   id="stop16" />

							</linearGradient>
    <linearGradient
       id="SVGID_00000148644899493442929370000016461136895848046250_"
       gradientUnits="userSpaceOnUse"
       x1="158.1301"
       y1="133.4753"
       x2="278.1217"
       y2="133.4753"
       gradientTransform="matrix(0.0615769,0,0,0.0615769,-0.90789966,16.028837)">
								<stop
   offset="0"
   style="stop-color:#393C41"
   id="stop17" />

								<stop
   offset="1"
   style="stop-color:#53575E"
   id="stop18" />

							</linearGradient>
    <linearGradient
       id="SVGID_00000091014459719540199620000017593498663893321398_"
       gradientUnits="userSpaceOnUse"
       x1="166.731"
       y1="133.0945"
       x2="275.12021"
       y2="133.0945"
       gradientTransform="matrix(0.0615769,0,0,0.0615769,-0.90789966,16.028837)">
								<stop
   offset="0"
   style="stop-color:#3C2E82"
   id="stop19" />

								<stop
   offset="1"
   style="stop-color:#5A4AAB"
   id="stop20" />

							</linearGradient>
    <linearGradient
       id="SVGID_00000043427859608542092280000006833674528678609568_"
       gradientUnits="userSpaceOnUse"
       x1="219.9937"
       y1="139.97169"
       x2="262.93359"
       y2="139.97169">
								<stop
   offset="0"
   style="stop-color:#FFFFFF"
   id="stop21" />

								<stop
   offset="0.1101"
   style="stop-color:#FFFFFF;stop-opacity:0.9009"
   id="stop22" />

								<stop
   offset="1"
   style="stop-color:#FFFFFF;stop-opacity:0.1"
   id="stop23" />

							</linearGradient>
    <linearGradient
       id="SVGID_00000060017163514015225310000002221074319079309190_"
       gradientUnits="userSpaceOnUse"
       x1="200.8605"
       y1="130.6407"
       x2="221.90269"
       y2="130.6407">
								<stop
   offset="0"
   style="stop-color:#FFFFFF"
   id="stop24" />

								<stop
   offset="0.1101"
   style="stop-color:#FFFFFF;stop-opacity:0.9009"
   id="stop25" />

								<stop
   offset="1"
   style="stop-color:#FFFFFF;stop-opacity:0.1"
   id="stop26" />

							</linearGradient>
    <linearGradient
       id="SVGID_00000121986748796319732310000000103165603769664645_"
       gradientUnits="userSpaceOnUse"
       x1="169.41341"
       y1="133.0385"
       x2="275.11981"
       y2="133.0385"
       gradientTransform="matrix(0.0615769,0,0,0.0615769,-0.90789966,16.028837)">
								<stop
   offset="0"
   style="stop-color:#3C2E82"
   id="stop27" />

								<stop
   offset="1"
   style="stop-color:#5A4AAB"
   id="stop28" />

							</linearGradient>
    <linearGradient
       id="SVGID_00000064313609496374958120000014156713659361235089_"
       gradientUnits="userSpaceOnUse"
       x1="68.815201"
       y1="148.2709"
       x2="106.6326"
       y2="148.2709"
       gradientTransform="matrix(0.0615769,0,0,0.0615769,-0.90789966,16.028837)">
							<stop
   offset="0"
   style="stop-color:#393C41"
   id="stop29" />

							<stop
   offset="1"
   style="stop-color:#53575E"
   id="stop30" />

						</linearGradient>
    <linearGradient
       id="SVGID_00000007395635917708062340000007265053150823471799_"
       gradientUnits="userSpaceOnUse"
       x1="71.953201"
       y1="148.274"
       x2="106.6326"
       y2="148.274"
       gradientTransform="matrix(0.0615769,0,0,0.0615769,-0.90789966,16.028837)">
							<stop
   offset="0.0106"
   style="stop-color:#292C30"
   id="stop31" />

							<stop
   offset="0.4255"
   style="stop-color:#303337"
   id="stop32" />

							<stop
   offset="0.6995"
   style="stop-color:#373A3F"
   id="stop33" />

							<stop
   offset="0.7103"
   style="stop-color:#36393E"
   id="stop34" />

							<stop
   offset="0.8433"
   style="stop-color:#2C2F33"
   id="stop35" />

							<stop
   offset="1"
   style="stop-color:#292C30"
   id="stop36" />

						</linearGradient>
    <linearGradient
       id="SVGID_00000080928206078320168610000017893090216695977633_"
       gradientUnits="userSpaceOnUse"
       x1="79.314697"
       y1="21.936701"
       x2="86.585403"
       y2="21.936701"
       gradientTransform="matrix(0.0615769,-0.02138566,0,0.0615769,-0.90789966,25.610843)">
							<stop
   offset="0.0106"
   style="stop-color:#292C30"
   id="stop37" />

							<stop
   offset="0.6064"
   style="stop-color:#303337"
   id="stop38" />

							<stop
   offset="1"
   style="stop-color:#373A3F"
   id="stop39" />

						</linearGradient>
    <linearGradient
       id="SVGID_00000062183966709429000890000003530082214161427346_"
       gradientUnits="userSpaceOnUse"
       x1="259.49399"
       y1="171.771"
       x2="264.12949"
       y2="171.771"
       gradientTransform="matrix(0.06015448,-2.5862299e-4,0.00783874,0.06299933,-1.4304165,15.911607)">
					<stop
   offset="0"
   style="stop-color:#202020"
   id="stop41" />

					<stop
   offset="0.3795"
   style="stop-color:#2B2C2E"
   id="stop42" />

					<stop
   offset="1"
   style="stop-color:#393C41"
   id="stop43" />

				</linearGradient>
    <linearGradient
       inkscape:collect="always"
       xlink:href="#linearGradient1"
       id="linearGradient40"
       x1="1.3229167"
       y1="27.348765"
       x2="5.5537957"
       y2="27.348765"
       gradientUnits="userSpaceOnUse" />
    <linearGradient
       inkscape:collect="always"
       xlink:href="#linearGradient41"
       id="linearGradient45"
       x1="9.2620783"
       y1="28.797083"
       x2="6.8011117"
       y2="21.804455"
       gradientUnits="userSpaceOnUse" />
    <linearGradient
       inkscape:collect="always"
       xlink:href="#linearGradient49"
       id="linearGradient48"
       x1="9.3588781"
       y1="24.224386"
       x2="16.033167"
       y2="24.224386"
       gradientUnits="userSpaceOnUse" />
    <linearGradient
       inkscape:collect="always"
       xlink:href="#linearGradient50"
       id="linearGradient51"
       x1="11.629835"
       y1="27.73208"
       x2="11.711926"
       y2="21.166666"
       gradientUnits="userSpaceOnUse" />
  </defs>
  <sodipodi:namedview
     id="base"
     pagecolor="#ffffff"
     bordercolor="#666666"
     borderopacity="1.0"
     inkscape:pageopacity="0.0"
     inkscape:pageshadow="2"
     inkscape:zoom="7.919596"
     inkscape:cx="42.74208"
     inkscape:cy="36.491761"
     inkscape:document-units="px"
     inkscape:current-layer="layer1"
     inkscape:document-rotation="0"
     showgrid="false"
     units="px"
     inkscape:window-width="1920"
     inkscape:window-height="998"
     inkscape:window-x="0"
     inkscape:window-y="0"
     inkscape:window-maximized="1"
     inkscape:showpageshadow="2"
     inkscape:pagecheckerboard="0"
     inkscape:deskcolor="#d1d1d1">
    <inkscape:grid
       id="grid1"
       units="px"
       originx="0"
       originy="0"
       spacingx="0.26458332"
       spacingy="0.26458334"
       empcolor="#0099e5"
       empopacity="0.30196078"
       color="#0099e5"
       opacity="0.14901961"
       empspacing="5"
       enabled="true"
       visible="false" />
  </sodipodi:namedview>
  <metadata
     id="metadata1440">
    <rdf:RDF>
      <cc:Work
         rdf:about="">
        <dc:format>image/svg+xml</dc:format>
        <dc:type
           rdf:resource="http://purl.org/dc/dcmitype/StillImage" />
      </cc:Work>
    </rdf:RDF>
  </metadata>
  <g
     inkscape:label="Capa 1"
     inkscape:groupmode="layer"
     id="layer1">
    <g
       style="opacity:0.295"
       transform="matrix(0.47117252,0,0,0.47114656,-31.72741,-18.000762)"
       id="g1702">
      <rect
         ry="6.6098609"
         rx="6.6098609"
         y="40.709618"
         x="69.839508"
         height="29.810888"
         width="29.810888"
         id="rect1634"
         style="fill:none;fill-opacity:1;stroke:#000000;stroke-width:0.1;stroke-linecap:round;stroke-linejoin:round;stroke-miterlimit:4;stroke-dasharray:none;stroke-opacity:0.02" />
      <rect
         style="fill:none;fill-opacity:1;stroke:#000000;stroke-width:0.2;stroke-linecap:round;stroke-linejoin:round;stroke-miterlimit:4;stroke-dasharray:none;stroke-opacity:0.02"
         id="rect1638"
         width="29.810888"
         height="29.810888"
         x="69.839508"
         y="40.709618"
         rx="6.6098609"
         ry="6.6098609" />
      <rect
         ry="6.6098609"
         rx="6.6098609"
         y="40.709618"
         x="69.839508"
         height="29.810888"
         width="29.810888"
         id="rect1640"
         style="fill:none;fill-opacity:1;stroke:#000000;stroke-width:0.3;stroke-linecap:round;stroke-linejoin:round;stroke-miterlimit:4;stroke-dasharray:none;stroke-opacity:0.02" />
      <rect
         style="fill:none;fill-opacity:1;stroke:#000000;stroke-width:0.4;stroke-linecap:round;stroke-linejoin:round;stroke-miterlimit:4;stroke-dasharray:none;stroke-opacity:0.02"
         id="rect1642"
         width="29.810888"
         height="29.810888"
         x="69.839508"
         y="40.709618"
         rx="6.6098609"
         ry="6.6098609" />
      <rect
         ry="6.6098609"
         rx="6.6098609"
         y="40.709618"
         x="69.839508"
         height="29.810888"
         width="29.810888"
         id="rect1644"
         style="fill:none;fill-opacity:1;stroke:#000000;stroke-width:0.5;stroke-linecap:round;stroke-linejoin:round;stroke-miterlimit:4;stroke-dasharray:none;stroke-opacity:0.02" />
      <rect
         style="fill:none;fill-opacity:1;stroke:#000000;stroke-width:0.6;stroke-linecap:round;stroke-linejoin:round;stroke-miterlimit:4;stroke-dasharray:none;stroke-opacity:0.02"
         id="rect1646"
         width="29.810888"
         height="29.810888"
         x="69.839508"
         y="40.709618"
         rx="6.6098609"
         ry="6.6098609" />
      <rect
         ry="6.6098609"
         rx="6.6098609"
         y="40.709618"
         x="69.839508"
         height="29.810888"
         width="29.810888"
         id="rect1648"
         style="fill:none;fill-opacity:1;stroke:#000000;stroke-width:0.7;stroke-linecap:round;stroke-linejoin:round;stroke-miterlimit:4;stroke-dasharray:none;stroke-opacity:0.02" />
      <rect
         style="fill:none;fill-opacity:1;stroke:#000000;stroke-width:0.8;stroke-linecap:round;stroke-linejoin:round;stroke-miterlimit:4;stroke-dasharray:none;stroke-opacity:0.02"
         id="rect1650"
         width="29.810888"
         height="29.810888"
         x="69.839508"
         y="40.709618"
         rx="6.6098609"
         ry="6.6098609" />
      <rect
         ry="6.6098609"
         rx="6.6098609"
         y="40.709618"
         x="69.839508"
         height="29.810888"
         width="29.810888"
         id="rect1652"
         style="fill:none;fill-opacity:1;stroke:#000000;stroke-width:1;stroke-linecap:round;stroke-linejoin:round;stroke-miterlimit:4;stroke-dasharray:none;stroke-opacity:0.02" />
      <rect
         style="fill:none;fill-opacity:1;stroke:#000000;stroke-width:1.2;stroke-linecap:round;stroke-linejoin:round;stroke-miterlimit:4;stroke-dasharray:none;stroke-opacity:0.02"
         id="rect1654"
         width="29.810888"
         height="29.810888"
         x="69.839508"
         y="40.709618"
         rx="6.6098609"
         ry="6.6098609" />
      <rect
         ry="6.6098609"
         rx="6.6098609"
         y="40.709618"
         x="69.839508"
         height="29.810888"
         width="29.810888"
         id="rect1656"
         style="fill:none;fill-opacity:1;stroke:#000000;stroke-width:1.4;stroke-linecap:round;stroke-linejoin:round;stroke-miterlimit:4;stroke-dasharray:none;stroke-opacity:0.02" />
      <rect
         style="fill:none;fill-opacity:1;stroke:#000000;stroke-width:1.6;stroke-linecap:round;stroke-linejoin:round;stroke-miterlimit:4;stroke-dasharray:none;stroke-opacity:0.02"
         id="rect1658"
         width="29.810888"
         height="29.810888"
         x="69.839508"
         y="40.709618"
         rx="6.6098609"
         ry="6.6098609" />
      <rect
         ry="6.6098609"
         rx="6.6098609"
         y="40.709618"
         x="69.839508"
         height="29.810888"
         width="29.810888"
         id="rect1660"
         style="fill:none;fill-opacity:1;stroke:#000000;stroke-width:1.8;stroke-linecap:round;stroke-linejoin:round;stroke-miterlimit:4;stroke-dasharray:none;stroke-opacity:0.02" />
      <rect
         style="fill:none;fill-opacity:1;stroke:#000000;stroke-width:2;stroke-linecap:round;stroke-linejoin:round;stroke-miterlimit:4;stroke-dasharray:none;stroke-opacity:0.02"
         id="rect1662"
         width="29.810888"
         height="29.810888"
         x="69.839508"
         y="40.709618"
         rx="6.6098609"
         ry="6.6098609" />
      <rect
         ry="6.6098609"
         rx="6.6098609"
         y="40.709618"
         x="69.839508"
         height="29.810888"
         width="29.810888"
         id="rect1664"
         style="fill:none;fill-opacity:1;stroke:#000000;stroke-width:2.2;stroke-linecap:round;stroke-linejoin:round;stroke-miterlimit:4;stroke-dasharray:none;stroke-opacity:0.02" />
      <rect
         style="fill:none;fill-opacity:1;stroke:#000000;stroke-width:2.6;stroke-linecap:round;stroke-linejoin:round;stroke-miterlimit:4;stroke-dasharray:none;stroke-opacity:0.02"
         id="rect1666"
         width="29.810888"
         height="29.810888"
         x="69.839508"
         y="40.709618"
         rx="6.6098609"
         ry="6.6098609" />
      <rect
         ry="6.6098609"
         rx="6.6098609"
         y="40.709618"
         x="69.839508"
         height="29.810888"
         width="29.810888"
         id="rect1668"
         style="fill:none;fill-opacity:1;stroke:#000000;stroke-width:3;stroke-linecap:round;stroke-linejoin:round;stroke-miterlimit:4;stroke-dasharray:none;stroke-opacity:0.02" />
      <rect
         style="fill:none;fill-opacity:1;stroke:#000000;stroke-width:3.4;stroke-linecap:round;stroke-linejoin:round;stroke-miterlimit:4;stroke-dasharray:none;stroke-opacity:0.02"
         id="rect1670"
         width="29.810888"
         height="29.810888"
         x="69.839508"
         y="40.709618"
         rx="6.6098609"
         ry="6.6098609" />
      <rect
         ry="6.6098609"
         rx="6.6098609"
         y="40.709618"
         x="69.839508"
         height="29.810888"
         width="29.810888"
         id="rect1672"
         style="fill:none;fill-opacity:1;stroke:#000000;stroke-width:3.8;stroke-linecap:round;stroke-linejoin:round;stroke-miterlimit:4;stroke-dasharray:none;stroke-opacity:0.02" />
      <rect
         style="fill:none;fill-opacity:1;stroke:#000000;stroke-width:4.2;stroke-linecap:round;stroke-linejoin:round;stroke-miterlimit:4;stroke-dasharray:none;stroke-opacity:0.02"
         id="rect1674"
         width="29.810888"
         height="29.810888"
         x="69.839508"
         y="40.709618"
         rx="6.6098609"
         ry="6.6098609" />
      <rect
         ry="6.6098609"
         rx="6.6098609"
         y="40.709618"
         x="69.839508"
         height="29.810888"
         width="29.810888"
         id="rect1676"
         style="fill:none;fill-opacity:1;stroke:#000000;stroke-width:4.6;stroke-linecap:round;stroke-linejoin:round;stroke-miterlimit:4;stroke-dasharray:none;stroke-opacity:0.02" />
      <rect
         style="fill:none;fill-opacity:1;stroke:#000000;stroke-width:5;stroke-linecap:round;stroke-linejoin:round;stroke-miterlimit:4;stroke-dasharray:none;stroke-opacity:0.02"
         id="rect1678"
         width="29.810888"
         height="29.810888"
         x="69.839508"
         y="40.709618"
         rx="6.6098609"
         ry="6.6098609" />
    </g>
    <rect
       ry="3.1142132"
       rx="3.1143851"
       y="1.1794344"
       x="1.1790471"
       height="14.045296"
       width="14.04607"
       id="rect849"
       style="fill:url(#linearGradient1632);fill-opacity:1;stroke-width:1.29783;stroke-linecap:round;stroke-linejoin:round" />
    <g
       id="g1"
       transform="matrix(0.8526319,0,0,0.85714291,0.72412124,-14.703274)">
      <path
         d="m 11.985072,29.071688 c 0,0 -2.0752033,0.49249 -2.8978091,1.296376 C 8.264657,31.17195 7.0864446,32.357061 5.3294708,32.256321 3.8077825,32.169067 3.0506329,31.35582 2.675445,30.876998 2.3798141,30.499655 1.8998224,29.524953 1.9455739,29.524461 c 0,0 0.9113999,1.710606 2.1383196,1.934993 1.2268581,0.224325 2.4981746,0.123831 3.6760176,-1.296995 1.177843,-1.420826 2.8978089,-2.28087 3.8699239,-2.430378 0.972176,-0.149571 0.990834,0.44871 1.009553,0.504746 0.01872,0.05604 -0.654316,0.834861 -0.654316,0.834861 z"
         id="path1"
         style="fill:#7137c8;fill-opacity:1" />
      <path
         d="m 5.5537957,25.245483 c 0,0 -0.8368919,0.565583 -1.7356682,1.159739 -0.7948962,0.525497 -1.6477978,1.048962 -1.8725536,1.578031 -0.3665056,0.862817 0.3738949,2.478286 0.7852288,2.964373 -1.2525975,-1.79478 -1.4956414,-2.953904 -1.3834483,-3.75779 0.1121931,-0.803889 0.8226057,-0.990835 1.589115,-1.626494 0.7665093,-0.635658 2.411721,-1.813439 2.411721,-1.813439 z"
         id="path2"
         style="fill:url(#linearGradient40);fill-opacity:1" />
      <path
         style="fill:#6161b5;stroke-width:0.061577"
         d="m 5.5740543,32.279165 c -1.1065983,0 -2.2300689,-0.495077 -2.8653578,-1.314421 -0.6328259,-0.816078 -0.8881853,-1.509617 -0.9106609,-2.47342 -0.018288,-0.785352 0.8631235,-1.356354 1.4464413,-1.73419 0.088055,-0.05708 0.1713072,-0.110961 0.2408275,-0.158991 0.5101029,-0.352406 2.0376412,-1.365838 2.0530354,-1.375998 l 0.030973,0.0468 c -0.015394,0.01016 -1.5425015,1.023285 -2.0521118,1.375382 -0.070198,0.04852 -0.1537575,0.102648 -0.2421821,0.159914 -0.5728499,0.371002 -1.4384977,0.931781 -1.4208868,1.685854 0.022106,0.950561 0.274202,1.634741 0.8988996,2.440353 0.7718047,0.995391 2.276929,1.504262 3.5790341,1.209987 C 7.3253013,31.915864 7.9991373,31.306375 8.6508672,30.7169 8.8648471,30.523361 9.086093,30.323238 9.3145432,30.140845 10.229761,29.409868 12.16346,29.0417 12.182857,29.038065 l 0.01028,0.05511 c -0.01928,0.0036 -1.939365,0.369277 -2.8436215,1.091512 C 9.12242,30.365969 8.90179,30.565539 8.6884877,30.75846 8.0314005,31.352802 7.3519611,31.967278 6.3444397,32.19505 6.0929596,32.25189 5.8338442,32.27916 5.5740511,32.27916 Z"
         id="path3" />
      <path
         d="m 9.0951446,21.745698 c 0,0 -2.2192313,-0.418661 -3.439932,0.616939 -1.113618,0.944713 -1.5622675,2.001065 -1.3273516,3.402556 0.2011103,1.199763 1.2525973,2.355622 2.953844,2.355622 1.7012465,0 3.477371,-0.729131 4.206503,-0.56084 0.729132,0.168227 -0.01872,0.803886 0.130851,1.533017 0.14957,0.729134 1.06565,0.317799 1.308693,0.205666 0.243045,-0.112191 2.561292,-1.495639 2.561292,-1.495639 z"
         id="path5-6"
         style="fill:#4e5259;fill-opacity:1" />
      <path
         d="m 9.0951446,21.745698 c 0,0 -2.2192313,-0.418661 -3.439932,0.616939 -1.113618,0.944713 -1.5622675,2.001065 -1.3273516,3.402556 0.2011103,1.199763 1.2607256,2.115042 2.961972,2.115042 1.7013084,0 3.743753,-0.767247 4.472885,-0.598959 0.729132,0.168291 -0.07944,1.050502 0.07014,1.779572 0.14957,0.729133 0.851855,0.349943 1.094898,0.237749 0.243045,-0.112194 2.561292,-1.495642 2.561292,-1.495642 z"
         id="path9"
         style="fill:url(#linearGradient45)" />
      <path
         style="fill:#393c41;stroke-width:0.061577"
         d="m 10.850702,21.448343 c 0,0 2.953906,0.990834 3.888643,1.402168 0.934737,0.411272 1.514299,1.738685 1.476922,3.17823 -0.03738,1.439545 -0.429991,1.96301 -1.271317,1.832158 -0.841263,-0.13085 -4.09431,-1.065649 -5.4777576,-1.458264 -1.3834482,-0.392613 -1.7947819,-2.056483 -1.7573431,-2.860431 0.037377,-0.803886 0.2243246,-1.716641 0.7571494,-2.093922 0.532825,-0.377159 1.5423783,-0.373834 2.3837033,6.1e-5 z"
         id="path10" />
      <path
         style="fill:#1d1e21;stroke-width:0.061577"
         d="m 9.0951446,21.745698 c 0,0 -0.4322699,-0.08147 -1.0200214,-0.08356 -0.3809145,0.453514 -0.5256818,1.229568 -0.558564,1.925818 -0.03867,0.819342 0.3868878,2.515231 1.8183043,2.915358 1.4314165,0.400127 4.7972715,1.352907 5.6677225,1.486281 0.05031,0.0077 0.09883,0.01294 0.146061,0.01614 0.206467,-0.122785 0.340335,-0.202649 0.340335,-0.202649 z"
         id="path11" />
      <path
         d="m 10.850702,21.448343 c 0,0 2.953906,0.990834 3.888643,1.402168 0.934737,0.411272 1.514299,1.738685 1.476922,3.17823 -0.03738,1.439545 -0.429991,1.96301 -1.271317,1.832158 -0.841263,-0.13085 -4.09431,-1.065649 -5.4777576,-1.458264 -1.3834482,-0.392613 -1.7947819,-2.056483 -1.7573431,-2.860431 0.037377,-0.803886 0.2243246,-1.716641 0.7571494,-2.093922 0.532825,-0.377159 1.5423783,-0.373834 2.3837033,6.1e-5 z"
         id="path16"
         style="fill:url(#linearGradient51);fill-opacity:1" />
      <path
         d="m 14.739345,22.850511 c -0.934737,-0.411272 -3.888643,-1.402168 -3.888643,-1.402168 -0.249694,-0.110961 -0.514228,-0.188487 -0.776731,-0.233931 -0.7415089,-0.01145 -1.2082003,0.986401 -1.2425601,1.781605 -0.034422,0.796189 0.343907,2.44411 1.6164551,2.832969 1.272548,0.388858 4.264755,1.314667 5.038591,1.444287 0.308439,0.05166 0.519956,-0.148709 0.665277,-0.498097 0.03571,-0.214657 0.05714,-0.462441 0.06453,-0.746435 0.03738,-1.439545 -0.542185,-2.766896 -1.476922,-3.17823 z"
         id="path18"
         style="fill:#6c717a;fill-opacity:1" />
      <path
         d="m 15.533564,25.706571 -5.81717,-1.73727 C 9.5032149,23.904338 9.3590633,23.707661 9.35894,23.481428 l -6.14e-5,-0.153942 C 9.358694,22.965167 9.5495821,22.630435 9.8882551,22.742874 l 5.7962949,1.941397 c 0.186578,0.06195 0.319215,0.226357 0.34206,0.42408 v 0 c 0.04372,0.378883 -0.13239,0.708073 -0.493046,0.59822 z"
         id="path20"
         style="fill:url(#linearGradient48)" />
      <polygon
         style="opacity:0.61;fill:url(#SVGID_00000043427859608542092280000006833674528678609568_)"
         points="262.934,155.948 250.649,134.263 219.994,123.995 231.975,146.703 "
         id="polygon23"
         transform="matrix(0.0615769,0,0,0.0615769,-0.90789966,16.028837)" />
      <polygon
         style="opacity:0.61;fill:url(#SVGID_00000060017163514015225310000002221074319079309190_)"
         points="211.579,140.611 221.903,143.695 210.943,120.964 200.861,117.587 "
         id="polygon26"
         transform="matrix(0.0615769,0,0,0.0615769,-0.90789966,16.028837)" />
      <path
         style="opacity:0.5;fill:url(#SVGID_00000121986748796319732310000000103165603769664645_);stroke-width:0.061577"
         d="m 16.02661,25.108351 c -0.02284,-0.197723 -0.15542,-0.362134 -0.34206,-0.42408 L 9.8882551,22.742874 c -0.1530186,-0.0508 -0.275495,-0.0098 -0.3641656,0.08331 0.057389,-0.01164 0.1211831,-0.0086 0.1918118,0.01484 l 5.7962957,1.941397 c 0.186578,0.06195 0.319214,0.226357 0.342059,0.42408 0.02402,0.208253 -0.01872,0.400927 -0.121614,0.514537 0.224448,-0.0436 0.328636,-0.31201 0.293968,-0.612691 z"
         id="path28" />
      <path
         style="fill:url(#SVGID_00000064313609496374958120000014156713659361235089_);stroke-width:0.061577"
         d="m 3.4010055,25.005148 1.7984766,-1.27772 c 0.1546812,-0.109915 0.3698925,-0.0073 0.3819615,0.182082 l 0.075986,1.195023 c 0.00948,0.148955 -0.061269,0.291629 -0.1855314,0.374265 l -1.6959509,1.128151 c -0.1042498,0.06933 -0.2450761,0.0058 -0.2621944,-0.118105 L 3.3311775,25.166849 c -0.00868,-0.06281 0.018227,-0.125063 0.069828,-0.161701 z"
         id="path30" />
      <path
         style="fill:url(#SVGID_00000007395635917708062340000007265053150823471799_);stroke-width:0.061577"
         d="m 5.581382,23.909449 c -0.00936,-0.146984 -0.1411343,-0.241197 -0.2719851,-0.224756 0.025493,0.0351 0.04218,0.0779 0.04532,0.126602 l 0.075986,1.195023 c 0.00948,0.148955 -0.061269,0.291628 -0.1855311,0.374265 l -1.6959511,1.128089 c -0.0085,0.0057 -0.01755,0.0091 -0.026478,0.01304 0.035407,0.101293 0.1588066,0.147907 0.2531425,0.0851 l 1.6959511,-1.12815 c 0.1242621,-0.08264 0.1949524,-0.22531 0.1855311,-0.374265 z"
         id="path36" />
      <path
         style="fill:#1d1e21;stroke-width:0.061577"
         d="m 4.4938725,25.109952 c 0,0.195384 -0.1002472,0.388612 -0.2238322,0.431531 -0.1236464,0.04292 -0.2238319,-0.08067 -0.2238319,-0.276049 0,-0.195384 0.1002471,-0.388612 0.2238319,-0.431531 0.123585,-0.04292 0.2238322,0.08067 0.2238322,0.276049 z"
         id="path37" />
      <path
         d="m 4.4237362,25.109952 c 0,0.195384 -0.1002472,0.388612 -0.2238319,0.431531 -0.1236464,0.04292 -0.223832,-0.08067 -0.223832,-0.276049 0,-0.195384 0.1002472,-0.388612 0.223832,-0.431531 0.1236464,-0.04292 0.2238319,0.08067 0.2238319,0.276049 z"
         id="path39"
         style="fill:#4e5259;fill-opacity:1" />
      <path
         style="fill:#1d1e21;stroke-width:0.061577"
         d="m 15.793849,26.682133 c 0.01675,0.134855 -0.04815,0.244461 -0.145075,0.244893 -0.09692,5.29e-4 -0.189041,-0.108562 -0.20579,-0.243354 -0.01675,-0.134852 0.04815,-0.244459 0.145075,-0.24489 0.09686,-5.29e-4 0.18898,0.108498 0.20579,0.243351 z"
         id="path41" />
      <path
         d="m 15.804625,26.664707 c 0.0133,0.114041 -0.0383,0.206775 -0.115272,0.207145 -0.07697,2.65e-4 -0.150186,-0.09181 -0.163548,-0.205851 -0.0133,-0.114041 0.0383,-0.206775 0.115272,-0.207145 0.07697,-2.65e-4 0.150186,0.09181 0.163548,0.205851 z"
         id="path43"
         style="fill:#1f2124;fill-opacity:1" />
    </g>
  </g>
</svg>
