<?xml version="1.0" encoding="UTF-8" standalone="no"?>
<svg
   width="62"
   height="62"
   version="1.1"
   id="svg6"
   sodipodi:docname="steamdeck-gaming-return.svg"
   inkscape:version="1.4 (unknown)"
   xmlns:inkscape="http://www.inkscape.org/namespaces/inkscape"
   xmlns:sodipodi="http://sodipodi.sourceforge.net/DTD/sodipodi-0.dtd"
   xmlns="http://www.w3.org/2000/svg"
   xmlns:svg="http://www.w3.org/2000/svg">
  <defs
     id="defs6" />
  <sodipodi:namedview
     id="namedview6"
     pagecolor="#ffffff"
     bordercolor="#000000"
     borderopacity="0.25"
     inkscape:showpageshadow="2"
     inkscape:pageopacity="0.0"
     inkscape:pagecheckerboard="0"
     inkscape:deskcolor="#d1d1d1"
     inkscape:zoom="7.0710678"
     inkscape:cx="29.627774"
     inkscape:cy="42.072854"
     inkscape:window-width="1920"
     inkscape:window-height="998"
     inkscape:window-x="0"
     inkscape:window-y="0"
     inkscape:window-maximized="1"
     inkscape:current-layer="svg6" />
  <g
     id="g6"
     transform="translate(0.5,-1)">
    <ellipse
       style="opacity:0.2;stroke-width:0.979321"
       cx="24.66666"
       cy="32.491234"
       id="circle1"
       rx="13.666655"
       ry="13.754387" />
    <path
       style="opacity:0.2;stroke-width:0.979321"
       d="m 24.666659,4.982456 v 9.628074 a 17.76665,17.8807 0 0 1 17.766649,17.8807 17.76665,17.8807 0 0 1 -17.766649,17.8807 V 60 c 15.095816,0 27.333307,-12.316048 27.333307,-27.50877 0,-15.192722 -12.237491,-27.508774 -27.333307,-27.508774 z"
       id="path1" />
    <path
       style="fill:#e5e5e5;stroke-width:0.979321;fill-opacity:1"
       d="m 24.666659,4 v 9.62807 a 17.76665,17.8807 0 0 1 17.766649,17.8807 17.76665,17.8807 0 0 1 -17.766649,17.8807 v 9.62807 c 15.095816,0 27.333307,-12.316048 27.333307,-27.50877 C 51.999966,16.316048 39.762475,4 24.666659,4 Z"
       id="path2" />
    <ellipse
       style="fill:#6c80f9;stroke-width:0.979321;fill-opacity:1"
       cx="24.66666"
       cy="31.508774"
       id="circle2"
       rx="13.666655"
       ry="13.754387" />
    <path
       style="opacity:0.2;fill:#ffffff;stroke-width:0.979321"
       d="M 24.666659,4 V 4.982456 C 39.598826,4.982456 51.725256,17.034768 51.986621,32 51.989516,31.835992 52,31.673469 52,31.50877 51.999966,16.316048 39.762475,4 24.666659,4 Z M 42.413474,31.752467 A 17.76665,17.8807 0 0 1 24.666659,49.388709 v 0.98245 a 17.76665,17.8807 0 0 0 17.765882,-17.879929 17.76665,17.8807 0 0 0 -0.0191,-0.738763 z"
       id="path3" />
    <path
       style="opacity:0.1;fill:#ffffff;stroke-width:0.979321"
       d="M 24.666659,17.75439 A 13.666659,13.75439 0 0 0 11,31.50877 13.666659,13.75439 0 0 0 11.034315,32 13.666659,13.75439 0 0 1 24.666659,18.73684 13.666659,13.75439 0 0 1 38.314239,31.783167 13.666659,13.75439 0 0 0 38.333306,31.50877 13.666659,13.75439 0 0 0 24.666659,17.75439 Z"
       id="path4" />
    <path
       style="opacity:0.2;fill:none;stroke:#000000;stroke-width:2.93798;stroke-linecap:round;stroke-linejoin:round"
       d="M 16.369045,32 H 32.964264 M 22.226185,26.10526 16.369045,32 l 5.85714,5.89474"
       id="path5" />
    <path
       style="fill:none;stroke:#f2f2f2;stroke-width:2.93798;stroke-linecap:round;stroke-linejoin:round;stroke-opacity:1"
       d="m 16.369045,31.01754 h 16.595219 m -10.738079,-5.89473 -5.85714,5.89473 5.85714,5.89474"
       id="path6" />
  </g>
</svg>
