<?xml version="1.0" encoding="UTF-8" standalone="no"?>
<svg
   width="62"
   height="62"
   version="1.1"
   id="svg8"
   sodipodi:docname="stoken-gui.svg"
   inkscape:version="1.4 (unknown)"
   xmlns:inkscape="http://www.inkscape.org/namespaces/inkscape"
   xmlns:sodipodi="http://sodipodi.sourceforge.net/DTD/sodipodi-0.dtd"
   xmlns="http://www.w3.org/2000/svg"
   xmlns:svg="http://www.w3.org/2000/svg">
  <defs
     id="defs8" />
  <sodipodi:namedview
     id="namedview8"
     pagecolor="#ffffff"
     bordercolor="#000000"
     borderopacity="0.25"
     inkscape:showpageshadow="2"
     inkscape:pageopacity="0.0"
     inkscape:pagecheckerboard="0"
     inkscape:deskcolor="#d1d1d1"
     inkscape:zoom="7.0710678"
     inkscape:cx="27.294322"
     inkscape:cy="44.618438"
     inkscape:window-width="1920"
     inkscape:window-height="998"
     inkscape:window-x="0"
     inkscape:window-y="0"
     inkscape:window-maximized="1"
     inkscape:current-layer="svg8" />
  <g
     id="g8"
     transform="matrix(0.60949757,-0.61281341,0.60731088,0.61501992,-6.9677445,30.938591)">
    <path
       style="opacity:0.2;stroke-width:0.982304"
       d="m 27.083587,10.381826 c -9.221191,0 -16.696449,7.477629 -16.696449,16.701757 0,9.224123 7.475258,16.701753 16.696449,16.701753 0.965958,0 1.906453,-0.0996 2.827498,-0.257128 l 13.151527,13.155703 a 9.625012,9.6280702 0 0 0 13.6119,0 9.625012,9.6280702 0 0 0 0,-13.616232 L 43.522994,29.911982 c 0.157466,-0.921346 0.257045,-1.86214 0.257045,-2.828399 0,-9.224128 -7.475261,-16.701757 -16.696452,-16.701757 z"
       id="path2" />
    <path
       style="fill:#c83771;stroke:#c83771;stroke-width:19.2529;stroke-linecap:round;stroke-linejoin:round;stroke-opacity:1"
       d="M 26.00003,26.00702 49.375054,49.389471"
       id="path3" />
    <path
       style="fill:#acbdd2;stroke-width:0.982304;fill-opacity:1"
       d="M 9.8928646,4 A 5.8928646,5.8947369 0 1 0 15.785725,9.8947369 5.8928646,5.8947369 0 0 0 9.8928646,4 Z m -0.071934,2.9473681 a 2.9464319,2.9473681 0 0 1 0.071936,0 2.9464319,2.9473681 0 1 1 -2.9464332,2.9473688 2.9464319,2.9473681 0 0 1 2.8744972,-2.9473688 z"
       id="path4" />
    <path
       style="opacity:0.2;fill:none;stroke:#000000;stroke-width:7.85836;stroke-linecap:round;stroke-linejoin:round"
       d="M 25.607172,26.59649 49.178626,50.175439"
       id="path5" />
    <path
       style="fill:none;stroke:#f2f2f2;stroke-width:7.85836;stroke-linecap:round;stroke-linejoin:round;stroke-opacity:1"
       d="M 25.607172,25.614037 49.178626,49.192981"
       id="path6" />
    <ellipse
       style="fill:#2d3d53;stroke-width:0.982304;fill-opacity:1"
       cx="14.803582"
       cy="14.807014"
       id="circle6"
       rx="2.9464328"
       ry="2.9473691" />
    <ellipse
       style="fill:#c83771;stroke-width:0.982304;fill-opacity:1"
       cx="26.596495"
       cy="-26.589317"
       id="circle7"
       rx="16.696444"
       ry="16.701748"
       transform="rotate(90)" />
  </g>
  <ellipse
     style="fill:#f2f2f2;fill-opacity:1;stroke-width:0.728989"
     cx="39.866158"
     cy="3.7161331"
     id="circle7-6"
     rx="12.390977"
     ry="12.394513"
     transform="matrix(0.7026332,0.71155224,-0.70518597,0.70902239,0,0)" />
</svg>
