<?xml version="1.0" encoding="UTF-8" standalone="no"?>
<svg
   width="62"
   height="62"
   version="1"
   id="svg7"
   sodipodi:docname="streamtuner.svg"
   inkscape:version="1.4 (unknown)"
   xmlns:inkscape="http://www.inkscape.org/namespaces/inkscape"
   xmlns:sodipodi="http://sodipodi.sourceforge.net/DTD/sodipodi-0.dtd"
   xmlns:xlink="http://www.w3.org/1999/xlink"
   xmlns="http://www.w3.org/2000/svg"
   xmlns:svg="http://www.w3.org/2000/svg">
  <defs
     id="defs7">
    <linearGradient
       id="linearGradient7"
       inkscape:collect="always">
      <stop
         style="stop-color:#384850;stop-opacity:1;"
         offset="0"
         id="stop8" />
      <stop
         style="stop-color:#384850;stop-opacity:1;"
         offset="0.59162253"
         id="stop10" />
      <stop
         style="stop-color:#eff2f6;stop-opacity:1;"
         offset="0.92173076"
         id="stop11" />
      <stop
         style="stop-color:#eff2f6;stop-opacity:1;"
         offset="1"
         id="stop9" />
    </linearGradient>
    <linearGradient
       id="linearGradient1"
       inkscape:collect="always">
      <stop
         style="stop-color:#566c80;stop-opacity:1;"
         offset="0"
         id="stop5" />
      <stop
         style="stop-color:#566c80;stop-opacity:1;"
         offset="0.28848785"
         id="stop7" />
      <stop
         style="stop-color:#3771c8;stop-opacity:1"
         offset="1"
         id="stop6" />
    </linearGradient>
    <linearGradient
       id="c-3"
       gradientUnits="userSpaceOnUse"
       x1="24.072048"
       x2="23.959682"
       y1="0.75082099"
       y2="46.056854">
      <stop
         offset="0"
         stop-color="#fff"
         id="stop3" />
      <stop
         offset="1"
         stop-color="#d9d9d9"
         id="stop4" />
    </linearGradient>
    <linearGradient
       id="b-6"
       gradientUnits="userSpaceOnUse"
       x1="29.203026"
       x2="34.121048"
       xlink:href="#a-7"
       y1="24.827356"
       y2="29.224836" />
    <linearGradient
       id="a-7">
      <stop
         offset="0"
         id="stop1" />
      <stop
         offset="1"
         stop-opacity="0"
         id="stop2" />
    </linearGradient>
    <linearGradient
       id="d"
       gradientUnits="userSpaceOnUse"
       x1="15.948756"
       x2="25.031786"
       xlink:href="#a-7"
       y1="23.618279"
       y2="33.69899" />
    <linearGradient
       id="e"
       gradientUnits="userSpaceOnUse"
       x1="21.990562"
       x2="29.320522"
       xlink:href="#a-7"
       y1="33.780373"
       y2="41.931858" />
    <linearGradient
       id="paint154_linear_890_11"
       x1="778"
       y1="812.29199"
       x2="788"
       y2="812.29199"
       gradientUnits="userSpaceOnUse"
       gradientTransform="translate(-751,-696)">
      <stop
         stop-color="#EFF2F6"
         id="stop1050" />
      <stop
         offset="0.600785"
         stop-color="#B7C6CD"
         id="stop1051" />
    </linearGradient>
    <linearGradient
       id="paint155_linear_890_11"
       x1="783"
       y1="813"
       x2="783"
       y2="817"
       gradientUnits="userSpaceOnUse"
       gradientTransform="translate(-751,-696)">
      <stop
         stop-color="#EFF2F6"
         id="stop1052" />
      <stop
         offset="0.734138"
         stop-color="#B7C6CD"
         id="stop1053" />
    </linearGradient>
    <radialGradient
       id="paint156_radial_890_11"
       cx="0"
       cy="0"
       r="1"
       gradientUnits="userSpaceOnUse"
       gradientTransform="matrix(27.999986,27.999976,-27.999986,27.999976,32.302392,33.999998)">
      <stop
         offset="0.60067803"
         stop-color="#B7C6CD"
         id="stop1054"
         style="stop-color:#384850;stop-opacity:1;" />
      <stop
         offset="0.876735"
         stop-color="#EFF2F6"
         id="stop1055" />
    </radialGradient>
    <linearGradient
       id="paint157_linear_890_11"
       x1="796.84485"
       y1="799.43359"
       x2="768.90088"
       y2="770.81476"
       gradientUnits="userSpaceOnUse"
       gradientTransform="matrix(1.1666666,0,0,1.1666668,-881.19764,-881.8333)">
      <stop
         offset="0.00000057"
         stop-color="#2E2E41"
         id="stop1056"
         style="stop-color:#495361;stop-opacity:1;" />
      <stop
         offset="0.711139"
         stop-color="#566C80"
         id="stop1057" />
    </linearGradient>
    <linearGradient
       id="paint158_linear_890_11"
       x1="792"
       y1="794"
       x2="774"
       y2="776"
       gradientUnits="userSpaceOnUse"
       gradientTransform="translate(-751,-696)">
      <stop
         offset="0.304478"
         stop-color="#2E2E41"
         id="stop1058" />
      <stop
         offset="1"
         stop-color="#566C80"
         id="stop1059" />
    </linearGradient>
    <linearGradient
       id="paint159_linear_890_11"
       x1="788"
       y1="790"
       x2="778"
       y2="780"
       gradientUnits="userSpaceOnUse"
       gradientTransform="translate(-751,-696)">
      <stop
         offset="0.391394"
         stop-color="#5200FF"
         id="stop1060" />
      <stop
         offset="1"
         stop-color="#0085FF"
         id="stop1061" />
    </linearGradient>
    <linearGradient
       id="paint160_linear_890_11"
       x1="784"
       y1="798"
       x2="782"
       y2="796"
       gradientUnits="userSpaceOnUse"
       gradientTransform="translate(-751,-696)">
      <stop
         stop-color="#FF7E07"
         id="stop1062" />
      <stop
         offset="1"
         stop-color="#FFE607"
         id="stop1063" />
    </linearGradient>
    <linearGradient
       inkscape:collect="always"
       xlink:href="#linearGradient1"
       id="linearGradient6"
       x1="17.408081"
       y1="16.037786"
       x2="49.155514"
       y2="50.137749"
       gradientUnits="userSpaceOnUse" />
    <radialGradient
       inkscape:collect="always"
       xlink:href="#linearGradient7"
       id="radialGradient9"
       cx="32.302387"
       cy="34"
       fx="32.302387"
       fy="34"
       r="28"
       gradientUnits="userSpaceOnUse"
       gradientTransform="matrix(0.99999999,1,-1,0.99999999,34,-32.302387)" />
    <linearGradient
       id="c-3-6"
       gradientUnits="userSpaceOnUse"
       x1="24.072048"
       x2="23.959682"
       y1="0.75082099"
       y2="46.056854"
       gradientTransform="matrix(0.91471346,0,0,0.90068147,9.0468769,9.3836444)">
      <stop
         offset="0"
         stop-color="#fff"
         id="stop3-2" />
      <stop
         offset="1"
         stop-color="#d9d9d9"
         id="stop4-9" />
    </linearGradient>
    <linearGradient
       id="b-6-1"
       gradientUnits="userSpaceOnUse"
       x1="29.203026"
       x2="34.121048"
       xlink:href="#a-7"
       y1="24.827356"
       y2="29.224836"
       gradientTransform="matrix(1.1104534,0,0,1.0934187,4.3491158,4.7861435)" />
    <linearGradient
       id="d-0"
       gradientUnits="userSpaceOnUse"
       x1="15.948756"
       x2="25.031786"
       xlink:href="#a-7"
       y1="23.618279"
       y2="33.69899"
       gradientTransform="matrix(1.1104534,0,0,1.0934187,4.3491158,4.7861435)" />
    <linearGradient
       id="e-9"
       gradientUnits="userSpaceOnUse"
       x1="21.990562"
       x2="29.320522"
       xlink:href="#a-7"
       y1="33.780373"
       y2="41.931858"
       gradientTransform="matrix(1.1104534,0,0,1.0934187,4.3491158,4.7861435)" />
    <linearGradient
       id="linearGradient773"
       gradientTransform="matrix(2.0428665,-6.8308524,5.7819337,2.3633129,-33.356582,5.3194785)"
       gradientUnits="userSpaceOnUse"
       x1="24"
       x2="24"
       y1="35"
       y2="13">
      <stop
         offset="0"
         stop-color="#cd7223"
         id="stop224-5"
         style="stop-color:#ffb380;stop-opacity:1" />
      <stop
         offset=".53"
         stop-color="#f48e00"
         id="stop226-3" />
      <stop
         offset="1"
         stop-color="#ffa92d"
         id="stop228-5" />
    </linearGradient>
  </defs>
  <sodipodi:namedview
     id="namedview7"
     pagecolor="#ffffff"
     bordercolor="#000000"
     borderopacity="0.25"
     inkscape:showpageshadow="2"
     inkscape:pageopacity="0.0"
     inkscape:pagecheckerboard="0"
     inkscape:deskcolor="#d1d1d1"
     inkscape:zoom="11.78125"
     inkscape:cx="28.944297"
     inkscape:cy="31.702918"
     inkscape:window-width="1920"
     inkscape:window-height="998"
     inkscape:window-x="0"
     inkscape:window-y="0"
     inkscape:window-maximized="1"
     inkscape:current-layer="svg7" />
  <g
     id="g1"
     transform="translate(-1.3023872,-3)">
    <path
       d="m 60.302387,34 c 0,15.46415 -12.535828,28 -28.000002,28 C 16.838222,62 4.3023873,49.46415 4.3023873,34 4.3023873,18.535835 16.838222,6 32.302385,6 47.766559,6 60.302387,18.535835 60.302387,34 Z"
       id="path154"
       style="fill:url(#radialGradient9)" />
    <path
       d="m 55.63572,34 c 0,12.88701 -10.446332,23.33332 -23.333335,23.33332 C 19.415386,57.33332 8.9690543,46.88701 8.9690543,34 c 0,-12.886994 10.4463317,-23.333332 23.3333307,-23.333332 12.887003,0 23.333335,10.446338 23.333335,23.333332 z"
       id="path155"
       style="fill:url(#linearGradient6)" />
  </g>
  <g
     id="g3"
     transform="matrix(0.60576883,0,0,0.60531993,10.615387,11.286118)">
    <path
       style="opacity:0.2"
       d="M 54.010765,7.2401554 24.06068,14.145149 c -4.221512,0.532153 -4.060689,4.854879 -4.060689,4.854879 v 3.999997 14.429678 c -0.975385,-0.280958 -1.984963,-0.42556 -2.999998,-0.429688 -6.075128,0 -10.9999924,4.924865 -10.9999924,10.999993 C 6.0000006,54.075135 10.924865,59 16.999993,59 c 5.685644,-0.0028 10.432335,-4.337893 10.94921,-9.999993 h 0.05078 V 48.000008 21.316432 L 49.99997,16.083911 v 15.345796 c -0.975386,-0.280958 -1.984963,-0.425559 -2.999998,-0.429687 -6.075128,0 -10.999992,4.924864 -10.999992,10.999992 0,6.075128 4.924864,10.999992 10.999992,10.999992 5.685644,-0.0028 10.432335,-4.337893 10.94921,-9.999993 h 0.05078 V 14.400318 11.000034 c 0,0 0.05206,-4.6106686 -3.989199,-3.7598786 z"
       id="path1" />
    <path
       style="fill:#e6f1fe;fill-opacity:1"
       d="M 54.010765,6.2401568 24.06068,13.14515 c -4.221512,0.532153 -4.060689,4.854879 -4.060689,4.854879 v 3.999998 14.429677 c -0.975385,-0.280957 -1.984963,-0.425559 -2.999998,-0.429687 -6.075128,0 -10.9999924,4.924864 -10.9999924,10.999992 0,6.075128 4.9248644,10.999992 10.9999924,10.999992 5.685644,-0.0028 10.432335,-4.337893 10.94921,-9.999993 h 0.05078 V 47.000009 20.316434 L 49.99997,15.083912 v 15.345797 c -0.975386,-0.280958 -1.984963,-0.42556 -2.999998,-0.429688 -6.075128,0 -10.999992,4.924865 -10.999992,10.999992 0,6.075128 4.924864,10.999993 10.999992,10.999993 5.685644,-0.0028 10.432335,-4.337893 10.94921,-9.999993 h 0.05078 V 13.40032 10.000035 c 0,0 0.05206,-4.6106682 -3.989199,-3.7598782 z"
       id="path2" />
    <path
       style="opacity:0.2;fill:#ffffff"
       d="m 54.720703,6.1425781 c -0.221612,0.012966 -0.456406,0.044482 -0.708984,0.097656 L 24.060547,13.144531 C 19.839035,13.676684 20,18 20,18 v 1 c 0,0 -0.160965,-4.323316 4.060547,-4.855469 L 54.011719,7.2402344 C 58.052978,6.3894444 58,11 58,11 v -1 c 0,0 0.04488,-4.0519081 -3.279297,-3.8574219 z M 47,30 c -6.075128,0 -11,4.924873 -11,11 0,0.168757 0.01787,0.333099 0.02539,0.5 C 36.288568,35.658592 41.093629,31 47,31 c 1.015035,0.0041 2.024614,0.14873 3,0.429688 v -1 C 49.024614,30.14873 48.015035,30.004128 47,30 Z M 17,36 C 10.924872,36 6,40.924872 6,47 6,47.168757 6.017871,47.333099 6.025391,47.5 6.288568,41.658591 11.093629,37 17,37 c 1.015035,0.0041 2.024615,0.14873 3,0.429688 v -1 C 19.024615,36.14873 18.015035,36.004128 17,36 Z"
       id="path3" />
  </g>
  <g
     id="g2"
     transform="translate(66.323189,28.581102)">
    <circle
       style="fill:#c83771;stroke-width:0.5625"
       cx="-16.323189"
       cy="21.418898"
       r="9"
       id="circle3" />
    <rect
       width="2.2500007"
       height="11.250004"
       x="-19.698181"
       y="15.793912"
       id="rect4"
       style="fill:#ffffff;stroke-width:1.125" />
    <rect
       width="2.2500007"
       height="11.250004"
       x="-15.19818"
       y="15.793912"
       id="rect5"
       style="fill:#ffffff;stroke-width:1.125" />
    <rect
       width="2.2500007"
       height="11.250004"
       x="18.043917"
       y="10.698194"
       id="rect6"
       transform="rotate(90)"
       style="fill:#ffffff;stroke-width:1.125" />
    <rect
       width="2.2500007"
       height="11.250004"
       x="22.543917"
       y="10.698194"
       id="rect7"
       transform="rotate(90)"
       style="fill:#ffffff;stroke-width:1.125" />
  </g>
</svg>
