<?xml version="1.0" encoding="UTF-8" standalone="no"?>
<svg
   width="62"
   height="62"
   version="1.1"
   id="svg29"
   sodipodi:docname="studio-3t.svg"
   inkscape:version="1.4 (unknown)"
   xmlns:inkscape="http://www.inkscape.org/namespaces/inkscape"
   xmlns:sodipodi="http://sodipodi.sourceforge.net/DTD/sodipodi-0.dtd"
   xmlns:xlink="http://www.w3.org/1999/xlink"
   xmlns="http://www.w3.org/2000/svg"
   xmlns:svg="http://www.w3.org/2000/svg">
  <defs
     id="defs29">
    <linearGradient
       id="linearGradient29"
       inkscape:collect="always">
      <stop
         style="stop-color:#2d3d53;stop-opacity:1;"
         offset="0"
         id="stop29" />
      <stop
         style="stop-color:#00aa44;stop-opacity:1"
         offset="1"
         id="stop30" />
    </linearGradient>
    <linearGradient
       inkscape:collect="always"
       xlink:href="#linearGradient29"
       id="linearGradient30"
       x1="29.630692"
       y1="64.053574"
       x2="30.193521"
       y2="5"
       gradientUnits="userSpaceOnUse"
       gradientTransform="matrix(0.98214286,0,0,0.98245614,-0.42857152,-0.92982455)" />
    <linearGradient
       id="paint1_linear_11_148"
       x1="12.6932"
       y1="20.5312"
       x2="12.6932"
       y2="5.6079102"
       gradientUnits="userSpaceOnUse"
       gradientTransform="matrix(2.6803705,0,0,2.6803705,-3.022395,-3.5399929)">
      <stop
         stop-color="#FD5900"
         id="stop4" />
      <stop
         offset="1"
         stop-color="#FFDE00"
         id="stop5" />
    </linearGradient>
    <linearGradient
       id="linear0"
       x1="0"
       x2="15.457296"
       y1="0.40162264"
       y2="15.858919"
       gradientTransform="matrix(2.3613453,0,0,2.1996089,12.750007,12.625351)"
       gradientUnits="userSpaceOnUse">
      <stop
         offset="0%"
         style="stop-color:#ff0000; stop-opacity:1"
         id="stop1" />
      <stop
         offset="50%"
         style="stop-color:#ffd000; stop-opacity:1"
         id="stop2" />
      <stop
         offset="100%"
         style="stop-color:#ff00bb; stop-opacity:1"
         id="stop3" />
    </linearGradient>
    <linearGradient
       id="linear0-6"
       x1="0"
       x2="0"
       y1="0"
       y2="16"
       gradientUnits="userSpaceOnUse"
       gradientTransform="matrix(2.2500014,0,0,2.2500014,13.000004,13.000032)">
      <stop
         offset="0%"
         style="stop-color:#00b54e; stop-opacity:1"
         id="stop1-7" />
      <stop
         offset="50%"
         style="stop-color:#0073ff; stop-opacity:1"
         id="stop2-5" />
      <stop
         offset="100%"
         style="stop-color:#ffd000; stop-opacity:1"
         id="stop3-3" />
    </linearGradient>
  </defs>
  <sodipodi:namedview
     id="namedview29"
     pagecolor="#ffffff"
     bordercolor="#000000"
     borderopacity="0.25"
     inkscape:showpageshadow="2"
     inkscape:pageopacity="0.0"
     inkscape:pagecheckerboard="0"
     inkscape:deskcolor="#d1d1d1"
     inkscape:zoom="7.0710678"
     inkscape:cx="50.133871"
     inkscape:cy="45.749809"
     inkscape:window-width="1920"
     inkscape:window-height="998"
     inkscape:window-x="0"
     inkscape:window-y="0"
     inkscape:window-maximized="1"
     inkscape:current-layer="svg29" />
  <rect
     style="opacity:0.2;stroke-width:0.9823"
     width="55"
     height="55.017544"
     x="3.5"
     y="3.9824562"
     ry="13.754386"
     id="rect1" />
  <rect
     style="fill:url(#linearGradient30);stroke-width:0.9823"
     width="55"
     height="55.017544"
     x="3.5"
     y="3"
     ry="13.754386"
     id="rect2" />
  <path
     style="opacity:0.1;fill:#ffffff;stroke-width:0.9823"
     d="M 17.25,3 C 9.6324999,3 3.4999999,9.1344561 3.4999999,16.754386 v 0.982456 c 0,-7.61993 6.1325,-13.7543858 13.7500001,-13.7543858 h 27.5 c 7.6175,0 13.75,6.1344558 13.75,13.7543858 V 16.754386 C 58.5,9.1344561 52.3675,3 44.75,3 Z"
     id="path28" />
  <g
     id="g2"
     transform="matrix(0.79546336,0,0,0.79308008,14.568493,-38.929462)">
    <path
       style="opacity:0.2"
       d="m 15.07771,69.006777 c -0.423542,-0.0096 -0.847814,-0.009 -1.271484,0.002 -5.084038,0.131034 -10.822069,1.7453 -14.796875,5.042969 -2.822101,2.35979 -5.835581,5.293356 -5.810547,9.28125 -0.256133,1.404084 0.555236,2.095111 1.568359,2.189453 l 0.01367,-0.0098 c 1.287564,-0.921617 2.855191,-1.479841 4.519533,-1.511731 1.667836,-0.03196 3.51944,0.57015 4.777344,2.064453 l 0.05078,0.05859 0.04492,0.0625 c 0.81765,1.140445 1.317692,2.408526 1.587891,3.710937 2.073326,0.268971 4.196749,0.124573 6.28125,0.01367 0.600866,-0.01243 1.160499,-0.10422 1.708984,-0.220703 1.017486,-1.087016 2.38196,-2.334806 4.511719,-2.65625 l 0.04883,-0.0059 0.04883,-0.0059 c 1.592811,-0.160638 2.963187,0.264411 4.25,1.273438 0.281081,0.220403 0.571233,0.51532 0.81836,0.867187 0.698717,-1.702194 2.814557,-1.077507 2.443359,0.734375 1.76164,1.621812 1.3984,-2.243778 2.728515,-1.767578 1.169953,1.446301 2.506367,3.345801 4.371094,3.8125 1.409995,0.181024 3.010315,-0.285808 3.701172,-1.65039 1.096388,-2.159468 -0.854586,-4.139748 -1.691406,-5.998047 -1.105663,-2.7915 -1.65459,-5.848889 -3.496095,-8.292882 -2.963783,-4.028051 -7.891528,-5.831991 -12.623047,-6.636719 -1.24765,-0.208486 -2.514529,-0.328756 -3.785156,-0.357422 z m 15.421875,13.994141 c 0.828427,0 1.5,0.671573 1.5,1.5 0,0.828429 -0.671573,1.5 -1.5,1.5 -0.828428,0 -1.5,-0.671571 -1.5,-1.5 0,-0.828427 0.671572,-1.5 1.5,-1.5 z m -31.160156,3 c -1.207665,0.02314 -2.447415,0.460757 -3.394532,1.138672 -1.760721,1.485913 -3.2084563,3.954156 -2.904296,6.398437 0.719634,2.347153 3.26953,2.859366 5.271484,3.300782 1.890082,0.363709 4.634212,0.280529 5.384766,-2.019532 C 4.296376,92.33153 4.053857,89.45225 2.548413,87.35248 1.723225,86.372274 0.547095,85.97778 -0.660571,86.000918 Z m 19.222656,3.011719 c -2.085922,0.314827 -3.323826,2.287102 -4.826172,3.568359 -0.843672,1.195849 -3.721565,2.821221 -2.388672,4.3125 3.940005,0.683721 7.393862,-2.017356 9.822266,-4.80664 2.382605,-1.647738 -0.961424,-3.240221 -2.607422,-3.074219 z"
       id="path2" />
    <path
       style="fill:#ffffff"
       d="m 15.07771,68.006777 c -0.423542,-0.0096 -0.847814,-0.009 -1.271484,0.002 -5.084038,0.131034 -10.822069,1.7453 -14.796875,5.042969 -2.822101,2.35979 -5.835581,5.293356 -5.810547,9.28125 -0.256133,1.404084 0.555236,2.095111 1.568359,2.189453 l 0.01367,-0.0098 c 1.287564,-0.921617 2.855191,-1.479841 4.519533,-1.511731 1.667836,-0.03196 3.51944,0.57015 4.777344,2.064453 l 0.05078,0.05859 0.04492,0.0625 c 0.81765,1.140445 1.317692,2.408526 1.587891,3.710937 2.073326,0.268971 4.196749,0.124573 6.28125,0.01367 0.600866,-0.01243 1.160499,-0.10422 1.708984,-0.220703 1.017486,-1.087016 2.38196,-2.334806 4.511719,-2.65625 l 0.04883,-0.0059 0.04883,-0.0059 c 1.592811,-0.160638 2.963187,0.264411 4.25,1.273438 0.281081,0.220403 0.571233,0.51532 0.81836,0.867187 0.698717,-1.702194 2.814557,-1.077507 2.443359,0.734375 1.76164,1.621812 1.3984,-2.243778 2.728515,-1.767578 1.169953,1.446301 2.506367,3.345801 4.371094,3.8125 1.409995,0.181024 3.010315,-0.285808 3.701172,-1.65039 1.096388,-2.159468 -0.854586,-4.139748 -1.691406,-5.998047 -1.105663,-2.7915 -1.65459,-5.848889 -3.496095,-8.292882 -2.963783,-4.028051 -7.891528,-5.831991 -12.623047,-6.636719 -1.24765,-0.208486 -2.514529,-0.328756 -3.785156,-0.357422 z m 15.421875,13.994141 c 0.828427,0 1.5,0.671573 1.5,1.5 0,0.828429 -0.671573,1.5 -1.5,1.5 -0.828428,0 -1.5,-0.671571 -1.5,-1.5 0,-0.828427 0.671572,-1.5 1.5,-1.5 z m -31.160156,3 c -1.207665,0.02314 -2.447415,0.460757 -3.394532,1.138672 -1.760721,1.485913 -3.2084563,3.954156 -2.904296,6.398437 0.719634,2.347153 3.26953,2.859366 5.271484,3.300782 1.890082,0.363709 4.634212,0.280529 5.384766,-2.019532 C 4.296376,91.33153 4.053857,88.45225 2.548413,86.35248 1.723225,85.372274 0.547095,84.97778 -0.660571,85.000918 Z m 19.222656,3.011719 c -2.085922,0.314827 -3.323826,2.287102 -4.826172,3.568359 -0.843672,1.195849 -3.721565,2.821221 -2.388672,4.3125 3.940005,0.683721 7.393862,-2.017356 9.822266,-4.80664 2.382605,-1.647738 -0.961424,-3.240221 -2.607422,-3.074219 z"
       id="path3" />
  </g>
  <text
     xml:space="preserve"
     style="font-size:16.9553px;font-family:'Blush Asliring';-inkscape-font-specification:'Blush Asliring';text-align:start;writing-mode:lr-tb;direction:ltr;text-anchor:start;opacity:1;fill:#ffffff;fill-opacity:1;stroke:#ffffff;stroke-width:0.314779;stroke-linecap:round;stroke-linejoin:round;stroke-dasharray:none;stroke-opacity:1;paint-order:fill markers stroke"
     x="31.771744"
     y="49.77565"
     id="text2"
     transform="scale(1.0041006,0.99591615)"><tspan
       sodipodi:role="line"
       id="tspan2"
       x="31.771744"
       y="49.77565"
       style="fill:#ffffff;fill-opacity:1;stroke:#ffffff;stroke-width:0.314779;stroke-dasharray:none;stroke-opacity:1">3T</tspan></text>
</svg>
