<?xml version="1.0" encoding="UTF-8" standalone="no"?>
<svg
   width="62"
   height="62"
   version="1.1"
   id="svg7"
   sodipodi:docname="superpaper.svg"
   inkscape:version="1.4 (unknown)"
   xml:space="preserve"
   xmlns:inkscape="http://www.inkscape.org/namespaces/inkscape"
   xmlns:sodipodi="http://sodipodi.sourceforge.net/DTD/sodipodi-0.dtd"
   xmlns:xlink="http://www.w3.org/1999/xlink"
   xmlns="http://www.w3.org/2000/svg"
   xmlns:svg="http://www.w3.org/2000/svg"><defs
     id="defs7"><linearGradient
       id="paint3_linear_332_93"
       x1="37.304401"
       y1="24.2272"
       x2="23.255199"
       y2="12.9039"
       gradientUnits="userSpaceOnUse"
       gradientTransform="matrix(1,0,0,1.0089403,-0.9999998,-0.28624446)"><stop
         stop-color="#731FFF"
         id="stop9" /><stop
         offset="0.905415"
         stop-color="#EB1AFF"
         id="stop10-5" /></linearGradient><linearGradient
       id="paint1_linear_332_93"
       x1="2"
       y1="61.696899"
       x2="14.6751"
       y2="28.2421"
       gradientUnits="userSpaceOnUse"
       gradientTransform="matrix(0.91578336,0,0,1,1.7216248,-7.2011443)"><stop
         stop-color="#731FFF"
         id="stop5" /><stop
         offset="0.905415"
         stop-color="#EB1AFF"
         id="stop6" /></linearGradient><linearGradient
       id="paint2_linear_332_93"
       x1="54.645401"
       y1="46.748501"
       x2="26.243099"
       y2="10.4978"
       gradientUnits="userSpaceOnUse"
       gradientTransform="matrix(0.91578336,0,0,1,1.7216248,-7.2011443)"><stop
         offset="0.118093"
         stop-color="#731FFF"
         id="stop7" /><stop
         offset="0.905415"
         stop-color="#EB1AFF"
         id="stop8-3" /></linearGradient><linearGradient
       id="linearGradient4"
       x1="16"
       x2="47"
       y1="16"
       y2="48"
       gradientUnits="userSpaceOnUse"
       gradientTransform="matrix(1.1935485,0,0,1.1875,-6.5967725,-6.999994)"><stop
         stop-color="#ffffff"
         offset="0"
         id="stop1" /><stop
         stop-color="#ffffff"
         offset=".45161"
         id="stop2" /><stop
         stop-color="#fef0cb"
         offset=".59375"
         id="stop3" /><stop
         stop-color="#ffbcc3"
         offset="1"
         id="stop4" /></linearGradient><linearGradient
       inkscape:collect="always"
       xlink:href="#linearGradient3974"
       id="linearGradient3136"
       gradientUnits="userSpaceOnUse"
       x1="-284.28873"
       y1="258.56543"
       x2="-284.28873"
       y2="639.42023"
       gradientTransform="matrix(0.13802817,0,0,0.13802817,69.526692,-30.249241)" /><linearGradient
       id="linearGradient3974"><stop
         id="stop3976"
         offset="0"
         style="stop-color:#3465a4;stop-opacity:1;" /><stop
         id="stop3978"
         offset="1"
         style="stop-color:#204a87;stop-opacity:1;" /></linearGradient></defs><sodipodi:namedview
     id="namedview7"
     pagecolor="#ffffff"
     bordercolor="#000000"
     borderopacity="0.25"
     inkscape:showpageshadow="2"
     inkscape:pageopacity="0.0"
     inkscape:pagecheckerboard="0"
     inkscape:deskcolor="#d1d1d1"
     inkscape:zoom="5.8749999"
     inkscape:cx="37.021277"
     inkscape:cy="59.319149"
     inkscape:window-width="1920"
     inkscape:window-height="998"
     inkscape:window-x="0"
     inkscape:window-y="0"
     inkscape:window-maximized="1"
     inkscape:current-layer="svg7"
     showgrid="false"><inkscape:grid
       id="grid1"
       units="px"
       originx="0"
       originy="0"
       spacingx="1"
       spacingy="1"
       empcolor="#0099e5"
       empopacity="0.30196078"
       color="#0099e5"
       opacity="0.14901961"
       empspacing="5"
       enabled="true"
       visible="false" /></sodipodi:namedview><circle
     cx="1018.3326"
     cy="1321.1312"
     fill="#fbfbfb"
     fill-opacity="0.432624"
     r="30.384001"
     id="circle4"
     style="stroke-width:101.28" /><text
     xml:space="preserve"
     style="font-size:21.3333px;font-family:'Blush Asliring';-inkscape-font-specification:'Blush Asliring';text-align:start;writing-mode:lr-tb;direction:ltr;text-anchor:start;fill:#ffffff;stroke:#2e3b52;stroke-width:0.216;stroke-linecap:round;stroke-linejoin:round;paint-order:fill markers stroke"
     x="36.785973"
     y="87.621063"
     id="text1"><tspan
       sodipodi:role="line"
       id="tspan1" /></text><g
     id="g1"
     transform="translate(0.51556325,-1.5838494)"><rect
       style="fill:#d3d7cf;fill-opacity:1;stroke:none;stroke-width:0.138028"
       id="rect3124"
       width="56"
       height="56"
       x="2.4844368"
       y="4.5838494"
       rx="6.7042255"
       ry="6.7042255" /><path
       style="fill:#babdb6;fill-opacity:1;stroke:none;stroke-width:0.138028"
       d="m 8.8546845,4.8703015 c -3.2190888,0.068164 -6.0998389,2.9859537 -6.090493,6.2544015 0.00439,14.416425 -0.030303,28.834811 0.017254,43.250264 0.1617718,3.264797 3.1800159,6.026368 6.4053698,5.930898 14.3662727,-0.01155 28.7338107,0.02308 43.0992957,-0.01725 3.2326,-0.169264 6.011132,-3.147548 5.922271,-6.41831 -0.01446,-14.359028 0.02887,-28.719769 -0.02157,-43.077729 -0.16556,-3.3172175 -3.252941,-6.0897687 -6.543398,-5.9308983 -14.26283,0.00577 -28.526291,-0.011525 -42.788733,0.00863 z"
       id="path3126"
       inkscape:connector-curvature="0" /><path
       style="fill:#888a85;fill-opacity:1;stroke:none;stroke-width:0.138028"
       d="m 51.652044,5.1377311 c -14.404759,0.0223 -28.813447,-0.046487 -43.2157574,0.03882 -3.1758818,0.3165055 -5.7258391,3.433967 -5.3960387,6.6382929 0.018084,14.281323 -0.056783,28.564917 0.03882,42.844806 0.3373063,3.198236 3.4842685,5.704906 6.6598592,5.369717 14.2725109,-0.02355 28.5487419,0.05668 42.8189269,-0.04269 3.189908,-0.320781 5.711457,-3.484426 5.374029,-6.668486 -0.02961,-14.268215 0.06101,-28.540036 -0.047,-42.805986 C 57.575699,7.4893448 54.706577,4.9895346 51.652048,5.1377327 Z"
       id="path3128"
       inkscape:connector-curvature="0" /><path
       sodipodi:nodetypes="cccccccccc"
       style="fill:#e6e6e4;fill-opacity:1;stroke:none;stroke-width:0.138028"
       d="M 51.544209,5.3792804 C 37.082442,5.526308 22.613639,5.2522241 8.1559169,5.5302487 4.9663081,5.9375574 3.1492197,9.4326198 3.2861105,12.448911 c 0.1124143,13.685841 -0.077837,27.374922 0.086268,41.059067 0.041678,2.06367 0.6693649,3.90902 2.2645247,5.033715 1.5136362,1.185275 3.5255887,1.22601 5.3787818,1.210704 14.035531,-0.06501 28.073717,0.16121 42.107222,-0.132359 3.116274,-0.669402 4.53312,-4.181976 4.532686,-7.181777 C 57.559009,38.254159 57.856679,24.059951 57.496674,9.8824494 56.887913,7.2351878 54.258489,5.2794501 51.544209,5.3792804 Z"
       id="path3138"
       inkscape:connector-curvature="0" /><path
       sodipodi:nodetypes="cccccccc"
       style="fill:#729fcf;fill-opacity:1;stroke:none;stroke-width:0.138028"
       d="m 3.2861105,12.172854 c 0.1124143,13.685841 -0.077837,27.374923 0.086268,41.059068 0.017254,1.994382 0.6693649,3.909019 2.2645247,5.033714 1.5136362,1.185276 3.3944164,1.233415 5.3787818,1.210705 14.035531,-0.06501 28.073717,0.16121 42.107222,-0.13236 3.116274,-0.669402 4.545154,-4.157906 4.532686,-7.181776 C 57.559009,37.978103 57.856679,23.783894 57.496674,9.6063931 42.823127,16.829279 12.051382,4.4812346 3.2861105,12.172854 Z"
       id="path3917"
       inkscape:connector-curvature="0" /><path
       inkscape:connector-curvature="0"
       id="path3130"
       d="m 3.2861105,12.448911 c 0.1124143,13.685841 -0.077837,27.374922 0.086268,41.059067 0.017254,1.994383 0.6693649,3.90902 2.2645247,5.033715 1.5136362,1.185275 3.3944164,1.233414 5.3787818,1.210704 14.035531,-0.06501 28.073717,0.16121 42.107222,-0.132359 3.116274,-0.669402 4.545154,-4.157907 4.532686,-7.181777 C 57.559009,38.254159 57.856679,24.059951 57.496674,9.8824494 42.823127,17.105335 12.051382,4.7572909 3.2861105,12.448911 Z"
       style="fill:url(#linearGradient3136);fill-opacity:1;stroke:none;stroke-width:0.138028"
       sodipodi:nodetypes="cccccccc" /><path
       style="fill:#3465a4;stroke-width:0.138028"
       d="m 28.44063,14.095326 c -1.308604,-0.108926 -0.4994,0.266712 0.211942,0.622964 0.569656,0.397772 1.472195,0.622778 1.840564,1.123747 -0.100456,0.836791 -0.207235,1.684723 -0.301149,2.515161 -0.447998,-0.06054 -1.925066,-0.99178 -1.531257,-0.358523 0.858562,0.568465 0.0539,1.262566 -0.182515,0.49382 0.274911,-1.123653 -0.840108,-0.221174 -1.419302,-0.103427 -0.51254,0.330132 -0.450083,0.49236 -1.301675,0.306374 -0.580132,0.03263 -1.485583,-0.343245 -1.876948,-0.08678 -0.129278,0.736896 0.143977,1.664176 -0.647905,2.080625 -0.664426,0.725118 -1.733661,1.214952 -1.761363,2.31792 -0.732502,2.969611 -1.519166,5.926513 -2.178002,8.913572 1.126448,0.289021 2.283717,0.812069 3.389958,0.958357 1.174716,-0.465944 1.139561,-1.90004 1.668664,-2.841248 -0.13161,2.951748 1.225883,5.660221 1.495797,8.550052 0.242902,0.807574 -0.314773,1.170022 -0.962125,1.480756 0.627228,0.820248 -0.93365,-0.451337 -0.84066,0.722538 -0.65061,1.2249 -1.126862,2.574417 -1.888792,3.720689 -0.86534,0.865334 -1.730666,1.730669 -2.596006,2.596003 0.312303,1.542171 0.871786,3.061811 0.650775,4.655856 -0.0026,1.11092 -0.123273,2.255181 -0.05696,3.345489 0.376872,0.549945 0.587945,1.409231 1.43189,1.119962 0.785215,0.156367 1.371655,-0.111449 1.752972,-0.817912 0.632141,-0.436263 0.541843,-0.981326 0.17502,-1.572344 -0.483968,-1.951105 -0.504079,-3.974713 -0.695276,-5.971882 0.873857,-1.36858 1.553852,-2.888737 2.551175,-4.160151 1.114205,-1.133853 2.362766,-2.198862 3.394403,-3.375169 0.183549,-1.540684 0.3683,-3.0812 0.544949,-4.622665 1.551602,0.746249 2.908405,1.798054 4.276899,2.822456 0.04842,1.025888 -0.212784,2.119235 0.423139,3.01697 0.90472,1.881687 1.708375,3.814899 2.275298,5.826226 0.184392,0.573299 0.544949,1.058193 0.935803,1.510823 1.658795,-0.348252 3.165083,-1.112708 4.724139,-1.725044 2.527019,-0.895473 5.11727,-1.596858 7.685657,-2.363948 0.01879,-0.496916 0.944333,-1.666292 0.04886,-1.510822 -1.991374,-0.07975 -3.975722,0.142938 -5.911761,0.60508 0.706139,0.878018 -0.837665,-0.264451 -1.248547,0.448891 -1.33258,0.504119 -2.671715,1.18267 -4.140804,1.095756 C 37.836111,43.888543 36.921895,42.4362 36.909845,40.754906 36.755902,39.64418 36.694549,38.495083 36.483324,37.407841 34.793307,35.144404 33.175024,32.81471 31.000003,31 c 1.100113,0.573794 0.480863,-0.569119 0.670307,-0.896726 1.002415,0.455403 1.014162,-0.119889 0.753675,-0.973347 -0.282861,-0.643112 0.695786,-0.487055 0.951249,-0.941109 0.150381,-0.145946 0.26166,-0.34621 0.259327,-0.559981 0.519138,0.04807 1.186117,-0.690065 1.758603,-0.928819 0.406051,-0.559464 0.266822,-1.480631 0.455024,-2.183024 0.202708,-0.983025 0.219879,-2.054243 0.868142,-2.875073 -0.676186,-0.661177 -1.325388,-1.455233 -2.26623,-1.73256 0.397591,-0.588495 1.236236,-1.060069 0.827907,-1.858096 -0.14671,-1.216611 -0.637083,-2.372913 -1.530705,-3.234352 -0.914795,0.08779 -1.890433,0.426558 -2.769148,0.364902 -0.745007,-0.522693 -1.542148,-1.26761 -2.537524,-1.086489 z m -1.469476,5.077415 c 0.161259,0.377971 -1.58506,1.29893 -0.479013,0.389114 0.132231,-0.03831 0.379329,-0.613153 0.479013,-0.389114 z m 6.858827,2.243684 c 0.419344,0.112488 0.06878,0.80539 0.184171,1.10493 0.797969,-0.711154 0.282502,0.942536 0.428426,1.405592 -0.354677,0.147371 -0.574529,-0.205243 -0.488965,-0.554288 -0.07465,-0.644618 -0.162224,-1.304734 -0.236373,-1.956234 z m -1.413105,4.757964 c 0.286851,0.209111 0.511547,0.491647 0.71783,0.77796 -0.55947,0.105061 -0.962236,-0.01489 -0.766692,-0.623872 0.01201,-0.05214 0.02193,-0.108982 0.04886,-0.154088 z"
       id="path3132"
       inkscape:connector-curvature="0" /><path
       sodipodi:nodetypes="ccccccccccccccccccssccsscccccccccccccccccccccccccccccccccccccccsccccccccccscccccccsscccscccccccccccccccccsccccccsscccsssccccccccscccccccccccscccccscccccccccsscccs"
       style="fill:#f3f3f1;stroke-width:0.138028;fill-opacity:1"
       d="m 21.763973,56.471002 h -0.781557 l -0.312013,-0.504888 -0.312095,-0.504886 0.06922,-2.396188 0.06919,-2.396189 -0.33683,-1.501525 -0.336816,-1.501527 1.35298,-1.353002 1.353007,-1.353002 0.971539,-2.006967 0.971621,-2.006969 0.61591,0.236343 0.615895,0.236344 -0.244213,-0.395169 -0.24431,-0.395168 0.436873,-0.269957 0.436804,-0.269958 v -1.028138 c 0,-0.565475 -0.32104,-2.149652 -0.713454,-3.520393 -0.3924,-1.37074 -0.730831,-3.120821 -0.752143,-3.889069 l -0.03869,-1.396814 h -0.275739 c -0.151693,0 -0.408798,0.529927 -0.571354,1.177614 -0.162556,0.647689 -0.493961,1.300253 -0.736518,1.450146 l -0.440959,0.27253 -1.493327,-0.458312 -1.493326,-0.458313 0.197159,-0.884385 c 0.10849,-0.486412 0.633715,-2.62503 1.167291,-4.752485 l 0.970186,-3.868101 1.04283,-0.969549 1.042844,-0.969549 0.05868,-0.778923 0.05866,-0.778924 0.881434,0.100948 c 0.484852,0.05552 1.056551,0.117066 1.270439,0.136765 l 0.388977,0.03581 -0.739265,0.816909 -0.739361,0.81691 0.565253,0.326469 0.565252,0.326469 -0.319604,-0.352698 -0.319604,-0.352698 0.864043,-0.605194 0.863973,-0.605192 -0.219575,-0.355347 -0.219644,-0.355345 0.642231,-0.246441 0.642245,-0.246441 v 0.416299 0.4163 h 0.670058 0.669975 l -0.26253,-0.424866 -0.262612,-0.424866 0.666979,0.255954 0.667063,0.255954 0.04897,-0.368323 c 0.027,-0.20258 0.112079,-0.900087 0.189154,-1.550019 l 0.140154,-1.181694 -1.156165,-0.627702 -1.15618,-0.627701 0.455107,-0.01721 c 0.250314,-0.0095 0.825519,0.253696 1.278348,0.5848 l 0.823269,0.602008 1.320336,-0.214253 1.320308,-0.214252 0.539014,0.649459 c 0.296374,0.357204 0.633287,1.169416 0.748458,1.804919 l 0.209541,1.155455 -0.553549,0.67085 -0.553562,0.670848 0.544867,0.183376 c 0.299714,0.100856 0.833386,0.471807 1.185924,0.824334 l 0.640975,0.640958 -0.257602,0.416748 c -0.141672,0.229211 -0.385209,1.304738 -0.541167,2.390062 l -0.283689,1.973313 -0.777292,0.476363 -0.777292,0.476367 -0.559414,-0.752131 c -0.307734,-0.413672 -0.683185,-0.752131 -0.834381,-0.752131 -0.151279,0 -0.274979,0.290108 -0.274979,0.644683 v 0.644684 h 0.64466 0.644661 v 0.443278 c 0,0.243803 -0.293545,0.555916 -0.652266,0.693586 l -0.652252,0.250308 0.114991,0.703227 0.115088,0.703228 -0.537247,-0.107447 -0.537247,-0.107447 0.107482,0.537236 0.107386,0.537237 -0.644647,-0.128172 -0.64466,-0.128173 1.36162,1.202645 c 0.748955,0.661453 2.125524,2.227156 3.059201,3.47934 l 1.697512,2.276694 0.275573,2.344508 0.275574,2.344505 0.687435,1.718184 0.687532,1.718186 h 0.804208 c 0.442311,0 1.581347,-0.31095 2.53116,-0.691002 l 1.727022,-0.690999 0.667891,0.256287 0.667794,0.25629 -0.230176,-0.372538 -0.230258,-0.372537 1.336113,-0.267224 c 0.734834,-0.146972 2.004928,-0.267222 2.822427,-0.267222 h 1.486398 l -0.178112,0.537236 -0.178028,0.537236 -3.916826,1.154001 c -2.154283,0.63471 -4.34134,1.38121 -4.860201,1.658899 -0.518862,0.277691 -1.486646,0.660671 -2.150521,0.851071 l -1.20707,0.346182 -0.392911,-0.500811 c -0.216055,-0.275447 -0.521291,-1.037825 -0.678091,-1.694176 -0.156882,-0.656348 -0.763751,-2.239548 -1.348659,-3.518219 l -1.063383,-2.324855 v -1.08014 -1.080138 L 32.428498,37.850988 C 31.660303,37.277661 30.57576,36.572983 30.018527,36.285039 l -1.013155,-0.523535 -0.491104,0.532656 -0.491049,0.532658 0.518613,-0.291812 0.518627,-0.291811 -0.268382,2.270257 -0.268368,2.270255 -1.798065,1.748447 -1.797997,1.748447 -1.176814,2.00795 -1.176718,2.007945 0.211211,2.69044 c 0.116164,1.479741 0.348452,3.031361 0.516198,3.448043 l 0.305056,0.757604 -0.530484,0.639209 -0.530484,0.63921 z M 34.255149,24.666624 h 0.429765 V 23.566787 22.46695 l 0.496225,0.306666 0.496211,0.306664 -0.311005,-0.503205 -0.311005,-0.503206 -0.400102,0.247271 -0.400089,0.247269 v -0.455154 c 0,-0.250334 -0.181796,-0.455154 -0.404036,-0.455154 h -0.404022 l 0.140085,1.181921 c 0.07713,0.650054 0.162224,1.326974 0.18914,1.50426 0.02698,0.17729 0.24246,0.322342 0.478833,0.322342 z"
       id="path3134"
       inkscape:connector-curvature="0" /></g></svg>
