<?xml version="1.0" encoding="UTF-8" standalone="no"?>
<svg
   width="62"
   height="62"
   version="1"
   id="svg4"
   sodipodi:docname="superkaramba.svg"
   inkscape:version="1.4 (unknown)"
   xmlns:inkscape="http://www.inkscape.org/namespaces/inkscape"
   xmlns:sodipodi="http://sodipodi.sourceforge.net/DTD/sodipodi-0.dtd"
   xmlns="http://www.w3.org/2000/svg"
   xmlns:svg="http://www.w3.org/2000/svg">
  <defs
     id="defs4" />
  <sodipodi:namedview
     id="namedview4"
     pagecolor="#ffffff"
     bordercolor="#000000"
     borderopacity="0.25"
     inkscape:showpageshadow="2"
     inkscape:pageopacity="0.0"
     inkscape:pagecheckerboard="0"
     inkscape:deskcolor="#d1d1d1"
     inkscape:zoom="12.109375"
     inkscape:cx="31.95871"
     inkscape:cy="32"
     inkscape:window-width="1920"
     inkscape:window-height="998"
     inkscape:window-x="0"
     inkscape:window-y="0"
     inkscape:window-maximized="1"
     inkscape:current-layer="svg4" />
  <g
     id="g4"
     transform="translate(0,-0.26129015)">
    <path
       style="opacity:0.2"
       d="m 3,48.76129 v 2 c 0,1.662 1.338,3 3,3 h 50 c 1.662,0 3,-1.338 3,-3 v -2 c 0,1.662 -1.338,3 -3,3 H 6 c -1.662,0 -3,-1.338 -3,-3 z"
       id="path1" />
    <rect
       style="fill:#364963;fill-opacity:1"
       width="44"
       height="56"
       x="-52.761292"
       y="-59"
       rx="3"
       ry="3"
       transform="matrix(0,-1,-1,0,0,0)"
       id="rect1" />
    <rect
       style="opacity:1;fill:#516e96;fill-opacity:1"
       width="36"
       height="48"
       x="-48.761292"
       y="-55"
       rx="0"
       ry="0"
       transform="matrix(0,-1,-1,0,0,0)"
       id="rect2" />
    <path
       style="opacity:0.1;fill:#ffffff"
       d="m 6,8.7612903 c -1.662,0 -3,1.3379997 -3,2.9999997 v 1 c 0,-1.662 1.338,-2.9999997 3,-2.9999997 h 50 c 1.662,0 3,1.3379997 3,2.9999997 v -1 c 0,-1.662 -1.338,-2.9999997 -3,-2.9999997 z"
       id="path2" />
    <rect
       style="opacity:0.2"
       width="10"
       height="28"
       x="41"
       y="17.76129"
       rx="1"
       ry="1"
       id="rect3" />
    <rect
       style="fill:#f2f2f2;fill-opacity:1"
       width="10"
       height="28"
       x="41"
       y="16.76129"
       rx="1"
       ry="1"
       id="rect4" />
  </g>
</svg>
