<?xml version="1.0" encoding="UTF-8" standalone="no"?>
<svg
   width="62"
   height="62"
   version="1.1"
   id="svg29"
   sodipodi:docname="superproductivity.svg"
   inkscape:version="1.4 (unknown)"
   xmlns:inkscape="http://www.inkscape.org/namespaces/inkscape"
   xmlns:sodipodi="http://sodipodi.sourceforge.net/DTD/sodipodi-0.dtd"
   xmlns:xlink="http://www.w3.org/1999/xlink"
   xmlns="http://www.w3.org/2000/svg"
   xmlns:svg="http://www.w3.org/2000/svg">
  <defs
     id="defs29">
    <linearGradient
       id="linearGradient9"
       inkscape:collect="always">
      <stop
         style="stop-color:#2d3d53;stop-opacity:1;"
         offset="0"
         id="stop8" />
      <stop
         style="stop-color:#8897af;stop-opacity:1;"
         offset="1"
         id="stop9" />
    </linearGradient>
    <linearGradient
       id="linearGradient1"
       inkscape:collect="always">
      <stop
         style="stop-color:#ffffff;stop-opacity:1;"
         offset="0"
         id="stop6" />
      <stop
         style="stop-color:#d2a800;stop-opacity:1;"
         offset="1"
         id="stop7" />
    </linearGradient>
    <linearGradient
       id="linearGradient29"
       inkscape:collect="always">
      <stop
         style="stop-color:#2d3d53;stop-opacity:1;"
         offset="0"
         id="stop29" />
      <stop
         style="stop-color:#ffd42a;stop-opacity:1"
         offset="1"
         id="stop30" />
    </linearGradient>
    <linearGradient
       inkscape:collect="always"
       xlink:href="#linearGradient29"
       id="linearGradient30"
       x1="30.06267"
       y1="78.304298"
       x2="30.193521"
       y2="5"
       gradientUnits="userSpaceOnUse"
       gradientTransform="matrix(0.98214286,0,0,0.98245614,-0.42857152,-0.92982455)" />
    <linearGradient
       id="paint1_linear_11_148"
       x1="12.6932"
       y1="20.5312"
       x2="12.6932"
       y2="5.6079102"
       gradientUnits="userSpaceOnUse"
       gradientTransform="matrix(2.6803705,0,0,2.6803705,-3.022395,-3.5399929)">
      <stop
         stop-color="#FD5900"
         id="stop4" />
      <stop
         offset="1"
         stop-color="#FFDE00"
         id="stop5" />
    </linearGradient>
    <linearGradient
       id="linear0"
       x1="0"
       x2="15.457296"
       y1="0.40162264"
       y2="15.858919"
       gradientTransform="matrix(2.3613453,0,0,2.1996089,12.750007,12.625351)"
       gradientUnits="userSpaceOnUse">
      <stop
         offset="0%"
         style="stop-color:#ff0000; stop-opacity:1"
         id="stop1" />
      <stop
         offset="50%"
         style="stop-color:#ffd000; stop-opacity:1"
         id="stop2" />
      <stop
         offset="100%"
         style="stop-color:#ff00bb; stop-opacity:1"
         id="stop3" />
    </linearGradient>
    <linearGradient
       id="linear0-6"
       x1="0"
       x2="0"
       y1="0"
       y2="16"
       gradientUnits="userSpaceOnUse"
       gradientTransform="matrix(2.2500014,0,0,2.2500014,13.000004,13.000032)">
      <stop
         offset="0%"
         style="stop-color:#00b54e; stop-opacity:1"
         id="stop1-7" />
      <stop
         offset="50%"
         style="stop-color:#0073ff; stop-opacity:1"
         id="stop2-5" />
      <stop
         offset="100%"
         style="stop-color:#ffd000; stop-opacity:1"
         id="stop3-3" />
    </linearGradient>
    <linearGradient
       xlink:href="#a"
       id="c"
       x1="7.9369998"
       x2="7.9369998"
       y1="6.8790002"
       y2="1.058"
       gradientTransform="matrix(0,3.7792812,-3.7747161,0,62.363396,-1.9923644)"
       gradientUnits="userSpaceOnUse" />
    <linearGradient
       id="a">
      <stop
         offset="0"
         stop-color="#fff"
         id="stop1-3" />
      <stop
         offset="1"
         stop-color="#fff3a8"
         id="stop2-6" />
    </linearGradient>
    <linearGradient
       xlink:href="#a"
       id="e"
       x1="45"
       x2="57.007999"
       y1="19"
       y2="6.9920001"
       gradientTransform="matrix(0,0.99992222,-0.99871438,0,62.363396,-1.9999228)"
       gradientUnits="userSpaceOnUse" />
    <linearGradient
       inkscape:collect="always"
       xlink:href="#linearGradient1"
       id="linearGradient7"
       x1="42.467232"
       y1="41.695084"
       x2="54.913097"
       y2="53.544842"
       gradientUnits="userSpaceOnUse" />
    <linearGradient
       inkscape:collect="always"
       xlink:href="#linearGradient9"
       id="linearGradient19"
       x1="18.5"
       y1="30.479174"
       x2="18.5"
       y2="26.479174"
       gradientUnits="userSpaceOnUse"
       gradientTransform="translate(-12,23.520826)" />
    <linearGradient
       inkscape:collect="always"
       xlink:href="#linearGradient9"
       id="linearGradient17"
       x1="27"
       y1="38.479176"
       x2="27"
       y2="34.479176"
       gradientUnits="userSpaceOnUse"
       gradientTransform="translate(-12,23.520826)" />
    <linearGradient
       inkscape:collect="always"
       xlink:href="#linearGradient9"
       id="linearGradient15"
       x1="27"
       y1="46.479176"
       x2="27"
       y2="42.479176"
       gradientUnits="userSpaceOnUse"
       gradientTransform="translate(-12,23.520826)" />
  </defs>
  <sodipodi:namedview
     id="namedview29"
     pagecolor="#ffffff"
     bordercolor="#000000"
     borderopacity="0.25"
     inkscape:showpageshadow="2"
     inkscape:pageopacity="0.0"
     inkscape:pagecheckerboard="0"
     inkscape:deskcolor="#d1d1d1"
     inkscape:zoom="7.0710678"
     inkscape:cx="15.061374"
     inkscape:cy="48.719657"
     inkscape:window-width="1920"
     inkscape:window-height="998"
     inkscape:window-x="0"
     inkscape:window-y="0"
     inkscape:window-maximized="1"
     inkscape:current-layer="svg29" />
  <rect
     style="opacity:0.2;stroke-width:0.9823"
     width="55"
     height="55.017544"
     x="3.5"
     y="3.9824562"
     ry="13.754386"
     id="rect1" />
  <rect
     style="fill:url(#linearGradient30);stroke-width:0.9823"
     width="55"
     height="55.017544"
     x="3.5"
     y="3"
     ry="13.754386"
     id="rect2" />
  <path
     style="opacity:0.1;fill:#ffffff;stroke-width:0.9823"
     d="M 17.25,3 C 9.6324999,3 3.4999999,9.1344561 3.4999999,16.754386 v 0.982456 c 0,-7.61993 6.1325,-13.7543858 13.7500001,-13.7543858 h 27.5 c 7.6175,0 13.75,6.1344558 13.75,13.7543858 V 16.754386 C 58.5,9.1344561 52.3675,3 44.75,3 Z"
     id="path28" />
  <path
     d="m 58.399945,33 c 0,5.997719 -19.005696,24.999945 -24.996171,24.999945 H 45.414921 A 12.947276,12.962935 0 0 0 58.399945,44.999217 Z"
     id="path6"
     style="fill:#e5e5e5;fill-opacity:1" />
  <path
     d="m 58.369747,33 c -1.0003,3.99848 -6.990774,4.999989 -10.984424,5.997719 -3.876633,0.971275 -6.537809,3.182155 -7.991074,9.002248 -1.0003,3.998479 -0.641702,7.996959 -5.994249,9.996198 h 0.07549 C 40.458716,57.882787 57.180709,41.390004 58.335773,33.78609 Q 58.365973,33.385486 58.369753,33"
     id="path9"
     style="fill:url(#linearGradient7);fill-opacity:1" />
  <g
     id="g7"
     transform="translate(11,-32)">
    <path
       d="m -1,52 c 0,-1.105 0.895,-2 2,-2 h 11 c 1.105,0 2,0.895 2,2 0,1.105 -0.895,2 -2,2 H 1 c -1.105,0 -2,-0.895 -2,-2 z"
       id="path527"
       style="fill:url(#linearGradient19)" />
    <path
       d="m -1,60 c 0,-1.105 0.895,-2 2,-2 h 28 c 1.105,0 2,0.895 2,2 0,1.105 -0.895,2 -2,2 H 1 c -1.105,0 -2,-0.895 -2,-2 z"
       id="path528"
       style="fill:url(#linearGradient17)" />
    <path
       d="m -1,68 c 0,-1.105 0.895,-2 2,-2 h 28 c 1.105,0 2,0.895 2,2 0,1.105 -0.895,2 -2,2 H 1 c -1.105,0 -2,-0.895 -2,-2 z"
       id="path529"
       style="fill:url(#linearGradient15)" />
  </g>
</svg>
