<?xml version="1.0" encoding="UTF-8" standalone="no"?>
<svg
   width="62"
   height="62"
   version="1.1"
   id="svg5"
   sodipodi:docname="SuperSlicer.svg"
   inkscape:version="1.4 (unknown)"
   xmlns:inkscape="http://www.inkscape.org/namespaces/inkscape"
   xmlns:sodipodi="http://sodipodi.sourceforge.net/DTD/sodipodi-0.dtd"
   xmlns:xlink="http://www.w3.org/1999/xlink"
   xmlns="http://www.w3.org/2000/svg"
   xmlns:svg="http://www.w3.org/2000/svg">
  <defs
     id="defs5">
    <linearGradient
       id="linearGradient5"
       inkscape:collect="always">
      <stop
         style="stop-color:#cccccc;stop-opacity:1;"
         offset="0"
         id="stop5" />
      <stop
         style="stop-color:#f1f1f1;stop-opacity:1;"
         offset="1"
         id="stop6" />
    </linearGradient>
    <linearGradient
       inkscape:collect="always"
       xlink:href="#linearGradient5"
       id="linearGradient6"
       x1="32.738064"
       y1="59.01754"
       x2="33.325565"
       y2="5.0436153"
       gradientUnits="userSpaceOnUse" />
  </defs>
  <sodipodi:namedview
     id="namedview5"
     pagecolor="#ffffff"
     bordercolor="#000000"
     borderopacity="0.25"
     inkscape:showpageshadow="2"
     inkscape:pageopacity="0.0"
     inkscape:pagecheckerboard="0"
     inkscape:deskcolor="#d1d1d1"
     inkscape:zoom="12.109375"
     inkscape:cx="31.95871"
     inkscape:cy="32"
     inkscape:window-width="1920"
     inkscape:window-height="998"
     inkscape:window-x="0"
     inkscape:window-y="0"
     inkscape:window-maximized="1"
     inkscape:current-layer="svg5" />
  <g
     id="g5"
     transform="translate(-0.5,-1)">
    <ellipse
       style="opacity:0.2;stroke-width:0.982303"
       cx="31.5"
       cy="32.49123"
       id="circle1"
       rx="27.5"
       ry="27.50877" />
    <ellipse
       style="fill:url(#linearGradient6);stroke-width:0.982303"
       cx="31.5"
       cy="31.50877"
       id="circle2"
       rx="27.5"
       ry="27.50877" />
    <path
       style="opacity:0.1;stroke-width:0.982303"
       d="m 33.439345,12.842554 c -4.266266,0 -8.532024,1.628767 -11.787631,4.885415 -6.511213,6.513289 -6.511213,17.069491 0,23.58278 L 45.226975,17.727969 C 41.971367,14.471321 37.705611,12.842554 33.439345,12.842554 Z M 41.327178,23.672591 17.75,47.255372 c 6.511213,6.513289 17.065966,6.513289 23.577178,0 6.511213,-6.513289 6.511213,-17.069491 0,-23.582781 z"
       id="path2" />
    <path
       fill="#363636"
       d="m 45.227547,16.744617 c -6.511212,-6.513289 -17.065068,-6.513289 -23.57628,0 -6.511213,6.513289 -6.511213,17.070509 0,23.583799 z"
       id="path3"
       style="stroke-width:0.982303;fill:#2d3d53;fill-opacity:1" />
    <path
       fill="#248afd"
       d="m 17.75,46.27292 c 6.511213,6.513289 17.065069,6.513289 23.576281,0 6.511213,-6.513289 6.511213,-17.070508 0,-23.5838"
       id="path4"
       style="stroke-width:0.982303;fill:#8d5fd3" />
    <path
       style="opacity:0.2;fill:#ffffff;stroke-width:0.982303"
       d="M 31.499996,4 A 27.499996,27.508766 0 0 0 4,31.508766 27.499996,27.508766 0 0 0 4.0326097,31.982725 27.499996,27.508766 0 0 1 31.499996,4.9824559 27.499996,27.508766 0 0 1 58.982727,31.746704 27.499996,27.508766 0 0 0 58.99999,31.508766 27.499996,27.508766 0 0 0 31.499996,4 Z"
       id="path5" />
  </g>
</svg>
