<?xml version="1.0" encoding="UTF-8" standalone="no"?>
<svg
   width="62"
   height="62"
   version="1.1"
   id="svg6"
   sodipodi:docname="system76-driver.svg"
   inkscape:version="1.4 (unknown)"
   xmlns:inkscape="http://www.inkscape.org/namespaces/inkscape"
   xmlns:sodipodi="http://sodipodi.sourceforge.net/DTD/sodipodi-0.dtd"
   xmlns:xlink="http://www.w3.org/1999/xlink"
   xmlns="http://www.w3.org/2000/svg"
   xmlns:svg="http://www.w3.org/2000/svg">
  <defs
     id="defs6">
    <linearGradient
       id="linearGradient6"
       inkscape:collect="always">
      <stop
         style="stop-color:#2d3d53;stop-opacity:1;"
         offset="0"
         id="stop6" />
      <stop
         style="stop-color:#6c5d53;stop-opacity:1"
         offset="1"
         id="stop7" />
    </linearGradient>
    <linearGradient
       inkscape:collect="always"
       xlink:href="#linearGradient6"
       id="linearGradient7"
       x1="31.5"
       y1="59.01754"
       x2="33.631264"
       y2="5.0667815"
       gradientUnits="userSpaceOnUse" />
  </defs>
  <sodipodi:namedview
     id="namedview6"
     pagecolor="#ffffff"
     bordercolor="#000000"
     borderopacity="0.25"
     inkscape:showpageshadow="2"
     inkscape:pageopacity="0.0"
     inkscape:pagecheckerboard="0"
     inkscape:deskcolor="#d1d1d1"
     inkscape:zoom="6.0546875"
     inkscape:cx="27.416774"
     inkscape:cy="36.583226"
     inkscape:window-width="1920"
     inkscape:window-height="998"
     inkscape:window-x="0"
     inkscape:window-y="0"
     inkscape:window-maximized="1"
     inkscape:current-layer="svg6" />
  <g
     id="g6"
     transform="translate(-0.5,-1)">
    <ellipse
       style="opacity:0.2;stroke-width:0.982303"
       cx="31.5"
       cy="32.49123"
       id="circle1"
       rx="27.5"
       ry="27.50877" />
    <ellipse
       style="fill:url(#linearGradient7);stroke-width:0.982303"
       cx="31.5"
       cy="31.50877"
       id="circle2"
       rx="27.5"
       ry="27.50877" />
    <path
       style="opacity:0.2;stroke-width:0.982303"
       d="M 43.922567,7.9797142 33.042266,28.630478 c -0.125673,0.22119 -0.246673,0.444908 -0.35679,0.671602 l -0.05758,0.10746 0.004,0.004 c -1.975817,4.179922 -1.342868,9.203993 1.734098,12.760409 3.370897,3.89615 8.901368,5.148117 13.623395,3.089369 4.722023,-2.058755 7.571654,-6.966513 7.013111,-12.088816 -0.558541,-5.122307 -4.398441,-9.304595 -9.453124,-10.296597 -0.127951,-0.02652 -0.256806,-0.03766 -0.387488,-0.03836 -2.392026,-0.0078 -2.719387,3.458246 -0.368302,3.89912 3.383084,0.66395 5.925693,3.433499 6.299523,6.861841 0.373835,3.428341 -1.512413,6.681295 -4.672851,8.059212 -3.16043,1.377914 -6.828686,0.546821 -9.084818,-2.060855 -2.256129,-2.607684 -2.553331,-6.356278 -0.736608,-9.287281 0.07548,-0.113434 0.141371,-0.234186 0.191835,-0.360748 L 47.302517,9.9983576 A 27.499996,27.508766 0 0 0 43.922567,7.9797142 Z M 7.9285711,22.666665 a 1.964452,1.9650785 0 0 0 -1.6343468,3.054824 l 3.9285677,5.894733 A 1.964452,1.9650785 0 1 0 13.49149,29.436399 L 11.600096,26.596486 H 24.275879 L 11.132044,50.927623 a 27.499996,27.508766 0 0 0 2.934921,2.820724 L 29.301684,25.564141 A 1.964452,1.9650785 0 0 0 27.571427,22.666665 Z M 35.090958,50.17543 c -0.900126,0 -1.626678,0.868798 -1.626678,1.94572 v 0.03836 c 0,1.076921 0.726552,1.945723 1.626678,1.945723 h 13.412381 a 27.499996,27.508766 0 0 0 4.059016,-3.929821 z"
       id="path2" />
    <path
       style="fill:#f2f2f2;stroke-width:0.982303;fill-opacity:1"
       d="M 43.922567,6.9972584 33.042266,27.648019 c -0.125673,0.22119 -0.246673,0.44491 -0.35679,0.671603 l -0.05758,0.10746 0.004,0.004 c -1.975817,4.179922 -1.342868,9.203993 1.734098,12.760415 3.370897,3.896144 8.901368,5.148117 13.623395,3.089362 4.722023,-2.058754 7.571654,-6.966511 7.013111,-12.088813 -0.558541,-5.122308 -4.398441,-9.304596 -9.453124,-10.296597 -0.127951,-0.02652 -0.256806,-0.03766 -0.387488,-0.03836 -2.392026,-0.0078 -2.719387,3.458249 -0.368302,3.899126 3.383084,0.663947 5.925693,3.433495 6.299523,6.861837 0.373835,3.428341 -1.512413,6.681301 -4.672851,8.059212 -3.16043,1.377914 -6.828686,0.546825 -9.084818,-2.060855 -2.256129,-2.60768 -2.553331,-6.356273 -0.736608,-9.287279 0.07548,-0.113434 0.141371,-0.234183 0.191835,-0.360745 L 47.302517,9.0158979 A 27.499996,27.508766 0 0 0 43.922567,6.9972584 Z M 7.9285711,21.684207 a 1.964452,1.9650785 0 0 0 -1.6343468,3.054826 l 3.9285677,5.894736 A 1.964452,1.9650785 0 1 0 13.49149,28.45394 L 11.600096,25.614033 H 24.275879 L 11.132044,49.945165 a 27.499996,27.508766 0 0 0 2.934921,2.820723 L 29.301684,24.581685 a 1.964452,1.9650785 0 0 0 -1.730257,-2.897478 z"
       id="path3" />
    <path
       style="fill:#ffb380;stroke-width:0.982303"
       d="m 35.090958,49.192972 c -0.900126,0 -1.626678,0.868804 -1.626678,1.945725 v 0.03836 c 0,1.076921 0.726552,1.945729 1.626678,1.945729 h 13.412381 a 27.499996,27.508766 0 0 0 4.059016,-3.929827 z"
       id="path4" />
    <path
       style="opacity:0.1;fill:#ffffff;stroke-width:0.982303"
       d="M 31.499996,4 A 27.499996,27.508766 0 0 0 4,31.508766 27.499996,27.508766 0 0 0 4.0172646,31.992321 27.499996,27.508766 0 0 1 31.499996,4.9824559 27.499996,27.508766 0 0 1 58.975056,31.992321 27.499996,27.508766 0 0 0 58.99999,31.508766 27.499996,27.508766 0 0 0 31.499996,4 Z"
       id="path5" />
    <path
       style="opacity:0.2;fill:#ffffff;stroke-width:0.982303"
       d="m 35.090958,49.192972 c -0.900126,0 -1.626678,0.868805 -1.626678,1.945726 v 0.03836 c 0,0.156702 0.02773,0.303026 0.06138,0.445174 0.184483,-0.832529 0.810324,-1.446815 1.565291,-1.446815 h 16.554475 a 27.499996,27.508766 0 0 0 0.916922,-0.982458 z"
       id="path6" />
  </g>
</svg>
