<?xml version="1.0" encoding="UTF-8" standalone="no"?>
<svg
   width="62"
   height="62"
   version="1.1"
   id="svg6"
   sodipodi:docname="tartube.svg"
   inkscape:version="1.4 (unknown)"
   xmlns:inkscape="http://www.inkscape.org/namespaces/inkscape"
   xmlns:sodipodi="http://sodipodi.sourceforge.net/DTD/sodipodi-0.dtd"
   xmlns="http://www.w3.org/2000/svg"
   xmlns:svg="http://www.w3.org/2000/svg">
  <defs
     id="defs6" />
  <sodipodi:namedview
     id="namedview6"
     pagecolor="#ffffff"
     bordercolor="#000000"
     borderopacity="0.25"
     inkscape:showpageshadow="2"
     inkscape:pageopacity="0.0"
     inkscape:pagecheckerboard="0"
     inkscape:deskcolor="#d1d1d1"
     inkscape:zoom="12.109375"
     inkscape:cx="32"
     inkscape:cy="32"
     inkscape:window-width="1920"
     inkscape:window-height="998"
     inkscape:window-x="0"
     inkscape:window-y="0"
     inkscape:window-maximized="1"
     inkscape:current-layer="svg6" />
  <g
     id="g7"
     transform="matrix(0.9821408,0,0,0.98245672,-0.42856462,-0.92982827)">
    <g
       id="g6">
      <circle
         style="opacity:0.2"
         cx="-0.70700002"
         cy="45.962002"
         r="28"
         transform="rotate(-45)"
         id="circle1" />
      <circle
         style="fill:#c744ee;fill-opacity:1"
         cx="-3.5527137e-15"
         cy="45.255001"
         r="28"
         transform="rotate(-45)"
         id="circle2" />
      <path
         style="opacity:0.2;fill:#ffffff"
         d="m 51.798992,12.201012 -39.59798,39.59798 c -10.9346806,-10.93468 -10.9346806,-28.6633 0,-39.59798 10.93468,-10.9346806 28.6633,-10.9346806 39.59798,0 z"
         id="path2" />
      <path
         style="opacity:0.2"
         d="M 24.270494,21.000579 A 2.219001,2.154673 0 0 0 22,23.153983 v 19.693138 a 2.219001,2.154673 0 0 0 3.326538,1.865306 l 17.563024,-9.846568 a 2.219001,2.154673 0 0 0 0,-3.733054 L 25.326538,21.288677 a 2.219001,2.154673 0 0 0 -1.056044,-0.288098 z"
         id="path3" />
      <path
         style="fill:#f2f2f2;fill-opacity:1"
         d="M 24.270494,20.00058 A 2.219001,2.154673 0 0 0 22,22.153984 v 19.693138 a 2.219001,2.154673 0 0 0 3.326538,1.865306 L 42.889562,33.86586 a 2.219001,2.154673 0 0 0 0,-3.733054 L 25.326538,20.288678 A 2.219001,2.154673 0 0 0 24.270494,20.00058 Z"
         id="path4" />
      <path
         style="fill:#c83771"
         d="M 26,26 38,31.998802 26,38 Z"
         id="path5" />
      <path
         style="opacity:0.2;fill:#ffffff"
         d="M 32.410156,4.0039062 A 28,28 0 0 0 12.199219,12.199219 28,28 0 0 0 4.0507812,32.886719 28,28 0 0 1 4.0605469,32.775391 28,28 0 0 1 12.199219,13.199219 28,28 0 0 1 32.410156,5.0039062 28,28 0 0 1 51.800781,13.199219 28,28 0 0 1 59.9375,32.921875 28,28 0 0 1 59.949219,33.113281 28,28 0 0 0 51.800781,12.199219 28,28 0 0 0 32.410156,4.0039062 Z"
         id="path6" />
    </g>
  </g>
</svg>
