<?xml version="1.0" encoding="UTF-8" standalone="no"?>
<svg
   width="62"
   height="62"
   viewBox="0 0 62 62"
   fill="none"
   version="1.1"
   id="svg14"
   sodipodi:docname="tdewalletmanager.svg"
   inkscape:version="1.4 (unknown)"
   xmlns:inkscape="http://www.inkscape.org/namespaces/inkscape"
   xmlns:sodipodi="http://sodipodi.sourceforge.net/DTD/sodipodi-0.dtd"
   xmlns:xlink="http://www.w3.org/1999/xlink"
   xmlns="http://www.w3.org/2000/svg"
   xmlns:svg="http://www.w3.org/2000/svg">
  <sodipodi:namedview
     id="namedview14"
     pagecolor="#ffffff"
     bordercolor="#000000"
     borderopacity="0.25"
     inkscape:showpageshadow="2"
     inkscape:pageopacity="0.0"
     inkscape:pagecheckerboard="0"
     inkscape:deskcolor="#d1d1d1"
     inkscape:zoom="6.0546875"
     inkscape:cx="27.251613"
     inkscape:cy="50.291613"
     inkscape:window-width="1920"
     inkscape:window-height="998"
     inkscape:window-x="0"
     inkscape:window-y="0"
     inkscape:window-maximized="1"
     inkscape:current-layer="svg14" />
  <g
     id="g14"
     transform="matrix(0.99808063,0,0,0.99808063,0.05950047,-1.8867562)">
    <path
       d="m 5.16486,24.297698 c -0.60296,-1.8006 0.49976,-3.7803 2.46298,-4.4216 L 46.7299,7.101598 c 1.9632,-0.64138 4.0435,0.29838 4.6465,2.09902 l 5.4587,16.30168 c 0.603,1.8006 -0.4997,3.7803 -2.4629,4.4216 l -39.1021,12.7745 c -1.9632,0.6414 -4.0435,-0.2984 -4.6465,-2.099 z"
       id="path1"
       style="fill:url(#linearGradient22)" />
    <path
       fill-rule="evenodd"
       clip-rule="evenodd"
       d="m 13.6237,23.329398 c 0.52,1.5236 -0.3329,3.1672 -1.9048,3.6711 -0.472,0.1513 -0.8385,0.6271 -0.6824,1.0846 l 1.9778,5.7956 c 0.1561,0.4575 0.743,0.6276 1.215,0.4763 1.5719,-0.504 3.2677,0.3226 3.7876,1.8462 0.1561,0.4575 0.6469,0.8127 1.1189,0.6614 l 28.7491,-9.2164 c 0.472,-0.1513 0.6475,-0.7201 0.4914,-1.1776 -0.52,-1.5236 0.3329,-3.1672 1.9048,-3.6711 0.472,-0.1513 0.8385,-0.6271 0.6824,-1.0846 l -1.9778,-5.7956 c -0.1561,-0.4575 -0.743,-0.6276 -1.215,-0.4763 -1.5719,0.504 -3.2677,-0.3226 -3.7876,-1.8462 -0.1561,-0.4575 -0.6469,-0.81273 -1.1189,-0.6614 l -28.7491,9.2164 c -0.472,0.1513 -0.6475,0.7202 -0.4914,1.1776 z m 29.3887,-0.24 c 1.0479,-0.336 1.6164,-1.4317 1.2698,-2.4474 -0.3466,-1.0157 -1.4771,-1.5668 -2.525,-1.2308 -1.048,0.3359 -1.6165,1.4316 -1.2699,2.4474 0.3466,1.0157 1.4771,1.5667 2.5251,1.2308 z m -21.4997,4.852 c 0.3466,1.0158 -0.2219,2.1115 -1.2699,2.4474 -1.0479,0.336 -2.1784,-0.2151 -2.525,-1.2308 -0.3466,-1.0157 0.2219,-2.1114 1.2698,-2.4474 1.048,-0.3359 2.1785,0.2151 2.5251,1.2308 z m 10.7425,0.6368 c 2.0959,-0.6719 3.2329,-2.8634 2.5397,-4.8948 -0.6932,-2.0314 -2.9542,-3.1335 -5.0501,-2.4616 -2.0959,0.6719 -3.2329,2.8634 -2.5397,4.8948 0.6932,2.0314 2.9542,3.1335 5.0501,2.4616 z"
       id="path2"
       style="fill:#f2f2f2;fill-opacity:1" />
    <path
       d="m 3,26.999999 c 0,-3.3137 2.68629,-6 6,-6 h 42 c 3.3137,0 6,2.6863 6,6 v 26 c 0,3.3137 -2.6863,6 -6,6 H 9 c -3.31371,0 -6,-2.6863 -6,-6 z"
       id="path3"
       style="fill:url(#linearGradient16)" />
    <path
       d="m 39,38.999999 c 0,-3.866 3.134,-7 7,-7 h 11 c 1.1046,0 2,0.8954 2,2 v 10 c 0,1.1046 -0.8954,2 -2,2 H 46 c -3.866,0 -7,-3.134 -7,-7 z"
       id="path4"
       style="fill:url(#linearGradient18)" />
    <path
       d="m 46,41.999999 c 1.6569,0 3,-1.3431 3,-3 0,-1.6569 -1.3431,-3 -3,-3 -1.6569,0 -3,1.3431 -3,3 0,1.6569 1.3431,3 3,3 z"
       id="path5"
       style="fill:url(#linearGradient20)" />
  </g>
  <defs
     id="defs14">
    <linearGradient
       id="linearGradient21"
       inkscape:collect="always">
      <stop
         style="stop-color:#00b3b3;stop-opacity:1;"
         offset="0"
         id="stop21" />
      <stop
         style="stop-color:#00b247;stop-opacity:1;"
         offset="1"
         id="stop22" />
    </linearGradient>
    <linearGradient
       id="linearGradient17"
       inkscape:collect="always">
      <stop
         style="stop-color:#00b2b2;stop-opacity:1;"
         offset="0"
         id="stop17" />
      <stop
         style="stop-color:#004d4d;stop-opacity:1;"
         offset="1"
         id="stop18" />
    </linearGradient>
    <linearGradient
       id="linearGradient14"
       inkscape:collect="always">
      <stop
         style="stop-color:#476082;stop-opacity:1;"
         offset="0"
         id="stop15" />
      <stop
         style="stop-color:#2d3d53;stop-opacity:1;"
         offset="1"
         id="stop16" />
    </linearGradient>
    <linearGradient
       id="paint0_linear_328_662"
       x1="55.6516"
       y1="16.0816"
       x2="22.3402"
       y2="-6.8956599"
       gradientUnits="userSpaceOnUse"
       gradientTransform="translate(-1,2.899998)">
      <stop
         offset="0.423361"
         stop-color="#089953"
         id="stop5" />
      <stop
         offset="1"
         stop-color="#16D96F"
         id="stop6" />
    </linearGradient>
    <linearGradient
       id="paint1_linear_328_662"
       x1="12"
       y1="10"
       x2="33.176498"
       y2="45.294102"
       gradientUnits="userSpaceOnUse"
       gradientTransform="translate(-1,2.899998)">
      <stop
         stop-color="white"
         id="stop7" />
      <stop
         offset="0.70499998"
         stop-color="#EAEFEF"
         id="stop8"
         style="stop-color:#ebf0f0;stop-opacity:1;" />
    </linearGradient>
    <linearGradient
       id="paint2_linear_328_662"
       x1="58"
       y1="60"
       x2="22.231199"
       y2="9.17064"
       gradientUnits="userSpaceOnUse"
       gradientTransform="translate(-1,-1.000001)">
      <stop
         offset="0.266972"
         stop-color="#2E2E41"
         id="stop9" />
      <stop
         offset="1"
         stop-color="#566C80"
         id="stop10" />
    </linearGradient>
    <linearGradient
       id="paint3_linear_328_662"
       x1="58.695702"
       y1="47"
       x2="58.695702"
       y2="33"
       gradientUnits="userSpaceOnUse"
       gradientTransform="translate(-1,-1.000001)">
      <stop
         offset="0.340681"
         stop-color="#2E2E41"
         id="stop11" />
      <stop
         offset="1"
         stop-color="#566C80"
         id="stop12" />
    </linearGradient>
    <linearGradient
       id="paint4_linear_328_662"
       x1="47"
       y1="43"
       x2="47"
       y2="37"
       gradientUnits="userSpaceOnUse"
       gradientTransform="translate(-1,-1.000001)">
      <stop
         stop-color="#71706E"
         id="stop13" />
      <stop
         offset="1"
         stop-color="#B9AA99"
         id="stop14" />
    </linearGradient>
    <linearGradient
       inkscape:collect="always"
       xlink:href="#linearGradient14"
       id="linearGradient16"
       x1="3"
       y1="20.999998"
       x2="57"
       y2="59"
       gradientUnits="userSpaceOnUse" />
    <linearGradient
       inkscape:collect="always"
       xlink:href="#linearGradient17"
       id="linearGradient18"
       x1="39"
       y1="31.999998"
       x2="57"
       y2="46"
       gradientUnits="userSpaceOnUse" />
    <linearGradient
       inkscape:collect="always"
       xlink:href="#linearGradient14"
       id="linearGradient20"
       x1="43"
       y1="39"
       x2="49"
       y2="39"
       gradientUnits="userSpaceOnUse" />
    <linearGradient
       inkscape:collect="always"
       xlink:href="#linearGradient21"
       id="linearGradient22"
       x1="21.382408"
       y1="6.9000001"
       x2="56.999984"
       y2="24.900001"
       gradientUnits="userSpaceOnUse" />
  </defs>
</svg>
