<?xml version="1.0" encoding="UTF-8" standalone="no"?>
<svg
   width="62"
   height="62"
   version="1"
   id="svg12"
   sodipodi:docname="teamcity.svg"
   inkscape:version="1.4 (unknown)"
   xmlns:inkscape="http://www.inkscape.org/namespaces/inkscape"
   xmlns:sodipodi="http://sodipodi.sourceforge.net/DTD/sodipodi-0.dtd"
   xmlns="http://www.w3.org/2000/svg"
   xmlns:svg="http://www.w3.org/2000/svg">
  <defs
     id="defs12" />
  <sodipodi:namedview
     id="namedview12"
     pagecolor="#ffffff"
     bordercolor="#000000"
     borderopacity="0.25"
     inkscape:showpageshadow="2"
     inkscape:pageopacity="0.0"
     inkscape:pagecheckerboard="0"
     inkscape:deskcolor="#d1d1d1"
     inkscape:zoom="6.0546875"
     inkscape:cx="25.104516"
     inkscape:cy="40.712258"
     inkscape:window-width="1920"
     inkscape:window-height="998"
     inkscape:window-x="0"
     inkscape:window-y="0"
     inkscape:window-maximized="1"
     inkscape:current-layer="svg12" />
  <path
     style="opacity:0.2;stroke-width:0.982303"
     d="M 6.250767,59 C 4.7272678,59 3.5,57.772338 3.5,56.248358 v -1.96492 c 0,1.52399 1.2272678,2.751652 2.750767,2.751652 H 31 55.749235 c 1.523504,0 2.750765,-1.227662 2.750765,-2.751652 v 1.96492 C 58.5,57.772338 57.272739,59 55.749235,59 H 31 Z"
     id="path1" />
  <path
     style="fill:#8d5fd3;stroke-width:0.982303"
     d="M 31,3 H 6.25 C 4.7264999,3 3.5,4.226891 3.5,5.750877 V 30.50877 H 31 Z"
     id="path2" />
  <path
     style="fill:#37c871;stroke-width:0.982303"
     d="M 31,3 H 55.750007 C 57.273501,3 58.5,4.226891 58.5,5.750877 V 30.50877 H 31 Z"
     id="path3" />
  <path
     style="fill:#00b5b5;stroke-width:0.982303;fill-opacity:1"
     d="M 31,58.01754 H 6.25 c -1.5235001,0 -2.75,-1.22689 -2.75,-2.75087 V 30.50877 H 31 Z"
     id="path4" />
  <path
     style="fill:#2a7fff;stroke-width:0.982303"
     d="M 31,58.01754 H 55.750007 C 57.273501,58.01754 58.5,56.79065 58.5,55.26667 V 30.50877 H 31 Z"
     id="path5" />
  <path
     style="opacity:0.2;fill:#ffffff;stroke-width:0.982303"
     d="M 6.250767,3 C 4.7272678,3 3.5,4.2276592 3.5,5.7516442 v 0.982457 C 3.5,5.2101153 4.7272678,3.982456 6.250767,3.982456 H 31 55.749236 C 57.27274,3.982456 58.5,5.2101152 58.5,6.7341012 V 5.7516442 C 58.5,4.2276593 57.27274,3 55.749236,3 H 31 Z"
     id="path6" />
  <g
     id="g12"
     transform="matrix(0.99272711,0,0,0.99241065,0.22545675,0.72276985)">
    <rect
       style="fill:#2d3d53;fill-opacity:1;stroke-width:0.982303"
       width="39.285721"
       height="39.298248"
       x="11.357142"
       y="10.859648"
       id="rect6"
       ry="3.9293983"
       rx="3.4683871" />
    <path
       style="opacity:0.2;fill:none;stroke:#000000;stroke-width:3.92917;stroke-linecap:round;stroke-linejoin:bevel"
       d="m 40.821906,31.490278 c 0,0 0,1.964916 -3.928567,1.964916 -3.928566,0 -3.928566,-3.929832 -3.928566,-7.859656 0,-3.929824 0,-7.859647 3.928566,-7.859647 3.928567,0 3.928567,1.964907 3.928567,1.964907"
       id="path7" />
    <path
       style="fill:none;stroke:#f2f2f2;stroke-width:3.92917;stroke-linecap:round;stroke-linejoin:bevel;stroke-opacity:1"
       d="m 40.821906,30.508018 c 0,0 0,1.964916 -3.928567,1.964916 -3.928566,0 -3.928566,-3.929832 -3.928566,-7.859656 0,-3.929824 0,-7.859647 3.928566,-7.859647 3.928567,0 3.928567,1.964906 3.928567,1.964906"
       id="path8" />
    <path
       style="opacity:0.2;fill:none;stroke:#000000;stroke-width:3.92917;stroke-linecap:round"
       d="M 17.250484,45.24542 H 32.964771"
       id="path9" />
    <path
       style="fill:none;stroke:#f2f2f2;stroke-width:3.92917;stroke-linecap:round;stroke-opacity:1"
       d="M 17.250484,44.26316 H 32.964771"
       id="path10" />
    <path
       style="opacity:0.2;fill:none;stroke:#000000;stroke-width:3.92917;stroke-linecap:round"
       d="m 17.25048,17.736361 h 7.857141 M 21.17905,33.455666 V 17.736361"
       id="path11" />
    <path
       style="fill:none;stroke:#f2f2f2;stroke-width:3.92917;stroke-linecap:round;stroke-opacity:1"
       d="m 17.25048,16.754101 h 7.857141 M 21.17905,32.473406 V 16.754101"
       id="path12" />
  </g>
</svg>
