<?xml version="1.0" encoding="UTF-8" standalone="no"?>
<svg
   width="62"
   height="62"
   version="1"
   id="svg13"
   sodipodi:docname="tilesetter.svg"
   inkscape:version="1.4 (unknown)"
   xmlns:inkscape="http://www.inkscape.org/namespaces/inkscape"
   xmlns:sodipodi="http://sodipodi.sourceforge.net/DTD/sodipodi-0.dtd"
   xmlns:xlink="http://www.w3.org/1999/xlink"
   xmlns="http://www.w3.org/2000/svg"
   xmlns:svg="http://www.w3.org/2000/svg">
  <defs
     id="defs13">
    <linearGradient
       id="linearGradient1"
       inkscape:collect="always">
      <stop
         style="stop-color:#4d4d4d;stop-opacity:1;"
         offset="0"
         id="stop1" />
      <stop
         style="stop-color:#334468;stop-opacity:1;"
         offset="1"
         id="stop2" />
    </linearGradient>
    <linearGradient
       inkscape:collect="always"
       xlink:href="#linearGradient1"
       id="linearGradient2"
       x1="31.000013"
       y1="57.998589"
       x2="31.000013"
       y2="3.030982"
       gradientUnits="userSpaceOnUse" />
  </defs>
  <sodipodi:namedview
     id="namedview13"
     pagecolor="#ffffff"
     bordercolor="#000000"
     borderopacity="0.25"
     inkscape:showpageshadow="2"
     inkscape:pageopacity="0.0"
     inkscape:pagecheckerboard="0"
     inkscape:deskcolor="#d1d1d1"
     inkscape:zoom="5"
     inkscape:cx="25.5"
     inkscape:cy="50.7"
     inkscape:window-width="1920"
     inkscape:window-height="998"
     inkscape:window-x="0"
     inkscape:window-y="0"
     inkscape:window-maximized="1"
     inkscape:current-layer="svg13" />
  <rect
     width="55.997971"
     height="55.969017"
     x="3.0020294"
     y="3.0000002"
     rx="13.001064"
     ry="12.994343"
     id="rect1"
     style="fill:url(#linearGradient2);fill-opacity:1;stroke-width:0.99967" />
  <path
     d="m 3.0000281,45.004248 v 0.999411 C 3.0000281,53.202417 8.7996109,59 16.003093,59 H 45.996935 C 53.199417,59 59,53.203416 59,46.003659 V 45.004248 C 59,52.203006 53.200417,57.99859 45.996935,57.99859 H 16.003093 A 12.974067,12.967359 0 0 1 3.0000281,45.004248"
     opacity="0.35"
     id="path1"
     style="stroke-width:0.99967" />
  <path
     fill="#ffffff"
     d="m 3.0000281,17.026735 v -0.999411 c 0,-7.1987583 5.7995828,-12.9963419 13.0030649,-12.9963419 H 45.996935 C 53.199417,3.0309821 59,8.8275662 59,16.027324 v 0.999411 C 59,9.8279767 53.200417,4.032392 45.996935,4.032392 H 16.003093 A 12.974067,12.967359 0 0 0 3.0000281,17.026735"
     opacity="0.15"
     id="path2"
     style="stroke-width:0.99967" />
  <g
     id="g1"
     transform="matrix(1.0118988,0,0,1.0064437,5.7024051,-51.89951)">
    <path
       style="opacity:0.2"
       d="m 25.650393,63.00325 c -2.263229,-0.03791 -4.618114,0.329754 -7.06836,1.103516 -3.266995,1.066073 -6.018941,2.991873 -8.357422,5.605468 -0.275106,0.343894 -0.482147,0.790451 -0.207031,1.203125 0.275124,0.378283 0.137977,0.515901 -0.06836,0.791016 -1.650693,2.269701 -2.786125,4.8133 -3.267578,7.564453 -0.06878,0.378284 -0.205354,0.516733 -0.480469,0.654297 -1.134851,0.550231 -1.858116,1.547904 -2.064453,2.820312 -0.13756,0.790955 4.2e-4,1.547772 -0.06836,2.201172 0,0.687786 4.21e-4,1.202561 -0.06836,1.615235 0,2.613594 1.385638,4.231314 3.964844,4.09375 0.653399,0 0.996094,-0.379459 0.996094,-0.929688 0.06877,-1.685082 0.07031,-3.336402 0.07031,-5.021484 0,-1.75386 -0.07046,-3.60942 0.273438,-5.363281 1.960197,-10.248048 13.952861,-15.85442 22.96289,-10.902344 5.467918,3.026271 8.520227,7.773143 8.726563,14.066406 0.06877,2.338482 0,4.675192 0,7.013672 0,0.584621 0.240784,0.999155 0.791015,1.136719 1.994586,0.447062 3.757668,-0.963978 4.101563,-3.027344 0.206334,-1.409965 0.06836,-2.820503 0.06836,-4.230469 0,-1.616302 -0.722847,-2.818839 -2.132812,-3.541015 C 43.61593,79.719207 43.410569,79.5811 43.341799,79.305984 42.825959,76.486053 41.690942,73.872979 40.005861,71.5345 39.868293,71.396941 39.661266,71.259955 39.79883,71.122391 40.521009,70.193876 39.800231,69.676529 39.250002,69.126297 35.15981,65.130676 30.629495,63.086646 25.650393,63.00325 Z M 15.483877,83.743484 c -1.154182,-0.08551 -2.093943,0.760949 -2.337891,2.201172 -0.390317,2.112333 2.45e-4,4.097145 1.138672,5.857422 0.813161,1.248197 1.950971,1.791902 3.34961,1.919922 0.780633,-0.032 3.936084,0.127896 4.61914,-0.160156 0.878214,-0.320051 1.52945,-0.927765 1.72461,-1.919922 0.195157,-0.992157 -0.943911,-2.368366 -2.472657,-3.808594 -1.593796,-1.504237 -3.676028,-3.10555 -4.814453,-3.681641 -0.414712,-0.248038 -0.822304,-0.379699 -1.207031,-0.408203 z m 19.361555,2.994141 c -0.175041,-6.6e-5 -0.356542,0.01708 -0.544922,0.05078 -1.37878,0.202218 -2.565884,0.842612 -3.816406,1.314453 -1.122262,0.471842 -2.116354,1.043692 -2.917969,1.785157 -1.122262,1.112197 -0.511601,2.628222 1.251953,3.201171 0.224452,0.101109 0.543774,0.168923 0.896484,0.236329 0.994003,0.13482 1.923964,0.336892 2.917969,0.404297 1.31465,0.0674 2.30939,-0.337114 3.046875,-1.179688 0.929876,-1.044792 1.378581,-2.358413 1.314453,-3.740234 -0.05611,-1.268073 -0.923155,-2.071805 -2.148437,-2.072265 z m 6.031523,5.005859 c -0.194801,-0.03349 -0.423728,0.08834 -0.554687,0.283203 -0.663524,1.948608 -3.736186,8.476193 -14.212891,9.158203 -12.362512,0.81192 6.598754,3.27975 12.011719,-0.45508 1.850886,-1.331545 3.946799,-2.661881 3.876953,-6.494138 0,-0.746966 -0.3846,-2.014577 -0.943359,-2.404297 -0.05238,-0.04872 -0.112801,-0.07673 -0.177735,-0.08789 z"
       id="path2-36" />
    <path
       style="fill:#ffffff"
       class="st0"
       d="m 4.068773,83.945907 c 0.06878,-0.6534 -0.06878,-1.409968 0.06878,-2.200923 0.206337,-1.272409 0.928514,-2.269703 2.063365,-2.819934 0.275115,-0.137564 0.412672,-0.275115 0.481451,-0.653399 0.481453,-2.751153 1.616303,-5.295971 3.266996,-7.565672 0.206336,-0.275115 0.343894,-0.412673 0.06877,-0.790956 -0.275116,-0.412674 -0.06877,-0.859737 0.206336,-1.203631 2.338481,-2.613595 5.089634,-4.539403 8.356629,-5.605476 7.840787,-2.476038 14.718672,-0.790956 20.668042,5.020856 0.550229,0.550232 1.272408,1.066072 0.550229,1.994587 -0.137564,0.137564 0.06877,0.275115 0.206338,0.412674 1.685081,2.338479 2.819933,4.952076 3.335773,7.772007 0.06877,0.275116 0.275115,0.412674 0.481453,0.550233 1.409965,0.722176 2.132144,1.925807 2.132144,3.542109 0,1.409966 0.137564,2.819933 -0.06877,4.229898 -0.343895,2.063366 -2.107242,3.473332 -4.101828,3.02627 -0.550231,-0.137564 -0.790958,-0.550231 -0.790958,-1.134852 0,-2.33848 0.06877,-4.67696 0,-7.015442 C 40.787187,75.210993 37.736017,70.465254 32.268099,67.438983 23.25807,62.486907 11.265788,68.092382 9.305591,78.34043 c -0.343893,1.753861 -0.275114,3.61089 -0.275114,5.36475 0,1.685082 0,3.335774 -0.06877,5.020856 0,0.550229 -0.343895,0.928514 -0.997294,0.928514 -2.579206,0.137564 -3.964408,-1.478746 -3.964408,-4.09234 0.06878,-0.412674 0.06878,-0.928517 0.06878,-1.616303"
       id="path3" />
    <path
       style="fill:#ffffff"
       class="st0"
       d="m 22.253794,92.561469 c 0.878214,-0.320051 1.528744,-0.928147 1.723904,-1.920304 0.195157,-0.992157 -0.943267,-2.368373 -2.472013,-3.808601 -1.593796,-1.504237 -3.675492,-3.104491 -4.813917,-3.680581 -1.658851,-0.992155 -3.220121,-0.128014 -3.545385,1.792283 -0.390317,2.112333 0,4.096647 1.138427,5.856924 0.813161,1.248197 1.951587,1.792283 3.350226,1.920303 0.780633,-0.032 3.935702,0.128028 4.618758,-0.160024"
       id="path4" />
    <path
       style="fill:#ffffff"
       class="st0"
       d="m 29.71531,92.325833 c 0.994003,0.13482 1.923879,0.33703 2.917883,0.404435 1.314649,0.0674 2.308653,-0.337029 3.046139,-1.179603 0.929875,-1.044792 1.378779,-2.359205 1.314651,-3.741026 -0.06413,-1.449226 -1.186391,-2.2918 -2.69343,-2.022176 -1.378779,0.202218 -2.56517,0.842573 -3.815692,1.314414 -1.122262,0.471842 -2.116266,1.044792 -2.917882,1.786257 -1.122262,1.112197 -0.513033,2.628828 1.250521,3.201778 0.224453,0.101108 0.545099,0.168515 0.89781,0.235921"
       id="path5" />
    <path
       style="fill:#ffffff"
       class="st0"
       d="m 41.055399,90.831324 c -0.209534,-0.194861 -0.558757,-0.06496 -0.733369,0.194861 -0.663524,1.948607 -3.736692,8.476436 -14.213397,9.158445 -12.362512,0.81192 6.600324,3.28016 12.013289,-0.454673 1.850886,-1.331547 3.946226,-2.663095 3.87638,-6.495352 0,-0.746966 -0.384144,-2.013561 -0.942903,-2.403281"
       id="path6" />
  </g>
</svg>
