<?xml version="1.0" encoding="UTF-8" standalone="no"?>
<svg
   width="62"
   height="62"
   version="1.1"
   id="svg5"
   sodipodi:docname="Temps.svg"
   inkscape:version="1.4.1 (unknown)"
   xmlns:inkscape="http://www.inkscape.org/namespaces/inkscape"
   xmlns:sodipodi="http://sodipodi.sourceforge.net/DTD/sodipodi-0.dtd"
   xmlns:xlink="http://www.w3.org/1999/xlink"
   xmlns="http://www.w3.org/2000/svg"
   xmlns:svg="http://www.w3.org/2000/svg">
  <defs
     id="defs5">
    <linearGradient
       id="linearGradient5"
       inkscape:collect="always">
      <stop
         style="stop-color:#917c6f;stop-opacity:1"
         offset="0"
         id="stop5" />
      <stop
         style="stop-color:#2a7fff;stop-opacity:1"
         offset="1"
         id="stop6" />
    </linearGradient>
    <linearGradient
       inkscape:collect="always"
       xlink:href="#linearGradient5"
       id="linearGradient6"
       x1="31.220819"
       y1="58.495663"
       x2="31.15625"
       y2="3.5020885"
       gradientUnits="userSpaceOnUse" />
    <filter
       id="filter0_f_2_2"
       x="480"
       y="410"
       width="210"
       height="210"
       filterUnits="userSpaceOnUse"
       color-interpolation-filters="sRGB">
      <feFlood
         flood-opacity="0"
         result="BackgroundImageFix"
         id="feFlood9-0" />
      <feBlend
         mode="normal"
         in="SourceGraphic"
         in2="BackgroundImageFix"
         result="shape"
         id="feBlend9-9" />
      <feGaussianBlur
         stdDeviation="22"
         result="effect1_foregroundBlur_2_2"
         id="feGaussianBlur9-1" />
    </filter>
    <linearGradient
       id="paint0_linear_2_2"
       x1="585"
       y1="458"
       x2="585"
       y2="576"
       gradientUnits="userSpaceOnUse"
       gradientTransform="matrix(0.06615854,0,0,0.06615854,-3.560062,-4.124603)">
      <stop
         stop-color="#FFE600"
         id="stop15" />
      <stop
         offset="1"
         stop-color="#FF7A00"
         id="stop16" />
    </linearGradient>
    <linearGradient
       id="paint1_linear_2_2"
       x1="585"
       y1="458"
       x2="585"
       y2="576"
       gradientUnits="userSpaceOnUse"
       gradientTransform="matrix(0.06615854,0,0,0.06615854,-3.560062,-4.124603)">
      <stop
         stop-color="white"
         id="stop17" />
      <stop
         offset="1"
         stop-color="white"
         stop-opacity="0"
         id="stop18" />
    </linearGradient>
    <mask
       id="mask0_2_2"
       maskUnits="userSpaceOnUse"
       x="526"
       y="491"
       width="118"
       height="85">
      <path
         d="m 644,517 c 0,32.585 -26.415,59 -59,59 -32.585,0 -59,-26.415 -59,-59 0,-32.585 21.915,-25 54.5,-25 32.585,0 63.5,-7.585 63.5,25 z"
         fill="url(#paint2_linear_2_2)"
         id="path2-7" />
    </mask>
    <linearGradient
       id="paint2_linear_2_2"
       x1="585"
       y1="458"
       x2="585"
       y2="576"
       gradientUnits="userSpaceOnUse">
      <stop
         stop-color="#FFD600"
         id="stop19" />
      <stop
         offset="1"
         stop-color="#FF7A00"
         id="stop20" />
    </linearGradient>
    <filter
       id="filter1_f_2_2"
       x="423"
       y="491"
       width="266"
       height="191"
       filterUnits="userSpaceOnUse"
       color-interpolation-filters="sRGB">
      <feFlood
         flood-opacity="0"
         result="BackgroundImageFix"
         id="feFlood10" />
      <feBlend
         mode="normal"
         in="SourceGraphic"
         in2="BackgroundImageFix"
         result="shape"
         id="feBlend10-7" />
      <feGaussianBlur
         stdDeviation="7"
         result="effect1_foregroundBlur_2_2"
         id="feGaussianBlur10" />
    </filter>
    <filter
       id="filter2_d_2_2"
       x="341"
       y="477"
       width="338"
       height="261"
       filterUnits="userSpaceOnUse"
       color-interpolation-filters="sRGB">
      <feFlood
         flood-opacity="0"
         result="BackgroundImageFix"
         id="feFlood11-1" />
      <feColorMatrix
         in="SourceAlpha"
         type="matrix"
         values="0 0 0 0 0 0 0 0 0 0 0 0 0 0 0 0 0 0 127 0"
         result="hardAlpha"
         id="feColorMatrix11-1" />
      <feOffset
         dx="-21"
         dy="15"
         id="feOffset11-5" />
      <feGaussianBlur
         stdDeviation="25"
         id="feGaussianBlur11-9" />
      <feComposite
         in2="hardAlpha"
         operator="out"
         id="feComposite11-7" />
      <feColorMatrix
         type="matrix"
         values="0 0 0 0 0.113725 0 0 0 0 0.14902 0 0 0 0 0.27451 0 0 0 0.25 0"
         id="feColorMatrix12-7" />
      <feBlend
         mode="normal"
         in2="BackgroundImageFix"
         result="effect1_dropShadow_2_2"
         id="feBlend12-6" />
      <feBlend
         mode="normal"
         in="SourceGraphic"
         in2="effect1_dropShadow_2_2"
         result="shape"
         id="feBlend13" />
    </filter>
    <linearGradient
       id="paint3_linear_2_2"
       x1="531"
       y1="460.5"
       x2="531"
       y2="695.5"
       gradientUnits="userSpaceOnUse">
      <stop
         stop-color="white"
         id="stop21" />
      <stop
         offset="1"
         stop-color="white"
         stop-opacity="0"
         id="stop22" />
    </linearGradient>
    <linearGradient
       id="paint4_linear_2_2"
       x1="531"
       y1="512"
       x2="531"
       y2="673"
       gradientUnits="userSpaceOnUse">
      <stop
         stop-color="white"
         id="stop23" />
      <stop
         offset="1"
         stop-color="white"
         stop-opacity="0"
         id="stop24" />
    </linearGradient>
    <filter
       id="filter3_d_2_2"
       x="473"
       y="477"
       width="272"
       height="216.353"
       filterUnits="userSpaceOnUse"
       color-interpolation-filters="sRGB">
      <feFlood
         flood-opacity="0"
         result="BackgroundImageFix"
         id="feFlood13" />
      <feColorMatrix
         in="SourceAlpha"
         type="matrix"
         values="0 0 0 0 0 0 0 0 0 0 0 0 0 0 0 0 0 0 127 0"
         result="hardAlpha"
         id="feColorMatrix13-3" />
      <feOffset
         dx="-21"
         dy="15"
         id="feOffset13-6" />
      <feGaussianBlur
         stdDeviation="25"
         id="feGaussianBlur13-5" />
      <feComposite
         in2="hardAlpha"
         operator="out"
         id="feComposite13-6" />
      <feColorMatrix
         type="matrix"
         values="0 0 0 0 0.113438 0 0 0 0 0.148981 0 0 0 0 0.275 0 0 0 0.25 0"
         id="feColorMatrix14-3" />
      <feBlend
         mode="normal"
         in2="BackgroundImageFix"
         result="effect1_dropShadow_2_2"
         id="feBlend14-9" />
      <feBlend
         mode="normal"
         in="SourceGraphic"
         in2="effect1_dropShadow_2_2"
         result="shape"
         id="feBlend15-4" />
    </filter>
    <linearGradient
       id="paint5_linear_2_2"
       x1="638"
       y1="515.5"
       x2="638"
       y2="641.5"
       gradientUnits="userSpaceOnUse">
      <stop
         stop-color="white"
         id="stop25" />
      <stop
         offset="1"
         stop-color="white"
         stop-opacity="0"
         id="stop26" />
    </linearGradient>
    <linearGradient
       id="paint6_linear_2_2"
       x1="630"
       y1="512"
       x2="630"
       y2="628.35303"
       gradientUnits="userSpaceOnUse">
      <stop
         stop-color="white"
         id="stop27" />
      <stop
         offset="1"
         stop-color="white"
         stop-opacity="0"
         id="stop28" />
    </linearGradient>
  </defs>
  <sodipodi:namedview
     id="namedview5"
     pagecolor="#ffffff"
     bordercolor="#000000"
     borderopacity="0.25"
     inkscape:showpageshadow="2"
     inkscape:pageopacity="0.0"
     inkscape:pagecheckerboard="0"
     inkscape:deskcolor="#d1d1d1"
     inkscape:zoom="8.5073785"
     inkscape:cx="32.383654"
     inkscape:cy="34.558237"
     inkscape:window-width="1920"
     inkscape:window-height="998"
     inkscape:window-x="0"
     inkscape:window-y="0"
     inkscape:window-maximized="1"
     inkscape:current-layer="svg5" />
  <path
     style="fill:url(#linearGradient6)"
     d="M 31.155597,2.5018644 A 6.5946984,6.3671019 0 0 0 27.70165,3.3512513 L 8.2973497,14.167885 a 6.5946984,6.3671019 0 0 0 -3.2973492,5.513914 v 21.633667 a 6.5946984,6.3671019 0 0 0 3.2973492,5.513915 L 27.70225,57.646215 a 6.5946984,6.3671019 0 0 0 6.594699,0 L 53.70185,46.829381 a 6.5946984,6.3671019 0 0 0 3.297949,-5.515915 V 19.679799 A 6.5946984,6.3671019 0 0 0 53.70185,14.165885 L 34.298149,3.3492513 A 6.5946984,6.3671019 0 0 0 31.156197,2.4998644 Z"
     id="path1" />
  <path
     style="opacity:0.2;fill:#ffffff"
     d="M 31.15625,2.5020886 A 6.5947745,6.3719333 0 0 0 27.703125,3.3536511 L 8.296875,14.17787 A 6.5947745,6.3719333 0 0 0 5,19.697401 v 1.001953 A 6.5947745,6.3719333 0 0 1 8.296875,15.17787 L 27.703125,4.3536511 A 6.5947745,6.3719333 0 0 1 31.15625,3.5020886 6.5947745,6.3719333 0 0 1 34.296875,4.3536511 L 53.703125,15.17787 A 6.5947745,6.3719333 0 0 1 57,20.699354 V 19.697401 A 6.5947745,6.3719333 0 0 0 53.703125,14.17787 L 34.296875,3.3536511 A 6.5947745,6.3719333 0 0 0 31.15625,2.5020886 Z"
     id="path2" />
  <path
     style="opacity:0.2"
     d="m 5,40.300995 a 6.5946984,6.3721235 0 0 0 0.00195,0.07422 v -0.07422 z m 0.00195,1 v 1 a 6.5946984,6.3721235 0 0 0 3.296875,5.517578 l 19.406253,10.828125 a 6.5946984,6.3721235 0 0 0 6.59375,0 L 53.703125,47.818573 A 6.5946984,6.3721235 0 0 0 57,42.300995 v -1 a 6.5946984,6.3721235 0 0 1 -3.296875,5.517578 L 34.298828,57.646698 a 6.5946984,6.3721235 0 0 1 -6.59375,0 L 8.2988281,46.818573 a 6.5946984,6.3721235 0 0 1 -3.296875,-5.517578 z"
     id="path3" />
  <g
     id="g7"
     transform="matrix(1.6888885,0,0,1.6888885,-25.31357,-27.344881)">
    <g
       filter="url(#filter0_f_2_2)"
       id="g1"
       transform="matrix(0.06615854,0,0,0.06615854,-3.560062,-4.125001)">
      <circle
         cx="585"
         cy="515"
         r="61"
         fill="#ffc701"
         fill-opacity="0.5"
         id="circle1" />
    </g>
    <circle
       cx="35.142681"
       cy="30.079353"
       r="3.8371952"
       stroke-width="0.132317"
       id="circle2"
       style="fill:url(#paint0_linear_2_2);stroke:url(#paint1_linear_2_2)" />
    <g
       mask="url(#mask0_2_2)"
       id="g4"
       transform="matrix(0.06615854,0,0,0.06615854,-3.560062,-4.124603)">
      <g
         filter="url(#filter1_f_2_2)"
         id="g3" />
    </g>
    <g
       filter="url(#filter2_d_2_2)"
       data-figma-bg-blur-radius="14"
       id="g6"
       transform="matrix(0.06615854,0,0,0.06615854,-3.560062,-3.324997)">
      <mask
         id="mask1"
         fill="#ffffff">
        <path
           fill-rule="evenodd"
           clip-rule="evenodd"
           d="m 606.5,672.997 c 0.166,0.002 0.333,0.003 0.5,0.003 23.748,0 43,-19.252 43,-43 0,-23.748 -19.252,-43 -43,-43 -0.167,0 -0.334,10e-4 -0.5,0.003 V 587 h -11.109 c 0.402,-2.943 0.609,-5.947 0.609,-9 0,-36.451 -29.549,-66 -66,-66 -36.451,0 -66,29.549 -66,66 0,3.439 0.263,6.817 0.77,10.115 C 461.631,587.386 458.361,587 455,587 c -23.748,0 -43,19.252 -43,43 0,23.748 19.252,43 43,43 0.168,0 0.335,-10e-4 0.502,-0.003 L 455.5,673 h 151 z"
           id="path1-8" />
      </mask>
      <path
         fill-rule="evenodd"
         clip-rule="evenodd"
         d="m 606.5,672.997 c 0.166,0.002 0.333,0.003 0.5,0.003 23.748,0 43,-19.252 43,-43 0,-23.748 -19.252,-43 -43,-43 -0.167,0 -0.334,10e-4 -0.5,0.003 V 587 h -11.109 c 0.402,-2.943 0.609,-5.947 0.609,-9 0,-36.451 -29.549,-66 -66,-66 -36.451,0 -66,29.549 -66,66 0,3.439 0.263,6.817 0.77,10.115 C 461.631,587.386 458.361,587 455,587 c -23.748,0 -43,19.252 -43,43 0,23.748 19.252,43 43,43 0.168,0 0.335,-10e-4 0.502,-0.003 L 455.5,673 h 151 z"
         shape-rendering="crispEdges"
         id="path5"
         style="fill:url(#paint3_linear_2_2)" />
      <path
         d="m 606.5,672.997 0.023,-2 c -0.535,-0.006 -1.049,0.202 -1.429,0.578 -0.38,0.376 -0.594,0.888 -0.594,1.422 z m 0,-85.994 h -2 c 0,0.534 0.214,1.046 0.594,1.422 0.38,0.376 0.894,0.584 1.429,0.578 z m 0,-0.003 h 2 c 0,-1.105 -0.895,-2 -2,-2 z m -11.109,0 -1.981,-0.27 c -0.078,0.572 0.095,1.15 0.475,1.585 0.38,0.435 0.929,0.685 1.506,0.685 z m -130.621,1.115 -0.452,1.948 c 0.646,0.15 1.325,-0.03 1.812,-0.481 0.487,-0.452 0.718,-1.115 0.617,-1.771 z m -9.268,84.882 1.57,1.24 c 0.477,-0.605 0.565,-1.43 0.225,-2.122 -0.34,-0.692 -1.047,-1.127 -1.818,-1.118 z M 455.5,673 l -1.569,-1.24 c -0.476,0.602 -0.565,1.422 -0.231,2.112 0.334,0.69 1.033,1.128 1.8,1.128 z m 151,0 v 2 c 1.105,0 2,-0.895 2,-2 z m -0.023,1.997 c 0.174,0.002 0.348,0.003 0.523,0.003 v -4 c -0.159,0 -0.318,-10e-4 -0.477,-0.003 z M 607,675 c 24.853,0 45,-20.147 45,-45 h -4 c 0,22.644 -18.356,41 -41,41 z m 45,-45 c 0,-24.853 -20.147,-45 -45,-45 v 4 c 22.644,0 41,18.356 41,41 z m -45,-45 c -0.174,0 -0.349,10e-4 -0.523,0.003 l 0.046,4 C 606.682,589.001 606.841,589 607,589 Z m -2.5,2 v 0.003 h 4 V 587 Z m -9.109,2 H 606.5 v -4 h -11.109 z m 1.982,-1.73 C 597.787,584.238 598,581.143 598,578 h -4 c 0,2.962 -0.201,5.876 -0.59,8.73 z M 598,578 c 0,-37.555 -30.445,-68 -68,-68 v 4 c 35.346,0 64,28.654 64,64 z m -68,-68 c -37.555,0 -68,30.445 -68,68 h 4 c 0,-35.346 28.654,-64 64,-64 z m -68,68 c 0,3.542 0.271,7.021 0.793,10.419 l 3.954,-0.608 C 466.255,584.614 466,581.337 466,578 Z m 3.223,8.167 C 461.937,585.403 458.514,585 455,585 v 4 c 3.207,0 6.326,0.368 9.318,1.063 z M 455,585 c -24.853,0 -45,20.147 -45,45 h 4 c 0,-22.644 18.356,-41 41,-41 z m -45,45 c 0,24.853 20.147,45 45,45 v -4 c -22.644,0 -41,-18.356 -41,-41 z m 45,45 c 0.175,0 0.35,-10e-4 0.525,-0.003 l -0.046,-4 C 455.32,670.999 455.16,671 455,671 Z m 2.069,-0.76 0.003,-0.003 -3.139,-2.48 -0.002,0.003 z M 606.5,671 h -151 v 4 h 151 z m -2,1.997 V 673 h 4 v -0.003 z"
         id="path6"
         style="fill:url(#paint4_linear_2_2)" />
    </g>
    <g
       filter="url(#filter3_d_2_2)"
       data-figma-bg-blur-radius="14"
       id="g9"
       transform="matrix(0.06615854,0,0,0.06615854,-3.560062,-3.324997)">
      <mask
         id="mask8"
         fill="#ffffff">
        <path
           fill-rule="evenodd"
           clip-rule="evenodd"
           d="m 684.563,628.351 c 0.12,10e-4 0.241,0.002 0.361,0.002 17.163,0 31.076,-13.913 31.076,-31.076 0,-17.162 -13.913,-31.075 -31.076,-31.075 -0.12,0 -0.241,0 -0.361,0.002 v -0.002 h -8.028 c 0.29,-2.127 0.44,-4.298 0.44,-6.505 0,-26.342 -21.355,-47.697 -47.698,-47.697 -26.342,0 -47.697,21.355 -47.697,47.697 0,2.486 0.19,4.927 0.556,7.31 -2.268,-0.527 -4.632,-0.805 -7.06,-0.805 -17.163,0 -31.076,13.913 -31.076,31.075 0,17.163 13.913,31.076 31.076,31.076 0.121,0 0.242,-10e-4 0.363,-0.002 l -0.002,0.002 h 109.126 z"
           id="path8" />
      </mask>
      <path
         fill-rule="evenodd"
         clip-rule="evenodd"
         d="m 684.563,628.351 c 0.12,10e-4 0.241,0.002 0.361,0.002 17.163,0 31.076,-13.913 31.076,-31.076 0,-17.162 -13.913,-31.075 -31.076,-31.075 -0.12,0 -0.241,0 -0.361,0.002 v -0.002 h -8.028 c 0.29,-2.127 0.44,-4.298 0.44,-6.505 0,-26.342 -21.355,-47.697 -47.698,-47.697 -26.342,0 -47.697,21.355 -47.697,47.697 0,2.486 0.19,4.927 0.556,7.31 -2.268,-0.527 -4.632,-0.805 -7.06,-0.805 -17.163,0 -31.076,13.913 -31.076,31.075 0,17.163 13.913,31.076 31.076,31.076 0.121,0 0.242,-10e-4 0.363,-0.002 l -0.002,0.002 h 109.126 z"
         shape-rendering="crispEdges"
         id="path9"
         style="fill:url(#paint5_linear_2_2)" />
      <path
         d="m 684.563,628.351 0.023,-2 c -0.534,-0.006 -1.049,0.202 -1.429,0.578 -0.38,0.375 -0.594,0.887 -0.594,1.422 z m 0,-62.147 h -2 c 0,0.534 0.214,1.046 0.594,1.422 0.38,0.376 0.894,0.584 1.429,0.578 z m 0,-0.002 h 2 c 0,-1.105 -0.895,-2 -2,-2 z m -8.028,0 -1.982,-0.271 c -0.078,0.573 0.096,1.151 0.475,1.586 0.38,0.435 0.929,0.685 1.507,0.685 z m -94.399,0.805 -0.452,1.948 c 0.646,0.151 1.325,-0.03 1.812,-0.481 0.487,-0.451 0.718,-1.115 0.617,-1.771 z m -6.697,61.344 1.569,1.239 c 0.478,-0.605 0.565,-1.43 0.225,-2.122 -0.34,-0.691 -1.047,-1.126 -1.817,-1.117 z m -0.002,0.002 -1.57,-1.239 c -0.475,0.601 -0.564,1.421 -0.23,2.111 0.334,0.69 1.033,1.128 1.8,1.128 z m 109.126,0 v 2 c 1.105,0 2,-0.895 2,-2 z m -0.023,1.998 c 0.128,10e-4 0.256,0.002 0.384,0.002 v -4 c -0.113,0 -0.225,-10e-4 -0.338,-0.002 z m 0.384,0.002 c 18.268,0 33.076,-14.809 33.076,-33.076 h -4 c 0,16.058 -13.018,29.076 -29.076,29.076 z M 718,597.277 c 0,-18.267 -14.808,-33.075 -33.076,-33.075 v 4 c 16.058,0 29.076,13.017 29.076,29.075 z m -33.076,-33.075 c -0.128,0 -0.256,0 -0.384,0.002 l 0.046,4 c 0.113,-0.002 0.225,-0.002 0.338,-0.002 z m -2.361,2 v 0.002 h 4 v -0.002 z m -6.028,2 h 8.028 v -4 h -8.028 z m 1.982,-1.73 c 0.302,-2.216 0.458,-4.478 0.458,-6.775 h -4 c 0,2.116 -0.144,4.197 -0.422,6.234 z m 0.458,-6.775 C 678.975,532.25 656.724,510 629.277,510 v 4 c 25.238,0 45.698,20.459 45.698,45.697 z M 629.277,510 c -27.447,0 -49.697,22.25 -49.697,49.697 h 4 C 583.58,534.459 604.039,514 629.277,514 Z m -49.697,49.697 c 0,2.588 0.198,5.131 0.58,7.614 l 3.953,-0.608 c -0.351,-2.282 -0.533,-4.622 -0.533,-7.006 z m 3.009,5.362 c -2.416,-0.561 -4.931,-0.857 -7.513,-0.857 v 4 c 2.275,0 4.487,0.261 6.608,0.753 z m -7.513,-0.857 C 556.808,564.202 542,579.01 542,597.277 h 4 c 0,-16.058 13.018,-29.075 29.076,-29.075 z M 542,597.277 c 0,18.267 14.808,33.076 33.076,33.076 v -4 C 559.018,626.353 546,613.335 546,597.277 Z m 33.076,33.076 c 0.128,0 0.257,-10e-4 0.385,-0.002 l -0.045,-4 c -0.113,10e-4 -0.227,0.002 -0.34,0.002 z m 1.931,-0.761 0.001,-0.002 -3.139,-2.478 -0.002,0.002 z m 107.556,-3.239 H 575.437 v 4 h 109.126 z m -2,1.998 v 0.002 h 4 v -0.002 z"
         id="path10"
         style="fill:url(#paint6_linear_2_2)" />
    </g>
  </g>
</svg>
