<?xml version="1.0" encoding="UTF-8" standalone="no"?>
<svg
   height="62"
   width="62"
   version="1.1"
   id="svg6"
   sodipodi:docname="terratech.svg"
   inkscape:version="1.4 (unknown)"
   xmlns:inkscape="http://www.inkscape.org/namespaces/inkscape"
   xmlns:sodipodi="http://sodipodi.sourceforge.net/DTD/sodipodi-0.dtd"
   xmlns="http://www.w3.org/2000/svg"
   xmlns:svg="http://www.w3.org/2000/svg">
  <defs
     id="defs6" />
  <sodipodi:namedview
     id="namedview6"
     pagecolor="#ffffff"
     bordercolor="#000000"
     borderopacity="0.25"
     inkscape:showpageshadow="2"
     inkscape:pageopacity="0.0"
     inkscape:pagecheckerboard="0"
     inkscape:deskcolor="#d1d1d1"
     inkscape:zoom="12.109375"
     inkscape:cx="31.95871"
     inkscape:cy="32"
     inkscape:window-width="1920"
     inkscape:window-height="998"
     inkscape:window-x="0"
     inkscape:window-y="0"
     inkscape:window-maximized="1"
     inkscape:current-layer="svg6" />
  <g
     id="g6"
     transform="matrix(0.98214286,0,0,0.98245614,-0.42857152,-0.92982455)">
    <path
       style="opacity:0.2"
       d="M 32,5 4,33 32,61 60,33 Z"
       id="path1" />
    <path
       style="fill:#00aad4"
       d="M 32,4 4,32 32,60 60,32 Z"
       id="path2" />
    <path
       style="opacity:0.1;fill:#ffffff"
       d="M 32,4 4,32 4.5,32.5 32,5 59.5,32.5 60,32 Z"
       id="path3" />
    <rect
       style="opacity:0.2"
       rx="3.9999998"
       ry="4"
       height="44"
       width="44"
       y="11"
       x="10"
       id="rect3" />
    <rect
       style="fill:#00ccff"
       rx="3.9999998"
       ry="4"
       height="44"
       width="44"
       y="10"
       x="10"
       id="rect4" />
    <path
       style="opacity:0.2"
       d="m 22,29 v -6 h 6 l 4,4 4,-4 h 6 v 6 l -4,4 4,4 v 6 h -6 l -4,-4 -4,4 h -6 v -6 l 4,-4 z"
       id="path4" />
    <path
       style="fill:#f2f2f2;fill-opacity:1"
       d="m 22,28 v -6 h 6 l 4,4 4,-4 h 6 v 6 l -4,4 4,4 v 6 h -6 l -4,-4 -4,4 h -6 v -6 l 4,-4 z"
       id="path5" />
    <path
       style="opacity:0.2;fill:#ffffff"
       d="m 14,10 c -2.216,0 -4,1.784 -4,4 v 1 c 0,-2.216 1.784,-4 4,-4 h 36 c 2.216,0 4,1.784 4,4 v -1 c 0,-2.216 -1.784,-4 -4,-4 z"
       id="path6" />
  </g>
</svg>
