<?xml version="1.0" encoding="UTF-8" standalone="no"?>
<svg
   width="62"
   height="62"
   version="1.1"
   id="svg18"
   sodipodi:docname="the-witcher.svg"
   inkscape:version="1.4 (unknown)"
   xmlns:inkscape="http://www.inkscape.org/namespaces/inkscape"
   xmlns:sodipodi="http://sodipodi.sourceforge.net/DTD/sodipodi-0.dtd"
   xmlns="http://www.w3.org/2000/svg"
   xmlns:svg="http://www.w3.org/2000/svg">
  <defs
     id="defs18" />
  <sodipodi:namedview
     id="namedview18"
     pagecolor="#ffffff"
     bordercolor="#000000"
     borderopacity="0.25"
     inkscape:showpageshadow="2"
     inkscape:pageopacity="0.0"
     inkscape:pagecheckerboard="0"
     inkscape:deskcolor="#d1d1d1"
     inkscape:zoom="12.109375"
     inkscape:cx="32"
     inkscape:cy="32.825806"
     inkscape:window-width="1920"
     inkscape:window-height="998"
     inkscape:window-x="0"
     inkscape:window-y="0"
     inkscape:window-maximized="1"
     inkscape:current-layer="svg18" />
  <g
     id="g18"
     transform="matrix(0.98275862,0,0,0.98245614,-0.44827584,-0.92982455)">
    <circle
       cx="32"
       cy="33"
       r="28"
       style="opacity:0.2"
       id="circle1" />
    <circle
       cx="32"
       cy="32"
       r="28"
       style="fill:#c44652"
       id="circle2" />
    <path
       d="M 32,4 A 28,28 0 0 0 4,32 28,28 0 0 0 4.0214844,32.585938 28,28 0 0 1 32,5 28,28 0 0 1 59.978516,32.414062 28,28 0 0 0 60,32 28,28 0 0 0 32,4 Z"
       style="opacity:0.1;fill:#ffffff"
       id="path2" />
    <path
       d="m 18,10.5 v 5.699219 l -2.371094,2.677734 C 12.117818,20.963053 9.6719557,22.774045 7,25 l 5,2 -9,6 11,1 -10,12 11,-3 v 3 l 6,-2 -1,4 9.199219,-3.800781 L 32,44 34.800781,44.199219 44,48 43,44 49,46 V 43 L 60,46 50,34 61,33 52,27 57,25 C 54.328044,22.774045 51.882182,20.963053 48.371094,18.876953 L 46,16.199219 V 10.5 l -6,2.900391 V 12 l -2,1.400391 V 12 L 32,13.5 26,12 v 1.400391 L 24,12 v 1.400391 z"
       style="opacity:0.2"
       id="path3" />
    <path
       d="m 18,9.5 v 5.699219 l -2.371094,2.677734 C 12.117818,19.963053 9.6719557,21.774045 7,24 l 5,2 -9,6 11,1 -10,12 11,-3 v 3 l 6,-2 -1,4 9.199219,-3.800781 L 32,43 34.800781,43.199219 44,47 43,43 49,45 V 42 L 60,45 50,33 61,32 52,26 57,24 C 54.328044,21.774045 51.882182,19.963053 48.371094,17.876953 L 46,15.199219 V 9.5 l -6,2.900391 V 11 l -2,1.400391 V 11 L 32,12.5 26,11 v 1.400391 L 24,11 v 1.400391 z"
       style="fill:#393939"
       id="path4" />
    <path
       d="m 12,9 -0.993028,2.584693 c -0.09713,3.32262 0.834122,6.274208 1.952459,9.160694 1.944531,4.809984 7.098994,6.596345 10.269495,9.554467 2.011511,1.922168 2.553367,3.617073 2.841182,5.310467 0.333397,1.961577 0.534558,4.088168 0.743794,7.361371 0.699676,4.259526 1.080942,11.199951 1.605172,13.514073 0.48025,0.537005 3.580927,0.514093 3.580927,0.514093 0,0 3.100675,0.02292 3.580925,-0.514093 0.524229,-2.314122 0.905496,-9.254547 1.605172,-13.514073 0.209238,-3.273203 0.410397,-5.399794 0.743794,-7.361371 0.287812,-1.693394 0.829671,-3.388299 2.841182,-5.310467 3.1705,-2.958122 8.324967,-4.744483 10.269498,-9.554467 1.118336,-2.886486 2.049582,-5.838074 1.952458,-9.160694 L 52,9 v 2.579223 L 42.508821,18.0752 32.000001,17.9248 21.491182,18.0752 12,11.579223 Z"
       style="opacity:0.2"
       id="path5" />
    <path
       d="m 12,8 -0.993028,2.584693 c -0.09713,3.32262 0.834122,6.274208 1.952459,9.160694 1.944531,4.809984 7.098994,6.596345 10.269495,9.554467 2.011511,1.922168 2.553367,3.617073 2.841182,5.310467 0.333397,1.961577 0.534558,4.088168 0.743794,7.361371 0.699676,4.259526 1.080942,11.199951 1.605172,13.514073 0.48025,0.537005 3.580927,0.514093 3.580927,0.514093 0,0 3.100675,0.02292 3.580925,-0.514093 0.524229,-2.314122 0.905496,-9.254547 1.605172,-13.514073 0.209238,-3.273203 0.410397,-5.399794 0.743794,-7.361371 0.287812,-1.693394 0.829671,-3.388299 2.841182,-5.310467 3.1705,-2.958122 8.324967,-4.744483 10.269498,-9.554467 1.118336,-2.886486 2.049582,-5.838074 1.952458,-9.160694 L 52,8 v 2.579223 L 42.508821,17.0752 32.000001,16.9248 21.491182,17.0752 12,10.579223 Z"
       style="fill:#505050"
       id="path6" />
    <path
       d="M 21.357216,20.807274 A 4.447823,4.447823 0 0 0 21,22.552177 4.447823,4.447823 0 0 0 25.447823,27 4.447823,4.447823 0 0 0 29,25.219827 Z"
       style="opacity:0.2"
       id="path7" />
    <path
       d="M 21.357216,19.807274 A 4.447823,4.447823 0 0 0 21,21.552177 4.447823,4.447823 0 0 0 25.447823,26 4.447823,4.447823 0 0 0 29,24.219827 Z"
       style="fill:#eb6b00"
       id="path8" />
    <path
       d="m 36,36 c -1.388608,0.591582 -2.573548,1.531823 -4,1.413847 v 0.03038 c -1.426452,0.117972 -2.611392,-0.822265 -4,-1.413847 l 1.367188,15.42253 c 0.104173,1.15378 0.127586,1.30795 1.036458,1.413847 0.593924,0.105812 1.049902,0.145976 1.596354,0.129787 v -0.03037 c 0.546452,0.01619 1.00243,-0.02398 1.596354,-0.129791 0.908876,-0.105898 0.932286,-0.257306 1.036458,-1.411086 z"
       style="opacity:0.4"
       id="path9" />
    <path
       d="m 30,48 c -0.57879,0.505752 -0.41778,1.482441 -0.83073,2.221678 l 0.197918,2.231227 c 0.104173,1.15378 0.127586,1.30795 1.036458,1.413847 0.192606,0.03432 0.357264,0.05097 0.528646,0.07179 h 1.908854 c 0.238635,-0.02176 0.480074,-0.05316 0.755208,-0.102179 0.908876,-0.105897 0.932286,-0.257306 1.036458,-1.411086 l 0.195314,-2.206373 C 34.415501,49.480969 34.577951,48.505019 34,48 v 3 h -4 z"
       style="opacity:0.2"
       id="path10" />
    <path
       d="m 30,47 c -0.57879,0.505752 -0.41778,1.482441 -0.83073,2.221678 l 0.197918,2.231227 c 0.104173,1.15378 0.127586,1.30795 1.036458,1.413847 0.192606,0.03432 0.357264,0.05097 0.528646,0.07179 h 1.908854 c 0.238635,-0.02176 0.480074,-0.05316 0.755208,-0.102179 0.908876,-0.105897 0.932286,-0.257306 1.036458,-1.411086 l 0.195314,-2.206373 C 34.415501,48.480969 34.577951,47.505019 34,47 v 3 h -4 z"
       style="fill:#ffffff"
       id="path11" />
    <path
       d="m 36,37 c -1.388608,0.591582 -2.566714,1.004784 -4,0.98481 C 30.566714,37.96484 29.100272,37.499922 28.005208,37.033141 28.15989,39.020062 28.506096,41.694613 30,43.000002 V 40 h 4 v 2.999997 C 35.502077,41.687467 35.853954,38.993647 36,37 Z"
       style="opacity:0.2"
       id="path12" />
    <path
       d="m 36,36 c -1.388608,0.591582 -2.566714,1.004784 -4,0.98481 C 30.566714,36.96484 29.100272,36.499922 28.005208,36.033141 28.15989,38.020062 28.506096,40.694613 30,42.000002 V 39 h 4 v 2.999997 C 35.502077,40.687467 35.853954,37.993647 36,36 Z"
       style="fill:#ffffff"
       id="path13" />
    <path
       d="M 42.642784,20.807274 A 4.447823,4.447823 0 0 1 43,22.552177 4.447823,4.447823 0 0 1 38.552177,27 4.447823,4.447823 0 0 1 35,25.219827 Z"
       style="opacity:0.2"
       id="path14" />
    <path
       d="M 42.642784,19.807274 A 4.447823,4.447823 0 0 1 43,21.552177 4.447823,4.447823 0 0 1 38.552177,26 4.447823,4.447823 0 0 1 35,24.219827 Z"
       style="fill:#eb6b00"
       id="path15" />
    <path
       d="m 12,8 -0.992188,2.583984 c -0.0097,0.330944 -0.0021,0.656585 0.0078,0.980469 L 12,9 Z m 40,0 v 1 l 0.984375,2.564453 c 0.0099,-0.323884 0.01749,-0.649525 0.0078,-0.980469 z m -40,2.580078 v 1 L 21.490234,18.076172 32,17.923828 42.509766,18.076172 52,11.580078 v -1 L 42.509766,17.076172 32,16.923828 21.490234,17.076172 Z"
       style="opacity:0.1;fill:#ffffff"
       id="path16" />
    <path
       d="M 21.357422,19.806641 A 4.447823,4.447823 0 0 0 21,21.552734 a 4.447823,4.447823 0 0 0 0.0293,0.5 4.447823,4.447823 0 0 1 0.328125,-1.246093 l 7.039062,4.064453 A 4.447823,4.447823 0 0 0 29,24.220703 Z"
       style="opacity:0.1;fill:#ffffff"
       id="path17" />
    <path
       d="M 42.642578,19.806641 35,24.220703 a 4.447823,4.447823 0 0 0 0.603516,0.650391 l 7.039062,-4.064453 a 4.447823,4.447823 0 0 1 0.328125,1.246093 4.447823,4.447823 0 0 0 0.0293,-0.5 4.447823,4.447823 0 0 0 -0.357422,-1.746093 z"
       style="opacity:0.1;fill:#ffffff"
       id="path18" />
  </g>
</svg>
