<?xml version="1.0" encoding="UTF-8" standalone="no"?>
<svg
   width="62"
   height="62"
   viewBox="0 0 16.404166 16.404167"
   version="1.1"
   id="svg1443"
   inkscape:version="1.4 (unknown)"
   sodipodi:docname="the-stanley-parable.svg"
   xmlns:inkscape="http://www.inkscape.org/namespaces/inkscape"
   xmlns:sodipodi="http://sodipodi.sourceforge.net/DTD/sodipodi-0.dtd"
   xmlns:xlink="http://www.w3.org/1999/xlink"
   xmlns="http://www.w3.org/2000/svg"
   xmlns:svg="http://www.w3.org/2000/svg"
   xmlns:rdf="http://www.w3.org/1999/02/22-rdf-syntax-ns#"
   xmlns:cc="http://creativecommons.org/ns#"
   xmlns:dc="http://purl.org/dc/elements/1.1/">
  <defs
     id="defs1437">
    <linearGradient
       gradientTransform="matrix(0.4711726,0,0,0.47114666,-53.953909,-18.000765)"
       gradientUnits="userSpaceOnUse"
       y2="70.679932"
       x2="132.21078"
       y1="42.151531"
       x1="132.21078"
       id="linearGradient1632"
       xlink:href="#linearGradient1630"
       inkscape:collect="always" />
    <linearGradient
       id="linearGradient1630"
       inkscape:collect="always">
      <stop
         id="stop1626"
         offset="0"
         style="stop-color:#fafafc;stop-opacity:1" />
      <stop
         id="stop1628"
         offset="1"
         style="stop-color:#e2e6ea;stop-opacity:1" />
    </linearGradient>
    <filter
       color-interpolation-filters="sRGB"
       height="1.1311001"
       width="1.1106"
       y="-0.065563001"
       x="-0.055319"
       id="c-9">
      <feGaussianBlur
         id="feGaussianBlur1093"
         stdDeviation="1.1062912" />
    </filter>
    <linearGradient
       gradientUnits="userSpaceOnUse"
       gradientTransform="matrix(0.13235,0,0,0.13075,-32.379,1.0873)"
       y2="269.48999"
       y1="235.14999"
       x2="657.65002"
       x1="319.20999"
       id="a-12">
      <stop
         id="stop1076"
         offset="0"
         stop-color="#e54c18" />
      <stop
         id="stop1078"
         offset="1"
         stop-color="#fec350" />
    </linearGradient>
  </defs>
  <sodipodi:namedview
     id="base"
     pagecolor="#ffffff"
     bordercolor="#666666"
     borderopacity="1.0"
     inkscape:pageopacity="0.0"
     inkscape:pageshadow="2"
     inkscape:zoom="7.9195959"
     inkscape:cx="26.705908"
     inkscape:cy="44.13104"
     inkscape:document-units="px"
     inkscape:current-layer="layer1"
     inkscape:document-rotation="0"
     showgrid="false"
     units="px"
     inkscape:window-width="1920"
     inkscape:window-height="998"
     inkscape:window-x="0"
     inkscape:window-y="0"
     inkscape:window-maximized="1"
     inkscape:showpageshadow="2"
     inkscape:pagecheckerboard="0"
     inkscape:deskcolor="#d1d1d1" />
  <metadata
     id="metadata1440">
    <rdf:RDF>
      <cc:Work
         rdf:about="">
        <dc:format>image/svg+xml</dc:format>
        <dc:type
           rdf:resource="http://purl.org/dc/dcmitype/StillImage" />
      </cc:Work>
    </rdf:RDF>
  </metadata>
  <g
     inkscape:label="Capa 1"
     inkscape:groupmode="layer"
     id="layer1">
    <g
       style="opacity:0.295"
       transform="matrix(0.47117252,0,0,0.47114656,-31.72741,-18.000762)"
       id="g1702">
      <rect
         ry="6.6098609"
         rx="6.6098609"
         y="40.709618"
         x="69.839508"
         height="29.810888"
         width="29.810888"
         id="rect1634"
         style="fill:none;fill-opacity:1;stroke:#000000;stroke-width:0.1;stroke-linecap:round;stroke-linejoin:round;stroke-miterlimit:4;stroke-dasharray:none;stroke-opacity:0.02" />
      <rect
         style="fill:none;fill-opacity:1;stroke:#000000;stroke-width:0.2;stroke-linecap:round;stroke-linejoin:round;stroke-miterlimit:4;stroke-dasharray:none;stroke-opacity:0.02"
         id="rect1638"
         width="29.810888"
         height="29.810888"
         x="69.839508"
         y="40.709618"
         rx="6.6098609"
         ry="6.6098609" />
      <rect
         ry="6.6098609"
         rx="6.6098609"
         y="40.709618"
         x="69.839508"
         height="29.810888"
         width="29.810888"
         id="rect1640"
         style="fill:none;fill-opacity:1;stroke:#000000;stroke-width:0.3;stroke-linecap:round;stroke-linejoin:round;stroke-miterlimit:4;stroke-dasharray:none;stroke-opacity:0.02" />
      <rect
         style="fill:none;fill-opacity:1;stroke:#000000;stroke-width:0.4;stroke-linecap:round;stroke-linejoin:round;stroke-miterlimit:4;stroke-dasharray:none;stroke-opacity:0.02"
         id="rect1642"
         width="29.810888"
         height="29.810888"
         x="69.839508"
         y="40.709618"
         rx="6.6098609"
         ry="6.6098609" />
      <rect
         ry="6.6098609"
         rx="6.6098609"
         y="40.709618"
         x="69.839508"
         height="29.810888"
         width="29.810888"
         id="rect1644"
         style="fill:none;fill-opacity:1;stroke:#000000;stroke-width:0.5;stroke-linecap:round;stroke-linejoin:round;stroke-miterlimit:4;stroke-dasharray:none;stroke-opacity:0.02" />
      <rect
         style="fill:none;fill-opacity:1;stroke:#000000;stroke-width:0.6;stroke-linecap:round;stroke-linejoin:round;stroke-miterlimit:4;stroke-dasharray:none;stroke-opacity:0.02"
         id="rect1646"
         width="29.810888"
         height="29.810888"
         x="69.839508"
         y="40.709618"
         rx="6.6098609"
         ry="6.6098609" />
      <rect
         ry="6.6098609"
         rx="6.6098609"
         y="40.709618"
         x="69.839508"
         height="29.810888"
         width="29.810888"
         id="rect1648"
         style="fill:none;fill-opacity:1;stroke:#000000;stroke-width:0.7;stroke-linecap:round;stroke-linejoin:round;stroke-miterlimit:4;stroke-dasharray:none;stroke-opacity:0.02" />
      <rect
         style="fill:none;fill-opacity:1;stroke:#000000;stroke-width:0.8;stroke-linecap:round;stroke-linejoin:round;stroke-miterlimit:4;stroke-dasharray:none;stroke-opacity:0.02"
         id="rect1650"
         width="29.810888"
         height="29.810888"
         x="69.839508"
         y="40.709618"
         rx="6.6098609"
         ry="6.6098609" />
      <rect
         ry="6.6098609"
         rx="6.6098609"
         y="40.709618"
         x="69.839508"
         height="29.810888"
         width="29.810888"
         id="rect1652"
         style="fill:none;fill-opacity:1;stroke:#000000;stroke-width:1;stroke-linecap:round;stroke-linejoin:round;stroke-miterlimit:4;stroke-dasharray:none;stroke-opacity:0.02" />
      <rect
         style="fill:none;fill-opacity:1;stroke:#000000;stroke-width:1.2;stroke-linecap:round;stroke-linejoin:round;stroke-miterlimit:4;stroke-dasharray:none;stroke-opacity:0.02"
         id="rect1654"
         width="29.810888"
         height="29.810888"
         x="69.839508"
         y="40.709618"
         rx="6.6098609"
         ry="6.6098609" />
      <rect
         ry="6.6098609"
         rx="6.6098609"
         y="40.709618"
         x="69.839508"
         height="29.810888"
         width="29.810888"
         id="rect1656"
         style="fill:none;fill-opacity:1;stroke:#000000;stroke-width:1.4;stroke-linecap:round;stroke-linejoin:round;stroke-miterlimit:4;stroke-dasharray:none;stroke-opacity:0.02" />
      <rect
         style="fill:none;fill-opacity:1;stroke:#000000;stroke-width:1.6;stroke-linecap:round;stroke-linejoin:round;stroke-miterlimit:4;stroke-dasharray:none;stroke-opacity:0.02"
         id="rect1658"
         width="29.810888"
         height="29.810888"
         x="69.839508"
         y="40.709618"
         rx="6.6098609"
         ry="6.6098609" />
      <rect
         ry="6.6098609"
         rx="6.6098609"
         y="40.709618"
         x="69.839508"
         height="29.810888"
         width="29.810888"
         id="rect1660"
         style="fill:none;fill-opacity:1;stroke:#000000;stroke-width:1.8;stroke-linecap:round;stroke-linejoin:round;stroke-miterlimit:4;stroke-dasharray:none;stroke-opacity:0.02" />
      <rect
         style="fill:none;fill-opacity:1;stroke:#000000;stroke-width:2;stroke-linecap:round;stroke-linejoin:round;stroke-miterlimit:4;stroke-dasharray:none;stroke-opacity:0.02"
         id="rect1662"
         width="29.810888"
         height="29.810888"
         x="69.839508"
         y="40.709618"
         rx="6.6098609"
         ry="6.6098609" />
      <rect
         ry="6.6098609"
         rx="6.6098609"
         y="40.709618"
         x="69.839508"
         height="29.810888"
         width="29.810888"
         id="rect1664"
         style="fill:none;fill-opacity:1;stroke:#000000;stroke-width:2.2;stroke-linecap:round;stroke-linejoin:round;stroke-miterlimit:4;stroke-dasharray:none;stroke-opacity:0.02" />
      <rect
         style="fill:none;fill-opacity:1;stroke:#000000;stroke-width:2.6;stroke-linecap:round;stroke-linejoin:round;stroke-miterlimit:4;stroke-dasharray:none;stroke-opacity:0.02"
         id="rect1666"
         width="29.810888"
         height="29.810888"
         x="69.839508"
         y="40.709618"
         rx="6.6098609"
         ry="6.6098609" />
      <rect
         ry="6.6098609"
         rx="6.6098609"
         y="40.709618"
         x="69.839508"
         height="29.810888"
         width="29.810888"
         id="rect1668"
         style="fill:none;fill-opacity:1;stroke:#000000;stroke-width:3;stroke-linecap:round;stroke-linejoin:round;stroke-miterlimit:4;stroke-dasharray:none;stroke-opacity:0.02" />
      <rect
         style="fill:none;fill-opacity:1;stroke:#000000;stroke-width:3.4;stroke-linecap:round;stroke-linejoin:round;stroke-miterlimit:4;stroke-dasharray:none;stroke-opacity:0.02"
         id="rect1670"
         width="29.810888"
         height="29.810888"
         x="69.839508"
         y="40.709618"
         rx="6.6098609"
         ry="6.6098609" />
      <rect
         ry="6.6098609"
         rx="6.6098609"
         y="40.709618"
         x="69.839508"
         height="29.810888"
         width="29.810888"
         id="rect1672"
         style="fill:none;fill-opacity:1;stroke:#000000;stroke-width:3.8;stroke-linecap:round;stroke-linejoin:round;stroke-miterlimit:4;stroke-dasharray:none;stroke-opacity:0.02" />
      <rect
         style="fill:none;fill-opacity:1;stroke:#000000;stroke-width:4.2;stroke-linecap:round;stroke-linejoin:round;stroke-miterlimit:4;stroke-dasharray:none;stroke-opacity:0.02"
         id="rect1674"
         width="29.810888"
         height="29.810888"
         x="69.839508"
         y="40.709618"
         rx="6.6098609"
         ry="6.6098609" />
      <rect
         ry="6.6098609"
         rx="6.6098609"
         y="40.709618"
         x="69.839508"
         height="29.810888"
         width="29.810888"
         id="rect1676"
         style="fill:none;fill-opacity:1;stroke:#000000;stroke-width:4.6;stroke-linecap:round;stroke-linejoin:round;stroke-miterlimit:4;stroke-dasharray:none;stroke-opacity:0.02" />
      <rect
         style="fill:none;fill-opacity:1;stroke:#000000;stroke-width:5;stroke-linecap:round;stroke-linejoin:round;stroke-miterlimit:4;stroke-dasharray:none;stroke-opacity:0.02"
         id="rect1678"
         width="29.810888"
         height="29.810888"
         x="69.839508"
         y="40.709618"
         rx="6.6098609"
         ry="6.6098609" />
    </g>
    <rect
       ry="3.1142132"
       rx="3.1143851"
       y="1.1794344"
       x="1.1790471"
       height="14.045296"
       width="14.04607"
       id="rect849"
       style="fill:url(#linearGradient1632);fill-opacity:1;stroke-width:1.29783;stroke-linecap:round;stroke-linejoin:round" />
    <g
       id="g1"
       transform="matrix(0.77676487,0,0,0.77192982,2.6529137,-11.098575)">
      <path
         d="m 3.9689483,17.727084 c -0.2389629,-2.4e-5 -0.4652224,0.107602 -0.6159831,0.293005 l -3.43958326,4.233333 c -0.17909912,0.220225 -0.22697818,0.519321 -0.12557373,0.784449 l 3.43958339,8.995833 c 0.1176115,0.307255 0.4125611,0.510123 0.7415567,0.510046 h 6.3499997 c 0.328996,7.7e-5 0.623945,-0.202791 0.741557,-0.510046 l 3.439583,-8.995833 c 0.101405,-0.265128 0.05353,-0.564224 -0.125573,-0.784449 l -3.439584,-4.233333 c -0.15076,-0.185403 -0.37702,-0.293029 -0.615983,-0.293005 h -0.264583 l -2.9104167,7.14375 -2.9104167,-7.14375 z"
         style="opacity:0.2;stroke-width:0.264583"
         id="path1" />
      <path
         d="m 3.9689483,17.4625 c -0.2389629,-2.3e-5 -0.4652224,0.107602 -0.6159831,0.293006 l -3.43958326,4.233333 c -0.17909912,0.220225 -0.22697818,0.519321 -0.12557373,0.784448 l 3.43958339,8.995834 c 0.1176115,0.307255 0.4125611,0.510123 0.7415567,0.510046 h 6.3499997 c 0.328996,7.7e-5 0.623945,-0.202791 0.741557,-0.510046 l 3.439583,-8.995834 c 0.101405,-0.265127 0.05353,-0.564223 -0.125573,-0.784448 L 10.934931,17.755506 C 10.784171,17.570102 10.557911,17.462477 10.318948,17.4625 H 10.054365 L 7.1439483,24.60625 4.2335316,17.4625 Z"
         style="fill:#2d3d53;stroke-width:0.264583;fill-opacity:1"
         id="path2" />
      <path
         d="m 3.9689483,17.4625 c -0.2389629,-2.3e-5 -0.4652224,0.107602 -0.6159831,0.293006 l -3.43958326,4.233333 c -0.14500748,0.178305 -0.20249895,0.408116 -0.16588133,0.629936 0.0228206,-0.131863 0.0785167,-0.257927 0.16588133,-0.365353 L 3.3529652,18.020089 C 3.5037259,17.834686 3.7299854,17.72706 3.9689483,17.727084 h 0.2645833 l 2.9104167,7.14375 2.9104167,-7.14375 h 0.264583 c 0.238963,-2.4e-5 0.465223,0.107602 0.615983,0.293005 l 3.439584,4.233333 c 0.08736,0.107426 0.14306,0.23349 0.165881,0.365353 0.03662,-0.22182 -0.02087,-0.451631 -0.165881,-0.629936 L 10.934931,17.755506 C 10.784171,17.570102 10.557911,17.462477 10.318948,17.4625 H 10.054365 L 7.1439483,24.60625 4.2335316,17.4625 Z"
         style="opacity:0.1;fill:#ffffff;stroke-width:0.264583"
         id="path3" />
      <path
         d="m 4.2335316,17.727084 -1.5874999,2.116666 1.5874999,1.322917 -0.79375,0.529167 3.7041667,4.497916 3.7041667,-4.497916 -0.79375,-0.529167 1.5875,-1.322917 -1.5875,-2.116666 H 7.1439483 Z"
         style="opacity:0.2;stroke-width:0.264583"
         id="path4" />
      <path
         d="m 4.2335316,17.4625 -1.5874999,2.116667 1.5874999,1.322917 -0.79375,0.529166 3.7041667,4.497917 3.7041667,-4.497917 -0.79375,-0.529166 1.5875,-1.322917 -1.5875,-2.116667 H 7.1439483 Z"
         style="fill:#516d95;stroke-width:0.264583;fill-opacity:1"
         id="path5-7" />
      <path
         d="m 4.2335316,17.4625 -1.5874999,2.116667 0.1219565,0.101803 1.4655434,-1.953886 h 2.9104167 2.9104167 l 1.465543,1.953886 0.121957,-0.101803 -1.5875,-2.116667 H 7.1439483 Z m -0.1762167,3.557406 -0.6175333,0.411344 0.1405599,0.171049 0.6531901,-0.435632 z m 6.1732671,0 -0.176217,0.146761 0.65319,0.435632 0.14056,-0.171049 z"
         style="opacity:0.1;fill:#ffffff;stroke-width:0.264583"
         id="path6-5" />
      <path
         d="M 4.2335316,17.4625 H 10.054365 L 7.1439483,25.929167 Z"
         style="fill:#e4e4e4;stroke-width:0.264583"
         id="path7" />
      <path
         d="m 5.5564483,19.05 0.79375,1.852084 -0.2645834,1.852083 V 28.575 L 7.1439483,29.633333 8.2022816,28.575 V 22.754167 L 7.9376983,20.902084 8.7314482,19.05 Z"
         style="opacity:0.2;stroke-width:0.264583"
         id="path8" />
      <path
         d="m 5.5564483,18.785417 0.79375,1.852083 -0.2645834,1.852084 v 5.820833 L 7.1439483,29.36875 8.2022816,28.310417 V 22.489584 L 7.9376983,20.6375 8.7314482,18.785417 Z"
         style="fill:#c83771;stroke-width:0.264583"
         id="path9" />
      <path
         d="M 4.2335316,17.727084 4.7626983,20.6375 7.1439483,19.314584 9.5251982,20.6375 10.054365,17.727084 Z"
         style="opacity:0.2;stroke-width:0.264583"
         id="path10" />
      <path
         d="m 6.3501983,20.6375 h 1.5875 L 8.7314482,18.785417 H 5.5564483 Z"
         style="opacity:0.2;stroke-width:0.264583"
         id="path11" />
      <path
         d="M 4.2335316,17.4625 4.7626983,20.372917 7.1439483,19.05 9.5251982,20.372917 10.054365,17.4625 Z"
         style="fill:#f2f2f2;stroke-width:0.264583;fill-opacity:1"
         id="path12" />
    </g>
  </g>
</svg>
