<?xml version="1.0" encoding="UTF-8" standalone="no"?>
<svg
   width="62"
   height="62"
   version="1.1"
   id="svg14"
   sodipodi:docname="the-witcher-3.svg"
   inkscape:version="1.4 (unknown)"
   xmlns:inkscape="http://www.inkscape.org/namespaces/inkscape"
   xmlns:sodipodi="http://sodipodi.sourceforge.net/DTD/sodipodi-0.dtd"
   xmlns="http://www.w3.org/2000/svg"
   xmlns:svg="http://www.w3.org/2000/svg">
  <defs
     id="defs14" />
  <sodipodi:namedview
     id="namedview14"
     pagecolor="#ffffff"
     bordercolor="#000000"
     borderopacity="0.25"
     inkscape:showpageshadow="2"
     inkscape:pageopacity="0.0"
     inkscape:pagecheckerboard="0"
     inkscape:deskcolor="#d1d1d1"
     inkscape:zoom="12.109375"
     inkscape:cx="32"
     inkscape:cy="32"
     inkscape:window-width="1920"
     inkscape:window-height="998"
     inkscape:window-x="0"
     inkscape:window-y="0"
     inkscape:window-maximized="1"
     inkscape:current-layer="svg14" />
  <g
     id="g14"
     transform="matrix(0.98275862,0,0,0.98245614,-0.44827584,-0.92982455)">
    <path
       style="opacity:0.2"
       d="M 32,5 A 28,28 0 0 0 13.552734,11.982422 L 11,11 V 8 l -2,3 c 0,0 0.2570068,1.817077 1.320312,4.308594 a 28,28 0 0 0 -4.0312495,6.625 L 6,22 6.1933594,22.144531 A 28,28 0 0 0 4.4042969,28.460938 L 3,29 4.2539062,29.455078 A 28,28 0 0 0 4,33 28,28 0 0 0 6.2304688,43.878906 L 4,47 7.2890625,46.123047 A 28,28 0 0 0 32,61 28,28 0 0 0 56.716797,46.125 L 60,47 57.789062,43.904297 A 28,28 0 0 0 60,33 28,28 0 0 0 59.740234,29.458984 L 61,29 59.619141,28.46875 A 28,28 0 0 0 57.787109,22.160156 L 58,22 57.681641,21.925781 A 28,28 0 0 0 53.654297,15.279297 C 54.721398,12.802993 55,11 55,11 L 53,8 v 3 l -2.539062,0.976562 A 28,28 0 0 0 32,5 Z"
       id="path1" />
    <circle
       style="fill:#dee6ea"
       cx="32"
       cy="32"
       r="28"
       id="circle1" />
    <path
       style="opacity:0.1"
       d="m 19,9 v 5.076172 l -6.238281,-2.398438 a 28,28 0 0 0 -2.714844,2.990235 c 0.498946,1.27413 1.219814,2.774473 2.261719,4.332031 0.307993,0.460425 0.618734,0.894815 0.927734,1.330078 L 6,22 l 5.152344,3.865234 -6.9082034,2.65625 A 28,28 0 0 0 4.1308594,29.410156 L 14,33 6.5058594,43.492188 a 28,28 0 0 0 1.28125,2.498046 L 19,43 17,54 27.416016,47.75 28,56 c 0,0 1.190475,1 4,1 2.809525,0 4,-1 4,-1 L 36.568359,47.740234 47,54 45,43 56.222656,45.992188 A 28,28 0 0 0 57.5,43.501953 L 50,33 59.855469,29.416016 A 28,28 0 0 0 59.748047,28.517578 L 52.847656,25.863281 58,22 50.726562,20.322266 C 51.031245,19.889451 51.336478,19.457595 51.642578,19 52.699554,17.419912 53.43538,15.897148 53.943359,14.611328 A 28,28 0 0 0 51.220703,11.685547 L 45,14.078125 V 9 l -6,4.400391 V 12 L 37,13 37.595703,12 32,13 26.5,12 27,13 25,12 24.95313,13.400391 Z"
       id="path2" />
    <path
       style="fill:#3d485d"
       d="m 19,8 v 10 l -13,3 8,6 v 5 L 4,46 19,42 17,53 32,44 47,53 45,42 60,46 50,32 V 27 L 58,21 45,18 V 8 l -6,4.4 V 11 L 37,12 37.595238,11 32,12 26.5,11 27,12 25,11 24.95238,12.4 Z"
       id="path3" />
    <path
       style="opacity:0.2"
       d="M 19,14.076172 V 18 l -6.365234,1.46875 C 14.284885,21.878946 16,24 16,24 L 12.033203,25.525391 14,27 v 5 L 13.433594,32.792969 14,33 23.546875,30 c 0,0 2.612765,0.0078 2.810547,2.800781 L 27.347656,46.791016 32,44 36.634766,46.78125 37.595703,32.800781 C 37.787781,30.00734 40.404297,30 40.404297,30 L 50,33 50.566406,32.792969 50,32 V 27 L 51.966797,25.525391 48,24 c 0,0 1.677209,-2.126826 3.324219,-4.541016 L 45,18 V 14.076172 L 40,16 32,15 24,16 Z"
       id="path4" />
    <path
       style="fill:#6d7687"
       d="m 11,7 -2,3 c 0,0 0.499998,3.8 3.309525,8 C 14.051915,20.604729 16,23 16,23 l -13,5 11,4 9.547614,-3 c 0,0 2.611742,0.007 2.809524,2.8 L 28,55 c 0,0 1.190475,1 4,1 2.809525,0 4,-1 4,-1 L 37.595238,31.8 C 37.787316,29.006559 40.404762,29 40.404762,29 L 50,32 61,28 48,23 c 0,0 1.900461,-2.395271 3.642851,-5 C 54.452376,13.8 55,10 55,10 L 53,7 v 3 l -13,5 -8,-1 -8,1 -13,-5 z"
       id="path5" />
    <path
       style="opacity:0.1"
       d="m 21,20 c 0,0 -0.261162,7 3.953125,7 C 29.167412,27 29,25 29,25 Z m 22,0 -8,5 c 0,0 -0.214287,2 4,2 4.214287,0 4,-7 4,-7 z"
       id="path6" />
    <path
       style="fill:#d82727"
       d="m 21,19 8,5 c 0,0 0.166663,2 -4.047624,2 C 20.738089,26 21,19 21,19 Z"
       id="path7" />
    <path
       style="fill:#d82727"
       d="m 43,19 -8,5 c 0,0 -0.214287,2 4,2 4.214287,0 4,-7 4,-7 z"
       id="path8" />
    <path
       style="opacity:0.4"
       d="m 28,35 4,1 4,-1 -1,16 -3,2 -3,-2 z"
       id="path9" />
    <path
       style="opacity:0.2"
       d="m 28,35 v 5 l 1.166016,-2.800781 c 0,0 1.429222,0.800781 2.833984,0.800781 1.404762,0 2.785156,-0.800781 2.785156,-0.800781 L 36,40 v -5 c 0,0 -1.190475,1 -4,1 -2.809525,0 -4,-1 -4,-1 z m 1,13.400391 v 4.199218 C 29,52.599609 28.999534,54 30.404297,54 h 3.191406 C 35.000466,54 35,52.599609 35,52.599609 v -4.199218 l -1.404297,2.798828 h -3.191406 z"
       id="path10" />
    <path
       style="fill:#ffffff"
       d="m 29,51.6 v -4.2 l 1.404763,2.8 h 3.190474 L 35,47.4 v 4.2 c 0,0 0,1.4 -1.404763,1.4 H 30.404763 C 29,53 29,51.6 29,51.6 Z"
       id="path11" />
    <path
       style="fill:#ffffff"
       d="m 28,34 v 5 l 1.166663,-2.8 c 0,0 1.428575,0.8 2.833337,0.8 1.404762,0 2.785713,-0.8 2.785713,-0.8 L 36,39 v -5 c 0,0 -1.190475,1 -4,1 -2.809525,0 -4,-1 -4,-1 z"
       id="path12" />
    <path
       style="opacity:0.2;fill:#ffffff"
       d="m 11,7 -2,3 c 0,0 0.041005,0.292173 0.1484375,0.775391 L 11,8 Z m 42,0 v 1 l 1.84375,2.765625 C 54.954734,10.287584 55,10 55,10 Z m -42,3 v 1 l 13,5 8,-1 8,1 13,-5 v -1 l -13,5 -8,-1 -8,1 z M 48.591797,23.228516 C 48.381448,23.500271 48,24 48,24 L 59.664062,28.486328 61,28 Z m -33.193359,0.002 L 3,28 4.3359375,28.486328 16,24 c 0,0 -0.387792,-0.499244 -0.601562,-0.769531 z"
       id="path13" />
    <path
       style="opacity:0.1;fill:#ffffff"
       d="m 21,19 c 0,0 -0.0077,0.436307 0.02344,1.015625 l 7.673828,4.794922 C 29.009689,24.382198 29,24 29,24 Z m 22,0 -8,5 c 0,0 -0.01943,0.386791 0.289062,0.818359 L 42.96875,20.019531 C 43.004233,19.436416 43,19 43,19 Z"
       id="path14" />
  </g>
</svg>
