<?xml version="1.0" encoding="UTF-8" standalone="no"?>
<svg
   width="62"
   height="62"
   version="1.1"
   id="svg44"
   sodipodi:docname="thedarkmod.svg"
   inkscape:version="1.4 (unknown)"
   xmlns:inkscape="http://www.inkscape.org/namespaces/inkscape"
   xmlns:sodipodi="http://sodipodi.sourceforge.net/DTD/sodipodi-0.dtd"
   xmlns:xlink="http://www.w3.org/1999/xlink"
   xmlns="http://www.w3.org/2000/svg"
   xmlns:svg="http://www.w3.org/2000/svg">
  <sodipodi:namedview
     id="namedview46"
     pagecolor="#ffffff"
     bordercolor="#666666"
     borderopacity="1.0"
     inkscape:showpageshadow="2"
     inkscape:pageopacity="0.0"
     inkscape:pagecheckerboard="0"
     inkscape:deskcolor="#d1d1d1"
     showgrid="false"
     inkscape:zoom="9.8333334"
     inkscape:cx="31.372881"
     inkscape:cy="33.406779"
     inkscape:window-width="1920"
     inkscape:window-height="998"
     inkscape:window-x="0"
     inkscape:window-y="0"
     inkscape:window-maximized="1"
     inkscape:current-layer="svg44" />
  <defs
     id="defs20">
    <linearGradient
       id="linearGradient3"
       inkscape:collect="always">
      <stop
         style="stop-color:#6c5d53;stop-opacity:1"
         offset="0"
         id="stop3" />
      <stop
         style="stop-color:#6c5d53;stop-opacity:1"
         offset="0.28353515"
         id="stop18" />
      <stop
         style="stop-color:#664f41;stop-opacity:1;"
         offset="0.72808719"
         id="stop17" />
      <stop
         style="stop-color:#664f41;stop-opacity:1;"
         offset="1"
         id="stop16" />
    </linearGradient>
    <linearGradient
       id="a"
       y1="542.79999"
       y2="503.79999"
       x2="0"
       gradientUnits="userSpaceOnUse">
      <stop
         stop-color="#2a2c2f"
         id="stop2" />
      <stop
         offset="1"
         stop-color="#424649"
         id="stop4" />
    </linearGradient>
    <linearGradient
       id="b"
       y1="42"
       x1="42"
       y2="6"
       x2="6"
       gradientUnits="userSpaceOnUse">
      <stop
         stop-color="#989a9b"
         id="stop7" />
      <stop
         offset="1"
         stop-color="#f6f6f7"
         id="stop9" />
    </linearGradient>
    <linearGradient
       id="c"
       y1="523.79999"
       y2="549.79999"
       x2="0"
       gradientUnits="userSpaceOnUse"
       gradientTransform="matrix(0.70711,-0.70711,0.70711,0.70711,-635.28,-57.48)">
      <stop
         id="stop12" />
      <stop
         offset="1"
         stop-opacity="0"
         id="stop14" />
    </linearGradient>
    <linearGradient
       xlink:href="#c"
       id="d"
       y1="520.94"
       x1="410.88"
       y2="532.63"
       x2="422.57001"
       gradientUnits="userSpaceOnUse"
       gradientTransform="translate(-384.57,-499.8)" />
    <linearGradient
       xlink:href="#a"
       id="e"
       y1="543.79999"
       x1="428.57001"
       y2="503.79999"
       x2="388.57001"
       gradientUnits="userSpaceOnUse" />
    <linearGradient
       xlink:href="#a"
       id="f"
       x1="391.57001"
       x2="461.20001"
       gradientUnits="userSpaceOnUse"
       gradientTransform="translate(250.71,-442.32)" />
    <linearGradient
       gradientTransform="matrix(1.0499636,0,0,1.0499041,-523.49446,-510.34455)"
       gradientUnits="userSpaceOnUse"
       x2="426.69501"
       y2="499.92099"
       y1="547.67499"
       id="a-6"
       x1="389.32001">
      <stop
         stop-color="#18222a"
         style="stop-color:#1e2b35;stop-opacity:1"
         id="stop216" />
      <stop
         stop-color="#566069"
         offset="1"
         style="stop-color:#6d7983;stop-opacity:1"
         id="stop218" />
    </linearGradient>
    <linearGradient
       id="e-7-3-7"
       y1="543.79999"
       y2="503.79999"
       x2="0"
       gradientUnits="userSpaceOnUse"
       gradientTransform="translate(-380.57001,-495.79997)">
      <stop
         stop-color="#2f3943"
         id="stop18-5-7-5" />
      <stop
         offset="1"
         stop-color="#808c9b"
         id="stop20-3-5-3" />
    </linearGradient>
    <linearGradient
       id="b-6-2-6"
       y1="540.79999"
       y2="536.79999"
       gradientUnits="userSpaceOnUse"
       x2="0">
      <stop
         stop-color="#2f3943"
         id="stop7-2-2-2" />
      <stop
         offset="1"
         stop-color="#4d5662"
         id="stop9-9-8-9" />
    </linearGradient>
    <linearGradient
       id="c-2-7-2"
       y1="537.79999"
       y2="538.79999"
       x2="0"
       gradientUnits="userSpaceOnUse">
      <stop
         stop-color="#197cf1"
         id="stop12-7-3-7" />
      <stop
         offset="1"
         stop-color="#21c9fb"
         id="stop14-0-6-0" />
    </linearGradient>
    <linearGradient
       id="linearGradient450"
       y1="540.79999"
       y2="536.79999"
       gradientUnits="userSpaceOnUse"
       x2="0">
      <stop
         stop-color="#2f3943"
         id="stop446" />
      <stop
         offset="1"
         stop-color="#4d5662"
         id="stop448" />
    </linearGradient>
    <linearGradient
       xlink:href="#c-2-7-2"
       id="d-3-2-3"
       y1="539.79999"
       y2="538.79999"
       gradientUnits="userSpaceOnUse"
       x2="0"
       gradientTransform="translate(-387.87002,-583.50001)" />
    <linearGradient
       id="linearGradient457"
       y1="537.79999"
       y2="538.79999"
       x2="0"
       gradientUnits="userSpaceOnUse">
      <stop
         stop-color="#197cf1"
         id="stop453" />
      <stop
         offset="1"
         stop-color="#21c9fb"
         id="stop455" />
    </linearGradient>
    <linearGradient
       id="a-67"
       y1="542.79999"
       y2="503.79999"
       x2="0"
       gradientUnits="userSpaceOnUse">
      <stop
         stop-color="#2a2c2f"
         id="stop2-5" />
      <stop
         offset="1"
         stop-color="#424649"
         id="stop4-3" />
    </linearGradient>
    <linearGradient
       id="c-6"
       y1="523.79999"
       y2="549.79999"
       x2="0"
       gradientUnits="userSpaceOnUse"
       gradientTransform="matrix(0.70711,-0.70711,0.70711,0.70711,-635.28,-57.48)">
      <stop
         id="stop12-2" />
      <stop
         offset="1"
         stop-opacity="0"
         id="stop14-9" />
    </linearGradient>
    <linearGradient
       xlink:href="#a-67"
       id="f-1"
       x1="391.57001"
       x2="461.20001"
       gradientUnits="userSpaceOnUse"
       gradientTransform="translate(204.55027,-360.5481)" />
    <linearGradient
       id="linearGradient891"
       y1="542.79999"
       y2="503.79999"
       x2="0"
       gradientUnits="userSpaceOnUse">
      <stop
         stop-color="#2a2c2f"
         id="stop887" />
      <stop
         offset="1"
         stop-color="#424649"
         id="stop889" />
    </linearGradient>
    <linearGradient
       xlink:href="#c-6"
       id="d-2"
       y1="520.94"
       x1="410.88"
       y2="532.63"
       x2="422.57001"
       gradientUnits="userSpaceOnUse"
       gradientTransform="translate(-475.03132,-474.61839)" />
    <linearGradient
       id="linearGradient898"
       y1="523.79999"
       y2="549.79999"
       x2="0"
       gradientUnits="userSpaceOnUse"
       gradientTransform="matrix(0.70711,-0.70711,0.70711,0.70711,-635.28,-57.48)">
      <stop
         id="stop894" />
      <stop
         offset="1"
         stop-opacity="0"
         id="stop896" />
    </linearGradient>
    <linearGradient
       xlink:href="#a-67"
       id="e-7"
       y1="543.79999"
       x1="428.57001"
       y2="503.79999"
       x2="388.57001"
       gradientUnits="userSpaceOnUse"
       gradientTransform="translate(-90.461323,25.181605)" />
    <linearGradient
       id="linearGradient905"
       y1="542.79999"
       y2="503.79999"
       x2="0"
       gradientUnits="userSpaceOnUse">
      <stop
         stop-color="#2a2c2f"
         id="stop901" />
      <stop
         offset="1"
         stop-color="#424649"
         id="stop903" />
    </linearGradient>
    <linearGradient
       id="b-0"
       y1="42"
       x1="42"
       y2="6"
       x2="6"
       gradientUnits="userSpaceOnUse"
       gradientTransform="translate(-90.461323,25.181605)">
      <stop
         stop-color="#989a9b"
         id="stop7-9" />
      <stop
         offset="1"
         stop-color="#f6f6f7"
         id="stop9-3" />
    </linearGradient>
    <linearGradient
       id="e-3"
       x1="9.9694004"
       x2="9.9694004"
       y1="295.76001"
       y2="281.48999"
       gradientTransform="matrix(2.6677565,0,0,2.6677565,9.4119652,-737.77831)"
       gradientUnits="userSpaceOnUse">
      <stop
         stop-color="#7b88a1"
         offset="0"
         id="stop10"
         style="stop-color:#ffd42a;stop-opacity:1" />
      <stop
         stop-color="#a6aebf"
         offset="1"
         id="stop11"
         style="stop-color:#ff00ff;stop-opacity:1" />
    </linearGradient>
    <linearGradient
       id="d-6"
       x1="5.0327001"
       x2="5.0327001"
       y1="294.19"
       y2="282.62"
       gradientTransform="matrix(2.6361212,0,0,2.6361212,54.358138,-658.42438)"
       gradientUnits="userSpaceOnUse">
      <stop
         stop-color="#4c566a"
         offset="0"
         id="stop12-7" />
      <stop
         stop-color="#7b88a1"
         offset="1"
         id="stop13" />
    </linearGradient>
    <linearGradient
       id="c-5"
       x1="8.6028166"
       x2="8.6981649"
       y1="281.98367"
       y2="292.302"
       gradientTransform="matrix(2.6361212,0,0,2.6361212,54.358138,-658.42438)"
       gradientUnits="userSpaceOnUse"
       xlink:href="#e-3">
      <stop
         stop-color="#4c566a"
         offset="0"
         id="stop14-3"
         style="stop-color:#ffd42a;stop-opacity:1" />
      <stop
         stop-color="#2e3440"
         offset="1"
         id="stop15"
         style="stop-color:#ff00ff;stop-opacity:1" />
    </linearGradient>
    <radialGradient
       id="b-5"
       cx="-136.99001"
       cy="198.64999"
       r="38.5"
       gradientTransform="matrix(0.25885738,0,0,0.21740271,67.458336,-11.179684)"
       gradientUnits="userSpaceOnUse">
      <stop
         stop-color="#5e81ac"
         offset="0"
         id="stop1" />
      <stop
         stop-color="#2e3440"
         offset="1"
         id="stop2-6" />
    </radialGradient>
    <filter
       id="n"
       x="-0.10977762"
       y="-0.12999462"
       width="1.2195553"
       height="1.2599891"
       color-interpolation-filters="sRGB">
      <feGaussianBlur
         stdDeviation="0.15227829"
         id="feGaussianBlur9" />
    </filter>
    <filter
       id="m"
       x="-0.18987022"
       y="-0.24323177"
       width="1.3797404"
       height="1.4864635"
       color-interpolation-filters="sRGB">
      <feGaussianBlur
         stdDeviation="0.15227829"
         id="feGaussianBlur10" />
    </filter>
    <filter
       id="g"
       x="-0.04983059"
       y="-0.080737707"
       width="1.0996612"
       height="1.1614754"
       color-interpolation-filters="sRGB">
      <feGaussianBlur
         stdDeviation="0.12802309"
         id="feGaussianBlur7" />
    </filter>
    <filter
       id="a-2"
       x="-0.05351622"
       y="-0.086705591"
       width="1.1070324"
       height="1.1734112"
       color-interpolation-filters="sRGB">
      <feGaussianBlur
         stdDeviation="0.085527836"
         id="feGaussianBlur4" />
    </filter>
    <filter
       id="i"
       x="-0.049672056"
       y="-0.080481142"
       width="1.0993441"
       height="1.1609623"
       color-interpolation-filters="sRGB">
      <feGaussianBlur
         stdDeviation="0.7624247"
         id="feGaussianBlur5" />
    </filter>
    <filter
       id="j"
       x="-0.0099663455"
       y="-0.016147479"
       width="1.0199327"
       height="1.032295"
       color-interpolation-filters="sRGB">
      <feGaussianBlur
         stdDeviation="0.030455491"
         id="feGaussianBlur3" />
    </filter>
    <filter
       id="k"
       x="-0.19932388"
       y="-0.32295498"
       width="1.3986478"
       height="1.6459099"
       color-interpolation-filters="sRGB">
      <feGaussianBlur
         stdDeviation="1.0607186"
         id="feGaussianBlur2" />
    </filter>
    <filter
       id="f-9"
       x="-0.19465575"
       y="-0.31539097"
       width="1.3893116"
       height="1.6307819"
       color-interpolation-filters="sRGB">
      <feGaussianBlur
         stdDeviation="2.9878037"
         id="feGaussianBlur8" />
    </filter>
    <filter
       id="h"
       x="-0.19932236"
       y="-0.32295084"
       width="1.3986447"
       height="1.6459017"
       color-interpolation-filters="sRGB">
      <feGaussianBlur
         stdDeviation="0.51209235"
         id="feGaussianBlur6" />
    </filter>
    <filter
       id="filter1"
       x="-0.05351622"
       y="-0.086705588"
       width="1.1070324"
       height="1.1734113"
       color-interpolation-filters="sRGB">
      <feGaussianBlur
         stdDeviation="0.085527836"
         id="feGaussianBlur1" />
    </filter>
    <radialGradient
       id="paint156_radial_890_11"
       cx="0"
       cy="0"
       r="1"
       gradientUnits="userSpaceOnUse"
       gradientTransform="matrix(27.99998,27.99998,-27.99998,27.99998,122.33333,29.169492)">
      <stop
         offset="0.600678"
         stop-color="#B7C6CD"
         id="stop1054" />
      <stop
         offset="0.876735"
         stop-color="#EFF2F6"
         id="stop1055" />
    </radialGradient>
    <linearGradient
       id="paint157_linear_890_11"
       x1="803"
       y1="805"
       x2="763"
       y2="765"
       gradientUnits="userSpaceOnUse"
       gradientTransform="matrix(1.1666667,0,0,1.1666667,-840.50003,-823.40963)">
      <stop
         offset="0.314714"
         stop-color="#2E2E41"
         id="stop1056" />
      <stop
         offset="0.711139"
         stop-color="#566C80"
         id="stop1057" />
    </linearGradient>
    <linearGradient
       id="paint158_linear_890_11"
       x1="792"
       y1="794"
       x2="774"
       y2="776"
       gradientUnits="userSpaceOnUse"
       gradientTransform="translate(-752,-758)">
      <stop
         offset="0.304478"
         stop-color="#2E2E41"
         id="stop1058" />
      <stop
         offset="1"
         stop-color="#566C80"
         id="stop1059" />
    </linearGradient>
    <linearGradient
       id="paint159_linear_890_11"
       x1="788"
       y1="790"
       x2="778"
       y2="780"
       gradientUnits="userSpaceOnUse"
       gradientTransform="translate(-752,-758)">
      <stop
         offset="0.39139399"
         stop-color="#5200FF"
         id="stop1060"
         style="stop-color:#854cff;stop-opacity:1;" />
      <stop
         offset="1"
         stop-color="#0085FF"
         id="stop1061"
         style="stop-color:#40a4ff;stop-opacity:1;" />
    </linearGradient>
    <linearGradient
       id="paint160_linear_890_11"
       x1="784"
       y1="798"
       x2="782"
       y2="796"
       gradientUnits="userSpaceOnUse"
       gradientTransform="translate(-752,-758)">
      <stop
         stop-color="#FF7E07"
         id="stop1062" />
      <stop
         offset="1"
         stop-color="#FFE607"
         id="stop1063" />
    </linearGradient>
    <filter
       id="filter1030-6-5"
       x="-0.061720629"
       y="-0.058451215"
       width="1.1234413"
       height="1.1169024"
       color-interpolation-filters="sRGB">
      <feGaussianBlur
         stdDeviation="0.24897588"
         id="feGaussianBlur327-6" />
    </filter>
    <linearGradient
       id="linearGradient958"
       x1="-272.20999"
       x2="-275.5"
       y1="44.527"
       y2="50.384998"
       gradientTransform="matrix(0.41204,0,0,0.41204,123.57,-13.539)"
       gradientUnits="userSpaceOnUse">
      <stop
         stop-color="#3650ae"
         offset="0"
         id="stop286-7" />
      <stop
         stop-color="#388fc9"
         offset="1"
         id="stop288-5" />
    </linearGradient>
    <filter
       id="filter1040-5-2"
       x="-0.066213406"
       y="-0.054852634"
       width="1.1324268"
       height="1.1097053"
       color-interpolation-filters="sRGB">
      <feGaussianBlur
         stdDeviation="0.2340379"
         id="feGaussianBlur335-7" />
    </filter>
    <linearGradient
       id="linearGradient966"
       x1="-272.85999"
       x2="-267.62"
       y1="54.907001"
       y2="49.026001"
       gradientTransform="matrix(0.41204,0,0,0.41204,123.57,-13.539)"
       gradientUnits="userSpaceOnUse">
      <stop
         stop-color="#3491cb"
         offset="0"
         id="stop294" />
      <stop
         stop-color="#3850bb"
         offset="1"
         id="stop296" />
    </linearGradient>
    <filter
       id="filter1046-3-6"
       x="-0.047273067"
       y="-0.082104253"
       width="1.0945461"
       height="1.1642085"
       color-interpolation-filters="sRGB">
      <feGaussianBlur
         stdDeviation="0.22334751"
         id="feGaussianBlur343-0" />
    </filter>
    <linearGradient
       id="linearGradient974"
       x1="-277.66"
       x2="-270.88"
       y1="59.727001"
       y2="58.222"
       gradientTransform="matrix(0.41204,0,0,0.41204,123.57,-13.539)"
       gradientUnits="userSpaceOnUse">
      <stop
         stop-color="#2fb1dc"
         offset="0"
         id="stop302" />
      <stop
         stop-color="#3491cb"
         offset="1"
         id="stop304" />
    </linearGradient>
    <filter
       id="filter1052-5-1"
       x="-0.061679681"
       y="-0.058409123"
       width="1.1233594"
       height="1.1168182"
       color-interpolation-filters="sRGB">
      <feGaussianBlur
         stdDeviation="0.24881069"
         id="feGaussianBlur351-8" />
    </filter>
    <linearGradient
       id="linearGradient982"
       x1="-282.60999"
       x2="-278.76001"
       y1="54.153999"
       y2="62.018002"
       gradientTransform="matrix(0.41204,0,0,0.41204,123.57,-13.539)"
       gradientUnits="userSpaceOnUse">
      <stop
         stop-color="#30add9"
         offset="0"
         id="stop310-3" />
      <stop
         stop-color="#329ed2"
         offset="1"
         id="stop312" />
    </linearGradient>
    <filter
       id="filter1058-6-0"
       x="-0.066213588"
       y="-0.054852655"
       width="1.1324272"
       height="1.1097053"
       color-interpolation-filters="sRGB">
      <feGaussianBlur
         stdDeviation="0.23403799"
         id="feGaussianBlur359-2" />
    </filter>
    <linearGradient
       id="linearGradient990-5"
       x1="-286.34"
       x2="-282.53"
       y1="57.278"
       y2="49.414001"
       gradientTransform="matrix(0.41204,0,0,0.41204,123.57,-13.539)"
       gradientUnits="userSpaceOnUse">
      <stop
         stop-color="#329fd2"
         offset="0"
         id="stop318-6" />
      <stop
         stop-color="#2c80c1"
         offset="1"
         id="stop320-2" />
    </linearGradient>
    <filter
       id="filter1064-9-9"
       x="-0.04727349"
       y="-0.082104264"
       width="1.094547"
       height="1.1642085"
       color-interpolation-filters="sRGB">
      <feGaussianBlur
         stdDeviation="0.22334755"
         id="feGaussianBlur367-2" />
    </filter>
    <linearGradient
       id="linearGradient998"
       x1="-281.51001"
       x2="-282.54999"
       y1="43.16"
       y2="49.908001"
       gradientTransform="matrix(0.41204,0,0,0.41204,123.57,-13.539)"
       gradientUnits="userSpaceOnUse">
      <stop
         stop-color="#3857ba"
         offset="0"
         id="stop326" />
      <stop
         stop-color="#367dc1"
         offset="1"
         id="stop328-9" />
    </linearGradient>
    <filter
       id="filter1103-1-7"
       x="-0.05988692"
       y="-0.060124935"
       width="1.1197738"
       height="1.1202499"
       color-interpolation-filters="sRGB">
      <feGaussianBlur
         stdDeviation="0.60007942"
         id="feGaussianBlur375-3" />
    </filter>
    <filter
       id="filter1299-2-9"
       x="-0.030470268"
       y="-0.030470268"
       width="1.0609405"
       height="1.0609405"
       color-interpolation-filters="sRGB">
      <feGaussianBlur
         stdDeviation="0.18834042"
         id="feGaussianBlur383-3" />
    </filter>
    <linearGradient
       id="linearGradient1227"
       x1="-228.53999"
       x2="-228.53999"
       y1="49.422001"
       y2="52.341999"
       gradientTransform="translate(237.02,-44.947)"
       gradientUnits="userSpaceOnUse">
      <stop
         stop-color="#fff"
         offset="0"
         id="stop342" />
      <stop
         stop-color="#fff"
         stop-opacity="0"
         offset="1"
         id="stop344" />
    </linearGradient>
    <filter
       id="filter1229-7-7"
       x="-0.069095556"
       y="-0.10709949"
       width="1.1381911"
       height="1.214199"
       color-interpolation-filters="sRGB">
      <feGaussianBlur
         stdDeviation="0.1347133"
         id="feGaussianBlur391-8" />
    </filter>
    <filter
       id="filter4"
       x="-0.069095559"
       y="-0.10709949"
       width="1.1381911"
       height="1.2141989"
       color-interpolation-filters="sRGB">
      <feGaussianBlur
         stdDeviation="0.1347133"
         id="feGaussianBlur4-3" />
    </filter>
    <filter
       id="filter1251-0-5"
       x="-0.20800194"
       y="-0.28363517"
       width="1.4160039"
       height="1.5672703"
       color-interpolation-filters="sRGB">
      <feGaussianBlur
         stdDeviation="0.069956252"
         id="feGaussianBlur394-0" />
    </filter>
    <radialGradient
       inkscape:collect="always"
       xlink:href="#linearGradient7"
       id="radialGradient9"
       cx="32.302387"
       cy="34"
       fx="32.302387"
       fy="34"
       r="28"
       gradientUnits="userSpaceOnUse"
       gradientTransform="matrix(0.99999999,1,-1,0.99999999,32.697613,-35.302381)" />
    <linearGradient
       id="linearGradient7"
       inkscape:collect="always">
      <stop
         style="stop-color:#6c5d53;stop-opacity:1"
         offset="0"
         id="stop8" />
      <stop
         style="stop-color:#67584e;stop-opacity:1;"
         offset="0.58519185"
         id="stop10-7" />
      <stop
         style="stop-color:#eff2f6;stop-opacity:1;"
         offset="0.86599815"
         id="stop11-5" />
      <stop
         style="stop-color:#eff2f6;stop-opacity:1;"
         offset="1"
         id="stop9-35" />
    </linearGradient>
    <linearGradient
       inkscape:collect="always"
       xlink:href="#linearGradient1-6"
       id="linearGradient6"
       x1="15.60323"
       y1="17.703012"
       x2="48.302387"
       y2="50"
       gradientUnits="userSpaceOnUse"
       gradientTransform="translate(-1.3023885,-2.9999939)" />
    <linearGradient
       id="linearGradient1-6"
       inkscape:collect="always">
      <stop
         style="stop-color:#303c47;stop-opacity:1;"
         offset="0"
         id="stop5" />
      <stop
         style="stop-color:#363e48;stop-opacity:1;"
         offset="0.25046653"
         id="stop7-2" />
      <stop
         style="stop-color:#303c47;stop-opacity:1;"
         offset="0.91934216"
         id="stop12-9" />
      <stop
         style="stop-color:#303c47;stop-opacity:1;"
         offset="1"
         id="stop6" />
    </linearGradient>
    <linearGradient
       id="d-6-1"
       gradientUnits="userSpaceOnUse"
       x1="27"
       x2="25.42725"
       y1="28"
       y2="32.71825"
       gradientTransform="translate(-58.575692,-29.333333)">
      <stop
         offset="0"
         stop-color="#b1621e"
         id="stop231" />
      <stop
         offset="1"
         stop-color="#ffa21d"
         id="stop233" />
    </linearGradient>
    <linearGradient
       id="c-2"
       gradientTransform="matrix(2.0428665,-6.8308524,5.7819337,2.3633129,-33.356582,5.3194785)"
       gradientUnits="userSpaceOnUse"
       x1="24"
       x2="24"
       y1="35"
       y2="13">
      <stop
         offset="0"
         stop-color="#cd7223"
         id="stop224" />
      <stop
         offset=".53"
         stop-color="#f48e00"
         id="stop226" />
      <stop
         offset="1"
         stop-color="#ffa92d"
         id="stop228" />
    </linearGradient>
    <filter
       id="filter1030-6-5-2"
       x="-0.061720629"
       y="-0.058451215"
       width="1.1234413"
       height="1.1169024"
       color-interpolation-filters="sRGB">
      <feGaussianBlur
         stdDeviation="0.24897588"
         id="feGaussianBlur327-6-6" />
    </filter>
    <filter
       id="filter1040-5-2-7"
       x="-0.066213406"
       y="-0.054852634"
       width="1.1324268"
       height="1.1097053"
       color-interpolation-filters="sRGB">
      <feGaussianBlur
         stdDeviation="0.2340379"
         id="feGaussianBlur335-7-9" />
    </filter>
    <filter
       id="filter1046-3-6-2"
       x="-0.047273067"
       y="-0.082104253"
       width="1.0945461"
       height="1.1642085"
       color-interpolation-filters="sRGB">
      <feGaussianBlur
         stdDeviation="0.22334751"
         id="feGaussianBlur343-0-3" />
    </filter>
    <filter
       id="filter1052-5-1-9"
       x="-0.061679681"
       y="-0.058409123"
       width="1.1233594"
       height="1.1168182"
       color-interpolation-filters="sRGB">
      <feGaussianBlur
         stdDeviation="0.24881069"
         id="feGaussianBlur351-8-2" />
    </filter>
    <filter
       id="filter1058-6-0-9"
       x="-0.066213588"
       y="-0.054852655"
       width="1.1324272"
       height="1.1097053"
       color-interpolation-filters="sRGB">
      <feGaussianBlur
         stdDeviation="0.23403799"
         id="feGaussianBlur359-2-7" />
    </filter>
    <filter
       id="filter1064-9-9-1"
       x="-0.04727349"
       y="-0.082104264"
       width="1.094547"
       height="1.1642085"
       color-interpolation-filters="sRGB">
      <feGaussianBlur
         stdDeviation="0.22334755"
         id="feGaussianBlur367-2-2" />
    </filter>
    <filter
       id="filter1103-1-7-1"
       x="-0.05988692"
       y="-0.060124935"
       width="1.1197738"
       height="1.1202499"
       color-interpolation-filters="sRGB">
      <feGaussianBlur
         stdDeviation="0.60007942"
         id="feGaussianBlur375-3-9" />
    </filter>
    <filter
       id="filter1299-2-9-4"
       x="-0.024000055"
       y="-0.024000055"
       width="1.0480001"
       height="1.0480001"
       color-interpolation-filters="sRGB">
      <feGaussianBlur
         stdDeviation="0.18834042"
         id="feGaussianBlur383-3-5" />
    </filter>
    <filter
       id="filter1229-7-7-6"
       x="-0.069095556"
       y="-0.10709949"
       width="1.1381911"
       height="1.214199"
       color-interpolation-filters="sRGB">
      <feGaussianBlur
         stdDeviation="0.1347133"
         id="feGaussianBlur391-8-1" />
    </filter>
    <filter
       id="filter5"
       x="-0.069095559"
       y="-0.10709949"
       width="1.1381911"
       height="1.2141989"
       color-interpolation-filters="sRGB">
      <feGaussianBlur
         stdDeviation="0.1347133"
         id="feGaussianBlur5-3" />
    </filter>
    <filter
       id="filter1251-0-5-2"
       x="-0.20800194"
       y="-0.28363517"
       width="1.4160039"
       height="1.5672703"
       color-interpolation-filters="sRGB">
      <feGaussianBlur
         stdDeviation="0.069956252"
         id="feGaussianBlur394-0-0" />
    </filter>
    <linearGradient
       inkscape:collect="always"
       xlink:href="#linearGradient3"
       id="linearGradient18"
       gradientUnits="userSpaceOnUse"
       gradientTransform="translate(-41.999999,-61.423726)"
       x1="49.666664"
       y1="69.090393"
       x2="96.333336"
       y2="115.75706" />
  </defs>
  <path
     d="m 59,31.000006 c 0,15.46415 -12.535828,28 -28.000002,28 -15.464163,0 -27.9999974,-12.53585 -27.9999974,-28 0,-15.464165 12.5358344,-28 27.9999974,-28 15.464174,0 28.000002,12.535835 28.000002,28 z"
     id="path154-0"
     style="fill:url(#radialGradient9)" />
  <path
     d="m 54.333332,31 c 0,12.88701 -10.446332,23.33332 -23.333335,23.33332 C 18.112998,54.33332 7.6666658,43.88701 7.6666658,31 7.6666658,18.113006 18.112998,7.6666739 30.999997,7.6666739 43.887,7.6666739 54.333332,18.113006 54.333332,31 Z"
     id="path155-9"
     style="fill:url(#linearGradient6)" />
  <path
     d="m 54.333334,30.999998 c 0,12.88701 -10.446337,23.33334 -23.333337,23.33334 -12.887,0 -23.3333306,-10.44633 -23.3333306,-23.33334 0,-12.886995 10.4463306,-23.3333241 23.3333306,-23.3333241 12.887,0 23.333337,10.4463291 23.333337,23.3333241 z"
     id="path155-6"
     style="fill:url(#linearGradient18)" />
  <g
     id="g1"
     transform="matrix(1.0606136,0,0,1.0370444,-1.8790223,-58.704347)">
    <path
       style="opacity:0.2"
       d="m 31.824219,65.000001 -0.308594,2.984375 a 19.037523,19.037523 0 0 0 -2.05078,0.04687 l -0.46875,-2.95312 -2.894532,0.457031 0.472656,2.964844 a 19.037523,19.037523 0 0 0 -1.964842,0.582031 l -1.218752,-2.742187 -2.67578,1.195312 1.226562,2.746094 a 19.037523,19.037523 0 0 0 -1.746094,1.070312 l -1.894531,-2.335937 -2.273437,1.84375 1.882812,2.320313 a 19.037523,19.037523 0 0 0 -1.410156,1.492188 l -2.421875,-1.757814 -1.71875,2.371094 2.433594,1.765626 a 19.037523,19.037523 0 0 0 -0.976563,1.796874 l -2.804687,-1.074218 -1.046875,2.734374 2.800781,1.07422 a 19.037523,19.037523 0 0 0 -0.472656,1.992186 l -2.988281,-0.3125 -0.304688,2.914064 2.984375,0.308594 a 19.037523,19.037523 0 0 0 0.04687,2.05078 l -2.953124,0.46875 0.457031,2.894532 2.964848,-0.472656 a 19.037523,19.037523 0 0 0 0.582031,1.964842 l -2.742187,1.218752 1.195312,2.67578 2.746094,-1.226562 a 19.037523,19.037523 0 0 0 1.070312,1.746094 l -2.335937,1.89453 1.84375,2.273441 2.320313,-1.88282 A 19.037523,19.037523 0 0 0 18.671876,101.5 l -1.757813,2.42188 2.371094,1.71875 1.765626,-2.4336 a 19.037523,19.037523 0 0 0 1.796874,0.97656 l -1.074218,2.80469 2.734374,1.04688 1.07422,-2.80078 a 19.037523,19.037523 0 0 0 1.992186,0.47265 l -0.3125,2.98828 2.914064,0.30469 0.308594,-2.98437 a 19.037523,19.037523 0 0 0 2.05078,-0.0469 l 0.46875,2.95312 2.894532,-0.45703 L 35.425783,105.5 a 19.037523,19.037523 0 0 0 1.964842,-0.58203 l 1.218752,2.74219 2.67578,-1.19532 -1.226562,-2.74609 a 19.037523,19.037523 0 0 0 1.746094,-1.07031 l 1.89453,2.33594 2.273438,-1.84375 -1.882812,-2.32032 a 19.037523,19.037523 0 0 0 1.410156,-1.492185 l 2.421876,1.757815 1.718748,-2.371095 -2.433592,-1.765626 a 19.037523,19.037523 0 0 0 0.976562,-1.796874 l 2.804688,1.074218 1.046874,-2.734374 -2.80078,-1.07422 a 19.037523,19.037523 0 0 0 0.472656,-1.992186 l 2.98828,0.3125 0.304688,-2.914064 -2.984376,-0.308594 a 19.037523,19.037523 0 0 0 -0.04688,-2.05078 l 2.953132,-0.46875 -0.457032,-2.894532 -2.964844,0.472656 a 19.037523,19.037523 0 0 0 -0.582032,-1.964842 l 2.742188,-1.218752 -1.195312,-2.67578 -2.746094,1.226562 a 19.037523,19.037523 0 0 0 -1.070312,-1.746094 l 2.335938,-1.89453 -1.843752,-2.273438 -2.320312,1.882812 a 19.037523,19.037523 0 0 0 -1.492188,-1.410156 l 1.757814,-2.421875 -2.371094,-1.71875 -1.765626,2.433594 a 19.037523,19.037523 0 0 0 -1.796874,-0.976563 l 1.074218,-2.804687 -2.734374,-1.046875 -1.07422,2.800781 A 19.037523,19.037523 0 0 0 34.425783,68.29297 l 0.3125,-2.988281 z m -0.703124,5.910156 -1.16797,2.023438 -2.472656,-1.429688 a 3.6666668,3.6666668 0 0 1 0.265626,-0.273437 16.108674,16.108674 0 0 1 0.722656,-0.140624 16.108674,16.108674 0 0 1 2.652344,-0.179689 z m 1.527344,0.28125 a 3.6666668,3.6666668 0 0 1 1.117186,1.792969 3.6666668,3.6666668 0 0 1 -0.07032,2.109375 l -2.472656,-1.429688 z m 1.976562,0.125 a 16.108674,16.108674 0 0 1 1.238282,0.34375 l -0.929688,0.25 a 5.1333336,5.1333336 0 0 0 -0.308594,-0.59375 z m -9.101562,0.546875 a 5.1333336,5.1333336 0 0 0 -0.0196,0.04687 l -0.0586,-0.01562 a 16.108674,16.108674 0 0 1 0.07812,-0.03125 z m 10.976562,0 a 16.108674,16.108674 0 0 1 10.410156,12.605469 16.108674,16.108674 0 0 1 -0.09374,5.464844 l -0.09374,0.02734 c -0.13452,-0.237762 -0.301334,-0.452984 -0.496094,-0.644532 l 0.78125,-1.355468 -1.26953,-0.734376 -0.78125,1.351562 c -0.263838,-0.0722 -0.535076,-0.1049 -0.808594,-0.10156 l -0.40625,-1.511718 -1.41797,0.378906 0.410158,1.511718 c -0.237762,0.13452 -0.456892,0.301334 -0.648438,0.496094 l -1.35547,-0.78125 -0.734374,1.269532 1.351562,0.78125 c -0.0722,0.263838 -0.1049,0.535076 -0.10156,0.808594 l -1.51174,0.406252 0.378906,1.414062 1.511718,-0.402344 c 0.13452,0.23776 0.30132,0.456892 0.496094,0.648438 l -0.785156,1.351562 1.273438,0.734376 0.781248,-1.351564 c 0.263842,0.0722 0.535074,0.1049 0.808594,0.10156 l 0.35547,1.339844 a 16.108674,16.108674 0 0 1 -0.85547,1.218748 l -0.691406,-1.253906 -1.335936,0.734376 a 5.1333336,5.1333336 0 0 0 -0.835938,-0.875 l 0.785156,-1.300782 -1.257812,-0.757812 -0.785158,1.304688 a 5.1333336,5.1333336 0 0 0 -1.164062,-0.335938 l 0.03126,-1.523438 -1.46875,-0.02734 -0.02734,1.527344 a 5.1333336,5.1333336 0 0 0 -1.17578,0.285156 l -0.566406,-1.027344 0.285156,0.281252 1.03125,-1.04297 -1.07422,-1.058594 a 6.6000004,6.6000004 0 0 0 0.609376,-0.941406 l 1.402344,0.570312 0.554686,-1.355468 -1.398436,-0.570312 a 6.6000004,6.6000004 0 0 0 0.203124,-1.101562 l 1.519532,-0.0078 -0.0118,-1.46875 -1.511718,0.0118 a 6.6000004,6.6000004 0 0 0 -0.230468,-1.09375 l 1.398438,-0.589844 -0.570314,-1.351562 -1.39453,0.589842 a 6.6000004,6.6000004 0 0 0 -0.625,-0.929686 l 1.0625,-1.07422 -1.04297,-1.03125 -1.0625,1.07422 a 6.6000004,6.6000004 0 0 0 -0.9375,-0.609376 l 0.570314,-1.402344 -1.359376,-0.554686 -0.0156,0.03516 -0.367188,-1.375 a 5.1333336,5.1333336 0 0 0 1.05078,-0.601564 l 1.07422,1.078126 1.042968,-1.04297 -1.082032,-1.074218 a 5.1333336,5.1333336 0 0 0 0.609376,-1.046874 l 1.46875,0.39453 0.378906,-1.421874 -1.472656,-0.390626 a 5.1333336,5.1333336 0 0 0 0,-1.210936 l 1.472656,-0.394532 z m -12.765624,0.78125 -0.07812,0.289063 1.472656,0.398438 a 5.1333336,5.1333336 0 0 0 0,1.20703 l -1.472656,0.394532 0.378906,1.414062 1.476562,-0.394532 a 5.1333336,5.1333336 0 0 0 0.601564,1.050782 l -1.078126,1.074218 1.039062,1.04297 1.078126,-1.078126 a 5.1333336,5.1333336 0 0 0 1.042968,0.609376 l -0.371094,1.398438 -0.0156,-0.03516 -1.351562,0.570314 0.585936,1.39453 a 6.6000004,6.6000004 0 0 0 -0.92578,0.625 l -1.078126,-1.0625 -1.027344,1.04297 1.07422,1.0625 a 6.6000004,6.6000004 0 0 0 -0.613282,0.9375 l -1.402344,-0.570314 -0.55078,1.359376 1.39453,0.566406 a 6.6000004,6.6000004 0 0 0 -0.203124,1.101562 l -1.515626,0.0118 0.0078,1.464844 1.515626,-0.0078 a 6.6000004,6.6000004 0 0 0 0.226562,1.09375 l -1.39453,0.589844 0.570312,1.347656 1.390624,-0.585936 a 6.6000004,6.6000004 0 0 0 0.628906,0.92578 l -1.0625,1.078126 1.04297,1.027344 1.058594,-1.07422 a 6.6000004,6.6000004 0 0 0 0.941406,0.613282 l -0.570312,1.402344 1.355468,0.55078 0.570312,-1.39453 a 6.6000004,6.6000004 0 0 0 1.101562,0.203124 l 0.0078,1.515626 1.46875,-0.0078 -0.0118,-1.515626 a 6.6000004,6.6000004 0 0 0 1.09375,-0.226562 l 0.589844,1.39453 1.351562,-0.570312 -0.589842,-1.390624 a 6.6000004,6.6000004 0 0 0 0.929686,-0.628906 l 0.53125,0.527342 -1.199218,0.65625 0.738282,1.335938 a 5.1333336,5.1333336 0 0 0 -0.875,0.835938 l -1.300782,-0.785156 -0.757812,1.257812 1.30078,0.785156 a 5.1333336,5.1333336 0 0 0 -0.33203,1.164062 l -1.523362,-0.03135 -0.03126,1.468747 1.527344,0.0273 a 5.1333336,5.1333336 0 0 0 0.289062,1.17578 l -1.332032,0.73438 0.582032,1.05859 A 16.108674,16.108674 0 0 1 15.089845,89.531251 16.108674,16.108674 0 0 1 23.734377,72.644532 Z m 3.011718,0.128906 2.472656,1.425781 -1.425782,2.476564 a 3.6666668,3.6666668 0 0 1 -1.11328,-1.79297 3.6666668,3.6666668 0 0 1 0.0664,-2.109375 z m 3.742188,2.160157 2.472656,1.429688 a 3.6666668,3.6666668 0 0 1 -1.79297,1.11328 3.6666668,3.6666668 0 0 1 -2.109374,-0.0664 z m 0.339842,4.089844 0.390626,1.472656 1.34375,-0.359376 -0.503906,1.246094 a 6.6000004,6.6000004 0 0 0 -1.101562,-0.203124 l -0.0118,-1.519532 -1.464844,0.0118 0.0078,1.511718 a 6.6000004,6.6000004 0 0 0 -1.09375,0.230468 l -0.535156,-1.277344 1.36328,0.359376 0.394532,-1.46875 a 5.1333336,5.1333336 0 0 0 1.210936,-0.004 z m -0.558592,3.574218 h 0.0118 a 5.1333336,5.1333336 0 0 1 1.988282,0.410156 5.1333336,5.1333336 0 0 1 2.390624,2.078126 l -4.003906,1.6875 -1.6875,-4 a 5.1333336,5.1333336 0 0 1 1.289062,-0.17188 5.1333336,5.1333336 0 0 1 0.0118,-0.004 z m -2.652344,0.742188 1.6875,4.003906 -3.996094,1.6875 a 5.1333336,5.1333336 0 0 1 -0.17578,-1.289062 5.1333336,5.1333336 0 0 1 0,-0.02344 5.1333336,5.1333336 0 0 1 0.40625,-1.988282 5.1333336,5.1333336 0 0 1 2.078126,-2.390624 z m 7.609374,3.097656 a 5.1333336,5.1333336 0 0 1 0.17188,1.289062 5.1333336,5.1333336 0 0 1 0.004,0.0118 v 0.0078 a 5.1333336,5.1333336 0 0 1 -0.410156,1.992188 5.1333336,5.1333336 0 0 1 -2.078126,2.386718 l -1.6875,-4 z m -5.351562,2.257812 1.6875,3.996094 a 5.1333336,5.1333336 0 0 1 -1.289062,0.17578 5.1333336,5.1333336 0 0 1 -0.0196,0 5.1333336,5.1333336 0 0 1 -1.992188,-0.40625 5.1333336,5.1333336 0 0 1 -2.386718,-2.078126 z m 14.324218,1.238282 a 1.4666667,1.4666667 0 0 1 1.464844,1.46875 1.4666667,1.4666667 0 0 1 -1.464844,1.464844 1.4666667,1.4666667 0 0 1 -1.464842,-1.464844 1.4666667,1.4666667 0 0 1 1.464842,-1.46875 z m -6.542968,5.867188 a 3.6666668,3.6666668 0 0 1 2.003906,0.648436 l -2.058594,1.98047 -1.976562,-2.058594 a 3.6666668,3.6666668 0 0 1 2.03125,-0.570312 z m 5.980468,1.164062 a 16.108674,16.108674 0 0 1 -1.085936,1.242188 5.1333336,5.1333336 0 0 0 -0.16796,-0.550782 z m -9.070312,0.42578 1.98047,2.058594 -2.058594,1.976561 a 3.6666668,3.6666668 0 0 1 -0.570314,-2.031247 3.6666668,3.6666668 0 0 1 0.648438,-2.003908 z m 6.113282,0.11718 a 3.6666668,3.6666668 0 0 1 0.566406,1.898438 16.108674,16.108674 0 0 1 -1.589844,1.156247 l -1.035156,-1.074215 z m -3.117188,2.996095 0.78125,0.8125 a 16.108674,16.108674 0 0 1 -2.78125,1.11329 z m -4.066406,2.0586 a 5.1333336,5.1333336 0 0 0 0.253906,0.30469 16.108674,16.108674 0 0 1 -0.21875,0.043 A 16.108674,16.108674 0 0 1 32.707033,103 Z"
       id="path2" />
    <path
       style="fill:#ca9159"
       d="m 26.455321,79.586125 0.587912,1.393482 a 6.6000004,6.6000004 0 0 0 -0.926222,0.627072 l -1.076542,-1.063054 -1.03014,1.044 1.075424,1.060404 a 6.6000004,6.6000004 0 0 0 -0.61127,0.938784 l -1.40356,-0.57064 -0.552326,1.35852 1.396046,0.567584 a 6.6000004,6.6000004 0 0 0 -0.203322,1.102456 l -1.516662,0.0088 0.0094,1.46664 1.512916,-0.0102 a 6.6000004,6.6000004 0 0 0 0.22854,1.094366 l -1.396182,0.589056 0.570126,1.35132 1.39348,-0.587914 a 6.6000004,6.6000004 0 0 0 0.627074,0.926224 l -1.063052,1.07654 1.043998,1.030142 1.060404,-1.075424 a 6.6000004,6.6000004 0 0 0 0.938782,0.61127 l -0.57064,1.40356 1.358522,0.552328 0.567584,-1.396048 a 6.6000004,6.6000004 0 0 0 1.102456,0.203322 l 0.0088,1.516662 1.46664,-0.0094 -0.0102,-1.512918 a 6.6000004,6.6000004 0 0 0 1.094368,-0.228542 l 0.589054,1.396184 1.351322,-0.570126 -0.587914,-1.393482 a 6.6000004,6.6000004 0 0 0 0.926226,-0.627072 l 1.07654,1.063052 1.03014,-1.044 -1.075424,-1.060404 a 6.6000004,6.6000004 0 0 0 0.611226,-0.938738 l 1.40356,0.57064 0.552326,-1.35852 -1.396046,-0.567586 a 6.6000004,6.6000004 0 0 0 0.203322,-1.102454 l 1.51666,-0.0088 -0.0094,-1.46664 -1.512916,0.0102 a 6.6000004,6.6000004 0 0 0 -0.228488,-1.094388 l 1.396184,-0.589054 -0.570128,-1.35132 -1.39348,0.587914 a 6.6000004,6.6000004 0 0 0 -0.627138,-0.926254 l 1.063052,-1.07654 -1.043998,-1.03014 -1.060404,1.075422 a 6.6000004,6.6000004 0 0 0 -0.938738,-0.611268 l 0.57064,-1.40356 -1.358524,-0.552328 -0.567582,1.396046 a 6.6000004,6.6000004 0 0 0 -1.102456,-0.203322 l -0.0088,-1.51666 -1.46664,0.0094 0.0102,1.512916 a 6.6000004,6.6000004 0 0 0 -1.094368,0.228544 l -0.58904,-1.396138 z m 1.162544,2.755476 1.688088,4.001126 -3.998558,1.687004 a 5.1333336,5.1333336 0 0 1 -0.17366,-1.288522 5.1333336,5.1333336 0 0 1 -0.0026,-0.02074 5.1333336,5.1333336 0 0 1 0.409576,-1.99166 5.1333336,5.1333336 0 0 1 2.07701,-2.38732 z m 1.352462,-0.56742 a 5.1333336,5.1333336 0 0 1 1.288524,-0.17366 5.1333336,5.1333336 0 0 1 0.0118,-0.0018 l 0.009,-6.6e-4 a 5.1333336,5.1333336 0 0 1 1.991578,0.409386 5.1333336,5.1333336 0 0 1 2.387324,2.07701 l -4.001126,1.688086 z m -3.095374,7.607954 4.001126,-1.688088 1.687004,3.99856 a 5.1333336,5.1333336 0 0 1 -1.288522,0.17366 5.1333336,5.1333336 0 0 1 -0.02074,0.0026 5.1333336,5.1333336 0 0 1 -1.991658,-0.409578 5.1333336,5.1333336 0 0 1 -2.38732,-2.077006 z m 5.352446,-2.258214 3.99856,-1.687004 a 5.1333336,5.1333336 0 0 1 0.17366,1.288524 5.1333336,5.1333336 0 0 1 0.0018,0.0118 l 6.6e-4,0.009 a 5.1333336,5.1333336 0 0 1 -0.40944,1.9916 5.1333336,5.1333336 0 0 1 -2.077008,2.387324 z"
       id="path3" />
    <path
       style="fill:#ca9159"
       d="m 36.978141,91.854563 -0.0296,1.526514 a 5.1333336,5.1333336 0 0 0 -1.174536,0.28666 l -0.736286,-1.332236 -1.285858,0.708536 0.736232,1.335096 a 5.1333336,5.1333336 0 0 0 -0.875714,0.833962 l -1.29987,-0.784466 -0.757854,1.257422 1.302688,0.787382 a 5.1333336,5.1333336 0 0 0 -0.33484,1.162484 l -1.523726,-0.02956 -0.02844,1.466392 1.526512,0.0296 a 5.1333336,5.1333336 0 0 0 0.28666,1.174531 l -1.332236,0.73629 0.708536,1.28586 1.335096,-0.73624 a 5.1333336,5.1333336 0 0 0 0.833962,0.87572 l -0.509166,0.84393 a 17.600001,17.600001 0 0 0 4.151484,-1.17442 3.6666668,3.6666668 0 0 1 -0.458916,0.0255 3.6666668,3.6666668 0 0 1 -2.007388,-0.6492 l 2.058376,-1.980067 1.853668,1.926977 a 17.600001,17.600001 0 0 0 4.67354,-3.571003 l -1.420566,-0.02756 a 5.1333336,5.1333336 0 0 0 -0.28666,-1.174534 l 1.332238,-0.736284 -0.708536,-1.285858 -1.335096,0.73623 a 5.1333336,5.1333336 0 0 0 -0.833964,-0.875704 l 0.784468,-1.299874 -1.257422,-0.757854 -0.787384,1.302692 a 5.1333336,5.1333336 0 0 0 -1.162482,-0.33484 l 0.02956,-1.523728 -1.46639,-0.02844 z m 0.676324,2.947002 a 3.6666668,3.6666668 0 0 1 2.007394,0.649202 l -2.05838,1.980066 -1.980062,-2.058376 a 3.6666668,3.6666668 0 0 1 2.031048,-0.570892 z m -3.08789,1.587496 1.980064,2.058378 -2.058376,1.980061 a 3.6666668,3.6666668 0 0 1 -0.570894,-2.031049 3.6666668,3.6666668 0 0 1 0.649206,-2.00739 z m 6.111918,0.11852 a 3.6666668,3.6666668 0 0 1 0.57089,2.03105 3.6666668,3.6666668 0 0 1 -0.649204,2.007389 l -1.980064,-2.058373 z"
       id="path4" />
    <path
       style="fill:#ca9159"
       d="m 43.743859,85.966273 -1.417972,0.378122 0.406764,1.512428 c -0.23776,0.13452 -0.455854,0.300812 -0.6474,0.495572 l -1.354952,-0.782028 -0.733332,1.26902 1.35209,0.782026 c -0.0722,0.263838 -0.10646,0.534292 -0.10312,0.80781 l -1.512426,0.406766 0.380996,1.415098 1.50964,-0.403904 c 0.13452,0.23776 0.300798,0.455854 0.495572,0.6474 l -0.782026,1.354952 1.271878,0.733332 0.779166,-1.352076 c 0.263842,0.0722 0.537152,0.10646 0.810672,0.10312 l 0.403904,1.50964 1.417974,-0.378122 -0.403906,-1.512426 c 0.237762,-0.13452 0.452996,-0.300798 0.644528,-0.495572 l 1.35495,0.782026 0.733334,-1.269018 -1.352092,-0.782026 c 0.0722,-0.26384 0.10932,-0.534292 0.106,-0.807812 l 1.50964,-0.406764 -0.380996,-1.4151 -1.50964,0.403906 c -0.13452,-0.237762 -0.300812,-0.455854 -0.495572,-0.647402 l 0.782028,-1.35495 -1.27188,-0.733334 -0.779166,1.352092 c -0.263838,-0.0722 -0.537152,-0.10646 -0.81067,-0.10312 l -0.403906,-1.509638 z m 0.455474,2.967654 a 1.4666667,1.4666667 0 0 1 1.466666,1.466668 1.4666667,1.4666667 0 0 1 -1.466666,1.466666 1.4666667,1.4666667 0 0 1 -1.466666,-1.466666 1.4666667,1.4666667 0 0 1 1.466666,-1.466668 z"
       id="path5" />
    <path
       style="fill:#ca9159"
       d="m 30.999993,68.400007 a 17.600001,17.600001 0 0 0 -5.45996,0.890883 l 0.572908,0.57291 a 5.1333336,5.1333336 0 0 0 -0.610162,1.045572 l -1.466666,-0.392451 -0.378122,1.417973 1.4696,0.395311 a 5.1333336,5.1333336 0 0 0 0,1.208855 l -1.472386,0.395311 0.38098,1.415098 1.47532,-0.39531 a 5.1333336,5.1333336 0 0 0 0.601568,1.048432 l -1.07709,1.07709 1.036978,1.039838 1.07995,-1.07709 a 5.1333336,5.1333336 0 0 0 1.042712,0.610162 l -0.39245,1.466666 1.417972,0.378122 0.395312,-1.4696 a 5.1333336,5.1333336 0 0 0 1.211716,-0.003 l 0.39245,1.472388 1.417974,-0.378122 -0.395312,-1.47532 a 5.1333336,5.1333336 0 0 0 1.048432,-0.601568 l 1.077092,1.07709 1.039838,-1.039834 -1.079952,-1.077094 a 5.1333336,5.1333336 0 0 0 0.610164,-1.045572 l 1.466666,0.395312 0.380982,-1.420834 -1.472388,-0.392451 a 5.1333336,5.1333336 0 0 0 0,-1.211715 l 1.472388,-0.392385 -0.380982,-1.417973 -1.472386,0.395311 A 5.1333336,5.1333336 0 0 0 34.331571,69.86358 l 0.919526,-0.922402 a 17.600001,17.600001 0 0 0 -1.738734,-0.340883 l -0.223432,0.223432 a 5.1333336,5.1333336 0 0 0 -0.504166,-0.332288 17.600001,17.600001 0 0 0 -1.78464,-0.09167 z m -0.638808,0.870834 a 3.6666668,3.6666668 0 0 1 1.019788,0.186194 l -1.429428,2.475 -2.472066,-1.429428 a 3.6666668,3.6666668 0 0 1 1.793294,-1.111455 3.6666668,3.6666668 0 0 1 1.088544,-0.12031 z m 2.288734,0.919527 a 3.6666668,3.6666668 0 0 1 1.11433,1.793293 3.6666668,3.6666668 0 0 1 -0.06874,2.108332 l -2.472072,-1.426567 1.426568,-2.475 z m -5.90392,1.584146 2.472066,1.426568 -1.426568,2.474999 a 3.6666668,3.6666668 0 0 1 -1.111454,-1.793291 3.6666668,3.6666668 0 0 1 0.06587,-2.108334 z m 3.743962,2.159959 2.472064,1.429428 a 3.6666668,3.6666668 0 0 1 -1.793292,1.111456 3.6666668,3.6666668 0 0 1 -2.108332,-0.06588 l 1.429426,-2.474999 z"
       id="path6" />
    <path
       style="fill:#ecc895"
       d="m 26.102991,64.536426 0.471328,2.963061 a 19.037523,19.037523 0 0 0 -1.963718,0.581707 l -1.22065,-2.739625 -2.674492,1.192912 1.224828,2.747709 a 19.037523,19.037523 0 0 0 -1.743986,1.070966 l -1.895051,-2.336968 -2.272672,1.844345 1.880621,2.31895 a 19.037523,19.037523 0 0 0 -1.407659,1.492434 l -2.422748,-1.75776 -1.719816,2.370446 2.435821,1.767246 a 19.037523,19.037523 0 0 0 -0.976803,1.797472 l -2.806301,-1.07411 -1.048139,2.732776 2.803553,1.074546 a 19.037523,19.037523 0 0 0 -0.473682,1.992652 L 9.30418,82.262921 9,85.175555 l 2.983156,0.31034 a 19.037523,19.037523 0 0 0 0.04784,2.048638 l -2.954673,0.469992 0.460102,2.892488 2.963061,-0.471328 a 19.037523,19.037523 0 0 0 0.581707,1.963716 l -2.739624,1.220652 1.192913,2.674492 2.747709,-1.224828 a 19.037523,19.037523 0 0 0 1.070966,1.743984 l -2.336968,1.895052 1.844345,2.272667 2.318948,-1.880615 a 19.037523,19.037523 0 0 0 1.492437,1.407655 l -1.757764,2.42275 2.370446,1.71982 1.767246,-2.43582 a 19.037523,19.037523 0 0 0 1.797472,0.9768 l -1.07411,2.8063 2.732776,1.04814 1.074546,-2.80356 a 19.037523,19.037523 0 0 0 1.992654,0.47369 l -0.312266,2.98924 2.912634,0.30418 0.31034,-2.98315 a 19.037523,19.037523 0 0 0 2.048638,-0.0478 l 0.469992,2.95467 2.892488,-0.4601 -0.471328,-2.96306 a 19.037523,19.037523 0 0 0 1.963718,-0.58171 l 1.22065,2.73962 2.674492,-1.1929 -1.224828,-2.74771 a 19.037523,19.037523 0 0 0 1.743986,-1.07097 l 1.895054,2.33697 2.272672,-1.84435 -1.88062,-2.318947 a 19.037523,19.037523 0 0 0 1.407656,-1.492436 l 2.422748,1.757763 1.719818,-2.370445 -2.435824,-1.767246 a 19.037523,19.037523 0 0 0 0.976804,-1.797474 l 2.8063,1.07411 1.048142,-2.732774 -2.803554,-1.074544 a 19.037523,19.037523 0 0 0 0.473682,-1.992656 l 2.989244,0.31226 0.304178,-2.912632 -2.983154,-0.31034 a 19.037523,19.037523 0 0 0 -0.04784,-2.04864 l 2.954674,-0.469992 -0.460104,-2.892486 -2.96306,0.471328 a 19.037523,19.037523 0 0 0 -0.5817,-1.963718 l 2.739624,-1.220652 -1.192912,-2.674492 -2.747708,1.22483 a 19.037523,19.037523 0 0 0 -1.070976,-1.743986 l 2.336968,-1.895053 -1.844346,-2.272672 -2.318948,1.880622 A 19.037523,19.037523 0 0 0 43.328085,71.50154 l 1.75776,-2.422749 -2.370446,-1.719816 -1.767244,2.435822 a 19.037523,19.037523 0 0 0 -1.797474,-0.976803 l 1.074108,-2.806301 -2.732772,-1.04814 -1.074546,2.803553 A 19.037523,19.037523 0 0 0 34.424817,67.293425 L 34.737081,64.30418 31.824449,64 l -0.31034,2.983156 a 19.037523,19.037523 0 0 0 -2.04864,0.04784 l -0.469992,-2.954674 z m 2.366446,5.554918 A 16.108674,16.108674 0 0 1 46.908663,83.469451 16.108674,16.108674 0 0 1 33.530555,101.90867 16.108674,16.108674 0 0 1 15.091331,88.530569 16.108674,16.108674 0 0 1 28.469437,70.091344 Z"
       id="path7" />
  </g>
</svg>
