<?xml version="1.0" encoding="UTF-8" standalone="no"?>
<svg
   width="62"
   height="62"
   version="1.1"
   id="svg3"
   sodipodi:docname="tilem.svg"
   inkscape:version="1.4 (unknown)"
   xmlns:inkscape="http://www.inkscape.org/namespaces/inkscape"
   xmlns:sodipodi="http://sodipodi.sourceforge.net/DTD/sodipodi-0.dtd"
   xmlns:xlink="http://www.w3.org/1999/xlink"
   xmlns="http://www.w3.org/2000/svg"
   xmlns:svg="http://www.w3.org/2000/svg">
  <defs
     id="defs3">
    <linearGradient
       id="a"
       x2="1"
       gradientTransform="matrix(-28.036158,-33.614998,33.614998,-28.036158,375.9446,-236.60772)"
       gradientUnits="userSpaceOnUse">
      <stop
         stop-color="#546cb9"
         offset="0"
         id="stop1-3"
         style="stop-color:#3f559b;stop-opacity:1;" />
      <stop
         stop-color="#83b7fa"
         offset="1"
         id="stop2-6"
         style="stop-color:#3c8ef7;stop-opacity:1;" />
    </linearGradient>
    <linearGradient
       id="b"
       x2="1"
       gradientTransform="matrix(-3.7706027,36.876992,-36.876992,-3.7706027,-462.50922,-36.468629)"
       gradientUnits="userSpaceOnUse">
      <stop
         stop-color="#8eafe1"
         offset="0"
         id="stop3-7"
         style="stop-color:#9db9e5;stop-opacity:1;" />
      <stop
         stop-color="#bbd4ff"
         offset="1"
         id="stop4-5"
         style="stop-color:#ebf2ff;stop-opacity:1;" />
    </linearGradient>
    <linearGradient
       id="c"
       x2="1"
       gradientTransform="matrix(31.682283,-10.681953,10.681953,31.682283,22.520655,57.431108)"
       gradientUnits="userSpaceOnUse">
      <stop
         stop-color="#2a52a9"
         offset="0"
         id="stop5-3" />
      <stop
         stop-color="#4270d5"
         offset="1"
         id="stop6-5" />
    </linearGradient>
    <linearGradient
       id="d"
       x2="1"
       gradientTransform="matrix(0,-24.493243,24.493243,0,697.92642,39.81797)"
       gradientUnits="userSpaceOnUse">
      <stop
         stop-color="#f2f6f7"
         offset="0"
         id="stop7-6" />
      <stop
         stop-color="#ecf0f1"
         offset="1"
         id="stop8-2" />
    </linearGradient>
    <linearGradient
       id="e"
       x2="1"
       gradientTransform="matrix(-0.05596558,-20.039244,20.039244,-0.05596558,349.50688,37.410712)"
       gradientUnits="userSpaceOnUse">
      <stop
         stop-color="#3077ff"
         offset="0"
         id="stop9-9" />
      <stop
         stop-color="#80b3ff"
         offset="1"
         id="stop10-1" />
    </linearGradient>
    <linearGradient
       id="paint386_linear_890_11"
       x1="659"
       y1="461"
       x2="714.341"
       y2="508.435"
       gradientUnits="userSpaceOnUse"
       gradientTransform="translate(-652,-458)">
      <stop
         offset="0.13521"
         stop-color="#EFF2F6"
         id="stop1514" />
      <stop
         offset="0.822843"
         stop-color="#B7C6CD"
         id="stop1515" />
    </linearGradient>
    <linearGradient
       id="paint387_linear_890_11"
       x1="689.30402"
       y1="491"
       x2="689.30402"
       y2="485"
       gradientUnits="userSpaceOnUse">
      <stop
         offset="0.340681"
         stop-color="#2E2E41"
         id="stop1516" />
      <stop
         offset="1"
         stop-color="#566C80"
         id="stop1517" />
    </linearGradient>
    <linearGradient
       id="paint390_linear_890_11"
       x1="689.30402"
       y1="501"
       x2="689.30402"
       y2="495"
       gradientUnits="userSpaceOnUse">
      <stop
         offset="0.340681"
         stop-color="#2E2E41"
         id="stop1522" />
      <stop
         offset="1"
         stop-color="#566C80"
         id="stop1523" />
    </linearGradient>
    <linearGradient
       id="paint393_linear_890_11"
       x1="689.30402"
       y1="511"
       x2="689.30402"
       y2="505"
       gradientUnits="userSpaceOnUse">
      <stop
         offset="0.340681"
         stop-color="#2E2E41"
         id="stop1528" />
      <stop
         offset="1"
         stop-color="#566C80"
         id="stop1529" />
    </linearGradient>
    <linearGradient
       id="paint396_linear_890_11"
       x1="701"
       y1="511"
       x2="690.479"
       y2="507.05499"
       gradientUnits="userSpaceOnUse"
       gradientTransform="translate(-652,-458)">
      <stop
         stop-color="#2E2E41"
         id="stop1534" />
      <stop
         offset="1"
         stop-color="#566C80"
         id="stop1535" />
    </linearGradient>
    <linearGradient
       id="paint397_linear_890_11"
       x1="695"
       y1="485"
       x2="701"
       y2="491"
       gradientUnits="userSpaceOnUse"
       gradientTransform="translate(-652,-458)">
      <stop
         stop-color="#F15700"
         id="stop1536" />
      <stop
         offset="1"
         stop-color="#FF0000"
         id="stop1537" />
    </linearGradient>
    <linearGradient
       id="paint398_linear_890_11"
       x1="703"
       y1="481"
       x2="694.26898"
       y2="456.056"
       gradientUnits="userSpaceOnUse"
       gradientTransform="matrix(1,0,0,1.7352144,-652,-801.34511)">
      <stop
         offset="0.552879"
         stop-color="#2E2E41"
         id="stop1538" />
      <stop
         offset="1"
         stop-color="#566C80"
         id="stop1539" />
    </linearGradient>
    <linearGradient
       id="paint399_linear_890_11"
       x1="679"
       y1="469"
       x2="686.534"
       y2="485.57501"
       gradientUnits="userSpaceOnUse"
       gradientTransform="translate(-652,-458)">
      <stop
         stop-color="#EFF2F6"
         id="stop1540" />
      <stop
         offset="1"
         stop-color="#B7C6CD"
         id="stop1541" />
    </linearGradient>
    <linearGradient
       inkscape:collect="always"
       xlink:href="#paint390_linear_890_11"
       id="linearGradient4"
       gradientUnits="userSpaceOnUse"
       x1="689.30402"
       y1="501"
       x2="689.30402"
       y2="495"
       gradientTransform="translate(-655,-458)" />
    <linearGradient
       inkscape:collect="always"
       xlink:href="#paint390_linear_890_11"
       id="linearGradient5"
       gradientUnits="userSpaceOnUse"
       x1="689.30402"
       y1="501"
       x2="689.30402"
       y2="495"
       gradientTransform="translate(-655,-458)" />
    <linearGradient
       inkscape:collect="always"
       xlink:href="#paint390_linear_890_11"
       id="linearGradient6"
       gradientUnits="userSpaceOnUse"
       x1="689.30402"
       y1="501"
       x2="689.30402"
       y2="495"
       gradientTransform="translate(-655,-458)" />
    <linearGradient
       inkscape:collect="always"
       xlink:href="#paint393_linear_890_11"
       id="linearGradient7"
       gradientUnits="userSpaceOnUse"
       x1="689.30402"
       y1="511"
       x2="689.30402"
       y2="505"
       gradientTransform="translate(-655,-458)" />
    <linearGradient
       inkscape:collect="always"
       xlink:href="#paint393_linear_890_11"
       id="linearGradient8"
       gradientUnits="userSpaceOnUse"
       x1="689.30402"
       y1="511"
       x2="689.30402"
       y2="505"
       gradientTransform="translate(-655,-458)" />
    <linearGradient
       inkscape:collect="always"
       xlink:href="#paint393_linear_890_11"
       id="linearGradient9"
       gradientUnits="userSpaceOnUse"
       x1="689.30402"
       y1="511"
       x2="689.30402"
       y2="505"
       gradientTransform="translate(-655,-458)" />
  </defs>
  <sodipodi:namedview
     id="namedview3"
     pagecolor="#ffffff"
     bordercolor="#000000"
     borderopacity="0.25"
     inkscape:showpageshadow="2"
     inkscape:pageopacity="0.0"
     inkscape:pagecheckerboard="0"
     inkscape:deskcolor="#d1d1d1"
     inkscape:zoom="5.890625"
     inkscape:cx="54.578249"
     inkscape:cy="58.312997"
     inkscape:window-width="1920"
     inkscape:window-height="998"
     inkscape:window-x="0"
     inkscape:window-y="0"
     inkscape:window-maximized="1"
     inkscape:current-layer="svg3"
     showgrid="true">
    <inkscape:grid
       id="grid1"
       units="px"
       originx="0"
       originy="0"
       spacingx="1"
       spacingy="1"
       empcolor="#0099e5"
       empopacity="0.30196078"
       color="#0099e5"
       opacity="0.14901961"
       empspacing="5"
       enabled="true"
       visible="true" />
  </sodipodi:namedview>
  <path
     d="M 7,9 C 7,5.686 9.931,3 13.545,3 h 34.91 C 52.07,3 55,5.686 55,9 v 44 c 0,3.314 -2.93,6 -6.545,6 H 13.545 C 9.93,59 7,56.314 7,53 Z"
     id="path376"
     style="fill:url(#paint386_linear_890_11)" />
  <path
     d="m 10,39 c 0,-1.105 0.895,-2 2,-2 h 2 c 1.105,0 2,0.895 2,2 v 2 c 0,1.105 -0.895,2 -2,2 h -2 c -1.105,0 -2,-0.895 -2,-2 z"
     id="path380"
     style="fill:url(#linearGradient4)" />
  <path
     d="m 20,39 c 0,-1.105 0.895,-2 2,-2 h 2 c 1.105,0 2,0.895 2,2 v 2 c 0,1.105 -0.895,2 -2,2 h -2 c -1.105,0 -2,-0.895 -2,-2 z"
     id="path381"
     style="fill:url(#linearGradient5)" />
  <path
     d="m 32,37 c -1.105,0 -2,0.895 -2,2 v 2 c 0,1.105 0.895,2 2,2 h 2 c 1.105,0 2,-0.895 2,-2 v -2 c 0,-1.105 -0.895,-2 -2,-2 z"
     id="path382"
     style="fill:url(#linearGradient6)" />
  <path
     d="m 10,49 c 0,-1.105 0.895,-2 2,-2 h 2 c 1.105,0 2,0.895 2,2 v 2 c 0,1.105 -0.895,2 -2,2 h -2 c -1.105,0 -2,-0.895 -2,-2 z"
     id="path383"
     style="fill:url(#linearGradient7)" />
  <path
     d="m 20,49 c 0,-1.105 0.895,-2 2,-2 h 2 c 1.105,0 2,0.895 2,2 v 2 c 0,1.105 -0.895,2 -2,2 h -2 c -1.105,0 -2,-0.895 -2,-2 z"
     id="path384"
     style="fill:url(#linearGradient8)" />
  <path
     d="m 32,47 c -1.105,0 -2,0.895 -2,2 v 2 c 0,1.105 0.895,2 2,2 h 2 c 1.105,0 2,-0.895 2,-2 v -2 c 0,-1.105 -0.895,-2 -2,-2 z"
     id="path385"
     style="fill:url(#linearGradient9)" />
  <path
     d="m 11,13 c 0,-3 1,-4 4,-4 h 32 c 3,0 4,1 4,4 v 16 c 0,3 -1,4.293 -4,4.293 H 15 C 12,33.293 11,32 11,29 Z"
     id="path388"
     style="fill:url(#paint398_linear_890_11);stroke-width:1.31728"
     sodipodi:nodetypes="sssssssss" />
  <path
     d="m 44.091658,37.525199 c -1.01105,0 -1.825,0.81395 -1.825,1.825 v 3.041658 H 39.225 c -1.01105,0 -1.825,0.81395 -1.825,1.825 v 1.216684 c 0,1.01105 0.81395,1.825 1.825,1.825 h 3.041658 v 3.041658 c 0,1.01105 0.81395,1.825 1.825,1.825 h 1.216684 c 1.01105,0 1.825,-0.81395 1.825,-1.825 V 47.258541 H 50.175 c 1.01105,0 1.825,-0.81395 1.825,-1.825 v -1.216684 c 0,-1.01105 -0.81395,-1.825 -1.825,-1.825 h -3.041658 v -3.041658 c 0,-1.01105 -0.81395,-1.825 -1.825,-1.825 z"
     style="fill:#bc5fd3;stroke-width:4.86658"
     id="path8" />
</svg>
