<?xml version="1.0" encoding="UTF-8" standalone="no"?>
<svg
   width="62"
   height="62"
   version="1"
   id="svg13"
   sodipodi:docname="tilesetter.svg"
   inkscape:version="1.4 (unknown)"
   xmlns:inkscape="http://www.inkscape.org/namespaces/inkscape"
   xmlns:sodipodi="http://sodipodi.sourceforge.net/DTD/sodipodi-0.dtd"
   xmlns="http://www.w3.org/2000/svg"
   xmlns:svg="http://www.w3.org/2000/svg">
  <defs
     id="defs13" />
  <sodipodi:namedview
     id="namedview13"
     pagecolor="#ffffff"
     bordercolor="#000000"
     borderopacity="0.25"
     inkscape:showpageshadow="2"
     inkscape:pageopacity="0.0"
     inkscape:pagecheckerboard="0"
     inkscape:deskcolor="#d1d1d1"
     inkscape:zoom="5"
     inkscape:cx="25.6"
     inkscape:cy="66.7"
     inkscape:window-width="1920"
     inkscape:window-height="998"
     inkscape:window-x="0"
     inkscape:window-y="0"
     inkscape:window-maximized="1"
     inkscape:current-layer="svg13" />
  <rect
     width="55.997971"
     height="55.969017"
     x="3.0020294"
     y="3.0000002"
     rx="13.001064"
     ry="12.994343"
     id="rect1"
     style="fill:#595959;fill-opacity:1;stroke-width:0.99967" />
  <path
     d="m 3.0000281,45.004248 v 0.999411 C 3.0000281,53.202417 8.7996109,59 16.003093,59 H 45.996935 C 53.199417,59 59,53.203416 59,46.003659 V 45.004248 C 59,52.203006 53.200417,57.99859 45.996935,57.99859 H 16.003093 A 12.974067,12.967359 0 0 1 3.0000281,45.004248"
     opacity="0.35"
     id="path1"
     style="stroke-width:0.99967" />
  <path
     fill="#ffffff"
     d="m 3.0000281,17.026735 v -0.999411 c 0,-7.1987583 5.7995828,-12.9963419 13.0030649,-12.9963419 H 45.996935 C 53.199417,3.0309821 59,8.8275662 59,16.027324 v 0.999411 C 59,9.8279767 53.200417,4.032392 45.996935,4.032392 H 16.003093 A 12.974067,12.967359 0 0 0 3.0000281,17.026735"
     opacity="0.15"
     id="path2"
     style="stroke-width:0.99967" />
  <g
     id="g1"
     transform="matrix(0.93,0,0,0.92682927,2.1710148,2.716216)">
    <path
       style="opacity:0.2"
       d="M 8.5,11 C 7.115,11 6,12.115 6,13.5 V 22 l 6,9 V 17 H 30 L 22,11 Z M 30,17 h 12 v 34 h 9 V 17 h 5 V 13.5 C 56,12.115 54.885,11 53.5,11 H 39 Z M 12,31 5.9999999,39 v 9.5 c 0,1.385 1.115,2.5 2.5000001,2.5 H 22 l 8,-6 H 12 Z"
       id="path2-3" />
    <path
       style="fill:#e4e4e4"
       d="M 8.5,10 C 7.115,10 6,11.115 6,12.5 V 21 l 6,9 V 16 H 30 L 22,10 Z M 30,16 h 12 v 34 h 9 V 16 h 5 V 12.5 C 56,11.115 54.885,10 53.5,10 H 39 Z M 12,30 5.9999999,38 v 9.5 c 0,1.385 1.115,2.5 2.5000001,2.5 H 22 l 8,-6 H 12 Z"
       id="path3-6" />
  </g>
</svg>
