<?xml version="1.0" encoding="UTF-8" standalone="no"?>
<svg
   width="62"
   height="62"
   viewBox="0 0 62 62"
   fill="none"
   version="1.1"
   id="svg26"
   sodipodi:docname="tilp.svg"
   inkscape:version="1.4 (unknown)"
   xmlns:inkscape="http://www.inkscape.org/namespaces/inkscape"
   xmlns:sodipodi="http://sodipodi.sourceforge.net/DTD/sodipodi-0.dtd"
   xmlns:xlink="http://www.w3.org/1999/xlink"
   xmlns="http://www.w3.org/2000/svg"
   xmlns:svg="http://www.w3.org/2000/svg">
  <sodipodi:namedview
     id="namedview26"
     pagecolor="#ffffff"
     bordercolor="#000000"
     borderopacity="0.25"
     inkscape:showpageshadow="2"
     inkscape:pageopacity="0.0"
     inkscape:pagecheckerboard="0"
     inkscape:deskcolor="#d1d1d1"
     showgrid="true"
     inkscape:zoom="12.109375"
     inkscape:cx="32"
     inkscape:cy="32"
     inkscape:window-width="1920"
     inkscape:window-height="998"
     inkscape:window-x="0"
     inkscape:window-y="0"
     inkscape:window-maximized="1"
     inkscape:current-layer="svg26">
    <inkscape:grid
       id="grid26"
       units="px"
       originx="0"
       originy="0"
       spacingx="1"
       spacingy="1"
       empcolor="#0099e5"
       empopacity="0.30196078"
       color="#0099e5"
       opacity="0.14901961"
       empspacing="5"
       enabled="true"
       visible="true" />
  </sodipodi:namedview>
  <path
     d="m 12,9.0000002 c 0,-3.31371 2.6863,-6 6,-6 h 26 c 3.3137,0 6,2.68629 6,6 V 53 c 0,3.3137 -2.6863,6 -6,6 H 18 c -3.3137,0 -6,-2.6863 -6,-6 z"
     id="path1"
     style="fill:url(#linearGradient34)" />
  <path
     d="m 32,56 c 0,0.5523 -0.4477,1 -1,1 -0.5523,0 -1,-0.4477 -1,-1 0,-0.5523 0.4477,-1 1,-1 0.5523,0 1,0.4477 1,1 z"
     id="path2"
     style="fill:url(#linearGradient30)" />
  <path
     d="m 28,6.0000002 c 0,-0.55228 0.4477,-1 1,-1 h 4 c 0.5523,0 1,0.44772 1,1 0,0.55228 -0.4477,1 -1,1 h -4 c -0.5523,0 -1,-0.44772 -1,-1 z"
     id="path3"
     style="fill:url(#linearGradient28)" />
  <path
     d="m 16,12 c 0,-2.0000002 1,-3 3,-3 l 24,2e-7 c 2,0 3,0.9999996 3,2.9999998 v 17 c 0,2 -0.999982,3 -3,3 H 19 c -2,0 -3,-1 -3,-3 z"
     id="path4"
     style="fill:url(#linearGradient32)" />
  <path
     d="m 40,37 h -2 c -1.1046,0 -2,0.8954 -2,2 v 2 c 0,1.1046 0.8954,2 2,2 h 2 c 1.1046,0 2,-0.8954 2,-2 v -2 c 0,-1.1046 -0.8954,-2 -2,-2 z"
     id="path5"
     style="fill:#8d5fd3" />
  <path
     d="m 32,37 h -2 c -1.1046,0 -2,0.8954 -2,2 v 2 c 0,1.1046 0.8954,2 2,2 h 2 c 1.1046,0 2,-0.8954 2,-2 v -2 c 0,-1.1046 -0.8954,-2 -2,-2 z"
     id="path6"
     style="fill:#8d5fd3" />
  <path
     d="m 32,45 h -2 c -1.1046,0 -2,0.8954 -2,2 v 2 c 0,1.1046 0.8954,2 2,2 h 2 c 1.1046,0 2,-0.8954 2,-2 v -2 c 0,-1.1046 -0.8954,-2 -2,-2 z"
     id="path7"
     style="fill:#8d5fd3" />
  <path
     d="m 24,37 h -2 c -1.1046,0 -2,0.8954 -2,2 v 2 c 0,1.1046 0.8954,2 2,2 h 2 c 1.1046,0 2,-0.8954 2,-2 v -2 c 0,-1.1046 -0.8954,-2 -2,-2 z"
     id="path8"
     style="fill:#8d5fd3" />
  <path
     d="m 24,45 h -2 c -1.1046,0 -2,0.8954 -2,2 v 2 c 0,1.1046 0.8954,2 2,2 h 2 c 1.1046,0 2,-0.8954 2,-2 v -2 c 0,-1.1046 -0.8954,-2 -2,-2 z"
     id="path9"
     style="fill:#8d5fd3" />
  <rect
     style="fill:#6771f2"
     width="4.1939998"
     height="2.806"
     x="64.130051"
     y="59.172077"
     transform="matrix(0.86784178,0.49684066,-0.5031173,0.86421814,0,0)"
     id="rect4" />
  <rect
     style="fill:#6771f2"
     width="4.1939998"
     height="2.806"
     x="71.120056"
     y="59.172077"
     transform="matrix(0.86784178,0.49684066,-0.5031173,0.86421814,0,0)"
     id="rect5" />
  <rect
     style="fill:#6771f2"
     width="4.1939998"
     height="2.806"
     x="78.110054"
     y="59.172077"
     transform="matrix(0.86784178,0.49684066,-0.5031173,0.86421814,0,0)"
     id="rect6" />
  <rect
     style="fill:#6771f2"
     width="4.1939998"
     height="2.806"
     x="85.100052"
     y="59.172077"
     transform="matrix(0.86784178,0.49684066,-0.5031173,0.86421814,0,0)"
     id="rect7" />
  <rect
     style="fill:#ffb845"
     width="4.1939998"
     height="2.806"
     x="64.130051"
     y="64.782074"
     transform="matrix(0.86784178,0.49684066,-0.5031173,0.86421814,0,0)"
     id="rect8" />
  <rect
     style="fill:#ff45ea"
     width="4.1939998"
     height="2.806"
     x="71.120056"
     y="64.782074"
     transform="matrix(0.86784178,0.49684066,-0.5031173,0.86421814,0,0)"
     id="rect9" />
  <rect
     style="fill:#6771f2"
     width="4.1939998"
     height="2.806"
     x="78.110054"
     y="64.782074"
     transform="matrix(0.86784178,0.49684066,-0.5031173,0.86421814,0,0)"
     id="rect10" />
  <rect
     style="fill:#6771f2"
     width="4.1939998"
     height="2.806"
     x="85.100052"
     y="64.782074"
     transform="matrix(0.86784178,0.49684066,-0.5031173,0.86421814,0,0)"
     id="rect11" />
  <rect
     style="opacity:0.4;fill:#ffffff"
     width="4.1939998"
     height="2.806"
     x="64.130051"
     y="70.392075"
     transform="matrix(0.86784178,0.49684066,-0.5031173,0.86421814,0,0)"
     id="rect12" />
  <rect
     style="opacity:0.4;fill:#ffffff"
     width="4.1939998"
     height="2.806"
     x="71.120056"
     y="70.392075"
     transform="matrix(0.86784178,0.49684066,-0.5031173,0.86421814,0,0)"
     id="rect13" />
  <rect
     style="opacity:0.4;fill:#ffffff"
     width="4.1939998"
     height="2.806"
     x="78.110054"
     y="70.392075"
     transform="matrix(0.86784178,0.49684066,-0.5031173,0.86421814,0,0)"
     id="rect14" />
  <rect
     style="opacity:0.4;fill:#ffffff"
     width="4.1939998"
     height="2.806"
     x="85.100052"
     y="70.392075"
     transform="matrix(0.86784178,0.49684066,-0.5031173,0.86421814,0,0)"
     id="rect15" />
  <rect
     style="opacity:0.4;fill:#ffffff"
     width="4.1939998"
     height="2.806"
     x="64.130051"
     y="76.012077"
     transform="matrix(0.86784178,0.49684066,-0.5031173,0.86421814,0,0)"
     id="rect16" />
  <rect
     style="opacity:0.4;fill:#ffffff"
     width="4.1939998"
     height="2.806"
     x="71.120056"
     y="76.012077"
     transform="matrix(0.86784178,0.49684066,-0.5031173,0.86421814,0,0)"
     id="rect17" />
  <rect
     style="opacity:0.4;fill:#ffffff"
     width="4.1939998"
     height="2.806"
     x="78.110054"
     y="76.012077"
     transform="matrix(0.86784178,0.49684066,-0.5031173,0.86421814,0,0)"
     id="rect18" />
  <rect
     style="opacity:0.4;fill:#ffffff"
     width="4.1939998"
     height="2.806"
     x="85.100052"
     y="76.012077"
     transform="matrix(0.86784178,0.49684066,-0.5031173,0.86421814,0,0)"
     id="rect19" />
  <defs
     id="defs26">
    <linearGradient
       id="linearGradient33"
       inkscape:collect="always">
      <stop
         style="stop-color:#727272;stop-opacity:1;"
         offset="0"
         id="stop33" />
      <stop
         style="stop-color:#545454;stop-opacity:1;"
         offset="1"
         id="stop34" />
    </linearGradient>
    <linearGradient
       id="linearGradient31"
       inkscape:collect="always">
      <stop
         style="stop-color:#f0f3f4;stop-opacity:1;"
         offset="0"
         id="stop31" />
      <stop
         style="stop-color:#b7c6cd;stop-opacity:1;"
         offset="1"
         id="stop32" />
    </linearGradient>
    <linearGradient
       id="linearGradient26"
       inkscape:collect="always">
      <stop
         style="stop-color:#8d5fd3;stop-opacity:1;"
         offset="0"
         id="stop27" />
      <stop
         style="stop-color:#e5dbf5;stop-opacity:1;"
         offset="1"
         id="stop28" />
    </linearGradient>
    <linearGradient
       id="paint0_linear_328_658"
       x1="51"
       y1="60"
       x2="-1.03843"
       y2="24.6882"
       gradientUnits="userSpaceOnUse"
       gradientTransform="translate(-1,-0.99999978)">
      <stop
         offset="0.159676"
         stop-color="#2E2E41"
         id="stop9" />
      <stop
         offset="1"
         stop-color="#566C80"
         id="stop10" />
    </linearGradient>
    <linearGradient
       id="paint1_linear_328_658"
       x1="33"
       y1="58"
       x2="31"
       y2="56"
       gradientUnits="userSpaceOnUse"
       gradientTransform="translate(-1,-0.99999978)">
      <stop
         stop-color="#71706E"
         id="stop11" />
      <stop
         offset="1"
         stop-color="#B9AA99"
         id="stop12" />
    </linearGradient>
    <linearGradient
       id="paint2_linear_328_658"
       x1="32"
       y1="8"
       x2="32"
       y2="6"
       gradientUnits="userSpaceOnUse"
       gradientTransform="translate(-1,-0.99999978)">
      <stop
         offset="0.252542"
         stop-color="#71706E"
         id="stop13" />
      <stop
         offset="1"
         stop-color="#B9AA99"
         id="stop14" />
    </linearGradient>
    <linearGradient
       id="paint3_linear_328_658"
       x1="28"
       y1="-1.4250621"
       x2="57.959099"
       y2="37.926701"
       gradientUnits="userSpaceOnUse"
       gradientTransform="matrix(1,0,0,0.52516129,-1,3.7483874)">
      <stop
         offset="0.489602"
         stop-color="#EFF2F6"
         id="stop15" />
      <stop
         offset="1"
         stop-color="#B7C6CD"
         id="stop16" />
    </linearGradient>
    <linearGradient
       id="paint4_linear_328_658"
       x1="43"
       y1="20"
       x2="37"
       y2="14"
       gradientUnits="userSpaceOnUse"
       gradientTransform="translate(-1,23)">
      <stop
         offset="0.201745"
         stop-color="#089953"
         id="stop17" />
      <stop
         offset="0.789006"
         stop-color="#16D96F"
         id="stop18" />
    </linearGradient>
    <linearGradient
       id="paint5_linear_328_658"
       x1="35"
       y1="20"
       x2="29"
       y2="14"
       gradientUnits="userSpaceOnUse"
       gradientTransform="translate(-1,23)">
      <stop
         offset="0.178269"
         stop-color="#5200FF"
         id="stop19" />
      <stop
         offset="0.732905"
         stop-color="#0085FF"
         id="stop20" />
    </linearGradient>
    <linearGradient
       id="paint6_linear_328_658"
       x1="35"
       y1="28"
       x2="29"
       y2="22"
       gradientUnits="userSpaceOnUse"
       gradientTransform="translate(-1,23)">
      <stop
         offset="0.158885"
         stop-color="#FF7E07"
         id="stop21" />
      <stop
         offset="0.804651"
         stop-color="#FFC807"
         id="stop22" />
    </linearGradient>
    <linearGradient
       id="paint7_linear_328_658"
       x1="21"
       y1="14"
       x2="27"
       y2="20"
       gradientUnits="userSpaceOnUse"
       gradientTransform="translate(-1,23)">
      <stop
         offset="0.243963"
         stop-color="#F15700"
         id="stop23" />
      <stop
         offset="0.831224"
         stop-color="#FF0000"
         id="stop24" />
    </linearGradient>
    <linearGradient
       id="paint8_linear_328_658"
       x1="26.6087"
       y1="28"
       x2="21"
       y2="22"
       gradientUnits="userSpaceOnUse"
       gradientTransform="translate(-1,23)">
      <stop
         offset="0.257773"
         stop-color="#2E2E41"
         id="stop25" />
      <stop
         offset="0.713945"
         stop-color="#566C80"
         id="stop26" />
    </linearGradient>
    <linearGradient
       inkscape:collect="always"
       xlink:href="#linearGradient26"
       id="linearGradient28"
       x1="31"
       y1="7"
       x2="31"
       y2="5"
       gradientUnits="userSpaceOnUse" />
    <linearGradient
       inkscape:collect="always"
       xlink:href="#linearGradient26"
       id="linearGradient30"
       x1="30"
       y1="56"
       x2="32"
       y2="56"
       gradientUnits="userSpaceOnUse" />
    <linearGradient
       inkscape:collect="always"
       xlink:href="#linearGradient31"
       id="linearGradient32"
       x1="32"
       y1="9"
       x2="32"
       y2="32"
       gradientUnits="userSpaceOnUse" />
    <linearGradient
       inkscape:collect="always"
       xlink:href="#linearGradient33"
       id="linearGradient34"
       x1="34"
       y1="3"
       x2="34"
       y2="59"
       gradientUnits="userSpaceOnUse" />
  </defs>
  <path
     d="m 40,45 h -2 c -1.1046,0 -2,0.8954 -2,2 v 2 c 0,1.1046 0.8954,2 2,2 h 2 c 1.1046,0 2,-0.8954 2,-2 v -2 c 0,-1.1046 -0.8954,-2 -2,-2 z"
     id="path5-9"
     style="fill:#8d5fd3" />
</svg>
