<?xml version="1.0" encoding="UTF-8" standalone="no"?>
<svg
   width="62"
   height="62"
   version="1.1"
   id="svg6"
   sodipodi:docname="tixati.svg"
   inkscape:version="1.4 (unknown)"
   xmlns:inkscape="http://www.inkscape.org/namespaces/inkscape"
   xmlns:sodipodi="http://sodipodi.sourceforge.net/DTD/sodipodi-0.dtd"
   xmlns="http://www.w3.org/2000/svg"
   xmlns:svg="http://www.w3.org/2000/svg">
  <sodipodi:namedview
     id="namedview6"
     pagecolor="#ffffff"
     bordercolor="#000000"
     borderopacity="0.25"
     inkscape:showpageshadow="2"
     inkscape:pageopacity="0.0"
     inkscape:pagecheckerboard="0"
     inkscape:deskcolor="#d1d1d1"
     inkscape:zoom="6.0546875"
     inkscape:cx="29.646452"
     inkscape:cy="25.847742"
     inkscape:window-width="1920"
     inkscape:window-height="998"
     inkscape:window-x="0"
     inkscape:window-y="0"
     inkscape:window-maximized="1"
     inkscape:current-layer="svg6" />
  <defs
     id="defs2">
    <linearGradient
       id="a"
       x1="7.9369998"
       x2="7.9369998"
       y1="15.081"
       y2="1.852"
       gradientTransform="scale(3.7796)"
       gradientUnits="userSpaceOnUse">
      <stop
         offset="0"
         stop-color="#363636"
         id="stop1" />
      <stop
         offset="1"
         stop-color="#6c6c6c"
         id="stop2" />
    </linearGradient>
  </defs>
  <g
     id="g6"
     transform="translate(6.027028,-0.46899993)">
    <rect
       width="55.997971"
       height="55.969017"
       x="-3.025001"
       y="3.4689999"
       fill="url(#a)"
       rx="13.001065"
       ry="12.994343"
       style="fill:#2d3d53;stroke-width:0.999667;fill-opacity:1"
       id="rect2" />
    <path
       fill="#3ba0fd"
       d="m 24.986984,3.5469541 c -9.192338,0 -12.864074,0.002 -16.4718143,0.006 a 12.959068,12.952367 0 0 0 -9.9132868,6.6011109 c 1.16691598,0.007 4.8486512,0.01399 10.7572261,0.01399 l 12.294116,-0.002 V 34.74357 c 0,13.517035 0.008,24.584513 0.02001,24.596506 0.01001,0.01099 1.500892,0.01799 3.311761,0.01399 l 3.289764,-0.008 0.017,-49.181018 h 12.306115 c 6.718517,0 9.339328,-0.005 10.745227,-0.01699 A 12.959068,12.952367 0 0 0 41.393807,3.5469481 Z"
       id="path2"
       style="stroke-width:0.999667;fill:#3384ff;fill-opacity:1" />
    <path
       fill="#6cf74a"
       d="m 4.0424914,10.168052 -5.4566074,0.01199 c -0.1499892,0.273839 -0.2829797,0.557672 -0.4139703,0.842504 0.3599741,0.333803 0.7059494,0.655613 3.5367457,3.34203 l 2.3158334,2.198705 c 0.749946,0.709582 1.7778721,1.685007 2.376829,2.25567 0.3129775,0.297825 0.860938,0.81452 3.1567729,2.98824 l 2.0778503,1.971838 c 0.156988,0.149911 0.513963,0.486713 0.792943,0.749558 0.278979,0.262845 0.654953,0.617636 0.835939,0.790534 0.323978,0.309817 0.849941,0.807524 1.989857,1.885889 l 0.925934,0.879481 c 0.189987,0.179894 0.593957,0.564668 0.897936,0.851499 0.303978,0.286831 0.69495,0.658611 0.866938,0.824514 0.171987,0.165902 0.582958,0.555672 0.911934,0.866489 0.732947,0.692592 1.53789,1.456142 2.07685,1.96784 0.221984,0.210876 0.40697,0.398766 0.409971,0.416755 0.003,0.01999 -0.375974,0.384773 -0.843939,0.812521 A 483.96518,483.71495 0 0 0 18.465454,35.69001 L 7.7632238,45.540208 C 7.0142776,46.225804 6.6603031,46.549613 6.4463186,46.749495 6.3313268,46.858431 5.7333699,47.410106 5.1164142,47.975773 4.4994586,48.541439 3.9225001,49.072127 3.8315066,49.157077 3.6755178,49.302991 2.0886321,50.76413 0.79672494,51.95043 l -1.71887636,1.580069 a 12.999065,12.992344 0 0 0 3.99771252,3.92069 L 4.0714894,56.506745 C 5.8783594,54.795754 5.9033576,54.769769 6.6713023,54.0392 L 8.1211981,52.665009 C 8.5661661,52.246256 9.0781293,51.762541 9.2591162,51.589643 9.6430886,51.222859 10.72501,50.196464 12.726866,48.30258 a 1139.9179,1139.3286 0 0 0 2.960787,-2.808345 l 1.4049,-1.329217 c 0.624955,-0.591651 1.419898,-1.346206 1.764873,-1.675013 0.738947,-0.703585 2.125846,-2.013813 2.515819,-2.3756 l 0.27298,-0.255849 0.002,-6.744026 0.004,-6.744026 -1.442895,-1.327217 -3.114776,-2.864313 C 16.174619,21.333473 15.0427,20.292086 14.580733,19.864338 14.118767,19.43659 13.082842,18.482153 12.2779,17.742589 L 9.8270753,15.487917 8.331183,14.111728 7.2082638,13.077338 5.3183997,11.340361 Z m 42.1549676,0 -0.722948,0.663609 -1.126919,1.039388 -0.911934,0.838506 -1.317906,1.209287 c -0.444967,0.409759 -1.217912,1.122339 -1.718876,1.582068 l -0.942932,0.866489 -0.745946,0.689594 -1.328905,1.22128 -0.939932,0.866489 -0.764945,0.706584 c -0.238983,0.222869 -0.925933,0.853497 -1.52489,1.404173 -0.599957,0.549676 -1.445897,1.330216 -1.882865,1.732978 l -2.385828,2.193708 -1.591887,1.464137 v 12.918387 l 0.739948,0.700587 1.3829,1.314226 c 0.353975,0.336801 1.014927,0.960434 1.466895,1.388182 0.451967,0.426748 0.973929,0.924455 1.163917,1.104349 0.729947,0.69659 0.894935,0.852498 2.301834,2.182714 0.797942,0.753556 1.585885,1.499116 1.749874,1.657023 0.730948,0.699588 0.917934,0.876484 1.749873,1.66302 1.224913,1.156319 1.901864,1.79894 2.286837,2.166724 0.180986,0.172898 0.571958,0.54168 0.867936,0.821515 l 2.301836,2.180715 0.867936,0.821516 c 0.344976,0.329806 1.26591,1.203291 1.749876,1.659023 l 0.12599,0.120928 A 12.999065,12.992344 0 0 0 50.974115,53.3596 L 50.031184,52.491112 49.291236,51.807515 48.496294,51.075946 47.57836,50.230444 46.634427,49.363955 45.707495,48.509458 C 45.427514,48.25261 44.829558,47.703933 44.37759,47.287178 42.959692,45.981948 42.8437,45.875011 42.492726,45.5542 a 86.993742,86.948762 0 0 1 -0.909935,-0.841504 l -0.959931,-0.880482 -1.717876,-1.581068 -1.866866,-1.718987 -1.527891,-1.404172 -3.391756,-3.12316 c -1.553887,-1.430157 -2.91579,-2.68142 -3.025781,-2.779362 -0.109993,-0.09794 -0.200986,-0.193886 -0.202986,-0.210876 -9.99e-4,-0.01799 0.323977,-0.3398 0.722948,-0.716578 l 1.384901,-1.314225 c 0.361974,-0.344797 1.027926,-0.976425 1.479892,-1.403173 0.451968,-0.426749 1.096922,-1.039388 1.433898,-1.360199 a 1550.8885,1550.0866 0 0 1 4.874649,-4.618278 c 0.669952,-0.639623 1.018927,-0.971428 1.794871,-1.701997 0.451967,-0.426749 0.963931,-0.909464 1.135919,-1.076366 0.172987,-0.164903 0.562958,-0.536684 0.867937,-0.823515 0.303977,-0.286831 0.686951,-0.649617 0.850939,-0.807524 0.164988,-0.157907 0.574959,-0.548676 0.911934,-0.867489 0.674952,-0.637624 1.350903,-1.277247 2.331832,-2.208698 0.821942,-0.781539 1.597886,-1.518105 2.632811,-2.496529 0.780944,-0.739564 1.772872,-1.67901 2.392828,-2.268663 0.054,-0.05197 0.09699,-0.09095 0.155989,-0.145914 a 12.999065,12.992344 0 0 0 -0.501965,-1.027395 c -0.617955,-0.003 -0.82194,-0.01 -1.814869,-0.01 z"
       id="path3"
       style="stroke-width:0.999667;fill:#37c871" />
    <path
       fill="#fd5d51"
       d="m 19.034413,10.166054 -0.534962,1.099352 -1.122919,2.308639 a 2326.8326,2325.6295 0 0 0 -2.7828,5.731623 4.9996404,4.9970553 0 0 0 -0.175988,0.387771 c 0,0.01299 0.266982,0.267842 0.591959,0.566666 l 2.143845,1.976835 c 0.854938,0.787536 1.563888,1.423162 1.573887,1.413168 0.017,-0.01699 0.624955,-1.295237 1.222913,-2.574483 l 0.327976,-0.702586 0.417969,-0.896472 c 0.167988,-0.361787 0.449968,-0.959435 0.624955,-1.329217 l 0.318977,-0.673603 v -7.291703 z m 11.864146,0 -2.591813,0.01599 -0.015,6.926918 0.206986,0.450735 c 0.324976,0.71158 1.699878,3.64785 2.333831,4.987061 0.357974,0.756554 0.588957,1.209287 0.608957,1.197294 0.018,-0.01099 0.389971,-0.349794 0.82794,-0.753556 0.437969,-0.403762 1.284907,-1.185301 1.884864,-1.734977 0.599957,-0.549676 1.181916,-1.08736 1.292907,-1.195296 l 0.200986,-0.194885 -0.372973,-0.757554 A 60.995613,60.964075 0 0 1 34.90027,18.343235 c 0,-0.005 -0.237983,-0.49171 -0.526962,-1.081363 -0.473966,-0.964432 -1.192915,-2.435565 -2.103849,-4.300466 L 31.422522,11.235423 Z M 12.169906,24.303722 c -0.01001,0 -0.04,0.04997 -0.06399,0.110935 -0.02499,0.06196 -0.260982,0.555673 -0.525963,1.095354 -0.263981,0.539682 -0.481965,0.98542 -0.481965,0.989417 0,0.004 -0.189986,0.395767 -0.42197,0.870487 -0.231982,0.47572 -0.506963,1.037389 -0.609956,1.251263 C 9.8730781,29.022941 9.5760994,29.63658 7.8542232,33.178493 7.2982633,34.321819 6.731304,35.487132 6.5943139,35.771964 L 3.8505073,41.420636 C 2.6605929,43.868193 2.3426157,44.525806 2.074635,45.074482 1.9186463,45.394294 1.7066614,45.833035 1.6046689,46.046909 L 1.0967034,47.093293 C 0.9197161,47.45508 0.69673214,47.910811 0.6027389,48.107695 l -0.47896555,0.986419 -0.52296238,1.077365 -0.42596935,0.879482 -0.70494932,1.449146 c 0.1859866,0.353791 0.3919719,0.696589 0.60995614,1.030392 0.26098123,-0.239858 0.56595929,-0.520693 0.74494641,-0.687594 L 0.79772486,51.947432 A 1468.8942,1468.1348 0 0 0 4.9374271,48.137677 l 1.4968922,-1.37419 C 7.1422686,46.108873 7.0742734,46.169837 7.7142274,45.58818 L 8.2641878,45.090473 9.609091,42.385067 a 1196.9139,1196.295 0 0 0 3.478751,-7.038852 l 0.655951,-1.345207 c 0.459967,-0.938447 0.743947,-1.519105 1.745875,-3.585887 l 0.630954,-1.299234 0.355975,-0.732569 -0.318976,-0.314814 a 77.99439,77.954063 0 0 0 -0.901936,-0.864491 l -0.869938,-0.821516 c -1.620883,-1.547088 -2.186842,-2.077775 -2.215841,-2.078775 m 25.72715,0.173898 c -0.011,-0.01099 -0.256981,0.20388 -0.544961,0.477718 l -1.65788,1.576072 c -1.853867,1.755965 -2.002857,1.898881 -2.013856,1.928863 a 0.99992803,0.99941106 0 0 0 0.09399,0.244856 c 0.392971,0.820516 2.397827,4.940089 3.159773,6.492174 l 0.718947,1.464137 a 973.92994,973.42637 0 0 0 2.913791,5.886531 l 1.132919,2.272661 0.225984,0.209876 0.569959,0.522692 c 0.354975,0.324809 0.506963,0.464726 1.884864,1.732979 l 1.329904,1.224279 a 528.96195,528.68845 0 0 1 1.869866,1.718987 l 0.924932,0.851498 c 0.221986,0.204879 0.586959,0.541681 0.809942,0.74556 l 0.56696,0.524691 1.093922,1.007407 q 0.305978,-0.484715 0.568958,-0.997413 l -0.018,-0.03698 c 0,-0.004 -0.249982,-0.516695 -0.55696,-1.139328 L 49.816202,48.826271 48.17732,45.478244 47.535367,44.163019 A 1739.8748,1738.9752 0 0 1 45.517508,40.03845 l -0.657952,-1.345207 -0.673952,-1.37419 C 43.975618,36.892304 43.695639,36.314644 43.558649,36.034809 L 42.871698,34.629637 C 42.628716,34.136928 42.331736,33.531285 42.213746,33.28443 L 41.59179,32.014179 40.552865,29.892429 39.550937,27.844636 38.551009,25.798841 A 61.99554,61.963486 0 0 0 37.897056,24.47762"
       id="path4"
       style="stroke-width:0.999667;fill:#c83771" />
    <path
       d="m -3.0269999,45.473247 v 0.999411 c 0,7.198758 5.7995827,12.996342 13.0030645,12.996342 H 39.969908 c 7.20248,0 13.003064,-5.796584 13.003064,-12.996342 v -0.999411 c 0,7.198758 -5.799583,12.994343 -13.003064,12.994343 H 9.9760646 A 12.974067,12.967358 0 0 1 -3.0269999,45.473247"
       opacity="0.15"
       id="path5"
       style="stroke-width:0.999667" />
    <path
       fill="#ffffff"
       d="m -3.0269999,17.495734 v -0.999411 c 0,-7.1987577 5.7995827,-12.9963413 13.0030645,-12.9963413 H 39.969908 c 7.20248,0 13.003064,5.7965842 13.003064,12.9963413 v 0.999411 c 0,-7.198758 -5.799583,-12.9943424 -13.003064,-12.9943424 H 9.9760646 A 12.974067,12.967358 0 0 0 -3.0269999,17.495734"
       opacity="0.15"
       id="path6"
       style="stroke-width:0.999667" />
  </g>
</svg>
