<?xml version="1.0" encoding="UTF-8" standalone="no"?>
<svg
   width="62"
   height="62"
   version="1.1"
   id="svg29"
   sodipodi:docname="tizen-studio-ide.svg"
   inkscape:version="1.4 (unknown)"
   xmlns:inkscape="http://www.inkscape.org/namespaces/inkscape"
   xmlns:sodipodi="http://sodipodi.sourceforge.net/DTD/sodipodi-0.dtd"
   xmlns:xlink="http://www.w3.org/1999/xlink"
   xmlns="http://www.w3.org/2000/svg"
   xmlns:svg="http://www.w3.org/2000/svg">
  <defs
     id="defs29">
    <linearGradient
       id="linearGradient29"
       inkscape:collect="always">
      <stop
         style="stop-color:#316ff8;stop-opacity:1;"
         offset="0"
         id="stop29" />
      <stop
         style="stop-color:#489af4;stop-opacity:1;"
         offset="1"
         id="stop30" />
    </linearGradient>
    <linearGradient
       inkscape:collect="always"
       xlink:href="#linearGradient29"
       id="linearGradient30"
       x1="29.86627"
       y1="60"
       x2="30.193521"
       y2="5"
       gradientUnits="userSpaceOnUse"
       gradientTransform="matrix(0.98214286,0,0,0.98245614,-0.42857152,-0.92982455)" />
    <linearGradient
       id="paint1_linear_11_148"
       x1="12.6932"
       y1="20.5312"
       x2="12.6932"
       y2="5.6079102"
       gradientUnits="userSpaceOnUse"
       gradientTransform="matrix(2.6803705,0,0,2.6803705,-3.022395,-3.5399929)">
      <stop
         stop-color="#FD5900"
         id="stop4" />
      <stop
         offset="1"
         stop-color="#FFDE00"
         id="stop5" />
    </linearGradient>
    <linearGradient
       id="linear0"
       x1="0"
       x2="15.457296"
       y1="0.40162264"
       y2="15.858919"
       gradientTransform="matrix(2.3613453,0,0,2.1996089,12.750007,12.625351)"
       gradientUnits="userSpaceOnUse">
      <stop
         offset="0%"
         style="stop-color:#ff0000; stop-opacity:1"
         id="stop1" />
      <stop
         offset="50%"
         style="stop-color:#ffd000; stop-opacity:1"
         id="stop2" />
      <stop
         offset="100%"
         style="stop-color:#ff00bb; stop-opacity:1"
         id="stop3" />
    </linearGradient>
    <linearGradient
       id="linear0-6"
       x1="0"
       x2="0"
       y1="0"
       y2="16"
       gradientUnits="userSpaceOnUse"
       gradientTransform="matrix(2.2500014,0,0,2.2500014,13.000004,13.000032)">
      <stop
         offset="0%"
         style="stop-color:#00b54e; stop-opacity:1"
         id="stop1-7" />
      <stop
         offset="50%"
         style="stop-color:#0073ff; stop-opacity:1"
         id="stop2-5" />
      <stop
         offset="100%"
         style="stop-color:#ffd000; stop-opacity:1"
         id="stop3-3" />
    </linearGradient>
  </defs>
  <sodipodi:namedview
     id="namedview29"
     pagecolor="#ffffff"
     bordercolor="#000000"
     borderopacity="0.25"
     inkscape:showpageshadow="2"
     inkscape:pageopacity="0.0"
     inkscape:pagecheckerboard="0"
     inkscape:deskcolor="#d1d1d1"
     inkscape:zoom="10"
     inkscape:cx="29.65"
     inkscape:cy="40.65"
     inkscape:window-width="1920"
     inkscape:window-height="998"
     inkscape:window-x="0"
     inkscape:window-y="0"
     inkscape:window-maximized="1"
     inkscape:current-layer="svg29" />
  <rect
     style="opacity:0.2;stroke-width:0.9823"
     width="55"
     height="55.017544"
     x="3.5"
     y="3.9824562"
     ry="13.754386"
     id="rect1" />
  <rect
     style="fill:url(#linearGradient30);stroke-width:0.9823"
     width="55"
     height="55.017544"
     x="3.5"
     y="3"
     ry="13.754386"
     id="rect2" />
  <path
     style="opacity:0.1;fill:#ffffff;stroke-width:0.9823"
     d="M 17.25,3 C 9.6324999,3 3.4999999,9.1344561 3.4999999,16.754386 v 0.982456 c 0,-7.61993 6.1325,-13.7543858 13.7500001,-13.7543858 h 27.5 c 7.6175,0 13.75,6.1344558 13.75,13.7543858 V 16.754386 C 58.5,9.1344561 52.3675,3 44.75,3 Z"
     id="path28" />
  <g
     id="g1"
     transform="translate(3.2720765,0.64037531)">
    <path
       style="opacity:0.2"
       d="m 27.154323,10.368487 c -0.05218,-10e-4 -0.1024,0.0093 -0.14724,0.03279 -2.515452,1.598989 -6.043124,3.824553 -6.912716,6.548716 -0.271956,0.902094 -0.15168,1.235928 -0.0034,1.963074 0.245944,0.874916 0.759836,2.021936 1.331906,2.975096 0.370544,0.617394 1.590988,2.24654 1.683012,2.24654 1.690438,-1.109632 3.356902,-3.421378 4.717798,-4.810092 v -3.63845 c 0,-3.947683 -0.04012,-4.727407 -0.258236,-5.049443 -0.08206,-0.16163 -0.254602,-0.265704 -0.41112,-0.268236 z m -7.723646,7.85939 c -0.08898,0.0022 -0.228998,0.348636 -0.31145,0.770706 -0.213858,1.094474 -1.165832,4.99205 -1.589006,6.507726 -0.343554,1.23048 -0.465192,2.551818 -0.266156,2.88488 0.14752,0.246846 2.649358,1.182554 6.229152,2.329714 1.737106,0.556658 2.011502,0.54559 2.361418,-0.0902 0.533064,-0.968636 0.616006,-0.800524 -2.728376,-5.523832 -2.639826,-3.728258 -2.990092,-4.358738 -3.34902,-6.026314 -0.10142,-0.471188 -0.257558,-0.854702 -0.346562,-0.852694 z m 18.244608,0.11402 c -0.12578,-0.0026 -0.274142,0.0044 -0.42925,0.02342 -1.072558,0.12788 -4.950308,0.39528 -6.4749,0.447422 -1.237744,0.0423 -2.634714,0.331472 -2.879516,0.630174 -0.18138,0.221348 -0.12552,3.999894 -0.07424,7.875354 0.0249,1.88059 0.12038,2.146884 0.8132,2.29456 1.055496,0.224998 0.926782,-0.06994 4.236942,-4.818952 2.612792,-3.74855 3.083898,-4.887906 4.506498,-5.756234 0.401984,-0.24536 0.706632,-0.517476 0.677288,-0.60439 -0.0184,-0.05432 -0.16638,-0.0868 -0.376016,-0.09134 z m 1.756616,0.34905 c -0.913626,0.0112 -1.183576,0.232678 -1.806442,0.603208 -0.728582,0.51227 -1.625402,1.97197 -2.325186,2.829166 -0.453238,0.555252 -1.573246,2.25912 -1.544812,2.349614 1.542802,1.319782 3.281166,3.133022 4.97878,4.042408 l 4.29245,-1.44303 c 3.630346,-1.219918 4.33438,-1.929258 4.563138,-2.243306 0.12326,-0.13066 0.1661,-0.332518 0.12006,-0.487252 -0.0154,-0.05156 -0.0403,-0.09788 -0.0759,-0.1347 -2.24776,-1.980006 -5.42818,-5.50261 -8.202086,-5.516108 z M 8.3269431,25.596501 c -0.08433,0 -0.149316,0.01 -0.206133,0.02808 -0.17398,0.03076 -0.323057,0.16892 -0.373753,0.322084 -0.01694,0.0511 -0.02371,0.10322 -0.01592,0.15462 0.693149,2.968244 1.605225,7.2668 3.8417079,8.963926 0.745534,0.546242 1.089671,0.53137 1.804178,0.610236 0.880583,0.02844 2.094091,-0.12308 3.147418,-0.391222 0.68226,-0.17368 2.558362,-0.869952 2.586796,-0.96045 -0.498072,-2.00558 -1.118656,-4.18252 -1.975208,-5.95018 L 12.843602,26.931729 C 9.7804991,25.902451 8.7823351,25.597337 8.3268941,25.596471 Z m 30.2600619,3.03246 c -0.50771,-0.0022 -2.961714,0.741554 -6.288038,1.911554 -1.721738,0.605612 -1.936832,0.781568 -1.858562,1.508632 0.11926,1.107686 -0.04324,1.021692 5.34688,2.80993 4.254636,1.411524 4.895878,1.709478 6.13401,2.840398 0.349854,0.319548 0.693626,0.534778 0.76449,0.47906 0.07086,-0.05572 -0.0126,-0.421288 -0.18574,-0.812882 -0.449042,-1.015434 -1.894432,-4.747854 -2.413514,-6.231274 -0.421408,-1.20434 -1.073322,-2.346402 -1.423642,-2.494876 -0.0164,-0.007 -0.04206,-0.0102 -0.07588,-0.0104 z m -13.521782,4.459136 c -0.627256,-0.0014 -1.860896,0.42917 -5.053538,1.515634 -4.244306,1.444374 -4.93242,1.593608 -6.576843,1.431326 -0.464659,-0.04588 -0.865667,-0.0108 -0.891344,0.0773 -0.02566,0.08812 0.250067,0.333118 0.612731,0.544662 0.940411,0.548542 4.229912,3.718884 5.49298,4.60346 1.0254,0.718162 2.203124,1.246574 2.570932,1.153732 0.272574,-0.06882 1.905914,-3.270064 4.067054,-6.436544 1.048716,-1.536558 1.123264,-1.810168 0.646714,-2.35079 -0.294954,-0.334616 -0.439518,-0.537716 -0.868686,-0.538786 z m 4.112374,1.345796 c -0.12904,0.004 -0.26361,0.0511 -0.42472,0.1265 -0.9818,0.459596 -0.95326,0.272826 -0.932104,6.127042 0.0168,4.62092 -0.05838,5.344556 -0.71578,6.911805 -0.18576,0.44287 -0.27813,0.84708 -0.205012,0.89956 0.07312,0.0525 0.384292,-0.14202 0.690888,-0.43338 0.795036,-0.755449 3.779516,-3.330863 4.983312,-4.299831 0.977304,-0.786632 1.82687,-1.781132 1.855146,-2.171566 0.02096,-0.289358 -1.470712,-2.567264 -3.714826,-5.671404 -0.816718,-1.129736 -1.149784,-1.50099 -1.536904,-1.488734 z m 7.190694,1.195888 c -0.006,10e-4 -0.01,0.0016 -0.0124,0.0036 -0.73694,1.925298 -1.472086,4.063858 -1.783792,6.0146 l 2.652478,3.776254 c 2.24368,3.193725 2.719988,3.799405 3.079472,3.927355 0.15822,0.0809 0.356674,0.0603 0.484744,-0.0328 0.0427,-0.031 0.07792,-0.0696 0.1008,-0.11594 1.126244,-2.822715 2.831286,-6.854551 1.986534,-9.587055 -0.292712,-0.895142 -0.580092,-1.09247 -1.113332,-1.590614 -0.696214,-0.558318 -1.763468,-1.173104 -2.768008,-1.596476 -0.630348,-0.265666 -2.44591,-0.815628 -2.626438,-0.798836 z m -12.164958,6.778578 c -1.034316,0.0052 -2.055056,0.06388 -3.000178,0.21199 l -2.653614,2.74643 c -2.243674,3.193741 -2.653832,3.849281 -2.660424,4.242421 -0.02544,0.18062 0.05488,0.36899 0.18008,0.46619 0.04172,0.0324 0.0885,0.0551 0.13816,0.0632 2.943846,0.23547 7.177996,0.66677 9.429802,-1.00849 0.732732,-0.56451 0.825654,-0.9087 1.118988,-1.58712 0.29829,-0.857305 0.533786,-2.097489 0.612722,-3.216365 0.05112,-0.724728 -0.0106,-1.754604 -0.08494,-1.810556 -0.99914,-0.06492 -2.046278,-0.11294 -3.080606,-0.10774 z"
       id="path3-3" />
    <path
       style="fill:#ffffff"
       d="m 27.154323,9.3684862 c -0.05218,-10e-4 -0.1024,0.0093 -0.14724,0.03279 -2.515452,1.5989878 -6.043124,3.8245528 -6.912716,6.5487158 -0.271956,0.902093 -0.15168,1.235927 -0.0034,1.963073 0.245944,0.874916 0.759836,2.021936 1.331906,2.975096 0.370544,0.617394 1.590988,2.24654 1.683012,2.24654 1.690438,-1.109632 3.356902,-3.421378 4.717798,-4.810092 V 14.68616 c 0,-3.947683 -0.04012,-4.7274078 -0.258236,-5.0494428 -0.08206,-0.16163 -0.254602,-0.265705 -0.41112,-0.268236 z m -7.723646,7.8593898 c -0.08898,0.0022 -0.228998,0.348635 -0.31145,0.770705 -0.213858,1.094474 -1.165832,4.99205 -1.589006,6.507726 -0.343554,1.23048 -0.465192,2.551818 -0.266156,2.88488 0.14752,0.246846 2.649358,1.182554 6.229152,2.329714 1.737106,0.556658 2.011502,0.54559 2.361418,-0.0902 0.533064,-0.968636 0.616006,-0.800524 -2.728376,-5.523832 -2.639826,-3.728258 -2.990092,-4.358738 -3.34902,-6.026314 -0.10142,-0.471188 -0.257558,-0.854701 -0.346562,-0.852693 z m 18.244608,0.114028 c -0.12578,-0.0026 -0.274142,0.0044 -0.42925,0.02342 -1.072558,0.12788 -4.950308,0.395281 -6.4749,0.447423 -1.237744,0.0423 -2.634714,0.331472 -2.879516,0.630174 -0.18138,0.221348 -0.12552,3.999894 -0.07424,7.875354 0.0249,1.88059 0.12038,2.146884 0.8132,2.29456 1.055496,0.224998 0.926782,-0.06994 4.236942,-4.818952 2.612792,-3.74855 3.083898,-4.887906 4.506498,-5.756234 0.401984,-0.24536 0.706632,-0.517476 0.677288,-0.60439 -0.0184,-0.05432 -0.16638,-0.0868 -0.376016,-0.09134 z m 1.756616,0.349051 c -0.913626,0.0112 -1.183576,0.232678 -1.806442,0.603208 -0.728582,0.51227 -1.625402,1.97197 -2.325186,2.829166 -0.453238,0.555252 -1.573246,2.25912 -1.544812,2.349614 1.542802,1.319782 3.281166,3.133022 4.97878,4.042408 l 4.29245,-1.44303 c 3.630346,-1.219918 4.33438,-1.929258 4.563138,-2.243306 0.12326,-0.13066 0.1661,-0.332518 0.12006,-0.487252 -0.0154,-0.05156 -0.0403,-0.09788 -0.0759,-0.1347 -2.24776,-1.980006 -5.42818,-5.50261 -8.202086,-5.516108 z M 8.3269431,24.596499 c -0.08433,0 -0.149316,0.01 -0.206133,0.02808 -0.17398,0.03076 -0.323057,0.16892 -0.373753,0.322084 -0.01694,0.0511 -0.02371,0.10322 -0.01592,0.15462 0.693149,2.968244 1.605225,7.2668 3.8417079,8.963926 0.745534,0.546242 1.089671,0.53137 1.804178,0.610236 0.880583,0.02844 2.094091,-0.12308 3.147418,-0.391222 0.68226,-0.17368 2.558362,-0.869952 2.586796,-0.96045 -0.498072,-2.00558 -1.118656,-4.18252 -1.975208,-5.95018 L 12.843602,25.931727 C 9.7804991,24.902449 8.7823351,24.597335 8.3268941,24.596469 Z m 30.2600619,3.03246 c -0.50771,-0.0022 -2.961714,0.741554 -6.288038,1.911554 -1.721738,0.605612 -1.936832,0.781568 -1.858562,1.508632 0.11926,1.107686 -0.04324,1.021692 5.34688,2.80993 4.254636,1.411524 4.895878,1.709478 6.13401,2.840398 0.349854,0.319548 0.693626,0.534778 0.76449,0.47906 0.07086,-0.05572 -0.0126,-0.421288 -0.18574,-0.812882 -0.449042,-1.015434 -1.894432,-4.747854 -2.413514,-6.231274 -0.421408,-1.20434 -1.073322,-2.346402 -1.423642,-2.494876 -0.0164,-0.007 -0.04206,-0.0102 -0.07588,-0.0104 z m -13.521782,4.459136 c -0.627256,-0.0014 -1.860896,0.42917 -5.053538,1.515634 -4.244306,1.444374 -4.93242,1.593608 -6.576843,1.431326 -0.464659,-0.04588 -0.865667,-0.0108 -0.891344,0.0773 -0.02566,0.08812 0.250067,0.333118 0.612731,0.544662 0.940411,0.548542 4.229912,3.718884 5.49298,4.60346 1.0254,0.718162 2.203124,1.246574 2.570932,1.153732 0.272574,-0.06882 1.905914,-3.270064 4.067054,-6.436544 1.048716,-1.536558 1.123264,-1.810168 0.646714,-2.35079 -0.294954,-0.334616 -0.439518,-0.537716 -0.868686,-0.538786 z m 4.112374,1.345796 c -0.12904,0.004 -0.26361,0.0511 -0.42472,0.1265 -0.9818,0.459596 -0.95326,0.272826 -0.932104,6.127042 0.0168,4.62092 -0.05838,5.344556 -0.71578,6.911802 -0.18576,0.442872 -0.27813,0.847085 -0.205012,0.899565 0.07312,0.0525 0.384292,-0.142025 0.690888,-0.433379 0.795036,-0.755452 3.779516,-3.330866 4.983312,-4.299834 0.977304,-0.786632 1.82687,-1.781132 1.855146,-2.171566 0.02096,-0.289358 -1.470712,-2.567264 -3.714826,-5.671404 -0.816718,-1.129736 -1.149784,-1.50099 -1.536904,-1.488734 z m 7.190694,1.195888 c -0.006,10e-4 -0.01,0.0016 -0.0124,0.0036 -0.73694,1.925298 -1.472086,4.063858 -1.783792,6.0146 l 2.652478,3.776254 c 2.24368,3.193727 2.719988,3.799397 3.079472,3.927347 0.15822,0.0809 0.356674,0.0603 0.484744,-0.0328 0.0427,-0.031 0.07792,-0.0696 0.1008,-0.11594 1.126244,-2.822707 2.831286,-6.854543 1.986534,-9.587047 -0.292712,-0.895142 -0.580092,-1.09247 -1.113332,-1.590614 -0.696214,-0.558318 -1.763468,-1.173104 -2.768008,-1.596476 -0.630348,-0.265666 -2.44591,-0.815628 -2.626438,-0.798836 z m -12.164958,6.778578 c -1.034316,0.0052 -2.055056,0.06388 -3.000178,0.21199 l -2.653614,2.74643 c -2.243674,3.193733 -2.653832,3.849283 -2.660424,4.242423 -0.02544,0.18062 0.05488,0.36899 0.18008,0.46618 0.04172,0.0324 0.0885,0.0551 0.13816,0.0633 2.943846,0.23547 7.177996,0.66677 9.429802,-1.0085 0.732732,-0.56451 0.825654,-0.908697 1.118988,-1.587111 0.29829,-0.857306 0.533786,-2.09749 0.612722,-3.216366 0.05112,-0.724728 -0.0106,-1.754604 -0.08494,-1.810556 -0.99914,-0.06492 -2.046278,-0.11294 -3.080606,-0.10774 z"
       id="path4-6" />
  </g>
</svg>
