<?xml version="1.0" encoding="UTF-8" standalone="no"?>
<svg
   width="62"
   height="62"
   version="1.1"
   id="svg29"
   sodipodi:docname="tizen-studio-certificatemanager.svg"
   inkscape:version="1.4 (unknown)"
   xmlns:inkscape="http://www.inkscape.org/namespaces/inkscape"
   xmlns:sodipodi="http://sodipodi.sourceforge.net/DTD/sodipodi-0.dtd"
   xmlns:xlink="http://www.w3.org/1999/xlink"
   xmlns="http://www.w3.org/2000/svg"
   xmlns:svg="http://www.w3.org/2000/svg">
  <defs
     id="defs29">
    <linearGradient
       id="linearGradient29"
       inkscape:collect="always">
      <stop
         style="stop-color:#316ff8;stop-opacity:1;"
         offset="0"
         id="stop29" />
      <stop
         style="stop-color:#489af4;stop-opacity:1;"
         offset="1"
         id="stop30" />
    </linearGradient>
    <linearGradient
       inkscape:collect="always"
       xlink:href="#linearGradient29"
       id="linearGradient30"
       x1="29.86627"
       y1="60"
       x2="30.193521"
       y2="5"
       gradientUnits="userSpaceOnUse"
       gradientTransform="matrix(0.98214286,0,0,0.98245614,-0.42857152,-0.92982455)" />
    <linearGradient
       id="paint1_linear_11_148"
       x1="12.6932"
       y1="20.5312"
       x2="12.6932"
       y2="5.6079102"
       gradientUnits="userSpaceOnUse"
       gradientTransform="matrix(2.6803705,0,0,2.6803705,-3.022395,-3.5399929)">
      <stop
         stop-color="#FD5900"
         id="stop4" />
      <stop
         offset="1"
         stop-color="#FFDE00"
         id="stop5" />
    </linearGradient>
    <linearGradient
       id="linear0"
       x1="0"
       x2="15.457296"
       y1="0.40162264"
       y2="15.858919"
       gradientTransform="matrix(2.3613453,0,0,2.1996089,12.750007,12.625351)"
       gradientUnits="userSpaceOnUse">
      <stop
         offset="0%"
         style="stop-color:#ff0000; stop-opacity:1"
         id="stop1" />
      <stop
         offset="50%"
         style="stop-color:#ffd000; stop-opacity:1"
         id="stop2" />
      <stop
         offset="100%"
         style="stop-color:#ff00bb; stop-opacity:1"
         id="stop3" />
    </linearGradient>
    <linearGradient
       id="linear0-6"
       x1="0"
       x2="0"
       y1="0"
       y2="16"
       gradientUnits="userSpaceOnUse"
       gradientTransform="matrix(2.2500014,0,0,2.2500014,13.000004,13.000032)">
      <stop
         offset="0%"
         style="stop-color:#00b54e; stop-opacity:1"
         id="stop1-7" />
      <stop
         offset="50%"
         style="stop-color:#0073ff; stop-opacity:1"
         id="stop2-5" />
      <stop
         offset="100%"
         style="stop-color:#ffd000; stop-opacity:1"
         id="stop3-3" />
    </linearGradient>
  </defs>
  <sodipodi:namedview
     id="namedview29"
     pagecolor="#ffffff"
     bordercolor="#000000"
     borderopacity="0.25"
     inkscape:showpageshadow="2"
     inkscape:pageopacity="0.0"
     inkscape:pagecheckerboard="0"
     inkscape:deskcolor="#d1d1d1"
     inkscape:zoom="10"
     inkscape:cx="29.6"
     inkscape:cy="40.65"
     inkscape:window-width="1920"
     inkscape:window-height="998"
     inkscape:window-x="0"
     inkscape:window-y="0"
     inkscape:window-maximized="1"
     inkscape:current-layer="svg29" />
  <rect
     style="opacity:0.2;stroke-width:0.9823"
     width="55"
     height="55.017544"
     x="3.5"
     y="3.9824562"
     ry="13.754386"
     id="rect1" />
  <rect
     style="fill:url(#linearGradient30);stroke-width:0.9823"
     width="55"
     height="55.017544"
     x="3.5"
     y="3"
     ry="13.754386"
     id="rect2" />
  <path
     style="opacity:0.1;fill:#ffffff;stroke-width:0.9823"
     d="M 17.25,3 C 9.6324999,3 3.4999999,9.1344561 3.4999999,16.754386 v 0.982456 c 0,-7.61993 6.1325,-13.7543858 13.7500001,-13.7543858 h 27.5 c 7.6175,0 13.75,6.1344558 13.75,13.7543858 V 16.754386 C 58.5,9.1344561 52.3675,3 44.75,3 Z"
     id="path28" />
  <g
     id="g1"
     transform="translate(6.6,-0.0138939)">
    <path
       style="opacity:0.2;stroke-width:1.00492"
       d="m 25.978125,12.015368 -1.8125,1.45758 -1.865234,-1.388548 -1.375,1.879669 -2.160157,-0.852062 -0.847656,2.177493 -2.302734,-0.262326 -0.259766,2.325422 -2.291016,0.35108 0.34375,2.31753 -2.125,0.934906 0.929688,2.145936 -1.8125,1.457579 1.443359,1.830356 -1.375,1.88361 1.861329,1.388548 -0.84375,2.181441 2.15625,0.856004 -0.259766,2.325422 2.302734,0.262326 0.347656,2.313589 2.294922,-0.347138 0.925782,2.145935 2.125,-0.938848 1.443359,1.83036 1.8125,-1.457583 1.865234,1.388548 1.375,-1.879665 2.160157,0.852062 0.847656,-2.177494 2.302734,0.262326 0.259766,-2.325422 2.291016,-0.35108 -0.34375,-2.317534 2.125,-0.934902 -0.929688,-2.145936 1.8125,-1.457579 -1.443359,-1.83036 1.375,-1.88361 -1.861329,-1.388544 0.84375,-2.181441 -2.15625,-0.856008 0.259766,-2.325422 -2.302734,-0.262322 -0.347656,-2.313588 -2.294922,0.347134 -0.925782,-2.145936 -2.125,0.938848 z M 24.4,19.084332 a 7,7.0689656 0 0 1 7,7.068968 7,7.0689656 0 0 1 -7,7.068965 7,7.0689656 0 0 1 -7,-7.068965 7,7.0689656 0 0 1 7,-7.068968 z m -6.925781,19.930777 -0.07422,0.01184 v 12.978173 l 7,-5.654778 7,5.654778 V 39.758693 l -0.572266,1.469414 -2.46289,-0.972378 -1.570313,2.145936 -2.126953,-1.585786 -2.066406,1.664679 -1.646484,-2.086763 -2.425782,1.069022 z"
       id="path3" />
    <path
       style="fill:#ffffff;stroke-width:1.00492"
       d="m 25.978125,11.005122 -1.8125,1.457579 -1.865234,-1.388548 -1.375,1.879669 -2.160157,-0.852062 -0.847656,2.177493 -2.302734,-0.262326 -0.259766,2.325422 -2.291016,0.35108 0.34375,2.31753 -2.125,0.934906 0.929688,2.145936 -1.8125,1.457579 1.443359,1.830356 -1.375,1.88361 1.861329,1.388548 -0.84375,2.181437 2.15625,0.856009 -0.259766,2.325422 2.302734,0.262326 0.347656,2.313588 2.294922,-0.347138 0.925782,2.145936 2.125,-0.938848 1.443359,1.83036 1.8125,-1.457583 1.865234,1.388548 1.375,-1.879665 2.160157,0.852061 0.847656,-2.177494 2.302734,0.262326 0.259766,-2.325422 2.291016,-0.35108 -0.34375,-2.317534 2.125,-0.934902 -0.929688,-2.145936 1.8125,-1.457579 -1.443359,-1.83036 1.375,-1.88361 -1.861329,-1.388544 0.84375,-2.181441 -2.15625,-0.856008 0.259766,-2.325422 -2.302734,-0.262322 -0.347656,-2.313588 -2.294922,0.347134 -0.925782,-2.145936 -2.125,0.938848 z M 24.4,18.074085 a 7,7.0689656 0 0 1 7,7.068968 7,7.0689656 0 0 1 -7,7.068965 7,7.0689656 0 0 1 -7,-7.068965 7,7.0689656 0 0 1 7,-7.068968 z m -6.925781,19.930776 -0.07422,0.01184 v 12.978177 l 7,-5.654777 7,5.654777 V 38.748446 l -0.572266,1.469414 -2.46289,-0.972378 -1.570313,2.145936 -2.126953,-1.585785 -2.066406,1.664678 -1.646484,-2.086763 -2.425782,1.069022 z"
       id="path4" />
  </g>
</svg>
