<?xml version="1.0" encoding="UTF-8" standalone="no"?>
<svg
   width="62"
   height="62"
   version="1.1"
   id="svg29"
   sodipodi:docname="tizen-studio-em.svg"
   inkscape:version="1.4 (unknown)"
   xmlns:inkscape="http://www.inkscape.org/namespaces/inkscape"
   xmlns:sodipodi="http://sodipodi.sourceforge.net/DTD/sodipodi-0.dtd"
   xmlns:xlink="http://www.w3.org/1999/xlink"
   xmlns="http://www.w3.org/2000/svg"
   xmlns:svg="http://www.w3.org/2000/svg">
  <defs
     id="defs29">
    <linearGradient
       id="linearGradient29"
       inkscape:collect="always">
      <stop
         style="stop-color:#316ff8;stop-opacity:1;"
         offset="0"
         id="stop29" />
      <stop
         style="stop-color:#489af4;stop-opacity:1;"
         offset="1"
         id="stop30" />
    </linearGradient>
    <linearGradient
       inkscape:collect="always"
       xlink:href="#linearGradient29"
       id="linearGradient30"
       x1="29.86627"
       y1="60"
       x2="30.193521"
       y2="5"
       gradientUnits="userSpaceOnUse"
       gradientTransform="matrix(0.98214286,0,0,0.98245614,-0.42857152,-0.92982455)" />
    <linearGradient
       id="paint1_linear_11_148"
       x1="12.6932"
       y1="20.5312"
       x2="12.6932"
       y2="5.6079102"
       gradientUnits="userSpaceOnUse"
       gradientTransform="matrix(2.6803705,0,0,2.6803705,-3.022395,-3.5399929)">
      <stop
         stop-color="#FD5900"
         id="stop4" />
      <stop
         offset="1"
         stop-color="#FFDE00"
         id="stop5" />
    </linearGradient>
    <linearGradient
       id="linear0"
       x1="0"
       x2="15.457296"
       y1="0.40162264"
       y2="15.858919"
       gradientTransform="matrix(2.3613453,0,0,2.1996089,12.750007,12.625351)"
       gradientUnits="userSpaceOnUse">
      <stop
         offset="0%"
         style="stop-color:#ff0000; stop-opacity:1"
         id="stop1" />
      <stop
         offset="50%"
         style="stop-color:#ffd000; stop-opacity:1"
         id="stop2" />
      <stop
         offset="100%"
         style="stop-color:#ff00bb; stop-opacity:1"
         id="stop3" />
    </linearGradient>
    <linearGradient
       id="linear0-6"
       x1="0"
       x2="0"
       y1="0"
       y2="16"
       gradientUnits="userSpaceOnUse"
       gradientTransform="matrix(2.2500014,0,0,2.2500014,13.000004,13.000032)">
      <stop
         offset="0%"
         style="stop-color:#00b54e; stop-opacity:1"
         id="stop1-7" />
      <stop
         offset="50%"
         style="stop-color:#0073ff; stop-opacity:1"
         id="stop2-5" />
      <stop
         offset="100%"
         style="stop-color:#ffd000; stop-opacity:1"
         id="stop3-3" />
    </linearGradient>
    <linearGradient
       inkscape:collect="always"
       xlink:href="#paint426_linear_890_11"
       id="linearGradient10"
       gradientUnits="userSpaceOnUse"
       gradientTransform="matrix(1.1666628,0,0,1.1666668,-337.99883,-552.83335)"
       x1="303"
       y1="491"
       x2="303"
       y2="485" />
    <linearGradient
       id="paint426_linear_890_11"
       x1="303"
       y1="491"
       x2="303"
       y2="485"
       gradientUnits="userSpaceOnUse">
      <stop
         offset="0.340681"
         stop-color="#2E2E41"
         id="stop1594" />
      <stop
         offset="1"
         stop-color="#566C80"
         id="stop1595" />
    </linearGradient>
    <linearGradient
       inkscape:collect="always"
       xlink:href="#linearGradient2"
       id="linearGradient15"
       x1="27"
       y1="46.479176"
       x2="27"
       y2="42.479176"
       gradientUnits="userSpaceOnUse"
       gradientTransform="translate(10.4,-27.979174)" />
    <linearGradient
       id="linearGradient2"
       inkscape:collect="always">
      <stop
         style="stop-color:#b7c6cd;stop-opacity:1;"
         offset="0"
         id="stop11" />
      <stop
         style="stop-color:#f0f2f5;stop-opacity:1;"
         offset="1"
         id="stop12" />
    </linearGradient>
    <linearGradient
       inkscape:collect="always"
       xlink:href="#paint426_linear_890_11"
       id="linearGradient1"
       gradientUnits="userSpaceOnUse"
       gradientTransform="matrix(1.1666628,0,0,1.1666668,-337.99883,-537.83335)"
       x1="303"
       y1="491"
       x2="303"
       y2="485" />
    <linearGradient
       inkscape:collect="always"
       xlink:href="#paint426_linear_890_11"
       id="linearGradient3"
       gradientUnits="userSpaceOnUse"
       gradientTransform="matrix(1.1666628,0,0,1.1666668,-337.99883,-523.83335)"
       x1="303"
       y1="491"
       x2="303"
       y2="485" />
    <linearGradient
       inkscape:collect="always"
       xlink:href="#linearGradient2"
       id="linearGradient4"
       gradientUnits="userSpaceOnUse"
       gradientTransform="translate(10.4,-12.979174)"
       x1="27"
       y1="46.479176"
       x2="27"
       y2="42.479176" />
    <linearGradient
       inkscape:collect="always"
       xlink:href="#linearGradient2"
       id="linearGradient5"
       gradientUnits="userSpaceOnUse"
       gradientTransform="translate(10.4,1.020826)"
       x1="27"
       y1="46.479176"
       x2="27"
       y2="42.479176" />
  </defs>
  <sodipodi:namedview
     id="namedview29"
     pagecolor="#ffffff"
     bordercolor="#000000"
     borderopacity="0.25"
     inkscape:showpageshadow="2"
     inkscape:pageopacity="0.0"
     inkscape:pagecheckerboard="0"
     inkscape:deskcolor="#d1d1d1"
     inkscape:zoom="10"
     inkscape:cx="29.6"
     inkscape:cy="24.65"
     inkscape:window-width="1920"
     inkscape:window-height="998"
     inkscape:window-x="0"
     inkscape:window-y="0"
     inkscape:window-maximized="1"
     inkscape:current-layer="svg29" />
  <rect
     style="opacity:0.2;stroke-width:0.9823"
     width="55"
     height="55.017544"
     x="3.5"
     y="3.9824562"
     ry="13.754386"
     id="rect1" />
  <rect
     style="fill:url(#linearGradient30);stroke-width:0.9823"
     width="55"
     height="55.017544"
     x="3.5"
     y="3"
     ry="13.754386"
     id="rect2" />
  <path
     style="opacity:0.1;fill:#ffffff;stroke-width:0.9823"
     d="M 17.25,3 C 9.6324999,3 3.4999999,9.1344561 3.4999999,16.754386 v 0.982456 c 0,-7.61993 6.1325,-13.7543858 13.7500001,-13.7543858 h 27.5 c 7.6175,0 13.75,6.1344558 13.75,13.7543858 V 16.754386 C 58.5,9.1344561 52.3675,3 44.75,3 Z"
     id="path28" />
  <g
     id="g5"
     transform="translate(-1.7)">
    <path
       d="m 21.4,16.5 c 0,-1.105 0.895,-2 2,-2 h 28 c 1.105,0 2,0.895 2,2 0,1.105 -0.895,2 -2,2 h -28 c -1.105,0 -2,-0.895 -2,-2 z"
       id="path529"
       style="fill:url(#linearGradient15)" />
    <path
       d="M 14.33336,13 C 13.044195,13 12,14.044166 12,15.333331 v 2.333333 C 12,18.955834 13.044195,20 14.33336,20 h 2.333301 C 17.95581,20 19,18.955834 19,17.666664 V 15.333331 C 19,14.044166 17.95581,13 16.666661,13 Z"
       id="path420-2-3"
       style="fill:url(#linearGradient10);stroke-width:1.16667" />
    <path
       d="M 14.33336,28 C 13.044195,28 12,29.044166 12,30.333331 v 2.333333 C 12,33.955834 13.044195,35 14.33336,35 h 2.333301 C 17.95581,35 19,33.955834 19,32.666664 V 30.333331 C 19,29.044166 17.95581,28 16.666661,28 Z"
       id="path420-2-3-5"
       style="fill:url(#linearGradient1);stroke-width:1.16667" />
    <path
       d="M 14.33336,42 C 13.044195,42 12,43.044166 12,44.333331 v 2.333333 C 12,47.955834 13.044195,49 14.33336,49 h 2.333301 C 17.95581,49 19,47.955834 19,46.666664 V 44.333331 C 19,43.044166 17.95581,42 16.666661,42 Z"
       id="path420-2-3-5-2"
       style="fill:url(#linearGradient3);stroke-width:1.16667" />
    <path
       d="m 21.4,31.5 c 0,-1.105 0.895,-2 2,-2 h 28 c 1.105,0 2,0.895 2,2 0,1.105 -0.895,2 -2,2 h -28 c -1.105,0 -2,-0.895 -2,-2 z"
       id="path529-7"
       style="fill:url(#linearGradient4)" />
    <path
       d="m 21.4,45.5 c 0,-1.105 0.895,-2 2,-2 h 28 c 1.105,0 2,0.895 2,2 0,1.105 -0.895,2 -2,2 h -28 c -1.105,0 -2,-0.895 -2,-2 z"
       id="path529-7-6"
       style="fill:url(#linearGradient5)" />
  </g>
</svg>
