<?xml version="1.0" encoding="UTF-8" standalone="no"?>
<svg
   width="62"
   height="62"
   version="1"
   id="svg19"
   sodipodi:docname="ToneLib-Zoom.svg"
   inkscape:version="1.4 (unknown)"
   xmlns:inkscape="http://www.inkscape.org/namespaces/inkscape"
   xmlns:sodipodi="http://sodipodi.sourceforge.net/DTD/sodipodi-0.dtd"
   xmlns:xlink="http://www.w3.org/1999/xlink"
   xmlns="http://www.w3.org/2000/svg"
   xmlns:svg="http://www.w3.org/2000/svg">
  <defs
     id="defs19">
    <linearGradient
       id="linearGradient19"
       inkscape:collect="always">
      <stop
         style="stop-color:#374049;stop-opacity:1;"
         offset="0"
         id="stop19" />
      <stop
         style="stop-color:#5d6c7b;stop-opacity:1;"
         offset="1"
         id="stop20" />
    </linearGradient>
    <linearGradient
       inkscape:collect="always"
       xlink:href="#linearGradient19"
       id="linearGradient20"
       x1="32"
       y1="61"
       x2="32"
       y2="4"
       gradientUnits="userSpaceOnUse" />
  </defs>
  <sodipodi:namedview
     id="namedview19"
     pagecolor="#ffffff"
     bordercolor="#000000"
     borderopacity="0.25"
     inkscape:showpageshadow="2"
     inkscape:pageopacity="0.0"
     inkscape:pagecheckerboard="0"
     inkscape:deskcolor="#d1d1d1"
     inkscape:zoom="12.109375"
     inkscape:cx="32"
     inkscape:cy="32"
     inkscape:window-width="1920"
     inkscape:window-height="998"
     inkscape:window-x="0"
     inkscape:window-y="0"
     inkscape:window-maximized="1"
     inkscape:current-layer="svg19" />
  <g
     id="g19"
     transform="matrix(0.95238095,0,0,0.94915254,0.52380907,0.15254227)">
    <rect
       style="opacity:0.2"
       width="42"
       height="58"
       x="11"
       y="4"
       rx="3"
       ry="2.9000001"
       id="rect1" />
    <rect
       style="fill:url(#linearGradient20)"
       width="42"
       height="58"
       x="11"
       y="3"
       rx="3"
       ry="2.9000001"
       id="rect2" />
    <rect
       style="fill:#8dd35f"
       width="30"
       height="18"
       x="17"
       y="7"
       id="rect3" />
    <circle
       style="opacity:0.2"
       cx="22"
       cy="55"
       r="3"
       id="circle3" />
    <circle
       style="fill:#c83771"
       cx="22"
       cy="54"
       r="3"
       id="circle4" />
    <circle
       style="opacity:0.2"
       cx="32"
       cy="55"
       r="3"
       id="circle5" />
    <circle
       style="fill:#f4d7e3"
       cx="32"
       cy="54"
       r="3"
       id="circle6" />
    <circle
       style="opacity:0.2"
       cx="42"
       cy="55"
       r="3"
       id="circle7" />
    <circle
       style="fill:#f4d7e3"
       cx="42"
       cy="54"
       r="3"
       id="circle8" />
    <circle
       style="opacity:0.2"
       cx="50.205002"
       cy="4.9499998"
       r="11"
       transform="rotate(45)"
       id="circle9" />
    <circle
       style="fill:#ffffff"
       cx="49.497002"
       cy="4.243"
       r="11"
       transform="rotate(45)"
       id="circle10" />
    <path
       style="fill:#8d5fd3"
       d="M 39.778176,30.221828 A 11,11 0 0 0 38.73564,29.319824 l -4.791094,4.79109 a 1.3751375,1.3751375 0 1 0 1.944544,1.944544 l 4.792996,-4.792996 a 11,11 0 0 0 -0.90391,-1.040634 z"
       id="path10" />
    <rect
       style="fill:#44525e"
       width="3"
       height="14"
       x="30"
       y="9"
       id="rect10" />
    <rect
       style="fill:#44525e"
       width="3"
       height="8.3999996"
       x="25"
       y="9"
       id="rect11" />
    <rect
       style="fill:#44525e"
       width="3"
       height="7"
       x="15"
       y="-32"
       transform="rotate(90)"
       id="rect12" />
    <rect
       style="fill:#44525e"
       width="3"
       height="9"
       x="41"
       y="9"
       id="rect13" />
    <rect
       style="fill:#44525e"
       width="3"
       height="8"
       x="36"
       y="15"
       id="rect14" />
    <rect
       style="fill:#44525e"
       width="3"
       height="7"
       x="15"
       y="-43"
       transform="rotate(90)"
       id="rect15" />
    <rect
       style="fill:#44525e"
       width="3"
       height="7"
       x="9"
       y="-43"
       transform="rotate(90)"
       id="rect16" />
    <rect
       style="fill:#44525e"
       width="3"
       height="7"
       x="20"
       y="-44.330002"
       transform="rotate(90)"
       id="rect17" />
    <path
       style="opacity:0.1;fill:#ffffff"
       d="m 14,3 c -1.662,0 -3,1.2918373 -3,2.8984375 v 1 C 11,5.2918373 12.338,4 14,4 h 36 c 1.662,0 3,1.2918373 3,2.8984375 v -1 C 53,4.2918373 51.662,3 50,3 Z"
       id="path17" />
    <rect
       style="opacity:0.2"
       width="30"
       height="1"
       x="17"
       y="7"
       id="rect18" />
    <rect
       style="opacity:0.1;fill:#ffffff"
       width="30"
       height="1"
       x="17"
       y="25"
       id="rect19" />
  </g>
</svg>
