<?xml version="1.0" encoding="UTF-8" standalone="no"?>
<svg
   width="62"
   height="62"
   viewBox="0 0 62 62"
   version="1.1"
   id="svg2667"
   sodipodi:docname="toolbox.svg"
   inkscape:version="1.4 (unknown)"
   xmlns:inkscape="http://www.inkscape.org/namespaces/inkscape"
   xmlns:sodipodi="http://sodipodi.sourceforge.net/DTD/sodipodi-0.dtd"
   xmlns:xlink="http://www.w3.org/1999/xlink"
   xmlns="http://www.w3.org/2000/svg"
   xmlns:svg="http://www.w3.org/2000/svg">
  <defs
     id="defs2671">
    <linearGradient
       id="linearGradient1"
       inkscape:collect="always">
      <stop
         style="stop-color:#e25563;stop-opacity:1;"
         offset="0"
         id="stop1" />
      <stop
         style="stop-color:#ffb380;stop-opacity:1"
         offset="1"
         id="stop3" />
    </linearGradient>
    <linearGradient
       gradientTransform="translate(-384.57145,504.5642)"
       gradientUnits="userSpaceOnUse"
       y2="503.798"
       x2="409.57101"
       y1="543.79797"
       x1="409.57101"
       id="linearGradient4165-3"
       xlink:href="#linearGradient4626" />
    <linearGradient
       id="linearGradient4626">
      <stop
         style="stop-color:#ff2323;stop-opacity:1"
         offset="0"
         id="stop13" />
      <stop
         style="stop-color:#ff5149;stop-opacity:1"
         offset="1"
         id="stop15" />
    </linearGradient>
    <linearGradient
       gradientTransform="translate(-46)"
       gradientUnits="userSpaceOnUse"
       y2="1042.3621"
       x2="86"
       y1="1012.362"
       x1="56"
       id="linearGradient4358-5"
       xlink:href="#linearGradient4662" />
    <linearGradient
       id="linearGradient4662">
      <stop
         offset="0"
         style="stop-color:#940700;stop-opacity:1"
         id="stop8" />
      <stop
         offset="1"
         style="stop-color:#000000;stop-opacity:0;"
         id="stop10" />
    </linearGradient>
    <linearGradient
       gradientUnits="userSpaceOnUse"
       y2="817.90802"
       x2="-95.411003"
       y1="1010.086"
       x1="-95.411003"
       id="linearGradient4226-6"
       xlink:href="#linearGradient4220" />
    <linearGradient
       id="linearGradient4220">
      <stop
         offset="0"
         style="stop-color:#ffd5d3;stop-opacity:1"
         id="stop2" />
      <stop
         offset="1"
         style="stop-color:#ffffff;stop-opacity:1"
         id="stop4" />
    </linearGradient>
    <linearGradient
       inkscape:collect="always"
       xlink:href="#linearGradient1"
       id="linearGradient3"
       x1="27.732851"
       y1="59"
       x2="27.657761"
       y2="3.1905279"
       gradientUnits="userSpaceOnUse" />
  </defs>
  <sodipodi:namedview
     id="namedview2669"
     pagecolor="#ffffff"
     bordercolor="#000000"
     borderopacity="0.25"
     inkscape:showpageshadow="2"
     inkscape:pageopacity="0.0"
     inkscape:pagecheckerboard="0"
     inkscape:deskcolor="#d1d1d1"
     showgrid="false"
     inkscape:zoom="6.9532167"
     inkscape:cx="22.36375"
     inkscape:cy="46.525229"
     inkscape:window-width="1920"
     inkscape:window-height="998"
     inkscape:window-x="0"
     inkscape:window-y="0"
     inkscape:window-maximized="1"
     inkscape:current-layer="svg2667" />
  <path
     style="fill:url(#linearGradient3);fill-opacity:1;fill-rule:nonzero;stroke:none;stroke-width:1.29415"
     d="M 31,3 C 46.739266,3 59.5,15.536864 59.5,31 59.5,46.463136 46.739266,59 31,59 15.260734,59 2.5,46.463136 2.5,31 2.5,15.536864 15.260734,3 31,3 Z m 0,0"
     id="path2662-6" />
  <rect
     x="10.642859"
     y="11"
     width="40.714302"
     height="40"
     rx="6.7857623"
     ry="6.6667151"
     fill="#303030"
     style="fill:#373e48;fill-opacity:1;stroke-width:5.08427;paint-order:markers stroke fill"
     id="rect1" />
  <path
     d="M 24.609122,32.93909 V 18.219495 h 5.052897 v -3.422811 h -13.74976 v 3.422811 h 5.052894 V 32.93909 Z m 18.594864,-9.431629 c 1.282238,-0.781348 2.093129,-2.177695 2.093129,-3.992441 0,-2.822938 -2.027241,-4.718336 -5.970223,-4.718336 H 31.618304 V 32.93909 h 8.159647 c 4.145713,0 6.30979,-1.814746 6.30979,-4.945174 0,-2.28356 -1.130187,-3.841218 -2.883755,-4.486455 m -4.328155,-5.550097 c 1.78397,0 2.751975,0.700694 2.751975,2.127286 0,1.426591 -0.968005,2.152486 -2.751975,2.152486 H 35.247066 V 17.957364 Z M 35.247066,29.77841 V 25.297 h 4.257211 c 1.895471,0 2.909092,0.725896 2.909092,2.253309 0,1.557651 -1.013621,2.228101 -2.909092,2.228101 z"
     style="white-space:pre;fill:#ffffff;stroke-width:5.05451"
     id="path3" />
  <path
     d="m 14.08774,43.701531 h 15.670578 v 3.095153 H 14.08774 Z"
     style="fill:#ffffff;stroke-width:5.05451"
     id="path4" />
</svg>
