<?xml version="1.0" encoding="UTF-8" standalone="no"?>
<svg
   width="62"
   height="62"
   version="1"
   id="svg6"
   sodipodi:docname="torrserver.svg"
   inkscape:version="1.4 (unknown)"
   xmlns:inkscape="http://www.inkscape.org/namespaces/inkscape"
   xmlns:sodipodi="http://sodipodi.sourceforge.net/DTD/sodipodi-0.dtd"
   xmlns="http://www.w3.org/2000/svg"
   xmlns:svg="http://www.w3.org/2000/svg">
  <defs
     id="defs6" />
  <sodipodi:namedview
     id="namedview6"
     pagecolor="#ffffff"
     bordercolor="#000000"
     borderopacity="0.25"
     inkscape:showpageshadow="2"
     inkscape:pageopacity="0.0"
     inkscape:pagecheckerboard="0"
     inkscape:deskcolor="#d1d1d1"
     inkscape:zoom="8.0729167"
     inkscape:cx="21.181935"
     inkscape:cy="29.047742"
     inkscape:window-width="1920"
     inkscape:window-height="998"
     inkscape:window-x="0"
     inkscape:window-y="0"
     inkscape:window-maximized="1"
     inkscape:current-layer="svg6" />
  <g
     id="g6"
     transform="matrix(1.375,0,0,1.3658537,-2,-2.4634157)">
    <rect
       style="opacity:0.2"
       width="40"
       height="40"
       x="4"
       y="5"
       rx="20"
       ry="20"
       id="rect1" />
    <rect
       style="fill:#6c5d53"
       width="40"
       height="40"
       x="4"
       y="4"
       rx="20"
       ry="20"
       id="rect2" />
    <path
       style="opacity:0.1;fill:#ffffff"
       d="M 24,4 C 12.92,4 4,12.92 4,24 4,24.167874 4.00765,24.333141 4.011719,24.5 4.2763904,13.653863 13.087874,5 24,5 34.912126,5 43.72361,13.653863 43.988281,24.5 43.992353,24.333141 44,24.167874 44,24 44,12.92 35.08,4 24,4 Z"
       id="path2" />
    <circle
       style="opacity:0.2"
       cx="24"
       cy="25"
       r="16"
       id="circle2" />
    <circle
       style="fill:#ffffff"
       cx="24"
       cy="24"
       r="16"
       id="circle3" />
    <g
       transform="matrix(0.97340239,0,0,1,0.91965266,-0.49357)"
       id="g3">
      <path
         style="fill:#2d3d53;fill-opacity:1"
         d="m 19.601706,16.49357 v 8 h -2.054649 v -8 h -3.081973 v -2 h 8.218595 v 2 z"
         id="path3" />
    </g>
    <g
       transform="matrix(0.89257895,0,0,0.92972584,-12.443225,8.6374238)"
       id="g4">
      <path
         style="fill:#2d3d53;fill-opacity:1"
         transform="matrix(1.0163792,0,0,1,16.994403,-6.94838)"
         d="m 29.078125,25.623047 c -1.214187,0 -2.190842,0.230092 -2.908203,0.744141 h -0.002 v 0.002 c -0.712399,0.514193 -1.091797,1.304157 -1.091797,2.232421 0,0.404694 0.0667,0.778668 0.207031,1.113282 v 0.002 l 0.002,0.002 c 0.142528,0.32728 0.347455,0.618368 0.609375,0.863281 l 0.002,0.002 0.002,0.002 c 0.267321,0.24453 0.608158,0.449267 1.023437,0.630859 h 0.002 c 0.43134,0.186449 1.021374,0.360331 1.789063,0.533203 0.431441,0.100505 0.825116,0.194577 1.179687,0.28125 0.336749,0.08232 0.619011,0.18174 0.845703,0.294922 0.214164,0.106926 0.361554,0.23098 0.460938,0.371094 v 0.002 l 0.002,0.0039 c 0.08787,0.120004 0.144531,0.288077 0.144531,0.546875 0,0.462037 -0.147792,0.733108 -0.513672,0.96875 -0.364893,0.233169 -0.938619,0.376953 -1.732422,0.376953 -0.768041,0 -1.345555,-0.132528 -1.736328,-0.357422 -0.386361,-0.226551 -0.621274,-0.551196 -0.746093,-1.054687 l -0.08789,-0.347656 -1.976563,0.402343 0.08398,0.378907 c 0.204387,0.906939 0.706826,1.629031 1.46289,2.089843 0.756066,0.460813 1.743248,0.671874 2.951172,0.671875 1.300935,0 2.350443,-0.252462 3.125,-0.80664 0.779077,-0.553769 1.195313,-1.397149 1.195313,-2.392578 0,-0.387816 -0.05156,-0.740613 -0.169922,-1.054688 l -0.002,-0.002 c -0.109874,-0.302172 -0.270003,-0.572887 -0.47461,-0.802735 -0.199018,-0.22357 -0.434438,-0.412749 -0.701171,-0.564453 l -0.0039,-0.002 c -0.248485,-0.143309 -0.51386,-0.2665 -0.796875,-0.36914 l -0.0039,-0.002 C 30.937774,30.276608 30.644795,30.187398 30.33804,30.115369 h -0.002 c -0.289323,-0.07357 -0.581382,-0.144022 -0.875,-0.21289 l -0.002,-0.002 h -0.002 c -0.866805,-0.195274 -1.449726,-0.36599 -1.68164,-0.470703 l -0.0039,-0.002 c -0.250857,-0.118327 -0.425896,-0.250961 -0.539062,-0.386718 -0.0966,-0.124756 -0.150391,-0.277648 -0.150391,-0.509766 0,-0.409302 0.120849,-0.634523 0.429688,-0.832031 0.312778,-0.200027 0.82933,-0.328125 1.552734,-0.328125 0.655575,0 1.136318,0.115516 1.447266,0.300781 h 0.002 v 0.002 c 0.306073,0.178785 0.508742,0.449373 0.628906,0.890625 l 0.08984,0.330078 2.015625,-0.359375 -0.115235,-0.404297 c -0.24968,-0.880732 -0.710448,-1.55674 -1.378906,-1.947265 -0.66242,-0.391806 -1.552659,-0.560547 -2.675781,-0.560547 z"
         id="path4" />
    </g>
    <path
       style="opacity:0.1"
       d="M 17.497454,23.483151 35,5 26.562874,19.217809 32.397057,17.97375 24.720414,28.136592 29.692156,27.651222 13,45 l 7.759467,-12.959777 -4.713203,0.415045 6.544089,-9.835013 z"
       id="path5" />
    <path
       style="fill:#ff9955"
       d="M 17.497454,22.483151 35,4 26.562874,18.217809 32.397057,16.97375 24.720414,27.136592 29.692156,26.651222 13,44 l 7.759467,-12.959777 -4.713203,0.415045 6.544089,-9.835013 z"
       id="path6" />
  </g>
</svg>
