<?xml version="1.0" encoding="UTF-8" standalone="no"?>
<svg
   width="62"
   height="62"
   version="1"
   id="svg7"
   sodipodi:docname="torrenttools.svg"
   inkscape:version="1.4 (unknown)"
   xmlns:inkscape="http://www.inkscape.org/namespaces/inkscape"
   xmlns:sodipodi="http://sodipodi.sourceforge.net/DTD/sodipodi-0.dtd"
   xmlns="http://www.w3.org/2000/svg"
   xmlns:svg="http://www.w3.org/2000/svg">
  <defs
     id="defs7" />
  <sodipodi:namedview
     id="namedview7"
     pagecolor="#ffffff"
     bordercolor="#000000"
     borderopacity="0.25"
     inkscape:showpageshadow="2"
     inkscape:pageopacity="0.0"
     inkscape:pagecheckerboard="0"
     inkscape:deskcolor="#d1d1d1"
     inkscape:zoom="5"
     inkscape:cx="29.7"
     inkscape:cy="42.3"
     inkscape:window-width="1920"
     inkscape:window-height="998"
     inkscape:window-x="0"
     inkscape:window-y="0"
     inkscape:window-maximized="1"
     inkscape:current-layer="svg7" />
  <g
     id="g7"
     transform="matrix(0.98214283,0,0,0.98245621,-0.42857067,-0.92982867)">
    <path
       style="opacity:0.2"
       d="m 31.718097,5.0011604 c -0.862412,0.00764 -1.724706,0.055174 -2.582738,0.142316 a 1.0121125,1.0121321 0 0 0 -0.898687,0.853901 L 27.69377,9.5368502 c -1.257836,0.230076 -2.492424,0.5607388 -3.697532,0.9883118 L 21.764015,7.7394419 A 1.0121125,1.0121321 0 0 0 20.559617,7.4495371 c -1.750726,0.7854965 -3.414036,1.7493341 -4.967816,2.8753269 a 1.0121125,1.0121321 0 0 0 -0.350515,1.18861 l 1.29664,3.320725 c -0.976412,0.826122 -1.884873,1.724925 -2.717145,2.696114 l -3.299579,-1.283487 a 1.0121125,1.0121321 0 0 0 -1.1859508,0.350521 c -1.1253224,1.555693 -2.0883738,3.223246 -2.8726364,4.97582 a 1.0121125,1.0121321 0 0 0 0.2925345,1.201787 l 2.7171451,2.18219 c -0.2196284,0.607592 -0.441554,1.213392 -0.6114235,1.836944 a 1.0121125,1.0121321 0 0 0 -0.00526,0.0158 c -0.159436,0.623136 -0.2628418,1.258533 -0.3716048,1.892279 l -3.4787931,0.53239 a 1.0121125,1.0121321 0 0 0 -0.8538844,0.89607 c -0.1992141,1.90757 -0.2016297,3.829339 -0.0079,5.737477 a 1.0121125,1.0121321 0 0 0 0.8538844,0.898704 l 3.5394043,0.540276 c 0.229932,1.257913 0.5608671,2.492407 0.9882922,3.697603 L 6.7393367,43.234318 A 1.0121125,1.0121321 0 0 0 6.4468022,44.43874 c 0.7863304,1.75091 1.7510112,3.416825 2.8779072,4.970547 a 1.0121125,1.0121321 0 0 0 1.1885866,0.347888 l 3.315391,-1.29403 c 0.827367,0.977612 1.72856,1.884158 2.701332,2.717196 l -1.283462,3.299645 a 1.0121125,1.0121321 0 0 0 0.350514,1.188608 c 1.556495,1.125532 3.224908,2.085927 4.978358,2.870055 a 1.0121125,1.0121321 0 0 0 1.201764,-0.289904 l 2.179513,-2.719833 c 0.607638,0.219672 1.213304,0.444174 1.836908,0.614072 a 1.0121125,1.0121321 0 0 0 0.0158,0.0026 c 0.62317,0.15944 1.25848,0.265466 1.89225,0.37424 l 0.53236,3.473585 a 1.0121125,1.0121321 0 0 0 0.896053,0.853902 c 1.907406,0.200108 3.829212,0.203406 5.737367,0.0106 a 1.0121125,1.0121321 0 0 0 0.898686,-0.8539 l 0.5429,-3.539473 c 1.256908,-0.23005 2.490653,-0.558414 3.694897,-0.985676 l 2.232224,2.785721 a 1.0121125,1.0121321 0 0 0 1.204398,0.289904 C 45.19139,57.768123 46.85734,56.803466 48.411,55.676526 a 1.0121125,1.0121321 0 0 0 0.347879,-1.185912 l -1.294003,-3.318091 c 0.975958,-0.82693 1.882835,-1.72945 2.714509,-2.701384 l 3.299578,1.283486 a 1.0121125,1.0121321 0 0 0 1.185951,-0.347886 c 1.125486,-1.556556 2.08854,-3.224935 2.872636,-4.978453 a 1.0121125,1.0121321 0 0 0 -0.292534,-1.204422 l -2.717144,-2.176921 c 0.220136,-0.609292 0.44396,-1.216886 0.61406,-1.842212 a 1.0121125,1.0121321 0 0 0 0.0026,-0.0132 c 0.16018,-0.623108 0.264722,-1.25852 0.374234,-1.892289 l 3.476151,-0.535006 a 1.0121125,1.0121321 0 0 0 0.853932,-0.893498 c 0.19902,-1.906666 0.201386,-3.830243 0.0078,-5.737477 a 1.0121125,1.0121321 0 0 0 -0.853778,-0.898704 l -3.539405,-0.540276 c -0.230034,-1.257049 -0.561152,-2.490573 -0.988292,-3.694969 l 2.7883,-2.234902 a 1.0121125,1.0121321 0 0 0 0.2899,-1.204421 c -0.786348,-1.750912 -1.750992,-3.414192 -2.877906,-4.967911 a 1.0121125,1.0121321 0 0 0 -1.188587,-0.350523 l -3.318026,1.294029 c -0.82679,-0.975849 -1.726949,-1.882959 -2.698697,-2.714561 l 1.283463,-3.297007 a 1.0121125,1.0121321 0 0 0 -0.350515,-1.18861 C 46.847476,9.2100372 45.179888,8.2470104 43.427383,7.4627147 A 1.0121125,1.0121321 0 0 0 42.225621,7.7552549 L 40.046107,10.472452 C 39.437673,10.252685 38.830989,10.030885 38.206564,9.8610172 a 1.0121125,1.0121321 0 0 0 -0.0158,-0.0053 c -0.62374,-0.160251 -1.257858,-0.26475 -1.892262,-0.374232 L 35.768778,6.0052848 A 1.0121125,1.0121321 0 0 0 34.872724,5.1513836 C 33.82425,5.0418736 32.772235,4.9918656 31.718097,5.0011604 Z"
       id="path1" />
    <path
       style="fill:#f2f2f2;fill-opacity:1"
       d="m 31.718097,4.0010966 c -0.862412,0.00764 -1.724706,0.055174 -2.582738,0.142316 a 1.0121125,1.0121321 0 0 0 -0.898687,0.853901 L 27.69377,8.5367863 c -1.257836,0.230076 -2.492424,0.5607393 -3.697532,0.9883122 L 21.764015,6.7393781 A 1.0121125,1.0121321 0 0 0 20.559617,6.4494733 C 18.808891,7.2349698 17.145581,8.1988072 15.591801,9.3248008 A 1.0121125,1.0121321 0 0 0 15.241286,10.51341 l 1.29664,3.320726 c -0.976412,0.826122 -1.884873,1.724925 -2.717145,2.696114 L 10.521202,15.246763 A 1.0121125,1.0121321 0 0 0 9.3352512,15.597284 C 8.2099288,17.152977 7.2468774,18.82053 6.4626148,20.573103 a 1.0121125,1.0121321 0 0 0 0.2925345,1.201786 l 2.7171451,2.182191 c -0.2196284,0.607592 -0.441554,1.213392 -0.6114235,1.836944 a 1.0121125,1.0121321 0 0 0 -0.00526,0.0158 c -0.159436,0.623136 -0.2628418,1.258532 -0.3716048,1.892278 l -3.4787931,0.53239 a 1.0121125,1.0121321 0 0 0 -0.8538844,0.896071 c -0.1992141,1.90757 -0.2016297,3.829338 -0.0079,5.737477 a 1.0121125,1.0121321 0 0 0 0.8538844,0.898704 l 3.5394043,0.540276 c 0.229932,1.257912 0.5608671,2.492407 0.9882922,3.697603 l -2.7856728,2.22963 a 1.0121125,1.0121321 0 0 0 -0.2925345,1.204422 c 0.7863304,1.750911 1.7510112,3.416825 2.8779072,4.970547 a 1.0121125,1.0121321 0 0 0 1.1885866,0.347889 l 3.315391,-1.294031 c 0.827367,0.977612 1.72856,1.884159 2.701332,2.717197 l -1.283462,3.299644 a 1.0121125,1.0121321 0 0 0 0.350514,1.188609 c 1.556495,1.125532 3.224908,2.085926 4.978358,2.870054 a 1.0121125,1.0121321 0 0 0 1.201764,-0.289904 l 2.179513,-2.719832 c 0.607638,0.219672 1.213304,0.444174 1.836908,0.614072 a 1.0121125,1.0121321 0 0 0 0.0158,0.0026 c 0.62317,0.15944 1.25848,0.265466 1.89225,0.37424 l 0.53236,3.473585 a 1.0121125,1.0121321 0 0 0 0.896053,0.853902 c 1.907406,0.200108 3.829212,0.203406 5.737367,0.0106 a 1.0121125,1.0121321 0 0 0 0.898686,-0.8539 l 0.5429,-3.539473 c 1.256908,-0.23005 2.490653,-0.558414 3.694897,-0.985676 l 2.232224,2.78572 a 1.0121125,1.0121321 0 0 0 1.204398,0.289904 c 1.750841,-0.786364 3.416791,-1.75102 4.970451,-2.87796 a 1.0121125,1.0121321 0 0 0 0.347879,-1.185913 l -1.294003,-3.31809 c 0.975958,-0.82693 1.882835,-1.729451 2.714509,-2.701385 l 3.299578,1.283487 a 1.0121125,1.0121321 0 0 0 1.185951,-0.347887 c 1.125486,-1.556556 2.08854,-3.224934 2.872636,-4.978453 a 1.0121125,1.0121321 0 0 0 -0.292534,-1.204422 l -2.717144,-2.17692 c 0.220136,-0.609292 0.44396,-1.216886 0.61406,-1.842213 a 1.0121125,1.0121321 0 0 0 0.0026,-0.0132 c 0.16018,-0.623108 0.264722,-1.25852 0.374234,-1.892288 l 3.476151,-0.535006 a 1.0121125,1.0121321 0 0 0 0.853932,-0.893498 c 0.19902,-1.906667 0.201386,-3.830243 0.0078,-5.737477 a 1.0121125,1.0121321 0 0 0 -0.853778,-0.898705 l -3.539405,-0.540276 c -0.230034,-1.257048 -0.561152,-2.490572 -0.988292,-3.694968 l 2.7883,-2.234903 a 1.0121125,1.0121321 0 0 0 0.2899,-1.20442 c -0.786348,-1.750911 -1.750992,-3.414192 -2.877906,-4.967911 a 1.0121125,1.0121321 0 0 0 -1.188587,-0.350522 l -3.318026,1.294029 c -0.82679,-0.97585 -1.726949,-1.882959 -2.698697,-2.714562 l 1.283463,-3.297007 A 1.0121125,1.0121321 0 0 0 48.403106,9.3353428 C 46.847476,8.2099736 45.179888,7.2469466 43.427383,6.4626509 A 1.0121125,1.0121321 0 0 0 42.225621,6.7551911 L 40.046107,9.4723885 C 39.437673,9.2526218 38.830989,9.0308212 38.206564,8.8609531 a 1.0121125,1.0121321 0 0 0 -0.0158,-0.00528 C 37.567024,8.6954223 36.932906,8.5909233 36.298502,8.4814417 L 35.768778,5.005221 A 1.0121125,1.0121321 0 0 0 34.872724,4.1513198 C 33.82425,4.0418096 32.772235,3.991801 31.718097,4.0010966 Z"
       id="path2" />
    <rect
       style="opacity:0.1"
       width="36"
       height="36"
       x="14"
       y="15"
       rx="18"
       id="rect2" />
    <rect
       style="fill:#009999;fill-opacity:1"
       width="36"
       height="36"
       x="14"
       y="14"
       rx="18"
       id="rect3" />
    <path
       style="opacity:1;fill:#ededed;fill-opacity:1"
       d="m 31.71875,4.0019531 c -0.862412,0.00764 -1.725952,0.053483 -2.583984,0.140625 a 1.0121125,1.0121321 0 0 0 -0.898438,0.8554688 l -0.542969,3.5390625 c -1.257836,0.230076 -2.492157,0.5607083 -3.697265,0.9882812 L 21.763672,6.7402344 A 1.0121125,1.0121321 0 0 0 20.560547,6.4492188 c -1.750726,0.7854964 -3.41497,1.7490063 -4.96875,2.875 a 1.0121125,1.0121321 0 0 0 -0.349609,1.1894532 l 0.05664,0.144531 a 1.0121125,1.0121321 0 0 1 0.292969,-0.333984 c 1.55378,-1.1259938 3.218024,-2.0895037 4.96875,-2.8750002 a 1.0121125,1.0121321 0 0 1 1.203125,0.2910156 l 2.232422,2.7851566 c 1.205108,-0.427573 2.439429,-0.7582056 3.697265,-0.9882816 l 0.542969,-3.5390625 a 1.0121125,1.0121321 0 0 1 0.898438,-0.8554688 c 0.858032,-0.087142 1.721572,-0.132985 2.583984,-0.140625 1.054138,-0.0093 2.105823,0.040881 3.154297,0.1503907 a 1.0121125,1.0121321 0 0 1 0.896484,0.8535156 l 0.529297,3.4765625 c 0.634404,0.1094816 1.268838,0.212796 1.892578,0.3730469 a 1.0121125,1.0121321 0 0 1 0.01563,0.00586 c 0.624425,0.1698682 1.23141,0.3915612 1.839844,0.6113282 l 2.179687,-2.7167969 a 1.0121125,1.0121321 0 0 1 1.201172,-0.2929688 c 1.752505,0.7842957 3.41898,1.7476777 4.97461,2.8730477 a 1.0121125,1.0121321 0 0 1 0.294922,0.332031 l 0.05664,-0.144531 A 1.0121125,1.0121321 0 0 0 48.402344,9.3359375 C 46.846714,8.2105683 45.180239,7.2471863 43.427734,6.4628906 A 1.0121125,1.0121321 0 0 0 42.226562,6.7558594 L 40.046875,9.4726562 C 39.438441,9.2528896 38.831456,9.0311962 38.207031,8.8613281 a 1.0121125,1.0121321 0 0 0 -0.01563,-0.00586 c -0.62374,-0.1602508 -1.258174,-0.2655184 -1.892578,-0.375 L 35.769531,5.0058594 A 1.0121125,1.0121321 0 0 0 34.873047,4.1503906 C 33.824573,4.0408804 32.772888,3.9926575 31.71875,4.0019531 Z m 16.037109,10.0839849 -0.285156,0.734374 c 0.971748,0.831604 1.870476,1.738994 2.697266,2.714844 l 3.318359,-1.292968 a 1.0121125,1.0121321 0 0 1 1.189453,0.349609 c 1.107758,1.527308 2.05505,3.162646 2.833985,4.880859 a 1.0121125,1.0121321 0 0 0 0.04297,-0.912109 c -0.786348,-1.750911 -1.750039,-3.415031 -2.876953,-4.96875 A 1.0121125,1.0121321 0 0 0 53.48633,15.242188 l -3.318359,1.292968 C 49.42529,15.658579 48.615654,14.846679 47.755861,14.085938 Z M 16.25,14.097656 c -0.864512,0.755313 -1.682139,1.559317 -2.429688,2.431641 l -3.298828,-1.283203 a 1.0121125,1.0121321 0 0 0 -1.1855465,0.351562 c -1.1253224,1.555693 -2.0887843,3.222037 -2.8730469,4.97461 a 1.0121125,1.0121321 0 0 0 0.042969,0.908203 C 7.2824872,19.76173 8.2304445,18.125936 9.3359375,16.597656 a 1.0121125,1.0121321 0 0 1 1.1855465,-0.351562 l 3.298828,1.285156 c 0.832272,-0.971189 1.740385,-1.871144 2.716797,-2.697266 z M 9.1953125,24.734375 C 9.0738554,25.08411 8.9587819,25.437191 8.8613281,25.794922 a 1.0121125,1.0121321 0 0 0 -0.00586,0.01563 C 8.6960328,26.433683 8.593138,27.067426 8.484375,27.701172 l -3.4785156,0.533203 a 1.0121125,1.0121321 0 0 0 -0.8554688,0.896484 c -0.1178351,1.128328 -0.1564571,2.262028 -0.1367187,3.394532 0.014633,-0.799035 0.053578,-1.59842 0.1367187,-2.394532 a 1.0121125,1.0121321 0 0 1 0.8554688,-0.896484 l 3.4785156,-0.53125 c 0.108763,-0.633746 0.2116578,-1.269442 0.3710938,-1.892578 a 1.0121125,1.0121321 0 0 1 0.00586,-0.01563 C 9.0311976,26.17137 9.2530279,25.564623 9.4726562,24.957031 Z M 54.724609,24.800781 54.474609,25 c 0.42714,1.204396 0.758248,2.436311 0.988282,3.693359 l 3.539062,0.541016 a 1.0121125,1.0121321 0 0 1 0.855469,0.898437 c 0.07908,0.779106 0.115272,1.561458 0.128906,2.34375 0.02039,-1.115781 -0.01611,-2.232487 -0.128906,-3.34375 A 1.0121125,1.0121321 0 0 0 59.001953,28.234375 L 55.462891,27.693359 C 55.283306,26.711996 55.025002,25.750803 54.724609,24.800781 Z M 9.2773438,40.203125 6.7402344,42.234375 a 1.0121125,1.0121321 0 0 0 -0.2929688,1.205078 c 0.013607,0.0303 0.029255,0.0596 0.042969,0.08984 a 1.0121125,1.0121321 0 0 1 0.25,-0.294922 l 2.785156,-2.230465 C 9.4318075,40.740033 9.3616285,40.469745 9.2773438,40.203125 Z m 45.5273442,0.06641 c -0.09052,0.259955 -0.183741,0.518269 -0.277344,0.777344 l 2.716797,2.177734 a 1.0121125,1.0121321 0 0 1 0.25,0.292969 c 0.01367,-0.03027 0.02941,-0.05952 0.04297,-0.08984 a 1.0121125,1.0121321 0 0 0 -0.292968,-1.203125 z m -7.052735,10.638672 c -0.09785,0.08568 -0.187827,0.17955 -0.287109,0.263672 l 1.238281,3.171875 a 1.0121125,1.0121321 0 0 0 0.05664,-0.853516 z m -31.507812,0.0059 -0.998047,2.566407 a 1.0121125,1.0121321 0 0 0 0.05664,0.853515 l 1.226563,-3.154296 c -0.09889,-0.08468 -0.187752,-0.179428 -0.285156,-0.265626 z"
       id="path3" />
    <path
       style="opacity:0.2"
       d="m 35,23 c -7.731986,0 -14,6.268014 -14,14 0,5.698053 3.409452,10.592131 8.294922,12.777344 C 30.179135,49.909872 31.077717,50 32,50 c 2.069634,0 4.046763,-0.362783 5.894531,-1 H 35 C 28.372584,49 23,43.627416 23,37 23,30.372584 28.372584,25 35,25 Z m 0,4 c -5.522848,0 -10,4.477152 -10,10 0,5.522848 4.477152,10 10,10 h 6.96875 c 0.89007,-0.591169 1.717918,-1.263811 2.486328,-2 H 35 c -4.418278,0 -8,-3.581722 -8,-8 0,-4.418278 3.581722,-8 8,-8 0.675204,0.0038 1.347214,0.09304 2,0.265625 V 27.210938 C 36.342116,27.073598 35.672062,27.002928 35,27 Z m 0,4 c -3.313708,0 -6,2.686292 -6,6 0,3.313708 2.686292,6 6,6 h 11.246094 c 0.490082,-0.634793 0.938883,-1.301414 1.341797,-2 H 35 c -2.209139,0 -4,-1.790861 -4,-4 0,-2.209139 1.790861,-4 4,-4 0.971832,0.0017 1.909798,0.357191 2.638672,1 h 2.550781 C 39.118854,32.145665 37.1412,31.002392 35,31 Z"
       id="path4" />
    <path
       style="fill:#ffffff"
       d="m 35,22 c -7.731986,0 -14,6.268014 -14,14 0,7.239249 5.494731,13.194121 12.541016,13.923828 C 35.945923,49.721311 38.209399,49.049012 40.248047,48 H 35 C 28.372584,48 23,42.627416 23,36 23,29.372584 28.372584,24 35,24 Z"
       id="path5" />
    <path
       style="fill:#87deaa"
       d="m 35,26 c -5.522848,0 -10,4.477152 -10,10 0,5.522848 4.477152,10 10,10 h 8.330078 c 0.749918,-0.60685 1.439302,-1.281652 2.082031,-2 H 35 c -4.418278,0 -8,-3.581722 -8,-8 0,-4.418278 3.581722,-8 8,-8 0.675204,0.0038 1.347214,0.09304 2,0.265625 V 26.210938 C 36.342116,26.073598 35.672062,26.002928 35,26 Z"
       id="path6" />
    <path
       style="fill:#afe9c6"
       d="m 35,30 c -3.313708,0 -6,2.686292 -6,6 0,3.313708 2.686292,6 6,6 h 11.980469 c 0.424543,-0.636365 0.796639,-1.309431 1.138672,-2 H 35 c -2.209139,0 -4,-1.790861 -4,-4 0,-2.209139 1.790861,-4 4,-4 0.971832,0.0017 1.909798,0.357191 2.638672,1 h 2.550781 C 39.118854,31.145665 37.1412,30.002392 35,30 Z"
       id="path7" />
  </g>
</svg>
