<?xml version="1.0" encoding="UTF-8" standalone="no"?>
<svg
   width="62"
   height="62"
   version="1.1"
   id="svg4"
   sodipodi:docname="tracktion-download-manager.svg"
   inkscape:version="1.4 (unknown)"
   xmlns:inkscape="http://www.inkscape.org/namespaces/inkscape"
   xmlns:sodipodi="http://sodipodi.sourceforge.net/DTD/sodipodi-0.dtd"
   xmlns="http://www.w3.org/2000/svg"
   xmlns:svg="http://www.w3.org/2000/svg">
  <defs
     id="defs4" />
  <sodipodi:namedview
     id="namedview4"
     pagecolor="#ffffff"
     bordercolor="#000000"
     borderopacity="0.25"
     inkscape:showpageshadow="2"
     inkscape:pageopacity="0.0"
     inkscape:pagecheckerboard="0"
     inkscape:deskcolor="#d1d1d1"
     inkscape:zoom="6.0546875"
     inkscape:cx="26.673548"
     inkscape:cy="27.994839"
     inkscape:window-width="1920"
     inkscape:window-height="998"
     inkscape:window-x="0"
     inkscape:window-y="0"
     inkscape:window-maximized="1"
     inkscape:current-layer="svg4" />
  <g
     id="g4"
     transform="translate(0.5)">
    <ellipse
       style="opacity:0.2;stroke-width:0.948713"
       cx="30.5"
       cy="31.474581"
       id="circle1"
       rx="27.5"
       ry="27.525419" />
    <ellipse
       style="fill:#2658bf;stroke-width:0.948713;fill-opacity:1"
       cx="30.5"
       cy="30.525419"
       id="circle2"
       rx="27.5"
       ry="27.525419" />
    <path
       style="opacity:0.2;stroke-width:0.948713"
       d="M 30.499995,11.542372 A 19.913795,19.932202 0 0 0 10.586208,31.474574 19.913795,19.932202 0 0 0 30.499995,51.406768 19.913795,19.932202 0 0 0 50.41379,31.474574 19.913795,19.932202 0 0 0 30.499995,11.542372 Z m -2.844826,3.796607 h 5.68966 v 4.134006 a 12.327585,12.338979 0 0 1 3.622711,1.501591 l 2.918905,-2.92161 4.022763,4.026482 -2.918912,2.921604 a 12.327585,12.338979 0 0 1 1.500207,3.626059 h 4.130186 v 5.694919 h -4.156118 a 12.327585,12.338979 0 0 1 -1.481676,3.618641 l 2.926313,2.929029 -4.022763,4.026473 -2.926317,-2.929017 a 12.327585,12.338979 0 0 1 -3.615299,1.483045 v 4.15996 h -5.68966 v -4.15996 A 12.327585,12.338979 0 0 1 24.03987,41.967156 L 21.113545,44.896173 17.090789,40.8697 20.017103,37.940671 A 12.327585,12.338979 0 0 1 18.535429,34.32203 h -4.15612 v -5.694919 h 4.15612 a 12.327585,12.338979 0 0 1 1.481674,-3.618641 l -2.926314,-2.929022 4.022756,-4.026482 2.926325,2.929018 a 12.327585,12.338979 0 0 1 3.615299,-1.483043 z"
       id="path2" />
    <path
       style="fill:#ffffff;stroke-width:0.948713"
       d="M 30.499995,10.59322 A 19.913795,19.932202 0 0 0 10.586208,30.525414 19.913795,19.932202 0 0 0 30.499995,50.457616 19.913795,19.932202 0 0 0 50.41379,30.525414 19.913795,19.932202 0 0 0 30.499995,10.59322 Z m -2.844826,3.796608 h 5.68966 v 4.134006 a 12.327585,12.338979 0 0 1 3.622711,1.501583 l 2.918905,-2.921603 4.022763,4.026474 -2.918912,2.921614 a 12.327585,12.338979 0 0 1 1.500207,3.626057 h 4.130186 v 5.694919 h -4.156118 a 12.327585,12.338979 0 0 1 -1.481676,3.618641 l 2.926313,2.929021 -4.022763,4.026482 -2.926317,-2.929018 a 12.327585,12.338979 0 0 1 -3.615299,1.483046 v 4.159959 h -5.68966 V 42.50105 A 12.327585,12.338979 0 0 1 24.03987,41.018004 l -2.926325,2.929018 -4.022756,-4.026482 2.926314,-2.929021 a 12.327585,12.338979 0 0 1 -1.481674,-3.618641 h -4.15612 v -5.694919 h 4.15612 a 12.327585,12.338979 0 0 1 1.481674,-3.618641 l -2.926314,-2.92903 4.022756,-4.026474 2.926325,2.929019 a 12.327585,12.338979 0 0 1 3.615299,-1.483044 z"
       id="path3" />
    <path
       style="opacity:0.1;fill:#ffffff;stroke-width:0.948713"
       d="M 30.499995,3 A 27.499995,27.525414 0 0 0 3,30.525414 27.499995,27.525414 0 0 0 3.0314856,30.983312 27.499995,27.525414 0 0 1 30.499995,3.9491524 27.499995,27.525414 0 0 1 57.983331,30.742314 27.499995,27.525414 0 0 0 57.999998,30.525414 27.499995,27.525414 0 0 0 30.499995,3 Z"
       id="path4" />
  </g>
</svg>
