<?xml version="1.0" encoding="UTF-8" standalone="no"?>
<svg
   width="62"
   height="62"
   viewBox="0 0 16.404166 16.404167"
   version="1.1"
   id="svg1443"
   inkscape:version="1.4 (unknown)"
   sodipodi:docname="trackmania.svg"
   xmlns:inkscape="http://www.inkscape.org/namespaces/inkscape"
   xmlns:sodipodi="http://sodipodi.sourceforge.net/DTD/sodipodi-0.dtd"
   xmlns:xlink="http://www.w3.org/1999/xlink"
   xmlns="http://www.w3.org/2000/svg"
   xmlns:svg="http://www.w3.org/2000/svg"
   xmlns:rdf="http://www.w3.org/1999/02/22-rdf-syntax-ns#"
   xmlns:cc="http://creativecommons.org/ns#"
   xmlns:dc="http://purl.org/dc/elements/1.1/">
  <defs
     id="defs1437">
    <linearGradient
       gradientTransform="matrix(0.50157547,0,0,0.50154788,-57.964584,-19.691533)"
       gradientUnits="userSpaceOnUse"
       y2="70.679932"
       x2="132.21078"
       y1="42.151531"
       x1="132.21078"
       id="linearGradient1632"
       xlink:href="#linearGradient1630"
       inkscape:collect="always" />
    <linearGradient
       id="linearGradient1630"
       inkscape:collect="always">
      <stop
         id="stop1626"
         offset="0"
         style="stop-color:#2dd2c9;stop-opacity:1;" />
      <stop
         id="stop1628"
         offset="1"
         style="stop-color:#1b807b;stop-opacity:1;" />
    </linearGradient>
    <filter
       color-interpolation-filters="sRGB"
       height="1.1311001"
       width="1.1106"
       y="-0.065563001"
       x="-0.055319"
       id="c-9">
      <feGaussianBlur
         id="feGaussianBlur1093"
         stdDeviation="1.1062912" />
    </filter>
    <linearGradient
       gradientUnits="userSpaceOnUse"
       gradientTransform="matrix(0.13235,0,0,0.13075,-32.379,1.0873)"
       y2="269.48999"
       y1="235.14999"
       x2="657.65002"
       x1="319.20999"
       id="a-12">
      <stop
         id="stop1076"
         offset="0"
         stop-color="#e54c18" />
      <stop
         id="stop1078"
         offset="1"
         stop-color="#fec350" />
    </linearGradient>
    <linearGradient
       xlink:href="#a-7"
       id="c-36"
       x1="8.6850004"
       x2="8.7620001"
       y1="16.868999"
       y2="4.5339999"
       gradientTransform="matrix(1.0634748,0,0,1.0634748,-0.80999368,1.8113865)"
       gradientUnits="userSpaceOnUse" />
    <linearGradient
       id="a-7">
      <stop
         offset="0"
         style="stop-color:#2369ff;stop-opacity:1;"
         id="stop8" />
      <stop
         offset="1"
         style="stop-color:#7fa8ff;stop-opacity:1"
         id="stop10" />
    </linearGradient>
  </defs>
  <sodipodi:namedview
     id="base"
     pagecolor="#ffffff"
     bordercolor="#666666"
     borderopacity="1.0"
     inkscape:pageopacity="0.0"
     inkscape:pageshadow="2"
     inkscape:zoom="8"
     inkscape:cx="21.375"
     inkscape:cy="31.6875"
     inkscape:document-units="px"
     inkscape:current-layer="layer1"
     inkscape:document-rotation="0"
     showgrid="false"
     units="px"
     inkscape:window-width="1920"
     inkscape:window-height="998"
     inkscape:window-x="0"
     inkscape:window-y="0"
     inkscape:window-maximized="1"
     inkscape:showpageshadow="2"
     inkscape:pagecheckerboard="0"
     inkscape:deskcolor="#d1d1d1">
    <inkscape:grid
       id="grid1"
       units="px"
       originx="0"
       originy="0"
       spacingx="0.26458332"
       spacingy="0.26458334"
       empcolor="#0099e5"
       empopacity="0.30196078"
       color="#0099e5"
       opacity="0.14901961"
       empspacing="5"
       enabled="true"
       visible="false" />
  </sodipodi:namedview>
  <metadata
     id="metadata1440">
    <rdf:RDF>
      <cc:Work
         rdf:about="">
        <dc:format>image/svg+xml</dc:format>
        <dc:type
           rdf:resource="http://purl.org/dc/dcmitype/StillImage" />
      </cc:Work>
    </rdf:RDF>
  </metadata>
  <g
     inkscape:label="Capa 1"
     inkscape:groupmode="layer"
     id="layer1">
    <g
       style="opacity:0.295"
       transform="matrix(0.50157543,0,0,0.50154781,-34.303906,-19.691535)"
       id="g1702">
      <rect
         ry="6.6098609"
         rx="6.6098609"
         y="40.709618"
         x="69.839508"
         height="29.810888"
         width="29.810888"
         id="rect1634"
         style="fill:none;fill-opacity:1;stroke:#000000;stroke-width:0.1;stroke-linecap:round;stroke-linejoin:round;stroke-miterlimit:4;stroke-dasharray:none;stroke-opacity:0.02" />
      <rect
         style="fill:none;fill-opacity:1;stroke:#000000;stroke-width:0.2;stroke-linecap:round;stroke-linejoin:round;stroke-miterlimit:4;stroke-dasharray:none;stroke-opacity:0.02"
         id="rect1638"
         width="29.810888"
         height="29.810888"
         x="69.839508"
         y="40.709618"
         rx="6.6098609"
         ry="6.6098609" />
      <rect
         ry="6.6098609"
         rx="6.6098609"
         y="40.709618"
         x="69.839508"
         height="29.810888"
         width="29.810888"
         id="rect1640"
         style="fill:none;fill-opacity:1;stroke:#000000;stroke-width:0.3;stroke-linecap:round;stroke-linejoin:round;stroke-miterlimit:4;stroke-dasharray:none;stroke-opacity:0.02" />
      <rect
         style="fill:none;fill-opacity:1;stroke:#000000;stroke-width:0.4;stroke-linecap:round;stroke-linejoin:round;stroke-miterlimit:4;stroke-dasharray:none;stroke-opacity:0.02"
         id="rect1642"
         width="29.810888"
         height="29.810888"
         x="69.839508"
         y="40.709618"
         rx="6.6098609"
         ry="6.6098609" />
      <rect
         ry="6.6098609"
         rx="6.6098609"
         y="40.709618"
         x="69.839508"
         height="29.810888"
         width="29.810888"
         id="rect1644"
         style="fill:none;fill-opacity:1;stroke:#000000;stroke-width:0.5;stroke-linecap:round;stroke-linejoin:round;stroke-miterlimit:4;stroke-dasharray:none;stroke-opacity:0.02" />
      <rect
         style="fill:none;fill-opacity:1;stroke:#000000;stroke-width:0.6;stroke-linecap:round;stroke-linejoin:round;stroke-miterlimit:4;stroke-dasharray:none;stroke-opacity:0.02"
         id="rect1646"
         width="29.810888"
         height="29.810888"
         x="69.839508"
         y="40.709618"
         rx="6.6098609"
         ry="6.6098609" />
      <rect
         ry="6.6098609"
         rx="6.6098609"
         y="40.709618"
         x="69.839508"
         height="29.810888"
         width="29.810888"
         id="rect1648"
         style="fill:none;fill-opacity:1;stroke:#000000;stroke-width:0.7;stroke-linecap:round;stroke-linejoin:round;stroke-miterlimit:4;stroke-dasharray:none;stroke-opacity:0.02" />
      <rect
         style="fill:none;fill-opacity:1;stroke:#000000;stroke-width:0.8;stroke-linecap:round;stroke-linejoin:round;stroke-miterlimit:4;stroke-dasharray:none;stroke-opacity:0.02"
         id="rect1650"
         width="29.810888"
         height="29.810888"
         x="69.839508"
         y="40.709618"
         rx="6.6098609"
         ry="6.6098609" />
      <rect
         ry="6.6098609"
         rx="6.6098609"
         y="40.709618"
         x="69.839508"
         height="29.810888"
         width="29.810888"
         id="rect1652"
         style="fill:none;fill-opacity:1;stroke:#000000;stroke-width:1;stroke-linecap:round;stroke-linejoin:round;stroke-miterlimit:4;stroke-dasharray:none;stroke-opacity:0.02" />
      <rect
         style="fill:none;fill-opacity:1;stroke:#000000;stroke-width:1.2;stroke-linecap:round;stroke-linejoin:round;stroke-miterlimit:4;stroke-dasharray:none;stroke-opacity:0.02"
         id="rect1654"
         width="29.810888"
         height="29.810888"
         x="69.839508"
         y="40.709618"
         rx="6.6098609"
         ry="6.6098609" />
      <rect
         ry="6.6098609"
         rx="6.6098609"
         y="40.709618"
         x="69.839508"
         height="29.810888"
         width="29.810888"
         id="rect1656"
         style="fill:none;fill-opacity:1;stroke:#000000;stroke-width:1.4;stroke-linecap:round;stroke-linejoin:round;stroke-miterlimit:4;stroke-dasharray:none;stroke-opacity:0.02" />
      <rect
         style="fill:none;fill-opacity:1;stroke:#000000;stroke-width:1.6;stroke-linecap:round;stroke-linejoin:round;stroke-miterlimit:4;stroke-dasharray:none;stroke-opacity:0.02"
         id="rect1658"
         width="29.810888"
         height="29.810888"
         x="69.839508"
         y="40.709618"
         rx="6.6098609"
         ry="6.6098609" />
      <rect
         ry="6.6098609"
         rx="6.6098609"
         y="40.709618"
         x="69.839508"
         height="29.810888"
         width="29.810888"
         id="rect1660"
         style="fill:none;fill-opacity:1;stroke:#000000;stroke-width:1.8;stroke-linecap:round;stroke-linejoin:round;stroke-miterlimit:4;stroke-dasharray:none;stroke-opacity:0.02" />
      <rect
         style="fill:none;fill-opacity:1;stroke:#000000;stroke-width:2;stroke-linecap:round;stroke-linejoin:round;stroke-miterlimit:4;stroke-dasharray:none;stroke-opacity:0.02"
         id="rect1662"
         width="29.810888"
         height="29.810888"
         x="69.839508"
         y="40.709618"
         rx="6.6098609"
         ry="6.6098609" />
      <rect
         ry="6.6098609"
         rx="6.6098609"
         y="40.709618"
         x="69.839508"
         height="29.810888"
         width="29.810888"
         id="rect1664"
         style="fill:none;fill-opacity:1;stroke:#000000;stroke-width:2.2;stroke-linecap:round;stroke-linejoin:round;stroke-miterlimit:4;stroke-dasharray:none;stroke-opacity:0.02" />
      <rect
         style="fill:none;fill-opacity:1;stroke:#000000;stroke-width:2.6;stroke-linecap:round;stroke-linejoin:round;stroke-miterlimit:4;stroke-dasharray:none;stroke-opacity:0.02"
         id="rect1666"
         width="29.810888"
         height="29.810888"
         x="69.839508"
         y="40.709618"
         rx="6.6098609"
         ry="6.6098609" />
      <rect
         ry="6.6098609"
         rx="6.6098609"
         y="40.709618"
         x="69.839508"
         height="29.810888"
         width="29.810888"
         id="rect1668"
         style="fill:none;fill-opacity:1;stroke:#000000;stroke-width:3;stroke-linecap:round;stroke-linejoin:round;stroke-miterlimit:4;stroke-dasharray:none;stroke-opacity:0.02" />
      <rect
         style="fill:none;fill-opacity:1;stroke:#000000;stroke-width:3.4;stroke-linecap:round;stroke-linejoin:round;stroke-miterlimit:4;stroke-dasharray:none;stroke-opacity:0.02"
         id="rect1670"
         width="29.810888"
         height="29.810888"
         x="69.839508"
         y="40.709618"
         rx="6.6098609"
         ry="6.6098609" />
      <rect
         ry="6.6098609"
         rx="6.6098609"
         y="40.709618"
         x="69.839508"
         height="29.810888"
         width="29.810888"
         id="rect1672"
         style="fill:none;fill-opacity:1;stroke:#000000;stroke-width:3.8;stroke-linecap:round;stroke-linejoin:round;stroke-miterlimit:4;stroke-dasharray:none;stroke-opacity:0.02" />
      <rect
         style="fill:none;fill-opacity:1;stroke:#000000;stroke-width:4.2;stroke-linecap:round;stroke-linejoin:round;stroke-miterlimit:4;stroke-dasharray:none;stroke-opacity:0.02"
         id="rect1674"
         width="29.810888"
         height="29.810888"
         x="69.839508"
         y="40.709618"
         rx="6.6098609"
         ry="6.6098609" />
      <rect
         ry="6.6098609"
         rx="6.6098609"
         y="40.709618"
         x="69.839508"
         height="29.810888"
         width="29.810888"
         id="rect1676"
         style="fill:none;fill-opacity:1;stroke:#000000;stroke-width:4.6;stroke-linecap:round;stroke-linejoin:round;stroke-miterlimit:4;stroke-dasharray:none;stroke-opacity:0.02" />
      <rect
         style="fill:none;fill-opacity:1;stroke:#000000;stroke-width:5;stroke-linecap:round;stroke-linejoin:round;stroke-miterlimit:4;stroke-dasharray:none;stroke-opacity:0.02"
         id="rect1678"
         width="29.810888"
         height="29.810888"
         x="69.839508"
         y="40.709618"
         rx="6.6098609"
         ry="6.6098609" />
    </g>
    <rect
       ry="3.3151624"
       rx="3.315345"
       y="0.72628939"
       x="0.72587931"
       height="14.951588"
       width="14.952408"
       id="rect849"
       style="fill:url(#linearGradient1632);fill-opacity:1;stroke-width:1.38151;stroke-linecap:round;stroke-linejoin:round" />
    <g
       id="g1"
       transform="matrix(1.0645258,0,0,1.0645258,2.1637996,-0.51601193)">
      <path
         d="m 1.0705095,9.7244957 c 0,-0.038629 0.050535,-0.335227 0.1121833,-0.6588125 0.061648,-0.3235854 0.1121834,-0.6201833 0.1121834,-0.6588124 0,-0.05424 -0.30056668,-0.070115 -1.32132917,-0.070115 -1.23216453,0 -1.31947703,-0.00661 -1.29275413,-0.097896 0.015875,-0.05424 0.045508,-0.1931458 0.066146,-0.3085041 l 0.037042,-0.2103438 h 1.62004371 c 1.44753539,0 1.61977919,0.00953 1.61977919,0.089694 0,0.078581 -0.2283355,1.4097 -0.3137959,1.8309166 C 1.6803749,9.7858788 1.6610599,9.79461 1.3745163,9.79461 1.1686704,9.79461 1.07051,9.77212 1.07051,9.724495 M 1.8711387,9.6403582 C 1.8870137,9.5556916 1.9708866,9.088702 2.0571408,8.6031916 L 2.2137741,7.7200124 h 1.6470312 c 1.5422562,0 1.6451792,0.00609 1.6181917,0.097896 C 5.463122,7.8721474 5.433489,8.010525 5.412851,8.1256188 L 5.3758095,8.3346395 4.0520991,8.3497208 2.7281241,8.364802 2.6593324,8.7772874 A 23.01875,23.01875 0 0 1 2.5270407,9.4921916 L 2.4645991,9.7946103 H 2.1529199 c -0.3095625,0 -0.31115,-0.00106 -0.2817812,-0.1542521 M 5.405972,9.6993602 C 5.420789,9.6437972 5.504661,9.1754852 5.5925032,8.6592832 L 5.752047,7.7200124 h 0.3212041 c 0.3201459,0 0.3212042,5.292e-4 0.2923646,0.1542521 -0.015875,0.084667 -0.099219,0.5450417 -0.1852083,1.0231437 L 6.0243032,9.7665645 5.7015115,9.7834978 C 5.4136449,9.7985791 5.3816303,9.7895832 5.4057074,9.6993603 M 6.2007803,9.6713145 C 6.2179782,9.6004062 6.3021157,9.1387082 6.3875761,8.6452603 L 6.5431511,7.7480583 7.7906615,7.732977 9.0379073,7.7178958 8.9971615,7.9290333 C 8.9746719,8.0454499 8.8913282,8.5063541 8.8119532,8.9534999 l -0.1444625,0.8130646 -0.32385,0.016933 C 8.0309032,9.7996374 8.020849,9.7959332 8.0491594,9.6713145 8.065299,9.6004062 8.1258886,9.2709999 8.1840969,8.939477 L 8.2894011,8.3367562 H 7.0749636 L 7.0421553,8.5190541 6.9122449,9.2339582 6.8151428,9.7665645 6.4923511,9.7834978 C 6.1801428,9.7996374 6.1703532,9.7959332 6.2007803,9.6713145 m 2.6291645,0.025135 c 0.01614,-0.053975 0.094985,-0.4765146 0.1748896,-0.9392708 0.079904,-0.4627563 0.15875,-0.8850313 0.174625,-0.9392708 0.026458,-0.089429 0.1357313,-0.097896 1.2572996,-0.097896 h 1.228196 l -0.02884,0.1542521 c -0.01587,0.084667 -0.09842,0.5450417 -0.183621,1.0231437 l -0.155046,0.8691563 -0.318558,0.016933 -0.318559,0.016669 0.0291,-0.1568979 c 0.01587,-0.086519 0.07514,-0.4156605 0.131763,-0.7318375 l 0.102923,-0.574675 H 9.7170927 L 9.6284573,8.8272937 C 9.579774,9.0971687 9.5234177,9.425252 9.5033094,9.5562207 L 9.4667969,9.7946103 H 9.1336865 c -0.2910417,0 -0.3294062,-0.012435 -0.3037417,-0.097896 M 11.647757,8.7714666 c 0.102394,-0.5627688 0.186532,-1.0673292 0.187325,-1.1213042 7.94e-4,-0.09234 -0.180446,-0.097896 -3.0329184,-0.097896 -2.5479375,0 -3.02895,-0.012435 -3.0043437,-0.077258 0.016404,-0.042333 0.047096,-0.193675 0.068527,-0.3362854 L 5.9052407,6.8791666 H 12.63333 L 12.60158,7.0053729 C 12.572211,7.123377 12.293341,8.6616645 12.159726,9.444302 l -0.0598,0.3505729 H 11.46202 Z M -1.1453759,7.3136124 c 0.020373,-0.1309687 0.049742,-0.2823104 0.064823,-0.3362854 0.025929,-0.092075 0.23468546,-0.09816 3.3655,-0.09816 h 3.3377187 l -0.039687,0.2944813 c -0.02196,0.161925 -0.051065,0.3132666 -0.064558,0.3362854 -0.013758,0.023283 -1.527175,0.042333 -3.3628541,0.042333 H -1.182153 Z"
         style="fill:#ffffff;fill-opacity:1;stroke-width:0.240293"
         id="path2" />
    </g>
  </g>
</svg>
