<?xml version="1.0" encoding="UTF-8" standalone="no"?>
<svg
   width="62"
   height="62"
   version="1.1"
   id="svg5"
   sodipodi:docname="trelby.svg"
   inkscape:version="1.4 (unknown)"
   xmlns:inkscape="http://www.inkscape.org/namespaces/inkscape"
   xmlns:sodipodi="http://sodipodi.sourceforge.net/DTD/sodipodi-0.dtd"
   xmlns:xlink="http://www.w3.org/1999/xlink"
   xmlns="http://www.w3.org/2000/svg"
   xmlns:svg="http://www.w3.org/2000/svg">
  <defs
     id="defs5">
    <linearGradient
       id="linearGradient2"
       inkscape:collect="always">
      <stop
         style="stop-color:#2d3d53;stop-opacity:1;"
         offset="0"
         id="stop2" />
      <stop
         style="stop-color:#3f5574;stop-opacity:1;"
         offset="1"
         id="stop3" />
    </linearGradient>
    <linearGradient
       inkscape:collect="always"
       xlink:href="#linearGradient2"
       id="linearGradient3"
       x1="31.5"
       y1="59.017544"
       x2="31.5"
       y2="4.9824562"
       gradientUnits="userSpaceOnUse" />
  </defs>
  <sodipodi:namedview
     id="namedview5"
     pagecolor="#ffffff"
     bordercolor="#000000"
     borderopacity="0.25"
     inkscape:showpageshadow="2"
     inkscape:pageopacity="0.0"
     inkscape:pagecheckerboard="0"
     inkscape:deskcolor="#d1d1d1"
     inkscape:zoom="8.2643106"
     inkscape:cx="27.770011"
     inkscape:cy="47.009366"
     inkscape:window-width="1920"
     inkscape:window-height="998"
     inkscape:window-x="0"
     inkscape:window-y="0"
     inkscape:window-maximized="1"
     inkscape:current-layer="svg5" />
  <g
     id="g2"
     transform="translate(-0.5,-1)">
    <rect
       style="opacity:0.2;stroke-width:0.9823"
       width="55"
       height="55.017544"
       x="4"
       y="4.9824562"
       rx="8.25"
       ry="8.2526312"
       id="rect1" />
    <rect
       style="fill:url(#linearGradient3);fill-opacity:1;stroke-width:0.9823"
       width="55"
       height="55.017544"
       x="4"
       y="4"
       rx="8.25"
       ry="8.2526312"
       id="rect2" />
    <path
       style="opacity:0.1;fill:#ffffff;stroke-width:0.9823"
       d="M 12.248466,4 C 7.6779652,4 4,7.6791384 4,12.251097 v 0.982456 C 4,8.6615945 7.6779652,4.9824561 12.248466,4.9824561 H 50.751534 C 55.322034,4.9824561 59,8.6615945 59,13.233553 V 12.251097 C 59,7.6791384 55.322034,4 50.751534,4 Z"
       id="path4" />
  </g>
  <g
     id="g3"
     transform="translate(0.50000041,-92.999532)">
    <path
       style="opacity:0.2;stroke-width:0.975297"
       d="m 36.231914,104.97582 c -0.971427,0.011 -1.250644,0.0977 -1.858589,0.31437 -6.599736,2.70031 -12.946327,5.37075 -20.901547,7.62185 -1.904094,0.4435 -2.706494,1.46365 -2.412746,3.06396 0,0 1.447267,13.69047 1.447267,14.50438 0,0.81372 0.724969,4.64433 0.628418,6.03266 -0.09658,1.38822 -1.207227,5.64876 -1.352051,6.22323 -0.144815,0.57453 -1.43e-4,0.95702 0.144727,1.24427 0.09266,0.18369 2.131966,-0.99436 4.117087,-2.26368 2.251594,-1.59603 4.567942,-3.10135 6.916399,-4.55977 6.328623,-3.53294 12.729259,-6.9607 18.846813,-10.74681 0.747426,-0.45264 2.81517,-1.73163 4.204684,-2.58379 0.432496,-0.25673 0.870118,-0.50644 1.300638,-0.76597 5.31e-4,-0.0111 -4.93e-4,-0.0215 0,-0.0322 1.040246,-0.64053 1.293467,-0.78559 2.686957,-1.65014 -0.05547,-2.4553 -0.881938,-4.93664 -1.791941,-6.92059 -0.393677,-0.85504 -0.588183,-0.82949 -1.472021,-0.23822 -0.480281,0.35173 -1.028955,0.9296 -1.555808,1.34908 -0.01815,0.0159 -0.144469,0.13052 -0.167579,0.15052 -1.385475,-2.5022 -3.313043,-5.42172 -5.638619,-9.20144 -0.802255,-1.13761 -2.170659,-1.5513 -3.142089,-1.54151 z"
       id="path1" />
    <path
       style="fill:#9d2f9d;fill-opacity:1;stroke-width:0.975297"
       d="m 11.058975,115.00039 c 0,0 1.448243,13.69102 1.448243,14.50492 0,0.81375 0.724111,4.6434 0.627558,6.03173 -0.09658,1.38822 -2.406952,5.64869 -2.551776,6.22315 -0.144815,0.57453 -0.199866,0.95745 -0.055,1.24474 0.09266,0.1837 3.532239,-0.99355 5.517363,-2.26291 9.873261,-6.99854 20.87642,-12.3921 31.267706,-18.65676 0.213317,-4.32065 -3.016907,-8.54405 -7.939293,-16.54432 -0.802253,-1.13764 -2.171066,-1.5504 -3.142494,-1.5406 -0.971428,0.011 -1.24941,0.098 -1.857355,0.31448 -6.59973,2.7003 -12.946007,5.37068 -20.901232,7.62177 -1.904089,0.44352 -2.707467,1.46347 -2.41372,3.0638 z"
       id="path2"
       sodipodi:nodetypes="cscccccccccc" />
    <path
       style="opacity:0.1;fill:#ffffff;stroke-width:0.975297"
       d="m 36.231914,104.00017 c -0.971427,0.011 -1.250644,0.0977 -1.858589,0.31437 -6.599736,2.70029 -12.946327,5.37075 -20.901547,7.62185 -1.852672,0.43154 -2.65423,1.41351 -2.426072,2.94012 0.194072,-0.97841 1.001841,-1.6328 2.426072,-1.96453 7.95522,-2.2511 14.301811,-4.92155 20.901547,-7.62185 0.607945,-0.21688 0.887162,-0.30369 1.858589,-0.31437 0.97143,-0.01 2.339834,0.4039 3.142089,1.54151 4.55565,7.40424 7.65531,11.57188 7.923776,15.57709 0.0053,-0.003 0.01009,-0.007 0.01522,-0.01 0.213312,-4.32062 -3.016627,-8.54287 -7.939016,-16.54313 -0.802255,-1.13762 -2.170659,-1.55133 -3.142088,-1.54153 z m -23.114335,31.64772 c -0.131293,1.46545 -2.092462,5.54905 -2.234579,6.11274 -0.0963,0.382 -0.35964,0.67378 -0.285,0.91459 0.163777,-0.64666 2.441186,-4.78912 2.536702,-6.16224 0.01574,-0.22636 0.0042,-0.5326 -0.01717,-0.86509 z"
       id="path3"
       sodipodi:nodetypes="ccccccccccccccscscc" />
    <path
       style="opacity:0.4;stroke-width:0.975297"
       d="m 44.974787,114.67675 c -14.027111,7.44071 -23.441947,11.53347 -32.406627,15.4322 0.05667,0.51212 0.147539,1.18104 0.260151,1.99169 8.665011,-3.56932 21.95129,-9.80131 33.058999,-15.66087 -0.125362,-0.26186 -0.255704,-0.52522 -0.396231,-0.79627 l -0.362206,-0.69798 c -0.04729,-0.0867 -0.105406,-0.1812 -0.154086,-0.26877 z m 1.522873,3.12293 c -14.0385,7.44702 -24.449111,12.30875 -33.433213,16.22046 0.06052,0.60659 0.09553,1.14972 0.07003,1.51634 -0.01041,0.1502 -0.06839,0.43069 -0.100058,0.63982 8.672516,-3.57227 22.261043,-9.97665 33.377181,-15.84137 l 0.09205,-2.52322 c -0.0017,-0.004 -0.0045,-0.008 -0.0062,-0.0123 z"
       id="path4-3" />
    <path
       style="fill:#c130cf;stroke-width:0.975297;fill-opacity:1"
       d="m 22.022403,136.70329 c 0,0 12.848339,-12.29361 15.101264,-14.62931 2.252921,-2.3356 7.304933,-6.83768 8.055906,-7.48073 0.526852,-0.41951 1.076723,-0.99857 1.557007,-1.3503 0.883839,-0.59124 1.078345,-0.61633 1.472021,0.23869 0.910004,1.98396 1.735899,4.46477 1.791371,6.92006 -4.248897,2.63613 -6.735862,4.15064 -8.191965,5.03247 -6.419823,3.97315 -13.15281,7.54928 -19.785604,11.26912 z"
       id="path5" />
    <path
       style="opacity:0.2;fill:#ffffff;stroke-width:0.975297"
       d="m 47.655784,112.82051 c -0.208317,-0.0264 -0.477855,0.12738 -0.919775,0.42302 -0.480281,0.35172 -1.028955,0.92959 -1.555808,1.34907 -0.750971,0.64305 -5.804152,5.14521 -8.057074,7.48084 -2.252921,2.3357 -15.101064,14.63007 -15.101064,14.63007 0.801779,-0.44966 1.606859,-0.89312 2.41084,-1.33953 3.167465,-3.03547 10.842278,-10.3991 12.690224,-12.31496 2.252922,-2.33558 7.306103,-6.83778 8.057074,-7.48084 0.526853,-0.41947 1.075527,-0.99734 1.555808,-1.34907 0.883838,-0.59126 1.078344,-0.61682 1.472021,0.23822 0.794129,1.73131 1.524897,3.84028 1.734812,5.9812 0.02974,-0.0189 0.02722,-0.0181 0.05716,-0.0361 -0.05547,-2.4553 -0.881938,-4.93668 -1.791941,-6.92064 -0.196837,-0.42749 -0.34393,-0.63448 -0.552246,-0.66118 z"
       id="path6" />
  </g>
</svg>
