<?xml version="1.0" encoding="UTF-8" standalone="no"?>
<svg
   width="62"
   height="62"
   version="1.1"
   id="svg5"
   sodipodi:docname="tremulous.svg"
   inkscape:version="1.4.2 (unknown)"
   xmlns:inkscape="http://www.inkscape.org/namespaces/inkscape"
   xmlns:sodipodi="http://sodipodi.sourceforge.net/DTD/sodipodi-0.dtd"
   xmlns:xlink="http://www.w3.org/1999/xlink"
   xmlns="http://www.w3.org/2000/svg"
   xmlns:svg="http://www.w3.org/2000/svg">
  <defs
     id="defs5">
    <linearGradient
       inkscape:collect="always"
       xlink:href="#linearGradient3"
       id="linearGradient841"
       gradientUnits="userSpaceOnUse"
       gradientTransform="matrix(1.0500003,0,0,1.0500003,-73.67458,3.3250445)"
       x1="22.308983"
       y1="43.930126"
       x2="22.002935"
       y2="4.0000014" />
    <linearGradient
       id="linearGradient3">
      <stop
         style="stop-color:#2d3d53;stop-opacity:1;"
         offset="0"
         id="stop1" />
      <stop
         style="stop-color:#354864;stop-opacity:1;"
         offset="1"
         id="stop3" />
    </linearGradient>
  </defs>
  <sodipodi:namedview
     id="namedview5"
     pagecolor="#ffffff"
     bordercolor="#000000"
     borderopacity="0.25"
     inkscape:showpageshadow="2"
     inkscape:pageopacity="0.0"
     inkscape:pagecheckerboard="0"
     inkscape:deskcolor="#d1d1d1"
     inkscape:zoom="4.2813106"
     inkscape:cx="40.408187"
     inkscape:cy="80.232441"
     inkscape:window-width="1920"
     inkscape:window-height="998"
     inkscape:window-x="0"
     inkscape:window-y="0"
     inkscape:window-maximized="1"
     inkscape:current-layer="svg5" />
  <g
     id="g1"
     transform="matrix(1.3452376,0,0,1.3333333,96.209837,-7.0333955)">
    <rect
       style="fill:url(#linearGradient841);fill-opacity:1;stroke-width:1.05"
       rx="21"
       y="7.5250473"
       x="-69.474579"
       height="42"
       width="42"
       id="rect23-6" />
    <path
       style="fill:#bbbec3;fill-opacity:0.13136457;stroke-width:1.05"
       d="m -69.462315,28 c -0.0042,0.17486 -0.01228,0.34906 -0.01228,0.525 0,11.634004 9.366001,21.000004 21.000002,21.000004 11.634003,0 21.000003,-9.366 21.000003,-21.000004 0,-0.17594 -0.0081,-0.35014 -0.0123,-0.525 -0.277904,11.388432 -9.52997,20.475005 -20.987697,20.475005 -11.457728,0 -20.709793,-9.086573 -20.987697,-20.475004 z"
       id="path25-2" />
  </g>
  <path
     class="fil4"
     d="m 15.120836,50 c 0.10729,-2.354942 0.214576,-4.709872 0.321863,-7.064788 0.429179,-1.712676 0.96563,-3.318315 1.394791,-5.03099 2.038543,-3.960554 2.038543,-3.960554 2.360418,-4.495773 0,-0.107037 0.107305,-0.107037 0.214591,-0.107037 -0.214591,-0.321128 -0.643753,-0.535218 -0.858342,-0.856346 -0.107286,0.107044 -0.107286,0.107044 -2.574992,3.318315 -0.536466,1.498586 -1.180201,2.99717 -1.716667,4.495772 -1.287505,1.498585 -2.574993,2.890134 -3.862499,4.388735 0.214584,-1.712676 0.536458,-3.425352 0.75104,-5.138028 0.965627,-2.46197 1.931257,-5.03099 3.004173,-7.492959 0.321876,-0.428165 0.643752,-0.856346 0.858323,-1.177457 0.751042,-1.391554 0.751042,-1.391554 1.072918,-2.033804 0.214587,-0.21409 0.536464,-0.535218 0.751037,-0.749309 1.07293,-0.321111 2.145847,-0.749292 3.21876,-1.07042 0.107287,0.856346 0.321877,1.712676 0.429163,2.676059 0.643752,0.535219 1.287504,1.070421 2.038543,1.712675 0,-0.107037 0.107287,-0.107037 0.214587,-0.21409 0.10729,0.428181 0.214575,0.856346 0.643738,0.856346 0.751057,-0.321128 1.394792,-0.642256 2.145846,-0.963383 0.429159,-0.428164 0.858324,-0.963383 1.287486,-1.391548 C 26.064575,29.340843 25.313537,29.019715 24.562498,28.698587 23.489586,28.377459 22.41667,28.056331 21.343741,27.628166 20.592702,27.092964 20.05625,26.236618 19.519785,25.487325 18.232288,22.91832 18.232288,22.91832 16.83749,20.242251 16.622917,19.492958 16.408329,18.850702 16.30104,18.10141 c -0.107285,0 -0.107285,0 -0.107285,0 -1.18022,0.535202 -2.360419,1.177457 -3.433336,1.712676 -1.60938,1.284495 -1.60938,1.284495 -1.931254,1.712676 C 8.897915,23.881686 7.073958,26.34367 5.25,28.80564 5.6791657,25.701416 6.1083333,22.597192 6.537499,19.492958 7.610415,17.887319 8.7906237,16.28168 9.9708313,14.676058 11.902079,13.819712 13.833336,12.963382 15.764577,12.107036 17.695832,12 17.695832,12 19.734375,12 c 0.107286,0.107036 0.214574,0.107036 0.321875,0.21409 0.643754,0.85633 1.287491,1.712676 1.823956,2.569006 -0.107289,0.749292 -0.429164,1.498584 -0.429164,2.14084 1.072914,2.140841 1.609364,4.602826 2.360419,6.850713 0.751037,0.214091 1.502076,0.428165 2.253114,0.535218 0,-0.107053 0,-0.21409 0,-0.321127 0,0 0,0 0,0 0.107286,-0.428181 0.214587,-0.856345 0.429162,-1.28451 0.214589,-0.321138 0.429178,-0.749303 0.643751,-1.177468 -0.107285,-0.107053 -0.214573,-0.214091 -0.321875,-0.321128 0.107302,-0.749304 0.21459,-1.498602 0.321875,-2.247894 0.429162,-0.642256 0.858342,-1.391549 1.180218,-2.033804 0.751039,-0.214075 1.609365,-0.321128 2.360413,-0.535202 0.107302,-0.107054 0.214589,-0.321128 0.214589,-0.428182 0.107287,0 0.107287,0 0.107287,0 0.107302,0.107054 0.107302,0.214091 0.214589,0.321128 0.214589,0.107054 0.214589,0.107054 2.467704,0.642256 0.321876,0.642255 0.75104,1.284511 1.072915,1.819729 0.107303,0.85633 0.214588,1.712665 0.321876,2.461969 0,0.107037 -0.107288,0.214075 -0.214573,0.321128 0.107285,0.428165 0.429162,0.85633 0.643735,1.284505 0.107303,0.428181 0.321876,0.749292 0.429178,1.177473 0,0 -0.107302,0 -0.107302,0 0,0.107037 0,0.214074 0.107302,0.321127 0.75104,0 1.502078,-0.321127 2.253117,-0.535218 0.536465,-1.819722 1.180218,-3.746489 1.716667,-5.673239 0.214587,-0.428181 0.429162,-0.856346 0.643751,-1.177474 -0.107288,-0.749293 -0.429164,-1.391548 -0.429164,-2.14084 0.536451,-0.749293 1.072916,-1.605639 1.609364,-2.461969 C 41.943745,12.107036 41.943745,12.107036 42.26562,12 c 1.287505,0.107036 2.574993,0.107036 3.862497,0.21409 2.038541,0.749292 3.969796,1.605622 5.901036,2.461968 1.180219,1.605622 2.253132,3.318298 3.433333,4.923937 0.429172,3.104235 0.858343,6.101421 1.287514,9.205645 -5.686475,-7.385931 -5.686475,-7.385931 -5.686475,-7.385931 -0.429162,-0.321128 -0.429162,-0.321128 -1.823952,-1.605623 -1.180202,-0.535219 -2.360419,-1.070421 -3.540618,-1.712676 -0.214591,0.642255 -0.321877,1.284495 -0.536467,1.92675 -0.965623,2.140841 -2.038542,4.388745 -3.32603,6.422549 -0.321875,0.321127 -0.643752,0.749292 -0.965628,1.177457 -1.072915,0.428165 -2.145829,0.642256 -3.218743,0.963384 -2.253132,0.963383 -2.253132,0.963383 -2.467721,1.07042 0.321875,0.535219 0.858342,0.963384 1.287504,1.391548 0.643751,0.321127 1.394789,0.642255 2.038541,0.963383 0.321876,0 0.536467,-0.321128 0.75104,-0.535218 0.107303,-0.107038 0.107303,-0.321128 0.107303,-0.428165 0.107286,0 0.214573,0.107037 0.321858,0.107037 1.716666,-1.498585 1.716666,-1.498585 1.716666,-1.605622 0.21459,-0.856346 0.321876,-1.605639 0.536467,-2.461969 0.965627,0.321128 2.038542,0.642256 3.111457,0.963367 0.321876,0.321128 0.536464,0.535219 0.858324,0.856347 0.321876,0.535212 0.643753,1.177457 0.858342,1.712676 0.321876,0.535201 0.643751,0.963382 1.072913,1.498584 0.965628,2.461969 2.038545,4.923952 2.896868,7.385922 0.21459,1.712676 0.536466,3.425352 0.751057,5.138028 -1.287505,-1.498601 -2.575009,-2.89015 -3.862513,-4.388735 -0.536449,-1.498602 -1.072914,-2.997186 -1.609363,-4.388735 -2.575008,-3.211262 -2.575008,-3.211262 -2.575008,-3.318308 -0.321876,0.107046 -0.643751,0.428174 -0.965612,0.749302 0.107286,0 0.214572,0.107037 0.214572,0.107037 0.429164,0.642256 0.429164,0.642256 2.467706,4.495773 0.429178,1.712675 0.858342,3.318314 1.287504,5.03099 0.107287,2.354916 0.21459,4.709846 0.321876,7.064788 -1.287504,-1.605649 -2.682294,-3.318325 -4.077086,-5.031 0,-0.107037 -0.107286,-0.214075 -0.107286,-0.321112 -0.536466,-1.498601 -0.965628,-2.89015 -1.39479,-4.388735 -0.429164,-1.070421 -0.965627,-2.033803 -1.394791,-2.997186 -0.536464,0.21409 -1.072914,0.428165 -1.609379,0.642255 -1.072915,0 -2.145828,0 -3.218745,0 -0.429162,-0.642255 -0.85834,-1.284511 -1.394789,-1.926767 -0.858342,-0.85633 -1.716665,-1.819713 -2.575007,-2.676043 0,0 0,0 -0.107287,0 -0.75105,0.749293 -1.502087,1.605623 -2.360429,2.354918 -1.287488,1.926764 -1.287488,1.926764 -1.502076,2.247892 -1.072917,0 -2.145828,0 -3.218742,0 -0.536465,-0.21409 -1.072918,-0.428165 -1.609379,-0.642255 -0.536467,0.963383 -0.96563,2.033802 -1.502078,2.997186 -0.429179,1.605623 -0.965629,3.104224 -1.394791,4.709847 -1.394793,1.712675 -2.789582,3.318314 -4.184377,5.031 z"
     id="path132-6"
     style="fill:#ffffff;fill-rule:evenodd;stroke-width:0.107162;image-rendering:optimizeQuality;shape-rendering:geometricPrecision;text-rendering:geometricPrecision" />
</svg>
