<?xml version="1.0" encoding="UTF-8" standalone="no"?>
<svg
   width="62"
   height="62"
   version="1.1"
   id="svg5"
   sodipodi:docname="tribler.svg"
   inkscape:version="1.4 (unknown)"
   xmlns:inkscape="http://www.inkscape.org/namespaces/inkscape"
   xmlns:sodipodi="http://sodipodi.sourceforge.net/DTD/sodipodi-0.dtd"
   xmlns:xlink="http://www.w3.org/1999/xlink"
   xmlns="http://www.w3.org/2000/svg"
   xmlns:svg="http://www.w3.org/2000/svg">
  <defs
     id="defs5">
    <linearGradient
       id="linearGradient2"
       inkscape:collect="always">
      <stop
         style="stop-color:#233143;stop-opacity:1;"
         offset="0"
         id="stop2" />
      <stop
         style="stop-color:#ff5555;stop-opacity:1"
         offset="1"
         id="stop3" />
    </linearGradient>
    <linearGradient
       inkscape:collect="always"
       xlink:href="#linearGradient2"
       id="linearGradient3"
       x1="31.671124"
       y1="75.274231"
       x2="31.5"
       y2="4.9824562"
       gradientUnits="userSpaceOnUse" />
  </defs>
  <sodipodi:namedview
     id="namedview5"
     pagecolor="#ffffff"
     bordercolor="#000000"
     borderopacity="0.25"
     inkscape:showpageshadow="2"
     inkscape:pageopacity="0.0"
     inkscape:pagecheckerboard="0"
     inkscape:deskcolor="#d1d1d1"
     inkscape:zoom="5.84375"
     inkscape:cx="74.951872"
     inkscape:cy="37.561497"
     inkscape:window-width="1920"
     inkscape:window-height="998"
     inkscape:window-x="0"
     inkscape:window-y="0"
     inkscape:window-maximized="1"
     inkscape:current-layer="svg5" />
  <g
     id="g2"
     transform="translate(-0.5,-1)">
    <rect
       style="opacity:0.2;stroke-width:0.9823"
       width="55"
       height="55.017544"
       x="4"
       y="4.9824562"
       rx="8.25"
       ry="8.2526312"
       id="rect1" />
    <rect
       style="fill:url(#linearGradient3);fill-opacity:1;stroke-width:0.9823"
       width="55"
       height="55.017544"
       x="4"
       y="4"
       rx="8.25"
       ry="8.2526312"
       id="rect2" />
    <path
       style="opacity:0.1;fill:#ffffff;stroke-width:0.9823"
       d="M 12.248466,4 C 7.6779652,4 4,7.6791384 4,12.251097 v 0.982456 C 4,8.6615945 7.6779652,4.9824561 12.248466,4.9824561 H 50.751534 C 55.322034,4.9824561 59,8.6615945 59,13.233553 V 12.251097 C 59,7.6791384 55.322034,4 50.751534,4 Z"
       id="path4" />
  </g>
  <g
     id="g1"
     transform="matrix(1.007309,0,0,1,-44.960467,-7.508772)">
    <path
       style="opacity:0.2;stroke-width:1.0698"
       d="m 73.697676,17.06977 c -3.544895,0 -6.418608,2.873707 -6.418608,6.418602 0,3.544894 2.873713,6.418608 6.418608,6.418608 1.252582,0 2.101158,-0.723096 3.777614,-0.923514 1.676465,-0.200412 2.295432,0.50013 4.245642,0.923514 2.658666,0 4.813954,-2.155286 4.813954,-4.81396 0,-2.658667 -2.155288,-4.813952 -4.813954,-4.813952 -3.412746,1.105702 -4.804088,-3.134702 -8.023256,-3.209298 z m 3.150794,17.116278 c -6.754498,0 -6.823882,10e-4 -7.070488,0.188044 -0.136974,0.103858 -0.283802,0.308174 -0.325948,0.455484 -0.04214,0.147328 -0.108476,2.039382 -0.15043,4.199678 -0.08172,4.209238 -0.127088,4.654786 -0.630998,6.640079 -0.775632,3.055776 -1.996656,5.550159 -4.747086,9.673873 C 63.312476,56.259326 63,56.807814 63,56.972933 63,57.943798 66.160688,61.997364 66.919694,62 c 0.05408,1.8e-4 0.398396,-0.211256 0.764721,-0.472206 0.871579,-0.62083 2.620201,-2.422442 3.627181,-3.735826 2.662494,-3.472644 4.17319,-6.668168 5.315404,-11.228374 0.436536,-1.742832 0.588714,-2.055964 0.994548,-2.055964 0.383814,0 0.499262,0.322308 1.027982,2.879178 0.607754,2.939103 1.18191,4.74447 2.202214,6.907527 0.508414,1.077847 0.779506,1.402088 1.153338,1.399889 0.61036,-0.0036 2.621686,-1.014152 4.208032,-2.114466 0.774668,-0.53732 1.604656,-1.336424 1.604656,-1.546146 0,-0.06054 -0.240608,-0.546217 -0.534884,-1.078126 -1.990072,-3.597078 -2.831712,-7.457268 -2.920968,-13.413878 -0.03502,-2.33377 -0.09856,-2.789568 -0.459662,-3.134088 l -0.234014,-0.221472 z"
       id="path2" />
    <path
       style="fill:#ffffff;stroke-width:1.0698"
       d="m 67.684348,60.456152 c 0.871586,-0.620838 2.618442,-2.419444 3.625422,-3.732828 2.662494,-3.472646 4.176758,-6.669698 5.318972,-11.229914 0.436536,-1.74283 0.587532,-2.055242 0.993366,-2.055242 0.383822,0 0.498188,0.320466 1.02691,2.877338 0.607754,2.939104 1.183766,4.744262 2.20407,6.90731 0.508414,1.077846 0.777194,1.405544 1.151026,1.403342 0.61036,-0.0036 2.623352,-1.01517 4.209706,-2.115484 0.774668,-0.53732 1.60478,-1.337826 1.60478,-1.547548 0,-0.06054 -0.240768,-0.545306 -0.535044,-1.077208 C 85.293484,46.28884 84.453214,42.428159 84.363958,36.471542 84.328951,34.137778 84.261795,33.68321 83.900708,33.33869 L 83.667622,33.116276 H 76.84735 c -6.754504,0 -6.822672,0.0017 -7.069278,0.188882 -0.136974,0.10391 -0.283482,0.309407 -0.325626,0.45672 -0.04214,0.147326 -0.110914,2.035352 -0.152868,4.195646 -0.08172,4.20924 -0.124074,4.657294 -0.627984,6.64259 -0.775642,3.055778 -1.99946,5.547622 -4.74989,9.671336 C 63.310666,55.187568 63,55.737304 63,55.902422 c 0,0.970874 3.161,5.02518 3.920006,5.027808 0.05408,1.88e-4 0.398018,-0.213138 0.764336,-0.474078 z"
       id="path3" />
    <path
       style="fill:#ffffff;stroke-width:1.0698"
       d="m 73.697676,16 c -3.544895,0 -6.418608,2.873705 -6.418608,6.4186 0,3.544905 2.873713,6.41861 6.418608,6.41861 1.252582,0 2.102488,-0.72226 3.778952,-0.922676 1.676456,-0.200414 2.294094,0.4993 4.244304,0.922676 2.658666,0 4.813954,-2.15528 4.813954,-4.813954 0,-2.658675 -2.155288,-4.813952 -4.813954,-4.813952 C 78.308186,20.315 76.916844,16.074596 73.697676,16 Z"
       id="path4-5" />
  </g>
</svg>
