<?xml version="1.0" encoding="UTF-8" standalone="no"?>
<svg
   width="62"
   height="62"
   version="1.1"
   id="svg29"
   sodipodi:docname="trillian.svg"
   inkscape:version="1.4 (unknown)"
   xmlns:inkscape="http://www.inkscape.org/namespaces/inkscape"
   xmlns:sodipodi="http://sodipodi.sourceforge.net/DTD/sodipodi-0.dtd"
   xmlns:xlink="http://www.w3.org/1999/xlink"
   xmlns="http://www.w3.org/2000/svg"
   xmlns:svg="http://www.w3.org/2000/svg">
  <defs
     id="defs29">
    <linearGradient
       id="linearGradient29"
       inkscape:collect="always">
      <stop
         style="stop-color:#2d3d53;stop-opacity:1;"
         offset="0"
         id="stop29" />
      <stop
         style="stop-color:#2d3d53;stop-opacity:1;"
         offset="1"
         id="stop30" />
    </linearGradient>
    <linearGradient
       inkscape:collect="always"
       xlink:href="#linearGradient29"
       id="linearGradient30"
       x1="30.782633"
       y1="60"
       x2="30.193521"
       y2="5"
       gradientUnits="userSpaceOnUse"
       gradientTransform="matrix(0.98214286,0,0,0.98245614,-0.42857152,-0.92982455)" />
    <linearGradient
       id="linear0"
       x1="4.6668269"
       x2="4.6668269"
       y1="4.4217565"
       y2="60.007356"
       gradientTransform="scale(0.98517817,1.0150448)"
       gradientUnits="userSpaceOnUse">
      <stop
         offset="0%"
         style="stop-color:#24dbdb; stop-opacity:1"
         id="stop1" />
      <stop
         offset="100%"
         style="stop-color:#174475; stop-opacity:1"
         id="stop2" />
    </linearGradient>
    <linearGradient
       id="linear0-3"
       x1="0.48404298"
       x2="15.005336"
       y1="0.76660547"
       y2="15.287898"
       gradientTransform="matrix(3.1677608,0,0,3.0300908,6.2897598,6.322414)"
       gradientUnits="userSpaceOnUse">
      <stop
         offset="0%"
         style="stop-color:#ff0000; stop-opacity:1"
         id="stop1-6" />
      <stop
         offset="50%"
         style="stop-color:#ffd000; stop-opacity:1"
         id="stop2-7" />
      <stop
         offset="100%"
         style="stop-color:#ff00bb; stop-opacity:1"
         id="stop3-5" />
    </linearGradient>
  </defs>
  <sodipodi:namedview
     id="namedview29"
     pagecolor="#ffffff"
     bordercolor="#000000"
     borderopacity="0.25"
     inkscape:showpageshadow="2"
     inkscape:pageopacity="0.0"
     inkscape:pagecheckerboard="0"
     inkscape:deskcolor="#d1d1d1"
     inkscape:zoom="7.0710678"
     inkscape:cx="20.576807"
     inkscape:cy="48.719657"
     inkscape:window-width="1920"
     inkscape:window-height="998"
     inkscape:window-x="0"
     inkscape:window-y="0"
     inkscape:window-maximized="1"
     inkscape:current-layer="svg29" />
  <rect
     style="opacity:0.2;stroke-width:0.9823"
     width="55"
     height="55.017544"
     x="3.5"
     y="3.9824562"
     ry="13.754386"
     id="rect1" />
  <rect
     style="fill:url(#linearGradient30);stroke-width:0.9823"
     width="55"
     height="55.017544"
     x="3.5"
     y="3"
     ry="13.754386"
     id="rect2" />
  <path
     style="opacity:0.1;fill:#ffffff;stroke-width:0.9823"
     d="M 17.25,3 C 9.6324999,3 3.4999999,9.1344561 3.4999999,16.754386 v 0.982456 c 0,-7.61993 6.1325,-13.7543858 13.7500001,-13.7543858 h 27.5 c 7.6175,0 13.75,6.1344558 13.75,13.7543858 V 16.754386 C 58.5,9.1344561 52.3675,3 44.75,3 Z"
     id="path28" />
  <path
     d="m 38.340987,52.173458 c -8.079492,-2.26431 -14.24572,-10.82063 -12.511897,-17.361501 0.336854,-1.270877 0.494304,-1.440456 1.337979,-1.440456 0.52591,0 1.173845,-0.08502 1.439874,-0.188398 0.394634,-0.155673 0.510942,0.359852 0.631771,2.795804 0.110831,2.231551 0.339716,3.363441 0.906961,4.482841 1.556917,3.07223 5.477765,6.03677 9.630915,7.28186 6.245343,1.87222 11.783608,-1.41413 11.732408,-6.96193 -0.02018,-2.32637 -1.028179,-4.734149 -2.924962,-6.995998 -1.628391,-1.941679 -2.008442,-1.798349 -0.926381,0.349256 2.265317,4.496172 0.146845,8.809882 -4.335909,8.829342 -4.881745,0.0245 -9.278184,-3.46176 -9.748743,-7.722794 -0.145306,-1.314382 -0.01567,-1.802354 0.85564,-3.233794 0.564623,-0.926901 0.898198,-1.685582 0.741263,-1.685582 C 35.01308,30.322108 33.136519,30.627168 31,31 24.524401,32.129944 21.228109,31.824546 16.721841,29.677193 9.4602698,26.216686 6.053398,19.485971 8.733523,13.894829 c 1.672003,-3.488022 4.979319,-5.224944 9.993864,-5.248474 6.433859,-0.03071 10.911104,2.272573 12.821636,6.594589 0.619649,1.401599 0.743253,2.250713 0.715401,4.914215 -0.01681,1.770631 -0.241536,3.905697 -0.495647,4.744497 -0.408034,1.347093 -0.585563,1.537437 -1.520101,1.630832 l -1.058113,0.104595 0.492746,-1.203583 c 0.271063,-0.662105 0.706857,-2.140453 0.968531,-3.285303 l 0.475789,-2.081571 -1.076671,1.199833 c -1.923523,2.1433 -5.270884,2.439332 -8.504075,0.75222 -6.05731,-3.160944 -6.193469,-10.396114 -0.229491,-12.197326 l 1.3814,-0.417252 -1.109785,-0.249691 c -1.316655,-0.296113 -3.746706,0.02809 -5.360654,0.713623 -3.760422,1.599085 -5.045062,5.989948 -2.984131,10.199245 1.280641,2.615728 3.406774,4.611231 6.41523,6.021323 3.35064,1.57042 5.1782,1.865973 13.56783,2.194266 7.760277,0.303761 8.303216,0.391606 11.231606,1.819554 7.454832,3.635207 11.280929,11.571657 8.406673,17.437707 -1.115944,2.27759 -3.020918,3.88146 -5.503942,4.63401 -2.082748,0.63148 -6.770059,0.63196 -9.020587,0.001 z m 6.531984,-14.70668 c 1.317968,-0.51139 1.899418,-1.342152 1.899418,-2.713722 0,-3.427836 -4.590109,-6.209405 -7.613414,-4.613553 -3.352729,1.769505 -0.227865,7.448335 4.188285,7.611175 0.39902,0.005 1.0856,-0.11368 1.525711,-0.28367 z M 29.531314,17.469054 c 1.084984,-1.107268 1.233612,-2.251867 0.484464,-3.730515 -1.766872,-3.487284 -7.015378,-4.469443 -8.371657,-1.566578 -0.668451,1.430744 -0.412172,2.520937 0.970235,4.12801 1.29607,1.506608 2.603437,2.128739 4.509603,2.146336 1.155097,0.003 1.627021,-0.180414 2.407355,-0.977253 z"
     id="path3"
     style="fill:url(#linear0-3);stroke-width:3.09808" />
</svg>
