<?xml version="1.0" encoding="UTF-8" standalone="no"?>
<svg
   width="62"
   height="62"
   version="1.1"
   id="svg29"
   sodipodi:docname="trine.svg"
   inkscape:version="1.4 (unknown)"
   xmlns:inkscape="http://www.inkscape.org/namespaces/inkscape"
   xmlns:sodipodi="http://sodipodi.sourceforge.net/DTD/sodipodi-0.dtd"
   xmlns:xlink="http://www.w3.org/1999/xlink"
   xmlns="http://www.w3.org/2000/svg"
   xmlns:svg="http://www.w3.org/2000/svg">
  <defs
     id="defs29">
    <linearGradient
       id="linearGradient29"
       inkscape:collect="always">
      <stop
         style="stop-color:#2d3d53;stop-opacity:1;"
         offset="0"
         id="stop29" />
      <stop
         style="stop-color:#2d3d53;stop-opacity:1;"
         offset="1"
         id="stop30" />
    </linearGradient>
    <linearGradient
       inkscape:collect="always"
       xlink:href="#linearGradient29"
       id="linearGradient30"
       x1="30.782633"
       y1="60"
       x2="30.193521"
       y2="5"
       gradientUnits="userSpaceOnUse"
       gradientTransform="matrix(0.98214286,0,0,0.98245614,-0.42857152,-0.92982455)" />
    <linearGradient
       id="linear0"
       x1="4.6668269"
       x2="4.6668269"
       y1="4.4217565"
       y2="60.007356"
       gradientTransform="scale(0.98517817,1.0150448)"
       gradientUnits="userSpaceOnUse">
      <stop
         offset="0%"
         style="stop-color:#24dbdb; stop-opacity:1"
         id="stop1" />
      <stop
         offset="100%"
         style="stop-color:#174475; stop-opacity:1"
         id="stop2" />
    </linearGradient>
    <linearGradient
       id="linear0-3"
       x1="0.48404298"
       x2="15.005336"
       y1="0.76660547"
       y2="15.287898"
       gradientTransform="matrix(3.1677608,0,0,3.0300908,6.2897598,6.322414)"
       gradientUnits="userSpaceOnUse">
      <stop
         offset="0%"
         style="stop-color:#ff0000; stop-opacity:1"
         id="stop1-6" />
      <stop
         offset="50%"
         style="stop-color:#ffd000; stop-opacity:1"
         id="stop2-7" />
      <stop
         offset="100%"
         style="stop-color:#ff00bb; stop-opacity:1"
         id="stop3-5" />
    </linearGradient>
  </defs>
  <sodipodi:namedview
     id="namedview29"
     pagecolor="#ffffff"
     bordercolor="#000000"
     borderopacity="0.25"
     inkscape:showpageshadow="2"
     inkscape:pageopacity="0.0"
     inkscape:pagecheckerboard="0"
     inkscape:deskcolor="#d1d1d1"
     inkscape:zoom="7.0710678"
     inkscape:cx="20.506097"
     inkscape:cy="37.405949"
     inkscape:window-width="1920"
     inkscape:window-height="998"
     inkscape:window-x="0"
     inkscape:window-y="0"
     inkscape:window-maximized="1"
     inkscape:current-layer="svg29" />
  <rect
     style="opacity:0.2;stroke-width:0.9823"
     width="55"
     height="55.017544"
     x="3.5"
     y="3.9824562"
     ry="13.754386"
     id="rect1" />
  <rect
     style="fill:url(#linearGradient30);stroke-width:0.9823"
     width="55"
     height="55.017544"
     x="3.5"
     y="3"
     ry="13.754386"
     id="rect2" />
  <path
     style="opacity:0.1;fill:#ffffff;stroke-width:0.9823"
     d="M 17.25,3 C 9.6324999,3 3.4999999,9.1344561 3.4999999,16.754386 v 0.982456 c 0,-7.61993 6.1325,-13.7543858 13.7500001,-13.7543858 h 27.5 c 7.6175,0 13.75,6.1344558 13.75,13.7543858 V 16.754386 C 58.5,9.1344561 52.3675,3 44.75,3 Z"
     id="path28" />
  <g
     id="g1"
     transform="translate(2e-5,0.0087719)">
    <path
       style="opacity:0.2"
       d="m 15,11 c 0.536747,1.107649 0.935884,2.130941 1,3.375 0.113578,1.407751 -0.328972,2.621691 -0.873047,3.978516 -0.449002,3.114928 0.79684,3.772932 3.867188,3.671875 0.773061,-0.05093 1.714546,-0.297965 2.359376,-0.894532 1.022199,-1.229509 0.628367,-2.004363 0.207031,-2.089843 -1.160223,-0.333714 -1.561491,0.959277 -0.480469,0.996093 0.214332,0.860293 -1.945837,1.300054 -2.396485,0.576172 C 16.987255,17.630449 22.000001,14.30569 27,17 28.053343,25.140948 28.327945,36.037207 27.59375,45.636719 26.749245,47.56101 26.117676,48.139707 24.000001,49 v 2 C 28,50 34,50 38,50 V 48 C 36.11864,47.66716 34.899395,46.097136 34.677735,44.371094 33.946806,34.766012 33.485151,27 35,18 h 7.591797 C 43.493092,18.02001 44.771013,18.897467 45,21 h 2 c -1.014869,-2.38081 -1,-7 -1,-7 -8,0 -19.250194,0.04103 -31,-3 z"
       id="path1" />
    <path
       style="fill:#fecd38"
       d="m 24.000001,48 c 2.117675,-0.860293 2.749766,-1.439701 3.594271,-3.363992 C 28.328467,35.036496 28.053343,24.140948 27,16 c -4.999999,-2.69431 -10.012429,0.630126 -8.31609,3.612958 0.450648,0.723882 2.611443,0.284151 2.397112,-0.576142 C 20.000001,19 20.400757,17.708219 21.56098,18.041933 c 0.421336,0.08548 0.815195,0.858624 -0.207006,2.088133 -0.644828,0.596567 -1.587411,0.845324 -2.360472,0.896251 -3.070347,0.101057 -4.314702,-0.557381 -3.8657,-3.672309 C 15.671876,15.997184 16.113578,14.782225 16,13.374474 15.935884,12.130415 15.536706,11.108249 14.99996,10.0006 26.749767,13.041634 38,13 46,13 c 0,0 -0.01528,4.61919 0.999589,7 H 45 C 44.771013,17.897467 43.493332,17.020007 42.592037,17 H 35 C 33.485151,26 33.947301,33.76686 34.67823,43.371942 34.89989,45.097984 36.11864,46.66716 38,47 v 2 c -4,0 -10,0 -13.999999,1"
       id="path2" />
    <path
       style="opacity:0.2;fill:#ffffff"
       d="m 15,10 c 0.183011,0.377667 0.341186,0.74704 0.484375,1.117187 C 27.058269,14.033195 38.110182,14 46,14 c 0,0 -0.0108,3.521663 0.662109,6 H 47 c -1.014869,-2.38081 -1,-7 -1,-7 -8,0 -19.250194,0.04103 -31,-3 z m 0.990235,4.287109 c -0.08654,1.040615 -0.440198,2.011311 -0.863282,3.066407 -0.0893,0.619547 -0.09268,1.118124 -0.04687,1.55664 0.01483,-0.18431 0.01731,-0.351504 0.04687,-0.55664 C 15.671028,16.996691 16.113578,15.782751 16,14.375 15.9984,14.34454 15.9922,14.31731 15.9902,14.28711 Z m 5.171875,3.699219 c -0.808743,0.02354 -1.000472,0.937178 -0.167968,1.033203 0.161132,-0.0348 0.344932,-0.04222 0.566406,0.02149 0.121511,0.02465 0.236682,0.112399 0.320312,0.246093 0.293487,-0.73426 -0.0058,-1.182294 -0.320312,-1.246093 -0.145028,-0.04171 -0.27854,-0.05818 -0.398438,-0.05469 z M 18.414062,18.875 c -0.130537,0.561344 -0.06183,1.155619 0.269532,1.738281 0.139914,0.224747 0.449611,0.32696 0.796875,0.34961 0.53638,-0.08884 1.091678,-0.282656 1.562501,-0.607422 0.04644,-0.09818 0.06576,-0.203375 0.03711,-0.31836 -0.287576,-0.0098 -0.465245,-0.110824 -0.556639,-0.24414 -0.620313,0.270483 -1.559829,0.270108 -1.839846,-0.179688 C 18.544329,19.368398 18.466609,19.120972 18.414062,18.875 Z m 15.589845,11.494141 c -0.0094,4.457732 0.291488,8.977644 0.673828,14.001953 C 34.899395,46.097136 36.11864,47.66716 38,48 V 47 C 36.11864,46.66716 34.899395,45.097136 34.677735,43.371094 34.323907,38.721452 34.037871,34.505465 34.003907,30.369141 Z M 28,33.958984 c -0.01366,3.60137 -0.142053,7.223385 -0.40625,10.677735 C 26.749245,46.56101 26.117676,47.139707 24.000001,48 v 1 C 26.117676,48.139707 26.749245,47.56101 27.59375,45.636719 27.882472,41.861714 28.009299,37.888638 28,33.958984 Z"
       id="path3-3" />
  </g>
</svg>
