<?xml version="1.0" encoding="UTF-8" standalone="no"?>
<svg
   width="62"
   height="62"
   version="1.1"
   id="svg29"
   sodipodi:docname="trine2.svg"
   inkscape:version="1.4 (unknown)"
   xmlns:inkscape="http://www.inkscape.org/namespaces/inkscape"
   xmlns:sodipodi="http://sodipodi.sourceforge.net/DTD/sodipodi-0.dtd"
   xmlns:xlink="http://www.w3.org/1999/xlink"
   xmlns="http://www.w3.org/2000/svg"
   xmlns:svg="http://www.w3.org/2000/svg">
  <defs
     id="defs29">
    <linearGradient
       id="linearGradient29"
       inkscape:collect="always">
      <stop
         style="stop-color:#2d3d53;stop-opacity:1;"
         offset="0"
         id="stop29" />
      <stop
         style="stop-color:#2d3d53;stop-opacity:1;"
         offset="1"
         id="stop30" />
    </linearGradient>
    <linearGradient
       inkscape:collect="always"
       xlink:href="#linearGradient29"
       id="linearGradient30"
       x1="30.782633"
       y1="60"
       x2="30.193521"
       y2="5"
       gradientUnits="userSpaceOnUse"
       gradientTransform="matrix(0.98214286,0,0,0.98245614,-0.42857152,-0.92982455)" />
    <linearGradient
       id="linear0"
       x1="4.6668269"
       x2="4.6668269"
       y1="4.4217565"
       y2="60.007356"
       gradientTransform="scale(0.98517817,1.0150448)"
       gradientUnits="userSpaceOnUse">
      <stop
         offset="0%"
         style="stop-color:#24dbdb; stop-opacity:1"
         id="stop1" />
      <stop
         offset="100%"
         style="stop-color:#174475; stop-opacity:1"
         id="stop2" />
    </linearGradient>
    <linearGradient
       id="linear0-3"
       x1="0.48404298"
       x2="15.005336"
       y1="0.76660547"
       y2="15.287898"
       gradientTransform="matrix(3.1677608,0,0,3.0300908,6.2897598,6.322414)"
       gradientUnits="userSpaceOnUse">
      <stop
         offset="0%"
         style="stop-color:#ff0000; stop-opacity:1"
         id="stop1-6" />
      <stop
         offset="50%"
         style="stop-color:#ffd000; stop-opacity:1"
         id="stop2-7" />
      <stop
         offset="100%"
         style="stop-color:#ff00bb; stop-opacity:1"
         id="stop3-5" />
    </linearGradient>
  </defs>
  <sodipodi:namedview
     id="namedview29"
     pagecolor="#ffffff"
     bordercolor="#000000"
     borderopacity="0.25"
     inkscape:showpageshadow="2"
     inkscape:pageopacity="0.0"
     inkscape:pagecheckerboard="0"
     inkscape:deskcolor="#d1d1d1"
     inkscape:zoom="7.0710678"
     inkscape:cx="20.576807"
     inkscape:cy="37.54737"
     inkscape:window-width="1920"
     inkscape:window-height="998"
     inkscape:window-x="0"
     inkscape:window-y="0"
     inkscape:window-maximized="1"
     inkscape:current-layer="svg29" />
  <rect
     style="opacity:0.2;stroke-width:0.9823"
     width="55"
     height="55.017544"
     x="3.5"
     y="3.9824562"
     ry="13.754386"
     id="rect1" />
  <rect
     style="fill:url(#linearGradient30);stroke-width:0.9823"
     width="55"
     height="55.017544"
     x="3.5"
     y="3"
     ry="13.754386"
     id="rect2" />
  <path
     style="opacity:0.1;fill:#ffffff;stroke-width:0.9823"
     d="M 17.25,3 C 9.6324999,3 3.4999999,9.1344561 3.4999999,16.754386 v 0.982456 c 0,-7.61993 6.1325,-13.7543858 13.7500001,-13.7543858 h 27.5 c 7.6175,0 13.75,6.1344558 13.75,13.7543858 V 16.754386 C 58.5,9.1344561 52.3675,3 44.75,3 Z"
     id="path28" />
  <g
     id="g1"
     transform="translate(9.9977019,-74.008772)">
    <path
       style="opacity:0.2"
       d="m 3.0000405,86 c 0.5367467,1.107649 0.9358835,2.130941 1,3.375 0.1135778,1.407751 -0.3289726,2.621691 -0.8730469,3.978516 -0.449002,3.114928 0.7968399,3.772932 3.8671879,3.671875 0.773061,-0.05093 1.714546,-0.297965 2.359375,-0.894532 1.0221995,-1.229509 0.628368,-2.004363 0.207031,-2.089843 -1.160222,-0.333714 -1.56149,0.959277 -0.480469,0.996093 0.214332,0.860293 -1.945836,1.300054 -2.396484,0.576172 C 4.9872952,92.630449 10.000041,89.30569 15.000041,92 c 1.053342,8.14095 1.327944,19.03721 0.59375,28.63672 -0.844506,1.92429 -1.476074,2.50299 -3.59375,3.36328 v 2 c 3.999999,-1 9.999999,-1 13.999999,-1 v -2 c -1.88136,-0.33284 -3.100605,-1.90286 -3.322265,-3.62891 C 21.946846,109.76601 21.485191,102 23.00004,93 h 7.591797 c 0.901295,0.02001 2.179216,0.897467 2.408203,3 h 2 c -1.014869,-2.38081 -1,-7 -1,-7 -8,0 -19.250193,0.04103 -30.9999995,-3 z m 29.4589835,21 c -0.56508,0.002 -1.128906,0.0581 -1.675781,0.15625 -1.057299,0.18974 -2.412841,0.71626 -2.68164,1.75586 C 27.855703,109.86313 28.00004,112 30.00004,112 l 1.035157,0.006 c -0.296768,-2.46667 2.049762,-3.99369 3.289062,-2.2227 2.874843,5.47466 -3.774662,10.2676 -7.324219,13.21875 V 124 c 0,0 6.662,-0.088 9,1 0.32898,-1.3597 3.577216,-3.0422 2.916016,-4.3457 -0.88446,-1.132 -2.730516,-0.60902 -2.916016,0.62304 -0.24485,0.70943 0.792269,1.04732 1.037109,0.54102 0.24053,-0.5063 0.387115,-1.00061 0.703125,-0.69336 0.18552,0.9095 -0.776516,1.17218 -1.404296,1.45898 -2.031,0.66146 -4.37701,0.30776 -6.09961,-0.39453 4.0578,-4.0473 9.764241,-9.63415 7.019531,-13.42968 C 35.871774,107.47052 34.154268,106.99263 32.459024,107 Z"
       id="path1-3" />
    <path
       style="fill:#fecd38"
       d="m 12.000041,123 c 2.117676,-0.86029 2.749766,-1.4397 3.594272,-3.36399 C 16.328507,110.0365 16.053383,99.140948 15.000041,91 c -5,-2.69431 -10.0124295,0.630126 -8.3160905,3.612958 0.450648,0.723882 2.611443,0.284151 2.397111,-0.576142 C 8.0000405,94 8.4007975,92.708219 9.5610195,93.041933 c 0.421337,0.08548 0.8151955,0.858624 -0.207005,2.088133 -0.644829,0.596567 -1.587411,0.845324 -2.360472,0.896251 C 3.9231949,96.127374 2.6788399,95.468936 3.1278419,92.354008 3.6719162,90.997184 4.1136183,89.782225 4.0000405,88.374474 3.935924,87.130415 3.5367467,86.108249 3,85.0006 14.749807,88.041634 26.00004,88 34.00004,88 c 0,0 -0.01528,4.61919 0.999589,7 H 33.00004 C 32.771053,92.897467 31.493373,92.020007 30.592077,92 H 23.00004 c -1.514849,9 -1.052699,16.76686 -0.32177,26.37194 0.22166,1.72604 1.44041,3.29522 3.32177,3.62806 v 2 c -4,0 -10,0 -13.999999,1"
       id="path2-6" />
    <path
       style="fill:#fecd38"
       d="m 31.035883,111.00533 c -0.296768,-2.46662 2.049151,-3.99247 3.288451,-2.22148 2.874842,5.47467 -3.774337,10.26658 -7.323893,13.21774 L 27.00004,123 c 0,0 6.662,-0.0882 9,0.99979 0.32898,-1.3597 3.57658,-3.0421 2.91538,-4.3456 -0.88446,-1.132 -2.72988,-0.60888 -2.91538,0.62318 -0.24485,0.70943 0.791656,1.04645 1.036496,0.54015 0.24053,-0.5063 0.387184,-1.00001 0.703194,-0.69276 0.18552,0.9095 -0.77552,1.172 -1.4033,1.4588 -2.031,0.66146 -4.378099,0.30725 -6.100699,-0.39504 4.0578,-4.0473 9.76431,-9.63346 7.019599,-13.429 -1.8455,-1.719 -4.2842,-1.9952 -6.471699,-1.6026 -1.0573,0.18974 -2.413856,0.71563 -2.682656,1.75523 C 27.855075,108.86317 28.00004,111 30.00004,111"
       id="path3" />
    <path
       style="opacity:0.2;fill:#ffffff"
       d="m 3.0000405,85 c 0.1830105,0.377667 0.3411854,0.74704 0.484375,1.117187 C 15.058309,89.033195 26.110222,89 34.00004,89 c 0,0 -0.0108,3.521663 0.662109,6 h 0.337891 c -1.014869,-2.38081 -1,-7 -1,-7 -8,0 -19.250193,0.04103 -30.9999995,-3 z m 0.9902344,4.287109 c -0.086536,1.040615 -0.4401977,2.011311 -0.8632813,3.066407 -0.089305,0.619547 -0.092685,1.118124 -0.046875,1.55664 0.014831,-0.18431 0.017306,-0.351504 0.046875,-0.55664 0.5440743,-1.356825 0.9866247,-2.570765 0.8730469,-3.978516 -0.00157,-0.03046 -0.0078,-0.05769 -0.00977,-0.08789 z m 5.1718746,3.699219 c -0.808743,0.02354 -1.000472,0.937178 -0.167968,1.033203 0.161132,-0.0348 0.344932,-0.04222 0.566406,0.02149 0.121511,0.02465 0.236682,0.112399 0.320312,0.246093 0.2934875,-0.73426 -0.0058,-1.182294 -0.320312,-1.246093 -0.145028,-0.04171 -0.27854,-0.05818 -0.398438,-0.05469 z M 6.4141025,93.875 c -0.130537,0.561344 -0.06183,1.155619 0.269532,1.738281 0.139914,0.224747 0.449611,0.32696 0.796875,0.34961 0.53638,-0.08884 1.091677,-0.282656 1.5625,-0.607422 0.04644,-0.09818 0.06576,-0.203375 0.03711,-0.31836 -0.287577,-0.0098 -0.465245,-0.110824 -0.55664,-0.24414 -0.620311,0.270483 -1.559827,0.270108 -1.839844,-0.179688 C 6.5443695,94.368398 6.4666495,94.120972 6.4141025,93.875 Z m 15.5898445,11.49414 c -0.0094,4.45773 0.291488,8.97764 0.673828,14.00195 0.22166,1.72605 1.440905,3.29607 3.322265,3.62891 v -1 c -1.88136,-0.33284 -3.100605,-1.90286 -3.322265,-3.62891 -0.353828,-4.64964 -0.639864,-8.86562 -0.673828,-13.00195 z M 32.459024,106 c -0.56508,0.002 -1.128906,0.0581 -1.675781,0.15625 -1.057299,0.18974 -2.412841,0.71626 -2.68164,1.75586 -0.08506,0.32897 -0.115857,0.80016 -0.04687,1.27539 0.01434,-0.0955 0.02605,-0.19484 0.04687,-0.27539 0.268799,-1.0396 1.624341,-1.56612 2.68164,-1.75586 0.546875,-0.0982 1.110701,-0.15375 1.675781,-0.15625 1.695244,-0.007 3.41275,0.47052 4.796875,1.75977 0.394421,0.54542 0.596521,1.1307 0.671875,1.74023 0.108381,-0.9755 -0.06661,-1.90323 -0.671875,-2.74023 C 35.871774,106.47052 34.154268,105.99263 32.459024,106 Z m -16.458984,2.95898 c -0.01366,3.60137 -0.142052,7.22339 -0.406249,10.67774 -0.844506,1.92429 -1.476074,2.50299 -3.59375,3.36328 v 1 c 2.117676,-0.86029 2.749244,-1.43899 3.59375,-3.36328 0.288722,-3.77501 0.415548,-7.74808 0.406249,-11.67774 z m 18.988281,3.05665 c -0.372005,4.10711 -5.157941,7.63313 -7.988281,9.98632 V 123 c 0,0 0.002,0 0.002,0 3.058025,-2.54226 8.397736,-6.45124 7.986327,-10.98437 z m 2.666016,7.01367 c -0.773073,-0.0149 -1.538359,0.47801 -1.654297,1.24804 -0.08714,0.25249 -0.0074,0.45474 0.136719,0.5918 0.255055,-0.49151 0.803947,-0.7906 1.380859,-0.82422 0.0185,-0.005 0.03689,-0.008 0.05664,-0.006 0.458196,-0.0121 0.919681,0.15428 1.265625,0.54297 0.16835,-0.32288 0.224604,-0.63511 0.07617,-0.92773 -0.331673,-0.4245 -0.797875,-0.61609 -1.261719,-0.625 z m -0.123047,2.0039 c -0.185819,0.0331 -0.313743,0.40543 -0.494141,0.78516 -0.192865,0.39882 -0.869016,0.26936 -1.03125,-0.14844 -1.672714,0.45048 -3.514587,0.26637 -5.035156,-0.21679 -0.244916,0.24489 -0.498609,0.50117 -0.734375,0.73632 1.7226,0.70229 4.06861,1.05599 6.09961,0.39453 0.62778,-0.2868 1.589816,-0.54948 1.404296,-1.45898 -0.079,-0.0768 -0.147044,-0.10284 -0.208984,-0.0918 z"
       id="path4" />
  </g>
</svg>
