<?xml version="1.0" encoding="UTF-8" standalone="no"?>
<svg
   width="62"
   height="62"
   version="1.1"
   id="svg29"
   sodipodi:docname="trine3.svg"
   inkscape:version="1.4 (unknown)"
   xmlns:inkscape="http://www.inkscape.org/namespaces/inkscape"
   xmlns:sodipodi="http://sodipodi.sourceforge.net/DTD/sodipodi-0.dtd"
   xmlns:xlink="http://www.w3.org/1999/xlink"
   xmlns="http://www.w3.org/2000/svg"
   xmlns:svg="http://www.w3.org/2000/svg">
  <defs
     id="defs29">
    <linearGradient
       id="linearGradient29"
       inkscape:collect="always">
      <stop
         style="stop-color:#2d3d53;stop-opacity:1;"
         offset="0"
         id="stop29" />
      <stop
         style="stop-color:#2d3d53;stop-opacity:1;"
         offset="1"
         id="stop30" />
    </linearGradient>
    <linearGradient
       inkscape:collect="always"
       xlink:href="#linearGradient29"
       id="linearGradient30"
       x1="30.782633"
       y1="60"
       x2="30.193521"
       y2="5"
       gradientUnits="userSpaceOnUse"
       gradientTransform="matrix(0.98214286,0,0,0.98245614,-0.42857152,-0.92982455)" />
    <linearGradient
       id="linear0"
       x1="4.6668269"
       x2="4.6668269"
       y1="4.4217565"
       y2="60.007356"
       gradientTransform="scale(0.98517817,1.0150448)"
       gradientUnits="userSpaceOnUse">
      <stop
         offset="0%"
         style="stop-color:#24dbdb; stop-opacity:1"
         id="stop1" />
      <stop
         offset="100%"
         style="stop-color:#174475; stop-opacity:1"
         id="stop2" />
    </linearGradient>
    <linearGradient
       id="linear0-3"
       x1="0.48404298"
       x2="15.005336"
       y1="0.76660547"
       y2="15.287898"
       gradientTransform="matrix(3.1677608,0,0,3.0300908,6.2897598,6.322414)"
       gradientUnits="userSpaceOnUse">
      <stop
         offset="0%"
         style="stop-color:#ff0000; stop-opacity:1"
         id="stop1-6" />
      <stop
         offset="50%"
         style="stop-color:#ffd000; stop-opacity:1"
         id="stop2-7" />
      <stop
         offset="100%"
         style="stop-color:#ff00bb; stop-opacity:1"
         id="stop3-5" />
    </linearGradient>
  </defs>
  <sodipodi:namedview
     id="namedview29"
     pagecolor="#ffffff"
     bordercolor="#000000"
     borderopacity="0.25"
     inkscape:showpageshadow="2"
     inkscape:pageopacity="0.0"
     inkscape:pagecheckerboard="0"
     inkscape:deskcolor="#d1d1d1"
     inkscape:zoom="7.0710678"
     inkscape:cx="20.576807"
     inkscape:cy="37.54737"
     inkscape:window-width="1920"
     inkscape:window-height="998"
     inkscape:window-x="0"
     inkscape:window-y="0"
     inkscape:window-maximized="1"
     inkscape:current-layer="svg29" />
  <rect
     style="opacity:0.2;stroke-width:0.9823"
     width="55"
     height="55.017544"
     x="3.5"
     y="3.9824562"
     ry="13.754386"
     id="rect1" />
  <rect
     style="fill:url(#linearGradient30);stroke-width:0.9823"
     width="55"
     height="55.017544"
     x="3.5"
     y="3"
     ry="13.754386"
     id="rect2" />
  <path
     style="opacity:0.1;fill:#ffffff;stroke-width:0.9823"
     d="M 17.25,3 C 9.6324999,3 3.4999999,9.1344561 3.4999999,16.754386 v 0.982456 c 0,-7.61993 6.1325,-13.7543858 13.7500001,-13.7543858 h 27.5 c 7.6175,0 13.75,6.1344558 13.75,13.7543858 V 16.754386 C 58.5,9.1344561 52.3675,3 44.75,3 Z"
     id="path28" />
  <g
     id="g1">
    <path
       style="opacity:0.2"
       d="m 12.999762,12.5 c 0.536746,1.1076 0.93588,2.1309 1,3.375 0.113578,1.4077 -0.328972,2.621716 -0.873047,3.978516 -0.449001,3.1149 0.79684,3.772975 3.867188,3.671875 0.773061,-0.0509 1.714546,-0.298032 2.359375,-0.894532 1.0222,-1.2295 0.628368,-2.003843 0.207031,-2.089843 -1.160222,-0.3337 -1.559537,0.959093 -0.478516,0.996093 0.214332,0.8603 -1.947789,1.299972 -2.398437,0.576172 -1.696339,-2.9829 3.316406,-6.307581 8.316406,-3.613281 1.053342,8.1409 1.327945,19.037219 0.59375,28.636719 -0.844506,1.9243 -1.476074,2.502981 -3.59375,3.363281 v 2 c 4,-1 10,-1 14,-1 v -2 C 34.118401,49.1672 32.899156,47.597194 32.677496,45.871094 31.946568,36.266094 31.484913,28.5 32.999762,19.5 h 7.591797 c 0.901295,0.02 2.179216,0.8975 2.408203,3 h 2 c -1.014869,-2.3808 -1,-7 -1,-7 -8.000001,0 -19.250194,0.041 -31,-3 z m 29.814453,21.001953 c -0.279931,0.0064 -0.547966,0.02367 -0.681641,0.04883 -0.10716,0.02016 -0.256381,0.04875 -0.332031,0.0625 -0.50422,0.09169 -1.081145,0.253193 -1.578125,0.501953 -0.9687,0.4848 -1.53184,0.987969 -1.86914,1.667969 -0.20116,0.405618 -0.330616,0.794504 -0.353516,1.259764 0,1.072353 0,2.457031 2,2.457031 2,0 1,-3 2.5,-3 2.5,0 1.51055,2.698673 -0.310547,4.167969 -0.12953,0.07886 -0.199219,0.181692 -0.199219,0.289062 0.24177,0.730983 0.465412,2.14981 1.269532,2.554688 0.1837,-0.271932 0.513244,-0.876493 0.939453,-1.011719 0.19279,0 0.324921,-0.06383 0.457031,0.185547 1.023225,2.563893 -0.436351,4.028812 -1.130859,4.417969 -0.694508,0.389158 -2.390586,0.715066 -3.064453,-0.117188 0.807466,-0.16244 1.374023,-0.291901 1.548828,-1.28125 0.04602,-0.47674 -0.0056,-0.898966 -0.207032,-1.259766 -0.2285,-0.409449 -0.755369,-0.781058 -1.255859,-0.886718 -0.24196,-0.05105 -0.281378,-0.05564 -0.517578,-0.05664 -1.442561,-0.0021 -2.530433,0.874644 -2.923828,2.607422 -0.114,0.65129 -0.124495,0.804522 -0.08398,1.257813 0.03584,0.4011 0.109862,0.701942 0.263672,1.070312 0.05817,0.13932 0.17398,0.378175 0.21875,0.453125 0.01118,0.01873 0.06174,0.109019 0.113282,0.199219 0.09233,0.16159 0.238653,0.369123 0.308593,0.439453 0.01968,0.01978 0.03516,0.04429 0.03516,0.05469 -10e-7,0.03374 0.509873,0.543054 0.683593,0.683594 0.0594,0.04807 0.123348,0.104327 0.142578,0.123047 0.18478,0.1805 0.836833,0.552264 1.132813,0.646484 0.05162,0.01643 0.181882,0.06082 0.289062,0.09961 0.1807,0.06541 0.668882,0.197657 0.800782,0.216797 0.03152,0.0046 0.13049,0.02508 0.21875,0.04492 0.08781,0.01973 0.251813,0.04979 0.365234,0.06641 h 0.002 c 0.114069,0.0165 0.371209,0.03296 0.572266,0.03516 0.44038,0.0049 1.274749,-0.03434 1.386719,-0.06445 0.04414,-0.01187 0.110617,-0.0272 0.148437,-0.0332 0.07084,-0.01132 0.524698,-0.101818 0.585937,-0.117188 0.117431,-0.02948 0.217831,-0.05868 0.400391,-0.113281 0.11347,-0.03394 0.246935,-0.07033 0.296875,-0.08203 0.04995,-0.01169 0.102044,-0.02976 0.115234,-0.03906 0.01311,-0.0093 0.08104,-0.03562 0.150391,-0.05859 0.22678,-0.07512 0.681113,-0.293726 0.939453,-0.453126 0.08209,-0.05066 0.1666,-0.102744 0.1875,-0.115234 0.02081,-0.01249 0.09915,-0.06606 0.175782,-0.11914 0.07663,-0.05308 0.145843,-0.0957 0.152343,-0.0957 0.02501,0 0.2633,-0.174367 0.375,-0.273437 0.03521,-0.03122 0.115915,-0.09996 0.177735,-0.152344 0.22507,-0.1907 0.553081,-0.534205 0.613281,-0.640625 0.01141,-0.02019 0.05281,-0.07321 0.0918,-0.11914 0.15927,-0.187521 0.289062,-0.361239 0.289062,-0.386719 0,-0.0099 0.04681,-0.09005 0.103516,-0.177735 0.05678,-0.08767 0.103516,-0.164975 0.103516,-0.171875 0,-0.0069 0.03688,-0.08953 0.08203,-0.185547 0.04516,-0.09601 0.09574,-0.20668 0.113281,-0.24414 0.11389,-0.24384 0.262855,-0.799548 0.296875,-1.111328 0.0068,-0.06244 0.02213,-0.186018 0.0332,-0.273438 0.02185,-0.16748 0.01727,-0.792203 -0.0059,-0.908203 -0.0075,-0.03746 -0.02349,-0.170042 -0.03711,-0.294922 -0.04255,-0.39227 -0.164922,-0.913311 -0.289062,-1.238281 -0.04533,-0.11864 -0.09754,-0.260206 -0.117188,-0.316406 -0.01959,-0.0562 -0.04906,-0.123808 -0.06641,-0.148438 -0.01734,-0.02463 -0.0332,-0.05867 -0.0332,-0.07617 0,-0.05637 -0.290957,-0.621634 -0.429688,-0.833984 -0.07399,-0.11329 -0.14199,-0.220451 -0.15039,-0.238281 -0.02007,-0.04243 -0.06984,-0.120356 -0.08594,-0.134766 -0.0069,-0.0062 -0.03553,-0.0505 -0.06445,-0.09766 -0.02892,-0.04716 -0.06503,-0.098 -0.08008,-0.113281 -0.01495,-0.01528 -0.05156,-0.06371 -0.08203,-0.107422 -0.03052,-0.04372 -0.06126,-0.08364 -0.06836,-0.08984 -0.0071,-0.0062 -0.04212,-0.04809 -0.07812,-0.0918 -0.07872,-0.0956 -0.22226,-0.347459 -0.398454,-0.720729 0.214496,-0.652949 0.473202,-1.423044 0.824219,-2.125 0.01543,-0.04997 0.04452,-0.07623 0.06641,-0.138672 0.06162,-0.17611 0.13934,-0.569252 0.15625,-0.794922 0.03055,-0.40647 0.0091,-1.064408 -0.04297,-1.298828 -0.0349,-0.15728 -0.205462,-0.645989 -0.263672,-0.755859 -0.02975,-0.0562 -0.08613,-0.16882 -0.125,-0.25 -0.11381,-0.23778 -0.226936,-0.395133 -0.503906,-0.695313 -0.13947,-0.15116 -0.576144,-0.533534 -0.708984,-0.621094 -0.2423,-0.15972 -0.404016,-0.253376 -0.541016,-0.316406 -0.26974,-0.12413 -0.395343,-0.179361 -0.470703,-0.207031 -0.04412,-0.0162 -0.08962,-0.03835 -0.101563,-0.04883 -0.012,-0.01048 -0.03519,-0.01953 -0.05273,-0.01953 -0.01765,0 -0.06573,-0.01373 -0.105469,-0.03125 -0.1825,-0.08052 -1.08663,-0.197378 -1.55664,-0.242188 -0.1871,-0.01784 -0.479835,-0.02201 -0.759766,-0.01563 z"
       id="path1" />
    <path
       style="fill:#9b6bca"
       d="m 12.999762,11.5 c 0.536746,1.1076 0.93588,2.1309 1,3.375 0.113578,1.4077 -0.328972,2.621716 -0.873047,3.978516 -0.449001,3.1149 0.79684,3.772975 3.867188,3.671875 0.773061,-0.0509 1.714546,-0.298032 2.359375,-0.894532 1.0222,-1.2295 0.628368,-2.003843 0.207031,-2.089843 -1.160222,-0.3337 -1.559537,0.959093 -0.478516,0.996093 0.214332,0.8603 -1.947789,1.299972 -2.398437,0.576172 -1.696339,-2.9829 3.316406,-6.307581 8.316406,-3.613281 1.053342,8.1409 1.327945,19.037219 0.59375,28.636719 -0.844506,1.9243 -1.476074,2.502981 -3.59375,3.363281 v 2 c 4,-1 10,-1 14,-1 v -2 C 34.118401,48.1672 32.899156,46.597194 32.677496,44.871094 31.946568,35.266094 31.484913,27.5 32.999762,18.5 h 7.591797 c 0.901295,0.02 2.179216,0.8975 2.408203,3 h 2 c -1.014869,-2.3808 -1,-7 -1,-7 -8.000001,0 -19.250194,0.041 -31,-3 z m 29.814453,21.001953 c -0.279931,0.0064 -0.547966,0.02367 -0.681641,0.04883 -0.10716,0.02016 -0.256381,0.04875 -0.332031,0.0625 -0.50422,0.09169 -1.081145,0.253193 -1.578125,0.501953 -0.9687,0.4848 -1.53184,0.987969 -1.86914,1.667969 -0.20116,0.405618 -0.330616,0.794504 -0.353516,1.259764 0,1.072353 0,2.457031 2,2.457031 2,0 1,-3 2.5,-3 2.5,0 1.51055,2.698673 -0.310547,4.167969 -0.12953,0.07886 -0.199219,0.181692 -0.199219,0.289062 0.24177,0.730983 0.465412,2.14981 1.269532,2.554688 0.1837,-0.271932 0.513244,-0.876493 0.939453,-1.011719 0.19279,0 0.324921,-0.06383 0.457031,0.185547 1.023225,2.563893 -0.436351,4.028812 -1.130859,4.417969 -0.694508,0.389158 -2.390586,0.715066 -3.064453,-0.117188 0.807466,-0.16244 1.374023,-0.291901 1.548828,-1.28125 0.04602,-0.47674 -0.0056,-0.898966 -0.207032,-1.259766 -0.2285,-0.409449 -0.755369,-0.781058 -1.255859,-0.886718 -0.24196,-0.05105 -0.281378,-0.05564 -0.517578,-0.05664 -1.442561,-0.0021 -2.530433,0.874644 -2.923828,2.607422 -0.114,0.65129 -0.124495,0.804522 -0.08398,1.257813 0.03584,0.4011 0.109862,0.701942 0.263672,1.070312 0.05817,0.13932 0.17398,0.378175 0.21875,0.453125 0.01118,0.01873 0.06174,0.109019 0.113282,0.199219 0.09233,0.16159 0.238653,0.369123 0.308593,0.439453 0.01968,0.01978 0.03516,0.04429 0.03516,0.05469 -10e-7,0.03374 0.509873,0.543054 0.683593,0.683594 0.0594,0.04807 0.123348,0.104327 0.142578,0.123047 0.18478,0.1805 0.836833,0.552264 1.132813,0.646484 0.05162,0.01643 0.181882,0.06082 0.289062,0.09961 0.1807,0.06541 0.668882,0.197657 0.800782,0.216797 0.03152,0.0046 0.13049,0.02508 0.21875,0.04492 0.08781,0.01973 0.251813,0.04979 0.365234,0.06641 h 0.002 c 0.114069,0.0165 0.371209,0.03296 0.572266,0.03516 0.44038,0.0049 1.274749,-0.03434 1.386719,-0.06445 0.04414,-0.01187 0.110617,-0.0272 0.148437,-0.0332 0.07084,-0.01132 0.524698,-0.101818 0.585937,-0.117188 0.117431,-0.02948 0.217831,-0.05868 0.400391,-0.113281 0.11347,-0.03394 0.246935,-0.07033 0.296875,-0.08203 0.04995,-0.01169 0.102044,-0.02976 0.115234,-0.03906 0.01311,-0.0093 0.08104,-0.03562 0.150391,-0.05859 0.22678,-0.07512 0.681113,-0.293726 0.939453,-0.453126 0.08209,-0.05066 0.1666,-0.102744 0.1875,-0.115234 0.02081,-0.01249 0.09915,-0.06606 0.175782,-0.11914 0.07663,-0.05308 0.145843,-0.0957 0.152343,-0.0957 0.02501,0 0.2633,-0.174367 0.375,-0.273437 0.03521,-0.03122 0.115915,-0.09996 0.177735,-0.152344 0.22507,-0.1907 0.553081,-0.534205 0.613281,-0.640625 0.01141,-0.02019 0.05281,-0.07321 0.0918,-0.11914 0.15927,-0.187521 0.289062,-0.361239 0.289062,-0.386719 0,-0.0099 0.04681,-0.09005 0.103516,-0.177735 0.05678,-0.08767 0.103516,-0.164975 0.103516,-0.171875 0,-0.0069 0.03688,-0.08953 0.08203,-0.185547 0.04516,-0.09601 0.09574,-0.20668 0.113281,-0.24414 0.11389,-0.24384 0.262855,-0.799548 0.296875,-1.111328 0.0068,-0.06244 0.02213,-0.186018 0.0332,-0.273438 0.02185,-0.16748 0.01727,-0.792203 -0.0059,-0.908203 -0.0075,-0.03746 -0.02349,-0.170042 -0.03711,-0.294922 -0.04255,-0.39227 -0.164922,-0.913311 -0.289062,-1.238281 -0.04533,-0.11864 -0.09754,-0.260206 -0.117188,-0.316406 -0.01959,-0.0562 -0.04906,-0.123808 -0.06641,-0.148438 -0.01734,-0.02463 -0.0332,-0.05867 -0.0332,-0.07617 0,-0.05637 -0.290957,-0.621634 -0.429688,-0.833984 -0.07399,-0.11329 -0.14199,-0.220451 -0.15039,-0.238281 -0.02007,-0.04243 -0.06984,-0.120356 -0.08594,-0.134766 -0.0069,-0.0062 -0.03553,-0.0505 -0.06445,-0.09766 -0.02892,-0.04716 -0.06503,-0.098 -0.08008,-0.113281 -0.01495,-0.01528 -0.05156,-0.06371 -0.08203,-0.107422 -0.03052,-0.04372 -0.06126,-0.08364 -0.06836,-0.08984 -0.0071,-0.0062 -0.04212,-0.04809 -0.07812,-0.0918 -0.07872,-0.0956 -0.22226,-0.347459 -0.398454,-0.720729 0.214496,-0.652949 0.473202,-1.423044 0.824219,-2.125 0.01543,-0.04997 0.04452,-0.07623 0.06641,-0.138672 0.06162,-0.17611 0.13934,-0.569252 0.15625,-0.794922 0.03055,-0.40647 0.0091,-1.064408 -0.04297,-1.298828 -0.0349,-0.15728 -0.205462,-0.645989 -0.263672,-0.755859 -0.02975,-0.0562 -0.08613,-0.16882 -0.125,-0.25 -0.11381,-0.23778 -0.226936,-0.395133 -0.503906,-0.695313 -0.13947,-0.15116 -0.576144,-0.533534 -0.708984,-0.621094 -0.2423,-0.15972 -0.404016,-0.253376 -0.541016,-0.316406 -0.26974,-0.12413 -0.395343,-0.179361 -0.470703,-0.207031 -0.04412,-0.0162 -0.08962,-0.03835 -0.101563,-0.04883 -0.012,-0.01048 -0.03519,-0.01953 -0.05273,-0.01953 -0.01765,0 -0.06573,-0.01373 -0.105469,-0.03125 -0.1825,-0.08052 -1.08663,-0.197378 -1.55664,-0.242188 -0.1871,-0.01784 -0.479835,-0.02201 -0.759766,-0.01563 z"
       id="path2" />
    <path
       style="opacity:0.2;fill:#ffffff"
       d="m 12.999762,11.5 c 0.183011,0.37765 0.341186,0.747044 0.484375,1.117187 C 25.05803,15.533164 36.109942,15.5 43.999762,15.5 c 0,0 -0.0108,3.521668 0.662109,6 h 0.337891 c -1.014869,-2.3808 -1,-7 -1,-7 -8.000001,0 -19.250194,0.041 -31,-3 z m 0.990235,4.287109 c -0.08654,1.04061 -0.440198,2.01133 -0.863282,3.066407 -0.08931,0.619541 -0.09269,1.118123 -0.04687,1.55664 0.01483,-0.184309 0.01731,-0.351506 0.04687,-0.55664 0.544075,-1.3568 0.986625,-2.570816 0.873047,-3.978516 -0.0016,-0.03046 -0.0078,-0.05769 -0.0098,-0.08789 z m 5.171874,3.699219 c -0.808383,0.02351 -0.998621,0.937043 -0.166015,1.033203 0.160647,-0.03435 0.343833,-0.04197 0.564453,0.02149 0.121511,0.0248 0.236682,0.112384 0.320312,0.246093 0.293487,-0.734137 -0.0058,-1.181906 -0.320312,-1.246093 -0.145028,-0.04171 -0.278593,-0.05817 -0.398438,-0.05469 z M 16.413824,20.375 c -0.130537,0.561348 -0.06183,1.155606 0.269532,1.738281 0.139779,0.224504 0.44977,0.326809 0.796875,0.34961 0.53773,-0.08907 1.09489,-0.283106 1.566406,-0.609375 0.04561,-0.09755 0.06358,-0.202338 0.03516,-0.316407 -0.287577,-0.0098 -0.465042,-0.110818 -0.55664,-0.24414 -0.620881,0.270466 -1.56178,0.270057 -1.841797,-0.179688 C 16.544091,20.868393 16.466371,20.620976 16.413824,20.375 Z m 15.589844,11.494141 c -0.0094,4.457743 0.291488,8.977687 0.673828,14.001953 0.22166,1.7261 1.440905,3.296106 3.322266,3.628906 v -1 c -1.881361,-0.3328 -3.100606,-1.902806 -3.322266,-3.628906 -0.353828,-4.649602 -0.639863,-8.86562 -0.673828,-13.001953 z m 10.810547,0.632812 c -0.279931,0.0064 -0.547966,0.02367 -0.681641,0.04883 -0.10716,0.02016 -0.256381,0.04875 -0.332031,0.0625 -0.50422,0.09169 -1.081145,0.253193 -1.578125,0.501953 -0.9687,0.4848 -1.53184,0.987969 -1.86914,1.667969 -0.20116,0.40562 -0.330616,0.794506 -0.353516,1.259766 0,0.262458 0.0019,0.543362 0.03125,0.818359 0.04468,-0.383679 0.149131,-0.729018 0.322266,-1.078125 0.3373,-0.68 0.90044,-1.183169 1.86914,-1.667969 0.49698,-0.24876 1.073905,-0.410263 1.578125,-0.501953 0.07565,-0.01375 0.224871,-0.04234 0.332031,-0.0625 0.133675,-0.02516 0.40171,-0.04243 0.681641,-0.04883 0.279931,-0.0064 0.572666,-0.0022 0.759766,0.01563 0.47001,0.04481 1.37414,0.161668 1.55664,0.242188 0.03974,0.01752 0.08782,0.03125 0.105469,0.03125 0.01754,0 0.04073,0.0091 0.05273,0.01953 0.01194,0.01048 0.05744,0.03263 0.101563,0.04883 0.07536,0.02767 0.200963,0.0829 0.470703,0.207031 0.137,0.06303 0.298716,0.156686 0.541016,0.316406 0.13284,0.08756 0.569514,0.469934 0.708984,0.621094 0.27697,0.30018 0.390096,0.457533 0.503906,0.695313 0.03887,0.08118 0.09525,0.1938 0.125,0.25 0.05821,0.10987 0.228772,0.598579 0.263672,0.755859 0.01584,0.07133 0.02168,0.22473 0.03125,0.355469 0.0018,-0.01768 0.01051,-0.04053 0.01172,-0.05664 0.03055,-0.40647 0.0091,-1.064408 -0.04297,-1.298828 -0.0349,-0.15728 -0.205462,-0.645989 -0.263672,-0.755859 -0.02975,-0.0562 -0.08613,-0.16882 -0.125,-0.25 -0.11381,-0.23778 -0.226936,-0.395133 -0.503906,-0.695313 -0.13947,-0.15116 -0.576144,-0.533534 -0.708984,-0.621094 -0.2423,-0.15972 -0.404016,-0.253376 -0.541016,-0.316406 -0.26974,-0.12413 -0.395343,-0.179361 -0.470703,-0.207031 -0.04412,-0.0162 -0.08962,-0.03835 -0.101563,-0.04883 -0.012,-0.01048 -0.03519,-0.01953 -0.05273,-0.01953 -0.01765,0 -0.06573,-0.01373 -0.105469,-0.03125 -0.1825,-0.08052 -1.08663,-0.197378 -1.55664,-0.242188 -0.1871,-0.01784 -0.479835,-0.02201 -0.759766,-0.01563 z m -16.814453,2.957031 c -0.01366,3.601376 -0.142053,7.223389 -0.40625,10.677735 -0.844506,1.9243 -1.476074,2.502981 -3.59375,3.363281 v 1 c 2.117676,-0.8603 2.749244,-1.438981 3.59375,-3.363281 0.288722,-3.775 0.415549,-7.748074 0.40625,-11.677735 z m 17.910156,1.740235 c -0.214095,0.824671 -0.866662,1.779693 -1.720703,2.46875 -0.12953,0.07886 -0.199219,0.181692 -0.199219,0.289062 0.06486,0.196095 0.131274,0.442836 0.205078,0.705078 1.23589,-1.000184 2.082998,-2.563868 1.714844,-3.46289 z m 3.302735,3.248047 c -0.07204,0.207817 -0.14974,0.422997 -0.212891,0.615234 0.176194,0.37327 0.31972,0.625107 0.398438,0.720703 0.036,0.04371 0.07102,0.0856 0.07812,0.0918 0.0071,0.0062 0.03784,0.04612 0.06836,0.08984 0.03047,0.04371 0.06708,0.09214 0.08203,0.107422 0.01505,0.01528 0.05116,0.06612 0.08008,0.113281 0.02892,0.04716 0.05755,0.09146 0.06445,0.09766 0.0161,0.01441 0.06587,0.09234 0.08594,0.134766 0.0084,0.01783 0.0764,0.124991 0.15039,0.238281 0.138731,0.21235 0.429688,0.777614 0.429688,0.833984 0,0.0175 0.01586,0.05154 0.0332,0.07617 0.01735,0.02463 0.04682,0.09224 0.06641,0.148438 0.01965,0.0562 0.07186,0.197766 0.117188,0.316406 0.12414,0.32497 0.246512,0.846011 0.289062,1.238281 0.01263,0.115822 0.02711,0.226399 0.03516,0.273438 0.0032,-0.02557 0.005,-0.04786 0.0078,-0.07031 0.02185,-0.16748 0.01727,-0.792203 -0.0059,-0.908203 -0.0075,-0.03746 -0.02349,-0.170042 -0.03711,-0.294922 -0.04255,-0.39227 -0.164922,-0.913311 -0.289062,-1.238281 -0.04533,-0.11864 -0.09754,-0.260206 -0.117188,-0.316406 -0.01959,-0.0562 -0.04906,-0.123808 -0.06641,-0.148438 -0.01734,-0.02463 -0.0332,-0.05867 -0.0332,-0.07617 0,-0.05637 -0.290957,-0.621634 -0.429688,-0.833984 -0.07399,-0.11329 -0.14199,-0.220451 -0.15039,-0.238281 -0.02007,-0.04243 -0.06984,-0.120356 -0.08594,-0.134766 -0.0069,-0.0062 -0.03553,-0.0505 -0.06445,-0.09766 -0.02892,-0.04716 -0.06503,-0.098 -0.08008,-0.113281 -0.01495,-0.01528 -0.05156,-0.06371 -0.08203,-0.107422 -0.03052,-0.04372 -0.06126,-0.08364 -0.06836,-0.08984 -0.0071,-0.0062 -0.04212,-0.04809 -0.07812,-0.0918 -0.03668,-0.04454 -0.123965,-0.227044 -0.185547,-0.335937 z m -7.183594,2.054687 c -1.442561,-0.0021 -2.530433,0.874644 -2.923828,2.607422 -0.114,0.65129 -0.124495,0.804521 -0.08398,1.257813 0.0051,0.05732 0.01859,0.102538 0.02539,0.15625 0.01696,-0.125781 0.02503,-0.222298 0.05859,-0.414063 0.393395,-1.732778 1.481267,-2.609522 2.923828,-2.607422 0.2362,10e-4 0.275618,0.0056 0.517578,0.05664 0.50049,0.10566 1.027359,0.477269 1.255859,0.886718 0.07653,0.137071 0.125968,0.285031 0.16211,0.439454 0.01535,-0.0593 0.0331,-0.112808 0.04492,-0.179688 0.04602,-0.47674 -0.0056,-0.898966 -0.207032,-1.259766 -0.2285,-0.409449 -0.755369,-0.781058 -1.255859,-0.886718 -0.24196,-0.05105 -0.281378,-0.05564 -0.517578,-0.05664 z M 44.956793,43.875 c -0.181481,1.221007 -0.968961,1.96926 -1.43164,2.228516 -0.410735,0.230149 -1.170548,0.433154 -1.863282,0.392578 -0.279732,0.298369 -0.69321,0.388046 -1.201171,0.490234 0.673867,0.832254 2.369945,0.506346 3.064453,0.117188 0.577639,-0.323672 1.664196,-1.403137 1.43164,-3.228516 z"
       id="path3-3" />
  </g>
</svg>
