<?xml version="1.0" encoding="UTF-8" standalone="no"?>
<svg
   width="62"
   height="62"
   viewBox="0 0 16.404166 16.404167"
   version="1.1"
   id="svg1443"
   inkscape:version="1.4 (unknown)"
   sodipodi:docname="tupitube.desk.svg"
   xmlns:inkscape="http://www.inkscape.org/namespaces/inkscape"
   xmlns:sodipodi="http://sodipodi.sourceforge.net/DTD/sodipodi-0.dtd"
   xmlns:xlink="http://www.w3.org/1999/xlink"
   xmlns="http://www.w3.org/2000/svg"
   xmlns:svg="http://www.w3.org/2000/svg"
   xmlns:rdf="http://www.w3.org/1999/02/22-rdf-syntax-ns#"
   xmlns:cc="http://creativecommons.org/ns#"
   xmlns:dc="http://purl.org/dc/elements/1.1/">
  <defs
     id="defs1437">
    <linearGradient
       gradientTransform="matrix(0.4711726,0,0,0.47114666,-53.953909,-18.000765)"
       gradientUnits="userSpaceOnUse"
       y2="70.679932"
       x2="132.21078"
       y1="42.151531"
       x1="132.21078"
       id="linearGradient1632"
       xlink:href="#linearGradient1630"
       inkscape:collect="always" />
    <linearGradient
       id="linearGradient1630"
       inkscape:collect="always">
      <stop
         id="stop1626"
         offset="0"
         style="stop-color:#fafafc;stop-opacity:1" />
      <stop
         id="stop1628"
         offset="1"
         style="stop-color:#e2e6ea;stop-opacity:1" />
    </linearGradient>
    <filter
       color-interpolation-filters="sRGB"
       height="1.1311001"
       width="1.1106"
       y="-0.065563001"
       x="-0.055319"
       id="c-9">
      <feGaussianBlur
         id="feGaussianBlur1093"
         stdDeviation="1.1062912" />
    </filter>
    <linearGradient
       gradientUnits="userSpaceOnUse"
       gradientTransform="matrix(0.13235,0,0,0.13075,-32.379,1.0873)"
       y2="269.48999"
       y1="235.14999"
       x2="657.65002"
       x1="319.20999"
       id="a-12">
      <stop
         id="stop1076"
         offset="0"
         stop-color="#e54c18" />
      <stop
         id="stop1078"
         offset="1"
         stop-color="#fec350" />
    </linearGradient>
    <linearGradient
       xlink:href="#a-7"
       id="c-36"
       x1="8.6850004"
       x2="8.7620001"
       y1="16.868999"
       y2="4.5339999"
       gradientTransform="matrix(1.0634748,0,0,1.0634748,-0.80999368,1.8113865)"
       gradientUnits="userSpaceOnUse" />
    <linearGradient
       id="a-7">
      <stop
         offset="0"
         style="stop-color:#2369ff;stop-opacity:1;"
         id="stop8" />
      <stop
         offset="1"
         style="stop-color:#7fa8ff;stop-opacity:1"
         id="stop10" />
    </linearGradient>
  </defs>
  <sodipodi:namedview
     id="base"
     pagecolor="#ffffff"
     bordercolor="#666666"
     borderopacity="1.0"
     inkscape:pageopacity="0.0"
     inkscape:pageshadow="2"
     inkscape:zoom="11.2"
     inkscape:cx="25.178571"
     inkscape:cy="31.5625"
     inkscape:document-units="px"
     inkscape:current-layer="layer1"
     inkscape:document-rotation="0"
     showgrid="false"
     units="px"
     inkscape:window-width="1920"
     inkscape:window-height="998"
     inkscape:window-x="0"
     inkscape:window-y="0"
     inkscape:window-maximized="1"
     inkscape:showpageshadow="2"
     inkscape:pagecheckerboard="0"
     inkscape:deskcolor="#d1d1d1">
    <inkscape:grid
       id="grid1"
       units="px"
       originx="0"
       originy="0"
       spacingx="0.26458332"
       spacingy="0.26458334"
       empcolor="#0099e5"
       empopacity="0.30196078"
       color="#0099e5"
       opacity="0.14901961"
       empspacing="5"
       enabled="true"
       visible="false" />
  </sodipodi:namedview>
  <metadata
     id="metadata1440">
    <rdf:RDF>
      <cc:Work
         rdf:about="">
        <dc:format>image/svg+xml</dc:format>
        <dc:type
           rdf:resource="http://purl.org/dc/dcmitype/StillImage" />
      </cc:Work>
    </rdf:RDF>
  </metadata>
  <g
     inkscape:label="Capa 1"
     inkscape:groupmode="layer"
     id="layer1">
    <g
       style="opacity:0.295"
       transform="matrix(0.47117252,0,0,0.47114656,-31.727411,-18.000764)"
       id="g1702">
      <rect
         ry="6.6098609"
         rx="6.6098609"
         y="40.709618"
         x="69.839508"
         height="29.810888"
         width="29.810888"
         id="rect1634"
         style="fill:none;fill-opacity:1;stroke:#000000;stroke-width:0.1;stroke-linecap:round;stroke-linejoin:round;stroke-miterlimit:4;stroke-dasharray:none;stroke-opacity:0.02" />
      <rect
         style="fill:none;fill-opacity:1;stroke:#000000;stroke-width:0.2;stroke-linecap:round;stroke-linejoin:round;stroke-miterlimit:4;stroke-dasharray:none;stroke-opacity:0.02"
         id="rect1638"
         width="29.810888"
         height="29.810888"
         x="69.839508"
         y="40.709618"
         rx="6.6098609"
         ry="6.6098609" />
      <rect
         ry="6.6098609"
         rx="6.6098609"
         y="40.709618"
         x="69.839508"
         height="29.810888"
         width="29.810888"
         id="rect1640"
         style="fill:none;fill-opacity:1;stroke:#000000;stroke-width:0.3;stroke-linecap:round;stroke-linejoin:round;stroke-miterlimit:4;stroke-dasharray:none;stroke-opacity:0.02" />
      <rect
         style="fill:none;fill-opacity:1;stroke:#000000;stroke-width:0.4;stroke-linecap:round;stroke-linejoin:round;stroke-miterlimit:4;stroke-dasharray:none;stroke-opacity:0.02"
         id="rect1642"
         width="29.810888"
         height="29.810888"
         x="69.839508"
         y="40.709618"
         rx="6.6098609"
         ry="6.6098609" />
      <rect
         ry="6.6098609"
         rx="6.6098609"
         y="40.709618"
         x="69.839508"
         height="29.810888"
         width="29.810888"
         id="rect1644"
         style="fill:none;fill-opacity:1;stroke:#000000;stroke-width:0.5;stroke-linecap:round;stroke-linejoin:round;stroke-miterlimit:4;stroke-dasharray:none;stroke-opacity:0.02" />
      <rect
         style="fill:none;fill-opacity:1;stroke:#000000;stroke-width:0.6;stroke-linecap:round;stroke-linejoin:round;stroke-miterlimit:4;stroke-dasharray:none;stroke-opacity:0.02"
         id="rect1646"
         width="29.810888"
         height="29.810888"
         x="69.839508"
         y="40.709618"
         rx="6.6098609"
         ry="6.6098609" />
      <rect
         ry="6.6098609"
         rx="6.6098609"
         y="40.709618"
         x="69.839508"
         height="29.810888"
         width="29.810888"
         id="rect1648"
         style="fill:none;fill-opacity:1;stroke:#000000;stroke-width:0.7;stroke-linecap:round;stroke-linejoin:round;stroke-miterlimit:4;stroke-dasharray:none;stroke-opacity:0.02" />
      <rect
         style="fill:none;fill-opacity:1;stroke:#000000;stroke-width:0.8;stroke-linecap:round;stroke-linejoin:round;stroke-miterlimit:4;stroke-dasharray:none;stroke-opacity:0.02"
         id="rect1650"
         width="29.810888"
         height="29.810888"
         x="69.839508"
         y="40.709618"
         rx="6.6098609"
         ry="6.6098609" />
      <rect
         ry="6.6098609"
         rx="6.6098609"
         y="40.709618"
         x="69.839508"
         height="29.810888"
         width="29.810888"
         id="rect1652"
         style="fill:none;fill-opacity:1;stroke:#000000;stroke-width:1;stroke-linecap:round;stroke-linejoin:round;stroke-miterlimit:4;stroke-dasharray:none;stroke-opacity:0.02" />
      <rect
         style="fill:none;fill-opacity:1;stroke:#000000;stroke-width:1.2;stroke-linecap:round;stroke-linejoin:round;stroke-miterlimit:4;stroke-dasharray:none;stroke-opacity:0.02"
         id="rect1654"
         width="29.810888"
         height="29.810888"
         x="69.839508"
         y="40.709618"
         rx="6.6098609"
         ry="6.6098609" />
      <rect
         ry="6.6098609"
         rx="6.6098609"
         y="40.709618"
         x="69.839508"
         height="29.810888"
         width="29.810888"
         id="rect1656"
         style="fill:none;fill-opacity:1;stroke:#000000;stroke-width:1.4;stroke-linecap:round;stroke-linejoin:round;stroke-miterlimit:4;stroke-dasharray:none;stroke-opacity:0.02" />
      <rect
         style="fill:none;fill-opacity:1;stroke:#000000;stroke-width:1.6;stroke-linecap:round;stroke-linejoin:round;stroke-miterlimit:4;stroke-dasharray:none;stroke-opacity:0.02"
         id="rect1658"
         width="29.810888"
         height="29.810888"
         x="69.839508"
         y="40.709618"
         rx="6.6098609"
         ry="6.6098609" />
      <rect
         ry="6.6098609"
         rx="6.6098609"
         y="40.709618"
         x="69.839508"
         height="29.810888"
         width="29.810888"
         id="rect1660"
         style="fill:none;fill-opacity:1;stroke:#000000;stroke-width:1.8;stroke-linecap:round;stroke-linejoin:round;stroke-miterlimit:4;stroke-dasharray:none;stroke-opacity:0.02" />
      <rect
         style="fill:none;fill-opacity:1;stroke:#000000;stroke-width:2;stroke-linecap:round;stroke-linejoin:round;stroke-miterlimit:4;stroke-dasharray:none;stroke-opacity:0.02"
         id="rect1662"
         width="29.810888"
         height="29.810888"
         x="69.839508"
         y="40.709618"
         rx="6.6098609"
         ry="6.6098609" />
      <rect
         ry="6.6098609"
         rx="6.6098609"
         y="40.709618"
         x="69.839508"
         height="29.810888"
         width="29.810888"
         id="rect1664"
         style="fill:none;fill-opacity:1;stroke:#000000;stroke-width:2.2;stroke-linecap:round;stroke-linejoin:round;stroke-miterlimit:4;stroke-dasharray:none;stroke-opacity:0.02" />
      <rect
         style="fill:none;fill-opacity:1;stroke:#000000;stroke-width:2.6;stroke-linecap:round;stroke-linejoin:round;stroke-miterlimit:4;stroke-dasharray:none;stroke-opacity:0.02"
         id="rect1666"
         width="29.810888"
         height="29.810888"
         x="69.839508"
         y="40.709618"
         rx="6.6098609"
         ry="6.6098609" />
      <rect
         ry="6.6098609"
         rx="6.6098609"
         y="40.709618"
         x="69.839508"
         height="29.810888"
         width="29.810888"
         id="rect1668"
         style="fill:none;fill-opacity:1;stroke:#000000;stroke-width:3;stroke-linecap:round;stroke-linejoin:round;stroke-miterlimit:4;stroke-dasharray:none;stroke-opacity:0.02" />
      <rect
         style="fill:none;fill-opacity:1;stroke:#000000;stroke-width:3.4;stroke-linecap:round;stroke-linejoin:round;stroke-miterlimit:4;stroke-dasharray:none;stroke-opacity:0.02"
         id="rect1670"
         width="29.810888"
         height="29.810888"
         x="69.839508"
         y="40.709618"
         rx="6.6098609"
         ry="6.6098609" />
      <rect
         ry="6.6098609"
         rx="6.6098609"
         y="40.709618"
         x="69.839508"
         height="29.810888"
         width="29.810888"
         id="rect1672"
         style="fill:none;fill-opacity:1;stroke:#000000;stroke-width:3.8;stroke-linecap:round;stroke-linejoin:round;stroke-miterlimit:4;stroke-dasharray:none;stroke-opacity:0.02" />
      <rect
         style="fill:none;fill-opacity:1;stroke:#000000;stroke-width:4.2;stroke-linecap:round;stroke-linejoin:round;stroke-miterlimit:4;stroke-dasharray:none;stroke-opacity:0.02"
         id="rect1674"
         width="29.810888"
         height="29.810888"
         x="69.839508"
         y="40.709618"
         rx="6.6098609"
         ry="6.6098609" />
      <rect
         ry="6.6098609"
         rx="6.6098609"
         y="40.709618"
         x="69.839508"
         height="29.810888"
         width="29.810888"
         id="rect1676"
         style="fill:none;fill-opacity:1;stroke:#000000;stroke-width:4.6;stroke-linecap:round;stroke-linejoin:round;stroke-miterlimit:4;stroke-dasharray:none;stroke-opacity:0.02" />
      <rect
         style="fill:none;fill-opacity:1;stroke:#000000;stroke-width:5;stroke-linecap:round;stroke-linejoin:round;stroke-miterlimit:4;stroke-dasharray:none;stroke-opacity:0.02"
         id="rect1678"
         width="29.810888"
         height="29.810888"
         x="69.839508"
         y="40.709618"
         rx="6.6098609"
         ry="6.6098609" />
    </g>
    <rect
       ry="3.1142132"
       rx="3.1143851"
       y="1.1794344"
       x="1.1790471"
       height="14.045296"
       width="14.04607"
       id="rect849"
       style="fill:url(#linearGradient1632);fill-opacity:1;stroke-width:1.29783;stroke-linecap:round;stroke-linejoin:round" />
    <g
       id="g1"
       transform="translate(1.5874984,-13.361503)">
      <path
         style="opacity:0.2;stroke-width:0.264583"
         d="m 10.096698,17.198075 c -0.03895,-10e-4 -0.0775,0.0081 -0.1118041,0.02653 -1.769658,0.951113 -3.6269144,2.189251 -4.7808369,3.583827 0.091986,-1.034181 0.2770954,-1.966259 0.3131362,-3.107229 0.00655,-0.210345 -0.2561767,-0.311554 -0.3931931,-0.15147 -1.738518,2.032686 -3.169763,4.682575 -4.31589136,7.713928 -0.0302891,0.08012 -0.0118224,0.170463 0.0475011,0.232378 0.20091306,0.209631 0.40184116,0.419306 0.60275976,0.628944 0.1107015,0.115429 0.3036892,0.0806 0.3667773,-0.0662 0.3274821,-0.762551 0.7009389,-1.131046 1.1067573,-1.291959 0.4058179,-0.160913 0.8809157,-0.120628 1.4293173,0.03863 1.0968032,0.318509 2.4460083,1.138462 3.8575905,1.362803 0.2258158,0.03582 0.3533696,-0.249638 0.1756302,-0.393055 -0.8644427,-0.697137 -1.7554011,-1.420644 -2.6198481,-2.117781 1.9881115,-0.06013 3.33267,0.26392 5.5591399,1.17873 0.231032,0.09495 0.420286,-0.202287 0.235792,-0.370324 C 10.7228,23.694663 9.7965698,23.055337 8.9498399,22.284176 10.136397,21.748062 11.102017,21.30408 12.300192,20.78912 c 0.226971,-0.09766 0.150275,-0.43613 -0.09676,-0.42703 -2.6472477,0.09875 -4.2624591,0.352928 -5.6815724,0.905545 1.3210556,-1.268906 2.8335546,-2.529394 3.7459974,-3.711143 0.111339,-0.144309 0.01139,-0.353603 -0.171156,-0.358413 z"
         id="path1" />
      <path
         style="fill:#35a8ff;stroke-width:0.264583;fill-opacity:1"
         d="m 10.096698,16.933492 c -0.03895,-0.001 -0.0775,0.0081 -0.1118041,0.02653 -1.769658,0.951113 -3.6269144,2.189251 -4.7808369,3.583827 0.091986,-1.034181 0.2770954,-1.96626 0.3131362,-3.107229 0.00655,-0.210345 -0.2561767,-0.311555 -0.3931931,-0.151471 -1.738518,2.032687 -3.169763,4.682576 -4.31589136,7.713929 -0.0302891,0.08012 -0.0118224,0.170463 0.0475011,0.232378 0.20091306,0.209631 0.40184116,0.419306 0.60275976,0.628943 0.1107015,0.11543 0.3036892,0.0806 0.3667773,-0.0662 0.3274821,-0.76255 0.7009389,-1.131045 1.1067573,-1.291958 0.4058179,-0.160913 0.8809157,-0.120628 1.4293173,0.03863 1.0968032,0.318509 2.4460083,1.138462 3.8575905,1.362802 0.2258158,0.03582 0.3533696,-0.249638 0.1756302,-0.393054 -0.8644427,-0.697137 -1.7554011,-1.420644 -2.6198481,-2.117781 1.9881115,-0.06013 3.33267,0.26392 5.5591399,1.178729 0.231032,0.09495 0.420286,-0.202286 0.235792,-0.370324 -0.846726,-0.771163 -1.7729562,-1.41049 -2.6196861,-2.181651 1.1865571,-0.536113 2.1521771,-0.980095 3.3503521,-1.495055 0.226971,-0.09766 0.150275,-0.43613 -0.09676,-0.427031 -2.6472477,0.09875 -4.2624591,0.352928 -5.6815724,0.905546 1.3210556,-1.268906 2.8335546,-2.529395 3.7459974,-3.711143 0.111339,-0.144309 0.01139,-0.353604 -0.171156,-0.358413 z"
         id="path2-6" />
      <path
         style="fill:#005db0;stroke-width:0.264583;fill-opacity:1"
         d="m 6.5220825,21.028254 c -2.3167363,0.877454 -3.9811054,1.642395 -5.5138753,4.362524 0.1090161,0.113752 0.2180943,0.227311 0.3271118,0.341064 1.6183181,-2.670054 2.8044579,-3.192543 5.1867635,-4.703588 z"
         id="path3" />
      <path
         style="opacity:0.3;fill:#ffffff;stroke-width:0.264583"
         d="M 1.3442103,24.866324 C 2.1300022,22.750304 3.8587375,19.421923 5.0149709,18.16466 4.2965322,19.25354 3.8076597,20.34121 3.472145,21.308466 2.6589376,22.442812 2.0009051,23.586609 1.3442103,24.866324 Z"
         id="path4" />
      <path
         style="opacity:0.3;fill:#ffffff;stroke-width:0.264583"
         d="m 11.1125,20.584663 c -1.1281689,0.420959 -2.577337,0.853022 -3.02723,1.225572 -0.3757568,0.31116 0.9821275,0.980268 1.4592164,1.502257 C 8.6913412,22.751213 6.7100317,22.430376 5.0991587,23.047782 6.653903,22.711015 8.8148233,23.211337 10.285375,23.750164 9.6735835,23.183272 8.8642289,22.533513 8.4364612,22.179743 8.208892,22.010655 8.3483203,21.794899 8.5511843,21.738699 9.0592771,21.53008 10.691131,20.797752 11.1125,20.584663 Z"
         id="path5" />
      <path
         style="opacity:0.2;fill:#ffffff;stroke-width:0.264583"
         d="m 10.096541,16.933413 c -0.03895,-0.001 -0.07731,0.0079 -0.1116209,0.02635 -1.7535115,0.942435 -3.5919844,2.167541 -4.7480305,3.546554 -0.010723,0.100914 -0.023945,0.199686 -0.033073,0.302307 1.1539225,-1.394576 3.0114454,-2.633165 4.7811034,-3.584277 0.03431,-0.01841 0.072671,-0.02739 0.111621,-0.02635 0.07493,0.002 0.13492,0.03922 0.173116,0.09147 0.108276,-0.144213 0.0084,-0.351269 -0.173116,-0.356051 z M 5.31027,17.207298 c -0.065907,-0.0054 -0.1346539,0.018 -0.1860349,0.07803 -1.7385181,2.032686 -3.1698873,4.682388 -4.31601571,7.713741 -0.0256503,0.06785 -0.0141623,0.141983 0.0253214,0.201021 1.14200571,-3.0044 2.56453811,-5.631946 4.29069431,-7.650179 0.1186156,-0.138585 0.3305961,-0.08096 0.381372,0.07338 0.00296,-0.06351 0.00932,-0.121754 0.011369,-0.186552 0.00409,-0.131466 -0.09686,-0.220388 -0.2067057,-0.229444 z m 6.893119,2.890263 c -2.3689232,0.08837 -3.909924,0.302815 -5.2250037,0.742591 -0.1524172,0.142511 -0.307608,0.284539 -0.4563028,0.427364 1.4191134,-0.552618 3.0340591,-0.806623 5.6813065,-0.905372 0.08435,-0.0031 0.146712,0.03592 0.186036,0.09043 0.102522,-0.135283 0.0176,-0.362518 -0.186036,-0.355017 z M 9.1513794,22.19304 c -0.070036,0.03169 -0.1299954,0.05863 -0.2015382,0.09095 0.8467299,0.771161 1.7727528,1.410616 2.6194778,2.181779 0.01123,0.01023 0.0173,0.02201 0.02584,0.03307 0.06328,-0.08402 0.07223,-0.208335 -0.02584,-0.297656 C 10.788467,23.490018 9.9427553,22.886761 9.1513794,22.19304 Z m -3.0514933,1.462444 c -0.1086154,8.99e-4 -0.2125874,-0.0013 -0.3250448,0.0021 0.8644469,0.697137 1.7550354,1.420564 2.6194781,2.117701 0.01546,0.01247 0.025715,0.02702 0.03669,0.04134 0.06535,-0.08835 0.06828,-0.221225 -0.03669,-0.305925 C 7.637101,24.899999 6.8621549,24.271165 6.0998861,23.65548 Z"
         id="path6" />
    </g>
  </g>
</svg>
