<?xml version="1.0" encoding="UTF-8" standalone="no"?>
<svg
   height="62"
   width="62"
   version="1.1"
   id="svg6"
   sodipodi:docname="turbowarp.svg"
   inkscape:version="1.4 (unknown)"
   xmlns:inkscape="http://www.inkscape.org/namespaces/inkscape"
   xmlns:sodipodi="http://sodipodi.sourceforge.net/DTD/sodipodi-0.dtd"
   xmlns="http://www.w3.org/2000/svg"
   xmlns:svg="http://www.w3.org/2000/svg">
  <defs
     id="defs6" />
  <sodipodi:namedview
     id="namedview6"
     pagecolor="#ffffff"
     bordercolor="#000000"
     borderopacity="0.25"
     inkscape:showpageshadow="2"
     inkscape:pageopacity="0.0"
     inkscape:pagecheckerboard="0"
     inkscape:deskcolor="#d1d1d1"
     inkscape:zoom="10"
     inkscape:cx="39.4"
     inkscape:cy="24.75"
     inkscape:window-width="1920"
     inkscape:window-height="998"
     inkscape:window-x="0"
     inkscape:window-y="0"
     inkscape:window-maximized="1"
     inkscape:current-layer="svg6" />
  <path
     d="m 4.8599123,11.336082 v 37.409071 c 0,2.062395 1.6719023,3.734298 3.7342983,3.734298 h 6.6110684 c 0.544353,0 1.0616,0.237557 1.416313,0.650472 l 3.925093,4.569133 c 0.709425,0.825831 1.74392,1.300945 2.832626,1.300945 h 15.241378 c 1.088706,0 2.123201,-0.475114 2.832626,-1.300945 l 3.925093,-4.569133 c 0.354713,-0.412915 0.87196,-0.650472 1.416313,-0.650472 h 6.611068 c 2.062396,0 3.734299,-1.671903 3.734299,-3.734298 V 10.535875 c 0,-2.0623957 -1.671903,-3.7342982 -3.734299,-3.7342982 -0.02222,0 -0.04445,1.984e-4 -0.06667,5.951e-4 L 8.5275376,7.6023789 C 6.491457,7.6387376 4.8599123,9.299677 4.8599123,11.336082 Z"
     fill-rule="evenodd"
     id="path1"
     style="fill:#c83771;stroke-width:0.0583484" />
  <path
     d="M 4.8599123,6.7342976 V 45.944429 c 0,2.062396 1.6719023,3.734298 3.7342983,3.734298 h 7.4787454 c 0.581975,0 1.130669,0.271365 1.483898,0.733883 l 2.986455,3.910462 c 0.706459,0.925037 1.803846,1.467766 2.967796,1.467766 h 14.97779 c 1.16395,0 2.261337,-0.542729 2.967797,-1.467766 l 2.986453,-3.910462 c 0.35323,-0.462518 0.901924,-0.733883 1.483899,-0.733883 h 7.478745 c 2.062396,0 3.734299,-1.671902 3.734299,-3.734298 V 6.7342976 c 0,-2.062396 -1.671903,-3.7342983 -3.734299,-3.7342983 H 8.5942106 c -2.062396,0 -3.7342983,1.6719023 -3.7342983,3.7342983 z"
     fill-rule="evenodd"
     id="path2"
     style="fill:#ff5555;fill-opacity:1;stroke-width:0.0583484" />
  <path
     d="M 6.7270615,6.7342976 V 45.944429 c 0,1.031198 0.8359512,1.867149 1.8671491,1.867149 h 7.4787454 c 1.16395,0 2.261338,0.542729 2.967797,1.467766 l 2.986454,3.910462 c 0.353229,0.462519 0.901923,0.733883 1.483898,0.733883 h 14.97779 c 0.581975,0 1.130669,-0.271364 1.483898,-0.733883 l 2.986454,-3.910462 c 0.706459,-0.925037 1.803847,-1.467766 2.967797,-1.467766 h 7.478745 c 1.031198,0 1.86715,-0.835951 1.86715,-1.867149 V 6.7342976 c 0,-1.031198 -0.835952,-1.8671492 -1.86715,-1.8671492 H 8.5942106 c -1.0311979,0 -1.8671491,0.8359512 -1.8671491,1.8671492 z m -1.8671492,0 c 0,-2.062396 1.6719023,-3.7342983 3.7342983,-3.7342983 H 53.405789 c 2.062396,0 3.734299,1.6719023 3.734299,3.7342983 V 45.944429 c 0,2.062396 -1.671903,3.734298 -3.734299,3.734298 h -7.478745 c -0.581975,0 -1.130669,0.271365 -1.483899,0.733883 l -2.986453,3.910462 c -0.70646,0.925037 -1.803847,1.467766 -2.967797,1.467766 h -14.97779 c -1.16395,0 -2.261337,-0.542729 -2.967796,-1.467766 L 17.556854,50.41261 C 17.203625,49.950092 16.654931,49.678727 16.072956,49.678727 H 8.5942106 c -2.062396,0 -3.7342983,-1.671902 -3.7342983,-3.734298 z"
     fill-opacity="0.2"
     id="path3"
     style="fill:#ffffff;fill-opacity:0.3;stroke-width:0.0583484" />
  <g
     id="g1"
     transform="matrix(0.999979,0,0,0.999979,6.5071394e-4,-0.49937204)">
    <path
       style="opacity:0.2"
       d="m 40.306618,11.39501 c -3.6e-5,-3e-6 -1.234599,0.157482 -2.134766,0.328125 -2.116793,0.277701 -4.148068,0.528582 -6.082031,0.611328 H 26.53318 22.585915 c -0.241141,-0.03576 -0.416675,-0.07813 -1.033204,-0.07813 -0.349628,9.8e-5 -0.699194,0.02622 -1.044922,0.07813 -0.99451,0.148894 -2.255117,0.280885 -4.041015,1.486328 -1.785806,1.205521 -3.466797,4.334227 -3.466797,6.517578 0.07757,1.503623 0.441719,2.821687 0.71874,3.794916 0.120169,0.830861 0.241083,1.661382 0.361328,2.478516 0.01428,0.09732 0.03045,0.194378 0.04883,0.291015 0.232363,1.220297 0.452946,2.291818 1.117188,3.710938 0.332122,0.709559 0.760361,1.555779 1.785156,2.556641 0.955765,0.933444 2.807459,1.934704 4.865234,2.076174 -0.665271,0.55769 -1.279075,1.15857 -1.644531,1.70312 -0.01983,0.0298 -0.03922,0.0597 -0.05859,0.0898 -1.325929,2.04308 -1.381121,6.59955 0.144532,8.76953 0.843684,1.2 2.919457,2.75258 4.5625,3.21094 1.643042,0.45837 2.740002,0.39244 3.8125,0.33594 l 0.0078,-0.002 c 1.308637,-0.0702 2.430308,-0.17605 3.513672,-0.29883 0.479758,-0.0154 0.827378,1.5e-4 0.949219,0.0117 0.02024,0.002 0.04029,0.004 0.06055,0.006 0.555611,0.0479 1.085241,0.10319 1.955078,0.0508 0.869837,-0.0524 2.037443,-0.35437 2.511719,-0.52734 0.07959,-0.0292 0.157852,-0.0598 0.236328,-0.0918 2.41423,-0.98109 5.214843,-4.76746 5.214843,-7.66211 0,-1.73067 -0.695419,-4.6191 -3.007812,-6.46875 -0.336203,-0.26892 -0.679724,-0.42761 -1.021485,-0.625 -7.88e-4,-0.22508 -0.0029,-0.417496 -0.0039,-0.630861 0.410005,0.06265 0.946367,0.296871 1.271485,0.296871 1.303835,0 3.119343,-0.113705 5.15039,-1.58398 2.031047,-1.470277 3.238281,-4.471839 3.238281,-6.404297 0,-0.975912 -0.05238,-1.370054 -0.175781,-2.193359 0.07456,-0.592219 0.155175,-1.163472 0.261719,-1.605469 l -0.01563,0.06445 c 0.595106,-2.370063 -0.746953,-6.808698 -3.097644,-8.55082 -1.580249,-1.147945 -3.671726,-1.733638 -5.455078,-1.746094 z m 0.0078,4 c 1.027538,0.0023 2.153264,0.326819 3.027344,0.962891 1.243685,0.895232 1.904489,3.046073 1.572265,4.371093 l 0.0078,-0.02734 c -0.173614,0.721273 -0.31128,1.533761 -0.40625,2.429687 0.003,-0.0018 0.0051,0.10439 0.03906,0.28711 0.0049,0.02663 0.0095,0.05333 0.01367,0.08008 0.127339,0.806136 0.15625,1.331457 0.15625,1.935546 0,1.017019 -0.578929,2.445559 -1.578125,3.169922 -0.999196,0.724356 -1.973058,0.81836 -2.791015,0.81836 -1.145193,0 -2.923752,-0.503406 -3.78125,-2.015625 -0.231245,-0.408446 -0.362536,-0.865376 -0.384766,-1.333985 -0.02576,-0.538137 0.0063,-1.291536 0.02734,-2.001953 -0.371788,0.0222 -0.728132,0.04582 -1.091797,0.07031 -0.0045,0.06334 -0.01103,0.126523 -0.01953,0.189453 -0.07006,0.515541 -0.12756,1.567967 -0.13086,2.984375 0.06761,0.694083 0.06943,1.403879 0.08789,2.695312 0.0206,1.44164 0.03125,3.411033 0.03125,5.921873 v 0.74024 c 0.807308,0.0199 1.68233,0.16688 2.507812,0.82812 1.135031,0.90921 1.503907,2.34118 1.503907,3.35156 0,1.5601 -1.356581,3.40586 -2.710938,3.95703 -0.03367,0.0136 -0.0674,0.0266 -0.101562,0.0391 -0.30237,0.11043 -0.884127,0.26139 -1.375,0.29101 -0.490871,0.0296 -0.873205,-0.003 -1.363281,-0.0449 -0.0085,-7e-4 -0.01689,-10e-4 -0.02539,-0.002 -0.359339,-0.0342 -0.869053,-0.0474 -1.496094,-0.0254 -1.040141,0.12579 -2.194557,0.22747 -3.558594,0.30078 h -0.002 c -0.871845,0.046 -1.617545,0.0595 -2.515625,-0.1914 -0.89808,-0.25091 -1.898732,-1.0093 -2.351562,-1.6543 -0.775283,-1.10431 -0.752306,-3.23635 -0.0625,-4.30078 0.0084,-0.0124 0.01679,-0.0248 0.02539,-0.0371 0.454573,-0.67832 1.368715,-1.45115 2.291016,-1.78321 0.360238,-0.12969 0.719465,-0.0938 1.068359,-0.15234 0.0049,-0.11813 0.0035,-0.26363 0.0098,-0.37695 -3e-6,-0.003 -3e-6,-0.005 0,-0.008 0.07061,-1.20863 0.07671,-3.08128 -0.002,-5.521486 -7e-4,-0.0026 -0.0013,-0.0052 -0.002,-0.0078 -0.07593,-2.559306 0.01766,-4.727305 0.08789,-6.949219 -0.327124,-0.0056 -0.543206,0.0039 -0.912109,-0.0059 0.07783,0.683533 0.245074,1.70077 0.271484,2.214844 0.0064,0.129543 0.0026,0.259384 -0.0078,0.388672 l -0.07813,1.005859 c -0.07204,1.026036 -0.892889,2.319485 -1.779297,2.824219 -0.886408,0.504738 -1.603685,0.537109 -2.222656,0.537109 -1.031238,0 -1.963291,-0.534931 -2.46875,-1.029297 -0.505457,-0.494366 -0.75378,-0.953809 -0.957031,-1.388672 -0.406504,-0.869725 -0.611714,-1.721864 -0.810547,-2.767578 -0.0081,-0.0415 -0.01518,-0.08319 -0.02148,-0.125 -0.161047,-1.095989 -0.321444,-2.205186 -0.482422,-3.326172 -0.0052,0.0059 -0.01605,0.0098 -0.01563,0.01758 -0.01062,-0.05121 -0.02484,-0.106196 -0.05078,-0.166016 -0.02847,-0.06545 -0.05441,-0.131909 -0.07813,-0.199219 -0.214241,-0.610511 -0.408067,-1.103465 -0.408067,-2.021274 0,-1.117294 0.793478,-2.592125 1.703125,-3.207031 0.909694,-0.614911 1.66471,-0.734423 2.380859,-0.841797 0.148344,-0.02221 0.299214,-0.03331 0.449219,-0.0332 0.389198,0 0.55558,0.03093 0.802735,0.06445 0.06767,0.0092 0.120084,0.01237 0.146484,0.01367 h 4.02539 5.673829 c 2.241794,-0.09364 4.478309,-0.375599 6.71875,-0.671874 0.690761,-0.142248 0.869528,-0.216848 1.414062,-0.273438 z m 0,3 c -0.0676,8.19e-4 -0.136933,0.0054 -0.207031,0.01172 -0.320449,0.07622 -0.558523,0.150335 -0.71875,0.226562 -2.296559,0.304911 -4.674077,0.609301 -7.13086,0.710938 h -5.769531 -4.166015 c -0.08011,0 -0.21151,-0.01561 -0.398438,-0.04102 -0.186929,-0.0254 -0.320279,-0.03711 -0.40039,-0.03711 -1.014748,0.152457 -1.523426,0.446806 -1.523426,1.082035 0,0.228683 0.07806,0.57193 0.238281,1.029297 0.186929,0.431955 0.283203,0.736198 0.283203,0.914062 0.160226,1.118004 0.320244,2.223814 0.480469,3.316407 0.347154,1.829461 0.773871,2.746093 1.28125,2.746093 0.640902,0 0.975247,-0.191128 1.001953,-0.572265 l 0.08008,-1.029297 c -0.05341,-1.041776 -0.26872,-2.781423 -0.642578,-5.220703 1.522138,-0.101644 2.338498,-0.154297 2.445313,-0.154297 2.269856,0.07622 3.918263,0.08793 4.746093,0.03711 l 0.121094,0.117188 c -0.186929,2.871237 -0.22791,6.110646 -0.121094,9.71875 0.08011,2.490099 0.08011,4.418919 0,5.791019 -0.0267,0.48277 -0.04102,1.0425 -0.04102,1.67773 0.02671,0.20328 0.04102,0.4178 0.04102,0.64649 0,0.43195 -0.513966,0.65039 -1.341796,0.65039 -1.575544,0 -2.149579,0.28084 -2.523438,0.83984 -0.213633,0.33032 -0.213633,0.64626 0,0.95117 0.32045,0.45737 0.800164,0.6485 2.242188,0.57227 1.415321,-0.0762 2.619367,-0.17765 3.607422,-0.30469 0.721012,-0.0254 1.346776,-0.0138 1.880859,0.0371 0.881238,0.0762 1.096203,0.0509 1.443359,-0.0762 0.560786,-0.22868 0.839844,-0.62068 0.839844,-1.17969 0,-0.94014 -0.506725,-1.3497 -1.521484,-1.22265 h -2.28125 c -0.133521,-0.17787 -0.201174,-0.48211 -0.201174,-0.91407 v -2.7832 c 0,-5.005611 -0.04098,-7.839366 -0.121094,-8.500003 0,-1.549961 0.05334,-2.716223 0.160156,-3.503907 l -0.160156,-1.373007 c -0.05341,-0.482773 -0.05341,-0.888431 0,-1.21875 2.189742,-0.203272 4.725496,-0.357348 7.208984,-0.458984 0.05341,0.05082 0.09439,0.07813 0.121094,0.07813 0,0.381139 -0.02862,1.143698 -0.08203,2.287109 -0.05341,0.965549 -0.06576,2.128499 -0.03906,2.6875 0.186929,0.330321 0.574617,0.492188 1.16211,0.492188 0.907941,0 1.361328,-0.327642 1.361328,-0.988281 0,-0.203272 -0.04098,-0.960565 -0.121094,-1.46875 -0.08011,-0.431956 -0.106789,-0.788858 -0.08008,-1.06836 0.106814,-1.041776 0.266837,-2.007163 0.480469,-2.896484 0.133518,-0.533592 1.73e-4,-0.93925 -0.400391,-1.21875 -0.350492,-0.26678 -0.761177,-0.396359 -1.234375,-0.390625 z"
       id="path3-3" />
    <path
       style="fill:#ffffff"
       d="m 40.306618,10.395009 c -3.6e-5,-3e-6 -1.234599,0.157482 -2.134766,0.328125 -2.116793,0.277701 -4.148068,0.528582 -6.082031,0.611328 H 26.53318 22.585915 c -0.241141,-0.03576 -0.416675,-0.07813 -1.033204,-0.07813 -0.349628,9.8e-5 -0.699194,0.02622 -1.044922,0.07813 -0.99451,0.148894 -2.255117,0.280885 -4.041015,1.486328 -1.785806,1.205521 -3.466797,4.334227 -3.466797,6.517578 0.07756,1.503623 0.441719,2.821685 0.718746,3.794917 0.120169,0.830861 0.241083,1.661382 0.361328,2.478516 0.01428,0.09732 0.03045,0.194378 0.04883,0.291015 0.232363,1.220297 0.452946,2.291818 1.117188,3.710938 0.332122,0.709559 0.760361,1.555779 1.785156,2.556641 0.955765,0.933447 2.807459,1.934704 4.865234,2.076174 -0.665271,0.55769 -1.279075,1.15857 -1.644531,1.70312 -0.01983,0.0298 -0.03922,0.0597 -0.05859,0.0898 -1.325929,2.04308 -1.381121,6.59955 0.144532,8.76953 0.843684,1.2 2.919457,2.75258 4.5625,3.21094 1.643042,0.45837 2.740002,0.39244 3.8125,0.33594 l 0.0078,-0.002 c 1.308637,-0.0702 2.430308,-0.17605 3.513672,-0.29883 0.479758,-0.0154 0.827378,1.5e-4 0.949219,0.0117 0.02024,0.002 0.04029,0.004 0.06055,0.006 0.555611,0.0479 1.085241,0.10319 1.955078,0.0508 0.869837,-0.0524 2.037443,-0.35437 2.511719,-0.52734 0.07959,-0.0292 0.157852,-0.0598 0.236328,-0.0918 2.41423,-0.98109 5.214843,-4.76746 5.214843,-7.66211 0,-1.73067 -0.695419,-4.6191 -3.007812,-6.468751 -0.336203,-0.268924 -0.679724,-0.427612 -1.021485,-0.625 -7.88e-4,-0.225078 -0.0029,-0.417495 -0.0039,-0.63086 0.410005,0.06265 0.946367,0.296875 1.271485,0.296875 1.303835,0 3.119343,-0.113709 5.15039,-1.583984 2.031047,-1.470277 3.238281,-4.471839 3.238281,-6.404297 0,-0.975912 -0.05238,-1.370054 -0.175781,-2.193359 0.07456,-0.592219 0.155175,-1.163472 0.261719,-1.605469 l -0.01563,0.06445 c 0.5951,-2.370004 -0.746959,-6.808639 -3.09765,-8.550761 -1.580249,-1.148005 -3.671726,-1.733698 -5.455078,-1.746154 z m 0.0078,4 c 1.027538,0.0023 2.153264,0.326819 3.027344,0.962891 1.243685,0.895232 1.904489,3.046073 1.572265,4.371093 l 0.0078,-0.02734 c -0.173614,0.721273 -0.31128,1.533761 -0.40625,2.429687 0.003,-0.0018 0.0051,0.10439 0.03906,0.28711 0.0049,0.02663 0.0095,0.05333 0.01367,0.08008 0.127339,0.806136 0.15625,1.331457 0.15625,1.935546 0,1.017019 -0.578929,2.445559 -1.578125,3.169922 -0.999196,0.724356 -1.973058,0.81836 -2.791015,0.81836 -1.145193,0 -2.923752,-0.503406 -3.78125,-2.015625 -0.231245,-0.408446 -0.362536,-0.865376 -0.384766,-1.333985 -0.02576,-0.538137 0.0063,-1.291536 0.02734,-2.001953 -0.371788,0.0222 -0.728132,0.04582 -1.091797,0.07031 -0.0045,0.06334 -0.01103,0.126523 -0.01953,0.189453 -0.07006,0.515541 -0.12756,1.567967 -0.13086,2.984375 0.06761,0.694083 0.06943,1.403879 0.08789,2.695312 0.0206,1.44164 0.03125,3.411036 0.03125,5.921874 v 0.74024 c 0.807308,0.0199 1.68233,0.16687 2.507812,0.82812 1.135031,0.90921 1.503907,2.34118 1.503907,3.35156 0,1.5601 -1.356581,3.40586 -2.710938,3.95703 -0.03367,0.0136 -0.0674,0.0266 -0.101562,0.0391 -0.30237,0.11044 -0.884127,0.2614 -1.375,0.29102 -0.490871,0.0296 -0.873205,-0.003 -1.363281,-0.0449 -0.0085,-7e-4 -0.01689,-0.001 -0.02539,-0.002 -0.359339,-0.0342 -0.869053,-0.0474 -1.496094,-0.0254 -1.040141,0.12579 -2.194557,0.22747 -3.558594,0.30078 h -0.002 c -0.871845,0.046 -1.617545,0.0595 -2.515625,-0.1914 -0.89808,-0.25091 -1.898732,-1.0093 -2.351562,-1.6543 -0.775283,-1.10431 -0.752306,-3.23635 -0.0625,-4.30078 0.0084,-0.0124 0.01679,-0.0248 0.02539,-0.0371 0.454573,-0.67832 1.368715,-1.45115 2.291016,-1.78321 0.360238,-0.12969 0.719465,-0.0938 1.068359,-0.15234 0.0049,-0.11813 0.0035,-0.26363 0.0098,-0.37695 -3e-6,-0.003 -3e-6,-0.005 0,-0.008 0.07061,-1.20863 0.07671,-3.081285 -0.002,-5.521487 -7e-4,-0.0026 -0.0013,-0.0052 -0.002,-0.0078 -0.07593,-2.559306 0.01766,-4.727305 0.08789,-6.949219 -0.327124,-0.0056 -0.543206,0.0039 -0.912109,-0.0059 0.07783,0.683533 0.245074,1.70077 0.271484,2.214844 0.0064,0.129543 0.0026,0.259384 -0.0078,0.388672 l -0.07813,1.005859 c -0.07204,1.026036 -0.892889,2.319485 -1.779297,2.824219 -0.886408,0.504738 -1.603685,0.537109 -2.222656,0.537109 -1.031238,0 -1.963291,-0.534931 -2.46875,-1.029297 -0.505457,-0.494366 -0.75378,-0.953809 -0.957031,-1.388672 -0.406504,-0.869725 -0.611714,-1.721864 -0.810547,-2.767578 -0.0081,-0.0415 -0.01518,-0.08319 -0.02148,-0.125 -0.161047,-1.095989 -0.321444,-2.205186 -0.482422,-3.326172 -0.0052,0.0059 -0.01605,0.0098 -0.01563,0.01758 -0.01062,-0.05121 -0.02484,-0.106196 -0.05078,-0.166016 -0.02847,-0.06545 -0.05441,-0.131909 -0.07813,-0.199219 -0.214241,-0.610521 -0.408067,-1.103475 -0.408067,-2.021284 0,-1.117294 0.793478,-2.592125 1.703125,-3.207031 0.909694,-0.614911 1.66471,-0.734423 2.380859,-0.841797 0.148344,-0.02221 0.299214,-0.03331 0.449219,-0.0332 0.389198,0 0.55558,0.03093 0.802735,0.06445 0.06767,0.0092 0.120084,0.01237 0.146484,0.01367 h 4.02539 5.673829 c 2.241794,-0.09364 4.478309,-0.375599 6.71875,-0.671874 0.690761,-0.142247 0.869528,-0.216847 1.414062,-0.273437 z m 0,3 c -0.0676,8.19e-4 -0.136933,0.0054 -0.207031,0.01172 -0.320449,0.07622 -0.558523,0.150335 -0.71875,0.226562 -2.296559,0.304911 -4.674077,0.609301 -7.13086,0.710938 h -5.769531 -4.166015 c -0.08011,0 -0.21151,-0.01561 -0.398438,-0.04102 -0.186929,-0.0254 -0.320279,-0.03711 -0.40039,-0.03711 -1.014748,0.152457 -1.523426,0.446806 -1.523426,1.082035 0,0.228683 0.07806,0.57193 0.238281,1.029297 0.186929,0.431955 0.283203,0.736198 0.283203,0.914062 0.160226,1.118004 0.320244,2.223814 0.480469,3.316407 0.347154,1.829461 0.773871,2.746093 1.28125,2.746093 0.640902,0 0.975247,-0.191128 1.001953,-0.572265 l 0.08008,-1.029297 c -0.05341,-1.041776 -0.26872,-2.781423 -0.642578,-5.220703 1.522138,-0.101644 2.338498,-0.154297 2.445313,-0.154297 2.269856,0.07622 3.918263,0.08793 4.746093,0.03711 l 0.121094,0.117188 c -0.186929,2.871237 -0.22791,6.110646 -0.121094,9.71875 0.08011,2.490099 0.08011,4.41892 0,5.79102 -0.0267,0.48277 -0.04102,1.0425 -0.04102,1.67773 0.02671,0.20327 0.04102,0.4178 0.04102,0.64648 0,0.43196 -0.513966,0.65039 -1.341796,0.65039 -1.575544,0 -2.149579,0.28085 -2.523438,0.83985 -0.213633,0.33032 -0.213633,0.64626 0,0.95117 0.32045,0.45736 0.800164,0.64849 2.242188,0.57227 1.415321,-0.0762 2.619367,-0.17765 3.607422,-0.30469 0.721012,-0.0254 1.346776,-0.0138 1.880859,0.0371 0.881238,0.0762 1.096203,0.0509 1.443359,-0.0762 0.560786,-0.22868 0.839844,-0.62069 0.839844,-1.17969 0,-0.94014 -0.506725,-1.3497 -1.521484,-1.22266 h -2.28125 c -0.133519,-0.17786 -0.201172,-0.4821 -0.201172,-0.91406 v -2.7832 c 0,-5.005608 -0.04098,-7.839363 -0.121094,-8.5 0,-1.549961 0.05334,-2.716223 0.160156,-3.503907 l -0.160158,-1.373011 c -0.05341,-0.482773 -0.05341,-0.888431 0,-1.21875 2.189742,-0.203272 4.725496,-0.357348 7.208984,-0.458984 0.05341,0.05082 0.09439,0.07813 0.121094,0.07813 0,0.381139 -0.02862,1.143698 -0.08203,2.287109 -0.05341,0.965549 -0.06576,2.128499 -0.03906,2.6875 0.186929,0.330321 0.574617,0.492188 1.16211,0.492188 0.907941,0 1.361328,-0.327642 1.361328,-0.988281 0,-0.203272 -0.04098,-0.960565 -0.121094,-1.46875 -0.08011,-0.431956 -0.106789,-0.788858 -0.08008,-1.06836 0.106814,-1.041776 0.266837,-2.007163 0.480469,-2.896484 0.133518,-0.533592 1.73e-4,-0.93925 -0.400391,-1.21875 -0.350494,-0.266785 -0.761179,-0.396364 -1.234377,-0.39063 z"
       id="path4-6" />
  </g>
</svg>
