<?xml version="1.0" encoding="UTF-8" standalone="no"?>
<svg
   width="62"
   height="62"
   version="1.1"
   id="svg4"
   sodipodi:docname="tuxcut.svg"
   inkscape:version="1.4 (unknown)"
   xmlns:inkscape="http://www.inkscape.org/namespaces/inkscape"
   xmlns:sodipodi="http://sodipodi.sourceforge.net/DTD/sodipodi-0.dtd"
   xmlns="http://www.w3.org/2000/svg"
   xmlns:svg="http://www.w3.org/2000/svg">
  <defs
     id="defs4" />
  <sodipodi:namedview
     id="namedview4"
     pagecolor="#ffffff"
     bordercolor="#000000"
     borderopacity="0.25"
     inkscape:showpageshadow="2"
     inkscape:pageopacity="0.0"
     inkscape:pagecheckerboard="0"
     inkscape:deskcolor="#d1d1d1"
     inkscape:zoom="7.0710678"
     inkscape:cx="3.7476659"
     inkscape:cy="57.063517"
     inkscape:window-width="1920"
     inkscape:window-height="998"
     inkscape:window-x="0"
     inkscape:window-y="0"
     inkscape:window-maximized="1"
     inkscape:current-layer="svg4" />
  <ellipse
     style="opacity:0.2;stroke-width:0.9823"
     cx="31"
     cy="31.491228"
     id="circle1"
     rx="27.5"
     ry="27.508772" />
  <ellipse
     style="fill:#2d3d53;fill-opacity:1;stroke-width:0.9823"
     cx="31"
     cy="30.508772"
     id="circle2"
     rx="27.5"
     ry="27.508772" />
  <path
     style="opacity:0.1;fill:#ffffff;stroke-width:0.9823"
     d="M 31,3 A 27.5,27.508772 0 0 0 3.4999999,30.508772 27.5,27.508772 0 0 0 3.5326101,30.98273 27.5,27.508772 0 0 1 31,3.9824562 27.5,27.508772 0 0 1 58.482736,30.746711 27.5,27.508772 0 0 0 58.5,30.508772 27.5,27.508772 0 0 0 31,3 Z"
     id="path4" />
  <g
     id="g1"
     transform="matrix(1.003376,0,0,1,81.519563,-9.3538762)">
    <path
       style="opacity:0.2;stroke-width:1.02778"
       d="m -66.295749,22.381913 v 3.661469 c 4.52866,5.778917 9.23276,11.306507 14.087817,16.593031 0.637644,-0.67544 1.270846,-1.358775 1.902998,-2.043519 -5.148758,-5.604256 -10.128033,-11.489007 -14.910844,-17.664972 a 1.3713703,1.4237018 0 0 0 -1.027779,-0.546009 1.3713703,1.4237018 0 0 0 -0.05219,0 z m 32.836775,0 a 1.3713703,1.4237018 0 0 0 -1.027781,0.546009 c -7.003072,9.042953 -14.396995,17.512912 -22.185598,25.293029 l 1.935117,2.015413 c 7.479285,-7.474076 14.583123,-15.582863 21.330454,-24.192982 v -3.661469 a 1.3713703,1.4237018 0 0 0 -0.05219,0 z M -47.474523,43.62806 c -0.63263,0.685005 -1.264691,1.371582 -1.903,2.047526 1.459593,1.537495 2.922899,3.072483 4.41223,4.560778 l 1.935114,-2.015413 c -1.500011,-1.498376 -2.973558,-3.044166 -4.444344,-4.592891 z m -9.687631,5.090723 c -0.325539,0.32324 -0.660745,0.634634 -0.987633,0.955512 l -0.132482,-0.148555 a 0.68592971,0.7121632 0 0 0 -0.485788,-0.232853 0.68592971,0.7121632 0 0 0 -0.517904,1.204427 l 0.132479,0.144529 c -2.204627,2.138567 -4.428023,4.245018 -6.696628,6.267051 a 1.3723627,1.424732 0 0 0 1.786571,2.155926 c 2.299268,-2.049363 4.553658,-4.177023 6.784955,-6.343329 l 0.05219,0.0562 a 0.68616443,0.71240691 0 1 0 0.999677,-0.975566 l -0.04819,-0.05621 c 0.347595,-0.341343 0.701714,-0.667864 1.047856,-1.01172 z m 14.621779,0 -1.935119,2.015414 c 0.346143,0.343857 0.700261,0.670377 1.047855,1.01172 l -0.04819,0.0562 a 0.68616443,0.71240691 0 1 0 0.99968,0.975587 l 0.05219,-0.0562 c 2.231297,2.166306 4.485687,4.293967 6.784954,6.343328 a 1.3723627,1.424732 0 0 0 1.786572,-2.155926 c -2.268601,-2.02203 -4.491997,-4.128481 -6.696627,-6.26705 l 0.132482,-0.144527 a 0.68592971,0.7121632 0 0 0 -0.517904,-1.204427 0.68592971,0.7121632 0 0 0 -0.485787,0.232855 l -0.132482,0.148553 c -0.326888,-0.320893 -0.662094,-0.632287 -0.987631,-0.955527 z"
       id="path2-6" />
    <path
       style="fill:#ffffff;stroke-width:1.02778"
       d="M -66.295749,21.354134 V 25.0156 c 4.52866,5.778923 9.23276,11.306508 14.087817,16.593032 0.637644,-0.675438 1.270846,-1.358776 1.902998,-2.043517 -5.148758,-5.604258 -10.128033,-11.489007 -14.910844,-17.664972 a 1.3713703,1.4237018 0 0 0 -1.027779,-0.546009 1.3713703,1.4237018 0 0 0 -0.05219,0 z m 32.836775,0 a 1.3713703,1.4237018 0 0 0 -1.027781,0.546009 c -7.003072,9.042954 -14.396995,17.512912 -22.185598,25.293027 l 1.935117,2.015415 c 7.479285,-7.474077 14.583123,-15.582864 21.330454,-24.192985 v -3.661466 a 1.3713703,1.4237018 0 0 0 -0.05219,0 z M -47.474523,42.60028 c -0.63263,0.685005 -1.264691,1.37158 -1.903,2.047529 1.459593,1.537491 2.922899,3.072481 4.41223,4.560776 l 1.935114,-2.015415 c -1.500011,-1.498375 -2.973558,-3.044165 -4.444344,-4.59289 z m -9.687631,5.090723 c -0.325539,0.323239 -0.660745,0.634633 -0.987633,0.955515 l -0.132482,-0.148555 a 0.68592971,0.7121632 0 0 0 -0.485788,-0.232856 0.68592971,0.7121632 0 0 0 -0.517904,1.204429 l 0.132479,0.144526 c -2.204627,2.13857 -4.428023,4.245019 -6.696628,6.26705 a 1.3723627,1.424732 0 0 0 1.786571,2.155931 c 2.299268,-2.049364 4.553658,-4.17703 6.784955,-6.343331 l 0.05219,0.0562 a 0.68616443,0.71240691 0 1 0 0.999677,-0.975569 l -0.04819,-0.05621 c 0.347595,-0.34134 0.701714,-0.667859 1.047856,-1.011718 z m 14.621779,0 -1.935119,2.015413 c 0.346143,0.343859 0.700261,0.670378 1.047855,1.011718 l -0.04819,0.0562 a 0.68616443,0.71240691 0 1 0 0.99968,0.97559 l 0.05219,-0.0562 c 2.231297,2.166304 4.485687,4.293968 6.784954,6.343331 a 1.3723627,1.424732 0 0 0 1.786572,-2.15593 c -2.268601,-2.022029 -4.491997,-4.128478 -6.696627,-6.267047 l 0.132482,-0.144528 a 0.68592971,0.7121632 0 0 0 -0.517905,-1.204428 0.68592971,0.7121632 0 0 0 -0.485787,0.232857 l -0.132482,0.148554 c -0.326888,-0.320896 -0.662094,-0.63229 -0.98763,-0.955529 z"
       id="path3" />
  </g>
</svg>
