<?xml version="1.0" encoding="UTF-8" standalone="no"?>
<svg
   version="1.1"
   viewBox="0 0 62 62"
   id="svg2"
   xml:space="preserve"
   inkscape:version="1.4 (unknown)"
   sodipodi:docname="tw.ddnet.ddnet.svg"
   width="62"
   height="62"
   xmlns:inkscape="http://www.inkscape.org/namespaces/inkscape"
   xmlns:sodipodi="http://sodipodi.sourceforge.net/DTD/sodipodi-0.dtd"
   xmlns="http://www.w3.org/2000/svg"
   xmlns:svg="http://www.w3.org/2000/svg"
   xmlns:rdf="http://www.w3.org/1999/02/22-rdf-syntax-ns#"
   xmlns:cc="http://creativecommons.org/ns#"
   xmlns:dc="http://purl.org/dc/elements/1.1/"><sodipodi:namedview
     pagecolor="#ffffff"
     bordercolor="#666666"
     borderopacity="1"
     objecttolerance="10"
     gridtolerance="10"
     guidetolerance="10"
     inkscape:pageopacity="0"
     inkscape:pageshadow="2"
     inkscape:window-width="1920"
     inkscape:window-height="998"
     id="namedview4865"
     showgrid="false"
     fit-margin-top="20"
     fit-margin-left="20"
     fit-margin-bottom="20"
     fit-margin-right="20"
     inkscape:zoom="6.72"
     inkscape:cx="30.282738"
     inkscape:cy="28.422619"
     inkscape:window-x="0"
     inkscape:window-y="0"
     inkscape:window-maximized="1"
     inkscape:current-layer="svg2"
     inkscape:document-rotation="0"
     inkscape:showpageshadow="2"
     inkscape:pagecheckerboard="0"
     inkscape:deskcolor="#d1d1d1" /><metadata
     id="metadata8"><rdf:RDF><cc:Work
         rdf:about=""><dc:format>image/svg+xml</dc:format><dc:type
           rdf:resource="http://purl.org/dc/dcmitype/StillImage" /></cc:Work></rdf:RDF></metadata><defs
     id="defs6"><clipPath
       id="clipPath100"><path
         d="M 0,0 H 1440 V 320 H 0 Z"
         id="path102"
         inkscape:connector-curvature="0" /></clipPath><mask
       id="mask104"><g
         id="g106"><g
           clip-path="url(#clipPath100)"
           id="g108"><path
             d="M 0,0 H 1440 V 320 H 0 Z"
             id="path110"
             style="fill:#000000;fill-opacity:0.2;fill-rule:nonzero;stroke:none"
             inkscape:connector-curvature="0" /></g></g></mask><clipPath
       id="clipPath116"><path
         d="M 0,0 H 1440 V 320 H 0 Z"
         id="path118"
         inkscape:connector-curvature="0" /></clipPath><clipPath
       id="clipPath120"><path
         d="M 0,0 H 1440 V 320 H 0 Z"
         id="path122"
         inkscape:connector-curvature="0" /></clipPath><pattern
       id="pattern124"
       height="320"
       width="1440"
       y="0"
       x="0"
       patternUnits="userSpaceOnUse"><g
         id="g126" /><g
         id="g128"><g
           id="g130"
           clip-path="url(#clipPath120)"><g
             id="g132"><path
               id="path134"
               style="fill:#000000;fill-opacity:1;fill-rule:nonzero;stroke:none"
               d="m 323.945,218.777 c 6.078,-8.867 -1.269,-10.64 -12.543,-10.515 -11.277,0.129 -14.886,-0.379 -16.218,1.84 -1.329,2.214 0.699,-4.309 2.789,-4.625 2.089,-0.317 21.535,-0.508 26.289,1.394 4.75,1.899 5.004,3.418 3.609,6.965 -1.394,3.551 -4.117,5.004 -3.926,4.941 z" /></g></g></g></pattern><clipPath
       id="clipPath170"><path
         d="M 0,0 H 1440 V 320 H 0 Z"
         id="path172"
         inkscape:connector-curvature="0" /></clipPath><mask
       id="mask174"><g
         id="g176"><g
           clip-path="url(#clipPath170)"
           id="g178"><path
             d="M 0,0 H 1440 V 320 H 0 Z"
             id="path180"
             style="fill:#000000;fill-opacity:0.2;fill-rule:nonzero;stroke:none"
             inkscape:connector-curvature="0" /></g></g></mask><clipPath
       id="clipPath186"><path
         d="M 0,0 H 1440 V 320 H 0 Z"
         id="path188"
         inkscape:connector-curvature="0" /></clipPath><clipPath
       id="clipPath190"><path
         d="M 0,0 H 1440 V 320 H 0 Z"
         id="path192"
         inkscape:connector-curvature="0" /></clipPath><pattern
       id="pattern194"
       height="320"
       width="1440"
       y="0"
       x="0"
       patternUnits="userSpaceOnUse"><g
         id="g196" /><g
         id="g198"><g
           id="g200"
           clip-path="url(#clipPath190)"><g
             id="g202"><path
               id="path204"
               style="fill:#000000;fill-opacity:1;fill-rule:nonzero;stroke:none"
               d="m 350.438,218.777 c 6.082,-8.867 -1.266,-10.64 -12.543,-10.515 -11.278,0.129 -14.887,-0.379 -16.215,1.84 -1.332,2.214 0.695,-4.309 2.785,-4.625 2.09,-0.317 21.539,-0.508 26.289,1.394 4.75,1.899 5.004,3.418 3.609,6.965 -1.39,3.551 -4.117,5.004 -3.925,4.941 z" /></g></g></g></pattern><clipPath
       id="clipPath226"><path
         d="M 0,0 H 1440 V 320 H 0 Z"
         id="path228"
         inkscape:connector-curvature="0" /></clipPath><mask
       id="mask230"><g
         id="g232"><g
           clip-path="url(#clipPath226)"
           id="g234"><path
             d="M 0,0 H 1440 V 320 H 0 Z"
             id="path236"
             style="fill:#000000;fill-opacity:0.2;fill-rule:nonzero;stroke:none"
             inkscape:connector-curvature="0" /></g></g></mask><clipPath
       id="clipPath242"><path
         d="M 0,0 H 1440 V 320 H 0 Z"
         id="path244"
         inkscape:connector-curvature="0" /></clipPath><clipPath
       id="clipPath246"><path
         d="M 0,0 H 1440 V 320 H 0 Z"
         id="path248"
         inkscape:connector-curvature="0" /></clipPath><pattern
       id="pattern250"
       height="320"
       width="1440"
       y="0"
       x="0"
       patternUnits="userSpaceOnUse"><g
         id="g252" /><g
         id="g254"><g
           id="g256"
           clip-path="url(#clipPath246)"><g
             id="g258"><path
               id="path260"
               style="fill:#000000;fill-opacity:1;fill-rule:nonzero;stroke:none"
               d="m 81.828,141.145 c 7.988,-11.653 -1.664,-13.985 -16.48,-13.817 -14.817,0.164 -19.563,-0.5 -21.313,2.414 -1.746,2.914 0.918,-5.66 3.664,-6.078 2.746,-0.414 28.301,-0.664 34.543,1.832 6.242,2.496 6.578,4.496 4.746,9.156 -1.832,4.66 -5.41,6.575 -5.16,6.493 z" /></g></g></g></pattern><clipPath
       id="clipPath296"><path
         d="M 0,0 H 1440 V 320 H 0 Z"
         id="path298"
         inkscape:connector-curvature="0" /></clipPath><mask
       id="mask300"><g
         id="g302"><g
           clip-path="url(#clipPath296)"
           id="g304"><path
             d="M 0,0 H 1440 V 320 H 0 Z"
             id="path306"
             style="fill:#000000;fill-opacity:0.2;fill-rule:nonzero;stroke:none"
             inkscape:connector-curvature="0" /></g></g></mask><clipPath
       id="clipPath312"><path
         d="M 0,0 H 1440 V 320 H 0 Z"
         id="path314"
         inkscape:connector-curvature="0" /></clipPath><clipPath
       id="clipPath316"><path
         d="M 0,0 H 1440 V 320 H 0 Z"
         id="path318"
         inkscape:connector-curvature="0" /></clipPath><pattern
       id="pattern320"
       height="320"
       width="1440"
       y="0"
       x="0"
       patternUnits="userSpaceOnUse"><g
         id="g322" /><g
         id="g324"><g
           id="g326"
           clip-path="url(#clipPath316)"><g
             id="g328"><path
               id="path330"
               style="fill:#000000;fill-opacity:1;fill-rule:nonzero;stroke:none"
               d="m 116.641,141.145 c 7.992,-11.653 -1.664,-13.985 -16.481,-13.817 -14.816,0.164 -19.562,-0.5 -21.308,2.414 -1.75,2.914 0.914,-5.66 3.66,-6.078 2.746,-0.414 28.3,-0.664 34.547,1.832 6.242,2.496 6.574,4.496 4.742,9.156 -1.832,4.66 -5.41,6.575 -5.16,6.493 z" /></g></g></g></pattern><clipPath
       id="clipPath352"><path
         d="M 0,0 H 1440 V 320 H 0 Z"
         id="path354"
         inkscape:connector-curvature="0" /></clipPath><mask
       id="mask356"><g
         id="g358"><g
           clip-path="url(#clipPath352)"
           id="g360"><path
             d="M 0,0 H 1440 V 320 H 0 Z"
             id="path362"
             style="fill:#000000;fill-opacity:0.2;fill-rule:nonzero;stroke:none"
             inkscape:connector-curvature="0" /></g></g></mask><clipPath
       id="clipPath368"><path
         d="M 0,0 H 1440 V 320 H 0 Z"
         id="path370"
         inkscape:connector-curvature="0" /></clipPath><clipPath
       id="clipPath372"><path
         d="M 0,0 H 1440 V 320 H 0 Z"
         id="path374"
         inkscape:connector-curvature="0" /></clipPath><pattern
       id="pattern376"
       height="320"
       width="1440"
       y="0"
       x="0"
       patternUnits="userSpaceOnUse"><g
         id="g378" /><g
         id="g380"><g
           id="g382"
           clip-path="url(#clipPath372)"><g
             id="g384"><path
               id="path386"
               style="fill:#000000;fill-opacity:1;fill-rule:nonzero;stroke:none"
               d="m 134.754,269.227 c 5.066,-7.391 -1.055,-8.868 -10.449,-8.762 -9.395,0.105 -12.407,-0.317 -13.512,1.531 -1.109,1.844 0.578,-3.59 2.32,-3.855 1.742,-0.262 17.946,-0.422 21.903,1.164 3.961,1.582 4.172,2.847 3.011,5.804 -1.164,2.953 -3.433,4.168 -3.273,4.118 z" /></g></g></g></pattern><clipPath
       id="clipPath422"><path
         d="M 0,0 H 1440 V 320 H 0 Z"
         id="path424"
         inkscape:connector-curvature="0" /></clipPath><mask
       id="mask426"><g
         id="g428"><g
           clip-path="url(#clipPath422)"
           id="g430"><path
             d="M 0,0 H 1440 V 320 H 0 Z"
             id="path432"
             style="fill:#000000;fill-opacity:0.2;fill-rule:nonzero;stroke:none"
             inkscape:connector-curvature="0" /></g></g></mask><clipPath
       id="clipPath438"><path
         d="M 0,0 H 1440 V 320 H 0 Z"
         id="path440"
         inkscape:connector-curvature="0" /></clipPath><clipPath
       id="clipPath442"><path
         d="M 0,0 H 1440 V 320 H 0 Z"
         id="path444"
         inkscape:connector-curvature="0" /></clipPath><pattern
       id="pattern446"
       height="320"
       width="1440"
       y="0"
       x="0"
       patternUnits="userSpaceOnUse"><g
         id="g448" /><g
         id="g450"><g
           id="g452"
           clip-path="url(#clipPath442)"><g
             id="g454"><path
               id="path456"
               style="fill:#000000;fill-opacity:1;fill-rule:nonzero;stroke:none"
               d="m 156.828,269.227 c 5.067,-7.391 -1.055,-8.868 -10.449,-8.762 -9.399,0.105 -12.406,-0.317 -13.512,1.531 -1.109,1.844 0.578,-3.59 2.321,-3.855 1.742,-0.262 17.945,-0.422 21.902,1.164 3.961,1.582 4.172,2.847 3.008,5.804 -1.16,2.953 -3.43,4.168 -3.27,4.118 z" /></g></g></g></pattern><clipPath
       id="clipPath478"><path
         d="M 0,0 H 1440 V 320 H 0 Z"
         id="path480"
         inkscape:connector-curvature="0" /></clipPath><mask
       id="mask482"><g
         id="g484"><g
           clip-path="url(#clipPath478)"
           id="g486"><path
             d="M 0,0 H 1440 V 320 H 0 Z"
             id="path488"
             style="fill:#000000;fill-opacity:0.2;fill-rule:nonzero;stroke:none"
             inkscape:connector-curvature="0" /></g></g></mask><clipPath
       id="clipPath494"><path
         d="M 0,0 H 1440 V 320 H 0 Z"
         id="path496"
         inkscape:connector-curvature="0" /></clipPath><clipPath
       id="clipPath498"><path
         d="M 0,0 H 1440 V 320 H 0 Z"
         id="path500"
         inkscape:connector-curvature="0" /></clipPath><pattern
       id="pattern502"
       height="320"
       width="1440"
       y="0"
       x="0"
       patternUnits="userSpaceOnUse"><g
         id="g504" /><g
         id="g506"><g
           id="g508"
           clip-path="url(#clipPath498)"><g
             id="g510"><path
               id="path512"
               style="fill:#000000;fill-opacity:1;fill-rule:nonzero;stroke:none"
               d="m 225.184,53.727 c 10.726,-15.641 -2.235,-18.77 -22.122,-18.547 -19.886,0.222 -26.257,-0.672 -28.601,3.238 -2.348,3.91 1.227,-7.598 4.914,-8.156 3.687,-0.559 37.988,-0.891 46.367,2.461 8.379,3.351 8.828,6.031 6.371,12.289 -2.461,6.258 -7.265,8.828 -6.929,8.715 z" /></g></g></g></pattern><clipPath
       id="clipPath548"><path
         d="M 0,0 H 1440 V 320 H 0 Z"
         id="path550"
         inkscape:connector-curvature="0" /></clipPath><mask
       id="mask552"><g
         id="g554"><g
           clip-path="url(#clipPath548)"
           id="g556"><path
             d="M 0,0 H 1440 V 320 H 0 Z"
             id="path558"
             style="fill:#000000;fill-opacity:0.2;fill-rule:nonzero;stroke:none"
             inkscape:connector-curvature="0" /></g></g></mask><clipPath
       id="clipPath564"><path
         d="M 0,0 H 1440 V 320 H 0 Z"
         id="path566"
         inkscape:connector-curvature="0" /></clipPath><clipPath
       id="clipPath568"><path
         d="M 0,0 H 1440 V 320 H 0 Z"
         id="path570"
         inkscape:connector-curvature="0" /></clipPath><pattern
       id="pattern572"
       height="320"
       width="1440"
       y="0"
       x="0"
       patternUnits="userSpaceOnUse"><g
         id="g574" /><g
         id="g576"><g
           id="g578"
           clip-path="url(#clipPath568)"><g
             id="g580"><path
               id="path582"
               style="fill:#000000;fill-opacity:1;fill-rule:nonzero;stroke:none"
               d="m 271.914,53.727 c 10.727,-15.641 -2.234,-18.77 -22.121,-18.547 -19.891,0.222 -26.258,-0.672 -28.605,3.238 -2.344,3.91 1.23,-7.598 4.917,-8.156 3.688,-0.559 37.989,-0.891 46.368,2.461 8.379,3.351 8.824,6.031 6.367,12.289 -2.457,6.258 -7.262,8.828 -6.926,8.715 z" /></g></g></g></pattern><clipPath
       id="clipPath604"><path
         d="M 0,0 H 1440 V 320 H 0 Z"
         id="path606"
         inkscape:connector-curvature="0" /></clipPath><mask
       id="mask608"><g
         id="g610"><g
           clip-path="url(#clipPath604)"
           id="g612"><path
             d="M 0,0 H 1440 V 320 H 0 Z"
             id="path614"
             style="fill:#000000;fill-opacity:0.2;fill-rule:nonzero;stroke:none"
             inkscape:connector-curvature="0" /></g></g></mask><clipPath
       id="clipPath620"><path
         d="M 0,0 H 1440 V 320 H 0 Z"
         id="path622"
         inkscape:connector-curvature="0" /></clipPath><clipPath
       id="clipPath624"><path
         d="M 0,0 H 1440 V 320 H 0 Z"
         id="path626"
         inkscape:connector-curvature="0" /></clipPath><pattern
       id="pattern628"
       height="320"
       width="1440"
       y="0"
       x="0"
       patternUnits="userSpaceOnUse"><g
         id="g630" /><g
         id="g632"><g
           id="g634"
           clip-path="url(#clipPath624)"><g
             id="g636"><path
               id="path638"
               style="fill:#000000;fill-opacity:1;fill-rule:nonzero;stroke:none"
               d="m 502.84,256.66 c 5.199,-7.582 -1.082,-9.098 -10.723,-8.992 -9.64,0.109 -12.73,-0.324 -13.867,1.57 -1.137,1.899 0.598,-3.679 2.383,-3.953 1.789,-0.269 18.414,-0.433 22.476,1.192 4.063,1.625 4.282,2.925 3.09,5.957 -1.191,3.035 -3.523,4.281 -3.359,4.226 z" /></g></g></g></pattern><clipPath
       id="clipPath674"><path
         d="M 0,0 H 1440 V 320 H 0 Z"
         id="path676"
         inkscape:connector-curvature="0" /></clipPath><mask
       id="mask678"><g
         id="g680"><g
           clip-path="url(#clipPath674)"
           id="g682"><path
             d="M 0,0 H 1440 V 320 H 0 Z"
             id="path684"
             style="fill:#000000;fill-opacity:0.2;fill-rule:nonzero;stroke:none"
             inkscape:connector-curvature="0" /></g></g></mask><clipPath
       id="clipPath690"><path
         d="M 0,0 H 1440 V 320 H 0 Z"
         id="path692"
         inkscape:connector-curvature="0" /></clipPath><clipPath
       id="clipPath694"><path
         d="M 0,0 H 1440 V 320 H 0 Z"
         id="path696"
         inkscape:connector-curvature="0" /></clipPath><pattern
       id="pattern698"
       height="320"
       width="1440"
       y="0"
       x="0"
       patternUnits="userSpaceOnUse"><g
         id="g700" /><g
         id="g702"><g
           id="g704"
           clip-path="url(#clipPath694)"><g
             id="g706"><path
               id="path708"
               style="fill:#000000;fill-opacity:1;fill-rule:nonzero;stroke:none"
               d="m 525.492,256.66 c 5.199,-7.582 -1.082,-9.098 -10.722,-8.992 -9.641,0.109 -12.731,-0.324 -13.868,1.57 -1.136,1.899 0.598,-3.679 2.383,-3.953 1.789,-0.269 18.418,-0.433 22.477,1.192 4.062,1.625 4.281,2.925 3.09,5.957 -1.192,3.035 -3.52,4.281 -3.36,4.226 z" /></g></g></g></pattern><clipPath
       id="clipPath730"><path
         d="M 0,0 H 1440 V 320 H 0 Z"
         id="path732"
         inkscape:connector-curvature="0" /></clipPath><mask
       id="mask734"><g
         id="g736"><g
           clip-path="url(#clipPath730)"
           id="g738"><path
             d="M 0,0 H 1440 V 320 H 0 Z"
             id="path740"
             style="fill:#000000;fill-opacity:0.2;fill-rule:nonzero;stroke:none"
             inkscape:connector-curvature="0" /></g></g></mask><clipPath
       id="clipPath746"><path
         d="M 0,0 H 1440 V 320 H 0 Z"
         id="path748"
         inkscape:connector-curvature="0" /></clipPath><clipPath
       id="clipPath750"><path
         d="M 0,0 H 1440 V 320 H 0 Z"
         id="path752"
         inkscape:connector-curvature="0" /></clipPath><pattern
       id="pattern754"
       height="320"
       width="1440"
       y="0"
       x="0"
       patternUnits="userSpaceOnUse"><g
         id="g756" /><g
         id="g758"><g
           id="g760"
           clip-path="url(#clipPath750)"><g
             id="g762"><path
               id="path764"
               style="fill:#000000;fill-opacity:1;fill-rule:nonzero;stroke:none"
               d="m 453.883,89.5 c 8.055,-11.746 -1.68,-14.098 -16.613,-13.93 -14.938,0.168 -19.719,-0.504 -21.481,2.434 -1.762,2.937 0.922,-5.707 3.691,-6.125 2.77,-0.418 28.528,-0.672 34.821,1.848 6.293,2.515 6.629,4.531 4.785,9.226 -1.848,4.699 -5.457,6.629 -5.203,6.547 z" /></g></g></g></pattern><clipPath
       id="clipPath800"><path
         d="M 0,0 H 1440 V 320 H 0 Z"
         id="path802"
         inkscape:connector-curvature="0" /></clipPath><mask
       id="mask804"><g
         id="g806"><g
           clip-path="url(#clipPath800)"
           id="g808"><path
             d="M 0,0 H 1440 V 320 H 0 Z"
             id="path810"
             style="fill:#000000;fill-opacity:0.2;fill-rule:nonzero;stroke:none"
             inkscape:connector-curvature="0" /></g></g></mask><clipPath
       id="clipPath816"><path
         d="M 0,0 H 1440 V 320 H 0 Z"
         id="path818"
         inkscape:connector-curvature="0" /></clipPath><clipPath
       id="clipPath820"><path
         d="M 0,0 H 1440 V 320 H 0 Z"
         id="path822"
         inkscape:connector-curvature="0" /></clipPath><pattern
       id="pattern824"
       height="320"
       width="1440"
       y="0"
       x="0"
       patternUnits="userSpaceOnUse"><g
         id="g826" /><g
         id="g828"><g
           id="g830"
           clip-path="url(#clipPath820)"><g
             id="g832"><path
               id="path834"
               style="fill:#000000;fill-opacity:1;fill-rule:nonzero;stroke:none"
               d="m 488.977,89.5 c 8.054,-11.746 -1.68,-14.098 -16.614,-13.93 -14.937,0.168 -19.718,-0.504 -21.48,2.434 -1.762,2.937 0.922,-5.707 3.691,-6.125 2.77,-0.418 28.528,-0.672 34.821,1.848 6.293,2.515 6.628,4.531 4.781,9.226 -1.844,4.699 -5.453,6.629 -5.199,6.547 z" /></g></g></g></pattern></defs><g
     id="g1"
     transform="matrix(0.20900434,0,0,0.2067398,-32.7362,-17.065464)"><path
       id="path3298-6-5-2-4"
       d="m 436.4726,325.78668 c 0,18.18004 -58.88221,32.91728 -131.51749,32.91728 -72.63482,0 -131.51703,-14.73724 -131.51703,-32.91728 0,-18.17913 58.88221,-32.91682 131.51703,-32.91682 72.63528,0 131.51749,14.73769 131.51749,32.91682 z"
       style="color:#000000;display:inline;overflow:visible;visibility:visible;fill:none;stroke:#6ac1ff;stroke-width:14.4601;stroke-linecap:round;stroke-linejoin:round;stroke-miterlimit:4;stroke-dashoffset:0;stroke-opacity:1;marker:none;enable-background:accumulate"
       inkscape:connector-curvature="0" /><path
       d="m 204.78421,305.52323 c 0,-23.75364 28.47146,-35.45676 55.34132,-35.03528 26.87043,0.4234 62.08265,15.85753 62.08265,37.49767 0,21.63494 -36.77044,20.62672 -62.08265,20.62672 -12.74981,0 -35.92597,1.61566 -45.89942,-4.04214 -9.83464,-5.58584 -9.86472,-19.04697 -9.4419,-19.04697 z"
       id="path468-4-1-4-0"
       style="fill:#000000;fill-opacity:1;fill-rule:nonzero;stroke:#000000;stroke-width:12.75;stroke-linecap:butt;stroke-linejoin:round;stroke-miterlimit:4;stroke-dasharray:none;stroke-opacity:1"
       inkscape:connector-curvature="0" /><path
       d="m 204.78421,305.52323 c 0,-23.75364 28.47146,-35.45676 55.34132,-35.03528 26.87043,0.4234 62.08265,15.85753 62.08265,37.49767 0,21.63494 -36.77044,20.62672 -62.08265,20.62672 -12.74981,0 -35.92597,1.61566 -45.89942,-4.04214 -9.83464,-5.58584 -9.86472,-19.04697 -9.4419,-19.04697 z"
       id="path472-7-0-6-5"
       style="fill:#a67e33;fill-opacity:1;fill-rule:nonzero;stroke:#3e5474;stroke-width:10.2;stroke-linecap:butt;stroke-linejoin:round;stroke-miterlimit:4;stroke-dasharray:none;stroke-opacity:1"
       inkscape:connector-curvature="0" /><path
       d="m 404.80573,210.15568 c 0,58.82021 -47.68033,106.49956 -106.49903,106.49956 -58.82102,0 -106.50135,-47.67935 -106.50135,-106.49956 0,-58.82044 47.68033,-106.50152 106.50135,-106.50152 58.8187,0 106.49903,47.68108 106.49903,106.50152 z"
       id="path524-8-2-0-1"
       style="fill:#000000;fill-opacity:1;fill-rule:evenodd;stroke:#9e6600;stroke-width:17.0647;stroke-linecap:butt;stroke-linejoin:round;stroke-miterlimit:4;stroke-dasharray:none;stroke-opacity:1"
       inkscape:connector-curvature="0" /><path
       d="m 404.80573,210.15568 c 0,58.82021 -47.68033,106.49956 -106.49903,106.49956 -58.82102,0 -106.50135,-47.67935 -106.50135,-106.49956 0,-58.82044 47.68033,-106.50152 106.50135,-106.50152 58.8187,0 106.49903,47.68108 106.49903,106.50152 z"
       id="path528-4-3-9-8"
       style="fill:#ffa500;fill-opacity:1;fill-rule:evenodd;stroke:#ffa500;stroke-width:7.58435;stroke-linecap:butt;stroke-linejoin:miter;stroke-miterlimit:4;stroke-dasharray:none;stroke-opacity:1"
       inkscape:connector-curvature="0" /><path
       inkscape:connector-curvature="0"
       style="opacity:0.3;fill:#d40000;fill-opacity:1;fill-rule:evenodd;stroke:none;stroke-width:5.78406"
       id="path530-6-0-0-5"
       d="m 389.46062,163.00164 c 0.61716,4.70857 1.18689,9.45509 1.18689,14.34407 0,60.72524 -49.23683,110.08931 -109.97005,110.08931 -27.9376,0 -53.12487,-10.78415 -72.52693,-27.9664 17.48059,31.91952 51.20398,53.67933 90.17699,53.67933 56.90707,0 102.86664,-46.07167 102.86664,-102.97706 0,-17.06662 -4.39704,-33.00362 -11.73354,-47.16925 z" /><path
       d="m 293.5065,305.52323 c 0,-23.75364 28.47205,-35.45676 55.34306,-35.03528 26.86928,0.4234 62.08323,15.85753 62.08323,37.49767 0,21.63494 -36.77102,20.62672 -62.08323,20.62672 -12.74923,0 -35.92596,1.61566 -45.90867,-4.04214 -9.83464,-5.58584 -9.85547,-19.04697 -9.43439,-19.04697 z"
       id="path538-1-6-1-6"
       style="fill:#2d3d53;fill-opacity:1;fill-rule:nonzero;stroke:#2d3d53;stroke-width:12.75;stroke-linecap:butt;stroke-linejoin:round;stroke-miterlimit:4;stroke-dasharray:none;stroke-opacity:1"
       inkscape:connector-curvature="0" /><path
       d="m 293.5065,305.52323 c 0,-23.75364 28.46626,-35.45676 55.34306,-35.03528 26.86928,0.4234 62.08323,15.85753 62.08323,37.49767 0,21.63494 -36.77102,20.62672 -62.08323,20.62672 -12.74923,0 -35.92596,1.61566 -45.90867,-4.04214 -9.83464,-5.58584 -9.85547,-19.04697 -9.43439,-19.04697 z"
       id="path542-8-1-7-3"
       style="fill:#a67e33;fill-opacity:1;fill-rule:nonzero;stroke:#3e5474;stroke-width:10.2;stroke-linecap:butt;stroke-linejoin:round;stroke-miterlimit:4;stroke-dasharray:none;stroke-opacity:1"
       inkscape:connector-curvature="0" /><path
       sodipodi:nodetypes="sssss"
       inkscape:connector-curvature="0"
       style="color:#000000;display:inline;overflow:visible;visibility:visible;fill:#2d3d53;fill-opacity:1;fill-rule:nonzero;stroke:none;stroke-width:23.1362;marker:none;enable-background:accumulate"
       d="m 336.17495,201.94168 c 0,18.45937 -7.63728,33.42372 -17.05836,33.42372 -9.42108,0 -17.05835,-14.96435 -17.05835,-33.42372 0,-18.45937 7.63727,-33.42367 17.05835,-33.42367 9.42108,0 17.05836,14.9643 17.05836,33.42367 z"
       id="path3308-6-4-3-3-2" /><path
       sodipodi:nodetypes="sscsscs"
       id="path3312-6-2-2-6-9"
       d="m 319.16287,168.51009 c -9.42108,0 -17.05084,14.94081 -17.05084,33.40018 0,15.90848 5.71408,29.27279 13.31028,32.66491 -3.83541,-6.15141 -6.26992,-15.4855 -6.26992,-25.94285 0,-18.45937 7.62918,-33.40018 17.05026,-33.40018 1.30199,0 2.52185,0.29962 3.74055,0.84025 -2.93599,-4.68809 -6.69505,-7.56231 -10.78033,-7.56231 z"
       style="color:#000000;display:inline;overflow:visible;visibility:visible;fill:#2d3d53;fill-opacity:1;fill-rule:nonzero;stroke:none;stroke-width:23.1362;marker:none;enable-background:accumulate"
       inkscape:connector-curvature="0" /><path
       sodipodi:nodetypes="sssss"
       inkscape:connector-curvature="0"
       style="color:#000000;display:inline;overflow:visible;visibility:visible;fill:#2d3d53;fill-opacity:1;fill-rule:nonzero;stroke:none;stroke-width:23.1362;marker:none;enable-background:accumulate"
       d="m 291.40458,201.91513 c 0,18.45937 -7.63728,33.42372 -17.05894,33.42372 -9.42108,0 -17.05835,-14.96435 -17.05835,-33.42372 0,-18.45943 7.63727,-33.42372 17.05835,-33.42372 9.42166,0 17.05894,14.96429 17.05894,33.42372 z"
       id="path3308-6-8-1-0-0-0" /><path
       sodipodi:nodetypes="sscsscs"
       id="path3312-6-9-0-8-5-7"
       d="m 274.39192,168.48348 c -9.42108,0 -17.05084,14.94087 -17.05084,33.40024 0,15.90843 5.71465,29.27279 13.31086,32.66497 -3.83599,-6.15152 -6.2705,-15.48561 -6.2705,-25.94291 0,-18.45942 7.62918,-33.40023 17.05084,-33.40023 1.30199,0 2.52185,0.29961 3.73997,0.84031 -2.93599,-4.6881 -6.69447,-7.56238 -10.78033,-7.56238 z"
       style="color:#000000;display:inline;overflow:visible;visibility:visible;fill:#2d3d53;fill-opacity:1;fill-rule:nonzero;stroke:none;stroke-width:23.1362;marker:none;enable-background:accumulate"
       inkscape:connector-curvature="0" /><path
       style="opacity:0.0961538;fill:#000000;fill-opacity:1;stroke:none;stroke-width:5.78406"
       d="m 391.01364,286.17445 c -0.96421,18.31621 -20.72603,35.90936 -61.45566,39.76542 l 61.85266,-4.50882 14.11823,-7.02347 -1.07899,-14.75548 z"
       id="path8730-0-4-4-0"
       inkscape:connector-curvature="0"
       sodipodi:nodetypes="cccccc" /></g></svg>
