<?xml version="1.0" encoding="UTF-8" standalone="no"?>
<svg
   width="62"
   height="62"
   version="1"
   id="svg4"
   sodipodi:docname="twinkle.svg"
   inkscape:version="1.4 (unknown)"
   xmlns:inkscape="http://www.inkscape.org/namespaces/inkscape"
   xmlns:sodipodi="http://sodipodi.sourceforge.net/DTD/sodipodi-0.dtd"
   xmlns="http://www.w3.org/2000/svg"
   xmlns:svg="http://www.w3.org/2000/svg">
  <defs
     id="defs4" />
  <sodipodi:namedview
     id="namedview4"
     pagecolor="#ffffff"
     bordercolor="#000000"
     borderopacity="0.25"
     inkscape:showpageshadow="2"
     inkscape:pageopacity="0.0"
     inkscape:pagecheckerboard="0"
     inkscape:deskcolor="#d1d1d1"
     inkscape:zoom="6.0546875"
     inkscape:cx="30.967742"
     inkscape:cy="33.114839"
     inkscape:window-width="1920"
     inkscape:window-height="998"
     inkscape:window-x="0"
     inkscape:window-y="0"
     inkscape:window-maximized="1"
     inkscape:current-layer="svg4" />
  <g
     id="g4"
     transform="matrix(0.98275059,0,0,0.98245614,-0.44801856,-0.92982455)">
    <path
       style="opacity:0.2"
       d="M 32.000031,4.9994421 C 29.385634,5.0368101 27.519562,6.611236 26.644557,9.218197 l 0.03516,-0.117189 -4.10938,11.898451 H 8.7187602 c -0.030202,-4.84e-4 -0.059642,-4.84e-4 -0.089844,0 -1.654255,0.05362 -3.1443889,1.02522 -4.1953168,2.304691 -2.2728444,2.608995 -1.7924197,7.31597 1.0937511,9.261728 l 10.8906365,7.95704 -4.226567,13.132826 c -0.0047,0.0146 -0.0073,0.02836 -0.01172,0.04296 -0.645811,2.12152 -0.03851,4.305614 1.585939,5.800788 0.01174,0.011 0.02314,0.02438 0.03516,0.03516 1.952084,1.735374 4.697848,1.95593 6.90235,0.519532 0.04194,-0.02714 0.08068,-0.05664 0.1211,-0.08594 l 11.175786,-7.968752 11.175793,7.968758 c 0.04042,0.02932 0.07916,0.05882 0.1211,0.08594 2.204503,1.436398 4.950264,1.215842 6.90235,-0.519532 0.012,-0.0108 0.02334,-0.02412 0.03516,-0.03516 1.624451,-1.495174 2.231748,-3.679268 1.585937,-5.800788 -0.0044,-0.0146 -0.007,-0.02842 -0.0118,-0.04296 l -4.22657,-13.132826 10.890635,-7.95704 c 2.886171,-1.945758 3.366596,-6.652733 1.093752,-9.261728 -1.050928,-1.279471 -2.541061,-2.25107 -4.195317,-2.304691 -0.0302,-4.84e-4 -0.05964,-4.84e-4 -0.08984,0 H 41.429659 l -4.109381,-11.89845 0.03516,0.117188 C 36.480499,6.611236 34.614427,5.0368101 32.000031,4.9994421 Z"
       id="path1" />
    <path
       style="fill:#ffcc00"
       d="M 32,4 C 29.385603,4.037368 27.521489,5.6117895 26.646484,8.21875 L 26.677734,8.1015625 22.570312,20 H 8.71875 C 8.688548,19.999516 8.659108,19.999516 8.628906,20 6.974651,20.05362 5.4825683,21.025216 4.4316404,22.304688 2.158796,24.913682 2.6411727,29.618694 5.5273436,31.564453 L 16.417969,39.525391 12.191406,52.65625 c -0.0047,0.01454 -0.0093,0.02837 -0.01367,0.04297 -0.64581,2.12152 -0.03852,4.30756 1.585938,5.802734 0.01181,0.01104 0.02704,0.0224 0.03906,0.0332 1.952084,1.735374 4.693936,1.95593 6.898438,0.519532 0.04194,-0.02714 0.08458,-0.05664 0.125,-0.08594 L 32,51 43.173828,58.96875 c 0.04042,0.02932 0.08306,0.05882 0.125,0.08594 2.204505,1.436397 4.946352,1.215842 6.898438,-0.519532 0.012,-0.0108 0.02724,-0.02216 0.03906,-0.0332 1.624453,-1.495174 2.231749,-3.681214 1.585938,-5.802734 -0.0044,-0.0146 -0.0089,-0.02843 -0.01367,-0.04297 L 47.582031,39.525391 58.472656,31.564453 c 2.886171,-1.945759 3.368547,-6.65077 1.095703,-9.259765 C 58.517431,21.025216 57.02535,20.05362 55.371094,20 c -0.0302,-4.84e-4 -0.05964,-4.84e-4 -0.08984,0 H 41.429688 L 37.322266,8.1015625 37.353516,8.21875 C 36.478511,5.6117895 34.614396,4.037368 32,4 Z"
       id="path2" />
    <path
       style="opacity:0.2;fill:#ffffff"
       d="M 32,4 C 29.385603,4.037368 27.519536,5.611789 26.644531,8.21875 L 26.679688,8.1015625 22.570312,20 H 8.71875 C 8.688548,19.999516 8.659108,19.999516 8.628906,20 6.974651,20.05362 5.4845214,21.025216 4.4335936,22.304688 3.370926,23.524522 2.9178805,25.201361 3.0234373,26.841797 3.1238817,25.538697 3.5868432,24.276671 4.4335936,23.304688 5.4845216,22.025216 6.9746512,21.05362 8.6289062,21 c 0.030202,-4.84e-4 0.059642,-4.84e-4 0.089844,0 H 22.570312 L 26.679688,9.1015625 26.644531,9.21875 C 27.519536,6.611789 29.385603,5.037368 32,5 c 2.614396,0.037368 4.48053,1.611783 5.355469,4.21875 L 37.320312,9.1015625 41.429688,21 H 55.28125 c 0.0302,-4.84e-4 0.05964,-4.84e-4 0.08984,0 1.654256,0.05362 3.144384,1.025216 4.195312,2.304688 0.84675,0.971983 1.309712,2.234009 1.410156,3.537109 C 61.082115,25.201361 60.62907,23.524522 59.566402,22.304688 58.515478,21.025216 57.02535,20.053621 55.371094,20 c -0.0302,-4.84e-4 -0.05964,-4.84e-4 -0.08984,0 H 41.429688 L 37.320312,8.1015625 37.355469,8.21875 C 36.48053,5.611783 34.614396,4.037368 32,4 Z M 16.158203,40.333984 12.191406,52.65625 c -0.0047,0.0146 -0.0073,0.02837 -0.01172,0.04297 -0.225064,0.739345 -0.290036,1.484293 -0.220704,2.207031 0.03394,-0.401754 0.09822,-0.804652 0.220704,-1.207031 0.0044,-0.0146 0.007,-0.02837 0.01172,-0.04297 l 4.226563,-13.132812 z m 31.683594,0 -0.259766,0.189454 4.226563,13.132812 c 0.0048,0.01454 0.0073,0.02837 0.01172,0.04297 0.122489,0.402379 0.186762,0.805277 0.220704,1.207031 0.06933,-0.722738 0.0044,-1.467686 -0.220704,-2.207031 -0.0044,-0.0146 -0.0069,-0.02843 -0.01172,-0.04297 z"
       id="path3" />
    <circle
       style="opacity:0.1"
       cx="32"
       cy="36"
       r="10"
       id="circle3" />
    <circle
       style="fill:#8d5fd3"
       cx="32"
       cy="35"
       r="10"
       id="circle4" />
  </g>
</svg>
