<?xml version="1.0" encoding="UTF-8" standalone="no"?>
<svg
   width="62"
   height="62"
   version="1"
   id="svg7"
   sodipodi:docname="twupic.svg"
   inkscape:version="1.4 (unknown)"
   xmlns:inkscape="http://www.inkscape.org/namespaces/inkscape"
   xmlns:sodipodi="http://sodipodi.sourceforge.net/DTD/sodipodi-0.dtd"
   xmlns:xlink="http://www.w3.org/1999/xlink"
   xmlns="http://www.w3.org/2000/svg"
   xmlns:svg="http://www.w3.org/2000/svg">
  <defs
     id="defs7">
    <linearGradient
       id="linearGradient7"
       inkscape:collect="always">
      <stop
         style="stop-color:#2d3d53;stop-opacity:1;"
         offset="0"
         id="stop7" />
      <stop
         style="stop-color:#354b64;stop-opacity:1;"
         offset="1"
         id="stop8" />
    </linearGradient>
    <linearGradient
       inkscape:collect="always"
       xlink:href="#linearGradient7"
       id="linearGradient8"
       x1="32.459496"
       y1="60"
       x2="32.150417"
       y2="5.0018635"
       gradientUnits="userSpaceOnUse" />
  </defs>
  <sodipodi:namedview
     id="namedview7"
     pagecolor="#ffffff"
     bordercolor="#000000"
     borderopacity="0.25"
     inkscape:showpageshadow="2"
     inkscape:pageopacity="0.0"
     inkscape:pagecheckerboard="0"
     inkscape:deskcolor="#d1d1d1"
     inkscape:zoom="8.5626212"
     inkscape:cx="31.765974"
     inkscape:cy="44.554114"
     inkscape:window-width="1920"
     inkscape:window-height="998"
     inkscape:window-x="0"
     inkscape:window-y="0"
     inkscape:window-maximized="1"
     inkscape:current-layer="svg7" />
  <g
     id="g7"
     transform="matrix(1,0,0,0.98242578,-0.99999997,-0.9279721)">
    <path
       style="opacity:0.2"
       d="M 32.150418,5.0018636 A 6.3412168,6.367007 0 0 0 28.82953,5.8512364 L 10.170886,16.667546 A 6.3412168,6.367007 0 0 0 7,22.1821 v 21.634018 a 6.3412168,6.367007 0 0 0 3.170608,5.513994 l 18.658644,10.81687 a 6.3412168,6.367007 0 0 0 6.341218,0 L 53.829112,49.330112 A 6.3412168,6.367007 0 0 0 57,43.815558 V 22.18154 A 6.3412168,6.367007 0 0 0 53.829112,16.666986 L 35.17047,5.8506764 A 6.3412168,6.367007 0 0 0 32.149584,5.0013036 Z"
       id="path1" />
    <path
       style="fill:url(#linearGradient8)"
       d="M 32.150418,4.0018627 A 6.3412168,6.367007 0 0 0 28.82953,4.8512355 L 10.170886,15.667545 A 6.3412168,6.367007 0 0 0 7,21.1821 v 21.634018 a 6.3412168,6.367007 0 0 0 3.170608,5.513994 l 18.658644,10.81687 a 6.3412168,6.367007 0 0 0 6.341218,0 L 53.829112,48.330112 A 6.3412168,6.367007 0 0 0 57,42.815558 V 21.18154 A 6.3412168,6.367007 0 0 0 53.829112,15.666985 L 35.17047,4.8506755 A 6.3412168,6.367007 0 0 0 32.149584,4.0013027 Z"
       id="path2" />
    <path
       style="opacity:0.2"
       d="m 27.125,23 -1.605469,1.605469 C 24.377066,23.878691 22.813172,23.202975 20.763672,23.101562 16.091946,22.870404 11.015814,26.503267 11,32.966797 c -0.0056,2.306812 0.797124,4.718804 2.388672,6.634765 1.591548,1.915963 4.052974,3.298829 7.074219,3.298829 3.371302,0 6.00704,-1.239531 8.015625,-2.996094 2.008584,-1.756563 3.458547,-3.970979 4.871093,-6.066406 1.412546,-2.095428 2.784841,-4.07178 4.439453,-5.466797 1.654615,-1.395018 3.537408,-2.271485 6.363282,-2.271485 2.384725,0 5.947265,1.958763 5.947265,7.671875 0,3.169723 -2.545088,6.218705 -6.484375,6.128907 -1.378966,-0.03143 -2.32049,-0.307004 -3.009765,-0.63086 L 42,37.875 38.5,36.9375 35,36 l 0.9375,3.5 0.9375,3.5 1.53125,-1.53125 c 1.157889,0.740308 2.826394,1.376933 5.140625,1.429688 5.548529,0.12648 9.552734,-4.315804 9.552734,-9.126954 0,-7.031323 -4.837907,-10.671875 -8.947265,-10.671875 -3.490778,0 -6.215343,1.22356 -8.296875,2.978516 -2.081533,1.754956 -3.5735,3.979447 -4.992188,6.083984 -1.418687,2.104538 -2.766045,4.090965 -4.359375,5.484375 -1.593329,1.393411 -3.36413,2.253907 -6.041015,2.253907 -2.141913,0 -3.665971,-0.888691 -4.767579,-2.214844 C 14.593706,36.359393 13.996132,34.556006 14,32.974609 c 0.01215,-4.964682 3.513307,-7.030438 6.615234,-6.876953 1.177098,0.05824 2.07076,0.326938 2.761719,0.650391 L 22,28.125 25.5,29.0625 29,30 28.0625,26.5 Z"
       id="path3" />
    <g
       id="g6">
      <path
         style="fill:none;stroke:#ffffff;stroke-width:3"
         d="m 37.600058,37.599762 c 0,0 1.257574,2.692304 5.98097,2.799976 4.743908,0.10814 8.018912,-3.637228 8.018912,-7.627664 0,-6.372218 -4.199964,-9.172196 -7.447006,-9.172196 -12.633304,0 -11.593398,16.79986 -23.689775,16.79986 -5.163157,0 -7.972644,-4.540126 -7.963134,-8.428334 0.01398,-5.714106 4.303277,-8.563848 8.190104,-8.371526 4.084523,0.202108 5.809779,2.799978 5.809779,2.799978"
         id="path4" />
      <path
         style="fill:#ffffff"
         d="M 28.999942,28.999999 25.499971,28.062184 22,27.12437 l 2.562156,-2.562156 2.562157,-2.562157 0.937814,3.499971 z"
         id="path5" />
      <path
         style="fill:#ffffff"
         transform="scale(-1)"
         d="m -34.999999,-35.00006 -3.499971,-0.937815 -3.499971,-0.937814 2.562157,-2.562156 2.562156,-2.562157 0.937814,3.499971 z"
         id="path6" />
    </g>
    <path
       style="opacity:0.1;fill:#ffffff"
       d="M 32.148438,4 A 6.3412168,6.367007 0 0 0 28.828125,4.8515625 L 10.171875,15.667969 A 6.3412168,6.367007 0 0 0 7,21.183594 v 1 a 6.3412168,6.367007 0 0 1 3.171875,-5.515625 L 28.828125,5.8515625 A 6.3412168,6.367007 0 0 1 32.148438,5 h 0.0039 a 6.3412168,6.367007 0 0 1 3.019531,0.8515625 L 53.828125,16.667969 A 6.3412168,6.367007 0 0 1 57,22.179688 v -1 A 6.3412168,6.367007 0 0 0 53.828125,15.667969 L 35.171875,4.8515625 A 6.3412168,6.367007 0 0 0 32.152344,4 Z"
       id="path7" />
  </g>
</svg>
