<?xml version="1.0" encoding="UTF-8" standalone="no"?>
<svg
   width="62"
   height="62"
   version="1.1"
   id="svg5"
   sodipodi:docname="type-rider.svg"
   inkscape:version="1.4 (unknown)"
   xmlns:inkscape="http://www.inkscape.org/namespaces/inkscape"
   xmlns:sodipodi="http://sodipodi.sourceforge.net/DTD/sodipodi-0.dtd"
   xmlns:xlink="http://www.w3.org/1999/xlink"
   xmlns="http://www.w3.org/2000/svg"
   xmlns:svg="http://www.w3.org/2000/svg">
  <defs
     id="defs5">
    <linearGradient
       id="linearGradient2"
       inkscape:collect="always">
      <stop
         style="stop-color:#1aa2b2;stop-opacity:1;"
         offset="0"
         id="stop2" />
      <stop
         style="stop-color:#00ccff;stop-opacity:1"
         offset="1"
         id="stop3" />
    </linearGradient>
    <linearGradient
       inkscape:collect="always"
       xlink:href="#linearGradient2"
       id="linearGradient3"
       x1="31.5"
       y1="60"
       x2="31.5"
       y2="4"
       gradientUnits="userSpaceOnUse" />
  </defs>
  <sodipodi:namedview
     id="namedview5"
     pagecolor="#ffffff"
     bordercolor="#000000"
     borderopacity="0.25"
     inkscape:showpageshadow="2"
     inkscape:pageopacity="0.0"
     inkscape:pagecheckerboard="0"
     inkscape:deskcolor="#d1d1d1"
     inkscape:zoom="5.84375"
     inkscape:cx="80.770053"
     inkscape:cy="20.278075"
     inkscape:window-width="1920"
     inkscape:window-height="998"
     inkscape:window-x="0"
     inkscape:window-y="0"
     inkscape:window-maximized="1"
     inkscape:current-layer="svg5" />
  <rect
     style="opacity:0.2;stroke-width:0.9823"
     width="55"
     height="55.017544"
     x="4"
     y="4.9824562"
     rx="8.25"
     ry="8.2526312"
     id="rect1" />
  <rect
     style="fill:url(#linearGradient3);stroke-width:0.9823;fill-opacity:1"
     width="55"
     height="55.017544"
     x="4"
     y="4"
     rx="8.25"
     ry="8.2526312"
     id="rect2" />
  <path
     style="opacity:0.1;fill:#ffffff;stroke-width:0.9823"
     d="M 12.248466,4 C 7.6779652,4 4,7.6791384 4,12.251097 v 0.982456 C 4,8.6615945 7.6779652,4.9824561 12.248466,4.9824561 H 50.751534 C 55.322034,4.9824561 59,8.6615945 59,13.233553 V 12.251097 C 59,7.6791384 55.322034,4 50.751534,4 Z"
     id="path4" />
  <ellipse
     style="fill:#2d3d53;fill-opacity:1;stroke-width:1.47681"
     cx="22.912487"
     cy="28.875811"
     id="circle3"
     rx="5.1624999"
     ry="5.1751623" />
  <ellipse
     style="fill:#2d3d53;fill-opacity:1;stroke-width:1.47681"
     cx="33.912495"
     cy="20.004131"
     id="circle4-3"
     rx="5.1624999"
     ry="5.1751642" />
  <path
     style="fill:#2d3d53;stroke-width:1.42587;fill-opacity:1"
     d="m 57.375243,20.630776 c -0.401897,0 -5.336212,2.017321 -10.965089,4.482065 C 26.731258,33.729763 23.55837,35.113378 16.256838,38.252909 12.211762,39.992215 7.819431,41.827545 6.4519034,42.145827 L 4,42.717647 v 7.742246 C 4,56.815555 9.3140741,58.998841 11.9,59 l 39.158824,0.01754 C 53.83353,59.018787 59,57.125583 59,50.457 v -7.667166 l -1.369633,0.961684 c -2.4358,2.74496 -2.49021,2.771909 -8.583,4.019989 -2.048614,0.419642 -2.150847,0.40924 -2.24781,-0.199259 -0.05592,-0.350453 2.545729,-6.332854 5.779303,-13.296011 3.308145,-7.123785 5.80284,-12.874925 5.704098,-13.151625 -0.09651,-0.270442 -0.505828,-0.493836 -0.907715,-0.493836 z m -9.17114,7.575035 c 0.210676,0.0032 0.384034,0.177992 0.384034,0.389877 0,0.482907 -5.580606,11.515066 -8.056643,15.926907 -1.017199,1.812461 -2.015018,3.492468 -2.218263,3.734086 -0.299479,0.356059 -1.127369,-0.392669 -4.3667,-3.953573 -4.609642,-5.067235 -5.392648,-6.067175 -5.188476,-6.639334 0.15077,-0.422552 18.747342,-9.466841 19.446048,-9.457963 z M 25.046634,39.200147 c 0.494343,0.03123 1.125234,0.674518 2.790284,2.746413 4.190731,5.214771 5.13266,6.498384 5.024648,6.847274 -0.122644,0.396448 -0.918741,0.623475 -1.184317,0.337884 -0.09882,-0.106259 -1.954004,-0.267909 -4.122324,-0.358092 -3.422386,-0.142432 -5.405166,-0.372851 -11.596179,-1.342883 -0.670609,-0.105137 -1.498932,-0.37628 -1.839598,-0.603582 -0.340664,-0.227311 -1.021093,-0.515205 -1.511968,-0.638234 -0.877186,-0.21985 -0.882153,-0.232817 -0.306161,-0.840383 0.552236,-0.582541 11.109955,-5.742542 12.538829,-6.128191 0.06755,-0.01825 0.136155,-0.02459 0.206786,-0.0203 z"
     id="path4-6"
     sodipodi:nodetypes="scsccssssccsccsscsscscccccsccsscccc" />
  <path
     style="opacity:0.2;stroke-width:1.4801"
     d="m 47.771701,8.5786179 v 3.8929191 l -3.379895,-1.946454 -0.740806,1.282242 3.377009,1.946453 -3.377009,1.946465 0.740806,1.28223 3.379895,-1.946454 v 3.892927 h 1.48161 V 15.036019 L 52.633207,16.982473 53.374,15.700243 49.997003,13.753778 53.374,11.807325 52.633207,10.525083 49.253311,12.471537 V 8.5786179 Z"
     id="path5-7"
     sodipodi:nodetypes="ccccccccccccccccccc" />
  <path
     style="fill:#ffffff;stroke-width:1.4801"
     d="m 47.771701,7.1 v 3.892918 L 44.391806,9.0464543 43.651,10.328695 47.028009,12.27517 43.651,14.221624 l 0.740806,1.28224 3.379895,-1.946453 v 3.892919 h 1.48161 V 13.557411 L 52.633207,15.503864 53.374,14.221624 49.997003,12.27517 53.374,10.328695 52.633207,9.0464543 49.253311,10.992918 V 7.1 Z"
     id="path6"
     sodipodi:nodetypes="ccccccccccccccccccc" />
</svg>
