<?xml version="1.0" encoding="UTF-8" standalone="no"?>
<svg
   width="62"
   height="62"
   viewBox="0 0 16.404166 16.404167"
   version="1.1"
   id="svg1443"
   inkscape:version="1.4.2 (unknown)"
   sodipodi:docname="vara.svg"
   xmlns:inkscape="http://www.inkscape.org/namespaces/inkscape"
   xmlns:sodipodi="http://sodipodi.sourceforge.net/DTD/sodipodi-0.dtd"
   xmlns:xlink="http://www.w3.org/1999/xlink"
   xmlns="http://www.w3.org/2000/svg"
   xmlns:svg="http://www.w3.org/2000/svg"
   xmlns:rdf="http://www.w3.org/1999/02/22-rdf-syntax-ns#"
   xmlns:cc="http://creativecommons.org/ns#"
   xmlns:dc="http://purl.org/dc/elements/1.1/">
  <defs
     id="defs1437">
    <linearGradient
       gradientTransform="matrix(0.4711726,0,0,0.47114666,-53.953909,-18.000765)"
       gradientUnits="userSpaceOnUse"
       y2="70.679932"
       x2="132.21078"
       y1="42.151531"
       x1="132.21078"
       id="linearGradient1632"
       xlink:href="#linearGradient1630"
       inkscape:collect="always" />
    <linearGradient
       id="linearGradient1630"
       inkscape:collect="always">
      <stop
         id="stop1626"
         offset="0"
         style="stop-color:#b5b5d2;stop-opacity:1;" />
      <stop
         id="stop1628"
         offset="1"
         style="stop-color:#bdc6cf;stop-opacity:1;" />
    </linearGradient>
    <filter
       color-interpolation-filters="sRGB"
       height="1.1311001"
       width="1.1106"
       y="-0.065563001"
       x="-0.055319"
       id="c-9">
      <feGaussianBlur
         id="feGaussianBlur1093"
         stdDeviation="1.1062912" />
    </filter>
    <linearGradient
       gradientUnits="userSpaceOnUse"
       gradientTransform="matrix(0.13235,0,0,0.13075,-32.379,1.0873)"
       y2="269.48999"
       y1="235.14999"
       x2="657.65002"
       x1="319.20999"
       id="a-12">
      <stop
         id="stop1076"
         offset="0"
         stop-color="#e54c18" />
      <stop
         id="stop1078"
         offset="1"
         stop-color="#fec350" />
    </linearGradient>
    <linearGradient
       id="paint1_linear_8_721"
       x1="12.0001"
       y1="14.825"
       x2="12.0001"
       y2="8.7750196"
       gradientUnits="userSpaceOnUse"
       gradientTransform="matrix(0.58965537,0,0,0.59037149,1.1261742,1.2356487)">
      <stop
         stop-color="#02AA93"
         id="stop4" />
      <stop
         offset="1"
         stop-color="#67FF80"
         id="stop5" />
    </linearGradient>
    <linearGradient
       id="linear0"
       gradientUnits="userSpaceOnUse"
       x1="0"
       y1="0"
       x2="0"
       y2="1"
       gradientTransform="matrix(68.686472,0,0,43.89438,-2.487702,8.992595)">
      <stop
         offset="0"
         style="stop-color:#2478ff;stop-opacity:1;"
         id="stop1" />
      <stop
         offset="1"
         style="stop-color:#0049bf;stop-opacity:1;"
         id="stop2" />
    </linearGradient>
    <linearGradient
       id="linear0-3"
       gradientUnits="userSpaceOnUse"
       x1="0"
       y1="0"
       x2="0"
       y2="1"
       gradientTransform="matrix(64,0,0,40.523438,0,11.738281)">
      <stop
         offset="0"
         style="stop-color:#2478ff;stop-opacity:1;"
         id="stop1-6" />
      <stop
         offset="1"
         style="stop-color:#0049bf;stop-opacity:1;"
         id="stop2-7" />
    </linearGradient>
    <filter
       id="a"
       width="1.6786222"
       height="1.378453"
       x="-0.33931111"
       y="-0.18922649"
       color-interpolation-filters="sRGB">
      <feGaussianBlur
         stdDeviation="3.062"
         id="feGaussianBlur6" />
    </filter>
    <filter
       id="b"
       width="1.4929448"
       height="1.4789098"
       x="-0.24647241"
       y="-0.2394549"
       color-interpolation-filters="sRGB">
      <feGaussianBlur
         stdDeviation="1.23"
         id="feGaussianBlur1" />
    </filter>
    <filter
       id="c"
       width="1.5007696"
       height="1.5152208"
       x="-0.25038482"
       y="-0.25761042"
       color-interpolation-filters="sRGB">
      <feGaussianBlur
         stdDeviation=".61"
         id="feGaussianBlur2" />
    </filter>
    <filter
       id="d"
       width="1.5918933"
       height="1.6089741"
       x="-0.29594665"
       y="-0.30448707"
       color-interpolation-filters="sRGB">
      <feGaussianBlur
         stdDeviation=".721"
         id="feGaussianBlur3" />
    </filter>
    <filter
       id="g"
       width="1.5317154"
       height="1.4477258"
       x="-0.26585771"
       y="-0.22386288"
       color-interpolation-filters="sRGB">
      <feGaussianBlur
         stdDeviation="1.132"
         id="feGaussianBlur5" />
    </filter>
    <linearGradient
       id="e"
       x1="12.796"
       x2="21.737"
       y1="58.959999"
       y2="61.777"
       gradientUnits="userSpaceOnUse"
       gradientTransform="matrix(0.26458333,0,0,0.26458333,-0.56514994,-0.96173538)">
      <stop
         offset="0"
         stop-color="#7a6b1b"
         id="stop6" />
      <stop
         offset="1"
         stop-color="#7a6b1b"
         stop-opacity=".5"
         id="stop7" />
    </linearGradient>
    <filter
       id="f"
       width="1.6186342"
       height="2.0056508"
       x="-0.30931712"
       y="-0.50282538"
       color-interpolation-filters="sRGB">
      <feGaussianBlur
         stdDeviation="1.357"
         id="feGaussianBlur4" />
    </filter>
  </defs>
  <sodipodi:namedview
     id="base"
     pagecolor="#ffffff"
     bordercolor="#666666"
     borderopacity="1.0"
     inkscape:pageopacity="0.0"
     inkscape:pageshadow="2"
     inkscape:zoom="8"
     inkscape:cx="24.3125"
     inkscape:cy="66.0625"
     inkscape:document-units="px"
     inkscape:current-layer="layer1"
     inkscape:document-rotation="0"
     showgrid="false"
     units="px"
     inkscape:window-width="1920"
     inkscape:window-height="998"
     inkscape:window-x="0"
     inkscape:window-y="0"
     inkscape:window-maximized="1"
     inkscape:showpageshadow="2"
     inkscape:pagecheckerboard="0"
     inkscape:deskcolor="#d1d1d1" />
  <metadata
     id="metadata1440">
    <rdf:RDF>
      <cc:Work
         rdf:about="">
        <dc:format>image/svg+xml</dc:format>
        <dc:type
           rdf:resource="http://purl.org/dc/dcmitype/StillImage" />
      </cc:Work>
    </rdf:RDF>
  </metadata>
  <g
     inkscape:label="Capa 1"
     inkscape:groupmode="layer"
     id="layer1">
    <g
       style="opacity:0.295"
       transform="matrix(0.47117252,0,0,0.47114656,-31.72741,-18.000762)"
       id="g1702">
      <rect
         ry="6.6098609"
         rx="6.6098609"
         y="40.709618"
         x="69.839508"
         height="29.810888"
         width="29.810888"
         id="rect1634"
         style="fill:none;fill-opacity:1;stroke:#000000;stroke-width:0.1;stroke-linecap:round;stroke-linejoin:round;stroke-miterlimit:4;stroke-dasharray:none;stroke-opacity:0.02" />
      <rect
         style="fill:none;fill-opacity:1;stroke:#000000;stroke-width:0.2;stroke-linecap:round;stroke-linejoin:round;stroke-miterlimit:4;stroke-dasharray:none;stroke-opacity:0.02"
         id="rect1638"
         width="29.810888"
         height="29.810888"
         x="69.839508"
         y="40.709618"
         rx="6.6098609"
         ry="6.6098609" />
      <rect
         ry="6.6098609"
         rx="6.6098609"
         y="40.709618"
         x="69.839508"
         height="29.810888"
         width="29.810888"
         id="rect1640"
         style="fill:none;fill-opacity:1;stroke:#000000;stroke-width:0.3;stroke-linecap:round;stroke-linejoin:round;stroke-miterlimit:4;stroke-dasharray:none;stroke-opacity:0.02" />
      <rect
         style="fill:none;fill-opacity:1;stroke:#000000;stroke-width:0.4;stroke-linecap:round;stroke-linejoin:round;stroke-miterlimit:4;stroke-dasharray:none;stroke-opacity:0.02"
         id="rect1642"
         width="29.810888"
         height="29.810888"
         x="69.839508"
         y="40.709618"
         rx="6.6098609"
         ry="6.6098609" />
      <rect
         ry="6.6098609"
         rx="6.6098609"
         y="40.709618"
         x="69.839508"
         height="29.810888"
         width="29.810888"
         id="rect1644"
         style="fill:none;fill-opacity:1;stroke:#000000;stroke-width:0.5;stroke-linecap:round;stroke-linejoin:round;stroke-miterlimit:4;stroke-dasharray:none;stroke-opacity:0.02" />
      <rect
         style="fill:none;fill-opacity:1;stroke:#000000;stroke-width:0.6;stroke-linecap:round;stroke-linejoin:round;stroke-miterlimit:4;stroke-dasharray:none;stroke-opacity:0.02"
         id="rect1646"
         width="29.810888"
         height="29.810888"
         x="69.839508"
         y="40.709618"
         rx="6.6098609"
         ry="6.6098609" />
      <rect
         ry="6.6098609"
         rx="6.6098609"
         y="40.709618"
         x="69.839508"
         height="29.810888"
         width="29.810888"
         id="rect1648"
         style="fill:none;fill-opacity:1;stroke:#000000;stroke-width:0.7;stroke-linecap:round;stroke-linejoin:round;stroke-miterlimit:4;stroke-dasharray:none;stroke-opacity:0.02" />
      <rect
         style="fill:none;fill-opacity:1;stroke:#000000;stroke-width:0.8;stroke-linecap:round;stroke-linejoin:round;stroke-miterlimit:4;stroke-dasharray:none;stroke-opacity:0.02"
         id="rect1650"
         width="29.810888"
         height="29.810888"
         x="69.839508"
         y="40.709618"
         rx="6.6098609"
         ry="6.6098609" />
      <rect
         ry="6.6098609"
         rx="6.6098609"
         y="40.709618"
         x="69.839508"
         height="29.810888"
         width="29.810888"
         id="rect1652"
         style="fill:none;fill-opacity:1;stroke:#000000;stroke-width:1;stroke-linecap:round;stroke-linejoin:round;stroke-miterlimit:4;stroke-dasharray:none;stroke-opacity:0.02" />
      <rect
         style="fill:none;fill-opacity:1;stroke:#000000;stroke-width:1.2;stroke-linecap:round;stroke-linejoin:round;stroke-miterlimit:4;stroke-dasharray:none;stroke-opacity:0.02"
         id="rect1654"
         width="29.810888"
         height="29.810888"
         x="69.839508"
         y="40.709618"
         rx="6.6098609"
         ry="6.6098609" />
      <rect
         ry="6.6098609"
         rx="6.6098609"
         y="40.709618"
         x="69.839508"
         height="29.810888"
         width="29.810888"
         id="rect1656"
         style="fill:none;fill-opacity:1;stroke:#000000;stroke-width:1.4;stroke-linecap:round;stroke-linejoin:round;stroke-miterlimit:4;stroke-dasharray:none;stroke-opacity:0.02" />
      <rect
         style="fill:none;fill-opacity:1;stroke:#000000;stroke-width:1.6;stroke-linecap:round;stroke-linejoin:round;stroke-miterlimit:4;stroke-dasharray:none;stroke-opacity:0.02"
         id="rect1658"
         width="29.810888"
         height="29.810888"
         x="69.839508"
         y="40.709618"
         rx="6.6098609"
         ry="6.6098609" />
      <rect
         ry="6.6098609"
         rx="6.6098609"
         y="40.709618"
         x="69.839508"
         height="29.810888"
         width="29.810888"
         id="rect1660"
         style="fill:none;fill-opacity:1;stroke:#000000;stroke-width:1.8;stroke-linecap:round;stroke-linejoin:round;stroke-miterlimit:4;stroke-dasharray:none;stroke-opacity:0.02" />
      <rect
         style="fill:none;fill-opacity:1;stroke:#000000;stroke-width:2;stroke-linecap:round;stroke-linejoin:round;stroke-miterlimit:4;stroke-dasharray:none;stroke-opacity:0.02"
         id="rect1662"
         width="29.810888"
         height="29.810888"
         x="69.839508"
         y="40.709618"
         rx="6.6098609"
         ry="6.6098609" />
      <rect
         ry="6.6098609"
         rx="6.6098609"
         y="40.709618"
         x="69.839508"
         height="29.810888"
         width="29.810888"
         id="rect1664"
         style="fill:none;fill-opacity:1;stroke:#000000;stroke-width:2.2;stroke-linecap:round;stroke-linejoin:round;stroke-miterlimit:4;stroke-dasharray:none;stroke-opacity:0.02" />
      <rect
         style="fill:none;fill-opacity:1;stroke:#000000;stroke-width:2.6;stroke-linecap:round;stroke-linejoin:round;stroke-miterlimit:4;stroke-dasharray:none;stroke-opacity:0.02"
         id="rect1666"
         width="29.810888"
         height="29.810888"
         x="69.839508"
         y="40.709618"
         rx="6.6098609"
         ry="6.6098609" />
      <rect
         ry="6.6098609"
         rx="6.6098609"
         y="40.709618"
         x="69.839508"
         height="29.810888"
         width="29.810888"
         id="rect1668"
         style="fill:none;fill-opacity:1;stroke:#000000;stroke-width:3;stroke-linecap:round;stroke-linejoin:round;stroke-miterlimit:4;stroke-dasharray:none;stroke-opacity:0.02" />
      <rect
         style="fill:none;fill-opacity:1;stroke:#000000;stroke-width:3.4;stroke-linecap:round;stroke-linejoin:round;stroke-miterlimit:4;stroke-dasharray:none;stroke-opacity:0.02"
         id="rect1670"
         width="29.810888"
         height="29.810888"
         x="69.839508"
         y="40.709618"
         rx="6.6098609"
         ry="6.6098609" />
      <rect
         ry="6.6098609"
         rx="6.6098609"
         y="40.709618"
         x="69.839508"
         height="29.810888"
         width="29.810888"
         id="rect1672"
         style="fill:none;fill-opacity:1;stroke:#000000;stroke-width:3.8;stroke-linecap:round;stroke-linejoin:round;stroke-miterlimit:4;stroke-dasharray:none;stroke-opacity:0.02" />
      <rect
         style="fill:none;fill-opacity:1;stroke:#000000;stroke-width:4.2;stroke-linecap:round;stroke-linejoin:round;stroke-miterlimit:4;stroke-dasharray:none;stroke-opacity:0.02"
         id="rect1674"
         width="29.810888"
         height="29.810888"
         x="69.839508"
         y="40.709618"
         rx="6.6098609"
         ry="6.6098609" />
      <rect
         ry="6.6098609"
         rx="6.6098609"
         y="40.709618"
         x="69.839508"
         height="29.810888"
         width="29.810888"
         id="rect1676"
         style="fill:none;fill-opacity:1;stroke:#000000;stroke-width:4.6;stroke-linecap:round;stroke-linejoin:round;stroke-miterlimit:4;stroke-dasharray:none;stroke-opacity:0.02" />
      <rect
         style="fill:none;fill-opacity:1;stroke:#000000;stroke-width:5;stroke-linecap:round;stroke-linejoin:round;stroke-miterlimit:4;stroke-dasharray:none;stroke-opacity:0.02"
         id="rect1678"
         width="29.810888"
         height="29.810888"
         x="69.839508"
         y="40.709618"
         rx="6.6098609"
         ry="6.6098609" />
    </g>
    <rect
       ry="3.1142132"
       rx="3.1143851"
       y="1.1794344"
       x="1.1790471"
       height="14.045296"
       width="14.04607"
       id="rect849"
       style="fill:url(#linearGradient1632);fill-opacity:1;stroke-width:1.29783;stroke-linecap:round;stroke-linejoin:round" />
    <g
       id="surface1"
       transform="matrix(0.16743071,0,0,0.16726453,2.8276217,2.8502717)" />
    <g
       id="g1"
       transform="matrix(1.013735,0,0,0.98853678,1.7078687,-14.759112)">
      <path
         fill="#d5f0ff"
         d="m 19.792,49.188 1.55,-10.884 4.243,-7.962 8.66,-11.598 7.003,-6.902 0.202,8.347 -3.119,11 -2.706,4.522 -5.762,8.74 -3.506,5.503 -4.005,0.724 z"
         filter="url(#a)"
         style="paint-order:stroke fill markers"
         id="path7"
         transform="matrix(0.26458333,0,0,0.26458333,-2.3129875,14.157007)" />
      <path
         fill="none"
         stroke="#5780ab"
         stroke-linecap="round"
         stroke-linejoin="round"
         d="m 2.8455937,27.023165 c 0,0 -0.657225,-2.082006 1.4433021,-5.104077 2.1002624,-3.022071 4.5733228,-5.237162 4.5733228,-5.237162 m -0.016933,0.64426 c 0,0 0.5672666,2.20345 -0.4257146,4.738158 -0.9929812,2.534709 -2.5468791,3.945996 -2.5468791,3.945996"
         style="stroke-width:0.264583;paint-order:stroke fill markers"
         id="path8" />
      <path
         fill="none"
         stroke="#5780ab"
         stroke-linecap="round"
         stroke-linejoin="round"
         d="m 6.4669457,20.172574 c 0,0 -1.2501562,1.792552 -1.741752,2.766747 -0.4915959,0.974196 -0.5498042,2.249753 -0.5498042,2.249753"
         style="stroke-width:0.264583;paint-order:stroke fill markers"
         id="path9" />
      <path
         fill="none"
         stroke="#443107"
         stroke-linecap="round"
         stroke-linejoin="round"
         d="m 2.8051124,27.517407 c 0,0 0.6937375,0.616479 1.7264063,0.584994 M 2.3074312,27.922484 c 0,0 0.6172729,0.624417 1.5224125,0.604308 M 1.9113499,28.392384 0.92604163,29.768217 M 4.2605853,29.090355 4.173802,29.933846"
         style="stroke-width:0.264583;paint-order:stroke fill markers"
         id="path10" />
      <path
         fill="none"
         stroke="#2b2518"
         stroke-linecap="round"
         stroke-linejoin="round"
         d="m 7.738004,25.710303 c 0,0 0.2264834,0.796396 0.9559396,0.937418 M 7.5014665,26.069342 c 0,0 0.00847,0.500063 0.5815542,0.749829 M 7.5014665,26.069342 c 0,0 -0.8625416,0.400315 -1.5274395,1.131888 m 2.3648458,-0.1016 c 0,0 -0.2979208,0.926306 -1.0884958,1.528762"
         style="stroke-width:0.264583;paint-order:stroke fill markers"
         id="path11" />
      <path
         fill="#fef0a3"
         d="m 42.788,45.797 -2.595,-0.258 -0.955,-1.652 2.62,-4.145 3.918,-5.32 0.57,-0.953 3.122,2.002 1.422,2.41 0.325,1.632 -5.825,3.716 z"
         filter="url(#b)"
         style="paint-order:stroke fill markers"
         id="path12"
         transform="matrix(0.26458333,0,0,0.26458333,-2.3129875,14.157007)" />
      <path
         fill="none"
         stroke="#b4924a"
         stroke-linecap="round"
         stroke-linejoin="round"
         stroke-width="0.132292"
         d="m 8.006027,25.393861 c 0,0 1.4626166,-1.678252 1.6557624,-2.551642 m -1.351227,2.637102 c 0,0 1.5620999,-1.922727 1.7436046,-2.801937 m -1.2662963,2.453217 c 0,0 0.885825,-0.886355 1.4126103,-2.248959 m 0.130175,0.184944 c 0,0 -0.6900332,1.4097 -1.4917207,2.242873"
         style="paint-order:stroke fill markers"
         id="path13" />
      <path
         fill="none"
         stroke="#b4924a"
         stroke-linecap="round"
         stroke-linejoin="round"
         stroke-width="0.132292"
         d="m 10.538883,23.099659 c 0,0 -0.927629,1.862402 -1.9806706,2.65721 m 2.3082246,-2.474912 c 0,0 -1.4324538,2.113227 -2.0055413,2.370667 m 2.3217183,-2.176728 -1.9393954,2.008188 m 2.1047604,-1.854729 -1.997075,1.879071 m 2.100792,-1.487752 c -0.05503,0.02461 -2.0738045,1.651 -2.0738045,1.651 m 2.2180025,-1.498071 -2.5442337,1.659202 m 2.6249307,-1.505744 c 0,0 -1.673489,1.253067 -2.7431995,1.778"
         style="paint-order:stroke fill markers"
         id="path14" />
      <path
         fill="none"
         stroke="#b2ddf2"
         stroke-linecap="round"
         stroke-linejoin="round"
         stroke-width="0.132292"
         d="m 6.6542707,20.991194 -2.0722166,3.869002 m 2.8265437,-3.819525 c 0,0 -1.6578792,4.211903 -2.7011312,5.03608 m 2.9749749,-4.53099 c 0,0 -0.6085416,2.639219 -1.9039416,3.988858 m 2.1687896,-3.621352 c 0,0 -0.9818688,2.528888 -1.6007292,3.254904 m 2.3410333,-7.655983 c 0,0 0.15875,0.713581 -0.1531937,2.733146 M 8.3359624,17.416938 c 0,0 -0.5929313,0.706438 -0.7490354,1.100138 m 0.6535208,-0.438679 c 0,0 -0.4773083,1.639622 -0.8609542,2.324893 M 6.8794311,19.013699 c 0,0 -1.3623395,1.527175 -2.005277,2.492904 M 4.6839187,22.10853 c 0,0 -1.1006667,2.049991 -1.285875,3.782219"
         style="paint-order:stroke fill markers"
         id="path15" />
      <path
         fill="none"
         stroke="#5194b7"
         stroke-linecap="round"
         stroke-linejoin="round"
         stroke-width="0.132292"
         d="m 3.9708666,25.319513 c 0,0 -0.3791479,0.711729 -0.3579813,1.653911 m 1.3837709,-0.765705 c 0,0 -0.3772959,0.768086 -0.8183563,1.252538 m 1.2157604,-0.904346 c 0,0 -0.6429375,0.98425 -0.8784166,1.194858 M 3.1657395,25.937051 c 0,0 -0.13335,0.583141 0.076994,1.096433 M 4.119827,26.30879 c 0,0 -0.4071937,0.845079 -0.3881437,1.090083 M 4.3328166,26.712544 3.8168791,27.62324"
         style="paint-order:stroke fill markers"
         id="path16" />
      <path
         fill="#aca371"
         d="m 31.832,50.613 4.13,-3.835 1.188,0.684 -0.607,1.258 -2.951,3.138 -1.419,0.603 -0.87,-1.095 z"
         style="paint-order:stroke fill markers"
         id="path17"
         transform="matrix(0.26458333,0,0,0.26458333,-2.3129875,14.157007)" />
      <path
         fill="#aca371"
         d="m 34.011,52.172 4.13,-3.835 1.188,0.684 -0.607,1.258 -2.951,3.138 -1.419,0.603 -0.87,-1.095 z"
         style="paint-order:stroke fill markers"
         transform="matrix(0.15013516,0,0,0.15013516,1.9793479,19.877299)"
         id="path18" />
      <path
         fill="#5c9bbb"
         d="m 25.618,52.527 -6.238,-2.848 0.35,-7.205 3.9,-2.083 5.298,1.72 0.671,2.334 -0.197,4.054 z"
         filter="url(#g)"
         opacity="0.5"
         style="paint-order:stroke fill markers"
         id="path20"
         transform="matrix(0.26458333,0,0,0.26458333,-2.3129875,14.157007)" />
    </g>
    <path
       d="m 3.8936084,13.191885 -0.9710209,1.563159 c 0.3193521,0.09737 0.6582834,0.150548 1.0104438,0.150548 h 1.7753541 v -1.016 l -1.0138833,-0.3556 z"
       style="fill:url(#e);stroke-width:0.264583;paint-order:stroke fill markers"
       id="path19" />
  </g>
</svg>
