<?xml version="1.0" encoding="UTF-8" standalone="no"?>
<svg
   clip-rule="evenodd"
   fill-rule="evenodd"
   stroke-linejoin="round"
   stroke-miterlimit="2"
   viewBox="0 0 62 62"
   version="1.1"
   id="svg4"
   sodipodi:docname="viper-browser.svg"
   width="62"
   height="62"
   inkscape:version="1.4 (unknown)"
   xmlns:inkscape="http://www.inkscape.org/namespaces/inkscape"
   xmlns:sodipodi="http://sodipodi.sourceforge.net/DTD/sodipodi-0.dtd"
   xmlns:xlink="http://www.w3.org/1999/xlink"
   xmlns="http://www.w3.org/2000/svg"
   xmlns:svg="http://www.w3.org/2000/svg">
  <defs
     id="defs4">
    <linearGradient
       id="linearGradient4"
       inkscape:collect="always">
      <stop
         style="stop-color:#008800;stop-opacity:1;"
         offset="0"
         id="stop4" />
      <stop
         style="stop-color:#00ff66;stop-opacity:1"
         offset="1"
         id="stop5" />
    </linearGradient>
    <linearGradient
       inkscape:collect="always"
       xlink:href="#linearGradient4"
       id="linearGradient5"
       x1="30.315277"
       y1="57.236"
       x2="29.091606"
       y2="1.2359999"
       gradientUnits="userSpaceOnUse" />
  </defs>
  <sodipodi:namedview
     id="namedview4"
     pagecolor="#ffffff"
     bordercolor="#000000"
     borderopacity="0.25"
     inkscape:showpageshadow="2"
     inkscape:pageopacity="0.0"
     inkscape:pagecheckerboard="0"
     inkscape:deskcolor="#d1d1d1"
     inkscape:zoom="6.6666667"
     inkscape:cx="15.075"
     inkscape:cy="33.825"
     inkscape:window-width="1920"
     inkscape:window-height="998"
     inkscape:window-x="0"
     inkscape:window-y="0"
     inkscape:window-maximized="1"
     inkscape:current-layer="svg4" />
  <linearGradient
     id="a"
     x2="1"
     gradientTransform="matrix(0,-55.658353,55.658353,0,30.315277,56.920785)"
     gradientUnits="userSpaceOnUse">
    <stop
       stop-color="#008800"
       offset="0"
       id="stop1" />
    <stop
       stop-color="#2cdb63"
       offset="1"
       id="stop2" />
  </linearGradient>
  <g
     id="g4"
     transform="translate(1.7640004,1.7640004)">
    <path
       d="M 56.947214,29.091607 C 56.947214,13.717426 44.465788,1.236 29.091607,1.236 13.717426,1.236 1.236,13.717426 1.236,29.091607 c 0,15.374181 12.481426,27.855607 27.855607,27.855607 15.374181,0 27.855607,-12.481426 27.855607,-27.855607 z"
       id="path2"
       style="fill:url(#linearGradient5)" />
    <path
       d="m 29.236,2.6285356 -3.226816,0.3671008 -3.98182,1.0939603 -0.75378,0.7317542 2.473036,1.705795 v 0.9740407 l -1.618915,0.9740407 1.944411,2.5586927 0.860239,-0.487021 1.076829,-1.7045709 C 27.672151,8.328387 29.16258,7.7446968 30.742337,7.0141662 l 1.134341,-3.2892229 z m -7.638144,0.2447339 -1.390088,0.1994581 -0.658334,0.6522157 -1.0805,0.1578533 -0.963028,0.451534 -0.467441,0.2263788 -0.286339,0.3830085 1.398654,0.2422865 0.538415,-0.4870204 1.076829,-0.2422865 c 0.737872,-0.3585351 1.478192,-0.6008216 2.26134,-0.8541212 z m -6.352067,2.9221222 -0.215365,0.4870203 0.106459,1.2187746 -0.86024,0.7317542 -0.538414,1.3374705 h 1.076829 l 0.539638,-1.2151035 c 0.463771,-0.3279434 0.925094,-0.6607814 1.39743,-0.9764881 l 1.078053,0.3671008 c 0.71707,0.4870203 1.432917,0.9740407 2.15121,1.4610611 L 21.058218,8.2329408 19.872483,7.7459205 19.334068,6.6495128 17.288093,6.404779 17.182858,5.7953917 16.213712,6.0401255 15.784204,6.8917993 Z M 42.81261,6.7694324 40.772754,7.2589001 39.474441,8.1105739 v 0.7317542 l -2.039857,1.3374709 0.427061,1.950528 1.189406,-0.854121 0.750109,0.854121 0.86024,0.487021 0.538414,-1.461061 -0.321825,-0.854121 0.321825,-0.6093877 1.183289,-1.4928765 h 0.538414 l -0.538414,1.6152434 v 1.0964078 c 0.494362,-0.134604 1.003408,-0.178656 1.510007,-0.241063 l -1.401101,0.972817 -0.106459,0.609387 -1.612796,1.338695 -1.618915,-0.364654 v -0.974041 l -0.75378,0.487021 0.32672,1.13067 h -1.185736 l -0.644873,0.817411 -0.811293,0.911634 -1.448825,0.307141 0.859016,0.848003 0.217813,0.851673 h -1.076829 l -1.365614,0.731755 v 2.195262 h 0.611834 l 0.589809,0.669347 1.34726,-0.669347 0.535967,-1.341141 0.970369,-0.609388 0.215366,-0.48702 1.612796,-0.360982 0.862687,0.970369 0.967923,0.487021 -0.538415,1.096407 0.862687,-0.244733 0.429508,-1.09029 -1.076829,-1.218774 h 0.431955 l 1.076829,0.848002 0.215366,1.218775 0.965475,1.096408 0.215366,-1.585876 0.540862,-0.242286 c 0.532296,0.553098 0.950791,1.206538 1.398653,1.828162 l 1.612797,0.122367 0.971593,0.60694 -0.433179,0.609387 -0.967922,0.854121 h -1.398654 l -1.83061,-0.609387 -0.967922,0.119919 -0.696268,0.794162 -1.994581,-2.010489 -1.401101,-0.364653 -2.044751,0.242286 -1.831833,0.48702 c -1.026659,1.16371 -1.900358,2.322525 -2.871952,3.53151 l -1.183288,2.803426 0.538414,0.60694 -0.967922,1.461061 1.076829,2.559916 c 0.915305,1.035225 1.689887,2.068001 2.602744,3.103226 l 1.349708,-1.155144 0.589808,0.671794 1.450048,-0.914081 0.487021,0.54698 h 1.456166 l 0.832095,0.943449 -0.513941,1.675204 1.025435,1.156367 -0.05506,2.010489 0.75378,1.463508 -0.805174,1.216327 c -0.05384,0.895726 -0.05384,1.785334 -0.05384,2.682283 0.440521,1.21388 0.669347,2.424089 1.085395,3.647758 l 0.320601,1.950529 v 0.976488 h 1.172275 l 1.185736,-0.731754 h 1.02054 c 0.380561,-0.265536 0.746438,-0.549427 1.112315,-0.833319 l 1.363168,-1.541823 -0.26676,-0.791714 1.401101,-1.221222 -1.025434,-1.15392 1.2408,-1.032777 1.04379,-0.735425 0.538415,-0.603269 -0.323049,-1.34726 v -3.405471 l 1.107421,-2.072896 1.183288,-1.337471 1.292194,-3.166856 v -0.854121 c -0.637531,0.07954 -1.257932,0.145617 -1.880779,0.189669 l 1.2873,-1.286076 1.776768,-1.218775 0.970369,-1.09396 V 27.230406 C 55.624428,26.825372 55.409062,26.41789 55.192472,26.012855 l -0.862686,0.972817 -0.643651,-0.728083 -0.969146,-0.731754 v -1.583428 l 1.131894,1.278734 1.23713,-0.182327 c 0.564112,0.511494 1.119657,0.999738 1.61402,1.582205 L 56.8224,26.482744 C 56.226473,20.019323 53.430389,14.222802 49.200164,9.8102505 48.966443,9.5704113 48.719262,9.3134408 48.52837,9.1249957 48.206545,8.8117364 47.868812,8.5168321 47.532303,8.2194805 L 47.227609,8.7199612 46.15078,9.9387358 44.752126,8.1999018 H 46.15078 L 46.798101,7.7459205 44.213712,7.2589001 Z m -30.426536,0.040381 c -0.156629,0.1186959 -0.318154,0.2324971 -0.47356,0.3536404 l 0.212919,0.94712 c 0,0 -0.985054,0.1076829 -1.55406,0.1823267 C 4.8556137,13.382141 1.243342,20.777998 1.236,29.067134 c 0.2239315,0.369548 0.4466393,0.720741 0.4466393,0.720741 l 2.2601171,1.338694 2.2637881,0.611835 0.9654751,1.218774 1.5063368,1.093961 0.8626869,-0.11992 0.6448737,0.291233 v 0.195787 l -0.8602395,2.311512 -0.6473211,0.976488 0.2153658,0.48702 -0.6938204,1.825715 2.0924742,3.533956 1.381523,1.702124 0.860239,1.216328 -0.106459,2.559916 1.201643,1.461061 -0.356087,1.54427 c 1.242024,0.856569 2.566034,1.596889 3.943886,2.24421 l 0.504151,-0.500481 0.320602,-0.85045 1.401101,-0.490691 1.292195,-2.678613 -0.538415,-0.729306 0.750109,-1.514903 1.616468,-0.367101 0.956909,-1.529586 -0.309588,-2.431431 1.56752,-1.828162 0.217813,-1.828162 c -1.766978,-0.876147 -3.799493,-1.777991 -5.553011,-2.679836 l -0.862687,-1.704571 -1.612796,-0.364653 -0.860239,-1.616467 -2.151211,0.242286 -1.830609,-1.532034 -1.939516,1.20042 v 0.269207 C 9.5997794,33.177439 8.8802619,33.155413 8.3577551,32.834811 L 7.9245762,31.616037 V 30.274895 L 6.6336051,30.397262 C 6.741288,29.544365 6.8514182,28.692691 6.9591011,27.839793 H 6.2065445 L 5.4527643,28.813834 4.698984,29.178488 3.6221551,28.571548 3.5132485,27.230406 3.7273906,25.770569 5.3438577,24.551794 h 1.2897474 l 0.2141421,-0.731754 1.6164671,0.364653 1.0437899,1.463509 0.2165895,-2.437549 2.1854733,-1.703348 0.75378,-1.828162 1.50389,-0.05262 0.862687,-1.212656 1.937068,-0.370772 0.967922,-1.45739 h -2.90499 l 1.830609,-0.854121 h 1.289747 l 1.830609,-1.166157 0.215366,-0.729307 -0.647321,-0.609387 -0.75378,-0.244734 0.217813,-0.729307 -0.539638,-1.096407 -1.290971,0.484573 0.214142,-0.974041 -1.506337,-0.8516738 -1.180841,2.0704488 0.105236,0.731754 -1.185736,0.48702 -0.75378,1.583428 -0.320601,-1.461061 -2.045975,-0.854121 -0.323049,-1.096408 2.689625,-1.5834277 1.186959,-1.095184 0.105236,-1.3386942 -0.644874,-0.3671008 z M 32.84093,8.0763112 31.281975,8.5633315 30.575918,8.4409646 h -0.0024 l -0.108907,0.7317542 1.034,0.4870204 L 33.48458,8.805618 Z M 17.935414,8.5975943 17.076399,9.2069816 18.15078,9.9387358 h 0.862687 V 9.083391 Z m 17.005332,2.8009787 v 0.731754 l 0.431955,0.487021 v 1.096407 l -0.217813,1.461062 1.185736,-0.242287 0.860239,-0.854121 -0.75378,-0.729307 c -0.2533,-0.673018 -0.543309,-1.304431 -0.859016,-1.950529 z m -0.42706,1.461061 -0.756228,0.244734 0.216589,1.338694 0.966699,-0.484573 z m -14.852898,2.195263 0.320601,1.699677 0.644874,-0.97037 z m 28.102788,9.496897 1.240801,1.401101 1.452495,3.103226 0.859016,0.976488 -0.431955,1.09396 0.818635,0.927541 c -0.375667,0.0257 -0.75011,0.05139 -1.136789,0.05139 -0.685255,-1.440258 -1.20042,-2.881741 -1.721703,-4.388078 L 47.648551,26.68465 47.163978,24.916448 Z"
       fill-opacity="0.3"
       fill-rule="nonzero"
       id="path3"
       style="stroke-width:1.22367;fill:#4d4d4d;fill-opacity:0.5" />
    <circle
       cx="43.775639"
       cy="43.775639"
       r="13.460361"
       id="circle3"
       style="stroke-width:1.22367;fill:#e5e5e5;fill-opacity:1" />
    <path
       d="m 41.834899,40.322443 c 0.627742,-3.89861 1.940739,-8.070098 1.940739,-8.070098 0,0 1.312997,4.171488 1.94074,8.070098 1.205314,0.679137 2.020278,1.971332 2.020278,3.453195 0,1.481864 -0.814964,2.774058 -2.020278,3.453195 -0.627743,3.89861 -1.94074,8.070099 -1.94074,8.070099 0,0 -1.312997,-4.171489 -1.940739,-8.070099 -1.205315,-0.679137 -2.020278,-1.971331 -2.020278,-3.453195 0,-1.481863 0.814963,-2.774058 2.020278,-3.453195 z"
       fill-rule="nonzero"
       id="path4"
       style="stroke-width:1.22367;fill:#2d3d53;fill-opacity:1" />
  </g>
</svg>
