<?xml version="1.0" encoding="UTF-8" standalone="no"?>
<svg
   width="62"
   height="62"
   viewBox="0 0 16.404166 16.404167"
   version="1.1"
   id="svg1443"
   inkscape:version="1.4 (unknown)"
   sodipodi:docname="tegaki-recognize.svg"
   xmlns:inkscape="http://www.inkscape.org/namespaces/inkscape"
   xmlns:sodipodi="http://sodipodi.sourceforge.net/DTD/sodipodi-0.dtd"
   xmlns:xlink="http://www.w3.org/1999/xlink"
   xmlns="http://www.w3.org/2000/svg"
   xmlns:svg="http://www.w3.org/2000/svg"
   xmlns:rdf="http://www.w3.org/1999/02/22-rdf-syntax-ns#"
   xmlns:cc="http://creativecommons.org/ns#"
   xmlns:dc="http://purl.org/dc/elements/1.1/">
  <defs
     id="defs1437">
    <linearGradient
       gradientTransform="matrix(0.4711726,0,0,0.47114666,-53.953909,-18.000765)"
       gradientUnits="userSpaceOnUse"
       y2="70.679932"
       x2="132.21078"
       y1="42.151531"
       x1="132.21078"
       id="linearGradient1632"
       xlink:href="#linearGradient1630"
       inkscape:collect="always" />
    <linearGradient
       id="linearGradient1630"
       inkscape:collect="always">
      <stop
         id="stop1626"
         offset="0"
         style="stop-color:#fafafc;stop-opacity:1" />
      <stop
         id="stop1628"
         offset="1"
         style="stop-color:#e2e6ea;stop-opacity:1" />
    </linearGradient>
    <filter
       color-interpolation-filters="sRGB"
       height="1.1311001"
       width="1.1106"
       y="-0.065563001"
       x="-0.055319"
       id="c-9">
      <feGaussianBlur
         id="feGaussianBlur1093"
         stdDeviation="1.1062912" />
    </filter>
    <linearGradient
       gradientUnits="userSpaceOnUse"
       gradientTransform="matrix(0.13235,0,0,0.13075,-32.379,1.0873)"
       y2="269.48999"
       y1="235.14999"
       x2="657.65002"
       x1="319.20999"
       id="a-12">
      <stop
         id="stop1076"
         offset="0"
         stop-color="#e54c18" />
      <stop
         id="stop1078"
         offset="1"
         stop-color="#fec350" />
    </linearGradient>
  </defs>
  <sodipodi:namedview
     id="base"
     pagecolor="#ffffff"
     bordercolor="#666666"
     borderopacity="1.0"
     inkscape:pageopacity="0.0"
     inkscape:pageshadow="2"
     inkscape:zoom="11.2"
     inkscape:cx="23.883929"
     inkscape:cy="34.866071"
     inkscape:document-units="px"
     inkscape:current-layer="layer1"
     inkscape:document-rotation="0"
     showgrid="false"
     units="px"
     inkscape:window-width="1920"
     inkscape:window-height="998"
     inkscape:window-x="0"
     inkscape:window-y="0"
     inkscape:window-maximized="1"
     inkscape:showpageshadow="2"
     inkscape:pagecheckerboard="0"
     inkscape:deskcolor="#d1d1d1">
    <inkscape:grid
       id="grid1"
       units="px"
       originx="0"
       originy="0"
       spacingx="0.26458332"
       spacingy="0.26458334"
       empcolor="#0099e5"
       empopacity="0.30196078"
       color="#0099e5"
       opacity="0.14901961"
       empspacing="5"
       enabled="true"
       visible="false" />
  </sodipodi:namedview>
  <metadata
     id="metadata1440">
    <rdf:RDF>
      <cc:Work
         rdf:about="">
        <dc:format>image/svg+xml</dc:format>
        <dc:type
           rdf:resource="http://purl.org/dc/dcmitype/StillImage" />
      </cc:Work>
    </rdf:RDF>
  </metadata>
  <g
     inkscape:label="Capa 1"
     inkscape:groupmode="layer"
     id="layer1">
    <g
       style="opacity:0.295"
       transform="matrix(0.47117252,0,0,0.47114656,-31.72741,-18.000762)"
       id="g1702">
      <rect
         ry="6.6098609"
         rx="6.6098609"
         y="40.709618"
         x="69.839508"
         height="29.810888"
         width="29.810888"
         id="rect1634"
         style="fill:none;fill-opacity:1;stroke:#000000;stroke-width:0.1;stroke-linecap:round;stroke-linejoin:round;stroke-miterlimit:4;stroke-dasharray:none;stroke-opacity:0.02" />
      <rect
         style="fill:none;fill-opacity:1;stroke:#000000;stroke-width:0.2;stroke-linecap:round;stroke-linejoin:round;stroke-miterlimit:4;stroke-dasharray:none;stroke-opacity:0.02"
         id="rect1638"
         width="29.810888"
         height="29.810888"
         x="69.839508"
         y="40.709618"
         rx="6.6098609"
         ry="6.6098609" />
      <rect
         ry="6.6098609"
         rx="6.6098609"
         y="40.709618"
         x="69.839508"
         height="29.810888"
         width="29.810888"
         id="rect1640"
         style="fill:none;fill-opacity:1;stroke:#000000;stroke-width:0.3;stroke-linecap:round;stroke-linejoin:round;stroke-miterlimit:4;stroke-dasharray:none;stroke-opacity:0.02" />
      <rect
         style="fill:none;fill-opacity:1;stroke:#000000;stroke-width:0.4;stroke-linecap:round;stroke-linejoin:round;stroke-miterlimit:4;stroke-dasharray:none;stroke-opacity:0.02"
         id="rect1642"
         width="29.810888"
         height="29.810888"
         x="69.839508"
         y="40.709618"
         rx="6.6098609"
         ry="6.6098609" />
      <rect
         ry="6.6098609"
         rx="6.6098609"
         y="40.709618"
         x="69.839508"
         height="29.810888"
         width="29.810888"
         id="rect1644"
         style="fill:none;fill-opacity:1;stroke:#000000;stroke-width:0.5;stroke-linecap:round;stroke-linejoin:round;stroke-miterlimit:4;stroke-dasharray:none;stroke-opacity:0.02" />
      <rect
         style="fill:none;fill-opacity:1;stroke:#000000;stroke-width:0.6;stroke-linecap:round;stroke-linejoin:round;stroke-miterlimit:4;stroke-dasharray:none;stroke-opacity:0.02"
         id="rect1646"
         width="29.810888"
         height="29.810888"
         x="69.839508"
         y="40.709618"
         rx="6.6098609"
         ry="6.6098609" />
      <rect
         ry="6.6098609"
         rx="6.6098609"
         y="40.709618"
         x="69.839508"
         height="29.810888"
         width="29.810888"
         id="rect1648"
         style="fill:none;fill-opacity:1;stroke:#000000;stroke-width:0.7;stroke-linecap:round;stroke-linejoin:round;stroke-miterlimit:4;stroke-dasharray:none;stroke-opacity:0.02" />
      <rect
         style="fill:none;fill-opacity:1;stroke:#000000;stroke-width:0.8;stroke-linecap:round;stroke-linejoin:round;stroke-miterlimit:4;stroke-dasharray:none;stroke-opacity:0.02"
         id="rect1650"
         width="29.810888"
         height="29.810888"
         x="69.839508"
         y="40.709618"
         rx="6.6098609"
         ry="6.6098609" />
      <rect
         ry="6.6098609"
         rx="6.6098609"
         y="40.709618"
         x="69.839508"
         height="29.810888"
         width="29.810888"
         id="rect1652"
         style="fill:none;fill-opacity:1;stroke:#000000;stroke-width:1;stroke-linecap:round;stroke-linejoin:round;stroke-miterlimit:4;stroke-dasharray:none;stroke-opacity:0.02" />
      <rect
         style="fill:none;fill-opacity:1;stroke:#000000;stroke-width:1.2;stroke-linecap:round;stroke-linejoin:round;stroke-miterlimit:4;stroke-dasharray:none;stroke-opacity:0.02"
         id="rect1654"
         width="29.810888"
         height="29.810888"
         x="69.839508"
         y="40.709618"
         rx="6.6098609"
         ry="6.6098609" />
      <rect
         ry="6.6098609"
         rx="6.6098609"
         y="40.709618"
         x="69.839508"
         height="29.810888"
         width="29.810888"
         id="rect1656"
         style="fill:none;fill-opacity:1;stroke:#000000;stroke-width:1.4;stroke-linecap:round;stroke-linejoin:round;stroke-miterlimit:4;stroke-dasharray:none;stroke-opacity:0.02" />
      <rect
         style="fill:none;fill-opacity:1;stroke:#000000;stroke-width:1.6;stroke-linecap:round;stroke-linejoin:round;stroke-miterlimit:4;stroke-dasharray:none;stroke-opacity:0.02"
         id="rect1658"
         width="29.810888"
         height="29.810888"
         x="69.839508"
         y="40.709618"
         rx="6.6098609"
         ry="6.6098609" />
      <rect
         ry="6.6098609"
         rx="6.6098609"
         y="40.709618"
         x="69.839508"
         height="29.810888"
         width="29.810888"
         id="rect1660"
         style="fill:none;fill-opacity:1;stroke:#000000;stroke-width:1.8;stroke-linecap:round;stroke-linejoin:round;stroke-miterlimit:4;stroke-dasharray:none;stroke-opacity:0.02" />
      <rect
         style="fill:none;fill-opacity:1;stroke:#000000;stroke-width:2;stroke-linecap:round;stroke-linejoin:round;stroke-miterlimit:4;stroke-dasharray:none;stroke-opacity:0.02"
         id="rect1662"
         width="29.810888"
         height="29.810888"
         x="69.839508"
         y="40.709618"
         rx="6.6098609"
         ry="6.6098609" />
      <rect
         ry="6.6098609"
         rx="6.6098609"
         y="40.709618"
         x="69.839508"
         height="29.810888"
         width="29.810888"
         id="rect1664"
         style="fill:none;fill-opacity:1;stroke:#000000;stroke-width:2.2;stroke-linecap:round;stroke-linejoin:round;stroke-miterlimit:4;stroke-dasharray:none;stroke-opacity:0.02" />
      <rect
         style="fill:none;fill-opacity:1;stroke:#000000;stroke-width:2.6;stroke-linecap:round;stroke-linejoin:round;stroke-miterlimit:4;stroke-dasharray:none;stroke-opacity:0.02"
         id="rect1666"
         width="29.810888"
         height="29.810888"
         x="69.839508"
         y="40.709618"
         rx="6.6098609"
         ry="6.6098609" />
      <rect
         ry="6.6098609"
         rx="6.6098609"
         y="40.709618"
         x="69.839508"
         height="29.810888"
         width="29.810888"
         id="rect1668"
         style="fill:none;fill-opacity:1;stroke:#000000;stroke-width:3;stroke-linecap:round;stroke-linejoin:round;stroke-miterlimit:4;stroke-dasharray:none;stroke-opacity:0.02" />
      <rect
         style="fill:none;fill-opacity:1;stroke:#000000;stroke-width:3.4;stroke-linecap:round;stroke-linejoin:round;stroke-miterlimit:4;stroke-dasharray:none;stroke-opacity:0.02"
         id="rect1670"
         width="29.810888"
         height="29.810888"
         x="69.839508"
         y="40.709618"
         rx="6.6098609"
         ry="6.6098609" />
      <rect
         ry="6.6098609"
         rx="6.6098609"
         y="40.709618"
         x="69.839508"
         height="29.810888"
         width="29.810888"
         id="rect1672"
         style="fill:none;fill-opacity:1;stroke:#000000;stroke-width:3.8;stroke-linecap:round;stroke-linejoin:round;stroke-miterlimit:4;stroke-dasharray:none;stroke-opacity:0.02" />
      <rect
         style="fill:none;fill-opacity:1;stroke:#000000;stroke-width:4.2;stroke-linecap:round;stroke-linejoin:round;stroke-miterlimit:4;stroke-dasharray:none;stroke-opacity:0.02"
         id="rect1674"
         width="29.810888"
         height="29.810888"
         x="69.839508"
         y="40.709618"
         rx="6.6098609"
         ry="6.6098609" />
      <rect
         ry="6.6098609"
         rx="6.6098609"
         y="40.709618"
         x="69.839508"
         height="29.810888"
         width="29.810888"
         id="rect1676"
         style="fill:none;fill-opacity:1;stroke:#000000;stroke-width:4.6;stroke-linecap:round;stroke-linejoin:round;stroke-miterlimit:4;stroke-dasharray:none;stroke-opacity:0.02" />
      <rect
         style="fill:none;fill-opacity:1;stroke:#000000;stroke-width:5;stroke-linecap:round;stroke-linejoin:round;stroke-miterlimit:4;stroke-dasharray:none;stroke-opacity:0.02"
         id="rect1678"
         width="29.810888"
         height="29.810888"
         x="69.839508"
         y="40.709618"
         rx="6.6098609"
         ry="6.6098609" />
    </g>
    <rect
       ry="3.1142132"
       rx="3.1143851"
       y="1.1794344"
       x="1.1790471"
       height="14.045296"
       width="14.04607"
       id="rect849"
       style="fill:url(#linearGradient1632);fill-opacity:1;stroke-width:1.29783;stroke-linecap:round;stroke-linejoin:round" />
    <g
       id="g1"
       transform="translate(-1.720019,-15.54427)">
      <path
         d="m 9.9221022,20.042187 c 0,0 -1.4816667,2.381456 -3.7041667,3.12229 0,1.852083 1.1110434,3.333646 1.1110434,3.333646 0,0 -0.5818767,-1.693436 -0.3172934,-2.75177 2.2225,-0.740833 2.9104167,-1.852083 2.9104167,-1.852083 0,0 0.6879168,1.11125 2.9104168,1.852083 0.264583,1.058334 -0.317294,2.75177 -0.317294,2.75177 0,0 1.111044,-1.481563 1.111044,-3.333646 -2.2225,-0.740834 -3.7041668,-3.12229 -3.7041668,-3.12229 z m 0,2.910416 c 0,0 -1.1641667,0.846667 -2.6458333,1.5875 0,1.481667 0.79375,2.38125 0.79375,2.38125 0,0 -0.2645834,-0.740833 -0.2645834,-1.852083 1.4816667,-0.370417 2.1166667,-1.322917 2.1166667,-1.322917 0,0 0.6349998,0.9525 2.1166668,1.322917 0,1.11125 -0.264584,1.852083 -0.264584,1.852083 0,0 0.79375,-0.899583 0.79375,-2.38125 -1.481666,-0.740833 -2.6458328,-1.5875 -2.6458328,-1.5875 z m -4.4979166,1.058334 c 0,0 -0.3704167,0.661458 -1.8520834,0.661458 0.7408333,0.740833 1.5875,2.778125 1.5875,2.778125 l 0.79375,0.264583 c 0,0 -0.5820833,-0.79375 -1.3229166,-2.645833 0.79375,0 1.1906249,-0.264583 1.1906249,-0.264583 z m 8.9958334,0 -0.396875,0.79375 c 0,0 0.396875,0.264583 1.190625,0.264583 -0.740834,1.852083 -1.322917,2.645833 -1.322917,2.645833 l 0.79375,-0.264583 c 0,0 0.846667,-2.037292 1.5875,-2.778125 -1.481667,0 -1.852083,-0.661458 -1.852083,-0.661458 z m -4.4979168,0.529166 c 0,0 -0.3704167,0.582084 -1.8520833,1.322917 0,0.926042 0.7937499,1.852083 0.7937499,1.852083 0,0 -0.2645833,-0.846666 -0.2645833,-1.5875 1.11125,-0.370416 1.3229167,-0.79375 1.3229167,-0.79375 0,0 0.2116668,0.423334 1.3229168,0.79375 0,0.740834 -0.264584,1.5875 -0.264584,1.5875 0,0 0.79375,-0.926041 0.79375,-1.852083 -1.481666,-0.740833 -1.8520828,-1.322917 -1.8520828,-1.322917 z m -3.8364583,0.79375 c 0,0 -0.2910417,0.244314 -0.6614583,0.264584 0.3704166,0.555625 0.7937499,1.455208 0.7937499,1.455208 l 0.2645834,0.132292 c 0,0 -0.4055512,-0.947823 -0.6614584,-1.455209 l 0.396875,0.02635 z m 7.6729161,0 -0.132291,0.42323 0.396875,-0.02635 c -0.255908,0.507381 -0.661459,1.455204 -0.661459,1.455204 l 0.264584,-0.132292 c 0,0 0.423333,-0.899583 0.79375,-1.455208 -0.370417,-0.02027 -0.661459,-0.264584 -0.661459,-0.264584 z"
         style="opacity:0.1;stroke-width:0.264583"
         id="path3" />
      <path
         d="m 9.9221022,19.777603 c 0,0 -1.4816667,2.381457 -3.7041667,3.12229 0,1.852084 1.1110434,3.333647 1.1110434,3.333647 0,0 -0.5818767,-1.693437 -0.3172934,-2.75177 2.2225,-0.740833 2.9104167,-1.852083 2.9104167,-1.852083 0,0 0.6879168,1.11125 2.9104168,1.852083 0.264583,1.058333 -0.317294,2.75177 -0.317294,2.75177 0,0 1.111044,-1.481563 1.111044,-3.333647 -2.2225,-0.740833 -3.7041668,-3.12229 -3.7041668,-3.12229 z m 0,2.910417 c 0,0 -1.1641667,0.846667 -2.6458333,1.5875 0,1.481667 0.79375,2.38125 0.79375,2.38125 0,0 -0.2645834,-0.740833 -0.2645834,-1.852083 1.4816667,-0.370417 2.1166667,-1.322917 2.1166667,-1.322917 0,0 0.6349998,0.9525 2.1166668,1.322917 0,1.11125 -0.264584,1.852083 -0.264584,1.852083 0,0 0.79375,-0.899583 0.79375,-2.38125 -1.481666,-0.740833 -2.6458328,-1.5875 -2.6458328,-1.5875 z m -4.4979166,1.058333 c 0,0 -0.3704167,0.661459 -1.8520834,0.661459 0.7408333,0.740833 1.5875,2.778125 1.5875,2.778125 l 0.79375,0.264583 c 0,0 -0.5820833,-0.79375 -1.3229166,-2.645833 0.79375,0 1.1906249,-0.264584 1.1906249,-0.264584 z m 8.9958334,0 -0.396875,0.79375 c 0,0 0.396875,0.264584 1.190625,0.264584 -0.740834,1.852083 -1.322917,2.645833 -1.322917,2.645833 l 0.79375,-0.264583 c 0,0 0.846667,-2.037292 1.5875,-2.778125 -1.481667,0 -1.852083,-0.661459 -1.852083,-0.661459 z M 9.9221022,24.27552 c 0,0 -0.3704167,0.582083 -1.8520833,1.322917 0,0.926041 0.7937499,1.852083 0.7937499,1.852083 0,0 -0.2645833,-0.846667 -0.2645833,-1.5875 1.11125,-0.370417 1.3229167,-0.79375 1.3229167,-0.79375 0,0 0.2116668,0.423333 1.3229168,0.79375 0,0.740833 -0.264584,1.5875 -0.264584,1.5875 0,0 0.79375,-0.926042 0.79375,-1.852083 C 10.292519,24.857603 9.9221022,24.27552 9.9221022,24.27552 Z m -3.8364583,0.79375 c 0,0 -0.2910417,0.244314 -0.6614583,0.264583 0.3704166,0.555625 0.7937499,1.455209 0.7937499,1.455209 l 0.2645834,0.132291 c 0,0 -0.4055512,-0.947822 -0.6614584,-1.455208 l 0.396875,0.02635 z m 7.6729161,0 -0.132291,0.42323 0.396875,-0.02635 c -0.255908,0.507386 -0.661459,1.455208 -0.661459,1.455208 l 0.264584,-0.132291 c 0,0 0.423333,-0.899584 0.79375,-1.455209 -0.370417,-0.02027 -0.661459,-0.264583 -0.661459,-0.264583 z"
         style="fill:#216178;stroke-width:0.264583;fill-opacity:1"
         id="path4-7" />
    </g>
  </g>
</svg>
