<?xml version="1.0" encoding="UTF-8" standalone="no"?>
<svg
   width="62"
   height="62"
   version="1.1"
   id="svg29"
   sodipodi:docname="tabletop-simulator.svg"
   inkscape:version="1.4 (unknown)"
   xmlns:inkscape="http://www.inkscape.org/namespaces/inkscape"
   xmlns:sodipodi="http://sodipodi.sourceforge.net/DTD/sodipodi-0.dtd"
   xmlns:xlink="http://www.w3.org/1999/xlink"
   xmlns="http://www.w3.org/2000/svg"
   xmlns:svg="http://www.w3.org/2000/svg">
  <defs
     id="defs29">
    <linearGradient
       id="linearGradient29"
       inkscape:collect="always">
      <stop
         style="stop-color:#2d3d53;stop-opacity:1;"
         offset="0"
         id="stop29" />
      <stop
         style="stop-color:#9e7625;stop-opacity:1;"
         offset="1"
         id="stop30" />
    </linearGradient>
    <linearGradient
       inkscape:collect="always"
       xlink:href="#linearGradient29"
       id="linearGradient30"
       x1="30.782633"
       y1="60"
       x2="30.193521"
       y2="5"
       gradientUnits="userSpaceOnUse"
       gradientTransform="matrix(0.98214286,0,0,0.98214285,-0.42857152,-0.43734332)" />
  </defs>
  <sodipodi:namedview
     id="namedview29"
     pagecolor="#ffffff"
     bordercolor="#000000"
     borderopacity="0.25"
     inkscape:showpageshadow="2"
     inkscape:pageopacity="0.0"
     inkscape:pagecheckerboard="0"
     inkscape:deskcolor="#d1d1d1"
     inkscape:zoom="7.0710678"
     inkscape:cx="20.576807"
     inkscape:cy="37.123106"
     inkscape:window-width="1920"
     inkscape:window-height="998"
     inkscape:window-x="0"
     inkscape:window-y="0"
     inkscape:window-maximized="1"
     inkscape:current-layer="svg29" />
  <rect
     style="opacity:0.2;stroke-width:0.9823"
     width="55"
     height="55.017544"
     x="3.5"
     y="3.9824562"
     ry="13.754386"
     id="rect1" />
  <rect
     style="fill:url(#linearGradient30);stroke-width:0.982143"
     width="55"
     height="55"
     x="3.5"
     y="3.4912281"
     ry="13.75"
     id="rect2" />
  <path
     style="opacity:0.1;fill:#ffffff;stroke-width:0.9823"
     d="M 17.25,3 C 9.6324999,3 3.4999999,9.1344561 3.4999999,16.754386 v 0.982456 c 0,-7.61993 6.1325,-13.7543858 13.7500001,-13.7543858 h 27.5 c 7.6175,0 13.75,6.1344558 13.75,13.7543858 V 16.754386 C 58.5,9.1344561 52.3675,3 44.75,3 Z"
     id="path28" />
  <g
     id="g1"
     transform="matrix(0.99516908,0,0,0.99484536,0.35549331,0.0603093)">
    <path
       id="path4509-3"
       d="m 17.310575,50.005433 c -0.168518,-0.272276 0.368387,-1.056126 1.026358,-1.741916 0.657948,-0.685795 1.74341,-1.602934 1.74341,-2.038073 0,-0.435138 -2.158132,-5.883482 -3.96037,-12.107487 C 13.443697,24.87548 12.876353,22.54598 11.808023,21.406392 11.088612,20.63896 10.5,19.819152 10.5,19.64227 c 0,-0.176841 2.321079,-0.315348 5.157928,-0.305108 l 3.245257,0.01122 c 1.803677,-0.07257 1.491041,0.06112 0.24146,1.082869 -0.693469,0.566959 -0.850451,1.320158 -0.850451,1.673727 0,0.703872 1.845852,7.612681 3.26825,12.523035 0.556578,1.887153 1.076195,3.428258 1.989392,5.089825 0.317772,0.07598 0.74378,-1.152537 2.767188,-8.675673 3.226078,-11.994761 3.280563,-11.725274 4.798147,-11.725274 h 1.287211 l 2.678522,10.354825 c 1.554588,6.009775 2.884418,10.153759 3.146142,10.069816 0.514158,-0.164885 4.075568,-12.947516 4.830951,-17.532636 0.399196,-2.423108 0.07969,-3.137429 -0.563326,-4.490587 -0.445428,-0.937343 -0.593992,-1.77482 -0.355866,-2.006026 C 42.781619,15.090104 49.852023,12.5 50.843963,12.5 c 1.11909,0 0.827404,0.936631 -1.036537,3.328524 -2.044783,2.6239 -1.878773,5.444612 -3.939281,12.466625 -1.034433,3.525302 -2.505847,8.251018 -3.26979,10.501567 -0.708026,2.085727 -0.629612,3.673944 -0.663825,4.938145 -0.05398,1.995717 0.222332,3.183914 1.333595,4.247046 0.942922,0.902099 1.441788,1.486297 1.348076,1.862217 C 44.477978,50.398644 41.000513,50.5 37.806749,50.5 c -3.680827,0 -5.358881,-0.203513 -5.400826,-0.883487 -0.01883,-0.305512 0.703069,-0.707189 1.311501,-1.229808 1.48076,-1.096404 1.493621,-1.621107 1.141572,-3.009418 C 33.776437,41.366838 31.49686,30.81122 31.128134,30.142848 30.946285,29.813184 30.36109,30.006703 30.056831,31.75612 c -0.910083,4.714376 -2.745206,9.90472 -3.156492,14.160627 0.116244,0.864641 0.149312,1.404346 1.057649,2.096217 1.015484,0.773439 1.588164,1.314119 1.626642,1.688765 0.06632,0.646194 -3.096994,0.79827 -6.678549,0.79827 -3.10092,0 -5.406093,-0.189019 -5.595506,-0.495058 z"
       style="opacity:0.24;fill:#ffffff;fill-opacity:1;stroke-width:0.366017"
       inkscape:connector-curvature="0" />
    <path
       id="path4509-3-6"
       d="m 16.910575,49.205433 c -0.168518,-0.272276 0.368387,-1.056126 1.026358,-1.741916 0.657948,-0.685795 1.74341,-1.602934 1.74341,-2.038073 0,-0.435138 -2.158132,-5.883482 -3.96037,-12.107487 C 13.043697,24.07548 12.476353,21.74598 11.408023,20.606392 10.688612,19.83896 10.1,19.019152 10.1,18.84227 c 0,-0.176841 2.321079,-0.315348 5.157928,-0.305108 l 3.245257,0.01122 c 1.803677,-0.07257 1.491041,0.06112 0.24146,1.082869 -0.693469,0.566959 -0.850451,1.320158 -0.850451,1.673727 0,0.703872 1.845852,7.612681 3.26825,12.523035 0.556578,1.887153 1.076195,3.428258 1.989392,5.089825 0.317772,0.07598 0.74378,-1.152537 2.767188,-8.675673 3.226078,-11.994761 3.280563,-11.725274 4.798147,-11.725274 h 1.287211 l 2.678522,10.354825 c 1.554588,6.009775 2.884418,10.153759 3.146142,10.069816 0.514158,-0.164885 4.075568,-12.947516 4.830951,-17.532636 0.399196,-2.423108 0.07969,-3.137429 -0.563326,-4.490587 -0.445428,-0.937343 -0.593992,-1.77482 -0.355866,-2.006026 C 42.381619,14.290104 49.452023,11.7 50.443963,11.7 c 1.11909,0 0.827404,0.936631 -1.036537,3.328524 -2.044783,2.6239 -1.878773,5.444612 -3.939281,12.466625 -1.034433,3.525302 -2.505847,8.251018 -3.26979,10.501567 -0.708026,2.085727 -0.629612,3.673944 -0.663825,4.938145 -0.05398,1.995717 0.222332,3.183914 1.333595,4.247046 0.942922,0.902099 1.441788,1.486297 1.348076,1.862217 C 44.077978,49.598644 40.600513,49.7 37.406749,49.7 c -3.680827,0 -5.358881,-0.203513 -5.400826,-0.883487 -0.01883,-0.305512 0.703069,-0.707189 1.311501,-1.229808 1.48076,-1.096404 1.493621,-1.621107 1.141572,-3.009418 C 33.376437,40.566838 31.09686,30.01122 30.728134,29.342848 30.546285,29.013184 29.96109,29.206703 29.656831,30.95612 c -0.910083,4.714376 -2.745206,9.90472 -3.156492,14.160627 0.116244,0.864641 0.149312,1.404346 1.057649,2.096217 1.015484,0.773439 1.588164,1.314119 1.626642,1.688765 0.06632,0.646194 -3.096994,0.79827 -6.678549,0.79827 -3.10092,0 -5.406093,-0.189019 -5.595506,-0.495058 z"
       style="fill:#ffffff;fill-opacity:1;stroke-width:0.366017"
       inkscape:connector-curvature="0" />
  </g>
</svg>
