<?xml version="1.0" encoding="UTF-8" standalone="no"?>
<svg
   width="62"
   height="62"
   version="1.1"
   id="svg29"
   sodipodi:docname="warmux.svg"
   inkscape:version="1.4 (unknown)"
   xml:space="preserve"
   xmlns:inkscape="http://www.inkscape.org/namespaces/inkscape"
   xmlns:sodipodi="http://sodipodi.sourceforge.net/DTD/sodipodi-0.dtd"
   xmlns:xlink="http://www.w3.org/1999/xlink"
   xmlns="http://www.w3.org/2000/svg"
   xmlns:svg="http://www.w3.org/2000/svg"><defs
     id="defs29"><linearGradient
       id="linearGradient29"
       inkscape:collect="always"><stop
         style="stop-color:#d3dce7;stop-opacity:1;"
         offset="0"
         id="stop29" /><stop
         style="stop-color:#eef1f6;stop-opacity:1;"
         offset="1"
         id="stop30" /></linearGradient><linearGradient
       inkscape:collect="always"
       xlink:href="#linearGradient29"
       id="linearGradient30"
       x1="30.782633"
       y1="60"
       x2="30.193521"
       y2="5"
       gradientUnits="userSpaceOnUse"
       gradientTransform="matrix(0.98214286,0,0,0.98245614,-0.42857152,-0.92982455)" /><linearGradient
       id="linearGradient3564"><stop
         style="stop-color:#b20607;stop-opacity:1;"
         offset="0"
         id="stop3566" /><stop
         style="stop-color:#b20607;stop-opacity:0;"
         offset="1"
         id="stop3568" /></linearGradient><linearGradient
       id="linearGradient3570"><stop
         style="stop-color:#fdea20;stop-opacity:1;"
         offset="0"
         id="stop3572" /><stop
         style="stop-color:#e9680a;stop-opacity:1;"
         offset="1"
         id="stop3574" /></linearGradient><linearGradient
       id="linearGradient3409"><stop
         style="stop-color:#fbd90a;stop-opacity:1;"
         offset="0"
         id="stop3411" /><stop
         id="stop3413"
         offset="0.3980374"
         style="stop-color:#fbd90a;stop-opacity:1;" /><stop
         style="stop-color:#df500a;stop-opacity:1;"
         offset="1"
         id="stop3415" /></linearGradient><linearGradient
       id="linearGradient4029"><stop
         style="stop-color:#fbd90a;stop-opacity:1;"
         offset="0"
         id="stop4031" /><stop
         id="stop4033"
         offset="0.40341854"
         style="stop-color:#fbd90a;stop-opacity:1;" /><stop
         style="stop-color:#df500a;stop-opacity:1;"
         offset="1"
         id="stop4035" /></linearGradient><linearGradient
       id="linearGradient3355"><stop
         id="stop3357"
         offset="0"
         style="stop-color:#fbd90a;stop-opacity:1;" /><stop
         style="stop-color:#fbd90a;stop-opacity:1;"
         offset="0.61271751"
         id="stop3359" /><stop
         id="stop3361"
         offset="1"
         style="stop-color:#df500a;stop-opacity:1;" /></linearGradient><linearGradient
       id="linearGradient3323"><stop
         style="stop-color:#fbd90a;stop-opacity:1;"
         offset="0"
         id="stop3325" /><stop
         id="stop3345"
         offset="0.67312354"
         style="stop-color:#fbd90a;stop-opacity:1;" /><stop
         style="stop-color:#df500a;stop-opacity:1;"
         offset="1"
         id="stop3327" /></linearGradient><linearGradient
       id="linearGradient3681"><stop
         style="stop-color:#b3b3b3;stop-opacity:1;"
         offset="0"
         id="stop3683" /><stop
         style="stop-color:#ffffff;stop-opacity:1;"
         offset="1"
         id="stop3685" /></linearGradient></defs><sodipodi:namedview
     id="namedview29"
     pagecolor="#ffffff"
     bordercolor="#000000"
     borderopacity="0.25"
     inkscape:showpageshadow="2"
     inkscape:pageopacity="0.0"
     inkscape:pagecheckerboard="0"
     inkscape:deskcolor="#d1d1d1"
     inkscape:zoom="5"
     inkscape:cx="48.3"
     inkscape:cy="38.9"
     inkscape:window-width="1920"
     inkscape:window-height="998"
     inkscape:window-x="0"
     inkscape:window-y="0"
     inkscape:window-maximized="1"
     inkscape:current-layer="svg29" /><rect
     style="opacity:0.2;stroke-width:0.9823"
     width="55"
     height="55.017544"
     x="3.5"
     y="3.9824562"
     ry="13.754386"
     id="rect1" /><rect
     style="fill:url(#linearGradient30);stroke-width:0.9823"
     width="55"
     height="55.017544"
     x="3.5"
     y="3"
     ry="13.754386"
     id="rect2" /><path
     style="opacity:0.1;fill:#ffffff;stroke-width:0.9823"
     d="M 17.25,3 C 9.6324999,3 3.4999999,9.1344561 3.4999999,16.754386 v 0.982456 c 0,-7.61993 6.1325,-13.7543858 13.7500001,-13.7543858 h 27.5 c 7.6175,0 13.75,6.1344558 13.75,13.7543858 V 16.754386 C 58.5,9.1344561 52.3675,3 44.75,3 Z"
     id="path28" /><g
     id="g2"
     transform="translate(3.5004012,3.2481571)"><path
       style="opacity:0.2;stroke-width:0.855723"
       d="M 35.519621,7.6219563 C 34.972836,7.3053457 34.279094,7.4920212 33.962973,8.0402184 L 32.414455,10.73098 A 20.504616,20.570251 0 0 0 9.7466031,20.405853 20.504616,20.570251 0 0 0 17.251288,48.504818 20.504616,20.570251 0 0 0 45.260594,40.976107 20.504616,20.570251 0 0 0 42.277178,16.449504 l 1.550745,-2.694527 c 0.315548,-0.548284 0.129569,-1.244529 -0.416965,-1.561076 L 35.518736,7.6226762 Z"
       id="path1" /><rect
       style="fill:#ff5555;stroke-width:0.855724"
       width="3.4201891"
       height="10.276982"
       x="37.012093"
       y="-17.831673"
       rx="0.44889984"
       ry="0.45732558"
       transform="matrix(0.8653321,0.50119893,-0.49880202,0.86671595,0,0)"
       id="rect1-3" /><path
       style="fill:#233143;stroke-width:0.855723;fill-opacity:1"
       d="M 35.519621,6.7642098 C 34.972836,6.4475995 34.279094,6.6342747 33.962973,7.1824714 L 32.414455,9.8732343 A 20.504616,20.570251 0 0 0 9.7466031,19.548108 20.504616,20.570251 0 0 0 17.251288,47.647066 20.504616,20.570251 0 0 0 45.260594,40.118354 20.504616,20.570251 0 0 0 42.277178,15.59176 l 1.550745,-2.694527 c 0.315548,-0.548285 0.129569,-1.244541 -0.416965,-1.561082 L 35.518736,6.7649297 Z"
       id="path2-6" /><path
       style="opacity:0.2;stroke-width:0.855723"
       d="m 25.772094,15.262116 c -0.302036,-0.0022 -0.577049,0.0088 -0.817628,0.03018 -2.26396,0.20204 -5.216084,2.224867 -7.719071,5.293251 -2.419481,2.966044 -3.117902,5.336025 -2.085785,7.081099 1.162333,1.965246 2.508366,3.082828 4.385151,3.646011 1.605594,0.481814 2.08542,0.774092 3.460743,2.109268 2.219974,2.155208 2.984803,2.397661 7.652326,2.410586 1.971559,0.0064 4.345473,-0.07514 5.276197,-0.177443 1.3761,-0.151146 1.957038,-0.327569 3.093632,-0.950846 3.015038,-1.653371 3.501087,-2.777198 2.613078,-6.016423 -0.276969,-1.010251 -0.729398,-3.14487 -1.004523,-4.744179 -0.275098,-1.599307 -0.620959,-3.155924 -0.770901,-3.458523 -0.667359,-1.346728 -2.814632,-2.642975 -6.514326,-3.933951 -2.027562,-0.707512 -5.45456,-1.273924 -7.568893,-1.288992 z m -1.311537,6.856786 c 1.793518,0.07566 2.198619,1.65333 2.18924,3.003189 0,1.906095 -0.273564,2.642745 -1.254807,3.371472 -0.732901,0.544251 -2.524336,0.656379 -3.060265,0.190838 -0.559998,-0.486451 -0.810956,-1.397282 -0.810956,-2.942926 0,-2.327697 1.048117,-3.621902 2.936788,-3.622573 z m 9.100694,0 h 0.0034 c 0.442566,-0.0078 0.915546,0.133464 1.48174,0.418504 0.585818,0.294949 1.243065,0.771914 1.461718,1.057981 0.521483,0.682263 0.524166,2.217492 0.0101,3.927246 -0.777375,2.58034 -2.32435,3.620734 -4.451901,2.986448 -0.818696,-0.244079 -1.78496,-1.401447 -1.958965,-2.350322 -0.281174,-1.533211 0.970963,-4.779999 2.14919,-5.574483 0.44886,-0.302756 0.86246,-0.456924 1.304718,-0.465374 z M 18.576973,32.404069 c -0.718474,-0.0044 -1.482347,0.23529 -2.215936,0.72318 -0.899098,0.59798 -2.654283,2.676706 -3.120336,3.699573 -0.881933,1.935677 0.58213,4.927261 2.779932,5.674939 0.773091,0.263001 0.785243,0.261435 1.485079,-0.077 0.832008,-0.402375 1.240374,-0.943448 2.683156,-3.562318 0.97464,-1.769108 1.234477,-2.430941 1.304867,-3.331295 0.07966,-1.018651 0.02723,-1.198555 -0.537298,-1.928472 -0.609821,-0.78828 -1.455701,-1.193476 -2.379464,-1.198597 z m 7.108356,5.142595 c -1.658454,0 -2.836797,1.045381 -3.604236,3.190667 -0.665139,1.85942 -0.7405,3.438028 -0.190227,3.990863 0.958486,0.962914 4.510102,1.741433 5.593243,1.225385 0.452163,-0.215424 0.592807,-0.535607 0.807615,-1.841418 0.205632,-1.249965 -0.08041,-4.041697 -0.523954,-5.11915 -0.395526,-0.960796 -1.095566,-1.446347 -2.082441,-1.446347 z m 7.782473,0 c -0.148797,-8.55e-4 -0.321301,0.0078 -0.527284,0.02336 -1.228877,0.09413 -1.893216,0.513319 -2.486251,1.570233 -0.395362,0.704584 -0.431891,0.962731 -0.350412,2.39049 0.101714,1.780989 0.374977,2.693343 0.854336,2.825746 0.514888,0.14217 2.828767,-0.06656 3.844512,-0.348198 1.249125,-0.346288 2.099138,-1.02738 2.099138,-1.677371 0,-0.693948 -1.798164,-3.98849 -2.432858,-4.456239 -0.31824,-0.234527 -0.554992,-0.324316 -1.001181,-0.328087 z"
       id="path3-7" /><path
       style="fill:#f5f5f5;stroke-width:0.855723;fill-opacity:1"
       d="m 25.772094,14.405017 c -0.302036,-0.0022 -0.577049,0.0088 -0.817628,0.03018 -2.26396,0.202039 -5.216084,2.224867 -7.719071,5.293248 -2.419481,2.966044 -3.117902,5.336021 -2.085785,7.081097 1.162333,1.965248 2.508366,3.082826 4.385151,3.646016 1.605594,0.481809 2.08542,0.774085 3.460743,2.109267 2.219974,2.155203 2.984803,2.397652 7.652326,2.410584 1.971559,0.0064 4.345473,-0.07513 5.276197,-0.177447 1.3761,-0.151142 1.957038,-0.327565 3.093632,-0.950846 3.015038,-1.653368 3.501087,-2.777192 2.613078,-6.016424 -0.276969,-1.010246 -0.729398,-3.144867 -1.004523,-4.744168 -0.275098,-1.599313 -0.620959,-3.155928 -0.770901,-3.458529 -0.667359,-1.346726 -2.814632,-2.642972 -6.514326,-3.93395 -2.027562,-0.70751 -5.45456,-1.273925 -7.568893,-1.288992 z m -1.311537,6.856791 c 1.793518,0.07566 2.198619,1.653332 2.18924,3.003187 0,1.906095 -0.273564,2.642742 -1.254807,3.371475 -0.732901,0.544252 -2.524336,0.656377 -3.060265,0.190831 -0.559998,-0.486447 -0.810956,-1.397284 -0.810956,-2.942926 0,-2.3277 1.048117,-3.621895 2.936788,-3.622567 z m 9.100694,0 h 0.0034 c 0.442566,-0.0078 0.915546,0.133459 1.48174,0.418503 0.585818,0.294945 1.243065,0.771909 1.461718,1.057978 0.521483,0.682255 0.524166,2.217494 0.0101,3.927248 -0.777375,2.580338 -2.32435,3.620733 -4.451901,2.986452 -0.818696,-0.24409 -1.78496,-1.401451 -1.958965,-2.35033 -0.281174,-1.533211 0.970963,-4.779995 2.14919,-5.574478 0.44886,-0.302758 0.86246,-0.456926 1.304718,-0.465373 z M 18.576973,31.546977 c -0.718474,-0.0044 -1.482347,0.235289 -2.215936,0.723169 -0.899098,0.597985 -2.654283,2.676716 -3.120336,3.699584 -0.881933,1.935665 0.58213,4.927258 2.779932,5.674929 0.773091,0.263 0.785243,0.261441 1.485079,-0.077 0.832008,-0.402374 1.240374,-0.943448 2.683156,-3.562317 0.97464,-1.769106 1.234477,-2.430941 1.304867,-3.331301 0.07966,-1.018652 0.02723,-1.198557 -0.537298,-1.928467 -0.609821,-0.788291 -1.455701,-1.193488 -2.379464,-1.1986 z m 7.108356,5.142583 c -1.658454,0 -2.836797,1.045384 -3.604236,3.190675 -0.665139,1.859416 -0.7405,3.438029 -0.190227,3.990865 0.958486,0.962914 4.510102,1.741433 5.593243,1.225381 0.452163,-0.21542 0.592807,-0.535604 0.807615,-1.841421 0.205632,-1.249965 -0.08041,-4.041696 -0.523954,-5.119147 -0.395526,-0.960791 -1.095566,-1.446353 -2.082441,-1.446353 z m 7.782473,0 c -0.148797,-8.55e-4 -0.321301,0.0078 -0.527284,0.02336 -1.228877,0.09412 -1.893216,0.513314 -2.486251,1.570227 -0.395362,0.704585 -0.431891,0.962739 -0.350412,2.390496 0.101714,1.780991 0.374977,2.693345 0.854336,2.825741 0.514888,0.142177 2.828767,-0.06656 3.844512,-0.348193 1.249125,-0.346288 2.099138,-1.027379 2.099138,-1.67737 0,-0.693947 -1.798164,-3.988497 -2.432858,-4.456238 -0.31824,-0.23453 -0.554992,-0.324319 -1.001181,-0.328097 z"
       id="path4-5" /><path
       style="opacity:0.2;fill:#ffffff;stroke-width:0.855723"
       d="m 25.77222,14.405412 c -0.302042,-0.0022 -0.577069,0.0088 -0.817649,0.03018 -2.263964,0.20204 -5.21632,2.224867 -7.719303,5.29325 -1.848788,2.266427 -2.68328,4.181044 -2.518039,5.738532 0.157303,-1.38707 0.995738,-3.015255 2.518039,-4.881432 2.502983,-3.06839 5.455339,-5.091214 7.719303,-5.293256 0.24058,-0.02145 0.515607,-0.03224 0.817649,-0.03018 2.114336,0.01509 5.541555,0.581491 7.569125,1.289002 3.699686,1.290966 5.847158,2.587218 6.514511,3.933939 0.149946,0.302603 0.495832,1.859221 0.77093,3.458525 0.275124,1.599307 0.727572,3.733928 1.004549,4.744172 0.198239,0.723145 0.315339,1.328163 0.363767,1.869871 0.07518,-0.728726 -0.05307,-1.593575 -0.363767,-2.726969 -0.276977,-1.010244 -0.729425,-3.144872 -1.004549,-4.744174 -0.275098,-1.599304 -0.620984,-3.155922 -0.77093,-3.458517 -0.667353,-1.34673 -2.814825,-2.642975 -6.514511,-3.933948 -2.02757,-0.70751 -5.454789,-1.273926 -7.569125,-1.288995 z m 0.861043,10.228256 c -0.04025,1.607202 -0.330437,2.329057 -1.238165,3.00319 -0.732895,0.544251 -2.524417,0.656376 -3.060346,0.190836 -0.495735,-0.430623 -0.737623,-1.222425 -0.789294,-2.464154 -0.0068,0.126777 -0.02165,0.24468 -0.02165,0.378328 0,1.545644 0.25098,2.456468 0.810974,2.942925 0.535934,0.465536 2.32746,0.353415 3.060357,-0.190837 0.981249,-0.728733 1.254848,-1.465382 1.254848,-3.371478 0.0013,-0.16048 -0.0046,-0.324802 -0.0167,-0.48881 z m 10.249013,0.160704 c -0.0437,0.571584 -0.164139,1.207603 -0.363775,1.871552 -0.777373,2.580339 -2.324478,3.620736 -4.452029,2.986452 -0.818699,-0.244083 -1.785022,-1.401451 -1.959024,-2.350324 -0.0039,-0.02082 -8.7e-5,-0.04893 -0.0033,-0.07027 -0.03364,0.341787 -0.04482,0.66508 0.0033,0.927408 0.174002,0.948872 1.140325,2.106241 1.959024,2.350316 2.127551,0.63429 3.674656,-0.406102 4.452029,-2.986445 0.307162,-1.02157 0.426021,-1.976408 0.363775,-2.728655 z m -18.305394,6.752991 c -0.718475,-0.0044 -1.482407,0.235291 -2.216001,0.723179 -0.899105,0.597978 -2.654368,2.676704 -3.120421,3.69958 -0.235476,0.516809 -0.298598,1.107973 -0.230282,1.712515 0.03645,-0.299251 0.108344,-0.587806 0.230282,-0.855414 0.466053,-1.022877 2.221316,-3.101606 3.120421,-3.699587 0.733594,-0.48789 1.497526,-0.727459 2.216001,-0.723172 0.923763,0.0054 1.769712,0.410308 2.379535,1.198598 0.351002,0.453779 0.490906,0.709045 0.537316,1.071374 0.07966,-1.018655 0.02721,-1.198558 -0.537316,-1.928475 -0.609823,-0.788291 -1.455772,-1.193475 -2.379535,-1.198598 z m 7.108573,5.142588 c -1.658456,0 -2.836911,1.045393 -3.604344,3.190677 -0.441902,1.235335 -0.616562,2.337983 -0.527305,3.106982 0.05854,-0.652228 0.230121,-1.419112 0.527305,-2.24988 0.767433,-2.145292 1.945888,-3.190684 3.604344,-3.190684 0.986871,0 1.686972,0.485561 2.082506,1.446358 0.316602,0.769171 0.544493,2.401194 0.57903,3.733052 0.07835,-1.385823 -0.190276,-3.645717 -0.57903,-4.590159 -0.395534,-0.960784 -1.095635,-1.446346 -2.082506,-1.446346 z m 7.782706,0 c -0.148795,-8.61e-4 -0.321324,0.0078 -0.5273,0.02336 -1.228882,0.09413 -1.893291,0.513313 -2.486327,1.570228 -0.351977,0.627278 -0.412346,0.945577 -0.365444,2.005478 0.03184,-0.44376 0.130136,-0.729038 0.365444,-1.14838 0.593036,-1.056911 1.257445,-1.476069 2.486327,-1.570232 0.205976,-0.01538 0.378505,-0.02454 0.5273,-0.02337 0.446184,0.0034 0.682964,0.09358 1.001206,0.328102 0.542875,0.400073 1.929128,2.857559 2.321134,3.997565 0.0671,-0.132244 0.111795,-0.265644 0.111795,-0.39842 0,-0.693947 -1.798228,-3.988491 -2.432929,-4.456237 -0.318242,-0.234535 -0.555022,-0.324327 -1.001206,-0.328105 z"
       id="path5-3" /><path
       style="opacity:0.1;fill:#ffffff;stroke-width:0.855723"
       d="M 35.090115,6.6195489 C 34.64951,6.5641801 34.200841,6.770871 33.963758,7.1820195 L 32.415222,9.87384 A 20.504616,20.570251 0 0 0 9.7462466,19.547992 20.504616,20.570251 0 0 0 7.0212925,29.977134 20.504616,20.570251 0 0 1 9.7462466,20.405096 20.504616,20.570251 0 0 1 32.415222,10.730941 l 1.548536,-2.69015 c 0.316113,-0.5481968 1.008417,-0.7351154 1.555203,-0.418505 l 7.891183,4.57175 c 0.232628,0.134725 0.384456,0.344238 0.475571,0.575858 0.22231,-0.524717 0.02967,-1.140356 -0.475571,-1.432959 L 35.518961,6.7651881 v -0.00175 C 35.382268,6.6843611 35.236988,6.6380031 35.090115,6.6195466 Z m 7.484019,9.3125631 -0.297025,0.517274 a 20.504616,20.570251 0 0 1 5.700206,14.098589 20.504616,20.570251 0 0 0 -5.403181,-14.615863 z"
       id="path6-5" /></g></svg>
