<?xml version="1.0" encoding="UTF-8" standalone="no"?>
<svg
   width="62"
   height="62"
   version="1.1"
   id="svg7"
   sodipodi:docname="workbench.svg"
   inkscape:version="1.4.2 (unknown)"
   xmlns:inkscape="http://www.inkscape.org/namespaces/inkscape"
   xmlns:sodipodi="http://sodipodi.sourceforge.net/DTD/sodipodi-0.dtd"
   xmlns:xlink="http://www.w3.org/1999/xlink"
   xmlns="http://www.w3.org/2000/svg"
   xmlns:svg="http://www.w3.org/2000/svg">
  <defs
     id="defs7">
    <linearGradient
       inkscape:collect="always"
       xlink:href="#linearGradient8"
       id="linearGradient10"
       x1="31.5"
       y1="59.017544"
       x2="31.5"
       y2="4.9824562"
       gradientUnits="userSpaceOnUse"
       gradientTransform="translate(-0.5,-1)" />
    <linearGradient
       id="linearGradient8"
       inkscape:collect="always">
      <stop
         style="stop-color:#2d3d53;stop-opacity:1;"
         offset="0"
         id="stop8" />
      <stop
         style="stop-color:#354864;stop-opacity:1;"
         offset="1"
         id="stop10" />
    </linearGradient>
    <linearGradient
       id="paint3_linear_332_93"
       x1="37.304401"
       y1="24.2272"
       x2="23.255199"
       y2="12.9039"
       gradientUnits="userSpaceOnUse"
       gradientTransform="matrix(1,0,0,1.0089403,-0.9999998,-0.28624446)">
      <stop
         stop-color="#731FFF"
         id="stop9" />
      <stop
         offset="0.905415"
         stop-color="#EB1AFF"
         id="stop10-5" />
    </linearGradient>
    <linearGradient
       id="paint1_linear_332_93"
       x1="2"
       y1="61.696899"
       x2="14.6751"
       y2="28.2421"
       gradientUnits="userSpaceOnUse"
       gradientTransform="matrix(0.91578336,0,0,1,1.7216248,-7.2011443)">
      <stop
         stop-color="#731FFF"
         id="stop5" />
      <stop
         offset="0.905415"
         stop-color="#EB1AFF"
         id="stop6" />
    </linearGradient>
    <linearGradient
       id="paint2_linear_332_93"
       x1="54.645401"
       y1="46.748501"
       x2="26.243099"
       y2="10.4978"
       gradientUnits="userSpaceOnUse"
       gradientTransform="matrix(0.91578336,0,0,1,1.7216248,-7.2011443)">
      <stop
         offset="0.118093"
         stop-color="#731FFF"
         id="stop7" />
      <stop
         offset="0.905415"
         stop-color="#EB1AFF"
         id="stop8-3" />
    </linearGradient>
    <linearGradient
       id="linearGradient4"
       x1="16"
       x2="47"
       y1="16"
       y2="48"
       gradientUnits="userSpaceOnUse"
       gradientTransform="matrix(1.1935485,0,0,1.1875,-6.5967725,-6.999994)">
      <stop
         stop-color="#ffffff"
         offset="0"
         id="stop1" />
      <stop
         stop-color="#ffffff"
         offset=".45161"
         id="stop2" />
      <stop
         stop-color="#fef0cb"
         offset=".59375"
         id="stop3" />
      <stop
         stop-color="#ffbcc3"
         offset="1"
         id="stop4" />
    </linearGradient>
    <linearGradient
       id="paint0_linear_19_69"
       x1="13.5381"
       y1="7.6556602"
       x2="19.187599"
       y2="7.6556602"
       gradientUnits="userSpaceOnUse"
       gradientTransform="matrix(1.818183,0,0,1.818183,11.458092,11.928816)">
      <stop
         stop-color="#02AA93"
         id="stop3-5" />
      <stop
         offset="1"
         stop-color="#67FF80"
         id="stop4-3" />
    </linearGradient>
    <linearGradient
       id="paint1_linear_19_69"
       x1="13.5426"
       y1="5.74156"
       x2="23"
       y2="5.74156"
       gradientUnits="userSpaceOnUse"
       gradientTransform="matrix(1.818183,0,0,1.818183,11.458092,11.928816)">
      <stop
         stop-color="#02AA93"
         id="stop5-5" />
      <stop
         offset="1"
         stop-color="#67FF80"
         id="stop6-6" />
    </linearGradient>
    <linearGradient
       id="paint2_linear_19_69"
       x1="1"
       y1="12.425"
       x2="22.2339"
       y2="12.425"
       gradientUnits="userSpaceOnUse"
       gradientTransform="matrix(1.818183,0,0,1.818183,11.458092,11.928816)">
      <stop
         stop-color="#02AA93"
         id="stop7-2" />
      <stop
         offset="1"
         stop-color="#67FF80"
         id="stop8-9" />
    </linearGradient>
  </defs>
  <sodipodi:namedview
     id="namedview7"
     pagecolor="#ffffff"
     bordercolor="#000000"
     borderopacity="0.25"
     inkscape:showpageshadow="2"
     inkscape:pageopacity="0.0"
     inkscape:pagecheckerboard="0"
     inkscape:deskcolor="#d1d1d1"
     inkscape:zoom="8.3085046"
     inkscape:cx="34.242022"
     inkscape:cy="28.585168"
     inkscape:window-width="1920"
     inkscape:window-height="998"
     inkscape:window-x="0"
     inkscape:window-y="0"
     inkscape:window-maximized="1"
     inkscape:current-layer="svg7"
     showgrid="false">
    <inkscape:grid
       id="grid1"
       units="px"
       originx="0"
       originy="0"
       spacingx="1"
       spacingy="1"
       empcolor="#0099e5"
       empopacity="0.30196078"
       color="#0099e5"
       opacity="0.14901961"
       empspacing="5"
       enabled="true"
       visible="false" />
  </sodipodi:namedview>
  <rect
     style="opacity:0.2;stroke-width:0.9823"
     width="55"
     height="55.017544"
     x="3.5"
     y="3.9824562"
     rx="8.25"
     ry="8.2526312"
     id="rect1" />
  <rect
     style="fill:url(#linearGradient10);stroke-width:0.9823"
     width="55"
     height="55.017544"
     x="3.5"
     y="3"
     rx="8.25"
     ry="8.2526312"
     id="rect2" />
  <path
     style="opacity:0.1;fill:#ffffff;stroke-width:0.9823"
     d="M 11.748466,3 C 7.1779652,3 3.5,6.679138 3.5,11.251097 v 0.982456 c 0,-4.571959 3.6779652,-8.251097 8.248466,-8.251097 h 38.503068 c 4.5705,0 8.248466,3.679138 8.248466,8.251097 V 11.251097 C 58.5,6.679138 54.822034,3 50.251534,3 Z"
     id="path4-3" />
  <g
     id="g1"
     transform="matrix(0.97888831,0,0,0.98155471,1.1400052,-53.856392)">
    <path
       fill="#5ad78f"
       d="m 14.148,62 a 5.147,5.147 0 0 0 -5.147,5.147 v 12.012 a 5.1475,5.1475 0 1 0 10.295,0 V 67.147 A 5.147,5.147 0 0 0 14.148,62"
       id="path6" />
    <path
       fill="#4dbf7f"
       d="m 19.296,79.159 c 0,2.843 -2.304,5.147 -5.148,5.147 -2.844,0 -5.147,-2.304 -5.147,-5.147 a 5.1475,5.1475 0 1 1 10.295,0"
       id="path7" />
    <path
       fill="#4cda86"
       d="m 18.009,82.59 a 3.862,3.862 0 1 1 -7.723,-0.001 3.862,3.862 0 0 1 7.723,0.001"
       id="path8" />
    <path
       fill="#26a269"
       d="m 18.008,83.877 a 3.862,3.862 0 0 1 -7.72,0 3.862,3.862 0 0 1 7.72,0"
       id="path9" />
    <path
       fill="#eaeaea"
       d="M 15.864,97.175 V 84.306 a 1.716,1.716 0 1 0 -3.432,0 v 12.87 a 1.716,1.716 0 1 0 3.432,0"
       id="path10" />
    <path
       fill="#c0bfbc"
       d="m 16.61,96.302 -1.121,4.106 a 0.27,0.27 0 0 1 -0.26,0.199 h -2.162 a 0.27,0.27 0 0 1 -0.26,-0.2 l -1.12,-4.105 a 0.33,0.33 0 0 1 0.056,-0.285 0.32,0.32 0 0 1 0.26,-0.129 h 4.29 c 0.102,0 0.198,0.047 0.26,0.13 0.062,0.08 0.083,0.185 0.057,0.284 m 0,0"
       id="path11" />
    <path
       fill="#deddda"
       d="m 16.598,95.87 -1.104,3.681 a 0.28,0.28 0 0 1 -0.265,0.198 H 13.067 A 0.28,0.28 0 0 1 12.803,99.551 L 11.698,95.87 a 0.317,0.317 0 0 1 0.305,-0.41 h 4.29 a 0.317,0.317 0 0 1 0.305,0.41 m 0,0"
       id="path12" />
    <path
       fill="#2ec27e"
       d="m 14.149,62 a 5.1,5.1 0 0 0 -1.717,0.299 v 8.709 a 1.717,1.717 0 0 0 3.432,0 v -8.71 A 5.1,5.1 0 0 0 14.149,62"
       id="path13"
       style="stroke-width:0.429" />
    <path
       fill="#26a269"
       d="m 17.581,63.32 v 10.262 c 0,0.948 0.767,1.715 1.715,1.715 v -8.15 A 5.13,5.13 0 0 0 17.581,63.321 Z M 10.717,63.318 A 5.13,5.13 0 0 0 9,67.147 v 8.15 c 0.948,0 1.717,-0.767 1.717,-1.715 z"
       id="path14"
       style="stroke-width:0.429" />
    <path
       fill="#9a9996"
       d="m 58.546,72.724 v -1.716 l -0.98,-0.332 0.038,1.753 z M 32.594,66.29 h 7.721 v 6.863 h -7.721 z"
       id="path15" />
    <path
       fill="#d7d6d3"
       d="m 27.446,63.715 h 5.148 c 0.71,0 1.287,0.599 1.287,1.336 v 9.342 c 0,0.737 -0.577,1.334 -1.287,1.334 h -5.148 c -0.71,0 -1.286,-0.596 -1.286,-1.334 v -9.342 c 0,-0.737 0.576,-1.335 1.286,-1.335 m 0,0"
       id="path16" />
    <path
       fill="#9a9996"
       d="m 37.741,64.574 h 10.297 c 0.71,0 1.286,0.576 1.286,1.287 v 7.721 c 0,0.71 -0.576,1.287 -1.286,1.287 H 37.741 c -0.71,0 -1.287,-0.577 -1.287,-1.287 v -7.721 c 0,-0.71 0.577,-1.287 1.287,-1.287 m 0,0"
       id="path17" />
    <path
       fill="#9a9996"
       d="m 47.393,70.579 c 4.504,0 7.936,0 9.866,2.788 l 1.287,-0.643 C 57.474,68.434 54.042,66.29 49.323,66.29 h -3.217 z"
       id="path18" />
    <path
       fill="#c0bfbc"
       d="m 47.393,68.863 c 4.528,0 7.936,0 9.866,2.789 l 1.287,-0.644 c -1.072,-4.29 -6.22,-6.434 -10.938,-6.434 h -1.502 z"
       id="path19" />
    <path
       fill="#c0bfbc"
       d="m 37.741,64.574 h 10.297 c 0.71,0 1.286,0.56 1.286,1.248 v 4.367 c 0,0.69 -0.576,1.248 -1.286,1.248 H 37.741 c -0.71,0 -1.287,-0.558 -1.287,-1.248 v -4.367 c 0,-0.689 0.577,-1.248 1.287,-1.248 m 0,0"
       id="path20" />
    <path
       fill="#cecdca"
       d="m 42.889,72.295 a 2.145,2.145 0 0 1 2.145,2.145 v 15.443 a 2.145,2.145 0 1 1 -4.29,0 V 74.44 a 2.145,2.145 0 0 1 2.145,-2.145"
       id="path21" />
    <path
       fill="#ff922c"
       d="m 41.602,80.016 h 2.574 a 2.574,2.574 0 0 1 2.574,2.574 v 17.16 a 2.574,2.574 0 0 1 -2.574,2.573 H 41.602 A 2.574,2.574 0 0 1 39.029,99.749 V 82.59 a 2.574,2.574 0 0 1 2.573,-2.574"
       id="path22" />
    <path
       fill="#c64600"
       d="m 41.28,97.819 h 3.218 a 2.253,2.253 0 0 1 0,4.504 H 41.28 a 2.253,2.253 0 0 1 0,-4.504"
       id="path23" />
    <path
       fill="#a7a6a4"
       d="m 25.324,79.47 a 6.805,6.805 0 0 0 2.55,13.114 6.806,6.806 0 0 0 6.807,-6.805 c 0,-2.855 -1.76,-5.3 -4.255,-6.309 v 6.309 l -2.552,1.276 -2.55,-1.276 z"
       id="path27" />
    <path
       fill="#deddda"
       d="m 25.302,77.943 a 6.864,6.864 0 0 0 2.573,13.226 6.865,6.865 0 0 0 6.865,-6.863 6.87,6.87 0 0 0 -4.291,-6.363 v 6.363 l -2.574,1.287 -2.573,-1.287 z"
       id="path28" />
    <path
       fill="#9a9996"
       d="m 27.875,87.738 a 3.423,3.423 0 0 0 -3.432,3.432 v 16.3 a 3.423,3.423 0 0 0 3.432,3.432 3.423,3.423 0 0 0 3.432,-3.432 v -16.3 a 3.423,3.423 0 0 0 -3.432,-3.432 m 0,18.017 a 1.287,1.287 0 1 1 0,2.574 1.287,1.287 0 0 1 0,-2.574"
       id="path29" />
    <path
       fill="#deddda"
       d="m 27.875,86.88 a 3.423,3.423 0 0 0 -3.432,3.432 v 16.3 a 3.423,3.423 0 0 0 3.432,3.432 3.423,3.423 0 0 0 3.432,-3.432 v -16.3 A 3.423,3.423 0 0 0 27.875,86.88 m 0,18.017 a 1.287,1.287 0 1 1 0,2.574 1.287,1.287 0 0 1 0,-2.574"
       id="path30" />
    <path
       fill="#a7a6a4"
       d="m 27.875,90.312 c 0.948,0 1.716,0.767 1.716,1.716 v 7.721 a 1.716,1.716 0 1 1 -3.432,0 v -7.721 c 0,-0.949 0.768,-1.716 1.716,-1.716 m 0,0"
       id="path31" />
  </g>
</svg>
