<?xml version="1.0" encoding="UTF-8" standalone="no"?>
<svg
   width="62"
   height="62"
   version="1.1"
   id="svg10"
   sodipodi:docname="worldofpadman.svg"
   inkscape:version="1.4 (unknown)"
   xmlns:inkscape="http://www.inkscape.org/namespaces/inkscape"
   xmlns:sodipodi="http://sodipodi.sourceforge.net/DTD/sodipodi-0.dtd"
   xmlns="http://www.w3.org/2000/svg"
   xmlns:svg="http://www.w3.org/2000/svg">
  <defs
     id="defs10" />
  <sodipodi:namedview
     id="namedview10"
     pagecolor="#ffffff"
     bordercolor="#000000"
     borderopacity="0.25"
     inkscape:showpageshadow="2"
     inkscape:pageopacity="0.0"
     inkscape:pagecheckerboard="0"
     inkscape:deskcolor="#d1d1d1"
     inkscape:zoom="12.109375"
     inkscape:cx="32"
     inkscape:cy="32"
     inkscape:window-width="1920"
     inkscape:window-height="998"
     inkscape:window-x="0"
     inkscape:window-y="0"
     inkscape:window-maximized="1"
     inkscape:current-layer="svg10" />
  <g
     transform="matrix(0.93333334,0,0,0.9411319,1.133333,-929.76486)"
     id="g10">
    <path
       style="opacity:0.2"
       d="m 52.745288,1046.2612 c -0.334088,-0.048 -0.703718,-0.138 -0.821406,-0.198 -0.11768,-0.06 -2.49091,-1.351 -5.27383,-2.868 -2.78292,-1.5174 -5.15356,-2.8066 -5.26809,-2.8654 -0.200152,-0.102 -0.341616,-0.086 -3.647038,0.423 l -3.438806,0.5296 -4.651402,-0.274 c -2.558272,-0.15 -4.90125,-0.2844 -5.206622,-0.2972 -0.531234,-0.024 -0.763182,-0.094 -5.369741,-1.7016 -2.647987,-0.923 -4.882144,-1.7206 -4.964793,-1.7724 -0.135942,-0.086 -8.5405079,-6.86 -8.7390329,-7.0444 -0.046112,-0.042 -0.7948386,-2.0322 -1.6638372,-4.4204 -0.8689986,-2.3886 -1.621014,-4.4254 -1.6711454,-4.5268 -0.081714,-0.164 -0.02374,-0.7008 0.560128,-5.174 0.6087114,-4.6636 0.6611364,-4.9998 0.8021552,-5.1434 0.082984,-0.084 1.7585878,-2.0548 3.7235648,-4.3786 l 3.5726865,-4.2252 3.787106,-1.8376 3.787103,-1.83722 5.092712,-1.1444 5.092712,-1.1448 4.676622,0.102 4.67662,0.102 4.59194,1.427 4.59194,1.427 3.64393,2.32402 c 2.00416,1.2784 3.707304,2.3924 3.784766,2.4758 0.11402,0.122 5.496354,6.502 5.791898,6.8644 0.0464,0.056 0.469136,1.7674 0.93945,3.8008 L 62,1018.5816 l -0.665322,3.8102 c -0.610328,3.4952 -0.679756,3.8288 -0.839994,4.0388 -1.50168,1.9668 -5.06192,6.4008 -5.20795,6.4862 -0.14198,0.082 -4.72455,3.7268 -5.071202,4.0322 -0.02678,0.024 0.71987,2.1442 1.659238,4.7126 0.939368,2.568 1.707942,4.6772 1.707942,4.6868 0,0.028 -0.17952,0.02 -0.837424,-0.086 z"
       id="path1" />
    <path
       style="fill:#ff8534;fill-opacity:1"
       d="m 52.745288,1045.2606 c -0.334088,-0.048 -0.703718,-0.138 -0.821406,-0.198 -0.11768,-0.06 -2.49091,-1.351 -5.27383,-2.868 -2.78292,-1.5174 -5.15356,-2.8066 -5.26809,-2.8654 -0.200152,-0.102 -0.341616,-0.086 -3.647038,0.423 l -3.438806,0.5296 -4.651402,-0.274 c -2.558272,-0.15 -4.90125,-0.2844 -5.206622,-0.2972 -0.531234,-0.024 -0.763182,-0.094 -5.369741,-1.7016 -2.647987,-0.923 -4.882144,-1.7206 -4.964793,-1.7724 -0.135942,-0.086 -8.5405079,-6.86 -8.7390329,-7.0444 -0.046112,-0.042 -0.7948386,-2.0322 -1.6638372,-4.4204 -0.8689986,-2.3886 -1.621014,-4.4254 -1.6711454,-4.5268 -0.081714,-0.164 -0.02374,-0.7008 0.560128,-5.174 0.6087114,-4.6636 0.6611364,-4.9998 0.8021552,-5.1434 0.082984,-0.084 1.7585878,-2.0548 3.7235648,-4.3786 l 3.5726865,-4.2252 3.787106,-1.8376 3.787103,-1.8372 5.092712,-1.1444 5.092712,-1.1448 4.676622,0.102 4.67662,0.102 4.59194,1.427 4.59194,1.427 3.64393,2.324 c 2.00416,1.2784 3.707304,2.3924 3.784766,2.4758 0.11402,0.122 5.496354,6.502 5.791898,6.8644 0.0464,0.056 0.469136,1.7674 0.93945,3.8008 L 62,1017.581 l -0.665322,3.8102 c -0.610328,3.4952 -0.679756,3.8288 -0.839994,4.0388 -1.50168,1.9668 -5.06192,6.4008 -5.20795,6.4862 -0.14198,0.082 -4.72455,3.7268 -5.071202,4.0322 -0.02678,0.024 0.71987,2.1442 1.659238,4.7126 0.939368,2.568 1.707942,4.6772 1.707942,4.6868 0,0.028 -0.17952,0.02 -0.837424,-0.086 z"
       id="path2" />
    <path
       style="opacity:0.2"
       d="m 28.724076,999.07138 -4.764736,1.08482 -4.783381,1.0742 -3.502308,1.6998 -3.267934,1.5836 -3.1986859,3.7874 c -0.983786,1.1634 -1.8954776,2.2386 -2.5727982,3.0352 -0.318534,0.3746 -0.575322,0.672 -0.7750356,0.9054 -0.095312,0.6122 -0.261259,1.867 -0.5646308,4.1912 -0.2916302,2.2344 -0.4513834,3.4914 -0.522017,4.1438 -0.01112,0.102 -0.00564,0.156 -0.00266,0.2218 0.092046,0.2458 0.2063736,0.5536 0.3488992,0.9396 0.3050166,0.826 0.7121664,1.9352 1.1479046,3.133 0.431721,1.1864 0.8328752,2.2742 1.1292614,3.0616 0.101428,0.2696 0.167218,0.4426 0.2397018,0.6308 0.236569,0.192 0.5226036,0.425 0.884233,0.7178 0.8153864,0.6604 1.8887305,1.526 2.9589845,2.3888 1.070254,0.8626 2.138184,1.7222 2.945667,2.37 0.403742,0.324 0.741533,0.5966 0.980114,0.7866 0.0308,0.024 0.04452,0.034 0.0719,0.056 h 0.01336 c 0.247875,0.092 0.612154,0.2212 1.057351,0.38 0.890393,0.318 2.106595,0.7466 3.425072,1.2062 h 0.0027 c 2.301726,0.803 3.519206,1.2248 4.136186,1.42 0.613588,0.194 0.288748,0.132 0.442116,0.132 h 0.0028 c 0.517402,0.022 2.689388,0.148 5.249468,0.2982 l 4.359908,0.2588 3.150746,-0.4858 c 1.654568,-0.255 2.499028,-0.385 3.092152,-0.4538 0.29656,-0.032 0.529524,-0.064 0.929508,-0.042 0.399986,0.022 1.096394,0.2446 1.2864,0.3406 h 0.0054 0.008 c 0.232086,0.12 0.249096,0.134 0.53267,0.2876 0.283576,0.154 0.680558,0.3682 1.15856,0.6282 0.956,0.52 2.243308,1.2232 3.635474,1.9822 0.340498,0.186 0.56472,0.3086 0.88956,0.4856 -0.263936,-0.7302 -0.555904,-1.5328 -0.745738,-2.0718 -0.1531,-0.435 -0.275288,-0.79 -0.36488,-1.0584 -0.0448,-0.134 -0.08,-0.2416 -0.11452,-0.3564 -0.0172,-0.058 -0.03438,-0.108 -0.06126,-0.219 -0.0134,-0.056 -0.0323,-0.114 -0.05594,-0.2878 -0.0118,-0.086 -0.02934,-0.192 -0.02132,-0.4512 0.004,-0.13 0.08244,-0.588 0.08256,-0.5886 5.8e-5,-2e-4 0.20766,-0.5488 0.207742,-0.549 8e-5,-2e-4 0.59116,-0.7732 0.591264,-0.7734 l 0.016,-0.02 0.016,-0.02 c 0.303732,-0.2676 0.529022,-0.4362 1.014738,-0.8262 0.485714,-0.39 1.095806,-0.88 1.701882,-1.362 0.606076,-0.4818 1.206286,-0.9568 1.66726,-1.3196 0.230486,-0.182 0.42576,-0.3324 0.575284,-0.4486 0.02874,-0.022 0.04906,-0.038 0.07458,-0.058 0.09376,-0.11 0.22985,-0.2712 0.402166,-0.4804 0.365346,-0.4432 0.865774,-1.0602 1.408914,-1.7366 0.99872,-1.2438 2.084708,-2.6248 2.823154,-3.5842 0.0018,0 6.88e-4,0 0.0028,-0.02 0.09508,-0.4572 0.26793,-1.4224 0.57262,-3.1674 l 0.572622,-3.2728 -0.732424,-3.1698 c -0.232608,-1.0056 -0.455028,-1.9326 -0.62056,-2.6024 -0.05524,-0.2234 -0.09024,-0.3638 -0.1305,-0.52 -0.291418,-0.3466 -1.356886,-1.6152 -2.586116,-3.0722 -0.697834,-0.827 -1.390974,-1.6452 -1.91495,-2.2646 -0.261988,-0.3096 -0.482726,-0.5706 -0.639204,-0.7548 -0.02046,-0.024 -0.02972,-0.034 -0.04794,-0.056 -0.0052,-0.02 -0.0054,-0.02 -0.0106,-0.02 -0.1829,-0.124 -0.459704,-0.305 -0.796342,-0.5254 -0.673276,-0.4404 -1.594196,-1.0362 -2.588778,-1.6706 l -3.334826,-2.1272 -4.240054,-1.3172 -4.224078,-1.31162 -4.287998,-0.092 z M 4.6740055,1020.5478 c 0.02159,0.056 0.040486,0.106 0.066584,0.174 -0.01314,-0.044 -0.046522,-0.118 -0.066584,-0.174 z m 0.09588,0.3114 c 0.01236,0.132 0.022476,0.126 0,0 z"
       id="path3" />
    <path
       style="fill:#ffcc00;stroke:#deb200;stroke-opacity:1"
       d="m 28.724076,998.0708 -4.764736,1.0848 -4.783381,1.0742 -3.502308,1.6998 -3.267934,1.5836 -3.1986859,3.7874 c -0.983786,1.1634 -1.8954776,2.2386 -2.5727982,3.0352 -0.318534,0.3746 -0.575322,0.672 -0.7750356,0.9054 -0.095312,0.6122 -0.261259,1.867 -0.5646308,4.1912 -0.2916302,2.2344 -0.4513834,3.4914 -0.522017,4.1438 -0.01112,0.102 -0.00564,0.156 -0.00266,0.2218 0.092046,0.2458 0.2063736,0.5536 0.3488992,0.9396 0.3050166,0.826 0.7121664,1.9352 1.1479046,3.133 0.431721,1.1864 0.8328752,2.2742 1.1292614,3.0616 0.101428,0.2696 0.167218,0.4426 0.2397018,0.6308 0.236569,0.192 0.5226036,0.425 0.884233,0.7178 0.8153864,0.6604 1.8887305,1.526 2.9589845,2.3888 1.070254,0.8626 2.138184,1.7222 2.945667,2.37 0.403742,0.324 0.741533,0.5966 0.980114,0.7866 0.0308,0.024 0.04452,0.034 0.0719,0.056 h 0.01336 c 0.247875,0.092 0.612154,0.2212 1.057351,0.38 0.890393,0.318 2.106595,0.7466 3.425072,1.2062 h 0.0027 c 2.301726,0.803 3.519206,1.2248 4.136186,1.42 0.613588,0.194 0.288748,0.132 0.442116,0.132 h 0.0028 c 0.517402,0.022 2.689388,0.148 5.249468,0.2982 l 4.359908,0.2588 3.150746,-0.4858 c 1.654568,-0.255 2.499028,-0.385 3.092152,-0.4538 0.29656,-0.032 0.529524,-0.064 0.929508,-0.042 0.399986,0.022 1.096394,0.2446 1.2864,0.3406 h 0.0054 0.008 c 0.232086,0.12 0.249096,0.134 0.53267,0.2876 0.283576,0.154 0.680558,0.3682 1.15856,0.6282 0.956,0.52 2.243308,1.2232 3.635474,1.9822 0.340498,0.186 0.56472,0.3086 0.88956,0.4856 -0.263936,-0.7302 -0.555904,-1.5328 -0.745738,-2.0718 -0.1531,-0.435 -0.275288,-0.79 -0.36488,-1.0584 -0.0448,-0.134 -0.08,-0.2416 -0.11452,-0.3564 -0.0172,-0.058 -0.03438,-0.108 -0.06126,-0.219 -0.0134,-0.056 -0.0323,-0.114 -0.05594,-0.2878 -0.0118,-0.086 -0.02934,-0.192 -0.02132,-0.4512 0.004,-0.13 0.08244,-0.588 0.08256,-0.5886 5.8e-5,-2e-4 0.20766,-0.5488 0.207742,-0.549 8e-5,-2e-4 0.59116,-0.7732 0.591264,-0.7734 l 0.016,-0.02 0.016,-0.02 c 0.303732,-0.2676 0.529022,-0.4362 1.014738,-0.8262 0.485714,-0.39 1.095806,-0.88 1.701882,-1.362 0.606076,-0.4818 1.206286,-0.9568 1.66726,-1.3196 0.230486,-0.182 0.42576,-0.3324 0.575284,-0.4486 0.02874,-0.022 0.04906,-0.038 0.07458,-0.058 0.09376,-0.11 0.22985,-0.2712 0.402166,-0.4804 0.365346,-0.4432 0.865774,-1.0602 1.408914,-1.7366 0.99872,-1.2438 2.084708,-2.6248 2.823154,-3.5842 0.0018,0 6.88e-4,0 0.0028,-0.02 0.09508,-0.4572 0.26793,-1.4224 0.57262,-3.1674 l 0.572622,-3.2728 -0.732424,-3.1698 c -0.232608,-1.0056 -0.455028,-1.9326 -0.62056,-2.6024 -0.05524,-0.2234 -0.09024,-0.3638 -0.1305,-0.52 -0.291418,-0.3466 -1.356886,-1.6152 -2.586116,-3.0722 -0.697834,-0.827 -1.390974,-1.6452 -1.91495,-2.2646 -0.261988,-0.3096 -0.482726,-0.5706 -0.639204,-0.7548 -0.02046,-0.024 -0.02972,-0.034 -0.04794,-0.056 -0.0052,-0.02 -0.0054,-0.02 -0.0106,-0.02 -0.1829,-0.124 -0.459704,-0.305 -0.796342,-0.5254 -0.673276,-0.4404 -1.594196,-1.0362 -2.588778,-1.6706 l -3.334826,-2.1272 -4.240054,-1.3172 -4.224078,-1.3116 -4.287998,-0.092 z m -24.0500705,21.4764 c 0.02159,0.056 0.040486,0.106 0.066584,0.174 -0.01314,-0.044 -0.046522,-0.118 -0.066584,-0.174 z m 0.09588,0.3114 c 0.01236,0.132 0.022476,0.126 0,0 z"
       id="path4" />
    <path
       style="fill:#2d3d53;fill-opacity:1"
       d="m 14.451038,1029.43 -1.304681,-1.9316 -1.186255,-0.6724 c -0.663352,-0.3762 -1.174039,-0.7034 -1.158542,-0.743 0.01524,-0.038 0.653397,-1.0172 1.418124,-2.1746 0.764726,-1.1574 1.378917,-2.138 1.364866,-2.1792 -0.01406,-0.042 -0.05275,-0.076 -0.08598,-0.076 -0.03325,0 -0.479977,0.2604 -0.992745,0.5784 -1.210858,0.7512 -2.9427035,1.8074 -3.3212471,2.0258 -0.2640458,0.152 -0.3015498,0.16 -0.3305804,0.066 -0.01802,-0.058 -0.2175258,-1.0874 -0.4433704,-2.2884 l -0.4106272,-2.1834 0.468897,-2.609 c 0.257894,-1.4354 0.5090238,-2.832 0.5580676,-3.104 0.084698,-0.4698 0.166894,-0.6298 1.6395035,-3.1848 l 1.550334,-2.69 2.371445,-1.1888 c 1.304295,-0.6538 2.392833,-1.1898 2.418972,-1.1904 0.175594,0 -0.07083,0.371 -0.887136,1.3562 -0.514062,0.6204 -1.038335,1.2572 -1.165052,1.4156 -0.18114,0.226 -0.371913,0.6782 -0.892408,2.1148 l -0.662016,1.8274 0.263833,1.6358 0.263833,1.6358 0.438476,0.409 c 0.241159,0.2248 0.544231,0.4982 0.673488,0.607 l 0.235015,0.198 0.532928,-0.2438 0.532928,-0.2438 0.03858,-0.3324 c 0.03088,-0.266 0.11964,-1.7456 0.124716,-2.0784 0.0012,-0.08 2.978442,-3.3722 3.077665,-3.405 0.03045,-0.02 0.599129,0.5446 1.263719,1.232 l 1.208348,1.2502 0.22988,0.9326 c 0.12644,0.5126 0.257288,1.0364 0.290792,1.1638 0.05094,0.194 0.13802,0.2824 0.531976,0.5418 l 0.47106,0.3104 0.367356,-0.6126 0.367358,-0.6124 0.0198,-1.291 0.0198,-1.2906 -1.157528,-1.8872 c -0.954432,-1.5558 -1.20026,-1.9138 -1.401088,-2.0398 -0.13398,-0.082 -1.095858,-0.7092 -2.137548,-1.3894 -1.841852,-1.203 -1.895173,-1.2434 -1.937139,-1.4728 -0.02375,-0.13 -0.03321,-0.2446 -0.02103,-0.2552 0.03029,-0.028 5.749883,1.2418 5.890871,1.3058 0.06204,0.028 1.065208,0.69 2.229268,1.4712 l 2.116466,1.4196 0.259062,0.7756 c 0.1425,0.4264 0.6072,1.816 1.03271,3.0876 l 0.773666,2.3122 -0.04266,1.3672 c -0.02346,0.7522 -0.05784,1.7152 -0.07644,2.1402 l -0.0338,0.7732 -0.797778,2.3498 -0.797774,2.35 -1.13284,1.1538 -1.132844,1.1536 -0.718944,1.4616 c -0.39542,0.8038 -0.732238,1.4744 -0.748486,1.4904 -0.0164,0.02 -0.78263,-1.2372 -1.703066,-2.785 l -1.673516,-2.8134 -0.946258,-0.309 -0.946258,-0.3086 -0.957628,0.7014 -0.957631,0.7014 -0.07635,0.3336 c -0.321508,1.4038 -1.436653,5.868 -1.465689,5.8674 -0.01998,-4e-4 -0.623459,-0.87 -1.341034,-1.9324 z"
       id="path5" />
    <path
       style="fill:#2d3d53;fill-opacity:1"
       d="m 42.712226,1005.3628 c -0.39073,0 -0.712222,0.02 -0.712222,0.04 0,0.022 0.233048,0.7664 0.515112,1.6546 0.526198,1.6564 0.556778,1.7886 0.620236,2.6308 0.02032,0.2704 0.04914,0.623 0.0657,0.7854 0.0166,0.162 0.18952,2.1978 0.383708,4.522 l 0.352166,4.2234 -0.24967,4.1614 -0.249674,4.1616 -0.720106,1.8642 C 42.322786,1030.4316 42,1031.2872 42,1031.3108 v 0 c 0,0.022 0.650404,-0.11 1.442838,-0.2932 1.278186,-0.2984 1.484496,-0.3294 1.829174,-0.2824 0.21369,0.028 1.31507,0.184 2.44941,0.3442 2.373532,0.3364 2.1336,0.3114 2.081472,0.226 -0.0226,-0.036 -0.386212,-1.152 -0.806832,-2.4776 l -0.764784,-2.4102 -0.07622,-1.8212 c -0.0423,-1.0008 -0.06678,-1.8234 -0.0552,-1.8374 0.0118,-0.02 0.631846,0.06 1.379764,0.158 l 1.361368,0.18 1.78975,-1.2508 1.789752,-1.2536 0.788436,-1.6464 0.791064,-1.6462 -0.10514,-2.335 -0.10514,-2.335 -0.693826,-1.7834 -0.696448,-1.7834 -1.508544,-0.9362 -1.51117,-0.9334 -2.052564,-0.13 -2.055192,-0.128 -1.923784,-0.7882 -1.926414,-0.7882 z m 7.563734,8.5088 0.735874,0.6698 c 0.404308,0.369 0.870654,0.7956 1.035482,0.9494 l 0.299604,0.2798 -0.1866,1.189 c -0.10196,0.6538 -0.19856,1.2112 -0.215504,1.24 -0.017,0.028 -0.537078,0.3638 -1.156372,0.7478 -1.248602,0.7746 -1.118198,0.7408 -2.20237,0.5758 l -0.701708,-0.108 0.0052,-1.4392 c 0.0052,-1.2098 0.14724,-3.6212 0.228646,-3.8738 0.014,-0.044 0.307322,-0.092 0.72536,-0.118 0.385928,-0.024 0.865874,-0.06 1.067018,-0.082 z"
       id="path6" />
    <path
       style="fill:#2d3d53;fill-opacity:1"
       d="m 35.708826,1011.359 c -0.05144,6e-4 -0.692122,0.3742 -1.422784,0.8306 l -1.329116,0.8306 -0.883542,1.7586 -0.883544,1.7562 -0.19492,3.2174 -0.19492,3.2148 0.964556,2.684 0.96709,2.6842 1.303798,1.3178 1.306328,1.315 1.384812,0.194 c 0.761258,0.104 1.387868,0.198 1.392402,0.198 0.0044,0 0.368606,-0.166 0.810128,-0.3744 0.441522,-0.2094 0.97137,-0.459 1.177218,-0.5536 l 0.374682,-0.172 0.678482,-1.1306 0.68101,-1.1306 0.478482,-2.3278 0.481012,-2.3276 -0.05318,-2.1152 -0.05062,-2.1176 -0.683544,-2.1432 c -0.37585,-1.18 -0.706634,-2.1856 -0.734178,-2.2356 -0.02756,-0.05 -0.587404,-0.6472 -1.243038,-1.3278 l -1.189874,-1.2382 -1.52152,-0.4024 c -0.836712,-0.2216 -1.563718,-0.4032 -1.61519,-0.4026 z m 2.126582,9.7776 c 0.02594,-0.02 0.437252,0.333 0.916458,0.764 l 0.873418,0.7846 0.09368,0.4228 c 0.05196,0.2322 0.15906,0.7338 0.237976,1.1154 l 0.1443,0.6922 -0.278478,1.2126 -0.278484,1.21 -0.873418,0.4436 -0.873414,0.4432 -0.774686,-0.2588 -0.777216,-0.2614 -0.4481,-1.3512 -0.450634,-1.3482 0.43038,-1.3948 c 0.236404,-0.7664 0.430076,-1.422 0.430378,-1.4588 4.74e-4,-0.052 1.394238,-0.9206 1.62785,-1.0152 z"
       id="path7" />
    <path
       style="opacity:0.2;fill:#ffffff"
       transform="translate(0,988.3622)"
       d="m 28.449219,6.9980469 -5.09375,1.1445312 -5.09375,1.1445313 -3.785157,1.8359376 -3.789062,1.839844 -3.5703125,4.222656 c -1.9649772,2.3238 -3.6435785,4.294906 -3.7265625,4.378906 -0.141018,0.1436 -0.1920701,0.480931 -0.8007812,5.144531 -0.583868,4.4732 -0.6403082,5.011782 -0.5585938,5.175782 7.754e-4,0.0022 0.0169,0.04723 0.025391,0.07031 0.074378,-0.704048 0.2333882,-1.945209 0.5332032,-4.242187 0.6087111,-4.6636 0.6597632,-5.000932 0.8007812,-5.144532 0.082984,-0.084 1.7615853,-2.055106 3.7265625,-4.378906 l 3.5703121,-4.222656 3.789062,-1.839844 3.785157,-1.835937 5.09375,-1.1445316 5.09375,-1.1445313 4.675781,0.1015625 4.675781,0.1015625 4.59375,1.4257813 4.589844,1.4296876 3.644531,2.324219 c 2.00416,1.2784 3.707696,2.389656 3.785156,2.472656 0.11402,0.122 5.497425,6.504787 5.792969,6.867187 0.0464,0.056 0.467186,1.767382 0.9375,3.800782 l 0.75586,3.267578 L 62,29.220703 61.144531,25.521484 c -0.470314,-2.0334 -0.8911,-3.744781 -0.9375,-3.800781 -0.295544,-0.3624 -5.678949,-6.745187 -5.792969,-6.867187 -0.07746,-0.083 -1.780996,-1.194257 -3.785156,-2.472657 L 46.984375,10.056641 42.394531,8.6269531 37.800781,7.2011719 33.125,7.0996094 Z M 50.765625,49.150391 c -0.12636,0.1031 -0.513153,0.4044 -0.550781,0.4375 -0.0045,0.004 0.241465,0.672348 0.277344,0.785156 0.116781,-0.09202 0.210532,-0.167424 0.273437,-0.21875 0.2823,0.8242 0.481581,1.431937 1.109375,3.148437 0.730417,1.99678 1.085504,2.973634 1.328125,3.644532 0.124733,0.01269 0.378906,0.05181 0.378906,0.03906 0,-0.01 -0.767663,-2.1195 -1.707031,-4.6875 -0.627794,-1.7165 -0.827075,-2.324237 -1.109375,-3.148437 z"
       id="path8" />
    <path
       style="opacity:0.2;fill:#ffffff"
       transform="translate(0,988.3622)"
       d="m 28.722656,9.7089844 -4.761718,1.0859376 -4.785157,1.074219 -3.503906,1.699218 -3.265625,1.582032 -3.1992188,3.789062 c -0.983786,1.1634 -1.8968979,2.238556 -2.5742187,3.035156 -0.3185338,0.3746 -0.5737239,0.67285 -0.7734375,0.90625 -0.095312,0.6122 -0.2630344,1.8633 -0.5664062,4.1875 -0.2916303,2.2344 -0.4488977,3.492132 -0.5195313,4.144532 -0.01112,0.102 -0.00689,0.156856 -0.00391,0.222656 0.020233,0.05405 0.049776,0.134809 0.076172,0.207031 0.082317,-0.712643 0.1960429,-1.645504 0.4472657,-3.570312 0.3033718,-2.3242 0.4710942,-3.5753 0.5664062,-4.1875 0.1997136,-0.2334 0.4549037,-0.53165 0.7734375,-0.90625 0.6773208,-0.7966 1.5904327,-1.871757 2.5742187,-3.035157 l 3.1992184,-3.789062 3.265625,-1.582031 3.503906,-1.699219 4.785157,-1.074219 4.761718,-1.085937 4.34375,0.07422 4.289063,0.08984 4.222656,1.3125 4.238281,1.316406 3.335938,2.128907 c 0.994582,0.6344 1.916567,1.231475 2.589844,1.671875 0.336638,0.2204 0.613975,0.399437 0.796874,0.523437 0.0052,0 0.0026,-4.69e-4 0.0078,0.01953 0.01822,0.022 0.03032,0.03459 0.05078,0.05859 0.156478,0.1842 0.374729,0.444306 0.636719,0.753906 0.523974,0.6194 1.216228,1.438625 1.914063,2.265625 1.229229,1.457 2.298425,2.723713 2.589843,3.070313 0.04026,0.1562 0.07367,0.296131 0.128907,0.519531 0.165531,0.6698 0.388485,1.595963 0.621093,2.601563 l 0.63086,2.738281 0.09961,-0.570313 -0.730469,-3.171875 c -0.232608,-1.0056 -0.455562,-1.931762 -0.621093,-2.601562 -0.05524,-0.2234 -0.08865,-0.363331 -0.128907,-0.519531 -0.291418,-0.3466 -1.360614,-1.613313 -2.589843,-3.070313 -0.697835,-0.827 -1.390089,-1.646225 -1.914063,-2.265625 -0.26199,-0.3096 -0.480241,-0.569706 -0.636719,-0.753906 -0.02046,-0.024 -0.03256,-0.03659 -0.05078,-0.05859 -0.0052,-0.02 -0.0026,-0.01953 -0.0078,-0.01953 -0.182899,-0.124 -0.460236,-0.303038 -0.796874,-0.523438 -0.673277,-0.4404 -1.595262,-1.037475 -2.589844,-1.671875 L 45.816406,12.501953 41.578125,11.185547 37.355469,9.8730469 33.066406,9.7832031 Z M 4.6757812,31.185547 c 0.02159,0.056 0.040308,0.103875 0.066406,0.171875 -0.01314,-0.044 -0.046344,-0.115875 -0.066406,-0.171875 z m 0,1.003906 c 0.020062,0.056 0.053266,0.127875 0.066406,0.171875 -0.026098,-0.068 -0.044816,-0.115875 -0.066406,-0.171875 z m 0,0.996094 c 0.020062,0.056 0.053266,0.131781 0.066406,0.175781 -0.026098,-0.068 -0.044816,-0.119781 -0.066406,-0.175781 z m 0,1.003906 c 0.02159,0.056 0.040308,0.107781 0.066406,0.175781 -0.01314,-0.044 -0.046344,-0.119781 -0.066406,-0.175781 z M 47.683594,48.638672 c -0.05412,0.1431 -0.109335,0.285056 -0.109375,0.285156 -1.2e-4,6e-4 -0.07803,0.459844 -0.08203,0.589844 -0.008,0.2592 0.0077,0.367125 0.01953,0.453125 0.01425,0.104723 0.02293,0.127096 0.0332,0.171875 0.013,-0.08148 0.02925,-0.210723 0.0293,-0.210938 4e-5,-1e-4 0.05526,-0.142056 0.109375,-0.285156 0.01958,0.0608 0.03501,0.1165 0.05859,0.1875 0.08959,0.2684 0.214087,0.623594 0.367187,1.058594 0.07544,0.214212 0.19727,0.547371 0.296875,0.824219 0.140723,0.07735 0.285403,0.156833 0.449219,0.246093 -0.263936,-0.7302 -0.556262,-1.535218 -0.746094,-2.074218 -0.1531,-0.435 -0.277596,-0.790194 -0.367187,-1.058594 -0.02358,-0.071 -0.03901,-0.1267 -0.05859,-0.1875 z"
       id="path9" />
    <path
       style="opacity:0.2"
       transform="translate(0,988.3622)"
       d="m 17.697266,16.998047 c -0.01218,0.0106 -0.0023,0.125859 0.02148,0.255859 0.04197,0.2294 0.09565,0.269657 1.9375,1.472656 1.04169,0.680202 2.002739,1.306672 2.136719,1.388672 0.200828,0.126 0.447911,0.485216 1.402343,2.041016 l 1.140626,1.863281 0.01562,-0.976562 -1.15625,-1.886719 c -0.954431,-1.5558 -1.201515,-1.915016 -1.402343,-2.041016 -0.13398,-0.082 -1.095029,-0.708471 -2.136719,-1.388672 -0.381323,-0.24906 -0.437844,-0.293701 -0.681641,-0.455078 -0.437204,-0.09283 -1.270681,-0.279596 -1.277343,-0.273437 z m 24.609375,0.02539 C 42.207613,17.030663 42,17.032413 42,17.041016 c 0,0.022 0.233561,0.766097 0.515625,1.654296 0.526198,1.6564 0.555683,1.78866 0.619141,2.63086 0.02032,0.2704 0.04985,0.622756 0.06641,0.785156 0.0166,0.162 0.188624,2.197284 0.382812,4.521484 l 0.31836,3.806641 0.03516,-0.583984 -0.353516,-4.22461 c -0.194188,-2.3242 -0.366212,-4.359484 -0.382812,-4.521484 -0.01656,-0.1624 -0.04609,-0.514756 -0.06641,-0.785156 -0.06346,-0.8422 -0.09294,-0.97446 -0.619141,-2.63086 -0.114233,-0.359711 -0.122955,-0.395873 -0.208984,-0.669921 z m -25.298829,0.498046 c -0.0108,2.48e-4 -0.685944,0.338368 -1,0.492188 -0.463293,0.56006 -0.938101,1.137955 -1.052734,1.28125 -0.18114,0.226 -0.372083,0.676681 -0.892578,2.113281 l -0.662109,1.828125 0.111328,0.691406 0.550781,-1.519531 c 0.520495,-1.4366 0.711438,-1.887281 0.892578,-2.113281 0.126717,-0.1584 0.650001,-0.795616 1.164063,-1.416016 0.816306,-0.9852 1.064266,-1.357422 0.888671,-1.357422 z m 33.267579,6.988282 -0.365235,0.0293 c -0.201144,0.022 -0.680478,0.05803 -1.066406,0.08203 -0.418038,0.0262 -0.710609,0.07514 -0.724609,0.11914 -0.08141,0.2526 -0.225269,2.663247 -0.230469,3.873047 l -0.0039,1.439453 h 0.002 l 0.002,-0.439453 c 0.0052,-1.2098 0.149063,-3.620447 0.230469,-3.873047 0.014,-0.044 0.306571,-0.09314 0.724609,-0.11914 0.385928,-0.024 0.865262,-0.06003 1.066406,-0.08203 l 0.365235,-0.0293 0.736328,0.669922 c 0.404308,0.368999 0.870328,0.795418 1.035156,0.949218 l 0.164063,0.152344 0.136718,-0.873047 -0.300781,-0.279297 c -0.164828,-0.1538 -0.630848,-0.580218 -1.035156,-0.949218 z m -20.304688,2.77539 -0.01367,0.455078 c -0.02346,0.7522 -0.05757,1.713672 -0.07617,2.138672 l -0.0332,0.773438 -0.798828,2.349609 -0.796875,2.351563 -1.132812,1.152343 -1.132813,1.154297 -0.71875,1.460938 c -0.39542,0.8038 -0.73375,1.474234 -0.75,1.490234 -0.0164,0.02 -0.782689,-1.235403 -1.703125,-2.783203 L 21.142578,35.013672 20.195312,34.705078 19.25,34.396484 l -0.958984,0.701172 -0.957032,0.701172 -0.07617,0.333984 C 16.936305,37.536612 15.820056,42.0006 15.791016,42 c -0.01997,-4e-4 -0.622915,-0.868287 -1.339844,-1.929688 l -1.304688,-1.93164 -1.185546,-0.673828 c -0.284392,-0.161284 -0.515666,-0.301553 -0.714844,-0.425782 -0.112044,0.173516 -0.440532,0.66972 -0.445313,0.681641 -0.0155,0.0396 0.496805,0.365988 1.160157,0.742188 l 1.185546,0.673828 1.304688,1.93164 c 0.716929,1.061412 1.319877,1.929288 1.339844,1.929688 0.02904,6e-4 1.145288,-4.463388 1.466796,-5.867188 l 0.07617,-0.333984 0.957032,-0.701172 0.958984,-0.701172 0.945312,0.308594 0.947266,0.308594 1.671875,2.814453 c 0.920436,1.5478 1.686725,2.803203 1.703125,2.783203 0.01625,-0.016 0.35458,-0.686434 0.75,-1.490234 l 0.71875,-1.460938 1.132813,-1.154297 1.132812,-1.152344 L 29.048828,34 l 0.798828,-2.349609 0.0332,-0.773438 c 0.0186,-0.425 0.05271,-1.386472 0.07617,-2.138672 L 30,27.371094 Z m 25.988281,0.740235 -0.75,1.560547 -0.789062,1.646484 -1.789063,1.253906 -1.789062,1.25 -1.361328,-0.179687 c -0.747918,-0.0982 -1.36906,-0.178203 -1.38086,-0.158203 -0.0063,0.0076 0.01727,0.615697 0.0293,1.001953 0.0367,-0.01544 0.619547,0.05838 1.351563,0.154297 l 1.361328,0.179687 1.789062,-1.25 1.789063,-1.253906 0.789062,-1.646485 L 56,28.9375 Z M 8.0917969,30.980469 8,31.490234 8.4101562,33.671875 c 0.2258447,1.201 0.4253394,2.231063 0.4433594,2.289063 0.029031,0.094 0.067986,0.08559 0.3320313,-0.06641 0.3785436,-0.2184 2.1094541,-1.27419 3.3203121,-2.02539 0.126246,-0.07829 0.131138,-0.07432 0.244141,-0.142579 0.470813,-0.730697 0.844204,-1.327599 0.833984,-1.357421 -0.01406,-0.042 -0.05271,-0.07617 -0.08594,-0.07617 -0.03325,0 -0.47942,0.260125 -0.992188,0.578125 -1.210858,0.7512 -2.9417685,1.80699 -3.3203121,2.02539 -0.2640453,0.152 -0.3030003,0.160407 -0.3320313,0.06641 -0.01802,-0.058 -0.2175147,-1.088063 -0.4433594,-2.289063 z m 29.7441411,0.792969 c -0.233613,0.0946 -1.628433,0.963624 -1.628907,1.015624 -3.02e-4,0.0368 -0.193283,0.692585 -0.429687,1.458985 l -0.429688,1.394531 0.160156,0.480469 0.269532,-0.875 c 0.236404,-0.7664 0.429385,-1.422185 0.429687,-1.458985 4.74e-4,-0.052 1.395294,-0.921025 1.628907,-1.015624 0.02594,-0.02 0.436809,0.334624 0.916015,0.765624 l 0.873047,0.783204 0.09375,0.423828 c 0.05196,0.2322 0.159365,0.733634 0.238281,1.115234 l 0.03516,0.167969 0.109374,-0.476563 -0.144531,-0.691406 c -0.07892,-0.3816 -0.186321,-0.883034 -0.238281,-1.115234 L 39.625,33.322266 38.751953,32.539062 C 38.272747,32.108063 37.861877,31.753438 37.835938,31.773438 Z M 30.851562,33.75 l -0.05078,0.855469 0.962891,2.683593 0.96875,2.683594 1.302734,1.31836 1.306641,1.314453 1.384765,0.195312 c 0.761258,0.104 1.388045,0.197266 1.392579,0.197266 0.0044,0 0.369024,-0.1666 0.810547,-0.375 0.441521,-0.2094 0.969933,-0.458135 1.175781,-0.552735 l 0.375,-0.171874 0.679687,-1.13086 0.679688,-1.130859 0.478515,-2.328125 0.482422,-2.328125 -0.02344,-0.888672 -0.458985,2.216797 -0.478515,2.328125 -0.679688,1.130859 -0.679687,1.13086 -0.375,0.171874 c -0.205848,0.0946 -0.73426,0.343335 -1.175781,0.552735 -0.441523,0.2084 -0.806147,0.375 -0.810547,0.375 -0.0045,0 -0.631321,-0.09327 -1.392579,-0.197266 l -1.384765,-0.195312 -1.306641,-1.314453 -1.302734,-1.31836 -0.96875,-2.683594 z m 14.167969,7.607422 c -0.263055,0.0031 -0.617532,0.07698 -1.576172,0.300781 -0.56944,0.131647 -0.802843,0.170372 -1.037109,0.210938 C 42.244564,42.296848 42,42.935835 42,42.949219 c 0,0.022 0.650925,-0.109769 1.443359,-0.292969 1.278186,-0.2984 1.483447,-0.330203 1.828125,-0.283203 0.21369,0.028 1.314879,0.18355 2.449219,0.34375 2.373532,0.3364 2.134159,0.311962 2.082031,0.226562 -0.0089,-0.01421 -0.22065,-0.681036 -0.318359,-0.978515 -0.263779,-0.03232 -0.690892,-0.09405 -1.763672,-0.246094 -1.13434,-0.1602 -2.235529,-0.31575 -2.449219,-0.34375 -0.08617,-0.01175 -0.164268,-0.01861 -0.251953,-0.01758 z"
       id="path10" />
  </g>
</svg>
