<?xml version="1.0" encoding="UTF-8" standalone="no"?>
<svg
   width="62"
   height="62"
   viewBox="0 0 16.404166 16.404167"
   version="1.1"
   id="svg1443"
   inkscape:version="1.4.2 (unknown)"
   sodipodi:docname="x-com.svg"
   xmlns:inkscape="http://www.inkscape.org/namespaces/inkscape"
   xmlns:sodipodi="http://sodipodi.sourceforge.net/DTD/sodipodi-0.dtd"
   xmlns:xlink="http://www.w3.org/1999/xlink"
   xmlns="http://www.w3.org/2000/svg"
   xmlns:svg="http://www.w3.org/2000/svg"
   xmlns:rdf="http://www.w3.org/1999/02/22-rdf-syntax-ns#"
   xmlns:cc="http://creativecommons.org/ns#"
   xmlns:dc="http://purl.org/dc/elements/1.1/">
  <defs
     id="defs1437">
    <linearGradient
       gradientTransform="matrix(0.4711726,0,0,0.47114666,-53.953909,-18.000765)"
       gradientUnits="userSpaceOnUse"
       y2="70.679932"
       x2="132.21078"
       y1="42.151531"
       x1="132.21078"
       id="linearGradient1632"
       xlink:href="#linearGradient1630"
       inkscape:collect="always" />
    <linearGradient
       id="linearGradient1630"
       inkscape:collect="always">
      <stop
         id="stop1626"
         offset="0"
         style="stop-color:#595959;stop-opacity:1;" />
      <stop
         id="stop1628"
         offset="1"
         style="stop-color:#404040;stop-opacity:1;" />
    </linearGradient>
    <filter
       color-interpolation-filters="sRGB"
       height="1.1311001"
       width="1.1106"
       y="-0.065563001"
       x="-0.055319"
       id="c-9">
      <feGaussianBlur
         id="feGaussianBlur1093"
         stdDeviation="1.1062912" />
    </filter>
    <linearGradient
       gradientUnits="userSpaceOnUse"
       gradientTransform="matrix(0.13235,0,0,0.13075,-32.379,1.0873)"
       y2="269.48999"
       y1="235.14999"
       x2="657.65002"
       x1="319.20999"
       id="a-12">
      <stop
         id="stop1076"
         offset="0"
         stop-color="#e54c18" />
      <stop
         id="stop1078"
         offset="1"
         stop-color="#fec350" />
    </linearGradient>
    <linearGradient
       id="paint1_linear_8_721"
       x1="12.0001"
       y1="14.825"
       x2="12.0001"
       y2="8.7750196"
       gradientUnits="userSpaceOnUse"
       gradientTransform="matrix(0.58965537,0,0,0.59037149,1.1261742,1.2356487)">
      <stop
         stop-color="#02AA93"
         id="stop4" />
      <stop
         offset="1"
         stop-color="#67FF80"
         id="stop5" />
    </linearGradient>
    <linearGradient
       id="linear0"
       gradientUnits="userSpaceOnUse"
       x1="0"
       y1="0"
       x2="0"
       y2="1"
       gradientTransform="matrix(68.686472,0,0,43.89438,-2.487702,8.992595)">
      <stop
         offset="0"
         style="stop-color:#2478ff;stop-opacity:1;"
         id="stop1" />
      <stop
         offset="1"
         style="stop-color:#0049bf;stop-opacity:1;"
         id="stop2" />
    </linearGradient>
    <linearGradient
       id="linear0-3"
       gradientUnits="userSpaceOnUse"
       x1="0"
       y1="0"
       x2="0"
       y2="1"
       gradientTransform="matrix(64,0,0,40.523438,0,11.738281)">
      <stop
         offset="0"
         style="stop-color:#2478ff;stop-opacity:1;"
         id="stop1-6" />
      <stop
         offset="1"
         style="stop-color:#0049bf;stop-opacity:1;"
         id="stop2-7" />
    </linearGradient>
  </defs>
  <sodipodi:namedview
     id="base"
     pagecolor="#ffffff"
     bordercolor="#666666"
     borderopacity="1.0"
     inkscape:pageopacity="0.0"
     inkscape:pageshadow="2"
     inkscape:zoom="8"
     inkscape:cx="24.25"
     inkscape:cy="36.0625"
     inkscape:document-units="px"
     inkscape:current-layer="layer1"
     inkscape:document-rotation="0"
     showgrid="false"
     units="px"
     inkscape:window-width="1920"
     inkscape:window-height="998"
     inkscape:window-x="0"
     inkscape:window-y="0"
     inkscape:window-maximized="1"
     inkscape:showpageshadow="2"
     inkscape:pagecheckerboard="0"
     inkscape:deskcolor="#d1d1d1" />
  <metadata
     id="metadata1440">
    <rdf:RDF>
      <cc:Work
         rdf:about="">
        <dc:format>image/svg+xml</dc:format>
        <dc:type
           rdf:resource="http://purl.org/dc/dcmitype/StillImage" />
      </cc:Work>
    </rdf:RDF>
  </metadata>
  <g
     inkscape:label="Capa 1"
     inkscape:groupmode="layer"
     id="layer1">
    <g
       style="opacity:0.295"
       transform="matrix(0.47117252,0,0,0.47114656,-31.72741,-18.000762)"
       id="g1702">
      <rect
         ry="6.6098609"
         rx="6.6098609"
         y="40.709618"
         x="69.839508"
         height="29.810888"
         width="29.810888"
         id="rect1634"
         style="fill:none;fill-opacity:1;stroke:#000000;stroke-width:0.1;stroke-linecap:round;stroke-linejoin:round;stroke-miterlimit:4;stroke-dasharray:none;stroke-opacity:0.02" />
      <rect
         style="fill:none;fill-opacity:1;stroke:#000000;stroke-width:0.2;stroke-linecap:round;stroke-linejoin:round;stroke-miterlimit:4;stroke-dasharray:none;stroke-opacity:0.02"
         id="rect1638"
         width="29.810888"
         height="29.810888"
         x="69.839508"
         y="40.709618"
         rx="6.6098609"
         ry="6.6098609" />
      <rect
         ry="6.6098609"
         rx="6.6098609"
         y="40.709618"
         x="69.839508"
         height="29.810888"
         width="29.810888"
         id="rect1640"
         style="fill:none;fill-opacity:1;stroke:#000000;stroke-width:0.3;stroke-linecap:round;stroke-linejoin:round;stroke-miterlimit:4;stroke-dasharray:none;stroke-opacity:0.02" />
      <rect
         style="fill:none;fill-opacity:1;stroke:#000000;stroke-width:0.4;stroke-linecap:round;stroke-linejoin:round;stroke-miterlimit:4;stroke-dasharray:none;stroke-opacity:0.02"
         id="rect1642"
         width="29.810888"
         height="29.810888"
         x="69.839508"
         y="40.709618"
         rx="6.6098609"
         ry="6.6098609" />
      <rect
         ry="6.6098609"
         rx="6.6098609"
         y="40.709618"
         x="69.839508"
         height="29.810888"
         width="29.810888"
         id="rect1644"
         style="fill:none;fill-opacity:1;stroke:#000000;stroke-width:0.5;stroke-linecap:round;stroke-linejoin:round;stroke-miterlimit:4;stroke-dasharray:none;stroke-opacity:0.02" />
      <rect
         style="fill:none;fill-opacity:1;stroke:#000000;stroke-width:0.6;stroke-linecap:round;stroke-linejoin:round;stroke-miterlimit:4;stroke-dasharray:none;stroke-opacity:0.02"
         id="rect1646"
         width="29.810888"
         height="29.810888"
         x="69.839508"
         y="40.709618"
         rx="6.6098609"
         ry="6.6098609" />
      <rect
         ry="6.6098609"
         rx="6.6098609"
         y="40.709618"
         x="69.839508"
         height="29.810888"
         width="29.810888"
         id="rect1648"
         style="fill:none;fill-opacity:1;stroke:#000000;stroke-width:0.7;stroke-linecap:round;stroke-linejoin:round;stroke-miterlimit:4;stroke-dasharray:none;stroke-opacity:0.02" />
      <rect
         style="fill:none;fill-opacity:1;stroke:#000000;stroke-width:0.8;stroke-linecap:round;stroke-linejoin:round;stroke-miterlimit:4;stroke-dasharray:none;stroke-opacity:0.02"
         id="rect1650"
         width="29.810888"
         height="29.810888"
         x="69.839508"
         y="40.709618"
         rx="6.6098609"
         ry="6.6098609" />
      <rect
         ry="6.6098609"
         rx="6.6098609"
         y="40.709618"
         x="69.839508"
         height="29.810888"
         width="29.810888"
         id="rect1652"
         style="fill:none;fill-opacity:1;stroke:#000000;stroke-width:1;stroke-linecap:round;stroke-linejoin:round;stroke-miterlimit:4;stroke-dasharray:none;stroke-opacity:0.02" />
      <rect
         style="fill:none;fill-opacity:1;stroke:#000000;stroke-width:1.2;stroke-linecap:round;stroke-linejoin:round;stroke-miterlimit:4;stroke-dasharray:none;stroke-opacity:0.02"
         id="rect1654"
         width="29.810888"
         height="29.810888"
         x="69.839508"
         y="40.709618"
         rx="6.6098609"
         ry="6.6098609" />
      <rect
         ry="6.6098609"
         rx="6.6098609"
         y="40.709618"
         x="69.839508"
         height="29.810888"
         width="29.810888"
         id="rect1656"
         style="fill:none;fill-opacity:1;stroke:#000000;stroke-width:1.4;stroke-linecap:round;stroke-linejoin:round;stroke-miterlimit:4;stroke-dasharray:none;stroke-opacity:0.02" />
      <rect
         style="fill:none;fill-opacity:1;stroke:#000000;stroke-width:1.6;stroke-linecap:round;stroke-linejoin:round;stroke-miterlimit:4;stroke-dasharray:none;stroke-opacity:0.02"
         id="rect1658"
         width="29.810888"
         height="29.810888"
         x="69.839508"
         y="40.709618"
         rx="6.6098609"
         ry="6.6098609" />
      <rect
         ry="6.6098609"
         rx="6.6098609"
         y="40.709618"
         x="69.839508"
         height="29.810888"
         width="29.810888"
         id="rect1660"
         style="fill:none;fill-opacity:1;stroke:#000000;stroke-width:1.8;stroke-linecap:round;stroke-linejoin:round;stroke-miterlimit:4;stroke-dasharray:none;stroke-opacity:0.02" />
      <rect
         style="fill:none;fill-opacity:1;stroke:#000000;stroke-width:2;stroke-linecap:round;stroke-linejoin:round;stroke-miterlimit:4;stroke-dasharray:none;stroke-opacity:0.02"
         id="rect1662"
         width="29.810888"
         height="29.810888"
         x="69.839508"
         y="40.709618"
         rx="6.6098609"
         ry="6.6098609" />
      <rect
         ry="6.6098609"
         rx="6.6098609"
         y="40.709618"
         x="69.839508"
         height="29.810888"
         width="29.810888"
         id="rect1664"
         style="fill:none;fill-opacity:1;stroke:#000000;stroke-width:2.2;stroke-linecap:round;stroke-linejoin:round;stroke-miterlimit:4;stroke-dasharray:none;stroke-opacity:0.02" />
      <rect
         style="fill:none;fill-opacity:1;stroke:#000000;stroke-width:2.6;stroke-linecap:round;stroke-linejoin:round;stroke-miterlimit:4;stroke-dasharray:none;stroke-opacity:0.02"
         id="rect1666"
         width="29.810888"
         height="29.810888"
         x="69.839508"
         y="40.709618"
         rx="6.6098609"
         ry="6.6098609" />
      <rect
         ry="6.6098609"
         rx="6.6098609"
         y="40.709618"
         x="69.839508"
         height="29.810888"
         width="29.810888"
         id="rect1668"
         style="fill:none;fill-opacity:1;stroke:#000000;stroke-width:3;stroke-linecap:round;stroke-linejoin:round;stroke-miterlimit:4;stroke-dasharray:none;stroke-opacity:0.02" />
      <rect
         style="fill:none;fill-opacity:1;stroke:#000000;stroke-width:3.4;stroke-linecap:round;stroke-linejoin:round;stroke-miterlimit:4;stroke-dasharray:none;stroke-opacity:0.02"
         id="rect1670"
         width="29.810888"
         height="29.810888"
         x="69.839508"
         y="40.709618"
         rx="6.6098609"
         ry="6.6098609" />
      <rect
         ry="6.6098609"
         rx="6.6098609"
         y="40.709618"
         x="69.839508"
         height="29.810888"
         width="29.810888"
         id="rect1672"
         style="fill:none;fill-opacity:1;stroke:#000000;stroke-width:3.8;stroke-linecap:round;stroke-linejoin:round;stroke-miterlimit:4;stroke-dasharray:none;stroke-opacity:0.02" />
      <rect
         style="fill:none;fill-opacity:1;stroke:#000000;stroke-width:4.2;stroke-linecap:round;stroke-linejoin:round;stroke-miterlimit:4;stroke-dasharray:none;stroke-opacity:0.02"
         id="rect1674"
         width="29.810888"
         height="29.810888"
         x="69.839508"
         y="40.709618"
         rx="6.6098609"
         ry="6.6098609" />
      <rect
         ry="6.6098609"
         rx="6.6098609"
         y="40.709618"
         x="69.839508"
         height="29.810888"
         width="29.810888"
         id="rect1676"
         style="fill:none;fill-opacity:1;stroke:#000000;stroke-width:4.6;stroke-linecap:round;stroke-linejoin:round;stroke-miterlimit:4;stroke-dasharray:none;stroke-opacity:0.02" />
      <rect
         style="fill:none;fill-opacity:1;stroke:#000000;stroke-width:5;stroke-linecap:round;stroke-linejoin:round;stroke-miterlimit:4;stroke-dasharray:none;stroke-opacity:0.02"
         id="rect1678"
         width="29.810888"
         height="29.810888"
         x="69.839508"
         y="40.709618"
         rx="6.6098609"
         ry="6.6098609" />
    </g>
    <rect
       ry="3.1142132"
       rx="3.1143851"
       y="1.1794344"
       x="1.1790471"
       height="14.045296"
       width="14.04607"
       id="rect849"
       style="fill:url(#linearGradient1632);fill-opacity:1;stroke-width:1.29783;stroke-linecap:round;stroke-linejoin:round" />
    <g
       id="surface1"
       transform="matrix(0.16743071,0,0,0.16726453,2.8276217,2.8502717)" />
    <path
       fill="#69c7b9"
       d="m 11.606857,3.3072941 -0.532189,0.5343465 c -0.341968,0.343722 -0.557393,0.5803032 -0.540592,0.5949873 0.01518,0.013321 0.117331,0.08729 0.226804,0.1645191 a 4.2813683,4.2965283 0 0 1 1.071426,1.0768515 c 0.06176,0.090556 0.12275,0.1642466 0.134946,0.1642466 0.01244,0 0.09052,-0.073424 0.173692,-0.1639744 0.0832,-0.090559 0.319748,-0.3380117 0.525416,-0.5501187 0.157165,-0.1620721 0.275851,-0.2871604 0.42651,-0.4432495 A 2.3384942,2.3467746 0 0 0 11.606857,3.3072941 M 4.7322798,3.3355783 A 2.3384942,2.3467746 0 0 0 3.2923313,4.7768192 l 0.6497924,0.6727603 c 0.2086488,0.2161861 0.3891164,0.3926696 0.4013102,0.3926696 0.012193,0 0.063947,-0.061182 0.1143506,-0.135694 C 4.7206282,5.3174209 5.1390099,4.8915748 5.5305654,4.6144761 5.6741809,4.5125003 5.7923248,4.4197724 5.7923248,4.4083516 c 0,-0.011419 -0.2530881,-0.2719329 -0.5622681,-0.5786719 z M 8.2722668,4.543773 A 3.9291037,3.9430164 0 0 0 7.0626447,4.7044858 C 5.7465305,5.0960679 4.7507061,6.2011996 4.5694252,7.4711237 4.5504562,7.6049143 4.5233612,7.7920036 4.5087262,7.8877232 4.4691652,8.15041 4.4772902,8.689107 4.5241742,8.9153553 c 0.095921,0.460653 0.1490349,0.5571893 0.7757945,1.4067037 0.8538352,1.157344 1.7591547,1.91794 2.4712709,2.076203 0.2620307,0.05792 0.6476248,0.04055 0.9088425,-0.04161 0.1929323,-0.06038 0.5441131,-0.233044 0.7142837,-0.351061 0.4525245,-0.31381 1.1134252,-0.991192 1.5946752,-1.633767 0.478808,-0.6395844 0.652501,-0.925114 0.739755,-1.214721 0.109741,-0.3652037 0.06991,-1.4200292 -0.0764,-2.0288853 C 11.363526,5.9289925 10.303752,4.9397023 8.9781538,4.6318753 A 3.522645,3.5351185 0 0 0 8.2722668,4.5437691 M 5.614025,7.6119803 a 1.3006689,1.3052744 0 0 1 0.3278765,0.058468 C 6.1681643,7.7408837 6.4060782,7.9486363 6.6857219,8.320096 7.0658965,8.8253464 7.2024667,9.2060505 7.0482831,9.3314119 6.873235,9.4733613 6.1277889,9.3167249 5.5362557,9.0137961 5.257425,8.8710317 5.0382081,8.5784323 4.9617937,8.2461311 4.8712885,7.8531889 5.1704426,7.5934938 5.6142958,7.6119853 m 5.1972582,0.00731 c 0.162582,0.010608 0.2791,0.055477 0.37665,0.1414056 0.176404,0.1555443 0.196455,0.4204072 0.05499,0.7342168 -0.09377,0.2082975 -0.216499,0.356772 -0.376373,0.4546679 C 10.686636,9.0599865 10.186963,9.2574086 9.9094846,9.3281112 9.6051809,9.4056089 9.3263499,9.4050649 9.2428906,9.326979 9.0775972,9.1725162 9.253729,8.7504778 9.7276604,8.1650078 10.037926,7.7815835 10.270689,7.6412669 10.632711,7.6200557 q 0.09785,-0.00581 0.178842,-8.163e-4 M 4.2740651,10.18582 c -0.015175,0 -0.5235195,0.501169 -1.0990653,1.07386 a 2.3384942,2.3467746 0 0 0 1.209893,1.79883 l 0.4676987,-0.462285 c 0.4072721,-0.402731 0.7405686,-0.746996 0.7402976,-0.76413 0,-0.01771 -0.042004,-0.07721 -0.093212,-0.132159 A 10.02599,10.061492 0 0 1 5.2509215,11.414407 5.6904262,5.7105755 0 0 0 5.078312,11.214264 C 5.0474209,11.187342 4.5791802,10.572233 4.44261,10.378618 4.3678221,10.272294 4.2919493,10.185545 4.2740651,10.185545 m 7.7720379,0 c -0.01818,0 -0.05064,0.02857 -0.07208,0.06311 -0.150118,0.241202 -0.77986,1.045577 -1.132665,1.446678 l -0.133861,0.151738 0.739754,0.740744 0.507532,0.509057 a 2.3357845,2.3440554 0 0 0 1.274384,-1.740628 C 12.612974,10.738679 12.057752,10.186382 12.0461,10.186382"
       id="path2-3"
       style="stroke-width:0.271451;fill:#45b9a8;fill-opacity:1" />
  </g>
</svg>
