<?xml version="1.0" encoding="UTF-8" standalone="no"?>
<svg
   width="62"
   height="62"
   version="1"
   id="svg10"
   sodipodi:docname="zenity.svg"
   inkscape:version="1.4.2 (unknown)"
   xmlns:inkscape="http://www.inkscape.org/namespaces/inkscape"
   xmlns:sodipodi="http://sodipodi.sourceforge.net/DTD/sodipodi-0.dtd"
   xmlns="http://www.w3.org/2000/svg"
   xmlns:svg="http://www.w3.org/2000/svg">
  <defs
     id="defs10" />
  <sodipodi:namedview
     id="namedview10"
     pagecolor="#ffffff"
     bordercolor="#000000"
     borderopacity="0.25"
     inkscape:showpageshadow="2"
     inkscape:pageopacity="0.0"
     inkscape:pagecheckerboard="0"
     inkscape:deskcolor="#d1d1d1"
     inkscape:zoom="12.109375"
     inkscape:cx="32"
     inkscape:cy="32"
     inkscape:window-width="1920"
     inkscape:window-height="1000"
     inkscape:window-x="0"
     inkscape:window-y="0"
     inkscape:window-maximized="1"
     inkscape:current-layer="svg10" />
  <g
     id="g10"
     transform="translate(-1.5,-1)">
    <rect
       style="opacity:0.2"
       width="55"
       height="55"
       x="5"
       y="5"
       rx="16.5"
       ry="16.5"
       id="rect1" />
    <path
       style="fill:#374762;fill-opacity:1"
       d="m 21.5,4 h 22 C 52.641,4 60,11.359 60,20.5 v 22 c 0,2.073295 -0.378576,4.054916 -1.070656,5.87979 -2.359246,6.220862 -8.202816,9.374604 -15.270476,9.349269 L 21.5,57.649625 C 14.380713,57.624103 8.3422687,54.536146 6.0195398,48.243178 5.3599573,46.456171 5,44.521668 5,42.5 v -22 C 5,11.359 12.359,4 21.5,4 Z"
       id="path1" />
    <circle
       style="fill:#ff2a2a"
       cx="38.905163"
       cy="-27.434193"
       r="4.5"
       id="circle3" />
    <path
       style="fill:#00d8f4"
       d="M 5.9506835,48 C 7.6028571,52.695474 11.304527,56.397143 16,58.049317 V 48 Z"
       id="path4" />
    <path
       style="fill:#02b4f2"
       d="M 16,48 V 58.049317 C 17.721134,58.654923 19.566677,59 21.5,59 H 27 V 48 Z"
       id="path5" />
    <rect
       style="fill:#039bf1"
       width="11"
       height="11"
       x="27"
       y="48"
       id="rect5" />
    <path
       style="fill:#0480f0"
       d="m 38,48 v 11 h 5.5 c 1.933323,0 3.778866,-0.345077 5.5,-0.950683 V 48 Z"
       id="path6" />
    <path
       style="fill:#065fee"
       d="M 49,48 V 58.049317 C 53.695474,56.397143 57.397143,52.695474 59.049317,48 Z"
       id="path7" />
    <path
       style="opacity:0.1;fill:#ffffff"
       d="M 21.5,4 C 12.359,4 5,11.359 5,20.5 v 1 C 5,12.359 12.359,5 21.5,5 h 22 C 52.641,5 60,12.359 60,21.5 v -1 C 60,11.359 52.641,4 43.5,4 Z"
       id="path8" />
    <path
       style="opacity:0.1;fill:#ffffff"
       d="m 5.9511719,48 c 0.119268,0.338959 0.2523514,0.6718 0.3925781,1 h 52.3125 c 0.140227,-0.3282 0.27331,-0.661041 0.392578,-1 z"
       id="path9" />
  </g>
  <rect
     style="fill:#c2efff;stroke:#c2efff;stroke-width:0.501977;stroke-linecap:round;stroke-linejoin:round;stroke-dasharray:none;paint-order:fill markers stroke;fill-opacity:0.63921571;stroke-opacity:1"
     id="rect2"
     width="43.649529"
     height="8.498023"
     x="9.1752357"
     y="24.972931"
     rx="4.0168009"
     ry="4.2490115" />
  <rect
     x="17.440001"
     y="26.799999"
     width="5"
     height="5"
     rx="2.5"
     ry="2.5"
     fill="#be5b1e"
     paint-order="stroke fill markers"
     id="rect4"
     style="fill:#7137c8" />
  <rect
     x="27.440001"
     y="26.799999"
     width="5"
     height="5"
     rx="2.5"
     ry="2.5"
     fill="#5834bd"
     paint-order="stroke fill markers"
     id="rect5-3"
     style="fill:#ffcc00" />
  <rect
     x="37.439999"
     y="26.799999"
     width="5"
     height="5"
     rx="2.5"
     ry="2.5"
     fill="#9f3787"
     paint-order="stroke fill markers"
     id="rect6"
     style="fill:#c83771" />
</svg>
