<?xml version="1.0" encoding="UTF-8" standalone="no"?>
<svg
   id="svg9"
   width="22"
   height="22"
   version="1.1"
   sodipodi:docname="capslock-enabled-symbolic.svg"
   inkscape:version="1.4 (unknown)"
   xmlns:inkscape="http://www.inkscape.org/namespaces/inkscape"
   xmlns:sodipodi="http://sodipodi.sourceforge.net/DTD/sodipodi-0.dtd"
   xmlns="http://www.w3.org/2000/svg"
   xmlns:svg="http://www.w3.org/2000/svg"
   xmlns:rdf="http://www.w3.org/1999/02/22-rdf-syntax-ns#"
   xmlns:cc="http://creativecommons.org/ns#"
   xmlns:dc="http://purl.org/dc/elements/1.1/">
  <metadata
     id="metadata8">
    <rdf:RDF>
      <cc:Work
         rdf:about="">
        <dc:format>image/svg+xml</dc:format>
        <dc:type
           rdf:resource="http://purl.org/dc/dcmitype/StillImage" />
      </cc:Work>
    </rdf:RDF>
  </metadata>
  <sodipodi:namedview
     pagecolor="#ffffff"
     bordercolor="#666666"
     borderopacity="1"
     objecttolerance="10"
     gridtolerance="10"
     guidetolerance="10"
     inkscape:pageopacity="0"
     inkscape:pageshadow="2"
     inkscape:window-width="1920"
     inkscape:window-height="996"
     id="namedview6"
     showgrid="false"
     inkscape:zoom="21.454546"
     inkscape:cx="10.790254"
     inkscape:cy="14.938559"
     inkscape:window-x="0"
     inkscape:window-y="0"
     inkscape:window-maximized="1"
     inkscape:current-layer="svg9"
     inkscape:showpageshadow="2"
     inkscape:pagecheckerboard="0"
     inkscape:deskcolor="#d1d1d1" />
  <defs
     id="defs3">
    <style
       id="current-color-scheme"
       type="text/css">.ColorScheme-Text { color:#cecfce; }
.ColorScheme-Highlight { color:#3daee9; }
</style>
  </defs>
  <path
     id="path4492"
     style="fill-rule:evenodd;fill-opacity:1;fill:currentColor;"
     d="M 6.0000019,3 C 4.9806791,2.9998291 4.1242935,3.7662094 4.0117207,4.7792969 l -1,9.0000001 C 2.8801108,14.964248 3.8077647,16.000193 5.0000019,16 H 17.000002 c 1.192117,1.4e-5 2.119878,-1.035871 1.988281,-2.220703 l -1,-9.0000001 C 17.875723,3.7663233 17.01921,2.999982 16.000002,3 Z m 0,1 H 16.000002 c 0.51793,-9.1e-6 0.936941,0.3758633 0.994141,0.890625 l 1,8.998047 C 18.061773,14.497575 17.61265,15.000007 17.000002,15 H 5.0000019 C 4.387287,15.000099 3.9382243,14.497642 4.0058613,13.888672 l 1,-8.998047 C 5.0630677,4.3758017 5.48201,3.9999132 6.0000019,4 Z m 3.8984375,1 -2.8984375,9 h 1.9101562 l 0.6171876,-2 h 3.0761723 l 0.609375,2 h 1.910156 L 12.212893,5 Z m 1.1816406,1.296875 1.09961,3.992187 h -2.179688 z m -8.0800781,9.90625 V 16.75 c 0,1.212 1.0381,2.25 2.25,2.25 H 16.750002 c 1.212,0 2.25,-1.038 2.25,-2.25 v -0.546875 c -0.532,0.485 -1.225,0.796875 -2,0.796875 H 5.0000019 c -0.7746,0 -1.4684,-0.311875 -2,-0.796875 z"
     inkscape:connector-curvature="0"
     class="ColorScheme-Text" />
</svg>
