<?xml version="1.0" encoding="UTF-8" standalone="no"?>
<!-- Created with Inkscape (http://www.inkscape.org/) -->

<svg
   id="svg7384"
   height="22"
   width="22"
   version="1.1"
   sodipodi:docname="checkbox-checked-symbolic.svg"
   inkscape:version="1.4 (unknown)"
   xmlns:inkscape="http://www.inkscape.org/namespaces/inkscape"
   xmlns:sodipodi="http://sodipodi.sourceforge.net/DTD/sodipodi-0.dtd"
   xmlns="http://www.w3.org/2000/svg"
   xmlns:svg="http://www.w3.org/2000/svg"
   xmlns:rdf="http://www.w3.org/1999/02/22-rdf-syntax-ns#"
   xmlns:cc="http://creativecommons.org/ns#"
   xmlns:dc="http://purl.org/dc/elements/1.1/">
  <defs
     id="defs1" />
  <sodipodi:namedview
     id="namedview1"
     pagecolor="#ffffff"
     bordercolor="#000000"
     borderopacity="0.25"
     inkscape:showpageshadow="2"
     inkscape:pageopacity="0.0"
     inkscape:pagecheckerboard="0"
     inkscape:deskcolor="#d1d1d1"
     inkscape:zoom="32"
     inkscape:cx="7.109375"
     inkscape:cy="10.859375"
     inkscape:window-width="1920"
     inkscape:window-height="998"
     inkscape:window-x="0"
     inkscape:window-y="0"
     inkscape:window-maximized="1"
     inkscape:current-layer="svg7384" />
  <metadata
     id="metadata90">
    <rdf:RDF>
      <cc:Work
         rdf:about="">
        <dc:format>image/svg+xml</dc:format>
        <dc:type
           rdf:resource="http://purl.org/dc/dcmitype/StillImage" />
        <dc:title>Gnome Symbolic Icon Theme</dc:title>
      </cc:Work>
    </rdf:RDF>
  </metadata>
  <title
     id="title9167">Gnome Symbolic Icon Theme</title>
  <g
     id="layer9"
     transform="matrix(1.142751,0,0,1.1426531,-456.3859,-383.21538)">
    <path
       id="rect9618-8"
       style="color:#000000;text-indent:0;text-transform:none;fill:#cecfce"
       d="m 404.47,338 c -1.37,0 -2.47,1.1 -2.47,2.47 v 9.0625 c 0,1.3642 1.1046,2.4688 2.4688,2.4688 h 9.0625 c 1.37,0 2.47,-1.1 2.47,-2.47 v -9.0625 c 0,-1.37 -1.1,-2.47 -2.47,-2.47 h -9.0625 z m 0,1 h 9.0625 c 0.83222,0 1.4688,0.63653 1.4688,1.4688 v 9.0625 c 0,0.83 -0.64,1.47 -1.47,1.47 h -9.0625 c -0.83,0 -1.47,-0.64 -1.47,-1.47 v -9.0625 c 0,-0.83 0.64,-1.47 1.47,-1.47 z" />
    <path
       id="path8913-6-7-1-5-1"
       style="color:#000000;text-indent:0;text-transform:none;fill:#cecfce"
       d="m 415.18,339.82 -5.6768,5.5518 -1.9375,-1.9375 -2.125,2.125 3,3 1.0625,1.0625 1.0625,-1.0625 4.6143,-4.7393 z" />
  </g>
</svg>
