<?xml version="1.0" encoding="UTF-8" standalone="no"?>
<!-- Created with Inkscape (http://www.inkscape.org/) -->

<svg
   id="svg7384"
   height="22"
   width="22"
   version="1.1"
   sodipodi:docname="checkbox-symbolic.svg"
   inkscape:version="1.4 (unknown)"
   xmlns:inkscape="http://www.inkscape.org/namespaces/inkscape"
   xmlns:sodipodi="http://sodipodi.sourceforge.net/DTD/sodipodi-0.dtd"
   xmlns="http://www.w3.org/2000/svg"
   xmlns:svg="http://www.w3.org/2000/svg"
   xmlns:rdf="http://www.w3.org/1999/02/22-rdf-syntax-ns#"
   xmlns:cc="http://creativecommons.org/ns#"
   xmlns:dc="http://purl.org/dc/elements/1.1/">
  <defs
     id="defs1" />
  <sodipodi:namedview
     id="namedview1"
     pagecolor="#ffffff"
     bordercolor="#000000"
     borderopacity="0.25"
     inkscape:showpageshadow="2"
     inkscape:pageopacity="0.0"
     inkscape:pagecheckerboard="0"
     inkscape:deskcolor="#d1d1d1"
     inkscape:zoom="22.627417"
     inkscape:cx="6.4744465"
     inkscape:cy="12.175495"
     inkscape:window-width="1920"
     inkscape:window-height="996"
     inkscape:window-x="0"
     inkscape:window-y="0"
     inkscape:window-maximized="1"
     inkscape:current-layer="svg7384" />
  <metadata
     id="metadata90">
    <rdf:RDF>
      <cc:Work
         rdf:about="">
        <dc:format>image/svg+xml</dc:format>
        <dc:type
           rdf:resource="http://purl.org/dc/dcmitype/StillImage" />
        <dc:title>Gnome Symbolic Icon Theme</dc:title>
      </cc:Work>
    </rdf:RDF>
  </metadata>
  <title
     id="title9167">Gnome Symbolic Icon Theme</title>
  <g
     id="layer9"
     transform="translate(-401,-317)">
    <path
       id="rect9618"
       style="color:#000000;text-indent:0;text-transform:none;fill:#cecfce;stroke-width:1.13774"
       d="M 406.83192,320 C 405.27661,320 404,321.25859 404,322.82139 v 10.35722 c 0,1.5628 1.27661,2.82139 2.83192,2.82139 h 10.33635 C 418.72339,336 420,334.74141 420,333.17861 V 322.82139 C 420,321.25859 418.72339,320 417.16827,320 Z m 0,1.1428 h 10.33635 c 0.95563,0 1.69904,0.73225 1.69904,1.67859 v 10.35722 c 0,0.94629 -0.74341,1.67859 -1.69904,1.67859 h -10.33635 c -0.95582,0 -1.69922,-0.73225 -1.69922,-1.67859 v -10.35722 c 0,-0.94629 0.7434,-1.67859 1.69922,-1.67859 z" />
  </g>
</svg>
