<?xml version="1.0" encoding="UTF-8" standalone="no"?>
<!-- Created with Inkscape (http://www.inkscape.org/) -->

<svg
   id="svg7384"
   height="22"
   viewBox="0 0 22 22"
   width="22"
   version="1.1"
   sodipodi:docname="daytime-sunrise-symbolic.svg"
   inkscape:version="1.4 (unknown)"
   xmlns:inkscape="http://www.inkscape.org/namespaces/inkscape"
   xmlns:sodipodi="http://sodipodi.sourceforge.net/DTD/sodipodi-0.dtd"
   xmlns="http://www.w3.org/2000/svg"
   xmlns:svg="http://www.w3.org/2000/svg"
   xmlns:rdf="http://www.w3.org/1999/02/22-rdf-syntax-ns#"
   xmlns:cc="http://creativecommons.org/ns#"
   xmlns:dc="http://purl.org/dc/elements/1.1/">
  <defs
     id="defs1" />
  <sodipodi:namedview
     id="namedview1"
     pagecolor="#ffffff"
     bordercolor="#000000"
     borderopacity="0.25"
     inkscape:showpageshadow="2"
     inkscape:pageopacity="0.0"
     inkscape:pagecheckerboard="0"
     inkscape:deskcolor="#d1d1d1"
     inkscape:zoom="22.627417"
     inkscape:cx="14.318912"
     inkscape:cy="9.4354561"
     inkscape:window-width="1920"
     inkscape:window-height="996"
     inkscape:window-x="0"
     inkscape:window-y="0"
     inkscape:window-maximized="1"
     inkscape:current-layer="svg7384" />
  <metadata
     id="metadata90">
    <rdf:RDF>
      <cc:Work
         rdf:about="">
        <dc:format>image/svg+xml</dc:format>
        <dc:type
           rdf:resource="http://purl.org/dc/dcmitype/StillImage" />
        <dc:title>Gnome Symbolic Icon Theme</dc:title>
      </cc:Work>
    </rdf:RDF>
  </metadata>
  <title
     id="title9167">Gnome Symbolic Icon Theme</title>
  <g
     id="layer9"
     transform="matrix(1.0666098,0,0,1.1034483,-254.05211,-326.37932)">
    <path
       id="path6996"
       style="color:#000000;font-variant-ligatures:normal;font-variant-position:normal;font-variant-caps:normal;font-variant-numeric:normal;font-variant-alternates:normal;font-feature-settings:normal;text-indent:0;text-decoration-line:none;text-decoration-style:solid;text-decoration-color:#000000;text-transform:none;text-orientation:mixed;dominant-baseline:auto;white-space:normal;shape-padding:0;isolation:auto;mix-blend-mode:normal;solid-color:#000000;fill:#cecfce;fill-rule:evenodd;color-rendering:auto;image-rendering:auto;shape-rendering:auto"
       d="m 241,312 v 1 h 15 v -1 z" />
    <path
       id="path6998"
       style="fill:#cecfce"
       d="M 248.5,298.5 245,303 h 3 v 2.5 c 0,0.277 0.223,0.5 0.5,0.5 0.069,0 0.1354,-0.0138 0.1953,-0.0391 0.1796,-0.0756 0.3047,-0.25319 0.3047,-0.46094 v -2.5 h 3 z m -4.9492,7.5488 c -0.1278,0 -0.2556,0.0505 -0.3535,0.14844 -0.1959,0.19586 -0.1959,0.51116 0,0.70703 l 0.707,0.70703 c 0.1469,0.1469 0.3605,0.18281 0.541,0.10937 0.06,-0.0245 0.1171,-0.0604 0.166,-0.10937 0.1959,-0.19588 0.1959,-0.51117 0,-0.70703 l -0.707,-0.70703 c -0.098,-0.0979 -0.2257,-0.14844 -0.3535,-0.14844 z m 9.8984,0.002 c -0.1278,0 -0.2556,0.0486 -0.3535,0.14649 l -0.707,0.70703 c -0.1959,0.19587 -0.1959,0.51117 0,0.70703 0.098,0.0979 0.2257,0.14648 0.3535,0.14648 0.064,0 0.1273,-0.0126 0.1875,-0.0371 0.06,-0.0245 0.117,-0.0604 0.166,-0.10937 l 0.707,-0.70703 c 0.1959,-0.19587 0.1959,-0.51118 0,-0.70703 -0.098,-0.0979 -0.2257,-0.14649 -0.3535,-0.14649 z m -4.95,0.95 c -2.3139,0 -4.1973,1.7534 -4.4492,4 h 8.8984 c -0.2519,-2.2466 -2.1353,-4 -4.4492,-4 z m -7,3 c -0.277,0 -0.5,0.223 -0.5,0.5 0,0.277 0.223,0.5 0.5,0.5 h 1 c 0.277,0 0.5,-0.223 0.5,-0.5 0,-0.277 -0.223,-0.5 -0.5,-0.5 z m 13,0 c -0.277,0 -0.5,0.223 -0.5,0.5 0,0.277 0.223,0.5 0.5,0.5 h 1 c 0.277,0 0.5,-0.223 0.5,-0.5 0,-0.277 -0.223,-0.5 -0.5,-0.5 z" />
  </g>
</svg>
