<?xml version="1.0" encoding="UTF-8" standalone="no"?>
<!-- Created with Inkscape (http://www.inkscape.org/) -->

<svg
   id="svg7384"
   height="22"
   width="22"
   version="1.1"
   sodipodi:docname="find-location-symbolic.svg"
   inkscape:version="1.4 (unknown)"
   xmlns:inkscape="http://www.inkscape.org/namespaces/inkscape"
   xmlns:sodipodi="http://sodipodi.sourceforge.net/DTD/sodipodi-0.dtd"
   xmlns="http://www.w3.org/2000/svg"
   xmlns:svg="http://www.w3.org/2000/svg"
   xmlns:rdf="http://www.w3.org/1999/02/22-rdf-syntax-ns#"
   xmlns:cc="http://creativecommons.org/ns#"
   xmlns:dc="http://purl.org/dc/elements/1.1/">
  <defs
     id="defs9" />
  <sodipodi:namedview
     pagecolor="#ffffff"
     bordercolor="#666666"
     borderopacity="1"
     objecttolerance="10"
     gridtolerance="10"
     guidetolerance="10"
     inkscape:pageopacity="0"
     inkscape:pageshadow="2"
     inkscape:window-width="1920"
     inkscape:window-height="998"
     id="namedview7"
     showgrid="false"
     inkscape:zoom="14.75"
     inkscape:cx="8.0338983"
     inkscape:cy="7.9661017"
     inkscape:window-x="0"
     inkscape:window-y="0"
     inkscape:window-maximized="1"
     inkscape:current-layer="svg7384"
     inkscape:showpageshadow="2"
     inkscape:pagecheckerboard="0"
     inkscape:deskcolor="#d1d1d1" />
  <metadata
     id="metadata90">
    <rdf:RDF>
      <cc:Work
         rdf:about="">
        <dc:format>image/svg+xml</dc:format>
        <dc:type
           rdf:resource="http://purl.org/dc/dcmitype/StillImage" />
        <dc:title>Gnome Symbolic Icon Theme</dc:title>
      </cc:Work>
    </rdf:RDF>
  </metadata>
  <title
     id="title9167">Gnome Symbolic Icon Theme</title>
  <path
     style="color:#000000;fill:#cecfce;fill-opacity:1;stroke-width:1.0667"
     d="M 10.466667,3 V 4.1 C 7.09344,4.380416 4.39776,7.089067 4.133333,10.466667 H 3 v 1.066666 H 4.133333 C 4.397771,14.91125 7.093013,17.61989 10.466667,17.9 V 19 h 1.066666 V 17.9 C 14.93397,17.6506 17.63888,14.93408 17.9,11.533333 H 19 v -1.066666 h -1.1 c -0.26112,-3.40128 -2.96507,-6.151467 -6.366667,-6.4 V 3 Z m 0.572916,2.133333 c 3.240451,0 5.827087,2.6046131 5.827087,5.866667 0,3.262055 -2.586636,5.86667 -5.827087,5.86667 -3.2404507,0 -5.90625,-2.604615 -5.90625,-5.86667 0,-3.2620539 2.6657993,-5.866667 5.90625,-5.866667 z M 11,6.2 c -2.6509717,0 -4.8,2.1490283 -4.8,4.8 0,2.650975 2.1490283,4.8 4.8,4.8 2.650976,0 4.8,-2.149025 4.8,-4.8 0,-2.6509717 -2.149024,-4.8 -4.8,-4.8 z"
     id="path4490" />
</svg>
