<?xml version="1.0" encoding="UTF-8" standalone="no"?>
<svg
   height="22"
   width="22"
   version="1.1"
   id="svg2"
   sodipodi:docname="gser-icon-playing-symbolic.svg"
   inkscape:version="1.4 (unknown)"
   xmlns:inkscape="http://www.inkscape.org/namespaces/inkscape"
   xmlns:sodipodi="http://sodipodi.sourceforge.net/DTD/sodipodi-0.dtd"
   xmlns="http://www.w3.org/2000/svg"
   xmlns:svg="http://www.w3.org/2000/svg"
   xmlns:rdf="http://www.w3.org/1999/02/22-rdf-syntax-ns#"
   xmlns:cc="http://creativecommons.org/ns#"
   xmlns:dc="http://purl.org/dc/elements/1.1/">
  <metadata
     id="metadata9">
    <rdf:RDF>
      <cc:Work
         rdf:about="">
        <dc:format>image/svg+xml</dc:format>
        <dc:type
           rdf:resource="http://purl.org/dc/dcmitype/StillImage" />
      </cc:Work>
    </rdf:RDF>
  </metadata>
  <sodipodi:namedview
     pagecolor="#ffffff"
     bordercolor="#666666"
     borderopacity="1"
     objecttolerance="10"
     gridtolerance="10"
     guidetolerance="10"
     inkscape:pageopacity="0"
     inkscape:pageshadow="2"
     inkscape:window-width="1920"
     inkscape:window-height="996"
     id="namedview7"
     showgrid="false"
     inkscape:zoom="13.2"
     inkscape:cx="8.2575758"
     inkscape:cy="10.643939"
     inkscape:window-x="0"
     inkscape:window-y="0"
     inkscape:window-maximized="1"
     inkscape:current-layer="svg2"
     inkscape:showpageshadow="2"
     inkscape:pagecheckerboard="0"
     inkscape:deskcolor="#d1d1d1" />
  <defs
     id="defs10">
    <style
       type="text/css"
       id="current-color-scheme">
   .ColorScheme-Text { color:#cecfce; } .ColorScheme-Highlight { color:#3daee9; }
  </style>
  </defs>
  <path
     style="display:inline;opacity:1;fill:#cecfce;fill-opacity:1;stroke:none"
     d="M 9.7070304,3 9.0000001,3.707 13.29297,8 H 2.9999999 V 19 H 19 V 8 H 14.70703 Z M 3.9999999,9 H 14.29297 15.70703 18 v 9 H 3.9999999 Z m 4.5,1 C 6.5670034,10 5,11.567003 4.9999999,13.5 5,15.432997 6.5670034,17 8.4999999,17 10.432997,17 12,15.432997 12,13.5 12,11.567003 10.432997,9.9999998 8.4999999,10 Z m 0,1 C 9.8807118,11 11,12.119288 11,13.5 11,14.880712 9.8807118,16 8.4999999,16 7.1192881,16 6,14.880712 6,13.5 6.0000001,12.119288 7.1192881,11 8.4999999,11 Z M 12,11 v 1 h 5 v -1 z m 0,2 v 1 h 5 v -1 z m 0,2 v 1 h 5 v -1 z"
     id="rect4703"
     inkscape:connector-curvature="0"
     sodipodi:nodetypes="ccccccccccccccccssssssssssccccccccccccccc" />
</svg>
