<?xml version="1.0" encoding="UTF-8" standalone="no"?>
<svg
   width="22"
   height="22"
   version="1.1"
   id="svg10"
   sodipodi:docname="media-playlist-repeat-song-symbolic-rtl.svg"
   inkscape:version="1.4 (unknown)"
   xmlns:inkscape="http://www.inkscape.org/namespaces/inkscape"
   xmlns:sodipodi="http://sodipodi.sourceforge.net/DTD/sodipodi-0.dtd"
   xmlns="http://www.w3.org/2000/svg"
   xmlns:svg="http://www.w3.org/2000/svg"
   xmlns:rdf="http://www.w3.org/1999/02/22-rdf-syntax-ns#"
   xmlns:cc="http://creativecommons.org/ns#"
   xmlns:dc="http://purl.org/dc/elements/1.1/">
  <metadata
     id="metadata16">
    <rdf:RDF>
      <cc:Work
         rdf:about="">
        <dc:format>image/svg+xml</dc:format>
        <dc:type
           rdf:resource="http://purl.org/dc/dcmitype/StillImage" />
      </cc:Work>
    </rdf:RDF>
  </metadata>
  <defs
     id="defs14" />
  <sodipodi:namedview
     pagecolor="#ffffff"
     bordercolor="#666666"
     borderopacity="1"
     objecttolerance="10"
     gridtolerance="10"
     guidetolerance="10"
     inkscape:pageopacity="0"
     inkscape:pageshadow="2"
     inkscape:window-width="1920"
     inkscape:window-height="996"
     id="namedview12"
     showgrid="false"
     inkscape:zoom="14.75"
     inkscape:cx="8.1355932"
     inkscape:cy="8.0338983"
     inkscape:window-x="0"
     inkscape:window-y="0"
     inkscape:window-maximized="1"
     inkscape:current-layer="svg10"
     inkscape:showpageshadow="2"
     inkscape:pagecheckerboard="0"
     inkscape:deskcolor="#d1d1d1" />
  <path
     inkscape:connector-curvature="0"
     style="fill:#cecfce;fill-opacity:1;stroke:none"
     d="m 11,3 c 4.432,0 8,3.5680001 8,8 h -1 c 0,-3.8779999 -3.122,-6.9999999 -7,-6.9999999 -3.8780001,0 -7.0000001,3.122 -7.0000001,6.9999999 h -1 c 0,-4.4319999 3.568,-8 8.0000001,-8 z m 0,2.0000001 c 3.324,0 6,2.676 6,5.9999999 H 14 C 14,9.3380001 12.662,8.0000001 11,8.0000001 Z m 0,4 c 1.108,0 2,0.892 2,1.9999999 h -1 c 0,-0.554 -0.446,-1 -1,-1 -0.554,0 -1,0.446 -1,1 H 9 C 9,9.8920001 9.892,9.0000001 11,9.0000001 Z M 10,12 12,13.5 10,15 V 14 H 4.9999999 c -0.554,0 -1,0.446 -1,1 h -1 c 0,-1.10801 0.89199,-2 2,-2 H 10 Z m 8,1 v 1 h 1 v 1 h -1 v 2 h 1 v 1 h -1 v 1 h -1 v -1 h -2 v 1 h -1 v -1 h -1 v -1 h 1 v -2 h -1 v -1 h 1 v -1 h 1 v 1 h 2 v -1 z m -1,2 h -2 v 2 h 2 z m -5,1 c 0,1.10801 -0.89199,2 -2,2 H 4.9999999 v 1 l -2,-1.5 2,-1.5 v 1 H 10 c 0.554,0 1,-0.446 1,-1 z"
     class="ColorScheme-Text"
     id="path4-3" />
</svg>
