<?xml version="1.0" encoding="UTF-8" standalone="no"?>
<svg
   id="svg2"
   width="22"
   height="22"
   version="1.1"
   sodipodi:docname="my-caffeine-off-symbolic.svg"
   inkscape:version="1.4 (unknown)"
   xmlns:inkscape="http://www.inkscape.org/namespaces/inkscape"
   xmlns:sodipodi="http://sodipodi.sourceforge.net/DTD/sodipodi-0.dtd"
   xmlns="http://www.w3.org/2000/svg"
   xmlns:svg="http://www.w3.org/2000/svg"
   xmlns:rdf="http://www.w3.org/1999/02/22-rdf-syntax-ns#"
   xmlns:cc="http://creativecommons.org/ns#"
   xmlns:dc="http://purl.org/dc/elements/1.1/">
  <metadata
     id="metadata8">
    <rdf:RDF>
      <cc:Work
         rdf:about="">
        <dc:format>image/svg+xml</dc:format>
        <dc:type
           rdf:resource="http://purl.org/dc/dcmitype/StillImage" />
      </cc:Work>
    </rdf:RDF>
  </metadata>
  <sodipodi:namedview
     pagecolor="#ffffff"
     bordercolor="#666666"
     borderopacity="1"
     objecttolerance="10"
     gridtolerance="10"
     guidetolerance="10"
     inkscape:pageopacity="0"
     inkscape:pageshadow="2"
     inkscape:window-width="1920"
     inkscape:window-height="996"
     id="namedview6"
     showgrid="false"
     inkscape:zoom="10.727273"
     inkscape:cx="11"
     inkscape:cy="11.04661"
     inkscape:window-x="0"
     inkscape:window-y="0"
     inkscape:window-maximized="1"
     inkscape:current-layer="svg2"
     inkscape:showpageshadow="2"
     inkscape:pagecheckerboard="0"
     inkscape:deskcolor="#d1d1d1" />
  <defs
     id="defs10">
    <style
       id="current-color-scheme"
       type="text/css">
   .ColorScheme-Text { color:#cecfce; } .ColorScheme-Highlight { color:#3daee9; }
  </style>
  </defs>
  <path
     id="rect4137"
     style="opacity:1;fill:#cecfce;fill-opacity:1"
     d="M 7,6 C 4.790861,6 3,7.790861 3,10 3,12.209139 4.790861,14 7,14 7.2424594,13.999162 7.4843405,13.97628 7.7226562,13.93164 8.4620206,15.481093 9.9580363,16 13,16 c 6,0 6,-2 6,-10 z m 1,1 h 9.976562 c -0.02065,3.304783 -0.126528,5.563604 -0.621093,6.552734 C 17.07985,14.103973 16.774805,14.382885 16.121094,14.625 15.467382,14.867115 14.444444,15 13,15 11.535879,15 10.507241,14.862243 9.8554688,14.613281 9.2036963,14.364319 8.9004718,14.079246 8.625,13.501953 l -0.3046875,-0.640625 0.011719,-0.002 -0.1386718,-1.007813 C 8.0622841,10.892155 8.019332,9.575549 8.0078125,7.992188 Z M 7,8 H 7.00781 C 7.019423,9.596219 7.059976,10.938455 7.2031225,11.986328 7.1356985,11.994331 7.0678957,11.998894 7,12 5.8954305,12 5,11.104569 5,10 5,8.895431 5.8954305,8 7,8 Z"
     inkscape:connector-curvature="0" />
</svg>
