<?xml version="1.0" encoding="UTF-8" standalone="no"?>
<svg
   id="svg2"
   width="22"
   height="22"
   version="1.1"
   sodipodi:docname="my-caffeine-on-symbolic.svg"
   inkscape:version="1.4 (unknown)"
   xmlns:inkscape="http://www.inkscape.org/namespaces/inkscape"
   xmlns:sodipodi="http://sodipodi.sourceforge.net/DTD/sodipodi-0.dtd"
   xmlns="http://www.w3.org/2000/svg"
   xmlns:svg="http://www.w3.org/2000/svg"
   xmlns:rdf="http://www.w3.org/1999/02/22-rdf-syntax-ns#"
   xmlns:cc="http://creativecommons.org/ns#"
   xmlns:dc="http://purl.org/dc/elements/1.1/">
  <metadata
     id="metadata8">
    <rdf:RDF>
      <cc:Work
         rdf:about="">
        <dc:format>image/svg+xml</dc:format>
        <dc:type
           rdf:resource="http://purl.org/dc/dcmitype/StillImage" />
      </cc:Work>
    </rdf:RDF>
  </metadata>
  <sodipodi:namedview
     pagecolor="#ffffff"
     bordercolor="#666666"
     borderopacity="1"
     objecttolerance="10"
     gridtolerance="10"
     guidetolerance="10"
     inkscape:pageopacity="0"
     inkscape:pageshadow="2"
     inkscape:window-width="1920"
     inkscape:window-height="996"
     id="namedview6"
     showgrid="false"
     inkscape:zoom="20.02"
     inkscape:cx="10.989011"
     inkscape:cy="11.013986"
     inkscape:window-x="0"
     inkscape:window-y="0"
     inkscape:window-maximized="1"
     inkscape:current-layer="svg2"
     inkscape:showpageshadow="2"
     inkscape:pagecheckerboard="0"
     inkscape:deskcolor="#d1d1d1" />
  <defs
     id="defs10">
    <style
       id="current-color-scheme"
       type="text/css">
   .ColorScheme-Text { color:#cecfce; } .ColorScheme-Highlight { color:#3daee9; }
  </style>
  </defs>
  <path
     id="rect4137"
     style="opacity:1;fill:#cecfce;fill-opacity:1"
     d="M 10.193359,3.000211 C 9.0951599,4.384431 8.7660095,4.5667737 9.1621094,5.4478438 9.5212094,6.2465137 10.449022,6.152759 9.9824219,7.9997891 10.748822,7.0998691 11.357659,6.4576844 10.755859,5.5357343 10.143659,4.5980344 9.8083602,4.5282109 10.193359,3.000211 Z m 3,0 c -1.0982,1.38422 -1.42735,1.5665627 -1.03125,2.4476328 0.3591,0.7986699 1.286913,0.7049152 0.820313,2.5519453 0.7664,-0.89992 1.375237,-1.5421045 0.773437,-2.4640548 -0.6122,-0.9376999 -0.9475,-1.0075234 -0.5625,-2.5355233 z m 3,0 c -1.0982,1.38422 -1.42735,1.5665627 -1.03125,2.4476328 0.3591,0.7986699 1.286913,0.7049152 0.820313,2.5519453 0.7664,-0.89992 1.375237,-1.5421045 0.773437,-2.4640548 -0.6122,-0.9376999 -0.9475,-1.0075234 -0.5625,-2.5355233 z M 7,8.9997891 c -2.209139,0 -4,1.7908609 -4,3.9999999 0,2.209139 1.790861,4 4,4 0.2424594,-8.38e-4 0.4843405,-0.02372 0.7226562,-0.06836 0.7393644,1.549453 2.2353801,2.06836 5.2773438,2.06836 6,0 6,-2 6,-9.9999999 z m 0,1.9999999 h 0.00781 c 0.011613,1.596219 0.052166,2.938455 0.1953125,3.986328 -0.067424,0.008 -0.1352268,0.01257 -0.2031225,0.01367 -1.1045695,0 -2,-0.895431 -2,-2 0,-1.104569 0.8954305,-2 2,-2 z"
     inkscape:connector-curvature="0"
     sodipodi:nodetypes="cccccccccccccccssccscsscccss" />
</svg>
