<?xml version="1.0" encoding="UTF-8" standalone="no"?>
<svg
   width="22"
   height="22"
   version="1.1"
   id="svg1"
   sodipodi:docname="network-wireless-encrypted-symbolic.svg"
   inkscape:version="1.4 (unknown)"
   xmlns:inkscape="http://www.inkscape.org/namespaces/inkscape"
   xmlns:sodipodi="http://sodipodi.sourceforge.net/DTD/sodipodi-0.dtd"
   xmlns="http://www.w3.org/2000/svg"
   xmlns:svg="http://www.w3.org/2000/svg">
  <defs
     id="defs1" />
  <sodipodi:namedview
     id="namedview1"
     pagecolor="#ffffff"
     bordercolor="#000000"
     borderopacity="0.25"
     inkscape:showpageshadow="2"
     inkscape:pageopacity="0.0"
     inkscape:pagecheckerboard="0"
     inkscape:deskcolor="#d1d1d1"
     inkscape:zoom="24.21875"
     inkscape:cx="11.747097"
     inkscape:cy="10.095484"
     inkscape:window-width="1920"
     inkscape:window-height="998"
     inkscape:window-x="0"
     inkscape:window-y="0"
     inkscape:window-maximized="1"
     inkscape:current-layer="svg1" />
  <path
     class="ColorScheme-Text"
     d="M 11,3 C 8.5993336,3 6.6666664,4.902933 6.6666664,7.266667 V 9.4 H 7.75 V 7.266667 c 0,-1.7728 1.4495,-3.2 3.25,-3.2 1.8005,0 3.25,1.4272 3.25,3.2 V 9.4 h 1.083336 V 7.266667 C 15.333336,4.902933 13.400664,3 11,3 Z M 6.6666664,9.4 C 5.4663336,9.4 4.5,10.351467 4.5,11.533333 V 16.86667 C 4.5,18.04853 5.4663336,19 6.6666664,19 H 15.333336 C 16.533664,19 17.5,18.04853 17.5,16.86667 V 11.533333 C 17.5,10.351467 16.533664,9.4 15.333336,9.4 Z m 0,1.066667 h 8.6666696 c 0.600164,0 1.083328,0.475733 1.083328,1.066666 v 5.333337 c 0,0.59093 -0.483164,1.06666 -1.083328,1.06666 H 6.6666664 c -0.6001664,0 -1.0833328,-0.47573 -1.0833328,-1.06666 v -5.333337 c 0,-0.590933 0.4831664,-1.066666 1.0833328,-1.066666 z"
     fill="#dedede"
     id="path1"
     style="stroke-width:1.075" />
</svg>
