<?xml version="1.0" encoding="UTF-8" standalone="no"?>
<!-- Created with Inkscape (http://www.inkscape.org/) -->

<svg
   id="svg7384"
   height="22"
   width="22"
   version="1.1"
   sodipodi:docname="network-no-route-symbolic.svg"
   inkscape:version="1.4 (unknown)"
   xmlns:inkscape="http://www.inkscape.org/namespaces/inkscape"
   xmlns:sodipodi="http://sodipodi.sourceforge.net/DTD/sodipodi-0.dtd"
   xmlns="http://www.w3.org/2000/svg"
   xmlns:svg="http://www.w3.org/2000/svg"
   xmlns:rdf="http://www.w3.org/1999/02/22-rdf-syntax-ns#"
   xmlns:cc="http://creativecommons.org/ns#"
   xmlns:dc="http://purl.org/dc/elements/1.1/">
  <defs
     id="defs14" />
  <sodipodi:namedview
     pagecolor="#ffffff"
     bordercolor="#666666"
     borderopacity="1"
     objecttolerance="10"
     gridtolerance="10"
     guidetolerance="10"
     inkscape:pageopacity="0"
     inkscape:pageshadow="2"
     inkscape:window-width="1920"
     inkscape:window-height="998"
     id="namedview12"
     showgrid="false"
     inkscape:zoom="18.16"
     inkscape:cx="3.8821586"
     inkscape:cy="6.8006608"
     inkscape:window-x="0"
     inkscape:window-y="0"
     inkscape:window-maximized="1"
     inkscape:current-layer="svg7384"
     inkscape:showpageshadow="2"
     inkscape:pagecheckerboard="0"
     inkscape:deskcolor="#d1d1d1">
    <inkscape:grid
       type="xygrid"
       id="grid4508"
       originx="0"
       originy="0"
       spacingy="1"
       spacingx="1"
       units="px"
       visible="false" />
  </sodipodi:namedview>
  <metadata
     id="metadata90">
    <rdf:RDF>
      <cc:Work
         rdf:about="">
        <dc:format>image/svg+xml</dc:format>
        <dc:type
           rdf:resource="http://purl.org/dc/dcmitype/StillImage" />
        <dc:title>Gnome Symbolic Icon Theme</dc:title>
      </cc:Work>
    </rdf:RDF>
  </metadata>
  <title
     id="title9167">Gnome Symbolic Icon Theme</title>
  <g
     id="g1"
     transform="translate(2.7851561,2.9726561)">
    <path
       style="color:#31363b;opacity:0.5;fill:#cecfce;fill-opacity:1;stroke:none;stroke-width:1.00947"
       d="m 8.1343767,0.02734375 c -3.0995932,0 -5.8969646,1.22869355 -7.91953295,3.22034715 L 0.93407881,3.9559326 C 2.7727773,2.1453284 5.3165648,1.0290557 8.1343767,1.0290557 c 2.8178113,0 5.3615893,1.1162727 7.2002983,2.9268769 L 16.053909,3.2476909 C 14.031341,1.2560373 11.233969,0.02734375 8.1343767,0.02734375 Z m 0,3.97945695 c -1.9724683,0 -3.753517,0.7810066 -5.040606,2.0484226 l 0.721222,0.7101979 c 1.1032192,-1.0863564 2.6286968,-1.7569087 4.319384,-1.7569087 1.690687,0 3.2161643,0.6705523 4.3193843,1.7569087 L 13.174984,6.0552233 C 11.887892,4.7878073 10.106846,4.0068007 8.1343767,4.0068007 Z m 0,4.0068476 c -0.9003525,0 -1.7572995,0.1701597 -2.5491123,0.4675959 L 6.3839733,9.2677445 C 6.9385119,9.10537 7.5248459,9.0153601 8.1343767,9.0153601 c 0.6174651,0 1.211388,0.091783 1.7722586,0.2582538 L 10.703357,8.4890701 C 9.9060654,8.1868628 9.042281,8.0136483 8.1343767,8.0136483 Z m 0,4.0068477 c -1.1271207,0 -2.0345214,0.893531 -2.0345214,2.003423 0,1.109894 0.9074007,2.003425 2.0345214,2.003425 1.1271206,0 2.0345213,-0.893531 2.0345213,-2.003425 0,-1.109892 -0.9074007,-2.003423 -2.0345213,-2.003423 z m 0,1.001712 c 0.5635624,0 1.0172605,0.446763 1.0172605,1.001711 0,0.554949 -0.4536981,1.001713 -1.0172605,1.001713 -0.5635624,0 -1.0172607,-0.446764 -1.0172607,-1.001713 0,-0.554948 0.4536983,-1.001711 1.0172607,-1.001711 z"
       id="path4477" />
    <path
       inkscape:connector-curvature="0"
       style="color:#31363b;opacity:0.5;fill:#cecfce;fill-opacity:1;fill-rule:evenodd;stroke:none;stroke-width:1.00947px;stroke-linecap:butt;stroke-linejoin:miter;stroke-opacity:1"
       d="m 13.671691,7.0119364 a 2.5431516,2.5042798 0 0 0 -2.485532,1.9916849 h 1.053023 a 1.5258909,1.5025678 0 0 1 1.432509,-0.989973 1.5258909,1.5025678 0 0 1 1.525892,1.5025678 1.5258909,1.5025678 0 0 1 -1.525892,1.5025679 1.5258909,1.5025678 0 0 1 -0.50863,-0.08804 v 0.890192 0.144778 2.058205 h 1.01726 V 11.96963 A 2.5431516,2.5042798 0 0 0 16.214844,9.5162181 2.5431516,2.5042798 0 0 0 13.671691,7.0119384 Z m -0.50863,8.0136956 v 1.001712 h 1.01726 v -1.001712 z"
       id="path4486" />
  </g>
</svg>
