<?xml version="1.0" encoding="UTF-8" standalone="no"?>
<svg
   width="22"
   height="22"
   version="1.1"
   id="svg1"
   sodipodi:docname="network-vpn.svg"
   inkscape:version="1.4 (unknown)"
   xmlns:inkscape="http://www.inkscape.org/namespaces/inkscape"
   xmlns:sodipodi="http://sodipodi.sourceforge.net/DTD/sodipodi-0.dtd"
   xmlns="http://www.w3.org/2000/svg"
   xmlns:svg="http://www.w3.org/2000/svg">
  <defs
     id="defs1" />
  <sodipodi:namedview
     id="namedview1"
     pagecolor="#ffffff"
     bordercolor="#000000"
     borderopacity="0.25"
     inkscape:showpageshadow="2"
     inkscape:pageopacity="0.0"
     inkscape:pagecheckerboard="0"
     inkscape:deskcolor="#d1d1d1"
     inkscape:zoom="14.545455"
     inkscape:cx="12.615625"
     inkscape:cy="32.621874"
     inkscape:window-width="1920"
     inkscape:window-height="998"
     inkscape:window-x="0"
     inkscape:window-y="0"
     inkscape:window-maximized="1"
     inkscape:current-layer="svg1" />
  <style
     type="text/css"
     id="current-color-scheme">.ColorScheme-Text { color:#31363b; }
.ColorScheme-Background { color:#eff0f1; }
.ColorScheme-Highlight { color:#3498db; }
.ColorScheme-ViewText { color:#31363b; }
.ColorScheme-ViewBackground { color:#fcfcfc; }
.ColorScheme-ViewHover { color:#93cee9; }
.ColorScheme-ViewFocus { color:#3daee9; }
.ColorScheme-ButtonText { color:#31363b; }
.ColorScheme-ButtonBackground { color:#eff0f1; }
.ColorScheme-ButtonHover { color:#93cee9; }
.ColorScheme-ButtonFocus { color:#3daee9; }
.ColorScheme-NegativeText { color: #e74c3c; }
</style>
  <g
     id="network-vpn"
     transform="translate(-22,-128)">
    <rect
       style="opacity:1;fill:none;fill-opacity:1;stroke:none"
       id="rect6813"
       width="22.000004"
       height="22.000004"
       x="22.000002"
       y="127.99998" />
    <path
       class="ColorScheme-Text"
       style="stroke:none;fill-opacity:0.5;fill:currentColor;"
       d="m 33.000002,130.99999 c 0,0 -2,2.65752 -8,3.32422 0,0 0,9.33388 8,12.67578 8,-3.3419 8,-12.67578 8,-12.67578 -6,-0.6667 -8,-3.32422 -8,-3.32422 z m 0,1.37695 c 1.587,1.3447 3.87716,2.24176 6.8457,2.69336 -0.16126,1.4452 -0.31587,2.53279 -0.68945,3.58399 -0.78509,2.2091 -1.70047,3.55303 -2.52148,4.51953 -1.27223,1.4977 -2.42758,2.10383 -3.63477,2.70703 -1.20719,-0.6032 -2.36254,-1.20933 -3.63477,-2.70703 -0.821,-0.9665 -1.73639,-2.31043 -2.52148,-4.51953 -0.37358,-1.0512 -0.52819,-2.13879 -0.68945,-3.58399 2.96854,-0.5516 5.2587,-1.34866 6.8457,-2.69336 z m 0,1.19922 c -1.74349,1.2103 -3.70215,1.82324 -5.66797,2.24024 0.93085,5.282 2.93609,7.54067 5.66797,8.95507 2.73189,-1.4144 4.73712,-3.67307 5.66797,-8.95507 -1.96582,-0.417 -3.92448,-1.02994 -5.66797,-2.24024 z"
       id="path4943-9-4-1-2" />
  </g>
  <path
     inkscape:connector-curvature="0"
     style="stroke-width:0.225479;stroke:none;fill-opacity:1;fill:currentColor;opacity:0.5;word-spacing:0px;letter-spacing:0px;-inkscape-font-specification:'DejaVu Sans';font-family:'DejaVu Sans';line-height:1.25;font-size:medium;font-stretch:normal;font-weight:normal;font-variant:normal;font-style:normal;"
     d="m 18.957033,12.0875 c -0.344626,0 -0.679355,0.04294 -1.003906,0.128906 -0.321204,0.08597 -0.638612,0.215626 -0.953125,0.390625 v 0.867188 c 0.32455,-0.205702 0.635811,-0.363247 0.933594,-0.470703 0.301129,-0.107456 0.583331,-0.160157 0.847656,-0.160157 0.361355,0 0.651658,0.0831 0.869141,0.251953 0.220828,0.168859 0.330078,0.390817 0.330078,0.664063 0,0.150439 -0.04192,0.297108 -0.128907,0.441406 -0.08365,0.144299 -0.221394,0.298219 -0.412109,0.460938 -0.546542,0.343827 -0.916687,0.558895 -1.244141,1.105469 -0.09369,0.19956 -0.140624,0.453584 -0.140624,0.763671 V 17.0875 h 0.958984 v -0.414062 c 0,-0.159649 0.0056,-0.284844 0.01563,-0.376954 0.01004,-0.0921 0.02485,-0.169905 0.04492,-0.234375 0.02677,-0.07675 0.0712,-0.154555 0.134765,-0.234375 0.06692,-0.08289 0.178682,-0.197499 0.335938,-0.341796 0.451203,-0.399228 0.877188,-0.652142 1.273437,-1.105469 0.160375,-0.183478 0.181638,-0.434636 0.181638,-0.667969 0,-0.488158 -0.187761,-0.879927 -0.5625,-1.177734 C 20.066109,12.236959 19.572675,12.0875 18.957033,12.0875 Z m -0.957031,6 v 1 h 1 v -1 z"
     id="path887"
     class="ColorScheme-Text" />
</svg>
