<?xml version="1.0" encoding="UTF-8" standalone="no"?>
<!-- Created with Inkscape (http://www.inkscape.org/) -->

<svg
   id="svg7384"
   height="22"
   width="22"
   version="1.1"
   sodipodi:docname="network-cellular-4g-symbolic.svg"
   inkscape:version="1.4 (unknown)"
   xmlns:inkscape="http://www.inkscape.org/namespaces/inkscape"
   xmlns:sodipodi="http://sodipodi.sourceforge.net/DTD/sodipodi-0.dtd"
   xmlns="http://www.w3.org/2000/svg"
   xmlns:svg="http://www.w3.org/2000/svg"
   xmlns:rdf="http://www.w3.org/1999/02/22-rdf-syntax-ns#"
   xmlns:cc="http://creativecommons.org/ns#"
   xmlns:dc="http://purl.org/dc/elements/1.1/">
  <defs
     id="defs1" />
  <sodipodi:namedview
     id="namedview1"
     pagecolor="#ffffff"
     bordercolor="#000000"
     borderopacity="0.25"
     inkscape:showpageshadow="2"
     inkscape:pageopacity="0.0"
     inkscape:pagecheckerboard="0"
     inkscape:deskcolor="#d1d1d1"
     inkscape:zoom="24.15625"
     inkscape:cx="8.5278137"
     inkscape:cy="10.783959"
     inkscape:window-width="1920"
     inkscape:window-height="996"
     inkscape:window-x="0"
     inkscape:window-y="0"
     inkscape:window-maximized="1"
     inkscape:current-layer="svg7384" />
  <metadata
     id="metadata90">
    <rdf:RDF>
      <cc:Work
         rdf:about="">
        <dc:format>image/svg+xml</dc:format>
        <dc:type
           rdf:resource="http://purl.org/dc/dcmitype/StillImage" />
        <dc:title>Gnome Symbolic Icon Theme</dc:title>
      </cc:Work>
    </rdf:RDF>
  </metadata>
  <title
     id="title9167">Gnome Symbolic Icon Theme</title>
  <g
     id="layer9"
     transform="translate(-97.9975,-234)">
    <path
       id="path1245"
       style="color:#cecfce;fill:#cecfce"
       d="m 103.06,237 c -1.1507,0 -2.0625,0.91177 -2.0625,2.0625 v 11.875 c 0,1.1507 0.91177,2.0625 2.0625,2.0625 h 11.875 c 1.1507,0 2.0625,-0.91177 2.0625,-2.0625 v -11.875 c 0,-1.1507 -0.91177,-2.0625 -2.0625,-2.0625 z m -0.0625,3 h 2 v 4 h 1 v -1 h 2 v 7 h -2 v -4 h -1 c -1,0 -2,-0.84167 -2,-2 z m 8.0625,0.0312 h 1.8438 0.0625 c 0.003,-1e-4 -0.003,0.0315 0,0.0312 0.52731,-0.0204 1.0725,0.076 1.5,0.46875 0.41475,0.38112 0.59343,1.0075 0.5625,1.5938 h 0.0312 v 0.125 0.75 h -2 v -0.875 -0.0625 -0.0312 c -0.0176,-0.002 0.003,-0.002 -0.0312,0 h -0.0312 -0.0312 -1.9062 c -0.0276,0 -0.0221,0.002 -0.0312,0 -0.006,0.004 -0.0292,-0.003 -0.0312,0 -0.007,0.0224 0.007,0.0466 0,0.0625 v 0.0312 5.8125 c -0.0237,-0.0217 0,0.0625 0,0.0625 h 1.9688 c 0.007,-0.0193 0.0294,-0.016 0.0312,0 8.8e-4,0.008 0,-0.0555 0,-0.0312 v -1.9375 h -1 v -2 h 2 1 v 1 2.9375 c 0,0.56264 -0.22708,0.99952 -0.5625,1.375 -0.31592,0.35364 -0.85192,0.632 -1.4688,0.625 v 0.0312 h -0.0937 -1.875 c -0.6248,0 -0.99413,-0.24123 -1.3438,-0.5625 -0.33105,-0.30421 -0.64392,-0.78987 -0.625,-1.4375 6e-5,-0.002 -0.0314,0.002 -0.0312,0 v -0.0937 -5.8125 -0.0937 -0.0625 c 0.0625,-0.43728 0.20536,-0.88912 0.5625,-1.2812 0.35715,-0.39213 0.94608,-0.625 1.5,-0.625 z" />
  </g>
</svg>
