<?xml version="1.0" encoding="UTF-8" standalone="no"?>
<svg
   id="svg2"
   width="22"
   height="22"
   version="1.1"
   sodipodi:docname="numlock-disabled-symbolic.svg"
   inkscape:version="1.4 (unknown)"
   xmlns:inkscape="http://www.inkscape.org/namespaces/inkscape"
   xmlns:sodipodi="http://sodipodi.sourceforge.net/DTD/sodipodi-0.dtd"
   xmlns="http://www.w3.org/2000/svg"
   xmlns:svg="http://www.w3.org/2000/svg"
   xmlns:rdf="http://www.w3.org/1999/02/22-rdf-syntax-ns#"
   xmlns:cc="http://creativecommons.org/ns#"
   xmlns:dc="http://purl.org/dc/elements/1.1/">
  <metadata
     id="metadata8">
    <rdf:RDF>
      <cc:Work
         rdf:about="">
        <dc:format>image/svg+xml</dc:format>
        <dc:type
           rdf:resource="http://purl.org/dc/dcmitype/StillImage" />
      </cc:Work>
    </rdf:RDF>
  </metadata>
  <sodipodi:namedview
     pagecolor="#ffffff"
     bordercolor="#666666"
     borderopacity="1"
     objecttolerance="10"
     gridtolerance="10"
     guidetolerance="10"
     inkscape:pageopacity="0"
     inkscape:pageshadow="2"
     inkscape:window-width="1920"
     inkscape:window-height="998"
     id="namedview6"
     showgrid="false"
     inkscape:zoom="10.727273"
     inkscape:cx="11.04661"
     inkscape:cy="11.04661"
     inkscape:window-x="0"
     inkscape:window-y="0"
     inkscape:window-maximized="1"
     inkscape:current-layer="svg2"
     inkscape:showpageshadow="2"
     inkscape:pagecheckerboard="0"
     inkscape:deskcolor="#d1d1d1" />
  <defs
     id="defs12">
    <style
       id="current-color-scheme"
       type="text/css">
   .ColorScheme-Text { color:#cecfce; } .ColorScheme-Highlight { color:#3daee9; }
  </style>
  </defs>
  <path
     id="path4489"
     style="opacity:0.5;fill:#cecfce;fill-opacity:1;stroke-width:0.999975"
     d="M 6.0000002,3 A 2.0001,2.0002 0 0 0 4.011719,4.7792969 l -1,9.0000001 A 2.0001,2.0002 0 0 0 5.0000002,16 H 17 a 2.0001,2.0002 0 0 0 1.988281,-2.220703 l -1,-9.0000001 A 2.0001,2.0002 0 0 0 16,3 Z m 0,1 H 16 c 0.517854,-9.3e-6 0.936941,0.3758388 0.994141,0.890625 l 1,8.998047 C 18.06177,14.497603 17.612559,15.000008 17,15 H 5.0000002 c -0.6126259,9.9e-5 -1.0617773,-0.50233 -0.9941406,-1.111328 l 1,-8.998047 C 5.0630659,4.3757777 5.4820844,3.9999131 6.0000002,4 Z M 12,5 8.0000002,6 V 8 L 10,7.5 V 12 H 8.0000002 v 2 H 14 V 12 H 12 V 7 Z M 3.0000002,16.203125 V 16.75 c 0,1.212 1.0381606,2.25 2.25,2.25 H 16.75 C 17.96194,19 19,17.962 19,16.75 V 16.203125 C 18.468027,16.688125 17.774961,17 17,17 H 5.0000002 c -0.7745613,0 -1.4684266,-0.311875 -2,-0.796875 z"
     inkscape:connector-curvature="0" />
</svg>
