<?xml version="1.0" encoding="UTF-8" standalone="no"?>
<svg
   version="1.1"
   viewBox="0 0 22 22"
   id="svg2"
   sodipodi:docname="orientation-portrait-left-symbolic.svg"
   width="22"
   height="22"
   inkscape:version="1.4 (unknown)"
   xmlns:inkscape="http://www.inkscape.org/namespaces/inkscape"
   xmlns:sodipodi="http://sodipodi.sourceforge.net/DTD/sodipodi-0.dtd"
   xmlns="http://www.w3.org/2000/svg"
   xmlns:svg="http://www.w3.org/2000/svg">
  <defs
     id="defs2" />
  <sodipodi:namedview
     id="namedview2"
     pagecolor="#ffffff"
     bordercolor="#000000"
     borderopacity="0.25"
     inkscape:showpageshadow="2"
     inkscape:pageopacity="0.0"
     inkscape:pagecheckerboard="0"
     inkscape:deskcolor="#d1d1d1"
     inkscape:zoom="24.21875"
     inkscape:cx="6.3380645"
     inkscape:cy="11.705806"
     inkscape:window-width="1920"
     inkscape:window-height="998"
     inkscape:window-x="0"
     inkscape:window-y="0"
     inkscape:window-maximized="1"
     inkscape:current-layer="svg2" />
  <g
     id="g2"
     transform="matrix(0,-1.1666667,1.1666667,0,-0.90382737,23.8289)">
    <g
       transform="matrix(1,0,0,-1,-1256.0038,-309.79672)"
       label="status"
       id="g1">
      <path
         transform="translate(1259,-328)"
         d="M 2,2 C 0.892,2 0,2.892 0,4 v 8 c 0,1.108 0.892,2 2,2 h 12 c 1.108,0 2,-0.892 2,-2 V 4 C 16,2.892 15.108,2 14,2 Z m 0,1 h 12 c 0.554,0 1,0.446 1,1 v 8 c 0,0.554 -0.446,1 -1,1 H 2 C 1.446,13 1,12.554 1,12 V 4 C 1,3.446 1.446,3 2,3 Z"
         enable-background="new"
         fill="#808080"
         id="path1"
         style="fill:#dedede;fill-opacity:1" />
    </g>
    <path
       d="M 10.99227,12.40628 7.17387,8.59768 7.8809,7.8887 11,11 14.1777,7.8867 14.87692,8.59959 Z"
       color="#000000"
       color-rendering="auto"
       dominant-baseline="auto"
       fill="#808080"
       image-rendering="auto"
       shape-rendering="auto"
       solid-color="#000000"
       stop-color="#000000"
       style="font-variant-ligatures:normal;font-variant-position:normal;font-variant-caps:normal;font-variant-numeric:normal;font-variant-alternates:normal;font-variant-east-asian:normal;font-feature-settings:normal;font-variation-settings:normal;text-indent:0;text-decoration-line:none;text-decoration-style:solid;text-decoration-color:#000000;text-transform:none;text-orientation:mixed;white-space:normal;shape-padding:0;shape-margin:0;inline-size:0;isolation:auto;mix-blend-mode:normal;fill:#dedede;fill-opacity:1"
       id="path2" />
  </g>
</svg>
