<?xml version="1.0" encoding="UTF-8" standalone="no"?>
<!-- Created with Inkscape (http://www.inkscape.org/) -->

<svg
   id="svg7384"
   height="22"
   width="22"
   version="1.1"
   sodipodi:docname="radio-mixed-symbolic.svg"
   inkscape:version="1.4 (unknown)"
   xmlns:inkscape="http://www.inkscape.org/namespaces/inkscape"
   xmlns:sodipodi="http://sodipodi.sourceforge.net/DTD/sodipodi-0.dtd"
   xmlns="http://www.w3.org/2000/svg"
   xmlns:svg="http://www.w3.org/2000/svg"
   xmlns:rdf="http://www.w3.org/1999/02/22-rdf-syntax-ns#"
   xmlns:cc="http://creativecommons.org/ns#"
   xmlns:dc="http://purl.org/dc/elements/1.1/">
  <defs
     id="defs10" />
  <sodipodi:namedview
     pagecolor="#ffffff"
     bordercolor="#666666"
     borderopacity="1"
     objecttolerance="10"
     gridtolerance="10"
     guidetolerance="10"
     inkscape:pageopacity="0"
     inkscape:pageshadow="2"
     inkscape:window-width="1920"
     inkscape:window-height="998"
     id="namedview8"
     showgrid="false"
     inkscape:zoom="14.75"
     inkscape:cx="-7.8983051"
     inkscape:cy="8.0338983"
     inkscape:window-x="0"
     inkscape:window-y="0"
     inkscape:window-maximized="1"
     inkscape:current-layer="svg7384"
     inkscape:showpageshadow="2"
     inkscape:pagecheckerboard="0"
     inkscape:deskcolor="#d1d1d1" />
  <metadata
     id="metadata90">
    <rdf:RDF>
      <cc:Work
         rdf:about="">
        <dc:format>image/svg+xml</dc:format>
        <dc:type
           rdf:resource="http://purl.org/dc/dcmitype/StillImage" />
        <dc:title>Gnome Symbolic Icon Theme</dc:title>
      </cc:Work>
    </rdf:RDF>
  </metadata>
  <title
     id="title9167">Gnome Symbolic Icon Theme</title>
  <path
     style="color:#cecfce;text-indent:0pt;text-transform:none;fill:#cecfce;fill-opacity:1;stroke-width:1.14283"
     d="m 10.999999,3 c -4.4089133,0 -7.9999991,3.5910858 -7.9999991,8 0,4.408917 3.5910858,8 7.9999991,8 C 15.408917,19 19,15.408917 19,11 19,6.5910858 15.408917,3 10.999999,3 Z m 0,1.1428574 c 3.795659,0 6.892855,3.061485 6.892855,6.8571426 0,3.795659 -3.097313,6.857141 -6.892855,6.857141 -3.7956567,0 -6.8571417,-3.061482 -6.8571417,-6.857141 0,-3.7956576 3.0614849,-6.8571426 6.8571417,-6.8571426 z M 7.4330357,9.7901784 A 2.2283878,1.1427534 0 1 0 7.676339,12.071428 h 6.814731 a 2.2252731,1.1411558 0 1 0 0,-2.2812496 H 7.6763389 a 2.2252731,1.1411558 0 0 0 -0.2433032,0 z"
     id="path9587" />
</svg>
