<?xml version="1.0" encoding="UTF-8" standalone="no"?>
<svg
   width="22"
   height="22"
   version="1.1"
   id="svg2"
   sodipodi:docname="screen-shared-symbolic.svg"
   inkscape:version="1.4 (unknown)"
   xmlns:inkscape="http://www.inkscape.org/namespaces/inkscape"
   xmlns:sodipodi="http://sodipodi.sourceforge.net/DTD/sodipodi-0.dtd"
   xmlns="http://www.w3.org/2000/svg"
   xmlns:svg="http://www.w3.org/2000/svg">
  <defs
     id="defs2" />
  <sodipodi:namedview
     id="namedview2"
     pagecolor="#ffffff"
     bordercolor="#000000"
     borderopacity="0.25"
     inkscape:showpageshadow="2"
     inkscape:pageopacity="0.0"
     inkscape:pagecheckerboard="0"
     inkscape:deskcolor="#d1d1d1"
     inkscape:zoom="24.21875"
     inkscape:cx="6.8748387"
     inkscape:cy="12.572903"
     inkscape:window-width="1920"
     inkscape:window-height="998"
     inkscape:window-x="0"
     inkscape:window-y="0"
     inkscape:window-maximized="1"
     inkscape:current-layer="svg2" />
  <g
     id="g2"
     transform="matrix(1.0625,0,0,1.0666667,2.5,1.933333)">
    <path
       d="M 3,1 C 1.338,1 0,2.338 0,4 v 7 c 0,1.662 1.338,3 3,3 h 10 c 1.662,0 3,-1.338 3,-3 V 4 C 16,2.338 14.662,1 13,1 Z m 0,1 h 10 c 1.108,0 2,0.892 2,2 v 7 c 0,1.108 -0.892,2 -2,2 H 3 C 1.892,13 1,12.108 1,11 V 4 C 1,2.892 1.892,2 3,2 Z"
       fill="#dedede"
       stroke-linecap="round"
       stroke-linejoin="round"
       stroke-width="1.0016"
       id="path1" />
    <rect
       x="4"
       y="15"
       width="8"
       height="1"
       rx="0.5"
       ry="0.5"
       fill="#dedede"
       stroke-linecap="round"
       stroke-linejoin="round"
       stroke-width="1.0016"
       id="rect1" />
    <path
       d="m 8,3 4,4 -4,4 V 8 C 5.125,7.875 4,11 4,11 4,8.656 4.969,6 8,6 Z"
       color="#bebebe"
       fill="#dedede"
       overflow="visible"
       id="path2" />
  </g>
</svg>
