<?xml version="1.0" encoding="UTF-8" standalone="no"?>
<svg
   width="22"
   height="22"
   version="1.1"
   id="svg2"
   sodipodi:docname="system-lock-screen-symbolic.svg"
   inkscape:version="1.4 (unknown)"
   xmlns:inkscape="http://www.inkscape.org/namespaces/inkscape"
   xmlns:sodipodi="http://sodipodi.sourceforge.net/DTD/sodipodi-0.dtd"
   xmlns="http://www.w3.org/2000/svg"
   xmlns:svg="http://www.w3.org/2000/svg">
  <defs
     id="defs2" />
  <sodipodi:namedview
     id="namedview2"
     pagecolor="#ffffff"
     bordercolor="#000000"
     borderopacity="0.25"
     inkscape:showpageshadow="2"
     inkscape:pageopacity="0.0"
     inkscape:pagecheckerboard="0"
     inkscape:deskcolor="#d1d1d1"
     inkscape:zoom="17.125242"
     inkscape:cx="11.357503"
     inkscape:cy="15.50343"
     inkscape:window-width="1920"
     inkscape:window-height="998"
     inkscape:window-x="0"
     inkscape:window-y="0"
     inkscape:window-maximized="1"
     inkscape:current-layer="svg2" />
  <g
     id="g2"
     transform="translate(0.80659315,0.78105315)">
    <path
       d="m 10.193407,2.2189467 c -2.4006667,0 -4.3333339,1.902933 -4.3333339,4.266667 v 2.133333 h 1.0833336 v -2.133333 c 0,-1.7728 1.4495,-3.2 3.2500003,-3.2 1.8005,0 3.25,1.4272 3.25,3.2 v 2.133333 h 1.083336 v -2.133333 c 0,-2.363734 -1.932672,-4.266667 -4.333336,-4.266667 z"
       fill="#dedede"
       id="path1"
       style="stroke-width:1.075" />
    <path
       d="m 5.8600731,8.6189467 c -1.2003328,0 -2.1666664,0.951467 -2.1666664,2.1333333 v 5.333337 c 0,1.18186 0.9663336,2.13333 2.1666664,2.13333 h 8.6666699 c 1.200328,0 2.166664,-0.95147 2.166664,-2.13333 V 10.75228 c 0,-1.1818663 -0.966336,-2.1333333 -2.166664,-2.1333333 z m 0,1.066667 h 8.6666699 c 0.600164,0 1.083328,0.4757333 1.083328,1.0666663 v 5.333337 c 0,0.59093 -0.483164,1.06666 -1.083328,1.06666 H 5.8600731 c -0.6001664,0 -1.0833328,-0.47573 -1.0833328,-1.06666 V 10.75228 c 0,-0.590933 0.4831664,-1.0666663 1.0833328,-1.0666663 z"
       fill="#dedede"
       id="path2"
       style="stroke-width:1.075" />
  </g>
</svg>
