<?xml version="1.0" encoding="UTF-8" standalone="no"?>
<svg
   width="22"
   height="22"
   version="1.1"
   id="svg2"
   sodipodi:docname="task-due-symbolic.svg"
   inkscape:version="1.4 (unknown)"
   xmlns:inkscape="http://www.inkscape.org/namespaces/inkscape"
   xmlns:sodipodi="http://sodipodi.sourceforge.net/DTD/sodipodi-0.dtd"
   xmlns="http://www.w3.org/2000/svg"
   xmlns:svg="http://www.w3.org/2000/svg">
  <defs
     id="defs2" />
  <sodipodi:namedview
     id="namedview2"
     pagecolor="#ffffff"
     bordercolor="#000000"
     borderopacity="0.25"
     inkscape:showpageshadow="2"
     inkscape:pageopacity="0.0"
     inkscape:pagecheckerboard="0"
     inkscape:deskcolor="#d1d1d1"
     inkscape:zoom="17.125242"
     inkscape:cx="10.831964"
     inkscape:cy="16.554511"
     inkscape:window-width="1920"
     inkscape:window-height="998"
     inkscape:window-x="0"
     inkscape:window-y="0"
     inkscape:window-maximized="1"
     inkscape:current-layer="svg2" />
  <g
     id="g2"
     transform="matrix(1.1428829,0,0,1.125,0.7050909,2)">
    <path
       d="M 8,0 A 2.008,2.008 0 0 0 6.008,2 h -1 C 4.351,2 3.83,2.06 3.391,2.225 2.952,2.389 2.601,2.686 2.393,3.063 1.978,3.815 2.023,4.736 2.008,5.994 v 5.012 c 0.015,1.258 -0.03,2.179 0.385,2.932 0.208,0.376 0.56,0.673 0.998,0.838 C 3.83,14.94 4.351,15 5.008,15 H 8.141 C 8.162,14.95 8.172,14.898 8.2,14.85 L 8.682,14 H 5.008 C 4.416,14 4.002,13.937 3.743,13.84 3.483,13.742 3.371,13.637 3.27,13.453 3.068,13.087 3.023,12.259 3.008,11 V 6 C 3.023,4.741 3.068,3.913 3.27,3.547 3.371,3.363 3.483,3.257 3.743,3.16 4.003,3.062 4.416,3 5.008,3 v 0.999 h 6 V 3 c 0.593,0 1.006,0.063 1.266,0.16 0.26,0.098 0.371,0.203 0.472,0.387 0.202,0.366 0.247,1.194 0.262,2.453 v 2.832 c 0.31,0.115 0.582,0.323 0.752,0.62 v 10e-4 l 0.248,0.438 V 5.994 C 13.993,4.736 14.039,3.815 13.623,3.062 A 1.88,1.88 0 0 0 12.625,2.225 C 12.187,2.06 11.665,2 11.008,2 H 10.004 A 2.008,2.008 0 0 0 8.012,0 Z m 0.01,1 c 0.559,0 1,0.442 1,1 A 0.99,0.99 0 0 1 8.01,3 0.982,0.982 0 0 1 7.088,2.39 1.01,1.01 0 0 1 7.011,2 c 0,-0.558 0.441,-1 1,-1 z M 5.008,6 V 7 H 11.02 V 6 Z m 0,2 V 9 H 11.02 V 8 Z m -0.01,2 v 1 h 3 v -1 z"
       color="#000000"
       fill="#dedede"
       font-family="sans-serif"
       font-weight="400"
       overflow="visible"
       style="text-indent:0;text-decoration-line:none;text-decoration-style:solid;text-decoration-color:#000000;text-transform:none;isolation:auto;mix-blend-mode:normal"
       id="path1" />
    <path
       class="warning"
       d="m 12.488,9.729 a 0.443,0.443 0 0 0 -0.36,0.22 L 9.067,15.346 A 0.437,0.437 0 0 0 9.446,16 h 6.125 A 0.437,0.437 0 0 0 15.95,15.346 L 12.891,9.949 A 0.442,0.442 0 0 0 12.489,9.729 Z M 12.008,11 h 1 v 0.168 c 0,0.348 -0.016,0.667 -0.047,0.957 -0.03,0.29 -0.069,0.581 -0.115,0.875 H 12.18 a 12.898,12.898 0 0 1 -0.125,-0.875 9.146,9.146 0 0 1 -0.047,-0.957 z m 0.5,3 a 0.5,0.5 0 1 1 0,1 0.5,0.5 0 0 1 0,-1 z"
       color="#000000"
       fill="#fdc92b"
       fill-rule="evenodd"
       font-family="sans-serif"
       font-weight="400"
       overflow="visible"
       style="text-indent:0;text-decoration-line:none;text-decoration-style:solid;text-decoration-color:#000000;text-transform:none;isolation:auto;mix-blend-mode:normal"
       id="path2" />
  </g>
</svg>
