<?xml version="1.0" encoding="UTF-8" standalone="no"?>
<svg
   width="22"
   height="22"
   version="1.1"
   id="svg2"
   sodipodi:docname="task-past-due-symbolic.svg"
   inkscape:version="1.4 (unknown)"
   xmlns:inkscape="http://www.inkscape.org/namespaces/inkscape"
   xmlns:sodipodi="http://sodipodi.sourceforge.net/DTD/sodipodi-0.dtd"
   xmlns="http://www.w3.org/2000/svg"
   xmlns:svg="http://www.w3.org/2000/svg">
  <defs
     id="defs2" />
  <sodipodi:namedview
     id="namedview2"
     pagecolor="#ffffff"
     bordercolor="#000000"
     borderopacity="0.25"
     inkscape:showpageshadow="2"
     inkscape:pageopacity="0.0"
     inkscape:pagecheckerboard="0"
     inkscape:deskcolor="#d1d1d1"
     inkscape:zoom="24.21875"
     inkscape:cx="7.3290323"
     inkscape:cy="8.8567742"
     inkscape:window-width="1920"
     inkscape:window-height="998"
     inkscape:window-x="0"
     inkscape:window-y="0"
     inkscape:window-maximized="1"
     inkscape:current-layer="svg2" />
  <g
     id="g2"
     transform="translate(-0.6103228,-0.5625)">
    <path
       d="m 10.458323,2.5625 a 2.2948573,2.259 0 0 0 -2.2765719,2.25 h -1.142857 c -0.7508573,0 -1.3462857,0.0675 -1.848,0.253125 -0.5017142,0.1845 -0.9028573,0.518625 -1.1405715,0.94275 -0.4742858,0.846 -0.4228573,1.882125 -0.44,3.297375 v 5.6385 c 0.017141,1.41525 -0.034285,2.451376 0.44,3.2985 0.2377142,0.423 0.64,0.757124 1.1405715,0.94275 0.5017143,0.1845 1.0971427,0.252 1.848,0.252 H 11.338323 A 5.1428573,5.0625 0 0 1 10.76918,18.3125 H 7.0388941 c -0.6765715,0 -1.1485715,-0.07087 -1.4457142,-0.18 C 5.2960368,18.022254 5.1680368,17.904126 5.0526084,17.697126 4.8217511,17.285374 4.7703226,16.353874 4.7531799,14.9375 V 9.3125 C 4.7703226,7.896125 4.8217511,6.964625 5.0526084,6.552875 5.1680368,6.345875 5.2960368,6.226625 5.5931799,6.1175 5.8903226,6.00725 6.3623226,5.9375 7.0388941,5.9375 V 7.061375 H 13.896038 V 5.9375 c 0.677713,0 1.149712,0.070874 1.446858,0.18 0.297142,0.1102505 0.424001,0.228375 0.540568,0.435375 0.229717,0.41175 0.282286,1.34325 0.298286,2.759625 v 2.284875 A 5.1428573,5.0625 0 0 1 17.324608,11.8595 V 9.30575 C 17.307466,7.8905 17.360037,6.854375 16.884607,6.00725 A 2.1485715,2.115 0 0 0 15.744039,5.065625 C 15.243464,4.88 14.646897,4.8125 13.896038,4.8125 h -1.14743 a 2.2948573,2.259 0 0 0 -2.276571,-2.25 z m 0.01143,1.125 c 0.638857,0 1.142859,0.49725 1.142859,1.125 a 1.1314285,1.11375 0 0 1 -1.142859,1.125 1.1222858,1.10475 0 0 1 -1.0537142,-0.68625 1.1542858,1.13625 0 0 1 -0.088,-0.43875 c 0,-0.62775 0.504,-1.125 1.1428572,-1.125 z m -3.4308569,5.625 v 1.125 H 13.90975 v -1.125 z m 0,2.25 v 1.125 H 12.380608 A 5.1428573,5.0625 0 0 1 13.90975,11.855 v -0.2925 z m -0.011431,2.25 v 1.125 h 3.4285709 v -1.125 z"
       color="#000000"
       fill="#dedede"
       font-family="sans-serif"
       font-weight="400"
       overflow="visible"
       style="text-indent:0;text-decoration-line:none;text-decoration-style:solid;text-decoration-color:#000000;text-transform:none;isolation:auto;mix-blend-mode:normal;stroke-width:1.13389"
       id="path1" />
    <path
       class="error"
       d="m 15.610323,12.6875 a 4,3.9375 0 0 0 -4,3.9375 4,3.9375 0 0 0 4,3.9375 4,3.9375 0 0 0 4,-3.9375 4,3.9375 0 0 0 -4,-3.9375 z m -0.571427,1.125 h 1.142854 v 1.314 c 0,0.3915 -0.01827,0.750374 -0.0537,1.076626 -0.03428,0.326248 -0.07884,0.653624 -0.13143,0.984374 H 15.235465 A 14.740573,14.51025 0 0 1 15.092607,16.203126 10.452573,10.28925 0 0 1 15.038896,15.1265 Z m 0.571427,4.5 a 0.57142858,0.5625 0 0 1 0.571427,0.5625 0.57142858,0.5625 0 0 1 -0.571427,0.5625 0.57142858,0.5625 0 0 1 -0.571427,-0.5625 0.57142858,0.5625 0 0 1 0.571427,-0.5625 z"
       color="#000000"
       fill="#f22c42"
       overflow="visible"
       id="path2"
       style="stroke-width:1.13389" />
  </g>
</svg>
