<?xml version="1.0" encoding="UTF-8" standalone="no"?>
<svg
   width="22"
   height="22"
   version="1.1"
   id="svg8"
   sodipodi:docname="thunderbolt-acquiring-symbolic.svg"
   inkscape:version="1.4 (unknown)"
   xmlns:inkscape="http://www.inkscape.org/namespaces/inkscape"
   xmlns:sodipodi="http://sodipodi.sourceforge.net/DTD/sodipodi-0.dtd"
   xmlns="http://www.w3.org/2000/svg"
   xmlns:svg="http://www.w3.org/2000/svg"
   xmlns:rdf="http://www.w3.org/1999/02/22-rdf-syntax-ns#"
   xmlns:cc="http://creativecommons.org/ns#"
   xmlns:dc="http://purl.org/dc/elements/1.1/">
  <metadata
     id="metadata14">
    <rdf:RDF>
      <cc:Work
         rdf:about="">
        <dc:format>image/svg+xml</dc:format>
        <dc:type
           rdf:resource="http://purl.org/dc/dcmitype/StillImage" />
      </cc:Work>
    </rdf:RDF>
  </metadata>
  <defs
     id="defs12" />
  <sodipodi:namedview
     pagecolor="#ffffff"
     bordercolor="#666666"
     borderopacity="1"
     objecttolerance="10"
     gridtolerance="10"
     guidetolerance="10"
     inkscape:pageopacity="0"
     inkscape:pageshadow="2"
     inkscape:window-width="1920"
     inkscape:window-height="998"
     id="namedview10"
     showgrid="false"
     inkscape:zoom="14.75"
     inkscape:cx="8.2372881"
     inkscape:cy="7.7627119"
     inkscape:window-x="0"
     inkscape:window-y="0"
     inkscape:window-maximized="1"
     inkscape:current-layer="svg8"
     inkscape:showpageshadow="2"
     inkscape:pagecheckerboard="0"
     inkscape:deskcolor="#d1d1d1" />
  <g
     id="g1"
     transform="translate(3.248,3.0000002)">
    <path
       inkscape:connector-curvature="0"
       style="fill:#cecfce;fill-opacity:1;stroke-width:1.0012"
       id="path2"
       d="M 6,8.520384 A 1.5,1.5035972 0 0 1 4.5,10.023981 1.5,1.5035972 0 0 1 3,8.520384 1.5,1.5035972 0 0 1 4.5,7.0167868 1.5,1.5035972 0 0 1 6,8.520384 Z m 4,0 A 1.5,1.5035972 0 0 1 8.5,10.023981 1.5,1.5035972 0 0 1 7,8.520384 1.5,1.5035972 0 0 1 8.5,7.0167868 1.5,1.5035972 0 0 1 10,8.520384 Z m 4,0 A 1.5,1.5035972 0 0 1 12.5,10.023981 1.5,1.5035972 0 0 1 11,8.520384 1.5,1.5035972 0 0 1 12.5,7.0167868 1.5,1.5035972 0 0 1 14,8.520384 Z" />
    <path
       inkscape:connector-curvature="0"
       id="path4"
       style="font-weight:400;font-family:sans-serif;font-variant-ligatures:normal;font-variant-position:normal;font-variant-caps:normal;font-variant-numeric:normal;font-variant-alternates:normal;font-feature-settings:normal;text-indent:0;text-decoration:none;text-decoration-line:none;text-decoration-style:solid;text-decoration-color:#000000;text-transform:none;text-orientation:mixed;white-space:normal;shape-padding:0;overflow:visible;opacity:0.5;isolation:auto;mix-blend-mode:normal;fill:#cecfce;fill-opacity:1;stroke-width:1.0012"
       overflow="visible"
       font-weight="400"
       d="m 9,0.99437894 c -1.013,0 -2.008,0.84000966 -2.008,2.01281546 v 3.0071943 h 1 V 3.0071944 C 7.992,2.4508635 8.592,1.996777 9,1.996777 c 0.403,0 1.008,0.4691224 1.008,1.0104174 v 3.0071943 h 1 V 3.0071944 C 11.008,1.840403 10.018,0.99437894 9,0.99437894 Z m 5.504,1.93162116 c 0,0 -0.357,-0.015036 -0.73,0.1684029 -0.374,0.1834389 -0.782,0.6595779 -0.782,1.3351943 v 1.5847914 h 1 V 4.4295973 c 0,-0.3478321 0.094,-0.3728921 0.22,-0.4350408 0.128,-0.062148 0.27,-0.066159 0.27,-0.066159 z M 2.992,4.5719378 v 1.4424509 h 1 V 4.5709354 Z m 0,6.4544422 v 2.465899 c 0,1.509611 1.273,2.556115 2.52,2.505995 A 2.68,2.6864269 0 0 0 7.178,15.315641 C 7.652,14.890625 7.992,14.253099 7.992,13.492279 V 11.02638 h -1 v 2.465899 c 0,0.471127 -0.189,0.815951 -0.48,1.077578 -0.292,0.260624 -0.694,0.412988 -1.04,0.426019 -0.637,0.02606 -1.48,-0.575377 -1.48,-1.503597 V 11.02638 Z m 7.016,0 v 2.004796 c 0,0.637525 0.266,1.171803 0.654,1.507606 0.388,0.335804 0.873,0.48917 1.338,0.48917 0.986,0 1.992,-0.80292 1.992,-1.996776 V 11.02638 h -1 v 2.004796 c 0,0.605448 -0.57,0.994379 -0.992,0.994379 A 1.08,1.0825899 0 0 1 11.316,13.780969 C 11.134,13.62259 11.008,13.40908 11.008,13.031176 V 11.02638 Z M 2,0 V 2.0047963 H 1 v 1.0023981 c 0,1.110657 0.892,2.0047962 2,2.0047962 h 1 c 1.108,0 2,-0.8941392 2,-2.0047962 V 2.0047963 H 5 V 0 H 4 V 2.0047963 H 3 V 0 Z" />
  </g>
</svg>
