<?xml version="1.0" encoding="UTF-8" standalone="no"?>
<svg
   width="62"
   height="62"
   version="1"
   id="svg20"
   sodipodi:docname="application-x-firmware.svg"
   inkscape:version="1.4.1 (unknown)"
   xmlns:inkscape="http://www.inkscape.org/namespaces/inkscape"
   xmlns:sodipodi="http://sodipodi.sourceforge.net/DTD/sodipodi-0.dtd"
   xmlns="http://www.w3.org/2000/svg"
   xmlns:svg="http://www.w3.org/2000/svg">
  <defs
     id="defs20" />
  <sodipodi:namedview
     id="namedview20"
     pagecolor="#ffffff"
     bordercolor="#000000"
     borderopacity="0.25"
     inkscape:showpageshadow="2"
     inkscape:pageopacity="0.0"
     inkscape:pagecheckerboard="0"
     inkscape:deskcolor="#d1d1d1"
     inkscape:zoom="8.0729167"
     inkscape:cx="27.003871"
     inkscape:cy="34.126452"
     inkscape:window-width="1920"
     inkscape:window-height="998"
     inkscape:window-x="0"
     inkscape:window-y="0"
     inkscape:window-maximized="1"
     inkscape:current-layer="svg20" />
  <g
     id="g21"
     transform="matrix(1.515625,0,0,1.5135135,-5.375,-6.0810808)">
    <g
       style="opacity:0.2"
       transform="translate(0,1)"
       id="g5">
      <rect
         width="32"
         height="4"
         x="8"
         y="10"
         id="rect1" />
      <rect
         width="32"
         height="4"
         x="8"
         y="16"
         id="rect2" />
      <rect
         width="32"
         height="4"
         x="8"
         y="22"
         id="rect3" />
      <rect
         width="32"
         height="4"
         x="8"
         y="28"
         id="rect4" />
      <rect
         width="32"
         height="4"
         x="8"
         y="34"
         id="rect5" />
    </g>
    <g
       style="fill:#b7b7b7"
       id="g10">
      <rect
         width="32"
         height="4"
         x="8"
         y="10"
         id="rect6" />
      <rect
         width="32"
         height="4"
         x="8"
         y="16"
         id="rect7" />
      <rect
         width="32"
         height="4"
         x="8"
         y="22"
         id="rect8" />
      <rect
         width="32"
         height="4"
         x="8"
         y="28"
         id="rect9" />
      <rect
         width="32"
         height="4"
         x="8"
         y="34"
         id="rect10" />
    </g>
    <rect
       style="opacity:0.2"
       width="28"
       height="36"
       x="10"
       y="7"
       rx="2"
       ry="2"
       id="rect11" />
    <rect
       style="fill:#4f4f4f"
       width="28"
       height="36"
       x="10"
       y="6"
       rx="2"
       ry="2"
       id="rect12" />
    <path
       style="opacity:0.1;fill:#ffffff"
       d="m 12,6 c -1.108,0 -2,0.892 -2,2 v 1 c 0,-1.108 0.892,-2 2,-2 h 24 c 1.108,0 2,0.892 2,2 V 8 C 38,6.892 37.108,6 36,6 Z"
       id="path12" />
    <g
       style="opacity:0.4;fill:#ffffff"
       id="g20">
      <rect
         width="2"
         height="4"
         x="17"
         y="11"
         id="rect13" />
      <rect
         width="2"
         height="4"
         x="17"
         y="17"
         id="rect14" />
      <rect
         width="2"
         height="8"
         x="17"
         y="23"
         id="rect15" />
      <rect
         width="2"
         height="11"
         x="23"
         y="11"
         id="rect16" />
      <rect
         width="2"
         height="9"
         x="29"
         y="11"
         id="rect17" />
      <rect
         width="2"
         height="11"
         x="23"
         y="24"
         id="rect18" />
      <rect
         width="2"
         height="4"
         x="29"
         y="22"
         id="rect19" />
      <rect
         width="2"
         height="9"
         x="29"
         y="28"
         id="rect20" />
    </g>
  </g>
</svg>
