<?xml version="1.0" encoding="UTF-8" standalone="no"?>
<svg
   width="62"
   height="62"
   version="1"
   id="svg7"
   sodipodi:docname="application-x-deepinclone-dim.svg"
   inkscape:version="1.4.1 (unknown)"
   xmlns:inkscape="http://www.inkscape.org/namespaces/inkscape"
   xmlns:sodipodi="http://sodipodi.sourceforge.net/DTD/sodipodi-0.dtd"
   xmlns:xlink="http://www.w3.org/1999/xlink"
   xmlns="http://www.w3.org/2000/svg"
   xmlns:svg="http://www.w3.org/2000/svg">
  <defs
     id="defs7">
    <linearGradient
       id="linearGradient2"
       inkscape:collect="always">
      <stop
         style="stop-color:#8d98a8;stop-opacity:1;"
         offset="0"
         id="stop9" />
      <stop
         style="stop-color:#eaecef;stop-opacity:1;"
         offset="1"
         id="stop10" />
    </linearGradient>
    <linearGradient
       id="linearGradient7"
       inkscape:collect="always">
      <stop
         style="stop-color:#218fdd;stop-opacity:1;"
         offset="0"
         id="stop7" />
      <stop
         style="stop-color:#1b83d4;stop-opacity:1;"
         offset="1"
         id="stop8" />
    </linearGradient>
    <linearGradient
       id="linearGradient1"
       inkscape:collect="always">
      <stop
         style="stop-color:#135b93;stop-opacity:1;"
         offset="0"
         id="stop5" />
      <stop
         style="stop-color:#98cbf1;stop-opacity:1;"
         offset="1"
         id="stop6" />
    </linearGradient>
    <linearGradient
       id="c-3"
       gradientUnits="userSpaceOnUse"
       x1="24.072048"
       x2="23.959682"
       y1="0.75082099"
       y2="46.056854">
      <stop
         offset="0"
         stop-color="#fff"
         id="stop3" />
      <stop
         offset="1"
         stop-color="#d9d9d9"
         id="stop4" />
    </linearGradient>
    <linearGradient
       id="b-6"
       gradientUnits="userSpaceOnUse"
       x1="29.203026"
       x2="34.121048"
       xlink:href="#a-7"
       y1="24.827356"
       y2="29.224836" />
    <linearGradient
       id="a-7">
      <stop
         offset="0"
         id="stop1" />
      <stop
         offset="1"
         stop-opacity="0"
         id="stop2" />
    </linearGradient>
    <linearGradient
       id="d"
       gradientUnits="userSpaceOnUse"
       x1="15.948756"
       x2="25.031786"
       xlink:href="#a-7"
       y1="23.618279"
       y2="33.69899" />
    <linearGradient
       id="e"
       gradientUnits="userSpaceOnUse"
       x1="21.990562"
       x2="29.320522"
       xlink:href="#a-7"
       y1="33.780373"
       y2="41.931858" />
    <linearGradient
       id="paint154_linear_890_11"
       x1="778"
       y1="812.29199"
       x2="788"
       y2="812.29199"
       gradientUnits="userSpaceOnUse"
       gradientTransform="translate(-751,-696)">
      <stop
         stop-color="#EFF2F6"
         id="stop1050" />
      <stop
         offset="0.600785"
         stop-color="#B7C6CD"
         id="stop1051" />
    </linearGradient>
    <linearGradient
       id="paint155_linear_890_11"
       x1="783"
       y1="813"
       x2="783"
       y2="817"
       gradientUnits="userSpaceOnUse"
       gradientTransform="translate(-751,-696)">
      <stop
         stop-color="#EFF2F6"
         id="stop1052" />
      <stop
         offset="0.734138"
         stop-color="#B7C6CD"
         id="stop1053" />
    </linearGradient>
    <radialGradient
       id="paint156_radial_890_11"
       cx="0"
       cy="0"
       r="1"
       gradientUnits="userSpaceOnUse"
       gradientTransform="matrix(27.999986,27.999976,-27.999986,27.999976,32.302392,33.999998)">
      <stop
         offset="0.60067803"
         stop-color="#B7C6CD"
         id="stop1054"
         style="stop-color:#384850;stop-opacity:1;" />
      <stop
         offset="0.876735"
         stop-color="#EFF2F6"
         id="stop1055" />
    </radialGradient>
    <linearGradient
       id="paint157_linear_890_11"
       x1="796.84485"
       y1="799.43359"
       x2="768.90088"
       y2="770.81476"
       gradientUnits="userSpaceOnUse"
       gradientTransform="matrix(1.1666666,0,0,1.1666668,-881.19764,-881.8333)">
      <stop
         offset="0.00000057"
         stop-color="#2E2E41"
         id="stop1056"
         style="stop-color:#424b58;stop-opacity:1;" />
      <stop
         offset="0.71113902"
         stop-color="#566C80"
         id="stop1057"
         style="stop-color:#303c47;stop-opacity:1;" />
    </linearGradient>
    <linearGradient
       id="paint158_linear_890_11"
       x1="792"
       y1="794"
       x2="774"
       y2="776"
       gradientUnits="userSpaceOnUse"
       gradientTransform="translate(-751,-696)">
      <stop
         offset="0.304478"
         stop-color="#2E2E41"
         id="stop1058" />
      <stop
         offset="1"
         stop-color="#566C80"
         id="stop1059" />
    </linearGradient>
    <linearGradient
       id="paint159_linear_890_11"
       x1="788"
       y1="790"
       x2="778"
       y2="780"
       gradientUnits="userSpaceOnUse"
       gradientTransform="translate(-751,-696)">
      <stop
         offset="0.391394"
         stop-color="#5200FF"
         id="stop1060" />
      <stop
         offset="1"
         stop-color="#0085FF"
         id="stop1061" />
    </linearGradient>
    <linearGradient
       id="paint160_linear_890_11"
       x1="784"
       y1="798"
       x2="782"
       y2="796"
       gradientUnits="userSpaceOnUse"
       gradientTransform="translate(-751,-696)">
      <stop
         stop-color="#FF7E07"
         id="stop1062" />
      <stop
         offset="1"
         stop-color="#FFE607"
         id="stop1063" />
    </linearGradient>
    <linearGradient
       id="c-3-6"
       gradientUnits="userSpaceOnUse"
       x1="24.072048"
       x2="23.959682"
       y1="0.75082099"
       y2="46.056854"
       gradientTransform="matrix(0.91471346,0,0,0.90068147,9.0468769,9.3836444)">
      <stop
         offset="0"
         stop-color="#fff"
         id="stop3-2" />
      <stop
         offset="1"
         stop-color="#d9d9d9"
         id="stop4-9" />
    </linearGradient>
    <linearGradient
       id="b-6-1"
       gradientUnits="userSpaceOnUse"
       x1="29.203026"
       x2="34.121048"
       xlink:href="#a-7"
       y1="24.827356"
       y2="29.224836"
       gradientTransform="matrix(1.1104534,0,0,1.0934187,4.3491158,4.7861435)" />
    <linearGradient
       id="d-0"
       gradientUnits="userSpaceOnUse"
       x1="15.948756"
       x2="25.031786"
       xlink:href="#a-7"
       y1="23.618279"
       y2="33.69899"
       gradientTransform="matrix(1.1104534,0,0,1.0934187,4.3491158,4.7861435)" />
    <linearGradient
       id="e-9"
       gradientUnits="userSpaceOnUse"
       x1="21.990562"
       x2="29.320522"
       xlink:href="#a-7"
       y1="33.780373"
       y2="41.931858"
       gradientTransform="matrix(1.1104534,0,0,1.0934187,4.3491158,4.7861435)" />
    <linearGradient
       id="paint539_linear_890_11"
       x1="1007"
       y1="317"
       x2="951.659"
       y2="269.565"
       gradientUnits="userSpaceOnUse">
      <stop
         offset="0.223912"
         stop-color="#5200FF"
         id="stop1821"
         style="stop-color:#1b83d4;stop-opacity:1;" />
      <stop
         offset="0.90299499"
         stop-color="#0085FF"
         id="stop1822"
         style="stop-color:#5cacea;stop-opacity:1;" />
    </linearGradient>
    <linearGradient
       id="paint540_linear_890_11"
       x1="974.5"
       y1="274"
       x2="974.5"
       y2="280"
       gradientUnits="userSpaceOnUse"
       gradientTransform="translate(-952,-258)">
      <stop
         offset="0.189495"
         stop-color="#EFF2F6"
         id="stop1823" />
      <stop
         offset="0.850463"
         stop-color="#B7C6CD"
         id="stop1824" />
    </linearGradient>
    <linearGradient
       id="paint541_linear_890_11"
       x1="983"
       y1="282"
       x2="983"
       y2="288"
       gradientUnits="userSpaceOnUse"
       gradientTransform="translate(-952,-258)">
      <stop
         offset="0.189495"
         stop-color="#EFF2F6"
         id="stop1825" />
      <stop
         offset="0.850463"
         stop-color="#B7C6CD"
         id="stop1826" />
    </linearGradient>
    <linearGradient
       id="paint542_linear_890_11"
       x1="983"
       y1="290"
       x2="983"
       y2="296"
       gradientUnits="userSpaceOnUse"
       gradientTransform="translate(-952,-258)">
      <stop
         offset="0.189495"
         stop-color="#EFF2F6"
         id="stop1827" />
      <stop
         offset="0.850463"
         stop-color="#B7C6CD"
         id="stop1828" />
    </linearGradient>
    <linearGradient
       id="paint543_linear_890_11"
       x1="978.5"
       y1="298"
       x2="978.5"
       y2="304"
       gradientUnits="userSpaceOnUse"
       gradientTransform="translate(-952,-258)">
      <stop
         offset="0.189495"
         stop-color="#EFF2F6"
         id="stop1829" />
      <stop
         offset="0.850463"
         stop-color="#B7C6CD"
         id="stop1830" />
    </linearGradient>
    <linearGradient
       id="paint544_linear_890_11"
       x1="993"
       y1="261"
       x2="1007"
       y2="275"
       gradientUnits="userSpaceOnUse">
      <stop
         stop-color="#EFF2F6"
         id="stop1831" />
      <stop
         offset="1"
         stop-color="#B7C6CD"
         id="stop1832" />
    </linearGradient>
    <linearGradient
       id="paint545_linear_890_11"
       x1="1000.58"
       y1="267.41699"
       x2="994.75"
       y2="273.25"
       gradientUnits="userSpaceOnUse">
      <stop
         stop-color="#5200FF"
         id="stop1833"
         offset="0"
         style="stop-color:#1b83d4;stop-opacity:1;" />
      <stop
         offset="1"
         stop-color="#0085FF"
         id="stop1834"
         style="stop-color:#8bc8ff;stop-opacity:1;" />
    </linearGradient>
    <linearGradient
       inkscape:collect="always"
       xlink:href="#linearGradient1"
       id="linearGradient6"
       x1="1000"
       y1="268"
       x2="994.65778"
       y2="273.1409"
       gradientUnits="userSpaceOnUse"
       gradientTransform="translate(-952,-258)" />
    <linearGradient
       inkscape:collect="always"
       xlink:href="#linearGradient7"
       id="linearGradient8"
       x1="964.64185"
       y1="271.35422"
       x2="1007"
       y2="317"
       gradientUnits="userSpaceOnUse"
       gradientTransform="translate(-952,-258)" />
    <linearGradient
       inkscape:collect="always"
       xlink:href="#linearGradient2"
       id="linearGradient10"
       x1="996.36108"
       y1="271.24106"
       x2="1005.1265"
       y2="263.85464"
       gradientUnits="userSpaceOnUse"
       gradientTransform="translate(-952,-258)" />
  </defs>
  <sodipodi:namedview
     id="namedview7"
     pagecolor="#ffffff"
     bordercolor="#000000"
     borderopacity="0.25"
     inkscape:showpageshadow="2"
     inkscape:pageopacity="0.0"
     inkscape:pagecheckerboard="0"
     inkscape:deskcolor="#d1d1d1"
     inkscape:zoom="8.3306018"
     inkscape:cx="35.111509"
     inkscape:cy="42.914067"
     inkscape:window-width="1920"
     inkscape:window-height="998"
     inkscape:window-x="0"
     inkscape:window-y="0"
     inkscape:window-maximized="1"
     inkscape:current-layer="svg7" />
  <path
     d="M 7,9 C 7,5.686 9.686,3 13,3 h 34 c 4.42,0 8,3.582 8,8 v 42 c 0,3.314 -2.69,6 -6,6 H 13 C 9.686,59 7,56.314 7,53 Z"
     id="path526"
     style="fill:url(#linearGradient8)" />
  <path
     d="m 41,3 h 8 c 3.31,0 6,2.686 6,6 v 8 h -6 c -4.418,0 -8,-3.582 -8,-8 z"
     id="path531"
     style="fill:url(#linearGradient10)" />
  <path
     d="M 41,11 V 3 l 14,14 h -8 c -3.314,0 -6,-2.686 -6,-6 z"
     id="path532"
     style="fill:url(#linearGradient6)" />
  <g
     id="g1"
     transform="translate(-6.5926008,-35.820307)">
    <path
       style="opacity:0.2;fill-rule:evenodd;stroke-width:1.18512"
       d="m 31.818777,89.032719 c -1.126846,-0.353496 -1.87806,-0.728866 -3.004907,-1.457745 4.469786,0.324344 10.25423,-0.728885 14.198163,-4.118155 0,0 7.474681,-5.648809 2.253665,-14.905551 0,0 0.751229,3.717269 -0.240392,6.815005 0,0 -1.12683,4.19105 -5.784427,5.39369 -6.948828,1.822194 -14.836694,-2.915508 -18.14208,-5.029262 -0.25167,-2.186632 -0.02996,-4.628361 0.751215,-6.960777 1.126846,-3.279953 3.793698,-6.086124 6.798594,-7.871887 -0.751233,4.99282 -0.15775,9.584755 0.751215,11.479834 1.126847,2.551069 3.004913,5.575918 7.061527,5.976792 3.90636,0.364442 6.047362,-2.915513 6.047362,-2.915513 1.878058,-2.915511 2.253664,-6.997221 2.253664,-7.106558 -0.02998,-0.102063 -0.375606,-0.364441 -0.375606,-0.364441 -1.502458,5.138598 -3.756121,6.851452 -3.756121,6.851452 -3.380514,3.279953 -5.972238,1.093326 -5.972238,1.093326 -2.629292,-2.55107 -0.751231,-7.106559 -0.751231,-7.106559 1.126831,-2.915513 4.094171,-7.36166 7.549807,-9.621179 0.751229,0.134843 1.126834,0.218659 1.878067,0.364438 2.253682,0.728865 3.906361,1.822187 5.446381,3.279935 -2.629296,0.728884 -6.610786,2.551087 -6.610786,2.551087 -6.460532,2.551071 -6.873702,6.450568 -6.873702,6.450568 -0.751231,4.008816 2.629279,2.186626 2.629279,2.186626 3.380524,-1.457761 5.145891,-6.559901 5.145891,-6.559901 -1.126827,-0.193168 -1.87806,0.11663 -1.87806,0.11663 -1.502451,3.279935 -4.206855,4.555469 -4.206855,4.555469 -1.126832,0.728882 -1.502446,-0.364426 -1.502446,-0.364426 -0.187807,-0.728881 0.751212,-0.728881 0.751212,-0.728881 1.502463,-0.728884 2.629296,-2.186629 2.629296,-2.551068 0.221598,-0.728886 0.751232,-0.728886 0.751232,-0.728886 2.253663,-0.728879 4.019045,-0.728879 4.019045,-0.728879 2.629293,-0.302481 6.610783,0.728879 6.610783,0.728879 0.751218,0.338928 1.878064,0.728886 2.629283,0.728886 1.502443,3.279949 1.878059,7.398107 0.244147,11.18827 -3.004898,8.126982 -12.658128,12.354478 -21.259656,9.366071 z"
       id="path5" />
    <path
       style="fill:#ffffff;fill-rule:evenodd;stroke-width:1.18512"
       d="m 31.818777,87.847542 c -1.126846,-0.35351 -1.87806,-0.728878 -3.004907,-1.457758 4.469786,0.32436 10.25423,-0.728883 14.198163,-4.118155 0,0 7.474681,-5.648807 2.253665,-14.905552 0,0 0.751229,3.717269 -0.240392,6.815007 0,0 -1.12683,4.19105 -5.784427,5.393689 -6.948828,1.822207 -14.836694,-2.915509 -18.14208,-5.029248 -0.25167,-2.18663 -0.02996,-4.628376 0.751215,-6.960793 1.126846,-3.279952 3.793698,-6.086123 6.798594,-7.871867 -0.751233,4.992801 -0.15775,9.584737 0.751215,11.479814 1.126847,2.55107 3.004913,5.575924 7.061527,5.976808 3.90636,0.364443 6.047362,-2.915513 6.047362,-2.915513 1.878058,-2.915508 2.253664,-6.997233 2.253664,-7.106557 -0.02998,-0.102063 -0.375606,-0.364438 -0.375606,-0.364438 -1.502458,5.138584 -3.756121,6.851447 -3.756121,6.851447 -3.380514,3.279939 -5.972238,1.093312 -5.972238,1.093312 -2.629292,-2.55107 -0.751231,-7.106559 -0.751231,-7.106559 1.126831,-2.915513 4.094171,-7.36166 7.549807,-9.621179 0.751229,0.134842 1.126834,0.218662 1.878067,0.364441 2.253682,0.728881 3.906361,1.822184 5.446381,3.279951 -2.629296,0.728865 -6.610786,2.55107 -6.610786,2.55107 -6.460532,2.55107 -6.873702,6.450568 -6.873702,6.450568 -0.751231,4.008814 2.629279,2.186628 2.629279,2.186628 3.380524,-1.457751 5.145891,-6.559905 5.145891,-6.559905 -1.126827,-0.193152 -1.87806,0.116622 -1.87806,0.116622 -1.502451,3.279947 -4.206855,4.555482 -4.206855,4.555482 -1.126832,0.728864 -1.502446,-0.364439 -1.502446,-0.364439 -0.187807,-0.728886 0.751212,-0.728886 0.751212,-0.728886 1.502463,-0.728881 2.629296,-2.186625 2.629296,-2.551068 0.221598,-0.728883 0.751232,-0.728883 0.751232,-0.728883 2.253663,-0.728878 4.019045,-0.728878 4.019045,-0.728878 2.629293,-0.302482 6.610783,0.728878 6.610783,0.728878 0.751218,0.338928 1.878064,0.728883 2.629283,0.728883 1.502443,3.279954 1.878059,7.398108 0.244147,11.18827 -3.004898,8.126982 -12.658128,12.354478 -21.259656,9.366075 z"
       id="path6-6" />
  </g>
</svg>
