<?xml version="1.0" encoding="UTF-8" standalone="no"?>
<svg
   width="62"
   height="62"
   version="1"
   id="svg7"
   sodipodi:docname="application-msoutlook.svg"
   inkscape:version="1.4.1 (unknown)"
   xmlns:inkscape="http://www.inkscape.org/namespaces/inkscape"
   xmlns:sodipodi="http://sodipodi.sourceforge.net/DTD/sodipodi-0.dtd"
   xmlns:xlink="http://www.w3.org/1999/xlink"
   xmlns="http://www.w3.org/2000/svg"
   xmlns:svg="http://www.w3.org/2000/svg">
  <defs
     id="defs7">
    <linearGradient
       id="linearGradient2"
       inkscape:collect="always">
      <stop
         style="stop-color:#8d98a8;stop-opacity:1;"
         offset="0"
         id="stop9" />
      <stop
         style="stop-color:#eaecef;stop-opacity:1;"
         offset="1"
         id="stop10" />
    </linearGradient>
    <linearGradient
       id="linearGradient7"
       inkscape:collect="always">
      <stop
         style="stop-color:#218fdd;stop-opacity:1;"
         offset="0"
         id="stop7" />
      <stop
         style="stop-color:#1b83d4;stop-opacity:1;"
         offset="1"
         id="stop8" />
    </linearGradient>
    <linearGradient
       id="linearGradient1"
       inkscape:collect="always">
      <stop
         style="stop-color:#135b93;stop-opacity:1;"
         offset="0"
         id="stop5" />
      <stop
         style="stop-color:#98cbf1;stop-opacity:1;"
         offset="1"
         id="stop6" />
    </linearGradient>
    <linearGradient
       id="c-3"
       gradientUnits="userSpaceOnUse"
       x1="24.072048"
       x2="23.959682"
       y1="0.75082099"
       y2="46.056854">
      <stop
         offset="0"
         stop-color="#fff"
         id="stop3" />
      <stop
         offset="1"
         stop-color="#d9d9d9"
         id="stop4" />
    </linearGradient>
    <linearGradient
       id="b-6"
       gradientUnits="userSpaceOnUse"
       x1="29.203026"
       x2="34.121048"
       xlink:href="#a-7"
       y1="24.827356"
       y2="29.224836" />
    <linearGradient
       id="a-7">
      <stop
         offset="0"
         id="stop1" />
      <stop
         offset="1"
         stop-opacity="0"
         id="stop2" />
    </linearGradient>
    <linearGradient
       id="d"
       gradientUnits="userSpaceOnUse"
       x1="15.948756"
       x2="25.031786"
       xlink:href="#a-7"
       y1="23.618279"
       y2="33.69899" />
    <linearGradient
       id="e"
       gradientUnits="userSpaceOnUse"
       x1="21.990562"
       x2="29.320522"
       xlink:href="#a-7"
       y1="33.780373"
       y2="41.931858" />
    <linearGradient
       id="paint154_linear_890_11"
       x1="778"
       y1="812.29199"
       x2="788"
       y2="812.29199"
       gradientUnits="userSpaceOnUse"
       gradientTransform="translate(-751,-696)">
      <stop
         stop-color="#EFF2F6"
         id="stop1050" />
      <stop
         offset="0.600785"
         stop-color="#B7C6CD"
         id="stop1051" />
    </linearGradient>
    <linearGradient
       id="paint155_linear_890_11"
       x1="783"
       y1="813"
       x2="783"
       y2="817"
       gradientUnits="userSpaceOnUse"
       gradientTransform="translate(-751,-696)">
      <stop
         stop-color="#EFF2F6"
         id="stop1052" />
      <stop
         offset="0.734138"
         stop-color="#B7C6CD"
         id="stop1053" />
    </linearGradient>
    <radialGradient
       id="paint156_radial_890_11"
       cx="0"
       cy="0"
       r="1"
       gradientUnits="userSpaceOnUse"
       gradientTransform="matrix(27.999986,27.999976,-27.999986,27.999976,32.302392,33.999998)">
      <stop
         offset="0.60067803"
         stop-color="#B7C6CD"
         id="stop1054"
         style="stop-color:#384850;stop-opacity:1;" />
      <stop
         offset="0.876735"
         stop-color="#EFF2F6"
         id="stop1055" />
    </radialGradient>
    <linearGradient
       id="paint157_linear_890_11"
       x1="796.84485"
       y1="799.43359"
       x2="768.90088"
       y2="770.81476"
       gradientUnits="userSpaceOnUse"
       gradientTransform="matrix(1.1666666,0,0,1.1666668,-881.19764,-881.8333)">
      <stop
         offset="0.00000057"
         stop-color="#2E2E41"
         id="stop1056"
         style="stop-color:#424b58;stop-opacity:1;" />
      <stop
         offset="0.71113902"
         stop-color="#566C80"
         id="stop1057"
         style="stop-color:#303c47;stop-opacity:1;" />
    </linearGradient>
    <linearGradient
       id="paint158_linear_890_11"
       x1="792"
       y1="794"
       x2="774"
       y2="776"
       gradientUnits="userSpaceOnUse"
       gradientTransform="translate(-751,-696)">
      <stop
         offset="0.304478"
         stop-color="#2E2E41"
         id="stop1058" />
      <stop
         offset="1"
         stop-color="#566C80"
         id="stop1059" />
    </linearGradient>
    <linearGradient
       id="paint159_linear_890_11"
       x1="788"
       y1="790"
       x2="778"
       y2="780"
       gradientUnits="userSpaceOnUse"
       gradientTransform="translate(-751,-696)">
      <stop
         offset="0.391394"
         stop-color="#5200FF"
         id="stop1060" />
      <stop
         offset="1"
         stop-color="#0085FF"
         id="stop1061" />
    </linearGradient>
    <linearGradient
       id="paint160_linear_890_11"
       x1="784"
       y1="798"
       x2="782"
       y2="796"
       gradientUnits="userSpaceOnUse"
       gradientTransform="translate(-751,-696)">
      <stop
         stop-color="#FF7E07"
         id="stop1062" />
      <stop
         offset="1"
         stop-color="#FFE607"
         id="stop1063" />
    </linearGradient>
    <linearGradient
       id="c-3-6"
       gradientUnits="userSpaceOnUse"
       x1="24.072048"
       x2="23.959682"
       y1="0.75082099"
       y2="46.056854"
       gradientTransform="matrix(0.91471346,0,0,0.90068147,9.0468769,9.3836444)">
      <stop
         offset="0"
         stop-color="#fff"
         id="stop3-2" />
      <stop
         offset="1"
         stop-color="#d9d9d9"
         id="stop4-9" />
    </linearGradient>
    <linearGradient
       id="b-6-1"
       gradientUnits="userSpaceOnUse"
       x1="29.203026"
       x2="34.121048"
       xlink:href="#a-7"
       y1="24.827356"
       y2="29.224836"
       gradientTransform="matrix(1.1104534,0,0,1.0934187,4.3491158,4.7861435)" />
    <linearGradient
       id="d-0"
       gradientUnits="userSpaceOnUse"
       x1="15.948756"
       x2="25.031786"
       xlink:href="#a-7"
       y1="23.618279"
       y2="33.69899"
       gradientTransform="matrix(1.1104534,0,0,1.0934187,4.3491158,4.7861435)" />
    <linearGradient
       id="e-9"
       gradientUnits="userSpaceOnUse"
       x1="21.990562"
       x2="29.320522"
       xlink:href="#a-7"
       y1="33.780373"
       y2="41.931858"
       gradientTransform="matrix(1.1104534,0,0,1.0934187,4.3491158,4.7861435)" />
    <linearGradient
       id="paint539_linear_890_11"
       x1="1007"
       y1="317"
       x2="951.659"
       y2="269.565"
       gradientUnits="userSpaceOnUse">
      <stop
         offset="0.223912"
         stop-color="#5200FF"
         id="stop1821"
         style="stop-color:#1b83d4;stop-opacity:1;" />
      <stop
         offset="0.90299499"
         stop-color="#0085FF"
         id="stop1822"
         style="stop-color:#5cacea;stop-opacity:1;" />
    </linearGradient>
    <linearGradient
       id="paint540_linear_890_11"
       x1="974.5"
       y1="274"
       x2="974.5"
       y2="280"
       gradientUnits="userSpaceOnUse"
       gradientTransform="translate(-952,-258)">
      <stop
         offset="0.189495"
         stop-color="#EFF2F6"
         id="stop1823" />
      <stop
         offset="0.850463"
         stop-color="#B7C6CD"
         id="stop1824" />
    </linearGradient>
    <linearGradient
       id="paint541_linear_890_11"
       x1="983"
       y1="282"
       x2="983"
       y2="288"
       gradientUnits="userSpaceOnUse"
       gradientTransform="translate(-952,-258)">
      <stop
         offset="0.189495"
         stop-color="#EFF2F6"
         id="stop1825" />
      <stop
         offset="0.850463"
         stop-color="#B7C6CD"
         id="stop1826" />
    </linearGradient>
    <linearGradient
       id="paint542_linear_890_11"
       x1="983"
       y1="290"
       x2="983"
       y2="296"
       gradientUnits="userSpaceOnUse"
       gradientTransform="translate(-952,-258)">
      <stop
         offset="0.189495"
         stop-color="#EFF2F6"
         id="stop1827" />
      <stop
         offset="0.850463"
         stop-color="#B7C6CD"
         id="stop1828" />
    </linearGradient>
    <linearGradient
       id="paint543_linear_890_11"
       x1="978.5"
       y1="298"
       x2="978.5"
       y2="304"
       gradientUnits="userSpaceOnUse"
       gradientTransform="translate(-952,-258)">
      <stop
         offset="0.189495"
         stop-color="#EFF2F6"
         id="stop1829" />
      <stop
         offset="0.850463"
         stop-color="#B7C6CD"
         id="stop1830" />
    </linearGradient>
    <linearGradient
       id="paint544_linear_890_11"
       x1="993"
       y1="261"
       x2="1007"
       y2="275"
       gradientUnits="userSpaceOnUse">
      <stop
         stop-color="#EFF2F6"
         id="stop1831" />
      <stop
         offset="1"
         stop-color="#B7C6CD"
         id="stop1832" />
    </linearGradient>
    <linearGradient
       id="paint545_linear_890_11"
       x1="1000.58"
       y1="267.41699"
       x2="994.75"
       y2="273.25"
       gradientUnits="userSpaceOnUse">
      <stop
         stop-color="#5200FF"
         id="stop1833"
         offset="0"
         style="stop-color:#1b83d4;stop-opacity:1;" />
      <stop
         offset="1"
         stop-color="#0085FF"
         id="stop1834"
         style="stop-color:#8bc8ff;stop-opacity:1;" />
    </linearGradient>
    <linearGradient
       inkscape:collect="always"
       xlink:href="#linearGradient1"
       id="linearGradient6"
       x1="1000"
       y1="268"
       x2="994.65778"
       y2="273.1409"
       gradientUnits="userSpaceOnUse"
       gradientTransform="translate(-952,-258)" />
    <linearGradient
       inkscape:collect="always"
       xlink:href="#linearGradient7"
       id="linearGradient8"
       x1="964.64185"
       y1="271.35422"
       x2="1007"
       y2="317"
       gradientUnits="userSpaceOnUse"
       gradientTransform="translate(-952,-258)" />
    <linearGradient
       inkscape:collect="always"
       xlink:href="#linearGradient2"
       id="linearGradient10"
       x1="996.36108"
       y1="271.24106"
       x2="1005.1265"
       y2="263.85464"
       gradientUnits="userSpaceOnUse"
       gradientTransform="translate(-952,-258)" />
  </defs>
  <sodipodi:namedview
     id="namedview7"
     pagecolor="#ffffff"
     bordercolor="#000000"
     borderopacity="0.25"
     inkscape:showpageshadow="2"
     inkscape:pageopacity="0.0"
     inkscape:pagecheckerboard="0"
     inkscape:deskcolor="#d1d1d1"
     inkscape:zoom="8.3306018"
     inkscape:cx="35.111509"
     inkscape:cy="52.577234"
     inkscape:window-width="1920"
     inkscape:window-height="998"
     inkscape:window-x="0"
     inkscape:window-y="0"
     inkscape:window-maximized="1"
     inkscape:current-layer="svg7" />
  <path
     d="M 7,9 C 7,5.686 9.686,3 13,3 h 34 c 4.42,0 8,3.582 8,8 v 42 c 0,3.314 -2.69,6 -6,6 H 13 C 9.686,59 7,56.314 7,53 Z"
     id="path526"
     style="fill:url(#linearGradient8)" />
  <path
     d="m 41,3 h 8 c 3.31,0 6,2.686 6,6 v 8 h -6 c -4.418,0 -8,-3.582 -8,-8 z"
     id="path531"
     style="fill:url(#linearGradient10)" />
  <path
     d="M 41,11 V 3 l 14,14 h -8 c -3.314,0 -6,-2.686 -6,-6 z"
     id="path532"
     style="fill:url(#linearGradient6)" />
  <g
     transform="matrix(1.023811,0,0,1.023811,-55.857197,2.5078922)"
     id="g6">
    <path
       transform="translate(52.837,2.8601)"
       d="M 32,17.301 18.637,27.326 c -0.02875,0.0187 -0.0548,0.0418 -0.08203,0.0625 l -0.01563,0.01172 v 0.002 c -0.3259,0.2559 -0.53906,0.64931 -0.53906,1.0977 v 12.199 c 2e-6,2 1.5771,2 2,2 h 24 c 0,0 2,0 2,-2 v -12.199 c 0,-0.45851 -0.22189,-0.86016 -0.56055,-1.1152 l 0.0059,-0.0078 -13.445,-10.076 z m 0,6.3984 a 5,5 0 0 1 5,5 v 1.5 c 0,0.831 -0.669,1.5 -1.5,1.5 -0.61296,0 -1.1359,-0.36612 -1.3691,-0.89062 A 3,3 0 0 1 32,31.6994 a 3,3 0 0 1 -3,-3 3,3 0 0 1 3,-3 3,3 0 0 1 3,3 v 1.5 c 0,0.277 0.223,0.5 0.5,0.5 0.277,0 0.5,-0.223 0.5,-0.5 v -1.5 a 4,4 0 0 0 -4,-4 4,4 0 0 0 -4,4 4,4 0 0 0 4,4 h 3.5 c 0.277,0 0.5,0.223 0.5,0.5 0,0.277 -0.223,0.5 -0.5,0.5 H 32 a 5,5 0 0 1 -5,-5 5,5 0 0 1 5,-5 z m 0,3 a 2,2 0 0 0 -2,2 2,2 0 0 0 2,2 2,2 0 0 0 2,-2 2,2 0 0 0 -2,-2 z"
       enable-background="new"
       opacity="0.75"
       id="path3-9"
       style="fill:#ffffff;fill-opacity:1;opacity:1" />
    <path
       transform="translate(52.837,2.8601)"
       d="m 22.5,20.699 c -0.831,0 -1.5,0.66967 -1.5,1.5 v 15.002 c 0,0.83033 0.669,1.498 1.5,1.498 h 19 c 0.831,0 1.5,-0.66772 1.5,-1.498 V 22.199 c 0,-0.83033 -0.669,-1.5 -1.5,-1.5 z m 9.5,3 a 5,5 0 0 1 5,5 v 1.5 c 0,0.831 -0.669,1.5 -1.5,1.5 -0.61296,0 -1.1359,-0.36612 -1.3691,-0.89062 A 3,3 0 0 1 32,31.699 a 3,3 0 0 1 -3,-3 3,3 0 0 1 3,-3 3,3 0 0 1 3,3 v 1.5 c 0,0.277 0.223,0.5 0.5,0.5 0.277,0 0.5,-0.223 0.5,-0.5 v -1.5 a 4,4 0 0 0 -4,-4 4,4 0 0 0 -4,4 4,4 0 0 0 4,4 h 3.5 c 0.277,0 0.5,0.223 0.5,0.5 0,0.277 -0.223,0.5 -0.5,0.5 H 32 a 5,5 0 0 1 -5,-5 5,5 0 0 1 5,-5 z m 0,3 a 2,2 0 0 0 -2,2 2,2 0 0 0 2,2 2,2 0 0 0 2,-2 2,2 0 0 0 -2,-2 z"
       enable-background="new"
       id="path4-1"
       style="fill:#d7e3f4;fill-opacity:1" />
    <path
       d="m 70.837,31.36 26.6,18.2 -24.6,-2e-4 c -1,0 -2,-0.5 -2,-2 z"
       enable-background="new"
       id="path5-2"
       style="fill:#ced5df;fill-opacity:1" />
    <path
       d="m 96.837,49.56 c 2,-2e-5 2,-2 2,-2 l -1e-5,-16.2 -26.6,18.2 z"
       enable-background="new"
       id="path6"
       style="fill:#ffffff;fill-opacity:1" />
  </g>
</svg>
