<?xml version="1.0" encoding="UTF-8" standalone="no"?>
<svg
   width="62"
   height="62"
   version="1.1"
   id="svg8"
   sodipodi:docname="application-x-hda.svg"
   inkscape:version="1.4.1 (unknown)"
   xmlns:inkscape="http://www.inkscape.org/namespaces/inkscape"
   xmlns:sodipodi="http://sodipodi.sourceforge.net/DTD/sodipodi-0.dtd"
   xmlns="http://www.w3.org/2000/svg"
   xmlns:svg="http://www.w3.org/2000/svg">
  <defs
     id="defs8" />
  <sodipodi:namedview
     id="namedview8"
     pagecolor="#ffffff"
     bordercolor="#000000"
     borderopacity="0.25"
     inkscape:showpageshadow="2"
     inkscape:pageopacity="0.0"
     inkscape:pagecheckerboard="0"
     inkscape:deskcolor="#d1d1d1"
     inkscape:zoom="6.015625"
     inkscape:cx="33.246753"
     inkscape:cy="62.337662"
     inkscape:window-width="1920"
     inkscape:window-height="998"
     inkscape:window-x="0"
     inkscape:window-y="0"
     inkscape:window-maximized="1"
     inkscape:current-layer="svg8" />
  <g
     id="g8"
     transform="translate(-0.4999901)">
    <path
       style="opacity:0.2;stroke-width:0.981233"
       d="M 7.0106832,21.412148 C 7.0044987,21.517268 7.0009975,21.621409 7,21.726533 v 21.392092 c 6.863e-4,2.234118 1.1852114,4.299249 3.107581,5.416307 l 18.284834,10.627274 c 1.922762,1.117059 4.292402,1.117059 6.215163,0 L 52.892411,48.534932 c 1.922761,-1.118039 3.107582,-3.18317 3.107582,-5.41925 V 21.726533 c -0.003,-0.0786 -0.008,-0.157194 -0.01375,-0.236775 0.01375,-0.002 -48.9755908,-0.0776 -48.9755908,-0.0776 z"
       id="path1" />
    <path
       style="fill:#c25824;stroke-width:0.981233"
       d="M 7.0106832,20.429684 C 7.0044987,20.534811 7.0009975,20.638953 7,20.744075 v 21.392094 c 6.863e-4,2.234111 1.1852114,4.299244 3.107581,5.416304 l 18.284834,10.627272 c 1.922762,1.11706 4.292402,1.11706 6.215163,0 L 52.892411,47.552473 C 54.815172,46.43443 55.999993,44.3693 55.999993,42.13322 V 20.744075 c -0.003,-0.0786 -0.008,-0.157193 -0.01375,-0.236772 0.01375,-0.002 -48.9755908,-0.0776 -48.9755908,-0.0776 z"
       id="path2" />
    <path
       style="fill:#f36128;stroke-width:0.981233"
       d="M 31.646018,4 V 4.00279 A 6.2190789,6.3297962 0 0 0 28.389479,4.8454117 L 10.0919,15.598931 a 6.2190789,6.3297962 0 0 0 -3.091899,5.075387 6.2190789,6.3297962 0 0 0 3.091899,5.12746 l 18.297579,10.754016 a 6.2190789,6.3297962 0 0 0 6.221038,0 L 52.908092,25.801778 a 6.2190789,6.3297962 0 0 0 3.091901,-5.07539 6.2190789,6.3297962 0 0 0 -3.091901,-5.127457 L 34.610517,4.8454068 A 6.2190789,6.3297962 0 0 0 31.646018,4 Z"
       id="path3" />
    <path
       style="opacity:0.2;fill:#ffffff;stroke-width:0.981233"
       d="M 31.645037,4 V 4.0038 A 6.2190789,6.3297962 0 0 0 28.391438,4.8443203 L 10.09288,15.597942 a 6.2190789,6.3297962 0 0 0 -3.092879,5.077362 6.2190789,6.3297962 0 0 0 0.053606,0.467651 6.2190789,6.3297962 0 0 1 3.039273,-4.562549 L 28.391438,5.8267871 a 6.2190789,6.3297962 0 0 1 3.253599,-0.8404947 v -0.00381 a 6.2190789,6.3297962 0 0 1 2.963519,0.8443235 L 52.907114,16.580412 a 6.2190789,6.3297962 0 0 1 3.038981,4.606759 6.2190789,6.3297962 0 0 0 0.05387,-0.46274 6.2190789,6.3297962 0 0 0 -3.092876,-5.126483 L 34.608556,4.8443267 A 6.2190789,6.3297962 0 0 0 31.645037,4 Z"
       id="path4" />
    <path
       style="opacity:0.1;stroke-width:0.981233"
       d="m 7.0114672,20.429684 c -0.00399,0.0688 -0.00589,0.13755 -0.00768,0.2073 a 6.2190789,6.3297962 0 0 1 0.021067,-0.2073 z m -0.00958,0.26232 c -1.958e-4,0.0177 -0.0017,0.0344 -0.0019,0.0521 V 42.13521 c 6.863e-4,2.235096 1.1859954,4.300229 3.1085628,5.417288 l 18.282871,10.62629 c 0.9898,0.575723 2.004097,0.855724 3.108559,0.839023 V 37.397759 A 6.2190789,6.3297962 0 0 1 28.389477,36.555794 L 10.090922,25.801778 A 6.2190789,6.3297962 0 0 1 7.0019611,20.692004 Z"
       id="path5" />
    <path
       style="opacity:0.1;stroke-width:0.981233"
       d="m 7.0536067,20.212562 a 6.2190789,6.3297962 0 0 0 -0.053606,0.462742 6.2190789,6.3297962 0 0 0 3.0928793,5.126474 l 18.298558,10.754016 a 6.2190789,6.3297962 0 0 0 6.217118,0 L 52.907114,25.801778 a 6.2190789,6.3297962 0 0 0 3.092879,-5.077353 6.2190789,6.3297962 0 0 0 -0.05387,-0.467652 6.2190789,6.3297962 0 0 1 -3.03898,4.562549 L 34.608559,35.573331 a 6.2190789,6.3297962 0 0 1 -6.217118,0 L 10.09288,24.819322 a 6.2190789,6.3297962 0 0 1 -3.0392733,-4.60676 z"
       id="path6" />
    <path
       style="opacity:0.2;stroke-width:0.981233"
       d="m 42.796453,29.444744 c -3.876877,2.270467 -8.633799,3.584016 -11.052438,3.942615 -1.924717,0.285894 -4.319836,0.315367 -7.153016,-0.0481 -2.28144,-1.340076 -3.699502,-2.169276 -5.0862,-2.99061 2.102101,0.313401 4.66088,0.606176 7.048157,0.816423 3.387858,0.29867 8.467199,-0.907794 12.348001,-3.132084 0.260676,-0.149332 0.51842,-0.304561 0.774199,-0.465684 5.826098,-3.674404 5.336096,-8.897167 0.544881,-11.874021 -5.371382,-3.336435 -12.552818,-3.487735 -18.234857,0.141478 -3.813181,2.435514 -4.88628,6.315251 -0.800662,8.611262 3.210481,1.804781 7.958578,1.947238 11.618879,-0.153261 2.987037,-1.714398 2.2197,-3.610546 1.00646,-4.346409 -1.153459,-0.701474 -3.350622,-1.177966 -5.4341,-0.341892 -1.676778,0.672983 -2.199119,2.720432 1.211282,2.985693 -1.437664,0.952005 -3.677939,1.188782 -5.416462,0.247581 -3.39178,-1.836218 -1.279878,-4.681421 1.245579,-5.81911 4.665782,-2.102465 8.740622,-1.455023 12.18042,0.680847 3.560338,2.21053 3.30358,6.154128 -1.002539,8.763546 -3.408439,2.065132 -8.124198,3.553559 -15.0332,1.782181 -6.908018,-1.770394 -8.660256,-5.663885 -7.291198,-9.817724 1.112302,-3.254894 5.855497,-6.85463 12.611621,-7.901935 6.755137,-1.0483806 12.163755,-0.300631 17.196054,2.850123 7.11382,4.45447 7.168701,11.12243 -1.280861,16.069122 v 0"
       id="path7" />
    <path
       style="fill:#e4e4e4;stroke-width:0.981233"
       d="m 42.796453,28.46228 c -3.876877,2.270469 -8.633799,3.584016 -11.052438,3.942617 -2.41766,0.358599 -5.620297,0.313402 -9.434456,-0.405754 L 17.14986,28.966282 c 2.285356,0.453901 6.015237,0.917623 9.403096,1.216288 3.387858,0.298668 8.467199,-0.907794 12.348001,-3.132084 0.260676,-0.149334 0.51842,-0.304564 0.774199,-0.465685 5.826098,-3.674403 5.336096,-8.89716 0.544881,-11.873033 -5.371382,-3.337418 -12.552818,-3.488716 -18.234857,0.14049 -3.813181,2.435521 -4.88628,6.315258 -0.800662,8.611269 3.210481,1.804778 7.958578,1.948218 11.618879,-0.15327 2.987037,-1.714389 2.2197,-3.609557 1.00646,-4.3464 -1.153459,-0.70148 -3.350622,-1.177975 -5.4341,-0.341901 -1.676778,0.672991 -2.199119,2.720435 1.211282,2.985702 -1.437664,0.952005 -3.677939,1.188776 -5.416462,0.248562 -3.39178,-1.8372 -1.279878,-4.681423 1.245579,-5.820096 4.665782,-2.102469 8.740622,-1.454046 12.18042,0.680843 3.560338,2.21152 3.30358,6.154136 -1.002539,8.764529 -3.408439,2.065133 -8.124198,3.552576 -15.0332,1.782188 -6.908018,-1.771378 -8.660256,-5.664868 -7.291198,-9.818714 1.112302,-3.253905 5.855497,-6.853641 12.611621,-7.9019282 6.755137,-1.0480887 12.163755,-0.2999451 17.196054,2.8510982 7.11382,4.453497 7.168701,11.121457 -1.280861,16.06814 v 0"
       id="path8" />
  </g>
</svg>
