<?xml version="1.0" encoding="UTF-8" standalone="no"?>
<svg
   width="62"
   height="62"
   version="1"
   id="svg7"
   sodipodi:docname="application-pkix-cert.svg"
   inkscape:version="1.4.1 (unknown)"
   xmlns:inkscape="http://www.inkscape.org/namespaces/inkscape"
   xmlns:sodipodi="http://sodipodi.sourceforge.net/DTD/sodipodi-0.dtd"
   xmlns:xlink="http://www.w3.org/1999/xlink"
   xmlns="http://www.w3.org/2000/svg"
   xmlns:svg="http://www.w3.org/2000/svg">
  <defs
     id="defs7">
    <linearGradient
       id="c-3"
       gradientUnits="userSpaceOnUse"
       x1="24.072048"
       x2="23.959682"
       y1="0.75082099"
       y2="46.056854">
      <stop
         offset="0"
         stop-color="#fff"
         id="stop3" />
      <stop
         offset="1"
         stop-color="#d9d9d9"
         id="stop4" />
    </linearGradient>
    <linearGradient
       id="b-6"
       gradientUnits="userSpaceOnUse"
       x1="29.203026"
       x2="34.121048"
       xlink:href="#a-7"
       y1="24.827356"
       y2="29.224836" />
    <linearGradient
       id="a-7">
      <stop
         offset="0"
         id="stop1" />
      <stop
         offset="1"
         stop-opacity="0"
         id="stop2" />
    </linearGradient>
    <linearGradient
       id="d"
       gradientUnits="userSpaceOnUse"
       x1="15.948756"
       x2="25.031786"
       xlink:href="#a-7"
       y1="23.618279"
       y2="33.69899" />
    <linearGradient
       id="e"
       gradientUnits="userSpaceOnUse"
       x1="21.990562"
       x2="29.320522"
       xlink:href="#a-7"
       y1="33.780373"
       y2="41.931858" />
    <linearGradient
       id="paint154_linear_890_11"
       x1="778"
       y1="812.29199"
       x2="788"
       y2="812.29199"
       gradientUnits="userSpaceOnUse"
       gradientTransform="translate(-751,-696)">
      <stop
         stop-color="#EFF2F6"
         id="stop1050" />
      <stop
         offset="0.600785"
         stop-color="#B7C6CD"
         id="stop1051" />
    </linearGradient>
    <linearGradient
       id="paint155_linear_890_11"
       x1="783"
       y1="813"
       x2="783"
       y2="817"
       gradientUnits="userSpaceOnUse"
       gradientTransform="translate(-751,-696)">
      <stop
         stop-color="#EFF2F6"
         id="stop1052" />
      <stop
         offset="0.734138"
         stop-color="#B7C6CD"
         id="stop1053" />
    </linearGradient>
    <radialGradient
       id="paint156_radial_890_11"
       cx="0"
       cy="0"
       r="1"
       gradientUnits="userSpaceOnUse"
       gradientTransform="matrix(27.999986,27.999976,-27.999986,27.999976,32.302392,33.999998)">
      <stop
         offset="0.60067803"
         stop-color="#B7C6CD"
         id="stop1054"
         style="stop-color:#384850;stop-opacity:1;" />
      <stop
         offset="0.876735"
         stop-color="#EFF2F6"
         id="stop1055" />
    </radialGradient>
    <linearGradient
       id="paint157_linear_890_11"
       x1="796.84485"
       y1="799.43359"
       x2="768.90088"
       y2="770.81476"
       gradientUnits="userSpaceOnUse"
       gradientTransform="matrix(1.1666666,0,0,1.1666668,-881.19764,-881.8333)">
      <stop
         offset="0.00000057"
         stop-color="#2E2E41"
         id="stop1056"
         style="stop-color:#424b58;stop-opacity:1;" />
      <stop
         offset="0.71113902"
         stop-color="#566C80"
         id="stop1057"
         style="stop-color:#303c47;stop-opacity:1;" />
    </linearGradient>
    <linearGradient
       id="paint158_linear_890_11"
       x1="792"
       y1="794"
       x2="774"
       y2="776"
       gradientUnits="userSpaceOnUse"
       gradientTransform="translate(-751,-696)">
      <stop
         offset="0.304478"
         stop-color="#2E2E41"
         id="stop1058" />
      <stop
         offset="1"
         stop-color="#566C80"
         id="stop1059" />
    </linearGradient>
    <linearGradient
       id="paint159_linear_890_11"
       x1="788"
       y1="790"
       x2="778"
       y2="780"
       gradientUnits="userSpaceOnUse"
       gradientTransform="translate(-751,-696)">
      <stop
         offset="0.391394"
         stop-color="#5200FF"
         id="stop1060" />
      <stop
         offset="1"
         stop-color="#0085FF"
         id="stop1061" />
    </linearGradient>
    <linearGradient
       id="paint160_linear_890_11"
       x1="784"
       y1="798"
       x2="782"
       y2="796"
       gradientUnits="userSpaceOnUse"
       gradientTransform="translate(-751,-696)">
      <stop
         stop-color="#FF7E07"
         id="stop1062" />
      <stop
         offset="1"
         stop-color="#FFE607"
         id="stop1063" />
    </linearGradient>
    <linearGradient
       id="c-3-6"
       gradientUnits="userSpaceOnUse"
       x1="24.072048"
       x2="23.959682"
       y1="0.75082099"
       y2="46.056854"
       gradientTransform="matrix(0.91471346,0,0,0.90068147,9.0468769,9.3836444)">
      <stop
         offset="0"
         stop-color="#fff"
         id="stop3-2" />
      <stop
         offset="1"
         stop-color="#d9d9d9"
         id="stop4-9" />
    </linearGradient>
    <linearGradient
       id="b-6-1"
       gradientUnits="userSpaceOnUse"
       x1="29.203026"
       x2="34.121048"
       xlink:href="#a-7"
       y1="24.827356"
       y2="29.224836"
       gradientTransform="matrix(1.1104534,0,0,1.0934187,4.3491158,4.7861435)" />
    <linearGradient
       id="d-0"
       gradientUnits="userSpaceOnUse"
       x1="15.948756"
       x2="25.031786"
       xlink:href="#a-7"
       y1="23.618279"
       y2="33.69899"
       gradientTransform="matrix(1.1104534,0,0,1.0934187,4.3491158,4.7861435)" />
    <linearGradient
       id="e-9"
       gradientUnits="userSpaceOnUse"
       x1="21.990562"
       x2="29.320522"
       xlink:href="#a-7"
       y1="33.780373"
       y2="41.931858"
       gradientTransform="matrix(1.1104534,0,0,1.0934187,4.3491158,4.7861435)" />
    <linearGradient
       id="paint539_linear_890_11"
       x1="1007"
       y1="317"
       x2="951.659"
       y2="269.565"
       gradientUnits="userSpaceOnUse">
      <stop
         offset="0.223912"
         stop-color="#5200FF"
         id="stop1821" />
      <stop
         offset="0.902995"
         stop-color="#0085FF"
         id="stop1822" />
    </linearGradient>
    <linearGradient
       id="paint540_linear_890_11"
       x1="974.5"
       y1="274"
       x2="974.5"
       y2="280"
       gradientUnits="userSpaceOnUse">
      <stop
         offset="0.189495"
         stop-color="#EFF2F6"
         id="stop1823" />
      <stop
         offset="0.850463"
         stop-color="#B7C6CD"
         id="stop1824" />
    </linearGradient>
    <linearGradient
       id="paint541_linear_890_11"
       x1="983"
       y1="282"
       x2="983"
       y2="288"
       gradientUnits="userSpaceOnUse">
      <stop
         offset="0.189495"
         stop-color="#EFF2F6"
         id="stop1825" />
      <stop
         offset="0.850463"
         stop-color="#B7C6CD"
         id="stop1826" />
    </linearGradient>
    <linearGradient
       id="paint542_linear_890_11"
       x1="983"
       y1="290"
       x2="983"
       y2="296"
       gradientUnits="userSpaceOnUse">
      <stop
         offset="0.189495"
         stop-color="#EFF2F6"
         id="stop1827" />
      <stop
         offset="0.850463"
         stop-color="#B7C6CD"
         id="stop1828" />
    </linearGradient>
    <linearGradient
       id="paint543_linear_890_11"
       x1="978.5"
       y1="298"
       x2="978.5"
       y2="304"
       gradientUnits="userSpaceOnUse">
      <stop
         offset="0.189495"
         stop-color="#EFF2F6"
         id="stop1829" />
      <stop
         offset="0.850463"
         stop-color="#B7C6CD"
         id="stop1830" />
    </linearGradient>
    <linearGradient
       id="paint544_linear_890_11"
       x1="993"
       y1="261"
       x2="1007"
       y2="275"
       gradientUnits="userSpaceOnUse">
      <stop
         stop-color="#EFF2F6"
         id="stop1831" />
      <stop
         offset="1"
         stop-color="#B7C6CD"
         id="stop1832" />
    </linearGradient>
    <linearGradient
       id="paint545_linear_890_11"
       x1="1000.58"
       y1="267.41699"
       x2="994.75"
       y2="273.25"
       gradientUnits="userSpaceOnUse">
      <stop
         stop-color="#5200FF"
         id="stop1833" />
      <stop
         offset="1"
         stop-color="#0085FF"
         id="stop1834" />
    </linearGradient>
    <linearGradient
       id="paint459_linear_890_11"
       x1="1007"
       y1="417"
       x2="951.659"
       y2="369.565"
       gradientUnits="userSpaceOnUse"
       gradientTransform="translate(-952,-358)">
      <stop
         stop-color="#089953"
         id="stop1660" />
      <stop
         offset="0.147794"
         stop-color="#089953"
         id="stop1661" />
      <stop
         offset="1"
         stop-color="#16D96F"
         id="stop1662" />
    </linearGradient>
    <linearGradient
       id="paint460_linear_890_11"
       x1="993"
       y1="361"
       x2="1007"
       y2="375"
       gradientUnits="userSpaceOnUse"
       gradientTransform="translate(-952,-358)">
      <stop
         stop-color="#EFF2F6"
         id="stop1663" />
      <stop
         offset="1"
         stop-color="#B7C6CD"
         id="stop1664"
         style="stop-color:#a7b9c2;stop-opacity:1;" />
    </linearGradient>
    <linearGradient
       id="paint461_linear_890_11"
       x1="1000"
       y1="367.41699"
       x2="994.16699"
       y2="372.66699"
       gradientUnits="userSpaceOnUse"
       gradientTransform="translate(-952,-358)">
      <stop
         offset="0.125293"
         stop-color="#089953"
         id="stop1665"
         style="stop-color:#056235;stop-opacity:1;" />
      <stop
         offset="1"
         stop-color="#16D96F"
         id="stop1666"
         style="stop-color:#90f4bd;stop-opacity:1;" />
    </linearGradient>
    <linearGradient
       id="paint462_linear_890_11"
       x1="969.5"
       y1="377"
       x2="969.5"
       y2="381"
       gradientUnits="userSpaceOnUse"
       gradientTransform="translate(-952,-358)">
      <stop
         stop-color="white"
         id="stop1667" />
      <stop
         offset="0.705"
         stop-color="#E6E6E6"
         id="stop1668" />
    </linearGradient>
    <linearGradient
       id="paint463_linear_890_11"
       x1="977"
       y1="385"
       x2="977"
       y2="389"
       gradientUnits="userSpaceOnUse">
      <stop
         stop-color="white"
         id="stop1669" />
      <stop
         offset="0.705"
         stop-color="#E6E6E6"
         id="stop1670" />
    </linearGradient>
    <linearGradient
       id="paint466_linear_890_11"
       x1="977"
       y1="393"
       x2="977"
       y2="397"
       gradientUnits="userSpaceOnUse">
      <stop
         stop-color="white"
         id="stop1675" />
      <stop
         offset="0.705"
         stop-color="#E6E6E6"
         id="stop1676" />
    </linearGradient>
    <linearGradient
       id="paint469_linear_890_11"
       x1="977"
       y1="401"
       x2="977"
       y2="405"
       gradientUnits="userSpaceOnUse">
      <stop
         stop-color="white"
         id="stop1681" />
      <stop
         offset="0.705"
         stop-color="#E6E6E6"
         id="stop1682" />
    </linearGradient>
  </defs>
  <sodipodi:namedview
     id="namedview7"
     pagecolor="#ffffff"
     bordercolor="#000000"
     borderopacity="0.25"
     inkscape:showpageshadow="2"
     inkscape:pageopacity="0.0"
     inkscape:pagecheckerboard="0"
     inkscape:deskcolor="#d1d1d1"
     inkscape:zoom="8.3306018"
     inkscape:cx="34.99147"
     inkscape:cy="23.707771"
     inkscape:window-width="1920"
     inkscape:window-height="998"
     inkscape:window-x="0"
     inkscape:window-y="0"
     inkscape:window-maximized="1"
     inkscape:current-layer="svg7" />
  <path
     d="M 7,9 C 7,5.686 9.686,3 13,3 h 34 c 4.42,0 8,3.582 8,8 v 42 c 0,3.314 -2.69,6 -6,6 H 13 C 9.686,59 7,56.314 7,53 Z"
     id="path449"
     style="fill:url(#paint459_linear_890_11)" />
  <path
     d="m 41,3 h 8 c 3.31,0 6,2.686 6,6 v 8 h -6 c -4.418,0 -8,-3.582 -8,-8 z"
     id="path450"
     style="fill:url(#paint460_linear_890_11)" />
  <path
     d="M 41,11 V 3 l 14,14 h -8 c -3.314,0 -6,-2.686 -6,-6 z"
     id="path451"
     style="fill:url(#paint461_linear_890_11)" />
  <path
     style="opacity:0.2;stroke-width:1.10349"
     d="m 30.999998,22.008342 c -1.691029,0.0024 -3.231999,0.970933 -3.967681,2.493547 -0.495161,-0.187735 -1.020046,-0.284821 -1.549589,-0.286646 -2.437674,0 -4.413804,1.976129 -4.413804,4.413822 4.51e-4,0.529258 0.09606,1.054154 0.282325,1.54957 -1.520921,0.736913 -2.487535,2.277628 -2.489226,3.967682 0.0024,1.691029 0.970934,3.231985 2.493546,3.967683 -0.187734,0.495146 -0.28482,1.020049 -0.286645,1.549572 0,2.437696 1.97613,4.413824 4.413804,4.413824 0.372544,-0.002 0.7433,-0.05132 1.103469,-0.146553 v 7.870706 c 3.8e-4,0.982776 1.188445,1.474867 1.88361,0.780176 l 2.530191,-2.530174 2.530177,2.530174 c 0.695166,0.694691 1.883244,0.2026 1.883628,-0.780176 v -7.868567 c 0.360255,0.09459 0.731012,0.143014 1.103451,0.144414 2.437674,0 4.413804,-1.976128 4.413804,-4.413824 -4.36e-4,-0.529275 -0.09607,-1.054155 -0.282327,-1.549572 1.52094,-0.736927 2.487535,-2.277628 2.489246,-3.967683 -0.0024,-1.691029 -0.970933,-3.231982 -2.493548,-3.967682 0.187717,-0.49516 0.284821,-1.020045 0.286629,-1.54957 0,-2.437693 -1.97613,-4.413822 -4.413804,-4.413822 -0.529276,4.51e-4 -1.054156,0.09606 -1.549575,0.282324 -0.736925,-1.52092 -2.277626,-2.487534 -3.967681,-2.489225 z m 0,4.413804 c 4.265934,0 7.724157,3.458236 7.724157,7.724171 0,4.265934 -3.458223,7.724158 -7.724157,7.724158 -4.265934,0 -7.724172,-3.458224 -7.724172,-7.724158 0,-4.265935 3.458238,-7.724171 7.724172,-7.724171 z m 0,1.10345 c -3.656517,0 -6.62072,2.964204 -6.62072,6.620721 0,3.65652 2.964203,6.620706 6.62072,6.620706 3.65652,0 6.620706,-2.964186 6.620706,-6.620706 0,-3.656517 -2.964186,-6.620721 -6.620706,-6.620721 z"
     id="path6" />
  <path
     style="fill:#ffffff;stroke-width:1.10349"
     d="m 30.999998,20.904891 c -1.691029,0.0024 -3.231999,0.970934 -3.967681,2.493546 -0.495161,-0.187734 -1.020046,-0.28482 -1.549589,-0.286645 -2.437674,0 -4.413804,1.97613 -4.413804,4.413804 4.51e-4,0.529276 0.09606,1.054155 0.282325,1.549589 -1.520921,0.736912 -2.487535,2.277627 -2.489226,3.967681 0.0024,1.691029 0.970934,3.231985 2.493546,3.967681 -0.187734,0.495147 -0.28482,1.020033 -0.286645,1.549575 0,2.437674 1.97613,4.413804 4.413804,4.413804 0.372544,-0.002 0.7433,-0.05133 1.103469,-0.146532 v 7.870705 c 3.8e-4,0.982774 1.188445,1.474867 1.88361,0.780175 l 2.530191,-2.530173 2.530177,2.530173 c 0.695166,0.694692 1.883244,0.202599 1.883628,-0.780175 V 42.82953 c 0.360255,0.09459 0.731012,0.143015 1.103451,0.144396 2.437674,0 4.413804,-1.97613 4.413804,-4.413804 -4.36e-4,-0.529276 -0.09607,-1.054156 -0.282327,-1.549575 1.52094,-0.736925 2.487535,-2.277626 2.489246,-3.967681 -0.0024,-1.691029 -0.970933,-3.231999 -2.493548,-3.967681 0.187717,-0.495161 0.284821,-1.020046 0.286629,-1.549589 0,-2.437674 -1.97613,-4.413804 -4.413804,-4.413804 -0.529276,4.51e-4 -1.054156,0.09606 -1.549575,0.282325 -0.736925,-1.520921 -2.277626,-2.487535 -3.967681,-2.489226 z m 0,4.413803 c 4.265934,0 7.724157,3.458238 7.724157,7.724172 0,4.265934 -3.458223,7.724157 -7.724157,7.724157 -4.265934,0 -7.724172,-3.458223 -7.724172,-7.724157 0,-4.265934 3.458238,-7.724172 7.724172,-7.724172 z m 0,1.103452 c -3.656517,0 -6.62072,2.964203 -6.62072,6.62072 0,3.65652 2.964203,6.620706 6.62072,6.620706 3.65652,0 6.620706,-2.964186 6.620706,-6.620706 0,-3.656517 -2.964186,-6.62072 -6.620706,-6.62072 z"
     id="path7" />
</svg>
