<?xml version="1.0" encoding="UTF-8" standalone="no"?>
<svg
   width="62"
   height="62"
   version="1"
   id="svg7"
   sodipodi:docname="application-vnd.excalidraw+json.svg"
   inkscape:version="1.4.1 (unknown)"
   xmlns:inkscape="http://www.inkscape.org/namespaces/inkscape"
   xmlns:sodipodi="http://sodipodi.sourceforge.net/DTD/sodipodi-0.dtd"
   xmlns:xlink="http://www.w3.org/1999/xlink"
   xmlns="http://www.w3.org/2000/svg"
   xmlns:svg="http://www.w3.org/2000/svg">
  <defs
     id="defs7">
    <linearGradient
       id="linearGradient1"
       inkscape:collect="always">
      <stop
         style="stop-color:#e6e6e6;stop-opacity:1"
         offset="0"
         id="stop5" />
      <stop
         style="stop-color:#999999;stop-opacity:1"
         offset="1"
         id="stop6" />
    </linearGradient>
    <linearGradient
       id="c-3"
       gradientUnits="userSpaceOnUse"
       x1="24.072048"
       x2="23.959682"
       y1="0.75082099"
       y2="46.056854">
      <stop
         offset="0"
         stop-color="#fff"
         id="stop3" />
      <stop
         offset="1"
         stop-color="#d9d9d9"
         id="stop4" />
    </linearGradient>
    <linearGradient
       id="b-6"
       gradientUnits="userSpaceOnUse"
       x1="29.203026"
       x2="34.121048"
       xlink:href="#a-7"
       y1="24.827356"
       y2="29.224836" />
    <linearGradient
       id="a-7">
      <stop
         offset="0"
         id="stop1" />
      <stop
         offset="1"
         stop-opacity="0"
         id="stop2" />
    </linearGradient>
    <linearGradient
       id="d"
       gradientUnits="userSpaceOnUse"
       x1="15.948756"
       x2="25.031786"
       xlink:href="#a-7"
       y1="23.618279"
       y2="33.69899" />
    <linearGradient
       id="e"
       gradientUnits="userSpaceOnUse"
       x1="21.990562"
       x2="29.320522"
       xlink:href="#a-7"
       y1="33.780373"
       y2="41.931858" />
    <linearGradient
       id="paint154_linear_890_11"
       x1="778"
       y1="812.29199"
       x2="788"
       y2="812.29199"
       gradientUnits="userSpaceOnUse"
       gradientTransform="translate(-751,-696)">
      <stop
         stop-color="#EFF2F6"
         id="stop1050" />
      <stop
         offset="0.600785"
         stop-color="#B7C6CD"
         id="stop1051" />
    </linearGradient>
    <linearGradient
       id="paint155_linear_890_11"
       x1="783"
       y1="813"
       x2="783"
       y2="817"
       gradientUnits="userSpaceOnUse"
       gradientTransform="translate(-751,-696)">
      <stop
         stop-color="#EFF2F6"
         id="stop1052" />
      <stop
         offset="0.734138"
         stop-color="#B7C6CD"
         id="stop1053" />
    </linearGradient>
    <radialGradient
       id="paint156_radial_890_11"
       cx="0"
       cy="0"
       r="1"
       gradientUnits="userSpaceOnUse"
       gradientTransform="matrix(27.999986,27.999976,-27.999986,27.999976,32.302392,33.999998)">
      <stop
         offset="0.60067803"
         stop-color="#B7C6CD"
         id="stop1054"
         style="stop-color:#384850;stop-opacity:1;" />
      <stop
         offset="0.876735"
         stop-color="#EFF2F6"
         id="stop1055" />
    </radialGradient>
    <linearGradient
       id="paint157_linear_890_11"
       x1="796.84485"
       y1="799.43359"
       x2="768.90088"
       y2="770.81476"
       gradientUnits="userSpaceOnUse"
       gradientTransform="matrix(1.1666666,0,0,1.1666668,-881.19764,-881.8333)">
      <stop
         offset="0.00000057"
         stop-color="#2E2E41"
         id="stop1056"
         style="stop-color:#424b58;stop-opacity:1;" />
      <stop
         offset="0.71113902"
         stop-color="#566C80"
         id="stop1057"
         style="stop-color:#303c47;stop-opacity:1;" />
    </linearGradient>
    <linearGradient
       id="paint158_linear_890_11"
       x1="792"
       y1="794"
       x2="774"
       y2="776"
       gradientUnits="userSpaceOnUse"
       gradientTransform="translate(-751,-696)">
      <stop
         offset="0.304478"
         stop-color="#2E2E41"
         id="stop1058" />
      <stop
         offset="1"
         stop-color="#566C80"
         id="stop1059" />
    </linearGradient>
    <linearGradient
       id="paint159_linear_890_11"
       x1="788"
       y1="790"
       x2="778"
       y2="780"
       gradientUnits="userSpaceOnUse"
       gradientTransform="translate(-751,-696)">
      <stop
         offset="0.391394"
         stop-color="#5200FF"
         id="stop1060" />
      <stop
         offset="1"
         stop-color="#0085FF"
         id="stop1061" />
    </linearGradient>
    <linearGradient
       id="paint160_linear_890_11"
       x1="784"
       y1="798"
       x2="782"
       y2="796"
       gradientUnits="userSpaceOnUse"
       gradientTransform="translate(-751,-696)">
      <stop
         stop-color="#FF7E07"
         id="stop1062" />
      <stop
         offset="1"
         stop-color="#FFE607"
         id="stop1063" />
    </linearGradient>
    <linearGradient
       id="c-3-6"
       gradientUnits="userSpaceOnUse"
       x1="24.072048"
       x2="23.959682"
       y1="0.75082099"
       y2="46.056854"
       gradientTransform="matrix(0.91471346,0,0,0.90068147,9.0468769,9.3836444)">
      <stop
         offset="0"
         stop-color="#fff"
         id="stop3-2" />
      <stop
         offset="1"
         stop-color="#d9d9d9"
         id="stop4-9" />
    </linearGradient>
    <linearGradient
       id="b-6-1"
       gradientUnits="userSpaceOnUse"
       x1="29.203026"
       x2="34.121048"
       xlink:href="#a-7"
       y1="24.827356"
       y2="29.224836"
       gradientTransform="matrix(1.1104534,0,0,1.0934187,4.3491158,4.7861435)" />
    <linearGradient
       id="d-0"
       gradientUnits="userSpaceOnUse"
       x1="15.948756"
       x2="25.031786"
       xlink:href="#a-7"
       y1="23.618279"
       y2="33.69899"
       gradientTransform="matrix(1.1104534,0,0,1.0934187,4.3491158,4.7861435)" />
    <linearGradient
       id="e-9"
       gradientUnits="userSpaceOnUse"
       x1="21.990562"
       x2="29.320522"
       xlink:href="#a-7"
       y1="33.780373"
       y2="41.931858"
       gradientTransform="matrix(1.1104534,0,0,1.0934187,4.3491158,4.7861435)" />
    <linearGradient
       id="paint539_linear_890_11"
       x1="1007"
       y1="317"
       x2="951.659"
       y2="269.565"
       gradientUnits="userSpaceOnUse">
      <stop
         offset="0.223912"
         stop-color="#5200FF"
         id="stop1821" />
      <stop
         offset="0.902995"
         stop-color="#0085FF"
         id="stop1822" />
    </linearGradient>
    <linearGradient
       id="paint540_linear_890_11"
       x1="974.5"
       y1="274"
       x2="974.5"
       y2="280"
       gradientUnits="userSpaceOnUse">
      <stop
         offset="0.189495"
         stop-color="#EFF2F6"
         id="stop1823" />
      <stop
         offset="0.850463"
         stop-color="#B7C6CD"
         id="stop1824" />
    </linearGradient>
    <linearGradient
       id="paint541_linear_890_11"
       x1="983"
       y1="282"
       x2="983"
       y2="288"
       gradientUnits="userSpaceOnUse">
      <stop
         offset="0.189495"
         stop-color="#EFF2F6"
         id="stop1825" />
      <stop
         offset="0.850463"
         stop-color="#B7C6CD"
         id="stop1826" />
    </linearGradient>
    <linearGradient
       id="paint542_linear_890_11"
       x1="983"
       y1="290"
       x2="983"
       y2="296"
       gradientUnits="userSpaceOnUse">
      <stop
         offset="0.189495"
         stop-color="#EFF2F6"
         id="stop1827" />
      <stop
         offset="0.850463"
         stop-color="#B7C6CD"
         id="stop1828" />
    </linearGradient>
    <linearGradient
       id="paint543_linear_890_11"
       x1="978.5"
       y1="298"
       x2="978.5"
       y2="304"
       gradientUnits="userSpaceOnUse">
      <stop
         offset="0.189495"
         stop-color="#EFF2F6"
         id="stop1829" />
      <stop
         offset="0.850463"
         stop-color="#B7C6CD"
         id="stop1830" />
    </linearGradient>
    <linearGradient
       id="paint544_linear_890_11"
       x1="993"
       y1="261"
       x2="1007"
       y2="275"
       gradientUnits="userSpaceOnUse">
      <stop
         stop-color="#EFF2F6"
         id="stop1831" />
      <stop
         offset="1"
         stop-color="#B7C6CD"
         id="stop1832" />
    </linearGradient>
    <linearGradient
       id="paint545_linear_890_11"
       x1="1000.58"
       y1="267.41699"
       x2="994.75"
       y2="273.25"
       gradientUnits="userSpaceOnUse">
      <stop
         stop-color="#5200FF"
         id="stop1833" />
      <stop
         offset="1"
         stop-color="#0085FF"
         id="stop1834" />
    </linearGradient>
    <linearGradient
       id="paint366_linear_890_11"
       x1="1007"
       y1="517"
       x2="951.659"
       y2="469.565"
       gradientUnits="userSpaceOnUse"
       gradientTransform="translate(-952,-458)">
      <stop
         offset="0.27192399"
         stop-color="#FF7E07"
         id="stop1474"
         style="stop-color:#cccccc;stop-opacity:1;" />
      <stop
         offset="1"
         stop-color="#FFE607"
         id="stop1475"
         style="stop-color:#eaeaea;stop-opacity:1;" />
    </linearGradient>
    <linearGradient
       id="paint367_linear_890_11"
       x1="993"
       y1="461"
       x2="1007"
       y2="475"
       gradientUnits="userSpaceOnUse"
       gradientTransform="translate(-952,-458)">
      <stop
         stop-color="#EFF2F6"
         id="stop1476" />
      <stop
         offset="1"
         stop-color="#B7C6CD"
         id="stop1477" />
    </linearGradient>
    <linearGradient
       id="paint368_linear_890_11"
       x1="1000"
       y1="468"
       x2="994"
       y2="473"
       gradientUnits="userSpaceOnUse"
       gradientTransform="translate(-952,-458)">
      <stop
         stop-color="#FF7E07"
         id="stop1478" />
      <stop
         offset="1"
         stop-color="#FFE607"
         id="stop1479"
         style="stop-color:#fff8b4;stop-opacity:1;" />
    </linearGradient>
    <linearGradient
       id="paint369_linear_890_11"
       x1="995"
       y1="506"
       x2="977.29498"
       y2="491.246"
       gradientUnits="userSpaceOnUse"
       gradientTransform="translate(-952,-458)">
      <stop
         stop-color="#FF7E07"
         id="stop1480"
         style="stop-color:#ffd42a;stop-opacity:1" />
      <stop
         offset="1"
         stop-color="#FFE607"
         id="stop1481"
         style="stop-color:#ffe6d5;stop-opacity:1" />
    </linearGradient>
    <linearGradient
       id="paint370_linear_890_11"
       x1="995"
       y1="490"
       x2="995"
       y2="498"
       gradientUnits="userSpaceOnUse"
       gradientTransform="translate(-952,-458)">
      <stop
         stop-color="white"
         id="stop1482" />
      <stop
         offset="0.705"
         stop-color="#E6E6E6"
         id="stop1483" />
    </linearGradient>
    <linearGradient
       id="paint371_linear_890_11"
       x1="972"
       y1="481"
       x2="972"
       y2="485"
       gradientUnits="userSpaceOnUse"
       gradientTransform="translate(-952,-458)">
      <stop
         stop-color="white"
         id="stop1484" />
      <stop
         offset="0.705"
         stop-color="#E6E6E6"
         id="stop1485" />
    </linearGradient>
    <linearGradient
       id="paint372_linear_890_11"
       x1="972"
       y1="473"
       x2="972"
       y2="477"
       gradientUnits="userSpaceOnUse"
       gradientTransform="translate(-952,-458)">
      <stop
         stop-color="white"
         id="stop1486" />
      <stop
         offset="0.705"
         stop-color="#E6E6E6"
         id="stop1487" />
    </linearGradient>
    <linearGradient
       inkscape:collect="always"
       xlink:href="#linearGradient1"
       id="linearGradient6"
       x1="43.711746"
       y1="16.019674"
       x2="49.099213"
       y2="11.099213"
       gradientUnits="userSpaceOnUse" />
  </defs>
  <sodipodi:namedview
     id="namedview7"
     pagecolor="#ffffff"
     bordercolor="#000000"
     borderopacity="0.25"
     inkscape:showpageshadow="2"
     inkscape:pageopacity="0.0"
     inkscape:pagecheckerboard="0"
     inkscape:deskcolor="#d1d1d1"
     inkscape:zoom="8.3306018"
     inkscape:cx="26.948833"
     inkscape:cy="43.154145"
     inkscape:window-width="1920"
     inkscape:window-height="998"
     inkscape:window-x="0"
     inkscape:window-y="0"
     inkscape:window-maximized="1"
     inkscape:current-layer="svg7" />
  <path
     d="M 7,9 C 7,5.686 9.686,3 13,3 h 34 c 4.42,0 8,3.582 8,8 v 42 c 0,3.314 -2.69,6 -6,6 H 13 C 9.686,59 7,56.314 7,53 Z"
     id="path356"
     style="fill:url(#paint366_linear_890_11)" />
  <path
     d="m 41,3 h 8 c 3.31,0 6,2.686 6,6 v 8 h -6 c -4.418,0 -8,-3.582 -8,-8 z"
     id="path357"
     style="fill:url(#paint367_linear_890_11)" />
  <path
     d="M 41,11 V 3 l 14,14 h -8 c -3.314,0 -6,-2.686 -6,-6 z"
     id="path358"
     style="fill:url(#linearGradient6)" />
  <path
     style="fill:#8e8e8e;stroke-width:1.24997"
     d="m 45.427719,23.111291 c -1.411994,0.01657 -9.707198,1.897385 -10.370552,2.595012 -1.284799,1.889242 -13.22155,16.178885 -18.824967,21.292874 0.829901,2.083275 5.068081,4.532445 6.466973,6.111997 2.679113,-2.073455 11.337776,-11.757559 21.238419,-18.797892 0.832646,-1.771216 2.296805,-9.781373 1.676619,-11.180163 -0.02862,-0.01639 -0.09237,-0.02292 -0.186492,-0.02183 z m -28.789255,0.733736 c -0.327404,-0.09849 -0.602414,0.07312 -0.638467,0.148243 0,0 1.857119,8.122174 2.345809,9.081609 0.972032,0.85536 3.983813,3.782463 5.015235,3.84978 0.322744,-0.208907 5.409326,-5.950801 5.556434,-6.870313 0.10593,-0.662371 -2.597975,-2.768129 -4.435638,-4.544442 -0.204265,-0.13617 -5.748059,-1.034507 -7.843373,-1.664877 z m 0.27572,0.972026 0.235858,0.04731 c 0.424772,0.86499 0.75695,4.088 0.75695,4.088 0,0 -0.694452,-3.284476 -0.992808,-4.13528 z m 5.956851,0.803774 c 0.264797,-0.005 1.440761,0.265503 1.440761,0.265503 0.49286,0.339848 0.678327,0.731045 0.678327,0.731045 0,0 -1.072986,-0.526661 -2.159314,-0.99109 0.0088,-0.003 0.0226,-0.0054 0.04021,-0.0056 z m 11.906389,2.180392 c 10e-7,0 -5.88013,9.710955 -16.96368,18.965194 10.125669,-9.581745 16.96368,-18.965194 16.96368,-18.965194 z M 33.74622,28.18856 c 0,0 -4.761817,7.276464 -12.493294,14.226169 C 28.218901,35.210897 33.74622,28.18856 33.74622,28.18856 Z m 5.472336,0.509182 c 0.7146,-0.0202 1.367428,0.340903 1.479157,1.380244 0.365142,3.396763 -3.988315,2.803111 -3.525116,-0.0418 0.106862,-0.65613 1.127182,-1.312412 2.045959,-1.338414 z m 4.854336,2.660475 c 0.137857,-0.02062 0.279383,0.147727 0.259631,0.29096 -0.406851,2.950543 -1.194008,2.70703 -5.388225,6.061077 2.602582,-2.793656 4.687773,-3.254504 4.889079,-5.859221 0.02669,-0.345407 0.132296,-0.476788 0.239515,-0.492816 z m -4.581909,8.952502 c 0,0 -3.641836,1.723842 -5.975138,5.426414 0.70027,1.092737 7.621409,6.505343 8.10154,6.824852 0.789675,-0.194578 4.382618,-4.617184 4.382618,-4.617184 0,0 -3.789504,-5.031811 -6.50902,-7.634082 z m -3.097274,3.200567 c 0,0 -1.41867,1.586471 -1.448071,2.804134 l 1.164677,1.032912 -2.045952,-1.554826 z m -4.808632,0.376429 -4.870796,4.744481 c 0,-10e-7 2.062894,-2.529617 4.870796,-4.744481 z m 6.693692,4.775394 c 1.468839,1.095647 2.999507,2.219713 3.241714,2.460438 0.233324,0.231913 -0.01062,0.367339 -0.01062,0.367339 -0.377891,-0.152244 -3.038582,-2.524957 -3.230745,-2.827777 z"
     id="path6" />
</svg>
