<?xml version="1.0" encoding="UTF-8" standalone="no"?>
<svg
   width="62"
   height="62"
   version="1"
   id="svg7"
   sodipodi:docname="application-msonenote.svg"
   inkscape:version="1.4.1 (unknown)"
   xmlns:inkscape="http://www.inkscape.org/namespaces/inkscape"
   xmlns:sodipodi="http://sodipodi.sourceforge.net/DTD/sodipodi-0.dtd"
   xmlns:xlink="http://www.w3.org/1999/xlink"
   xmlns="http://www.w3.org/2000/svg"
   xmlns:svg="http://www.w3.org/2000/svg">
  <defs
     id="defs7">
    <linearGradient
       id="c-3"
       gradientUnits="userSpaceOnUse"
       x1="24.072048"
       x2="23.959682"
       y1="0.75082099"
       y2="46.056854">
      <stop
         offset="0"
         stop-color="#fff"
         id="stop3" />
      <stop
         offset="1"
         stop-color="#d9d9d9"
         id="stop4" />
    </linearGradient>
    <linearGradient
       id="b-6"
       gradientUnits="userSpaceOnUse"
       x1="29.203026"
       x2="34.121048"
       xlink:href="#a-7"
       y1="24.827356"
       y2="29.224836" />
    <linearGradient
       id="a-7">
      <stop
         offset="0"
         id="stop1" />
      <stop
         offset="1"
         stop-opacity="0"
         id="stop2" />
    </linearGradient>
    <linearGradient
       id="d"
       gradientUnits="userSpaceOnUse"
       x1="15.948756"
       x2="25.031786"
       xlink:href="#a-7"
       y1="23.618279"
       y2="33.69899" />
    <linearGradient
       id="e"
       gradientUnits="userSpaceOnUse"
       x1="21.990562"
       x2="29.320522"
       xlink:href="#a-7"
       y1="33.780373"
       y2="41.931858" />
    <linearGradient
       id="paint154_linear_890_11"
       x1="778"
       y1="812.29199"
       x2="788"
       y2="812.29199"
       gradientUnits="userSpaceOnUse"
       gradientTransform="translate(-751,-696)">
      <stop
         stop-color="#EFF2F6"
         id="stop1050" />
      <stop
         offset="0.600785"
         stop-color="#B7C6CD"
         id="stop1051" />
    </linearGradient>
    <linearGradient
       id="paint155_linear_890_11"
       x1="783"
       y1="813"
       x2="783"
       y2="817"
       gradientUnits="userSpaceOnUse"
       gradientTransform="translate(-751,-696)">
      <stop
         stop-color="#EFF2F6"
         id="stop1052" />
      <stop
         offset="0.734138"
         stop-color="#B7C6CD"
         id="stop1053" />
    </linearGradient>
    <radialGradient
       id="paint156_radial_890_11"
       cx="0"
       cy="0"
       r="1"
       gradientUnits="userSpaceOnUse"
       gradientTransform="matrix(27.999986,27.999976,-27.999986,27.999976,32.302392,33.999998)">
      <stop
         offset="0.60067803"
         stop-color="#B7C6CD"
         id="stop1054"
         style="stop-color:#384850;stop-opacity:1;" />
      <stop
         offset="0.876735"
         stop-color="#EFF2F6"
         id="stop1055" />
    </radialGradient>
    <linearGradient
       id="paint157_linear_890_11"
       x1="796.84485"
       y1="799.43359"
       x2="768.90088"
       y2="770.81476"
       gradientUnits="userSpaceOnUse"
       gradientTransform="matrix(1.1666666,0,0,1.1666668,-881.19764,-881.8333)">
      <stop
         offset="0.00000057"
         stop-color="#2E2E41"
         id="stop1056"
         style="stop-color:#424b58;stop-opacity:1;" />
      <stop
         offset="0.71113902"
         stop-color="#566C80"
         id="stop1057"
         style="stop-color:#303c47;stop-opacity:1;" />
    </linearGradient>
    <linearGradient
       id="paint158_linear_890_11"
       x1="792"
       y1="794"
       x2="774"
       y2="776"
       gradientUnits="userSpaceOnUse"
       gradientTransform="translate(-751,-696)">
      <stop
         offset="0.304478"
         stop-color="#2E2E41"
         id="stop1058" />
      <stop
         offset="1"
         stop-color="#566C80"
         id="stop1059" />
    </linearGradient>
    <linearGradient
       id="paint159_linear_890_11"
       x1="788"
       y1="790"
       x2="778"
       y2="780"
       gradientUnits="userSpaceOnUse"
       gradientTransform="translate(-751,-696)">
      <stop
         offset="0.391394"
         stop-color="#5200FF"
         id="stop1060" />
      <stop
         offset="1"
         stop-color="#0085FF"
         id="stop1061" />
    </linearGradient>
    <linearGradient
       id="paint160_linear_890_11"
       x1="784"
       y1="798"
       x2="782"
       y2="796"
       gradientUnits="userSpaceOnUse"
       gradientTransform="translate(-751,-696)">
      <stop
         stop-color="#FF7E07"
         id="stop1062" />
      <stop
         offset="1"
         stop-color="#FFE607"
         id="stop1063" />
    </linearGradient>
    <linearGradient
       id="c-3-6"
       gradientUnits="userSpaceOnUse"
       x1="24.072048"
       x2="23.959682"
       y1="0.75082099"
       y2="46.056854"
       gradientTransform="matrix(0.91471346,0,0,0.90068147,9.0468769,9.3836444)">
      <stop
         offset="0"
         stop-color="#fff"
         id="stop3-2" />
      <stop
         offset="1"
         stop-color="#d9d9d9"
         id="stop4-9" />
    </linearGradient>
    <linearGradient
       id="b-6-1"
       gradientUnits="userSpaceOnUse"
       x1="29.203026"
       x2="34.121048"
       xlink:href="#a-7"
       y1="24.827356"
       y2="29.224836"
       gradientTransform="matrix(1.1104534,0,0,1.0934187,4.3491158,4.7861435)" />
    <linearGradient
       id="d-0"
       gradientUnits="userSpaceOnUse"
       x1="15.948756"
       x2="25.031786"
       xlink:href="#a-7"
       y1="23.618279"
       y2="33.69899"
       gradientTransform="matrix(1.1104534,0,0,1.0934187,4.3491158,4.7861435)" />
    <linearGradient
       id="e-9"
       gradientUnits="userSpaceOnUse"
       x1="21.990562"
       x2="29.320522"
       xlink:href="#a-7"
       y1="33.780373"
       y2="41.931858"
       gradientTransform="matrix(1.1104534,0,0,1.0934187,4.3491158,4.7861435)" />
    <linearGradient
       id="paint539_linear_890_11"
       x1="1007"
       y1="317"
       x2="951.659"
       y2="269.565"
       gradientUnits="userSpaceOnUse">
      <stop
         offset="0.223912"
         stop-color="#5200FF"
         id="stop1821" />
      <stop
         offset="0.902995"
         stop-color="#0085FF"
         id="stop1822" />
    </linearGradient>
    <linearGradient
       id="paint540_linear_890_11"
       x1="974.5"
       y1="274"
       x2="974.5"
       y2="280"
       gradientUnits="userSpaceOnUse">
      <stop
         offset="0.189495"
         stop-color="#EFF2F6"
         id="stop1823" />
      <stop
         offset="0.850463"
         stop-color="#B7C6CD"
         id="stop1824" />
    </linearGradient>
    <linearGradient
       id="paint541_linear_890_11"
       x1="983"
       y1="282"
       x2="983"
       y2="288"
       gradientUnits="userSpaceOnUse">
      <stop
         offset="0.189495"
         stop-color="#EFF2F6"
         id="stop1825" />
      <stop
         offset="0.850463"
         stop-color="#B7C6CD"
         id="stop1826" />
    </linearGradient>
    <linearGradient
       id="paint542_linear_890_11"
       x1="983"
       y1="290"
       x2="983"
       y2="296"
       gradientUnits="userSpaceOnUse">
      <stop
         offset="0.189495"
         stop-color="#EFF2F6"
         id="stop1827" />
      <stop
         offset="0.850463"
         stop-color="#B7C6CD"
         id="stop1828" />
    </linearGradient>
    <linearGradient
       id="paint543_linear_890_11"
       x1="978.5"
       y1="298"
       x2="978.5"
       y2="304"
       gradientUnits="userSpaceOnUse">
      <stop
         offset="0.189495"
         stop-color="#EFF2F6"
         id="stop1829" />
      <stop
         offset="0.850463"
         stop-color="#B7C6CD"
         id="stop1830" />
    </linearGradient>
    <linearGradient
       id="paint544_linear_890_11"
       x1="993"
       y1="261"
       x2="1007"
       y2="275"
       gradientUnits="userSpaceOnUse">
      <stop
         stop-color="#EFF2F6"
         id="stop1831" />
      <stop
         offset="1"
         stop-color="#B7C6CD"
         id="stop1832" />
    </linearGradient>
    <linearGradient
       id="paint545_linear_890_11"
       x1="1000.58"
       y1="267.41699"
       x2="994.75"
       y2="273.25"
       gradientUnits="userSpaceOnUse">
      <stop
         stop-color="#5200FF"
         id="stop1833" />
      <stop
         offset="1"
         stop-color="#0085FF"
         id="stop1834" />
    </linearGradient>
    <linearGradient
       id="paint366_linear_890_11"
       x1="1007"
       y1="517"
       x2="951.659"
       y2="469.565"
       gradientUnits="userSpaceOnUse"
       gradientTransform="translate(-952,-458)">
      <stop
         offset="0.27192399"
         stop-color="#FF7E07"
         id="stop1474"
         style="stop-color:#8b4288;stop-opacity:1;" />
      <stop
         offset="1"
         stop-color="#FFE607"
         id="stop1475"
         style="stop-color:#8d5fd3;stop-opacity:1" />
    </linearGradient>
    <linearGradient
       id="paint367_linear_890_11"
       x1="993"
       y1="461"
       x2="1007"
       y2="475"
       gradientUnits="userSpaceOnUse"
       gradientTransform="translate(-952,-458)">
      <stop
         stop-color="#EFF2F6"
         id="stop1476" />
      <stop
         offset="1"
         stop-color="#B7C6CD"
         id="stop1477" />
    </linearGradient>
    <linearGradient
       id="paint368_linear_890_11"
       x1="1000"
       y1="468"
       x2="994"
       y2="473"
       gradientUnits="userSpaceOnUse"
       gradientTransform="translate(-952,-458)">
      <stop
         stop-color="#FF7E07"
         id="stop1478"
         style="stop-color:#aa87de;stop-opacity:1" />
      <stop
         offset="1"
         stop-color="#FFE607"
         id="stop1479"
         style="stop-color:#e3d7f4;stop-opacity:1" />
    </linearGradient>
    <linearGradient
       id="paint369_linear_890_11"
       x1="995"
       y1="506"
       x2="977.29498"
       y2="491.246"
       gradientUnits="userSpaceOnUse"
       gradientTransform="translate(-952,-458)">
      <stop
         stop-color="#FF7E07"
         id="stop1480"
         style="stop-color:#ffd42a;stop-opacity:1" />
      <stop
         offset="1"
         stop-color="#FFE607"
         id="stop1481"
         style="stop-color:#ffe6d5;stop-opacity:1" />
    </linearGradient>
    <linearGradient
       id="paint370_linear_890_11"
       x1="995"
       y1="490"
       x2="995"
       y2="498"
       gradientUnits="userSpaceOnUse"
       gradientTransform="translate(-952,-458)">
      <stop
         stop-color="white"
         id="stop1482" />
      <stop
         offset="0.705"
         stop-color="#E6E6E6"
         id="stop1483" />
    </linearGradient>
    <linearGradient
       id="paint371_linear_890_11"
       x1="972"
       y1="481"
       x2="972"
       y2="485"
       gradientUnits="userSpaceOnUse"
       gradientTransform="translate(-952,-458)">
      <stop
         stop-color="white"
         id="stop1484" />
      <stop
         offset="0.705"
         stop-color="#E6E6E6"
         id="stop1485" />
    </linearGradient>
    <linearGradient
       id="paint372_linear_890_11"
       x1="972"
       y1="473"
       x2="972"
       y2="477"
       gradientUnits="userSpaceOnUse"
       gradientTransform="translate(-952,-458)">
      <stop
         stop-color="white"
         id="stop1486" />
      <stop
         offset="0.705"
         stop-color="#E6E6E6"
         id="stop1487" />
    </linearGradient>
  </defs>
  <sodipodi:namedview
     id="namedview7"
     pagecolor="#ffffff"
     bordercolor="#000000"
     borderopacity="0.25"
     inkscape:showpageshadow="2"
     inkscape:pageopacity="0.0"
     inkscape:pagecheckerboard="0"
     inkscape:deskcolor="#d1d1d1"
     inkscape:zoom="8.3306018"
     inkscape:cx="35.231548"
     inkscape:cy="52.457195"
     inkscape:window-width="1920"
     inkscape:window-height="998"
     inkscape:window-x="0"
     inkscape:window-y="0"
     inkscape:window-maximized="1"
     inkscape:current-layer="svg7" />
  <path
     d="M 7,9 C 7,5.686 9.686,3 13,3 h 34 c 4.42,0 8,3.582 8,8 v 42 c 0,3.314 -2.69,6 -6,6 H 13 C 9.686,59 7,56.314 7,53 Z"
     id="path356"
     style="fill:url(#paint366_linear_890_11)" />
  <path
     d="m 41,3 h 8 c 3.31,0 6,2.686 6,6 v 8 h -6 c -4.418,0 -8,-3.582 -8,-8 z"
     id="path357"
     style="fill:url(#paint367_linear_890_11)" />
  <path
     d="M 41,11 V 3 l 14,14 h -8 c -3.314,0 -6,-2.686 -6,-6 z"
     id="path358"
     style="fill:url(#paint368_linear_890_11)" />
  <path
     id="path48"
     d="m 33.391152,25.034187 -16.588425,2.804289 v 22.459173 l 16.588425,2.802538 z m 0.618739,3.187019 v 3.187005 H 40.387 v 1.269225 h -6.377109 v 1.593598 H 40.387 v 1.269224 h -6.377109 v 1.593601 H 40.387 v 1.269206 h -6.377109 v 1.593601 H 40.387 v 1.269224 h -6.377109 v 1.593598 H 40.387 v 1.269191 H 34.009891 V 45.72228 H 40.387 v 1.269206 h -6.377109 v 2.862711 h 8.295438 c 0.324701,0 0.648879,-0.295483 0.648879,-0.62041 V 35.570304 h 1.593863 c 0.32499,0 0.648878,-0.294637 0.648878,-0.648766 v -4.458126 c 2.91e-4,-0.354164 -0.324197,-0.648769 -0.648878,-0.648769 H 42.954208 V 28.84148 c 0,-0.324628 -0.413062,-0.620404 -0.413062,-0.620404 z m -4.781286,5.165199 v 11.096384 l -2.125707,-0.118767 -3.659314,-6.75701 c -0.05905,-0.0885 -0.08815,-0.177355 -0.147139,-0.265896 -0.02955,-0.08854 -0.08923,-0.147214 -0.11879,-0.235761 -0.02954,-0.05905 -0.08923,-0.148364 -0.118786,-0.207398 -0.02951,-0.05905 -0.205653,-0.118251 -0.205653,-0.177254 0,0.08846 -0.03005,0.206318 -0.03005,0.324373 v 7.083238 l -1.593889,-0.08858 V 33.799526 l 2.037083,-0.08859 3.542072,6.404405 0.08865,0.177257 c 0.02947,0.05905 0.05791,0.146606 0.116996,0.205619 0.02952,0.08856 0.08923,0.147233 0.118782,0.235763 0.02948,0.08855 0.08815,0.265901 0.147147,0.265901 h 0.03005 c 0,0 -0.03005,-0.147224 -0.03005,-0.235764 0,-0.08854 -0.02838,-0.08932 -0.02838,-0.207395 0,-0.118045 0.02838,-0.235331 0.02838,-0.382874 0,-0.147564 0.03005,-0.618836 0.03005,-0.795908 v -5.874406 z m 14.374859,2.802538 v 5.755662 h 0.944929 c 0.32499,0 0.648879,-0.294639 0.648879,-0.648769 v -4.456292 c 2.95e-4,-0.324617 -0.324164,-0.650538 -0.648879,-0.650538 z m 0,6.40441 v 5.755661 h 0.944929 c 0.32499,0 0.648879,-0.294657 0.648879,-0.648767 v -4.456292 c 2.95e-4,-0.354144 -0.324164,-0.650538 -0.648879,-0.650538 z"
     fill="#ffffff"
     stroke-width="0.416199" />
</svg>
