<?xml version="1.0" encoding="UTF-8" standalone="no"?>
<svg
   width="62"
   height="62"
   version="1"
   id="svg7"
   sodipodi:docname="image-x-3ds.svg"
   inkscape:version="1.4.1 (unknown)"
   xmlns:inkscape="http://www.inkscape.org/namespaces/inkscape"
   xmlns:sodipodi="http://sodipodi.sourceforge.net/DTD/sodipodi-0.dtd"
   xmlns:xlink="http://www.w3.org/1999/xlink"
   xmlns="http://www.w3.org/2000/svg"
   xmlns:svg="http://www.w3.org/2000/svg">
  <defs
     id="defs7">
    <linearGradient
       id="linearGradient7"
       inkscape:collect="always">
      <stop
         style="stop-color:#ff8080;stop-opacity:1"
         offset="0"
         id="stop7" />
      <stop
         style="stop-color:#c83771;stop-opacity:1;"
         offset="1"
         id="stop8" />
    </linearGradient>
    <linearGradient
       id="linearGradient1"
       inkscape:collect="always">
      <stop
         style="stop-color:#f4d7e2;stop-opacity:1;"
         offset="0"
         id="stop5" />
      <stop
         style="stop-color:#c1356d;stop-opacity:1;"
         offset="1"
         id="stop6" />
    </linearGradient>
    <linearGradient
       id="c-3"
       gradientUnits="userSpaceOnUse"
       x1="24.072048"
       x2="23.959682"
       y1="0.75082099"
       y2="46.056854">
      <stop
         offset="0"
         stop-color="#fff"
         id="stop3" />
      <stop
         offset="1"
         stop-color="#d9d9d9"
         id="stop4" />
    </linearGradient>
    <linearGradient
       id="b-6"
       gradientUnits="userSpaceOnUse"
       x1="29.203026"
       x2="34.121048"
       xlink:href="#a-7"
       y1="24.827356"
       y2="29.224836" />
    <linearGradient
       id="a-7">
      <stop
         offset="0"
         id="stop1" />
      <stop
         offset="1"
         stop-opacity="0"
         id="stop2" />
    </linearGradient>
    <linearGradient
       id="d"
       gradientUnits="userSpaceOnUse"
       x1="15.948756"
       x2="25.031786"
       xlink:href="#a-7"
       y1="23.618279"
       y2="33.69899" />
    <linearGradient
       id="e"
       gradientUnits="userSpaceOnUse"
       x1="21.990562"
       x2="29.320522"
       xlink:href="#a-7"
       y1="33.780373"
       y2="41.931858" />
    <linearGradient
       id="paint154_linear_890_11"
       x1="778"
       y1="812.29199"
       x2="788"
       y2="812.29199"
       gradientUnits="userSpaceOnUse"
       gradientTransform="translate(-751,-696)">
      <stop
         stop-color="#EFF2F6"
         id="stop1050" />
      <stop
         offset="0.600785"
         stop-color="#B7C6CD"
         id="stop1051" />
    </linearGradient>
    <linearGradient
       id="paint155_linear_890_11"
       x1="783"
       y1="813"
       x2="783"
       y2="817"
       gradientUnits="userSpaceOnUse"
       gradientTransform="translate(-751,-696)">
      <stop
         stop-color="#EFF2F6"
         id="stop1052" />
      <stop
         offset="0.734138"
         stop-color="#B7C6CD"
         id="stop1053" />
    </linearGradient>
    <radialGradient
       id="paint156_radial_890_11"
       cx="0"
       cy="0"
       r="1"
       gradientUnits="userSpaceOnUse"
       gradientTransform="matrix(27.999986,27.999976,-27.999986,27.999976,32.302392,33.999998)">
      <stop
         offset="0.60067803"
         stop-color="#B7C6CD"
         id="stop1054"
         style="stop-color:#384850;stop-opacity:1;" />
      <stop
         offset="0.876735"
         stop-color="#EFF2F6"
         id="stop1055" />
    </radialGradient>
    <linearGradient
       id="paint157_linear_890_11"
       x1="796.84485"
       y1="799.43359"
       x2="768.90088"
       y2="770.81476"
       gradientUnits="userSpaceOnUse"
       gradientTransform="matrix(1.1666666,0,0,1.1666668,-881.19764,-881.8333)">
      <stop
         offset="0.00000057"
         stop-color="#2E2E41"
         id="stop1056"
         style="stop-color:#424b58;stop-opacity:1;" />
      <stop
         offset="0.71113902"
         stop-color="#566C80"
         id="stop1057"
         style="stop-color:#303c47;stop-opacity:1;" />
    </linearGradient>
    <linearGradient
       id="paint158_linear_890_11"
       x1="792"
       y1="794"
       x2="774"
       y2="776"
       gradientUnits="userSpaceOnUse"
       gradientTransform="translate(-751,-696)">
      <stop
         offset="0.304478"
         stop-color="#2E2E41"
         id="stop1058" />
      <stop
         offset="1"
         stop-color="#566C80"
         id="stop1059" />
    </linearGradient>
    <linearGradient
       id="paint159_linear_890_11"
       x1="788"
       y1="790"
       x2="778"
       y2="780"
       gradientUnits="userSpaceOnUse"
       gradientTransform="translate(-751,-696)">
      <stop
         offset="0.391394"
         stop-color="#5200FF"
         id="stop1060" />
      <stop
         offset="1"
         stop-color="#0085FF"
         id="stop1061" />
    </linearGradient>
    <linearGradient
       id="paint160_linear_890_11"
       x1="784"
       y1="798"
       x2="782"
       y2="796"
       gradientUnits="userSpaceOnUse"
       gradientTransform="translate(-751,-696)">
      <stop
         stop-color="#FF7E07"
         id="stop1062" />
      <stop
         offset="1"
         stop-color="#FFE607"
         id="stop1063" />
    </linearGradient>
    <linearGradient
       id="c-3-6"
       gradientUnits="userSpaceOnUse"
       x1="24.072048"
       x2="23.959682"
       y1="0.75082099"
       y2="46.056854"
       gradientTransform="matrix(0.91471346,0,0,0.90068147,9.0468769,9.3836444)">
      <stop
         offset="0"
         stop-color="#fff"
         id="stop3-2" />
      <stop
         offset="1"
         stop-color="#d9d9d9"
         id="stop4-9" />
    </linearGradient>
    <linearGradient
       id="b-6-1"
       gradientUnits="userSpaceOnUse"
       x1="29.203026"
       x2="34.121048"
       xlink:href="#a-7"
       y1="24.827356"
       y2="29.224836"
       gradientTransform="matrix(1.1104534,0,0,1.0934187,4.3491158,4.7861435)" />
    <linearGradient
       id="d-0"
       gradientUnits="userSpaceOnUse"
       x1="15.948756"
       x2="25.031786"
       xlink:href="#a-7"
       y1="23.618279"
       y2="33.69899"
       gradientTransform="matrix(1.1104534,0,0,1.0934187,4.3491158,4.7861435)" />
    <linearGradient
       id="e-9"
       gradientUnits="userSpaceOnUse"
       x1="21.990562"
       x2="29.320522"
       xlink:href="#a-7"
       y1="33.780373"
       y2="41.931858"
       gradientTransform="matrix(1.1104534,0,0,1.0934187,4.3491158,4.7861435)" />
    <linearGradient
       id="paint539_linear_890_11"
       x1="1007"
       y1="317"
       x2="951.659"
       y2="269.565"
       gradientUnits="userSpaceOnUse"
       gradientTransform="translate(-952,-258)">
      <stop
         offset="0.223912"
         stop-color="#5200FF"
         id="stop1821"
         style="stop-color:#c83771;stop-opacity:1" />
      <stop
         offset="0.902995"
         stop-color="#0085FF"
         id="stop1822"
         style="stop-color:#de8787;stop-opacity:1" />
    </linearGradient>
    <linearGradient
       id="paint540_linear_890_11"
       x1="974.5"
       y1="274"
       x2="974.5"
       y2="280"
       gradientUnits="userSpaceOnUse"
       gradientTransform="translate(-952,-258)">
      <stop
         offset="0.189495"
         stop-color="#EFF2F6"
         id="stop1823" />
      <stop
         offset="0.850463"
         stop-color="#B7C6CD"
         id="stop1824" />
    </linearGradient>
    <linearGradient
       id="paint541_linear_890_11"
       x1="983"
       y1="282"
       x2="983"
       y2="288"
       gradientUnits="userSpaceOnUse"
       gradientTransform="translate(-952,-258)">
      <stop
         offset="0.189495"
         stop-color="#EFF2F6"
         id="stop1825" />
      <stop
         offset="0.850463"
         stop-color="#B7C6CD"
         id="stop1826" />
    </linearGradient>
    <linearGradient
       id="paint542_linear_890_11"
       x1="983"
       y1="290"
       x2="983"
       y2="296"
       gradientUnits="userSpaceOnUse"
       gradientTransform="translate(-952,-258)">
      <stop
         offset="0.189495"
         stop-color="#EFF2F6"
         id="stop1827" />
      <stop
         offset="0.850463"
         stop-color="#B7C6CD"
         id="stop1828" />
    </linearGradient>
    <linearGradient
       id="paint543_linear_890_11"
       x1="978.5"
       y1="298"
       x2="978.5"
       y2="304"
       gradientUnits="userSpaceOnUse"
       gradientTransform="translate(-952,-258)">
      <stop
         offset="0.189495"
         stop-color="#EFF2F6"
         id="stop1829" />
      <stop
         offset="0.850463"
         stop-color="#B7C6CD"
         id="stop1830" />
    </linearGradient>
    <linearGradient
       id="paint544_linear_890_11"
       x1="993"
       y1="261"
       x2="1007"
       y2="275"
       gradientUnits="userSpaceOnUse"
       gradientTransform="translate(-952,-258)">
      <stop
         stop-color="#EFF2F6"
         id="stop1831" />
      <stop
         offset="1"
         stop-color="#B7C6CD"
         id="stop1832" />
    </linearGradient>
    <linearGradient
       id="paint545_linear_890_11"
       x1="1000.58"
       y1="267.41699"
       x2="994.75"
       y2="273.25"
       gradientUnits="userSpaceOnUse"
       gradientTransform="translate(-952,-258)">
      <stop
         stop-color="#5200FF"
         id="stop1833"
         style="stop-color:#c83771;stop-opacity:1" />
      <stop
         offset="1"
         stop-color="#0085FF"
         id="stop1834"
         style="stop-color:#e9afc6;stop-opacity:1" />
    </linearGradient>
    <linearGradient
       inkscape:collect="always"
       xlink:href="#linearGradient1"
       id="linearGradient6"
       x1="43.084759"
       y1="15.546858"
       x2="48"
       y2="10"
       gradientUnits="userSpaceOnUse" />
    <linearGradient
       inkscape:collect="always"
       xlink:href="#linearGradient7"
       id="linearGradient8"
       x1="13.362085"
       y1="8.192524"
       x2="52.599213"
       y2="49.125942"
       gradientUnits="userSpaceOnUse" />
  </defs>
  <sodipodi:namedview
     id="namedview7"
     pagecolor="#ffffff"
     bordercolor="#000000"
     borderopacity="0.25"
     inkscape:showpageshadow="2"
     inkscape:pageopacity="0.0"
     inkscape:pagecheckerboard="0"
     inkscape:deskcolor="#d1d1d1"
     inkscape:zoom="8.3306018"
     inkscape:cx="35.171529"
     inkscape:cy="52.697273"
     inkscape:window-width="1920"
     inkscape:window-height="998"
     inkscape:window-x="0"
     inkscape:window-y="0"
     inkscape:window-maximized="1"
     inkscape:current-layer="svg7" />
  <path
     d="M 7,9 C 7,5.686 9.686,3 13,3 h 34 c 4.42,0 8,3.582 8,8 v 42 c 0,3.314 -2.69,6 -6,6 H 13 C 9.686,59 7,56.314 7,53 Z"
     id="path526"
     style="fill:url(#linearGradient8)" />
  <path
     d="m 41,3 h 8 c 3.31,0 6,2.686 6,6 v 8 h -6 c -4.418,0 -8,-3.582 -8,-8 z"
     id="path531"
     style="fill:url(#paint544_linear_890_11)" />
  <path
     d="M 41,11 V 3 l 14,14 h -8 c -3.314,0 -6,-2.686 -6,-6 z"
     id="path532"
     style="fill:url(#linearGradient6)" />
  <g
     id="g1"
     transform="translate(-6.999993,-42.493929)">
    <path
       style="opacity:0.2;stroke-width:1.16663"
       d="m 22.521163,77.166663 c -3.186007,0 -5.521161,0.444338 -5.521161,0.444338 v 1.968754 c 1.446102,-0.399315 3.068618,-0.740562 4.953776,-0.740562 2.023092,0 3.568357,0.689604 3.568358,1.663407 0,1.174159 -1.526514,1.843431 -4.8125,1.843431 h -0.209634 v 1.770503 h 0.102517 c 3.461448,0 5.430015,0.595298 5.430015,2.046226 0,1.295299 -1.760623,2.082679 -3.953451,2.082679 -1.9121,0 -3.660327,-0.464103 -5.079099,-0.91373 v 2.119133 C 17.681432,89.584573 19.488532,90 22.856118,90 c 3.730352,0 6.977219,-1.37035 6.977219,-3.784836 0,-2.024961 -2.250584,-3.210603 -3.582031,-3.210603 0,0 3.119464,-0.571728 3.119467,-2.786788 0,-2.16521 -3.319619,-3.05111 -6.849612,-3.05111 z m 9.645503,0 V 90 h 6.277674 c 1.643539,0 3.519665,-0.350444 4.513999,-0.902341 2.42543,-1.341402 3.208327,-3.482228 3.208327,-5.514322 0,-2.030675 -0.788668,-4.172997 -3.206051,-5.512047 -0.995103,-0.550484 -2.872736,-0.904627 -4.516275,-0.904627 z m 21.508142,0 c -3.824038,0 -6.332356,1.230477 -6.332356,3.324547 0,2.021928 2.085221,2.918065 4.926435,4.055986 2.125614,0.844184 2.866534,1.315653 2.866534,2.121419 0,0.898065 -0.79843,1.617839 -2.722983,1.617839 -1.757659,0 -4.011538,-0.370855 -5.079099,-0.827146 v 2.139646 C 48.831559,89.859896 50.177777,90 52.132164,90 c 4.757995,0 6.867838,-1.469915 6.867838,-3.506837 0,-1.979762 -1.686941,-2.886078 -4.714517,-4.060548 -2.175763,-0.83997 -3.413416,-1.304288 -3.413416,-2.27637 0,-0.669912 0.806531,-1.319327 2.695643,-1.319327 1.572072,0 2.56061,0.352372 3.68229,0.617505 v -1.955071 c -1.05479,-0.205037 -1.758847,-0.332689 -3.575194,-0.332689 z M 35.666666,79.5 h 1.998375 c 3.067339,0 5.001625,1.449432 5.001625,4.099288 0,2.650673 -1.934286,4.067375 -5.001625,4.067375 h -1.998375 z"
       id="path6-6" />
    <path
       style="fill:#ffffff;stroke-width:1.16663"
       d="m 22.521163,76 c -3.186007,0 -5.521161,0.444337 -5.521161,0.444337 v 1.968745 c 1.446102,-0.399306 3.068618,-0.740552 4.953776,-0.740552 2.023092,0 3.568357,0.689593 3.568358,1.663406 0,1.17416 -1.526514,1.843422 -4.8125,1.843422 h -0.209634 v 1.770512 h 0.102517 c 3.461448,0 5.430015,0.595299 5.430015,2.046226 0,1.2953 -1.760623,2.082679 -3.953451,2.082679 -1.9121,0 -3.660327,-0.464102 -5.079099,-0.91374 v 2.119143 c 0.681433,0.133722 2.488533,0.549159 5.856116,0.549159 3.730355,0 6.977222,-1.370361 6.977222,-3.784836 0,-2.024961 -2.250584,-3.210613 -3.582032,-3.210613 0,0 3.119465,-0.571728 3.119467,-2.786778 C 29.370775,76.885899 26.051157,76 22.521163,76 Z m 9.645503,0 v 12.833337 h 6.277674 c 1.643539,0 3.519665,-0.350454 4.513999,-0.902351 2.42543,-1.341393 3.208327,-3.482228 3.208327,-5.514323 0,-2.030665 -0.788668,-4.172996 -3.206051,-5.512036 C 41.965512,76.354142 40.087879,76 38.44434,76 Z m 21.508142,0 c -3.824038,0 -6.332356,1.230476 -6.332356,3.324546 0,2.021928 2.085221,2.918066 4.926435,4.055987 2.125614,0.844184 2.866534,1.315653 2.866534,2.121419 0,0.898064 -0.79843,1.617839 -2.722983,1.617839 -1.757659,0 -4.011538,-0.370856 -5.079099,-0.827146 v 2.139646 c 1.49822,0.260941 2.844438,0.401046 4.798825,0.401046 4.757995,0 6.867838,-1.469926 6.867838,-3.506838 0,-1.979761 -1.686941,-2.886078 -4.714517,-4.060548 -2.175763,-0.839969 -3.413416,-1.304287 -3.413416,-2.276369 0,-0.669912 0.806531,-1.319337 2.695643,-1.319337 1.572072,0 2.56061,0.352372 3.68229,0.617515 V 76.332679 C 56.195212,76.127652 55.491155,76 53.674808,76 Z m -18.008142,2.333337 h 1.998375 c 3.067339,0 5.001625,1.449432 5.001625,4.099278 0,2.650683 -1.934286,4.067385 -5.001625,4.067385 h -1.998375 z"
       id="path7-7" />
  </g>
</svg>
