<?xml version="1.0" encoding="UTF-8" standalone="no"?>
<svg
   width="62"
   height="62"
   version="1"
   id="svg7"
   sodipodi:docname="rpm.svg"
   inkscape:version="1.4.1 (unknown)"
   xmlns:inkscape="http://www.inkscape.org/namespaces/inkscape"
   xmlns:sodipodi="http://sodipodi.sourceforge.net/DTD/sodipodi-0.dtd"
   xmlns:xlink="http://www.w3.org/1999/xlink"
   xmlns="http://www.w3.org/2000/svg"
   xmlns:svg="http://www.w3.org/2000/svg">
  <defs
     id="defs7">
    <linearGradient
       id="linearGradient7"
       inkscape:collect="always">
      <stop
         style="stop-color:#ff8080;stop-opacity:1"
         offset="0"
         id="stop7" />
      <stop
         style="stop-color:#c83771;stop-opacity:1;"
         offset="1"
         id="stop8" />
    </linearGradient>
    <linearGradient
       id="linearGradient1"
       inkscape:collect="always">
      <stop
         style="stop-color:#f4d7e2;stop-opacity:1;"
         offset="0"
         id="stop5" />
      <stop
         style="stop-color:#c1356d;stop-opacity:1;"
         offset="1"
         id="stop6" />
    </linearGradient>
    <linearGradient
       id="c-3"
       gradientUnits="userSpaceOnUse"
       x1="24.072048"
       x2="23.959682"
       y1="0.75082099"
       y2="46.056854">
      <stop
         offset="0"
         stop-color="#fff"
         id="stop3" />
      <stop
         offset="1"
         stop-color="#d9d9d9"
         id="stop4" />
    </linearGradient>
    <linearGradient
       id="b-6"
       gradientUnits="userSpaceOnUse"
       x1="29.203026"
       x2="34.121048"
       xlink:href="#a-7"
       y1="24.827356"
       y2="29.224836" />
    <linearGradient
       id="a-7">
      <stop
         offset="0"
         id="stop1" />
      <stop
         offset="1"
         stop-opacity="0"
         id="stop2" />
    </linearGradient>
    <linearGradient
       id="d"
       gradientUnits="userSpaceOnUse"
       x1="15.948756"
       x2="25.031786"
       xlink:href="#a-7"
       y1="23.618279"
       y2="33.69899" />
    <linearGradient
       id="e"
       gradientUnits="userSpaceOnUse"
       x1="21.990562"
       x2="29.320522"
       xlink:href="#a-7"
       y1="33.780373"
       y2="41.931858" />
    <linearGradient
       id="paint154_linear_890_11"
       x1="778"
       y1="812.29199"
       x2="788"
       y2="812.29199"
       gradientUnits="userSpaceOnUse"
       gradientTransform="translate(-751,-696)">
      <stop
         stop-color="#EFF2F6"
         id="stop1050" />
      <stop
         offset="0.600785"
         stop-color="#B7C6CD"
         id="stop1051" />
    </linearGradient>
    <linearGradient
       id="paint155_linear_890_11"
       x1="783"
       y1="813"
       x2="783"
       y2="817"
       gradientUnits="userSpaceOnUse"
       gradientTransform="translate(-751,-696)">
      <stop
         stop-color="#EFF2F6"
         id="stop1052" />
      <stop
         offset="0.734138"
         stop-color="#B7C6CD"
         id="stop1053" />
    </linearGradient>
    <radialGradient
       id="paint156_radial_890_11"
       cx="0"
       cy="0"
       r="1"
       gradientUnits="userSpaceOnUse"
       gradientTransform="matrix(27.999986,27.999976,-27.999986,27.999976,32.302392,33.999998)">
      <stop
         offset="0.60067803"
         stop-color="#B7C6CD"
         id="stop1054"
         style="stop-color:#384850;stop-opacity:1;" />
      <stop
         offset="0.876735"
         stop-color="#EFF2F6"
         id="stop1055" />
    </radialGradient>
    <linearGradient
       id="paint157_linear_890_11"
       x1="796.84485"
       y1="799.43359"
       x2="768.90088"
       y2="770.81476"
       gradientUnits="userSpaceOnUse"
       gradientTransform="matrix(1.1666666,0,0,1.1666668,-881.19764,-881.8333)">
      <stop
         offset="0.00000057"
         stop-color="#2E2E41"
         id="stop1056"
         style="stop-color:#424b58;stop-opacity:1;" />
      <stop
         offset="0.71113902"
         stop-color="#566C80"
         id="stop1057"
         style="stop-color:#303c47;stop-opacity:1;" />
    </linearGradient>
    <linearGradient
       id="paint158_linear_890_11"
       x1="792"
       y1="794"
       x2="774"
       y2="776"
       gradientUnits="userSpaceOnUse"
       gradientTransform="translate(-751,-696)">
      <stop
         offset="0.304478"
         stop-color="#2E2E41"
         id="stop1058" />
      <stop
         offset="1"
         stop-color="#566C80"
         id="stop1059" />
    </linearGradient>
    <linearGradient
       id="paint159_linear_890_11"
       x1="788"
       y1="790"
       x2="778"
       y2="780"
       gradientUnits="userSpaceOnUse"
       gradientTransform="translate(-751,-696)">
      <stop
         offset="0.391394"
         stop-color="#5200FF"
         id="stop1060" />
      <stop
         offset="1"
         stop-color="#0085FF"
         id="stop1061" />
    </linearGradient>
    <linearGradient
       id="paint160_linear_890_11"
       x1="784"
       y1="798"
       x2="782"
       y2="796"
       gradientUnits="userSpaceOnUse"
       gradientTransform="translate(-751,-696)">
      <stop
         stop-color="#FF7E07"
         id="stop1062" />
      <stop
         offset="1"
         stop-color="#FFE607"
         id="stop1063" />
    </linearGradient>
    <linearGradient
       id="c-3-6"
       gradientUnits="userSpaceOnUse"
       x1="24.072048"
       x2="23.959682"
       y1="0.75082099"
       y2="46.056854"
       gradientTransform="matrix(0.91471346,0,0,0.90068147,9.0468769,9.3836444)">
      <stop
         offset="0"
         stop-color="#fff"
         id="stop3-2" />
      <stop
         offset="1"
         stop-color="#d9d9d9"
         id="stop4-9" />
    </linearGradient>
    <linearGradient
       id="b-6-1"
       gradientUnits="userSpaceOnUse"
       x1="29.203026"
       x2="34.121048"
       xlink:href="#a-7"
       y1="24.827356"
       y2="29.224836"
       gradientTransform="matrix(1.1104534,0,0,1.0934187,4.3491158,4.7861435)" />
    <linearGradient
       id="d-0"
       gradientUnits="userSpaceOnUse"
       x1="15.948756"
       x2="25.031786"
       xlink:href="#a-7"
       y1="23.618279"
       y2="33.69899"
       gradientTransform="matrix(1.1104534,0,0,1.0934187,4.3491158,4.7861435)" />
    <linearGradient
       id="e-9"
       gradientUnits="userSpaceOnUse"
       x1="21.990562"
       x2="29.320522"
       xlink:href="#a-7"
       y1="33.780373"
       y2="41.931858"
       gradientTransform="matrix(1.1104534,0,0,1.0934187,4.3491158,4.7861435)" />
    <linearGradient
       id="paint539_linear_890_11"
       x1="1007"
       y1="317"
       x2="951.659"
       y2="269.565"
       gradientUnits="userSpaceOnUse"
       gradientTransform="translate(-952,-258)">
      <stop
         offset="0.223912"
         stop-color="#5200FF"
         id="stop1821"
         style="stop-color:#c83771;stop-opacity:1" />
      <stop
         offset="0.902995"
         stop-color="#0085FF"
         id="stop1822"
         style="stop-color:#de8787;stop-opacity:1" />
    </linearGradient>
    <linearGradient
       id="paint540_linear_890_11"
       x1="974.5"
       y1="274"
       x2="974.5"
       y2="280"
       gradientUnits="userSpaceOnUse"
       gradientTransform="translate(-952,-258)">
      <stop
         offset="0.189495"
         stop-color="#EFF2F6"
         id="stop1823" />
      <stop
         offset="0.850463"
         stop-color="#B7C6CD"
         id="stop1824" />
    </linearGradient>
    <linearGradient
       id="paint541_linear_890_11"
       x1="983"
       y1="282"
       x2="983"
       y2="288"
       gradientUnits="userSpaceOnUse"
       gradientTransform="translate(-952,-258)">
      <stop
         offset="0.189495"
         stop-color="#EFF2F6"
         id="stop1825" />
      <stop
         offset="0.850463"
         stop-color="#B7C6CD"
         id="stop1826" />
    </linearGradient>
    <linearGradient
       id="paint542_linear_890_11"
       x1="983"
       y1="290"
       x2="983"
       y2="296"
       gradientUnits="userSpaceOnUse"
       gradientTransform="translate(-952,-258)">
      <stop
         offset="0.189495"
         stop-color="#EFF2F6"
         id="stop1827" />
      <stop
         offset="0.850463"
         stop-color="#B7C6CD"
         id="stop1828" />
    </linearGradient>
    <linearGradient
       id="paint543_linear_890_11"
       x1="978.5"
       y1="298"
       x2="978.5"
       y2="304"
       gradientUnits="userSpaceOnUse"
       gradientTransform="translate(-952,-258)">
      <stop
         offset="0.189495"
         stop-color="#EFF2F6"
         id="stop1829" />
      <stop
         offset="0.850463"
         stop-color="#B7C6CD"
         id="stop1830" />
    </linearGradient>
    <linearGradient
       id="paint544_linear_890_11"
       x1="993"
       y1="261"
       x2="1007"
       y2="275"
       gradientUnits="userSpaceOnUse"
       gradientTransform="translate(-952,-258)">
      <stop
         stop-color="#EFF2F6"
         id="stop1831" />
      <stop
         offset="1"
         stop-color="#B7C6CD"
         id="stop1832" />
    </linearGradient>
    <linearGradient
       id="paint545_linear_890_11"
       x1="1000.58"
       y1="267.41699"
       x2="994.75"
       y2="273.25"
       gradientUnits="userSpaceOnUse"
       gradientTransform="translate(-952,-258)">
      <stop
         stop-color="#5200FF"
         id="stop1833"
         style="stop-color:#c83771;stop-opacity:1" />
      <stop
         offset="1"
         stop-color="#0085FF"
         id="stop1834"
         style="stop-color:#e9afc6;stop-opacity:1" />
    </linearGradient>
    <linearGradient
       inkscape:collect="always"
       xlink:href="#linearGradient1"
       id="linearGradient6"
       x1="43.084759"
       y1="15.546858"
       x2="48"
       y2="10"
       gradientUnits="userSpaceOnUse" />
    <linearGradient
       inkscape:collect="always"
       xlink:href="#linearGradient7"
       id="linearGradient8"
       x1="13.362085"
       y1="8.192524"
       x2="52.599213"
       y2="49.125942"
       gradientUnits="userSpaceOnUse" />
  </defs>
  <sodipodi:namedview
     id="namedview7"
     pagecolor="#ffffff"
     bordercolor="#000000"
     borderopacity="0.25"
     inkscape:showpageshadow="2"
     inkscape:pageopacity="0.0"
     inkscape:pagecheckerboard="0"
     inkscape:deskcolor="#d1d1d1"
     inkscape:zoom="8.3306018"
     inkscape:cx="35.171529"
     inkscape:cy="43.094126"
     inkscape:window-width="1920"
     inkscape:window-height="998"
     inkscape:window-x="0"
     inkscape:window-y="0"
     inkscape:window-maximized="1"
     inkscape:current-layer="svg7" />
  <path
     d="M 7,9 C 7,5.686 9.686,3 13,3 h 34 c 4.42,0 8,3.582 8,8 v 42 c 0,3.314 -2.69,6 -6,6 H 13 C 9.686,59 7,56.314 7,53 Z"
     id="path526"
     style="fill:url(#linearGradient8)" />
  <path
     d="m 41,3 h 8 c 3.31,0 6,2.686 6,6 v 8 h -6 c -4.418,0 -8,-3.582 -8,-8 z"
     id="path531"
     style="fill:url(#paint544_linear_890_11)" />
  <path
     d="M 41,11 V 3 l 14,14 h -8 c -3.314,0 -6,-2.686 -6,-6 z"
     id="path532"
     style="fill:url(#linearGradient6)" />
  <path
     style="opacity:0.2;stroke-width:0.806661"
     d="m 10.43,37.437689 v 11.293339 h 2.42 v -4.033339 -2.42 -1.613322 -0.806678 h 5.377255 c 0.291292,0 0.543374,0.119752 0.75625,0.359231 0.119695,0.134652 0.201124,0.284894 0.253661,0.447447 h 2.486173 v -0.96738 c 0,-0.611718 -0.224152,-1.141094 -0.671173,-1.588125 -0.435265,-0.447021 -0.96464,-0.671173 -1.588125,-0.671173 -0.160702,0 -9.034041,0 -9.034041,0 z m 12.906661,0 v 11.293339 h 2.42 v -2.903691 c 0,-0.305857 0.106508,-0.570536 0.318258,-0.794054 0.223519,-0.223519 0.493765,-0.335594 0.81139,-0.335594 h 5.484397 c 0.623481,0 1.152856,-0.216991 1.588125,-0.652259 C 34.405848,43.598395 34.63,43.061876 34.63,42.438394 v -2.741408 c 0,-0.623484 -0.224152,-1.152859 -0.671169,-1.588125 -0.447035,-0.44702 -0.976411,-0.671172 -1.588125,-0.671172 z m 12.906678,0 v 11.293339 h 2.42 v -7.743691 c 0,-0.305857 0.113205,-0.570536 0.329273,-0.794054 0.228074,-0.223519 0.503048,-0.335594 0.827147,-0.335594 h 1.728355 c 0.312098,0 0.581745,0.112078 0.809819,0.335594 0.228075,0.223518 0.338592,0.488197 0.338728,0.794054 v 7.743691 h 2.42 v -7.743691 c 0,-0.305857 0.130544,-0.570536 0.346625,-0.794054 0.228074,-0.223519 0.504605,-0.335594 0.828723,-0.335594 h 1.709433 c 0.312109,0 0.581738,0.112078 0.809818,0.335594 0.228085,0.223518 0.338601,0.488197 0.33874,0.794054 v 7.743691 h 2.42 v -9.034041 c 0,-0.611718 -0.22763,-1.141094 -0.683777,-1.588125 -0.444141,-0.447021 -0.984995,-0.671173 -1.621213,-0.671173 z m -9.410594,2.42 h 4.301171 c 0.291302,0 0.543382,0.119752 0.75625,0.359231 0.212875,0.239466 0.319834,0.523073 0.319834,0.850769 0,0.340321 -0.106962,0.630213 -0.319834,0.869696 -0.212869,0.226875 -0.464948,0.340304 -0.75625,0.340304 h -4.301171 c -0.3025,0 -0.560708,-0.113429 -0.773584,-0.340304 -0.201661,-0.239483 -0.3025,-0.529375 -0.3025,-0.869696 0,-0.327696 0.100839,-0.611302 0.3025,-0.850769 0.212876,-0.239481 0.471084,-0.359231 0.773584,-0.359231 z"
     id="path2" />
  <path
     style="fill:#ffffff;stroke-width:0.806661"
     d="m 10.43,36.631028 v 11.293339 h 2.42 v -4.033339 -2.42 -1.613339 -0.806661 h 5.377255 c 0.291292,0 0.543374,0.119735 0.75625,0.359214 0.119695,0.134652 0.201124,0.284911 0.253661,0.447447 h 2.486173 v -0.967367 c 0,-0.611714 -0.224152,-1.14109 -0.671173,-1.588125 -0.435265,-0.447017 -0.96464,-0.671169 -1.588125,-0.671169 -0.160702,0 -9.034041,0 -9.034041,0 z m 12.906661,0 v 11.293339 h 2.42 v -2.903691 c 0,-0.305857 0.106508,-0.570553 0.318258,-0.794055 0.223519,-0.223517 0.493765,-0.335593 0.81139,-0.335593 h 5.484397 c 0.623481,0 1.152856,-0.217008 1.588125,-0.652259 C 34.405848,42.791734 34.63,42.255215 34.63,41.631734 v -2.741412 c 0,-0.623481 -0.224152,-1.152856 -0.671169,-1.588125 -0.447035,-0.447017 -0.976411,-0.671169 -1.588125,-0.671169 z m 12.906678,0 v 11.293339 h 2.42 v -7.743691 c 0,-0.305857 0.113205,-0.570553 0.329273,-0.794055 0.228074,-0.223517 0.503048,-0.335593 0.827147,-0.335593 h 1.728355 c 0.312098,0 0.581745,0.112078 0.809819,0.335593 0.228075,0.223502 0.338592,0.488198 0.338728,0.794055 v 7.743691 h 2.42 v -7.743691 c 0,-0.305857 0.130544,-0.570553 0.346625,-0.794055 0.228074,-0.223517 0.504605,-0.335593 0.828723,-0.335593 h 1.709433 c 0.312109,0 0.581738,0.112078 0.809818,0.335593 0.228085,0.223502 0.338601,0.488198 0.33874,0.794055 v 7.743691 h 2.42 v -9.034045 c 0,-0.611714 -0.22763,-1.14109 -0.683777,-1.588125 -0.444141,-0.447017 -0.984995,-0.671169 -1.621213,-0.671169 z m -9.410594,2.42 h 4.301171 c 0.291302,0 0.543382,0.119735 0.75625,0.359214 0.212875,0.239483 0.319834,0.523073 0.319834,0.850786 0,0.340313 -0.106962,0.630213 -0.319834,0.869687 -0.212869,0.226875 -0.464948,0.340313 -0.75625,0.340313 h -4.301171 c -0.3025,0 -0.560708,-0.113438 -0.773584,-0.340313 -0.201661,-0.239474 -0.3025,-0.529374 -0.3025,-0.869687 0,-0.327713 0.100839,-0.611302 0.3025,-0.850786 0.212876,-0.239481 0.471084,-0.359214 0.773584,-0.359214 z"
     id="path3" />
</svg>
