<?xml version="1.0" encoding="UTF-8" standalone="no"?>
<svg
   width="62"
   height="62"
   version="1"
   id="svg7"
   sodipodi:docname="text-x-lilypond.svg"
   inkscape:version="1.4.1 (unknown)"
   xmlns:inkscape="http://www.inkscape.org/namespaces/inkscape"
   xmlns:sodipodi="http://sodipodi.sourceforge.net/DTD/sodipodi-0.dtd"
   xmlns:xlink="http://www.w3.org/1999/xlink"
   xmlns="http://www.w3.org/2000/svg"
   xmlns:svg="http://www.w3.org/2000/svg">
  <defs
     id="defs7">
    <linearGradient
       id="linearGradient8"
       inkscape:collect="always">
      <stop
         style="stop-color:#dbe2e3;stop-opacity:1"
         offset="0"
         id="stop8" />
      <stop
         style="stop-color:#374548;stop-opacity:1"
         offset="1"
         id="stop9" />
    </linearGradient>
    <linearGradient
       id="linearGradient6"
       inkscape:collect="always">
      <stop
         style="stop-color:#e6e6e6;stop-opacity:1"
         offset="0"
         id="stop6" />
      <stop
         style="stop-color:#b3b3b3;stop-opacity:1"
         offset="1"
         id="stop7" />
    </linearGradient>
    <linearGradient
       id="c-3"
       gradientUnits="userSpaceOnUse"
       x1="24.072048"
       x2="23.959682"
       y1="0.75082099"
       y2="46.056854">
      <stop
         offset="0"
         stop-color="#fff"
         id="stop3" />
      <stop
         offset="1"
         stop-color="#d9d9d9"
         id="stop4" />
    </linearGradient>
    <linearGradient
       id="b-6"
       gradientUnits="userSpaceOnUse"
       x1="29.203026"
       x2="34.121048"
       xlink:href="#a-7"
       y1="24.827356"
       y2="29.224836" />
    <linearGradient
       id="a-7">
      <stop
         offset="0"
         id="stop1" />
      <stop
         offset="1"
         stop-opacity="0"
         id="stop2" />
    </linearGradient>
    <linearGradient
       id="d"
       gradientUnits="userSpaceOnUse"
       x1="15.948756"
       x2="25.031786"
       xlink:href="#a-7"
       y1="23.618279"
       y2="33.69899" />
    <linearGradient
       id="e"
       gradientUnits="userSpaceOnUse"
       x1="21.990562"
       x2="29.320522"
       xlink:href="#a-7"
       y1="33.780373"
       y2="41.931858" />
    <linearGradient
       id="paint154_linear_890_11"
       x1="778"
       y1="812.29199"
       x2="788"
       y2="812.29199"
       gradientUnits="userSpaceOnUse"
       gradientTransform="translate(-751,-696)">
      <stop
         stop-color="#EFF2F6"
         id="stop1050" />
      <stop
         offset="0.600785"
         stop-color="#B7C6CD"
         id="stop1051" />
    </linearGradient>
    <linearGradient
       id="paint155_linear_890_11"
       x1="783"
       y1="813"
       x2="783"
       y2="817"
       gradientUnits="userSpaceOnUse"
       gradientTransform="translate(-751,-696)">
      <stop
         stop-color="#EFF2F6"
         id="stop1052" />
      <stop
         offset="0.734138"
         stop-color="#B7C6CD"
         id="stop1053" />
    </linearGradient>
    <radialGradient
       id="paint156_radial_890_11"
       cx="0"
       cy="0"
       r="1"
       gradientUnits="userSpaceOnUse"
       gradientTransform="matrix(27.999986,27.999976,-27.999986,27.999976,32.302392,33.999998)">
      <stop
         offset="0.60067803"
         stop-color="#B7C6CD"
         id="stop1054"
         style="stop-color:#384850;stop-opacity:1;" />
      <stop
         offset="0.876735"
         stop-color="#EFF2F6"
         id="stop1055" />
    </radialGradient>
    <linearGradient
       id="paint157_linear_890_11"
       x1="796.84485"
       y1="799.43359"
       x2="768.90088"
       y2="770.81476"
       gradientUnits="userSpaceOnUse"
       gradientTransform="matrix(1.1666666,0,0,1.1666668,-881.19764,-881.8333)">
      <stop
         offset="0.00000057"
         stop-color="#2E2E41"
         id="stop1056"
         style="stop-color:#424b58;stop-opacity:1;" />
      <stop
         offset="0.71113902"
         stop-color="#566C80"
         id="stop1057"
         style="stop-color:#303c47;stop-opacity:1;" />
    </linearGradient>
    <linearGradient
       id="paint158_linear_890_11"
       x1="792"
       y1="794"
       x2="774"
       y2="776"
       gradientUnits="userSpaceOnUse"
       gradientTransform="translate(-751,-696)">
      <stop
         offset="0.304478"
         stop-color="#2E2E41"
         id="stop1058" />
      <stop
         offset="1"
         stop-color="#566C80"
         id="stop1059" />
    </linearGradient>
    <linearGradient
       id="paint159_linear_890_11"
       x1="788"
       y1="790"
       x2="778"
       y2="780"
       gradientUnits="userSpaceOnUse"
       gradientTransform="translate(-751,-696)">
      <stop
         offset="0.391394"
         stop-color="#5200FF"
         id="stop1060" />
      <stop
         offset="1"
         stop-color="#0085FF"
         id="stop1061" />
    </linearGradient>
    <linearGradient
       id="paint160_linear_890_11"
       x1="784"
       y1="798"
       x2="782"
       y2="796"
       gradientUnits="userSpaceOnUse"
       gradientTransform="translate(-751,-696)">
      <stop
         stop-color="#FF7E07"
         id="stop1062" />
      <stop
         offset="1"
         stop-color="#FFE607"
         id="stop1063" />
    </linearGradient>
    <linearGradient
       id="c-3-6"
       gradientUnits="userSpaceOnUse"
       x1="24.072048"
       x2="23.959682"
       y1="0.75082099"
       y2="46.056854"
       gradientTransform="matrix(0.91471346,0,0,0.90068147,9.0468769,9.3836444)">
      <stop
         offset="0"
         stop-color="#fff"
         id="stop3-2" />
      <stop
         offset="1"
         stop-color="#d9d9d9"
         id="stop4-9" />
    </linearGradient>
    <linearGradient
       id="b-6-1"
       gradientUnits="userSpaceOnUse"
       x1="29.203026"
       x2="34.121048"
       xlink:href="#a-7"
       y1="24.827356"
       y2="29.224836"
       gradientTransform="matrix(1.1104534,0,0,1.0934187,4.3491158,4.7861435)" />
    <linearGradient
       id="d-0"
       gradientUnits="userSpaceOnUse"
       x1="15.948756"
       x2="25.031786"
       xlink:href="#a-7"
       y1="23.618279"
       y2="33.69899"
       gradientTransform="matrix(1.1104534,0,0,1.0934187,4.3491158,4.7861435)" />
    <linearGradient
       id="e-9"
       gradientUnits="userSpaceOnUse"
       x1="21.990562"
       x2="29.320522"
       xlink:href="#a-7"
       y1="33.780373"
       y2="41.931858"
       gradientTransform="matrix(1.1104534,0,0,1.0934187,4.3491158,4.7861435)" />
    <linearGradient
       id="paint539_linear_890_11"
       x1="1007"
       y1="317"
       x2="951.659"
       y2="269.565"
       gradientUnits="userSpaceOnUse"
       gradientTransform="translate(-952,-258)">
      <stop
         offset="0.223912"
         stop-color="#5200FF"
         id="stop1821"
         style="stop-color:#2a7fff;stop-opacity:1" />
      <stop
         offset="0.902995"
         stop-color="#0085FF"
         id="stop1822"
         style="stop-color:#8d5fd3;stop-opacity:1" />
    </linearGradient>
    <linearGradient
       id="paint540_linear_890_11"
       x1="974.5"
       y1="274"
       x2="974.5"
       y2="280"
       gradientUnits="userSpaceOnUse"
       gradientTransform="translate(-952,-258)">
      <stop
         offset="0.189495"
         stop-color="#EFF2F6"
         id="stop1823" />
      <stop
         offset="0.850463"
         stop-color="#B7C6CD"
         id="stop1824" />
    </linearGradient>
    <linearGradient
       id="paint541_linear_890_11"
       x1="983"
       y1="282"
       x2="983"
       y2="288"
       gradientUnits="userSpaceOnUse"
       gradientTransform="translate(-952,-258)">
      <stop
         offset="0.189495"
         stop-color="#EFF2F6"
         id="stop1825" />
      <stop
         offset="0.850463"
         stop-color="#B7C6CD"
         id="stop1826" />
    </linearGradient>
    <linearGradient
       id="paint542_linear_890_11"
       x1="983"
       y1="290"
       x2="983"
       y2="296"
       gradientUnits="userSpaceOnUse"
       gradientTransform="translate(-952,-258)">
      <stop
         offset="0.189495"
         stop-color="#EFF2F6"
         id="stop1827" />
      <stop
         offset="0.850463"
         stop-color="#B7C6CD"
         id="stop1828" />
    </linearGradient>
    <linearGradient
       id="paint543_linear_890_11"
       x1="978.5"
       y1="298"
       x2="978.5"
       y2="304"
       gradientUnits="userSpaceOnUse"
       gradientTransform="translate(-952,-258)">
      <stop
         offset="0.189495"
         stop-color="#EFF2F6"
         id="stop1829" />
      <stop
         offset="0.850463"
         stop-color="#B7C6CD"
         id="stop1830" />
    </linearGradient>
    <linearGradient
       id="paint544_linear_890_11"
       x1="993"
       y1="261"
       x2="1007"
       y2="275"
       gradientUnits="userSpaceOnUse"
       gradientTransform="translate(-952,-258)">
      <stop
         stop-color="#EFF2F6"
         id="stop1831" />
      <stop
         offset="1"
         stop-color="#B7C6CD"
         id="stop1832" />
    </linearGradient>
    <linearGradient
       id="paint545_linear_890_11"
       x1="1000.58"
       y1="267.41699"
       x2="994.75"
       y2="273.25"
       gradientUnits="userSpaceOnUse"
       gradientTransform="translate(-952,-258)">
      <stop
         stop-color="#5200FF"
         id="stop1833" />
      <stop
         offset="1"
         stop-color="#0085FF"
         id="stop1834"
         style="stop-color:#b380ff;stop-opacity:1" />
    </linearGradient>
    <linearGradient
       id="paint704_linear_890_11"
       x1="883"
       y1="67"
       x2="883"
       y2="69"
       gradientUnits="userSpaceOnUse">
      <stop
         stop-color="white"
         id="stop2151" />
      <stop
         offset="0.653031"
         stop-color="#EAEFEF"
         id="stop2152" />
    </linearGradient>
    <linearGradient
       id="paint705_linear_890_11"
       x1="883"
       y1="81"
       x2="883"
       y2="83"
       gradientUnits="userSpaceOnUse">
      <stop
         stop-color="white"
         id="stop2153" />
      <stop
         offset="0.653031"
         stop-color="#EAEFEF"
         id="stop2154" />
    </linearGradient>
    <linearGradient
       id="paint706_linear_890_11"
       x1="883"
       y1="95"
       x2="883"
       y2="97"
       gradientUnits="userSpaceOnUse">
      <stop
         stop-color="white"
         id="stop2155" />
      <stop
         offset="0.653031"
         stop-color="#EAEFEF"
         id="stop2156" />
    </linearGradient>
    <linearGradient
       id="paint707_linear_890_11"
       x1="883"
       y1="109"
       x2="883"
       y2="111"
       gradientUnits="userSpaceOnUse">
      <stop
         stop-color="white"
         id="stop2157" />
      <stop
         offset="0.653031"
         stop-color="#EAEFEF"
         id="stop2158" />
    </linearGradient>
    <linearGradient
       id="paint708_linear_890_11"
       x1="888"
       y1="92"
       x2="878"
       y2="92"
       gradientUnits="userSpaceOnUse">
      <stop
         offset="0.248095"
         stop-color="#FF7E07"
         id="stop2159" />
      <stop
         offset="0.926583"
         stop-color="#FFE607"
         id="stop2160" />
    </linearGradient>
    <linearGradient
       id="paint709_linear_890_11"
       x1="864"
       y1="101"
       x2="874"
       y2="101"
       gradientUnits="userSpaceOnUse">
      <stop
         offset="0.280671"
         stop-color="#F15700"
         id="stop2161" />
      <stop
         offset="0.850616"
         stop-color="#FF0000"
         id="stop2162" />
    </linearGradient>
    <linearGradient
       id="paint710_linear_890_11"
       x1="902"
       y1="88"
       x2="892"
       y2="88"
       gradientUnits="userSpaceOnUse">
      <stop
         offset="0.178038"
         stop-color="#089953"
         id="stop2163" />
      <stop
         offset="0.89422"
         stop-color="#16D96F"
         id="stop2164" />
    </linearGradient>
    <linearGradient
       inkscape:collect="always"
       xlink:href="#linearGradient6"
       id="linearGradient7"
       x1="13.204329"
       y1="7.1121702"
       x2="55"
       y2="59"
       gradientUnits="userSpaceOnUse" />
    <linearGradient
       inkscape:collect="always"
       xlink:href="#linearGradient8"
       id="linearGradient9"
       x1="41"
       y1="17"
       x2="48"
       y2="10"
       gradientUnits="userSpaceOnUse" />
  </defs>
  <sodipodi:namedview
     id="namedview7"
     pagecolor="#ffffff"
     bordercolor="#000000"
     borderopacity="0.25"
     inkscape:showpageshadow="2"
     inkscape:pageopacity="0.0"
     inkscape:pagecheckerboard="0"
     inkscape:deskcolor="#d1d1d1"
     inkscape:zoom="8.3306018"
     inkscape:cx="35.171529"
     inkscape:cy="33.13086"
     inkscape:window-width="1920"
     inkscape:window-height="998"
     inkscape:window-x="0"
     inkscape:window-y="0"
     inkscape:window-maximized="1"
     inkscape:current-layer="svg7" />
  <path
     d="M 7,9 C 7,5.686 9.686,3 13,3 h 34 c 4.42,0 8,3.582 8,8 v 42 c 0,3.314 -2.69,6 -6,6 H 13 C 9.686,59 7,56.314 7,53 Z"
     id="path526"
     style="fill:url(#linearGradient7)" />
  <path
     d="m 41,3 h 8 c 3.31,0 6,2.686 6,6 v 8 h -6 c -4.418,0 -8,-3.582 -8,-8 z"
     id="path531"
     style="fill:url(#paint544_linear_890_11)" />
  <path
     d="M 41,11 V 3 l 14,14 h -8 c -3.314,0 -6,-2.686 -6,-6 z"
     id="path532"
     style="fill:url(#linearGradient9)" />
  <g
     id="g1"
     transform="translate(0,-1.35496)">
    <path
       style="opacity:0.1;stroke-width:1.35499"
       d="m 30.846226,17.209548 c 0.326553,3.116931 -2.704967,5.639349 -4.908584,7.678322 -1.000952,0.89431 -0.165945,0.147543 -0.689188,0.592214 -0.10943,-0.477558 -0.319689,-1.725806 -0.299987,-2.103676 0.139595,-2.68582 3.027018,-6.567751 5.080855,-7.99954 0.330832,0.574972 0.602775,0.621236 0.816904,1.83268 z M 30.99989,32.35574 c -1.319045,-0.9033 -3.051359,-1.14052 -4.639785,-0.88235 -0.204833,-1.25123 -0.409736,-1.55504 -0.614549,-2.80531 2.516676,-2.321993 6.417109,-5.017095 6.560576,-8.513781 0.06313,-2.225313 -0.916015,-4.657391 -2.417079,-6.464164 -1.820534,0.127798 -3.647686,2.149539 -4.613838,3.406265 -1.594093,2.662492 -1.222048,5.899152 -0.610274,8.770126 -0.866578,0.949146 -2.065936,1.737784 -2.9201,2.725794 -2.522566,2.30106 -4.719972,5.41371 -4.287542,8.85137 0.19625,3.32406 2.772361,6.41475 6.284955,7.20535 1.333716,0.31407 2.745048,0.34496 4.09428,0.0979 0.235428,2.24329 1.099133,4.6152 0.09915,6.79253 -0.750202,1.5933 -2.984446,2.9951 -4.638602,2.18558 -0.641751,-0.31511 -0.121727,-0.0501 -0.511775,-0.25135 1.145391,-0.25622 2.140891,-1.23526 2.419685,-1.76274 0.896987,-1.45958 -0.428058,-3.07518 -2.307696,-2.79515 -2.784815,0 -3.551164,2.78035 -1.99358,4.32053 1.441966,1.51547 4.239176,1.30817 5.949116,0.31713 1.940551,-1.17641 2.183592,-3.53342 1.961965,-5.54532 -0.07497,-0.67595 -0.43147,-2.66202 -0.47537,-3.3768 0.746244,-0.24831 0.223768,-0.0576 1.277286,-0.44772 2.847939,-1.04987 4.664839,-5.19373 3.847932,-8.04797 C 33.124172,34.671 32.346879,33.23035 31,32.35496 Z m 0.600638,5.73966 c 0.229137,1.9851 -1.127396,5.25561 -3.296541,5.89263 -0.145615,-0.79257 -0.184123,-1.00797 -0.281151,-1.47058 -0.516268,-2.45268 -0.79657,-5.9194 -1.194846,-8.40604 1.73938,-0.1674 3.701888,0.54141 4.306802,2.1775 0.261221,0.5753 0.367238,1.19335 0.465736,1.80649 z m -5.512361,6.12793 c -2.723855,0.14056 -5.352731,-1.59016 -6.032382,-4.06873 -0.801922,-2.14668 -0.565632,-4.61625 0.878689,-6.48454 1.19388,-1.6969 2.790644,-3.09573 4.313229,-4.52938 0.195937,1.12362 0.391857,1.29983 0.587787,2.4244 -3.201893,0.7797 -5.561747,4.71088 -3.645701,7.42866 0.570008,0.7618 2.116139,2.2164 2.960883,1.62914 -1.179862,-0.68096 -2.144834,-1.85337 -1.937344,-3.21731 -0.0879,-1.27812 1.670241,-2.9023 3.042181,-3.18839 0.469377,2.86035 1.0078,7.00215 1.477177,9.8636 -0.541104,0.0988 -1.093246,0.14254 -1.644519,0.14254 z"
       id="path3" />
    <path
       style="fill:#3f3f3f;stroke-width:1.35499"
       d="m 30.846226,15.854682 c 0.326553,3.116941 -2.704967,5.639347 -4.908584,7.67832 -1.000952,0.894311 -0.165945,0.147546 -0.689188,0.592216 -0.10943,-0.477561 -0.319689,-1.725805 -0.299987,-2.103674 0.139595,-2.685819 3.027018,-6.567752 5.080855,-7.999542 0.330832,0.57497 0.602775,0.621229 0.816904,1.83268 z M 30.99989,31.0009 c -1.319045,-0.90334 -3.051359,-1.14061 -4.639785,-0.8824 -0.204833,-1.25125 -0.409736,-1.55505 -0.614549,-2.805267 2.516676,-2.322013 6.417109,-5.017115 6.560576,-8.513793 0.06315,-2.225315 -0.916015,-4.657398 -2.417079,-6.46417 -1.820534,0.127793 -3.647686,2.149544 -4.613838,3.406264 -1.594093,2.662486 -1.222048,5.89915 -0.610274,8.770126 -0.866578,0.949143 -2.065936,1.737772 -2.9201,2.725801 -2.522566,2.301079 -4.719972,5.413769 -4.287542,8.851389 0.19625,3.32404 2.772361,6.41469 6.284955,7.20529 1.333716,0.31407 2.745048,0.34499 4.09428,0.0979 0.235428,2.2433 1.099133,4.61507 0.09915,6.79263 -0.750202,1.59314 -2.984446,2.99494 -4.638602,2.18535 -0.641751,-0.31504 -0.121727,-0.0501 -0.511775,-0.25128 1.145391,-0.25622 2.140891,-1.23527 2.419685,-1.76273 0.896987,-1.45949 -0.428058,-3.07526 -2.307696,-2.79502 -2.784815,0 -3.551164,2.78015 -1.99358,4.32059 1.441966,1.51548 4.239176,1.3079 5.949116,0.31693 1.940551,-1.17643 2.183592,-3.53327 1.961965,-5.54523 -0.07497,-0.676 -0.43147,-2.66201 -0.47537,-3.37694 0.746244,-0.24826 0.223768,-0.0576 1.277286,-0.44763 2.847939,-1.04984 4.664839,-5.1936 3.847932,-8.04809 C 33.124172,33.31604 32.346879,31.87537 31,31 Z m 0.600638,5.73977 c 0.229137,1.98491 -1.127396,5.25537 -3.296541,5.89255 -0.145615,-0.79268 -0.184123,-1.00796 -0.281151,-1.47058 -0.516268,-2.4526 -0.79657,-5.91952 -1.194846,-8.40603 1.73938,-0.16752 3.701888,0.5414 4.306802,2.17747 0.261221,0.57523 0.367238,1.19342 0.465736,1.80659 z m -5.512361,6.12782 c -2.723855,0.14051 -5.352731,-1.59029 -6.032382,-4.06876 -0.801922,-2.14656 -0.565632,-4.61612 0.878689,-6.48449 1.19388,-1.69698 2.790644,-3.09575 4.313229,-4.52942 0.195937,1.12359 0.391857,1.29978 0.587787,2.42443 -3.201893,0.77965 -5.561747,4.71079 -3.645701,7.42874 0.570008,0.76169 2.116139,2.21617 2.960883,1.62897 -1.179862,-0.68096 -2.144834,-1.85339 -1.937344,-3.21733 -0.0879,-1.27809 1.670241,-2.90222 3.042181,-3.18841 0.469377,2.86042 1.0078,7.00224 1.477177,9.86371 -0.541104,0.0988 -1.093246,0.14255 -1.644519,0.14255 z"
       id="path7" />
  </g>
</svg>
