<?xml version="1.0" encoding="UTF-8" standalone="no"?>
<svg
   width="62"
   height="62"
   version="1"
   id="svg7"
   sodipodi:docname="text-x-arduino.svg"
   inkscape:version="1.4.1 (unknown)"
   xmlns:inkscape="http://www.inkscape.org/namespaces/inkscape"
   xmlns:sodipodi="http://sodipodi.sourceforge.net/DTD/sodipodi-0.dtd"
   xmlns:xlink="http://www.w3.org/1999/xlink"
   xmlns="http://www.w3.org/2000/svg"
   xmlns:svg="http://www.w3.org/2000/svg">
  <defs
     id="defs7">
    <linearGradient
       id="linearGradient8"
       inkscape:collect="always">
      <stop
         style="stop-color:#dbe2e3;stop-opacity:1"
         offset="0"
         id="stop8" />
      <stop
         style="stop-color:#374548;stop-opacity:1"
         offset="1"
         id="stop9" />
    </linearGradient>
    <linearGradient
       id="linearGradient6"
       inkscape:collect="always">
      <stop
         style="stop-color:#e6e6e6;stop-opacity:1"
         offset="0"
         id="stop6" />
      <stop
         style="stop-color:#b3b3b3;stop-opacity:1"
         offset="1"
         id="stop7" />
    </linearGradient>
    <linearGradient
       id="c-3"
       gradientUnits="userSpaceOnUse"
       x1="24.072048"
       x2="23.959682"
       y1="0.75082099"
       y2="46.056854">
      <stop
         offset="0"
         stop-color="#fff"
         id="stop3" />
      <stop
         offset="1"
         stop-color="#d9d9d9"
         id="stop4" />
    </linearGradient>
    <linearGradient
       id="b-6"
       gradientUnits="userSpaceOnUse"
       x1="29.203026"
       x2="34.121048"
       xlink:href="#a-7"
       y1="24.827356"
       y2="29.224836" />
    <linearGradient
       id="a-7">
      <stop
         offset="0"
         id="stop1" />
      <stop
         offset="1"
         stop-opacity="0"
         id="stop2" />
    </linearGradient>
    <linearGradient
       id="d"
       gradientUnits="userSpaceOnUse"
       x1="15.948756"
       x2="25.031786"
       xlink:href="#a-7"
       y1="23.618279"
       y2="33.69899" />
    <linearGradient
       id="e"
       gradientUnits="userSpaceOnUse"
       x1="21.990562"
       x2="29.320522"
       xlink:href="#a-7"
       y1="33.780373"
       y2="41.931858" />
    <linearGradient
       id="paint154_linear_890_11"
       x1="778"
       y1="812.29199"
       x2="788"
       y2="812.29199"
       gradientUnits="userSpaceOnUse"
       gradientTransform="translate(-751,-696)">
      <stop
         stop-color="#EFF2F6"
         id="stop1050" />
      <stop
         offset="0.600785"
         stop-color="#B7C6CD"
         id="stop1051" />
    </linearGradient>
    <linearGradient
       id="paint155_linear_890_11"
       x1="783"
       y1="813"
       x2="783"
       y2="817"
       gradientUnits="userSpaceOnUse"
       gradientTransform="translate(-751,-696)">
      <stop
         stop-color="#EFF2F6"
         id="stop1052" />
      <stop
         offset="0.734138"
         stop-color="#B7C6CD"
         id="stop1053" />
    </linearGradient>
    <radialGradient
       id="paint156_radial_890_11"
       cx="0"
       cy="0"
       r="1"
       gradientUnits="userSpaceOnUse"
       gradientTransform="matrix(27.999986,27.999976,-27.999986,27.999976,32.302392,33.999998)">
      <stop
         offset="0.60067803"
         stop-color="#B7C6CD"
         id="stop1054"
         style="stop-color:#384850;stop-opacity:1;" />
      <stop
         offset="0.876735"
         stop-color="#EFF2F6"
         id="stop1055" />
    </radialGradient>
    <linearGradient
       id="paint157_linear_890_11"
       x1="796.84485"
       y1="799.43359"
       x2="768.90088"
       y2="770.81476"
       gradientUnits="userSpaceOnUse"
       gradientTransform="matrix(1.1666666,0,0,1.1666668,-881.19764,-881.8333)">
      <stop
         offset="0.00000057"
         stop-color="#2E2E41"
         id="stop1056"
         style="stop-color:#424b58;stop-opacity:1;" />
      <stop
         offset="0.71113902"
         stop-color="#566C80"
         id="stop1057"
         style="stop-color:#303c47;stop-opacity:1;" />
    </linearGradient>
    <linearGradient
       id="paint158_linear_890_11"
       x1="792"
       y1="794"
       x2="774"
       y2="776"
       gradientUnits="userSpaceOnUse"
       gradientTransform="translate(-751,-696)">
      <stop
         offset="0.304478"
         stop-color="#2E2E41"
         id="stop1058" />
      <stop
         offset="1"
         stop-color="#566C80"
         id="stop1059" />
    </linearGradient>
    <linearGradient
       id="paint159_linear_890_11"
       x1="788"
       y1="790"
       x2="778"
       y2="780"
       gradientUnits="userSpaceOnUse"
       gradientTransform="translate(-751,-696)">
      <stop
         offset="0.391394"
         stop-color="#5200FF"
         id="stop1060" />
      <stop
         offset="1"
         stop-color="#0085FF"
         id="stop1061" />
    </linearGradient>
    <linearGradient
       id="paint160_linear_890_11"
       x1="784"
       y1="798"
       x2="782"
       y2="796"
       gradientUnits="userSpaceOnUse"
       gradientTransform="translate(-751,-696)">
      <stop
         stop-color="#FF7E07"
         id="stop1062" />
      <stop
         offset="1"
         stop-color="#FFE607"
         id="stop1063" />
    </linearGradient>
    <linearGradient
       id="c-3-6"
       gradientUnits="userSpaceOnUse"
       x1="24.072048"
       x2="23.959682"
       y1="0.75082099"
       y2="46.056854"
       gradientTransform="matrix(0.91471346,0,0,0.90068147,9.0468769,9.3836444)">
      <stop
         offset="0"
         stop-color="#fff"
         id="stop3-2" />
      <stop
         offset="1"
         stop-color="#d9d9d9"
         id="stop4-9" />
    </linearGradient>
    <linearGradient
       id="b-6-1"
       gradientUnits="userSpaceOnUse"
       x1="29.203026"
       x2="34.121048"
       xlink:href="#a-7"
       y1="24.827356"
       y2="29.224836"
       gradientTransform="matrix(1.1104534,0,0,1.0934187,4.3491158,4.7861435)" />
    <linearGradient
       id="d-0"
       gradientUnits="userSpaceOnUse"
       x1="15.948756"
       x2="25.031786"
       xlink:href="#a-7"
       y1="23.618279"
       y2="33.69899"
       gradientTransform="matrix(1.1104534,0,0,1.0934187,4.3491158,4.7861435)" />
    <linearGradient
       id="e-9"
       gradientUnits="userSpaceOnUse"
       x1="21.990562"
       x2="29.320522"
       xlink:href="#a-7"
       y1="33.780373"
       y2="41.931858"
       gradientTransform="matrix(1.1104534,0,0,1.0934187,4.3491158,4.7861435)" />
    <linearGradient
       id="paint539_linear_890_11"
       x1="1007"
       y1="317"
       x2="951.659"
       y2="269.565"
       gradientUnits="userSpaceOnUse"
       gradientTransform="translate(-952,-258)">
      <stop
         offset="0.223912"
         stop-color="#5200FF"
         id="stop1821"
         style="stop-color:#2a7fff;stop-opacity:1" />
      <stop
         offset="0.902995"
         stop-color="#0085FF"
         id="stop1822"
         style="stop-color:#8d5fd3;stop-opacity:1" />
    </linearGradient>
    <linearGradient
       id="paint540_linear_890_11"
       x1="974.5"
       y1="274"
       x2="974.5"
       y2="280"
       gradientUnits="userSpaceOnUse"
       gradientTransform="translate(-952,-258)">
      <stop
         offset="0.189495"
         stop-color="#EFF2F6"
         id="stop1823" />
      <stop
         offset="0.850463"
         stop-color="#B7C6CD"
         id="stop1824" />
    </linearGradient>
    <linearGradient
       id="paint541_linear_890_11"
       x1="983"
       y1="282"
       x2="983"
       y2="288"
       gradientUnits="userSpaceOnUse"
       gradientTransform="translate(-952,-258)">
      <stop
         offset="0.189495"
         stop-color="#EFF2F6"
         id="stop1825" />
      <stop
         offset="0.850463"
         stop-color="#B7C6CD"
         id="stop1826" />
    </linearGradient>
    <linearGradient
       id="paint542_linear_890_11"
       x1="983"
       y1="290"
       x2="983"
       y2="296"
       gradientUnits="userSpaceOnUse"
       gradientTransform="translate(-952,-258)">
      <stop
         offset="0.189495"
         stop-color="#EFF2F6"
         id="stop1827" />
      <stop
         offset="0.850463"
         stop-color="#B7C6CD"
         id="stop1828" />
    </linearGradient>
    <linearGradient
       id="paint543_linear_890_11"
       x1="978.5"
       y1="298"
       x2="978.5"
       y2="304"
       gradientUnits="userSpaceOnUse"
       gradientTransform="translate(-952,-258)">
      <stop
         offset="0.189495"
         stop-color="#EFF2F6"
         id="stop1829" />
      <stop
         offset="0.850463"
         stop-color="#B7C6CD"
         id="stop1830" />
    </linearGradient>
    <linearGradient
       id="paint544_linear_890_11"
       x1="993"
       y1="261"
       x2="1007"
       y2="275"
       gradientUnits="userSpaceOnUse"
       gradientTransform="translate(-952,-258)">
      <stop
         stop-color="#EFF2F6"
         id="stop1831" />
      <stop
         offset="1"
         stop-color="#B7C6CD"
         id="stop1832" />
    </linearGradient>
    <linearGradient
       id="paint545_linear_890_11"
       x1="1000.58"
       y1="267.41699"
       x2="994.75"
       y2="273.25"
       gradientUnits="userSpaceOnUse"
       gradientTransform="translate(-952,-258)">
      <stop
         stop-color="#5200FF"
         id="stop1833" />
      <stop
         offset="1"
         stop-color="#0085FF"
         id="stop1834"
         style="stop-color:#b380ff;stop-opacity:1" />
    </linearGradient>
    <linearGradient
       id="paint704_linear_890_11"
       x1="883"
       y1="67"
       x2="883"
       y2="69"
       gradientUnits="userSpaceOnUse">
      <stop
         stop-color="white"
         id="stop2151" />
      <stop
         offset="0.653031"
         stop-color="#EAEFEF"
         id="stop2152" />
    </linearGradient>
    <linearGradient
       id="paint705_linear_890_11"
       x1="883"
       y1="81"
       x2="883"
       y2="83"
       gradientUnits="userSpaceOnUse">
      <stop
         stop-color="white"
         id="stop2153" />
      <stop
         offset="0.653031"
         stop-color="#EAEFEF"
         id="stop2154" />
    </linearGradient>
    <linearGradient
       id="paint706_linear_890_11"
       x1="883"
       y1="95"
       x2="883"
       y2="97"
       gradientUnits="userSpaceOnUse">
      <stop
         stop-color="white"
         id="stop2155" />
      <stop
         offset="0.653031"
         stop-color="#EAEFEF"
         id="stop2156" />
    </linearGradient>
    <linearGradient
       id="paint707_linear_890_11"
       x1="883"
       y1="109"
       x2="883"
       y2="111"
       gradientUnits="userSpaceOnUse">
      <stop
         stop-color="white"
         id="stop2157" />
      <stop
         offset="0.653031"
         stop-color="#EAEFEF"
         id="stop2158" />
    </linearGradient>
    <linearGradient
       id="paint708_linear_890_11"
       x1="888"
       y1="92"
       x2="878"
       y2="92"
       gradientUnits="userSpaceOnUse">
      <stop
         offset="0.248095"
         stop-color="#FF7E07"
         id="stop2159" />
      <stop
         offset="0.926583"
         stop-color="#FFE607"
         id="stop2160" />
    </linearGradient>
    <linearGradient
       id="paint709_linear_890_11"
       x1="864"
       y1="101"
       x2="874"
       y2="101"
       gradientUnits="userSpaceOnUse">
      <stop
         offset="0.280671"
         stop-color="#F15700"
         id="stop2161" />
      <stop
         offset="0.850616"
         stop-color="#FF0000"
         id="stop2162" />
    </linearGradient>
    <linearGradient
       id="paint710_linear_890_11"
       x1="902"
       y1="88"
       x2="892"
       y2="88"
       gradientUnits="userSpaceOnUse">
      <stop
         offset="0.178038"
         stop-color="#089953"
         id="stop2163" />
      <stop
         offset="0.89422"
         stop-color="#16D96F"
         id="stop2164" />
    </linearGradient>
    <linearGradient
       inkscape:collect="always"
       xlink:href="#linearGradient6"
       id="linearGradient7"
       x1="13.204329"
       y1="7.1121702"
       x2="55"
       y2="59"
       gradientUnits="userSpaceOnUse" />
    <linearGradient
       inkscape:collect="always"
       xlink:href="#linearGradient8"
       id="linearGradient9"
       x1="41"
       y1="17"
       x2="48"
       y2="10"
       gradientUnits="userSpaceOnUse" />
  </defs>
  <sodipodi:namedview
     id="namedview7"
     pagecolor="#ffffff"
     bordercolor="#000000"
     borderopacity="0.25"
     inkscape:showpageshadow="2"
     inkscape:pageopacity="0.0"
     inkscape:pagecheckerboard="0"
     inkscape:deskcolor="#d1d1d1"
     inkscape:zoom="8.3306018"
     inkscape:cx="35.171529"
     inkscape:cy="42.734008"
     inkscape:window-width="1920"
     inkscape:window-height="998"
     inkscape:window-x="0"
     inkscape:window-y="0"
     inkscape:window-maximized="1"
     inkscape:current-layer="svg7" />
  <path
     d="M 7,9 C 7,5.686 9.686,3 13,3 h 34 c 4.42,0 8,3.582 8,8 v 42 c 0,3.314 -2.69,6 -6,6 H 13 C 9.686,59 7,56.314 7,53 Z"
     id="path526"
     style="fill:url(#linearGradient7)" />
  <path
     d="m 41,3 h 8 c 3.31,0 6,2.686 6,6 v 8 h -6 c -4.418,0 -8,-3.582 -8,-8 z"
     id="path531"
     style="fill:url(#paint544_linear_890_11)" />
  <path
     d="M 41,11 V 3 l 14,14 h -8 c -3.314,0 -6,-2.686 -6,-6 z"
     id="path532"
     style="fill:url(#linearGradient9)" />
  <g
     id="g1"
     transform="matrix(1,0,0,0.99746448,1.999952,1.5074463)">
    <path
       style="opacity:0.1;stroke-width:0.701771"
       d="m 39.175447,26.76541 c -2.663472,0 -4.862267,1.407236 -6.614559,3.122232 -1.752294,1.715031 -3.21584,3.817103 -4.657345,5.826472 -1.441484,2.009361 -2.859837,3.923429 -4.270825,5.230236 -1.410954,1.306807 -2.673604,1.961358 -4.106345,1.961358 -3.538005,0 -4.715253,-1.397076 -5.501633,-2.904315 -0.786385,-1.507241 -0.814113,-3.060592 -0.814113,-3.060592 H 9.0000936 c 0,0 -0.027778,2.481752 1.2911104,5.00958 1.31888,2.527849 4.352159,5.165845 9.235169,5.165845 2.777786,0 5.111621,-1.36297 6.968202,-3.082544 1.856538,-1.71945 3.376793,-3.840459 4.83003,-5.866176 1.45324,-2.025713 2.840549,-3.958715 4.180359,-5.269997 1.339782,-1.311276 2.474319,-1.921597 3.670483,-1.921597 3.126,0 4.125501,1.313826 4.854712,2.838529 0.729213,1.524707 0.759293,3.12636 0.759293,3.12636 h 4.210527 c 0,0 0.03011,-2.433409 -1.17051,-4.943768 -1.200592,-2.510362 -4.060743,-5.231623 -8.654022,-5.231623 z m -0.367313,6.300683 a 1.0527355,1.0527355 0 0 0 -1.0362,1.067717 v 1.754382 h -1.772183 a 1.0527355,1.0527355 0 1 0 0,2.105261 h 1.772183 v 1.75438 a 1.0527355,1.0527355 0 1 0 2.105261,0 v -1.75438 h 1.754383 a 1.0527355,1.0527355 0 1 0 0,-2.105261 H 39.877195 V 34.13381 A 1.0527355,1.0527355 0 0 0 38.808134,33.066093 Z M 16.3685,35.888192 a 1.0527355,1.0527355 0 1 0 0,2.105261 h 5.614018 a 1.0527355,1.0527355 0 1 0 0,-2.105261 z"
       id="path3" />
    <path
       style="fill:none;stroke:#00797d;stroke-width:2.10539;stroke-linecap:round;stroke-linejoin:round"
       d="m 16.3685,36.23907 h 5.614018"
       id="path4" />
    <path
       style="fill:none;stroke:#00797d;stroke-width:4.21034"
       d="m 11.105356,36.23907 c 0,0 0,8.070161 8.421017,8.070161 8.421052,0 11.929811,-16.140325 19.649074,-16.140325 7.719269,0 7.719269,8.070164 7.719269,8.070164 v 0 0"
       id="path5" />
    <path
       style="fill:none;stroke:#009da2;stroke-width:2.10539;stroke-linecap:round;stroke-linejoin:round"
       d="m 38.824584,33.43204 v 5.614024 M 35.999996,36.23907 h 5.631582"
       id="path6-2" />
    <path
       style="opacity:0.1;stroke-width:0.701771"
       d="m 19.526373,26.76541 c -4.88301,0 -7.91629,2.637985 -9.235169,5.165811 -0.9091128,1.742483 -1.162213,3.406918 -1.2417706,4.307849 h 4.2379416 c 0.08499,-0.592626 0.270179,-1.463397 0.737365,-2.358818 0.78638,-1.507241 1.963628,-2.90434 5.501633,-2.90434 1.432741,0 2.695391,0.654529 4.106345,1.961339 1.410988,1.30681 2.829342,3.220904 4.270825,5.230255 1.441505,2.00935 2.905051,4.111451 4.657345,5.826435 1.752292,1.715059 3.951087,3.122285 6.614559,3.122285 4.593279,0 7.45343,-2.721262 8.654022,-5.231614 1.200629,-2.510359 1.17051,-4.943811 1.17051,-4.943811 h -4.210527 c 0,0 -0.02999,1.601651 -0.759293,3.126356 -0.729211,1.524734 -1.728712,2.838551 -4.854712,2.838551 -1.196164,0 -2.330701,-0.610298 -3.670483,-1.921595 -1.33981,-1.311301 -2.727119,-3.244264 -4.180359,-5.269999 -1.453237,-2.025732 -2.973492,-4.146703 -4.83003,-5.866211 -1.856581,-1.719511 -4.190416,-3.082493 -6.968202,-3.082493 z"
       id="path7" />
    <path
       style="fill:none;stroke:#009da2;stroke-width:4.21034"
       d="m 11.105356,36.23907 c 0,0 0,-8.070164 8.421017,-8.070164 8.421052,0 11.929811,16.140325 19.649074,16.140325 7.719269,0 7.719269,-8.070161 7.719269,-8.070161 v 0 0"
       id="path8" />
  </g>
</svg>
