<?xml version="1.0" encoding="UTF-8" standalone="no"?>
<svg
   width="62"
   height="62"
   version="1"
   id="svg7"
   sodipodi:docname="text-vcard.svg"
   inkscape:version="1.4.1 (unknown)"
   xmlns:inkscape="http://www.inkscape.org/namespaces/inkscape"
   xmlns:sodipodi="http://sodipodi.sourceforge.net/DTD/sodipodi-0.dtd"
   xmlns:xlink="http://www.w3.org/1999/xlink"
   xmlns="http://www.w3.org/2000/svg"
   xmlns:svg="http://www.w3.org/2000/svg">
  <defs
     id="defs7">
    <linearGradient
       id="linearGradient2"
       inkscape:collect="always">
      <stop
         style="stop-color:#8d98a8;stop-opacity:1;"
         offset="0"
         id="stop9" />
      <stop
         style="stop-color:#eaecef;stop-opacity:1;"
         offset="1"
         id="stop10" />
    </linearGradient>
    <linearGradient
       id="linearGradient7"
       inkscape:collect="always">
      <stop
         style="stop-color:#218fdd;stop-opacity:1;"
         offset="0"
         id="stop7" />
      <stop
         style="stop-color:#1b83d4;stop-opacity:1;"
         offset="1"
         id="stop8" />
    </linearGradient>
    <linearGradient
       id="linearGradient1"
       inkscape:collect="always">
      <stop
         style="stop-color:#135b93;stop-opacity:1;"
         offset="0"
         id="stop5" />
      <stop
         style="stop-color:#98cbf1;stop-opacity:1;"
         offset="1"
         id="stop6" />
    </linearGradient>
    <linearGradient
       id="c-3"
       gradientUnits="userSpaceOnUse"
       x1="24.072048"
       x2="23.959682"
       y1="0.75082099"
       y2="46.056854">
      <stop
         offset="0"
         stop-color="#fff"
         id="stop3" />
      <stop
         offset="1"
         stop-color="#d9d9d9"
         id="stop4" />
    </linearGradient>
    <linearGradient
       id="b-6"
       gradientUnits="userSpaceOnUse"
       x1="29.203026"
       x2="34.121048"
       xlink:href="#a-7"
       y1="24.827356"
       y2="29.224836" />
    <linearGradient
       id="a-7">
      <stop
         offset="0"
         id="stop1" />
      <stop
         offset="1"
         stop-opacity="0"
         id="stop2" />
    </linearGradient>
    <linearGradient
       id="d"
       gradientUnits="userSpaceOnUse"
       x1="15.948756"
       x2="25.031786"
       xlink:href="#a-7"
       y1="23.618279"
       y2="33.69899" />
    <linearGradient
       id="e"
       gradientUnits="userSpaceOnUse"
       x1="21.990562"
       x2="29.320522"
       xlink:href="#a-7"
       y1="33.780373"
       y2="41.931858" />
    <linearGradient
       id="paint154_linear_890_11"
       x1="778"
       y1="812.29199"
       x2="788"
       y2="812.29199"
       gradientUnits="userSpaceOnUse"
       gradientTransform="translate(-751,-696)">
      <stop
         stop-color="#EFF2F6"
         id="stop1050" />
      <stop
         offset="0.600785"
         stop-color="#B7C6CD"
         id="stop1051" />
    </linearGradient>
    <linearGradient
       id="paint155_linear_890_11"
       x1="783"
       y1="813"
       x2="783"
       y2="817"
       gradientUnits="userSpaceOnUse"
       gradientTransform="translate(-751,-696)">
      <stop
         stop-color="#EFF2F6"
         id="stop1052" />
      <stop
         offset="0.734138"
         stop-color="#B7C6CD"
         id="stop1053" />
    </linearGradient>
    <radialGradient
       id="paint156_radial_890_11"
       cx="0"
       cy="0"
       r="1"
       gradientUnits="userSpaceOnUse"
       gradientTransform="matrix(27.999986,27.999976,-27.999986,27.999976,32.302392,33.999998)">
      <stop
         offset="0.60067803"
         stop-color="#B7C6CD"
         id="stop1054"
         style="stop-color:#384850;stop-opacity:1;" />
      <stop
         offset="0.876735"
         stop-color="#EFF2F6"
         id="stop1055" />
    </radialGradient>
    <linearGradient
       id="paint157_linear_890_11"
       x1="796.84485"
       y1="799.43359"
       x2="768.90088"
       y2="770.81476"
       gradientUnits="userSpaceOnUse"
       gradientTransform="matrix(1.1666666,0,0,1.1666668,-881.19764,-881.8333)">
      <stop
         offset="0.00000057"
         stop-color="#2E2E41"
         id="stop1056"
         style="stop-color:#424b58;stop-opacity:1;" />
      <stop
         offset="0.71113902"
         stop-color="#566C80"
         id="stop1057"
         style="stop-color:#303c47;stop-opacity:1;" />
    </linearGradient>
    <linearGradient
       id="paint158_linear_890_11"
       x1="792"
       y1="794"
       x2="774"
       y2="776"
       gradientUnits="userSpaceOnUse"
       gradientTransform="translate(-751,-696)">
      <stop
         offset="0.304478"
         stop-color="#2E2E41"
         id="stop1058" />
      <stop
         offset="1"
         stop-color="#566C80"
         id="stop1059" />
    </linearGradient>
    <linearGradient
       id="paint159_linear_890_11"
       x1="788"
       y1="790"
       x2="778"
       y2="780"
       gradientUnits="userSpaceOnUse"
       gradientTransform="translate(-751,-696)">
      <stop
         offset="0.391394"
         stop-color="#5200FF"
         id="stop1060" />
      <stop
         offset="1"
         stop-color="#0085FF"
         id="stop1061" />
    </linearGradient>
    <linearGradient
       id="paint160_linear_890_11"
       x1="784"
       y1="798"
       x2="782"
       y2="796"
       gradientUnits="userSpaceOnUse"
       gradientTransform="translate(-751,-696)">
      <stop
         stop-color="#FF7E07"
         id="stop1062" />
      <stop
         offset="1"
         stop-color="#FFE607"
         id="stop1063" />
    </linearGradient>
    <linearGradient
       id="c-3-6"
       gradientUnits="userSpaceOnUse"
       x1="24.072048"
       x2="23.959682"
       y1="0.75082099"
       y2="46.056854"
       gradientTransform="matrix(0.91471346,0,0,0.90068147,9.0468769,9.3836444)">
      <stop
         offset="0"
         stop-color="#fff"
         id="stop3-2" />
      <stop
         offset="1"
         stop-color="#d9d9d9"
         id="stop4-9" />
    </linearGradient>
    <linearGradient
       id="b-6-1"
       gradientUnits="userSpaceOnUse"
       x1="29.203026"
       x2="34.121048"
       xlink:href="#a-7"
       y1="24.827356"
       y2="29.224836"
       gradientTransform="matrix(1.1104534,0,0,1.0934187,4.3491158,4.7861435)" />
    <linearGradient
       id="d-0"
       gradientUnits="userSpaceOnUse"
       x1="15.948756"
       x2="25.031786"
       xlink:href="#a-7"
       y1="23.618279"
       y2="33.69899"
       gradientTransform="matrix(1.1104534,0,0,1.0934187,4.3491158,4.7861435)" />
    <linearGradient
       id="e-9"
       gradientUnits="userSpaceOnUse"
       x1="21.990562"
       x2="29.320522"
       xlink:href="#a-7"
       y1="33.780373"
       y2="41.931858"
       gradientTransform="matrix(1.1104534,0,0,1.0934187,4.3491158,4.7861435)" />
    <linearGradient
       id="paint539_linear_890_11"
       x1="1007"
       y1="317"
       x2="951.659"
       y2="269.565"
       gradientUnits="userSpaceOnUse">
      <stop
         offset="0.223912"
         stop-color="#5200FF"
         id="stop1821"
         style="stop-color:#1b83d4;stop-opacity:1;" />
      <stop
         offset="0.90299499"
         stop-color="#0085FF"
         id="stop1822"
         style="stop-color:#5cacea;stop-opacity:1;" />
    </linearGradient>
    <linearGradient
       id="paint540_linear_890_11"
       x1="974.5"
       y1="274"
       x2="974.5"
       y2="280"
       gradientUnits="userSpaceOnUse"
       gradientTransform="translate(-952,-258)">
      <stop
         offset="0.189495"
         stop-color="#EFF2F6"
         id="stop1823" />
      <stop
         offset="0.850463"
         stop-color="#B7C6CD"
         id="stop1824" />
    </linearGradient>
    <linearGradient
       id="paint541_linear_890_11"
       x1="983"
       y1="282"
       x2="983"
       y2="288"
       gradientUnits="userSpaceOnUse"
       gradientTransform="translate(-952,-258)">
      <stop
         offset="0.189495"
         stop-color="#EFF2F6"
         id="stop1825" />
      <stop
         offset="0.850463"
         stop-color="#B7C6CD"
         id="stop1826" />
    </linearGradient>
    <linearGradient
       id="paint542_linear_890_11"
       x1="983"
       y1="290"
       x2="983"
       y2="296"
       gradientUnits="userSpaceOnUse"
       gradientTransform="translate(-952,-258)">
      <stop
         offset="0.189495"
         stop-color="#EFF2F6"
         id="stop1827" />
      <stop
         offset="0.850463"
         stop-color="#B7C6CD"
         id="stop1828" />
    </linearGradient>
    <linearGradient
       id="paint543_linear_890_11"
       x1="978.5"
       y1="298"
       x2="978.5"
       y2="304"
       gradientUnits="userSpaceOnUse"
       gradientTransform="translate(-952,-258)">
      <stop
         offset="0.189495"
         stop-color="#EFF2F6"
         id="stop1829" />
      <stop
         offset="0.850463"
         stop-color="#B7C6CD"
         id="stop1830" />
    </linearGradient>
    <linearGradient
       id="paint544_linear_890_11"
       x1="993"
       y1="261"
       x2="1007"
       y2="275"
       gradientUnits="userSpaceOnUse">
      <stop
         stop-color="#EFF2F6"
         id="stop1831" />
      <stop
         offset="1"
         stop-color="#B7C6CD"
         id="stop1832" />
    </linearGradient>
    <linearGradient
       id="paint545_linear_890_11"
       x1="1000.58"
       y1="267.41699"
       x2="994.75"
       y2="273.25"
       gradientUnits="userSpaceOnUse">
      <stop
         stop-color="#5200FF"
         id="stop1833"
         offset="0"
         style="stop-color:#1b83d4;stop-opacity:1;" />
      <stop
         offset="1"
         stop-color="#0085FF"
         id="stop1834"
         style="stop-color:#8bc8ff;stop-opacity:1;" />
    </linearGradient>
    <linearGradient
       inkscape:collect="always"
       xlink:href="#linearGradient1"
       id="linearGradient6"
       x1="1000"
       y1="268"
       x2="994.65778"
       y2="273.1409"
       gradientUnits="userSpaceOnUse"
       gradientTransform="translate(-952,-258)" />
    <linearGradient
       inkscape:collect="always"
       xlink:href="#linearGradient7"
       id="linearGradient8"
       x1="964.64185"
       y1="271.35422"
       x2="1007"
       y2="317"
       gradientUnits="userSpaceOnUse"
       gradientTransform="translate(-952,-258)" />
    <linearGradient
       inkscape:collect="always"
       xlink:href="#linearGradient2"
       id="linearGradient10"
       x1="996.36108"
       y1="271.24106"
       x2="1005.1265"
       y2="263.85464"
       gradientUnits="userSpaceOnUse"
       gradientTransform="translate(-952,-258)" />
  </defs>
  <sodipodi:namedview
     id="namedview7"
     pagecolor="#ffffff"
     bordercolor="#000000"
     borderopacity="0.25"
     inkscape:showpageshadow="2"
     inkscape:pageopacity="0.0"
     inkscape:pagecheckerboard="0"
     inkscape:deskcolor="#d1d1d1"
     inkscape:zoom="8.3306018"
     inkscape:cx="35.171529"
     inkscape:cy="52.457195"
     inkscape:window-width="1920"
     inkscape:window-height="998"
     inkscape:window-x="0"
     inkscape:window-y="0"
     inkscape:window-maximized="1"
     inkscape:current-layer="svg7" />
  <path
     d="M 7,9 C 7,5.686 9.686,3 13,3 h 34 c 4.42,0 8,3.582 8,8 v 42 c 0,3.314 -2.69,6 -6,6 H 13 C 9.686,59 7,56.314 7,53 Z"
     id="path526"
     style="fill:url(#linearGradient8)" />
  <path
     d="m 41,3 h 8 c 3.31,0 6,2.686 6,6 v 8 h -6 c -4.418,0 -8,-3.582 -8,-8 z"
     id="path531"
     style="fill:url(#linearGradient10)" />
  <path
     d="M 41,11 V 3 l 14,14 h -8 c -3.314,0 -6,-2.686 -6,-6 z"
     id="path532"
     style="fill:url(#linearGradient6)" />
  <g
     id="g1"
     transform="translate(-4,-52.697273)">
    <path
       style="opacity:0.2"
       d="M 34.972656,77.000004 A 14,14 0 0 0 21,91.000004 14,14 0 0 0 35,105 14,14 0 0 0 49,91.000004 a 14,14 0 0 0 -14,-14 14,14 0 0 0 -0.02734,0 z m 0.17968,6.003906 c 0.843774,0.0243 1.657896,0.263674 2.285156,0.6875 0.831744,0.562008 1.349236,1.404302 1.558594,2.54297 0.0685,0.372306 0.07632,1.27813 0.0156,1.718748 -0.17032,1.238004 -0.558296,2.376594 -1.355468,3.964844 -0.325328,0.648202 -0.39236,0.863736 -0.367188,1.207032 0.02032,0.276738 0.13748,0.51834 0.359376,0.730468 0.424118,0.405458 1.127574,0.678446 2.652344,1.039064 1.16479,0.275484 1.274932,0.31025 1.660156,0.496092 0.446912,0.215598 0.730184,0.479058 0.90625,0.839844 0.1827,0.374254 0.185,0.345698 -0.0625,0.671876 -0.501348,0.66071 -1.164458,1.338748 -1.796876,1.832032 l -0.343718,0.265624 H 34.972656 29.28125 L 28.941406,98.73438 c -0.625606,-0.487972 -1.383398,-1.260954 -1.8125,-1.847658 -0.17668,-0.241732 -0.17366,-0.289868 0.0156,-0.664062 0.16018,-0.31661 0.468452,-0.614312 0.824218,-0.796874 0.344462,-0.17674 0.718886,-0.28921 1.691406,-0.515626 2.30051,-0.535588 3.083326,-1.015916 3.078126,-1.890624 -0.0018,-0.30715 -0.0717,-0.509714 -0.453126,-1.257814 -0.908192,-1.781224 -1.295236,-3.060244 -1.335938,-4.429686 -0.0287,-0.967206 0.08996,-1.570724 0.453126,-2.296876 0.555344,-1.110412 1.547834,-1.786972 2.902344,-1.984374 0.281856,-0.04108 0.566396,-0.05498 0.847656,-0.04688 z"
       id="path6-3" />
    <path
       style="fill:#ffffff"
       d="m 34.972656,76.000007 a 14,14 0 0 0 -13.972656,14 14,14 0 0 0 14,14.000003 14,14 0 0 0 14,-14.000003 14,14 0 0 0 -14,-14 14,14 0 0 0 -0.02734,0 z m 0.17968,6.003906 c 0.843774,0.0243 1.657896,0.263674 2.285156,0.6875 0.831744,0.562008 1.349236,1.404302 1.558594,2.54297 0.0685,0.372306 0.07632,1.27813 0.0156,1.718748 -0.17032,1.238004 -0.558296,2.376594 -1.355468,3.964844 -0.325328,0.648202 -0.39236,0.863736 -0.367188,1.207032 0.02032,0.276738 0.13748,0.51834 0.359376,0.730468 0.424118,0.405458 1.127574,0.678446 2.652344,1.039064 1.16479,0.275484 1.274932,0.31025 1.660156,0.496092 0.446912,0.215598 0.730184,0.479058 0.90625,0.839844 0.1827,0.374254 0.185,0.345698 -0.0625,0.671876 -0.501348,0.66071 -1.164458,1.338748 -1.796876,1.832032 l -0.343718,0.265624 H 34.972656 29.28125 l -0.339844,-0.265624 c -0.625606,-0.487972 -1.383398,-1.260954 -1.8125,-1.847658 -0.17668,-0.241732 -0.17366,-0.289868 0.0156,-0.664062 0.16018,-0.31661 0.468452,-0.614312 0.824218,-0.796874 0.344462,-0.17674 0.718886,-0.28921 1.691406,-0.515626 2.30051,-0.535588 3.083326,-1.015916 3.078126,-1.890624 -0.0018,-0.30715 -0.0717,-0.509714 -0.453126,-1.257814 -0.908192,-1.781224 -1.295236,-3.060244 -1.335938,-4.429686 -0.0287,-0.967206 0.08996,-1.570724 0.453126,-2.296876 0.555344,-1.110412 1.547834,-1.786972 2.902344,-1.984374 0.281856,-0.04108 0.566396,-0.05498 0.847656,-0.04688 z"
       id="path7-5" />
  </g>
</svg>
