<?xml version="1.0" encoding="UTF-8" standalone="no"?>
<svg
   width="62"
   height="62"
   version="1"
   id="svg7"
   sodipodi:docname="text-x-elixir.svg"
   inkscape:version="1.4.1 (unknown)"
   xmlns:inkscape="http://www.inkscape.org/namespaces/inkscape"
   xmlns:sodipodi="http://sodipodi.sourceforge.net/DTD/sodipodi-0.dtd"
   xmlns:xlink="http://www.w3.org/1999/xlink"
   xmlns="http://www.w3.org/2000/svg"
   xmlns:svg="http://www.w3.org/2000/svg">
  <defs
     id="defs7">
    <linearGradient
       id="linearGradient8"
       inkscape:collect="always">
      <stop
         style="stop-color:#dbe2e3;stop-opacity:1"
         offset="0"
         id="stop8" />
      <stop
         style="stop-color:#374548;stop-opacity:1"
         offset="1"
         id="stop9" />
    </linearGradient>
    <linearGradient
       id="linearGradient6"
       inkscape:collect="always">
      <stop
         style="stop-color:#e6e6e6;stop-opacity:1"
         offset="0"
         id="stop6" />
      <stop
         style="stop-color:#b3b3b3;stop-opacity:1"
         offset="1"
         id="stop7" />
    </linearGradient>
    <linearGradient
       id="c-3"
       gradientUnits="userSpaceOnUse"
       x1="24.072048"
       x2="23.959682"
       y1="0.75082099"
       y2="46.056854">
      <stop
         offset="0"
         stop-color="#fff"
         id="stop3" />
      <stop
         offset="1"
         stop-color="#d9d9d9"
         id="stop4" />
    </linearGradient>
    <linearGradient
       id="b-6"
       gradientUnits="userSpaceOnUse"
       x1="29.203026"
       x2="34.121048"
       xlink:href="#a-7"
       y1="24.827356"
       y2="29.224836" />
    <linearGradient
       id="a-7">
      <stop
         offset="0"
         id="stop1" />
      <stop
         offset="1"
         stop-opacity="0"
         id="stop2" />
    </linearGradient>
    <linearGradient
       id="d"
       gradientUnits="userSpaceOnUse"
       x1="15.948756"
       x2="25.031786"
       xlink:href="#a-7"
       y1="23.618279"
       y2="33.69899" />
    <linearGradient
       id="e"
       gradientUnits="userSpaceOnUse"
       x1="21.990562"
       x2="29.320522"
       xlink:href="#a-7"
       y1="33.780373"
       y2="41.931858" />
    <linearGradient
       id="paint154_linear_890_11"
       x1="778"
       y1="812.29199"
       x2="788"
       y2="812.29199"
       gradientUnits="userSpaceOnUse"
       gradientTransform="translate(-751,-696)">
      <stop
         stop-color="#EFF2F6"
         id="stop1050" />
      <stop
         offset="0.600785"
         stop-color="#B7C6CD"
         id="stop1051" />
    </linearGradient>
    <linearGradient
       id="paint155_linear_890_11"
       x1="783"
       y1="813"
       x2="783"
       y2="817"
       gradientUnits="userSpaceOnUse"
       gradientTransform="translate(-751,-696)">
      <stop
         stop-color="#EFF2F6"
         id="stop1052" />
      <stop
         offset="0.734138"
         stop-color="#B7C6CD"
         id="stop1053" />
    </linearGradient>
    <radialGradient
       id="paint156_radial_890_11"
       cx="0"
       cy="0"
       r="1"
       gradientUnits="userSpaceOnUse"
       gradientTransform="matrix(27.999986,27.999976,-27.999986,27.999976,32.302392,33.999998)">
      <stop
         offset="0.60067803"
         stop-color="#B7C6CD"
         id="stop1054"
         style="stop-color:#384850;stop-opacity:1;" />
      <stop
         offset="0.876735"
         stop-color="#EFF2F6"
         id="stop1055" />
    </radialGradient>
    <linearGradient
       id="paint157_linear_890_11"
       x1="796.84485"
       y1="799.43359"
       x2="768.90088"
       y2="770.81476"
       gradientUnits="userSpaceOnUse"
       gradientTransform="matrix(1.1666666,0,0,1.1666668,-881.19764,-881.8333)">
      <stop
         offset="0.00000057"
         stop-color="#2E2E41"
         id="stop1056"
         style="stop-color:#424b58;stop-opacity:1;" />
      <stop
         offset="0.71113902"
         stop-color="#566C80"
         id="stop1057"
         style="stop-color:#303c47;stop-opacity:1;" />
    </linearGradient>
    <linearGradient
       id="paint158_linear_890_11"
       x1="792"
       y1="794"
       x2="774"
       y2="776"
       gradientUnits="userSpaceOnUse"
       gradientTransform="translate(-751,-696)">
      <stop
         offset="0.304478"
         stop-color="#2E2E41"
         id="stop1058" />
      <stop
         offset="1"
         stop-color="#566C80"
         id="stop1059" />
    </linearGradient>
    <linearGradient
       id="paint159_linear_890_11"
       x1="788"
       y1="790"
       x2="778"
       y2="780"
       gradientUnits="userSpaceOnUse"
       gradientTransform="translate(-751,-696)">
      <stop
         offset="0.391394"
         stop-color="#5200FF"
         id="stop1060" />
      <stop
         offset="1"
         stop-color="#0085FF"
         id="stop1061" />
    </linearGradient>
    <linearGradient
       id="paint160_linear_890_11"
       x1="784"
       y1="798"
       x2="782"
       y2="796"
       gradientUnits="userSpaceOnUse"
       gradientTransform="translate(-751,-696)">
      <stop
         stop-color="#FF7E07"
         id="stop1062" />
      <stop
         offset="1"
         stop-color="#FFE607"
         id="stop1063" />
    </linearGradient>
    <linearGradient
       id="c-3-6"
       gradientUnits="userSpaceOnUse"
       x1="24.072048"
       x2="23.959682"
       y1="0.75082099"
       y2="46.056854"
       gradientTransform="matrix(0.91471346,0,0,0.90068147,9.0468769,9.3836444)">
      <stop
         offset="0"
         stop-color="#fff"
         id="stop3-2" />
      <stop
         offset="1"
         stop-color="#d9d9d9"
         id="stop4-9" />
    </linearGradient>
    <linearGradient
       id="b-6-1"
       gradientUnits="userSpaceOnUse"
       x1="29.203026"
       x2="34.121048"
       xlink:href="#a-7"
       y1="24.827356"
       y2="29.224836"
       gradientTransform="matrix(1.1104534,0,0,1.0934187,4.3491158,4.7861435)" />
    <linearGradient
       id="d-0"
       gradientUnits="userSpaceOnUse"
       x1="15.948756"
       x2="25.031786"
       xlink:href="#a-7"
       y1="23.618279"
       y2="33.69899"
       gradientTransform="matrix(1.1104534,0,0,1.0934187,4.3491158,4.7861435)" />
    <linearGradient
       id="e-9"
       gradientUnits="userSpaceOnUse"
       x1="21.990562"
       x2="29.320522"
       xlink:href="#a-7"
       y1="33.780373"
       y2="41.931858"
       gradientTransform="matrix(1.1104534,0,0,1.0934187,4.3491158,4.7861435)" />
    <linearGradient
       id="paint539_linear_890_11"
       x1="1007"
       y1="317"
       x2="951.659"
       y2="269.565"
       gradientUnits="userSpaceOnUse"
       gradientTransform="translate(-952,-258)">
      <stop
         offset="0.223912"
         stop-color="#5200FF"
         id="stop1821"
         style="stop-color:#2a7fff;stop-opacity:1" />
      <stop
         offset="0.902995"
         stop-color="#0085FF"
         id="stop1822"
         style="stop-color:#8d5fd3;stop-opacity:1" />
    </linearGradient>
    <linearGradient
       id="paint540_linear_890_11"
       x1="974.5"
       y1="274"
       x2="974.5"
       y2="280"
       gradientUnits="userSpaceOnUse"
       gradientTransform="translate(-952,-258)">
      <stop
         offset="0.189495"
         stop-color="#EFF2F6"
         id="stop1823" />
      <stop
         offset="0.850463"
         stop-color="#B7C6CD"
         id="stop1824" />
    </linearGradient>
    <linearGradient
       id="paint541_linear_890_11"
       x1="983"
       y1="282"
       x2="983"
       y2="288"
       gradientUnits="userSpaceOnUse"
       gradientTransform="translate(-952,-258)">
      <stop
         offset="0.189495"
         stop-color="#EFF2F6"
         id="stop1825" />
      <stop
         offset="0.850463"
         stop-color="#B7C6CD"
         id="stop1826" />
    </linearGradient>
    <linearGradient
       id="paint542_linear_890_11"
       x1="983"
       y1="290"
       x2="983"
       y2="296"
       gradientUnits="userSpaceOnUse"
       gradientTransform="translate(-952,-258)">
      <stop
         offset="0.189495"
         stop-color="#EFF2F6"
         id="stop1827" />
      <stop
         offset="0.850463"
         stop-color="#B7C6CD"
         id="stop1828" />
    </linearGradient>
    <linearGradient
       id="paint543_linear_890_11"
       x1="978.5"
       y1="298"
       x2="978.5"
       y2="304"
       gradientUnits="userSpaceOnUse"
       gradientTransform="translate(-952,-258)">
      <stop
         offset="0.189495"
         stop-color="#EFF2F6"
         id="stop1829" />
      <stop
         offset="0.850463"
         stop-color="#B7C6CD"
         id="stop1830" />
    </linearGradient>
    <linearGradient
       id="paint544_linear_890_11"
       x1="993"
       y1="261"
       x2="1007"
       y2="275"
       gradientUnits="userSpaceOnUse"
       gradientTransform="translate(-952,-258)">
      <stop
         stop-color="#EFF2F6"
         id="stop1831" />
      <stop
         offset="1"
         stop-color="#B7C6CD"
         id="stop1832" />
    </linearGradient>
    <linearGradient
       id="paint545_linear_890_11"
       x1="1000.58"
       y1="267.41699"
       x2="994.75"
       y2="273.25"
       gradientUnits="userSpaceOnUse"
       gradientTransform="translate(-952,-258)">
      <stop
         stop-color="#5200FF"
         id="stop1833" />
      <stop
         offset="1"
         stop-color="#0085FF"
         id="stop1834"
         style="stop-color:#b380ff;stop-opacity:1" />
    </linearGradient>
    <linearGradient
       id="paint704_linear_890_11"
       x1="883"
       y1="67"
       x2="883"
       y2="69"
       gradientUnits="userSpaceOnUse">
      <stop
         stop-color="white"
         id="stop2151" />
      <stop
         offset="0.653031"
         stop-color="#EAEFEF"
         id="stop2152" />
    </linearGradient>
    <linearGradient
       id="paint705_linear_890_11"
       x1="883"
       y1="81"
       x2="883"
       y2="83"
       gradientUnits="userSpaceOnUse">
      <stop
         stop-color="white"
         id="stop2153" />
      <stop
         offset="0.653031"
         stop-color="#EAEFEF"
         id="stop2154" />
    </linearGradient>
    <linearGradient
       id="paint706_linear_890_11"
       x1="883"
       y1="95"
       x2="883"
       y2="97"
       gradientUnits="userSpaceOnUse">
      <stop
         stop-color="white"
         id="stop2155" />
      <stop
         offset="0.653031"
         stop-color="#EAEFEF"
         id="stop2156" />
    </linearGradient>
    <linearGradient
       id="paint707_linear_890_11"
       x1="883"
       y1="109"
       x2="883"
       y2="111"
       gradientUnits="userSpaceOnUse">
      <stop
         stop-color="white"
         id="stop2157" />
      <stop
         offset="0.653031"
         stop-color="#EAEFEF"
         id="stop2158" />
    </linearGradient>
    <linearGradient
       id="paint708_linear_890_11"
       x1="888"
       y1="92"
       x2="878"
       y2="92"
       gradientUnits="userSpaceOnUse">
      <stop
         offset="0.248095"
         stop-color="#FF7E07"
         id="stop2159" />
      <stop
         offset="0.926583"
         stop-color="#FFE607"
         id="stop2160" />
    </linearGradient>
    <linearGradient
       id="paint709_linear_890_11"
       x1="864"
       y1="101"
       x2="874"
       y2="101"
       gradientUnits="userSpaceOnUse">
      <stop
         offset="0.280671"
         stop-color="#F15700"
         id="stop2161" />
      <stop
         offset="0.850616"
         stop-color="#FF0000"
         id="stop2162" />
    </linearGradient>
    <linearGradient
       id="paint710_linear_890_11"
       x1="902"
       y1="88"
       x2="892"
       y2="88"
       gradientUnits="userSpaceOnUse">
      <stop
         offset="0.178038"
         stop-color="#089953"
         id="stop2163" />
      <stop
         offset="0.89422"
         stop-color="#16D96F"
         id="stop2164" />
    </linearGradient>
    <linearGradient
       inkscape:collect="always"
       xlink:href="#linearGradient6"
       id="linearGradient7"
       x1="13.204329"
       y1="7.1121702"
       x2="55"
       y2="59"
       gradientUnits="userSpaceOnUse" />
    <linearGradient
       inkscape:collect="always"
       xlink:href="#linearGradient8"
       id="linearGradient9"
       x1="41"
       y1="17"
       x2="48"
       y2="10"
       gradientUnits="userSpaceOnUse" />
  </defs>
  <sodipodi:namedview
     id="namedview7"
     pagecolor="#ffffff"
     bordercolor="#000000"
     borderopacity="0.25"
     inkscape:showpageshadow="2"
     inkscape:pageopacity="0.0"
     inkscape:pagecheckerboard="0"
     inkscape:deskcolor="#d1d1d1"
     inkscape:zoom="8.3306018"
     inkscape:cx="35.171529"
     inkscape:cy="52.337155"
     inkscape:window-width="1920"
     inkscape:window-height="998"
     inkscape:window-x="0"
     inkscape:window-y="0"
     inkscape:window-maximized="1"
     inkscape:current-layer="svg7" />
  <path
     d="M 7,9 C 7,5.686 9.686,3 13,3 h 34 c 4.42,0 8,3.582 8,8 v 42 c 0,3.314 -2.69,6 -6,6 H 13 C 9.686,59 7,56.314 7,53 Z"
     id="path526"
     style="fill:url(#linearGradient7)" />
  <path
     d="m 41,3 h 8 c 3.31,0 6,2.686 6,6 v 8 h -6 c -4.418,0 -8,-3.582 -8,-8 z"
     id="path531"
     style="fill:url(#paint544_linear_890_11)" />
  <path
     d="M 41,11 V 3 l 14,14 h -8 c -3.314,0 -6,-2.686 -6,-6 z"
     id="path532"
     style="fill:url(#linearGradient9)" />
  <g
     id="g1"
     transform="matrix(1.1034484,0,0,1.1034484,-7.6206941,-50.985478)">
    <path
       style="opacity:0.1"
       d="m 35.769531,68.002225 c -0.565887,0.205505 -1.124399,0.523065 -1.677734,0.945312 1.99e-4,-0.0064 -2.13e-4,-0.01313 0,-0.01953 -0.129535,0.104357 -0.255882,0.21407 -0.380859,0.328125 -1.295257,1.110687 -2.555096,2.816595 -3.78125,5.126953 -0.09863,0.185891 -0.200455,0.380962 -0.300782,0.572266 -1.213112,2.282843 -2.509129,4.932535 -3.175781,7.673828 -0.209914,0.778745 -0.342714,1.572501 -0.400391,2.382813 -0.02818,0.32314 -0.04476,0.64596 -0.04883,0.96875 -0.0021,0.164007 -0.0046,0.328448 0,0.492187 0.03857,2.305245 0.727493,4.581004 2.480469,6.664063 1.511448,1.795922 3.643503,2.79187 5.525391,2.818359 0.375077,0.03722 0.759682,0.05405 1.158203,0.03711 1.417542,0.06462 2.96181,-0.285133 4.517578,-1.091796 2.747021,-1.424826 4.064368,-4.304027 4.273437,-7.548829 0.03573,-0.146831 0.04874,-0.292869 0.0332,-0.439453 0.0089,-0.186648 0.0062,-0.372616 -0.0039,-0.55664 -2.82e-4,-0.07373 0.0014,-0.146734 0,-0.220704 -0.0118,-0.644297 -0.228294,-1.30161 -0.582031,-1.966796 -0.0185,-0.03811 -0.03526,-0.07823 -0.05469,-0.115235 -1.258389,-2.397557 -2.524415,-4.0337 -3.628906,-5.388672 -1.203187,-1.476044 -2.21367,-2.618185 -2.814453,-4.046875 C 36.75721,74.233208 36.625511,73.836101 36.52539,73.420196 36.35688,72.67959 36.219773,72.001097 36.107422,71.371366 36.068014,71.150853 36.032307,70.937385 36,70.730741 c -0.132595,-0.845184 -0.210785,-1.580633 -0.228516,-2.199219 -0.0036,-0.160624 -0.0045,-0.314198 0,-0.458985 -5.61e-4,2.01e-4 -0.0014,-2e-4 -0.002,0 4.91e-4,-0.02252 -6.76e-4,-0.04816 0,-0.07031 z"
       id="path3" />
    <path
       style="fill:#a55dd7"
       d="m 35.77224,67.070436 c -2.016579,0.720998 -3.963335,2.825799 -5.839837,6.313533 -2.814535,5.232478 -6.450447,12.667318 -1.444129,18.55429 2.31581,2.722989 6.139937,4.330356 11.158396,1.784993 4.031854,-2.045303 5.153333,-7.914339 3.705733,-10.671888 -1.258389,-2.397557 -2.524482,-4.033868 -3.628973,-5.38884 -1.516187,-1.860026 -2.727851,-3.189881 -3.197034,-5.230987 -0.54079,-2.35199 -0.79232,-4.138731 -0.754591,-5.361101 z"
       id="path7" />
    <path
       style="fill:#a55cd7"
       d="m 35.770506,67 c -2.027412,0.736264 -3.974145,2.86369 -5.841064,6.381396 -2.799946,5.277222 -6.451805,12.803478 -1.444434,18.753729 2.316299,2.752257 6.092215,3.641522 8.187294,2.00936 1.365923,-1.064378 2.294611,-2.078786 2.829877,-4.216385 C 40.09817,87.548177 39.64099,84.343551 39.327372,82.871907 40.587198,78.242263 37.396899,76.041324 36.524823,72.418726 35.983919,70.041456 35.732336,68.235508 35.770073,67 Z"
       id="path8" />
    <path
       style="fill:#772bac"
       d="m 34.091842,67.925967 c -1.888176,1.52117 -3.292269,4.072668 -4.211849,7.654494 -1.37937,5.373179 -1.528583,10.328037 -1.041901,13.2103 0.943003,5.586764 5.832389,7.707558 10.847135,5.107419 3.086231,-1.600767 4.371907,-5.035782 4.303806,-8.764417 -0.0707,-3.861297 -7.389169,-8.236872 -8.685256,-11.458745 -0.864058,-2.14821 -1.267892,-4.064707 -1.211935,-5.749051 z"
       id="path9" />
    <path
       style="opacity:0.559152;fill:#ab73d6"
       d="m 34.328043,70.486293 c -0.375035,0.368436 -0.74233,0.803018 -1.099841,1.312788 -1.28394,1.831154 -1.937511,2.929971 -1.453432,6.559998 0.322722,2.420163 0.554269,4.645649 0.693505,6.678444 l 2.316895,-6.86796 C 34.76068,77.994885 34.73638,77.817222 34.7207,77.662215 34.610116,76.566274 35.113468,74.780373 35.595884,74.256861 35.479193,74.058877 35.379238,73.864372 35.302855,73.674496 34.849419,72.547174 34.528058,71.48593 34.32804,70.486293 Z"
       id="path10" />
    <path
       style="fill:#622d87"
       d="m 38.878859,77.999299 c 2.264248,2.960532 2.757871,5.021629 1.480437,6.182848 -1.915502,1.741827 -6.600587,2.878284 -9.515046,0.771199 -1.943262,-1.404871 -2.678491,-4.418027 -2.20569,-9.040351 a 40.717419,41.509373 0 0 0 -2.034352,5.189667 c -0.55435,1.751998 -0.716579,3.585363 -0.485815,5.500091 0.69489,1.432729 2.383533,2.389209 5.066362,2.870324 4.025329,0.721672 7.833777,0.364816 10.389947,-0.948521 1.704258,-0.875556 2.510192,-1.747576 2.418235,-2.615173 0.06116,-1.281499 -0.326191,-2.501086 -1.162922,-3.659652 -0.837164,-1.158567 -2.154071,-2.574936 -3.95159,-4.250876 z"
       id="path11" />
    <path
       style="fill:#6f3f91;fill-opacity:0.658"
       d="m 35.400534,73.891648 c -0.493845,0.681885 -0.909498,1.581865 -1.244403,2.704544 -0.57734,1.936838 -1.105008,4.644705 -1.584317,8.123499 0.639369,-2.212773 1.063112,-3.816215 1.271753,-4.808953 0.313176,-1.488448 0.420256,-3.592967 1.252216,-5.022159 0.152255,-0.261732 0.301142,-0.503119 0.445406,-0.728451 -0.05095,-0.0906 -0.09805,-0.179551 -0.140655,-0.26848 z"
       id="path12" />
    <path
       style="fill:#481e68"
       d="m 30.030075,75.043187 c -0.01908,2.13804 0.520083,4.170394 1.617506,6.097945 1.646135,2.890223 3.567708,5.745957 6.443128,8.113498 1.917238,1.578658 3.448857,2.088072 4.595297,1.530014 -0.941269,1.717949 -1.943262,2.559899 -3.003816,2.525407 -1.591481,-0.05129 -3.531706,-0.760584 -6.640924,-4.569258 -2.072525,-2.539116 -3.4905,-4.941149 -4.25349,-7.205659 0.121024,-0.898551 0.249414,-1.793124 0.384749,-2.684159 0.135765,-0.891474 0.421617,-2.160591 0.857116,-3.807788 z"
       id="path13" />
    <path
       style="opacity:0.53177;fill:#ab67d9"
       d="m 35.593934,74.258835 c -0.481796,0.526323 -0.983648,2.30898 -0.873231,3.40338 0.176108,1.742272 1.012546,4.843155 0.17191,6.698186 -0.840632,1.855032 -4.722553,5.206461 -3.651157,8.159033 1.072265,2.95169 3.682672,2.288487 5.321431,0.927835 1.638762,-1.360651 2.517183,-3.573099 2.711509,-5.12876 0.194326,-1.555663 -0.465118,-4.548112 -0.679831,-7.152233 -0.104593,-1.268206 -0.07956,-2.4032 0.07228,-3.407329 -1.271117,-1.239216 -2.442883,-2.423337 -3.072914,-3.500112 z"
       id="path14" />
  </g>
</svg>
