<?xml version="1.0" encoding="UTF-8" standalone="no"?>
<svg
   viewBox="0 0 22 22"
   version="1.1"
   id="svg1"
   sodipodi:docname="bookmarks.svg"
   width="22"
   height="22"
   inkscape:version="1.4.1 (unknown)"
   xmlns:inkscape="http://www.inkscape.org/namespaces/inkscape"
   xmlns:sodipodi="http://sodipodi.sourceforge.net/DTD/sodipodi-0.dtd"
   xmlns="http://www.w3.org/2000/svg"
   xmlns:svg="http://www.w3.org/2000/svg">
  <sodipodi:namedview
     id="namedview1"
     pagecolor="#ffffff"
     bordercolor="#000000"
     borderopacity="0.25"
     inkscape:showpageshadow="2"
     inkscape:pageopacity="0.0"
     inkscape:pagecheckerboard="0"
     inkscape:deskcolor="#d1d1d1"
     inkscape:zoom="24.0625"
     inkscape:cx="9.3298701"
     inkscape:cy="11.968831"
     inkscape:window-width="1920"
     inkscape:window-height="998"
     inkscape:window-x="0"
     inkscape:window-y="0"
     inkscape:window-maximized="1"
     inkscape:current-layer="svg1" />
  <defs
     id="defs3051">
    <style
       type="text/css"
       id="current-color-scheme"> .ColorScheme-Text { color:#fcfcfc; } </style>
  </defs>
  <path
     style="fill:currentColor;fill-opacity:1;stroke:none;stroke-width:1.33323"
     d="m 5.6666615,5.6666677 c 0,2.6666646 0,13.3333323 0,13.3333323 L 10.999994,16.874677 16.333338,19 c 0,0 0,-10.6666677 0,-13.3333323 C 16.333338,3 13.666662,3 13.666662,3 H 8.3333292 c 0,0 -2.6666677,0 -2.6666677,2.6666677 z M 8.3333292,4.3333323 h 5.3333328 c 0,0 1.333323,0 1.333323,1.3333354 0,1.3333323 0,11.4586553 0,11.4586553 l -3.999991,-1.584 -4.0000002,1.584 v -3.458646 c 0,0 0,-6.666677 0,-8.0000093 0,-1.3333354 1.3333354,-1.3333354 1.3333354,-1.3333354 z"
     class="ColorScheme-Text"
     id="path1" />
</svg>
